<?xml version="1.0" encoding="UTF-8" standalone="no"?>
<!DOCTYPE svg PUBLIC "-//W3C//DTD SVG 1.1//EN"
 "http://www.w3.org/Graphics/SVG/1.1/DTD/svg11.dtd">
<!-- Generated by graphviz version 2.36.0 (20140111.2315)
 -->
<!-- Title: rstm/rstm&#45;dev/stamp&#45;0.9.10/vacation/action.h Pages: 1 -->
<svg width="281pt" height="176pt"
 viewBox="0.00 0.00 281.00 176.00" xmlns="http://www.w3.org/2000/svg" xmlns:xlink="http://www.w3.org/1999/xlink">
<g id="graph0" class="graph" transform="scale(1 1) rotate(0) translate(4 172)">
<title>rstm/rstm&#45;dev/stamp&#45;0.9.10/vacation/action.h</title>
<!-- Node1 -->
<g id="node1" class="node"><title>Node1</title>
<polygon fill="#bfbfbf" stroke="black" points="42,-137 42,-167 166,-167 166,-137 42,-137"/>
<text text-anchor="start" x="50" y="-155" font-family="Helvetica,sans-Serif" font-size="10.00">rstm/rstm&#45;dev/stamp</text>
<text text-anchor="middle" x="104" y="-144" font-family="Helvetica,sans-Serif" font-size="10.00">&#45;0.9.10/vacation/action.h</text>
</g>
<!-- Node2 -->
<g id="node2" class="node"><title>Node2</title>
<g id="a_node2"><a xlink:href="client_8c.html" target="_top" xlink:title="rstm/rstm&#45;dev/stamp\l&#45;0.9.10/vacation/client.c">
<polygon fill="none" stroke="black" points="-0.5,-1 -0.5,-31 120.5,-31 120.5,-1 -0.5,-1"/>
<text text-anchor="start" x="7.5" y="-19" font-family="Helvetica,sans-Serif" font-size="10.00">rstm/rstm&#45;dev/stamp</text>
<text text-anchor="middle" x="60" y="-8" font-family="Helvetica,sans-Serif" font-size="10.00">&#45;0.9.10/vacation/client.c</text>
</a>
</g>
</g>
<!-- Node1&#45;&gt;Node2 -->
<g id="edge1" class="edge"><title>Node1&#45;&gt;Node2</title>
<path fill="none" stroke="midnightblue" d="M91.1657,-127.689C86.8512,-119.162 82.301,-109.32 79,-100 70.6591,-76.4512 65.0505,-47.8222 62.2017,-31.0832"/>
<polygon fill="midnightblue" stroke="midnightblue" points="88.1211,-129.42 95.8577,-136.658 94.3237,-126.175 88.1211,-129.42"/>
</g>
<!-- Node3 -->
<g id="node3" class="node"><title>Node3</title>
<g id="a_node3"><a xlink:href="client_8h.html" target="_top" xlink:title="rstm/rstm&#45;dev/stamp\l&#45;0.9.10/vacation/client.h">
<polygon fill="none" stroke="black" points="88.5,-69 88.5,-99 209.5,-99 209.5,-69 88.5,-69"/>
<text text-anchor="start" x="96.5" y="-87" font-family="Helvetica,sans-Serif" font-size="10.00">rstm/rstm&#45;dev/stamp</text>
<text text-anchor="middle" x="149" y="-76" font-family="Helvetica,sans-Serif" font-size="10.00">&#45;0.9.10/vacation/client.h</text>
</a>
</g>
</g>
<!-- Node1&#45;&gt;Node3 -->
<g id="edge2" class="edge"><title>Node1&#45;&gt;Node3</title>
<path fill="none" stroke="midnightblue" d="M119.468,-128.314C126.03,-118.689 133.479,-107.763 139.255,-99.2931"/>
<polygon fill="midnightblue" stroke="midnightblue" points="116.506,-126.445 113.764,-136.679 122.29,-130.388 116.506,-126.445"/>
</g>
<!-- Node3&#45;&gt;Node2 -->
<g id="edge3" class="edge"><title>Node3&#45;&gt;Node2</title>
<path fill="none" stroke="midnightblue" d="M121.49,-62.5994C107.697,-52.3712 91.3425,-40.2428 78.9682,-31.0663"/>
<polygon fill="midnightblue" stroke="midnightblue" points="119.571,-65.5337 129.688,-68.679 123.741,-59.911 119.571,-65.5337"/>
</g>
<!-- Node4 -->
<g id="node4" class="node"><title>Node4</title>
<g id="a_node4"><a xlink:href="vacation_8c.html" target="_top" xlink:title="rstm/rstm&#45;dev/stamp\l&#45;0.9.10/vacation/vacation.c">
<polygon fill="none" stroke="black" points="139,-1 139,-31 273,-31 273,-1 139,-1"/>
<text text-anchor="start" x="147" y="-19" font-family="Helvetica,sans-Serif" font-size="10.00">rstm/rstm&#45;dev/stamp</text>
<text text-anchor="middle" x="206" y="-8" font-family="Helvetica,sans-Serif" font-size="10.00">&#45;0.9.10/vacation/vacation.c</text>
</a>
</g>
</g>
<!-- Node3&#45;&gt;Node4 -->
<g id="edge4" class="edge"><title>Node3&#45;&gt;Node4</title>
<path fill="none" stroke="midnightblue" d="M168.085,-60.9013C176.519,-51.1362 186.191,-39.9363 193.656,-31.2931"/>
<polygon fill="midnightblue" stroke="midnightblue" points="165.255,-58.823 161.368,-68.679 170.553,-63.3984 165.255,-58.823"/>
</g>
</g>
</svg>
