<?xml version="1.0" encoding="UTF-8" standalone="no"?>
<!DOCTYPE svg PUBLIC "-//W3C//DTD SVG 1.1//EN"
 "http://www.w3.org/Graphics/SVG/1.1/DTD/svg11.dtd">
<!-- Generated by graphviz version 2.36.0 (20140111.2315)
 -->
<!-- Title: allocNode Pages: 1 -->
<svg width="356pt" height="66pt"
 viewBox="0.00 0.00 356.00 66.00" xmlns="http://www.w3.org/2000/svg" xmlns:xlink="http://www.w3.org/1999/xlink">
<g id="graph0" class="graph" transform="scale(1 1) rotate(0) translate(4 62)">
<title>allocNode</title>
<!-- Node1 -->
<g id="node1" class="node"><title>Node1</title>
<polygon fill="#bfbfbf" stroke="black" points="0,-38.5 0,-57.5 60,-57.5 60,-38.5 0,-38.5"/>
<text text-anchor="middle" x="30" y="-45.5" font-family="Helvetica,sans-Serif" font-size="10.00">allocNode</text>
</g>
<!-- Node2 -->
<g id="node2" class="node"><title>Node2</title>
<g id="a_node2"><a xlink:href="adtree_8c.html#a2524e945b88ac537d3646587638ecc12" target="_top" xlink:title="makeNode">
<polygon fill="none" stroke="black" points="96,-38.5 96,-57.5 160,-57.5 160,-38.5 96,-38.5"/>
<text text-anchor="middle" x="128" y="-45.5" font-family="Helvetica,sans-Serif" font-size="10.00">makeNode</text>
</a>
</g>
</g>
<!-- Node1&#45;&gt;Node2 -->
<g id="edge1" class="edge"><title>Node1&#45;&gt;Node2</title>
<path fill="none" stroke="midnightblue" d="M70.1663,-48C78.6658,-48 87.548,-48 95.6968,-48"/>
<polygon fill="midnightblue" stroke="midnightblue" points="70.0637,-44.5001 60.0637,-48 70.0637,-51.5001 70.0637,-44.5001"/>
</g>
<!-- Node3 -->
<g id="node3" class="node"><title>Node3</title>
<g id="a_node3"><a xlink:href="adtree_8c.html#a62e4644f699e4c7a4fa7b1c42489ca0e" target="_top" xlink:title="makeVary">
<polygon fill="none" stroke="black" points="202.5,-38.5 202.5,-57.5 263.5,-57.5 263.5,-38.5 202.5,-38.5"/>
<text text-anchor="middle" x="233" y="-45.5" font-family="Helvetica,sans-Serif" font-size="10.00">makeVary</text>
</a>
</g>
</g>
<!-- Node2&#45;&gt;Node3 -->
<g id="edge2" class="edge"><title>Node2&#45;&gt;Node3</title>
<path fill="none" stroke="midnightblue" d="M170.225,-41.3709C180.964,-41.1152 192.324,-41.2652 202.334,-41.821"/>
<polygon fill="midnightblue" stroke="midnightblue" points="170.047,-37.8749 160.183,-41.7404 170.305,-44.8702 170.047,-37.8749"/>
</g>
<!-- Node4 -->
<g id="node4" class="node"><title>Node4</title>
<g id="a_node4"><a xlink:href="adtree_8h.html#a46c5e833c1bac78330c62d54d924f065" target="_top" xlink:title="adtree_make">
<polygon fill="none" stroke="black" points="196.5,-0.5 196.5,-19.5 269.5,-19.5 269.5,-0.5 196.5,-0.5"/>
<text text-anchor="middle" x="233" y="-7.5" font-family="Helvetica,sans-Serif" font-size="10.00">adtree_make</text>
</a>
</g>
</g>
<!-- Node2&#45;&gt;Node4 -->
<g id="edge4" class="edge"><title>Node2&#45;&gt;Node4</title>
<path fill="none" stroke="midnightblue" d="M164.557,-34.882C178.18,-29.8561 193.454,-24.2209 206.017,-19.5859"/>
<polygon fill="midnightblue" stroke="midnightblue" points="163.162,-31.666 154.991,-38.411 165.585,-38.2333 163.162,-31.666"/>
</g>
<!-- Node3&#45;&gt;Node2 -->
<g id="edge3" class="edge"><title>Node3&#45;&gt;Node2</title>
<path fill="none" stroke="midnightblue" d="M192.057,-54.5966C181.481,-54.8817 170.219,-54.7694 160.183,-54.2596"/>
<polygon fill="midnightblue" stroke="midnightblue" points="192.485,-58.0822 202.334,-54.179 192.201,-51.088 192.485,-58.0822"/>
</g>
<!-- Node5 -->
<g id="node5" class="node"><title>Node5</title>
<g id="a_node5"><a xlink:href="bayes_8c.html#a40c5c0b0d4eb7b59a91108269f69dc89" target="_top" xlink:title="MAIN">
<polygon fill="none" stroke="black" points="306,-0.5 306,-19.5 348,-19.5 348,-0.5 306,-0.5"/>
<text text-anchor="middle" x="327" y="-7.5" font-family="Helvetica,sans-Serif" font-size="10.00">MAIN</text>
</a>
</g>
</g>
<!-- Node4&#45;&gt;Node5 -->
<g id="edge5" class="edge"><title>Node4&#45;&gt;Node5</title>
<path fill="none" stroke="midnightblue" d="M279.849,-10C289.026,-10 298.211,-10 305.943,-10"/>
<polygon fill="midnightblue" stroke="midnightblue" points="279.57,-6.5001 269.57,-10 279.57,-13.5001 279.57,-6.5001"/>
</g>
</g>
</svg>
