<?xml version="1.0" encoding="UTF-8" standalone="no"?>
<!DOCTYPE svg PUBLIC "-//W3C//DTD SVG 1.1//EN"
 "http://www.w3.org/Graphics/SVG/1.1/DTD/svg11.dtd">
<!-- Generated by graphviz version 2.36.0 (20140111.2315)
 -->
<!-- Title: makeVary Pages: 1 -->
<svg width="358pt" height="28pt"
 viewBox="0.00 0.00 358.00 28.00" xmlns="http://www.w3.org/2000/svg" xmlns:xlink="http://www.w3.org/1999/xlink">
<g id="graph0" class="graph" transform="scale(1 1) rotate(0) translate(4 24)">
<title>makeVary</title>
<!-- Node1 -->
<g id="node1" class="node"><title>Node1</title>
<polygon fill="#bfbfbf" stroke="black" points="0.5,-0.5 0.5,-19.5 61.5,-19.5 61.5,-0.5 0.5,-0.5"/>
<text text-anchor="middle" x="31" y="-7.5" font-family="Helvetica,sans-Serif" font-size="10.00">makeVary</text>
</g>
<!-- Node2 -->
<g id="node2" class="node"><title>Node2</title>
<g id="a_node2"><a xlink:href="adtree_8c.html#a2524e945b88ac537d3646587638ecc12" target="_top" xlink:title="makeNode">
<polygon fill="none" stroke="black" points="98,-0.5 98,-19.5 162,-19.5 162,-0.5 98,-0.5"/>
<text text-anchor="middle" x="130" y="-7.5" font-family="Helvetica,sans-Serif" font-size="10.00">makeNode</text>
</a>
</g>
</g>
<!-- Node1&#45;&gt;Node2 -->
<g id="edge1" class="edge"><title>Node1&#45;&gt;Node2</title>
<path fill="none" stroke="midnightblue" d="M71.6393,-3.35114C80.3818,-3.14953 89.5219,-3.24933 97.8708,-3.65052"/>
<polygon fill="midnightblue" stroke="midnightblue" points="71.4921,0.145899 61.6303,-3.72626 71.7544,-6.84919 71.4921,0.145899"/>
</g>
<!-- Node2&#45;&gt;Node1 -->
<g id="edge2" class="edge"><title>Node2&#45;&gt;Node1</title>
<path fill="none" stroke="midnightblue" d="M87.7777,-16.682C78.9916,-16.8473 69.8795,-16.7112 61.6303,-16.2737"/>
<polygon fill="midnightblue" stroke="midnightblue" points="87.9915,-20.1769 97.8708,-16.3495 87.7609,-13.1807 87.9915,-20.1769"/>
</g>
<!-- Node3 -->
<g id="node3" class="node"><title>Node3</title>
<g id="a_node3"><a xlink:href="adtree_8h.html#a46c5e833c1bac78330c62d54d924f065" target="_top" xlink:title="adtree_make">
<polygon fill="none" stroke="black" points="198.5,-0.5 198.5,-19.5 271.5,-19.5 271.5,-0.5 198.5,-0.5"/>
<text text-anchor="middle" x="235" y="-7.5" font-family="Helvetica,sans-Serif" font-size="10.00">adtree_make</text>
</a>
</g>
</g>
<!-- Node2&#45;&gt;Node3 -->
<g id="edge3" class="edge"><title>Node2&#45;&gt;Node3</title>
<path fill="none" stroke="midnightblue" d="M172.369,-10C180.932,-10 189.885,-10 198.229,-10"/>
<polygon fill="midnightblue" stroke="midnightblue" points="172.183,-6.5001 162.183,-10 172.183,-13.5001 172.183,-6.5001"/>
</g>
<!-- Node4 -->
<g id="node4" class="node"><title>Node4</title>
<g id="a_node4"><a xlink:href="bayes_8c.html#a40c5c0b0d4eb7b59a91108269f69dc89" target="_top" xlink:title="MAIN">
<polygon fill="none" stroke="black" points="308,-0.5 308,-19.5 350,-19.5 350,-0.5 308,-0.5"/>
<text text-anchor="middle" x="329" y="-7.5" font-family="Helvetica,sans-Serif" font-size="10.00">MAIN</text>
</a>
</g>
</g>
<!-- Node3&#45;&gt;Node4 -->
<g id="edge4" class="edge"><title>Node3&#45;&gt;Node4</title>
<path fill="none" stroke="midnightblue" d="M281.849,-10C291.026,-10 300.211,-10 307.943,-10"/>
<polygon fill="midnightblue" stroke="midnightblue" points="281.57,-6.5001 271.57,-10 281.57,-13.5001 281.57,-6.5001"/>
</g>
</g>
</svg>
