<?xml version="1.0" encoding="UTF-8" standalone="no"?>
<!DOCTYPE svg PUBLIC "-//W3C//DTD SVG 1.1//EN"
 "http://www.w3.org/Graphics/SVG/1.1/DTD/svg11.dtd">
<!-- Generated by graphviz version 2.36.0 (20140111.2315)
 -->
<!-- Title: all_countsort_node Pages: 1 -->
<svg width="254pt" height="66pt"
 viewBox="0.00 0.00 254.00 66.00" xmlns="http://www.w3.org/2000/svg" xmlns:xlink="http://www.w3.org/1999/xlink">
<g id="graph0" class="graph" transform="scale(1 1) rotate(0) translate(4 62)">
<title>all_countsort_node</title>
<!-- Node1 -->
<g id="node1" class="node"><title>Node1</title>
<polygon fill="#bfbfbf" stroke="black" points="0,-19.5 0,-38.5 98,-38.5 98,-19.5 0,-19.5"/>
<text text-anchor="middle" x="49" y="-26.5" font-family="Helvetica,sans-Serif" font-size="10.00">all_countsort_node</text>
</g>
<!-- Node2 -->
<g id="node2" class="node"><title>Node2</title>
<g id="a_node2"><a xlink:href="alg__radix__smp_8h.html#ae8baa9663fa0914ce6420e750daae892" target="_top" xlink:title="all_radixsort_node_s3">
<polygon fill="none" stroke="black" points="134.5,-38.5 134.5,-57.5 245.5,-57.5 245.5,-38.5 134.5,-38.5"/>
<text text-anchor="middle" x="190" y="-45.5" font-family="Helvetica,sans-Serif" font-size="10.00">all_radixsort_node_s3</text>
</a>
</g>
</g>
<!-- Node1&#45;&gt;Node2 -->
<g id="edge1" class="edge"><title>Node1&#45;&gt;Node2</title>
<path fill="none" stroke="midnightblue" d="M108.192,-36.9543C116.803,-38.1314 125.652,-39.341 134.191,-40.5082"/>
<polygon fill="midnightblue" stroke="midnightblue" points="108.607,-33.4786 98.2254,-35.592 107.659,-40.4141 108.607,-33.4786"/>
</g>
<!-- Node3 -->
<g id="node3" class="node"><title>Node3</title>
<g id="a_node3"><a xlink:href="alg__radix__smp_8h.html#aedb8c7fd34811537cfed8ec8a4399045" target="_top" xlink:title="all_radixsort_node_s2">
<polygon fill="none" stroke="black" points="134.5,-0.5 134.5,-19.5 245.5,-19.5 245.5,-0.5 134.5,-0.5"/>
<text text-anchor="middle" x="190" y="-7.5" font-family="Helvetica,sans-Serif" font-size="10.00">all_radixsort_node_s2</text>
</a>
</g>
</g>
<!-- Node1&#45;&gt;Node3 -->
<g id="edge2" class="edge"><title>Node1&#45;&gt;Node3</title>
<path fill="none" stroke="midnightblue" d="M108.192,-21.0457C116.803,-19.8686 125.652,-18.659 134.191,-17.4918"/>
<polygon fill="midnightblue" stroke="midnightblue" points="107.659,-17.5859 98.2254,-22.408 108.607,-24.5214 107.659,-17.5859"/>
</g>
</g>
</svg>
