<?xml version="1.0" encoding="UTF-8" standalone="no"?>
<!DOCTYPE svg PUBLIC "-//W3C//DTD SVG 1.1//EN"
 "http://www.w3.org/Graphics/SVG/1.1/DTD/svg11.dtd">
<!-- Generated by graphviz version 2.36.0 (20140111.2315)
 -->
<!-- Title: all_countsort_node_aux Pages: 1 -->
<svg width="448pt" height="66pt"
 viewBox="0.00 0.00 448.00 66.00" xmlns="http://www.w3.org/2000/svg" xmlns:xlink="http://www.w3.org/1999/xlink">
<g id="graph0" class="graph" transform="scale(1 1) rotate(0) translate(4 62)">
<title>all_countsort_node_aux</title>
<!-- Node1 -->
<g id="node1" class="node"><title>Node1</title>
<polygon fill="#bfbfbf" stroke="black" points="0.5,-19.5 0.5,-38.5 119.5,-38.5 119.5,-19.5 0.5,-19.5"/>
<text text-anchor="middle" x="60" y="-26.5" font-family="Helvetica,sans-Serif" font-size="10.00">all_countsort_node_aux</text>
</g>
<!-- Node2 -->
<g id="node2" class="node"><title>Node2</title>
<g id="a_node2"><a xlink:href="alg__radix__smp_8h.html#a3b41aaf60b7e6a1d718c8c1e0fb44078" target="_top" xlink:title="all_radixsort_node\l_aux_s3">
<polygon fill="none" stroke="black" points="156.5,-14 156.5,-44 251.5,-44 251.5,-14 156.5,-14"/>
<text text-anchor="start" x="164.5" y="-32" font-family="Helvetica,sans-Serif" font-size="10.00">all_radixsort_node</text>
<text text-anchor="middle" x="204" y="-21" font-family="Helvetica,sans-Serif" font-size="10.00">_aux_s3</text>
</a>
</g>
</g>
<!-- Node1&#45;&gt;Node2 -->
<g id="edge1" class="edge"><title>Node1&#45;&gt;Node2</title>
<path fill="none" stroke="midnightblue" d="M129.687,-29C138.687,-29 147.738,-29 156.258,-29"/>
<polygon fill="midnightblue" stroke="midnightblue" points="129.577,-25.5001 119.577,-29 129.577,-32.5001 129.577,-25.5001"/>
</g>
<!-- Node3 -->
<g id="node3" class="node"><title>Node3</title>
<g id="a_node3"><a xlink:href="cutClusters_8h.html#af664e794d1f7d8e38505c4778a8c304b" target="_top" xlink:title="cutClusters">
<polygon fill="none" stroke="black" points="291.5,-38.5 291.5,-57.5 358.5,-57.5 358.5,-38.5 291.5,-38.5"/>
<text text-anchor="middle" x="325" y="-45.5" font-family="Helvetica,sans-Serif" font-size="10.00">cutClusters</text>
</a>
</g>
</g>
<!-- Node2&#45;&gt;Node3 -->
<g id="edge2" class="edge"><title>Node2&#45;&gt;Node3</title>
<path fill="none" stroke="midnightblue" d="M261.776,-38.0652C271.942,-39.6882 282.214,-41.3283 291.402,-42.7952"/>
<polygon fill="midnightblue" stroke="midnightblue" points="262.117,-34.5753 251.69,-36.4548 261.013,-41.4877 262.117,-34.5753"/>
</g>
<!-- Node5 -->
<g id="node5" class="node"><title>Node5</title>
<g id="a_node5"><a xlink:href="genScalData_8h.html#ac380874217ff9a010adeea46c52ec486" target="_top" xlink:title="genScalData">
<polygon fill="none" stroke="black" points="288.5,-0.5 288.5,-19.5 361.5,-19.5 361.5,-0.5 288.5,-0.5"/>
<text text-anchor="middle" x="325" y="-7.5" font-family="Helvetica,sans-Serif" font-size="10.00">genScalData</text>
</a>
</g>
</g>
<!-- Node2&#45;&gt;Node5 -->
<g id="edge4" class="edge"><title>Node2&#45;&gt;Node5</title>
<path fill="none" stroke="midnightblue" d="M261.857,-19.9219C270.933,-18.4728 280.092,-17.0106 288.485,-15.6705"/>
<polygon fill="midnightblue" stroke="midnightblue" points="261.013,-16.5123 251.69,-21.5452 262.117,-23.4247 261.013,-16.5123"/>
</g>
<!-- Node4 -->
<g id="node4" class="node"><title>Node4</title>
<g id="a_node4"><a xlink:href="ssca2_8c.html#a40c5c0b0d4eb7b59a91108269f69dc89" target="_top" xlink:title="MAIN">
<polygon fill="none" stroke="black" points="398,-19.5 398,-38.5 440,-38.5 440,-19.5 398,-19.5"/>
<text text-anchor="middle" x="419" y="-26.5" font-family="Helvetica,sans-Serif" font-size="10.00">MAIN</text>
</a>
</g>
</g>
<!-- Node3&#45;&gt;Node4 -->
<g id="edge3" class="edge"><title>Node3&#45;&gt;Node4</title>
<path fill="none" stroke="midnightblue" d="M368.755,-39.1702C378.961,-37.0624 389.382,-34.9103 397.993,-33.1319"/>
<polygon fill="midnightblue" stroke="midnightblue" points="367.78,-35.7975 358.695,-41.2478 369.196,-42.6529 367.78,-35.7975"/>
</g>
<!-- Node5&#45;&gt;Node4 -->
<g id="edge5" class="edge"><title>Node5&#45;&gt;Node4</title>
<path fill="none" stroke="midnightblue" d="M371.553,-19.4078C380.829,-21.3233 390.128,-23.2439 397.943,-24.8579"/>
<polygon fill="midnightblue" stroke="midnightblue" points="372.071,-15.9408 361.57,-17.3459 370.655,-22.7962 372.071,-15.9408"/>
</g>
</g>
</svg>
