<?xml version="1.0" encoding="UTF-8" standalone="no"?>
<!DOCTYPE svg PUBLIC "-//W3C//DTD SVG 1.1//EN"
 "http://www.w3.org/Graphics/SVG/1.1/DTD/svg11.dtd">
<!-- Generated by graphviz version 2.36.0 (20140111.2315)
 -->
<!-- Title: rstm/rstm&#45;dev/stamp&#45;0.9.10/ssca2/alg_radix_smp.h Pages: 1 -->
<svg width="474pt" height="108pt"
 viewBox="0.00 0.00 474.00 108.00" xmlns="http://www.w3.org/2000/svg" xmlns:xlink="http://www.w3.org/1999/xlink">
<g id="graph0" class="graph" transform="scale(1 1) rotate(0) translate(4 104)">
<title>rstm/rstm&#45;dev/stamp&#45;0.9.10/ssca2/alg_radix_smp.h</title>
<!-- Node1 -->
<g id="node1" class="node"><title>Node1</title>
<polygon fill="#bfbfbf" stroke="black" points="162,-69 162,-99 312,-99 312,-69 162,-69"/>
<text text-anchor="start" x="170" y="-87" font-family="Helvetica,sans-Serif" font-size="10.00">rstm/rstm&#45;dev/stamp</text>
<text text-anchor="middle" x="237" y="-76" font-family="Helvetica,sans-Serif" font-size="10.00">&#45;0.9.10/ssca2/alg_radix_smp.h</text>
</g>
<!-- Node2 -->
<g id="node2" class="node"><title>Node2</title>
<g id="a_node2"><a xlink:href="alg__radix__smp_8c.html" target="_top" xlink:title="rstm/rstm&#45;dev/stamp\l&#45;0.9.10/ssca2/alg_radix_smp.c">
<polygon fill="none" stroke="black" points="0,-1 0,-31 150,-31 150,-1 0,-1"/>
<text text-anchor="start" x="8" y="-19" font-family="Helvetica,sans-Serif" font-size="10.00">rstm/rstm&#45;dev/stamp</text>
<text text-anchor="middle" x="75" y="-8" font-family="Helvetica,sans-Serif" font-size="10.00">&#45;0.9.10/ssca2/alg_radix_smp.c</text>
</a>
</g>
</g>
<!-- Node1&#45;&gt;Node2 -->
<g id="edge1" class="edge"><title>Node1&#45;&gt;Node2</title>
<path fill="none" stroke="midnightblue" d="M192.894,-65.0308C166.622,-54.3276 133.766,-40.9417 109.417,-31.0218"/>
<polygon fill="midnightblue" stroke="midnightblue" points="191.665,-68.3096 202.247,-68.8413 194.307,-61.827 191.665,-68.3096"/>
</g>
<!-- Node3 -->
<g id="node3" class="node"><title>Node3</title>
<g id="a_node3"><a xlink:href="cutClusters_8c.html" target="_top" xlink:title="rstm/rstm&#45;dev/stamp\l&#45;0.9.10/ssca2/cutClusters.c">
<polygon fill="none" stroke="black" points="168.5,-1 168.5,-31 305.5,-31 305.5,-1 168.5,-1"/>
<text text-anchor="start" x="176.5" y="-19" font-family="Helvetica,sans-Serif" font-size="10.00">rstm/rstm&#45;dev/stamp</text>
<text text-anchor="middle" x="237" y="-8" font-family="Helvetica,sans-Serif" font-size="10.00">&#45;0.9.10/ssca2/cutClusters.c</text>
</a>
</g>
</g>
<!-- Node1&#45;&gt;Node3 -->
<g id="edge2" class="edge"><title>Node1&#45;&gt;Node3</title>
<path fill="none" stroke="midnightblue" d="M237,-58.5322C237,-49.3606 237,-39.2449 237,-31.2931"/>
<polygon fill="midnightblue" stroke="midnightblue" points="233.5,-58.6789 237,-68.679 240.5,-58.679 233.5,-58.6789"/>
</g>
<!-- Node4 -->
<g id="node4" class="node"><title>Node4</title>
<g id="a_node4"><a xlink:href="genScalData_8c.html" target="_top" xlink:title="rstm/rstm&#45;dev/stamp\l&#45;0.9.10/ssca2/genScalData.c">
<polygon fill="none" stroke="black" points="323.5,-1 323.5,-31 466.5,-31 466.5,-1 323.5,-1"/>
<text text-anchor="start" x="331.5" y="-19" font-family="Helvetica,sans-Serif" font-size="10.00">rstm/rstm&#45;dev/stamp</text>
<text text-anchor="middle" x="395" y="-8" font-family="Helvetica,sans-Serif" font-size="10.00">&#45;0.9.10/ssca2/genScalData.c</text>
</a>
</g>
</g>
<!-- Node1&#45;&gt;Node4 -->
<g id="edge3" class="edge"><title>Node1&#45;&gt;Node4</title>
<path fill="none" stroke="midnightblue" d="M280.355,-64.8898C305.921,-54.2103 337.789,-40.8982 361.433,-31.0218"/>
<polygon fill="midnightblue" stroke="midnightblue" points="278.773,-61.7573 270.895,-68.8413 281.471,-68.2164 278.773,-61.7573"/>
</g>
</g>
</svg>
