<?xml version="1.0" encoding="UTF-8" standalone="no"?>
<!DOCTYPE svg PUBLIC "-//W3C//DTD SVG 1.1//EN"
 "http://www.w3.org/Graphics/SVG/1.1/DTD/svg11.dtd">
<!-- Generated by graphviz version 2.36.0 (20140111.2315)
 -->
<!-- Title: all_radixsort_node_aux_s3 Pages: 1 -->
<svg width="518pt" height="160pt"
 viewBox="0.00 0.00 518.00 159.70" xmlns="http://www.w3.org/2000/svg" xmlns:xlink="http://www.w3.org/1999/xlink">
<g id="graph0" class="graph" transform="scale(1 1) rotate(0) translate(4 155.699)">
<title>all_radixsort_node_aux_s3</title>
<!-- Node1 -->
<g id="node1" class="node"><title>Node1</title>
<polygon fill="#bfbfbf" stroke="black" points="0.5,-109 0.5,-139 95.5,-139 95.5,-109 0.5,-109"/>
<text text-anchor="start" x="8.5" y="-127" font-family="Helvetica,sans-Serif" font-size="10.00">all_radixsort_node</text>
<text text-anchor="middle" x="48" y="-116" font-family="Helvetica,sans-Serif" font-size="10.00">_aux_s3</text>
</g>
<!-- Node2 -->
<g id="node2" class="node"><title>Node2</title>
<g id="a_node2"><a xlink:href="thread_8c.html#abec126223ac40629f70a1bdcfa1aa088" target="_top" xlink:title="thread_getId">
<polygon fill="none" stroke="black" points="438.5,-114.5 438.5,-133.5 509.5,-133.5 509.5,-114.5 438.5,-114.5"/>
<text text-anchor="middle" x="474" y="-121.5" font-family="Helvetica,sans-Serif" font-size="10.00">thread_getId</text>
</a>
</g>
</g>
<!-- Node1&#45;&gt;Node2 -->
<g id="edge1" class="edge"><title>Node1&#45;&gt;Node2</title>
<path fill="none" stroke="midnightblue" d="M95.8184,-133.033C107.588,-134.99 120.222,-136.823 132,-138 251.426,-149.931 283.004,-158.647 402,-143 412.738,-141.588 424.16,-139.024 434.632,-136.227"/>
<polygon fill="midnightblue" stroke="midnightblue" points="435.647,-139.577 444.328,-133.503 433.754,-132.838 435.647,-139.577"/>
</g>
<!-- Node3 -->
<g id="node3" class="node"><title>Node3</title>
<g id="a_node3"><a xlink:href="thread_8c.html#aee9c8a14d66ce9e1d05082e431b724f7" target="_top" xlink:title="thread_barrier_wait">
<polygon fill="none" stroke="black" points="295.5,-114.5 295.5,-133.5 394.5,-133.5 394.5,-114.5 295.5,-114.5"/>
<text text-anchor="middle" x="345" y="-121.5" font-family="Helvetica,sans-Serif" font-size="10.00">thread_barrier_wait</text>
</a>
</g>
</g>
<!-- Node1&#45;&gt;Node3 -->
<g id="edge2" class="edge"><title>Node1&#45;&gt;Node3</title>
<path fill="none" stroke="midnightblue" d="M95.7436,-124C146.98,-124 229.287,-124 284.949,-124"/>
<polygon fill="midnightblue" stroke="midnightblue" points="285.019,-127.5 295.019,-124 285.019,-120.5 285.019,-127.5"/>
</g>
<!-- Node4 -->
<g id="node4" class="node"><title>Node4</title>
<g id="a_node4"><a xlink:href="alg__radix__smp_8c.html#ae9f05e0567cbebd8235e39faee68b5e7" target="_top" xlink:title="all_countsort_node_aux">
<polygon fill="none" stroke="black" points="132.5,-76.5 132.5,-95.5 251.5,-95.5 251.5,-76.5 132.5,-76.5"/>
<text text-anchor="middle" x="192" y="-83.5" font-family="Helvetica,sans-Serif" font-size="10.00">all_countsort_node_aux</text>
</a>
</g>
</g>
<!-- Node1&#45;&gt;Node4 -->
<g id="edge4" class="edge"><title>Node1&#45;&gt;Node4</title>
<path fill="none" stroke="midnightblue" d="M95.8897,-111.452C111.794,-107.196 129.53,-102.45 145.337,-98.2196"/>
<polygon fill="midnightblue" stroke="midnightblue" points="146.653,-101.491 155.408,-95.5246 144.843,-94.7288 146.653,-101.491"/>
</g>
<!-- Node3&#45;&gt;Node2 -->
<g id="edge3" class="edge"><title>Node3&#45;&gt;Node2</title>
<path fill="none" stroke="midnightblue" d="M394.738,-124C405.764,-124 417.419,-124 428.27,-124"/>
<polygon fill="midnightblue" stroke="midnightblue" points="428.381,-127.5 438.381,-124 428.381,-120.5 428.381,-127.5"/>
</g>
<!-- Node4&#45;&gt;Node2 -->
<g id="edge5" class="edge"><title>Node4&#45;&gt;Node2</title>
<path fill="none" stroke="midnightblue" d="M251.914,-88.6645C293.982,-91.2206 351.781,-96.0654 402,-105 411.79,-106.742 422.199,-109.184 431.943,-111.738"/>
<polygon fill="midnightblue" stroke="midnightblue" points="431.235,-115.173 441.803,-114.417 433.07,-108.417 431.235,-115.173"/>
</g>
<!-- Node4&#45;&gt;Node3 -->
<g id="edge7" class="edge"><title>Node4&#45;&gt;Node3</title>
<path fill="none" stroke="midnightblue" d="M231.104,-95.589C250.94,-100.581 275.384,-106.732 296.448,-112.033"/>
<polygon fill="midnightblue" stroke="midnightblue" points="295.618,-115.434 306.17,-114.48 297.327,-108.645 295.618,-115.434"/>
</g>
<!-- Node5 -->
<g id="node5" class="node"><title>Node5</title>
<g id="a_node5"><a xlink:href="thread_8c.html#a82f23d770962c29f4e8f09480227e8be" target="_top" xlink:title="thread_getNumThread">
<polygon fill="none" stroke="black" points="288.5,-38.5 288.5,-57.5 401.5,-57.5 401.5,-38.5 288.5,-38.5"/>
<text text-anchor="middle" x="345" y="-45.5" font-family="Helvetica,sans-Serif" font-size="10.00">thread_getNumThread</text>
</a>
</g>
</g>
<!-- Node4&#45;&gt;Node5 -->
<g id="edge6" class="edge"><title>Node4&#45;&gt;Node5</title>
<path fill="none" stroke="midnightblue" d="M231.104,-76.411C250.94,-71.4191 275.384,-65.2676 296.448,-59.9666"/>
<polygon fill="midnightblue" stroke="midnightblue" points="297.327,-63.3548 306.17,-57.5201 295.618,-56.5664 297.327,-63.3548"/>
</g>
<!-- Node6 -->
<g id="node6" class="node"><title>Node6</title>
<g id="a_node6"><a xlink:href="learner_8c.html#acc48aeed933570cb6798c0e4930f6875" target="_top" xlink:title="createPartition">
<polygon fill="none" stroke="black" points="305,-0.5 305,-19.5 385,-19.5 385,-0.5 305,-0.5"/>
<text text-anchor="middle" x="345" y="-7.5" font-family="Helvetica,sans-Serif" font-size="10.00">createPartition</text>
</a>
</g>
</g>
<!-- Node4&#45;&gt;Node6 -->
<g id="edge8" class="edge"><title>Node4&#45;&gt;Node6</title>
<path fill="none" stroke="midnightblue" d="M206.962,-76.3203C225.037,-64.0991 257.807,-42.9849 288,-29 292.598,-26.8702 297.505,-24.8554 302.431,-22.9903"/>
<polygon fill="midnightblue" stroke="midnightblue" points="303.628,-26.2794 311.85,-19.5975 301.255,-19.6936 303.628,-26.2794"/>
</g>
<!-- Node7 -->
<g id="node7" class="node"><title>Node7</title>
<g id="a_node7"><a xlink:href="avltree_8c.html#aef0786e63ba14dfdb6d8632333208422" target="_top" xlink:title="start">
<polygon fill="none" stroke="black" points="456,-0.5 456,-19.5 492,-19.5 492,-0.5 456,-0.5"/>
<text text-anchor="middle" x="474" y="-7.5" font-family="Helvetica,sans-Serif" font-size="10.00">start</text>
</a>
</g>
</g>
<!-- Node6&#45;&gt;Node7 -->
<g id="edge9" class="edge"><title>Node6&#45;&gt;Node7</title>
<path fill="none" stroke="midnightblue" d="M385.14,-10C404.696,-10 427.884,-10 445.527,-10"/>
<polygon fill="midnightblue" stroke="midnightblue" points="445.713,-13.5001 455.713,-10 445.713,-6.5001 445.713,-13.5001"/>
</g>
</g>
</svg>
