<?xml version="1.0" encoding="UTF-8" standalone="no"?>
<!DOCTYPE svg PUBLIC "-//W3C//DTD SVG 1.1//EN"
 "http://www.w3.org/Graphics/SVG/1.1/DTD/svg11.dtd">
<!-- Generated by graphviz version 2.36.0 (20140111.2315)
 -->
<!-- Title: common/allocator.cc Pages: 1 -->
<svg width="338pt" height="252pt"
 viewBox="0.00 0.00 338.00 252.00" xmlns="http://www.w3.org/2000/svg" xmlns:xlink="http://www.w3.org/1999/xlink">
<g id="graph0" class="graph" transform="scale(1 1) rotate(0) translate(4 248)">
<title>common/allocator.cc</title>
<!-- Node1 -->
<g id="node1" class="node"><title>Node1</title>
<polygon fill="#bfbfbf" stroke="black" points="61.5,-224.5 61.5,-243.5 168.5,-243.5 168.5,-224.5 61.5,-224.5"/>
<text text-anchor="middle" x="115" y="-231.5" font-family="Helvetica,sans-Serif" font-size="10.00">common/allocator.cc</text>
</g>
<!-- Node2 -->
<g id="node2" class="node"><title>Node2</title>
<polygon fill="none" stroke="#bfbfbf" points="-0.5,-168.5 -0.5,-187.5 48.5,-187.5 48.5,-168.5 -0.5,-168.5"/>
<text text-anchor="middle" x="24" y="-175.5" font-family="Helvetica,sans-Serif" font-size="10.00">cassert</text>
</g>
<!-- Node1&#45;&gt;Node2 -->
<g id="edge1" class="edge"><title>Node1&#45;&gt;Node2</title>
<path fill="none" stroke="midnightblue" d="M100.379,-224.324C86.0511,-215.822 63.9875,-202.729 47.2513,-192.797"/>
<polygon fill="midnightblue" stroke="midnightblue" points="48.9704,-189.748 38.5844,-187.655 45.3982,-195.768 48.9704,-189.748"/>
</g>
<!-- Node3 -->
<g id="node3" class="node"><title>Node3</title>
<polygon fill="none" stroke="#bfbfbf" points="67,-168.5 67,-187.5 113,-187.5 113,-168.5 67,-168.5"/>
<text text-anchor="middle" x="90" y="-175.5" font-family="Helvetica,sans-Serif" font-size="10.00">cstring</text>
</g>
<!-- Node1&#45;&gt;Node3 -->
<g id="edge2" class="edge"><title>Node1&#45;&gt;Node3</title>
<path fill="none" stroke="midnightblue" d="M110.872,-224.083C107.486,-216.77 102.584,-206.181 98.3812,-197.103"/>
<polygon fill="midnightblue" stroke="midnightblue" points="101.429,-195.355 94.0514,-187.751 95.0766,-198.296 101.429,-195.355"/>
</g>
<!-- Node4 -->
<g id="node4" class="node"><title>Node4</title>
<g id="a_node4"><a xlink:href="allocator_8h.html" target="_top" xlink:title="common/allocator.h">
<polygon fill="none" stroke="black" points="90,-112.5 90,-131.5 192,-131.5 192,-112.5 90,-112.5"/>
<text text-anchor="middle" x="141" y="-119.5" font-family="Helvetica,sans-Serif" font-size="10.00">common/allocator.h</text>
</a>
</g>
</g>
<!-- Node1&#45;&gt;Node4 -->
<g id="edge3" class="edge"><title>Node1&#45;&gt;Node4</title>
<path fill="none" stroke="midnightblue" d="M117.04,-224.368C121.236,-206.617 130.915,-165.666 136.604,-141.597"/>
<polygon fill="midnightblue" stroke="midnightblue" points="140.075,-142.128 138.969,-131.591 133.263,-140.518 140.075,-142.128"/>
</g>
<!-- Node10 -->
<g id="node10" class="node"><title>Node10</title>
<g id="a_node10"><a xlink:href="translist_8h.html" target="_top" xlink:title="translink/list/translist.h">
<polygon fill="none" stroke="black" points="169.5,-168.5 169.5,-187.5 284.5,-187.5 284.5,-168.5 169.5,-168.5"/>
<text text-anchor="middle" x="227" y="-175.5" font-family="Helvetica,sans-Serif" font-size="10.00">translink/list/translist.h</text>
</a>
</g>
</g>
<!-- Node1&#45;&gt;Node10 -->
<g id="edge9" class="edge"><title>Node1&#45;&gt;Node10</title>
<path fill="none" stroke="midnightblue" d="M132.995,-224.324C151.038,-215.625 179.047,-202.12 199.803,-192.113"/>
<polygon fill="midnightblue" stroke="midnightblue" points="201.562,-195.15 209.05,-187.655 198.522,-188.845 201.562,-195.15"/>
</g>
<!-- Node5 -->
<g id="node5" class="node"><title>Node5</title>
<polygon fill="none" stroke="#bfbfbf" points="167,-56.5 167,-75.5 213,-75.5 213,-56.5 167,-56.5"/>
<text text-anchor="middle" x="190" y="-63.5" font-family="Helvetica,sans-Serif" font-size="10.00">cstdint</text>
</g>
<!-- Node4&#45;&gt;Node5 -->
<g id="edge4" class="edge"><title>Node4&#45;&gt;Node5</title>
<path fill="none" stroke="midnightblue" d="M149.091,-112.083C156.155,-104.298 166.588,-92.8015 175.149,-83.3665"/>
<polygon fill="midnightblue" stroke="midnightblue" points="177.931,-85.5087 182.059,-75.7511 172.747,-80.8047 177.931,-85.5087"/>
</g>
<!-- Node6 -->
<g id="node6" class="node"><title>Node6</title>
<polygon fill="none" stroke="#bfbfbf" points="95.5,-56.5 95.5,-75.5 148.5,-75.5 148.5,-56.5 95.5,-56.5"/>
<text text-anchor="middle" x="122" y="-63.5" font-family="Helvetica,sans-Serif" font-size="10.00">malloc.h</text>
</g>
<!-- Node4&#45;&gt;Node6 -->
<g id="edge5" class="edge"><title>Node4&#45;&gt;Node6</title>
<path fill="none" stroke="midnightblue" d="M137.863,-112.083C135.317,-104.849 131.644,-94.4087 128.473,-85.3968"/>
<polygon fill="midnightblue" stroke="midnightblue" points="131.7,-84.0225 125.079,-75.7511 125.097,-86.3459 131.7,-84.0225"/>
</g>
<!-- Node7 -->
<g id="node7" class="node"><title>Node7</title>
<polygon fill="none" stroke="#bfbfbf" points="31,-56.5 31,-75.5 77,-75.5 77,-56.5 31,-56.5"/>
<text text-anchor="middle" x="54" y="-63.5" font-family="Helvetica,sans-Serif" font-size="10.00">atomic</text>
</g>
<!-- Node4&#45;&gt;Node7 -->
<g id="edge6" class="edge"><title>Node4&#45;&gt;Node7</title>
<path fill="none" stroke="midnightblue" d="M127.022,-112.324C113.45,-103.9 92.6198,-90.9709 76.675,-81.0741"/>
<polygon fill="midnightblue" stroke="midnightblue" points="78.2856,-77.9544 67.9434,-75.6545 74.594,-83.9019 78.2856,-77.9544"/>
</g>
<!-- Node8 -->
<g id="node8" class="node"><title>Node8</title>
<g id="a_node8"><a xlink:href="assert_8h.html" target="_top" xlink:title="common/assert.h">
<polygon fill="none" stroke="black" points="231,-56.5 231,-75.5 323,-75.5 323,-56.5 231,-56.5"/>
<text text-anchor="middle" x="277" y="-63.5" font-family="Helvetica,sans-Serif" font-size="10.00">common/assert.h</text>
</a>
</g>
</g>
<!-- Node4&#45;&gt;Node8 -->
<g id="edge7" class="edge"><title>Node4&#45;&gt;Node8</title>
<path fill="none" stroke="midnightblue" d="M162.55,-112.444C185.031,-103.517 220.488,-89.4387 245.98,-79.3168"/>
<polygon fill="midnightblue" stroke="midnightblue" points="247.549,-82.4598 255.551,-75.5164 244.965,-75.9539 247.549,-82.4598"/>
</g>
<!-- Node9 -->
<g id="node9" class="node"><title>Node9</title>
<polygon fill="none" stroke="#bfbfbf" points="251.5,-0.5 251.5,-19.5 302.5,-19.5 302.5,-0.5 251.5,-0.5"/>
<text text-anchor="middle" x="277" y="-7.5" font-family="Helvetica,sans-Serif" font-size="10.00">config.h</text>
</g>
<!-- Node8&#45;&gt;Node9 -->
<g id="edge8" class="edge"><title>Node8&#45;&gt;Node9</title>
<path fill="none" stroke="midnightblue" d="M277,-56.083C277,-49.0059 277,-38.8611 277,-29.9865"/>
<polygon fill="midnightblue" stroke="midnightblue" points="280.5,-29.751 277,-19.7511 273.5,-29.7511 280.5,-29.751"/>
</g>
<!-- Node10&#45;&gt;Node4 -->
<g id="edge13" class="edge"><title>Node10&#45;&gt;Node4</title>
<path fill="none" stroke="midnightblue" d="M213.183,-168.324C199.767,-159.9 179.176,-146.971 163.414,-137.074"/>
<polygon fill="midnightblue" stroke="midnightblue" points="165.113,-134.008 154.783,-131.655 161.391,-139.936 165.113,-134.008"/>
</g>
<!-- Node10&#45;&gt;Node5 -->
<g id="edge10" class="edge"><title>Node10&#45;&gt;Node5</title>
<path fill="none" stroke="midnightblue" d="M224.097,-168.368C218.099,-150.537 204.227,-109.295 196.146,-85.2717"/>
<polygon fill="midnightblue" stroke="midnightblue" points="199.395,-83.9537 192.89,-75.5914 192.761,-86.1855 199.395,-83.9537"/>
</g>
<!-- Node10&#45;&gt;Node8 -->
<g id="edge12" class="edge"><title>Node10&#45;&gt;Node8</title>
<path fill="none" stroke="midnightblue" d="M230.923,-168.368C239.065,-150.456 257.944,-108.923 268.842,-84.9482"/>
<polygon fill="midnightblue" stroke="midnightblue" points="272.143,-86.1434 273.095,-75.5914 265.77,-83.2468 272.143,-86.1434"/>
</g>
<!-- Node11 -->
<g id="node11" class="node"><title>Node11</title>
<polygon fill="none" stroke="#bfbfbf" points="286,-112.5 286,-131.5 330,-131.5 330,-112.5 286,-112.5"/>
<text text-anchor="middle" x="308" y="-119.5" font-family="Helvetica,sans-Serif" font-size="10.00">vector</text>
</g>
<!-- Node10&#45;&gt;Node11 -->
<g id="edge11" class="edge"><title>Node10&#45;&gt;Node11</title>
<path fill="none" stroke="midnightblue" d="M240.014,-168.324C252.532,-159.979 271.682,-147.212 286.471,-137.352"/>
<polygon fill="midnightblue" stroke="midnightblue" points="288.639,-140.114 295.018,-131.655 284.756,-134.289 288.639,-140.114"/>
</g>
</g>
</svg>
