<?xml version="1.0" encoding="UTF-8" standalone="no"?>
<!DOCTYPE svg PUBLIC "-//W3C//DTD SVG 1.1//EN"
 "http://www.w3.org/Graphics/SVG/1.1/DTD/svg11.dtd">
<!-- Generated by graphviz version 2.36.0 (20140111.2315)
 -->
<!-- Title: common/allocator.h Pages: 1 -->
<svg width="476pt" height="220pt"
 viewBox="0.00 0.00 476.00 220.00" xmlns="http://www.w3.org/2000/svg" xmlns:xlink="http://www.w3.org/1999/xlink">
<g id="graph0" class="graph" transform="scale(1 1) rotate(0) translate(4 216)">
<title>common/allocator.h</title>
<!-- Node1 -->
<g id="node1" class="node"><title>Node1</title>
<polygon fill="#bfbfbf" stroke="black" points="189,-192.5 189,-211.5 291,-211.5 291,-192.5 189,-192.5"/>
<text text-anchor="middle" x="240" y="-199.5" font-family="Helvetica,sans-Serif" font-size="10.00">common/allocator.h</text>
</g>
<!-- Node2 -->
<g id="node2" class="node"><title>Node2</title>
<g id="a_node2"><a xlink:href="translist_8h.html" target="_top" xlink:title="translink/list/translist.h">
<polygon fill="none" stroke="black" points="225.5,-130.5 225.5,-149.5 340.5,-149.5 340.5,-130.5 225.5,-130.5"/>
<text text-anchor="middle" x="283" y="-137.5" font-family="Helvetica,sans-Serif" font-size="10.00">translink/list/translist.h</text>
</a>
</g>
</g>
<!-- Node1&#45;&gt;Node2 -->
<g id="edge1" class="edge"><title>Node1&#45;&gt;Node2</title>
<path fill="none" stroke="midnightblue" d="M252.042,-184.198C260.113,-172.936 270.405,-158.574 276.851,-149.581"/>
<polygon fill="midnightblue" stroke="midnightblue" points="249.141,-182.236 246.161,-192.403 254.831,-186.314 249.141,-182.236"/>
</g>
<!-- Node3 -->
<g id="node3" class="node"><title>Node3</title>
<g id="a_node3"><a xlink:href="setadaptor_8h.html" target="_top" xlink:title="bench/setadaptor.h">
<polygon fill="none" stroke="black" points="105,-62.5 105,-81.5 205,-81.5 205,-62.5 105,-62.5"/>
<text text-anchor="middle" x="155" y="-69.5" font-family="Helvetica,sans-Serif" font-size="10.00">bench/setadaptor.h</text>
</a>
</g>
</g>
<!-- Node1&#45;&gt;Node3 -->
<g id="edge9" class="edge"><title>Node1&#45;&gt;Node3</title>
<path fill="none" stroke="midnightblue" d="M228.386,-183.511C209.89,-155.658 174.427,-102.254 160.659,-81.5224"/>
<polygon fill="midnightblue" stroke="midnightblue" points="225.71,-185.808 234.158,-192.202 231.541,-181.935 225.71,-185.808"/>
</g>
<!-- Node5 -->
<g id="node5" class="node"><title>Node5</title>
<g id="a_node5"><a xlink:href="allocator_8cc.html" target="_top" xlink:title="common/allocator.cc">
<polygon fill="none" stroke="black" points="361.5,-62.5 361.5,-81.5 468.5,-81.5 468.5,-62.5 361.5,-62.5"/>
<text text-anchor="middle" x="415" y="-69.5" font-family="Helvetica,sans-Serif" font-size="10.00">common/allocator.cc</text>
</a>
</g>
</g>
<!-- Node1&#45;&gt;Node5 -->
<g id="edge10" class="edge"><title>Node1&#45;&gt;Node5</title>
<path fill="none" stroke="midnightblue" d="M281.783,-189.315C303.239,-181.994 329,-171.055 349,-156 377.388,-134.631 400.485,-98.3073 410.134,-81.7234"/>
<polygon fill="midnightblue" stroke="midnightblue" points="280.682,-185.993 272.264,-192.426 282.856,-192.647 280.682,-185.993"/>
</g>
<!-- Node7 -->
<g id="node7" class="node"><title>Node7</title>
<g id="a_node7"><a xlink:href="transskip_8h.html" target="_top" xlink:title="translink/skiplist\l/transskip.h">
<polygon fill="none" stroke="black" points="81.5,-125 81.5,-155 168.5,-155 168.5,-125 81.5,-125"/>
<text text-anchor="start" x="89.5" y="-143" font-family="Helvetica,sans-Serif" font-size="10.00">translink/skiplist</text>
<text text-anchor="middle" x="125" y="-132" font-family="Helvetica,sans-Serif" font-size="10.00">/transskip.h</text>
</a>
</g>
</g>
<!-- Node1&#45;&gt;Node7 -->
<g id="edge6" class="edge"><title>Node1&#45;&gt;Node7</title>
<path fill="none" stroke="midnightblue" d="M214.501,-187.696C195.987,-178.036 170.978,-164.989 152.103,-155.141"/>
<polygon fill="midnightblue" stroke="midnightblue" points="213.038,-190.881 223.523,-192.403 216.276,-184.675 213.038,-190.881"/>
</g>
<!-- Node2&#45;&gt;Node3 -->
<g id="edge2" class="edge"><title>Node2&#45;&gt;Node3</title>
<path fill="none" stroke="midnightblue" d="M257.184,-125.689C231.703,-112.55 193.492,-92.8475 171.738,-81.6305"/>
<polygon fill="midnightblue" stroke="midnightblue" points="255.774,-128.9 266.266,-130.372 258.982,-122.678 255.774,-128.9"/>
</g>
<!-- Node2&#45;&gt;Node5 -->
<g id="edge4" class="edge"><title>Node2&#45;&gt;Node5</title>
<path fill="none" stroke="midnightblue" d="M309.276,-125.862C335.552,-112.724 375.206,-92.8969 397.739,-81.6305"/>
<polygon fill="midnightblue" stroke="midnightblue" points="307.636,-122.769 300.257,-130.372 310.766,-129.03 307.636,-122.769"/>
</g>
<!-- Node6 -->
<g id="node6" class="node"><title>Node6</title>
<g id="a_node6"><a xlink:href="translist_8cc.html" target="_top" xlink:title="translink/list/translist.cc">
<polygon fill="none" stroke="black" points="223,-62.5 223,-81.5 343,-81.5 343,-62.5 223,-62.5"/>
<text text-anchor="middle" x="283" y="-69.5" font-family="Helvetica,sans-Serif" font-size="10.00">translink/list/translist.cc</text>
</a>
</g>
</g>
<!-- Node2&#45;&gt;Node6 -->
<g id="edge5" class="edge"><title>Node2&#45;&gt;Node6</title>
<path fill="none" stroke="midnightblue" d="M283,-120.041C283,-107.472 283,-91.5631 283,-81.8411"/>
<polygon fill="midnightblue" stroke="midnightblue" points="279.5,-120.372 283,-130.372 286.5,-120.372 279.5,-120.372"/>
</g>
<!-- Node4 -->
<g id="node4" class="node"><title>Node4</title>
<g id="a_node4"><a xlink:href="main_8cc.html" target="_top" xlink:title="bench/main.cc">
<polygon fill="none" stroke="black" points="115,-0.5 115,-19.5 195,-19.5 195,-0.5 115,-0.5"/>
<text text-anchor="middle" x="155" y="-7.5" font-family="Helvetica,sans-Serif" font-size="10.00">bench/main.cc</text>
</a>
</g>
</g>
<!-- Node3&#45;&gt;Node4 -->
<g id="edge3" class="edge"><title>Node3&#45;&gt;Node4</title>
<path fill="none" stroke="midnightblue" d="M155,-52.1595C155,-41.2482 155,-28.04 155,-19.5806"/>
<polygon fill="midnightblue" stroke="midnightblue" points="151.5,-52.4034 155,-62.4035 158.5,-52.4035 151.5,-52.4034"/>
</g>
<!-- Node7&#45;&gt;Node3 -->
<g id="edge7" class="edge"><title>Node7&#45;&gt;Node3</title>
<path fill="none" stroke="midnightblue" d="M135.713,-115.43C141.014,-103.769 147.094,-90.3933 150.987,-81.8283"/>
<polygon fill="midnightblue" stroke="midnightblue" points="132.461,-114.127 131.51,-124.679 138.834,-117.024 132.461,-114.127"/>
</g>
<!-- Node8 -->
<g id="node8" class="node"><title>Node8</title>
<g id="a_node8"><a xlink:href="transskip_8cc.html" target="_top" xlink:title="translink/skiplist\l/transskip.cc">
<polygon fill="none" stroke="black" points="-0.5,-57 -0.5,-87 86.5,-87 86.5,-57 -0.5,-57"/>
<text text-anchor="start" x="7.5" y="-75" font-family="Helvetica,sans-Serif" font-size="10.00">translink/skiplist</text>
<text text-anchor="middle" x="43" y="-64" font-family="Helvetica,sans-Serif" font-size="10.00">/transskip.cc</text>
</a>
</g>
</g>
<!-- Node7&#45;&gt;Node8 -->
<g id="edge8" class="edge"><title>Node7&#45;&gt;Node8</title>
<path fill="none" stroke="midnightblue" d="M99.2935,-118.309C86.662,-108.143 71.7698,-96.1562 60.4764,-87.0663"/>
<polygon fill="midnightblue" stroke="midnightblue" points="97.2225,-121.135 107.207,-124.679 101.612,-115.682 97.2225,-121.135"/>
</g>
</g>
</svg>
