<?xml version="1.0" encoding="UTF-8" standalone="no"?>
<!DOCTYPE svg PUBLIC "-//W3C//DTD SVG 1.1//EN"
 "http://www.w3.org/Graphics/SVG/1.1/DTD/svg11.dtd">
<!-- Generated by graphviz version 2.36.0 (20140111.2315)
 -->
<!-- Title: move Pages: 1 -->
<svg width="158pt" height="66pt"
 viewBox="0.00 0.00 158.00 66.00" xmlns="http://www.w3.org/2000/svg" xmlns:xlink="http://www.w3.org/1999/xlink">
<g id="graph0" class="graph" transform="scale(1 1) rotate(0) translate(4 62)">
<title>move</title>
<!-- Node1 -->
<g id="node1" class="node"><title>Node1</title>
<polygon fill="#bfbfbf" stroke="black" points="0.5,-19.5 0.5,-38.5 41.5,-38.5 41.5,-19.5 0.5,-19.5"/>
<text text-anchor="middle" x="21" y="-26.5" font-family="Helvetica,sans-Serif" font-size="10.00">move</text>
</g>
<!-- Node2 -->
<g id="node2" class="node"><title>Node2</title>
<g id="a_node2"><a xlink:href="avltree_8h.html#a25607306d50a21bc573f5b4b1fbffd98" target="_top" xlink:title="jsw_avltnext">
<polygon fill="none" stroke="black" points="78.5,-38.5 78.5,-57.5 149.5,-57.5 149.5,-38.5 78.5,-38.5"/>
<text text-anchor="middle" x="114" y="-45.5" font-family="Helvetica,sans-Serif" font-size="10.00">jsw_avltnext</text>
</a>
</g>
</g>
<!-- Node1&#45;&gt;Node2 -->
<g id="edge1" class="edge"><title>Node1&#45;&gt;Node2</title>
<path fill="none" stroke="midnightblue" d="M51.6035,-35.1809C60.1076,-36.9565 69.4591,-38.909 78.2438,-40.7432"/>
<polygon fill="midnightblue" stroke="midnightblue" points="52.2499,-31.7405 41.7456,-33.1227 50.8192,-38.5928 52.2499,-31.7405"/>
</g>
<!-- Node3 -->
<g id="node3" class="node"><title>Node3</title>
<g id="a_node3"><a xlink:href="avltree_8h.html#a563713f106a9f28c7369196e5cd8a1da" target="_top" xlink:title="jsw_avltprev">
<polygon fill="none" stroke="black" points="78.5,-0.5 78.5,-19.5 149.5,-19.5 149.5,-0.5 78.5,-0.5"/>
<text text-anchor="middle" x="114" y="-7.5" font-family="Helvetica,sans-Serif" font-size="10.00">jsw_avltprev</text>
</a>
</g>
</g>
<!-- Node1&#45;&gt;Node3 -->
<g id="edge2" class="edge"><title>Node1&#45;&gt;Node3</title>
<path fill="none" stroke="midnightblue" d="M51.6035,-22.8191C60.1076,-21.0435 69.4591,-19.091 78.2438,-17.2568"/>
<polygon fill="midnightblue" stroke="midnightblue" points="50.8192,-19.4072 41.7456,-24.8773 52.2499,-26.2595 50.8192,-19.4072"/>
</g>
</g>
</svg>
