<?xml version="1.0" encoding="UTF-8" standalone="no"?>
<!DOCTYPE svg PUBLIC "-//W3C//DTD SVG 1.1//EN"
 "http://www.w3.org/Graphics/SVG/1.1/DTD/svg11.dtd">
<!-- Generated by graphviz version 2.36.0 (20140111.2315)
 -->
<!-- Title: rstm/rstm&#45;dev/mesh/barrier.hpp Pages: 1 -->
<svg width="267pt" height="152pt"
 viewBox="0.00 0.00 267.00 152.00" xmlns="http://www.w3.org/2000/svg" xmlns:xlink="http://www.w3.org/1999/xlink">
<g id="graph0" class="graph" transform="scale(1 1) rotate(0) translate(4 148)">
<title>rstm/rstm&#45;dev/mesh/barrier.hpp</title>
<!-- Node1 -->
<g id="node1" class="node"><title>Node1</title>
<polygon fill="#bfbfbf" stroke="black" points="43,-113 43,-143 147,-143 147,-113 43,-113"/>
<text text-anchor="start" x="51" y="-131" font-family="Helvetica,sans-Serif" font-size="10.00">rstm/rstm&#45;dev/mesh</text>
<text text-anchor="middle" x="95" y="-120" font-family="Helvetica,sans-Serif" font-size="10.00">/barrier.hpp</text>
</g>
<!-- Node2 -->
<g id="node2" class="node"><title>Node2</title>
<polygon fill="none" stroke="#bfbfbf" points="-0.5,-56.5 -0.5,-75.5 56.5,-75.5 56.5,-56.5 -0.5,-56.5"/>
<text text-anchor="middle" x="28" y="-63.5" font-family="Helvetica,sans-Serif" font-size="10.00">pthread.h</text>
</g>
<!-- Node1&#45;&gt;Node2 -->
<g id="edge1" class="edge"><title>Node1&#45;&gt;Node2</title>
<path fill="none" stroke="midnightblue" d="M79.1219,-112.781C68.9846,-103.703 55.8375,-91.9291 45.4146,-82.5951"/>
<polygon fill="midnightblue" stroke="midnightblue" points="47.5336,-79.7944 37.7491,-75.7305 42.8637,-85.0091 47.5336,-79.7944"/>
</g>
<!-- Node3 -->
<g id="node3" class="node"><title>Node3</title>
<polygon fill="none" stroke="#bfbfbf" points="74.5,-56.5 74.5,-75.5 115.5,-75.5 115.5,-56.5 74.5,-56.5"/>
<text text-anchor="middle" x="95" y="-63.5" font-family="Helvetica,sans-Serif" font-size="10.00">string</text>
</g>
<!-- Node1&#45;&gt;Node3 -->
<g id="edge2" class="edge"><title>Node1&#45;&gt;Node3</title>
<path fill="none" stroke="midnightblue" d="M95,-112.781C95,-104.781 95,-94.6887 95,-86.0168"/>
<polygon fill="midnightblue" stroke="midnightblue" points="98.5001,-85.7305 95,-75.7305 91.5001,-85.7306 98.5001,-85.7305"/>
</g>
<!-- Node4 -->
<g id="node4" class="node"><title>Node4</title>
<g id="a_node4"><a xlink:href="mesh_2macros_8hpp.html" target="_top" xlink:title="macros.hpp">
<polygon fill="none" stroke="black" points="134,-56.5 134,-75.5 202,-75.5 202,-56.5 134,-56.5"/>
<text text-anchor="middle" x="168" y="-63.5" font-family="Helvetica,sans-Serif" font-size="10.00">macros.hpp</text>
</a>
</g>
</g>
<!-- Node1&#45;&gt;Node4 -->
<g id="edge3" class="edge"><title>Node1&#45;&gt;Node4</title>
<path fill="none" stroke="midnightblue" d="M112.3,-112.781C123.455,-103.613 137.954,-91.6957 149.362,-82.3186"/>
<polygon fill="midnightblue" stroke="midnightblue" points="151.875,-84.7841 157.378,-75.7305 147.43,-79.3763 151.875,-84.7841"/>
</g>
<!-- Node5 -->
<g id="node5" class="node"><title>Node5</title>
<polygon fill="none" stroke="#bfbfbf" points="71,-0.5 71,-19.5 125,-19.5 125,-0.5 71,-0.5"/>
<text text-anchor="middle" x="98" y="-7.5" font-family="Helvetica,sans-Serif" font-size="10.00">iostream</text>
</g>
<!-- Node4&#45;&gt;Node5 -->
<g id="edge4" class="edge"><title>Node4&#45;&gt;Node5</title>
<path fill="none" stroke="midnightblue" d="M156.753,-56.324C146.203,-48.1849 130.199,-35.8395 117.558,-26.0874"/>
<polygon fill="midnightblue" stroke="midnightblue" points="119.507,-23.1707 109.451,-19.8339 115.231,-28.7132 119.507,-23.1707"/>
</g>
<!-- Node6 -->
<g id="node6" class="node"><title>Node6</title>
<polygon fill="none" stroke="#bfbfbf" points="143.5,-0.5 143.5,-19.5 192.5,-19.5 192.5,-0.5 143.5,-0.5"/>
<text text-anchor="middle" x="168" y="-7.5" font-family="Helvetica,sans-Serif" font-size="10.00">string.h</text>
</g>
<!-- Node4&#45;&gt;Node6 -->
<g id="edge5" class="edge"><title>Node4&#45;&gt;Node6</title>
<path fill="none" stroke="midnightblue" d="M168,-56.083C168,-49.0059 168,-38.8611 168,-29.9865"/>
<polygon fill="midnightblue" stroke="midnightblue" points="171.5,-29.751 168,-19.7511 164.5,-29.7511 171.5,-29.751"/>
</g>
<!-- Node7 -->
<g id="node7" class="node"><title>Node7</title>
<polygon fill="none" stroke="#bfbfbf" points="210.5,-0.5 210.5,-19.5 259.5,-19.5 259.5,-0.5 210.5,-0.5"/>
<text text-anchor="middle" x="235" y="-7.5" font-family="Helvetica,sans-Serif" font-size="10.00">cassert</text>
</g>
<!-- Node4&#45;&gt;Node7 -->
<g id="edge6" class="edge"><title>Node4&#45;&gt;Node7</title>
<path fill="none" stroke="midnightblue" d="M178.765,-56.324C188.766,-48.2631 203.887,-36.0765 215.93,-26.3695"/>
<polygon fill="midnightblue" stroke="midnightblue" points="218.45,-28.8343 224.039,-19.8339 214.057,-23.3841 218.45,-28.8343"/>
</g>
</g>
</svg>
