<?xml version="1.0" encoding="UTF-8" standalone="no"?>
<!DOCTYPE svg PUBLIC "-//W3C//DTD SVG 1.1//EN"
 "http://www.w3.org/Graphics/SVG/1.1/DTD/svg11.dtd">
<!-- Generated by graphviz version 2.36.0 (20140111.2315)
 -->
<!-- Title: score Pages: 1 -->
<svg width="348pt" height="90pt"
 viewBox="0.00 0.00 348.00 89.67" xmlns="http://www.w3.org/2000/svg" xmlns:xlink="http://www.w3.org/1999/xlink">
<g id="graph0" class="graph" transform="scale(1 1) rotate(0) translate(4 85.6691)">
<title>score</title>
<!-- Node1 -->
<g id="node1" class="node"><title>Node1</title>
<polygon fill="#bfbfbf" stroke="black" points="0.5,-19.5 0.5,-38.5 41.5,-38.5 41.5,-19.5 0.5,-19.5"/>
<text text-anchor="middle" x="21" y="-26.5" font-family="Helvetica,sans-Serif" font-size="10.00">score</text>
</g>
<!-- Node2 -->
<g id="node2" class="node"><title>Node2</title>
<g id="a_node2"><a xlink:href="bayes_8c.html#a40c5c0b0d4eb7b59a91108269f69dc89" target="_top" xlink:title="MAIN">
<polygon fill="none" stroke="black" points="298,-38.5 298,-57.5 340,-57.5 340,-38.5 298,-38.5"/>
<text text-anchor="middle" x="319" y="-45.5" font-family="Helvetica,sans-Serif" font-size="10.00">MAIN</text>
</a>
</g>
</g>
<!-- Node1&#45;&gt;Node2 -->
<g id="edge1" class="edge"><title>Node1&#45;&gt;Node2</title>
<path fill="none" stroke="midnightblue" d="M39.9557,-45.2793C50.2807,-53.5255 63.9612,-62.6865 78,-67 156.171,-91.0185 181.313,-80.3151 262,-67 274.257,-64.9773 287.438,-60.6221 297.931,-56.5911"/>
<polygon fill="midnightblue" stroke="midnightblue" points="42.0409,-42.4595 32.1378,-38.6941 37.5313,-47.8134 42.0409,-42.4595"/>
</g>
<!-- Node3 -->
<g id="node3" class="node"><title>Node3</title>
<g id="a_node3"><a xlink:href="learner_8c.html#a5a45fbc491ab273140631145a6e82e54" target="_top" xlink:title="createTaskList">
<polygon fill="none" stroke="black" points="78.5,-38.5 78.5,-57.5 159.5,-57.5 159.5,-38.5 78.5,-38.5"/>
<text text-anchor="middle" x="119" y="-45.5" font-family="Helvetica,sans-Serif" font-size="10.00">createTaskList</text>
</a>
</g>
</g>
<!-- Node1&#45;&gt;Node3 -->
<g id="edge2" class="edge"><title>Node1&#45;&gt;Node3</title>
<path fill="none" stroke="midnightblue" d="M51.9278,-34.9232C60.2868,-36.5776 69.502,-38.4014 78.3295,-40.1486"/>
<polygon fill="midnightblue" stroke="midnightblue" points="52.3805,-31.445 41.8913,-32.9368 51.0214,-38.3118 52.3805,-31.445"/>
</g>
<!-- Node5 -->
<g id="node5" class="node"><title>Node5</title>
<g id="a_node5"><a xlink:href="learner_8h.html#a643517a90c64064dfb94cb9cb8d6eddf" target="_top" xlink:title="learner_score">
<polygon fill="none" stroke="black" points="81.5,-0.5 81.5,-19.5 156.5,-19.5 156.5,-0.5 81.5,-0.5"/>
<text text-anchor="middle" x="119" y="-7.5" font-family="Helvetica,sans-Serif" font-size="10.00">learner_score</text>
</a>
</g>
</g>
<!-- Node1&#45;&gt;Node5 -->
<g id="edge5" class="edge"><title>Node1&#45;&gt;Node5</title>
<path fill="none" stroke="midnightblue" d="M51.6031,-16.8525C61.0358,-14.4893 71.5854,-12.3054 81.4498,-10.6576"/>
<polygon fill="midnightblue" stroke="midnightblue" points="50.6357,-13.4883 41.8913,-19.4705 52.4576,-20.2471 50.6357,-13.4883"/>
</g>
<!-- Node4 -->
<g id="node4" class="node"><title>Node4</title>
<g id="a_node4"><a xlink:href="learner_8h.html#a23d451d4d355a14fa7c9735304ba4d95" target="_top" xlink:title="learner_run">
<polygon fill="none" stroke="black" points="196.5,-38.5 196.5,-57.5 261.5,-57.5 261.5,-38.5 196.5,-38.5"/>
<text text-anchor="middle" x="229" y="-45.5" font-family="Helvetica,sans-Serif" font-size="10.00">learner_run</text>
</a>
</g>
</g>
<!-- Node3&#45;&gt;Node4 -->
<g id="edge3" class="edge"><title>Node3&#45;&gt;Node4</title>
<path fill="none" stroke="midnightblue" d="M169.656,-48C178.67,-48 187.846,-48 196.171,-48"/>
<polygon fill="midnightblue" stroke="midnightblue" points="169.602,-44.5001 159.602,-48 169.602,-51.5001 169.602,-44.5001"/>
</g>
<!-- Node4&#45;&gt;Node2 -->
<g id="edge4" class="edge"><title>Node4&#45;&gt;Node2</title>
<path fill="none" stroke="midnightblue" d="M271.839,-48C280.875,-48 290.033,-48 297.783,-48"/>
<polygon fill="midnightblue" stroke="midnightblue" points="271.77,-44.5001 261.77,-48 271.77,-51.5001 271.77,-44.5001"/>
</g>
<!-- Node5&#45;&gt;Node1 -->
<g id="edge6" class="edge"><title>Node5&#45;&gt;Node1</title>
<path fill="none" stroke="midnightblue" d="M88.2402,-22.1867C73.1684,-25.9547 55.278,-29.2608 41.8913,-30.6559"/>
<polygon fill="midnightblue" stroke="midnightblue" points="89.3884,-25.5022 98.1342,-19.5221 87.5681,-18.7431 89.3884,-25.5022"/>
</g>
<!-- Node5&#45;&gt;Node2 -->
<g id="edge7" class="edge"><title>Node5&#45;&gt;Node2</title>
<path fill="none" stroke="midnightblue" d="M166.804,-13.9554C194.691,-16.8821 230.648,-21.6574 262,-29 274.095,-31.8327 287.267,-36.2323 297.796,-40.0848"/>
<polygon fill="midnightblue" stroke="midnightblue" points="166.838,-10.4412 156.538,-12.9227 166.138,-17.406 166.838,-10.4412"/>
</g>
</g>
</svg>
