<?xml version="1.0" encoding="UTF-8" standalone="no"?>
<!DOCTYPE svg PUBLIC "-//W3C//DTD SVG 1.1//EN"
 "http://www.w3.org/Graphics/SVG/1.1/DTD/svg11.dtd">
<!-- Generated by graphviz version 2.36.0 (20140111.2315)
 -->
<!-- Title: bitmap_isSet Pages: 1 -->
<svg width="594pt" height="174pt"
 viewBox="0.00 0.00 594.00 174.37" xmlns="http://www.w3.org/2000/svg" xmlns:xlink="http://www.w3.org/1999/xlink">
<g id="graph0" class="graph" transform="scale(1 1) rotate(0) translate(4 170.371)">
<title>bitmap_isSet</title>
<!-- Node1 -->
<g id="node1" class="node"><title>Node1</title>
<polygon fill="#bfbfbf" stroke="black" points="0,-76.5 0,-95.5 74,-95.5 74,-76.5 0,-76.5"/>
<text text-anchor="middle" x="37" y="-83.5" font-family="Helvetica,sans-Serif" font-size="10.00">bitmap_isSet</text>
</g>
<!-- Node2 -->
<g id="node2" class="node"><title>Node2</title>
<g id="a_node2"><a xlink:href="data_8h.html#a0f45b98c6cac17904d9daf25fbdc1dc9" target="_top" xlink:title="data_generate">
<polygon fill="none" stroke="black" points="430,-133.5 430,-152.5 508,-152.5 508,-133.5 430,-133.5"/>
<text text-anchor="middle" x="469" y="-140.5" font-family="Helvetica,sans-Serif" font-size="10.00">data_generate</text>
</a>
</g>
</g>
<!-- Node1&#45;&gt;Node2 -->
<g id="edge1" class="edge"><title>Node1&#45;&gt;Node2</title>
<path fill="none" stroke="midnightblue" d="M53.0677,-103.054C66.4461,-116.809 87.343,-135.117 110,-143 220.799,-181.549 362.828,-163.253 429.803,-150.981"/>
<polygon fill="midnightblue" stroke="midnightblue" points="55.4859,-100.516 46.103,-95.5949 50.3694,-105.293 55.4859,-100.516"/>
</g>
<!-- Node4 -->
<g id="node4" class="node"><title>Node4</title>
<g id="a_node4"><a xlink:href="net_8h.html#a1963a15a906fd5f2bd659d0e5b2ec5be" target="_top" xlink:title="net_isPath">
<polygon fill="none" stroke="black" points="133.5,-114.5 133.5,-133.5 196.5,-133.5 196.5,-114.5 133.5,-114.5"/>
<text text-anchor="middle" x="165" y="-121.5" font-family="Helvetica,sans-Serif" font-size="10.00">net_isPath</text>
</a>
</g>
</g>
<!-- Node1&#45;&gt;Node4 -->
<g id="edge3" class="edge"><title>Node1&#45;&gt;Node4</title>
<path fill="none" stroke="midnightblue" d="M79.7186,-98.5818C97.1357,-103.835 117.012,-109.829 133.086,-114.677"/>
<polygon fill="midnightblue" stroke="midnightblue" points="80.3798,-95.1256 69.7951,-95.589 78.3586,-101.827 80.3798,-95.1256"/>
</g>
<!-- Node6 -->
<g id="node6" class="node"><title>Node6</title>
<g id="a_node6"><a xlink:href="net_8h.html#ab62419fc63326df24804b7b7982ce437" target="_top" xlink:title="net_findAncestors">
<polygon fill="none" stroke="black" points="117.5,-76.5 117.5,-95.5 212.5,-95.5 212.5,-76.5 117.5,-76.5"/>
<text text-anchor="middle" x="165" y="-83.5" font-family="Helvetica,sans-Serif" font-size="10.00">net_findAncestors</text>
</a>
</g>
</g>
<!-- Node1&#45;&gt;Node6 -->
<g id="edge6" class="edge"><title>Node1&#45;&gt;Node6</title>
<path fill="none" stroke="midnightblue" d="M84.134,-86C94.8649,-86 106.3,-86 117.065,-86"/>
<polygon fill="midnightblue" stroke="midnightblue" points="84.1066,-82.5001 74.1065,-86 84.1065,-89.5001 84.1066,-82.5001"/>
</g>
<!-- Node7 -->
<g id="node7" class="node"><title>Node7</title>
<g id="a_node7"><a xlink:href="net_8h.html#ab4dc77862d16111a3153033534128bd9" target="_top" xlink:title="net_findDescendants">
<polygon fill="none" stroke="black" points="110.5,-38.5 110.5,-57.5 219.5,-57.5 219.5,-38.5 110.5,-38.5"/>
<text text-anchor="middle" x="165" y="-45.5" font-family="Helvetica,sans-Serif" font-size="10.00">net_findDescendants</text>
</a>
</g>
</g>
<!-- Node1&#45;&gt;Node7 -->
<g id="edge7" class="edge"><title>Node1&#45;&gt;Node7</title>
<path fill="none" stroke="midnightblue" d="M79.5644,-73.4647C96.7052,-68.2952 116.25,-62.4009 132.215,-57.5859"/>
<polygon fill="midnightblue" stroke="midnightblue" points="78.3586,-70.1726 69.7951,-76.411 80.3798,-76.8744 78.3586,-70.1726"/>
</g>
<!-- Node8 -->
<g id="node8" class="node"><title>Node8</title>
<g id="a_node8"><a xlink:href="segments_8h.html#a447ba041737a6059920bc67b6006e33f" target="_top" xlink:title="segments_create">
<polygon fill="none" stroke="black" points="119,-0.5 119,-19.5 211,-19.5 211,-0.5 119,-0.5"/>
<text text-anchor="middle" x="165" y="-7.5" font-family="Helvetica,sans-Serif" font-size="10.00">segments_create</text>
</a>
</g>
</g>
<!-- Node1&#45;&gt;Node8 -->
<g id="edge8" class="edge"><title>Node1&#45;&gt;Node8</title>
<path fill="none" stroke="midnightblue" d="M55.3229,-69.5576C69.2192,-57.0726 89.6937,-40.1986 110,-29 116.614,-25.3525 124.06,-22.1961 131.262,-19.5607"/>
<polygon fill="midnightblue" stroke="midnightblue" points="52.951,-66.9839 47.9522,-76.3253 57.6854,-72.14 52.951,-66.9839"/>
</g>
<!-- Node3 -->
<g id="node3" class="node"><title>Node3</title>
<g id="a_node3"><a xlink:href="bayes_8c.html#a40c5c0b0d4eb7b59a91108269f69dc89" target="_top" xlink:title="MAIN">
<polygon fill="none" stroke="black" points="544,-133.5 544,-152.5 586,-152.5 586,-133.5 544,-133.5"/>
<text text-anchor="middle" x="565" y="-140.5" font-family="Helvetica,sans-Serif" font-size="10.00">MAIN</text>
</a>
</g>
</g>
<!-- Node2&#45;&gt;Node3 -->
<g id="edge2" class="edge"><title>Node2&#45;&gt;Node3</title>
<path fill="none" stroke="midnightblue" d="M518.353,-143C527.354,-143 536.288,-143 543.835,-143"/>
<polygon fill="midnightblue" stroke="midnightblue" points="518.233,-139.5 508.233,-143 518.233,-146.5 518.233,-139.5"/>
</g>
<!-- Node5 -->
<g id="node5" class="node"><title>Node5</title>
<g id="a_node5"><a xlink:href="net_8h.html#a7ac0b179e1d386a853aba9b4fffa369a" target="_top" xlink:title="net_generateRandomEdges">
<polygon fill="none" stroke="black" points="256.5,-114.5 256.5,-133.5 393.5,-133.5 393.5,-114.5 256.5,-114.5"/>
<text text-anchor="middle" x="325" y="-121.5" font-family="Helvetica,sans-Serif" font-size="10.00">net_generateRandomEdges</text>
</a>
</g>
</g>
<!-- Node4&#45;&gt;Node5 -->
<g id="edge4" class="edge"><title>Node4&#45;&gt;Node5</title>
<path fill="none" stroke="midnightblue" d="M206.854,-124C221.939,-124 239.466,-124 256.295,-124"/>
<polygon fill="midnightblue" stroke="midnightblue" points="206.839,-120.5 196.839,-124 206.839,-127.5 206.839,-120.5"/>
</g>
<!-- Node5&#45;&gt;Node2 -->
<g id="edge5" class="edge"><title>Node5&#45;&gt;Node2</title>
<path fill="none" stroke="midnightblue" d="M403.868,-134.419C412.87,-135.623 421.723,-136.808 429.842,-137.894"/>
<polygon fill="midnightblue" stroke="midnightblue" points="404.049,-130.912 393.673,-133.055 403.12,-137.85 404.049,-130.912"/>
</g>
<!-- Node9 -->
<g id="node9" class="node"><title>Node9</title>
<g id="a_node9"><a xlink:href="genome_8c.html#a40c5c0b0d4eb7b59a91108269f69dc89" target="_top" xlink:title="MAIN">
<polygon fill="none" stroke="black" points="304,-0.5 304,-19.5 346,-19.5 346,-0.5 304,-0.5"/>
<text text-anchor="middle" x="325" y="-7.5" font-family="Helvetica,sans-Serif" font-size="10.00">MAIN</text>
</a>
</g>
</g>
<!-- Node8&#45;&gt;Node9 -->
<g id="edge9" class="edge"><title>Node8&#45;&gt;Node9</title>
<path fill="none" stroke="midnightblue" d="M221.535,-10C250.012,-10 282.963,-10 303.644,-10"/>
<polygon fill="midnightblue" stroke="midnightblue" points="221.276,-6.5001 211.276,-10 221.276,-13.5001 221.276,-6.5001"/>
</g>
</g>
</svg>
