<?xml version="1.0" encoding="UTF-8" standalone="no"?>
<!DOCTYPE svg PUBLIC "-//W3C//DTD SVG 1.1//EN"
 "http://www.w3.org/Graphics/SVG/1.1/DTD/svg11.dtd">
<!-- Generated by graphviz version 2.36.0 (20140111.2315)
 -->
<!-- Title: bitmap_free Pages: 1 -->
<svg width="442pt" height="85pt"
 viewBox="0.00 0.00 442.00 85.00" xmlns="http://www.w3.org/2000/svg" xmlns:xlink="http://www.w3.org/1999/xlink">
<g id="graph0" class="graph" transform="scale(1 1) rotate(0) translate(4 81)">
<title>bitmap_free</title>
<!-- Node1 -->
<g id="node1" class="node"><title>Node1</title>
<polygon fill="#bfbfbf" stroke="black" points="0,-38.5 0,-57.5 68,-57.5 68,-38.5 0,-38.5"/>
<text text-anchor="middle" x="34" y="-45.5" font-family="Helvetica,sans-Serif" font-size="10.00">bitmap_free</text>
</g>
<!-- Node2 -->
<g id="node2" class="node"><title>Node2</title>
<g id="a_node2"><a xlink:href="data_8h.html#a0f45b98c6cac17904d9daf25fbdc1dc9" target="_top" xlink:title="data_generate">
<polygon fill="none" stroke="black" points="278,-57.5 278,-76.5 356,-76.5 356,-57.5 278,-57.5"/>
<text text-anchor="middle" x="317" y="-64.5" font-family="Helvetica,sans-Serif" font-size="10.00">data_generate</text>
</a>
</g>
</g>
<!-- Node1&#45;&gt;Node2 -->
<g id="edge1" class="edge"><title>Node1&#45;&gt;Node2</title>
<path fill="none" stroke="midnightblue" d="M72.5814,-60.3122C82.6727,-63.0758 93.657,-65.602 104,-67 164.364,-75.1592 235.283,-72.7688 277.881,-70.059"/>
<polygon fill="midnightblue" stroke="midnightblue" points="73.4231,-56.9124 62.8447,-57.5026 71.4823,-63.638 73.4231,-56.9124"/>
</g>
<!-- Node4 -->
<g id="node4" class="node"><title>Node4</title>
<g id="a_node4"><a xlink:href="net_8h.html#a7ac0b179e1d386a853aba9b4fffa369a" target="_top" xlink:title="net_generateRandomEdges">
<polygon fill="none" stroke="black" points="104.5,-38.5 104.5,-57.5 241.5,-57.5 241.5,-38.5 104.5,-38.5"/>
<text text-anchor="middle" x="173" y="-45.5" font-family="Helvetica,sans-Serif" font-size="10.00">net_generateRandomEdges</text>
</a>
</g>
</g>
<!-- Node1&#45;&gt;Node4 -->
<g id="edge3" class="edge"><title>Node1&#45;&gt;Node4</title>
<path fill="none" stroke="midnightblue" d="M78.3656,-48C86.6984,-48 95.6074,-48 104.494,-48"/>
<polygon fill="midnightblue" stroke="midnightblue" points="78.1639,-44.5001 68.1639,-48 78.1638,-51.5001 78.1639,-44.5001"/>
</g>
<!-- Node5 -->
<g id="node5" class="node"><title>Node5</title>
<g id="a_node5"><a xlink:href="gene_8h.html#aec0e96f107c5baa80c74e4021463fa5f" target="_top" xlink:title="gene_free">
<polygon fill="none" stroke="black" points="143.5,-0.5 143.5,-19.5 202.5,-19.5 202.5,-0.5 143.5,-0.5"/>
<text text-anchor="middle" x="173" y="-7.5" font-family="Helvetica,sans-Serif" font-size="10.00">gene_free</text>
</a>
</g>
</g>
<!-- Node1&#45;&gt;Node5 -->
<g id="edge5" class="edge"><title>Node1&#45;&gt;Node5</title>
<path fill="none" stroke="midnightblue" d="M77.9524,-36.0862C99.2481,-30.1794 124.389,-23.206 143.317,-17.9559"/>
<polygon fill="midnightblue" stroke="midnightblue" points="76.8646,-32.7557 68.1639,-38.8013 78.7356,-39.501 76.8646,-32.7557"/>
</g>
<!-- Node3 -->
<g id="node3" class="node"><title>Node3</title>
<g id="a_node3"><a xlink:href="bayes_8c.html#a40c5c0b0d4eb7b59a91108269f69dc89" target="_top" xlink:title="MAIN">
<polygon fill="none" stroke="black" points="392,-57.5 392,-76.5 434,-76.5 434,-57.5 392,-57.5"/>
<text text-anchor="middle" x="413" y="-64.5" font-family="Helvetica,sans-Serif" font-size="10.00">MAIN</text>
</a>
</g>
</g>
<!-- Node2&#45;&gt;Node3 -->
<g id="edge2" class="edge"><title>Node2&#45;&gt;Node3</title>
<path fill="none" stroke="midnightblue" d="M366.353,-67C375.354,-67 384.288,-67 391.835,-67"/>
<polygon fill="midnightblue" stroke="midnightblue" points="366.233,-63.5001 356.233,-67 366.233,-70.5001 366.233,-63.5001"/>
</g>
<!-- Node4&#45;&gt;Node2 -->
<g id="edge4" class="edge"><title>Node4&#45;&gt;Node2</title>
<path fill="none" stroke="midnightblue" d="M251.868,-58.419C260.87,-59.6235 269.723,-60.808 277.842,-61.8943"/>
<polygon fill="midnightblue" stroke="midnightblue" points="252.049,-54.912 241.673,-57.0548 251.12,-61.8502 252.049,-54.912"/>
</g>
<!-- Node6 -->
<g id="node6" class="node"><title>Node6</title>
<g id="a_node6"><a xlink:href="genome_8c.html#a40c5c0b0d4eb7b59a91108269f69dc89" target="_top" xlink:title="MAIN">
<polygon fill="none" stroke="black" points="296,-0.5 296,-19.5 338,-19.5 338,-0.5 296,-0.5"/>
<text text-anchor="middle" x="317" y="-7.5" font-family="Helvetica,sans-Serif" font-size="10.00">MAIN</text>
</a>
</g>
</g>
<!-- Node5&#45;&gt;Node6 -->
<g id="edge6" class="edge"><title>Node5&#45;&gt;Node6</title>
<path fill="none" stroke="midnightblue" d="M212.987,-10C239.882,-10 274.527,-10 295.998,-10"/>
<polygon fill="midnightblue" stroke="midnightblue" points="212.736,-6.5001 202.736,-10 212.736,-13.5001 212.736,-6.5001"/>
</g>
</g>
</svg>
