<?xml version="1.0" encoding="UTF-8" standalone="no"?>
<!DOCTYPE svg PUBLIC "-//W3C//DTD SVG 1.1//EN"
 "http://www.w3.org/Graphics/SVG/1.1/DTD/svg11.dtd">
<!-- Generated by graphviz version 2.36.0 (20140111.2315)
 -->
<!-- Title: bitmap_clearAll Pages: 1 -->
<svg width="604pt" height="129pt"
 viewBox="0.00 0.00 604.00 129.38" xmlns="http://www.w3.org/2000/svg" xmlns:xlink="http://www.w3.org/1999/xlink">
<g id="graph0" class="graph" transform="scale(1 1) rotate(0) translate(4 125.377)">
<title>bitmap_clearAll</title>
<!-- Node1 -->
<g id="node1" class="node"><title>Node1</title>
<polygon fill="#bfbfbf" stroke="black" points="0.5,-57.5 0.5,-76.5 83.5,-76.5 83.5,-57.5 0.5,-57.5"/>
<text text-anchor="middle" x="42" y="-64.5" font-family="Helvetica,sans-Serif" font-size="10.00">bitmap_clearAll</text>
</g>
<!-- Node2 -->
<g id="node2" class="node"><title>Node2</title>
<g id="a_node2"><a xlink:href="data_8h.html#a0f45b98c6cac17904d9daf25fbdc1dc9" target="_top" xlink:title="data_generate">
<polygon fill="none" stroke="black" points="440,-95.5 440,-114.5 518,-114.5 518,-95.5 440,-95.5"/>
<text text-anchor="middle" x="479" y="-102.5" font-family="Helvetica,sans-Serif" font-size="10.00">data_generate</text>
</a>
</g>
</g>
<!-- Node1&#45;&gt;Node2 -->
<g id="edge1" class="edge"><title>Node1&#45;&gt;Node2</title>
<path fill="none" stroke="midnightblue" d="M66.1843,-81.9489C80.9428,-90.555 100.827,-100.527 120,-105 233.942,-131.585 373.895,-119.071 439.991,-110.586"/>
<polygon fill="midnightblue" stroke="midnightblue" points="67.6523,-78.7463 57.2851,-76.5622 64.0275,-84.7347 67.6523,-78.7463"/>
</g>
<!-- Node4 -->
<g id="node4" class="node"><title>Node4</title>
<g id="a_node4"><a xlink:href="net_8h.html#a1963a15a906fd5f2bd659d0e5b2ec5be" target="_top" xlink:title="net_isPath">
<polygon fill="none" stroke="black" points="143.5,-76.5 143.5,-95.5 206.5,-95.5 206.5,-76.5 143.5,-76.5"/>
<text text-anchor="middle" x="175" y="-83.5" font-family="Helvetica,sans-Serif" font-size="10.00">net_isPath</text>
</a>
</g>
</g>
<!-- Node1&#45;&gt;Node4 -->
<g id="edge3" class="edge"><title>Node1&#45;&gt;Node4</title>
<path fill="none" stroke="midnightblue" d="M93.9,-74.3824C110.574,-76.8009 128.579,-79.4122 143.286,-81.5453"/>
<polygon fill="midnightblue" stroke="midnightblue" points="94.13,-70.8793 83.7311,-72.9076 93.1252,-77.8068 94.13,-70.8793"/>
</g>
<!-- Node6 -->
<g id="node6" class="node"><title>Node6</title>
<g id="a_node6"><a xlink:href="net_8h.html#ab62419fc63326df24804b7b7982ce437" target="_top" xlink:title="net_findAncestors">
<polygon fill="none" stroke="black" points="127.5,-38.5 127.5,-57.5 222.5,-57.5 222.5,-38.5 127.5,-38.5"/>
<text text-anchor="middle" x="175" y="-45.5" font-family="Helvetica,sans-Serif" font-size="10.00">net_findAncestors</text>
</a>
</g>
</g>
<!-- Node1&#45;&gt;Node6 -->
<g id="edge6" class="edge"><title>Node1&#45;&gt;Node6</title>
<path fill="none" stroke="midnightblue" d="M93.6936,-59.6475C104.766,-58.0415 116.435,-56.3491 127.342,-54.7672"/>
<polygon fill="midnightblue" stroke="midnightblue" points="93.1252,-56.1932 83.7311,-61.0924 94.13,-63.1207 93.1252,-56.1932"/>
</g>
<!-- Node7 -->
<g id="node7" class="node"><title>Node7</title>
<g id="a_node7"><a xlink:href="net_8h.html#ab4dc77862d16111a3153033534128bd9" target="_top" xlink:title="net_findDescendants">
<polygon fill="none" stroke="black" points="120.5,-0.5 120.5,-19.5 229.5,-19.5 229.5,-0.5 120.5,-0.5"/>
<text text-anchor="middle" x="175" y="-7.5" font-family="Helvetica,sans-Serif" font-size="10.00">net_findDescendants</text>
</a>
</g>
</g>
<!-- Node1&#45;&gt;Node7 -->
<g id="edge7" class="edge"><title>Node1&#45;&gt;Node7</title>
<path fill="none" stroke="midnightblue" d="M69.7619,-52.805C84.4042,-45.2909 102.981,-36.1632 120,-29 127.969,-25.6458 136.759,-22.3771 144.89,-19.523"/>
<polygon fill="midnightblue" stroke="midnightblue" points="68.0287,-49.7612 60.7639,-57.473 71.2523,-55.9748 68.0287,-49.7612"/>
</g>
<!-- Node3 -->
<g id="node3" class="node"><title>Node3</title>
<g id="a_node3"><a xlink:href="bayes_8c.html#a40c5c0b0d4eb7b59a91108269f69dc89" target="_top" xlink:title="MAIN">
<polygon fill="none" stroke="black" points="554,-95.5 554,-114.5 596,-114.5 596,-95.5 554,-95.5"/>
<text text-anchor="middle" x="575" y="-102.5" font-family="Helvetica,sans-Serif" font-size="10.00">MAIN</text>
</a>
</g>
</g>
<!-- Node2&#45;&gt;Node3 -->
<g id="edge2" class="edge"><title>Node2&#45;&gt;Node3</title>
<path fill="none" stroke="midnightblue" d="M528.353,-105C537.354,-105 546.288,-105 553.835,-105"/>
<polygon fill="midnightblue" stroke="midnightblue" points="528.233,-101.5 518.233,-105 528.233,-108.5 528.233,-101.5"/>
</g>
<!-- Node5 -->
<g id="node5" class="node"><title>Node5</title>
<g id="a_node5"><a xlink:href="net_8h.html#a7ac0b179e1d386a853aba9b4fffa369a" target="_top" xlink:title="net_generateRandomEdges">
<polygon fill="none" stroke="black" points="266.5,-76.5 266.5,-95.5 403.5,-95.5 403.5,-76.5 266.5,-76.5"/>
<text text-anchor="middle" x="335" y="-83.5" font-family="Helvetica,sans-Serif" font-size="10.00">net_generateRandomEdges</text>
</a>
</g>
</g>
<!-- Node4&#45;&gt;Node5 -->
<g id="edge4" class="edge"><title>Node4&#45;&gt;Node5</title>
<path fill="none" stroke="midnightblue" d="M216.854,-86C231.939,-86 249.466,-86 266.295,-86"/>
<polygon fill="midnightblue" stroke="midnightblue" points="216.839,-82.5001 206.839,-86 216.839,-89.5001 216.839,-82.5001"/>
</g>
<!-- Node5&#45;&gt;Node2 -->
<g id="edge5" class="edge"><title>Node5&#45;&gt;Node2</title>
<path fill="none" stroke="midnightblue" d="M413.868,-96.419C422.87,-97.6235 431.723,-98.808 439.842,-99.8943"/>
<polygon fill="midnightblue" stroke="midnightblue" points="414.049,-92.912 403.673,-95.0548 413.12,-99.8502 414.049,-92.912"/>
</g>
</g>
</svg>
