<?xml version="1.0" encoding="UTF-8" standalone="no"?>
<!DOCTYPE svg PUBLIC "-//W3C//DTD SVG 1.1//EN"
 "http://www.w3.org/Graphics/SVG/1.1/DTD/svg11.dtd">
<!-- Generated by graphviz version 2.36.0 (20140111.2315)
 -->
<!-- Title: bench_verify Pages: 1 -->
<svg width="372pt" height="191pt"
 viewBox="0.00 0.00 372.00 191.00" xmlns="http://www.w3.org/2000/svg" xmlns:xlink="http://www.w3.org/1999/xlink">
<g id="graph0" class="graph" transform="scale(1 1) rotate(0) translate(4 187)">
<title>bench_verify</title>
<!-- Node1 -->
<g id="node1" class="node"><title>Node1</title>
<polygon fill="#bfbfbf" stroke="black" points="0,-68.5 0,-87.5 72,-87.5 72,-68.5 0,-68.5"/>
<text text-anchor="middle" x="36" y="-75.5" font-family="Helvetica,sans-Serif" font-size="10.00">bench_verify</text>
</g>
<!-- Node2 -->
<g id="node2" class="node"><title>Node2</title>
<g id="a_node2"><a xlink:href="classDList.html#a3d026313a47711da4d6cf3d637747457" target="_top" xlink:title="DList::isSane">
<polygon fill="none" stroke="black" points="120,-125.5 120,-144.5 196,-144.5 196,-125.5 120,-125.5"/>
<text text-anchor="middle" x="158" y="-132.5" font-family="Helvetica,sans-Serif" font-size="10.00">DList::isSane</text>
</a>
</g>
</g>
<!-- Node1&#45;&gt;Node2 -->
<g id="edge1" class="edge"><title>Node1&#45;&gt;Node2</title>
<path fill="none" stroke="midnightblue" d="M53.6363,-87.6468C67.8431,-95.7036 88.9437,-107.245 108,-116 112.17,-117.916 116.593,-119.812 121.009,-121.623"/>
<polygon fill="midnightblue" stroke="midnightblue" points="119.976,-124.979 130.562,-125.424 122.564,-118.475 119.976,-124.979"/>
</g>
<!-- Node3 -->
<g id="node3" class="node"><title>Node3</title>
<g id="a_node3"><a xlink:href="classRBTree.html#abb5ba484adb7e85adc371565c64c87fc" target="_top" xlink:title="RBTree::isSane">
<polygon fill="none" stroke="black" points="115,-87.5 115,-106.5 201,-106.5 201,-87.5 115,-87.5"/>
<text text-anchor="middle" x="158" y="-94.5" font-family="Helvetica,sans-Serif" font-size="10.00">RBTree::isSane</text>
</a>
</g>
</g>
<!-- Node1&#45;&gt;Node3 -->
<g id="edge2" class="edge"><title>Node1&#45;&gt;Node3</title>
<path fill="none" stroke="midnightblue" d="M72.0316,-83.5467C82.3068,-85.1736 93.7711,-86.9888 104.87,-88.7461"/>
<polygon fill="midnightblue" stroke="midnightblue" points="104.491,-92.2296 114.915,-90.3366 105.586,-85.3157 104.491,-92.2296"/>
</g>
<!-- Node8 -->
<g id="node8" class="node"><title>Node8</title>
<g id="a_node8"><a xlink:href="classHashTable.html#ad7ef164978b3a4e34d27d175ccbaecfb" target="_top" xlink:title="HashTable::isSane">
<polygon fill="none" stroke="black" points="108,-49.5 108,-68.5 208,-68.5 208,-49.5 108,-49.5"/>
<text text-anchor="middle" x="158" y="-56.5" font-family="Helvetica,sans-Serif" font-size="10.00">HashTable::isSane</text>
</a>
</g>
</g>
<!-- Node1&#45;&gt;Node8 -->
<g id="edge7" class="edge"><title>Node1&#45;&gt;Node8</title>
<path fill="none" stroke="midnightblue" d="M72.0316,-72.4533C80.1741,-71.1641 89.0634,-69.7566 97.9258,-68.3534"/>
<polygon fill="midnightblue" stroke="midnightblue" points="98.5494,-71.7984 107.879,-66.7775 97.4547,-64.8845 98.5494,-71.7984"/>
</g>
<!-- Node10 -->
<g id="node10" class="node"><title>Node10</title>
<g id="a_node10"><a xlink:href="classList.html#aeca38d275d9168eeaff3313c15abd120" target="_top" xlink:title="List::isSane">
<polygon fill="none" stroke="black" points="124,-11.5 124,-30.5 192,-30.5 192,-11.5 124,-11.5"/>
<text text-anchor="middle" x="158" y="-18.5" font-family="Helvetica,sans-Serif" font-size="10.00">List::isSane</text>
</a>
</g>
</g>
<!-- Node1&#45;&gt;Node10 -->
<g id="edge9" class="edge"><title>Node1&#45;&gt;Node10</title>
<path fill="none" stroke="midnightblue" d="M53.6363,-68.3532C67.8431,-60.2964 88.9437,-48.7549 108,-40 112.17,-38.0842 116.593,-36.1877 121.009,-34.377"/>
<polygon fill="midnightblue" stroke="midnightblue" points="122.564,-37.5249 130.562,-30.5757 119.976,-31.0209 122.564,-37.5249"/>
</g>
<!-- Node4 -->
<g id="node4" class="node"><title>Node4</title>
<g id="a_node4"><a xlink:href="classRBTree.html#af39dd046b37c778075465a6aab1a651b" target="_top" xlink:title="RBTree::blackHeight">
<polygon fill="none" stroke="black" points="250,-163.5 250,-182.5 358,-182.5 358,-163.5 250,-163.5"/>
<text text-anchor="middle" x="304" y="-170.5" font-family="Helvetica,sans-Serif" font-size="10.00">RBTree::blackHeight</text>
</a>
</g>
</g>
<!-- Node3&#45;&gt;Node4 -->
<g id="edge3" class="edge"><title>Node3&#45;&gt;Node4</title>
<path fill="none" stroke="midnightblue" d="M189.841,-106.556C196.109,-109.148 202.47,-112.288 208,-116 227.316,-128.966 224.314,-141.603 244,-154 247.193,-156.011 250.618,-157.827 254.151,-159.464"/>
<polygon fill="midnightblue" stroke="midnightblue" points="253.095,-162.815 263.674,-163.392 255.764,-156.343 253.095,-162.815"/>
</g>
<!-- Node5 -->
<g id="node5" class="node"><title>Node5</title>
<g id="a_node5"><a xlink:href="classRBTree.html#a1801138c09038db3b50b15047a2ca661" target="_top" xlink:title="RBTree::redViolation">
<polygon fill="none" stroke="black" points="250.5,-125.5 250.5,-144.5 357.5,-144.5 357.5,-125.5 250.5,-125.5"/>
<text text-anchor="middle" x="304" y="-132.5" font-family="Helvetica,sans-Serif" font-size="10.00">RBTree::redViolation</text>
</a>
</g>
</g>
<!-- Node3&#45;&gt;Node5 -->
<g id="edge4" class="edge"><title>Node3&#45;&gt;Node5</title>
<path fill="none" stroke="midnightblue" d="M195.337,-106.589C214.083,-111.536 237.143,-117.621 257.107,-122.889"/>
<polygon fill="midnightblue" stroke="midnightblue" points="256.362,-126.312 266.924,-125.48 258.148,-119.544 256.362,-126.312"/>
</g>
<!-- Node6 -->
<g id="node6" class="node"><title>Node6</title>
<g id="a_node6"><a xlink:href="classRBTree.html#a95f426ead99aebb5add85206e36f694e" target="_top" xlink:title="RBTree::validParents">
<polygon fill="none" stroke="black" points="249,-87.5 249,-106.5 359,-106.5 359,-87.5 249,-87.5"/>
<text text-anchor="middle" x="304" y="-94.5" font-family="Helvetica,sans-Serif" font-size="10.00">RBTree::validParents</text>
</a>
</g>
</g>
<!-- Node3&#45;&gt;Node6 -->
<g id="edge5" class="edge"><title>Node3&#45;&gt;Node6</title>
<path fill="none" stroke="midnightblue" d="M201.038,-97C212.829,-97 225.924,-97 238.693,-97"/>
<polygon fill="midnightblue" stroke="midnightblue" points="238.832,-100.5 248.832,-97 238.832,-93.5001 238.832,-100.5"/>
</g>
<!-- Node7 -->
<g id="node7" class="node"><title>Node7</title>
<g id="a_node7"><a xlink:href="classRBTree.html#a277a28c2007dd04dda0971a577e6e9ae" target="_top" xlink:title="RBTree::inOrder">
<polygon fill="none" stroke="black" points="260,-49.5 260,-68.5 348,-68.5 348,-49.5 260,-49.5"/>
<text text-anchor="middle" x="304" y="-56.5" font-family="Helvetica,sans-Serif" font-size="10.00">RBTree::inOrder</text>
</a>
</g>
</g>
<!-- Node3&#45;&gt;Node7 -->
<g id="edge6" class="edge"><title>Node3&#45;&gt;Node7</title>
<path fill="none" stroke="midnightblue" d="M195.337,-87.411C214.083,-82.4642 237.143,-76.3789 257.107,-71.1108"/>
<polygon fill="midnightblue" stroke="midnightblue" points="258.148,-74.4558 266.924,-68.5201 256.362,-67.6875 258.148,-74.4558"/>
</g>
<!-- Node9 -->
<g id="node9" class="node"><title>Node9</title>
<g id="a_node9"><a xlink:href="classHashTable.html#a45e8619d114405fe58a54402a3eb8624" target="_top" xlink:title="HashTable::verify_hash\l_function">
<polygon fill="none" stroke="black" points="244,-0 244,-30 364,-30 364,-0 244,-0"/>
<text text-anchor="start" x="252" y="-18" font-family="Helvetica,sans-Serif" font-size="10.00">HashTable::verify_hash</text>
<text text-anchor="middle" x="304" y="-7" font-family="Helvetica,sans-Serif" font-size="10.00">_function</text>
</a>
</g>
</g>
<!-- Node8&#45;&gt;Node9 -->
<g id="edge8" class="edge"><title>Node8&#45;&gt;Node9</title>
<path fill="none" stroke="midnightblue" d="M190.246,-49.4527C205.952,-44.6536 225.516,-38.6757 243.916,-33.0534"/>
<polygon fill="midnightblue" stroke="midnightblue" points="245.154,-36.3349 253.695,-30.0654 243.109,-29.6404 245.154,-36.3349"/>
</g>
</g>
</svg>
