<?xml version="1.0" encoding="UTF-8" standalone="no"?>
<!DOCTYPE svg PUBLIC "-//W3C//DTD SVG 1.1//EN"
 "http://www.w3.org/Graphics/SVG/1.1/DTD/svg11.dtd">
<!-- Generated by graphviz version 2.36.0 (20140111.2315)
 -->
<!-- Title: rstm/rstm&#45;dev/bench/bmconfig.hpp Pages: 1 -->
<!--zoomable 108 -->
<svg id="main" version="1.1" xmlns="http://www.w3.org/2000/svg" xmlns:xlink="http://www.w3.org/1999/xlink" xml:space="preserve" onload="init(evt)">
<style type="text/css"><![CDATA[
.edge:hover path { stroke: red; }
.edge:hover polygon { stroke: red; fill: red; }
]]></style>
<script type="text/javascript"><![CDATA[
var edges = document.getElementsByTagName('g');
if (edges && edges.length) {
  for (var i=0;i<edges.length;i++) {
    if (edges[i].id.substr(0,4)=='edge') {
      edges[i].setAttribute('class','edge');
    }
  }
}
]]></script>
        <defs>
                <circle id="rim" cx="0" cy="0" r="7"/>
                <circle id="rim2" cx="0" cy="0" r="3.5"/>
                <g id="zoomPlus">
                        <use xlink:href="#rim" fill="#404040">
                                <set attributeName="fill" to="#808080" begin="zoomplus.mouseover" end="zoomplus.mouseout"/>
                        </use>
                        <path d="M-4,0h8M0,-4v8" fill="none" stroke="white" stroke-width="1.5" pointer-events="none"/>
                </g>
                <g id="zoomMin">
                        <use xlink:href="#rim" fill="#404040">
                                <set attributeName="fill" to="#808080" begin="zoomminus.mouseover" end="zoomminus.mouseout"/>
                        </use>
                        <path d="M-4,0h8" fill="none" stroke="white" stroke-width="1.5" pointer-events="none"/>
                </g>
                <g id="dirArrow">
                        <path fill="none" stroke="white" stroke-width="1.5" d="M0,-3.0v7 M-2.5,-0.5L0,-3.0L2.5,-0.5"/>
                </g>
               <g id="resetDef">
                       <use xlink:href="#rim2" fill="#404040">
                               <set attributeName="fill" to="#808080" begin="reset.mouseover" end="reset.mouseout"/>
                       </use>
               </g>
        </defs>

<script type="text/javascript">
var viewWidth = 1940;
var viewHeight = 108;
var sectionId = 'dynsection-1';
</script>
<script xlink:href="svgpan.js"/>
<svg id="graph" class="graph">
<g id="viewport">
<title>rstm/rstm&#45;dev/bench/bmconfig.hpp</title>
<!-- Node1 -->
<g id="node1" class="node"><title>Node1</title>
<polygon fill="#bfbfbf" stroke="black" points="874.5,-69 874.5,-99 981.5,-99 981.5,-69 874.5,-69"/>
<text text-anchor="start" x="882.5" y="-87" font-family="Helvetica,sans-Serif" font-size="10.00">rstm/rstm&#45;dev/bench</text>
<text text-anchor="middle" x="928" y="-76" font-family="Helvetica,sans-Serif" font-size="10.00">/bmconfig.hpp</text>
</g>
<!-- Node2 -->
<g id="node2" class="node"><title>Node2</title>
<g id="a_node2"><a xlink:href="bmharness_8cpp.html" target="_top" xlink:title="rstm/rstm&#45;dev/bench\l/bmharness.cpp">
<polygon fill="none" stroke="black" points="-0.5,-1 -0.5,-31 106.5,-31 106.5,-1 -0.5,-1"/>
<text text-anchor="start" x="7.5" y="-19" font-family="Helvetica,sans-Serif" font-size="10.00">rstm/rstm&#45;dev/bench</text>
<text text-anchor="middle" x="53" y="-8" font-family="Helvetica,sans-Serif" font-size="10.00">/bmharness.cpp</text>
</a>
</g>
</g>
<!-- Node1&#45;&gt;Node2 -->
<g id="edge1" class="edge"><title>Node1&#45;&gt;Node2</title>
<path fill="none" stroke="midnightblue" d="M864.029,-82.7739C726.277,-81.4592 391.658,-73.8159 115,-32 112.262,-31.5862 109.468,-31.1102 106.655,-30.5881"/>
<polygon fill="midnightblue" stroke="midnightblue" points="864.359,-86.2768 874.389,-82.8643 864.42,-79.2771 864.359,-86.2768"/>
</g>
<!-- Node3 -->
<g id="node3" class="node"><title>Node3</title>
<g id="a_node3"><a xlink:href="bmharness_8hpp.html" target="_top" xlink:title="rstm/rstm&#45;dev/bench\l/bmharness.hpp">
<polygon fill="none" stroke="black" points="124.5,-1 124.5,-31 231.5,-31 231.5,-1 124.5,-1"/>
<text text-anchor="start" x="132.5" y="-19" font-family="Helvetica,sans-Serif" font-size="10.00">rstm/rstm&#45;dev/bench</text>
<text text-anchor="middle" x="178" y="-8" font-family="Helvetica,sans-Serif" font-size="10.00">/bmharness.hpp</text>
</a>
</g>
</g>
<!-- Node1&#45;&gt;Node3 -->
<g id="edge2" class="edge"><title>Node1&#45;&gt;Node3</title>
<path fill="none" stroke="midnightblue" d="M863.846,-81.7365C741.709,-78.5603 467.646,-67.7298 240,-32 237.265,-31.5707 234.473,-31.0822 231.661,-30.5502"/>
<polygon fill="midnightblue" stroke="midnightblue" points="864.048,-85.2426 874.133,-81.9951 864.224,-78.2448 864.048,-85.2426"/>
</g>
<!-- Node4 -->
<g id="node4" class="node"><title>Node4</title>
<g id="a_node4"><a xlink:href="CounterBench_8cpp.html" target="_top" xlink:title="rstm/rstm&#45;dev/bench\l/CounterBench.cpp">
<polygon fill="none" stroke="black" points="249.5,-1 249.5,-31 356.5,-31 356.5,-1 249.5,-1"/>
<text text-anchor="start" x="257.5" y="-19" font-family="Helvetica,sans-Serif" font-size="10.00">rstm/rstm&#45;dev/bench</text>
<text text-anchor="middle" x="303" y="-8" font-family="Helvetica,sans-Serif" font-size="10.00">/CounterBench.cpp</text>
</a>
</g>
</g>
<!-- Node1&#45;&gt;Node4 -->
<g id="edge3" class="edge"><title>Node1&#45;&gt;Node4</title>
<path fill="none" stroke="midnightblue" d="M864.409,-80.2895C759.701,-75.1452 544.686,-61.7091 365,-32 362.268,-31.5484 359.479,-31.0419 356.669,-30.4956"/>
<polygon fill="midnightblue" stroke="midnightblue" points="864.34,-83.7902 874.497,-80.7762 864.678,-76.7983 864.34,-83.7902"/>
</g>
<!-- Node5 -->
<g id="node5" class="node"><title>Node5</title>
<g id="a_node5"><a xlink:href="DisjointBench_8cpp.html" target="_top" xlink:title="rstm/rstm&#45;dev/bench\l/DisjointBench.cpp">
<polygon fill="none" stroke="black" points="374.5,-1 374.5,-31 481.5,-31 481.5,-1 374.5,-1"/>
<text text-anchor="start" x="382.5" y="-19" font-family="Helvetica,sans-Serif" font-size="10.00">rstm/rstm&#45;dev/bench</text>
<text text-anchor="middle" x="428" y="-8" font-family="Helvetica,sans-Serif" font-size="10.00">/DisjointBench.cpp</text>
</a>
</g>
</g>
<!-- Node1&#45;&gt;Node5 -->
<g id="edge4" class="edge"><title>Node1&#45;&gt;Node5</title>
<path fill="none" stroke="midnightblue" d="M864.355,-78.0305C778.8,-70.7948 622.167,-55.5926 490,-32 487.274,-31.5135 484.49,-30.9789 481.684,-30.4104"/>
<polygon fill="midnightblue" stroke="midnightblue" points="864.173,-81.5274 874.43,-78.8735 864.756,-74.5518 864.173,-81.5274"/>
</g>
<!-- Node6 -->
<g id="node6" class="node"><title>Node6</title>
<g id="a_node6"><a xlink:href="DListBench_8cpp.html" target="_top" xlink:title="rstm/rstm&#45;dev/bench\l/DListBench.cpp">
<polygon fill="none" stroke="black" points="499.5,-1 499.5,-31 606.5,-31 606.5,-1 499.5,-1"/>
<text text-anchor="start" x="507.5" y="-19" font-family="Helvetica,sans-Serif" font-size="10.00">rstm/rstm&#45;dev/bench</text>
<text text-anchor="middle" x="553" y="-8" font-family="Helvetica,sans-Serif" font-size="10.00">/DListBench.cpp</text>
</a>
</g>
</g>
<!-- Node1&#45;&gt;Node6 -->
<g id="edge5" class="edge"><title>Node1&#45;&gt;Node6</title>
<path fill="none" stroke="midnightblue" d="M864.084,-74.0361C800.645,-64.7985 700.753,-49.3337 615,-32 612.286,-31.4515 609.511,-30.867 606.713,-30.2589"/>
<polygon fill="midnightblue" stroke="midnightblue" points="863.933,-77.5506 874.331,-75.5202 864.936,-70.6229 863.933,-77.5506"/>
</g>
<!-- Node7 -->
<g id="node7" class="node"><title>Node7</title>
<g id="a_node7"><a xlink:href="ForestBench_8cpp.html" target="_top" xlink:title="rstm/rstm&#45;dev/bench\l/ForestBench.cpp">
<polygon fill="none" stroke="black" points="624.5,-1 624.5,-31 731.5,-31 731.5,-1 624.5,-1"/>
<text text-anchor="start" x="632.5" y="-19" font-family="Helvetica,sans-Serif" font-size="10.00">rstm/rstm&#45;dev/bench</text>
<text text-anchor="middle" x="678" y="-8" font-family="Helvetica,sans-Serif" font-size="10.00">/ForestBench.cpp</text>
</a>
</g>
</g>
<!-- Node1&#45;&gt;Node7 -->
<g id="edge6" class="edge"><title>Node1&#45;&gt;Node7</title>
<path fill="none" stroke="midnightblue" d="M864.996,-66.367C823.728,-55.4721 770.387,-41.3902 731.243,-31.0561"/>
<polygon fill="midnightblue" stroke="midnightblue" points="864.113,-69.7537 874.675,-68.9223 865.9,-62.9856 864.113,-69.7537"/>
</g>
<!-- Node8 -->
<g id="node8" class="node"><title>Node8</title>
<g id="a_node8"><a xlink:href="HashBench_8cpp.html" target="_top" xlink:title="rstm/rstm&#45;dev/bench\l/HashBench.cpp">
<polygon fill="none" stroke="black" points="749.5,-1 749.5,-31 856.5,-31 856.5,-1 749.5,-1"/>
<text text-anchor="start" x="757.5" y="-19" font-family="Helvetica,sans-Serif" font-size="10.00">rstm/rstm&#45;dev/bench</text>
<text text-anchor="middle" x="803" y="-8" font-family="Helvetica,sans-Serif" font-size="10.00">/HashBench.cpp</text>
</a>
</g>
</g>
<!-- Node1&#45;&gt;Node8 -->
<g id="edge7" class="edge"><title>Node1&#45;&gt;Node8</title>
<path fill="none" stroke="midnightblue" d="M892.118,-64.0545C872.25,-53.5641 847.968,-40.7434 829.771,-31.1352"/>
<polygon fill="midnightblue" stroke="midnightblue" points="890.707,-67.2672 901.184,-68.8413 893.976,-61.0771 890.707,-67.2672"/>
</g>
<!-- Node9 -->
<g id="node9" class="node"><title>Node9</title>
<g id="a_node9"><a xlink:href="ListBench_8cpp.html" target="_top" xlink:title="rstm/rstm&#45;dev/bench\l/ListBench.cpp">
<polygon fill="none" stroke="black" points="874.5,-1 874.5,-31 981.5,-31 981.5,-1 874.5,-1"/>
<text text-anchor="start" x="882.5" y="-19" font-family="Helvetica,sans-Serif" font-size="10.00">rstm/rstm&#45;dev/bench</text>
<text text-anchor="middle" x="928" y="-8" font-family="Helvetica,sans-Serif" font-size="10.00">/ListBench.cpp</text>
</a>
</g>
</g>
<!-- Node1&#45;&gt;Node9 -->
<g id="edge8" class="edge"><title>Node1&#45;&gt;Node9</title>
<path fill="none" stroke="midnightblue" d="M928,-58.5322C928,-49.3606 928,-39.2449 928,-31.2931"/>
<polygon fill="midnightblue" stroke="midnightblue" points="924.5,-58.6789 928,-68.679 931.5,-58.679 924.5,-58.6789"/>
</g>
<!-- Node10 -->
<g id="node10" class="node"><title>Node10</title>
<g id="a_node10"><a xlink:href="MCASBench_8cpp.html" target="_top" xlink:title="rstm/rstm&#45;dev/bench\l/MCASBench.cpp">
<polygon fill="none" stroke="black" points="999.5,-1 999.5,-31 1106.5,-31 1106.5,-1 999.5,-1"/>
<text text-anchor="start" x="1007.5" y="-19" font-family="Helvetica,sans-Serif" font-size="10.00">rstm/rstm&#45;dev/bench</text>
<text text-anchor="middle" x="1053" y="-8" font-family="Helvetica,sans-Serif" font-size="10.00">/MCASBench.cpp</text>
</a>
</g>
</g>
<!-- Node1&#45;&gt;Node10 -->
<g id="edge9" class="edge"><title>Node1&#45;&gt;Node10</title>
<path fill="none" stroke="midnightblue" d="M963.882,-64.0545C983.75,-53.5641 1008.03,-40.7434 1026.23,-31.1352"/>
<polygon fill="midnightblue" stroke="midnightblue" points="962.024,-61.0771 954.816,-68.8413 965.293,-67.2672 962.024,-61.0771"/>
</g>
<!-- Node11 -->
<g id="node11" class="node"><title>Node11</title>
<g id="a_node11"><a xlink:href="ReadNWrite1Bench_8cpp.html" target="_top" xlink:title="rstm/rstm&#45;dev/bench\l/ReadNWrite1Bench.cpp">
<polygon fill="none" stroke="black" points="1124.5,-1 1124.5,-31 1249.5,-31 1249.5,-1 1124.5,-1"/>
<text text-anchor="start" x="1132.5" y="-19" font-family="Helvetica,sans-Serif" font-size="10.00">rstm/rstm&#45;dev/bench</text>
<text text-anchor="middle" x="1187" y="-8" font-family="Helvetica,sans-Serif" font-size="10.00">/ReadNWrite1Bench.cpp</text>
</a>
</g>
</g>
<!-- Node1&#45;&gt;Node11 -->
<g id="edge10" class="edge"><title>Node1&#45;&gt;Node11</title>
<path fill="none" stroke="midnightblue" d="M991.441,-66.8337C1034.36,-55.8966 1090.5,-41.5903 1131.62,-31.1131"/>
<polygon fill="midnightblue" stroke="midnightblue" points="990.491,-63.4637 981.665,-69.3248 992.22,-70.2469 990.491,-63.4637"/>
</g>
<!-- Node12 -->
<g id="node12" class="node"><title>Node12</title>
<g id="a_node12"><a xlink:href="ReadWriteNBench_8cpp.html" target="_top" xlink:title="rstm/rstm&#45;dev/bench\l/ReadWriteNBench.cpp">
<polygon fill="none" stroke="black" points="1268,-1 1268,-31 1388,-31 1388,-1 1268,-1"/>
<text text-anchor="start" x="1276" y="-19" font-family="Helvetica,sans-Serif" font-size="10.00">rstm/rstm&#45;dev/bench</text>
<text text-anchor="middle" x="1328" y="-8" font-family="Helvetica,sans-Serif" font-size="10.00">/ReadWriteNBench.cpp</text>
</a>
</g>
</g>
<!-- Node1&#45;&gt;Node12 -->
<g id="edge11" class="edge"><title>Node1&#45;&gt;Node12</title>
<path fill="none" stroke="midnightblue" d="M991.524,-74.2936C1058.11,-64.9082 1165.68,-49.0112 1258,-32 1261.18,-31.4144 1264.43,-30.7931 1267.72,-30.1493"/>
<polygon fill="midnightblue" stroke="midnightblue" points="991.018,-70.8303 981.601,-75.6868 991.991,-77.7623 991.018,-70.8303"/>
</g>
<!-- Node13 -->
<g id="node13" class="node"><title>Node13</title>
<g id="a_node13"><a xlink:href="TreeBench_8cpp.html" target="_top" xlink:title="rstm/rstm&#45;dev/bench\l/TreeBench.cpp">
<polygon fill="none" stroke="black" points="1406.5,-1 1406.5,-31 1513.5,-31 1513.5,-1 1406.5,-1"/>
<text text-anchor="start" x="1414.5" y="-19" font-family="Helvetica,sans-Serif" font-size="10.00">rstm/rstm&#45;dev/bench</text>
<text text-anchor="middle" x="1460" y="-8" font-family="Helvetica,sans-Serif" font-size="10.00">/TreeBench.cpp</text>
</a>
</g>
</g>
<!-- Node1&#45;&gt;Node13 -->
<g id="edge12" class="edge"><title>Node1&#45;&gt;Node13</title>
<path fill="none" stroke="midnightblue" d="M991.722,-78.5272C1082.1,-71.6238 1252.49,-56.5429 1396,-32 1399.37,-31.4229 1402.84,-30.775 1406.32,-30.0809"/>
<polygon fill="midnightblue" stroke="midnightblue" points="991.343,-75.0458 981.635,-79.2891 991.871,-82.0259 991.343,-75.0458"/>
</g>
<!-- Node14 -->
<g id="node14" class="node"><title>Node14</title>
<g id="a_node14"><a xlink:href="TreeOverwriteBench_8cpp.html" target="_top" xlink:title="rstm/rstm&#45;dev/bench\l/TreeOverwriteBench.cpp">
<polygon fill="none" stroke="black" points="1532,-1 1532,-31 1660,-31 1660,-1 1532,-1"/>
<text text-anchor="start" x="1540" y="-19" font-family="Helvetica,sans-Serif" font-size="10.00">rstm/rstm&#45;dev/bench</text>
<text text-anchor="middle" x="1596" y="-8" font-family="Helvetica,sans-Serif" font-size="10.00">/TreeOverwriteBench.cpp</text>
</a>
</g>
</g>
<!-- Node1&#45;&gt;Node14 -->
<g id="edge13" class="edge"><title>Node1&#45;&gt;Node14</title>
<path fill="none" stroke="midnightblue" d="M992.072,-79.9061C1101.26,-74.0965 1330.2,-59.5806 1522,-32 1525.24,-31.5335 1528.56,-31.0151 1531.9,-30.4594"/>
<polygon fill="midnightblue" stroke="midnightblue" points="991.687,-76.4214 981.885,-80.4413 992.054,-83.4117 991.687,-76.4214"/>
</g>
<!-- Node15 -->
<g id="node15" class="node"><title>Node15</title>
<g id="a_node15"><a xlink:href="TypeTest_8cpp.html" target="_top" xlink:title="rstm/rstm&#45;dev/bench\l/TypeTest.cpp">
<polygon fill="none" stroke="black" points="1678.5,-1 1678.5,-31 1785.5,-31 1785.5,-1 1678.5,-1"/>
<text text-anchor="start" x="1686.5" y="-19" font-family="Helvetica,sans-Serif" font-size="10.00">rstm/rstm&#45;dev/bench</text>
<text text-anchor="middle" x="1732" y="-8" font-family="Helvetica,sans-Serif" font-size="10.00">/TypeTest.cpp</text>
</a>
</g>
</g>
<!-- Node1&#45;&gt;Node15 -->
<g id="edge14" class="edge"><title>Node1&#45;&gt;Node15</title>
<path fill="none" stroke="midnightblue" d="M991.885,-82.1445C1120.69,-79.6414 1420.46,-69.8767 1669,-32 1672,-31.5427 1675.07,-31.0149 1678.16,-30.4368"/>
<polygon fill="midnightblue" stroke="midnightblue" points="991.734,-78.6466 981.801,-82.3323 991.864,-85.6454 991.734,-78.6466"/>
</g>
<!-- Node16 -->
<g id="node16" class="node"><title>Node16</title>
<g id="a_node16"><a xlink:href="WWPathologyBench_8cpp.html" target="_top" xlink:title="rstm/rstm&#45;dev/bench\l/WWPathologyBench.cpp">
<polygon fill="none" stroke="black" points="1803.5,-1 1803.5,-31 1932.5,-31 1932.5,-1 1803.5,-1"/>
<text text-anchor="start" x="1811.5" y="-19" font-family="Helvetica,sans-Serif" font-size="10.00">rstm/rstm&#45;dev/bench</text>
<text text-anchor="middle" x="1868" y="-8" font-family="Helvetica,sans-Serif" font-size="10.00">/WWPathologyBench.cpp</text>
</a>
</g>
</g>
<!-- Node1&#45;&gt;Node16 -->
<g id="edge15" class="edge"><title>Node1&#45;&gt;Node16</title>
<path fill="none" stroke="midnightblue" d="M992.373,-82.3102C1136.53,-80.0882 1496.04,-70.7753 1794,-32 1796.99,-31.6109 1800.04,-31.1707 1803.11,-30.6916"/>
<polygon fill="midnightblue" stroke="midnightblue" points="991.907,-78.8166 981.96,-82.464 992.01,-85.8158 991.907,-78.8166"/>
</g>
</g>
</svg>
        <g id="navigator" transform="translate(0 0)" fill="#404254">
                <rect fill="#f2f5e9" fill-opacity="0.5" stroke="#606060" stroke-width=".5" x="0" y="0" width="60" height="60"/>
                <use id="zoomplus" xlink:href="#zoomPlus" x="17" y="9" onmousedown="handleZoom(evt,'in')"/>
                <use id="zoomminus" xlink:href="#zoomMin" x="42" y="9" onmousedown="handleZoom(evt,'out')"/>
                <use id="reset" xlink:href="#resetDef" x="30" y="36" onmousedown="handleReset()"/>
                <g id="arrowUp" xlink:href="#dirArrow" transform="translate(30 24)" onmousedown="handlePan(0,-1)">
                  <use xlink:href="#rim" fill="#404040">
                        <set attributeName="fill" to="#808080" begin="arrowUp.mouseover" end="arrowUp.mouseout"/>
                  </use>
                  <path fill="none" stroke="white" stroke-width="1.5" d="M0,-3.0v7 M-2.5,-0.5L0,-3.0L2.5,-0.5"/>
                </g>
                <g id="arrowRight" xlink:href="#dirArrow" transform="rotate(90) translate(36 -43)" onmousedown="handlePan(1,0)">
                  <use xlink:href="#rim" fill="#404040">
                        <set attributeName="fill" to="#808080" begin="arrowRight.mouseover" end="arrowRight.mouseout"/>
                  </use>
                  <path fill="none" stroke="white" stroke-width="1.5" d="M0,-3.0v7 M-2.5,-0.5L0,-3.0L2.5,-0.5"/>
                </g>
                <g id="arrowDown" xlink:href="#dirArrow" transform="rotate(180) translate(-30 -48)" onmousedown="handlePan(0,1)">
                  <use xlink:href="#rim" fill="#404040">
                        <set attributeName="fill" to="#808080" begin="arrowDown.mouseover" end="arrowDown.mouseout"/>
                  </use>
                  <path fill="none" stroke="white" stroke-width="1.5" d="M0,-3.0v7 M-2.5,-0.5L0,-3.0L2.5,-0.5"/>
                </g>
                <g id="arrowLeft" xlink:href="#dirArrow" transform="rotate(270) translate(-36 17)" onmousedown="handlePan(-1,0)">
                  <use xlink:href="#rim" fill="#404040">
                        <set attributeName="fill" to="#808080" begin="arrowLeft.mouseover" end="arrowLeft.mouseout"/>
                  </use>
                  <path fill="none" stroke="white" stroke-width="1.5" d="M0,-3.0v7 M-2.5,-0.5L0,-3.0L2.5,-0.5"/>
                </g>
        </g>
        <svg viewBox="0 0 15 15" width="100%" height="30px" preserveAspectRatio="xMaxYMin meet">
         <g id="arrow_out" transform="scale(0.3 0.3)">
          <a xlink:href="bmconfig_8hpp__dep__incl_org.svg" target="_base">
           <rect id="button" ry="5" rx="5" y="6" x="6" height="38" width="38"
                fill="#f2f5e9" fill-opacity="0.5" stroke="#606060" stroke-width="1.0"/>
           <path id="arrow"
             d="M 11.500037,31.436501 C 11.940474,20.09759 22.043105,11.32322 32.158766,21.979434 L 37.068811,17.246167 C 37.068811,17.246167 37.088388,32 37.088388,32 L 22.160133,31.978069 C 22.160133,31.978069 26.997745,27.140456 26.997745,27.140456 C 18.528582,18.264221 13.291696,25.230495 11.500037,31.436501 z"
             style="fill:#404040;"/>
          </a>
         </g>
        </svg>
</svg>
