<?xml version="1.0" encoding="UTF-8" standalone="no"?>
<!DOCTYPE svg PUBLIC "-//W3C//DTD SVG 1.1//EN"
 "http://www.w3.org/Graphics/SVG/1.1/DTD/svg11.dtd">
<!-- Generated by graphviz version 2.36.0 (20140111.2315)
 -->
<!-- Title: run Pages: 1 -->
<!--zoomable 788 -->
<svg id="main" version="1.1" xmlns="http://www.w3.org/2000/svg" xmlns:xlink="http://www.w3.org/1999/xlink" xml:space="preserve" onload="init(evt)">
<style type="text/css"><![CDATA[
.edge:hover path { stroke: red; }
.edge:hover polygon { stroke: red; fill: red; }
]]></style>
<script type="text/javascript"><![CDATA[
var edges = document.getElementsByTagName('g');
if (edges && edges.length) {
  for (var i=0;i<edges.length;i++) {
    if (edges[i].id.substr(0,4)=='edge') {
      edges[i].setAttribute('class','edge');
    }
  }
}
]]></script>
        <defs>
                <circle id="rim" cx="0" cy="0" r="7"/>
                <circle id="rim2" cx="0" cy="0" r="3.5"/>
                <g id="zoomPlus">
                        <use xlink:href="#rim" fill="#404040">
                                <set attributeName="fill" to="#808080" begin="zoomplus.mouseover" end="zoomplus.mouseout"/>
                        </use>
                        <path d="M-4,0h8M0,-4v8" fill="none" stroke="white" stroke-width="1.5" pointer-events="none"/>
                </g>
                <g id="zoomMin">
                        <use xlink:href="#rim" fill="#404040">
                                <set attributeName="fill" to="#808080" begin="zoomminus.mouseover" end="zoomminus.mouseout"/>
                        </use>
                        <path d="M-4,0h8" fill="none" stroke="white" stroke-width="1.5" pointer-events="none"/>
                </g>
                <g id="dirArrow">
                        <path fill="none" stroke="white" stroke-width="1.5" d="M0,-3.0v7 M-2.5,-0.5L0,-3.0L2.5,-0.5"/>
                </g>
               <g id="resetDef">
                       <use xlink:href="#rim2" fill="#404040">
                               <set attributeName="fill" to="#808080" begin="reset.mouseover" end="reset.mouseout"/>
                       </use>
               </g>
        </defs>

<script type="text/javascript">
var viewWidth = 460;
var viewHeight = 788;
var sectionId = 'dynsection-9';
</script>
<script xlink:href="svgpan.js"/>
<svg id="graph" class="graph">
<g id="viewport">
<title>run</title>
<!-- Node1 -->
<g id="node1" class="node"><title>Node1</title>
<polygon fill="#bfbfbf" stroke="black" points="0,-399.5 0,-418.5 30,-418.5 30,-399.5 0,-399.5"/>
<text text-anchor="middle" x="15" y="-406.5" font-family="Helvetica,sans-Serif" font-size="10.00">run</text>
</g>
<!-- Node2 -->
<g id="node2" class="node"><title>Node2</title>
<g id="a_node2"><a xlink:href="bmharness_8hpp.html#a02b05a605f4bd514db3ba9879a5d3cd6" target="_top" xlink:title="barrier">
<polygon fill="none" stroke="black" points="90,-456.5 90,-475.5 134,-475.5 134,-456.5 90,-456.5"/>
<text text-anchor="middle" x="112" y="-463.5" font-family="Helvetica,sans-Serif" font-size="10.00">barrier</text>
</a>
</g>
</g>
<!-- Node1&#45;&gt;Node2 -->
<g id="edge1" class="edge"><title>Node1&#45;&gt;Node2</title>
<path fill="none" stroke="midnightblue" d="M26.9496,-418.608C36.7192,-426.858 51.6568,-438.698 66,-447 70.562,-449.641 75.5615,-452.119 80.5171,-454.358"/>
<polygon fill="midnightblue" stroke="midnightblue" points="79.295,-457.642 89.8662,-458.349 82.0435,-451.204 79.295,-457.642"/>
</g>
<!-- Node3 -->
<g id="node3" class="node"><title>Node3</title>
<g id="a_node3"><a xlink:href="bmharness_8hpp.html#ae6106f619996ed036c23b6bccc798f33" target="_top" xlink:title="catch_SIGALRM">
<polygon fill="none" stroke="black" points="66.5,-418.5 66.5,-437.5 157.5,-437.5 157.5,-418.5 66.5,-418.5"/>
<text text-anchor="middle" x="112" y="-425.5" font-family="Helvetica,sans-Serif" font-size="10.00">catch_SIGALRM</text>
</a>
</g>
</g>
<!-- Node1&#45;&gt;Node3 -->
<g id="edge2" class="edge"><title>Node1&#45;&gt;Node3</title>
<path fill="none" stroke="midnightblue" d="M30.0176,-411.804C37.295,-413.259 46.7059,-415.141 56.5232,-417.105"/>
<polygon fill="midnightblue" stroke="midnightblue" points="55.9198,-420.553 66.412,-419.082 57.2927,-413.689 55.9198,-420.553"/>
</g>
<!-- Node4 -->
<g id="node4" class="node"><title>Node4</title>
<g id="a_node4"><a xlink:href="bmconfig_8hpp.html#aedada04ef88f522227f8f6fca993e08c" target="_top" xlink:title="bench_test">
<polygon fill="none" stroke="black" points="79.5,-380.5 79.5,-399.5 144.5,-399.5 144.5,-380.5 79.5,-380.5"/>
<text text-anchor="middle" x="112" y="-387.5" font-family="Helvetica,sans-Serif" font-size="10.00">bench_test</text>
</a>
</g>
</g>
<!-- Node1&#45;&gt;Node4 -->
<g id="edge3" class="edge"><title>Node1&#45;&gt;Node4</title>
<path fill="none" stroke="midnightblue" d="M30.0176,-406.196C40.4007,-404.12 55.1266,-401.175 69.1797,-398.364"/>
<polygon fill="midnightblue" stroke="midnightblue" points="70.1025,-401.749 79.2219,-396.356 68.7297,-394.885 70.1025,-401.749"/>
</g>
<!-- Node25 -->
<g id="node25" class="node"><title>Node25</title>
<g id="a_node25"><a xlink:href="bmharness_8hpp.html#a38d101d612bbe49f2c6a7d0ef71fd77a" target="_top" xlink:title="nontxnwork">
<polygon fill="none" stroke="black" points="78.5,-171.5 78.5,-190.5 145.5,-190.5 145.5,-171.5 78.5,-171.5"/>
<text text-anchor="middle" x="112" y="-178.5" font-family="Helvetica,sans-Serif" font-size="10.00">nontxnwork</text>
</a>
</g>
</g>
<!-- Node1&#45;&gt;Node25 -->
<g id="edge29" class="edge"><title>Node1&#45;&gt;Node25</title>
<path fill="none" stroke="midnightblue" d="M19.9611,-399.493C34.2956,-365.091 83.6413,-246.661 103.06,-200.057"/>
<polygon fill="midnightblue" stroke="midnightblue" points="106.407,-201.124 107.022,-190.547 99.945,-198.432 106.407,-201.124"/>
</g>
<!-- Node5 -->
<g id="node5" class="node"><title>Node5</title>
<g id="a_node5"><a xlink:href="rand__r__32_8h.html#afaaf1d013ccb194d66735f6e59dcc930" target="_top" xlink:title="rand_r_32">
<polygon fill="none" stroke="black" points="232.5,-722.5 232.5,-741.5 291.5,-741.5 291.5,-722.5 232.5,-722.5"/>
<text text-anchor="middle" x="262" y="-729.5" font-family="Helvetica,sans-Serif" font-size="10.00">rand_r_32</text>
</a>
</g>
</g>
<!-- Node4&#45;&gt;Node5 -->
<g id="edge4" class="edge"><title>Node4&#45;&gt;Node5</title>
<path fill="none" stroke="midnightblue" d="M144.556,-398.233C149.736,-400.889 154.535,-404.39 158,-409 239.75,-517.756 105.71,-609.482 194,-713 201.135,-721.365 211.655,-726.185 222.255,-728.923"/>
<polygon fill="midnightblue" stroke="midnightblue" points="221.84,-732.409 232.335,-730.957 223.225,-725.548 221.84,-732.409"/>
</g>
<!-- Node6 -->
<g id="node6" class="node"><title>Node6</title>
<g id="a_node6"><a xlink:href="avltree_8c.html#aef0786e63ba14dfdb6d8632333208422" target="_top" xlink:title="start">
<polygon fill="none" stroke="black" points="244,-684.5 244,-703.5 280,-703.5 280,-684.5 244,-684.5"/>
<text text-anchor="middle" x="262" y="-691.5" font-family="Helvetica,sans-Serif" font-size="10.00">start</text>
</a>
</g>
</g>
<!-- Node4&#45;&gt;Node6 -->
<g id="edge5" class="edge"><title>Node4&#45;&gt;Node6</title>
<path fill="none" stroke="midnightblue" d="M144.95,-398.516C149.962,-401.138 154.6,-404.554 158,-409 230.474,-503.763 115.83,-584.878 194,-675 203.848,-686.354 219.931,-691.161 233.871,-693.103"/>
<polygon fill="midnightblue" stroke="midnightblue" points="233.681,-696.601 243.974,-694.09 234.362,-689.634 233.681,-696.601"/>
</g>
<!-- Node7 -->
<g id="node7" class="node"><title>Node7</title>
<g id="a_node7"><a xlink:href="structDisjoint.html#ac740b0c2eb2b55099ce7614a0d69f4ff" target="_top" xlink:title="Disjoint::ro_transaction">
<polygon fill="none" stroke="black" points="203.5,-646.5 203.5,-665.5 320.5,-665.5 320.5,-646.5 203.5,-646.5"/>
<text text-anchor="middle" x="262" y="-653.5" font-family="Helvetica,sans-Serif" font-size="10.00">Disjoint::ro_transaction</text>
</a>
</g>
</g>
<!-- Node4&#45;&gt;Node7 -->
<g id="edge6" class="edge"><title>Node4&#45;&gt;Node7</title>
<path fill="none" stroke="midnightblue" d="M144.87,-398.578C149.889,-401.194 154.551,-404.592 158,-409 221.218,-489.796 125.929,-560.249 194,-637 195.053,-638.187 196.174,-639.303 197.354,-640.351"/>
<polygon fill="midnightblue" stroke="midnightblue" points="195.685,-643.455 205.882,-646.331 199.704,-637.724 195.685,-643.455"/>
</g>
<!-- Node8 -->
<g id="node8" class="node"><title>Node8</title>
<g id="a_node8"><a xlink:href="structDisjoint.html#ae4cb8cb741e2927d1d51bcfcbc9ee269" target="_top" xlink:title="Disjoint::r_rw_transaction">
<polygon fill="none" stroke="black" points="198,-608.5 198,-627.5 326,-627.5 326,-608.5 198,-608.5"/>
<text text-anchor="middle" x="262" y="-615.5" font-family="Helvetica,sans-Serif" font-size="10.00">Disjoint::r_rw_transaction</text>
</a>
</g>
</g>
<!-- Node4&#45;&gt;Node8 -->
<g id="edge7" class="edge"><title>Node4&#45;&gt;Node8</title>
<path fill="none" stroke="midnightblue" d="M144.759,-398.666C149.79,-401.273 154.484,-404.645 158,-409 211.994,-475.87 135.992,-535.581 194,-599 195.206,-600.319 196.496,-601.548 197.857,-602.695"/>
<polygon fill="midnightblue" stroke="midnightblue" points="196.073,-605.714 206.323,-608.395 199.983,-599.907 196.073,-605.714"/>
</g>
<!-- Node9 -->
<g id="node9" class="node"><title>Node9</title>
<g id="a_node9"><a xlink:href="classDList.html#a1bbdbfa44979c867da332f3a97c9942d" target="_top" xlink:title="DList::lookup">
<polygon fill="none" stroke="black" points="225,-570.5 225,-589.5 299,-589.5 299,-570.5 225,-570.5"/>
<text text-anchor="middle" x="262" y="-577.5" font-family="Helvetica,sans-Serif" font-size="10.00">DList::lookup</text>
</a>
</g>
</g>
<!-- Node4&#45;&gt;Node9 -->
<g id="edge8" class="edge"><title>Node4&#45;&gt;Node9</title>
<path fill="none" stroke="midnightblue" d="M144.597,-398.8C149.645,-401.393 154.386,-404.726 158,-409 202.826,-462.013 145.996,-510.847 194,-561 199.765,-567.023 207.286,-571.18 215.199,-574.039"/>
<polygon fill="midnightblue" stroke="midnightblue" points="214.371,-577.444 224.953,-576.921 216.354,-570.731 214.371,-577.444"/>
</g>
<!-- Node10 -->
<g id="node10" class="node"><title>Node10</title>
<g id="a_node10"><a xlink:href="classDList.html#aee38e39d36c976cbde2c74a2a845f1dd" target="_top" xlink:title="DList::insert">
<polygon fill="none" stroke="black" points="227,-532.5 227,-551.5 297,-551.5 297,-532.5 227,-532.5"/>
<text text-anchor="middle" x="262" y="-539.5" font-family="Helvetica,sans-Serif" font-size="10.00">DList::insert</text>
</a>
</g>
</g>
<!-- Node4&#45;&gt;Node10 -->
<g id="edge9" class="edge"><title>Node4&#45;&gt;Node10</title>
<path fill="none" stroke="midnightblue" d="M144.803,-399.259C149.707,-401.793 154.346,-404.987 158,-409 193.771,-448.288 155.878,-485.989 194,-523 200.297,-529.114 208.411,-533.288 216.804,-536.131"/>
<polygon fill="midnightblue" stroke="midnightblue" points="216.12,-539.574 226.693,-538.894 218.004,-532.832 216.12,-539.574"/>
</g>
<!-- Node11 -->
<g id="node11" class="node"><title>Node11</title>
<g id="a_node11"><a xlink:href="classDList.html#ac998269d8b5bd4ac9ee393e3a3f20ec3" target="_top" xlink:title="DList::remove">
<polygon fill="none" stroke="black" points="223,-494.5 223,-513.5 301,-513.5 301,-494.5 223,-494.5"/>
<text text-anchor="middle" x="262" y="-501.5" font-family="Helvetica,sans-Serif" font-size="10.00">DList::remove</text>
</a>
</g>
</g>
<!-- Node4&#45;&gt;Node11 -->
<g id="edge10" class="edge"><title>Node4&#45;&gt;Node11</title>
<path fill="none" stroke="midnightblue" d="M143.805,-399.554C148.933,-402.071 153.907,-405.183 158,-409 183.875,-433.13 167.465,-456.598 194,-480 199.606,-484.944 206.305,-488.892 213.266,-492.038"/>
<polygon fill="midnightblue" stroke="midnightblue" points="212.258,-495.404 222.844,-495.85 214.847,-488.9 212.258,-495.404"/>
</g>
<!-- Node12 -->
<g id="node12" class="node"><title>Node12</title>
<g id="a_node12"><a xlink:href="classRBTree.html#ac08a215acdc2f4ccecebaafbbe1dce41" target="_top" xlink:title="RBTree::lookup">
<polygon fill="none" stroke="black" points="366.5,-437.5 366.5,-456.5 451.5,-456.5 451.5,-437.5 366.5,-437.5"/>
<text text-anchor="middle" x="409" y="-444.5" font-family="Helvetica,sans-Serif" font-size="10.00">RBTree::lookup</text>
</a>
</g>
</g>
<!-- Node4&#45;&gt;Node12 -->
<g id="edge11" class="edge"><title>Node4&#45;&gt;Node12</title>
<path fill="none" stroke="midnightblue" d="M140.6,-399.526C146.584,-402.163 152.702,-405.329 158,-409 177.122,-422.25 172.629,-437.808 194,-447 245.769,-469.268 311.321,-465.147 356.147,-458.092"/>
<polygon fill="midnightblue" stroke="midnightblue" points="356.945,-461.507 366.228,-456.401 355.787,-454.604 356.945,-461.507"/>
</g>
<!-- Node13 -->
<g id="node13" class="node"><title>Node13</title>
<g id="a_node13"><a xlink:href="classRBTree.html#abbb72e04b9cc677051094c3839ca09ab" target="_top" xlink:title="RBTree::insert">
<polygon fill="none" stroke="black" points="369,-370.5 369,-389.5 449,-389.5 449,-370.5 369,-370.5"/>
<text text-anchor="middle" x="409" y="-377.5" font-family="Helvetica,sans-Serif" font-size="10.00">RBTree::insert</text>
</a>
</g>
</g>
<!-- Node4&#45;&gt;Node13 -->
<g id="edge12" class="edge"><title>Node4&#45;&gt;Node13</title>
<path fill="none" stroke="midnightblue" d="M144.632,-380.795C159.478,-376.937 177.499,-372.909 194,-371 250.255,-364.491 315.312,-368.911 358.79,-373.561"/>
<polygon fill="midnightblue" stroke="midnightblue" points="358.489,-377.049 368.815,-374.678 359.264,-370.092 358.489,-377.049"/>
</g>
<!-- Node14 -->
<g id="node14" class="node"><title>Node14</title>
<g id="a_node14"><a xlink:href="classRBTree.html#a98d0db9e5d36729c5b35b2a40e959856" target="_top" xlink:title="RBTree::remove">
<polygon fill="none" stroke="black" points="217.5,-380.5 217.5,-399.5 306.5,-399.5 306.5,-380.5 217.5,-380.5"/>
<text text-anchor="middle" x="262" y="-387.5" font-family="Helvetica,sans-Serif" font-size="10.00">RBTree::remove</text>
</a>
</g>
</g>
<!-- Node4&#45;&gt;Node14 -->
<g id="edge13" class="edge"><title>Node4&#45;&gt;Node14</title>
<path fill="none" stroke="midnightblue" d="M144.75,-390C162.925,-390 186.213,-390 207.167,-390"/>
<polygon fill="midnightblue" stroke="midnightblue" points="207.233,-393.5 217.233,-390 207.232,-386.5 207.233,-393.5"/>
</g>
<!-- Node15 -->
<g id="node15" class="node"><title>Node15</title>
<g id="a_node15"><a xlink:href="classHashTable.html#afc24322b6018e44c24b55d4fe60917dc" target="_top" xlink:title="HashTable::lookup">
<polygon fill="none" stroke="black" points="213,-266.5 213,-285.5 311,-285.5 311,-266.5 213,-266.5"/>
<text text-anchor="middle" x="262" y="-273.5" font-family="Helvetica,sans-Serif" font-size="10.00">HashTable::lookup</text>
</a>
</g>
</g>
<!-- Node4&#45;&gt;Node15 -->
<g id="edge14" class="edge"><title>Node4&#45;&gt;Node15</title>
<path fill="none" stroke="midnightblue" d="M119.181,-380.438C131.38,-362.28 160.31,-322.605 194,-300 200.207,-295.835 207.223,-292.298 214.318,-289.325"/>
<polygon fill="midnightblue" stroke="midnightblue" points="215.894,-292.469 223.973,-285.615 213.383,-285.935 215.894,-292.469"/>
</g>
<!-- Node16 -->
<g id="node16" class="node"><title>Node16</title>
<g id="a_node16"><a xlink:href="classList.html#a90ad13d3e3bb04ca8ade206e2169808d" target="_top" xlink:title="List::lookup">
<polygon fill="none" stroke="black" points="375.5,-285.5 375.5,-304.5 442.5,-304.5 442.5,-285.5 375.5,-285.5"/>
<text text-anchor="middle" x="409" y="-292.5" font-family="Helvetica,sans-Serif" font-size="10.00">List::lookup</text>
</a>
</g>
</g>
<!-- Node4&#45;&gt;Node16 -->
<g id="edge20" class="edge"><title>Node4&#45;&gt;Node16</title>
<path fill="none" stroke="midnightblue" d="M141.457,-380.405C156.972,-375.202 176.522,-368.69 194,-363 254.526,-343.297 324.901,-321.065 367.938,-307.545"/>
<polygon fill="midnightblue" stroke="midnightblue" points="368.987,-310.884 377.48,-304.549 366.891,-304.205 368.987,-310.884"/>
</g>
<!-- Node17 -->
<g id="node17" class="node"><title>Node17</title>
<g id="a_node17"><a xlink:href="classHashTable.html#a438d8bd36dbc6e946c92ff31655fa4e0" target="_top" xlink:title="HashTable::insert">
<polygon fill="none" stroke="black" points="215,-190.5 215,-209.5 309,-209.5 309,-190.5 215,-190.5"/>
<text text-anchor="middle" x="262" y="-197.5" font-family="Helvetica,sans-Serif" font-size="10.00">HashTable::insert</text>
</a>
</g>
</g>
<!-- Node4&#45;&gt;Node17 -->
<g id="edge16" class="edge"><title>Node4&#45;&gt;Node17</title>
<path fill="none" stroke="midnightblue" d="M115.047,-380.199C121.467,-351.85 143.837,-268.928 194,-224 198.481,-219.987 203.681,-216.632 209.165,-213.83"/>
<polygon fill="midnightblue" stroke="midnightblue" points="210.883,-216.895 218.584,-209.618 208.026,-210.505 210.883,-216.895"/>
</g>
<!-- Node18 -->
<g id="node18" class="node"><title>Node18</title>
<g id="a_node18"><a xlink:href="classList.html#a40fadae377879ab1219603a6138d5a54" target="_top" xlink:title="List::insert">
<polygon fill="none" stroke="black" points="378,-199.5 378,-218.5 440,-218.5 440,-199.5 378,-199.5"/>
<text text-anchor="middle" x="409" y="-206.5" font-family="Helvetica,sans-Serif" font-size="10.00">List::insert</text>
</a>
</g>
</g>
<!-- Node4&#45;&gt;Node18 -->
<g id="edge21" class="edge"><title>Node4&#45;&gt;Node18</title>
<path fill="none" stroke="midnightblue" d="M115.884,-380.476C123.873,-355.8 148.744,-289.46 194,-257 221.468,-237.298 313.779,-221.836 367.772,-214.209"/>
<polygon fill="midnightblue" stroke="midnightblue" points="368.281,-217.672 377.706,-212.833 367.32,-210.738 368.281,-217.672"/>
</g>
<!-- Node19 -->
<g id="node19" class="node"><title>Node19</title>
<g id="a_node19"><a xlink:href="classHashTable.html#a15759896e8e9960cd44fa70673bec921" target="_top" xlink:title="HashTable::remove">
<polygon fill="none" stroke="black" points="211,-114.5 211,-133.5 313,-133.5 313,-114.5 211,-114.5"/>
<text text-anchor="middle" x="262" y="-121.5" font-family="Helvetica,sans-Serif" font-size="10.00">HashTable::remove</text>
</a>
</g>
</g>
<!-- Node4&#45;&gt;Node19 -->
<g id="edge18" class="edge"><title>Node4&#45;&gt;Node19</title>
<path fill="none" stroke="midnightblue" d="M115.027,-380.462C123.787,-340.025 159.515,-183.216 194,-148 197.89,-144.027 202.483,-140.71 207.411,-137.94"/>
<polygon fill="midnightblue" stroke="midnightblue" points="209.08,-141.021 216.565,-133.522 206.037,-134.717 209.08,-141.021"/>
</g>
<!-- Node20 -->
<g id="node20" class="node"><title>Node20</title>
<g id="a_node20"><a xlink:href="classList.html#a32e2c5d870d4cfb2fb38d3a446173148" target="_top" xlink:title="List::remove">
<polygon fill="none" stroke="black" points="373.5,-142.5 373.5,-161.5 444.5,-161.5 444.5,-142.5 373.5,-142.5"/>
<text text-anchor="middle" x="409" y="-149.5" font-family="Helvetica,sans-Serif" font-size="10.00">List::remove</text>
</a>
</g>
</g>
<!-- Node4&#45;&gt;Node20 -->
<g id="edge22" class="edge"><title>Node4&#45;&gt;Node20</title>
<path fill="none" stroke="midnightblue" d="M113.481,-380.1C115.712,-346.058 128.005,-233.057 194,-181 242.029,-143.115 315.764,-141.741 362.929,-145.728"/>
<polygon fill="midnightblue" stroke="midnightblue" points="362.862,-149.237 373.151,-146.711 363.532,-142.27 362.862,-149.237"/>
</g>
<!-- Node21 -->
<g id="node21" class="node"><title>Node21</title>
<g id="a_node21"><a xlink:href="classRBTree.html#afbd6f00d7eab72aaaf6d2a0a6074ba36" target="_top" xlink:title="RBTree::modify">
<polygon fill="none" stroke="black" points="219,-418.5 219,-437.5 305,-437.5 305,-418.5 219,-418.5"/>
<text text-anchor="middle" x="262" y="-425.5" font-family="Helvetica,sans-Serif" font-size="10.00">RBTree::modify</text>
</a>
</g>
</g>
<!-- Node4&#45;&gt;Node21 -->
<g id="edge23" class="edge"><title>Node4&#45;&gt;Node21</title>
<path fill="none" stroke="midnightblue" d="M144.75,-398.152C164.948,-403.338 191.462,-410.146 214.068,-415.95"/>
<polygon fill="midnightblue" stroke="midnightblue" points="213.258,-419.355 223.814,-418.452 214.998,-412.575 213.258,-419.355"/>
</g>
<!-- Node22 -->
<g id="node22" class="node"><title>Node22</title>
<g id="a_node22"><a xlink:href="TypeTest_8cpp.html#a532b74f3b8f3bf9ab294e47303c574c2" target="_top" xlink:title="DataTypeTest">
<polygon fill="none" stroke="black" points="222.5,-76.5 222.5,-95.5 301.5,-95.5 301.5,-76.5 222.5,-76.5"/>
<text text-anchor="middle" x="262" y="-83.5" font-family="Helvetica,sans-Serif" font-size="10.00">DataTypeTest</text>
</a>
</g>
</g>
<!-- Node4&#45;&gt;Node22 -->
<g id="edge26" class="edge"><title>Node4&#45;&gt;Node22</title>
<path fill="none" stroke="midnightblue" d="M115.158,-380.339C125.844,-332.846 173.398,-125.59 194,-105 199.233,-99.7704 205.792,-95.9552 212.744,-93.1772"/>
<polygon fill="midnightblue" stroke="midnightblue" points="213.981,-96.4545 222.38,-89.9963 211.787,-89.8073 213.981,-96.4545"/>
</g>
<!-- Node23 -->
<g id="node23" class="node"><title>Node23</title>
<g id="a_node23"><a xlink:href="classDList.html#a4f2f83d67c2fab2f23ecf5e31f376494" target="_top" xlink:title="DList::increment_forward">
<polygon fill="none" stroke="black" points="199,-38.5 199,-57.5 325,-57.5 325,-38.5 199,-38.5"/>
<text text-anchor="middle" x="262" y="-45.5" font-family="Helvetica,sans-Serif" font-size="10.00">DList::increment_forward</text>
</a>
</g>
</g>
<!-- Node4&#45;&gt;Node23 -->
<g id="edge27" class="edge"><title>Node4&#45;&gt;Node23</title>
<path fill="none" stroke="midnightblue" d="M115.321,-380.177C127.97,-326.713 188.239,-72.9398 194,-67 195.273,-65.6873 196.63,-64.4633 198.055,-63.3223"/>
<polygon fill="midnightblue" stroke="midnightblue" points="200.357,-66.0034 206.877,-57.6523 196.573,-60.1148 200.357,-66.0034"/>
</g>
<!-- Node24 -->
<g id="node24" class="node"><title>Node24</title>
<g id="a_node24"><a xlink:href="classDList.html#a7268e5953aacd61a7ac839f7886cb1a5" target="_top" xlink:title="DList::increment_backward">
<polygon fill="none" stroke="black" points="194,-760.5 194,-779.5 330,-779.5 330,-760.5 194,-760.5"/>
<text text-anchor="middle" x="262" y="-767.5" font-family="Helvetica,sans-Serif" font-size="10.00">DList::increment_backward</text>
</a>
</g>
</g>
<!-- Node4&#45;&gt;Node24 -->
<g id="edge28" class="edge"><title>Node4&#45;&gt;Node24</title>
<path fill="none" stroke="midnightblue" d="M144.604,-398.196C149.78,-400.856 154.565,-404.368 158,-409 249.04,-531.767 95.5761,-634.069 194,-751 194.998,-752.185 196.063,-753.299 197.187,-754.346"/>
<polygon fill="midnightblue" stroke="midnightblue" points="195.224,-757.247 205.36,-760.331 199.36,-751.599 195.224,-757.247"/>
</g>
<!-- Node15&#45;&gt;Node16 -->
<g id="edge15" class="edge"><title>Node15&#45;&gt;Node16</title>
<path fill="none" stroke="midnightblue" d="M311.283,-282.327C328.748,-284.615 348.332,-287.181 365.286,-289.403"/>
<polygon fill="midnightblue" stroke="midnightblue" points="365.089,-292.907 375.459,-290.736 365.999,-285.966 365.089,-292.907"/>
</g>
<!-- Node17&#45;&gt;Node18 -->
<g id="edge17" class="edge"><title>Node17&#45;&gt;Node18</title>
<path fill="none" stroke="midnightblue" d="M309.278,-202.872C327.984,-204.033 349.383,-205.362 367.464,-206.484"/>
<polygon fill="midnightblue" stroke="midnightblue" points="367.484,-209.992 377.682,-207.118 367.918,-203.005 367.484,-209.992"/>
</g>
<!-- Node19&#45;&gt;Node20 -->
<g id="edge19" class="edge"><title>Node19&#45;&gt;Node20</title>
<path fill="none" stroke="midnightblue" d="M312.495,-133.558C328.916,-136.729 347.094,-140.239 363.146,-143.338"/>
<polygon fill="midnightblue" stroke="midnightblue" points="362.864,-146.849 373.347,-145.308 364.192,-139.976 362.864,-146.849"/>
</g>
<!-- Node21&#45;&gt;Node12 -->
<g id="edge24" class="edge"><title>Node21&#45;&gt;Node12</title>
<path fill="none" stroke="midnightblue" d="M305.33,-433.547C321.251,-435.633 339.536,-438.029 356.221,-440.215"/>
<polygon fill="midnightblue" stroke="midnightblue" points="355.998,-443.716 366.368,-441.545 356.908,-436.775 355.998,-443.716"/>
</g>
<!-- Node21&#45;&gt;Node13 -->
<g id="edge25" class="edge"><title>Node21&#45;&gt;Node13</title>
<path fill="none" stroke="midnightblue" d="M298.627,-418.466C308.81,-415.587 319.888,-412.308 330,-409 344.696,-404.193 360.736,-398.337 374.429,-393.149"/>
<polygon fill="midnightblue" stroke="midnightblue" points="375.842,-396.355 383.932,-389.514 373.341,-389.817 375.842,-396.355"/>
</g>
<!-- Node26 -->
<g id="node26" class="node"><title>Node26</title>
<g id="a_node26"><a xlink:href="locks_8hpp.html#a67493dc021b0db009a9603ea55d18c59" target="_top" xlink:title="spin64">
<polygon fill="none" stroke="black" points="239.5,-0.5 239.5,-19.5 284.5,-19.5 284.5,-0.5 239.5,-0.5"/>
<text text-anchor="middle" x="262" y="-7.5" font-family="Helvetica,sans-Serif" font-size="10.00">spin64</text>
</a>
</g>
</g>
<!-- Node25&#45;&gt;Node26 -->
<g id="edge30" class="edge"><title>Node25&#45;&gt;Node26</title>
<path fill="none" stroke="midnightblue" d="M115.269,-171.479C122.151,-144.718 145.357,-68.2359 194,-29 203.972,-20.9567 217.167,-16.3167 229.209,-13.6407"/>
<polygon fill="midnightblue" stroke="midnightblue" points="230.188,-17.0191 239.385,-11.7584 228.915,-10.1358 230.188,-17.0191"/>
</g>
</g>
</svg>
        <g id="navigator" transform="translate(0 0)" fill="#404254">
                <rect fill="#f2f5e9" fill-opacity="0.5" stroke="#606060" stroke-width=".5" x="0" y="0" width="60" height="60"/>
                <use id="zoomplus" xlink:href="#zoomPlus" x="17" y="9" onmousedown="handleZoom(evt,'in')"/>
                <use id="zoomminus" xlink:href="#zoomMin" x="42" y="9" onmousedown="handleZoom(evt,'out')"/>
                <use id="reset" xlink:href="#resetDef" x="30" y="36" onmousedown="handleReset()"/>
                <g id="arrowUp" xlink:href="#dirArrow" transform="translate(30 24)" onmousedown="handlePan(0,-1)">
                  <use xlink:href="#rim" fill="#404040">
                        <set attributeName="fill" to="#808080" begin="arrowUp.mouseover" end="arrowUp.mouseout"/>
                  </use>
                  <path fill="none" stroke="white" stroke-width="1.5" d="M0,-3.0v7 M-2.5,-0.5L0,-3.0L2.5,-0.5"/>
                </g>
                <g id="arrowRight" xlink:href="#dirArrow" transform="rotate(90) translate(36 -43)" onmousedown="handlePan(1,0)">
                  <use xlink:href="#rim" fill="#404040">
                        <set attributeName="fill" to="#808080" begin="arrowRight.mouseover" end="arrowRight.mouseout"/>
                  </use>
                  <path fill="none" stroke="white" stroke-width="1.5" d="M0,-3.0v7 M-2.5,-0.5L0,-3.0L2.5,-0.5"/>
                </g>
                <g id="arrowDown" xlink:href="#dirArrow" transform="rotate(180) translate(-30 -48)" onmousedown="handlePan(0,1)">
                  <use xlink:href="#rim" fill="#404040">
                        <set attributeName="fill" to="#808080" begin="arrowDown.mouseover" end="arrowDown.mouseout"/>
                  </use>
                  <path fill="none" stroke="white" stroke-width="1.5" d="M0,-3.0v7 M-2.5,-0.5L0,-3.0L2.5,-0.5"/>
                </g>
                <g id="arrowLeft" xlink:href="#dirArrow" transform="rotate(270) translate(-36 17)" onmousedown="handlePan(-1,0)">
                  <use xlink:href="#rim" fill="#404040">
                        <set attributeName="fill" to="#808080" begin="arrowLeft.mouseover" end="arrowLeft.mouseout"/>
                  </use>
                  <path fill="none" stroke="white" stroke-width="1.5" d="M0,-3.0v7 M-2.5,-0.5L0,-3.0L2.5,-0.5"/>
                </g>
        </g>
        <svg viewBox="0 0 15 15" width="100%" height="30px" preserveAspectRatio="xMaxYMin meet">
         <g id="arrow_out" transform="scale(0.3 0.3)">
          <a xlink:href="bmharness_8hpp_a77dcb24f238716e611145fc73d32456b_cgraph_org.svg" target="_base">
           <rect id="button" ry="5" rx="5" y="6" x="6" height="38" width="38"
                fill="#f2f5e9" fill-opacity="0.5" stroke="#606060" stroke-width="1.0"/>
           <path id="arrow"
             d="M 11.500037,31.436501 C 11.940474,20.09759 22.043105,11.32322 32.158766,21.979434 L 37.068811,17.246167 C 37.068811,17.246167 37.088388,32 37.088388,32 L 22.160133,31.978069 C 22.160133,31.978069 26.997745,27.140456 26.997745,27.140456 C 18.528582,18.264221 13.291696,25.230495 11.500037,31.436501 z"
             style="fill:#404040;"/>
          </a>
         </g>
        </svg>
</svg>
