<?xml version="1.0" encoding="UTF-8" standalone="no"?>
<!DOCTYPE svg PUBLIC "-//W3C//DTD SVG 1.1//EN"
 "http://www.w3.org/Graphics/SVG/1.1/DTD/svg11.dtd">
<!-- Generated by graphviz version 2.36.0 (20140111.2315)
 -->
<!-- Title: run Pages: 1 -->
<svg width="270pt" height="88pt"
 viewBox="0.00 0.00 270.00 88.00" xmlns="http://www.w3.org/2000/svg" xmlns:xlink="http://www.w3.org/1999/xlink">
<g id="graph0" class="graph" transform="scale(1 1) rotate(0) translate(4 84)">
<title>run</title>
<!-- Node1 -->
<g id="node1" class="node"><title>Node1</title>
<polygon fill="#bfbfbf" stroke="black" points="0,-24.5 0,-43.5 30,-43.5 30,-24.5 0,-24.5"/>
<text text-anchor="middle" x="15" y="-31.5" font-family="Helvetica,sans-Serif" font-size="10.00">run</text>
</g>
<!-- Node2 -->
<g id="node2" class="node"><title>Node2</title>
<g id="a_node2"><a xlink:href="namespaceanonymous__namespace_02bmharness_8cpp_03.html#a5275c4f9613d117686614bfbf705ab2b" target="_top" xlink:title="anonymous_namespace\l\{bmharness::cpp\}::run\l_wrapper">
<polygon fill="none" stroke="black" points="66,-38.5 66,-79.5 188,-79.5 188,-38.5 66,-38.5"/>
<text text-anchor="start" x="74" y="-67.5" font-family="Helvetica,sans-Serif" font-size="10.00">anonymous_namespace</text>
<text text-anchor="start" x="74" y="-56.5" font-family="Helvetica,sans-Serif" font-size="10.00">{bmharness::cpp}::run</text>
<text text-anchor="middle" x="127" y="-45.5" font-family="Helvetica,sans-Serif" font-size="10.00">_wrapper</text>
</a>
</g>
</g>
<!-- Node1&#45;&gt;Node2 -->
<g id="edge1" class="edge"><title>Node1&#45;&gt;Node2</title>
<path fill="none" stroke="midnightblue" d="M40.314,-39.5259C47.9607,-41.2638 56.7712,-43.2662 65.7702,-45.3114"/>
<polygon fill="midnightblue" stroke="midnightblue" points="40.9076,-36.0716 30.3806,-37.2683 39.3562,-42.8976 40.9076,-36.0716"/>
</g>
<!-- Node3 -->
<g id="node3" class="node"><title>Node3</title>
<g id="a_node3"><a xlink:href="bmharness_8hpp.html#a7bb06afcedce38a875b0efb94038104e" target="_top" xlink:title="run_wrapper">
<polygon fill="none" stroke="black" points="92,-0.5 92,-19.5 162,-19.5 162,-0.5 92,-0.5"/>
<text text-anchor="middle" x="127" y="-7.5" font-family="Helvetica,sans-Serif" font-size="10.00">run_wrapper</text>
</a>
</g>
</g>
<!-- Node1&#45;&gt;Node3 -->
<g id="edge2" class="edge"><title>Node1&#45;&gt;Node3</title>
<path fill="none" stroke="midnightblue" d="M40.4624,-28.6627C55.5426,-25.3725 75.107,-21.1039 91.7184,-17.4796"/>
<polygon fill="midnightblue" stroke="midnightblue" points="39.4046,-25.3111 30.3806,-30.8624 40.8969,-32.1502 39.4046,-25.3111"/>
</g>
<!-- Node4 -->
<g id="node4" class="node"><title>Node4</title>
<g id="a_node4"><a xlink:href="bmharness_8cpp.html#a3c04138a5bfe5d72780bb7e82a18e627" target="_top" xlink:title="main">
<polygon fill="none" stroke="black" points="224,-0.5 224,-19.5 262,-19.5 262,-0.5 224,-0.5"/>
<text text-anchor="middle" x="243" y="-7.5" font-family="Helvetica,sans-Serif" font-size="10.00">main</text>
</a>
</g>
</g>
<!-- Node3&#45;&gt;Node4 -->
<g id="edge3" class="edge"><title>Node3&#45;&gt;Node4</title>
<path fill="none" stroke="midnightblue" d="M172.209,-10C190.128,-10 209.825,-10 223.712,-10"/>
<polygon fill="midnightblue" stroke="midnightblue" points="172.204,-6.5001 162.204,-10 172.204,-13.5001 172.204,-6.5001"/>
</g>
</g>
</svg>
