<?xml version="1.0" encoding="UTF-8" standalone="no"?>
<!DOCTYPE svg PUBLIC "-//W3C//DTD SVG 1.1//EN"
 "http://www.w3.org/Graphics/SVG/1.1/DTD/svg11.dtd">
<!-- Generated by graphviz version 2.36.0 (20140111.2315)
 -->
<!-- Title: boosting/list/boostinglist.h Pages: 1 -->
<svg width="537pt" height="152pt"
 viewBox="0.00 0.00 537.00 152.00" xmlns="http://www.w3.org/2000/svg" xmlns:xlink="http://www.w3.org/1999/xlink">
<g id="graph0" class="graph" transform="scale(1 1) rotate(0) translate(4 148)">
<title>boosting/list/boostinglist.h</title>
<!-- Node1 -->
<g id="node1" class="node"><title>Node1</title>
<polygon fill="#bfbfbf" stroke="black" points="224,-124.5 224,-143.5 354,-143.5 354,-124.5 224,-124.5"/>
<text text-anchor="middle" x="289" y="-131.5" font-family="Helvetica,sans-Serif" font-size="10.00">boosting/list/boostinglist.h</text>
</g>
<!-- Node2 -->
<g id="node2" class="node"><title>Node2</title>
<polygon fill="none" stroke="#bfbfbf" points="113,-68.5 113,-87.5 157,-87.5 157,-68.5 113,-68.5"/>
<text text-anchor="middle" x="135" y="-75.5" font-family="Helvetica,sans-Serif" font-size="10.00">vector</text>
</g>
<!-- Node1&#45;&gt;Node2 -->
<g id="edge1" class="edge"><title>Node1&#45;&gt;Node2</title>
<path fill="none" stroke="midnightblue" d="M264.598,-124.444C238.196,-115.186 195.991,-100.387 166.96,-90.2066"/>
<polygon fill="midnightblue" stroke="midnightblue" points="167.882,-86.8213 157.288,-86.8151 165.566,-93.427 167.882,-86.8213"/>
</g>
<!-- Node3 -->
<g id="node3" class="node"><title>Node3</title>
<g id="a_node3"><a xlink:href="lockkey_8h.html" target="_top" xlink:title="boosting/lockkey.h">
<polygon fill="none" stroke="black" points="175,-68.5 175,-87.5 273,-87.5 273,-68.5 175,-68.5"/>
<text text-anchor="middle" x="224" y="-75.5" font-family="Helvetica,sans-Serif" font-size="10.00">boosting/lockkey.h</text>
</a>
</g>
</g>
<!-- Node1&#45;&gt;Node3 -->
<g id="edge2" class="edge"><title>Node1&#45;&gt;Node3</title>
<path fill="none" stroke="midnightblue" d="M278.557,-124.324C268.854,-116.263 254.185,-104.077 242.5,-94.3695"/>
<polygon fill="midnightblue" stroke="midnightblue" points="244.562,-91.532 234.633,-87.8339 240.089,-96.9163 244.562,-91.532"/>
</g>
<!-- Node8 -->
<g id="node8" class="node"><title>Node8</title>
<g id="a_node8"><a xlink:href="lockfreelist_8h.html" target="_top" xlink:title="boosting/list/lockfreelist.h">
<polygon fill="none" stroke="black" points="291,-68.5 291,-87.5 419,-87.5 419,-68.5 291,-68.5"/>
<text text-anchor="middle" x="355" y="-75.5" font-family="Helvetica,sans-Serif" font-size="10.00">boosting/list/lockfreelist.h</text>
</a>
</g>
</g>
<!-- Node1&#45;&gt;Node8 -->
<g id="edge7" class="edge"><title>Node1&#45;&gt;Node8</title>
<path fill="none" stroke="midnightblue" d="M299.604,-124.324C309.456,-116.263 324.351,-104.077 336.215,-94.3695"/>
<polygon fill="midnightblue" stroke="midnightblue" points="338.68,-96.8752 344.203,-87.8339 334.247,-91.4575 338.68,-96.8752"/>
</g>
<!-- Node10 -->
<g id="node10" class="node"><title>Node10</title>
<g id="a_node10"><a xlink:href="assert_8h.html" target="_top" xlink:title="common/assert.h">
<polygon fill="none" stroke="black" points="437,-68.5 437,-87.5 529,-87.5 529,-68.5 437,-68.5"/>
<text text-anchor="middle" x="483" y="-75.5" font-family="Helvetica,sans-Serif" font-size="10.00">common/assert.h</text>
</a>
</g>
</g>
<!-- Node1&#45;&gt;Node10 -->
<g id="edge9" class="edge"><title>Node1&#45;&gt;Node10</title>
<path fill="none" stroke="midnightblue" d="M319.74,-124.444C352.944,-115.201 405.991,-100.436 442.557,-90.2572"/>
<polygon fill="midnightblue" stroke="midnightblue" points="443.709,-93.5699 452.404,-87.5164 441.832,-86.8262 443.709,-93.5699"/>
</g>
<!-- Node4 -->
<g id="node4" class="node"><title>Node4</title>
<polygon fill="none" stroke="#bfbfbf" points="-0.5,-1 -0.5,-31 104.5,-31 104.5,-1 -0.5,-1"/>
<text text-anchor="start" x="7.5" y="-19" font-family="Helvetica,sans-Serif" font-size="10.00">tbb/concurrent_hash</text>
<text text-anchor="middle" x="52" y="-8" font-family="Helvetica,sans-Serif" font-size="10.00">_map.h</text>
</g>
<!-- Node3&#45;&gt;Node4 -->
<g id="edge3" class="edge"><title>Node3&#45;&gt;Node4</title>
<path fill="none" stroke="midnightblue" d="M199.357,-68.4035C174.018,-59.5644 133.852,-45.553 101.85,-34.3895"/>
<polygon fill="midnightblue" stroke="midnightblue" points="102.801,-31.0144 92.2059,-31.0253 100.495,-37.6238 102.801,-31.0144"/>
</g>
<!-- Node5 -->
<g id="node5" class="node"><title>Node5</title>
<polygon fill="none" stroke="#bfbfbf" points="123,-6.5 123,-25.5 167,-25.5 167,-6.5 123,-6.5"/>
<text text-anchor="middle" x="145" y="-13.5" font-family="Helvetica,sans-Serif" font-size="10.00">mutex</text>
</g>
<!-- Node3&#45;&gt;Node5 -->
<g id="edge4" class="edge"><title>Node3&#45;&gt;Node5</title>
<path fill="none" stroke="midnightblue" d="M212.681,-68.4035C200.127,-58.8688 179.649,-43.3154 164.501,-31.8106"/>
<polygon fill="midnightblue" stroke="midnightblue" points="166.378,-28.8417 156.298,-25.5806 162.144,-34.4162 166.378,-28.8417"/>
</g>
<!-- Node6 -->
<g id="node6" class="node"><title>Node6</title>
<polygon fill="none" stroke="#bfbfbf" points="185,-6.5 185,-25.5 263,-25.5 263,-6.5 185,-6.5"/>
<text text-anchor="middle" x="224" y="-13.5" font-family="Helvetica,sans-Serif" font-size="10.00">unordered_set</text>
</g>
<!-- Node3&#45;&gt;Node6 -->
<g id="edge5" class="edge"><title>Node3&#45;&gt;Node6</title>
<path fill="none" stroke="midnightblue" d="M224,-68.4035C224,-59.9381 224,-46.7283 224,-35.8199"/>
<polygon fill="midnightblue" stroke="midnightblue" points="227.5,-35.5806 224,-25.5806 220.5,-35.5806 227.5,-35.5806"/>
</g>
<!-- Node7 -->
<g id="node7" class="node"><title>Node7</title>
<polygon fill="none" stroke="#bfbfbf" points="281,-6.5 281,-25.5 327,-25.5 327,-6.5 281,-6.5"/>
<text text-anchor="middle" x="304" y="-13.5" font-family="Helvetica,sans-Serif" font-size="10.00">chrono</text>
</g>
<!-- Node3&#45;&gt;Node7 -->
<g id="edge6" class="edge"><title>Node3&#45;&gt;Node7</title>
<path fill="none" stroke="midnightblue" d="M235.462,-68.4035C248.175,-58.8688 268.913,-43.3154 284.253,-31.8106"/>
<polygon fill="midnightblue" stroke="midnightblue" points="286.659,-34.3806 292.559,-25.5806 282.459,-28.7806 286.659,-34.3806"/>
</g>
<!-- Node9 -->
<g id="node9" class="node"><title>Node9</title>
<polygon fill="none" stroke="#bfbfbf" points="345,-6.5 345,-25.5 391,-25.5 391,-6.5 345,-6.5"/>
<text text-anchor="middle" x="368" y="-13.5" font-family="Helvetica,sans-Serif" font-size="10.00">cstdint</text>
</g>
<!-- Node8&#45;&gt;Node9 -->
<g id="edge8" class="edge"><title>Node8&#45;&gt;Node9</title>
<path fill="none" stroke="midnightblue" d="M356.863,-68.4035C358.716,-59.849 361.619,-46.4497 363.997,-35.4762"/>
<polygon fill="midnightblue" stroke="midnightblue" points="367.444,-36.095 366.141,-25.5806 360.603,-34.6127 367.444,-36.095"/>
</g>
<!-- Node11 -->
<g id="node11" class="node"><title>Node11</title>
<polygon fill="none" stroke="#bfbfbf" points="457.5,-6.5 457.5,-25.5 508.5,-25.5 508.5,-6.5 457.5,-6.5"/>
<text text-anchor="middle" x="483" y="-13.5" font-family="Helvetica,sans-Serif" font-size="10.00">config.h</text>
</g>
<!-- Node10&#45;&gt;Node11 -->
<g id="edge10" class="edge"><title>Node10&#45;&gt;Node11</title>
<path fill="none" stroke="midnightblue" d="M483,-68.4035C483,-59.9381 483,-46.7283 483,-35.8199"/>
<polygon fill="midnightblue" stroke="midnightblue" points="486.5,-35.5806 483,-25.5806 479.5,-35.5806 486.5,-35.5806"/>
</g>
</g>
</svg>
