<?xml version="1.0" encoding="UTF-8" standalone="no"?>
<!DOCTYPE svg PUBLIC "-//W3C//DTD SVG 1.1//EN"
 "http://www.w3.org/Graphics/SVG/1.1/DTD/svg11.dtd">
<!-- Generated by graphviz version 2.36.0 (20140111.2315)
 -->
<!-- Title: boosting/skiplist/boostingskip.cc Pages: 1 -->
<svg width="521pt" height="208pt"
 viewBox="0.00 0.00 521.00 208.00" xmlns="http://www.w3.org/2000/svg" xmlns:xlink="http://www.w3.org/1999/xlink">
<g id="graph0" class="graph" transform="scale(1 1) rotate(0) translate(4 204)">
<title>boosting/skiplist/boostingskip.cc</title>
<!-- Node1 -->
<g id="node1" class="node"><title>Node1</title>
<polygon fill="#bfbfbf" stroke="black" points="176,-180.5 176,-199.5 334,-199.5 334,-180.5 176,-180.5"/>
<text text-anchor="middle" x="255" y="-187.5" font-family="Helvetica,sans-Serif" font-size="10.00">boosting/skiplist/boostingskip.cc</text>
</g>
<!-- Node2 -->
<g id="node2" class="node"><title>Node2</title>
<g id="a_node2"><a xlink:href="boostingskip_8h.html" target="_top" xlink:title="boosting/skiplist/boostingskip.h">
<polygon fill="none" stroke="black" points="178.5,-124.5 178.5,-143.5 331.5,-143.5 331.5,-124.5 178.5,-124.5"/>
<text text-anchor="middle" x="255" y="-131.5" font-family="Helvetica,sans-Serif" font-size="10.00">boosting/skiplist/boostingskip.h</text>
</a>
</g>
</g>
<!-- Node1&#45;&gt;Node2 -->
<g id="edge1" class="edge"><title>Node1&#45;&gt;Node2</title>
<path fill="none" stroke="midnightblue" d="M255,-180.083C255,-173.006 255,-162.861 255,-153.986"/>
<polygon fill="midnightblue" stroke="midnightblue" points="258.5,-153.751 255,-143.751 251.5,-153.751 258.5,-153.751"/>
</g>
<!-- Node3 -->
<g id="node3" class="node"><title>Node3</title>
<polygon fill="none" stroke="#bfbfbf" points="73,-68.5 73,-87.5 117,-87.5 117,-68.5 73,-68.5"/>
<text text-anchor="middle" x="95" y="-75.5" font-family="Helvetica,sans-Serif" font-size="10.00">vector</text>
</g>
<!-- Node2&#45;&gt;Node3 -->
<g id="edge2" class="edge"><title>Node2&#45;&gt;Node3</title>
<path fill="none" stroke="midnightblue" d="M229.648,-124.444C201.781,-115.038 156.968,-99.9142 126.775,-89.7242"/>
<polygon fill="midnightblue" stroke="midnightblue" points="127.736,-86.3546 117.142,-86.473 125.498,-92.9871 127.736,-86.3546"/>
</g>
<!-- Node4 -->
<g id="node4" class="node"><title>Node4</title>
<g id="a_node4"><a xlink:href="lockkey_8h.html" target="_top" xlink:title="boosting/lockkey.h">
<polygon fill="none" stroke="black" points="135,-68.5 135,-87.5 233,-87.5 233,-68.5 135,-68.5"/>
<text text-anchor="middle" x="184" y="-75.5" font-family="Helvetica,sans-Serif" font-size="10.00">boosting/lockkey.h</text>
</a>
</g>
</g>
<!-- Node2&#45;&gt;Node4 -->
<g id="edge3" class="edge"><title>Node2&#45;&gt;Node4</title>
<path fill="none" stroke="midnightblue" d="M243.593,-124.324C232.891,-116.185 216.659,-103.839 203.837,-94.0874"/>
<polygon fill="midnightblue" stroke="midnightblue" points="205.693,-91.1018 195.615,-87.8339 201.456,-96.6734 205.693,-91.1018"/>
</g>
<!-- Node9 -->
<g id="node9" class="node"><title>Node9</title>
<g id="a_node9"><a xlink:href="lockfreeskip_8h.html" target="_top" xlink:title="boosting/skiplist/lockfreeskip.h">
<polygon fill="none" stroke="black" points="251.5,-68.5 251.5,-87.5 402.5,-87.5 402.5,-68.5 251.5,-68.5"/>
<text text-anchor="middle" x="327" y="-75.5" font-family="Helvetica,sans-Serif" font-size="10.00">boosting/skiplist/lockfreeskip.h</text>
</a>
</g>
</g>
<!-- Node2&#45;&gt;Node9 -->
<g id="edge8" class="edge"><title>Node2&#45;&gt;Node9</title>
<path fill="none" stroke="midnightblue" d="M266.568,-124.324C277.42,-116.185 293.881,-103.839 306.883,-94.0874"/>
<polygon fill="midnightblue" stroke="midnightblue" points="309.321,-96.6339 315.221,-87.8339 305.121,-91.0339 309.321,-96.6339"/>
</g>
<!-- Node10 -->
<g id="node10" class="node"><title>Node10</title>
<g id="a_node10"><a xlink:href="assert_8h.html" target="_top" xlink:title="common/assert.h">
<polygon fill="none" stroke="black" points="421,-68.5 421,-87.5 513,-87.5 513,-68.5 421,-68.5"/>
<text text-anchor="middle" x="467" y="-75.5" font-family="Helvetica,sans-Serif" font-size="10.00">common/assert.h</text>
</a>
</g>
</g>
<!-- Node2&#45;&gt;Node10 -->
<g id="edge9" class="edge"><title>Node2&#45;&gt;Node10</title>
<path fill="none" stroke="midnightblue" d="M288.592,-124.444C325.187,-115.122 383.838,-100.183 423.826,-89.9972"/>
<polygon fill="midnightblue" stroke="midnightblue" points="424.739,-93.3766 433.565,-87.5164 423.011,-86.5932 424.739,-93.3766"/>
</g>
<!-- Node5 -->
<g id="node5" class="node"><title>Node5</title>
<polygon fill="none" stroke="#bfbfbf" points="-0.5,-1 -0.5,-31 104.5,-31 104.5,-1 -0.5,-1"/>
<text text-anchor="start" x="7.5" y="-19" font-family="Helvetica,sans-Serif" font-size="10.00">tbb/concurrent_hash</text>
<text text-anchor="middle" x="52" y="-8" font-family="Helvetica,sans-Serif" font-size="10.00">_map.h</text>
</g>
<!-- Node4&#45;&gt;Node5 -->
<g id="edge4" class="edge"><title>Node4&#45;&gt;Node5</title>
<path fill="none" stroke="midnightblue" d="M165.088,-68.4035C146.145,-59.793 116.403,-46.2742 92.1747,-35.2612"/>
<polygon fill="midnightblue" stroke="midnightblue" points="93.4077,-31.9771 82.8557,-31.0253 90.511,-38.3497 93.4077,-31.9771"/>
</g>
<!-- Node6 -->
<g id="node6" class="node"><title>Node6</title>
<polygon fill="none" stroke="#bfbfbf" points="123,-6.5 123,-25.5 167,-25.5 167,-6.5 123,-6.5"/>
<text text-anchor="middle" x="145" y="-13.5" font-family="Helvetica,sans-Serif" font-size="10.00">mutex</text>
</g>
<!-- Node4&#45;&gt;Node6 -->
<g id="edge5" class="edge"><title>Node4&#45;&gt;Node6</title>
<path fill="none" stroke="midnightblue" d="M178.412,-68.4035C172.62,-59.4925 163.411,-45.3247 156.126,-34.1177"/>
<polygon fill="midnightblue" stroke="midnightblue" points="158.962,-32.0576 150.577,-25.5806 153.093,-35.8725 158.962,-32.0576"/>
</g>
<!-- Node7 -->
<g id="node7" class="node"><title>Node7</title>
<polygon fill="none" stroke="#bfbfbf" points="185,-6.5 185,-25.5 263,-25.5 263,-6.5 185,-6.5"/>
<text text-anchor="middle" x="224" y="-13.5" font-family="Helvetica,sans-Serif" font-size="10.00">unordered_set</text>
</g>
<!-- Node4&#45;&gt;Node7 -->
<g id="edge6" class="edge"><title>Node4&#45;&gt;Node7</title>
<path fill="none" stroke="midnightblue" d="M189.731,-68.4035C195.672,-59.4925 205.117,-45.3247 212.588,-34.1177"/>
<polygon fill="midnightblue" stroke="midnightblue" points="215.645,-35.8426 218.28,-25.5806 209.82,-31.9596 215.645,-35.8426"/>
</g>
<!-- Node8 -->
<g id="node8" class="node"><title>Node8</title>
<polygon fill="none" stroke="#bfbfbf" points="281,-6.5 281,-25.5 327,-25.5 327,-6.5 281,-6.5"/>
<text text-anchor="middle" x="304" y="-13.5" font-family="Helvetica,sans-Serif" font-size="10.00">chrono</text>
</g>
<!-- Node4&#45;&gt;Node8 -->
<g id="edge7" class="edge"><title>Node4&#45;&gt;Node8</title>
<path fill="none" stroke="midnightblue" d="M201.193,-68.4035C221.243,-58.3787 254.599,-41.7006 277.86,-30.0699"/>
<polygon fill="midnightblue" stroke="midnightblue" points="279.46,-33.1833 286.839,-25.5806 276.329,-26.9223 279.46,-33.1833"/>
</g>
<!-- Node11 -->
<g id="node11" class="node"><title>Node11</title>
<polygon fill="none" stroke="#bfbfbf" points="441.5,-6.5 441.5,-25.5 492.5,-25.5 492.5,-6.5 441.5,-6.5"/>
<text text-anchor="middle" x="467" y="-13.5" font-family="Helvetica,sans-Serif" font-size="10.00">config.h</text>
</g>
<!-- Node10&#45;&gt;Node11 -->
<g id="edge10" class="edge"><title>Node10&#45;&gt;Node11</title>
<path fill="none" stroke="midnightblue" d="M467,-68.4035C467,-59.9381 467,-46.7283 467,-35.8199"/>
<polygon fill="midnightblue" stroke="midnightblue" points="470.5,-35.5806 467,-25.5806 463.5,-35.5806 470.5,-35.5806"/>
</g>
</g>
</svg>
