<?xml version="1.0" encoding="UTF-8" standalone="no"?>
<!DOCTYPE svg PUBLIC "-//W3C//DTD SVG 1.1//EN"
 "http://www.w3.org/Graphics/SVG/1.1/DTD/svg11.dtd">
<!-- Generated by graphviz version 2.36.0 (20140111.2315)
 -->
<!-- Title: rstm/rstm&#45;dev/libstm/policies/cbr.cpp Pages: 1 -->
<svg width="1263pt" height="544pt"
 viewBox="0.00 0.00 1263.00 544.00" xmlns="http://www.w3.org/2000/svg" xmlns:xlink="http://www.w3.org/1999/xlink">
<g id="graph0" class="graph" transform="scale(1 1) rotate(0) translate(4 540)">
<title>rstm/rstm&#45;dev/libstm/policies/cbr.cpp</title>
<!-- Node1 -->
<g id="node1" class="node"><title>Node1</title>
<polygon fill="#bfbfbf" stroke="black" points="291.5,-505 291.5,-535 398.5,-535 398.5,-505 291.5,-505"/>
<text text-anchor="start" x="299.5" y="-523" font-family="Helvetica,sans-Serif" font-size="10.00">rstm/rstm&#45;dev/libstm</text>
<text text-anchor="middle" x="345" y="-512" font-family="Helvetica,sans-Serif" font-size="10.00">/policies/cbr.cpp</text>
</g>
<!-- Node2 -->
<g id="node2" class="node"><title>Node2</title>
<polygon fill="none" stroke="#bfbfbf" points="0,-448.5 0,-467.5 40,-467.5 40,-448.5 0,-448.5"/>
<text text-anchor="middle" x="20" y="-455.5" font-family="Helvetica,sans-Serif" font-size="10.00">utility</text>
</g>
<!-- Node1&#45;&gt;Node2 -->
<g id="edge1" class="edge"><title>Node1&#45;&gt;Node2</title>
<path fill="none" stroke="midnightblue" d="M291.369,-511.906C233.838,-503.817 139.697,-489.203 49.976,-467.98"/>
<polygon fill="midnightblue" stroke="midnightblue" points="50.7285,-464.561 40.1881,-465.634 49.0968,-471.368 50.7285,-464.561"/>
</g>
<!-- Node3 -->
<g id="node3" class="node"><title>Node3</title>
<polygon fill="none" stroke="#bfbfbf" points="58,-448.5 58,-467.5 102,-467.5 102,-448.5 58,-448.5"/>
<text text-anchor="middle" x="80" y="-455.5" font-family="Helvetica,sans-Serif" font-size="10.00">cmath</text>
</g>
<!-- Node1&#45;&gt;Node3 -->
<g id="edge2" class="edge"><title>Node1&#45;&gt;Node3</title>
<path fill="none" stroke="midnightblue" d="M291.237,-507.438C244.773,-497.347 175.855,-482.145 116,-468 114.73,-467.7 113.436,-467.391 112.13,-467.077"/>
<polygon fill="midnightblue" stroke="midnightblue" points="112.608,-463.59 102.063,-464.611 110.943,-470.39 112.608,-463.59"/>
</g>
<!-- Node4 -->
<g id="node4" class="node"><title>Node4</title>
<polygon fill="none" stroke="#bfbfbf" points="114,-0.5 114,-19.5 162,-19.5 162,-0.5 114,-0.5"/>
<text text-anchor="middle" x="138" y="-7.5" font-family="Helvetica,sans-Serif" font-size="10.00">limits.h</text>
</g>
<!-- Node1&#45;&gt;Node4 -->
<g id="edge3" class="edge"><title>Node1&#45;&gt;Node4</title>
<path fill="none" stroke="midnightblue" d="M291.301,-513.378C227.62,-503.396 130,-476.162 130,-403 130,-403 130,-403 130,-121 130,-88.8633 133.439,-51.5843 135.807,-29.7187"/>
<polygon fill="midnightblue" stroke="midnightblue" points="139.312,-29.8715 136.954,-19.5424 132.356,-29.0874 139.312,-29.8715"/>
</g>
<!-- Node5 -->
<g id="node5" class="node"><title>Node5</title>
<g id="a_node5"><a xlink:href="initializers_8hpp.html" target="_top" xlink:title="initializers.hpp">
<polygon fill="none" stroke="black" points="533.5,-448.5 533.5,-467.5 612.5,-467.5 612.5,-448.5 533.5,-448.5"/>
<text text-anchor="middle" x="573" y="-455.5" font-family="Helvetica,sans-Serif" font-size="10.00">initializers.hpp</text>
</a>
</g>
</g>
<!-- Node1&#45;&gt;Node5 -->
<g id="edge4" class="edge"><title>Node1&#45;&gt;Node5</title>
<path fill="none" stroke="midnightblue" d="M398.456,-504.933C438.76,-494.326 493.287,-479.977 530.608,-470.156"/>
<polygon fill="midnightblue" stroke="midnightblue" points="531.872,-473.442 540.652,-467.513 530.09,-466.673 531.872,-473.442"/>
</g>
<!-- Node6 -->
<g id="node6" class="node"><title>Node6</title>
<g id="a_node6"><a xlink:href="policies_8hpp.html" target="_top" xlink:title="policies.hpp">
<polygon fill="none" stroke="black" points="311,-336.5 311,-355.5 379,-355.5 379,-336.5 311,-336.5"/>
<text text-anchor="middle" x="345" y="-343.5" font-family="Helvetica,sans-Serif" font-size="10.00">policies.hpp</text>
</a>
</g>
</g>
<!-- Node1&#45;&gt;Node6 -->
<g id="edge5" class="edge"><title>Node1&#45;&gt;Node6</title>
<path fill="none" stroke="midnightblue" d="M345,-504.925C345,-474.073 345,-400.484 345,-365.755"/>
<polygon fill="midnightblue" stroke="midnightblue" points="348.5,-365.585 345,-355.585 341.5,-365.585 348.5,-365.585"/>
</g>
<!-- Node31 -->
<g id="node31" class="node"><title>Node31</title>
<g id="a_node31"><a xlink:href="profiling_8hpp.html" target="_top" xlink:title="../profiling.hpp">
<polygon fill="none" stroke="black" points="435,-392.5 435,-411.5 513,-411.5 513,-392.5 435,-392.5"/>
<text text-anchor="middle" x="474" y="-399.5" font-family="Helvetica,sans-Serif" font-size="10.00">../profiling.hpp</text>
</a>
</g>
</g>
<!-- Node1&#45;&gt;Node31 -->
<g id="edge54" class="edge"><title>Node1&#45;&gt;Node31</title>
<path fill="none" stroke="midnightblue" d="M360.818,-504.776C385.117,-482.926 431.455,-441.258 456.647,-418.604"/>
<polygon fill="midnightblue" stroke="midnightblue" points="459.222,-420.996 464.317,-411.707 454.541,-415.791 459.222,-420.996"/>
</g>
<!-- Node32 -->
<g id="node32" class="node"><title>Node32</title>
<g id="a_node32"><a xlink:href="algs_8hpp.html" target="_top" xlink:title="../algs/algs.hpp">
<polygon fill="none" stroke="black" points="432.5,-448.5 432.5,-467.5 515.5,-467.5 515.5,-448.5 432.5,-448.5"/>
<text text-anchor="middle" x="474" y="-455.5" font-family="Helvetica,sans-Serif" font-size="10.00">../algs/algs.hpp</text>
</a>
</g>
</g>
<!-- Node1&#45;&gt;Node32 -->
<g id="edge59" class="edge"><title>Node1&#45;&gt;Node32</title>
<path fill="none" stroke="midnightblue" d="M375.245,-504.933C396.717,-494.946 425.325,-481.64 446.221,-471.92"/>
<polygon fill="midnightblue" stroke="midnightblue" points="447.919,-474.991 455.51,-467.6 444.967,-468.644 447.919,-474.991"/>
</g>
<!-- Node7 -->
<g id="node7" class="node"><title>Node7</title>
<polygon fill="none" stroke="#bfbfbf" points="642.5,-0.5 642.5,-19.5 713.5,-19.5 713.5,-0.5 642.5,-0.5"/>
<text text-anchor="middle" x="678" y="-7.5" font-family="Helvetica,sans-Serif" font-size="10.00">stm/config.h</text>
</g>
<!-- Node6&#45;&gt;Node7 -->
<g id="edge6" class="edge"><title>Node6&#45;&gt;Node7</title>
<path fill="none" stroke="midnightblue" d="M329.148,-336.439C301.881,-320.425 249,-283.16 249,-235 249,-235 249,-235 249,-177 249,-146.902 246.868,-133.432 268,-112 306.198,-73.2587 333.322,-93.0098 385,-76 410.502,-67.6062 416.075,-62.9781 442,-56 507.291,-38.4258 584.524,-25.0646 632.395,-17.6277"/>
<polygon fill="midnightblue" stroke="midnightblue" points="633.088,-21.0624 642.442,-16.087 632.027,-14.1433 633.088,-21.0624"/>
</g>
<!-- Node8 -->
<g id="node8" class="node"><title>Node8</title>
<polygon fill="none" stroke="#bfbfbf" points="431.5,-280.5 431.5,-299.5 474.5,-299.5 474.5,-280.5 431.5,-280.5"/>
<text text-anchor="middle" x="453" y="-287.5" font-family="Helvetica,sans-Serif" font-size="10.00">cstdio</text>
</g>
<!-- Node6&#45;&gt;Node8 -->
<g id="edge7" class="edge"><title>Node6&#45;&gt;Node8</title>
<path fill="none" stroke="midnightblue" d="M362.352,-336.324C379.672,-327.664 406.515,-314.242 426.502,-304.249"/>
<polygon fill="midnightblue" stroke="midnightblue" points="428.312,-307.257 435.691,-299.655 425.181,-300.996 428.312,-307.257"/>
</g>
<!-- Node9 -->
<g id="node9" class="node"><title>Node9</title>
<polygon fill="none" stroke="#bfbfbf" points="315.5,-280.5 315.5,-299.5 374.5,-299.5 374.5,-280.5 315.5,-280.5"/>
<text text-anchor="middle" x="345" y="-287.5" font-family="Helvetica,sans-Serif" font-size="10.00">inttypes.h</text>
</g>
<!-- Node6&#45;&gt;Node9 -->
<g id="edge8" class="edge"><title>Node6&#45;&gt;Node9</title>
<path fill="none" stroke="midnightblue" d="M345,-336.083C345,-329.006 345,-318.861 345,-309.986"/>
<polygon fill="midnightblue" stroke="midnightblue" points="348.5,-309.751 345,-299.751 341.5,-309.751 348.5,-309.751"/>
</g>
<!-- Node10 -->
<g id="node10" class="node"><title>Node10</title>
<g id="a_node10"><a xlink:href="platform_8hpp.html" target="_top" xlink:title="common/platform.hpp">
<polygon fill="none" stroke="black" points="158.5,-56.5 158.5,-75.5 269.5,-75.5 269.5,-56.5 158.5,-56.5"/>
<text text-anchor="middle" x="214" y="-63.5" font-family="Helvetica,sans-Serif" font-size="10.00">common/platform.hpp</text>
</a>
</g>
</g>
<!-- Node6&#45;&gt;Node10 -->
<g id="edge9" class="edge"><title>Node6&#45;&gt;Node10</title>
<path fill="none" stroke="midnightblue" d="M310.842,-338.649C286.752,-332.533 255.285,-320.999 235,-300 213.605,-277.851 211,-265.795 211,-235 211,-235 211,-235 211,-177 211,-144.936 212.289,-107.634 213.178,-85.7446"/>
<polygon fill="midnightblue" stroke="midnightblue" points="216.683,-85.6944 213.608,-75.5556 209.689,-85.399 216.683,-85.6944"/>
</g>
<!-- Node13 -->
<g id="node13" class="node"><title>Node13</title>
<g id="a_node13"><a xlink:href="metadata_8hpp.html" target="_top" xlink:title="stm/metadata.hpp">
<polygon fill="none" stroke="black" points="505.5,-168.5 505.5,-187.5 600.5,-187.5 600.5,-168.5 505.5,-168.5"/>
<text text-anchor="middle" x="553" y="-175.5" font-family="Helvetica,sans-Serif" font-size="10.00">stm/metadata.hpp</text>
</a>
</g>
</g>
<!-- Node6&#45;&gt;Node13 -->
<g id="edge14" class="edge"><title>Node6&#45;&gt;Node13</title>
<path fill="none" stroke="midnightblue" d="M355.006,-336.475C369.761,-323.946 398.281,-299.892 423,-280 461.839,-248.744 508.106,-213.19 533.647,-193.707"/>
<polygon fill="midnightblue" stroke="midnightblue" points="535.936,-196.363 541.77,-187.519 531.694,-190.795 535.936,-196.363"/>
</g>
<!-- Node19 -->
<g id="node19" class="node"><title>Node19</title>
<g id="a_node19"><a xlink:href="txthread_8hpp.html" target="_top" xlink:title="stm/txthread.hpp">
<polygon fill="none" stroke="black" points="603,-280.5 603,-299.5 693,-299.5 693,-280.5 603,-280.5"/>
<text text-anchor="middle" x="648" y="-287.5" font-family="Helvetica,sans-Serif" font-size="10.00">stm/txthread.hpp</text>
</a>
</g>
</g>
<!-- Node6&#45;&gt;Node19 -->
<g id="edge24" class="edge"><title>Node6&#45;&gt;Node19</title>
<path fill="none" stroke="midnightblue" d="M379.169,-338.91C431.142,-329.648 530.582,-311.926 592.867,-300.826"/>
<polygon fill="midnightblue" stroke="midnightblue" points="593.679,-304.236 602.909,-299.036 592.45,-297.345 593.679,-304.236"/>
</g>
<!-- Node30 -->
<g id="node30" class="node"><title>Node30</title>
<g id="a_node30"><a xlink:href="lib__globals_8hpp.html" target="_top" xlink:title="stm/lib_globals.hpp">
<polygon fill="none" stroke="black" points="318.5,-224.5 318.5,-243.5 419.5,-243.5 419.5,-224.5 318.5,-224.5"/>
<text text-anchor="middle" x="369" y="-231.5" font-family="Helvetica,sans-Serif" font-size="10.00">stm/lib_globals.hpp</text>
</a>
</g>
</g>
<!-- Node6&#45;&gt;Node30 -->
<g id="edge51" class="edge"><title>Node6&#45;&gt;Node30</title>
<path fill="none" stroke="midnightblue" d="M333.359,-336.375C318.323,-324.117 295.281,-300.829 306,-280 313.077,-266.247 326.521,-255.766 339.178,-248.394"/>
<polygon fill="midnightblue" stroke="midnightblue" points="340.999,-251.389 348.153,-243.573 337.687,-245.222 340.999,-251.389"/>
</g>
<!-- Node10&#45;&gt;Node4 -->
<g id="edge12" class="edge"><title>Node10&#45;&gt;Node4</title>
<path fill="none" stroke="midnightblue" d="M201.789,-56.324C190.224,-48.1066 172.625,-35.6017 158.839,-25.8069"/>
<polygon fill="midnightblue" stroke="midnightblue" points="160.612,-22.7729 150.433,-19.8339 156.557,-28.4791 160.612,-22.7729"/>
</g>
<!-- Node10&#45;&gt;Node7 -->
<g id="edge10" class="edge"><title>Node10&#45;&gt;Node7</title>
<path fill="none" stroke="midnightblue" d="M269.657,-57.1994C272.817,-56.7859 275.948,-56.3833 279,-56 406.728,-39.9571 557.804,-23.6434 632.079,-15.7977"/>
<polygon fill="midnightblue" stroke="midnightblue" points="632.89,-19.2317 642.468,-14.7026 632.156,-12.2702 632.89,-19.2317"/>
</g>
<!-- Node11 -->
<g id="node11" class="node"><title>Node11</title>
<polygon fill="none" stroke="#bfbfbf" points="282.5,-0.5 282.5,-19.5 331.5,-19.5 331.5,-0.5 282.5,-0.5"/>
<text text-anchor="middle" x="307" y="-7.5" font-family="Helvetica,sans-Serif" font-size="10.00">stdint.h</text>
</g>
<!-- Node10&#45;&gt;Node11 -->
<g id="edge11" class="edge"><title>Node10&#45;&gt;Node11</title>
<path fill="none" stroke="midnightblue" d="M228.942,-56.324C243.585,-47.8215 266.134,-34.7288 283.238,-24.7975"/>
<polygon fill="midnightblue" stroke="midnightblue" points="285.205,-27.7027 292.095,-19.6545 281.69,-21.6491 285.205,-27.7027"/>
</g>
<!-- Node12 -->
<g id="node12" class="node"><title>Node12</title>
<polygon fill="none" stroke="#bfbfbf" points="188.5,-0.5 188.5,-19.5 239.5,-19.5 239.5,-0.5 188.5,-0.5"/>
<text text-anchor="middle" x="214" y="-7.5" font-family="Helvetica,sans-Serif" font-size="10.00">unistd.h</text>
</g>
<!-- Node10&#45;&gt;Node12 -->
<g id="edge13" class="edge"><title>Node10&#45;&gt;Node12</title>
<path fill="none" stroke="midnightblue" d="M214,-56.083C214,-49.0059 214,-38.8611 214,-29.9865"/>
<polygon fill="midnightblue" stroke="midnightblue" points="217.5,-29.751 214,-19.7511 210.5,-29.7511 217.5,-29.751"/>
</g>
<!-- Node13&#45;&gt;Node7 -->
<g id="edge15" class="edge"><title>Node13&#45;&gt;Node7</title>
<path fill="none" stroke="midnightblue" d="M555.846,-168.253C563.051,-147.105 583.693,-92.2744 615,-56 625.742,-43.5542 640.6,-32.7287 653.19,-24.8163"/>
<polygon fill="midnightblue" stroke="midnightblue" points="655.107,-27.7478 661.865,-19.5882 651.493,-21.7524 655.107,-27.7478"/>
</g>
<!-- Node14 -->
<g id="node14" class="node"><title>Node14</title>
<g id="a_node14"><a xlink:href="MiniVector_8hpp.html" target="_top" xlink:title="stm/MiniVector.hpp">
<polygon fill="none" stroke="black" points="794.5,-112.5 794.5,-131.5 895.5,-131.5 895.5,-112.5 794.5,-112.5"/>
<text text-anchor="middle" x="845" y="-119.5" font-family="Helvetica,sans-Serif" font-size="10.00">stm/MiniVector.hpp</text>
</a>
</g>
</g>
<!-- Node13&#45;&gt;Node14 -->
<g id="edge16" class="edge"><title>Node13&#45;&gt;Node14</title>
<path fill="none" stroke="midnightblue" d="M599.268,-168.444C650.741,-158.925 733.893,-143.547 788.999,-133.356"/>
<polygon fill="midnightblue" stroke="midnightblue" points="789.751,-136.777 798.948,-131.516 788.478,-129.893 789.751,-136.777"/>
</g>
<!-- Node18 -->
<g id="node18" class="node"><title>Node18</title>
<g id="a_node18"><a xlink:href="BitFilter_8hpp.html" target="_top" xlink:title="stm/BitFilter.hpp">
<polygon fill="none" stroke="black" points="287.5,-56.5 287.5,-75.5 376.5,-75.5 376.5,-56.5 287.5,-56.5"/>
<text text-anchor="middle" x="332" y="-63.5" font-family="Helvetica,sans-Serif" font-size="10.00">stm/BitFilter.hpp</text>
</a>
</g>
</g>
<!-- Node13&#45;&gt;Node18 -->
<g id="edge21" class="edge"><title>Node13&#45;&gt;Node18</title>
<path fill="none" stroke="midnightblue" d="M535.659,-168.368C497.089,-149.171 404.009,-102.842 358.267,-80.074"/>
<polygon fill="midnightblue" stroke="midnightblue" points="359.773,-76.9141 349.261,-75.5914 356.654,-83.1807 359.773,-76.9141"/>
</g>
<!-- Node14&#45;&gt;Node10 -->
<g id="edge20" class="edge"><title>Node14&#45;&gt;Node10</title>
<path fill="none" stroke="midnightblue" d="M794.171,-117.955C696.652,-111.897 476.319,-97.1627 279.867,-76.0296"/>
<polygon fill="midnightblue" stroke="midnightblue" points="279.962,-72.5194 269.643,-74.9215 279.207,-79.4786 279.962,-72.5194"/>
</g>
<!-- Node15 -->
<g id="node15" class="node"><title>Node15</title>
<polygon fill="none" stroke="#bfbfbf" points="977.5,-56.5 977.5,-75.5 1026.5,-75.5 1026.5,-56.5 977.5,-56.5"/>
<text text-anchor="middle" x="1002" y="-63.5" font-family="Helvetica,sans-Serif" font-size="10.00">cassert</text>
</g>
<!-- Node14&#45;&gt;Node15 -->
<g id="edge17" class="edge"><title>Node14&#45;&gt;Node15</title>
<path fill="none" stroke="midnightblue" d="M869.877,-112.444C896.367,-103.332 938.462,-88.8539 968.002,-78.6936"/>
<polygon fill="midnightblue" stroke="midnightblue" points="969.18,-81.9898 977.498,-75.4275 966.903,-75.3704 969.18,-81.9898"/>
</g>
<!-- Node16 -->
<g id="node16" class="node"><title>Node16</title>
<polygon fill="none" stroke="#bfbfbf" points="914.5,-56.5 914.5,-75.5 959.5,-75.5 959.5,-56.5 914.5,-56.5"/>
<text text-anchor="middle" x="937" y="-63.5" font-family="Helvetica,sans-Serif" font-size="10.00">cstdlib</text>
</g>
<!-- Node14&#45;&gt;Node16 -->
<g id="edge18" class="edge"><title>Node14&#45;&gt;Node16</title>
<path fill="none" stroke="midnightblue" d="M859.781,-112.324C874.267,-103.822 896.573,-90.7288 913.493,-80.7975"/>
<polygon fill="midnightblue" stroke="midnightblue" points="915.403,-83.735 922.255,-75.6545 911.859,-77.6981 915.403,-83.735"/>
</g>
<!-- Node17 -->
<g id="node17" class="node"><title>Node17</title>
<polygon fill="none" stroke="#bfbfbf" points="808.5,-56.5 808.5,-75.5 857.5,-75.5 857.5,-56.5 808.5,-56.5"/>
<text text-anchor="middle" x="833" y="-63.5" font-family="Helvetica,sans-Serif" font-size="10.00">string.h</text>
</g>
<!-- Node14&#45;&gt;Node17 -->
<g id="edge19" class="edge"><title>Node14&#45;&gt;Node17</title>
<path fill="none" stroke="midnightblue" d="M843.018,-112.083C841.428,-104.927 839.141,-94.6353 837.154,-85.6911"/>
<polygon fill="midnightblue" stroke="midnightblue" points="840.531,-84.7537 834.945,-75.7511 833.697,-86.2722 840.531,-84.7537"/>
</g>
<!-- Node18&#45;&gt;Node7 -->
<g id="edge22" class="edge"><title>Node18&#45;&gt;Node7</title>
<path fill="none" stroke="midnightblue" d="M376.525,-58.051C442.36,-47.7762 565.061,-28.6263 631.829,-18.2059"/>
<polygon fill="midnightblue" stroke="midnightblue" points="632.707,-21.6113 642.047,-16.6111 631.627,-14.6951 632.707,-21.6113"/>
</g>
<!-- Node18&#45;&gt;Node11 -->
<g id="edge23" class="edge"><title>Node18&#45;&gt;Node11</title>
<path fill="none" stroke="midnightblue" d="M327.872,-56.083C324.486,-48.77 319.584,-38.1814 315.381,-29.1034"/>
<polygon fill="midnightblue" stroke="midnightblue" points="318.429,-27.3553 311.051,-19.7511 312.077,-30.2962 318.429,-27.3553"/>
</g>
<!-- Node19&#45;&gt;Node13 -->
<g id="edge32" class="edge"><title>Node19&#45;&gt;Node13</title>
<path fill="none" stroke="midnightblue" d="M630.284,-280.455C615.705,-272.67 595.338,-259.964 582,-244 570.622,-230.382 562.884,-211.588 558.282,-197.71"/>
<polygon fill="midnightblue" stroke="midnightblue" points="561.53,-196.364 555.254,-187.827 554.837,-198.414 561.53,-196.364"/>
</g>
<!-- Node20 -->
<g id="node20" class="node"><title>Node20</title>
<g id="a_node20"><a xlink:href="rand__r__32_8h.html" target="_top" xlink:title="alt&#45;license/rand_r_32.h">
<polygon fill="none" stroke="black" points="590.5,-224.5 590.5,-243.5 705.5,-243.5 705.5,-224.5 590.5,-224.5"/>
<text text-anchor="middle" x="648" y="-231.5" font-family="Helvetica,sans-Serif" font-size="10.00">alt&#45;license/rand_r_32.h</text>
</a>
</g>
</g>
<!-- Node19&#45;&gt;Node20 -->
<g id="edge25" class="edge"><title>Node19&#45;&gt;Node20</title>
<path fill="none" stroke="midnightblue" d="M648,-280.083C648,-273.006 648,-262.861 648,-253.986"/>
<polygon fill="midnightblue" stroke="midnightblue" points="651.5,-253.751 648,-243.751 644.5,-253.751 651.5,-253.751"/>
</g>
<!-- Node22 -->
<g id="node22" class="node"><title>Node22</title>
<g id="a_node22"><a xlink:href="locks_8hpp.html" target="_top" xlink:title="common/locks.hpp">
<polygon fill="none" stroke="black" points="277.5,-112.5 277.5,-131.5 376.5,-131.5 376.5,-112.5 277.5,-112.5"/>
<text text-anchor="middle" x="327" y="-119.5" font-family="Helvetica,sans-Serif" font-size="10.00">common/locks.hpp</text>
</a>
</g>
</g>
<!-- Node19&#45;&gt;Node22 -->
<g id="edge28" class="edge"><title>Node19&#45;&gt;Node22</title>
<path fill="none" stroke="midnightblue" d="M602.678,-286.261C514.782,-280.485 328.072,-265.771 309,-244 283.673,-215.089 303.151,-166.583 316.743,-140.636"/>
<polygon fill="midnightblue" stroke="midnightblue" points="319.964,-142.042 321.726,-131.594 313.834,-138.663 319.964,-142.042"/>
</g>
<!-- Node23 -->
<g id="node23" class="node"><title>Node23</title>
<g id="a_node23"><a xlink:href="ThreadLocal_8hpp.html" target="_top" xlink:title="common/ThreadLocal.hpp">
<polygon fill="none" stroke="black" points="875.5,-224.5 875.5,-243.5 1004.5,-243.5 1004.5,-224.5 875.5,-224.5"/>
<text text-anchor="middle" x="940" y="-231.5" font-family="Helvetica,sans-Serif" font-size="10.00">common/ThreadLocal.hpp</text>
</a>
</g>
</g>
<!-- Node19&#45;&gt;Node23 -->
<g id="edge30" class="edge"><title>Node19&#45;&gt;Node23</title>
<path fill="none" stroke="midnightblue" d="M693.305,-280.622C744.578,-271.14 828.156,-255.683 883.61,-245.428"/>
<polygon fill="midnightblue" stroke="midnightblue" points="884.427,-248.837 893.623,-243.577 883.154,-241.953 884.427,-248.837"/>
</g>
<!-- Node24 -->
<g id="node24" class="node"><title>Node24</title>
<g id="a_node24"><a xlink:href="WriteSet_8hpp.html" target="_top" xlink:title="stm/WriteSet.hpp">
<polygon fill="none" stroke="black" points="990.5,-112.5 990.5,-131.5 1083.5,-131.5 1083.5,-112.5 990.5,-112.5"/>
<text text-anchor="middle" x="1037" y="-119.5" font-family="Helvetica,sans-Serif" font-size="10.00">stm/WriteSet.hpp</text>
</a>
</g>
</g>
<!-- Node19&#45;&gt;Node24 -->
<g id="edge33" class="edge"><title>Node19&#45;&gt;Node24</title>
<path fill="none" stroke="midnightblue" d="M693.2,-289.775C780.454,-290.286 967.518,-286.271 1013,-244 1041.28,-217.72 1041.63,-168.461 1039.37,-141.61"/>
<polygon fill="midnightblue" stroke="midnightblue" points="1042.84,-141.184 1038.31,-131.607 1035.88,-141.92 1042.84,-141.184"/>
</g>
<!-- Node26 -->
<g id="node26" class="node"><title>Node26</title>
<g id="a_node26"><a xlink:href="UndoLog_8hpp.html" target="_top" xlink:title="stm/UndoLog.hpp">
<polygon fill="none" stroke="black" points="1099,-168.5 1099,-187.5 1193,-187.5 1193,-168.5 1099,-168.5"/>
<text text-anchor="middle" x="1146" y="-175.5" font-family="Helvetica,sans-Serif" font-size="10.00">stm/UndoLog.hpp</text>
</a>
</g>
</g>
<!-- Node19&#45;&gt;Node26 -->
<g id="edge38" class="edge"><title>Node19&#45;&gt;Node26</title>
<path fill="none" stroke="midnightblue" d="M693.236,-286.547C783.505,-281.222 982.83,-267.18 1047,-244 1078.53,-232.612 1110.05,-209.367 1128.79,-193.985"/>
<polygon fill="midnightblue" stroke="midnightblue" points="1131.05,-196.657 1136.45,-187.542 1126.54,-191.298 1131.05,-196.657"/>
</g>
<!-- Node28 -->
<g id="node28" class="node"><title>Node28</title>
<g id="a_node28"><a xlink:href="ValueList_8hpp.html" target="_top" xlink:title="stm/ValueList.hpp">
<polygon fill="none" stroke="black" points="799.5,-168.5 799.5,-187.5 894.5,-187.5 894.5,-168.5 799.5,-168.5"/>
<text text-anchor="middle" x="847" y="-175.5" font-family="Helvetica,sans-Serif" font-size="10.00">stm/ValueList.hpp</text>
</a>
</g>
</g>
<!-- Node19&#45;&gt;Node28 -->
<g id="edge43" class="edge"><title>Node19&#45;&gt;Node28</title>
<path fill="none" stroke="midnightblue" d="M693.169,-289.46C733.328,-287.416 791.092,-278.081 827,-244 839.569,-232.071 844.3,-212.456 846.048,-197.888"/>
<polygon fill="midnightblue" stroke="midnightblue" points="849.569,-197.785 846.905,-187.531 842.593,-197.209 849.569,-197.785"/>
</g>
<!-- Node29 -->
<g id="node29" class="node"><title>Node29</title>
<g id="a_node29"><a xlink:href="WBMMPolicy_8hpp.html" target="_top" xlink:title="WBMMPolicy.hpp">
<polygon fill="none" stroke="black" points="723.5,-224.5 723.5,-243.5 818.5,-243.5 818.5,-224.5 723.5,-224.5"/>
<text text-anchor="middle" x="771" y="-231.5" font-family="Helvetica,sans-Serif" font-size="10.00">WBMMPolicy.hpp</text>
</a>
</g>
</g>
<!-- Node19&#45;&gt;Node29 -->
<g id="edge46" class="edge"><title>Node19&#45;&gt;Node29</title>
<path fill="none" stroke="midnightblue" d="M667.49,-280.444C687.642,-271.596 719.323,-257.687 742.331,-247.586"/>
<polygon fill="midnightblue" stroke="midnightblue" points="743.852,-250.741 751.601,-243.516 741.038,-244.332 743.852,-250.741"/>
</g>
<!-- Node20&#45;&gt;Node7 -->
<g id="edge27" class="edge"><title>Node20&#45;&gt;Node7</title>
<path fill="none" stroke="midnightblue" d="M647.473,-224.144C646.846,-211.611 646.107,-187.997 648,-168 652.78,-117.515 666.023,-59.1045 673.21,-29.8091"/>
<polygon fill="midnightblue" stroke="midnightblue" points="676.691,-30.3186 675.719,-19.7685 669.899,-28.622 676.691,-30.3186"/>
</g>
<!-- Node21 -->
<g id="node21" class="node"><title>Node21</title>
<polygon fill="none" stroke="#bfbfbf" points="657,-168.5 657,-187.5 705,-187.5 705,-168.5 657,-168.5"/>
<text text-anchor="middle" x="681" y="-175.5" font-family="Helvetica,sans-Serif" font-size="10.00">stdlib.h</text>
</g>
<!-- Node20&#45;&gt;Node21 -->
<g id="edge26" class="edge"><title>Node20&#45;&gt;Node21</title>
<path fill="none" stroke="midnightblue" d="M653.449,-224.083C658.014,-216.613 664.668,-205.724 670.293,-196.52"/>
<polygon fill="midnightblue" stroke="midnightblue" points="673.424,-198.109 675.652,-187.751 667.451,-194.459 673.424,-198.109"/>
</g>
<!-- Node22&#45;&gt;Node10 -->
<g id="edge29" class="edge"><title>Node22&#45;&gt;Node10</title>
<path fill="none" stroke="midnightblue" d="M309.095,-112.444C290.746,-103.675 261.995,-89.9355 240.906,-79.8579"/>
<polygon fill="midnightblue" stroke="midnightblue" points="242.353,-76.6703 231.821,-75.5164 239.335,-82.9862 242.353,-76.6703"/>
</g>
<!-- Node23&#45;&gt;Node7 -->
<g id="edge31" class="edge"><title>Node23&#45;&gt;Node7</title>
<path fill="none" stroke="midnightblue" d="M939.479,-224.382C937.176,-194.791 925.182,-96.9044 866,-56 823.586,-26.6852 764.374,-16.3487 723.8,-12.7695"/>
<polygon fill="midnightblue" stroke="midnightblue" points="723.892,-9.26621 713.651,-11.9804 723.349,-16.2451 723.892,-9.26621"/>
</g>
<!-- Node24&#45;&gt;Node7 -->
<g id="edge34" class="edge"><title>Node24&#45;&gt;Node7</title>
<path fill="none" stroke="midnightblue" d="M1039.93,-112.114C1043.9,-98.2234 1048.98,-71.3676 1035,-56 1014.36,-33.3062 815.208,-18.9445 723.643,-13.4895"/>
<polygon fill="midnightblue" stroke="midnightblue" points="723.739,-9.98925 713.552,-12.8985 723.33,-16.9773 723.739,-9.98925"/>
</g>
<!-- Node24&#45;&gt;Node15 -->
<g id="edge37" class="edge"><title>Node24&#45;&gt;Node15</title>
<path fill="none" stroke="midnightblue" d="M1031.22,-112.083C1026.33,-104.534 1019.17,-93.4948 1013.17,-84.2298"/>
<polygon fill="midnightblue" stroke="midnightblue" points="1016.05,-82.239 1007.67,-75.7511 1010.17,-86.0463 1016.05,-82.239"/>
</g>
<!-- Node24&#45;&gt;Node16 -->
<g id="edge35" class="edge"><title>Node24&#45;&gt;Node16</title>
<path fill="none" stroke="midnightblue" d="M1020.93,-112.324C1005.04,-103.743 980.493,-90.486 962.042,-80.5224"/>
<polygon fill="midnightblue" stroke="midnightblue" points="963.489,-77.3264 953.027,-75.6545 960.163,-83.4857 963.489,-77.3264"/>
</g>
<!-- Node25 -->
<g id="node25" class="node"><title>Node25</title>
<polygon fill="none" stroke="#bfbfbf" points="1083,-56.5 1083,-75.5 1129,-75.5 1129,-56.5 1083,-56.5"/>
<text text-anchor="middle" x="1106" y="-63.5" font-family="Helvetica,sans-Serif" font-size="10.00">cstring</text>
</g>
<!-- Node24&#45;&gt;Node25 -->
<g id="edge36" class="edge"><title>Node24&#45;&gt;Node25</title>
<path fill="none" stroke="midnightblue" d="M1048.09,-112.324C1058.49,-104.185 1074.26,-91.8395 1086.72,-82.0874"/>
<polygon fill="midnightblue" stroke="midnightblue" points="1088.99,-84.7533 1094.71,-75.8339 1084.68,-79.2407 1088.99,-84.7533"/>
</g>
<!-- Node26&#45;&gt;Node7 -->
<g id="edge39" class="edge"><title>Node26&#45;&gt;Node7</title>
<path fill="none" stroke="midnightblue" d="M1161.73,-168.236C1173.89,-160.481 1189.81,-147.929 1197,-132 1212.79,-97.0175 1189.38,-74.9481 1156,-56 1083.03,-14.5735 829.18,-10.4743 724.096,-10.6125"/>
<polygon fill="midnightblue" stroke="midnightblue" points="723.799,-7.11324 713.809,-10.6404 723.818,-14.1132 723.799,-7.11324"/>
</g>
<!-- Node26&#45;&gt;Node14 -->
<g id="edge40" class="edge"><title>Node26&#45;&gt;Node14</title>
<path fill="none" stroke="midnightblue" d="M1098.97,-168.562C1045.94,-159.048 959.681,-143.574 902.639,-133.341"/>
<polygon fill="midnightblue" stroke="midnightblue" points="903.155,-129.877 892.694,-131.556 901.919,-136.767 903.155,-129.877"/>
</g>
<!-- Node27 -->
<g id="node27" class="node"><title>Node27</title>
<g id="a_node27"><a xlink:href="include_2stm_2macros_8hpp.html" target="_top" xlink:title="stm/macros.hpp">
<polygon fill="none" stroke="black" points="1101.5,-112.5 1101.5,-131.5 1188.5,-131.5 1188.5,-112.5 1101.5,-112.5"/>
<text text-anchor="middle" x="1145" y="-119.5" font-family="Helvetica,sans-Serif" font-size="10.00">stm/macros.hpp</text>
</a>
</g>
</g>
<!-- Node26&#45;&gt;Node27 -->
<g id="edge41" class="edge"><title>Node26&#45;&gt;Node27</title>
<path fill="none" stroke="midnightblue" d="M1145.83,-168.083C1145.7,-161.006 1145.52,-150.861 1145.35,-141.986"/>
<polygon fill="midnightblue" stroke="midnightblue" points="1148.85,-141.685 1145.16,-131.751 1141.85,-141.814 1148.85,-141.685"/>
</g>
<!-- Node27&#45;&gt;Node7 -->
<g id="edge42" class="edge"><title>Node27&#45;&gt;Node7</title>
<path fill="none" stroke="midnightblue" d="M1147.08,-112.41C1149.9,-98.4367 1153,-70.8546 1138,-56 1108.93,-27.2153 834.293,-15.7351 723.756,-12.2555"/>
<polygon fill="midnightblue" stroke="midnightblue" points="723.687,-8.75181 713.585,-11.9434 723.473,-15.7485 723.687,-8.75181"/>
</g>
<!-- Node28&#45;&gt;Node7 -->
<g id="edge44" class="edge"><title>Node28&#45;&gt;Node7</title>
<path fill="none" stroke="midnightblue" d="M832.102,-168.454C818.844,-160.319 799.515,-147.102 786,-132 759.972,-102.916 768.358,-84.7861 742,-56 730.707,-43.6664 715.474,-32.7879 702.702,-24.8175"/>
<polygon fill="midnightblue" stroke="midnightblue" points="704.303,-21.6967 693.929,-19.5485 700.699,-27.6976 704.303,-21.6967"/>
</g>
<!-- Node28&#45;&gt;Node14 -->
<g id="edge45" class="edge"><title>Node28&#45;&gt;Node14</title>
<path fill="none" stroke="midnightblue" d="M846.67,-168.083C846.408,-161.006 846.032,-150.861 845.703,-141.986"/>
<polygon fill="midnightblue" stroke="midnightblue" points="849.192,-141.615 845.324,-131.751 842.197,-141.874 849.192,-141.615"/>
</g>
<!-- Node29&#45;&gt;Node7 -->
<g id="edge48" class="edge"><title>Node29&#45;&gt;Node7</title>
<path fill="none" stroke="midnightblue" d="M767.354,-224.297C753.612,-191.494 704.762,-74.8835 685.699,-29.3774"/>
<polygon fill="midnightblue" stroke="midnightblue" points="688.814,-27.7548 681.722,-19.8837 682.357,-30.4595 688.814,-27.7548"/>
</g>
<!-- Node29&#45;&gt;Node13 -->
<g id="edge50" class="edge"><title>Node29&#45;&gt;Node13</title>
<path fill="none" stroke="midnightblue" d="M736.457,-224.444C698.747,-215.102 638.26,-200.119 597.135,-189.933"/>
<polygon fill="midnightblue" stroke="midnightblue" points="597.929,-186.524 587.381,-187.516 596.246,-193.318 597.929,-186.524"/>
</g>
<!-- Node29&#45;&gt;Node14 -->
<g id="edge49" class="edge"><title>Node29&#45;&gt;Node14</title>
<path fill="none" stroke="midnightblue" d="M772.063,-224.33C774.008,-211.195 779.093,-185.888 791,-168 799.11,-155.816 811.474,-145.171 822.325,-137.297"/>
<polygon fill="midnightblue" stroke="midnightblue" points="824.345,-140.156 830.594,-131.601 820.373,-134.392 824.345,-140.156"/>
</g>
<!-- Node29&#45;&gt;Node21 -->
<g id="edge47" class="edge"><title>Node29&#45;&gt;Node21</title>
<path fill="none" stroke="midnightblue" d="M756.54,-224.324C742.5,-215.9 720.952,-202.971 704.457,-193.074"/>
<polygon fill="midnightblue" stroke="midnightblue" points="705.8,-189.798 695.424,-187.655 702.198,-195.801 705.8,-189.798"/>
</g>
<!-- Node30&#45;&gt;Node7 -->
<g id="edge52" class="edge"><title>Node30&#45;&gt;Node7</title>
<path fill="none" stroke="midnightblue" d="M371.067,-224.293C378.44,-195.245 406.32,-100.956 467,-56 492.729,-36.9381 578.213,-23.2652 632.154,-16.2859"/>
<polygon fill="midnightblue" stroke="midnightblue" points="632.684,-19.7468 642.166,-15.0202 631.806,-12.8021 632.684,-19.7468"/>
</g>
<!-- Node30&#45;&gt;Node13 -->
<g id="edge53" class="edge"><title>Node30&#45;&gt;Node13</title>
<path fill="none" stroke="midnightblue" d="M398.155,-224.444C429.513,-215.241 479.531,-200.562 514.197,-190.388"/>
<polygon fill="midnightblue" stroke="midnightblue" points="515.371,-193.691 523.981,-187.516 513.4,-186.974 515.371,-193.691"/>
</g>
<!-- Node31&#45;&gt;Node6 -->
<g id="edge58" class="edge"><title>Node31&#45;&gt;Node6</title>
<path fill="none" stroke="midnightblue" d="M453.56,-392.444C432.33,-383.557 398.901,-369.563 374.745,-359.451"/>
<polygon fill="midnightblue" stroke="midnightblue" points="375.921,-356.149 365.345,-355.516 373.218,-362.606 375.921,-356.149"/>
</g>
<!-- Node31&#45;&gt;Node7 -->
<g id="edge56" class="edge"><title>Node31&#45;&gt;Node7</title>
<path fill="none" stroke="midnightblue" d="M474.779,-392.367C478.537,-350.824 494.705,-173.263 497,-168 523.551,-107.1 544.108,-97.4859 596,-56 612.116,-43.1155 632.435,-31.9353 648.814,-23.9417"/>
<polygon fill="midnightblue" stroke="midnightblue" points="650.405,-27.0612 657.942,-19.6147 647.406,-20.736 650.405,-27.0612"/>
</g>
<!-- Node31&#45;&gt;Node16 -->
<g id="edge55" class="edge"><title>Node31&#45;&gt;Node16</title>
<path fill="none" stroke="midnightblue" d="M513.193,-395.661C626.687,-379.319 951.436,-326.055 1013,-244 1033.17,-217.12 974.833,-123.362 948.822,-84.2948"/>
<polygon fill="midnightblue" stroke="midnightblue" points="951.463,-81.9517 942.973,-75.6147 945.658,-85.8635 951.463,-81.9517"/>
</g>
<!-- Node31&#45;&gt;Node19 -->
<g id="edge57" class="edge"><title>Node31&#45;&gt;Node19</title>
<path fill="none" stroke="midnightblue" d="M487.653,-392.368C517.639,-373.412 589.472,-328.001 625.946,-304.942"/>
<polygon fill="midnightblue" stroke="midnightblue" points="627.828,-307.893 634.41,-299.591 624.087,-301.977 627.828,-307.893"/>
</g>
<!-- Node32&#45;&gt;Node7 -->
<g id="edge60" class="edge"><title>Node32&#45;&gt;Node7</title>
<path fill="none" stroke="midnightblue" d="M515.727,-449.506C518.863,-448.983 521.98,-448.475 525,-448 605.888,-435.272 1255,-428.884 1255,-347 1255,-347 1255,-347 1255,-121 1255,-77.8889 1222.51,-73.2482 1183,-56 1101.22,-20.3 832.221,-12.9219 723.847,-11.3972"/>
<polygon fill="midnightblue" stroke="midnightblue" points="723.613,-7.89392 713.568,-11.2635 723.522,-14.8933 723.613,-7.89392"/>
</g>
<!-- Node32&#45;&gt;Node8 -->
<g id="edge61" class="edge"><title>Node32&#45;&gt;Node8</title>
<path fill="none" stroke="midnightblue" d="M459.63,-448.33C448.12,-440.469 432.811,-427.722 426,-412 410.877,-377.092 429.507,-332.707 442.492,-308.572"/>
<polygon fill="midnightblue" stroke="midnightblue" points="445.716,-309.982 447.596,-299.555 439.624,-306.533 445.716,-309.982"/>
</g>
<!-- Node32&#45;&gt;Node13 -->
<g id="edge62" class="edge"><title>Node32&#45;&gt;Node13</title>
<path fill="none" stroke="midnightblue" d="M487.398,-448.399C498.627,-440.41 514.06,-427.441 522,-412 559.106,-339.839 557.272,-239.209 554.603,-197.868"/>
<polygon fill="midnightblue" stroke="midnightblue" points="558.075,-197.361 553.843,-187.648 551.095,-197.88 558.075,-197.361"/>
</g>
<!-- Node32&#45;&gt;Node19 -->
<g id="edge63" class="edge"><title>Node32&#45;&gt;Node19</title>
<path fill="none" stroke="midnightblue" d="M494.76,-448.346C512.053,-440.495 536.721,-427.753 555,-412 591.145,-380.85 622.46,-333.645 637.853,-308.39"/>
<polygon fill="midnightblue" stroke="midnightblue" points="640.991,-309.961 643.115,-299.582 634.982,-306.371 640.991,-309.961"/>
</g>
<!-- Node32&#45;&gt;Node31 -->
<g id="edge64" class="edge"><title>Node32&#45;&gt;Node31</title>
<path fill="none" stroke="midnightblue" d="M474,-448.083C474,-441.006 474,-430.861 474,-421.986"/>
<polygon fill="midnightblue" stroke="midnightblue" points="477.5,-421.751 474,-411.751 470.5,-421.751 477.5,-421.751"/>
</g>
</g>
</svg>
