<?xml version="1.0" encoding="UTF-8" standalone="no"?>
<!DOCTYPE svg PUBLIC "-//W3C//DTD SVG 1.1//EN"
 "http://www.w3.org/Graphics/SVG/1.1/DTD/svg11.dtd">
<!-- Generated by graphviz version 2.36.0 (20140111.2315)
 -->
<!-- Title: rstm/rstm&#45;dev/libitm2stm/CheckOffsets.h Pages: 1 -->
<svg width="275pt" height="108pt"
 viewBox="0.00 0.00 275.00 108.00" xmlns="http://www.w3.org/2000/svg" xmlns:xlink="http://www.w3.org/1999/xlink">
<g id="graph0" class="graph" transform="scale(1 1) rotate(0) translate(4 104)">
<title>rstm/rstm&#45;dev/libitm2stm/CheckOffsets.h</title>
<!-- Node1 -->
<g id="node1" class="node"><title>Node1</title>
<polygon fill="#bfbfbf" stroke="black" points="70.5,-69 70.5,-99 195.5,-99 195.5,-69 70.5,-69"/>
<text text-anchor="start" x="78.5" y="-87" font-family="Helvetica,sans-Serif" font-size="10.00">rstm/rstm&#45;dev/libitm2stm</text>
<text text-anchor="middle" x="133" y="-76" font-family="Helvetica,sans-Serif" font-size="10.00">/CheckOffsets.h</text>
</g>
<!-- Node2 -->
<g id="node2" class="node"><title>Node2</title>
<g id="a_node2"><a xlink:href="Scope_8cpp.html" target="_top" xlink:title="rstm/rstm&#45;dev/libitm2stm\l/Scope.cpp">
<polygon fill="none" stroke="black" points="-0.5,-1 -0.5,-31 124.5,-31 124.5,-1 -0.5,-1"/>
<text text-anchor="start" x="7.5" y="-19" font-family="Helvetica,sans-Serif" font-size="10.00">rstm/rstm&#45;dev/libitm2stm</text>
<text text-anchor="middle" x="62" y="-8" font-family="Helvetica,sans-Serif" font-size="10.00">/Scope.cpp</text>
</a>
</g>
</g>
<!-- Node1&#45;&gt;Node2 -->
<g id="edge1" class="edge"><title>Node1&#45;&gt;Node2</title>
<path fill="none" stroke="midnightblue" d="M110.168,-61.7762C99.4477,-51.8105 86.9529,-40.1956 77.3759,-31.2931"/>
<polygon fill="midnightblue" stroke="midnightblue" points="107.887,-64.434 117.594,-68.679 112.653,-59.307 107.887,-64.434"/>
</g>
<!-- Node3 -->
<g id="node3" class="node"><title>Node3</title>
<g id="a_node3"><a xlink:href="Transaction_8cpp.html" target="_top" xlink:title="rstm/rstm&#45;dev/libitm2stm\l/Transaction.cpp">
<polygon fill="none" stroke="black" points="142.5,-1 142.5,-31 267.5,-31 267.5,-1 142.5,-1"/>
<text text-anchor="start" x="150.5" y="-19" font-family="Helvetica,sans-Serif" font-size="10.00">rstm/rstm&#45;dev/libitm2stm</text>
<text text-anchor="middle" x="205" y="-8" font-family="Helvetica,sans-Serif" font-size="10.00">/Transaction.cpp</text>
</a>
</g>
</g>
<!-- Node1&#45;&gt;Node3 -->
<g id="edge2" class="edge"><title>Node1&#45;&gt;Node3</title>
<path fill="none" stroke="midnightblue" d="M156.153,-61.7762C167.025,-51.8105 179.696,-40.1956 189.408,-31.2931"/>
<polygon fill="midnightblue" stroke="midnightblue" points="153.629,-59.3417 148.623,-68.679 158.36,-64.5018 153.629,-59.3417"/>
</g>
</g>
</svg>
