<?xml version="1.0" encoding="UTF-8" standalone="no"?>
<!DOCTYPE svg PUBLIC "-//W3C//DTD SVG 1.1//EN"
 "http://www.w3.org/Graphics/SVG/1.1/DTD/svg11.dtd">
<!-- Generated by graphviz version 2.36.0 (20140111.2315)
 -->
<!-- Title: Display Pages: 1 -->
<svg width="215pt" height="204pt"
 viewBox="0.00 0.00 215.00 204.00" xmlns="http://www.w3.org/2000/svg" xmlns:xlink="http://www.w3.org/1999/xlink">
<g id="graph0" class="graph" transform="scale(1 1) rotate(0) translate(4 200)">
<title>Display</title>
<!-- Node1 -->
<g id="node1" class="node"><title>Node1</title>
<polygon fill="#bfbfbf" stroke="black" points="74.5,-0.5 74.5,-79.5 147.5,-79.5 147.5,-0.5 74.5,-0.5"/>
<text text-anchor="middle" x="111" y="-67.5" font-family="Helvetica,sans-Serif" font-size="10.00">Display</text>
<polyline fill="none" stroke="black" points="74.5,-60.5 147.5,-60.5 "/>
<text text-anchor="middle" x="111" y="-48.5" font-family="Helvetica,sans-Serif" font-size="10.00"> </text>
<polyline fill="none" stroke="black" points="74.5,-41.5 147.5,-41.5 "/>
<text text-anchor="start" x="82.5" y="-29.5" font-family="Helvetica,sans-Serif" font-size="10.00">+ main()</text>
<text text-anchor="start" x="82.5" y="-18.5" font-family="Helvetica,sans-Serif" font-size="10.00">&#45; buildUI()</text>
<text text-anchor="start" x="82.5" y="-7.5" font-family="Helvetica,sans-Serif" font-size="10.00">&#45; parseArgs()</text>
</g>
<!-- Node2 -->
<g id="node2" class="node"><title>Node2</title>
<g id="a_node2"><a xlink:href="classJApplet.html" target="_top" xlink:title="{JApplet\n||}">
<polygon fill="none" stroke="black" points="0,-138.5 0,-195.5 50,-195.5 50,-138.5 0,-138.5"/>
<text text-anchor="middle" x="25" y="-183.5" font-family="Helvetica,sans-Serif" font-size="10.00">JApplet</text>
<polyline fill="none" stroke="black" points="0,-176.5 50,-176.5 "/>
<text text-anchor="middle" x="25" y="-164.5" font-family="Helvetica,sans-Serif" font-size="10.00"> </text>
<polyline fill="none" stroke="black" points="0,-157.5 50,-157.5 "/>
<text text-anchor="middle" x="25" y="-145.5" font-family="Helvetica,sans-Serif" font-size="10.00"> </text>
</a>
</g>
</g>
<!-- Node2&#45;&gt;Node1 -->
<g id="edge1" class="edge"><title>Node2&#45;&gt;Node1</title>
<path fill="none" stroke="midnightblue" d="M49.8919,-129.82C60.7309,-114.066 73.448,-95.5814 84.4661,-79.5667"/>
<polygon fill="none" stroke="midnightblue" points="46.8708,-128.036 44.0862,-138.258 52.6378,-132.004 46.8708,-128.036"/>
</g>
<!-- Node3 -->
<g id="node3" class="node"><title>Node3</title>
<polygon fill="none" stroke="#bfbfbf" points="68.5,-138.5 68.5,-195.5 153.5,-195.5 153.5,-138.5 68.5,-138.5"/>
<text text-anchor="middle" x="111" y="-183.5" font-family="Helvetica,sans-Serif" font-size="10.00">BufferedReader</text>
<polyline fill="none" stroke="#bfbfbf" points="68.5,-176.5 153.5,-176.5 "/>
<text text-anchor="middle" x="111" y="-164.5" font-family="Helvetica,sans-Serif" font-size="10.00"> </text>
<polyline fill="none" stroke="#bfbfbf" points="68.5,-157.5 153.5,-157.5 "/>
<text text-anchor="middle" x="111" y="-145.5" font-family="Helvetica,sans-Serif" font-size="10.00"> </text>
</g>
<!-- Node3&#45;&gt;Node1 -->
<g id="edge2" class="edge"><title>Node3&#45;&gt;Node1</title>
<path fill="none" stroke="#404040" d="M111,-138.258C111,-124.637 111,-107.787 111,-91.9595"/>
<polygon fill="none" stroke="#404040" points="111,-91.5667 107,-85.5668 111,-79.5667 115,-85.5667 111,-91.5667"/>
<text text-anchor="middle" x="120.5" y="-106.5" font-family="Helvetica,sans-Serif" font-size="10.00"> &#45;inp</text>
</g>
<!-- Node4 -->
<g id="node4" class="node"><title>Node4</title>
<polygon fill="none" stroke="#bfbfbf" points="171.5,-138.5 171.5,-195.5 200.5,-195.5 200.5,-138.5 171.5,-138.5"/>
<text text-anchor="middle" x="186" y="-183.5" font-family="Helvetica,sans-Serif" font-size="10.00">int</text>
<polyline fill="none" stroke="#bfbfbf" points="171.5,-176.5 200.5,-176.5 "/>
<text text-anchor="middle" x="186" y="-164.5" font-family="Helvetica,sans-Serif" font-size="10.00"> </text>
<polyline fill="none" stroke="#bfbfbf" points="171.5,-157.5 200.5,-157.5 "/>
<text text-anchor="middle" x="186" y="-145.5" font-family="Helvetica,sans-Serif" font-size="10.00"> </text>
</g>
<!-- Node4&#45;&gt;Node1 -->
<g id="edge3" class="edge"><title>Node4&#45;&gt;Node1</title>
<path fill="none" stroke="#404040" d="M171.361,-141.602C162.606,-127.01 151.163,-107.938 140.596,-90.3272"/>
<polygon fill="none" stroke="#404040" points="140.336,-89.894 133.819,-86.807 134.162,-79.6041 140.679,-82.691 140.336,-89.894"/>
<text text-anchor="middle" x="182.5" y="-112" font-family="Helvetica,sans-Serif" font-size="10.00"> &#45;hesitation</text>
<text text-anchor="middle" x="182.5" y="-101" font-family="Helvetica,sans-Serif" font-size="10.00">&#45;pixels</text>
</g>
</g>
</svg>
