<?xml version="1.0" encoding="UTF-8" standalone="no"?>
<!DOCTYPE svg PUBLIC "-//W3C//DTD SVG 1.1//EN"
 "http://www.w3.org/Graphics/SVG/1.1/DTD/svg11.dtd">
<!-- Generated by graphviz version 2.36.0 (20140111.2315)
 -->
<!-- Title: stm::MiniVector&lt; T &gt; Pages: 1 -->
<svg width="1481pt" height="382pt"
 viewBox="0.00 0.00 1481.00 382.00" xmlns="http://www.w3.org/2000/svg" xmlns:xlink="http://www.w3.org/1999/xlink">
<g id="graph0" class="graph" transform="scale(1 1) rotate(0) translate(4 378)">
<title>stm::MiniVector&lt; T &gt;</title>
<!-- Node1 -->
<g id="node1" class="node"><title>Node1</title>
<polygon fill="#bfbfbf" stroke="black" points="706,-217 706,-373 816,-373 816,-217 706,-217"/>
<text text-anchor="middle" x="761" y="-361" font-family="Helvetica,sans-Serif" font-size="10.00">stm::MiniVector&lt; T &gt;</text>
<polyline fill="none" stroke="black" points="706,-354 816,-354 "/>
<text text-anchor="start" x="714" y="-342" font-family="Helvetica,sans-Serif" font-size="10.00">&#45; m_cap</text>
<text text-anchor="start" x="714" y="-331" font-family="Helvetica,sans-Serif" font-size="10.00">&#45; m_size</text>
<text text-anchor="start" x="714" y="-320" font-family="Helvetica,sans-Serif" font-size="10.00">&#45; m_elements</text>
<polyline fill="none" stroke="black" points="706,-313 816,-313 "/>
<text text-anchor="start" x="714" y="-301" font-family="Helvetica,sans-Serif" font-size="10.00">+ MiniVector()</text>
<text text-anchor="start" x="714" y="-290" font-family="Helvetica,sans-Serif" font-size="10.00">+ ~MiniVector()</text>
<text text-anchor="start" x="714" y="-279" font-family="Helvetica,sans-Serif" font-size="10.00">+ reset()</text>
<text text-anchor="start" x="714" y="-268" font-family="Helvetica,sans-Serif" font-size="10.00">+ insert()</text>
<text text-anchor="start" x="714" y="-257" font-family="Helvetica,sans-Serif" font-size="10.00">+ size()</text>
<text text-anchor="start" x="714" y="-246" font-family="Helvetica,sans-Serif" font-size="10.00">+ begin()</text>
<text text-anchor="start" x="714" y="-235" font-family="Helvetica,sans-Serif" font-size="10.00">+ end()</text>
<text text-anchor="start" x="714" y="-224" font-family="Helvetica,sans-Serif" font-size="10.00">&#45; expand()</text>
</g>
<!-- Node2 -->
<g id="node2" class="node"><title>Node2</title>
<g id="a_node2"><a xlink:href="classstm_1_1UndoLog.html" target="_top" xlink:title="{stm::UndoLog\&lt; UndoLogEntry \&gt;\n||+ UndoLog()\l+ undo()\l}">
<polygon fill="none" stroke="black" points="0,-50 0,-118 158,-118 158,-50 0,-50"/>
<text text-anchor="middle" x="79" y="-106" font-family="Helvetica,sans-Serif" font-size="10.00">stm::UndoLog&lt; UndoLogEntry &gt;</text>
<polyline fill="none" stroke="black" points="0,-99 158,-99 "/>
<text text-anchor="middle" x="79" y="-87" font-family="Helvetica,sans-Serif" font-size="10.00"> </text>
<polyline fill="none" stroke="black" points="0,-80 158,-80 "/>
<text text-anchor="start" x="8" y="-68" font-family="Helvetica,sans-Serif" font-size="10.00">+ UndoLog()</text>
<text text-anchor="start" x="8" y="-57" font-family="Helvetica,sans-Serif" font-size="10.00">+ undo()</text>
</a>
</g>
</g>
<!-- Node1&#45;&gt;Node2 -->
<g id="edge1" class="edge"><title>Node1&#45;&gt;Node2</title>
<path fill="none" stroke="midnightblue" d="M695.364,-291.56C581.547,-284.912 342.899,-260.156 167,-168 143.747,-155.817 122.221,-135.743 106.279,-118.388"/>
<polygon fill="none" stroke="midnightblue" points="695.474,-295.072 705.653,-292.131 695.862,-288.082 695.474,-295.072"/>
</g>
<!-- Node3 -->
<g id="node3" class="node"><title>Node3</title>
<g id="a_node3"><a xlink:href="structstm_1_1ValueList.html" target="_top" xlink:title="{stm::ValueList\&lt; ValueList\lEntry \&gt;\n||+ ValueList()\l}">
<polygon fill="none" stroke="black" points="176.5,-50 176.5,-118 305.5,-118 305.5,-50 176.5,-50"/>
<text text-anchor="start" x="184.5" y="-106" font-family="Helvetica,sans-Serif" font-size="10.00">stm::ValueList&lt; ValueList</text>
<text text-anchor="middle" x="241" y="-95" font-family="Helvetica,sans-Serif" font-size="10.00">Entry &gt;</text>
<polyline fill="none" stroke="black" points="176.5,-88 305.5,-88 "/>
<text text-anchor="middle" x="241" y="-76" font-family="Helvetica,sans-Serif" font-size="10.00"> </text>
<polyline fill="none" stroke="black" points="176.5,-69 305.5,-69 "/>
<text text-anchor="start" x="184.5" y="-57" font-family="Helvetica,sans-Serif" font-size="10.00">+ ValueList()</text>
</a>
</g>
</g>
<!-- Node1&#45;&gt;Node3 -->
<g id="edge2" class="edge"><title>Node1&#45;&gt;Node3</title>
<path fill="none" stroke="midnightblue" d="M695.949,-287.205C604.754,-275.227 436.472,-243.987 315,-168 294.705,-155.305 276.709,-135.434 263.547,-118.319"/>
<polygon fill="none" stroke="midnightblue" points="695.51,-290.678 705.873,-288.473 696.397,-283.734 695.51,-290.678"/>
</g>
<!-- Node4 -->
<g id="node4" class="node"><title>Node4</title>
<g id="a_node4"><a xlink:href="classstm_1_1MiniVector.html" target="_top" xlink:title="{stm::MiniVector\&lt; nanorec_t \&gt;\n|&#45; m_cap\l&#45; m_size\l&#45; m_elements\l|+ MiniVector()\l+ ~MiniVector()\l+ reset()\l+ insert()\l+ size()\l+ begin()\l+ end()\l&#45; expand()\l}">
<polygon fill="none" stroke="black" points="324,-6 324,-162 470,-162 470,-6 324,-6"/>
<text text-anchor="middle" x="397" y="-150" font-family="Helvetica,sans-Serif" font-size="10.00">stm::MiniVector&lt; nanorec_t &gt;</text>
<polyline fill="none" stroke="black" points="324,-143 470,-143 "/>
<text text-anchor="start" x="332" y="-131" font-family="Helvetica,sans-Serif" font-size="10.00">&#45; m_cap</text>
<text text-anchor="start" x="332" y="-120" font-family="Helvetica,sans-Serif" font-size="10.00">&#45; m_size</text>
<text text-anchor="start" x="332" y="-109" font-family="Helvetica,sans-Serif" font-size="10.00">&#45; m_elements</text>
<polyline fill="none" stroke="black" points="324,-102 470,-102 "/>
<text text-anchor="start" x="332" y="-90" font-family="Helvetica,sans-Serif" font-size="10.00">+ MiniVector()</text>
<text text-anchor="start" x="332" y="-79" font-family="Helvetica,sans-Serif" font-size="10.00">+ ~MiniVector()</text>
<text text-anchor="start" x="332" y="-68" font-family="Helvetica,sans-Serif" font-size="10.00">+ reset()</text>
<text text-anchor="start" x="332" y="-57" font-family="Helvetica,sans-Serif" font-size="10.00">+ insert()</text>
<text text-anchor="start" x="332" y="-46" font-family="Helvetica,sans-Serif" font-size="10.00">+ size()</text>
<text text-anchor="start" x="332" y="-35" font-family="Helvetica,sans-Serif" font-size="10.00">+ begin()</text>
<text text-anchor="start" x="332" y="-24" font-family="Helvetica,sans-Serif" font-size="10.00">+ end()</text>
<text text-anchor="start" x="332" y="-13" font-family="Helvetica,sans-Serif" font-size="10.00">&#45; expand()</text>
</a>
</g>
</g>
<!-- Node1&#45;&gt;Node4 -->
<g id="edge3" class="edge"><title>Node1&#45;&gt;Node4</title>
<path fill="none" stroke="orange" d="M696.261,-272.883C636.694,-251.701 547.479,-215.437 479,-168 476.003,-165.924 473.022,-163.729 470.069,-161.443"/>
<polygon fill="orange" stroke="orange" points="695.33,-276.266 705.925,-276.28 697.652,-269.662 695.33,-276.266"/>
<text text-anchor="middle" x="554" y="-189.5" font-family="Helvetica,sans-Serif" font-size="10.00"> &lt; nanorec_t &gt;</text>
</g>
<!-- Node5 -->
<g id="node5" class="node"><title>Node5</title>
<g id="a_node5"><a xlink:href="classstm_1_1MiniVector.html" target="_top" xlink:title="{stm::MiniVector\&lt; rrec\l_t * \&gt;\n|&#45; m_cap\l&#45; m_size\l&#45; m_elements\l|+ MiniVector()\l+ ~MiniVector()\l+ reset()\l+ insert()\l+ size()\l+ begin()\l+ end()\l&#45; expand()\l}">
<polygon fill="none" stroke="black" points="488.5,-0.5 488.5,-167.5 599.5,-167.5 599.5,-0.5 488.5,-0.5"/>
<text text-anchor="start" x="496.5" y="-155.5" font-family="Helvetica,sans-Serif" font-size="10.00">stm::MiniVector&lt; rrec</text>
<text text-anchor="middle" x="544" y="-144.5" font-family="Helvetica,sans-Serif" font-size="10.00">_t * &gt;</text>
<polyline fill="none" stroke="black" points="488.5,-137.5 599.5,-137.5 "/>
<text text-anchor="start" x="496.5" y="-125.5" font-family="Helvetica,sans-Serif" font-size="10.00">&#45; m_cap</text>
<text text-anchor="start" x="496.5" y="-114.5" font-family="Helvetica,sans-Serif" font-size="10.00">&#45; m_size</text>
<text text-anchor="start" x="496.5" y="-103.5" font-family="Helvetica,sans-Serif" font-size="10.00">&#45; m_elements</text>
<polyline fill="none" stroke="black" points="488.5,-96.5 599.5,-96.5 "/>
<text text-anchor="start" x="496.5" y="-84.5" font-family="Helvetica,sans-Serif" font-size="10.00">+ MiniVector()</text>
<text text-anchor="start" x="496.5" y="-73.5" font-family="Helvetica,sans-Serif" font-size="10.00">+ ~MiniVector()</text>
<text text-anchor="start" x="496.5" y="-62.5" font-family="Helvetica,sans-Serif" font-size="10.00">+ reset()</text>
<text text-anchor="start" x="496.5" y="-51.5" font-family="Helvetica,sans-Serif" font-size="10.00">+ insert()</text>
<text text-anchor="start" x="496.5" y="-40.5" font-family="Helvetica,sans-Serif" font-size="10.00">+ size()</text>
<text text-anchor="start" x="496.5" y="-29.5" font-family="Helvetica,sans-Serif" font-size="10.00">+ begin()</text>
<text text-anchor="start" x="496.5" y="-18.5" font-family="Helvetica,sans-Serif" font-size="10.00">+ end()</text>
<text text-anchor="start" x="496.5" y="-7.5" font-family="Helvetica,sans-Serif" font-size="10.00">&#45; expand()</text>
</a>
</g>
</g>
<!-- Node1&#45;&gt;Node5 -->
<g id="edge4" class="edge"><title>Node1&#45;&gt;Node5</title>
<path fill="none" stroke="orange" d="M697.726,-247.138C669.034,-224.6 635.461,-196.356 608,-168 605.215,-165.124 602.436,-162.13 599.683,-159.058"/>
<polygon fill="orange" stroke="orange" points="695.642,-249.951 705.68,-253.339 699.945,-244.43 695.642,-249.951"/>
<text text-anchor="middle" x="662.5" y="-189.5" font-family="Helvetica,sans-Serif" font-size="10.00"> &lt; rrec_t * &gt;</text>
</g>
<!-- Node6 -->
<g id="node6" class="node"><title>Node6</title>
<g id="a_node6"><a xlink:href="classstm_1_1MiniVector.html" target="_top" xlink:title="{stm::MiniVector\&lt; ValueList\lEntry \&gt;\n|&#45; m_cap\l&#45; m_size\l&#45; m_elements\l|+ MiniVector()\l+ ~MiniVector()\l+ reset()\l+ insert()\l+ size()\l+ begin()\l+ end()\l&#45; expand()\l}">
<polygon fill="none" stroke="black" points="617.5,-0.5 617.5,-167.5 752.5,-167.5 752.5,-0.5 617.5,-0.5"/>
<text text-anchor="start" x="625.5" y="-155.5" font-family="Helvetica,sans-Serif" font-size="10.00">stm::MiniVector&lt; ValueList</text>
<text text-anchor="middle" x="685" y="-144.5" font-family="Helvetica,sans-Serif" font-size="10.00">Entry &gt;</text>
<polyline fill="none" stroke="black" points="617.5,-137.5 752.5,-137.5 "/>
<text text-anchor="start" x="625.5" y="-125.5" font-family="Helvetica,sans-Serif" font-size="10.00">&#45; m_cap</text>
<text text-anchor="start" x="625.5" y="-114.5" font-family="Helvetica,sans-Serif" font-size="10.00">&#45; m_size</text>
<text text-anchor="start" x="625.5" y="-103.5" font-family="Helvetica,sans-Serif" font-size="10.00">&#45; m_elements</text>
<polyline fill="none" stroke="black" points="617.5,-96.5 752.5,-96.5 "/>
<text text-anchor="start" x="625.5" y="-84.5" font-family="Helvetica,sans-Serif" font-size="10.00">+ MiniVector()</text>
<text text-anchor="start" x="625.5" y="-73.5" font-family="Helvetica,sans-Serif" font-size="10.00">+ ~MiniVector()</text>
<text text-anchor="start" x="625.5" y="-62.5" font-family="Helvetica,sans-Serif" font-size="10.00">+ reset()</text>
<text text-anchor="start" x="625.5" y="-51.5" font-family="Helvetica,sans-Serif" font-size="10.00">+ insert()</text>
<text text-anchor="start" x="625.5" y="-40.5" font-family="Helvetica,sans-Serif" font-size="10.00">+ size()</text>
<text text-anchor="start" x="625.5" y="-29.5" font-family="Helvetica,sans-Serif" font-size="10.00">+ begin()</text>
<text text-anchor="start" x="625.5" y="-18.5" font-family="Helvetica,sans-Serif" font-size="10.00">+ end()</text>
<text text-anchor="start" x="625.5" y="-7.5" font-family="Helvetica,sans-Serif" font-size="10.00">&#45; expand()</text>
</a>
</g>
</g>
<!-- Node1&#45;&gt;Node6 -->
<g id="edge5" class="edge"><title>Node1&#45;&gt;Node6</title>
<path fill="none" stroke="orange" d="M729.463,-207.274C724.681,-194.123 719.758,-180.584 715.009,-167.525"/>
<polygon fill="orange" stroke="orange" points="726.21,-208.568 732.916,-216.77 732.788,-206.176 726.21,-208.568"/>
<text text-anchor="middle" x="768.5" y="-189.5" font-family="Helvetica,sans-Serif" font-size="10.00"> &lt; ValueListEntry &gt;</text>
</g>
<!-- Node7 -->
<g id="node7" class="node"><title>Node7</title>
<g id="a_node7"><a xlink:href="classstm_1_1MiniVector.html" target="_top" xlink:title="{stm::MiniVector\&lt; UndoLog\lEntry \&gt;\n|&#45; m_cap\l&#45; m_size\l&#45; m_elements\l|+ MiniVector()\l+ ~MiniVector()\l+ reset()\l+ insert()\l+ size()\l+ begin()\l+ end()\l&#45; expand()\l}">
<polygon fill="none" stroke="black" points="771,-0.5 771,-167.5 905,-167.5 905,-0.5 771,-0.5"/>
<text text-anchor="start" x="779" y="-155.5" font-family="Helvetica,sans-Serif" font-size="10.00">stm::MiniVector&lt; UndoLog</text>
<text text-anchor="middle" x="838" y="-144.5" font-family="Helvetica,sans-Serif" font-size="10.00">Entry &gt;</text>
<polyline fill="none" stroke="black" points="771,-137.5 905,-137.5 "/>
<text text-anchor="start" x="779" y="-125.5" font-family="Helvetica,sans-Serif" font-size="10.00">&#45; m_cap</text>
<text text-anchor="start" x="779" y="-114.5" font-family="Helvetica,sans-Serif" font-size="10.00">&#45; m_size</text>
<text text-anchor="start" x="779" y="-103.5" font-family="Helvetica,sans-Serif" font-size="10.00">&#45; m_elements</text>
<polyline fill="none" stroke="black" points="771,-96.5 905,-96.5 "/>
<text text-anchor="start" x="779" y="-84.5" font-family="Helvetica,sans-Serif" font-size="10.00">+ MiniVector()</text>
<text text-anchor="start" x="779" y="-73.5" font-family="Helvetica,sans-Serif" font-size="10.00">+ ~MiniVector()</text>
<text text-anchor="start" x="779" y="-62.5" font-family="Helvetica,sans-Serif" font-size="10.00">+ reset()</text>
<text text-anchor="start" x="779" y="-51.5" font-family="Helvetica,sans-Serif" font-size="10.00">+ insert()</text>
<text text-anchor="start" x="779" y="-40.5" font-family="Helvetica,sans-Serif" font-size="10.00">+ size()</text>
<text text-anchor="start" x="779" y="-29.5" font-family="Helvetica,sans-Serif" font-size="10.00">+ begin()</text>
<text text-anchor="start" x="779" y="-18.5" font-family="Helvetica,sans-Serif" font-size="10.00">+ end()</text>
<text text-anchor="start" x="779" y="-7.5" font-family="Helvetica,sans-Serif" font-size="10.00">&#45; expand()</text>
</a>
</g>
</g>
<!-- Node1&#45;&gt;Node7 -->
<g id="edge6" class="edge"><title>Node1&#45;&gt;Node7</title>
<path fill="none" stroke="orange" d="M811.11,-207.746C812.492,-204.489 813.795,-201.234 815,-198 818.599,-188.338 821.681,-177.991 824.308,-167.624"/>
<polygon fill="orange" stroke="orange" points="807.898,-206.356 807.024,-216.915 814.292,-209.206 807.898,-206.356"/>
<text text-anchor="middle" x="862" y="-189.5" font-family="Helvetica,sans-Serif" font-size="10.00"> &lt; UndoLogEntry &gt;</text>
</g>
<!-- Node8 -->
<g id="node8" class="node"><title>Node8</title>
<g id="a_node8"><a xlink:href="classstm_1_1MiniVector.html" target="_top" xlink:title="{stm::MiniVector\&lt; bitlock\l_t * \&gt;\n|&#45; m_cap\l&#45; m_size\l&#45; m_elements\l|+ MiniVector()\l+ ~MiniVector()\l+ reset()\l+ insert()\l+ size()\l+ begin()\l+ end()\l&#45; expand()\l}">
<polygon fill="none" stroke="black" points="923.5,-0.5 923.5,-167.5 1046.5,-167.5 1046.5,-0.5 923.5,-0.5"/>
<text text-anchor="start" x="931.5" y="-155.5" font-family="Helvetica,sans-Serif" font-size="10.00">stm::MiniVector&lt; bitlock</text>
<text text-anchor="middle" x="985" y="-144.5" font-family="Helvetica,sans-Serif" font-size="10.00">_t * &gt;</text>
<polyline fill="none" stroke="black" points="923.5,-137.5 1046.5,-137.5 "/>
<text text-anchor="start" x="931.5" y="-125.5" font-family="Helvetica,sans-Serif" font-size="10.00">&#45; m_cap</text>
<text text-anchor="start" x="931.5" y="-114.5" font-family="Helvetica,sans-Serif" font-size="10.00">&#45; m_size</text>
<text text-anchor="start" x="931.5" y="-103.5" font-family="Helvetica,sans-Serif" font-size="10.00">&#45; m_elements</text>
<polyline fill="none" stroke="black" points="923.5,-96.5 1046.5,-96.5 "/>
<text text-anchor="start" x="931.5" y="-84.5" font-family="Helvetica,sans-Serif" font-size="10.00">+ MiniVector()</text>
<text text-anchor="start" x="931.5" y="-73.5" font-family="Helvetica,sans-Serif" font-size="10.00">+ ~MiniVector()</text>
<text text-anchor="start" x="931.5" y="-62.5" font-family="Helvetica,sans-Serif" font-size="10.00">+ reset()</text>
<text text-anchor="start" x="931.5" y="-51.5" font-family="Helvetica,sans-Serif" font-size="10.00">+ insert()</text>
<text text-anchor="start" x="931.5" y="-40.5" font-family="Helvetica,sans-Serif" font-size="10.00">+ size()</text>
<text text-anchor="start" x="931.5" y="-29.5" font-family="Helvetica,sans-Serif" font-size="10.00">+ begin()</text>
<text text-anchor="start" x="931.5" y="-18.5" font-family="Helvetica,sans-Serif" font-size="10.00">+ end()</text>
<text text-anchor="start" x="931.5" y="-7.5" font-family="Helvetica,sans-Serif" font-size="10.00">&#45; expand()</text>
</a>
</g>
</g>
<!-- Node1&#45;&gt;Node8 -->
<g id="edge7" class="edge"><title>Node1&#45;&gt;Node8</title>
<path fill="none" stroke="orange" d="M824.821,-259.886C852.251,-243.395 883.55,-221.975 908,-198 917.323,-188.858 926.194,-178.429 934.377,-167.687"/>
<polygon fill="orange" stroke="orange" points="822.892,-256.961 816.065,-265.063 826.455,-262.986 822.892,-256.961"/>
<text text-anchor="middle" x="951.5" y="-189.5" font-family="Helvetica,sans-Serif" font-size="10.00"> &lt; bitlock_t * &gt;</text>
</g>
<!-- Node9 -->
<g id="node9" class="node"><title>Node9</title>
<g id="a_node9"><a xlink:href="classstm_1_1MiniVector.html" target="_top" xlink:title="{stm::MiniVector\&lt; bytelock\l_t * \&gt;\n|&#45; m_cap\l&#45; m_size\l&#45; m_elements\l|+ MiniVector()\l+ ~MiniVector()\l+ reset()\l+ insert()\l+ size()\l+ begin()\l+ end()\l&#45; expand()\l}">
<polygon fill="none" stroke="black" points="1064.5,-0.5 1064.5,-167.5 1195.5,-167.5 1195.5,-0.5 1064.5,-0.5"/>
<text text-anchor="start" x="1072.5" y="-155.5" font-family="Helvetica,sans-Serif" font-size="10.00">stm::MiniVector&lt; bytelock</text>
<text text-anchor="middle" x="1130" y="-144.5" font-family="Helvetica,sans-Serif" font-size="10.00">_t * &gt;</text>
<polyline fill="none" stroke="black" points="1064.5,-137.5 1195.5,-137.5 "/>
<text text-anchor="start" x="1072.5" y="-125.5" font-family="Helvetica,sans-Serif" font-size="10.00">&#45; m_cap</text>
<text text-anchor="start" x="1072.5" y="-114.5" font-family="Helvetica,sans-Serif" font-size="10.00">&#45; m_size</text>
<text text-anchor="start" x="1072.5" y="-103.5" font-family="Helvetica,sans-Serif" font-size="10.00">&#45; m_elements</text>
<polyline fill="none" stroke="black" points="1064.5,-96.5 1195.5,-96.5 "/>
<text text-anchor="start" x="1072.5" y="-84.5" font-family="Helvetica,sans-Serif" font-size="10.00">+ MiniVector()</text>
<text text-anchor="start" x="1072.5" y="-73.5" font-family="Helvetica,sans-Serif" font-size="10.00">+ ~MiniVector()</text>
<text text-anchor="start" x="1072.5" y="-62.5" font-family="Helvetica,sans-Serif" font-size="10.00">+ reset()</text>
<text text-anchor="start" x="1072.5" y="-51.5" font-family="Helvetica,sans-Serif" font-size="10.00">+ insert()</text>
<text text-anchor="start" x="1072.5" y="-40.5" font-family="Helvetica,sans-Serif" font-size="10.00">+ size()</text>
<text text-anchor="start" x="1072.5" y="-29.5" font-family="Helvetica,sans-Serif" font-size="10.00">+ begin()</text>
<text text-anchor="start" x="1072.5" y="-18.5" font-family="Helvetica,sans-Serif" font-size="10.00">+ end()</text>
<text text-anchor="start" x="1072.5" y="-7.5" font-family="Helvetica,sans-Serif" font-size="10.00">&#45; expand()</text>
</a>
</g>
</g>
<!-- Node1&#45;&gt;Node9 -->
<g id="edge8" class="edge"><title>Node1&#45;&gt;Node9</title>
<path fill="none" stroke="orange" d="M826.01,-275.438C888.615,-255.511 984.005,-219.599 1055,-168 1058.14,-165.716 1061.25,-163.283 1064.31,-160.737"/>
<polygon fill="orange" stroke="orange" points="824.747,-272.166 816.253,-278.499 826.842,-278.845 824.747,-272.166"/>
<text text-anchor="middle" x="1063.5" y="-189.5" font-family="Helvetica,sans-Serif" font-size="10.00"> &lt; bytelock_t * &gt;</text>
</g>
<!-- Node10 -->
<g id="node10" class="node"><title>Node10</title>
<g id="a_node10"><a xlink:href="classstm_1_1MiniVector.html" target="_top" xlink:title="{stm::MiniVector\&lt; orec\l_t * \&gt;\n|&#45; m_cap\l&#45; m_size\l&#45; m_elements\l|+ MiniVector()\l+ ~MiniVector()\l+ reset()\l+ insert()\l+ size()\l+ begin()\l+ end()\l&#45; expand()\l}">
<polygon fill="none" stroke="black" points="1213.5,-0.5 1213.5,-167.5 1326.5,-167.5 1326.5,-0.5 1213.5,-0.5"/>
<text text-anchor="start" x="1221.5" y="-155.5" font-family="Helvetica,sans-Serif" font-size="10.00">stm::MiniVector&lt; orec</text>
<text text-anchor="middle" x="1270" y="-144.5" font-family="Helvetica,sans-Serif" font-size="10.00">_t * &gt;</text>
<polyline fill="none" stroke="black" points="1213.5,-137.5 1326.5,-137.5 "/>
<text text-anchor="start" x="1221.5" y="-125.5" font-family="Helvetica,sans-Serif" font-size="10.00">&#45; m_cap</text>
<text text-anchor="start" x="1221.5" y="-114.5" font-family="Helvetica,sans-Serif" font-size="10.00">&#45; m_size</text>
<text text-anchor="start" x="1221.5" y="-103.5" font-family="Helvetica,sans-Serif" font-size="10.00">&#45; m_elements</text>
<polyline fill="none" stroke="black" points="1213.5,-96.5 1326.5,-96.5 "/>
<text text-anchor="start" x="1221.5" y="-84.5" font-family="Helvetica,sans-Serif" font-size="10.00">+ MiniVector()</text>
<text text-anchor="start" x="1221.5" y="-73.5" font-family="Helvetica,sans-Serif" font-size="10.00">+ ~MiniVector()</text>
<text text-anchor="start" x="1221.5" y="-62.5" font-family="Helvetica,sans-Serif" font-size="10.00">+ reset()</text>
<text text-anchor="start" x="1221.5" y="-51.5" font-family="Helvetica,sans-Serif" font-size="10.00">+ insert()</text>
<text text-anchor="start" x="1221.5" y="-40.5" font-family="Helvetica,sans-Serif" font-size="10.00">+ size()</text>
<text text-anchor="start" x="1221.5" y="-29.5" font-family="Helvetica,sans-Serif" font-size="10.00">+ begin()</text>
<text text-anchor="start" x="1221.5" y="-18.5" font-family="Helvetica,sans-Serif" font-size="10.00">+ end()</text>
<text text-anchor="start" x="1221.5" y="-7.5" font-family="Helvetica,sans-Serif" font-size="10.00">&#45; expand()</text>
</a>
</g>
</g>
<!-- Node1&#45;&gt;Node10 -->
<g id="edge9" class="edge"><title>Node1&#45;&gt;Node10</title>
<path fill="none" stroke="orange" d="M826.008,-288.319C917.416,-277.651 1085.94,-247.945 1204,-168 1207.2,-165.832 1210.32,-163.462 1213.35,-160.936"/>
<polygon fill="orange" stroke="orange" points="825.605,-284.842 816.06,-289.44 826.389,-291.798 825.605,-284.842"/>
<text text-anchor="middle" x="1200.5" y="-189.5" font-family="Helvetica,sans-Serif" font-size="10.00"> &lt; orec_t * &gt;</text>
</g>
<!-- Node11 -->
<g id="node11" class="node"><title>Node11</title>
<g id="a_node11"><a xlink:href="classstm_1_1MiniVector.html" target="_top" xlink:title="{stm::MiniVector\&lt; void * \&gt;\n|&#45; m_cap\l&#45; m_size\l&#45; m_elements\l|+ MiniVector()\l+ ~MiniVector()\l+ reset()\l+ insert()\l+ size()\l+ begin()\l+ end()\l&#45; expand()\l}">
<polygon fill="none" stroke="black" points="1345,-6 1345,-162 1473,-162 1473,-6 1345,-6"/>
<text text-anchor="middle" x="1409" y="-150" font-family="Helvetica,sans-Serif" font-size="10.00">stm::MiniVector&lt; void * &gt;</text>
<polyline fill="none" stroke="black" points="1345,-143 1473,-143 "/>
<text text-anchor="start" x="1353" y="-131" font-family="Helvetica,sans-Serif" font-size="10.00">&#45; m_cap</text>
<text text-anchor="start" x="1353" y="-120" font-family="Helvetica,sans-Serif" font-size="10.00">&#45; m_size</text>
<text text-anchor="start" x="1353" y="-109" font-family="Helvetica,sans-Serif" font-size="10.00">&#45; m_elements</text>
<polyline fill="none" stroke="black" points="1345,-102 1473,-102 "/>
<text text-anchor="start" x="1353" y="-90" font-family="Helvetica,sans-Serif" font-size="10.00">+ MiniVector()</text>
<text text-anchor="start" x="1353" y="-79" font-family="Helvetica,sans-Serif" font-size="10.00">+ ~MiniVector()</text>
<text text-anchor="start" x="1353" y="-68" font-family="Helvetica,sans-Serif" font-size="10.00">+ reset()</text>
<text text-anchor="start" x="1353" y="-57" font-family="Helvetica,sans-Serif" font-size="10.00">+ insert()</text>
<text text-anchor="start" x="1353" y="-46" font-family="Helvetica,sans-Serif" font-size="10.00">+ size()</text>
<text text-anchor="start" x="1353" y="-35" font-family="Helvetica,sans-Serif" font-size="10.00">+ begin()</text>
<text text-anchor="start" x="1353" y="-24" font-family="Helvetica,sans-Serif" font-size="10.00">+ end()</text>
<text text-anchor="start" x="1353" y="-13" font-family="Helvetica,sans-Serif" font-size="10.00">&#45; expand()</text>
</a>
</g>
</g>
<!-- Node1&#45;&gt;Node11 -->
<g id="edge10" class="edge"><title>Node1&#45;&gt;Node11</title>
<path fill="none" stroke="orange" d="M826.422,-293.73C938.954,-290.369 1172.69,-270.449 1335,-168 1338.27,-165.939 1341.47,-163.694 1344.61,-161.305"/>
<polygon fill="orange" stroke="orange" points="826.148,-290.236 816.243,-293.998 826.332,-297.233 826.148,-290.236"/>
<text text-anchor="middle" x="1317" y="-189.5" font-family="Helvetica,sans-Serif" font-size="10.00"> &lt; void * &gt;</text>
</g>
</g>
</svg>
