<?xml version="1.0" encoding="UTF-8" standalone="no"?>
<!DOCTYPE svg PUBLIC "-//W3C//DTD SVG 1.1//EN"
 "http://www.w3.org/Graphics/SVG/1.1/DTD/svg11.dtd">
<!-- Generated by graphviz version 2.36.0 (20140111.2315)
 -->
<!-- Title: SetAdaptor&lt; TransList &gt; Pages: 1 -->
<!--zoomable 1066 -->
<svg id="main" version="1.1" xmlns="http://www.w3.org/2000/svg" xmlns:xlink="http://www.w3.org/1999/xlink" xml:space="preserve" onload="init(evt)">
<style type="text/css"><![CDATA[
.edge:hover path { stroke: red; }
.edge:hover polygon { stroke: red; fill: red; }
]]></style>
<script type="text/javascript"><![CDATA[
var edges = document.getElementsByTagName('g');
if (edges && edges.length) {
  for (var i=0;i<edges.length;i++) {
    if (edges[i].id.substr(0,4)=='edge') {
      edges[i].setAttribute('class','edge');
    }
  }
}
]]></script>
        <defs>
                <circle id="rim" cx="0" cy="0" r="7"/>
                <circle id="rim2" cx="0" cy="0" r="3.5"/>
                <g id="zoomPlus">
                        <use xlink:href="#rim" fill="#404040">
                                <set attributeName="fill" to="#808080" begin="zoomplus.mouseover" end="zoomplus.mouseout"/>
                        </use>
                        <path d="M-4,0h8M0,-4v8" fill="none" stroke="white" stroke-width="1.5" pointer-events="none"/>
                </g>
                <g id="zoomMin">
                        <use xlink:href="#rim" fill="#404040">
                                <set attributeName="fill" to="#808080" begin="zoomminus.mouseover" end="zoomminus.mouseout"/>
                        </use>
                        <path d="M-4,0h8" fill="none" stroke="white" stroke-width="1.5" pointer-events="none"/>
                </g>
                <g id="dirArrow">
                        <path fill="none" stroke="white" stroke-width="1.5" d="M0,-3.0v7 M-2.5,-0.5L0,-3.0L2.5,-0.5"/>
                </g>
               <g id="resetDef">
                       <use xlink:href="#rim2" fill="#404040">
                               <set attributeName="fill" to="#808080" begin="reset.mouseover" end="reset.mouseout"/>
                       </use>
               </g>
        </defs>

<script type="text/javascript">
var viewWidth = 1048;
var viewHeight = 1066;
var sectionId = 'dynsection-0';
</script>
<script xlink:href="svgpan.js"/>
<svg id="graph" class="graph">
<g id="viewport">
<title>SetAdaptor&lt; TransList &gt;</title>
<!-- Node1 -->
<g id="node1" class="node"><title>Node1</title>
<polygon fill="#bfbfbf" stroke="black" points="611.226,-1 611.226,-91 735.226,-91 735.226,-1 611.226,-1"/>
<text text-anchor="middle" x="673.226" y="-79" font-family="Helvetica,sans-Serif" font-size="10.00">SetAdaptor&lt; TransList &gt;</text>
<polyline fill="none" stroke="black" points="611.226,-72 735.226,-72 "/>
<text text-anchor="middle" x="673.226" y="-60" font-family="Helvetica,sans-Serif" font-size="10.00"> </text>
<polyline fill="none" stroke="black" points="611.226,-53 735.226,-53 "/>
<text text-anchor="start" x="619.226" y="-41" font-family="Helvetica,sans-Serif" font-size="10.00">+ SetAdaptor()</text>
<text text-anchor="start" x="619.226" y="-30" font-family="Helvetica,sans-Serif" font-size="10.00">+ Init()</text>
<text text-anchor="start" x="619.226" y="-19" font-family="Helvetica,sans-Serif" font-size="10.00">+ Uninit()</text>
<text text-anchor="start" x="619.226" y="-8" font-family="Helvetica,sans-Serif" font-size="10.00">+ ExecuteOps()</text>
</g>
<!-- Node2 -->
<g id="node2" class="node"><title>Node2</title>
<g id="a_node2"><a xlink:href="classAllocator.html" target="_top" xlink:title="{Allocator\&lt; TransList\l::Desc \&gt;\n||+ Allocator()\l+ ~Allocator()\l+ Init()\l+ Uninit()\l+ Alloc()\l}">
<polygon fill="none" stroke="black" points="724.226,-433 724.226,-545 828.226,-545 828.226,-433 724.226,-433"/>
<text text-anchor="start" x="732.226" y="-533" font-family="Helvetica,sans-Serif" font-size="10.00">Allocator&lt; TransList</text>
<text text-anchor="middle" x="776.226" y="-522" font-family="Helvetica,sans-Serif" font-size="10.00">::Desc &gt;</text>
<polyline fill="none" stroke="black" points="724.226,-515 828.226,-515 "/>
<text text-anchor="middle" x="776.226" y="-503" font-family="Helvetica,sans-Serif" font-size="10.00"> </text>
<polyline fill="none" stroke="black" points="724.226,-496 828.226,-496 "/>
<text text-anchor="start" x="732.226" y="-484" font-family="Helvetica,sans-Serif" font-size="10.00">+ Allocator()</text>
<text text-anchor="start" x="732.226" y="-473" font-family="Helvetica,sans-Serif" font-size="10.00">+ ~Allocator()</text>
<text text-anchor="start" x="732.226" y="-462" font-family="Helvetica,sans-Serif" font-size="10.00">+ Init()</text>
<text text-anchor="start" x="732.226" y="-451" font-family="Helvetica,sans-Serif" font-size="10.00">+ Uninit()</text>
<text text-anchor="start" x="732.226" y="-440" font-family="Helvetica,sans-Serif" font-size="10.00">+ Alloc()</text>
</a>
</g>
</g>
<!-- Node2&#45;&gt;Node1 -->
<g id="edge1" class="edge"><title>Node2&#45;&gt;Node1</title>
<path fill="none" stroke="#404040" d="M796.905,-432.973C820.247,-361.293 849.143,-234.044 801.226,-140 789.061,-116.125 767.581,-96.9412 745.652,-82.3404"/>
<polygon fill="none" stroke="#404040" points="745.374,-82.1649 738.165,-82.3364 735.234,-75.7478 742.443,-75.5763 745.374,-82.1649"/>
<text text-anchor="middle" x="865.726" y="-254.5" font-family="Helvetica,sans-Serif" font-size="10.00"> &#45;m_descAllocator</text>
</g>
<!-- Node8 -->
<g id="node8" class="node"><title>Node8</title>
<g id="a_node8"><a xlink:href="classTransList.html" target="_top" xlink:title="{TransList\n||+ TransList()\l+ ~TransList()\l+ ExecuteOps()\l+ AllocateDesc()\l&#45; Insert()\l&#45; Delete()\l&#45; Find()\l&#45; HelpOps()\l&#45; IsSameOperation()\l&#45; FinishPendingTxn()\l&#45; IsNodeExist()\l&#45; IsNodeActive()\l&#45; IsKeyExist()\l&#45; LocatePred()\l&#45; MarkForDeletion()\l&#45; Print()\l&#45; ASSERT_CODE()\l}">
<polygon fill="none" stroke="black" points="562.726,-140.5 562.726,-373.5 669.726,-373.5 669.726,-140.5 562.726,-140.5"/>
<text text-anchor="middle" x="616.226" y="-361.5" font-family="Helvetica,sans-Serif" font-size="10.00">TransList</text>
<polyline fill="none" stroke="black" points="562.726,-354.5 669.726,-354.5 "/>
<text text-anchor="middle" x="616.226" y="-342.5" font-family="Helvetica,sans-Serif" font-size="10.00"> </text>
<polyline fill="none" stroke="black" points="562.726,-335.5 669.726,-335.5 "/>
<text text-anchor="start" x="570.726" y="-323.5" font-family="Helvetica,sans-Serif" font-size="10.00">+ TransList()</text>
<text text-anchor="start" x="570.726" y="-312.5" font-family="Helvetica,sans-Serif" font-size="10.00">+ ~TransList()</text>
<text text-anchor="start" x="570.726" y="-301.5" font-family="Helvetica,sans-Serif" font-size="10.00">+ ExecuteOps()</text>
<text text-anchor="start" x="570.726" y="-290.5" font-family="Helvetica,sans-Serif" font-size="10.00">+ AllocateDesc()</text>
<text text-anchor="start" x="570.726" y="-279.5" font-family="Helvetica,sans-Serif" font-size="10.00">&#45; Insert()</text>
<text text-anchor="start" x="570.726" y="-268.5" font-family="Helvetica,sans-Serif" font-size="10.00">&#45; Delete()</text>
<text text-anchor="start" x="570.726" y="-257.5" font-family="Helvetica,sans-Serif" font-size="10.00">&#45; Find()</text>
<text text-anchor="start" x="570.726" y="-246.5" font-family="Helvetica,sans-Serif" font-size="10.00">&#45; HelpOps()</text>
<text text-anchor="start" x="570.726" y="-235.5" font-family="Helvetica,sans-Serif" font-size="10.00">&#45; IsSameOperation()</text>
<text text-anchor="start" x="570.726" y="-224.5" font-family="Helvetica,sans-Serif" font-size="10.00">&#45; FinishPendingTxn()</text>
<text text-anchor="start" x="570.726" y="-213.5" font-family="Helvetica,sans-Serif" font-size="10.00">&#45; IsNodeExist()</text>
<text text-anchor="start" x="570.726" y="-202.5" font-family="Helvetica,sans-Serif" font-size="10.00">&#45; IsNodeActive()</text>
<text text-anchor="start" x="570.726" y="-191.5" font-family="Helvetica,sans-Serif" font-size="10.00">&#45; IsKeyExist()</text>
<text text-anchor="start" x="570.726" y="-180.5" font-family="Helvetica,sans-Serif" font-size="10.00">&#45; LocatePred()</text>
<text text-anchor="start" x="570.726" y="-169.5" font-family="Helvetica,sans-Serif" font-size="10.00">&#45; MarkForDeletion()</text>
<text text-anchor="start" x="570.726" y="-158.5" font-family="Helvetica,sans-Serif" font-size="10.00">&#45; Print()</text>
<text text-anchor="start" x="570.726" y="-147.5" font-family="Helvetica,sans-Serif" font-size="10.00">&#45; ASSERT_CODE()</text>
</a>
</g>
</g>
<!-- Node2&#45;&gt;Node8 -->
<g id="edge16" class="edge"><title>Node2&#45;&gt;Node8</title>
<path fill="none" stroke="#404040" d="M730.391,-432.815C715.773,-414.471 699.863,-393.695 686.226,-374 682.967,-369.292 679.694,-364.431 676.44,-359.488"/>
<polygon fill="none" stroke="#404040" points="676.329,-359.317 669.708,-356.46 669.798,-349.25 676.419,-352.106 676.329,-359.317"/>
<text text-anchor="middle" x="753.726" y="-400.5" font-family="Helvetica,sans-Serif" font-size="10.00"> &#45;m_descAllocator</text>
</g>
<!-- Node3 -->
<g id="node3" class="node"><title>Node3</title>
<polygon fill="none" stroke="#bfbfbf" points="467.726,-788.5 467.726,-845.5 518.726,-845.5 518.726,-788.5 467.726,-788.5"/>
<text text-anchor="middle" x="493.226" y="-833.5" font-family="Helvetica,sans-Serif" font-size="10.00">uint64_t</text>
<polyline fill="none" stroke="#bfbfbf" points="467.726,-826.5 518.726,-826.5 "/>
<text text-anchor="middle" x="493.226" y="-814.5" font-family="Helvetica,sans-Serif" font-size="10.00"> </text>
<polyline fill="none" stroke="#bfbfbf" points="467.726,-807.5 518.726,-807.5 "/>
<text text-anchor="middle" x="493.226" y="-795.5" font-family="Helvetica,sans-Serif" font-size="10.00"> </text>
</g>
<!-- Node3&#45;&gt;Node2 -->
<g id="edge2" class="edge"><title>Node3&#45;&gt;Node2</title>
<path fill="none" stroke="#404040" d="M518.757,-813.462C565.783,-808.237 663.294,-794.646 685.226,-770 737.596,-711.151 656.126,-654.793 706.226,-594 722.853,-573.825 745.174,-595.816 762.226,-576 767.025,-570.424 770.505,-563.862 772.996,-556.892"/>
<polygon fill="none" stroke="#404040" points="773.009,-556.845 770.763,-549.993 776.225,-545.284 778.471,-552.137 773.009,-556.845"/>
<text text-anchor="middle" x="741.226" y="-664.5" font-family="Helvetica,sans-Serif" font-size="10.00"> &#45;m_freeIndex</text>
<text text-anchor="middle" x="741.226" y="-653.5" font-family="Helvetica,sans-Serif" font-size="10.00">&#45;m_ticket</text>
<text text-anchor="middle" x="741.226" y="-642.5" font-family="Helvetica,sans-Serif" font-size="10.00">&#45;m_threadCount</text>
<text text-anchor="middle" x="741.226" y="-631.5" font-family="Helvetica,sans-Serif" font-size="10.00">&#45;m_typeSize</text>
<text text-anchor="middle" x="741.226" y="-620.5" font-family="Helvetica,sans-Serif" font-size="10.00">&#45;m_totalBytes</text>
</g>
<!-- Node5 -->
<g id="node5" class="node"><title>Node5</title>
<g id="a_node5"><a xlink:href="classAllocator.html" target="_top" xlink:title="{Allocator\&lt; DataType \&gt;\n||+ Allocator()\l+ ~Allocator()\l+ Init()\l+ Uninit()\l+ Alloc()\l}">
<polygon fill="none" stroke="black" points="547.226,-594.5 547.226,-695.5 663.226,-695.5 663.226,-594.5 547.226,-594.5"/>
<text text-anchor="middle" x="605.226" y="-683.5" font-family="Helvetica,sans-Serif" font-size="10.00">Allocator&lt; DataType &gt;</text>
<polyline fill="none" stroke="black" points="547.226,-676.5 663.226,-676.5 "/>
<text text-anchor="middle" x="605.226" y="-664.5" font-family="Helvetica,sans-Serif" font-size="10.00"> </text>
<polyline fill="none" stroke="black" points="547.226,-657.5 663.226,-657.5 "/>
<text text-anchor="start" x="555.226" y="-645.5" font-family="Helvetica,sans-Serif" font-size="10.00">+ Allocator()</text>
<text text-anchor="start" x="555.226" y="-634.5" font-family="Helvetica,sans-Serif" font-size="10.00">+ ~Allocator()</text>
<text text-anchor="start" x="555.226" y="-623.5" font-family="Helvetica,sans-Serif" font-size="10.00">+ Init()</text>
<text text-anchor="start" x="555.226" y="-612.5" font-family="Helvetica,sans-Serif" font-size="10.00">+ Uninit()</text>
<text text-anchor="start" x="555.226" y="-601.5" font-family="Helvetica,sans-Serif" font-size="10.00">+ Alloc()</text>
</a>
</g>
</g>
<!-- Node3&#45;&gt;Node5 -->
<g id="edge5" class="edge"><title>Node3&#45;&gt;Node5</title>
<path fill="none" stroke="#404040" d="M511.47,-788.308C526.155,-766.019 547.323,-733.889 565.831,-705.796"/>
<polygon fill="none" stroke="#404040" points="565.91,-705.676 565.871,-698.465 572.512,-695.655 572.552,-702.866 565.91,-705.676"/>
<text text-anchor="middle" x="595.226" y="-761.5" font-family="Helvetica,sans-Serif" font-size="10.00"> &#45;m_freeIndex</text>
<text text-anchor="middle" x="595.226" y="-750.5" font-family="Helvetica,sans-Serif" font-size="10.00">&#45;m_ticket</text>
<text text-anchor="middle" x="595.226" y="-739.5" font-family="Helvetica,sans-Serif" font-size="10.00">&#45;m_threadCount</text>
<text text-anchor="middle" x="595.226" y="-728.5" font-family="Helvetica,sans-Serif" font-size="10.00">&#45;m_typeSize</text>
<text text-anchor="middle" x="595.226" y="-717.5" font-family="Helvetica,sans-Serif" font-size="10.00">&#45;m_totalBytes</text>
</g>
<!-- Node6 -->
<g id="node6" class="node"><title>Node6</title>
<g id="a_node6"><a xlink:href="classAllocator.html" target="_top" xlink:title="{Allocator\&lt; TransList\l::Node \&gt;\n||+ Allocator()\l+ ~Allocator()\l+ Init()\l+ Uninit()\l+ Alloc()\l}">
<polygon fill="none" stroke="black" points="562.226,-433 562.226,-545 666.226,-545 666.226,-433 562.226,-433"/>
<text text-anchor="start" x="570.226" y="-533" font-family="Helvetica,sans-Serif" font-size="10.00">Allocator&lt; TransList</text>
<text text-anchor="middle" x="614.226" y="-522" font-family="Helvetica,sans-Serif" font-size="10.00">::Node &gt;</text>
<polyline fill="none" stroke="black" points="562.226,-515 666.226,-515 "/>
<text text-anchor="middle" x="614.226" y="-503" font-family="Helvetica,sans-Serif" font-size="10.00"> </text>
<polyline fill="none" stroke="black" points="562.226,-496 666.226,-496 "/>
<text text-anchor="start" x="570.226" y="-484" font-family="Helvetica,sans-Serif" font-size="10.00">+ Allocator()</text>
<text text-anchor="start" x="570.226" y="-473" font-family="Helvetica,sans-Serif" font-size="10.00">+ ~Allocator()</text>
<text text-anchor="start" x="570.226" y="-462" font-family="Helvetica,sans-Serif" font-size="10.00">+ Init()</text>
<text text-anchor="start" x="570.226" y="-451" font-family="Helvetica,sans-Serif" font-size="10.00">+ Uninit()</text>
<text text-anchor="start" x="570.226" y="-440" font-family="Helvetica,sans-Serif" font-size="10.00">+ Alloc()</text>
</a>
</g>
</g>
<!-- Node3&#45;&gt;Node6 -->
<g id="edge8" class="edge"><title>Node3&#45;&gt;Node6</title>
<path fill="none" stroke="#404040" d="M479.631,-788.469C459.684,-743.741 428.885,-654.238 468.226,-594 479.108,-577.338 492.26,-586.401 509.226,-576 523.998,-566.944 538.946,-555.995 552.751,-544.988"/>
<polygon fill="none" stroke="#404040" points="552.798,-544.95 554.931,-538.062 562.11,-537.381 559.977,-544.27 552.798,-544.95"/>
<text text-anchor="middle" x="503.226" y="-664.5" font-family="Helvetica,sans-Serif" font-size="10.00"> &#45;m_freeIndex</text>
<text text-anchor="middle" x="503.226" y="-653.5" font-family="Helvetica,sans-Serif" font-size="10.00">&#45;m_ticket</text>
<text text-anchor="middle" x="503.226" y="-642.5" font-family="Helvetica,sans-Serif" font-size="10.00">&#45;m_threadCount</text>
<text text-anchor="middle" x="503.226" y="-631.5" font-family="Helvetica,sans-Serif" font-size="10.00">&#45;m_typeSize</text>
<text text-anchor="middle" x="503.226" y="-620.5" font-family="Helvetica,sans-Serif" font-size="10.00">&#45;m_totalBytes</text>
</g>
<!-- Node7 -->
<g id="node7" class="node"><title>Node7</title>
<g id="a_node7"><a xlink:href="classAllocator.html" target="_top" xlink:title="{Allocator\&lt; TransList\l::NodeDesc \&gt;\n||+ Allocator()\l+ ~Allocator()\l+ Init()\l+ Uninit()\l+ Alloc()\l}">
<polygon fill="none" stroke="black" points="339.226,-433 339.226,-545 443.226,-545 443.226,-433 339.226,-433"/>
<text text-anchor="start" x="347.226" y="-533" font-family="Helvetica,sans-Serif" font-size="10.00">Allocator&lt; TransList</text>
<text text-anchor="middle" x="391.226" y="-522" font-family="Helvetica,sans-Serif" font-size="10.00">::NodeDesc &gt;</text>
<polyline fill="none" stroke="black" points="339.226,-515 443.226,-515 "/>
<text text-anchor="middle" x="391.226" y="-503" font-family="Helvetica,sans-Serif" font-size="10.00"> </text>
<polyline fill="none" stroke="black" points="339.226,-496 443.226,-496 "/>
<text text-anchor="start" x="347.226" y="-484" font-family="Helvetica,sans-Serif" font-size="10.00">+ Allocator()</text>
<text text-anchor="start" x="347.226" y="-473" font-family="Helvetica,sans-Serif" font-size="10.00">+ ~Allocator()</text>
<text text-anchor="start" x="347.226" y="-462" font-family="Helvetica,sans-Serif" font-size="10.00">+ Init()</text>
<text text-anchor="start" x="347.226" y="-451" font-family="Helvetica,sans-Serif" font-size="10.00">+ Uninit()</text>
<text text-anchor="start" x="347.226" y="-440" font-family="Helvetica,sans-Serif" font-size="10.00">+ Alloc()</text>
</a>
</g>
</g>
<!-- Node3&#45;&gt;Node7 -->
<g id="edge12" class="edge"><title>Node3&#45;&gt;Node7</title>
<path fill="none" stroke="#404040" d="M467.391,-809.657C421.923,-796.939 328.773,-763.564 290.226,-696 267.762,-656.624 273.185,-636.008 290.226,-594 295.026,-582.168 311.886,-563.379 330.493,-545.005"/>
<polygon fill="none" stroke="#404040" points="330.519,-544.98 332.037,-537.93 339.128,-536.619 337.61,-543.669 330.519,-544.98"/>
<text text-anchor="middle" x="325.226" y="-664.5" font-family="Helvetica,sans-Serif" font-size="10.00"> &#45;m_freeIndex</text>
<text text-anchor="middle" x="325.226" y="-653.5" font-family="Helvetica,sans-Serif" font-size="10.00">&#45;m_ticket</text>
<text text-anchor="middle" x="325.226" y="-642.5" font-family="Helvetica,sans-Serif" font-size="10.00">&#45;m_threadCount</text>
<text text-anchor="middle" x="325.226" y="-631.5" font-family="Helvetica,sans-Serif" font-size="10.00">&#45;m_typeSize</text>
<text text-anchor="middle" x="325.226" y="-620.5" font-family="Helvetica,sans-Serif" font-size="10.00">&#45;m_totalBytes</text>
</g>
<!-- Node4 -->
<g id="node4" class="node"><title>Node4</title>
<polygon fill="none" stroke="#bfbfbf" points="698.726,-788.5 698.726,-845.5 733.726,-845.5 733.726,-788.5 698.726,-788.5"/>
<text text-anchor="middle" x="716.226" y="-833.5" font-family="Helvetica,sans-Serif" font-size="10.00">char</text>
<polyline fill="none" stroke="#bfbfbf" points="698.726,-826.5 733.726,-826.5 "/>
<text text-anchor="middle" x="716.226" y="-814.5" font-family="Helvetica,sans-Serif" font-size="10.00"> </text>
<polyline fill="none" stroke="#bfbfbf" points="698.726,-807.5 733.726,-807.5 "/>
<text text-anchor="middle" x="716.226" y="-795.5" font-family="Helvetica,sans-Serif" font-size="10.00"> </text>
</g>
<!-- Node4&#45;&gt;Node2 -->
<g id="edge3" class="edge"><title>Node4&#45;&gt;Node2</title>
<path fill="none" stroke="#404040" d="M733.83,-812.367C756.387,-806.866 795.413,-794.375 819.226,-770 844.145,-744.494 843.2,-730.959 850.226,-696 859.159,-651.556 864.022,-637.183 850.226,-594 845.933,-580.56 839.197,-567.371 831.5,-555.142"/>
<polygon fill="none" stroke="#404040" points="831.477,-555.107 824.826,-552.32 824.841,-545.109 831.491,-547.896 831.477,-555.107"/>
<text text-anchor="middle" x="878.726" y="-648" font-family="Helvetica,sans-Serif" font-size="10.00"> &#45;m_base</text>
<text text-anchor="middle" x="878.726" y="-637" font-family="Helvetica,sans-Serif" font-size="10.00">&#45;m_pool</text>
</g>
<!-- Node4&#45;&gt;Node5 -->
<g id="edge6" class="edge"><title>Node4&#45;&gt;Node5</title>
<path fill="none" stroke="#404040" d="M698.638,-789.063C684.101,-766.8 662.918,-734.356 644.397,-705.992"/>
<polygon fill="none" stroke="#404040" points="644.272,-705.8 637.643,-702.963 637.711,-695.752 644.341,-698.589 644.272,-705.8"/>
<text text-anchor="middle" x="703.726" y="-745" font-family="Helvetica,sans-Serif" font-size="10.00"> &#45;m_base</text>
<text text-anchor="middle" x="703.726" y="-734" font-family="Helvetica,sans-Serif" font-size="10.00">&#45;m_pool</text>
</g>
<!-- Node4&#45;&gt;Node6 -->
<g id="edge9" class="edge"><title>Node4&#45;&gt;Node6</title>
<path fill="none" stroke="#404040" d="M733.762,-790.159C765.474,-739.941 823.954,-628.458 766.226,-564 750.19,-546.094 737.147,-555.862 715.226,-546 702.64,-540.337 689.52,-533.671 677.063,-526.95"/>
<polygon fill="none" stroke="#404040" points="676.837,-526.827 669.653,-527.447 666.317,-521.054 673.501,-520.433 676.837,-526.827"/>
<text text-anchor="middle" x="810.726" y="-648" font-family="Helvetica,sans-Serif" font-size="10.00"> &#45;m_base</text>
<text text-anchor="middle" x="810.726" y="-637" font-family="Helvetica,sans-Serif" font-size="10.00">&#45;m_pool</text>
</g>
<!-- Node4&#45;&gt;Node7 -->
<g id="edge13" class="edge"><title>Node4&#45;&gt;Node7</title>
<path fill="none" stroke="#404040" d="M698.54,-815.97C642.339,-814.776 467.797,-802.354 404.226,-696 379.491,-654.618 377.164,-599.837 380.524,-557.17"/>
<polygon fill="none" stroke="#404040" points="380.526,-557.144 377.099,-550.799 381.638,-545.196 385.065,-551.541 380.526,-557.144"/>
<text text-anchor="middle" x="424.726" y="-648" font-family="Helvetica,sans-Serif" font-size="10.00"> &#45;m_base</text>
<text text-anchor="middle" x="424.726" y="-637" font-family="Helvetica,sans-Serif" font-size="10.00">&#45;m_pool</text>
</g>
<!-- Node5&#45;&gt;Node2 -->
<g id="edge4" class="edge"><title>Node5&#45;&gt;Node2</title>
<path fill="none" stroke="orange" d="M649.5,-586.465C656.448,-578.606 663.798,-570.885 671.226,-564 687.337,-549.067 706.595,-534.671 724.193,-522.608"/>
<polygon fill="orange" stroke="orange" points="646.584,-584.486 642.698,-594.343 651.882,-589.061 646.584,-584.486"/>
<text text-anchor="middle" x="716.726" y="-567.5" font-family="Helvetica,sans-Serif" font-size="10.00"> &lt; TransList::Desc &gt;</text>
</g>
<!-- Node5&#45;&gt;Node6 -->
<g id="edge10" class="edge"><title>Node5&#45;&gt;Node6</title>
<path fill="none" stroke="orange" d="M556.368,-584.615C554.837,-577.85 554.876,-570.902 557.226,-564 559.421,-557.553 562.431,-551.229 565.928,-545.162"/>
<polygon fill="orange" stroke="orange" points="553.143,-586.007 559.649,-594.369 559.778,-583.775 553.143,-586.007"/>
<text text-anchor="middle" x="602.726" y="-567.5" font-family="Helvetica,sans-Serif" font-size="10.00"> &lt; TransList::Node &gt;</text>
</g>
<!-- Node5&#45;&gt;Node7 -->
<g id="edge14" class="edge"><title>Node5&#45;&gt;Node7</title>
<path fill="none" stroke="orange" d="M538.002,-596.111C536.412,-595.371 534.819,-594.666 533.226,-594 493.178,-577.249 472.239,-601.662 437.226,-576 426.437,-568.092 417.927,-556.876 411.315,-545.145"/>
<polygon fill="orange" stroke="orange" points="536.551,-599.299 547.054,-600.69 539.71,-593.053 536.551,-599.299"/>
<text text-anchor="middle" x="494.726" y="-567.5" font-family="Helvetica,sans-Serif" font-size="10.00"> &lt; TransList::NodeDesc &gt;</text>
</g>
<!-- Node6&#45;&gt;Node1 -->
<g id="edge7" class="edge"><title>Node6&#45;&gt;Node1</title>
<path fill="none" stroke="#404040" d="M666.247,-451.614C677.57,-440.916 688.011,-428.215 694.226,-414 739.029,-311.526 712.652,-177.371 691.552,-102.928"/>
<polygon fill="none" stroke="#404040" points="691.452,-102.586 685.931,-97.9471 688.09,-91.0668 693.611,-95.7059 691.452,-102.586"/>
<text text-anchor="middle" x="757.726" y="-254.5" font-family="Helvetica,sans-Serif" font-size="10.00"> &#45;m_nodeAllocator</text>
</g>
<!-- Node6&#45;&gt;Node8 -->
<g id="edge17" class="edge"><title>Node6&#45;&gt;Node8</title>
<path fill="none" stroke="#404040" d="M614.705,-432.909C614.831,-418.472 614.971,-402.288 615.115,-385.747"/>
<polygon fill="none" stroke="#404040" points="615.116,-385.659 611.168,-379.624 615.22,-373.659 619.168,-379.694 615.116,-385.659"/>
<text text-anchor="middle" x="654.726" y="-400.5" font-family="Helvetica,sans-Serif" font-size="10.00"> &#45;m_nodeAllocator</text>
</g>
<!-- Node7&#45;&gt;Node1 -->
<g id="edge11" class="edge"><title>Node7&#45;&gt;Node1</title>
<path fill="none" stroke="#404040" d="M385.2,-432.885C380.133,-358.193 382.442,-224.477 450.226,-140 486.786,-94.436 549.565,-70.9235 599.216,-58.9545"/>
<polygon fill="none" stroke="#404040" points="599.507,-58.8882 604.469,-53.6557 611.207,-56.2234 606.245,-61.456 599.507,-58.8882"/>
<text text-anchor="middle" x="501.726" y="-254.5" font-family="Helvetica,sans-Serif" font-size="10.00"> &#45;m_nodeDescAllocator</text>
</g>
<!-- Node7&#45;&gt;Node8 -->
<g id="edge19" class="edge"><title>Node7&#45;&gt;Node8</title>
<path fill="none" stroke="#404040" d="M443.449,-436.823C451.12,-429.204 458.901,-421.42 466.226,-414 495.284,-384.565 527.089,-351.598 553.905,-323.58"/>
<polygon fill="none" stroke="#404040" points="554.133,-323.341 555.388,-316.24 562.426,-314.667 561.171,-321.768 554.133,-323.341"/>
<text text-anchor="middle" x="538.726" y="-400.5" font-family="Helvetica,sans-Serif" font-size="10.00"> &#45;m_nodeDescAllocator</text>
</g>
<!-- Node8&#45;&gt;Node1 -->
<g id="edge15" class="edge"><title>Node8&#45;&gt;Node1</title>
<path fill="none" stroke="#404040" d="M647.727,-140.497C651.281,-127.464 654.773,-114.663 657.977,-102.915"/>
<polygon fill="none" stroke="#404040" points="658.045,-102.665 655.764,-95.8242 661.202,-91.0881 663.482,-97.9292 658.045,-102.665"/>
<text text-anchor="middle" x="671.726" y="-113.5" font-family="Helvetica,sans-Serif" font-size="10.00"> &#45;m_list</text>
</g>
<!-- Node9 -->
<g id="node9" class="node"><title>Node9</title>
<polygon fill="none" stroke="#bfbfbf" points="204.726,-1000.5 204.726,-1057.5 255.726,-1057.5 255.726,-1000.5 204.726,-1000.5"/>
<text text-anchor="middle" x="230.226" y="-1045.5" font-family="Helvetica,sans-Serif" font-size="10.00">uint32_t</text>
<polyline fill="none" stroke="#bfbfbf" points="204.726,-1038.5 255.726,-1038.5 "/>
<text text-anchor="middle" x="230.226" y="-1026.5" font-family="Helvetica,sans-Serif" font-size="10.00"> </text>
<polyline fill="none" stroke="#bfbfbf" points="204.726,-1019.5 255.726,-1019.5 "/>
<text text-anchor="middle" x="230.226" y="-1007.5" font-family="Helvetica,sans-Serif" font-size="10.00"> </text>
</g>
<!-- Node9&#45;&gt;Node8 -->
<g id="edge18" class="edge"><title>Node9&#45;&gt;Node8</title>
<path fill="none" stroke="#404040" d="M255.887,-1027.06C384.325,-1022.03 951.226,-995.771 951.226,-924 951.226,-924 951.226,-924 951.226,-488 951.226,-407.346 872.487,-420.997 797.226,-392 755.087,-375.764 735.254,-398.356 697.226,-374 690.643,-369.783 684.444,-364.822 678.637,-359.367"/>
<polygon fill="none" stroke="#404040" points="678.252,-358.975 671.192,-357.505 669.834,-350.423 676.894,-351.893 678.252,-358.975"/>
<text text-anchor="middle" x="995.726" y="-745" font-family="Helvetica,sans-Serif" font-size="10.00"> &#45;g_count_abort</text>
<text text-anchor="middle" x="995.726" y="-734" font-family="Helvetica,sans-Serif" font-size="10.00">&#45;g_count_fake_abort</text>
</g>
<!-- Node10 -->
<g id="node10" class="node"><title>Node10</title>
<g id="a_node10"><a xlink:href="structTransList_1_1Node.html" target="_top" xlink:title="{TransList::Node\n||+ Node()\l+ Node()\l}">
<polygon fill="none" stroke="black" points="187.226,-455 187.226,-523 273.226,-523 273.226,-455 187.226,-455"/>
<text text-anchor="middle" x="230.226" y="-511" font-family="Helvetica,sans-Serif" font-size="10.00">TransList::Node</text>
<polyline fill="none" stroke="black" points="187.226,-504 273.226,-504 "/>
<text text-anchor="middle" x="230.226" y="-492" font-family="Helvetica,sans-Serif" font-size="10.00"> </text>
<polyline fill="none" stroke="black" points="187.226,-485 273.226,-485 "/>
<text text-anchor="start" x="195.226" y="-473" font-family="Helvetica,sans-Serif" font-size="10.00">+ Node()</text>
<text text-anchor="start" x="195.226" y="-462" font-family="Helvetica,sans-Serif" font-size="10.00">+ Node()</text>
</a>
</g>
</g>
<!-- Node9&#45;&gt;Node10 -->
<g id="edge28" class="edge"><title>Node9&#45;&gt;Node10</title>
<path fill="none" stroke="#404040" d="M230.226,-1000.19C230.226,-979.245 230.226,-949.819 230.226,-924 230.226,-924 230.226,-924 230.226,-644 230.226,-607.342 230.226,-565.776 230.226,-535.075"/>
<polygon fill="none" stroke="#404040" points="230.226,-535.045 226.226,-529.045 230.226,-523.045 234.226,-529.045 230.226,-535.045"/>
<text text-anchor="middle" x="242.726" y="-814.5" font-family="Helvetica,sans-Serif" font-size="10.00"> +key</text>
</g>
<!-- Node14 -->
<g id="node14" class="node"><title>Node14</title>
<g id="a_node14"><a xlink:href="structTransList_1_1Operator.html" target="_top" xlink:title="{TransList::Operator\n||}">
<polygon fill="none" stroke="black" points="54.7262,-894.5 54.7262,-951.5 155.726,-951.5 155.726,-894.5 54.7262,-894.5"/>
<text text-anchor="middle" x="105.226" y="-939.5" font-family="Helvetica,sans-Serif" font-size="10.00">TransList::Operator</text>
<polyline fill="none" stroke="black" points="54.7262,-932.5 155.726,-932.5 "/>
<text text-anchor="middle" x="105.226" y="-920.5" font-family="Helvetica,sans-Serif" font-size="10.00"> </text>
<polyline fill="none" stroke="black" points="54.7262,-913.5 155.726,-913.5 "/>
<text text-anchor="middle" x="105.226" y="-901.5" font-family="Helvetica,sans-Serif" font-size="10.00"> </text>
</a>
</g>
</g>
<!-- Node9&#45;&gt;Node14 -->
<g id="edge26" class="edge"><title>Node9&#45;&gt;Node14</title>
<path fill="none" stroke="#404040" d="M204.629,-1006.7C188.253,-993.079 166.612,-975.073 147.704,-959.341"/>
<polygon fill="none" stroke="#404040" points="147.618,-959.27 140.447,-958.507 138.393,-951.595 145.564,-952.358 147.618,-959.27"/>
<text text-anchor="middle" x="184.726" y="-973.5" font-family="Helvetica,sans-Serif" font-size="10.00"> +key</text>
</g>
<!-- Node10&#45;&gt;Node8 -->
<g id="edge20" class="edge"><title>Node10&#45;&gt;Node8</title>
<path fill="none" stroke="#404040" d="M273.546,-462.542C290.959,-452.625 311.348,-441.407 330.226,-432 369.768,-412.295 379.316,-405.977 421.226,-392 454.566,-380.882 467.439,-390.949 498.226,-374 518.186,-363.012 537.104,-347.698 553.71,-331.793"/>
<polygon fill="none" stroke="#404040" points="554.154,-331.355 555.611,-324.292 562.69,-322.92 561.234,-329.983 554.154,-331.355"/>
<text text-anchor="middle" x="441.726" y="-406" font-family="Helvetica,sans-Serif" font-size="10.00"> &#45;m_head</text>
<text text-anchor="middle" x="441.726" y="-395" font-family="Helvetica,sans-Serif" font-size="10.00">&#45;m_tail</text>
</g>
<!-- Node10&#45;&gt;Node10 -->
<g id="edge29" class="edge"><title>Node10&#45;&gt;Node10</title>
<path fill="none" stroke="#404040" d="M273.262,-503.735C283.581,-502.584 291.226,-497.672 291.226,-489 291.226,-484.122 288.807,-480.434 284.854,-477.935"/>
<polygon fill="none" stroke="#404040" points="284.702,-477.887 277.775,-479.889 273.262,-474.265 280.19,-472.263 284.702,-477.887"/>
<text text-anchor="middle" x="305.226" y="-486.5" font-family="Helvetica,sans-Serif" font-size="10.00"> +next</text>
</g>
<!-- Node11 -->
<g id="node11" class="node"><title>Node11</title>
<g id="a_node11"><a xlink:href="structTransList_1_1NodeDesc.html" target="_top" xlink:title="{TransList::NodeDesc\n||+ NodeDesc()\l}">
<polygon fill="none" stroke="black" points="92.2262,-616.5 92.2262,-673.5 202.226,-673.5 202.226,-616.5 92.2262,-616.5"/>
<text text-anchor="middle" x="147.226" y="-661.5" font-family="Helvetica,sans-Serif" font-size="10.00">TransList::NodeDesc</text>
<polyline fill="none" stroke="black" points="92.2262,-654.5 202.226,-654.5 "/>
<text text-anchor="middle" x="147.226" y="-642.5" font-family="Helvetica,sans-Serif" font-size="10.00"> </text>
<polyline fill="none" stroke="black" points="92.2262,-635.5 202.226,-635.5 "/>
<text text-anchor="start" x="100.226" y="-623.5" font-family="Helvetica,sans-Serif" font-size="10.00">+ NodeDesc()</text>
</a>
</g>
</g>
<!-- Node11&#45;&gt;Node10 -->
<g id="edge21" class="edge"><title>Node11&#45;&gt;Node10</title>
<path fill="none" stroke="#404040" d="M148.652,-616.13C150.377,-600.173 154.127,-580.173 162.226,-564 167.91,-552.65 175.854,-541.775 184.316,-532.022"/>
<polygon fill="none" stroke="#404040" points="184.435,-531.892 185.53,-524.765 192.531,-523.035 191.435,-530.162 184.435,-531.892"/>
<text text-anchor="middle" x="189.226" y="-567.5" font-family="Helvetica,sans-Serif" font-size="10.00"> +nodeDesc</text>
</g>
<!-- Node12 -->
<g id="node12" class="node"><title>Node12</title>
<polygon fill="none" stroke="#bfbfbf" points="70.2262,-1000.5 70.2262,-1057.5 116.226,-1057.5 116.226,-1000.5 70.2262,-1000.5"/>
<text text-anchor="middle" x="93.2262" y="-1045.5" font-family="Helvetica,sans-Serif" font-size="10.00">uint8_t</text>
<polyline fill="none" stroke="#bfbfbf" points="70.2262,-1038.5 116.226,-1038.5 "/>
<text text-anchor="middle" x="93.2262" y="-1026.5" font-family="Helvetica,sans-Serif" font-size="10.00"> </text>
<polyline fill="none" stroke="#bfbfbf" points="70.2262,-1019.5 116.226,-1019.5 "/>
<text text-anchor="middle" x="93.2262" y="-1007.5" font-family="Helvetica,sans-Serif" font-size="10.00"> </text>
</g>
<!-- Node12&#45;&gt;Node11 -->
<g id="edge22" class="edge"><title>Node12&#45;&gt;Node11</title>
<path fill="none" stroke="#404040" d="M116.335,-1021.19C134.569,-1014.45 158.775,-1002.18 170.226,-982 199.624,-930.194 173.488,-772.99 165.226,-714 163.919,-704.666 161.764,-694.779 159.391,-685.522"/>
<polygon fill="none" stroke="#404040" points="159.355,-685.391 153.918,-680.654 156.199,-673.813 161.636,-678.55 159.355,-685.391"/>
<text text-anchor="middle" x="198.226" y="-867.5" font-family="Helvetica,sans-Serif" font-size="10.00"> +opid</text>
</g>
<!-- Node13 -->
<g id="node13" class="node"><title>Node13</title>
<g id="a_node13"><a xlink:href="structTransList_1_1Desc.html" target="_top" xlink:title="{TransList::Desc\n||+ SizeOf()\l}">
<polygon fill="none" stroke="black" points="62.2262,-788.5 62.2262,-845.5 148.226,-845.5 148.226,-788.5 62.2262,-788.5"/>
<text text-anchor="middle" x="105.226" y="-833.5" font-family="Helvetica,sans-Serif" font-size="10.00">TransList::Desc</text>
<polyline fill="none" stroke="black" points="62.2262,-826.5 148.226,-826.5 "/>
<text text-anchor="middle" x="105.226" y="-814.5" font-family="Helvetica,sans-Serif" font-size="10.00"> </text>
<polyline fill="none" stroke="black" points="62.2262,-807.5 148.226,-807.5 "/>
<text text-anchor="start" x="70.2262" y="-795.5" font-family="Helvetica,sans-Serif" font-size="10.00">+ SizeOf()</text>
</a>
</g>
</g>
<!-- Node12&#45;&gt;Node13 -->
<g id="edge24" class="edge"><title>Node12&#45;&gt;Node13</title>
<path fill="none" stroke="#404040" d="M70.2212,-1015.17C49.6411,-1002.24 20.8357,-980.189 8.22617,-952 -2.29958,-928.469 -3.05811,-917.177 8.22617,-894 17.6988,-874.544 34.8289,-858.598 52.0866,-846.426"/>
<polygon fill="none" stroke="#404040" points="52.2131,-846.342 54.9943,-839.689 62.2054,-839.697 59.4242,-846.35 52.2131,-846.342"/>
<text text-anchor="middle" x="26.7262" y="-926" font-family="Helvetica,sans-Serif" font-size="10.00"> +status</text>
<text text-anchor="middle" x="26.7262" y="-915" font-family="Helvetica,sans-Serif" font-size="10.00">+size</text>
</g>
<!-- Node12&#45;&gt;Node14 -->
<g id="edge27" class="edge"><title>Node12&#45;&gt;Node14</title>
<path fill="none" stroke="#404040" d="M92.4797,-1000.47C92.5401,-990.806 92.9734,-979.891 94.2262,-970 94.5005,-967.834 94.8366,-965.621 95.2186,-963.395"/>
<polygon fill="none" stroke="#404040" points="95.235,-963.313 92.5015,-956.64 97.6099,-951.551 100.343,-958.224 95.235,-963.313"/>
<text text-anchor="middle" x="108.226" y="-973.5" font-family="Helvetica,sans-Serif" font-size="10.00"> +type</text>
</g>
<!-- Node13&#45;&gt;Node11 -->
<g id="edge23" class="edge"><title>Node13&#45;&gt;Node11</title>
<path fill="none" stroke="#404040" d="M112.068,-788.308C118.963,-760.4 129.669,-717.064 137.456,-685.544"/>
<polygon fill="none" stroke="#404040" points="137.509,-685.33 135.065,-678.545 140.388,-673.68 142.832,-680.464 137.509,-685.33"/>
<text text-anchor="middle" x="145.726" y="-739.5" font-family="Helvetica,sans-Serif" font-size="10.00"> +desc</text>
</g>
<!-- Node14&#45;&gt;Node13 -->
<g id="edge25" class="edge"><title>Node14&#45;&gt;Node13</title>
<path fill="none" stroke="#404040" d="M105.226,-894.403C105.226,-883.237 105.226,-870.13 105.226,-857.956"/>
<polygon fill="none" stroke="#404040" points="105.226,-857.726 101.226,-851.726 105.226,-845.726 109.226,-851.726 105.226,-857.726"/>
<text text-anchor="middle" x="117.726" y="-867.5" font-family="Helvetica,sans-Serif" font-size="10.00"> +ops</text>
</g>
</g>
</svg>
        <g id="navigator" transform="translate(0 0)" fill="#404254">
                <rect fill="#f2f5e9" fill-opacity="0.5" stroke="#606060" stroke-width=".5" x="0" y="0" width="60" height="60"/>
                <use id="zoomplus" xlink:href="#zoomPlus" x="17" y="9" onmousedown="handleZoom(evt,'in')"/>
                <use id="zoomminus" xlink:href="#zoomMin" x="42" y="9" onmousedown="handleZoom(evt,'out')"/>
                <use id="reset" xlink:href="#resetDef" x="30" y="36" onmousedown="handleReset()"/>
                <g id="arrowUp" xlink:href="#dirArrow" transform="translate(30 24)" onmousedown="handlePan(0,-1)">
                  <use xlink:href="#rim" fill="#404040">
                        <set attributeName="fill" to="#808080" begin="arrowUp.mouseover" end="arrowUp.mouseout"/>
                  </use>
                  <path fill="none" stroke="white" stroke-width="1.5" d="M0,-3.0v7 M-2.5,-0.5L0,-3.0L2.5,-0.5"/>
                </g>
                <g id="arrowRight" xlink:href="#dirArrow" transform="rotate(90) translate(36 -43)" onmousedown="handlePan(1,0)">
                  <use xlink:href="#rim" fill="#404040">
                        <set attributeName="fill" to="#808080" begin="arrowRight.mouseover" end="arrowRight.mouseout"/>
                  </use>
                  <path fill="none" stroke="white" stroke-width="1.5" d="M0,-3.0v7 M-2.5,-0.5L0,-3.0L2.5,-0.5"/>
                </g>
                <g id="arrowDown" xlink:href="#dirArrow" transform="rotate(180) translate(-30 -48)" onmousedown="handlePan(0,1)">
                  <use xlink:href="#rim" fill="#404040">
                        <set attributeName="fill" to="#808080" begin="arrowDown.mouseover" end="arrowDown.mouseout"/>
                  </use>
                  <path fill="none" stroke="white" stroke-width="1.5" d="M0,-3.0v7 M-2.5,-0.5L0,-3.0L2.5,-0.5"/>
                </g>
                <g id="arrowLeft" xlink:href="#dirArrow" transform="rotate(270) translate(-36 17)" onmousedown="handlePan(-1,0)">
                  <use xlink:href="#rim" fill="#404040">
                        <set attributeName="fill" to="#808080" begin="arrowLeft.mouseover" end="arrowLeft.mouseout"/>
                  </use>
                  <path fill="none" stroke="white" stroke-width="1.5" d="M0,-3.0v7 M-2.5,-0.5L0,-3.0L2.5,-0.5"/>
                </g>
        </g>
        <svg viewBox="0 0 15 15" width="100%" height="30px" preserveAspectRatio="xMaxYMin meet">
         <g id="arrow_out" transform="scale(0.3 0.3)">
          <a xlink:href="classSetAdaptor_3_01TransList_01_4__coll__graph_org.svg" target="_base">
           <rect id="button" ry="5" rx="5" y="6" x="6" height="38" width="38"
                fill="#f2f5e9" fill-opacity="0.5" stroke="#606060" stroke-width="1.0"/>
           <path id="arrow"
             d="M 11.500037,31.436501 C 11.940474,20.09759 22.043105,11.32322 32.158766,21.979434 L 37.068811,17.246167 C 37.068811,17.246167 37.088388,32 37.088388,32 L 22.160133,31.978069 C 22.160133,31.978069 26.997745,27.140456 26.997745,27.140456 C 18.528582,18.264221 13.291696,25.230495 11.500037,31.436501 z"
             style="fill:#404040;"/>
          </a>
         </g>
        </svg>
</svg>
