<?xml version="1.0" encoding="UTF-8" standalone="no"?>
<!DOCTYPE svg PUBLIC "-//W3C//DTD SVG 1.1//EN"
 "http://www.w3.org/Graphics/SVG/1.1/DTD/svg11.dtd">
<!-- Generated by graphviz version 2.36.0 (20140111.2315)
 -->
<!-- Title: ScopedTimer Pages: 1 -->
<svg width="307pt" height="420pt"
 viewBox="0.00 0.00 307.00 420.00" xmlns="http://www.w3.org/2000/svg" xmlns:xlink="http://www.w3.org/1999/xlink">
<g id="graph0" class="graph" transform="scale(1 1) rotate(0) translate(4 416)">
<title>ScopedTimer</title>
<!-- Node1 -->
<g id="node1" class="node"><title>Node1</title>
<polygon fill="#bfbfbf" stroke="black" points="131.5,-0.5 131.5,-79.5 226.5,-79.5 226.5,-0.5 131.5,-0.5"/>
<text text-anchor="middle" x="179" y="-67.5" font-family="Helvetica,sans-Serif" font-size="10.00">ScopedTimer</text>
<polyline fill="none" stroke="black" points="131.5,-60.5 226.5,-60.5 "/>
<text text-anchor="middle" x="179" y="-48.5" font-family="Helvetica,sans-Serif" font-size="10.00"> </text>
<polyline fill="none" stroke="black" points="131.5,-41.5 226.5,-41.5 "/>
<text text-anchor="start" x="139.5" y="-29.5" font-family="Helvetica,sans-Serif" font-size="10.00">+ ScopedTimer()</text>
<text text-anchor="start" x="139.5" y="-18.5" font-family="Helvetica,sans-Serif" font-size="10.00">+ ScopedTimer()</text>
<text text-anchor="start" x="139.5" y="-7.5" font-family="Helvetica,sans-Serif" font-size="10.00">+ ~ScopedTimer()</text>
</g>
<!-- Node2 -->
<g id="node2" class="node"><title>Node2</title>
<g id="a_node2"><a xlink:href="classTimer.html" target="_top" xlink:title="{Timer\n||+ Timer()\l+ ~Timer()\l+ Start()\l+ Stop()\l+ Resume()\l+ ElapsedCpu()\l+ ElapsedWall()\l+ ToString()\l+ ToSecond()\l}">
<polygon fill="none" stroke="black" points="57,-128.5 57,-273.5 143,-273.5 143,-128.5 57,-128.5"/>
<text text-anchor="middle" x="100" y="-261.5" font-family="Helvetica,sans-Serif" font-size="10.00">Timer</text>
<polyline fill="none" stroke="black" points="57,-254.5 143,-254.5 "/>
<text text-anchor="middle" x="100" y="-242.5" font-family="Helvetica,sans-Serif" font-size="10.00"> </text>
<polyline fill="none" stroke="black" points="57,-235.5 143,-235.5 "/>
<text text-anchor="start" x="65" y="-223.5" font-family="Helvetica,sans-Serif" font-size="10.00">+ Timer()</text>
<text text-anchor="start" x="65" y="-212.5" font-family="Helvetica,sans-Serif" font-size="10.00">+ ~Timer()</text>
<text text-anchor="start" x="65" y="-201.5" font-family="Helvetica,sans-Serif" font-size="10.00">+ Start()</text>
<text text-anchor="start" x="65" y="-190.5" font-family="Helvetica,sans-Serif" font-size="10.00">+ Stop()</text>
<text text-anchor="start" x="65" y="-179.5" font-family="Helvetica,sans-Serif" font-size="10.00">+ Resume()</text>
<text text-anchor="start" x="65" y="-168.5" font-family="Helvetica,sans-Serif" font-size="10.00">+ ElapsedCpu()</text>
<text text-anchor="start" x="65" y="-157.5" font-family="Helvetica,sans-Serif" font-size="10.00">+ ElapsedWall()</text>
<text text-anchor="start" x="65" y="-146.5" font-family="Helvetica,sans-Serif" font-size="10.00">+ ToString()</text>
<text text-anchor="start" x="65" y="-135.5" font-family="Helvetica,sans-Serif" font-size="10.00">+ ToSecond()</text>
</a>
</g>
</g>
<!-- Node2&#45;&gt;Node1 -->
<g id="edge1" class="edge"><title>Node2&#45;&gt;Node1</title>
<path fill="none" stroke="midnightblue" d="M140.089,-119.314C146.972,-105.461 153.831,-91.6556 159.831,-79.5814"/>
<polygon fill="none" stroke="midnightblue" points="136.886,-117.894 135.571,-128.407 143.155,-121.009 136.886,-117.894"/>
</g>
<!-- Node3 -->
<g id="node3" class="node"><title>Node3</title>
<polygon fill="none" stroke="#bfbfbf" points="-0.5,-354.5 -0.5,-411.5 44.5,-411.5 44.5,-354.5 -0.5,-354.5"/>
<text text-anchor="middle" x="22" y="-399.5" font-family="Helvetica,sans-Serif" font-size="10.00">double</text>
<polyline fill="none" stroke="#bfbfbf" points="-0.5,-392.5 44.5,-392.5 "/>
<text text-anchor="middle" x="22" y="-380.5" font-family="Helvetica,sans-Serif" font-size="10.00"> </text>
<polyline fill="none" stroke="#bfbfbf" points="-0.5,-373.5 44.5,-373.5 "/>
<text text-anchor="middle" x="22" y="-361.5" font-family="Helvetica,sans-Serif" font-size="10.00"> </text>
</g>
<!-- Node3&#45;&gt;Node2 -->
<g id="edge2" class="edge"><title>Node3&#45;&gt;Node2</title>
<path fill="none" stroke="#404040" d="M21.3192,-354.308C21.7642,-336.024 24.0922,-311.865 32,-292 36.4545,-280.81 42.6931,-269.803 49.6017,-259.536"/>
<polygon fill="none" stroke="#404040" points="49.7512,-259.325 49.9588,-252.117 56.6923,-249.536 56.4847,-256.744 49.7512,-259.325"/>
<text text-anchor="middle" x="64" y="-328" font-family="Helvetica,sans-Serif" font-size="10.00"> &#45;m_cpuStart</text>
<text text-anchor="middle" x="64" y="-317" font-family="Helvetica,sans-Serif" font-size="10.00">&#45;m_wallStart</text>
<text text-anchor="middle" x="64" y="-306" font-family="Helvetica,sans-Serif" font-size="10.00">&#45;m_wallElapse</text>
<text text-anchor="middle" x="64" y="-295" font-family="Helvetica,sans-Serif" font-size="10.00">&#45;m_cpuElapse</text>
</g>
<!-- Node4 -->
<g id="node4" class="node"><title>Node4</title>
<polygon fill="none" stroke="#bfbfbf" points="126.5,-354.5 126.5,-411.5 161.5,-411.5 161.5,-354.5 126.5,-354.5"/>
<text text-anchor="middle" x="144" y="-399.5" font-family="Helvetica,sans-Serif" font-size="10.00">bool</text>
<polyline fill="none" stroke="#bfbfbf" points="126.5,-392.5 161.5,-392.5 "/>
<text text-anchor="middle" x="144" y="-380.5" font-family="Helvetica,sans-Serif" font-size="10.00"> </text>
<polyline fill="none" stroke="#bfbfbf" points="126.5,-373.5 161.5,-373.5 "/>
<text text-anchor="middle" x="144" y="-361.5" font-family="Helvetica,sans-Serif" font-size="10.00"> </text>
</g>
<!-- Node4&#45;&gt;Node1 -->
<g id="edge5" class="edge"><title>Node4&#45;&gt;Node1</title>
<path fill="none" stroke="#404040" d="M158.643,-354.39C161.198,-348.469 163.511,-342.143 165,-336 185.3,-252.263 184.982,-151.345 182.367,-91.8845"/>
<polygon fill="none" stroke="#404040" points="182.364,-91.8325 178.077,-86.0342 181.78,-79.8467 186.067,-85.6449 182.364,-91.8325"/>
<text text-anchor="middle" x="214.5" y="-198.5" font-family="Helvetica,sans-Serif" font-size="10.00"> &#45;m_showSec</text>
</g>
<!-- Node4&#45;&gt;Node2 -->
<g id="edge3" class="edge"><title>Node4&#45;&gt;Node2</title>
<path fill="none" stroke="#404040" d="M126.434,-363.293C120.123,-355.451 113.664,-345.868 110,-336 104.185,-320.337 100.841,-302.951 99.0402,-286.031"/>
<polygon fill="none" stroke="#404040" points="99.0187,-285.78 94.5184,-280.146 97.9886,-273.824 102.489,-279.459 99.0187,-285.78"/>
<text text-anchor="middle" x="137.5" y="-311.5" font-family="Helvetica,sans-Serif" font-size="10.00"> &#45;m_stopped</text>
</g>
<!-- Node5 -->
<g id="node5" class="node"><title>Node5</title>
<polygon fill="none" stroke="#bfbfbf" points="258.5,-172.5 258.5,-229.5 299.5,-229.5 299.5,-172.5 258.5,-172.5"/>
<text text-anchor="middle" x="279" y="-217.5" font-family="Helvetica,sans-Serif" font-size="10.00">string</text>
<polyline fill="none" stroke="#bfbfbf" points="258.5,-210.5 299.5,-210.5 "/>
<text text-anchor="middle" x="279" y="-198.5" font-family="Helvetica,sans-Serif" font-size="10.00"> </text>
<polyline fill="none" stroke="#bfbfbf" points="258.5,-191.5 299.5,-191.5 "/>
<text text-anchor="middle" x="279" y="-179.5" font-family="Helvetica,sans-Serif" font-size="10.00"> </text>
</g>
<!-- Node5&#45;&gt;Node1 -->
<g id="edge4" class="edge"><title>Node5&#45;&gt;Node1</title>
<path fill="none" stroke="#404040" d="M267.049,-172.346C260.771,-158.676 252.604,-142.126 244,-128 236.106,-115.04 226.751,-101.63 217.634,-89.3334"/>
<polygon fill="none" stroke="#404040" points="217.627,-89.3244 210.822,-86.9397 210.406,-79.7406 217.211,-82.1253 217.627,-89.3244"/>
<text text-anchor="middle" x="249" y="-101.5" font-family="Helvetica,sans-Serif" font-size="10.00"> &#45;m_tag</text>
</g>
</g>
</svg>
