<?xml version="1.0" encoding="UTF-8" standalone="no"?>
<!DOCTYPE svg PUBLIC "-//W3C//DTD SVG 1.1//EN"
 "http://www.w3.org/Graphics/SVG/1.1/DTD/svg11.dtd">
<!-- Generated by graphviz version 2.36.0 (20140111.2315)
 -->
<!-- Title: concurrent_queue::dequeue Pages: 1 -->
<svg width="602pt" height="154pt"
 viewBox="0.00 0.00 602.00 154.00" xmlns="http://www.w3.org/2000/svg" xmlns:xlink="http://www.w3.org/1999/xlink">
<g id="graph0" class="graph" transform="scale(1 1) rotate(0) translate(4 150)">
<title>concurrent_queue::dequeue</title>
<!-- Node1 -->
<g id="node1" class="node"><title>Node1</title>
<polygon fill="#bfbfbf" stroke="black" points="0.5,-88.5 0.5,-107.5 137.5,-107.5 137.5,-88.5 0.5,-88.5"/>
<text text-anchor="middle" x="69" y="-95.5" font-family="Helvetica,sans-Serif" font-size="10.00">concurrent_queue::dequeue</text>
</g>
<!-- Node2 -->
<g id="node2" class="node"><title>Node2</title>
<g id="a_node2"><a xlink:href="classMS__queue.html#a78a5210001367491d3184c55a7788cdb" target="_top" xlink:title="MS_queue::dequeue">
<polygon fill="none" stroke="black" points="174,-88.5 174,-107.5 280,-107.5 280,-88.5 174,-88.5"/>
<text text-anchor="middle" x="227" y="-95.5" font-family="Helvetica,sans-Serif" font-size="10.00">MS_queue::dequeue</text>
</a>
</g>
</g>
<!-- Node1&#45;&gt;Node2 -->
<g id="edge1" class="edge"><title>Node1&#45;&gt;Node2</title>
<path fill="none" stroke="midnightblue" d="M137.517,-98C146.276,-98 155.215,-98 163.881,-98"/>
<polygon fill="midnightblue" stroke="midnightblue" points="163.902,-101.5 173.902,-98 163.902,-94.5001 163.902,-101.5"/>
</g>
<!-- Node3 -->
<g id="node3" class="node"><title>Node3</title>
<g id="a_node3"><a xlink:href="queues_8cpp.html#a6499d4f1af7965a1e2ec7fa2ce62b07d" target="_top" xlink:title="a_ld">
<polygon fill="none" stroke="black" points="512.5,-126.5 512.5,-145.5 547.5,-145.5 547.5,-126.5 512.5,-126.5"/>
<text text-anchor="middle" x="530" y="-133.5" font-family="Helvetica,sans-Serif" font-size="10.00">a_ld</text>
</a>
</g>
</g>
<!-- Node2&#45;&gt;Node3 -->
<g id="edge2" class="edge"><title>Node2&#45;&gt;Node3</title>
<path fill="none" stroke="midnightblue" d="M280.058,-106.684C291.861,-108.541 304.35,-110.418 316,-112 382.88,-121.083 461.908,-129.342 502.301,-133.386"/>
<polygon fill="midnightblue" stroke="midnightblue" points="502.1,-136.883 512.397,-134.389 502.792,-129.918 502.1,-136.883"/>
</g>
<!-- Node4 -->
<g id="node4" class="node"><title>Node4</title>
<g id="a_node4"><a xlink:href="counted__ptr_8hpp.html#afe676f4f56a242fe38f903b9aa874de0" target="_top" xlink:title="cp_cas">
<polygon fill="none" stroke="black" points="506,-88.5 506,-107.5 554,-107.5 554,-88.5 506,-88.5"/>
<text text-anchor="middle" x="530" y="-95.5" font-family="Helvetica,sans-Serif" font-size="10.00">cp_cas</text>
</a>
</g>
</g>
<!-- Node2&#45;&gt;Node4 -->
<g id="edge3" class="edge"><title>Node2&#45;&gt;Node4</title>
<path fill="none" stroke="midnightblue" d="M280.087,-98C342.109,-98 443.84,-98 495.958,-98"/>
<polygon fill="midnightblue" stroke="midnightblue" points="495.994,-101.5 505.994,-98 495.994,-94.5001 495.994,-101.5"/>
</g>
<!-- Node5 -->
<g id="node5" class="node"><title>Node5</title>
<g id="a_node5"><a xlink:href="classblock__pool.html#aaabfd73a9589b2d5d024161f3df1a11e" target="_top" xlink:title="block_pool::free_block">
<polygon fill="none" stroke="black" points="316,-50.5 316,-69.5 430,-69.5 430,-50.5 316,-50.5"/>
<text text-anchor="middle" x="373" y="-57.5" font-family="Helvetica,sans-Serif" font-size="10.00">block_pool::free_block</text>
</a>
</g>
</g>
<!-- Node2&#45;&gt;Node5 -->
<g id="edge4" class="edge"><title>Node2&#45;&gt;Node5</title>
<path fill="none" stroke="midnightblue" d="M264.337,-88.411C283.083,-83.4642 306.143,-77.3789 326.107,-72.1108"/>
<polygon fill="midnightblue" stroke="midnightblue" points="327.148,-75.4558 335.924,-69.5201 325.362,-68.6875 327.148,-75.4558"/>
</g>
<!-- Node5&#45;&gt;Node3 -->
<g id="edge6" class="edge"><title>Node5&#45;&gt;Node3</title>
<path fill="none" stroke="midnightblue" d="M387.098,-69.6599C404.407,-82.0546 436.199,-103.556 466,-117 477.561,-122.215 490.942,-126.48 502.391,-129.639"/>
<polygon fill="midnightblue" stroke="midnightblue" points="501.694,-133.074 512.255,-132.223 503.469,-126.303 501.694,-133.074"/>
</g>
<!-- Node5&#45;&gt;Node4 -->
<g id="edge8" class="edge"><title>Node5&#45;&gt;Node4</title>
<path fill="none" stroke="midnightblue" d="M413.113,-69.589C438.695,-75.8607 471.743,-83.9627 495.997,-89.9088"/>
<polygon fill="midnightblue" stroke="midnightblue" points="495.26,-93.3317 505.805,-92.3136 496.926,-86.5331 495.26,-93.3317"/>
</g>
<!-- Node6 -->
<g id="node6" class="node"><title>Node6</title>
<g id="a_node6"><a xlink:href="classblock__pool.html#a1af804f5ae32798163e68dca39418c77" target="_top" xlink:title="block_pool::make_shared\l_block_t">
<polygon fill="none" stroke="black" points="466,-39 466,-69 594,-69 594,-39 466,-39"/>
<text text-anchor="start" x="474" y="-57" font-family="Helvetica,sans-Serif" font-size="10.00">block_pool::make_shared</text>
<text text-anchor="middle" x="530" y="-46" font-family="Helvetica,sans-Serif" font-size="10.00">_block_t</text>
</a>
</g>
</g>
<!-- Node5&#45;&gt;Node6 -->
<g id="edge5" class="edge"><title>Node5&#45;&gt;Node6</title>
<path fill="none" stroke="midnightblue" d="M430.397,-57.8169C438.582,-57.5001 447.106,-57.1701 455.566,-56.8426"/>
<polygon fill="midnightblue" stroke="midnightblue" points="455.968,-60.3297 465.825,-56.4455 455.698,-53.335 455.968,-60.3297"/>
</g>
<!-- Node7 -->
<g id="node7" class="node"><title>Node7</title>
<g id="a_node7"><a xlink:href="stmskip_8cc.html#a6691aa84f1bbf53bde80356be0be52f9" target="_top" xlink:title="if">
<polygon fill="none" stroke="black" points="515.5,-0.5 515.5,-19.5 544.5,-19.5 544.5,-0.5 515.5,-0.5"/>
<text text-anchor="middle" x="530" y="-7.5" font-family="Helvetica,sans-Serif" font-size="10.00">if</text>
</a>
</g>
</g>
<!-- Node5&#45;&gt;Node7 -->
<g id="edge7" class="edge"><title>Node5&#45;&gt;Node7</title>
<path fill="none" stroke="midnightblue" d="M401.703,-50.4072C419.925,-44.1611 444.324,-35.9187 466,-29 479.131,-24.8088 493.879,-20.3477 505.803,-16.8022"/>
<polygon fill="midnightblue" stroke="midnightblue" points="506.846,-20.1438 515.443,-13.9519 504.861,-13.431 506.846,-20.1438"/>
</g>
</g>
</svg>
