<?xml version="1.0" encoding="UTF-8" standalone="no"?>
<!DOCTYPE svg PUBLIC "-//W3C//DTD SVG 1.1//EN"
 "http://www.w3.org/Graphics/SVG/1.1/DTD/svg11.dtd">
<!-- Generated by graphviz version 2.36.0 (20140111.2315)
 -->
<!-- Title: stm::WordLoggingValueListEntry Pages: 1 -->
<svg width="160pt" height="194pt"
 viewBox="0.00 0.00 160.00 194.00" xmlns="http://www.w3.org/2000/svg" xmlns:xlink="http://www.w3.org/1999/xlink">
<g id="graph0" class="graph" transform="scale(1 1) rotate(0) translate(4 190)">
<title>stm::WordLoggingValueListEntry</title>
<!-- Node1 -->
<g id="node1" class="node"><title>Node1</title>
<polygon fill="#bfbfbf" stroke="black" points="0,-0.5 0,-79.5 152,-79.5 152,-0.5 0,-0.5"/>
<text text-anchor="start" x="8" y="-67.5" font-family="Helvetica,sans-Serif" font-size="10.00">stm::WordLoggingValueList</text>
<text text-anchor="middle" x="76" y="-56.5" font-family="Helvetica,sans-Serif" font-size="10.00">Entry</text>
<polyline fill="none" stroke="black" points="0,-49.5 152,-49.5 "/>
<text text-anchor="middle" x="76" y="-37.5" font-family="Helvetica,sans-Serif" font-size="10.00"> </text>
<polyline fill="none" stroke="black" points="0,-30.5 152,-30.5 "/>
<text text-anchor="start" x="8" y="-18.5" font-family="Helvetica,sans-Serif" font-size="10.00">+ WordLoggingValueListEntry()</text>
<text text-anchor="start" x="8" y="-7.5" font-family="Helvetica,sans-Serif" font-size="10.00">+ isValid()</text>
</g>
<!-- Node2 -->
<g id="node2" class="node"><title>Node2</title>
<polygon fill="none" stroke="#bfbfbf" points="23.5,-128.5 23.5,-185.5 68.5,-185.5 68.5,-128.5 23.5,-128.5"/>
<text text-anchor="middle" x="46" y="-173.5" font-family="Helvetica,sans-Serif" font-size="10.00">void **</text>
<polyline fill="none" stroke="#bfbfbf" points="23.5,-166.5 68.5,-166.5 "/>
<text text-anchor="middle" x="46" y="-154.5" font-family="Helvetica,sans-Serif" font-size="10.00"> </text>
<polyline fill="none" stroke="#bfbfbf" points="23.5,-147.5 68.5,-147.5 "/>
<text text-anchor="middle" x="46" y="-135.5" font-family="Helvetica,sans-Serif" font-size="10.00"> </text>
</g>
<!-- Node2&#45;&gt;Node1 -->
<g id="edge1" class="edge"><title>Node2&#45;&gt;Node1</title>
<path fill="none" stroke="#404040" d="M52.4868,-128.216C54.7845,-118.624 57.4368,-107.823 60,-98 60.5839,-95.7623 61.1888,-93.4777 61.8064,-91.1716"/>
<polygon fill="none" stroke="#404040" points="61.8097,-91.1592 59.5269,-84.3189 64.963,-79.5809 67.2458,-86.4211 61.8097,-91.1592"/>
<text text-anchor="middle" x="72.5" y="-101.5" font-family="Helvetica,sans-Serif" font-size="10.00"> &#45;addr</text>
</g>
<!-- Node3 -->
<g id="node3" class="node"><title>Node3</title>
<polygon fill="none" stroke="#bfbfbf" points="86.5,-128.5 86.5,-185.5 127.5,-185.5 127.5,-128.5 86.5,-128.5"/>
<text text-anchor="middle" x="107" y="-173.5" font-family="Helvetica,sans-Serif" font-size="10.00">void *</text>
<polyline fill="none" stroke="#bfbfbf" points="86.5,-166.5 127.5,-166.5 "/>
<text text-anchor="middle" x="107" y="-154.5" font-family="Helvetica,sans-Serif" font-size="10.00"> </text>
<polyline fill="none" stroke="#bfbfbf" points="86.5,-147.5 127.5,-147.5 "/>
<text text-anchor="middle" x="107" y="-135.5" font-family="Helvetica,sans-Serif" font-size="10.00"> </text>
</g>
<!-- Node3&#45;&gt;Node1 -->
<g id="edge2" class="edge"><title>Node3&#45;&gt;Node1</title>
<path fill="none" stroke="#404040" d="M99.5747,-128.455C96.5884,-117.376 93.0473,-104.24 89.6293,-91.5604"/>
<polygon fill="none" stroke="#404040" points="89.5355,-91.2122 84.1117,-86.4601 86.4122,-79.6258 91.836,-84.3778 89.5355,-91.2122"/>
<text text-anchor="middle" x="103.5" y="-101.5" font-family="Helvetica,sans-Serif" font-size="10.00"> &#45;val</text>
</g>
</g>
</svg>
