<?xml version="1.0" encoding="UTF-8" standalone="no"?>
<!DOCTYPE svg PUBLIC "-//W3C//DTD SVG 1.1//EN"
 "http://www.w3.org/Graphics/SVG/1.1/DTD/svg11.dtd">
<!-- Generated by graphviz version 2.36.0 (20140111.2315)
 -->
<!-- Title: edge::destroy Pages: 1 -->
<svg width="386pt" height="85pt"
 viewBox="0.00 0.00 386.00 85.00" xmlns="http://www.w3.org/2000/svg" xmlns:xlink="http://www.w3.org/1999/xlink">
<g id="graph0" class="graph" transform="scale(1 1) rotate(0) translate(4 81)">
<title>edge::destroy</title>
<!-- Node1 -->
<g id="node1" class="node"><title>Node1</title>
<polygon fill="#bfbfbf" stroke="black" points="0,-19.5 0,-38.5 76,-38.5 76,-19.5 0,-19.5"/>
<text text-anchor="middle" x="38" y="-26.5" font-family="Helvetica,sans-Serif" font-size="10.00">edge::destroy</text>
</g>
<!-- Node2 -->
<g id="node2" class="node"><title>Node2</title>
<g id="a_node2"><a xlink:href="classedge__set.html#a4cd26bf920c05e300c6856848870aeb9" target="_top" xlink:title="edge_set::erase">
<polygon fill="none" stroke="black" points="112,-38.5 112,-57.5 198,-57.5 198,-38.5 112,-38.5"/>
<text text-anchor="middle" x="155" y="-45.5" font-family="Helvetica,sans-Serif" font-size="10.00">edge_set::erase</text>
</a>
</g>
</g>
<!-- Node1&#45;&gt;Node2 -->
<g id="edge1" class="edge"><title>Node1&#45;&gt;Node2</title>
<path fill="none" stroke="midnightblue" d="M76.0197,-35.1163C84.2314,-36.473 93.0841,-37.9356 101.775,-39.3715"/>
<polygon fill="midnightblue" stroke="midnightblue" points="101.417,-42.8598 111.854,-41.0368 102.558,-35.9534 101.417,-42.8598"/>
</g>
<!-- Node6 -->
<g id="node6" class="node"><title>Node6</title>
<g id="a_node6"><a xlink:href="classedge.html#a528535c93e864fea104ca95de447b198" target="_top" xlink:title="edge::index_of">
<polygon fill="none" stroke="black" points="115,-0.5 115,-19.5 195,-19.5 195,-0.5 115,-0.5"/>
<text text-anchor="middle" x="155" y="-7.5" font-family="Helvetica,sans-Serif" font-size="10.00">edge::index_of</text>
</a>
</g>
</g>
<!-- Node1&#45;&gt;Node6 -->
<g id="edge5" class="edge"><title>Node1&#45;&gt;Node6</title>
<path fill="none" stroke="midnightblue" d="M76.0197,-22.8837C85.1814,-21.37 95.141,-19.7245 104.783,-18.1315"/>
<polygon fill="midnightblue" stroke="midnightblue" points="105.374,-21.5814 114.67,-16.498 104.233,-14.675 105.374,-21.5814"/>
</g>
<!-- Node3 -->
<g id="node3" class="node"><title>Node3</title>
<g id="a_node3"><a xlink:href="edge__set_8cpp.html#a04afedf3efb1930b4069d80cd6122ca9" target="_top" xlink:title="segment">
<polygon fill="none" stroke="black" points="238,-57.5 238,-76.5 292,-76.5 292,-57.5 238,-57.5"/>
<text text-anchor="middle" x="265" y="-64.5" font-family="Helvetica,sans-Serif" font-size="10.00">segment</text>
</a>
</g>
</g>
<!-- Node2&#45;&gt;Node3 -->
<g id="edge2" class="edge"><title>Node2&#45;&gt;Node3</title>
<path fill="none" stroke="midnightblue" d="M198.065,-55.4003C207.895,-57.1296 218.28,-58.9567 227.828,-60.6364"/>
<polygon fill="midnightblue" stroke="midnightblue" points="227.339,-64.104 237.794,-62.3896 228.551,-57.2098 227.339,-64.104"/>
</g>
<!-- Node5 -->
<g id="node5" class="node"><title>Node5</title>
<g id="a_node5"><a xlink:href="classedge.html#a67b4470d9fae58c63a3a63765880cf58" target="_top" xlink:title="edge::print">
<polygon fill="none" stroke="black" points="234,-19.5 234,-38.5 296,-38.5 296,-19.5 234,-19.5"/>
<text text-anchor="middle" x="265" y="-26.5" font-family="Helvetica,sans-Serif" font-size="10.00">edge::print</text>
</a>
</g>
</g>
<!-- Node2&#45;&gt;Node5 -->
<g id="edge4" class="edge"><title>Node2&#45;&gt;Node5</title>
<path fill="none" stroke="midnightblue" d="M198.065,-40.5997C206.571,-39.1033 215.492,-37.5338 223.927,-36.0499"/>
<polygon fill="midnightblue" stroke="midnightblue" points="224.671,-39.4727 233.914,-34.293 223.459,-32.5786 224.671,-39.4727"/>
</g>
<!-- Node4 -->
<g id="node4" class="node"><title>Node4</title>
<g id="a_node4"><a xlink:href="point_8hpp.html#ac3affcd51103a7fafe2143a933683b30" target="_top" xlink:title="bucket">
<polygon fill="none" stroke="black" points="332,-57.5 332,-76.5 378,-76.5 378,-57.5 332,-57.5"/>
<text text-anchor="middle" x="355" y="-64.5" font-family="Helvetica,sans-Serif" font-size="10.00">bucket</text>
</a>
</g>
</g>
<!-- Node3&#45;&gt;Node4 -->
<g id="edge3" class="edge"><title>Node3&#45;&gt;Node4</title>
<path fill="none" stroke="midnightblue" d="M292.403,-67C301.623,-67 312.078,-67 321.722,-67"/>
<polygon fill="midnightblue" stroke="midnightblue" points="321.773,-70.5001 331.773,-67 321.773,-63.5001 321.773,-70.5001"/>
</g>
</g>
</svg>
