<?xml version="1.0" encoding="UTF-8" standalone="no"?>
<!DOCTYPE svg PUBLIC "-//W3C//DTD SVG 1.1//EN"
 "http://www.w3.org/Graphics/SVG/1.1/DTD/svg11.dtd">
<!-- Generated by graphviz version 2.36.0 (20140111.2315)
 -->
<!-- Title: Timer Pages: 1 -->
<svg width="160pt" height="292pt"
 viewBox="0.00 0.00 160.00 292.00" xmlns="http://www.w3.org/2000/svg" xmlns:xlink="http://www.w3.org/1999/xlink">
<g id="graph0" class="graph" transform="scale(1 1) rotate(0) translate(4 288)">
<title>Timer</title>
<!-- Node1 -->
<g id="node1" class="node"><title>Node1</title>
<polygon fill="#bfbfbf" stroke="black" points="22,-0.5 22,-145.5 108,-145.5 108,-0.5 22,-0.5"/>
<text text-anchor="middle" x="65" y="-133.5" font-family="Helvetica,sans-Serif" font-size="10.00">Timer</text>
<polyline fill="none" stroke="black" points="22,-126.5 108,-126.5 "/>
<text text-anchor="middle" x="65" y="-114.5" font-family="Helvetica,sans-Serif" font-size="10.00"> </text>
<polyline fill="none" stroke="black" points="22,-107.5 108,-107.5 "/>
<text text-anchor="start" x="30" y="-95.5" font-family="Helvetica,sans-Serif" font-size="10.00">+ Timer()</text>
<text text-anchor="start" x="30" y="-84.5" font-family="Helvetica,sans-Serif" font-size="10.00">+ ~Timer()</text>
<text text-anchor="start" x="30" y="-73.5" font-family="Helvetica,sans-Serif" font-size="10.00">+ Start()</text>
<text text-anchor="start" x="30" y="-62.5" font-family="Helvetica,sans-Serif" font-size="10.00">+ Stop()</text>
<text text-anchor="start" x="30" y="-51.5" font-family="Helvetica,sans-Serif" font-size="10.00">+ Resume()</text>
<text text-anchor="start" x="30" y="-40.5" font-family="Helvetica,sans-Serif" font-size="10.00">+ ElapsedCpu()</text>
<text text-anchor="start" x="30" y="-29.5" font-family="Helvetica,sans-Serif" font-size="10.00">+ ElapsedWall()</text>
<text text-anchor="start" x="30" y="-18.5" font-family="Helvetica,sans-Serif" font-size="10.00">+ ToString()</text>
<text text-anchor="start" x="30" y="-7.5" font-family="Helvetica,sans-Serif" font-size="10.00">+ ToSecond()</text>
</g>
<!-- Node2 -->
<g id="node2" class="node"><title>Node2</title>
<polygon fill="none" stroke="#bfbfbf" points="-0.5,-226.5 -0.5,-283.5 44.5,-283.5 44.5,-226.5 -0.5,-226.5"/>
<text text-anchor="middle" x="22" y="-271.5" font-family="Helvetica,sans-Serif" font-size="10.00">double</text>
<polyline fill="none" stroke="#bfbfbf" points="-0.5,-264.5 44.5,-264.5 "/>
<text text-anchor="middle" x="22" y="-252.5" font-family="Helvetica,sans-Serif" font-size="10.00"> </text>
<polyline fill="none" stroke="#bfbfbf" points="-0.5,-245.5 44.5,-245.5 "/>
<text text-anchor="middle" x="22" y="-233.5" font-family="Helvetica,sans-Serif" font-size="10.00"> </text>
</g>
<!-- Node2&#45;&gt;Node1 -->
<g id="edge1" class="edge"><title>Node2&#45;&gt;Node1</title>
<path fill="none" stroke="#404040" d="M19.3203,-226.473C18.2948,-208.472 18.3168,-184.569 23,-164 23.4952,-161.825 24.0477,-159.64 24.6503,-157.451"/>
<polygon fill="none" stroke="#404040" points="24.7276,-157.204 22.702,-150.283 28.3113,-145.752 30.3369,-152.672 24.7276,-157.204"/>
<text text-anchor="middle" x="55" y="-200" font-family="Helvetica,sans-Serif" font-size="10.00"> &#45;m_cpuStart</text>
<text text-anchor="middle" x="55" y="-189" font-family="Helvetica,sans-Serif" font-size="10.00">&#45;m_wallStart</text>
<text text-anchor="middle" x="55" y="-178" font-family="Helvetica,sans-Serif" font-size="10.00">&#45;m_wallElapse</text>
<text text-anchor="middle" x="55" y="-167" font-family="Helvetica,sans-Serif" font-size="10.00">&#45;m_cpuElapse</text>
</g>
<!-- Node3 -->
<g id="node3" class="node"><title>Node3</title>
<polygon fill="none" stroke="#bfbfbf" points="91.5,-226.5 91.5,-283.5 126.5,-283.5 126.5,-226.5 91.5,-226.5"/>
<text text-anchor="middle" x="109" y="-271.5" font-family="Helvetica,sans-Serif" font-size="10.00">bool</text>
<polyline fill="none" stroke="#bfbfbf" points="91.5,-264.5 126.5,-264.5 "/>
<text text-anchor="middle" x="109" y="-252.5" font-family="Helvetica,sans-Serif" font-size="10.00"> </text>
<polyline fill="none" stroke="#bfbfbf" points="91.5,-245.5 126.5,-245.5 "/>
<text text-anchor="middle" x="109" y="-233.5" font-family="Helvetica,sans-Serif" font-size="10.00"> </text>
</g>
<!-- Node3&#45;&gt;Node1 -->
<g id="edge2" class="edge"><title>Node3&#45;&gt;Node1</title>
<path fill="none" stroke="#404040" d="M102.221,-226.269C97.6848,-207.71 91.4543,-182.222 85.3881,-157.406"/>
<polygon fill="none" stroke="#404040" points="85.3753,-157.353 80.0649,-152.475 82.5258,-145.696 87.8361,-150.575 85.3753,-157.353"/>
<text text-anchor="middle" x="124.5" y="-183.5" font-family="Helvetica,sans-Serif" font-size="10.00"> &#45;m_stopped</text>
</g>
</g>
</svg>
