<?xml version="1.0" encoding="UTF-8" standalone="no"?>
<!DOCTYPE svg PUBLIC "-//W3C//DTD SVG 1.1//EN"
 "http://www.w3.org/Graphics/SVG/1.1/DTD/svg11.dtd">
<!-- Generated by graphviz version 2.36.0 (20140111.2315)
 -->
<!-- Title: List::remove Pages: 1 -->
<svg width="320pt" height="66pt"
 viewBox="0.00 0.00 320.00 66.00" xmlns="http://www.w3.org/2000/svg" xmlns:xlink="http://www.w3.org/1999/xlink">
<g id="graph0" class="graph" transform="scale(1 1) rotate(0) translate(4 62)">
<title>List::remove</title>
<!-- Node1 -->
<g id="node1" class="node"><title>Node1</title>
<polygon fill="#bfbfbf" stroke="black" points="0.5,-19.5 0.5,-38.5 71.5,-38.5 71.5,-19.5 0.5,-19.5"/>
<text text-anchor="middle" x="36" y="-26.5" font-family="Helvetica,sans-Serif" font-size="10.00">List::remove</text>
</g>
<!-- Node2 -->
<g id="node2" class="node"><title>Node2</title>
<g id="a_node2"><a xlink:href="classHashTable.html#a15759896e8e9960cd44fa70673bec921" target="_top" xlink:title="HashTable::remove">
<polygon fill="none" stroke="black" points="108,-38.5 108,-57.5 210,-57.5 210,-38.5 108,-38.5"/>
<text text-anchor="middle" x="159" y="-45.5" font-family="Helvetica,sans-Serif" font-size="10.00">HashTable::remove</text>
</a>
</g>
</g>
<!-- Node1&#45;&gt;Node2 -->
<g id="edge1" class="edge"><title>Node1&#45;&gt;Node2</title>
<path fill="none" stroke="midnightblue" d="M81.8062,-36.0357C90.3357,-37.375 99.3124,-38.7846 107.992,-40.1475"/>
<polygon fill="midnightblue" stroke="midnightblue" points="82.0957,-32.5383 71.6737,-34.4446 81.0097,-39.4536 82.0957,-32.5383"/>
</g>
<!-- Node4 -->
<g id="node4" class="node"><title>Node4</title>
<g id="a_node4"><a xlink:href="ListBench_8cpp.html#ad11a233f81ddfcdb0effb7b0bb5b97fb" target="_top" xlink:title="bench_test">
<polygon fill="none" stroke="black" points="126.5,-0.5 126.5,-19.5 191.5,-19.5 191.5,-0.5 126.5,-0.5"/>
<text text-anchor="middle" x="159" y="-7.5" font-family="Helvetica,sans-Serif" font-size="10.00">bench_test</text>
</a>
</g>
</g>
<!-- Node1&#45;&gt;Node4 -->
<g id="edge3" class="edge"><title>Node1&#45;&gt;Node4</title>
<path fill="none" stroke="midnightblue" d="M81.65,-21.9888C96.4431,-19.666 112.596,-17.1295 126.22,-14.9903"/>
<polygon fill="midnightblue" stroke="midnightblue" points="81.0097,-18.5464 71.6737,-23.5554 82.0957,-25.4617 81.0097,-18.5464"/>
</g>
<!-- Node3 -->
<g id="node3" class="node"><title>Node3</title>
<g id="a_node3"><a xlink:href="HashBench_8cpp.html#ad11a233f81ddfcdb0effb7b0bb5b97fb" target="_top" xlink:title="bench_test">
<polygon fill="none" stroke="black" points="246.5,-38.5 246.5,-57.5 311.5,-57.5 311.5,-38.5 246.5,-38.5"/>
<text text-anchor="middle" x="279" y="-45.5" font-family="Helvetica,sans-Serif" font-size="10.00">bench_test</text>
</a>
</g>
</g>
<!-- Node2&#45;&gt;Node3 -->
<g id="edge2" class="edge"><title>Node2&#45;&gt;Node3</title>
<path fill="none" stroke="midnightblue" d="M220.216,-48C229.253,-48 238.252,-48 246.364,-48"/>
<polygon fill="midnightblue" stroke="midnightblue" points="220.043,-44.5001 210.043,-48 220.043,-51.5001 220.043,-44.5001"/>
</g>
</g>
</svg>
