<?xml version="1.0" encoding="UTF-8" standalone="no"?>
<!DOCTYPE svg PUBLIC "-//W3C//DTD SVG 1.1//EN"
 "http://www.w3.org/Graphics/SVG/1.1/DTD/svg11.dtd">
<!-- Generated by graphviz version 2.36.0 (20140111.2315)
 -->
<!-- Title: edge_set::erase Pages: 1 -->
<svg width="832pt" height="122pt"
 viewBox="0.00 0.00 832.00 122.00" xmlns="http://www.w3.org/2000/svg" xmlns:xlink="http://www.w3.org/1999/xlink">
<g id="graph0" class="graph" transform="scale(1 1) rotate(0) translate(4 118)">
<title>edge_set::erase</title>
<!-- Node1 -->
<g id="node1" class="node"><title>Node1</title>
<polygon fill="#bfbfbf" stroke="black" points="0,-28.5 0,-47.5 86,-47.5 86,-28.5 0,-28.5"/>
<text text-anchor="middle" x="43" y="-35.5" font-family="Helvetica,sans-Serif" font-size="10.00">edge_set::erase</text>
</g>
<!-- Node2 -->
<g id="node2" class="node"><title>Node2</title>
<g id="a_node2"><a xlink:href="classedge.html#a17a50641ad92dce62c3c8db8bf528ddc" target="_top" xlink:title="edge::destroy">
<polygon fill="none" stroke="black" points="122,-28.5 122,-47.5 198,-47.5 198,-28.5 122,-28.5"/>
<text text-anchor="middle" x="160" y="-35.5" font-family="Helvetica,sans-Serif" font-size="10.00">edge::destroy</text>
</a>
</g>
</g>
<!-- Node1&#45;&gt;Node2 -->
<g id="edge1" class="edge"><title>Node1&#45;&gt;Node2</title>
<path fill="none" stroke="midnightblue" d="M96.181,-38C104.813,-38 113.607,-38 121.774,-38"/>
<polygon fill="midnightblue" stroke="midnightblue" points="96.1688,-34.5001 86.1688,-38 96.1687,-41.5001 96.1688,-34.5001"/>
</g>
<!-- Node3 -->
<g id="node3" class="node"><title>Node3</title>
<g id="a_node3"><a xlink:href="classedge.html#aad0f6a205dbe62d5f1bc564cb66cd9e8" target="_top" xlink:title="edge::reconsider">
<polygon fill="none" stroke="black" points="390.5,-56.5 390.5,-75.5 479.5,-75.5 479.5,-56.5 390.5,-56.5"/>
<text text-anchor="middle" x="435" y="-63.5" font-family="Helvetica,sans-Serif" font-size="10.00">edge::reconsider</text>
</a>
</g>
</g>
<!-- Node2&#45;&gt;Node3 -->
<g id="edge2" class="edge"><title>Node2&#45;&gt;Node3</title>
<path fill="none" stroke="midnightblue" d="M208.236,-42.8447C259.416,-48.0939 340.414,-56.4014 390.207,-61.5084"/>
<polygon fill="midnightblue" stroke="midnightblue" points="208.407,-39.344 198.102,-41.8053 207.693,-46.3075 208.407,-39.344"/>
</g>
<!-- Node7 -->
<g id="node7" class="node"><title>Node7</title>
<g id="a_node7"><a xlink:href="structpv__side.html#ab6c6440d122035bd15a096d96350ce77" target="_top" xlink:title="pv_side::find_candidate">
<polygon fill="none" stroke="black" points="234.5,-5.5 234.5,-24.5 353.5,-24.5 353.5,-5.5 234.5,-5.5"/>
<text text-anchor="middle" x="294" y="-12.5" font-family="Helvetica,sans-Serif" font-size="10.00">pv_side::find_candidate</text>
</a>
</g>
</g>
<!-- Node2&#45;&gt;Node7 -->
<g id="edge7" class="edge"><title>Node2&#45;&gt;Node7</title>
<path fill="none" stroke="midnightblue" d="M208.096,-29.7939C217.919,-28.0823 228.352,-26.2643 238.42,-24.5101"/>
<polygon fill="midnightblue" stroke="midnightblue" points="207.371,-26.3673 198.121,-31.532 208.573,-33.2634 207.371,-26.3673"/>
</g>
<!-- Node4 -->
<g id="node4" class="node"><title>Node4</title>
<g id="a_node4"><a xlink:href="worker_8cpp.html#aaaf358d95d261241cf6073eaf7de2a94" target="_top" xlink:title="reconsider_edge">
<polygon fill="none" stroke="black" points="516,-94.5 516,-113.5 604,-113.5 604,-94.5 516,-94.5"/>
<text text-anchor="middle" x="560" y="-101.5" font-family="Helvetica,sans-Serif" font-size="10.00">reconsider_edge</text>
</a>
</g>
</g>
<!-- Node3&#45;&gt;Node4 -->
<g id="edge3" class="edge"><title>Node3&#45;&gt;Node4</title>
<path fill="none" stroke="midnightblue" d="M477.045,-78.6804C493.664,-83.8148 512.532,-89.6441 527.972,-94.4141"/>
<polygon fill="midnightblue" stroke="midnightblue" points="477.626,-75.1968 467.038,-75.589 475.559,-81.8849 477.626,-75.1968"/>
</g>
<!-- Node5 -->
<g id="node5" class="node"><title>Node5</title>
<g id="a_node5"><a xlink:href="worker_8cpp.html#a4d3d5d6b1446463eca81bdd1106ef943" target="_top" xlink:title="do_work">
<polygon fill="none" stroke="black" points="640.5,-56.5 640.5,-75.5 693.5,-75.5 693.5,-56.5 640.5,-56.5"/>
<text text-anchor="middle" x="667" y="-63.5" font-family="Helvetica,sans-Serif" font-size="10.00">do_work</text>
</a>
</g>
</g>
<!-- Node3&#45;&gt;Node5 -->
<g id="edge6" class="edge"><title>Node3&#45;&gt;Node5</title>
<path fill="none" stroke="midnightblue" d="M489.638,-66C537.089,-66 604.25,-66 640.469,-66"/>
<polygon fill="midnightblue" stroke="midnightblue" points="489.532,-62.5001 479.532,-66 489.532,-69.5001 489.532,-62.5001"/>
</g>
<!-- Node4&#45;&gt;Node5 -->
<g id="edge4" class="edge"><title>Node4&#45;&gt;Node5</title>
<path fill="none" stroke="midnightblue" d="M596.991,-90.9747C611.206,-85.8302 627.219,-80.0351 640.238,-75.3232"/>
<polygon fill="midnightblue" stroke="midnightblue" points="595.708,-87.7168 587.496,-94.411 598.09,-94.299 595.708,-87.7168"/>
</g>
<!-- Node6 -->
<g id="node6" class="node"><title>Node6</title>
<g id="a_node6"><a xlink:href="classworker.html#a7b7d6866de64fc583693899b65cb12bc" target="_top" xlink:title="worker::operator()">
<polygon fill="none" stroke="black" points="730.5,-56.5 730.5,-75.5 823.5,-75.5 823.5,-56.5 730.5,-56.5"/>
<text text-anchor="middle" x="777" y="-63.5" font-family="Helvetica,sans-Serif" font-size="10.00">worker::operator()</text>
</a>
</g>
</g>
<!-- Node5&#45;&gt;Node6 -->
<g id="edge5" class="edge"><title>Node5&#45;&gt;Node6</title>
<path fill="none" stroke="midnightblue" d="M703.596,-66C712.134,-66 721.37,-66 730.296,-66"/>
<polygon fill="midnightblue" stroke="midnightblue" points="703.595,-62.5001 693.594,-66 703.594,-69.5001 703.595,-62.5001"/>
</g>
<!-- Node8 -->
<g id="node8" class="node"><title>Node8</title>
<g id="a_node8"><a xlink:href="dwyer_8cpp.html#ac5af40cdd517beac7515468404be6c72" target="_top" xlink:title="stitch">
<polygon fill="none" stroke="black" points="414.5,-2.5 414.5,-21.5 455.5,-21.5 455.5,-2.5 414.5,-2.5"/>
<text text-anchor="middle" x="435" y="-9.5" font-family="Helvetica,sans-Serif" font-size="10.00">stitch</text>
</a>
</g>
</g>
<!-- Node7&#45;&gt;Node8 -->
<g id="edge8" class="edge"><title>Node7&#45;&gt;Node8</title>
<path fill="none" stroke="midnightblue" d="M363.775,-13.5157C382.259,-13.1167 400.812,-12.7163 414.202,-12.4273"/>
<polygon fill="midnightblue" stroke="midnightblue" points="363.468,-10.0214 353.546,-13.7364 363.619,-17.0197 363.468,-10.0214"/>
</g>
<!-- Node9 -->
<g id="node9" class="node"><title>Node9</title>
<g id="a_node9"><a xlink:href="dwyer_8hpp.html#af02e2aa3c0f40c330c2d1bc03ad9438a" target="_top" xlink:title="dwyer_solve">
<polygon fill="none" stroke="black" points="524.5,-0.5 524.5,-19.5 595.5,-19.5 595.5,-0.5 524.5,-0.5"/>
<text text-anchor="middle" x="560" y="-7.5" font-family="Helvetica,sans-Serif" font-size="10.00">dwyer_solve</text>
</a>
</g>
</g>
<!-- Node8&#45;&gt;Node9 -->
<g id="edge9" class="edge"><title>Node8&#45;&gt;Node9</title>
<path fill="none" stroke="midnightblue" d="M466.051,-11.5114C483.681,-11.2247 506.027,-10.8614 524.39,-10.5628"/>
<polygon fill="midnightblue" stroke="midnightblue" points="465.704,-8.01645 455.762,-11.6787 465.818,-15.0155 465.704,-8.01645"/>
</g>
<!-- Node9&#45;&gt;Node5 -->
<g id="edge12" class="edge"><title>Node9&#45;&gt;Node5</title>
<path fill="none" stroke="midnightblue" d="M588.263,-24.54C607.052,-34.5612 631.501,-47.6007 647.92,-56.3573"/>
<polygon fill="midnightblue" stroke="midnightblue" points="589.76,-21.3722 579.29,-19.7545 586.466,-27.5486 589.76,-21.3722"/>
</g>
<!-- Node9&#45;&gt;Node9 -->
<g id="edge10" class="edge"><title>Node9&#45;&gt;Node9</title>
<path fill="none" stroke="midnightblue" d="M540.371,-29.4C541.682,-34.3146 548.225,-38 560,-38 578.84,-38 584.286,-28.5653 576.338,-19.7571"/>
<polygon fill="midnightblue" stroke="midnightblue" points="543.745,-30.3516 543.662,-19.7571 537.12,-28.0906 543.745,-30.3516"/>
</g>
<!-- Node10 -->
<g id="node10" class="node"><title>Node10</title>
<g id="a_node10"><a xlink:href="mesh_8cpp.html#a0ddf1224851353fc92bfbff6f499fa97" target="_top" xlink:title="main">
<polygon fill="none" stroke="black" points="648,-0.5 648,-19.5 686,-19.5 686,-0.5 648,-0.5"/>
<text text-anchor="middle" x="667" y="-7.5" font-family="Helvetica,sans-Serif" font-size="10.00">main</text>
</a>
</g>
</g>
<!-- Node9&#45;&gt;Node10 -->
<g id="edge11" class="edge"><title>Node9&#45;&gt;Node10</title>
<path fill="none" stroke="midnightblue" d="M605.738,-10C620.558,-10 636.223,-10 647.866,-10"/>
<polygon fill="midnightblue" stroke="midnightblue" points="605.672,-6.5001 595.672,-10 605.672,-13.5001 605.672,-6.5001"/>
</g>
</g>
</svg>
