<?xml version="1.0" encoding="UTF-8" standalone="no"?>
<!DOCTYPE svg PUBLIC "-//W3C//DTD SVG 1.1//EN"
 "http://www.w3.org/Graphics/SVG/1.1/DTD/svg11.dtd">
<!-- Generated by graphviz version 2.36.0 (20140111.2315)
 -->
<!-- Title: RBTree::blackHeight Pages: 1 -->
<svg width="346pt" height="66pt"
 viewBox="0.00 0.00 346.00 66.00" xmlns="http://www.w3.org/2000/svg" xmlns:xlink="http://www.w3.org/1999/xlink">
<g id="graph0" class="graph" transform="scale(1 1) rotate(0) translate(4 62)">
<title>RBTree::blackHeight</title>
<!-- Node1 -->
<g id="node1" class="node"><title>Node1</title>
<polygon fill="#bfbfbf" stroke="black" points="0,-19.5 0,-38.5 108,-38.5 108,-19.5 0,-19.5"/>
<text text-anchor="middle" x="54" y="-26.5" font-family="Helvetica,sans-Serif" font-size="10.00">RBTree::blackHeight</text>
</g>
<!-- Node2 -->
<g id="node2" class="node"><title>Node2</title>
<g id="a_node2"><a xlink:href="classRBTree.html#abb5ba484adb7e85adc371565c64c87fc" target="_top" xlink:title="RBTree::isSane">
<polygon fill="none" stroke="black" points="144,-19.5 144,-38.5 230,-38.5 230,-19.5 144,-19.5"/>
<text text-anchor="middle" x="187" y="-26.5" font-family="Helvetica,sans-Serif" font-size="10.00">RBTree::isSane</text>
</a>
</g>
</g>
<!-- Node1&#45;&gt;Node2 -->
<g id="edge1" class="edge"><title>Node1&#45;&gt;Node2</title>
<path fill="none" stroke="midnightblue" d="M118.298,-29C126.88,-29 135.511,-29 143.604,-29"/>
<polygon fill="midnightblue" stroke="midnightblue" points="118.283,-25.5001 108.283,-29 118.283,-32.5001 118.283,-25.5001"/>
</g>
<!-- Node3 -->
<g id="node3" class="node"><title>Node3</title>
<g id="a_node3"><a xlink:href="ForestBench_8cpp.html#a0c66bb3c4c93ab03eced3cb6a617c884" target="_top" xlink:title="bench_verify">
<polygon fill="none" stroke="black" points="266,-38.5 266,-57.5 338,-57.5 338,-38.5 266,-38.5"/>
<text text-anchor="middle" x="302" y="-45.5" font-family="Helvetica,sans-Serif" font-size="10.00">bench_verify</text>
</a>
</g>
</g>
<!-- Node2&#45;&gt;Node3 -->
<g id="edge2" class="edge"><title>Node2&#45;&gt;Node3</title>
<path fill="none" stroke="midnightblue" d="M240.194,-37.776C248.908,-39.2412 257.76,-40.7296 265.914,-42.1005"/>
<polygon fill="midnightblue" stroke="midnightblue" points="240.519,-34.2816 230.077,-36.0749 239.358,-41.1847 240.519,-34.2816"/>
</g>
<!-- Node4 -->
<g id="node4" class="node"><title>Node4</title>
<g id="a_node4"><a xlink:href="TreeBench_8cpp.html#a3adf213f254e3746cbce57cc95dfb687" target="_top" xlink:title="bench_init">
<polygon fill="none" stroke="black" points="271.5,-0.5 271.5,-19.5 332.5,-19.5 332.5,-0.5 271.5,-0.5"/>
<text text-anchor="middle" x="302" y="-7.5" font-family="Helvetica,sans-Serif" font-size="10.00">bench_init</text>
</a>
</g>
</g>
<!-- Node2&#45;&gt;Node4 -->
<g id="edge3" class="edge"><title>Node2&#45;&gt;Node4</title>
<path fill="none" stroke="midnightblue" d="M240.179,-20.2266C250.833,-18.4352 261.693,-16.6091 271.232,-15.0052"/>
<polygon fill="midnightblue" stroke="midnightblue" points="239.358,-16.8153 230.077,-21.9251 240.519,-23.7184 239.358,-16.8153"/>
</g>
</g>
</svg>
