<?xml version="1.0" encoding="UTF-8" standalone="no"?>
<!DOCTYPE svg PUBLIC "-//W3C//DTD SVG 1.1//EN"
 "http://www.w3.org/Graphics/SVG/1.1/DTD/svg11.dtd">
<!-- Generated by graphviz version 2.36.0 (20140111.2315)
 -->
<!-- Title: SetAdaptor&lt; BoostingList &gt; Pages: 1 -->
<svg width="582pt" height="746pt"
 viewBox="0.00 0.00 582.20 746.00" xmlns="http://www.w3.org/2000/svg" xmlns:xlink="http://www.w3.org/1999/xlink">
<g id="graph0" class="graph" transform="scale(1 1) rotate(0) translate(4 742)">
<title>SetAdaptor&lt; BoostingList &gt;</title>
<!-- Node1 -->
<g id="node1" class="node"><title>Node1</title>
<polygon fill="#bfbfbf" stroke="black" points="190.705,-0.5 190.705,-101.5 327.705,-101.5 327.705,-0.5 190.705,-0.5"/>
<text text-anchor="middle" x="259.205" y="-89.5" font-family="Helvetica,sans-Serif" font-size="10.00">SetAdaptor&lt; BoostingList &gt;</text>
<polyline fill="none" stroke="black" points="190.705,-82.5 327.705,-82.5 "/>
<text text-anchor="middle" x="259.205" y="-70.5" font-family="Helvetica,sans-Serif" font-size="10.00"> </text>
<polyline fill="none" stroke="black" points="190.705,-63.5 327.705,-63.5 "/>
<text text-anchor="start" x="198.705" y="-51.5" font-family="Helvetica,sans-Serif" font-size="10.00">+ SetAdaptor()</text>
<text text-anchor="start" x="198.705" y="-40.5" font-family="Helvetica,sans-Serif" font-size="10.00">+ ~SetAdaptor()</text>
<text text-anchor="start" x="198.705" y="-29.5" font-family="Helvetica,sans-Serif" font-size="10.00">+ Init()</text>
<text text-anchor="start" x="198.705" y="-18.5" font-family="Helvetica,sans-Serif" font-size="10.00">+ Uninit()</text>
<text text-anchor="start" x="198.705" y="-7.5" font-family="Helvetica,sans-Serif" font-size="10.00">+ ExecuteOps()</text>
</g>
<!-- Node2 -->
<g id="node2" class="node"><title>Node2</title>
<g id="a_node2"><a xlink:href="classBoostingList.html" target="_top" xlink:title="{BoostingList\n||+ ~BoostingList()\l+ Init()\l+ Uninit()\l+ Insert()\l+ Delete()\l+ Find()\l+ OnAbort()\l+ OnCommit()\l+ Print()\l&#45; ASSERT_CODE()\l}">
<polygon fill="none" stroke="black" points="207.205,-151 207.205,-307 311.205,-307 311.205,-151 207.205,-151"/>
<text text-anchor="middle" x="259.205" y="-295" font-family="Helvetica,sans-Serif" font-size="10.00">BoostingList</text>
<polyline fill="none" stroke="black" points="207.205,-288 311.205,-288 "/>
<text text-anchor="middle" x="259.205" y="-276" font-family="Helvetica,sans-Serif" font-size="10.00"> </text>
<polyline fill="none" stroke="black" points="207.205,-269 311.205,-269 "/>
<text text-anchor="start" x="215.205" y="-257" font-family="Helvetica,sans-Serif" font-size="10.00">+ ~BoostingList()</text>
<text text-anchor="start" x="215.205" y="-246" font-family="Helvetica,sans-Serif" font-size="10.00">+ Init()</text>
<text text-anchor="start" x="215.205" y="-235" font-family="Helvetica,sans-Serif" font-size="10.00">+ Uninit()</text>
<text text-anchor="start" x="215.205" y="-224" font-family="Helvetica,sans-Serif" font-size="10.00">+ Insert()</text>
<text text-anchor="start" x="215.205" y="-213" font-family="Helvetica,sans-Serif" font-size="10.00">+ Delete()</text>
<text text-anchor="start" x="215.205" y="-202" font-family="Helvetica,sans-Serif" font-size="10.00">+ Find()</text>
<text text-anchor="start" x="215.205" y="-191" font-family="Helvetica,sans-Serif" font-size="10.00">+ OnAbort()</text>
<text text-anchor="start" x="215.205" y="-180" font-family="Helvetica,sans-Serif" font-size="10.00">+ OnCommit()</text>
<text text-anchor="start" x="215.205" y="-169" font-family="Helvetica,sans-Serif" font-size="10.00">+ Print()</text>
<text text-anchor="start" x="215.205" y="-158" font-family="Helvetica,sans-Serif" font-size="10.00">&#45; ASSERT_CODE()</text>
</a>
</g>
</g>
<!-- Node2&#45;&gt;Node1 -->
<g id="edge1" class="edge"><title>Node2&#45;&gt;Node1</title>
<path fill="none" stroke="#404040" d="M259.205,-150.804C259.205,-138.396 259.205,-125.698 259.205,-113.716"/>
<polygon fill="none" stroke="#404040" points="259.205,-113.53 255.205,-107.53 259.205,-101.53 263.205,-107.53 259.205,-113.53"/>
<text text-anchor="middle" x="275.705" y="-123.5" font-family="Helvetica,sans-Serif" font-size="10.00"> &#45;m_list</text>
</g>
<!-- Node3 -->
<g id="node3" class="node"><title>Node3</title>
<g id="a_node3"><a xlink:href="classLockfreeList.html" target="_top" xlink:title="{LockfreeList\n||+ LockfreeList()\l+ ~LockfreeList()\l+ Find()\l+ Insert()\l+ Delete()\l+ Size()\l+ Print()\l&#45; LocatePred()\l}">
<polygon fill="none" stroke="black" points="144.705,-357 144.705,-491 235.705,-491 235.705,-357 144.705,-357"/>
<text text-anchor="middle" x="190.205" y="-479" font-family="Helvetica,sans-Serif" font-size="10.00">LockfreeList</text>
<polyline fill="none" stroke="black" points="144.705,-472 235.705,-472 "/>
<text text-anchor="middle" x="190.205" y="-460" font-family="Helvetica,sans-Serif" font-size="10.00"> </text>
<polyline fill="none" stroke="black" points="144.705,-453 235.705,-453 "/>
<text text-anchor="start" x="152.705" y="-441" font-family="Helvetica,sans-Serif" font-size="10.00">+ LockfreeList()</text>
<text text-anchor="start" x="152.705" y="-430" font-family="Helvetica,sans-Serif" font-size="10.00">+ ~LockfreeList()</text>
<text text-anchor="start" x="152.705" y="-419" font-family="Helvetica,sans-Serif" font-size="10.00">+ Find()</text>
<text text-anchor="start" x="152.705" y="-408" font-family="Helvetica,sans-Serif" font-size="10.00">+ Insert()</text>
<text text-anchor="start" x="152.705" y="-397" font-family="Helvetica,sans-Serif" font-size="10.00">+ Delete()</text>
<text text-anchor="start" x="152.705" y="-386" font-family="Helvetica,sans-Serif" font-size="10.00">+ Size()</text>
<text text-anchor="start" x="152.705" y="-375" font-family="Helvetica,sans-Serif" font-size="10.00">+ Print()</text>
<text text-anchor="start" x="152.705" y="-364" font-family="Helvetica,sans-Serif" font-size="10.00">&#45; LocatePred()</text>
</a>
</g>
</g>
<!-- Node3&#45;&gt;Node2 -->
<g id="edge2" class="edge"><title>Node3&#45;&gt;Node2</title>
<path fill="none" stroke="#404040" d="M213.854,-356.85C218.29,-344.444 222.992,-331.292 227.623,-318.338"/>
<polygon fill="none" stroke="#404040" points="227.626,-318.328 225.88,-311.332 231.666,-307.029 233.413,-314.025 227.626,-318.328"/>
<text text-anchor="middle" x="241.705" y="-329.5" font-family="Helvetica,sans-Serif" font-size="10.00"> &#45;m_list</text>
</g>
<!-- Node4 -->
<g id="node4" class="node"><title>Node4</title>
<polygon fill="none" stroke="#bfbfbf" points="56.7049,-680.5 56.7049,-737.5 107.705,-737.5 107.705,-680.5 56.7049,-680.5"/>
<text text-anchor="middle" x="82.2049" y="-725.5" font-family="Helvetica,sans-Serif" font-size="10.00">uint32_t</text>
<polyline fill="none" stroke="#bfbfbf" points="56.7049,-718.5 107.705,-718.5 "/>
<text text-anchor="middle" x="82.2049" y="-706.5" font-family="Helvetica,sans-Serif" font-size="10.00"> </text>
<polyline fill="none" stroke="#bfbfbf" points="56.7049,-699.5 107.705,-699.5 "/>
<text text-anchor="middle" x="82.2049" y="-687.5" font-family="Helvetica,sans-Serif" font-size="10.00"> </text>
</g>
<!-- Node4&#45;&gt;Node2 -->
<g id="edge7" class="edge"><title>Node4&#45;&gt;Node2</title>
<path fill="none" stroke="#404040" d="M58.3457,-680.246C28.542,-642.054 -15.9965,-571.078 6.20489,-510 42.5873,-409.909 134.774,-324.034 197.227,-274.678"/>
<polygon fill="none" stroke="#404040" points="197.518,-274.451 199.79,-267.608 206.982,-267.074 204.709,-273.917 197.518,-274.451"/>
<text text-anchor="middle" x="50.7049" y="-530" font-family="Helvetica,sans-Serif" font-size="10.00"> &#45;g_count_abort</text>
<text text-anchor="middle" x="50.7049" y="-519" font-family="Helvetica,sans-Serif" font-size="10.00">&#45;g_count_fake_abort</text>
</g>
<!-- Node4&#45;&gt;Node3 -->
<g id="edge3" class="edge"><title>Node4&#45;&gt;Node3</title>
<path fill="none" stroke="#404040" d="M79.4378,-680.453C77.4269,-650.401 77.1294,-601.333 91.2049,-562 101.327,-533.715 119.186,-506.143 136.974,-483.237"/>
<polygon fill="none" stroke="#404040" points="137.086,-483.097 137.702,-475.913 144.571,-473.718 143.955,-480.903 137.086,-483.097"/>
<text text-anchor="middle" x="111.205" y="-594.5" font-family="Helvetica,sans-Serif" font-size="10.00"> &#45;memptr</text>
</g>
<!-- Node5 -->
<g id="node5" class="node"><title>Node5</title>
<g id="a_node5"><a xlink:href="structLockfreeList_1_1Node.html" target="_top" xlink:title="{LockfreeList::Node\n||}">
<polygon fill="none" stroke="black" points="140.705,-568.5 140.705,-625.5 239.705,-625.5 239.705,-568.5 140.705,-568.5"/>
<text text-anchor="middle" x="190.205" y="-613.5" font-family="Helvetica,sans-Serif" font-size="10.00">LockfreeList::Node</text>
<polyline fill="none" stroke="black" points="140.705,-606.5 239.705,-606.5 "/>
<text text-anchor="middle" x="190.205" y="-594.5" font-family="Helvetica,sans-Serif" font-size="10.00"> </text>
<polyline fill="none" stroke="black" points="140.705,-587.5 239.705,-587.5 "/>
<text text-anchor="middle" x="190.205" y="-575.5" font-family="Helvetica,sans-Serif" font-size="10.00"> </text>
</a>
</g>
</g>
<!-- Node4&#45;&gt;Node5 -->
<g id="edge6" class="edge"><title>Node4&#45;&gt;Node5</title>
<path fill="none" stroke="#404040" d="M107.799,-681.932C121.67,-667.805 139.035,-650.118 154.244,-634.627"/>
<polygon fill="none" stroke="#404040" points="154.499,-634.367 155.848,-627.283 162.906,-625.804 161.557,-632.888 154.499,-634.367"/>
<text text-anchor="middle" x="148.705" y="-653.5" font-family="Helvetica,sans-Serif" font-size="10.00"> +key</text>
</g>
<!-- Node5&#45;&gt;Node3 -->
<g id="edge4" class="edge"><title>Node5&#45;&gt;Node3</title>
<path fill="none" stroke="#404040" d="M190.205,-568.145C190.205,-550.415 190.205,-526.495 190.205,-503.289"/>
<polygon fill="none" stroke="#404040" points="190.205,-503.255 186.205,-497.255 190.205,-491.255 194.205,-497.255 190.205,-503.255"/>
<text text-anchor="middle" x="210.705" y="-535.5" font-family="Helvetica,sans-Serif" font-size="10.00"> &#45;m_head</text>
<text text-anchor="middle" x="210.705" y="-524.5" font-family="Helvetica,sans-Serif" font-size="10.00">&#45;mem</text>
<text text-anchor="middle" x="210.705" y="-513.5" font-family="Helvetica,sans-Serif" font-size="10.00">&#45;m_tail</text>
</g>
<!-- Node5&#45;&gt;Node5 -->
<g id="edge5" class="edge"><title>Node5&#45;&gt;Node5</title>
<path fill="none" stroke="#404040" d="M239.877,-607.46C249.974,-606.321 257.205,-602.834 257.205,-597 257.205,-593.901 255.164,-591.464 251.737,-589.689"/>
<polygon fill="none" stroke="#404040" points="251.475,-589.62 244.649,-591.946 239.877,-586.54 246.702,-584.214 251.475,-589.62"/>
<text text-anchor="middle" x="271.205" y="-594.5" font-family="Helvetica,sans-Serif" font-size="10.00"> +next</text>
</g>
<!-- Node6 -->
<g id="node6" class="node"><title>Node6</title>
<g id="a_node6"><a xlink:href="classLockKey.html" target="_top" xlink:title="{LockKey\n||+ LockKey()\l+ ~LockKey()\l+ Init()\l+ Uninit()\l+ Lock()\l+ Unlock()\l}">
<polygon fill="none" stroke="black" points="291.205,-368 291.205,-480 367.205,-480 367.205,-368 291.205,-368"/>
<text text-anchor="middle" x="329.205" y="-468" font-family="Helvetica,sans-Serif" font-size="10.00">LockKey</text>
<polyline fill="none" stroke="black" points="291.205,-461 367.205,-461 "/>
<text text-anchor="middle" x="329.205" y="-449" font-family="Helvetica,sans-Serif" font-size="10.00"> </text>
<polyline fill="none" stroke="black" points="291.205,-442 367.205,-442 "/>
<text text-anchor="start" x="299.205" y="-430" font-family="Helvetica,sans-Serif" font-size="10.00">+ LockKey()</text>
<text text-anchor="start" x="299.205" y="-419" font-family="Helvetica,sans-Serif" font-size="10.00">+ ~LockKey()</text>
<text text-anchor="start" x="299.205" y="-408" font-family="Helvetica,sans-Serif" font-size="10.00">+ Init()</text>
<text text-anchor="start" x="299.205" y="-397" font-family="Helvetica,sans-Serif" font-size="10.00">+ Uninit()</text>
<text text-anchor="start" x="299.205" y="-386" font-family="Helvetica,sans-Serif" font-size="10.00">+ Lock()</text>
<text text-anchor="start" x="299.205" y="-375" font-family="Helvetica,sans-Serif" font-size="10.00">+ Unlock()</text>
</a>
</g>
</g>
<!-- Node6&#45;&gt;Node2 -->
<g id="edge8" class="edge"><title>Node6&#45;&gt;Node2</title>
<path fill="none" stroke="#404040" d="M309.239,-367.952C303.658,-352.563 297.446,-335.437 291.351,-318.631"/>
<polygon fill="none" stroke="#404040" points="291.25,-318.354 285.444,-314.077 287.159,-307.073 292.965,-311.349 291.25,-318.354"/>
<text text-anchor="middle" x="316.205" y="-329.5" font-family="Helvetica,sans-Serif" font-size="10.00"> &#45;m_lock</text>
</g>
<!-- Node7 -->
<g id="node7" class="node"><title>Node7</title>
<polygon fill="none" stroke="#bfbfbf" points="303.705,-568.5 303.705,-625.5 430.705,-625.5 430.705,-568.5 303.705,-568.5"/>
<text text-anchor="middle" x="367.205" y="-613.5" font-family="Helvetica,sans-Serif" font-size="10.00">static __thread LockSet *</text>
<polyline fill="none" stroke="#bfbfbf" points="303.705,-606.5 430.705,-606.5 "/>
<text text-anchor="middle" x="367.205" y="-594.5" font-family="Helvetica,sans-Serif" font-size="10.00"> </text>
<polyline fill="none" stroke="#bfbfbf" points="303.705,-587.5 430.705,-587.5 "/>
<text text-anchor="middle" x="367.205" y="-575.5" font-family="Helvetica,sans-Serif" font-size="10.00"> </text>
</g>
<!-- Node7&#45;&gt;Node6 -->
<g id="edge9" class="edge"><title>Node7&#45;&gt;Node6</title>
<path fill="none" stroke="#404040" d="M361.015,-568.145C356.437,-547.546 350.003,-518.59 344.117,-492.106"/>
<polygon fill="none" stroke="#404040" points="344.064,-491.865 338.858,-486.876 341.461,-480.151 346.667,-485.14 344.064,-491.865"/>
<text text-anchor="middle" x="381.705" y="-524.5" font-family="Helvetica,sans-Serif" font-size="10.00"> &#45;m_lockSet</text>
</g>
<!-- Node8 -->
<g id="node8" class="node"><title>Node8</title>
<polygon fill="none" stroke="#bfbfbf" points="448.705,-563 448.705,-631 573.705,-631 573.705,-563 448.705,-563"/>
<text text-anchor="start" x="456.705" y="-619" font-family="Helvetica,sans-Serif" font-size="10.00">concurrent_hash_map</text>
<text text-anchor="middle" x="511.205" y="-608" font-family="Helvetica,sans-Serif" font-size="10.00">&lt; uint32_t, LockType * &gt;</text>
<polyline fill="none" stroke="#bfbfbf" points="448.705,-601 573.705,-601 "/>
<text text-anchor="middle" x="511.205" y="-589" font-family="Helvetica,sans-Serif" font-size="10.00"> </text>
<polyline fill="none" stroke="#bfbfbf" points="448.705,-582 573.705,-582 "/>
<text text-anchor="middle" x="511.205" y="-570" font-family="Helvetica,sans-Serif" font-size="10.00"> </text>
</g>
<!-- Node8&#45;&gt;Node6 -->
<g id="edge10" class="edge"><title>Node8&#45;&gt;Node6</title>
<path fill="none" stroke="#404040" d="M477.205,-562.67C458.86,-545.696 435.293,-525.44 412.205,-510 397.335,-500.056 389.755,-503.679 376.205,-492 375.024,-490.983 373.859,-489.929 372.709,-488.845"/>
<polygon fill="none" stroke="#404040" points="372.533,-488.662 365.491,-487.108 364.217,-480.011 371.259,-481.564 372.533,-488.662"/>
<text text-anchor="middle" x="483.705" y="-524.5" font-family="Helvetica,sans-Serif" font-size="10.00"> &#45;m_lockMap</text>
</g>
<!-- Node9 -->
<g id="node9" class="node"><title>Node9</title>
<polygon fill="none" stroke="#bfbfbf" points="385.205,-395.5 385.205,-452.5 513.205,-452.5 513.205,-395.5 385.205,-395.5"/>
<text text-anchor="middle" x="449.205" y="-440.5" font-family="Helvetica,sans-Serif" font-size="10.00">static __thread LogType *</text>
<polyline fill="none" stroke="#bfbfbf" points="385.205,-433.5 513.205,-433.5 "/>
<text text-anchor="middle" x="449.205" y="-421.5" font-family="Helvetica,sans-Serif" font-size="10.00"> </text>
<polyline fill="none" stroke="#bfbfbf" points="385.205,-414.5 513.205,-414.5 "/>
<text text-anchor="middle" x="449.205" y="-402.5" font-family="Helvetica,sans-Serif" font-size="10.00"> </text>
</g>
<!-- Node9&#45;&gt;Node2 -->
<g id="edge11" class="edge"><title>Node9&#45;&gt;Node2</title>
<path fill="none" stroke="#404040" d="M421.983,-395.348C395.496,-368.443 354.343,-326.64 320.044,-291.8"/>
<polygon fill="none" stroke="#404040" points="319.903,-291.657 312.843,-290.187 311.485,-283.105 318.544,-284.575 319.903,-291.657"/>
<text text-anchor="middle" x="376.705" y="-329.5" font-family="Helvetica,sans-Serif" font-size="10.00"> &#45;m_log</text>
</g>
</g>
</svg>
