<?xml version="1.0" encoding="UTF-8" standalone="no"?>
<!DOCTYPE svg PUBLIC "-//W3C//DTD SVG 1.1//EN"
 "http://www.w3.org/Graphics/SVG/1.1/DTD/svg11.dtd">
<!-- Generated by graphviz version 2.36.0 (20140111.2315)
 -->
<!-- Title: TransList::Delete Pages: 1 -->
<svg width="922pt" height="442pt"
 viewBox="0.00 0.00 922.00 442.48" xmlns="http://www.w3.org/2000/svg" xmlns:xlink="http://www.w3.org/1999/xlink">
<g id="graph0" class="graph" transform="scale(1 1) rotate(0) translate(4 438.484)">
<title>TransList::Delete</title>
<!-- Node1 -->
<g id="node1" class="node"><title>Node1</title>
<polygon fill="#bfbfbf" stroke="black" points="0,-183.565 0,-202.565 92,-202.565 92,-183.565 0,-183.565"/>
<text text-anchor="middle" x="46" y="-190.565" font-family="Helvetica,sans-Serif" font-size="10.00">TransList::Delete</text>
</g>
<!-- Node2 -->
<g id="node2" class="node"><title>Node2</title>
<g id="a_node2"><a xlink:href="classAllocator.html#ab991ae25a95eb984d8ef4e2d12db6178" target="_top" xlink:title="Allocator::Alloc">
<polygon fill="none" stroke="black" points="644.5,-155.565 644.5,-174.565 727.5,-174.565 727.5,-155.565 644.5,-155.565"/>
<text text-anchor="middle" x="686" y="-162.565" font-family="Helvetica,sans-Serif" font-size="10.00">Allocator::Alloc</text>
</a>
</g>
</g>
<!-- Node1&#45;&gt;Node2 -->
<g id="edge1" class="edge"><title>Node1&#45;&gt;Node2</title>
<path fill="none" stroke="midnightblue" d="M92.1171,-191.085C207.532,-186.02 512.935,-172.617 634.266,-167.292"/>
<polygon fill="midnightblue" stroke="midnightblue" points="634.56,-170.782 644.397,-166.847 634.253,-163.789 634.56,-170.782"/>
</g>
<!-- Node3 -->
<g id="node3" class="node"><title>Node3</title>
<g id="a_node3"><a xlink:href="classTransList.html#aeab677f18c6e898efda31cca493c26c1" target="_top" xlink:title="TransList::LocatePred">
<polygon fill="none" stroke="black" points="629.5,-231.565 629.5,-250.565 742.5,-250.565 742.5,-231.565 629.5,-231.565"/>
<text text-anchor="middle" x="686" y="-238.565" font-family="Helvetica,sans-Serif" font-size="10.00">TransList::LocatePred</text>
</a>
</g>
</g>
<!-- Node1&#45;&gt;Node3 -->
<g id="edge2" class="edge"><title>Node1&#45;&gt;Node3</title>
<path fill="none" stroke="midnightblue" d="M50.4118,-202.895C59.3117,-227.141 85.5323,-290.352 128,-325.065 241.448,-417.799 298.259,-403.917 444,-419.065 504.121,-425.314 527.513,-449.042 580,-419.065 640.683,-384.407 669.808,-299.449 680.268,-260.793"/>
<polygon fill="midnightblue" stroke="midnightblue" points="683.739,-261.348 682.832,-250.792 676.958,-259.609 683.739,-261.348"/>
</g>
<!-- Node4 -->
<g id="node4" class="node"><title>Node4</title>
<g id="a_node4"><a xlink:href="classTransList.html#a6154ae0491b3194b51194694a182b2e4" target="_top" xlink:title="TransList::IsNodeExist">
<polygon fill="none" stroke="black" points="627.5,-193.565 627.5,-212.565 744.5,-212.565 744.5,-193.565 627.5,-193.565"/>
<text text-anchor="middle" x="686" y="-200.565" font-family="Helvetica,sans-Serif" font-size="10.00">TransList::IsNodeExist</text>
</a>
</g>
</g>
<!-- Node1&#45;&gt;Node4 -->
<g id="edge3" class="edge"><title>Node1&#45;&gt;Node4</title>
<path fill="none" stroke="midnightblue" d="M54.7896,-202.706C68.2284,-218.799 97.2962,-251.315 128,-271.065 255.024,-352.772 295.638,-367.787 444,-396.065 503.376,-407.382 533.129,-434.231 580,-396.065 641.237,-346.201 561.994,-279.683 616,-222.065 617.227,-220.756 618.535,-219.535 619.911,-218.395"/>
<polygon fill="midnightblue" stroke="midnightblue" points="622.057,-221.17 628.444,-212.717 618.179,-215.342 622.057,-221.17"/>
</g>
<!-- Node5 -->
<g id="node5" class="node"><title>Node5</title>
<g id="a_node5"><a xlink:href="classTransList.html#a7ed667a308f2f7422dde28c7fe40cdc7" target="_top" xlink:title="TransList::FinishPendingTxn">
<polygon fill="none" stroke="black" points="128.5,-212.565 128.5,-231.565 269.5,-231.565 269.5,-212.565 128.5,-212.565"/>
<text text-anchor="middle" x="199" y="-219.565" font-family="Helvetica,sans-Serif" font-size="10.00">TransList::FinishPendingTxn</text>
</a>
</g>
</g>
<!-- Node1&#45;&gt;Node5 -->
<g id="edge4" class="edge"><title>Node1&#45;&gt;Node5</title>
<path fill="none" stroke="midnightblue" d="M92.305,-201.766C106.842,-204.558 123.168,-207.693 138.56,-210.649"/>
<polygon fill="midnightblue" stroke="midnightblue" points="138.031,-214.112 148.511,-212.561 139.351,-207.237 138.031,-214.112"/>
</g>
<!-- Node11 -->
<g id="node11" class="node"><title>Node11</title>
<g id="a_node11"><a xlink:href="classTransList.html#acb41d121c9576454e04c266e1fd16960" target="_top" xlink:title="TransList::ASSERT_CODE">
<polygon fill="none" stroke="black" points="617,-3.56511 617,-22.5651 755,-22.5651 755,-3.56511 617,-3.56511"/>
<text text-anchor="middle" x="686" y="-10.5651" font-family="Helvetica,sans-Serif" font-size="10.00">TransList::ASSERT_CODE</text>
</a>
</g>
</g>
<!-- Node1&#45;&gt;Node11 -->
<g id="edge30" class="edge"><title>Node1&#45;&gt;Node11</title>
<path fill="none" stroke="midnightblue" d="M50.9407,-183.396C60.4744,-161.369 87.0598,-107.484 128,-83.0651 278.721,6.83329 492.986,4.89821 606.836,-4.15929"/>
<polygon fill="midnightblue" stroke="midnightblue" points="606.609,-7.65242 616.865,-4.99652 607.191,-0.676678 606.609,-7.65242"/>
</g>
<!-- Node12 -->
<g id="node12" class="node"><title>Node12</title>
<g id="a_node12"><a xlink:href="classTransList.html#a43cd23404964da4642819074b68459a5" target="_top" xlink:title="TransList::IsSameOperation">
<polygon fill="none" stroke="black" points="616.5,-117.565 616.5,-136.565 755.5,-136.565 755.5,-117.565 616.5,-117.565"/>
<text text-anchor="middle" x="686" y="-124.565" font-family="Helvetica,sans-Serif" font-size="10.00">TransList::IsSameOperation</text>
</a>
</g>
</g>
<!-- Node1&#45;&gt;Node12 -->
<g id="edge28" class="edge"><title>Node1&#45;&gt;Node12</title>
<path fill="none" stroke="midnightblue" d="M75.4275,-183.476C154.786,-157.806 385.643,-90.622 580,-108.065 597.113,-109.601 615.609,-112.518 632.239,-115.614"/>
<polygon fill="midnightblue" stroke="midnightblue" points="631.842,-119.101 642.323,-117.554 633.165,-112.228 631.842,-119.101"/>
</g>
<!-- Node13 -->
<g id="node13" class="node"><title>Node13</title>
<g id="a_node13"><a xlink:href="classTransList.html#a83d76bc637fa7e3b9e705d7792e949ed" target="_top" xlink:title="TransList::IsKeyExist">
<polygon fill="none" stroke="black" points="630.5,-41.5651 630.5,-60.5651 741.5,-60.5651 741.5,-41.5651 630.5,-41.5651"/>
<text text-anchor="middle" x="686" y="-48.5651" font-family="Helvetica,sans-Serif" font-size="10.00">TransList::IsKeyExist</text>
</a>
</g>
</g>
<!-- Node1&#45;&gt;Node13 -->
<g id="edge29" class="edge"><title>Node1&#45;&gt;Node13</title>
<path fill="none" stroke="midnightblue" d="M55.9085,-183.488C69.8018,-169.224 98.148,-142.72 128,-130.065 295.087,-59.2312 513.064,-49.6045 620.03,-49.6504"/>
<polygon fill="midnightblue" stroke="midnightblue" points="620.329,-53.1513 630.341,-49.6852 620.353,-46.1514 620.329,-53.1513"/>
</g>
<!-- Node6 -->
<g id="node6" class="node"><title>Node6</title>
<g id="a_node6"><a xlink:href="classTransList.html#aa7e67c5ff8aeadc6d1d7791a297a58c4" target="_top" xlink:title="TransList::HelpOps">
<polygon fill="none" stroke="black" points="306.5,-269.565 306.5,-288.565 407.5,-288.565 407.5,-269.565 306.5,-269.565"/>
<text text-anchor="middle" x="357" y="-276.565" font-family="Helvetica,sans-Serif" font-size="10.00">TransList::HelpOps</text>
</a>
</g>
</g>
<!-- Node5&#45;&gt;Node6 -->
<g id="edge5" class="edge"><title>Node5&#45;&gt;Node6</title>
<path fill="none" stroke="midnightblue" d="M226.111,-231.606C251.87,-241.018 291.448,-255.479 320.147,-265.965"/>
<polygon fill="midnightblue" stroke="midnightblue" points="319.21,-269.349 329.804,-269.493 321.612,-262.774 319.21,-269.349"/>
</g>
<!-- Node6&#45;&gt;Node1 -->
<g id="edge18" class="edge"><title>Node6&#45;&gt;Node1</title>
<path fill="none" stroke="midnightblue" d="M306.181,-276.067C259.067,-272.009 186.994,-262.603 128,-241.065 106.308,-233.145 83.8895,-219.349 68.1529,-208.574"/>
<polygon fill="midnightblue" stroke="midnightblue" points="69.9099,-205.531 59.7154,-202.646 65.8858,-211.258 69.9099,-205.531"/>
</g>
<!-- Node7 -->
<g id="node7" class="node"><title>Node7</title>
<g id="a_node7"><a xlink:href="structTransList_1_1HelpStack.html#ab2202f6b8230d901f572cb478e0b348e" target="_top" xlink:title="TransList::HelpStack\l::Contain">
<polygon fill="none" stroke="black" points="457.5,-357.065 457.5,-387.065 566.5,-387.065 566.5,-357.065 457.5,-357.065"/>
<text text-anchor="start" x="465.5" y="-375.065" font-family="Helvetica,sans-Serif" font-size="10.00">TransList::HelpStack</text>
<text text-anchor="middle" x="512" y="-364.065" font-family="Helvetica,sans-Serif" font-size="10.00">::Contain</text>
</a>
</g>
</g>
<!-- Node6&#45;&gt;Node7 -->
<g id="edge6" class="edge"><title>Node6&#45;&gt;Node7</title>
<path fill="none" stroke="midnightblue" d="M368.091,-288.8C383.422,-303.163 413.985,-330.154 444,-347.065 447.651,-349.122 451.503,-351.071 455.441,-352.905"/>
<polygon fill="midnightblue" stroke="midnightblue" points="454.165,-356.167 464.729,-356.972 456.972,-349.754 454.165,-356.167"/>
</g>
<!-- Node8 -->
<g id="node8" class="node"><title>Node8</title>
<g id="a_node8"><a xlink:href="structTransList_1_1HelpStack.html#a319263ee24304f1beed845f1ab4f1997" target="_top" xlink:title="TransList::HelpStack\l::Push">
<polygon fill="none" stroke="black" points="457.5,-308.065 457.5,-338.065 566.5,-338.065 566.5,-308.065 457.5,-308.065"/>
<text text-anchor="start" x="465.5" y="-326.065" font-family="Helvetica,sans-Serif" font-size="10.00">TransList::HelpStack</text>
<text text-anchor="middle" x="512" y="-315.065" font-family="Helvetica,sans-Serif" font-size="10.00">::Push</text>
</a>
</g>
</g>
<!-- Node6&#45;&gt;Node8 -->
<g id="edge7" class="edge"><title>Node6&#45;&gt;Node8</title>
<path fill="none" stroke="midnightblue" d="M391.199,-288.612C408.04,-293.456 429.057,-299.5 448.764,-305.167"/>
<polygon fill="midnightblue" stroke="midnightblue" points="448.036,-308.6 458.614,-308 449.97,-301.872 448.036,-308.6"/>
</g>
<!-- Node9 -->
<g id="node9" class="node"><title>Node9</title>
<g id="a_node9"><a xlink:href="classTransList.html#a5ace06b8defeb2501a9607fc8fdec5f0" target="_top" xlink:title="TransList::Insert">
<polygon fill="none" stroke="black" points="468,-117.565 468,-136.565 556,-136.565 556,-117.565 468,-117.565"/>
<text text-anchor="middle" x="512" y="-124.565" font-family="Helvetica,sans-Serif" font-size="10.00">TransList::Insert</text>
</a>
</g>
</g>
<!-- Node6&#45;&gt;Node9 -->
<g id="edge8" class="edge"><title>Node6&#45;&gt;Node9</title>
<path fill="none" stroke="midnightblue" d="M365.917,-269.523C380.636,-251.969 413.494,-213.646 444,-184.065 459.072,-169.45 477.277,-154.095 490.904,-143.009"/>
<polygon fill="midnightblue" stroke="midnightblue" points="493.138,-145.703 498.728,-136.703 488.746,-140.253 493.138,-145.703"/>
</g>
<!-- Node15 -->
<g id="node15" class="node"><title>Node15</title>
<g id="a_node15"><a xlink:href="classTransList.html#ab75389528ee7e0773ac0fe9c00351670" target="_top" xlink:title="TransList::Find">
<polygon fill="none" stroke="black" points="471,-193.565 471,-212.565 553,-212.565 553,-193.565 471,-193.565"/>
<text text-anchor="middle" x="512" y="-200.565" font-family="Helvetica,sans-Serif" font-size="10.00">TransList::Find</text>
</a>
</g>
</g>
<!-- Node6&#45;&gt;Node15 -->
<g id="edge19" class="edge"><title>Node6&#45;&gt;Node15</title>
<path fill="none" stroke="midnightblue" d="M381.428,-269.549C390.087,-265.592 399.785,-260.622 408,-255.065 425.978,-242.904 425.048,-232.645 444,-222.065 449.275,-219.12 455.044,-216.601 460.912,-214.454"/>
<polygon fill="midnightblue" stroke="midnightblue" points="462.416,-217.643 470.813,-211.181 460.219,-210.997 462.416,-217.643"/>
</g>
<!-- Node16 -->
<g id="node16" class="node"><title>Node16</title>
<g id="a_node16"><a xlink:href="structTransList_1_1HelpStack.html#a904c73647d6093edd7e4cc3334d1aa0c" target="_top" xlink:title="TransList::HelpStack::Pop">
<polygon fill="none" stroke="black" points="446,-269.565 446,-288.565 578,-288.565 578,-269.565 446,-269.565"/>
<text text-anchor="middle" x="512" y="-276.565" font-family="Helvetica,sans-Serif" font-size="10.00">TransList::HelpStack::Pop</text>
</a>
</g>
</g>
<!-- Node6&#45;&gt;Node16 -->
<g id="edge26" class="edge"><title>Node6&#45;&gt;Node16</title>
<path fill="none" stroke="midnightblue" d="M407.675,-279.065C416.646,-279.065 426.18,-279.065 435.69,-279.065"/>
<polygon fill="midnightblue" stroke="midnightblue" points="435.972,-282.565 445.972,-279.065 435.972,-275.565 435.972,-282.565"/>
</g>
<!-- Node17 -->
<g id="node17" class="node"><title>Node17</title>
<g id="a_node17"><a xlink:href="classTransList.html#a13f1abe3e7a04039c8150dd347737cb8" target="_top" xlink:title="TransList::MarkForDeletion">
<polygon fill="none" stroke="black" points="444.5,-231.565 444.5,-250.565 579.5,-250.565 579.5,-231.565 444.5,-231.565"/>
<text text-anchor="middle" x="512" y="-238.565" font-family="Helvetica,sans-Serif" font-size="10.00">TransList::MarkForDeletion</text>
</a>
</g>
</g>
<!-- Node6&#45;&gt;Node17 -->
<g id="edge27" class="edge"><title>Node6&#45;&gt;Node17</title>
<path fill="none" stroke="midnightblue" d="M396.608,-269.476C416.707,-264.484 441.475,-258.333 462.819,-253.032"/>
<polygon fill="midnightblue" stroke="midnightblue" points="463.808,-256.392 472.669,-250.585 462.12,-249.599 463.808,-256.392"/>
</g>
<!-- Node9&#45;&gt;Node2 -->
<g id="edge9" class="edge"><title>Node9&#45;&gt;Node2</title>
<path fill="none" stroke="midnightblue" d="M556.403,-136.654C580.107,-141.891 609.586,-148.404 634.338,-153.872"/>
<polygon fill="midnightblue" stroke="midnightblue" points="633.753,-157.327 644.272,-156.067 635.263,-150.492 633.753,-157.327"/>
</g>
<!-- Node9&#45;&gt;Node3 -->
<g id="edge11" class="edge"><title>Node9&#45;&gt;Node3</title>
<path fill="none" stroke="midnightblue" d="M525.198,-136.78C538.892,-147.835 561.601,-166.624 580,-184.065 596.884,-200.07 596.053,-210.093 616,-222.065 619.596,-224.223 623.442,-226.142 627.412,-227.848"/>
<polygon fill="midnightblue" stroke="midnightblue" points="626.244,-231.149 636.835,-231.454 628.746,-224.611 626.244,-231.149"/>
</g>
<!-- Node9&#45;&gt;Node4 -->
<g id="edge12" class="edge"><title>Node9&#45;&gt;Node4</title>
<path fill="none" stroke="midnightblue" d="M527.797,-136.731C547.321,-149.133 583.07,-170.641 616,-184.065 621.814,-186.435 628.021,-188.61 634.24,-190.574"/>
<polygon fill="midnightblue" stroke="midnightblue" points="633.383,-193.971 643.966,-193.485 635.39,-187.265 633.383,-193.971"/>
</g>
<!-- Node9&#45;&gt;Node5 -->
<g id="edge14" class="edge"><title>Node9&#45;&gt;Node5</title>
<path fill="none" stroke="midnightblue" d="M479.777,-136.603C423.208,-153.882 303.81,-190.355 240.846,-209.588"/>
<polygon fill="midnightblue" stroke="midnightblue" points="239.785,-206.252 231.244,-212.521 241.83,-212.947 239.785,-206.252"/>
</g>
<!-- Node10 -->
<g id="node10" class="node"><title>Node10</title>
<g id="a_node10"><a xlink:href="avltree_8c.html#a645f38498ce0006cd109919b893e21f4" target="_top" xlink:title="new_node">
<polygon fill="none" stroke="black" points="655.5,-79.5651 655.5,-98.5651 716.5,-98.5651 716.5,-79.5651 655.5,-79.5651"/>
<text text-anchor="middle" x="686" y="-86.5651" font-family="Helvetica,sans-Serif" font-size="10.00">new_node</text>
</a>
</g>
</g>
<!-- Node9&#45;&gt;Node10 -->
<g id="edge10" class="edge"><title>Node9&#45;&gt;Node10</title>
<path fill="none" stroke="midnightblue" d="M556.403,-117.476C583.726,-111.44 618.724,-103.707 645.309,-97.834"/>
<polygon fill="midnightblue" stroke="midnightblue" points="646.404,-101.177 655.414,-95.6016 644.894,-94.3414 646.404,-101.177"/>
</g>
<!-- Node9&#45;&gt;Node11 -->
<g id="edge13" class="edge"><title>Node9&#45;&gt;Node11</title>
<path fill="none" stroke="midnightblue" d="M520.693,-117.376C536.473,-98.1596 574.527,-55.0926 616,-32.0651 620.128,-29.7731 624.551,-27.7429 629.09,-25.9473"/>
<polygon fill="midnightblue" stroke="midnightblue" points="630.273,-29.2415 638.513,-22.5823 627.919,-22.6492 630.273,-29.2415"/>
</g>
<!-- Node9&#45;&gt;Node12 -->
<g id="edge15" class="edge"><title>Node9&#45;&gt;Node12</title>
<path fill="none" stroke="midnightblue" d="M556.403,-127.065C571.544,-127.065 589.041,-127.065 606.158,-127.065"/>
<polygon fill="midnightblue" stroke="midnightblue" points="606.171,-130.565 616.171,-127.065 606.171,-123.565 606.171,-130.565"/>
</g>
<!-- Node9&#45;&gt;Node13 -->
<g id="edge16" class="edge"><title>Node9&#45;&gt;Node13</title>
<path fill="none" stroke="midnightblue" d="M527.797,-117.399C547.321,-104.997 583.07,-83.4888 616,-70.0651 621.814,-67.6951 628.021,-65.5204 634.24,-63.5563"/>
<polygon fill="midnightblue" stroke="midnightblue" points="635.39,-66.8656 643.966,-60.6454 633.383,-60.1595 635.39,-66.8656"/>
</g>
<!-- Node14 -->
<g id="node14" class="node"><title>Node14</title>
<g id="a_node14"><a xlink:href="classTransList.html#a153541a58266143ebb08963d3c955952" target="_top" xlink:title="TransList::IsNodeActive">
<polygon fill="none" stroke="black" points="792,-41.5651 792,-60.5651 914,-60.5651 914,-41.5651 792,-41.5651"/>
<text text-anchor="middle" x="853" y="-48.5651" font-family="Helvetica,sans-Serif" font-size="10.00">TransList::IsNodeActive</text>
</a>
</g>
</g>
<!-- Node13&#45;&gt;Node14 -->
<g id="edge17" class="edge"><title>Node13&#45;&gt;Node14</title>
<path fill="none" stroke="midnightblue" d="M741.943,-51.0651C754.717,-51.0651 768.488,-51.0651 781.819,-51.0651"/>
<polygon fill="midnightblue" stroke="midnightblue" points="781.904,-54.5652 791.904,-51.0651 781.904,-47.5652 781.904,-54.5652"/>
</g>
<!-- Node15&#45;&gt;Node2 -->
<g id="edge23" class="edge"><title>Node15&#45;&gt;Node2</title>
<path fill="none" stroke="midnightblue" d="M553.326,-194.156C577.52,-188.811 608.507,-181.965 634.342,-176.257"/>
<polygon fill="midnightblue" stroke="midnightblue" points="635.321,-179.625 644.33,-174.05 633.811,-172.79 635.321,-179.625"/>
</g>
<!-- Node15&#45;&gt;Node3 -->
<g id="edge20" class="edge"><title>Node15&#45;&gt;Node3</title>
<path fill="none" stroke="midnightblue" d="M553.326,-211.974C576.818,-217.165 606.716,-223.77 632.083,-229.374"/>
<polygon fill="midnightblue" stroke="midnightblue" points="631.4,-232.808 641.92,-231.547 632.91,-225.972 631.4,-232.808"/>
</g>
<!-- Node15&#45;&gt;Node4 -->
<g id="edge21" class="edge"><title>Node15&#45;&gt;Node4</title>
<path fill="none" stroke="midnightblue" d="M553.326,-203.065C572.356,-203.065 595.588,-203.065 617.211,-203.065"/>
<polygon fill="midnightblue" stroke="midnightblue" points="617.34,-206.565 627.34,-203.065 617.34,-199.565 617.34,-206.565"/>
</g>
<!-- Node15&#45;&gt;Node5 -->
<g id="edge22" class="edge"><title>Node15&#45;&gt;Node5</title>
<path fill="none" stroke="midnightblue" d="M470.509,-209.627C451.574,-212.423 428.688,-215.416 408,-217.065 365.857,-220.425 318.772,-221.758 280.072,-222.215"/>
<polygon fill="midnightblue" stroke="midnightblue" points="279.872,-218.717 269.908,-222.317 279.943,-225.716 279.872,-218.717"/>
</g>
<!-- Node15&#45;&gt;Node12 -->
<g id="edge24" class="edge"><title>Node15&#45;&gt;Node12</title>
<path fill="none" stroke="midnightblue" d="M527.797,-193.399C547.321,-180.997 583.07,-159.489 616,-146.065 621.814,-143.695 628.021,-141.52 634.24,-139.556"/>
<polygon fill="midnightblue" stroke="midnightblue" points="635.39,-142.866 643.966,-136.645 633.383,-136.159 635.39,-142.866"/>
</g>
<!-- Node15&#45;&gt;Node13 -->
<g id="edge25" class="edge"><title>Node15&#45;&gt;Node13</title>
<path fill="none" stroke="midnightblue" d="M527.651,-193.404C542.396,-183.092 565.039,-165.577 580,-146.065 602.742,-116.404 587.379,-94.102 616,-70.0651 617.998,-68.387 620.133,-66.8564 622.368,-65.4604"/>
<polygon fill="midnightblue" stroke="midnightblue" points="624.183,-68.4606 631.413,-60.7155 620.931,-62.2618 624.183,-68.4606"/>
</g>
</g>
</svg>
