<?xml version="1.0" encoding="UTF-8" standalone="no"?>
<!DOCTYPE svg PUBLIC "-//W3C//DTD SVG 1.1//EN"
 "http://www.w3.org/Graphics/SVG/1.1/DTD/svg11.dtd">
<!-- Generated by graphviz version 2.36.0 (20140111.2315)
 -->
<!-- Title: stm::WriteSet::reset_internal Pages: 1 -->
<svg width="414pt" height="48pt"
 viewBox="0.00 0.00 414.00 48.00" xmlns="http://www.w3.org/2000/svg" xmlns:xlink="http://www.w3.org/1999/xlink">
<g id="graph0" class="graph" transform="scale(1 1) rotate(0) translate(4 44)">
<title>stm::WriteSet::reset_internal</title>
<!-- Node1 -->
<g id="node1" class="node"><title>Node1</title>
<polygon fill="#bfbfbf" stroke="black" points="0.5,-5 0.5,-35 105.5,-35 105.5,-5 0.5,-5"/>
<text text-anchor="start" x="8.5" y="-23" font-family="Helvetica,sans-Serif" font-size="10.00">stm::WriteSet::reset</text>
<text text-anchor="middle" x="53" y="-12" font-family="Helvetica,sans-Serif" font-size="10.00">_internal</text>
</g>
<!-- Node2 -->
<g id="node2" class="node"><title>Node2</title>
<g id="a_node2"><a xlink:href="classstm_1_1WriteSet.html#a94850cf0782213e633f3946e2a783ef9" target="_top" xlink:title="stm::WriteSet::reset">
<polygon fill="none" stroke="black" points="142.5,-10.5 142.5,-29.5 247.5,-29.5 247.5,-10.5 142.5,-10.5"/>
<text text-anchor="middle" x="195" y="-17.5" font-family="Helvetica,sans-Serif" font-size="10.00">stm::WriteSet::reset</text>
</a>
</g>
</g>
<!-- Node1&#45;&gt;Node2 -->
<g id="edge1" class="edge"><title>Node1&#45;&gt;Node2</title>
<path fill="none" stroke="midnightblue" d="M116.002,-20C124.847,-20 133.864,-20 142.48,-20"/>
<polygon fill="midnightblue" stroke="midnightblue" points="115.733,-16.5001 105.733,-20 115.733,-23.5001 115.733,-16.5001"/>
</g>
<!-- Node3 -->
<g id="node3" class="node"><title>Node3</title>
<g id="a_node3"><a xlink:href="structanonymous__namespace_02swiss_8cpp_03_1_1Swiss.html#a6ac1773b93a23a973a959ba9cc65ca72" target="_top" xlink:title="anonymous_namespace\l\{swiss::cpp\}::Swiss\l::rollback">
<polygon fill="none" stroke="black" points="284,0.5 284,-40.5 406,-40.5 406,0.5 284,0.5"/>
<text text-anchor="start" x="292" y="-28.5" font-family="Helvetica,sans-Serif" font-size="10.00">anonymous_namespace</text>
<text text-anchor="start" x="292" y="-17.5" font-family="Helvetica,sans-Serif" font-size="10.00">{swiss::cpp}::Swiss</text>
<text text-anchor="middle" x="345" y="-6.5" font-family="Helvetica,sans-Serif" font-size="10.00">::rollback</text>
</a>
</g>
</g>
<!-- Node2&#45;&gt;Node3 -->
<g id="edge2" class="edge"><title>Node2&#45;&gt;Node3</title>
<path fill="none" stroke="midnightblue" d="M257.774,-20C266.415,-20 275.286,-20 283.896,-20"/>
<polygon fill="midnightblue" stroke="midnightblue" points="257.763,-16.5001 247.763,-20 257.763,-23.5001 257.763,-16.5001"/>
</g>
</g>
</svg>
