<?xml version="1.0" encoding="UTF-8" standalone="no"?>
<!DOCTYPE svg PUBLIC "-//W3C//DTD SVG 1.1//EN"
 "http://www.w3.org/Graphics/SVG/1.1/DTD/svg11.dtd">
<!-- Generated by graphviz version 2.36.0 (20140111.2315)
 -->
<!-- Title: BoostingList::Delete Pages: 1 -->
<svg width="548pt" height="104pt"
 viewBox="0.00 0.00 548.00 104.00" xmlns="http://www.w3.org/2000/svg" xmlns:xlink="http://www.w3.org/1999/xlink">
<g id="graph0" class="graph" transform="scale(1 1) rotate(0) translate(4 100)">
<title>BoostingList::Delete</title>
<!-- Node1 -->
<g id="node1" class="node"><title>Node1</title>
<polygon fill="#bfbfbf" stroke="black" points="0.5,-57.5 0.5,-76.5 105.5,-76.5 105.5,-57.5 0.5,-57.5"/>
<text text-anchor="middle" x="53" y="-64.5" font-family="Helvetica,sans-Serif" font-size="10.00">BoostingList::Delete</text>
</g>
<!-- Node2 -->
<g id="node2" class="node"><title>Node2</title>
<g id="a_node2"><a xlink:href="classLockKey.html#ae524bd315c5de22c405e19875b27d6d3" target="_top" xlink:title="LockKey::Lock">
<polygon fill="none" stroke="black" points="153,-76.5 153,-95.5 235,-95.5 235,-76.5 153,-76.5"/>
<text text-anchor="middle" x="194" y="-83.5" font-family="Helvetica,sans-Serif" font-size="10.00">LockKey::Lock</text>
</a>
</g>
</g>
<!-- Node1&#45;&gt;Node2 -->
<g id="edge1" class="edge"><title>Node1&#45;&gt;Node2</title>
<path fill="none" stroke="midnightblue" d="M105.758,-74.0749C117.94,-75.7399 130.9,-77.5115 143.002,-79.1657"/>
<polygon fill="midnightblue" stroke="midnightblue" points="142.548,-82.6361 152.93,-80.5227 143.496,-75.7006 142.548,-82.6361"/>
</g>
<!-- Node3 -->
<g id="node3" class="node"><title>Node3</title>
<g id="a_node3"><a xlink:href="classLockfreeList.html#a8be9fbf09485d88165f5a3ff614bb121" target="_top" xlink:title="LockfreeList::Delete">
<polygon fill="none" stroke="black" points="142,-38.5 142,-57.5 246,-57.5 246,-38.5 142,-38.5"/>
<text text-anchor="middle" x="194" y="-45.5" font-family="Helvetica,sans-Serif" font-size="10.00">LockfreeList::Delete</text>
</a>
</g>
</g>
<!-- Node1&#45;&gt;Node3 -->
<g id="edge2" class="edge"><title>Node1&#45;&gt;Node3</title>
<path fill="none" stroke="midnightblue" d="M105.758,-59.9251C114.191,-58.7724 122.997,-57.5687 131.633,-56.3882"/>
<polygon fill="midnightblue" stroke="midnightblue" points="132.227,-59.8397 141.661,-55.0175 131.279,-52.9042 132.227,-59.8397"/>
</g>
<!-- Node4 -->
<g id="node4" class="node"><title>Node4</title>
<g id="a_node4"><a xlink:href="classLockfreeList.html#ad06b1c38c8c92b50e29876fe8d1738c3" target="_top" xlink:title="LockfreeList::LocatePred">
<polygon fill="none" stroke="black" points="282.5,-76.5 282.5,-95.5 407.5,-95.5 407.5,-76.5 282.5,-76.5"/>
<text text-anchor="middle" x="345" y="-83.5" font-family="Helvetica,sans-Serif" font-size="10.00">LockfreeList::LocatePred</text>
</a>
</g>
</g>
<!-- Node3&#45;&gt;Node4 -->
<g id="edge3" class="edge"><title>Node3&#45;&gt;Node4</title>
<path fill="none" stroke="midnightblue" d="M232.599,-57.589C252.084,-62.5583 276.075,-68.6767 296.796,-73.9613"/>
<polygon fill="midnightblue" stroke="midnightblue" points="296.117,-77.4001 306.671,-76.4799 297.846,-70.6172 296.117,-77.4001"/>
</g>
<!-- Node6 -->
<g id="node6" class="node"><title>Node6</title>
<g id="a_node6"><a xlink:href="lockfreelist_8cc.html#ae7e018e2dc9f9f93414a68f3e0bbd14c" target="_top" xlink:title="get_unmarked_ref">
<polygon fill="none" stroke="black" points="444.5,-38.5 444.5,-57.5 539.5,-57.5 539.5,-38.5 444.5,-38.5"/>
<text text-anchor="middle" x="492" y="-45.5" font-family="Helvetica,sans-Serif" font-size="10.00">get_unmarked_ref</text>
</a>
</g>
</g>
<!-- Node3&#45;&gt;Node6 -->
<g id="edge6" class="edge"><title>Node3&#45;&gt;Node6</title>
<path fill="none" stroke="midnightblue" d="M246.221,-48C298.607,-48 379.801,-48 434.145,-48"/>
<polygon fill="midnightblue" stroke="midnightblue" points="434.303,-51.5001 444.303,-48 434.303,-44.5001 434.303,-51.5001"/>
</g>
<!-- Node7 -->
<g id="node7" class="node"><title>Node7</title>
<g id="a_node7"><a xlink:href="lockfreelist_8cc.html#ab5987734a79eab6f7785885ac14c1285" target="_top" xlink:title="get_marked_ref">
<polygon fill="none" stroke="black" points="303,-0.5 303,-19.5 387,-19.5 387,-0.5 303,-0.5"/>
<text text-anchor="middle" x="345" y="-7.5" font-family="Helvetica,sans-Serif" font-size="10.00">get_marked_ref</text>
</a>
</g>
</g>
<!-- Node3&#45;&gt;Node7 -->
<g id="edge7" class="edge"><title>Node3&#45;&gt;Node7</title>
<path fill="none" stroke="midnightblue" d="M232.599,-38.411C252.084,-33.4417 276.075,-27.3233 296.796,-22.0387"/>
<polygon fill="midnightblue" stroke="midnightblue" points="297.846,-25.3828 306.671,-19.5201 296.117,-18.5999 297.846,-25.3828"/>
</g>
<!-- Node5 -->
<g id="node5" class="node"><title>Node5</title>
<g id="a_node5"><a xlink:href="lockfreelist_8cc.html#af3132c9d8404c5dc002b587f7318bdab" target="_top" xlink:title="is_marked_ref">
<polygon fill="none" stroke="black" points="453,-76.5 453,-95.5 531,-95.5 531,-76.5 453,-76.5"/>
<text text-anchor="middle" x="492" y="-83.5" font-family="Helvetica,sans-Serif" font-size="10.00">is_marked_ref</text>
</a>
</g>
</g>
<!-- Node4&#45;&gt;Node5 -->
<g id="edge4" class="edge"><title>Node4&#45;&gt;Node5</title>
<path fill="none" stroke="midnightblue" d="M407.914,-86C419.463,-86 431.379,-86 442.455,-86"/>
<polygon fill="midnightblue" stroke="midnightblue" points="442.777,-89.5001 452.777,-86 442.777,-82.5001 442.777,-89.5001"/>
</g>
<!-- Node4&#45;&gt;Node6 -->
<g id="edge5" class="edge"><title>Node4&#45;&gt;Node6</title>
<path fill="none" stroke="midnightblue" d="M382.59,-76.411C401.465,-71.4642 424.686,-65.3789 444.788,-60.1108"/>
<polygon fill="midnightblue" stroke="midnightblue" points="445.887,-63.4409 454.673,-57.5201 444.113,-56.6695 445.887,-63.4409"/>
</g>
</g>
</svg>
