<?xml version="1.0" encoding="UTF-8" standalone="no"?>
<!DOCTYPE svg PUBLIC "-//W3C//DTD SVG 1.1//EN"
 "http://www.w3.org/Graphics/SVG/1.1/DTD/svg11.dtd">
<!-- Generated by graphviz version 2.36.0 (20140111.2315)
 -->
<!-- Title: TransList::IsSameOperation Pages: 1 -->
<svg width="716pt" height="181pt"
 viewBox="0.00 0.00 716.00 181.16" xmlns="http://www.w3.org/2000/svg" xmlns:xlink="http://www.w3.org/1999/xlink">
<g id="graph0" class="graph" transform="scale(1 1) rotate(0) translate(4 177.158)">
<title>TransList::IsSameOperation</title>
<!-- Node1 -->
<g id="node1" class="node"><title>Node1</title>
<polygon fill="#bfbfbf" stroke="black" points="0.5,-38.3652 0.5,-57.3652 139.5,-57.3652 139.5,-38.3652 0.5,-38.3652"/>
<text text-anchor="middle" x="70" y="-45.3652" font-family="Helvetica,sans-Serif" font-size="10.00">TransList::IsSameOperation</text>
</g>
<!-- Node2 -->
<g id="node2" class="node"><title>Node2</title>
<g id="a_node2"><a xlink:href="classTransList.html#a5ace06b8defeb2501a9607fc8fdec5f0" target="_top" xlink:title="TransList::Insert">
<polygon fill="none" stroke="black" points="176,-38.3652 176,-57.3652 264,-57.3652 264,-38.3652 176,-38.3652"/>
<text text-anchor="middle" x="220" y="-45.3652" font-family="Helvetica,sans-Serif" font-size="10.00">TransList::Insert</text>
</a>
</g>
</g>
<!-- Node1&#45;&gt;Node2 -->
<g id="edge1" class="edge"><title>Node1&#45;&gt;Node2</title>
<path fill="none" stroke="midnightblue" d="M149.847,-47.8652C158.735,-47.8652 167.529,-47.8652 175.713,-47.8652"/>
<polygon fill="midnightblue" stroke="midnightblue" points="149.801,-44.3653 139.801,-47.8652 149.801,-51.3653 149.801,-44.3653"/>
</g>
<!-- Node6 -->
<g id="node6" class="node"><title>Node6</title>
<g id="a_node6"><a xlink:href="classTransList.html#ae48aacff3239bd5b85749631c2ac271a" target="_top" xlink:title="TransList::Delete">
<polygon fill="none" stroke="black" points="616,-95.3652 616,-114.365 708,-114.365 708,-95.3652 616,-95.3652"/>
<text text-anchor="middle" x="662" y="-102.365" font-family="Helvetica,sans-Serif" font-size="10.00">TransList::Delete</text>
</a>
</g>
</g>
<!-- Node1&#45;&gt;Node6 -->
<g id="edge10" class="edge"><title>Node1&#45;&gt;Node6</title>
<path fill="none" stroke="midnightblue" d="M102.983,-61.4127C165.791,-87.1972 310.268,-142.483 438,-161.865 500.397,-171.333 519.832,-180.914 580,-161.865 609.508,-152.523 637.566,-128.138 651.624,-114.483"/>
<polygon fill="midnightblue" stroke="midnightblue" points="104.197,-58.1275 93.619,-57.5378 101.521,-64.5956 104.197,-58.1275"/>
</g>
<!-- Node7 -->
<g id="node7" class="node"><title>Node7</title>
<g id="a_node7"><a xlink:href="classTransList.html#ab75389528ee7e0773ac0fe9c00351670" target="_top" xlink:title="TransList::Find">
<polygon fill="none" stroke="black" points="621,-19.3652 621,-38.3652 703,-38.3652 703,-19.3652 621,-19.3652"/>
<text text-anchor="middle" x="662" y="-26.3652" font-family="Helvetica,sans-Serif" font-size="10.00">TransList::Find</text>
</a>
</g>
</g>
<!-- Node1&#45;&gt;Node7 -->
<g id="edge11" class="edge"><title>Node1&#45;&gt;Node7</title>
<path fill="none" stroke="midnightblue" d="M127.654,-36.4722C143.268,-33.6442 160.245,-30.8561 176,-28.8652 354.336,-6.32887 401.437,10.7969 580,-9.86518 596.07,-11.7247 613.583,-15.5939 628.2,-19.3583"/>
<polygon fill="midnightblue" stroke="midnightblue" points="126.813,-33.0682 117.616,-38.3284 128.086,-39.9515 126.813,-33.0682"/>
</g>
<!-- Node3 -->
<g id="node3" class="node"><title>Node3</title>
<g id="a_node3"><a xlink:href="classTransList.html#aa7e67c5ff8aeadc6d1d7791a297a58c4" target="_top" xlink:title="TransList::HelpOps">
<polygon fill="none" stroke="black" points="300.5,-57.3652 300.5,-76.3652 401.5,-76.3652 401.5,-57.3652 300.5,-57.3652"/>
<text text-anchor="middle" x="351" y="-64.3652" font-family="Helvetica,sans-Serif" font-size="10.00">TransList::HelpOps</text>
</a>
</g>
</g>
<!-- Node2&#45;&gt;Node3 -->
<g id="edge2" class="edge"><title>Node2&#45;&gt;Node3</title>
<path fill="none" stroke="midnightblue" d="M274.276,-55.712C282.903,-56.9827 291.806,-58.294 300.343,-59.5513"/>
<polygon fill="midnightblue" stroke="midnightblue" points="274.717,-52.2393 264.314,-54.2448 273.697,-59.1646 274.717,-52.2393"/>
</g>
<!-- Node4 -->
<g id="node4" class="node"><title>Node4</title>
<g id="a_node4"><a xlink:href="classTransList.html#abe5853275ff6befa6ccd7ab0e84b4dce" target="_top" xlink:title="TransList::ExecuteOps">
<polygon fill="none" stroke="black" points="450.5,-133.365 450.5,-152.365 567.5,-152.365 567.5,-133.365 450.5,-133.365"/>
<text text-anchor="middle" x="509" y="-140.365" font-family="Helvetica,sans-Serif" font-size="10.00">TransList::ExecuteOps</text>
</a>
</g>
</g>
<!-- Node3&#45;&gt;Node4 -->
<g id="edge3" class="edge"><title>Node3&#45;&gt;Node4</title>
<path fill="none" stroke="midnightblue" d="M374.408,-82.238C391.347,-93.4015 415.459,-108.334 438,-118.865 449.872,-124.412 463.397,-129.349 475.372,-133.281"/>
<polygon fill="midnightblue" stroke="midnightblue" points="376.049,-79.1249 365.79,-76.4757 372.158,-84.9438 376.049,-79.1249"/>
</g>
<!-- Node5 -->
<g id="node5" class="node"><title>Node5</title>
<g id="a_node5"><a xlink:href="classTransList.html#a7ed667a308f2f7422dde28c7fe40cdc7" target="_top" xlink:title="TransList::FinishPendingTxn">
<polygon fill="none" stroke="black" points="438.5,-19.3652 438.5,-38.3652 579.5,-38.3652 579.5,-19.3652 438.5,-19.3652"/>
<text text-anchor="middle" x="509" y="-26.3652" font-family="Helvetica,sans-Serif" font-size="10.00">TransList::FinishPendingTxn</text>
</a>
</g>
</g>
<!-- Node3&#45;&gt;Node5 -->
<g id="edge4" class="edge"><title>Node3&#45;&gt;Node5</title>
<path fill="none" stroke="midnightblue" d="M401.132,-54.8972C422.993,-49.5721 448.376,-43.389 468.918,-38.3852"/>
<polygon fill="midnightblue" stroke="midnightblue" points="400.253,-51.5088 391.365,-57.2762 401.91,-58.31 400.253,-51.5088"/>
</g>
<!-- Node5&#45;&gt;Node2 -->
<g id="edge5" class="edge"><title>Node5&#45;&gt;Node2</title>
<path fill="none" stroke="midnightblue" d="M428.323,-34.1399C375.271,-37.6521 307.602,-42.1319 264.278,-45.0001"/>
<polygon fill="midnightblue" stroke="midnightblue" points="428.641,-37.6266 438.388,-33.4736 428.179,-30.6419 428.641,-37.6266"/>
</g>
<!-- Node5&#45;&gt;Node6 -->
<g id="edge6" class="edge"><title>Node5&#45;&gt;Node6</title>
<path fill="none" stroke="midnightblue" d="M538.325,-43.1217C568.647,-58.3826 615.905,-82.1686 642.031,-95.3179"/>
<polygon fill="midnightblue" stroke="midnightblue" points="539.63,-39.8601 529.124,-38.4906 536.483,-46.1128 539.63,-39.8601"/>
</g>
<!-- Node5&#45;&gt;Node7 -->
<g id="edge8" class="edge"><title>Node5&#45;&gt;Node7</title>
<path fill="none" stroke="midnightblue" d="M589.991,-28.8652C600.66,-28.8652 611.209,-28.8652 620.781,-28.8652"/>
<polygon fill="midnightblue" stroke="midnightblue" points="589.754,-25.3653 579.754,-28.8652 589.754,-32.3653 589.754,-25.3653"/>
</g>
<!-- Node6&#45;&gt;Node3 -->
<g id="edge7" class="edge"><title>Node6&#45;&gt;Node3</title>
<path fill="none" stroke="midnightblue" d="M605.464,-99.7311C560.285,-95.3519 494.921,-88.5556 438,-80.8652 426.157,-79.2651 413.434,-77.3194 401.501,-75.3937"/>
<polygon fill="midnightblue" stroke="midnightblue" points="605.351,-103.236 615.64,-100.71 606.021,-96.2684 605.351,-103.236"/>
</g>
<!-- Node7&#45;&gt;Node3 -->
<g id="edge9" class="edge"><title>Node7&#45;&gt;Node3</title>
<path fill="none" stroke="midnightblue" d="M615.486,-40.7808C603.973,-43.4522 591.586,-46.0337 580,-47.8652 518.992,-57.5086 447.976,-62.4471 401.62,-64.8383"/>
<polygon fill="midnightblue" stroke="midnightblue" points="616.425,-44.1552 625.337,-38.4266 614.798,-37.3469 616.425,-44.1552"/>
</g>
</g>
</svg>
