<?xml version="1.0" encoding="UTF-8" standalone="no"?>
<!DOCTYPE svg PUBLIC "-//W3C//DTD SVG 1.1//EN"
 "http://www.w3.org/Graphics/SVG/1.1/DTD/svg11.dtd">
<!-- Generated by graphviz version 2.36.0 (20140111.2315)
 -->
<!-- Title: edge_set Pages: 1 -->
<svg width="271pt" height="488pt"
 viewBox="0.00 0.00 271.00 488.00" xmlns="http://www.w3.org/2000/svg" xmlns:xlink="http://www.w3.org/1999/xlink">
<g id="graph0" class="graph" transform="scale(1 1) rotate(0) translate(4 484)">
<title>edge_set</title>
<!-- Node1 -->
<g id="node1" class="node"><title>Node1</title>
<polygon fill="#bfbfbf" stroke="black" points="105,-0.5 105,-123.5 195,-123.5 195,-0.5 105,-0.5"/>
<text text-anchor="middle" x="150" y="-111.5" font-family="Helvetica,sans-Serif" font-size="10.00">edge_set</text>
<polyline fill="none" stroke="black" points="105,-104.5 195,-104.5 "/>
<text text-anchor="middle" x="150" y="-92.5" font-family="Helvetica,sans-Serif" font-size="10.00"> </text>
<polyline fill="none" stroke="black" points="105,-85.5 195,-85.5 "/>
<text text-anchor="start" x="113" y="-73.5" font-family="Helvetica,sans-Serif" font-size="10.00">+ insert()</text>
<text text-anchor="start" x="113" y="-62.5" font-family="Helvetica,sans-Serif" font-size="10.00">+ erase()</text>
<text text-anchor="start" x="113" y="-51.5" font-family="Helvetica,sans-Serif" font-size="10.00">+ contains()</text>
<text text-anchor="start" x="113" y="-40.5" font-family="Helvetica,sans-Serif" font-size="10.00">+ print_all()</text>
<text text-anchor="start" x="113" y="-29.5" font-family="Helvetica,sans-Serif" font-size="10.00">+ edge_set()</text>
<text text-anchor="start" x="113" y="-18.5" font-family="Helvetica,sans-Serif" font-size="10.00">+ help_initialize()</text>
<text text-anchor="start" x="113" y="-7.5" font-family="Helvetica,sans-Serif" font-size="10.00">+ ~edge_set()</text>
</g>
<!-- Node2 -->
<g id="node2" class="node"><title>Node2</title>
<g id="a_node2"><a xlink:href="classtm__hash__set.html" target="_top" xlink:title="{tm_hash_set\&lt; T \&gt;\n||+ insert()\l+ remove()\l+ lookup()\l+ apply_to_all()\l+ tm_hash_set()\l+ ~tm_hash_set()\l+ print_stats()\l&#45; tm_hash_set()\l&#45; operator=()\l&#45; hash()\l}">
<polygon fill="none" stroke="black" points="101.5,-173 101.5,-329 198.5,-329 198.5,-173 101.5,-173"/>
<text text-anchor="middle" x="150" y="-317" font-family="Helvetica,sans-Serif" font-size="10.00">tm_hash_set&lt; T &gt;</text>
<polyline fill="none" stroke="black" points="101.5,-310 198.5,-310 "/>
<text text-anchor="middle" x="150" y="-298" font-family="Helvetica,sans-Serif" font-size="10.00"> </text>
<polyline fill="none" stroke="black" points="101.5,-291 198.5,-291 "/>
<text text-anchor="start" x="109.5" y="-279" font-family="Helvetica,sans-Serif" font-size="10.00">+ insert()</text>
<text text-anchor="start" x="109.5" y="-268" font-family="Helvetica,sans-Serif" font-size="10.00">+ remove()</text>
<text text-anchor="start" x="109.5" y="-257" font-family="Helvetica,sans-Serif" font-size="10.00">+ lookup()</text>
<text text-anchor="start" x="109.5" y="-246" font-family="Helvetica,sans-Serif" font-size="10.00">+ apply_to_all()</text>
<text text-anchor="start" x="109.5" y="-235" font-family="Helvetica,sans-Serif" font-size="10.00">+ tm_hash_set()</text>
<text text-anchor="start" x="109.5" y="-224" font-family="Helvetica,sans-Serif" font-size="10.00">+ ~tm_hash_set()</text>
<text text-anchor="start" x="109.5" y="-213" font-family="Helvetica,sans-Serif" font-size="10.00">+ print_stats()</text>
<text text-anchor="start" x="109.5" y="-202" font-family="Helvetica,sans-Serif" font-size="10.00">&#45; tm_hash_set()</text>
<text text-anchor="start" x="109.5" y="-191" font-family="Helvetica,sans-Serif" font-size="10.00">&#45; operator=()</text>
<text text-anchor="start" x="109.5" y="-180" font-family="Helvetica,sans-Serif" font-size="10.00">&#45; hash()</text>
</a>
</g>
</g>
<!-- Node2&#45;&gt;Node1 -->
<g id="edge1" class="edge"><title>Node2&#45;&gt;Node1</title>
<path fill="none" stroke="#404040" d="M150,-172.86C150,-160.689 150,-148.136 150,-136.061"/>
<polygon fill="none" stroke="#404040" points="150,-135.687 146,-129.687 150,-123.687 154,-129.687 150,-135.687"/>
<text text-anchor="middle" x="174.5" y="-145.5" font-family="Helvetica,sans-Serif" font-size="10.00"> &#45;segments</text>
</g>
<!-- Node3 -->
<g id="node3" class="node"><title>Node3</title>
<g id="a_node3"><a xlink:href="classtm__set.html" target="_top" xlink:title="{tm_set\&lt; T \&gt;\n||+ insert()\l+ remove()\l+ lookup()\l+ apply_to_all()\l+ ~tm_set()\l}">
<polygon fill="none" stroke="black" points="-0.5,-378.5 -0.5,-479.5 82.5,-479.5 82.5,-378.5 -0.5,-378.5"/>
<text text-anchor="middle" x="41" y="-467.5" font-family="Helvetica,sans-Serif" font-size="10.00">tm_set&lt; T &gt;</text>
<polyline fill="none" stroke="black" points="-0.5,-460.5 82.5,-460.5 "/>
<text text-anchor="middle" x="41" y="-448.5" font-family="Helvetica,sans-Serif" font-size="10.00"> </text>
<polyline fill="none" stroke="black" points="-0.5,-441.5 82.5,-441.5 "/>
<text text-anchor="start" x="7.5" y="-429.5" font-family="Helvetica,sans-Serif" font-size="10.00">+ insert()</text>
<text text-anchor="start" x="7.5" y="-418.5" font-family="Helvetica,sans-Serif" font-size="10.00">+ remove()</text>
<text text-anchor="start" x="7.5" y="-407.5" font-family="Helvetica,sans-Serif" font-size="10.00">+ lookup()</text>
<text text-anchor="start" x="7.5" y="-396.5" font-family="Helvetica,sans-Serif" font-size="10.00">+ apply_to_all()</text>
<text text-anchor="start" x="7.5" y="-385.5" font-family="Helvetica,sans-Serif" font-size="10.00">+ ~tm_set()</text>
</a>
</g>
</g>
<!-- Node3&#45;&gt;Node2 -->
<g id="edge2" class="edge"><title>Node3&#45;&gt;Node2</title>
<path fill="none" stroke="midnightblue" d="M77.3673,-369.278C85.3512,-356.387 93.9211,-342.549 102.275,-329.06"/>
<polygon fill="none" stroke="midnightblue" points="74.2331,-367.692 71.9435,-378.036 80.1843,-371.377 74.2331,-367.692"/>
</g>
<!-- Node4 -->
<g id="node4" class="node"><title>Node4</title>
<polygon fill="none" stroke="#bfbfbf" points="100.5,-400.5 100.5,-457.5 199.5,-457.5 199.5,-400.5 100.5,-400.5"/>
<text text-anchor="middle" x="150" y="-445.5" font-family="Helvetica,sans-Serif" font-size="10.00">tm_list_set&lt; T &gt; **</text>
<polyline fill="none" stroke="#bfbfbf" points="100.5,-438.5 199.5,-438.5 "/>
<text text-anchor="middle" x="150" y="-426.5" font-family="Helvetica,sans-Serif" font-size="10.00"> </text>
<polyline fill="none" stroke="#bfbfbf" points="100.5,-419.5 199.5,-419.5 "/>
<text text-anchor="middle" x="150" y="-407.5" font-family="Helvetica,sans-Serif" font-size="10.00"> </text>
</g>
<!-- Node4&#45;&gt;Node2 -->
<g id="edge3" class="edge"><title>Node4&#45;&gt;Node2</title>
<path fill="none" stroke="#404040" d="M150,-400.112C150,-383.994 150,-362.722 150,-341.345"/>
<polygon fill="none" stroke="#404040" points="150,-341.138 146,-335.138 150,-329.138 154,-335.138 150,-341.138"/>
<text text-anchor="middle" x="168" y="-351.5" font-family="Helvetica,sans-Serif" font-size="10.00"> &#45;bucket</text>
</g>
<!-- Node5 -->
<g id="node5" class="node"><title>Node5</title>
<polygon fill="none" stroke="#bfbfbf" points="217.5,-400.5 217.5,-457.5 246.5,-457.5 246.5,-400.5 217.5,-400.5"/>
<text text-anchor="middle" x="232" y="-445.5" font-family="Helvetica,sans-Serif" font-size="10.00">int</text>
<polyline fill="none" stroke="#bfbfbf" points="217.5,-438.5 246.5,-438.5 "/>
<text text-anchor="middle" x="232" y="-426.5" font-family="Helvetica,sans-Serif" font-size="10.00"> </text>
<polyline fill="none" stroke="#bfbfbf" points="217.5,-419.5 246.5,-419.5 "/>
<text text-anchor="middle" x="232" y="-407.5" font-family="Helvetica,sans-Serif" font-size="10.00"> </text>
</g>
<!-- Node5&#45;&gt;Node2 -->
<g id="edge4" class="edge"><title>Node5&#45;&gt;Node2</title>
<path fill="none" stroke="#404040" d="M219.007,-400.112C211.358,-383.694 201.217,-361.929 191.071,-340.151"/>
<polygon fill="none" stroke="#404040" points="191.007,-340.016 184.848,-336.266 185.939,-329.138 192.099,-332.888 191.007,-340.016"/>
<text text-anchor="middle" x="230.5" y="-351.5" font-family="Helvetica,sans-Serif" font-size="10.00"> &#45;num_buckets</text>
</g>
</g>
</svg>
