<?xml version="1.0" encoding="UTF-8" standalone="no"?>
<!DOCTYPE svg PUBLIC "-//W3C//DTD SVG 1.1//EN"
 "http://www.w3.org/Graphics/SVG/1.1/DTD/svg11.dtd">
<!-- Generated by graphviz version 2.36.0 (20140111.2315)
 -->
<!-- Title: itm2stm::Scope Pages: 1 -->
<!--zoomable 488 -->
<svg id="main" version="1.1" xmlns="http://www.w3.org/2000/svg" xmlns:xlink="http://www.w3.org/1999/xlink" xml:space="preserve" onload="init(evt)">
<style type="text/css"><![CDATA[
.edge:hover path { stroke: red; }
.edge:hover polygon { stroke: red; fill: red; }
]]></style>
<script type="text/javascript"><![CDATA[
var edges = document.getElementsByTagName('g');
if (edges && edges.length) {
  for (var i=0;i<edges.length;i++) {
    if (edges[i].id.substr(0,4)=='edge') {
      edges[i].setAttribute('class','edge');
    }
  }
}
]]></script>
        <defs>
                <circle id="rim" cx="0" cy="0" r="7"/>
                <circle id="rim2" cx="0" cy="0" r="3.5"/>
                <g id="zoomPlus">
                        <use xlink:href="#rim" fill="#404040">
                                <set attributeName="fill" to="#808080" begin="zoomplus.mouseover" end="zoomplus.mouseout"/>
                        </use>
                        <path d="M-4,0h8M0,-4v8" fill="none" stroke="white" stroke-width="1.5" pointer-events="none"/>
                </g>
                <g id="zoomMin">
                        <use xlink:href="#rim" fill="#404040">
                                <set attributeName="fill" to="#808080" begin="zoomminus.mouseover" end="zoomminus.mouseout"/>
                        </use>
                        <path d="M-4,0h8" fill="none" stroke="white" stroke-width="1.5" pointer-events="none"/>
                </g>
                <g id="dirArrow">
                        <path fill="none" stroke="white" stroke-width="1.5" d="M0,-3.0v7 M-2.5,-0.5L0,-3.0L2.5,-0.5"/>
                </g>
               <g id="resetDef">
                       <use xlink:href="#rim2" fill="#404040">
                               <set attributeName="fill" to="#808080" begin="reset.mouseover" end="reset.mouseout"/>
                       </use>
               </g>
        </defs>

<script type="text/javascript">
var viewWidth = 992;
var viewHeight = 488;
var sectionId = 'dynsection-1';
</script>
<script xlink:href="svgpan.js"/>
<svg id="graph" class="graph">
<g id="viewport">
<title>itm2stm::Scope</title>
<!-- Node1 -->
<g id="node1" class="node"><title>Node1</title>
<polygon fill="#bfbfbf" stroke="black" points="465.5,-1 465.5,-223 578.5,-223 578.5,-1 465.5,-1"/>
<text text-anchor="middle" x="522" y="-211" font-family="Helvetica,sans-Serif" font-size="10.00">itm2stm::Scope</text>
<polyline fill="none" stroke="black" points="465.5,-204 578.5,-204 "/>
<text text-anchor="middle" x="522" y="-192" font-family="Helvetica,sans-Serif" font-size="10.00"> </text>
<polyline fill="none" stroke="black" points="465.5,-185 578.5,-185 "/>
<text text-anchor="start" x="473.5" y="-173" font-family="Helvetica,sans-Serif" font-size="10.00">+ Scope()</text>
<text text-anchor="start" x="473.5" y="-162" font-family="Helvetica,sans-Serif" font-size="10.00">+ getId()</text>
<text text-anchor="start" x="473.5" y="-151" font-family="Helvetica,sans-Serif" font-size="10.00">+ getFlags()</text>
<text text-anchor="start" x="473.5" y="-140" font-family="Helvetica,sans-Serif" font-size="10.00">+ isExceptionBlock()</text>
<text text-anchor="start" x="473.5" y="-129" font-family="Helvetica,sans-Serif" font-size="10.00">+ setAborted()</text>
<text text-anchor="start" x="473.5" y="-118" font-family="Helvetica,sans-Serif" font-size="10.00">+ getAborted()</text>
<text text-anchor="start" x="473.5" y="-107" font-family="Helvetica,sans-Serif" font-size="10.00">+ getOwner()</text>
<text text-anchor="start" x="473.5" y="-96" font-family="Helvetica,sans-Serif" font-size="10.00">+ enter()</text>
<text text-anchor="start" x="473.5" y="-85" font-family="Helvetica,sans-Serif" font-size="10.00">+ rollback()</text>
<text text-anchor="start" x="473.5" y="-74" font-family="Helvetica,sans-Serif" font-size="10.00">+ commit()</text>
<text text-anchor="start" x="473.5" y="-63" font-family="Helvetica,sans-Serif" font-size="10.00">+ setThrownObject()</text>
<text text-anchor="start" x="473.5" y="-52" font-family="Helvetica,sans-Serif" font-size="10.00">+ clearThrownObject()</text>
<text text-anchor="start" x="473.5" y="-41" font-family="Helvetica,sans-Serif" font-size="10.00">+ log()</text>
<text text-anchor="start" x="473.5" y="-30" font-family="Helvetica,sans-Serif" font-size="10.00">+ registerOnCommit()</text>
<text text-anchor="start" x="473.5" y="-19" font-family="Helvetica,sans-Serif" font-size="10.00">+ registerOnAbort()</text>
<text text-anchor="start" x="473.5" y="-8" font-family="Helvetica,sans-Serif" font-size="10.00">&#45; make_callback()</text>
</g>
<!-- Node2 -->
<g id="node2" class="node"><title>Node2</title>
<g id="a_node2"><a xlink:href="classitm2stm_1_1Checkpoint.html" target="_top" xlink:title="{itm2stm::Checkpoint\n||+ restore()\l}">
<polygon fill="none" stroke="black" points="-0.5,-293.5 -0.5,-350.5 106.5,-350.5 106.5,-293.5 -0.5,-293.5"/>
<text text-anchor="middle" x="53" y="-338.5" font-family="Helvetica,sans-Serif" font-size="10.00">itm2stm::Checkpoint</text>
<polyline fill="none" stroke="black" points="-0.5,-331.5 106.5,-331.5 "/>
<text text-anchor="middle" x="53" y="-319.5" font-family="Helvetica,sans-Serif" font-size="10.00"> </text>
<polyline fill="none" stroke="black" points="-0.5,-312.5 106.5,-312.5 "/>
<text text-anchor="start" x="7.5" y="-300.5" font-family="Helvetica,sans-Serif" font-size="10.00">+ restore()</text>
</a>
</g>
</g>
<!-- Node2&#45;&gt;Node1 -->
<g id="edge1" class="edge"><title>Node2&#45;&gt;Node1</title>
<path fill="none" stroke="midnightblue" d="M104.468,-288.228C108.33,-286.05 112.202,-283.95 116,-282 236.725,-220.01 385.536,-162.629 465.229,-133.341"/>
<polygon fill="none" stroke="midnightblue" points="102.407,-285.377 95.5093,-293.419 105.917,-291.434 102.407,-285.377"/>
</g>
<!-- Node3 -->
<g id="node3" class="node"><title>Node3</title>
<polygon fill="none" stroke="#bfbfbf" points="32.5,-416.5 32.5,-473.5 73.5,-473.5 73.5,-416.5 32.5,-416.5"/>
<text text-anchor="middle" x="53" y="-461.5" font-family="Helvetica,sans-Serif" font-size="10.00">void *</text>
<polyline fill="none" stroke="#bfbfbf" points="32.5,-454.5 73.5,-454.5 "/>
<text text-anchor="middle" x="53" y="-442.5" font-family="Helvetica,sans-Serif" font-size="10.00"> </text>
<polyline fill="none" stroke="#bfbfbf" points="32.5,-435.5 73.5,-435.5 "/>
<text text-anchor="middle" x="53" y="-423.5" font-family="Helvetica,sans-Serif" font-size="10.00"> </text>
</g>
<!-- Node3&#45;&gt;Node2 -->
<g id="edge2" class="edge"><title>Node3&#45;&gt;Node2</title>
<path fill="none" stroke="#404040" d="M53,-416.24C53,-400.407 53,-380.294 53,-362.804"/>
<polygon fill="none" stroke="#404040" points="53.0001,-362.631 49,-356.631 53,-350.631 57,-356.631 53.0001,-362.631"/>
<text text-anchor="middle" x="83.5" y="-383.5" font-family="Helvetica,sans-Serif" font-size="10.00"> #checkpoint_</text>
</g>
<!-- Node4 -->
<g id="node4" class="node"><title>Node4</title>
<g id="a_node4"><a xlink:href="structitm2stm_1_1Scope_1_1ThrownObject.html" target="_top" xlink:title="{itm2stm::Scope::ThrownObject\n||+ begin()\l+ end()\l+ reset()\l}">
<polygon fill="none" stroke="black" points="125,-282.5 125,-361.5 277,-361.5 277,-282.5 125,-282.5"/>
<text text-anchor="middle" x="201" y="-349.5" font-family="Helvetica,sans-Serif" font-size="10.00">itm2stm::Scope::ThrownObject</text>
<polyline fill="none" stroke="black" points="125,-342.5 277,-342.5 "/>
<text text-anchor="middle" x="201" y="-330.5" font-family="Helvetica,sans-Serif" font-size="10.00"> </text>
<polyline fill="none" stroke="black" points="125,-323.5 277,-323.5 "/>
<text text-anchor="start" x="133" y="-311.5" font-family="Helvetica,sans-Serif" font-size="10.00">+ begin()</text>
<text text-anchor="start" x="133" y="-300.5" font-family="Helvetica,sans-Serif" font-size="10.00">+ end()</text>
<text text-anchor="start" x="133" y="-289.5" font-family="Helvetica,sans-Serif" font-size="10.00">+ reset()</text>
</a>
</g>
</g>
<!-- Node4&#45;&gt;Node1 -->
<g id="edge3" class="edge"><title>Node4&#45;&gt;Node1</title>
<path fill="none" stroke="#404040" d="M260.625,-282.364C315.757,-246.64 397.594,-193.612 454.97,-156.434"/>
<polygon fill="none" stroke="#404040" points="455.316,-156.21 458.176,-149.59 465.387,-149.684 462.526,-156.304 455.316,-156.21"/>
<text text-anchor="middle" x="334.5" y="-250.5" font-family="Helvetica,sans-Serif" font-size="10.00"> &#45;thrown_</text>
</g>
<!-- Node5 -->
<g id="node5" class="node"><title>Node5</title>
<polygon fill="none" stroke="#bfbfbf" points="155,-411 155,-479 247,-479 247,-411 155,-411"/>
<text text-anchor="start" x="163" y="-467" font-family="Helvetica,sans-Serif" font-size="10.00">std::pair&lt; void **,</text>
<text text-anchor="middle" x="201" y="-456" font-family="Helvetica,sans-Serif" font-size="10.00"> size_t &gt;</text>
<polyline fill="none" stroke="#bfbfbf" points="155,-449 247,-449 "/>
<text text-anchor="middle" x="201" y="-437" font-family="Helvetica,sans-Serif" font-size="10.00"> </text>
<polyline fill="none" stroke="#bfbfbf" points="155,-430 247,-430 "/>
<text text-anchor="middle" x="201" y="-418" font-family="Helvetica,sans-Serif" font-size="10.00"> </text>
</g>
<!-- Node5&#45;&gt;Node4 -->
<g id="edge4" class="edge"><title>Node5&#45;&gt;Node4</title>
<path fill="none" stroke="midnightblue" d="M201,-400.557C201,-387.828 201,-374.003 201,-361.597"/>
<polygon fill="none" stroke="midnightblue" points="197.5,-400.936 201,-410.936 204.5,-400.936 197.5,-400.936"/>
</g>
<!-- Node6 -->
<g id="node6" class="node"><title>Node6</title>
<polygon fill="none" stroke="#bfbfbf" points="295.5,-288 295.5,-356 448.5,-356 448.5,-288 295.5,-288"/>
<text text-anchor="start" x="303.5" y="-344" font-family="Helvetica,sans-Serif" font-size="10.00">vector&lt; Callback&lt; </text>
<text text-anchor="middle" x="372" y="-333" font-family="Helvetica,sans-Serif" font-size="10.00">_ITM_userCommitFunction &gt; &gt;</text>
<polyline fill="none" stroke="#bfbfbf" points="295.5,-326 448.5,-326 "/>
<text text-anchor="middle" x="372" y="-314" font-family="Helvetica,sans-Serif" font-size="10.00"> </text>
<polyline fill="none" stroke="#bfbfbf" points="295.5,-307 448.5,-307 "/>
<text text-anchor="middle" x="372" y="-295" font-family="Helvetica,sans-Serif" font-size="10.00"> </text>
</g>
<!-- Node6&#45;&gt;Node1 -->
<g id="edge5" class="edge"><title>Node6&#45;&gt;Node1</title>
<path fill="none" stroke="#404040" d="M388.707,-287.926C396.442,-273.469 406.101,-256.532 416,-242 428.599,-223.505 443.239,-204.433 457.544,-186.814"/>
<polygon fill="none" stroke="#404040" points="457.83,-186.465 458.543,-179.29 465.441,-177.188 464.728,-184.364 457.83,-186.465"/>
<text text-anchor="middle" x="454" y="-250.5" font-family="Helvetica,sans-Serif" font-size="10.00"> &#45;do_on_commit_</text>
</g>
<!-- Node7 -->
<g id="node7" class="node"><title>Node7</title>
<polygon fill="none" stroke="#bfbfbf" points="466.5,-293.5 466.5,-350.5 517.5,-350.5 517.5,-293.5 466.5,-293.5"/>
<text text-anchor="middle" x="492" y="-338.5" font-family="Helvetica,sans-Serif" font-size="10.00">uint32_t</text>
<polyline fill="none" stroke="#bfbfbf" points="466.5,-331.5 517.5,-331.5 "/>
<text text-anchor="middle" x="492" y="-319.5" font-family="Helvetica,sans-Serif" font-size="10.00"> </text>
<polyline fill="none" stroke="#bfbfbf" points="466.5,-312.5 517.5,-312.5 "/>
<text text-anchor="middle" x="492" y="-300.5" font-family="Helvetica,sans-Serif" font-size="10.00"> </text>
</g>
<!-- Node7&#45;&gt;Node1 -->
<g id="edge6" class="edge"><title>Node7&#45;&gt;Node1</title>
<path fill="none" stroke="#404040" d="M493.379,-293.138C494.314,-277.976 495.791,-258.912 498,-242 498.304,-239.671 498.623,-237.32 498.954,-234.952"/>
<polygon fill="none" stroke="#404040" points="498.965,-234.88 495.88,-228.362 500.71,-223.007 503.795,-229.525 498.965,-234.88"/>
<text text-anchor="middle" x="514.5" y="-256" font-family="Helvetica,sans-Serif" font-size="10.00"> &#45;flags_</text>
<text text-anchor="middle" x="514.5" y="-245" font-family="Helvetica,sans-Serif" font-size="10.00">&#45;id_</text>
</g>
<!-- Node8 -->
<g id="node8" class="node"><title>Node8</title>
<polygon fill="none" stroke="#bfbfbf" points="535.5,-293.5 535.5,-350.5 570.5,-350.5 570.5,-293.5 535.5,-293.5"/>
<text text-anchor="middle" x="553" y="-338.5" font-family="Helvetica,sans-Serif" font-size="10.00">bool</text>
<polyline fill="none" stroke="#bfbfbf" points="535.5,-331.5 570.5,-331.5 "/>
<text text-anchor="middle" x="553" y="-319.5" font-family="Helvetica,sans-Serif" font-size="10.00"> </text>
<polyline fill="none" stroke="#bfbfbf" points="535.5,-312.5 570.5,-312.5 "/>
<text text-anchor="middle" x="553" y="-300.5" font-family="Helvetica,sans-Serif" font-size="10.00"> </text>
</g>
<!-- Node8&#45;&gt;Node1 -->
<g id="edge7" class="edge"><title>Node8&#45;&gt;Node1</title>
<path fill="none" stroke="#404040" d="M548.883,-293.379C546.552,-277.736 543.455,-256.954 540.193,-235.071"/>
<polygon fill="none" stroke="#404040" points="540.191,-235.058 535.351,-229.713 538.422,-223.189 543.263,-228.534 540.191,-235.058"/>
<text text-anchor="middle" x="566" y="-250.5" font-family="Helvetica,sans-Serif" font-size="10.00"> &#45;aborted_</text>
</g>
<!-- Node9 -->
<g id="node9" class="node"><title>Node9</title>
<polygon fill="none" stroke="#bfbfbf" points="589,-293.5 589,-350.5 691,-350.5 691,-293.5 589,-293.5"/>
<text text-anchor="middle" x="640" y="-338.5" font-family="Helvetica,sans-Serif" font-size="10.00">_ITM_transaction &amp;</text>
<polyline fill="none" stroke="#bfbfbf" points="589,-331.5 691,-331.5 "/>
<text text-anchor="middle" x="640" y="-319.5" font-family="Helvetica,sans-Serif" font-size="10.00"> </text>
<polyline fill="none" stroke="#bfbfbf" points="589,-312.5 691,-312.5 "/>
<text text-anchor="middle" x="640" y="-300.5" font-family="Helvetica,sans-Serif" font-size="10.00"> </text>
</g>
<!-- Node9&#45;&gt;Node1 -->
<g id="edge8" class="edge"><title>Node9&#45;&gt;Node1</title>
<path fill="none" stroke="#404040" d="M624.331,-293.379C613.917,-275.022 599.489,-249.59 584.747,-223.605"/>
<polygon fill="none" stroke="#404040" points="584.567,-223.288 578.128,-220.043 578.646,-212.851 585.086,-216.096 584.567,-223.288"/>
<text text-anchor="middle" x="625" y="-250.5" font-family="Helvetica,sans-Serif" font-size="10.00"> &#45;owner_</text>
</g>
<!-- Node10 -->
<g id="node10" class="node"><title>Node10</title>
<polygon fill="none" stroke="#bfbfbf" points="709,-288 709,-356 851,-356 851,-288 709,-288"/>
<text text-anchor="start" x="717" y="-344" font-family="Helvetica,sans-Serif" font-size="10.00">vector&lt; Callback&lt; </text>
<text text-anchor="middle" x="780" y="-333" font-family="Helvetica,sans-Serif" font-size="10.00">_ITM_userUndoFunction &gt; &gt;</text>
<polyline fill="none" stroke="#bfbfbf" points="709,-326 851,-326 "/>
<text text-anchor="middle" x="780" y="-314" font-family="Helvetica,sans-Serif" font-size="10.00"> </text>
<polyline fill="none" stroke="#bfbfbf" points="709,-307 851,-307 "/>
<text text-anchor="middle" x="780" y="-295" font-family="Helvetica,sans-Serif" font-size="10.00"> </text>
</g>
<!-- Node10&#45;&gt;Node1 -->
<g id="edge9" class="edge"><title>Node10&#45;&gt;Node1</title>
<path fill="none" stroke="#404040" d="M738.834,-287.812C698.372,-255.192 635.956,-204.872 588.461,-166.581"/>
<polygon fill="none" stroke="#404040" points="588.211,-166.379 581.029,-165.727 578.869,-158.848 586.05,-159.499 588.211,-166.379"/>
<text text-anchor="middle" x="742.5" y="-250.5" font-family="Helvetica,sans-Serif" font-size="10.00"> &#45;do_on_rollback_</text>
</g>
<!-- Node11 -->
<g id="node11" class="node"><title>Node11</title>
<polygon fill="none" stroke="#bfbfbf" points="869,-293.5 869,-350.5 985,-350.5 985,-293.5 869,-293.5"/>
<text text-anchor="middle" x="927" y="-338.5" font-family="Helvetica,sans-Serif" font-size="10.00">vector&lt; LoggedWord &gt;</text>
<polyline fill="none" stroke="#bfbfbf" points="869,-331.5 985,-331.5 "/>
<text text-anchor="middle" x="927" y="-319.5" font-family="Helvetica,sans-Serif" font-size="10.00"> </text>
<polyline fill="none" stroke="#bfbfbf" points="869,-312.5 985,-312.5 "/>
<text text-anchor="middle" x="927" y="-300.5" font-family="Helvetica,sans-Serif" font-size="10.00"> </text>
</g>
<!-- Node11&#45;&gt;Node1 -->
<g id="edge10" class="edge"><title>Node11&#45;&gt;Node1</title>
<path fill="none" stroke="#404040" d="M879.907,-293.293C873.246,-289.46 866.466,-285.604 860,-282 768.127,-230.785 658.761,-177.435 589.846,-144.711"/>
<polygon fill="none" stroke="#404040" points="589.567,-144.579 582.432,-145.625 578.722,-139.441 585.857,-138.395 589.567,-144.579"/>
<text text-anchor="middle" x="869" y="-250.5" font-family="Helvetica,sans-Serif" font-size="10.00"> &#45;undo_on_rollback_</text>
</g>
</g>
</svg>
        <g id="navigator" transform="translate(0 0)" fill="#404254">
                <rect fill="#f2f5e9" fill-opacity="0.5" stroke="#606060" stroke-width=".5" x="0" y="0" width="60" height="60"/>
                <use id="zoomplus" xlink:href="#zoomPlus" x="17" y="9" onmousedown="handleZoom(evt,'in')"/>
                <use id="zoomminus" xlink:href="#zoomMin" x="42" y="9" onmousedown="handleZoom(evt,'out')"/>
                <use id="reset" xlink:href="#resetDef" x="30" y="36" onmousedown="handleReset()"/>
                <g id="arrowUp" xlink:href="#dirArrow" transform="translate(30 24)" onmousedown="handlePan(0,-1)">
                  <use xlink:href="#rim" fill="#404040">
                        <set attributeName="fill" to="#808080" begin="arrowUp.mouseover" end="arrowUp.mouseout"/>
                  </use>
                  <path fill="none" stroke="white" stroke-width="1.5" d="M0,-3.0v7 M-2.5,-0.5L0,-3.0L2.5,-0.5"/>
                </g>
                <g id="arrowRight" xlink:href="#dirArrow" transform="rotate(90) translate(36 -43)" onmousedown="handlePan(1,0)">
                  <use xlink:href="#rim" fill="#404040">
                        <set attributeName="fill" to="#808080" begin="arrowRight.mouseover" end="arrowRight.mouseout"/>
                  </use>
                  <path fill="none" stroke="white" stroke-width="1.5" d="M0,-3.0v7 M-2.5,-0.5L0,-3.0L2.5,-0.5"/>
                </g>
                <g id="arrowDown" xlink:href="#dirArrow" transform="rotate(180) translate(-30 -48)" onmousedown="handlePan(0,1)">
                  <use xlink:href="#rim" fill="#404040">
                        <set attributeName="fill" to="#808080" begin="arrowDown.mouseover" end="arrowDown.mouseout"/>
                  </use>
                  <path fill="none" stroke="white" stroke-width="1.5" d="M0,-3.0v7 M-2.5,-0.5L0,-3.0L2.5,-0.5"/>
                </g>
                <g id="arrowLeft" xlink:href="#dirArrow" transform="rotate(270) translate(-36 17)" onmousedown="handlePan(-1,0)">
                  <use xlink:href="#rim" fill="#404040">
                        <set attributeName="fill" to="#808080" begin="arrowLeft.mouseover" end="arrowLeft.mouseout"/>
                  </use>
                  <path fill="none" stroke="white" stroke-width="1.5" d="M0,-3.0v7 M-2.5,-0.5L0,-3.0L2.5,-0.5"/>
                </g>
        </g>
        <svg viewBox="0 0 15 15" width="100%" height="30px" preserveAspectRatio="xMaxYMin meet">
         <g id="arrow_out" transform="scale(0.3 0.3)">
          <a xlink:href="classitm2stm_1_1Scope__coll__graph_org.svg" target="_base">
           <rect id="button" ry="5" rx="5" y="6" x="6" height="38" width="38"
                fill="#f2f5e9" fill-opacity="0.5" stroke="#606060" stroke-width="1.0"/>
           <path id="arrow"
             d="M 11.500037,31.436501 C 11.940474,20.09759 22.043105,11.32322 32.158766,21.979434 L 37.068811,17.246167 C 37.068811,17.246167 37.088388,32 37.088388,32 L 22.160133,31.978069 C 22.160133,31.978069 26.997745,27.140456 26.997745,27.140456 C 18.528582,18.264221 13.291696,25.230495 11.500037,31.436501 z"
             style="fill:#404040;"/>
          </a>
         </g>
        </svg>
</svg>
