<?xml version="1.0" encoding="UTF-8" standalone="no"?>
<!DOCTYPE svg PUBLIC "-//W3C//DTD SVG 1.1//EN"
 "http://www.w3.org/Graphics/SVG/1.1/DTD/svg11.dtd">
<!-- Generated by graphviz version 2.36.0 (20140111.2315)
 -->
<!-- Title: Allocator::Alloc Pages: 1 -->
<!--zoomable 470 -->
<svg id="main" version="1.1" xmlns="http://www.w3.org/2000/svg" xmlns:xlink="http://www.w3.org/1999/xlink" xml:space="preserve" onload="init(evt)">
<style type="text/css"><![CDATA[
.edge:hover path { stroke: red; }
.edge:hover polygon { stroke: red; fill: red; }
]]></style>
<script type="text/javascript"><![CDATA[
var edges = document.getElementsByTagName('g');
if (edges && edges.length) {
  for (var i=0;i<edges.length;i++) {
    if (edges[i].id.substr(0,4)=='edge') {
      edges[i].setAttribute('class','edge');
    }
  }
}
]]></script>
        <defs>
                <circle id="rim" cx="0" cy="0" r="7"/>
                <circle id="rim2" cx="0" cy="0" r="3.5"/>
                <g id="zoomPlus">
                        <use xlink:href="#rim" fill="#404040">
                                <set attributeName="fill" to="#808080" begin="zoomplus.mouseover" end="zoomplus.mouseout"/>
                        </use>
                        <path d="M-4,0h8M0,-4v8" fill="none" stroke="white" stroke-width="1.5" pointer-events="none"/>
                </g>
                <g id="zoomMin">
                        <use xlink:href="#rim" fill="#404040">
                                <set attributeName="fill" to="#808080" begin="zoomminus.mouseover" end="zoomminus.mouseout"/>
                        </use>
                        <path d="M-4,0h8" fill="none" stroke="white" stroke-width="1.5" pointer-events="none"/>
                </g>
                <g id="dirArrow">
                        <path fill="none" stroke="white" stroke-width="1.5" d="M0,-3.0v7 M-2.5,-0.5L0,-3.0L2.5,-0.5"/>
                </g>
               <g id="resetDef">
                       <use xlink:href="#rim2" fill="#404040">
                               <set attributeName="fill" to="#808080" begin="reset.mouseover" end="reset.mouseout"/>
                       </use>
               </g>
        </defs>

<script type="text/javascript">
var viewWidth = 722;
var viewHeight = 470;
var sectionId = 'dynsection-2';
</script>
<script xlink:href="svgpan.js"/>
<svg id="graph" class="graph">
<g id="viewport">
<title>Allocator::Alloc</title>
<!-- Node1 -->
<g id="node1" class="node"><title>Node1</title>
<polygon fill="#bfbfbf" stroke="black" points="0.5,-214.338 0.5,-233.338 83.5,-233.338 83.5,-214.338 0.5,-214.338"/>
<text text-anchor="middle" x="42" y="-221.338" font-family="Helvetica,sans-Serif" font-size="10.00">Allocator::Alloc</text>
</g>
<!-- Node2 -->
<g id="node2" class="node"><title>Node2</title>
<g id="a_node2"><a xlink:href="classTransList.html#a4a0093e3ba48a0b4914ec3d5f6817d77" target="_top" xlink:title="TransList::AllocateDesc">
<polygon fill="none" stroke="black" points="120,-442.338 120,-461.338 242,-461.338 242,-442.338 120,-442.338"/>
<text text-anchor="middle" x="181" y="-449.338" font-family="Helvetica,sans-Serif" font-size="10.00">TransList::AllocateDesc</text>
</a>
</g>
</g>
<!-- Node1&#45;&gt;Node2 -->
<g id="edge1" class="edge"><title>Node1&#45;&gt;Node2</title>
<path fill="none" stroke="midnightblue" d="M45.1371,-243.41C50.4945,-283.328 68.0238,-374.834 120,-427.838 126.127,-434.086 134.09,-438.755 142.202,-442.227"/>
<polygon fill="midnightblue" stroke="midnightblue" points="48.5994,-242.887 43.9075,-233.388 41.6515,-243.74 48.5994,-242.887"/>
</g>
<!-- Node3 -->
<g id="node3" class="node"><title>Node3</title>
<g id="a_node3"><a xlink:href="classTransList.html#a5ace06b8defeb2501a9607fc8fdec5f0" target="_top" xlink:title="TransList::Insert">
<polygon fill="none" stroke="black" points="137,-252.338 137,-271.338 225,-271.338 225,-252.338 137,-252.338"/>
<text text-anchor="middle" x="181" y="-259.338" font-family="Helvetica,sans-Serif" font-size="10.00">TransList::Insert</text>
</a>
</g>
</g>
<!-- Node1&#45;&gt;Node3 -->
<g id="edge2" class="edge"><title>Node1&#45;&gt;Node3</title>
<path fill="none" stroke="midnightblue" d="M87.4108,-236.156C106.234,-241.377 127.838,-247.37 145.44,-252.252"/>
<polygon fill="midnightblue" stroke="midnightblue" points="88.1426,-232.727 77.5709,-233.427 86.2716,-239.473 88.1426,-232.727"/>
</g>
<!-- Node7 -->
<g id="node7" class="node"><title>Node7</title>
<g id="a_node7"><a xlink:href="classTransList.html#ae48aacff3239bd5b85749631c2ac271a" target="_top" xlink:title="TransList::Delete">
<polygon fill="none" stroke="black" points="608,-328.338 608,-347.338 700,-347.338 700,-328.338 608,-328.338"/>
<text text-anchor="middle" x="654" y="-335.338" font-family="Helvetica,sans-Serif" font-size="10.00">TransList::Delete</text>
</a>
</g>
</g>
<!-- Node1&#45;&gt;Node7 -->
<g id="edge11" class="edge"><title>Node1&#45;&gt;Node7</title>
<path fill="none" stroke="midnightblue" d="M61.8135,-240.028C76.8312,-252.376 98.7977,-269.188 120,-280.838 243.553,-348.726 277.4,-369.071 416,-394.838 478.048,-406.374 497.179,-411.685 558,-394.838 591.365,-385.597 624.777,-361.171 641.675,-347.483"/>
<polygon fill="midnightblue" stroke="midnightblue" points="63.7471,-237.082 53.8326,-233.347 59.2536,-242.45 63.7471,-237.082"/>
</g>
<!-- Node8 -->
<g id="node8" class="node"><title>Node8</title>
<g id="a_node8"><a xlink:href="classTransList.html#ab75389528ee7e0773ac0fe9c00351670" target="_top" xlink:title="TransList::Find">
<polygon fill="none" stroke="black" points="613,-252.338 613,-271.338 695,-271.338 695,-252.338 613,-252.338"/>
<text text-anchor="middle" x="654" y="-259.338" font-family="Helvetica,sans-Serif" font-size="10.00">TransList::Find</text>
</a>
</g>
</g>
<!-- Node1&#45;&gt;Node8 -->
<g id="edge12" class="edge"><title>Node1&#45;&gt;Node8</title>
<path fill="none" stroke="midnightblue" d="M93.7748,-223.02C186.389,-222.125 388.805,-222.928 558,-242.838 576.041,-244.961 595.768,-248.674 612.547,-252.258"/>
<polygon fill="midnightblue" stroke="midnightblue" points="93.526,-219.522 83.5643,-223.13 93.6015,-226.522 93.526,-219.522"/>
</g>
<!-- Node9 -->
<g id="node9" class="node"><title>Node9</title>
<g id="a_node9"><a xlink:href="transskip_8cc.html#a977b7a640f81eb02b78ee08376387721" target="_top" xlink:title="transskip_insert">
<polygon fill="none" stroke="black" points="138,-138.338 138,-157.338 224,-157.338 224,-138.338 138,-138.338"/>
<text text-anchor="middle" x="181" y="-145.338" font-family="Helvetica,sans-Serif" font-size="10.00">transskip_insert</text>
</a>
</g>
</g>
<!-- Node1&#45;&gt;Node9 -->
<g id="edge13" class="edge"><title>Node1&#45;&gt;Node9</title>
<path fill="none" stroke="midnightblue" d="M63.4001,-208.296C78.502,-197.237 99.8633,-182.507 120,-171.838 130.31,-166.375 142.146,-161.39 152.565,-157.396"/>
<polygon fill="midnightblue" stroke="midnightblue" points="61.2265,-205.551 55.2883,-214.325 65.4021,-211.169 61.2265,-205.551"/>
</g>
<!-- Node12 -->
<g id="node12" class="node"><title>Node12</title>
<g id="a_node12"><a xlink:href="transskip_8cc.html#a45102b19cad6e5d69fc6d1b4db42cf44" target="_top" xlink:title="transskip_delete">
<polygon fill="none" stroke="black" points="610,-138.338 610,-157.338 698,-157.338 698,-138.338 610,-138.338"/>
<text text-anchor="middle" x="654" y="-145.338" font-family="Helvetica,sans-Serif" font-size="10.00">transskip_delete</text>
</a>
</g>
</g>
<!-- Node1&#45;&gt;Node12 -->
<g id="edge23" class="edge"><title>Node1&#45;&gt;Node12</title>
<path fill="none" stroke="midnightblue" d="M93.7612,-219.698C186.353,-211.819 388.736,-193.08 558,-166.838 574.954,-164.21 593.479,-160.659 609.632,-157.339"/>
<polygon fill="midnightblue" stroke="midnightblue" points="93.223,-216.231 83.5532,-220.561 93.8124,-223.206 93.223,-216.231"/>
</g>
<!-- Node13 -->
<g id="node13" class="node"><title>Node13</title>
<g id="a_node13"><a xlink:href="transskip_8cc.html#ae89a19c5e265e1f4988a8df74d9d27f7" target="_top" xlink:title="transskip_find">
<polygon fill="none" stroke="black" points="615.5,-65.3381 615.5,-84.3381 692.5,-84.3381 692.5,-65.3381 615.5,-65.3381"/>
<text text-anchor="middle" x="654" y="-72.3381" font-family="Helvetica,sans-Serif" font-size="10.00">transskip_find</text>
</a>
</g>
</g>
<!-- Node1&#45;&gt;Node13 -->
<g id="edge24" class="edge"><title>Node1&#45;&gt;Node13</title>
<path fill="none" stroke="midnightblue" d="M53.759,-205.402C66.9384,-184.267 91.1115,-149.841 120,-128.838 234.024,-45.9374 277.4,-40.6055 416,-14.8381 478.048,-3.30265 500.348,10.8379 558,-14.8381 579.849,-24.5687 574.025,-41.6826 594,-54.8381 600.503,-59.1213 608.016,-62.5773 615.455,-65.3325"/>
<polygon fill="midnightblue" stroke="midnightblue" points="50.6885,-203.716 48.4997,-214.082 56.6753,-207.344 50.6885,-203.716"/>
</g>
<!-- Node4 -->
<g id="node4" class="node"><title>Node4</title>
<g id="a_node4"><a xlink:href="classTransList.html#aa7e67c5ff8aeadc6d1d7791a297a58c4" target="_top" xlink:title="TransList::HelpOps">
<polygon fill="none" stroke="black" points="278.5,-290.338 278.5,-309.338 379.5,-309.338 379.5,-290.338 278.5,-290.338"/>
<text text-anchor="middle" x="329" y="-297.338" font-family="Helvetica,sans-Serif" font-size="10.00">TransList::HelpOps</text>
</a>
</g>
</g>
<!-- Node3&#45;&gt;Node4 -->
<g id="edge3" class="edge"><title>Node3&#45;&gt;Node4</title>
<path fill="none" stroke="midnightblue" d="M228.536,-273.95C248.87,-279.243 272.371,-285.359 291.423,-290.318"/>
<polygon fill="midnightblue" stroke="midnightblue" points="229.401,-270.559 218.842,-271.427 227.638,-277.333 229.401,-270.559"/>
</g>
<!-- Node5 -->
<g id="node5" class="node"><title>Node5</title>
<g id="a_node5"><a xlink:href="classTransList.html#abe5853275ff6befa6ccd7ab0e84b4dce" target="_top" xlink:title="TransList::ExecuteOps">
<polygon fill="none" stroke="black" points="428.5,-366.338 428.5,-385.338 545.5,-385.338 545.5,-366.338 428.5,-366.338"/>
<text text-anchor="middle" x="487" y="-373.338" font-family="Helvetica,sans-Serif" font-size="10.00">TransList::ExecuteOps</text>
</a>
</g>
</g>
<!-- Node4&#45;&gt;Node5 -->
<g id="edge4" class="edge"><title>Node4&#45;&gt;Node5</title>
<path fill="none" stroke="midnightblue" d="M352.408,-315.211C369.347,-326.374 393.459,-341.307 416,-351.838 427.872,-357.385 441.397,-362.322 453.372,-366.254"/>
<polygon fill="midnightblue" stroke="midnightblue" points="354.049,-312.098 343.79,-309.449 350.158,-317.917 354.049,-312.098"/>
</g>
<!-- Node6 -->
<g id="node6" class="node"><title>Node6</title>
<g id="a_node6"><a xlink:href="classTransList.html#a7ed667a308f2f7422dde28c7fe40cdc7" target="_top" xlink:title="TransList::FinishPendingTxn">
<polygon fill="none" stroke="black" points="416.5,-252.338 416.5,-271.338 557.5,-271.338 557.5,-252.338 416.5,-252.338"/>
<text text-anchor="middle" x="487" y="-259.338" font-family="Helvetica,sans-Serif" font-size="10.00">TransList::FinishPendingTxn</text>
</a>
</g>
</g>
<!-- Node4&#45;&gt;Node6 -->
<g id="edge5" class="edge"><title>Node4&#45;&gt;Node6</title>
<path fill="none" stroke="midnightblue" d="M379.132,-287.87C400.993,-282.545 426.376,-276.362 446.918,-271.358"/>
<polygon fill="midnightblue" stroke="midnightblue" points="378.253,-284.482 369.365,-290.249 379.91,-291.283 378.253,-284.482"/>
</g>
<!-- Node6&#45;&gt;Node3 -->
<g id="edge6" class="edge"><title>Node6&#45;&gt;Node3</title>
<path fill="none" stroke="midnightblue" d="M406.022,-261.838C348.152,-261.838 272.166,-261.838 225.233,-261.838"/>
<polygon fill="midnightblue" stroke="midnightblue" points="406.24,-265.338 416.239,-261.838 406.239,-258.338 406.24,-265.338"/>
</g>
<!-- Node6&#45;&gt;Node7 -->
<g id="edge7" class="edge"><title>Node6&#45;&gt;Node7</title>
<path fill="none" stroke="midnightblue" d="M518.095,-275.7C551.188,-290.943 603.477,-315.028 632.272,-328.291"/>
<polygon fill="midnightblue" stroke="midnightblue" points="519.444,-272.468 508.897,-271.464 516.516,-278.826 519.444,-272.468"/>
</g>
<!-- Node6&#45;&gt;Node8 -->
<g id="edge9" class="edge"><title>Node6&#45;&gt;Node8</title>
<path fill="none" stroke="midnightblue" d="M568.074,-261.838C583.502,-261.838 599.044,-261.838 612.537,-261.838"/>
<polygon fill="midnightblue" stroke="midnightblue" points="567.975,-258.338 557.975,-261.838 567.975,-265.338 567.975,-258.338"/>
</g>
<!-- Node7&#45;&gt;Node4 -->
<g id="edge8" class="edge"><title>Node7&#45;&gt;Node4</title>
<path fill="none" stroke="midnightblue" d="M597.715,-333.192C549.613,-328.923 478.072,-322.026 416,-313.838 404.302,-312.295 391.749,-310.393 379.948,-308.493"/>
<polygon fill="midnightblue" stroke="midnightblue" points="597.644,-336.7 607.912,-334.089 598.257,-329.726 597.644,-336.7"/>
</g>
<!-- Node8&#45;&gt;Node4 -->
<g id="edge10" class="edge"><title>Node8&#45;&gt;Node4</title>
<path fill="none" stroke="midnightblue" d="M602.752,-273.001C588.358,-275.896 572.608,-278.776 558,-280.838 496.841,-289.473 425.858,-294.628 379.55,-297.345"/>
<polygon fill="midnightblue" stroke="midnightblue" points="603.869,-276.345 612.959,-270.902 602.458,-269.489 603.869,-276.345"/>
</g>
<!-- Node10 -->
<g id="node10" class="node"><title>Node10</title>
<g id="a_node10"><a xlink:href="transskip_8cc.html#a4ae3b77271a6617ab4b15183a6ca9601" target="_top" xlink:title="help_ops">
<polygon fill="none" stroke="black" points="301,-100.338 301,-119.338 357,-119.338 357,-100.338 301,-100.338"/>
<text text-anchor="middle" x="329" y="-107.338" font-family="Helvetica,sans-Serif" font-size="10.00">help_ops</text>
</a>
</g>
</g>
<!-- Node9&#45;&gt;Node10 -->
<g id="edge14" class="edge"><title>Node9&#45;&gt;Node10</title>
<path fill="none" stroke="midnightblue" d="M228.743,-135.672C252.541,-129.478 280.635,-122.166 300.849,-116.905"/>
<polygon fill="midnightblue" stroke="midnightblue" points="227.638,-132.343 218.842,-138.249 229.401,-139.117 227.638,-132.343"/>
</g>
<!-- Node11 -->
<g id="node11" class="node"><title>Node11</title>
<g id="a_node11"><a xlink:href="transskip_8cc.html#a0d6d503fca08ea29d18df6b11d5fbcc0" target="_top" xlink:title="FinishPendingTxn">
<polygon fill="none" stroke="black" points="439.5,-138.338 439.5,-157.338 534.5,-157.338 534.5,-138.338 439.5,-138.338"/>
<text text-anchor="middle" x="487" y="-145.338" font-family="Helvetica,sans-Serif" font-size="10.00">FinishPendingTxn</text>
</a>
</g>
</g>
<!-- Node10&#45;&gt;Node11 -->
<g id="edge15" class="edge"><title>Node10&#45;&gt;Node11</title>
<path fill="none" stroke="midnightblue" d="M366.998,-118.85C391.056,-124.711 422.387,-132.343 446.861,-138.304"/>
<polygon fill="midnightblue" stroke="midnightblue" points="367.717,-115.423 357.173,-116.457 366.061,-122.225 367.717,-115.423"/>
</g>
<!-- Node14 -->
<g id="node14" class="node"><title>Node14</title>
<g id="a_node14"><a xlink:href="transskip_8h.html#ab9c29316cb91737b6c383818ff700dd0" target="_top" xlink:title="execute_ops">
<polygon fill="none" stroke="black" points="451,-24.3381 451,-43.3381 523,-43.3381 523,-24.3381 451,-24.3381"/>
<text text-anchor="middle" x="487" y="-31.3381" font-family="Helvetica,sans-Serif" font-size="10.00">execute_ops</text>
</a>
</g>
</g>
<!-- Node10&#45;&gt;Node14 -->
<g id="edge21" class="edge"><title>Node10&#45;&gt;Node14</title>
<path fill="none" stroke="midnightblue" d="M352.408,-94.4652C369.347,-83.3017 393.459,-68.3691 416,-57.8381 427.872,-52.2913 441.397,-47.3546 453.372,-43.4223"/>
<polygon fill="midnightblue" stroke="midnightblue" points="350.158,-91.7594 343.79,-100.228 354.049,-97.5784 350.158,-91.7594"/>
</g>
<!-- Node11&#45;&gt;Node9 -->
<g id="edge16" class="edge"><title>Node11&#45;&gt;Node9</title>
<path fill="none" stroke="midnightblue" d="M429.008,-147.838C369.512,-147.838 277.598,-147.838 224.27,-147.838"/>
<polygon fill="midnightblue" stroke="midnightblue" points="429.358,-151.338 439.358,-147.838 429.358,-144.338 429.358,-151.338"/>
</g>
<!-- Node11&#45;&gt;Node12 -->
<g id="edge17" class="edge"><title>Node11&#45;&gt;Node12</title>
<path fill="none" stroke="midnightblue" d="M545.068,-147.838C566.367,-147.838 590.174,-147.838 609.998,-147.838"/>
<polygon fill="midnightblue" stroke="midnightblue" points="544.841,-144.338 534.841,-147.838 544.841,-151.338 544.841,-144.338"/>
</g>
<!-- Node11&#45;&gt;Node13 -->
<g id="edge19" class="edge"><title>Node11&#45;&gt;Node13</title>
<path fill="none" stroke="midnightblue" d="M519.132,-134.065C551.944,-119.548 602.764,-97.0639 631.424,-84.3839"/>
<polygon fill="midnightblue" stroke="midnightblue" points="517.3,-131.048 509.571,-138.295 520.132,-137.449 517.3,-131.048"/>
</g>
<!-- Node12&#45;&gt;Node10 -->
<g id="edge18" class="edge"><title>Node12&#45;&gt;Node10</title>
<path fill="none" stroke="midnightblue" d="M600.763,-136.277C586.915,-133.518 571.938,-130.806 558,-128.838 485.829,-118.648 399.976,-113.304 357.137,-111.095"/>
<polygon fill="midnightblue" stroke="midnightblue" points="600.118,-139.717 610.616,-138.284 601.516,-132.858 600.118,-139.717"/>
</g>
<!-- Node13&#45;&gt;Node10 -->
<g id="edge20" class="edge"><title>Node13&#45;&gt;Node10</title>
<path fill="none" stroke="midnightblue" d="M605.056,-78.0546C557.104,-81.5141 481.294,-87.6418 416,-95.8381 396.188,-98.3251 373.942,-101.97 357.04,-104.917"/>
<polygon fill="midnightblue" stroke="midnightblue" points="605.42,-81.5376 615.146,-77.3364 604.923,-74.5553 605.42,-81.5376"/>
</g>
<!-- Node15 -->
<g id="node15" class="node"><title>Node15</title>
<g id="a_node15"><a xlink:href="classSetAdaptor_3_01trans__skip_01_4.html#a7a710fc23fd33466e92b1d06ad2e5869" target="_top" xlink:title="SetAdaptor\&lt; trans_skip\l \&gt;::ExecuteOps">
<polygon fill="none" stroke="black" points="594.5,-15.8381 594.5,-45.8381 713.5,-45.8381 713.5,-15.8381 594.5,-15.8381"/>
<text text-anchor="start" x="602.5" y="-33.8381" font-family="Helvetica,sans-Serif" font-size="10.00">SetAdaptor&lt; trans_skip</text>
<text text-anchor="middle" x="654" y="-22.8381" font-family="Helvetica,sans-Serif" font-size="10.00"> &gt;::ExecuteOps</text>
</a>
</g>
</g>
<!-- Node14&#45;&gt;Node15 -->
<g id="edge22" class="edge"><title>Node14&#45;&gt;Node15</title>
<path fill="none" stroke="midnightblue" d="M533.473,-33.0113C552.27,-32.6696 574.302,-32.269 594.295,-31.9054"/>
<polygon fill="midnightblue" stroke="midnightblue" points="533.331,-29.5132 523.397,-33.1945 533.459,-36.5121 533.331,-29.5132"/>
</g>
</g>
</svg>
        <g id="navigator" transform="translate(0 0)" fill="#404254">
                <rect fill="#f2f5e9" fill-opacity="0.5" stroke="#606060" stroke-width=".5" x="0" y="0" width="60" height="60"/>
                <use id="zoomplus" xlink:href="#zoomPlus" x="17" y="9" onmousedown="handleZoom(evt,'in')"/>
                <use id="zoomminus" xlink:href="#zoomMin" x="42" y="9" onmousedown="handleZoom(evt,'out')"/>
                <use id="reset" xlink:href="#resetDef" x="30" y="36" onmousedown="handleReset()"/>
                <g id="arrowUp" xlink:href="#dirArrow" transform="translate(30 24)" onmousedown="handlePan(0,-1)">
                  <use xlink:href="#rim" fill="#404040">
                        <set attributeName="fill" to="#808080" begin="arrowUp.mouseover" end="arrowUp.mouseout"/>
                  </use>
                  <path fill="none" stroke="white" stroke-width="1.5" d="M0,-3.0v7 M-2.5,-0.5L0,-3.0L2.5,-0.5"/>
                </g>
                <g id="arrowRight" xlink:href="#dirArrow" transform="rotate(90) translate(36 -43)" onmousedown="handlePan(1,0)">
                  <use xlink:href="#rim" fill="#404040">
                        <set attributeName="fill" to="#808080" begin="arrowRight.mouseover" end="arrowRight.mouseout"/>
                  </use>
                  <path fill="none" stroke="white" stroke-width="1.5" d="M0,-3.0v7 M-2.5,-0.5L0,-3.0L2.5,-0.5"/>
                </g>
                <g id="arrowDown" xlink:href="#dirArrow" transform="rotate(180) translate(-30 -48)" onmousedown="handlePan(0,1)">
                  <use xlink:href="#rim" fill="#404040">
                        <set attributeName="fill" to="#808080" begin="arrowDown.mouseover" end="arrowDown.mouseout"/>
                  </use>
                  <path fill="none" stroke="white" stroke-width="1.5" d="M0,-3.0v7 M-2.5,-0.5L0,-3.0L2.5,-0.5"/>
                </g>
                <g id="arrowLeft" xlink:href="#dirArrow" transform="rotate(270) translate(-36 17)" onmousedown="handlePan(-1,0)">
                  <use xlink:href="#rim" fill="#404040">
                        <set attributeName="fill" to="#808080" begin="arrowLeft.mouseover" end="arrowLeft.mouseout"/>
                  </use>
                  <path fill="none" stroke="white" stroke-width="1.5" d="M0,-3.0v7 M-2.5,-0.5L0,-3.0L2.5,-0.5"/>
                </g>
        </g>
        <svg viewBox="0 0 15 15" width="100%" height="30px" preserveAspectRatio="xMaxYMin meet">
         <g id="arrow_out" transform="scale(0.3 0.3)">
          <a xlink:href="classAllocator_ab991ae25a95eb984d8ef4e2d12db6178_icgraph_org.svg" target="_base">
           <rect id="button" ry="5" rx="5" y="6" x="6" height="38" width="38"
                fill="#f2f5e9" fill-opacity="0.5" stroke="#606060" stroke-width="1.0"/>
           <path id="arrow"
             d="M 11.500037,31.436501 C 11.940474,20.09759 22.043105,11.32322 32.158766,21.979434 L 37.068811,17.246167 C 37.068811,17.246167 37.088388,32 37.088388,32 L 22.160133,31.978069 C 22.160133,31.978069 26.997745,27.140456 26.997745,27.140456 C 18.528582,18.264221 13.291696,25.230495 11.500037,31.436501 z"
             style="fill:#404040;"/>
          </a>
         </g>
        </svg>
</svg>
