<?xml version="1.0" encoding="UTF-8" standalone="no"?>
<!DOCTYPE svg PUBLIC "-//W3C//DTD SVG 1.1//EN"
 "http://www.w3.org/Graphics/SVG/1.1/DTD/svg11.dtd">
<!-- Generated by graphviz version 2.36.0 (20140111.2315)
 -->
<!-- Title: edge Pages: 1 -->
<svg width="391pt" height="410pt"
 viewBox="0.00 0.00 391.00 410.00" xmlns="http://www.w3.org/2000/svg" xmlns:xlink="http://www.w3.org/1999/xlink">
<g id="graph0" class="graph" transform="scale(1 1) rotate(0) translate(4 406)">
<title>edge</title>
<!-- Node1 -->
<g id="node1" class="node"><title>Node1</title>
<polygon fill="#bfbfbf" stroke="black" points="228.5,-150.5 228.5,-273.5 313.5,-273.5 313.5,-150.5 228.5,-150.5"/>
<text text-anchor="middle" x="271" y="-261.5" font-family="Helvetica,sans-Serif" font-size="10.00">edge</text>
<polyline fill="none" stroke="black" points="228.5,-254.5 313.5,-254.5 "/>
<text text-anchor="middle" x="271" y="-242.5" font-family="Helvetica,sans-Serif" font-size="10.00"> </text>
<polyline fill="none" stroke="black" points="228.5,-235.5 313.5,-235.5 "/>
<text text-anchor="start" x="236.5" y="-223.5" font-family="Helvetica,sans-Serif" font-size="10.00">+ print()</text>
<text text-anchor="start" x="236.5" y="-212.5" font-family="Helvetica,sans-Serif" font-size="10.00">+ index_of()</text>
<text text-anchor="start" x="236.5" y="-201.5" font-family="Helvetica,sans-Serif" font-size="10.00">+ reconsider()</text>
<text text-anchor="start" x="236.5" y="-190.5" font-family="Helvetica,sans-Serif" font-size="10.00">+ edge()</text>
<text text-anchor="start" x="236.5" y="-179.5" font-family="Helvetica,sans-Serif" font-size="10.00">+ destroy()</text>
<text text-anchor="start" x="236.5" y="-168.5" font-family="Helvetica,sans-Serif" font-size="10.00">+ ~edge()</text>
<text text-anchor="start" x="236.5" y="-157.5" font-family="Helvetica,sans-Serif" font-size="10.00">&#45; initialize_end()</text>
</g>
<!-- Node1&#45;&gt;Node1 -->
<g id="edge8" class="edge"><title>Node1&#45;&gt;Node1</title>
<path fill="none" stroke="#404040" d="M313.604,-227.806C323.615,-226.507 331,-221.238 331,-212 331,-206.948 328.791,-203.083 325.152,-200.405"/>
<polygon fill="none" stroke="#404040" points="324.878,-200.305 317.871,-202.007 313.604,-196.194 320.612,-194.492 324.878,-200.305"/>
<text text-anchor="middle" x="357" y="-209.5" font-family="Helvetica,sans-Serif" font-size="10.00"> +neighbors</text>
</g>
<!-- Node3 -->
<g id="node3" class="node"><title>Node3</title>
<g id="a_node3"><a xlink:href="classpoint.html" target="_top" xlink:title="{point\n||+ hash()\l+ operator==()\l+ operator!=()\l+ operator\&lt;()\l+ point()\l}">
<polygon fill="none" stroke="black" points="137.5,-0.5 137.5,-101.5 216.5,-101.5 216.5,-0.5 137.5,-0.5"/>
<text text-anchor="middle" x="177" y="-89.5" font-family="Helvetica,sans-Serif" font-size="10.00">point</text>
<polyline fill="none" stroke="black" points="137.5,-82.5 216.5,-82.5 "/>
<text text-anchor="middle" x="177" y="-70.5" font-family="Helvetica,sans-Serif" font-size="10.00"> </text>
<polyline fill="none" stroke="black" points="137.5,-63.5 216.5,-63.5 "/>
<text text-anchor="start" x="145.5" y="-51.5" font-family="Helvetica,sans-Serif" font-size="10.00">+ hash()</text>
<text text-anchor="start" x="145.5" y="-40.5" font-family="Helvetica,sans-Serif" font-size="10.00">+ operator==()</text>
<text text-anchor="start" x="145.5" y="-29.5" font-family="Helvetica,sans-Serif" font-size="10.00">+ operator!=()</text>
<text text-anchor="start" x="145.5" y="-18.5" font-family="Helvetica,sans-Serif" font-size="10.00">+ operator&lt;()</text>
<text text-anchor="start" x="145.5" y="-7.5" font-family="Helvetica,sans-Serif" font-size="10.00">+ point()</text>
</a>
</g>
</g>
<!-- Node1&#45;&gt;Node3 -->
<g id="edge6" class="edge"><title>Node1&#45;&gt;Node3</title>
<path fill="none" stroke="#404040" d="M260.741,-150.386C257.562,-139.845 253.412,-129.294 248,-120 241.945,-109.601 233.841,-99.7731 225.275,-90.9895"/>
<polygon fill="none" stroke="#404040" points="225.219,-90.9353 218.128,-89.622 216.614,-82.5718 223.704,-83.885 225.219,-90.9353"/>
<text text-anchor="middle" x="280" y="-123.5" font-family="Helvetica,sans-Serif" font-size="10.00"> +first_edge</text>
</g>
<!-- Node2 -->
<g id="node2" class="node"><title>Node2</title>
<polygon fill="none" stroke="#bfbfbf" points="273.5,-344.5 273.5,-401.5 308.5,-401.5 308.5,-344.5 273.5,-344.5"/>
<text text-anchor="middle" x="291" y="-389.5" font-family="Helvetica,sans-Serif" font-size="10.00">bool</text>
<polyline fill="none" stroke="#bfbfbf" points="273.5,-382.5 308.5,-382.5 "/>
<text text-anchor="middle" x="291" y="-370.5" font-family="Helvetica,sans-Serif" font-size="10.00"> </text>
<polyline fill="none" stroke="#bfbfbf" points="273.5,-363.5 308.5,-363.5 "/>
<text text-anchor="middle" x="291" y="-351.5" font-family="Helvetica,sans-Serif" font-size="10.00"> </text>
</g>
<!-- Node2&#45;&gt;Node1 -->
<g id="edge1" class="edge"><title>Node2&#45;&gt;Node1</title>
<path fill="none" stroke="#404040" d="M287.516,-344.304C285.467,-328.016 282.772,-306.589 280.155,-285.78"/>
<polygon fill="none" stroke="#404040" points="280.126,-285.549 275.408,-280.095 278.628,-273.643 283.346,-279.097 280.126,-285.549"/>
<text text-anchor="middle" x="306.5" y="-306.5" font-family="Helvetica,sans-Serif" font-size="10.00"> +deleted</text>
</g>
<!-- Node3&#45;&gt;Node1 -->
<g id="edge2" class="edge"><title>Node3&#45;&gt;Node1</title>
<path fill="none" stroke="#404040" d="M196.553,-101.531C201.197,-111.819 206.435,-122.434 212,-132 214.913,-137.008 218.088,-142.072 221.403,-147.09"/>
<polygon fill="none" stroke="#404040" points="221.603,-147.383 228.289,-150.083 228.368,-157.294 221.681,-154.593 221.603,-147.383"/>
<text text-anchor="middle" x="230" y="-123.5" font-family="Helvetica,sans-Serif" font-size="10.00"> +points</text>
</g>
<!-- Node4 -->
<g id="node4" class="node"><title>Node4</title>
<polygon fill="none" stroke="#bfbfbf" points="0,-183.5 0,-240.5 92,-240.5 92,-183.5 0,-183.5"/>
<text text-anchor="middle" x="46" y="-228.5" font-family="Helvetica,sans-Serif" font-size="10.00">enum momentum</text>
<polyline fill="none" stroke="#bfbfbf" points="0,-221.5 92,-221.5 "/>
<text text-anchor="middle" x="46" y="-209.5" font-family="Helvetica,sans-Serif" font-size="10.00"> </text>
<polyline fill="none" stroke="#bfbfbf" points="0,-202.5 92,-202.5 "/>
<text text-anchor="middle" x="46" y="-190.5" font-family="Helvetica,sans-Serif" font-size="10.00"> </text>
</g>
<!-- Node4&#45;&gt;Node3 -->
<g id="edge3" class="edge"><title>Node4&#45;&gt;Node3</title>
<path fill="none" stroke="#404040" d="M45.7573,-183.246C46.8749,-163.938 51.0436,-138.452 64,-120 79.2515,-98.2794 103.859,-82.2871 126.223,-71.2889"/>
<polygon fill="none" stroke="#404040" points="126.427,-71.1942 130.184,-65.0387 137.31,-66.1386 133.554,-72.2941 126.427,-71.1942"/>
<text text-anchor="middle" x="93" y="-123.5" font-family="Helvetica,sans-Serif" font-size="10.00"> +momentum</text>
</g>
<!-- Node5 -->
<g id="node5" class="node"><title>Node5</title>
<polygon fill="none" stroke="#bfbfbf" points="111.5,-183.5 111.5,-240.5 140.5,-240.5 140.5,-183.5 111.5,-183.5"/>
<text text-anchor="middle" x="126" y="-228.5" font-family="Helvetica,sans-Serif" font-size="10.00">int</text>
<polyline fill="none" stroke="#bfbfbf" points="111.5,-221.5 140.5,-221.5 "/>
<text text-anchor="middle" x="126" y="-209.5" font-family="Helvetica,sans-Serif" font-size="10.00"> </text>
<polyline fill="none" stroke="#bfbfbf" points="111.5,-202.5 140.5,-202.5 "/>
<text text-anchor="middle" x="126" y="-190.5" font-family="Helvetica,sans-Serif" font-size="10.00"> </text>
</g>
<!-- Node5&#45;&gt;Node3 -->
<g id="edge4" class="edge"><title>Node5&#45;&gt;Node3</title>
<path fill="none" stroke="#404040" d="M122.851,-183.195C121.741,-164.789 122.16,-140.381 129,-120 129.859,-117.44 130.849,-114.891 131.945,-112.366"/>
<polygon fill="none" stroke="#404040" points="132.016,-112.224 131.108,-105.07 137.362,-101.481 138.27,-108.635 132.016,-112.224"/>
<text text-anchor="middle" x="146" y="-123.5" font-family="Helvetica,sans-Serif" font-size="10.00"> +coord</text>
</g>
<!-- Node6 -->
<g id="node6" class="node"><title>Node6</title>
<polygon fill="none" stroke="#bfbfbf" points="175.5,-344.5 175.5,-401.5 210.5,-401.5 210.5,-344.5 175.5,-344.5"/>
<text text-anchor="middle" x="193" y="-389.5" font-family="Helvetica,sans-Serif" font-size="10.00">long</text>
<polyline fill="none" stroke="#bfbfbf" points="175.5,-382.5 210.5,-382.5 "/>
<text text-anchor="middle" x="193" y="-370.5" font-family="Helvetica,sans-Serif" font-size="10.00"> </text>
<polyline fill="none" stroke="#bfbfbf" points="175.5,-363.5 210.5,-363.5 "/>
<text text-anchor="middle" x="193" y="-351.5" font-family="Helvetica,sans-Serif" font-size="10.00"> </text>
</g>
<!-- Node6&#45;&gt;Node1 -->
<g id="edge7" class="edge"><title>Node6&#45;&gt;Node1</title>
<path fill="none" stroke="#404040" d="M200.03,-344.264C204.501,-328.535 210.963,-308.715 219,-292 220.231,-289.44 221.532,-286.866 222.89,-284.291"/>
<polygon fill="none" stroke="#404040" points="222.926,-284.225 222.339,-277.038 228.747,-273.732 229.335,-280.919 222.926,-284.225"/>
<text text-anchor="middle" x="248" y="-317.5" font-family="Helvetica,sans-Serif" font-size="10.00"> +startVertex</text>
<text text-anchor="middle" x="248" y="-306.5" font-family="Helvetica,sans-Serif" font-size="10.00">+endVertex</text>
<text text-anchor="middle" x="248" y="-295.5" font-family="Helvetica,sans-Serif" font-size="10.00">+edgeNum</text>
</g>
<!-- Node6&#45;&gt;Node3 -->
<g id="edge5" class="edge"><title>Node6&#45;&gt;Node3</title>
<path fill="none" stroke="#404040" d="M190.78,-344.135C189.275,-324.53 187.325,-297.673 186,-274 182.975,-219.963 180.563,-158.472 179,-113.93"/>
<polygon fill="none" stroke="#404040" points="178.996,-113.83 174.791,-107.972 178.582,-101.837 182.787,-107.695 178.996,-113.83"/>
<text text-anchor="middle" x="202.5" y="-226" font-family="Helvetica,sans-Serif" font-size="10.00"> +value</text>
<text text-anchor="middle" x="202.5" y="-215" font-family="Helvetica,sans-Serif" font-size="10.00">+x</text>
<text text-anchor="middle" x="202.5" y="-204" font-family="Helvetica,sans-Serif" font-size="10.00">+y</text>
<text text-anchor="middle" x="202.5" y="-193" font-family="Helvetica,sans-Serif" font-size="10.00">+z</text>
</g>
</g>
</svg>
