<?xml version="1.0" encoding="UTF-8" standalone="no"?>
<!DOCTYPE svg PUBLIC "-//W3C//DTD SVG 1.1//EN"
 "http://www.w3.org/Graphics/SVG/1.1/DTD/svg11.dtd">
<!-- Generated by graphviz version 2.36.0 (20140111.2315)
 -->
<!-- Title: Allocator&lt; DataType &gt; Pages: 1 -->
<svg width="158pt" height="260pt"
 viewBox="0.00 0.00 158.00 260.00" xmlns="http://www.w3.org/2000/svg" xmlns:xlink="http://www.w3.org/1999/xlink">
<g id="graph0" class="graph" transform="scale(1 1) rotate(0) translate(4 256)">
<title>Allocator&lt; DataType &gt;</title>
<!-- Node1 -->
<g id="node1" class="node"><title>Node1</title>
<polygon fill="#bfbfbf" stroke="black" points="13,-0.5 13,-101.5 129,-101.5 129,-0.5 13,-0.5"/>
<text text-anchor="middle" x="71" y="-89.5" font-family="Helvetica,sans-Serif" font-size="10.00">Allocator&lt; DataType &gt;</text>
<polyline fill="none" stroke="black" points="13,-82.5 129,-82.5 "/>
<text text-anchor="middle" x="71" y="-70.5" font-family="Helvetica,sans-Serif" font-size="10.00"> </text>
<polyline fill="none" stroke="black" points="13,-63.5 129,-63.5 "/>
<text text-anchor="start" x="21" y="-51.5" font-family="Helvetica,sans-Serif" font-size="10.00">+ Allocator()</text>
<text text-anchor="start" x="21" y="-40.5" font-family="Helvetica,sans-Serif" font-size="10.00">+ ~Allocator()</text>
<text text-anchor="start" x="21" y="-29.5" font-family="Helvetica,sans-Serif" font-size="10.00">+ Init()</text>
<text text-anchor="start" x="21" y="-18.5" font-family="Helvetica,sans-Serif" font-size="10.00">+ Uninit()</text>
<text text-anchor="start" x="21" y="-7.5" font-family="Helvetica,sans-Serif" font-size="10.00">+ Alloc()</text>
</g>
<!-- Node2 -->
<g id="node2" class="node"><title>Node2</title>
<polygon fill="none" stroke="#bfbfbf" points="-0.5,-194.5 -0.5,-251.5 50.5,-251.5 50.5,-194.5 -0.5,-194.5"/>
<text text-anchor="middle" x="25" y="-239.5" font-family="Helvetica,sans-Serif" font-size="10.00">uint64_t</text>
<polyline fill="none" stroke="#bfbfbf" points="-0.5,-232.5 50.5,-232.5 "/>
<text text-anchor="middle" x="25" y="-220.5" font-family="Helvetica,sans-Serif" font-size="10.00"> </text>
<polyline fill="none" stroke="#bfbfbf" points="-0.5,-213.5 50.5,-213.5 "/>
<text text-anchor="middle" x="25" y="-201.5" font-family="Helvetica,sans-Serif" font-size="10.00"> </text>
</g>
<!-- Node2&#45;&gt;Node1 -->
<g id="edge1" class="edge"><title>Node2&#45;&gt;Node1</title>
<path fill="none" stroke="#404040" d="M21.0777,-194.077C19.141,-173.203 18.5839,-144.214 26,-120 26.7449,-117.568 27.607,-115.142 28.5661,-112.734"/>
<polygon fill="none" stroke="#404040" points="28.6602,-112.529 27.5411,-105.406 33.6864,-101.633 34.8056,-108.756 28.6602,-112.529"/>
<text text-anchor="middle" x="61" y="-167.5" font-family="Helvetica,sans-Serif" font-size="10.00"> &#45;m_freeIndex</text>
<text text-anchor="middle" x="61" y="-156.5" font-family="Helvetica,sans-Serif" font-size="10.00">&#45;m_ticket</text>
<text text-anchor="middle" x="61" y="-145.5" font-family="Helvetica,sans-Serif" font-size="10.00">&#45;m_threadCount</text>
<text text-anchor="middle" x="61" y="-134.5" font-family="Helvetica,sans-Serif" font-size="10.00">&#45;m_typeSize</text>
<text text-anchor="middle" x="61" y="-123.5" font-family="Helvetica,sans-Serif" font-size="10.00">&#45;m_totalBytes</text>
</g>
<!-- Node3 -->
<g id="node3" class="node"><title>Node3</title>
<polygon fill="none" stroke="#bfbfbf" points="100.5,-194.5 100.5,-251.5 135.5,-251.5 135.5,-194.5 100.5,-194.5"/>
<text text-anchor="middle" x="118" y="-239.5" font-family="Helvetica,sans-Serif" font-size="10.00">char</text>
<polyline fill="none" stroke="#bfbfbf" points="100.5,-232.5 135.5,-232.5 "/>
<text text-anchor="middle" x="118" y="-220.5" font-family="Helvetica,sans-Serif" font-size="10.00"> </text>
<polyline fill="none" stroke="#bfbfbf" points="100.5,-213.5 135.5,-213.5 "/>
<text text-anchor="middle" x="118" y="-201.5" font-family="Helvetica,sans-Serif" font-size="10.00"> </text>
</g>
<!-- Node3&#45;&gt;Node1 -->
<g id="edge2" class="edge"><title>Node3&#45;&gt;Node1</title>
<path fill="none" stroke="#404040" d="M113.144,-194.466C109.237,-173.791 103.218,-144.879 96,-120 95.3828,-117.873 94.7323,-115.716 94.0559,-113.545"/>
<polygon fill="none" stroke="#404040" points="93.9673,-113.274 88.2993,-108.816 90.2345,-101.87 95.9024,-106.328 93.9673,-113.274"/>
<text text-anchor="middle" x="129.5" y="-151" font-family="Helvetica,sans-Serif" font-size="10.00"> &#45;m_base</text>
<text text-anchor="middle" x="129.5" y="-140" font-family="Helvetica,sans-Serif" font-size="10.00">&#45;m_pool</text>
</g>
</g>
</svg>
