<?xml version="1.0" encoding="UTF-8" standalone="no"?>
<!DOCTYPE svg PUBLIC "-//W3C//DTD SVG 1.1//EN"
 "http://www.w3.org/Graphics/SVG/1.1/DTD/svg11.dtd">
<!-- Generated by graphviz version 2.36.0 (20140111.2315)
 -->
<!-- Title: LockfreeList::LocatePred Pages: 1 -->
<svg width="424pt" height="142pt"
 viewBox="0.00 0.00 424.00 142.00" xmlns="http://www.w3.org/2000/svg" xmlns:xlink="http://www.w3.org/1999/xlink">
<g id="graph0" class="graph" transform="scale(1 1) rotate(0) translate(4 138)">
<title>LockfreeList::LocatePred</title>
<!-- Node1 -->
<g id="node1" class="node"><title>Node1</title>
<polygon fill="#bfbfbf" stroke="black" points="0.5,-76.5 0.5,-95.5 125.5,-95.5 125.5,-76.5 0.5,-76.5"/>
<text text-anchor="middle" x="63" y="-83.5" font-family="Helvetica,sans-Serif" font-size="10.00">LockfreeList::LocatePred</text>
</g>
<!-- Node2 -->
<g id="node2" class="node"><title>Node2</title>
<g id="a_node2"><a xlink:href="classLockfreeList.html#a7d38019611926c6dde4c2b2a85e0d68a" target="_top" xlink:title="LockfreeList::Find">
<polygon fill="none" stroke="black" points="166.5,-114.5 166.5,-133.5 261.5,-133.5 261.5,-114.5 166.5,-114.5"/>
<text text-anchor="middle" x="214" y="-121.5" font-family="Helvetica,sans-Serif" font-size="10.00">LockfreeList::Find</text>
</a>
</g>
</g>
<!-- Node1&#45;&gt;Node2 -->
<g id="edge1" class="edge"><title>Node1&#45;&gt;Node2</title>
<path fill="none" stroke="midnightblue" d="M111.492,-98.1121C132.244,-103.404 156.228,-109.521 175.671,-114.48"/>
<polygon fill="midnightblue" stroke="midnightblue" points="112.154,-94.6689 101.599,-95.589 110.424,-101.452 112.154,-94.6689"/>
</g>
<!-- Node4 -->
<g id="node4" class="node"><title>Node4</title>
<g id="a_node4"><a xlink:href="classLockfreeList.html#a8177923608d471f9fddab408d7217994" target="_top" xlink:title="LockfreeList::Insert">
<polygon fill="none" stroke="black" points="163.5,-76.5 163.5,-95.5 264.5,-95.5 264.5,-76.5 163.5,-76.5"/>
<text text-anchor="middle" x="214" y="-83.5" font-family="Helvetica,sans-Serif" font-size="10.00">LockfreeList::Insert</text>
</a>
</g>
</g>
<!-- Node1&#45;&gt;Node4 -->
<g id="edge3" class="edge"><title>Node1&#45;&gt;Node4</title>
<path fill="none" stroke="midnightblue" d="M135.91,-86C145.184,-86 154.512,-86 163.317,-86"/>
<polygon fill="midnightblue" stroke="midnightblue" points="135.895,-82.5001 125.895,-86 135.895,-89.5001 135.895,-82.5001"/>
</g>
<!-- Node7 -->
<g id="node7" class="node"><title>Node7</title>
<g id="a_node7"><a xlink:href="classLockfreeList.html#a8be9fbf09485d88165f5a3ff614bb121" target="_top" xlink:title="LockfreeList::Delete">
<polygon fill="none" stroke="black" points="162,-38.5 162,-57.5 266,-57.5 266,-38.5 162,-38.5"/>
<text text-anchor="middle" x="214" y="-45.5" font-family="Helvetica,sans-Serif" font-size="10.00">LockfreeList::Delete</text>
</a>
</g>
</g>
<!-- Node1&#45;&gt;Node7 -->
<g id="edge6" class="edge"><title>Node1&#45;&gt;Node7</title>
<path fill="none" stroke="midnightblue" d="M111.492,-73.8879C132.244,-68.5956 156.228,-62.4787 175.671,-57.5201"/>
<polygon fill="midnightblue" stroke="midnightblue" points="110.424,-70.5482 101.599,-76.411 112.154,-77.3311 110.424,-70.5482"/>
</g>
<!-- Node3 -->
<g id="node3" class="node"><title>Node3</title>
<g id="a_node3"><a xlink:href="classBoostingList.html#a9b9a0ffe922bfb9af08196219105424f" target="_top" xlink:title="BoostingList::Find">
<polygon fill="none" stroke="black" points="311.5,-114.5 311.5,-133.5 406.5,-133.5 406.5,-114.5 311.5,-114.5"/>
<text text-anchor="middle" x="359" y="-121.5" font-family="Helvetica,sans-Serif" font-size="10.00">BoostingList::Find</text>
</a>
</g>
</g>
<!-- Node2&#45;&gt;Node3 -->
<g id="edge2" class="edge"><title>Node2&#45;&gt;Node3</title>
<path fill="none" stroke="midnightblue" d="M272.034,-124C284.984,-124 298.596,-124 311.071,-124"/>
<polygon fill="midnightblue" stroke="midnightblue" points="271.824,-120.5 261.824,-124 271.824,-127.5 271.824,-120.5"/>
</g>
<!-- Node5 -->
<g id="node5" class="node"><title>Node5</title>
<g id="a_node5"><a xlink:href="classBoostingList.html#a16bf3043fb4368961fffc400cef1953d" target="_top" xlink:title="BoostingList::Insert">
<polygon fill="none" stroke="black" points="308.5,-76.5 308.5,-95.5 409.5,-95.5 409.5,-76.5 308.5,-76.5"/>
<text text-anchor="middle" x="359" y="-83.5" font-family="Helvetica,sans-Serif" font-size="10.00">BoostingList::Insert</text>
</a>
</g>
</g>
<!-- Node4&#45;&gt;Node5 -->
<g id="edge4" class="edge"><title>Node4&#45;&gt;Node5</title>
<path fill="none" stroke="midnightblue" d="M274.773,-86C285.993,-86 297.609,-86 308.475,-86"/>
<polygon fill="midnightblue" stroke="midnightblue" points="274.613,-82.5001 264.613,-86 274.613,-89.5001 274.613,-82.5001"/>
</g>
<!-- Node6 -->
<g id="node6" class="node"><title>Node6</title>
<g id="a_node6"><a xlink:href="classBoostingList.html#add73a97e46b96edaf01a3de3b185fd53" target="_top" xlink:title="BoostingList::OnAbort">
<polygon fill="none" stroke="black" points="302.5,-38.5 302.5,-57.5 415.5,-57.5 415.5,-38.5 302.5,-38.5"/>
<text text-anchor="middle" x="359" y="-45.5" font-family="Helvetica,sans-Serif" font-size="10.00">BoostingList::OnAbort</text>
</a>
</g>
</g>
<!-- Node4&#45;&gt;Node6 -->
<g id="edge5" class="edge"><title>Node4&#45;&gt;Node6</title>
<path fill="none" stroke="midnightblue" d="M260.813,-73.8258C280.587,-68.5713 303.384,-62.5134 321.927,-57.5859"/>
<polygon fill="midnightblue" stroke="midnightblue" points="259.851,-70.4601 251.085,-76.411 261.648,-77.2253 259.851,-70.4601"/>
</g>
<!-- Node7&#45;&gt;Node6 -->
<g id="edge8" class="edge"><title>Node7&#45;&gt;Node6</title>
<path fill="none" stroke="midnightblue" d="M276.251,-48C284.9,-48 293.754,-48 302.292,-48"/>
<polygon fill="midnightblue" stroke="midnightblue" points="276.222,-44.5001 266.222,-48 276.222,-51.5001 276.222,-44.5001"/>
</g>
<!-- Node8 -->
<g id="node8" class="node"><title>Node8</title>
<g id="a_node8"><a xlink:href="classBoostingList.html#ad0ab949b2089c509eef7e21357080ae0" target="_top" xlink:title="BoostingList::Delete">
<polygon fill="none" stroke="black" points="306.5,-0.5 306.5,-19.5 411.5,-19.5 411.5,-0.5 306.5,-0.5"/>
<text text-anchor="middle" x="359" y="-7.5" font-family="Helvetica,sans-Serif" font-size="10.00">BoostingList::Delete</text>
</a>
</g>
</g>
<!-- Node7&#45;&gt;Node8 -->
<g id="edge7" class="edge"><title>Node7&#45;&gt;Node8</title>
<path fill="none" stroke="midnightblue" d="M260.813,-35.8258C280.587,-30.5713 303.384,-24.5134 321.927,-19.5859"/>
<polygon fill="midnightblue" stroke="midnightblue" points="259.851,-32.4601 251.085,-38.411 261.648,-39.2253 259.851,-32.4601"/>
</g>
</g>
</svg>
