<?xml version="1.0" encoding="UTF-8" standalone="no"?>
<!DOCTYPE svg PUBLIC "-//W3C//DTD SVG 1.1//EN"
 "http://www.w3.org/Graphics/SVG/1.1/DTD/svg11.dtd">
<!-- Generated by graphviz version 2.36.0 (20140111.2315)
 -->
<!-- Title: stm::WriteSet::insert Pages: 1 -->
<svg width="594pt" height="175pt"
 viewBox="0.00 0.00 594.00 175.00" xmlns="http://www.w3.org/2000/svg" xmlns:xlink="http://www.w3.org/1999/xlink">
<g id="graph0" class="graph" transform="scale(1 1) rotate(0) translate(4 171)">
<title>stm::WriteSet::insert</title>
<!-- Node1 -->
<g id="node1" class="node"><title>Node1</title>
<polygon fill="#bfbfbf" stroke="black" points="0.5,-52.5 0.5,-71.5 107.5,-71.5 107.5,-52.5 0.5,-52.5"/>
<text text-anchor="middle" x="54" y="-59.5" font-family="Helvetica,sans-Serif" font-size="10.00">stm::WriteSet::insert</text>
</g>
<!-- Node2 -->
<g id="node2" class="node"><title>Node2</title>
<g id="a_node2"><a xlink:href="classstm_1_1WriteSet.html#a07a039f248b6f18a81dae1ef00bb5d1b" target="_top" xlink:title="stm::WriteSet::hash">
<polygon fill="none" stroke="black" points="308,-49.5 308,-68.5 412,-68.5 412,-49.5 308,-49.5"/>
<text text-anchor="middle" x="360" y="-56.5" font-family="Helvetica,sans-Serif" font-size="10.00">stm::WriteSet::hash</text>
</a>
</g>
</g>
<!-- Node1&#45;&gt;Node2 -->
<g id="edge1" class="edge"><title>Node1&#45;&gt;Node2</title>
<path fill="none" stroke="midnightblue" d="M107.606,-61.4809C160.48,-60.9591 241.927,-60.1553 297.696,-59.605"/>
<polygon fill="midnightblue" stroke="midnightblue" points="297.832,-63.1039 307.797,-59.5053 297.763,-56.1042 297.832,-63.1039"/>
</g>
<!-- Node3 -->
<g id="node3" class="node"><title>Node3</title>
<g id="a_node3"><a xlink:href="classstm_1_1WriteSet.html#a9fa08f0cb7125900e5ad33f0bae35f31" target="_top" xlink:title="stm::WriteSet::resize">
<polygon fill="none" stroke="black" points="145,-95.5 145,-114.5 255,-114.5 255,-95.5 145,-95.5"/>
<text text-anchor="middle" x="200" y="-102.5" font-family="Helvetica,sans-Serif" font-size="10.00">stm::WriteSet::resize</text>
</a>
</g>
</g>
<!-- Node1&#45;&gt;Node3 -->
<g id="edge2" class="edge"><title>Node1&#45;&gt;Node3</title>
<path fill="none" stroke="midnightblue" d="M86.9583,-71.5431C107.745,-77.7504 135.062,-85.9073 157.518,-92.613"/>
<polygon fill="midnightblue" stroke="midnightblue" points="156.548,-95.9759 167.131,-95.4836 158.551,-89.2686 156.548,-95.9759"/>
</g>
<!-- Node8 -->
<g id="node8" class="node"><title>Node8</title>
<g id="a_node8"><a xlink:href="classstm_1_1WriteSet.html#a74d7f6aaf7575622d6395f4f87122c29" target="_top" xlink:title="stm::WriteSet::rebuild">
<polygon fill="none" stroke="black" points="144,-14.5 144,-33.5 256,-33.5 256,-14.5 144,-14.5"/>
<text text-anchor="middle" x="200" y="-21.5" font-family="Helvetica,sans-Serif" font-size="10.00">stm::WriteSet::rebuild</text>
</a>
</g>
</g>
<!-- Node1&#45;&gt;Node8 -->
<g id="edge7" class="edge"><title>Node1&#45;&gt;Node8</title>
<path fill="none" stroke="midnightblue" d="M91.3373,-52.411C110.083,-47.4642 133.143,-41.3789 153.107,-36.1108"/>
<polygon fill="midnightblue" stroke="midnightblue" points="154.148,-39.4558 162.924,-33.5201 152.362,-32.6875 154.148,-39.4558"/>
</g>
<!-- Node4 -->
<g id="node4" class="node"><title>Node4</title>
<g id="a_node4"><a xlink:href="namespaceanonymous__namespace_02libitm-5_813_0014_8cpp_03.html#a8b7be7cf3afef27c0623b844ce9116d8" target="_top" xlink:title="anonymous_namespace\l\{libitm&#45;5::13,14::cpp\}\l::memcpy">
<polygon fill="none" stroke="black" points="299,-87.5 299,-128.5 421,-128.5 421,-87.5 299,-87.5"/>
<text text-anchor="start" x="307" y="-116.5" font-family="Helvetica,sans-Serif" font-size="10.00">anonymous_namespace</text>
<text text-anchor="start" x="307" y="-105.5" font-family="Helvetica,sans-Serif" font-size="10.00">{libitm&#45;5::13,14::cpp}</text>
<text text-anchor="middle" x="360" y="-94.5" font-family="Helvetica,sans-Serif" font-size="10.00">::memcpy</text>
</a>
</g>
</g>
<!-- Node3&#45;&gt;Node4 -->
<g id="edge3" class="edge"><title>Node3&#45;&gt;Node4</title>
<path fill="none" stroke="midnightblue" d="M255.375,-106.032C266.105,-106.236 277.508,-106.453 288.677,-106.665"/>
<polygon fill="midnightblue" stroke="midnightblue" points="288.778,-110.167 298.843,-106.858 288.911,-103.168 288.778,-110.167"/>
</g>
<!-- Node5 -->
<g id="node5" class="node"><title>Node5</title>
<g id="a_node5"><a xlink:href="namespaceanonymous__namespace_02oreceager_8cpp_03.html#a7a88c7a7453bbfaca53eeac03b80a5d6" target="_top" xlink:title="anonymous_namespace\l\{oreceager::cpp\}::read">
<polygon fill="none" stroke="black" points="464,-137 464,-167 586,-167 586,-137 464,-137"/>
<text text-anchor="start" x="472" y="-155" font-family="Helvetica,sans-Serif" font-size="10.00">anonymous_namespace</text>
<text text-anchor="middle" x="525" y="-144" font-family="Helvetica,sans-Serif" font-size="10.00">{oreceager::cpp}::read</text>
</a>
</g>
</g>
<!-- Node4&#45;&gt;Node5 -->
<g id="edge4" class="edge"><title>Node4&#45;&gt;Node5</title>
<path fill="none" stroke="midnightblue" d="M421.232,-124.259C433.397,-127.543 446.242,-131.01 458.575,-134.339"/>
<polygon fill="midnightblue" stroke="midnightblue" points="457.767,-137.746 468.334,-136.974 459.592,-130.988 457.767,-137.746"/>
</g>
<!-- Node6 -->
<g id="node6" class="node"><title>Node6</title>
<g id="a_node6"><a xlink:href="namespaceitm2stm.html#a334b9615cac957b9ce7a4743beaaaf53" target="_top" xlink:title="itm2stm::add_bytes">
<polygon fill="none" stroke="black" points="473.5,-98.5 473.5,-117.5 576.5,-117.5 576.5,-98.5 473.5,-98.5"/>
<text text-anchor="middle" x="525" y="-105.5" font-family="Helvetica,sans-Serif" font-size="10.00">itm2stm::add_bytes</text>
</a>
</g>
</g>
<!-- Node4&#45;&gt;Node6 -->
<g id="edge5" class="edge"><title>Node4&#45;&gt;Node6</title>
<path fill="none" stroke="midnightblue" d="M421.232,-108C434.891,-108 449.406,-108 463.092,-108"/>
<polygon fill="midnightblue" stroke="midnightblue" points="463.369,-111.5 473.369,-108 463.369,-104.5 463.369,-111.5"/>
</g>
<!-- Node7 -->
<g id="node7" class="node"><title>Node7</title>
<g id="a_node7"><a xlink:href="namespaceitm2stm.html#aa9908b113027ae21130750939980ee0b" target="_top" xlink:title="itm2stm::offset_of">
<polygon fill="none" stroke="black" points="477,-60.5 477,-79.5 573,-79.5 573,-60.5 477,-60.5"/>
<text text-anchor="middle" x="525" y="-67.5" font-family="Helvetica,sans-Serif" font-size="10.00">itm2stm::offset_of</text>
</a>
</g>
</g>
<!-- Node4&#45;&gt;Node7 -->
<g id="edge6" class="edge"><title>Node4&#45;&gt;Node7</title>
<path fill="none" stroke="midnightblue" d="M421.232,-93.9582C438.205,-90.0013 456.501,-85.7359 472.885,-81.9163"/>
<polygon fill="midnightblue" stroke="midnightblue" points="473.866,-85.2815 482.811,-79.6024 472.277,-78.4643 473.866,-85.2815"/>
</g>
<!-- Node8&#45;&gt;Node2 -->
<g id="edge9" class="edge"><title>Node8&#45;&gt;Node2</title>
<path fill="none" stroke="midnightblue" d="M244.174,-33.5639C263.246,-37.7887 285.852,-42.7963 305.941,-47.2464"/>
<polygon fill="midnightblue" stroke="midnightblue" points="305.358,-50.702 315.878,-49.4477 306.872,-43.8677 305.358,-50.702"/>
</g>
<!-- Node9 -->
<g id="node9" class="node"><title>Node9</title>
<g id="a_node9"><a xlink:href="classstm_1_1WriteSet.html#a7fc8315912c0e2155d182b7c76616e3a" target="_top" xlink:title="stm::WriteSet::doubleIndex\lLength">
<polygon fill="none" stroke="black" points="292,-0 292,-30 428,-30 428,-0 292,-0"/>
<text text-anchor="start" x="300" y="-18" font-family="Helvetica,sans-Serif" font-size="10.00">stm::WriteSet::doubleIndex</text>
<text text-anchor="middle" x="360" y="-7" font-family="Helvetica,sans-Serif" font-size="10.00">Length</text>
</a>
</g>
</g>
<!-- Node8&#45;&gt;Node9 -->
<g id="edge8" class="edge"><title>Node8&#45;&gt;Node9</title>
<path fill="none" stroke="midnightblue" d="M256.261,-20.8522C264.512,-20.3822 273.144,-19.8906 281.748,-19.4004"/>
<polygon fill="midnightblue" stroke="midnightblue" points="282.026,-22.8903 291.811,-18.8272 281.628,-15.9017 282.026,-22.8903"/>
</g>
</g>
</svg>
