<?xml version="1.0" encoding="UTF-8" standalone="no"?>
<!DOCTYPE svg PUBLIC "-//W3C//DTD SVG 1.1//EN"
 "http://www.w3.org/Graphics/SVG/1.1/DTD/svg11.dtd">
<!-- Generated by graphviz version 2.36.0 (20140111.2315)
 -->
<!-- Title: ScopedTimer::ScopedTimer Pages: 1 -->
<svg width="388pt" height="66pt"
 viewBox="0.00 0.00 388.00 66.00" xmlns="http://www.w3.org/2000/svg" xmlns:xlink="http://www.w3.org/1999/xlink">
<g id="graph0" class="graph" transform="scale(1 1) rotate(0) translate(4 62)">
<title>ScopedTimer::ScopedTimer</title>
<!-- Node1 -->
<g id="node1" class="node"><title>Node1</title>
<polygon fill="#bfbfbf" stroke="black" points="0,-19.5 0,-38.5 138,-38.5 138,-19.5 0,-19.5"/>
<text text-anchor="middle" x="69" y="-26.5" font-family="Helvetica,sans-Serif" font-size="10.00">ScopedTimer::ScopedTimer</text>
</g>
<!-- Node2 -->
<g id="node2" class="node"><title>Node2</title>
<g id="a_node2"><a xlink:href="classTimer.html#a4e607b129b392c11adddd9641a320436" target="_top" xlink:title="Timer::Start">
<polygon fill="none" stroke="black" points="174,-19.5 174,-38.5 242,-38.5 242,-19.5 174,-19.5"/>
<text text-anchor="middle" x="208" y="-26.5" font-family="Helvetica,sans-Serif" font-size="10.00">Timer::Start</text>
</a>
</g>
</g>
<!-- Node1&#45;&gt;Node2 -->
<g id="edge1" class="edge"><title>Node1&#45;&gt;Node2</title>
<path fill="none" stroke="midnightblue" d="M138.099,-29C146.881,-29 155.673,-29 163.895,-29"/>
<polygon fill="midnightblue" stroke="midnightblue" points="163.963,-32.5001 173.963,-29 163.963,-25.5001 163.963,-32.5001"/>
</g>
<!-- Node3 -->
<g id="node3" class="node"><title>Node3</title>
<g id="a_node3"><a xlink:href="classTime.html#ad5144f12e23805225735ab695f38f069" target="_top" xlink:title="Time::GetCpuTime">
<polygon fill="none" stroke="black" points="279,-38.5 279,-57.5 379,-57.5 379,-38.5 279,-38.5"/>
<text text-anchor="middle" x="329" y="-45.5" font-family="Helvetica,sans-Serif" font-size="10.00">Time::GetCpuTime</text>
</a>
</g>
</g>
<!-- Node2&#45;&gt;Node3 -->
<g id="edge2" class="edge"><title>Node2&#45;&gt;Node3</title>
<path fill="none" stroke="midnightblue" d="M242.148,-34.2926C250.343,-35.6009 259.373,-37.0427 268.406,-38.485"/>
<polygon fill="midnightblue" stroke="midnightblue" points="268.135,-41.986 278.562,-40.1065 269.239,-35.0735 268.135,-41.986"/>
</g>
<!-- Node4 -->
<g id="node4" class="node"><title>Node4</title>
<g id="a_node4"><a xlink:href="classTime.html#a508ab252117d5c378fcc33d0644d56d0" target="_top" xlink:title="Time::GetWallTime">
<polygon fill="none" stroke="black" points="278.5,-0.5 278.5,-19.5 379.5,-19.5 379.5,-0.5 278.5,-0.5"/>
<text text-anchor="middle" x="329" y="-7.5" font-family="Helvetica,sans-Serif" font-size="10.00">Time::GetWallTime</text>
</a>
</g>
</g>
<!-- Node2&#45;&gt;Node4 -->
<g id="edge3" class="edge"><title>Node2&#45;&gt;Node4</title>
<path fill="none" stroke="midnightblue" d="M242.148,-23.7074C250.243,-22.415 259.153,-20.9924 268.076,-19.5677"/>
<polygon fill="midnightblue" stroke="midnightblue" points="268.789,-22.9982 278.112,-17.9652 267.686,-16.0858 268.789,-22.9982"/>
</g>
</g>
</svg>
