<?xml version="1.0" encoding="UTF-8" standalone="no"?>
<!DOCTYPE svg PUBLIC "-//W3C//DTD SVG 1.1//EN"
 "http://www.w3.org/Graphics/SVG/1.1/DTD/svg11.dtd">
<!-- Generated by graphviz version 2.36.0 (20140111.2315)
 -->
<!-- Title: stm::WriteSet Pages: 1 -->
<svg width="277pt" height="442pt"
 viewBox="0.00 0.00 277.00 442.00" xmlns="http://www.w3.org/2000/svg" xmlns:xlink="http://www.w3.org/1999/xlink">
<g id="graph0" class="graph" transform="scale(1 1) rotate(0) translate(4 438)">
<title>stm::WriteSet</title>
<!-- Node1 -->
<g id="node1" class="node"><title>Node1</title>
<polygon fill="#bfbfbf" stroke="black" points="60,-0.5 60,-211.5 170,-211.5 170,-0.5 60,-0.5"/>
<text text-anchor="middle" x="115" y="-199.5" font-family="Helvetica,sans-Serif" font-size="10.00">stm::WriteSet</text>
<polyline fill="none" stroke="black" points="60,-192.5 170,-192.5 "/>
<text text-anchor="middle" x="115" y="-180.5" font-family="Helvetica,sans-Serif" font-size="10.00"> </text>
<polyline fill="none" stroke="black" points="60,-173.5 170,-173.5 "/>
<text text-anchor="start" x="68" y="-161.5" font-family="Helvetica,sans-Serif" font-size="10.00">+ WriteSet()</text>
<text text-anchor="start" x="68" y="-150.5" font-family="Helvetica,sans-Serif" font-size="10.00">+ ~WriteSet()</text>
<text text-anchor="start" x="68" y="-139.5" font-family="Helvetica,sans-Serif" font-size="10.00">+ find()</text>
<text text-anchor="start" x="68" y="-128.5" font-family="Helvetica,sans-Serif" font-size="10.00">+ rollback()</text>
<text text-anchor="start" x="68" y="-117.5" font-family="Helvetica,sans-Serif" font-size="10.00">+ writeback()</text>
<text text-anchor="start" x="68" y="-106.5" font-family="Helvetica,sans-Serif" font-size="10.00">+ insert()</text>
<text text-anchor="start" x="68" y="-95.5" font-family="Helvetica,sans-Serif" font-size="10.00">+ size()</text>
<text text-anchor="start" x="68" y="-84.5" font-family="Helvetica,sans-Serif" font-size="10.00">+ reset()</text>
<text text-anchor="start" x="68" y="-73.5" font-family="Helvetica,sans-Serif" font-size="10.00">+ begin()</text>
<text text-anchor="start" x="68" y="-62.5" font-family="Helvetica,sans-Serif" font-size="10.00">+ end()</text>
<text text-anchor="start" x="68" y="-51.5" font-family="Helvetica,sans-Serif" font-size="10.00">&#45; hash()</text>
<text text-anchor="start" x="68" y="-40.5" font-family="Helvetica,sans-Serif" font-size="10.00">&#45; doubleIndexLength()</text>
<text text-anchor="start" x="68" y="-29.5" font-family="Helvetica,sans-Serif" font-size="10.00">&#45; rebuild()</text>
<text text-anchor="start" x="68" y="-18.5" font-family="Helvetica,sans-Serif" font-size="10.00">&#45; resize()</text>
<text text-anchor="start" x="68" y="-7.5" font-family="Helvetica,sans-Serif" font-size="10.00">&#45; reset_internal()</text>
</g>
<!-- Node2 -->
<g id="node2" class="node"><title>Node2</title>
<g id="a_node2"><a xlink:href="structstm_1_1WriteSet_1_1index__t.html" target="_top" xlink:title="{stm::WriteSet::index_t\n||+ index_t()\l}">
<polygon fill="none" stroke="black" points="57.5,-260.5 57.5,-317.5 172.5,-317.5 172.5,-260.5 57.5,-260.5"/>
<text text-anchor="middle" x="115" y="-305.5" font-family="Helvetica,sans-Serif" font-size="10.00">stm::WriteSet::index_t</text>
<polyline fill="none" stroke="black" points="57.5,-298.5 172.5,-298.5 "/>
<text text-anchor="middle" x="115" y="-286.5" font-family="Helvetica,sans-Serif" font-size="10.00"> </text>
<polyline fill="none" stroke="black" points="57.5,-279.5 172.5,-279.5 "/>
<text text-anchor="start" x="65.5" y="-267.5" font-family="Helvetica,sans-Serif" font-size="10.00">+ index_t()</text>
</a>
</g>
</g>
<!-- Node2&#45;&gt;Node1 -->
<g id="edge1" class="edge"><title>Node2&#45;&gt;Node1</title>
<path fill="none" stroke="#404040" d="M115,-260.115C115,-249.685 115,-237.077 115,-223.628"/>
<polygon fill="none" stroke="#404040" points="115,-223.625 111,-217.625 115,-211.625 119,-217.625 115,-223.625"/>
<text text-anchor="middle" x="130" y="-233.5" font-family="Helvetica,sans-Serif" font-size="10.00"> &#45;index</text>
</g>
<!-- Node3 -->
<g id="node3" class="node"><title>Node3</title>
<polygon fill="none" stroke="#bfbfbf" points="-0.5,-376.5 -0.5,-433.5 42.5,-433.5 42.5,-376.5 -0.5,-376.5"/>
<text text-anchor="middle" x="21" y="-421.5" font-family="Helvetica,sans-Serif" font-size="10.00">size_t</text>
<polyline fill="none" stroke="#bfbfbf" points="-0.5,-414.5 42.5,-414.5 "/>
<text text-anchor="middle" x="21" y="-402.5" font-family="Helvetica,sans-Serif" font-size="10.00"> </text>
<polyline fill="none" stroke="#bfbfbf" points="-0.5,-395.5 42.5,-395.5 "/>
<text text-anchor="middle" x="21" y="-383.5" font-family="Helvetica,sans-Serif" font-size="10.00"> </text>
</g>
<!-- Node3&#45;&gt;Node1 -->
<g id="edge5" class="edge"><title>Node3&#45;&gt;Node1</title>
<path fill="none" stroke="#404040" d="M12.2328,-376.246C4.3392,-346.734 -4.29232,-299.026 8,-260 17.2863,-230.518 34.5016,-201.77 52.4501,-177.3"/>
<polygon fill="none" stroke="#404040" points="52.6633,-177.017 53.0846,-169.819 59.8917,-167.439 59.4704,-174.638 52.6633,-177.017"/>
<text text-anchor="middle" x="28" y="-308.5" font-family="Helvetica,sans-Serif" font-size="10.00"> &#45;shift</text>
<text text-anchor="middle" x="28" y="-297.5" font-family="Helvetica,sans-Serif" font-size="10.00">&#45;capacity</text>
<text text-anchor="middle" x="28" y="-286.5" font-family="Helvetica,sans-Serif" font-size="10.00">&#45;version</text>
<text text-anchor="middle" x="28" y="-275.5" font-family="Helvetica,sans-Serif" font-size="10.00">&#45;ilength</text>
<text text-anchor="middle" x="28" y="-264.5" font-family="Helvetica,sans-Serif" font-size="10.00">&#45;lsize</text>
</g>
<!-- Node3&#45;&gt;Node2 -->
<g id="edge2" class="edge"><title>Node3&#45;&gt;Node2</title>
<path fill="none" stroke="#404040" d="M41.2171,-376.441C50.6315,-363.904 62.132,-348.997 73,-336 75.4973,-333.013 78.1228,-329.957 80.7911,-326.91"/>
<polygon fill="none" stroke="#404040" points="80.8578,-326.835 81.8611,-319.694 88.8387,-317.873 87.8354,-325.014 80.8578,-326.835"/>
<text text-anchor="middle" x="92" y="-350" font-family="Helvetica,sans-Serif" font-size="10.00"> +index</text>
<text text-anchor="middle" x="92" y="-339" font-family="Helvetica,sans-Serif" font-size="10.00">+version</text>
</g>
<!-- Node4 -->
<g id="node4" class="node"><title>Node4</title>
<polygon fill="none" stroke="#bfbfbf" points="94.5,-376.5 94.5,-433.5 135.5,-433.5 135.5,-376.5 94.5,-376.5"/>
<text text-anchor="middle" x="115" y="-421.5" font-family="Helvetica,sans-Serif" font-size="10.00">void *</text>
<polyline fill="none" stroke="#bfbfbf" points="94.5,-414.5 135.5,-414.5 "/>
<text text-anchor="middle" x="115" y="-402.5" font-family="Helvetica,sans-Serif" font-size="10.00"> </text>
<polyline fill="none" stroke="#bfbfbf" points="94.5,-395.5 135.5,-395.5 "/>
<text text-anchor="middle" x="115" y="-383.5" font-family="Helvetica,sans-Serif" font-size="10.00"> </text>
</g>
<!-- Node4&#45;&gt;Node2 -->
<g id="edge3" class="edge"><title>Node4&#45;&gt;Node2</title>
<path fill="none" stroke="#404040" d="M115,-376.404C115,-362.504 115,-345.392 115,-330.073"/>
<polygon fill="none" stroke="#404040" points="115,-329.737 111,-323.737 115,-317.737 119,-323.737 115,-329.737"/>
<text text-anchor="middle" x="137" y="-344.5" font-family="Helvetica,sans-Serif" font-size="10.00"> +address</text>
</g>
<!-- Node5 -->
<g id="node5" class="node"><title>Node5</title>
<polygon fill="none" stroke="#bfbfbf" points="191,-260.5 191,-317.5 269,-317.5 269,-260.5 191,-260.5"/>
<text text-anchor="middle" x="230" y="-305.5" font-family="Helvetica,sans-Serif" font-size="10.00">WriteSetEntry</text>
<polyline fill="none" stroke="#bfbfbf" points="191,-298.5 269,-298.5 "/>
<text text-anchor="middle" x="230" y="-286.5" font-family="Helvetica,sans-Serif" font-size="10.00"> </text>
<polyline fill="none" stroke="#bfbfbf" points="191,-279.5 269,-279.5 "/>
<text text-anchor="middle" x="230" y="-267.5" font-family="Helvetica,sans-Serif" font-size="10.00"> </text>
</g>
<!-- Node5&#45;&gt;Node1 -->
<g id="edge4" class="edge"><title>Node5&#45;&gt;Node1</title>
<path fill="none" stroke="#404040" d="M212.283,-260.115C202.483,-244.691 189.659,-224.506 176.552,-203.878"/>
<polygon fill="none" stroke="#404040" points="176.543,-203.863 169.949,-200.944 170.107,-193.734 176.701,-196.653 176.543,-203.863"/>
<text text-anchor="middle" x="209.5" y="-233.5" font-family="Helvetica,sans-Serif" font-size="10.00"> &#45;list</text>
</g>
</g>
</svg>
