<?xml version="1.0" encoding="UTF-8" standalone="no"?>
<!DOCTYPE svg PUBLIC "-//W3C//DTD SVG 1.1//EN"
 "http://www.w3.org/Graphics/SVG/1.1/DTD/svg11.dtd">
<!-- Generated by graphviz version 2.36.0 (20140111.2315)
 -->
<!-- Title: SetAdaptor&lt; stm_skip &gt;::SetAdaptor Pages: 1 -->
<!--zoomable 351 -->
<svg id="main" version="1.1" xmlns="http://www.w3.org/2000/svg" xmlns:xlink="http://www.w3.org/1999/xlink" xml:space="preserve" onload="init(evt)">
<style type="text/css"><![CDATA[
.edge:hover path { stroke: red; }
.edge:hover polygon { stroke: red; fill: red; }
]]></style>
<script type="text/javascript"><![CDATA[
var edges = document.getElementsByTagName('g');
if (edges && edges.length) {
  for (var i=0;i<edges.length;i++) {
    if (edges[i].id.substr(0,4)=='edge') {
      edges[i].setAttribute('class','edge');
    }
  }
}
]]></script>
        <defs>
                <circle id="rim" cx="0" cy="0" r="7"/>
                <circle id="rim2" cx="0" cy="0" r="3.5"/>
                <g id="zoomPlus">
                        <use xlink:href="#rim" fill="#404040">
                                <set attributeName="fill" to="#808080" begin="zoomplus.mouseover" end="zoomplus.mouseout"/>
                        </use>
                        <path d="M-4,0h8M0,-4v8" fill="none" stroke="white" stroke-width="1.5" pointer-events="none"/>
                </g>
                <g id="zoomMin">
                        <use xlink:href="#rim" fill="#404040">
                                <set attributeName="fill" to="#808080" begin="zoomminus.mouseover" end="zoomminus.mouseout"/>
                        </use>
                        <path d="M-4,0h8" fill="none" stroke="white" stroke-width="1.5" pointer-events="none"/>
                </g>
                <g id="dirArrow">
                        <path fill="none" stroke="white" stroke-width="1.5" d="M0,-3.0v7 M-2.5,-0.5L0,-3.0L2.5,-0.5"/>
                </g>
               <g id="resetDef">
                       <use xlink:href="#rim2" fill="#404040">
                               <set attributeName="fill" to="#808080" begin="reset.mouseover" end="reset.mouseout"/>
                       </use>
               </g>
        </defs>

<script type="text/javascript">
var viewWidth = 1882;
var viewHeight = 351;
var sectionId = 'dynsection-1';
</script>
<script xlink:href="svgpan.js"/>
<svg id="graph" class="graph">
<g id="viewport">
<title>SetAdaptor&lt; stm_skip &gt;::SetAdaptor</title>
<!-- Node1 -->
<g id="node1" class="node"><title>Node1</title>
<polygon fill="#bfbfbf" stroke="black" points="0,-90 0,-120 114,-120 114,-90 0,-90"/>
<text text-anchor="start" x="8" y="-108" font-family="Helvetica,sans-Serif" font-size="10.00">SetAdaptor&lt; stm_skip</text>
<text text-anchor="middle" x="57" y="-97" font-family="Helvetica,sans-Serif" font-size="10.00"> &gt;::SetAdaptor</text>
</g>
<!-- Node2 -->
<g id="node2" class="node"><title>Node2</title>
<g id="a_node2"><a xlink:href="stmskip_8cc.html#aedbfc8f18bee8e611ee20d17feb55f98" target="_top" xlink:title="init_stmskip_subsystem">
<polygon fill="none" stroke="black" points="150,-152.5 150,-171.5 272,-171.5 272,-152.5 150,-152.5"/>
<text text-anchor="middle" x="211" y="-159.5" font-family="Helvetica,sans-Serif" font-size="10.00">init_stmskip_subsystem</text>
</a>
</g>
</g>
<!-- Node1&#45;&gt;Node2 -->
<g id="edge1" class="edge"><title>Node1&#45;&gt;Node2</title>
<path fill="none" stroke="midnightblue" d="M98.3341,-120.125C122.084,-129.032 151.844,-140.192 174.668,-148.75"/>
<polygon fill="midnightblue" stroke="midnightblue" points="173.71,-152.129 184.303,-152.363 176.168,-145.575 173.71,-152.129"/>
</g>
<!-- Node31 -->
<g id="node31" class="node"><title>Node31</title>
<g id="a_node31"><a xlink:href="stmskip_8cc.html#a84ed803790c8d8d139a5381c95143ded" target="_top" xlink:title="stmskip_alloc">
<polygon fill="none" stroke="black" points="472.5,-38.5 472.5,-57.5 549.5,-57.5 549.5,-38.5 472.5,-38.5"/>
<text text-anchor="middle" x="511" y="-45.5" font-family="Helvetica,sans-Serif" font-size="10.00">stmskip_alloc</text>
</a>
</g>
</g>
<!-- Node1&#45;&gt;Node31 -->
<g id="edge44" class="edge"><title>Node1&#45;&gt;Node31</title>
<path fill="none" stroke="midnightblue" d="M114.072,-97.3868C164.722,-90.5603 241.321,-80.3616 308,-72 360.817,-65.3767 421.464,-58.2329 462.411,-53.4776"/>
<polygon fill="midnightblue" stroke="midnightblue" points="462.85,-56.9502 472.38,-52.3218 462.044,-49.9968 462.85,-56.9502"/>
</g>
<!-- Node3 -->
<g id="node3" class="node"><title>Node3</title>
<g id="a_node3"><a xlink:href="ptst_8c.html#a1871243b5465e5a17a02e631887ef9c2" target="_top" xlink:title="fr_init_ptst_subsystem">
<polygon fill="none" stroke="black" points="308,-323.5 308,-342.5 424,-342.5 424,-323.5 308,-323.5"/>
<text text-anchor="middle" x="366" y="-330.5" font-family="Helvetica,sans-Serif" font-size="10.00">fr_init_ptst_subsystem</text>
</a>
</g>
</g>
<!-- Node2&#45;&gt;Node3 -->
<g id="edge2" class="edge"><title>Node2&#45;&gt;Node3</title>
<path fill="none" stroke="midnightblue" d="M215.88,-171.652C226.688,-197.413 259.555,-268.575 308,-309 312.648,-312.878 318.012,-316.212 323.553,-319.054"/>
<polygon fill="midnightblue" stroke="midnightblue" points="322.401,-322.376 332.949,-323.379 325.329,-316.018 322.401,-322.376"/>
</g>
<!-- Node5 -->
<g id="node5" class="node"><title>Node5</title>
<g id="a_node5"><a xlink:href="gc_8c.html#adf9d2cd51bda8cedc0279dfc15c822ea" target="_top" xlink:title="fr_init_gc_subsystem">
<polygon fill="none" stroke="black" points="1626,-247.5 1626,-266.5 1736,-266.5 1736,-247.5 1626,-247.5"/>
<text text-anchor="middle" x="1681" y="-254.5" font-family="Helvetica,sans-Serif" font-size="10.00">fr_init_gc_subsystem</text>
</a>
</g>
</g>
<!-- Node2&#45;&gt;Node5 -->
<g id="edge4" class="edge"><title>Node2&#45;&gt;Node5</title>
<path fill="none" stroke="midnightblue" d="M223.641,-171.565C261.978,-202.061 388.758,-295 510,-295 510,-295 510,-295 1411,-295 1487.21,-295 1574.39,-279.861 1628.32,-268.694"/>
<polygon fill="midnightblue" stroke="midnightblue" points="1629.26,-272.073 1638.32,-266.589 1627.82,-265.223 1629.26,-272.073"/>
</g>
<!-- Node7 -->
<g id="node7" class="node"><title>Node7</title>
<g id="a_node7"><a xlink:href="ptst_8c.html#a9f490f3eb71074b856eb2206f97c6cb1" target="_top" xlink:title="fr_critical_enter">
<polygon fill="none" stroke="black" points="599.5,-76.5 599.5,-95.5 682.5,-95.5 682.5,-76.5 599.5,-76.5"/>
<text text-anchor="middle" x="641" y="-83.5" font-family="Helvetica,sans-Serif" font-size="10.00">fr_critical_enter</text>
</a>
</g>
</g>
<!-- Node2&#45;&gt;Node7 -->
<g id="edge6" class="edge"><title>Node2&#45;&gt;Node7</title>
<path fill="none" stroke="midnightblue" d="M234.475,-152.491C253.672,-144.747 282.196,-134.127 308,-128 406.057,-104.719 523.666,-93.7041 589.306,-89.0219"/>
<polygon fill="midnightblue" stroke="midnightblue" points="589.649,-92.5066 599.383,-88.3239 589.165,-85.5233 589.649,-92.5066"/>
</g>
<!-- Node16 -->
<g id="node16" class="node"><title>Node16</title>
<g id="a_node16"><a xlink:href="stm_8h.html#a7b76b85023f5a028abad5e822391f95a" target="_top" xlink:title="_init_stm_subsystem">
<polygon fill="none" stroke="black" points="311,-152.5 311,-171.5 421,-171.5 421,-152.5 311,-152.5"/>
<text text-anchor="middle" x="366" y="-159.5" font-family="Helvetica,sans-Serif" font-size="10.00">_init_stm_subsystem</text>
</a>
</g>
</g>
<!-- Node2&#45;&gt;Node16 -->
<g id="edge20" class="edge"><title>Node2&#45;&gt;Node16</title>
<path fill="none" stroke="midnightblue" d="M272.031,-162C281.376,-162 291.065,-162 300.504,-162"/>
<polygon fill="midnightblue" stroke="midnightblue" points="300.62,-165.5 310.62,-162 300.62,-158.5 300.62,-165.5"/>
</g>
<!-- Node29 -->
<g id="node29" class="node"><title>Node29</title>
<g id="a_node29"><a xlink:href="stmskip_8cc.html#a5db6833ad98c08797c5dffd75d264833" target="_top" xlink:title="fr_critical_exit">
<polygon fill="none" stroke="black" points="602.5,-114.5 602.5,-133.5 679.5,-133.5 679.5,-114.5 602.5,-114.5"/>
<text text-anchor="middle" x="641" y="-121.5" font-family="Helvetica,sans-Serif" font-size="10.00">fr_critical_exit</text>
</a>
</g>
</g>
<!-- Node2&#45;&gt;Node29 -->
<g id="edge43" class="edge"><title>Node2&#45;&gt;Node29</title>
<path fill="none" stroke="midnightblue" d="M253.852,-152.411C270.604,-148.916 290.134,-145.268 308,-143 408.504,-130.241 527.22,-126.046 591.957,-124.67"/>
<polygon fill="midnightblue" stroke="midnightblue" points="592.326,-128.163 602.254,-124.465 592.186,-121.165 592.326,-128.163"/>
</g>
<!-- Node30 -->
<g id="node30" class="node"><title>Node30</title>
<g id="a_node30"><a xlink:href="stm_8h.html#a949151d8bcac092e7cb4bd782059c194" target="_top" xlink:title="new_stm">
<polygon fill="none" stroke="black" points="338,-190.5 338,-209.5 394,-209.5 394,-190.5 338,-190.5"/>
<text text-anchor="middle" x="366" y="-197.5" font-family="Helvetica,sans-Serif" font-size="10.00">new_stm</text>
</a>
</g>
</g>
<!-- Node2&#45;&gt;Node30 -->
<g id="edge41" class="edge"><title>Node2&#45;&gt;Node30</title>
<path fill="none" stroke="midnightblue" d="M250.608,-171.589C274.359,-177.488 304.63,-185.006 328.065,-190.827"/>
<polygon fill="midnightblue" stroke="midnightblue" points="327.428,-194.275 337.977,-193.288 329.115,-187.481 327.428,-194.275"/>
</g>
<!-- Node4 -->
<g id="node4" class="node"><title>Node4</title>
<g id="a_node4"><a xlink:href="ptst_8c.html#a2236017553cfe5b386310bcc8b52927d" target="_top" xlink:title="ptst_destructor">
<polygon fill="none" stroke="black" points="470,-323.5 470,-342.5 552,-342.5 552,-323.5 470,-323.5"/>
<text text-anchor="middle" x="511" y="-330.5" font-family="Helvetica,sans-Serif" font-size="10.00">ptst_destructor</text>
</a>
</g>
</g>
<!-- Node3&#45;&gt;Node4 -->
<g id="edge3" class="edge"><title>Node3&#45;&gt;Node4</title>
<path fill="none" stroke="midnightblue" d="M424.34,-333C436,-333 448.183,-333 459.582,-333"/>
<polygon fill="midnightblue" stroke="midnightblue" points="459.792,-336.5 469.792,-333 459.792,-329.5 459.792,-336.5"/>
</g>
<!-- Node6 -->
<g id="node6" class="node"><title>Node6</title>
<g id="a_node6"><a xlink:href="gc_8c.html#ade31863985bdaa481ade142bdfb6d99f" target="_top" xlink:title="alloc_more_chunks">
<polygon fill="none" stroke="black" points="1772.5,-209.5 1772.5,-228.5 1873.5,-228.5 1873.5,-209.5 1772.5,-209.5"/>
<text text-anchor="middle" x="1823" y="-216.5" font-family="Helvetica,sans-Serif" font-size="10.00">alloc_more_chunks</text>
</a>
</g>
</g>
<!-- Node5&#45;&gt;Node6 -->
<g id="edge5" class="edge"><title>Node5&#45;&gt;Node6</title>
<path fill="none" stroke="midnightblue" d="M1717.33,-247.411C1735.4,-242.506 1757.6,-236.48 1776.89,-231.243"/>
<polygon fill="midnightblue" stroke="midnightblue" points="1777.95,-234.583 1786.68,-228.586 1776.12,-227.828 1777.95,-234.583"/>
</g>
<!-- Node8 -->
<g id="node8" class="node"><title>Node8</title>
<g id="a_node8"><a xlink:href="gc_8c.html#aa06f5acb271ed4c9afcc728f3ceae52f" target="_top" xlink:title="fr_gc_init">
<polygon fill="none" stroke="black" points="1254,-114.5 1254,-133.5 1310,-133.5 1310,-114.5 1254,-114.5"/>
<text text-anchor="middle" x="1282" y="-121.5" font-family="Helvetica,sans-Serif" font-size="10.00">fr_gc_init</text>
</a>
</g>
</g>
<!-- Node7&#45;&gt;Node8 -->
<g id="edge7" class="edge"><title>Node7&#45;&gt;Node8</title>
<path fill="none" stroke="midnightblue" d="M682.745,-91.3431C729.189,-96.9628 807.425,-105 875,-105 875,-105 875,-105 1009,-105 1092.92,-105 1191.06,-114.112 1243.47,-119.716"/>
<polygon fill="midnightblue" stroke="midnightblue" points="1243.31,-123.219 1253.63,-120.82 1244.07,-116.26 1243.31,-123.219"/>
</g>
<!-- Node14 -->
<g id="node14" class="node"><title>Node14</title>
<g id="a_node14"><a xlink:href="gc_8c.html#a1b011e952f943e62b80e39768305d3fb" target="_top" xlink:title="fr_gc_enter">
<polygon fill="none" stroke="black" points="726.5,-57.5 726.5,-76.5 791.5,-76.5 791.5,-57.5 726.5,-57.5"/>
<text text-anchor="middle" x="759" y="-64.5" font-family="Helvetica,sans-Serif" font-size="10.00">fr_gc_enter</text>
</a>
</g>
</g>
<!-- Node7&#45;&gt;Node14 -->
<g id="edge17" class="edge"><title>Node7&#45;&gt;Node14</title>
<path fill="none" stroke="midnightblue" d="M682.571,-79.3547C693.464,-77.5706 705.26,-75.6384 716.217,-73.8438"/>
<polygon fill="midnightblue" stroke="midnightblue" points="717.105,-77.245 726.408,-72.1746 715.974,-70.3371 717.105,-77.245"/>
</g>
<!-- Node9 -->
<g id="node9" class="node"><title>Node9</title>
<g id="a_node9"><a xlink:href="gc_8c.html#a2a6f41199ed37925df4cc7b9909dc0ed" target="_top" xlink:title="get_empty_chunks">
<polygon fill="none" stroke="black" points="1631.5,-171.5 1631.5,-190.5 1730.5,-190.5 1730.5,-171.5 1631.5,-171.5"/>
<text text-anchor="middle" x="1681" y="-178.5" font-family="Helvetica,sans-Serif" font-size="10.00">get_empty_chunks</text>
</a>
</g>
</g>
<!-- Node8&#45;&gt;Node9 -->
<g id="edge8" class="edge"><title>Node8&#45;&gt;Node9</title>
<path fill="none" stroke="midnightblue" d="M1310.01,-129.69C1349.42,-137.824 1425.06,-152.808 1490,-162 1533.8,-168.2 1583.57,-173.099 1621.18,-176.369"/>
<polygon fill="midnightblue" stroke="midnightblue" points="1621.19,-179.883 1631.45,-177.248 1621.79,-172.908 1621.19,-179.883"/>
</g>
<!-- Node11 -->
<g id="node11" class="node"><title>Node11</title>
<g id="a_node11"><a xlink:href="gc_8c.html#a6dffa65320ddab40d01f198433b3aeb6" target="_top" xlink:title="get_alloc_chunk">
<polygon fill="none" stroke="black" points="1366.5,-95.5 1366.5,-114.5 1453.5,-114.5 1453.5,-95.5 1366.5,-95.5"/>
<text text-anchor="middle" x="1410" y="-102.5" font-family="Helvetica,sans-Serif" font-size="10.00">get_alloc_chunk</text>
</a>
</g>
</g>
<!-- Node8&#45;&gt;Node11 -->
<g id="edge11" class="edge"><title>Node8&#45;&gt;Node11</title>
<path fill="none" stroke="midnightblue" d="M1310.03,-119.924C1323.44,-117.903 1340.11,-115.388 1355.93,-113.003"/>
<polygon fill="midnightblue" stroke="midnightblue" points="1356.79,-116.413 1366.15,-111.461 1355.74,-109.491 1356.79,-116.413"/>
</g>
<!-- Node13 -->
<g id="node13" class="node"><title>Node13</title>
<g id="a_node13"><a xlink:href="gc_8c.html#afb494e950c8c6b5661974748ae89b61e" target="_top" xlink:title="chunk_from_cache">
<polygon fill="none" stroke="black" points="1490.5,-209.5 1490.5,-228.5 1589.5,-228.5 1589.5,-209.5 1490.5,-209.5"/>
<text text-anchor="middle" x="1540" y="-216.5" font-family="Helvetica,sans-Serif" font-size="10.00">chunk_from_cache</text>
</a>
</g>
</g>
<!-- Node8&#45;&gt;Node13 -->
<g id="edge15" class="edge"><title>Node8&#45;&gt;Node13</title>
<path fill="none" stroke="midnightblue" d="M1306.53,-133.604C1323.1,-140.307 1345.84,-149.381 1366,-157 1412.45,-174.552 1466.36,-193.678 1501.5,-205.977"/>
<polygon fill="midnightblue" stroke="midnightblue" points="1500.73,-209.417 1511.33,-209.411 1503.04,-202.809 1500.73,-209.417"/>
</g>
<!-- Node9&#45;&gt;Node6 -->
<g id="edge10" class="edge"><title>Node9&#45;&gt;Node6</title>
<path fill="none" stroke="midnightblue" d="M1717.33,-190.589C1735.4,-195.494 1757.6,-201.52 1776.89,-206.757"/>
<polygon fill="midnightblue" stroke="midnightblue" points="1776.12,-210.172 1786.68,-209.414 1777.95,-203.417 1776.12,-210.172"/>
</g>
<!-- Node10 -->
<g id="node10" class="node"><title>Node10</title>
<g id="a_node10"><a xlink:href="gc_8c.html#ac360b80b93ad00f0fba18a1993e1d6a0" target="_top" xlink:title="add_chunks_to_list">
<polygon fill="none" stroke="black" points="1772.5,-76.5 1772.5,-95.5 1873.5,-95.5 1873.5,-76.5 1772.5,-76.5"/>
<text text-anchor="middle" x="1823" y="-83.5" font-family="Helvetica,sans-Serif" font-size="10.00">add_chunks_to_list</text>
</a>
</g>
</g>
<!-- Node9&#45;&gt;Node10 -->
<g id="edge9" class="edge"><title>Node9&#45;&gt;Node10</title>
<path fill="none" stroke="midnightblue" d="M1696.19,-171.368C1720.51,-154.867 1770.33,-121.064 1799.45,-101.304"/>
<polygon fill="midnightblue" stroke="midnightblue" points="1801.46,-104.169 1807.77,-95.6574 1797.53,-98.3763 1801.46,-104.169"/>
</g>
<!-- Node11&#45;&gt;Node10 -->
<g id="edge14" class="edge"><title>Node11&#45;&gt;Node10</title>
<path fill="none" stroke="midnightblue" d="M1453.82,-103.02C1527.44,-99.6172 1678.16,-92.6496 1762.13,-88.7675"/>
<polygon fill="midnightblue" stroke="midnightblue" points="1762.45,-92.2565 1772.28,-88.2984 1762.13,-85.264 1762.45,-92.2565"/>
</g>
<!-- Node12 -->
<g id="node12" class="node"><title>Node12</title>
<g id="a_node12"><a xlink:href="gc_8c.html#ae47e099483bed50da4e41b906c300b99" target="_top" xlink:title="get_filled_chunks">
<polygon fill="none" stroke="black" points="1494,-133.5 1494,-152.5 1586,-152.5 1586,-133.5 1494,-133.5"/>
<text text-anchor="middle" x="1540" y="-140.5" font-family="Helvetica,sans-Serif" font-size="10.00">get_filled_chunks</text>
</a>
</g>
</g>
<!-- Node11&#45;&gt;Node12 -->
<g id="edge12" class="edge"><title>Node11&#45;&gt;Node12</title>
<path fill="none" stroke="midnightblue" d="M1443.3,-114.589C1459.52,-119.404 1479.38,-125.299 1496.79,-130.468"/>
<polygon fill="midnightblue" stroke="midnightblue" points="1496.13,-133.923 1506.71,-133.414 1498.12,-127.213 1496.13,-133.923"/>
</g>
<!-- Node12&#45;&gt;Node9 -->
<g id="edge13" class="edge"><title>Node12&#45;&gt;Node9</title>
<path fill="none" stroke="midnightblue" d="M1576.08,-152.589C1594.02,-157.494 1616.06,-163.52 1635.22,-168.757"/>
<polygon fill="midnightblue" stroke="midnightblue" points="1634.37,-172.153 1644.94,-171.414 1636.21,-165.401 1634.37,-172.153"/>
</g>
<!-- Node13&#45;&gt;Node9 -->
<g id="edge16" class="edge"><title>Node13&#45;&gt;Node9</title>
<path fill="none" stroke="midnightblue" d="M1576.08,-209.411C1594.02,-204.506 1616.06,-198.48 1635.22,-193.243"/>
<polygon fill="midnightblue" stroke="midnightblue" points="1636.21,-196.599 1644.94,-190.586 1634.37,-189.847 1636.21,-196.599"/>
</g>
<!-- Node15 -->
<g id="node15" class="node"><title>Node15</title>
<g id="a_node15"><a xlink:href="gc_8c.html#a8c8094a35212fa8ed75ed9a4a38c7b9c" target="_top" xlink:title="gc_reclaim">
<polygon fill="none" stroke="black" points="844,-57.5 844,-76.5 908,-76.5 908,-57.5 844,-57.5"/>
<text text-anchor="middle" x="876" y="-64.5" font-family="Helvetica,sans-Serif" font-size="10.00">gc_reclaim</text>
</a>
</g>
</g>
<!-- Node14&#45;&gt;Node15 -->
<g id="edge18" class="edge"><title>Node14&#45;&gt;Node15</title>
<path fill="none" stroke="midnightblue" d="M791.729,-67C804.655,-67 819.773,-67 833.554,-67"/>
<polygon fill="midnightblue" stroke="midnightblue" points="833.773,-70.5001 843.773,-67 833.773,-63.5001 833.773,-70.5001"/>
</g>
<!-- Node15&#45;&gt;Node10 -->
<g id="edge19" class="edge"><title>Node15&#45;&gt;Node10</title>
<path fill="none" stroke="midnightblue" d="M908.181,-67C958.449,-67 1060.52,-67 1147,-67 1147,-67 1147,-67 1541,-67 1617.41,-67 1705.25,-74.0802 1762.08,-79.5964"/>
<polygon fill="midnightblue" stroke="midnightblue" points="1762.03,-83.1081 1772.32,-80.6062 1762.72,-76.1419 1762.03,-83.1081"/>
</g>
<!-- Node17 -->
<g id="node17" class="node"><title>Node17</title>
<g id="a_node17"><a xlink:href="gc_8c.html#a28811cf9cf00d0ff764ddab38590e9ef" target="_top" xlink:title="fr_gc_add_allocator">
<polygon fill="none" stroke="black" points="460.5,-190.5 460.5,-209.5 561.5,-209.5 561.5,-190.5 460.5,-190.5"/>
<text text-anchor="middle" x="511" y="-197.5" font-family="Helvetica,sans-Serif" font-size="10.00">fr_gc_add_allocator</text>
</a>
</g>
</g>
<!-- Node16&#45;&gt;Node17 -->
<g id="edge21" class="edge"><title>Node16&#45;&gt;Node17</title>
<path fill="none" stroke="midnightblue" d="M403.085,-171.589C421.63,-176.517 444.426,-182.575 464.199,-187.829"/>
<polygon fill="midnightblue" stroke="midnightblue" points="463.363,-191.228 473.927,-190.414 465.161,-184.463 463.363,-191.228"/>
</g>
<!-- Node18 -->
<g id="node18" class="node"><title>Node18</title>
<g id="a_node18"><a xlink:href="stm__fraser_8c.html#aa57c521c9ca8d9bfc271c7077c3ea3a0" target="_top" xlink:title="handle_fault">
<polygon fill="none" stroke="black" points="476.5,-152.5 476.5,-171.5 545.5,-171.5 545.5,-152.5 476.5,-152.5"/>
<text text-anchor="middle" x="511" y="-159.5" font-family="Helvetica,sans-Serif" font-size="10.00">handle_fault</text>
</a>
</g>
</g>
<!-- Node16&#45;&gt;Node18 -->
<g id="edge23" class="edge"><title>Node16&#45;&gt;Node18</title>
<path fill="none" stroke="midnightblue" d="M421.062,-162C435.955,-162 451.923,-162 466.16,-162"/>
<polygon fill="midnightblue" stroke="midnightblue" points="466.182,-165.5 476.182,-162 466.182,-158.5 466.182,-165.5"/>
</g>
<!-- Node17&#45;&gt;Node12 -->
<g id="edge22" class="edge"><title>Node17&#45;&gt;Node12</title>
<path fill="none" stroke="midnightblue" d="M536.357,-209.541C580.044,-225.767 674.924,-257 758,-257 758,-257 758,-257 1283,-257 1359.47,-257 1386.03,-273.024 1454,-238 1458.53,-235.668 1500.49,-187.571 1523.71,-160.73"/>
<polygon fill="midnightblue" stroke="midnightblue" points="1526.64,-162.702 1530.52,-152.847 1521.34,-158.126 1526.64,-162.702"/>
</g>
<!-- Node18&#45;&gt;Node7 -->
<g id="edge24" class="edge"><title>Node18&#45;&gt;Node7</title>
<path fill="none" stroke="midnightblue" d="M524.993,-152.432C541.484,-140.514 571.038,-119.908 598,-105 601.106,-103.283 604.396,-101.59 607.713,-99.9658"/>
<polygon fill="midnightblue" stroke="midnightblue" points="609.44,-103.021 617.003,-95.6022 606.464,-96.6856 609.44,-103.021"/>
</g>
<!-- Node19 -->
<g id="node19" class="node"><title>Node19</title>
<g id="a_node19"><a xlink:href="stm__fraser_8c.html#acd69585b95bbcac8c69333f4aaee4335" target="_top" xlink:title="validate_stm_tx">
<polygon fill="none" stroke="black" points="598,-190.5 598,-209.5 684,-209.5 684,-190.5 598,-190.5"/>
<text text-anchor="middle" x="641" y="-197.5" font-family="Helvetica,sans-Serif" font-size="10.00">validate_stm_tx</text>
</a>
</g>
</g>
<!-- Node18&#45;&gt;Node19 -->
<g id="edge25" class="edge"><title>Node18&#45;&gt;Node19</title>
<path fill="none" stroke="midnightblue" d="M544.3,-171.589C560.52,-176.404 580.375,-182.299 597.787,-187.468"/>
<polygon fill="midnightblue" stroke="midnightblue" points="597.128,-190.923 607.711,-190.414 599.12,-184.213 597.128,-190.923"/>
</g>
<!-- Node27 -->
<g id="node27" class="node"><title>Node27</title>
<g id="a_node27"><a xlink:href="stm__fraser_8c.html#a31ea9d61a84d817aac10ffbc4ba9f296" target="_top" xlink:title="commit_stm_tx">
<polygon fill="none" stroke="black" points="834,-133.5 834,-152.5 918,-152.5 918,-133.5 834,-133.5"/>
<text text-anchor="middle" x="876" y="-140.5" font-family="Helvetica,sans-Serif" font-size="10.00">commit_stm_tx</text>
</a>
</g>
</g>
<!-- Node18&#45;&gt;Node27 -->
<g id="edge39" class="edge"><title>Node18&#45;&gt;Node27</title>
<path fill="none" stroke="midnightblue" d="M545.824,-160.23C609.702,-156.886 748.42,-149.625 823.781,-145.681"/>
<polygon fill="midnightblue" stroke="midnightblue" points="824.176,-149.165 833.98,-145.147 823.81,-142.175 824.176,-149.165"/>
</g>
<!-- Node18&#45;&gt;Node29 -->
<g id="edge40" class="edge"><title>Node18&#45;&gt;Node29</title>
<path fill="none" stroke="midnightblue" d="M544.3,-152.411C560.52,-147.596 580.375,-141.701 597.787,-136.532"/>
<polygon fill="midnightblue" stroke="midnightblue" points="599.12,-139.787 607.711,-133.586 597.128,-133.077 599.12,-139.787"/>
</g>
<!-- Node20 -->
<g id="node20" class="node"><title>Node20</title>
<g id="a_node20"><a xlink:href="stm__fraser_8c.html#a4e016a575dac2ee3931ef9ec94550d33" target="_top" xlink:title="read_blk_data">
<polygon fill="none" stroke="black" points="720.5,-190.5 720.5,-209.5 797.5,-209.5 797.5,-190.5 720.5,-190.5"/>
<text text-anchor="middle" x="759" y="-197.5" font-family="Helvetica,sans-Serif" font-size="10.00">read_blk_data</text>
</a>
</g>
</g>
<!-- Node19&#45;&gt;Node20 -->
<g id="edge26" class="edge"><title>Node19&#45;&gt;Node20</title>
<path fill="none" stroke="midnightblue" d="M684.207,-200C692.589,-200 701.447,-200 710.005,-200"/>
<polygon fill="midnightblue" stroke="midnightblue" points="710.244,-203.5 720.244,-200 710.244,-196.5 710.244,-203.5"/>
</g>
<!-- Node21 -->
<g id="node21" class="node"><title>Node21</title>
<g id="a_node21"><a xlink:href="stm__fraser_8c.html#a3baf54f8c2c6bdb79109865e5500cbd9" target="_top" xlink:title="rc_up_descriptor">
<polygon fill="none" stroke="black" points="963.5,-209.5 963.5,-228.5 1052.5,-228.5 1052.5,-209.5 963.5,-209.5"/>
<text text-anchor="middle" x="1008" y="-216.5" font-family="Helvetica,sans-Serif" font-size="10.00">rc_up_descriptor</text>
</a>
</g>
</g>
<!-- Node20&#45;&gt;Node21 -->
<g id="edge27" class="edge"><title>Node20&#45;&gt;Node21</title>
<path fill="none" stroke="midnightblue" d="M797.514,-202.886C839.005,-206.077 906.201,-211.246 953.272,-214.867"/>
<polygon fill="midnightblue" stroke="midnightblue" points="953.051,-218.36 963.29,-215.638 953.588,-211.381 953.051,-218.36"/>
</g>
<!-- Node23 -->
<g id="node23" class="node"><title>Node23</title>
<g id="a_node23"><a xlink:href="stm__fraser_8c.html#ad41e28910c7dbe8cfd98c9e0c168c9dc" target="_top" xlink:title="rc_down_descriptor">
<polygon fill="none" stroke="black" points="957.5,-171.5 957.5,-190.5 1058.5,-190.5 1058.5,-171.5 957.5,-171.5"/>
<text text-anchor="middle" x="1008" y="-178.5" font-family="Helvetica,sans-Serif" font-size="10.00">rc_down_descriptor</text>
</a>
</g>
</g>
<!-- Node20&#45;&gt;Node23 -->
<g id="edge29" class="edge"><title>Node20&#45;&gt;Node23</title>
<path fill="none" stroke="midnightblue" d="M797.514,-197.114C837.245,-194.058 900.546,-189.189 947.176,-185.602"/>
<polygon fill="midnightblue" stroke="midnightblue" points="947.453,-189.091 957.155,-184.834 946.916,-182.112 947.453,-189.091"/>
</g>
<!-- Node20&#45;&gt;Node27 -->
<g id="edge35" class="edge"><title>Node20&#45;&gt;Node27</title>
<path fill="none" stroke="midnightblue" d="M779.248,-190.459C797.657,-181.335 825.64,-167.466 846.608,-157.073"/>
<polygon fill="midnightblue" stroke="midnightblue" points="848.283,-160.149 855.689,-152.572 845.175,-153.877 848.283,-160.149"/>
</g>
<!-- Node22 -->
<g id="node22" class="node"><title>Node22</title>
<g id="a_node22"><a xlink:href="stm__fraser_8c.html#a1a59f05201730ec9ba9a348070073e57" target="_top" xlink:title="rc_delta_descriptor">
<polygon fill="none" stroke="black" points="1098.5,-209.5 1098.5,-228.5 1197.5,-228.5 1197.5,-209.5 1098.5,-209.5"/>
<text text-anchor="middle" x="1148" y="-216.5" font-family="Helvetica,sans-Serif" font-size="10.00">rc_delta_descriptor</text>
</a>
</g>
</g>
<!-- Node21&#45;&gt;Node22 -->
<g id="edge28" class="edge"><title>Node21&#45;&gt;Node22</title>
<path fill="none" stroke="midnightblue" d="M1052.66,-219C1063.9,-219 1076.18,-219 1088.05,-219"/>
<polygon fill="midnightblue" stroke="midnightblue" points="1088.35,-222.5 1098.35,-219 1088.35,-215.5 1088.35,-222.5"/>
</g>
<!-- Node24 -->
<g id="node24" class="node"><title>Node24</title>
<g id="a_node24"><a xlink:href="stm__fraser_8c.html#afd1a951db8c0f79e6bf20624e7dca338" target="_top" xlink:title="release_descriptor">
<polygon fill="none" stroke="black" points="1100,-171.5 1100,-190.5 1196,-190.5 1196,-171.5 1100,-171.5"/>
<text text-anchor="middle" x="1148" y="-178.5" font-family="Helvetica,sans-Serif" font-size="10.00">release_descriptor</text>
</a>
</g>
</g>
<!-- Node23&#45;&gt;Node24 -->
<g id="edge30" class="edge"><title>Node23&#45;&gt;Node24</title>
<path fill="none" stroke="midnightblue" d="M1058.82,-181C1068.78,-181 1079.32,-181 1089.51,-181"/>
<polygon fill="midnightblue" stroke="midnightblue" points="1089.56,-184.5 1099.56,-181 1089.56,-177.5 1089.56,-184.5"/>
</g>
<!-- Node25 -->
<g id="node25" class="node"><title>Node25</title>
<g id="a_node25"><a xlink:href="gc_8c.html#a80f4a5c119aa70ab0452a73dfac21bbd" target="_top" xlink:title="fr_gc_free">
<polygon fill="none" stroke="black" points="1380,-209.5 1380,-228.5 1440,-228.5 1440,-209.5 1380,-209.5"/>
<text text-anchor="middle" x="1410" y="-216.5" font-family="Helvetica,sans-Serif" font-size="10.00">fr_gc_free</text>
</a>
</g>
</g>
<!-- Node24&#45;&gt;Node25 -->
<g id="edge31" class="edge"><title>Node24&#45;&gt;Node25</title>
<path fill="none" stroke="midnightblue" d="M1196.11,-184.239C1232.78,-187.171 1284.85,-192.235 1330,-200 1343.16,-202.264 1357.4,-205.452 1370.11,-208.572"/>
<polygon fill="midnightblue" stroke="midnightblue" points="1369.38,-211.996 1379.93,-211.04 1371.08,-205.207 1369.38,-211.996"/>
</g>
<!-- Node26 -->
<g id="node26" class="node"><title>Node26</title>
<g id="a_node26"><a xlink:href="gc_8c.html#a1e1a80c2d04496b5b70bd86b59510355" target="_top" xlink:title="fr_gc_unsafe_free">
<polygon fill="none" stroke="black" points="1234.5,-209.5 1234.5,-228.5 1329.5,-228.5 1329.5,-209.5 1234.5,-209.5"/>
<text text-anchor="middle" x="1282" y="-216.5" font-family="Helvetica,sans-Serif" font-size="10.00">fr_gc_unsafe_free</text>
</a>
</g>
</g>
<!-- Node24&#45;&gt;Node26 -->
<g id="edge33" class="edge"><title>Node24&#45;&gt;Node26</title>
<path fill="none" stroke="midnightblue" d="M1182.31,-190.589C1199.19,-195.449 1219.89,-201.409 1237.97,-206.613"/>
<polygon fill="midnightblue" stroke="midnightblue" points="1237.12,-210.011 1247.7,-209.414 1239.06,-203.284 1237.12,-210.011"/>
</g>
<!-- Node25&#45;&gt;Node13 -->
<g id="edge32" class="edge"><title>Node25&#45;&gt;Node13</title>
<path fill="none" stroke="midnightblue" d="M1440.05,-219C1452.03,-219 1466.39,-219 1480.39,-219"/>
<polygon fill="midnightblue" stroke="midnightblue" points="1480.49,-222.5 1490.49,-219 1480.49,-215.5 1480.49,-222.5"/>
</g>
<!-- Node26&#45;&gt;Node25 -->
<g id="edge34" class="edge"><title>Node26&#45;&gt;Node25</title>
<path fill="none" stroke="midnightblue" d="M1329.56,-219C1342.7,-219 1356.87,-219 1369.56,-219"/>
<polygon fill="midnightblue" stroke="midnightblue" points="1369.81,-222.5 1379.81,-219 1369.81,-215.5 1369.81,-222.5"/>
</g>
<!-- Node27&#45;&gt;Node21 -->
<g id="edge36" class="edge"><title>Node27&#45;&gt;Node21</title>
<path fill="none" stroke="midnightblue" d="M887.783,-152.6C902.076,-164.93 928.475,-186.361 954,-200 957.783,-202.021 961.825,-203.908 965.928,-205.646"/>
<polygon fill="midnightblue" stroke="midnightblue" points="964.929,-209.014 975.516,-209.428 967.498,-202.503 964.929,-209.014"/>
</g>
<!-- Node27&#45;&gt;Node23 -->
<g id="edge37" class="edge"><title>Node27&#45;&gt;Node23</title>
<path fill="none" stroke="midnightblue" d="M909.804,-152.589C926.278,-157.404 946.443,-163.299 964.127,-168.468"/>
<polygon fill="midnightblue" stroke="midnightblue" points="963.626,-171.968 974.206,-171.414 965.59,-165.249 963.626,-171.968"/>
</g>
<!-- Node28 -->
<g id="node28" class="node"><title>Node28</title>
<g id="a_node28"><a xlink:href="stm__fraser_8c.html#aca0d40200c3502bdabeb44b27dfd4105" target="_top" xlink:title="search_stm_tx_entry">
<polygon fill="none" stroke="black" points="954,-133.5 954,-152.5 1062,-152.5 1062,-133.5 954,-133.5"/>
<text text-anchor="middle" x="1008" y="-140.5" font-family="Helvetica,sans-Serif" font-size="10.00">search_stm_tx_entry</text>
</a>
</g>
</g>
<!-- Node27&#45;&gt;Node28 -->
<g id="edge38" class="edge"><title>Node27&#45;&gt;Node28</title>
<path fill="none" stroke="midnightblue" d="M918.133,-143C926.26,-143 934.964,-143 943.63,-143"/>
<polygon fill="midnightblue" stroke="midnightblue" points="943.749,-146.5 953.749,-143 943.749,-139.5 943.749,-146.5"/>
</g>
<!-- Node30&#45;&gt;Node17 -->
<g id="edge42" class="edge"><title>Node30&#45;&gt;Node17</title>
<path fill="none" stroke="midnightblue" d="M394.234,-200C410.105,-200 430.775,-200 450.248,-200"/>
<polygon fill="midnightblue" stroke="midnightblue" points="450.291,-203.5 460.291,-200 450.291,-196.5 450.291,-203.5"/>
</g>
<!-- Node31&#45;&gt;Node7 -->
<g id="edge45" class="edge"><title>Node31&#45;&gt;Node7</title>
<path fill="none" stroke="midnightblue" d="M544.3,-57.589C560.52,-62.4044 580.375,-68.2988 597.787,-73.468"/>
<polygon fill="midnightblue" stroke="midnightblue" points="597.128,-76.9233 607.711,-76.4141 599.12,-70.2127 597.128,-76.9233"/>
</g>
<!-- Node31&#45;&gt;Node29 -->
<g id="edge51" class="edge"><title>Node31&#45;&gt;Node29</title>
<path fill="none" stroke="midnightblue" d="M524.993,-57.5684C541.484,-69.4861 571.038,-90.0924 598,-105 601.106,-106.717 604.396,-108.41 607.713,-110.034"/>
<polygon fill="midnightblue" stroke="midnightblue" points="606.464,-113.314 617.003,-114.398 609.44,-106.979 606.464,-113.314"/>
</g>
<!-- Node32 -->
<g id="node32" class="node"><title>Node32</title>
<g id="a_node32"><a xlink:href="stm_8h.html#a7f41614dded09613f4ccd7578ef188ba" target="_top" xlink:title="new_stm_blk">
<polygon fill="none" stroke="black" points="722,-19.5 722,-38.5 796,-38.5 796,-19.5 722,-19.5"/>
<text text-anchor="middle" x="759" y="-26.5" font-family="Helvetica,sans-Serif" font-size="10.00">new_stm_blk</text>
</a>
</g>
</g>
<!-- Node31&#45;&gt;Node32 -->
<g id="edge46" class="edge"><title>Node31&#45;&gt;Node32</title>
<path fill="none" stroke="midnightblue" d="M549.63,-45.0936C593.175,-41.7304 664.889,-36.1915 711.785,-32.5695"/>
<polygon fill="midnightblue" stroke="midnightblue" points="712.276,-36.0421 721.976,-31.7823 711.736,-29.0629 712.276,-36.0421"/>
</g>
<!-- Node34 -->
<g id="node34" class="node"><title>Node34</title>
<g id="a_node34"><a xlink:href="stm_8h.html#a2c77806bb0511fb17494d226b5ea20d8" target="_top" xlink:title="init_stm_blk">
<polygon fill="none" stroke="black" points="606.5,-0.5 606.5,-19.5 675.5,-19.5 675.5,-0.5 606.5,-0.5"/>
<text text-anchor="middle" x="641" y="-7.5" font-family="Helvetica,sans-Serif" font-size="10.00">init_stm_blk</text>
</a>
</g>
</g>
<!-- Node31&#45;&gt;Node34 -->
<g id="edge50" class="edge"><title>Node31&#45;&gt;Node34</title>
<path fill="none" stroke="midnightblue" d="M544.3,-38.411C560.52,-33.5956 580.375,-27.7012 597.787,-22.532"/>
<polygon fill="midnightblue" stroke="midnightblue" points="599.12,-25.7873 607.711,-19.5859 597.128,-19.0767 599.12,-25.7873"/>
</g>
<!-- Node33 -->
<g id="node33" class="node"><title>Node33</title>
<g id="a_node33"><a xlink:href="gc_8c.html#a5c5981457deeeefd60df569f6265f59c" target="_top" xlink:title="fr_gc_alloc">
<polygon fill="none" stroke="black" points="1250,-19.5 1250,-38.5 1314,-38.5 1314,-19.5 1250,-19.5"/>
<text text-anchor="middle" x="1282" y="-26.5" font-family="Helvetica,sans-Serif" font-size="10.00">fr_gc_alloc</text>
</a>
</g>
</g>
<!-- Node32&#45;&gt;Node33 -->
<g id="edge47" class="edge"><title>Node32&#45;&gt;Node33</title>
<path fill="none" stroke="midnightblue" d="M796.222,-29C889.958,-29 1140.09,-29 1239.46,-29"/>
<polygon fill="midnightblue" stroke="midnightblue" points="1239.71,-32.5001 1249.71,-29 1239.71,-25.5001 1239.71,-32.5001"/>
</g>
<!-- Node33&#45;&gt;Node10 -->
<g id="edge48" class="edge"><title>Node33&#45;&gt;Node10</title>
<path fill="none" stroke="midnightblue" d="M1314.19,-27.3333C1388.31,-24.0885 1580.4,-19.8892 1736,-53 1755.56,-57.1621 1776.53,-65.1318 1792.87,-72.1963"/>
<polygon fill="midnightblue" stroke="midnightblue" points="1791.83,-75.5645 1802.39,-76.4359 1794.67,-69.17 1791.83,-75.5645"/>
</g>
<!-- Node33&#45;&gt;Node11 -->
<g id="edge49" class="edge"><title>Node33&#45;&gt;Node11</title>
<path fill="none" stroke="midnightblue" d="M1298.96,-38.6255C1320.54,-51.6454 1359.25,-74.9907 1384.52,-90.2364"/>
<polygon fill="midnightblue" stroke="midnightblue" points="1382.8,-93.2847 1393.17,-95.4527 1386.42,-87.2907 1382.8,-93.2847"/>
</g>
</g>
</svg>
        <g id="navigator" transform="translate(0 0)" fill="#404254">
                <rect fill="#f2f5e9" fill-opacity="0.5" stroke="#606060" stroke-width=".5" x="0" y="0" width="60" height="60"/>
                <use id="zoomplus" xlink:href="#zoomPlus" x="17" y="9" onmousedown="handleZoom(evt,'in')"/>
                <use id="zoomminus" xlink:href="#zoomMin" x="42" y="9" onmousedown="handleZoom(evt,'out')"/>
                <use id="reset" xlink:href="#resetDef" x="30" y="36" onmousedown="handleReset()"/>
                <g id="arrowUp" xlink:href="#dirArrow" transform="translate(30 24)" onmousedown="handlePan(0,-1)">
                  <use xlink:href="#rim" fill="#404040">
                        <set attributeName="fill" to="#808080" begin="arrowUp.mouseover" end="arrowUp.mouseout"/>
                  </use>
                  <path fill="none" stroke="white" stroke-width="1.5" d="M0,-3.0v7 M-2.5,-0.5L0,-3.0L2.5,-0.5"/>
                </g>
                <g id="arrowRight" xlink:href="#dirArrow" transform="rotate(90) translate(36 -43)" onmousedown="handlePan(1,0)">
                  <use xlink:href="#rim" fill="#404040">
                        <set attributeName="fill" to="#808080" begin="arrowRight.mouseover" end="arrowRight.mouseout"/>
                  </use>
                  <path fill="none" stroke="white" stroke-width="1.5" d="M0,-3.0v7 M-2.5,-0.5L0,-3.0L2.5,-0.5"/>
                </g>
                <g id="arrowDown" xlink:href="#dirArrow" transform="rotate(180) translate(-30 -48)" onmousedown="handlePan(0,1)">
                  <use xlink:href="#rim" fill="#404040">
                        <set attributeName="fill" to="#808080" begin="arrowDown.mouseover" end="arrowDown.mouseout"/>
                  </use>
                  <path fill="none" stroke="white" stroke-width="1.5" d="M0,-3.0v7 M-2.5,-0.5L0,-3.0L2.5,-0.5"/>
                </g>
                <g id="arrowLeft" xlink:href="#dirArrow" transform="rotate(270) translate(-36 17)" onmousedown="handlePan(-1,0)">
                  <use xlink:href="#rim" fill="#404040">
                        <set attributeName="fill" to="#808080" begin="arrowLeft.mouseover" end="arrowLeft.mouseout"/>
                  </use>
                  <path fill="none" stroke="white" stroke-width="1.5" d="M0,-3.0v7 M-2.5,-0.5L0,-3.0L2.5,-0.5"/>
                </g>
        </g>
        <svg viewBox="0 0 15 15" width="100%" height="30px" preserveAspectRatio="xMaxYMin meet">
         <g id="arrow_out" transform="scale(0.3 0.3)">
          <a xlink:href="classSetAdaptor_3_01stm__skip_01_4_acfb0c3f8dd7da801bdafb4ff1de8ba3e_cgraph_org.svg" target="_base">
           <rect id="button" ry="5" rx="5" y="6" x="6" height="38" width="38"
                fill="#f2f5e9" fill-opacity="0.5" stroke="#606060" stroke-width="1.0"/>
           <path id="arrow"
             d="M 11.500037,31.436501 C 11.940474,20.09759 22.043105,11.32322 32.158766,21.979434 L 37.068811,17.246167 C 37.068811,17.246167 37.088388,32 37.088388,32 L 22.160133,31.978069 C 22.160133,31.978069 26.997745,27.140456 26.997745,27.140456 C 18.528582,18.264221 13.291696,25.230495 11.500037,31.436501 z"
             style="fill:#404040;"/>
          </a>
         </g>
        </svg>
</svg>
