<?xml version="1.0" encoding="UTF-8" standalone="no"?>
<!DOCTYPE svg PUBLIC "-//W3C//DTD SVG 1.1//EN"
 "http://www.w3.org/Graphics/SVG/1.1/DTD/svg11.dtd">
<!-- Generated by graphviz version 2.36.0 (20140111.2315)
 -->
<!-- Title: TransList::Delete Pages: 1 -->
<svg width="540pt" height="124pt"
 viewBox="0.00 0.00 540.00 123.69" xmlns="http://www.w3.org/2000/svg" xmlns:xlink="http://www.w3.org/1999/xlink">
<g id="graph0" class="graph" transform="scale(1 1) rotate(0) translate(4 119.693)">
<title>TransList::Delete</title>
<!-- Node1 -->
<g id="node1" class="node"><title>Node1</title>
<polygon fill="#bfbfbf" stroke="black" points="0,-19.5 0,-38.5 92,-38.5 92,-19.5 0,-19.5"/>
<text text-anchor="middle" x="46" y="-26.5" font-family="Helvetica,sans-Serif" font-size="10.00">TransList::Delete</text>
</g>
<!-- Node2 -->
<g id="node2" class="node"><title>Node2</title>
<g id="a_node2"><a xlink:href="classTransList.html#aa7e67c5ff8aeadc6d1d7791a297a58c4" target="_top" xlink:title="TransList::HelpOps">
<polygon fill="none" stroke="black" points="128.5,-38.5 128.5,-57.5 229.5,-57.5 229.5,-38.5 128.5,-38.5"/>
<text text-anchor="middle" x="179" y="-45.5" font-family="Helvetica,sans-Serif" font-size="10.00">TransList::HelpOps</text>
</a>
</g>
</g>
<!-- Node1&#45;&gt;Node2 -->
<g id="edge1" class="edge"><title>Node1&#45;&gt;Node2</title>
<path fill="none" stroke="midnightblue" d="M102.14,-36.9974C110.838,-38.2589 119.786,-39.5567 128.349,-40.7987"/>
<polygon fill="midnightblue" stroke="midnightblue" points="102.482,-33.5104 92.0828,-35.5387 101.477,-40.4379 102.482,-33.5104"/>
</g>
<!-- Node3 -->
<g id="node3" class="node"><title>Node3</title>
<g id="a_node3"><a xlink:href="classTransList.html#abe5853275ff6befa6ccd7ab0e84b4dce" target="_top" xlink:title="TransList::ExecuteOps">
<polygon fill="none" stroke="black" points="278.5,-76.5 278.5,-95.5 395.5,-95.5 395.5,-76.5 278.5,-76.5"/>
<text text-anchor="middle" x="337" y="-83.5" font-family="Helvetica,sans-Serif" font-size="10.00">TransList::ExecuteOps</text>
</a>
</g>
</g>
<!-- Node2&#45;&gt;Node3 -->
<g id="edge2" class="edge"><title>Node2&#45;&gt;Node3</title>
<path fill="none" stroke="midnightblue" d="M229.132,-59.968C250.993,-65.2931 276.376,-71.4762 296.918,-76.4799"/>
<polygon fill="midnightblue" stroke="midnightblue" points="229.91,-56.5552 219.365,-57.589 228.253,-63.3563 229.91,-56.5552"/>
</g>
<!-- Node4 -->
<g id="node4" class="node"><title>Node4</title>
<g id="a_node4"><a xlink:href="classTransList.html#a7ed667a308f2f7422dde28c7fe40cdc7" target="_top" xlink:title="TransList::FinishPendingTxn">
<polygon fill="none" stroke="black" points="266.5,-0.5 266.5,-19.5 407.5,-19.5 407.5,-0.5 266.5,-0.5"/>
<text text-anchor="middle" x="337" y="-7.5" font-family="Helvetica,sans-Serif" font-size="10.00">TransList::FinishPendingTxn</text>
</a>
</g>
</g>
<!-- Node2&#45;&gt;Node4 -->
<g id="edge3" class="edge"><title>Node2&#45;&gt;Node4</title>
<path fill="none" stroke="midnightblue" d="M229.132,-36.032C250.993,-30.7069 276.376,-24.5238 296.918,-19.5201"/>
<polygon fill="midnightblue" stroke="midnightblue" points="228.253,-32.6437 219.365,-38.411 229.91,-39.4448 228.253,-32.6437"/>
</g>
<!-- Node4&#45;&gt;Node1 -->
<g id="edge6" class="edge"><title>Node4&#45;&gt;Node1</title>
<path fill="none" stroke="midnightblue" d="M256.379,-15.2346C203.504,-18.7108 136.004,-23.1486 92.1562,-26.0312"/>
<polygon fill="midnightblue" stroke="midnightblue" points="256.661,-18.7237 266.41,-14.5752 256.201,-11.7388 256.661,-18.7237"/>
</g>
<!-- Node5 -->
<g id="node5" class="node"><title>Node5</title>
<g id="a_node5"><a xlink:href="classTransList.html#a5ace06b8defeb2501a9607fc8fdec5f0" target="_top" xlink:title="TransList::Insert">
<polygon fill="none" stroke="black" points="444,-85.5 444,-104.5 532,-104.5 532,-85.5 444,-85.5"/>
<text text-anchor="middle" x="488" y="-92.5" font-family="Helvetica,sans-Serif" font-size="10.00">TransList::Insert</text>
</a>
</g>
</g>
<!-- Node4&#45;&gt;Node5 -->
<g id="edge4" class="edge"><title>Node4&#45;&gt;Node5</title>
<path fill="none" stroke="midnightblue" d="M363.574,-24.5895C394.016,-41.9552 443.994,-70.4661 470.03,-85.3193"/>
<polygon fill="midnightblue" stroke="midnightblue" points="365.223,-21.5004 354.803,-19.5854 361.754,-27.5806 365.223,-21.5004"/>
</g>
<!-- Node6 -->
<g id="node6" class="node"><title>Node6</title>
<g id="a_node6"><a xlink:href="classTransList.html#ab75389528ee7e0773ac0fe9c00351670" target="_top" xlink:title="TransList::Find">
<polygon fill="none" stroke="black" points="447,-19.5 447,-38.5 529,-38.5 529,-19.5 447,-19.5"/>
<text text-anchor="middle" x="488" y="-26.5" font-family="Helvetica,sans-Serif" font-size="10.00">TransList::Find</text>
</a>
</g>
</g>
<!-- Node4&#45;&gt;Node6 -->
<g id="edge7" class="edge"><title>Node4&#45;&gt;Node6</title>
<path fill="none" stroke="midnightblue" d="M417.711,-20.1644C427.705,-21.4389 437.574,-22.6973 446.592,-23.8474"/>
<polygon fill="midnightblue" stroke="midnightblue" points="418.064,-16.6812 407.701,-18.8881 417.178,-23.625 418.064,-16.6812"/>
</g>
<!-- Node5&#45;&gt;Node2 -->
<g id="edge5" class="edge"><title>Node5&#45;&gt;Node2</title>
<path fill="none" stroke="midnightblue" d="M437.379,-106.495C391.809,-114.905 322.924,-122.152 266,-105 235.129,-95.6982 205.153,-71.2972 190.076,-57.6288"/>
<polygon fill="midnightblue" stroke="midnightblue" points="438.149,-109.911 447.303,-104.577 436.82,-103.038 438.149,-109.911"/>
</g>
<!-- Node6&#45;&gt;Node2 -->
<g id="edge8" class="edge"><title>Node6&#45;&gt;Node2</title>
<path fill="none" stroke="midnightblue" d="M436.456,-32.1281C379.216,-35.6707 286.54,-41.4063 229.666,-44.9262"/>
<polygon fill="midnightblue" stroke="midnightblue" points="436.95,-35.6043 446.715,-31.4932 436.518,-28.6177 436.95,-35.6043"/>
</g>
</g>
</svg>
