<?xml version="1.0" encoding="UTF-8" standalone="no"?>
<!DOCTYPE svg PUBLIC "-//W3C//DTD SVG 1.1//EN"
 "http://www.w3.org/Graphics/SVG/1.1/DTD/svg11.dtd">
<!-- Generated by graphviz version 2.36.0 (20140111.2315)
 -->
<!-- Title: sequential_queue::enqueue Pages: 1 -->
<svg width="364pt" height="28pt"
 viewBox="0.00 0.00 364.00 28.00" xmlns="http://www.w3.org/2000/svg" xmlns:xlink="http://www.w3.org/1999/xlink">
<g id="graph0" class="graph" transform="scale(1 1) rotate(0) translate(4 24)">
<title>sequential_queue::enqueue</title>
<!-- Node1 -->
<g id="node1" class="node"><title>Node1</title>
<polygon fill="#bfbfbf" stroke="black" points="0.5,-0.5 0.5,-19.5 135.5,-19.5 135.5,-0.5 0.5,-0.5"/>
<text text-anchor="middle" x="68" y="-7.5" font-family="Helvetica,sans-Serif" font-size="10.00">sequential_queue::enqueue</text>
</g>
<!-- Node2 -->
<g id="node2" class="node"><title>Node2</title>
<g id="a_node2"><a xlink:href="worker_8cpp.html#a4d3d5d6b1446463eca81bdd1106ef943" target="_top" xlink:title="do_work">
<polygon fill="none" stroke="black" points="172.5,-0.5 172.5,-19.5 225.5,-19.5 225.5,-0.5 172.5,-0.5"/>
<text text-anchor="middle" x="199" y="-7.5" font-family="Helvetica,sans-Serif" font-size="10.00">do_work</text>
</a>
</g>
</g>
<!-- Node1&#45;&gt;Node2 -->
<g id="edge1" class="edge"><title>Node1&#45;&gt;Node2</title>
<path fill="none" stroke="midnightblue" d="M145.786,-10C155.307,-10 164.457,-10 172.364,-10"/>
<polygon fill="midnightblue" stroke="midnightblue" points="145.767,-6.5001 135.767,-10 145.767,-13.5001 145.767,-6.5001"/>
</g>
<!-- Node3 -->
<g id="node3" class="node"><title>Node3</title>
<g id="a_node3"><a xlink:href="classworker.html#a7b7d6866de64fc583693899b65cb12bc" target="_top" xlink:title="worker::operator()">
<polygon fill="none" stroke="black" points="262.5,-0.5 262.5,-19.5 355.5,-19.5 355.5,-0.5 262.5,-0.5"/>
<text text-anchor="middle" x="309" y="-7.5" font-family="Helvetica,sans-Serif" font-size="10.00">worker::operator()</text>
</a>
</g>
</g>
<!-- Node2&#45;&gt;Node3 -->
<g id="edge2" class="edge"><title>Node2&#45;&gt;Node3</title>
<path fill="none" stroke="midnightblue" d="M235.596,-10C244.134,-10 253.37,-10 262.296,-10"/>
<polygon fill="midnightblue" stroke="midnightblue" points="235.595,-6.5001 225.594,-10 235.594,-13.5001 235.595,-6.5001"/>
</g>
</g>
</svg>
