<?xml version="1.0" encoding="UTF-8" standalone="no"?>
<!DOCTYPE svg PUBLIC "-//W3C//DTD SVG 1.1//EN"
 "http://www.w3.org/Graphics/SVG/1.1/DTD/svg11.dtd">
<!-- Generated by graphviz version 2.36.0 (20140111.2315)
 -->
<!-- Title: edge::edge Pages: 1 -->
<svg width="544pt" height="47pt"
 viewBox="0.00 0.00 544.00 47.00" xmlns="http://www.w3.org/2000/svg" xmlns:xlink="http://www.w3.org/1999/xlink">
<g id="graph0" class="graph" transform="scale(1 1) rotate(0) translate(4 43)">
<title>edge::edge</title>
<!-- Node1 -->
<g id="node1" class="node"><title>Node1</title>
<polygon fill="#bfbfbf" stroke="black" points="0.5,-0.5 0.5,-19.5 65.5,-19.5 65.5,-0.5 0.5,-0.5"/>
<text text-anchor="middle" x="33" y="-7.5" font-family="Helvetica,sans-Serif" font-size="10.00">edge::edge</text>
</g>
<!-- Node2 -->
<g id="node2" class="node"><title>Node2</title>
<g id="a_node2"><a xlink:href="classedge.html#aad0f6a205dbe62d5f1bc564cb66cd9e8" target="_top" xlink:title="edge::reconsider">
<polygon fill="none" stroke="black" points="102.5,-0.5 102.5,-19.5 191.5,-19.5 191.5,-0.5 102.5,-0.5"/>
<text text-anchor="middle" x="147" y="-7.5" font-family="Helvetica,sans-Serif" font-size="10.00">edge::reconsider</text>
</a>
</g>
</g>
<!-- Node1&#45;&gt;Node2 -->
<g id="edge1" class="edge"><title>Node1&#45;&gt;Node2</title>
<path fill="none" stroke="midnightblue" d="M76.0199,-10C84.6436,-10 93.7399,-10 102.417,-10"/>
<polygon fill="midnightblue" stroke="midnightblue" points="75.7952,-6.5001 65.7951,-10 75.7951,-13.5001 75.7952,-6.5001"/>
</g>
<!-- Node3 -->
<g id="node3" class="node"><title>Node3</title>
<g id="a_node3"><a xlink:href="worker_8cpp.html#aaaf358d95d261241cf6073eaf7de2a94" target="_top" xlink:title="reconsider_edge">
<polygon fill="none" stroke="black" points="228,-19.5 228,-38.5 316,-38.5 316,-19.5 228,-19.5"/>
<text text-anchor="middle" x="272" y="-26.5" font-family="Helvetica,sans-Serif" font-size="10.00">reconsider_edge</text>
</a>
</g>
</g>
<!-- Node2&#45;&gt;Node3 -->
<g id="edge2" class="edge"><title>Node2&#45;&gt;Node3</title>
<path fill="none" stroke="midnightblue" d="M201.798,-18.3102C210.508,-19.6557 219.428,-21.0335 227.843,-22.3335"/>
<polygon fill="midnightblue" stroke="midnightblue" points="202.129,-14.8199 191.712,-16.7522 201.06,-21.7379 202.129,-14.8199"/>
</g>
<!-- Node4 -->
<g id="node4" class="node"><title>Node4</title>
<g id="a_node4"><a xlink:href="worker_8cpp.html#a4d3d5d6b1446463eca81bdd1106ef943" target="_top" xlink:title="do_work">
<polygon fill="none" stroke="black" points="352.5,-0.5 352.5,-19.5 405.5,-19.5 405.5,-0.5 352.5,-0.5"/>
<text text-anchor="middle" x="379" y="-7.5" font-family="Helvetica,sans-Serif" font-size="10.00">do_work</text>
</a>
</g>
</g>
<!-- Node2&#45;&gt;Node4 -->
<g id="edge5" class="edge"><title>Node2&#45;&gt;Node4</title>
<path fill="none" stroke="midnightblue" d="M201.638,-10C249.089,-10 316.25,-10 352.469,-10"/>
<polygon fill="midnightblue" stroke="midnightblue" points="201.532,-6.5001 191.532,-10 201.532,-13.5001 201.532,-6.5001"/>
</g>
<!-- Node3&#45;&gt;Node4 -->
<g id="edge3" class="edge"><title>Node3&#45;&gt;Node4</title>
<path fill="none" stroke="midnightblue" d="M325.949,-19.4188C335.15,-17.7537 344.334,-16.092 352.368,-14.6382"/>
<polygon fill="midnightblue" stroke="midnightblue" points="325.227,-15.9924 316.01,-21.2172 326.474,-22.8805 325.227,-15.9924"/>
</g>
<!-- Node5 -->
<g id="node5" class="node"><title>Node5</title>
<g id="a_node5"><a xlink:href="classworker.html#a7b7d6866de64fc583693899b65cb12bc" target="_top" xlink:title="worker::operator()">
<polygon fill="none" stroke="black" points="442.5,-0.5 442.5,-19.5 535.5,-19.5 535.5,-0.5 442.5,-0.5"/>
<text text-anchor="middle" x="489" y="-7.5" font-family="Helvetica,sans-Serif" font-size="10.00">worker::operator()</text>
</a>
</g>
</g>
<!-- Node4&#45;&gt;Node5 -->
<g id="edge4" class="edge"><title>Node4&#45;&gt;Node5</title>
<path fill="none" stroke="midnightblue" d="M415.596,-10C424.134,-10 433.37,-10 442.296,-10"/>
<polygon fill="midnightblue" stroke="midnightblue" points="415.595,-6.5001 405.594,-10 415.594,-13.5001 415.595,-6.5001"/>
</g>
</g>
</svg>
