<?xml version="1.0" encoding="UTF-8" standalone="no"?>
<!DOCTYPE svg PUBLIC "-//W3C//DTD SVG 1.1//EN"
 "http://www.w3.org/Graphics/SVG/1.1/DTD/svg11.dtd">
<!-- Generated by graphviz version 2.36.0 (20140111.2315)
 -->
<!-- Title: Surface Pages: 1 -->
<svg width="511pt" height="538pt"
 viewBox="0.00 0.00 511.00 538.00" xmlns="http://www.w3.org/2000/svg" xmlns:xlink="http://www.w3.org/1999/xlink">
<g id="graph0" class="graph" transform="scale(1 1) rotate(0) translate(4 534)">
<title>Surface</title>
<!-- Node1 -->
<g id="node1" class="node"><title>Node1</title>
<polygon fill="#bfbfbf" stroke="black" points="289.5,-118.5 289.5,-219.5 392.5,-219.5 392.5,-118.5 289.5,-118.5"/>
<text text-anchor="middle" x="341" y="-207.5" font-family="Helvetica,sans-Serif" font-size="10.00">Surface</text>
<polyline fill="none" stroke="black" points="289.5,-200.5 392.5,-200.5 "/>
<text text-anchor="middle" x="341" y="-188.5" font-family="Helvetica,sans-Serif" font-size="10.00"> </text>
<polyline fill="none" stroke="black" points="289.5,-181.5 392.5,-181.5 "/>
<text text-anchor="start" x="297.5" y="-169.5" font-family="Helvetica,sans-Serif" font-size="10.00">+ paintComponent()</text>
<text text-anchor="start" x="297.5" y="-158.5" font-family="Helvetica,sans-Serif" font-size="10.00">+ Surface()</text>
<text text-anchor="start" x="297.5" y="-147.5" font-family="Helvetica,sans-Serif" font-size="10.00">+ triangulate()</text>
<text text-anchor="start" x="297.5" y="-136.5" font-family="Helvetica,sans-Serif" font-size="10.00">&#45; xPosition()</text>
<text text-anchor="start" x="297.5" y="-125.5" font-family="Helvetica,sans-Serif" font-size="10.00">&#45; yPosition()</text>
</g>
<!-- Node4 -->
<g id="node4" class="node"><title>Node4</title>
<g id="a_node4"><a xlink:href="classUI.html" target="_top" xlink:title="{UI\n||+ updateTime()\l+ UI()\l}">
<polygon fill="none" stroke="black" points="186.5,-1 186.5,-69 269.5,-69 269.5,-1 186.5,-1"/>
<text text-anchor="middle" x="228" y="-57" font-family="Helvetica,sans-Serif" font-size="10.00">UI</text>
<polyline fill="none" stroke="black" points="186.5,-50 269.5,-50 "/>
<text text-anchor="middle" x="228" y="-38" font-family="Helvetica,sans-Serif" font-size="10.00"> </text>
<polyline fill="none" stroke="black" points="186.5,-31 269.5,-31 "/>
<text text-anchor="start" x="194.5" y="-19" font-family="Helvetica,sans-Serif" font-size="10.00">+ updateTime()</text>
<text text-anchor="start" x="194.5" y="-8" font-family="Helvetica,sans-Serif" font-size="10.00">+ UI()</text>
</a>
</g>
</g>
<!-- Node1&#45;&gt;Node4 -->
<g id="edge8" class="edge"><title>Node1&#45;&gt;Node4</title>
<path fill="none" stroke="#404040" d="M318.739,-118.415C312.807,-107.803 305.834,-97.0681 298,-88 292.547,-81.6886 286.199,-75.6853 279.594,-70.1499"/>
<polygon fill="none" stroke="#404040" points="279.212,-69.8468 272.025,-69.2548 269.807,-62.3932 276.994,-62.9851 279.212,-69.8468"/>
<text text-anchor="middle" x="313" y="-91.5" font-family="Helvetica,sans-Serif" font-size="10.00"> &#45;t</text>
</g>
<!-- Node2 -->
<g id="node2" class="node"><title>Node2</title>
<g id="a_node2"><a xlink:href="classJPanel.html" target="_top" xlink:title="{JPanel\n||}">
<polygon fill="none" stroke="black" points="-0.5,-355.5 -0.5,-412.5 46.5,-412.5 46.5,-355.5 -0.5,-355.5"/>
<text text-anchor="middle" x="23" y="-400.5" font-family="Helvetica,sans-Serif" font-size="10.00">JPanel</text>
<polyline fill="none" stroke="black" points="-0.5,-393.5 46.5,-393.5 "/>
<text text-anchor="middle" x="23" y="-381.5" font-family="Helvetica,sans-Serif" font-size="10.00"> </text>
<polyline fill="none" stroke="black" points="-0.5,-374.5 46.5,-374.5 "/>
<text text-anchor="middle" x="23" y="-362.5" font-family="Helvetica,sans-Serif" font-size="10.00"> </text>
</a>
</g>
</g>
<!-- Node2&#45;&gt;Node1 -->
<g id="edge1" class="edge"><title>Node2&#45;&gt;Node1</title>
<path fill="none" stroke="midnightblue" d="M43.6852,-346.467C65.1027,-312.35 101.882,-263.041 148,-238 200.034,-209.747 225.723,-243.66 280,-220 283.138,-218.632 286.245,-217.054 289.297,-215.321"/>
<polygon fill="none" stroke="midnightblue" points="40.5607,-344.867 38.3158,-355.221 46.5278,-348.527 40.5607,-344.867"/>
</g>
<!-- Node2&#45;&gt;Node4 -->
<g id="edge4" class="edge"><title>Node2&#45;&gt;Node4</title>
<path fill="none" stroke="midnightblue" d="M19.6218,-345.05C16.5573,-291.251 17.3353,-191.218 56,-118 81.1796,-70.318 144.025,-50.1124 186.363,-41.7245"/>
<polygon fill="none" stroke="midnightblue" points="16.1382,-345.418 20.2758,-355.171 23.1236,-344.967 16.1382,-345.418"/>
</g>
<!-- Node3 -->
<g id="node3" class="node"><title>Node3</title>
<polygon fill="none" stroke="#bfbfbf" points="296.5,-355.5 296.5,-412.5 381.5,-412.5 381.5,-355.5 296.5,-355.5"/>
<text text-anchor="middle" x="339" y="-400.5" font-family="Helvetica,sans-Serif" font-size="10.00">BufferedReader</text>
<polyline fill="none" stroke="#bfbfbf" points="296.5,-393.5 381.5,-393.5 "/>
<text text-anchor="middle" x="339" y="-381.5" font-family="Helvetica,sans-Serif" font-size="10.00"> </text>
<polyline fill="none" stroke="#bfbfbf" points="296.5,-374.5 381.5,-374.5 "/>
<text text-anchor="middle" x="339" y="-362.5" font-family="Helvetica,sans-Serif" font-size="10.00"> </text>
</g>
<!-- Node3&#45;&gt;Node1 -->
<g id="edge2" class="edge"><title>Node3&#45;&gt;Node1</title>
<path fill="none" stroke="#404040" d="M339.126,-355.472C339.274,-326.305 339.558,-278.906 340,-238 340.022,-235.971 340.045,-233.908 340.07,-231.824"/>
<polygon fill="none" stroke="#404040" points="340.071,-231.763 336.147,-225.713 340.223,-219.764 344.147,-225.815 340.071,-231.763"/>
<text text-anchor="middle" x="349.5" y="-279.5" font-family="Helvetica,sans-Serif" font-size="10.00"> &#45;inp</text>
</g>
<!-- Node4&#45;&gt;Node1 -->
<g id="edge3" class="edge"><title>Node4&#45;&gt;Node1</title>
<path fill="none" stroke="#404040" d="M256.569,-69.3731C266.918,-81.4619 278.937,-95.5018 290.605,-109.131"/>
<polygon fill="none" stroke="#404040" points="290.798,-109.357 297.738,-111.313 298.601,-118.473 291.661,-116.516 290.798,-109.357"/>
<text text-anchor="middle" x="288" y="-91.5" font-family="Helvetica,sans-Serif" font-size="10.00"> &#45;u</text>
</g>
<!-- Node5 -->
<g id="node5" class="node"><title>Node5</title>
<polygon fill="none" stroke="#bfbfbf" points="101,-140.5 101,-197.5 167,-197.5 167,-140.5 101,-140.5"/>
<text text-anchor="middle" x="134" y="-185.5" font-family="Helvetica,sans-Serif" font-size="10.00">final JLabel</text>
<polyline fill="none" stroke="#bfbfbf" points="101,-178.5 167,-178.5 "/>
<text text-anchor="middle" x="134" y="-166.5" font-family="Helvetica,sans-Serif" font-size="10.00"> </text>
<polyline fill="none" stroke="#bfbfbf" points="101,-159.5 167,-159.5 "/>
<text text-anchor="middle" x="134" y="-147.5" font-family="Helvetica,sans-Serif" font-size="10.00"> </text>
</g>
<!-- Node5&#45;&gt;Node4 -->
<g id="edge5" class="edge"><title>Node5&#45;&gt;Node4</title>
<path fill="none" stroke="#404040" d="M145.451,-140.442C152.752,-124.404 163.07,-104.217 175,-88 177.442,-84.6805 180.101,-81.3792 182.884,-78.1433"/>
<polygon fill="none" stroke="#404040" points="182.908,-78.116 183.984,-70.9856 190.98,-69.236 189.904,-76.3665 182.908,-78.116"/>
<text text-anchor="middle" x="199.5" y="-91.5" font-family="Helvetica,sans-Serif" font-size="10.00"> &#45;timeLabel</text>
</g>
<!-- Node6 -->
<g id="node6" class="node"><title>Node6</title>
<polygon fill="none" stroke="#bfbfbf" points="185,-140.5 185,-197.5 271,-197.5 271,-140.5 185,-140.5"/>
<text text-anchor="middle" x="228" y="-185.5" font-family="Helvetica,sans-Serif" font-size="10.00">final JRootPane</text>
<polyline fill="none" stroke="#bfbfbf" points="185,-178.5 271,-178.5 "/>
<text text-anchor="middle" x="228" y="-166.5" font-family="Helvetica,sans-Serif" font-size="10.00"> </text>
<polyline fill="none" stroke="#bfbfbf" points="185,-159.5 271,-159.5 "/>
<text text-anchor="middle" x="228" y="-147.5" font-family="Helvetica,sans-Serif" font-size="10.00"> </text>
</g>
<!-- Node6&#45;&gt;Node4 -->
<g id="edge6" class="edge"><title>Node6&#45;&gt;Node4</title>
<path fill="none" stroke="#404040" d="M228,-140.328C228,-123.256 228,-100.946 228,-81.3412"/>
<polygon fill="none" stroke="#404040" points="228,-81.2439 224,-75.244 228,-69.2439 232,-75.2439 228,-81.2439"/>
<text text-anchor="middle" x="239.5" y="-91.5" font-family="Helvetica,sans-Serif" font-size="10.00"> &#45;root</text>
</g>
<!-- Node7 -->
<g id="node7" class="node"><title>Node7</title>
<polygon fill="none" stroke="#bfbfbf" points="407.5,-355.5 407.5,-412.5 436.5,-412.5 436.5,-355.5 407.5,-355.5"/>
<text text-anchor="middle" x="422" y="-400.5" font-family="Helvetica,sans-Serif" font-size="10.00">int</text>
<polyline fill="none" stroke="#bfbfbf" points="407.5,-393.5 436.5,-393.5 "/>
<text text-anchor="middle" x="422" y="-381.5" font-family="Helvetica,sans-Serif" font-size="10.00"> </text>
<polyline fill="none" stroke="#bfbfbf" points="407.5,-374.5 436.5,-374.5 "/>
<text text-anchor="middle" x="422" y="-362.5" font-family="Helvetica,sans-Serif" font-size="10.00"> </text>
</g>
<!-- Node7&#45;&gt;Node1 -->
<g id="edge12" class="edge"><title>Node7&#45;&gt;Node1</title>
<path fill="none" stroke="#404040" d="M407.269,-365.532C398.817,-354.737 388.605,-340.261 382,-326 365.009,-289.319 369.283,-277.095 359,-238 358.442,-235.878 357.873,-233.719 357.299,-231.538"/>
<polygon fill="none" stroke="#404040" points="357.253,-231.363 351.854,-226.582 354.191,-219.76 359.589,-224.541 357.253,-231.363"/>
<text text-anchor="middle" x="399.5" y="-318" font-family="Helvetica,sans-Serif" font-size="10.00"> &#45;maxX</text>
<text text-anchor="middle" x="399.5" y="-307" font-family="Helvetica,sans-Serif" font-size="10.00">&#45;maxY</text>
<text text-anchor="middle" x="399.5" y="-296" font-family="Helvetica,sans-Serif" font-size="10.00">&#45;minX</text>
<text text-anchor="middle" x="399.5" y="-285" font-family="Helvetica,sans-Serif" font-size="10.00">&#45;minY</text>
<text text-anchor="middle" x="399.5" y="-274" font-family="Helvetica,sans-Serif" font-size="10.00">&#45;border</text>
<text text-anchor="middle" x="399.5" y="-263" font-family="Helvetica,sans-Serif" font-size="10.00">&#45;width</text>
<text text-anchor="middle" x="399.5" y="-252" font-family="Helvetica,sans-Serif" font-size="10.00">&#45;height</text>
<text text-anchor="middle" x="399.5" y="-241" font-family="Helvetica,sans-Serif" font-size="10.00">&#45;dotsize</text>
</g>
<!-- Node7&#45;&gt;Node4 -->
<g id="edge7" class="edge"><title>Node7&#45;&gt;Node4</title>
<path fill="none" stroke="#404040" d="M428.431,-355.421C438.853,-303.443 453.366,-189.767 401,-118 372.592,-79.0676 320.864,-57.9314 281.347,-46.9217"/>
<polygon fill="none" stroke="#404040" points="281.122,-46.863 274.304,-49.2117 269.514,-43.8216 276.332,-41.4729 281.122,-46.863"/>
<text text-anchor="middle" x="469.5" y="-188.5" font-family="Helvetica,sans-Serif" font-size="10.00"> &#45;running</text>
<text text-anchor="middle" x="469.5" y="-177.5" font-family="Helvetica,sans-Serif" font-size="10.00">&#45;state</text>
<text text-anchor="middle" x="469.5" y="-166.5" font-family="Helvetica,sans-Serif" font-size="10.00">&#45;stopped</text>
<text text-anchor="middle" x="469.5" y="-155.5" font-family="Helvetica,sans-Serif" font-size="10.00">&#45;paused</text>
<text text-anchor="middle" x="469.5" y="-144.5" font-family="Helvetica,sans-Serif" font-size="10.00">&#45;externalBorder</text>
</g>
<!-- Node8 -->
<g id="node8" class="node"><title>Node8</title>
<g id="a_node8"><a xlink:href="classCoordinator.html" target="_top" xlink:title="{Coordinator\n||+ hesitate()\l+ toggle()\l+ Coordinator()\l}">
<polygon fill="none" stroke="black" points="69,-344.5 69,-423.5 151,-423.5 151,-344.5 69,-344.5"/>
<text text-anchor="middle" x="110" y="-411.5" font-family="Helvetica,sans-Serif" font-size="10.00">Coordinator</text>
<polyline fill="none" stroke="black" points="69,-404.5 151,-404.5 "/>
<text text-anchor="middle" x="110" y="-392.5" font-family="Helvetica,sans-Serif" font-size="10.00"> </text>
<polyline fill="none" stroke="black" points="69,-385.5 151,-385.5 "/>
<text text-anchor="start" x="77" y="-373.5" font-family="Helvetica,sans-Serif" font-size="10.00">+ hesitate()</text>
<text text-anchor="start" x="77" y="-362.5" font-family="Helvetica,sans-Serif" font-size="10.00">+ toggle()</text>
<text text-anchor="start" x="77" y="-351.5" font-family="Helvetica,sans-Serif" font-size="10.00">+ Coordinator()</text>
</a>
</g>
</g>
<!-- Node8&#45;&gt;Node1 -->
<g id="edge14" class="edge"><title>Node8&#45;&gt;Node1</title>
<path fill="none" stroke="#404040" d="M137.01,-344.295C160.86,-312.396 198.123,-267.723 239,-238 252.706,-228.034 260.499,-229.533 278.826,-219.95"/>
<polygon fill="none" stroke="#404040" points="279.067,-219.811 282.262,-213.346 289.458,-213.809 286.263,-220.273 279.067,-219.811"/>
<text text-anchor="middle" x="245" y="-279.5" font-family="Helvetica,sans-Serif" font-size="10.00"> &#45;c</text>
</g>
<!-- Node8&#45;&gt;Node4 -->
<g id="edge9" class="edge"><title>Node8&#45;&gt;Node4</title>
<path fill="none" stroke="#404040" d="M91.8815,-344.423C69.1839,-289.951 38.0466,-189.207 80,-118 100.408,-83.3618 141.296,-62.323 174.934,-50.2428"/>
<polygon fill="none" stroke="#404040" points="175.116,-50.1811 179.518,-44.4694 186.484,-46.3359 182.082,-52.0476 175.116,-50.1811"/>
<text text-anchor="middle" x="86" y="-166.5" font-family="Helvetica,sans-Serif" font-size="10.00"> &#45;c</text>
</g>
<!-- Node9 -->
<g id="node9" class="node"><title>Node9</title>
<polygon fill="none" stroke="#bfbfbf" points="50,-472.5 50,-529.5 98,-529.5 98,-472.5 50,-472.5"/>
<text text-anchor="middle" x="74" y="-517.5" font-family="Helvetica,sans-Serif" font-size="10.00">final int</text>
<polyline fill="none" stroke="#bfbfbf" points="50,-510.5 98,-510.5 "/>
<text text-anchor="middle" x="74" y="-498.5" font-family="Helvetica,sans-Serif" font-size="10.00"> </text>
<polyline fill="none" stroke="#bfbfbf" points="50,-491.5 98,-491.5 "/>
<text text-anchor="middle" x="74" y="-479.5" font-family="Helvetica,sans-Serif" font-size="10.00"> </text>
</g>
<!-- Node9&#45;&gt;Node8 -->
<g id="edge10" class="edge"><title>Node9&#45;&gt;Node8</title>
<path fill="none" stroke="#404040" d="M71.5183,-472.406C71.4088,-462.633 72.1786,-451.668 75,-442 75.7117,-439.561 76.5573,-437.124 77.5087,-434.704"/>
<polygon fill="none" stroke="#404040" points="77.611,-434.481 76.4856,-427.359 82.6276,-423.58 83.753,-430.703 77.611,-434.481"/>
<text text-anchor="middle" x="99.5" y="-445.5" font-family="Helvetica,sans-Serif" font-size="10.00"> &#45;hesitation</text>
</g>
<!-- Node10 -->
<g id="node10" class="node"><title>Node10</title>
<polygon fill="none" stroke="#bfbfbf" points="121,-472.5 121,-529.5 171,-529.5 171,-472.5 121,-472.5"/>
<text text-anchor="middle" x="146" y="-517.5" font-family="Helvetica,sans-Serif" font-size="10.00">boolean</text>
<polyline fill="none" stroke="#bfbfbf" points="121,-510.5 171,-510.5 "/>
<text text-anchor="middle" x="146" y="-498.5" font-family="Helvetica,sans-Serif" font-size="10.00"> </text>
<polyline fill="none" stroke="#bfbfbf" points="121,-491.5 171,-491.5 "/>
<text text-anchor="middle" x="146" y="-479.5" font-family="Helvetica,sans-Serif" font-size="10.00"> </text>
</g>
<!-- Node10&#45;&gt;Node8 -->
<g id="edge11" class="edge"><title>Node10&#45;&gt;Node8</title>
<path fill="none" stroke="#404040" d="M137.377,-472.455C133.873,-461.262 129.712,-447.969 125.705,-435.168"/>
<polygon fill="none" stroke="#404040" points="125.677,-435.078 120.067,-430.547 122.092,-423.626 127.701,-428.157 125.677,-435.078"/>
<text text-anchor="middle" x="151" y="-445.5" font-family="Helvetica,sans-Serif" font-size="10.00"> &#45;running</text>
</g>
<!-- Node11 -->
<g id="node11" class="node"><title>Node11</title>
<polygon fill="none" stroke="#bfbfbf" points="171.5,-355.5 171.5,-412.5 278.5,-412.5 278.5,-355.5 171.5,-355.5"/>
<text text-anchor="middle" x="225" y="-400.5" font-family="Helvetica,sans-Serif" font-size="10.00">Set&lt; Surface.edge &gt;</text>
<polyline fill="none" stroke="#bfbfbf" points="171.5,-393.5 278.5,-393.5 "/>
<text text-anchor="middle" x="225" y="-381.5" font-family="Helvetica,sans-Serif" font-size="10.00"> </text>
<polyline fill="none" stroke="#bfbfbf" points="171.5,-374.5 278.5,-374.5 "/>
<text text-anchor="middle" x="225" y="-362.5" font-family="Helvetica,sans-Serif" font-size="10.00"> </text>
</g>
<!-- Node11&#45;&gt;Node1 -->
<g id="edge13" class="edge"><title>Node11&#45;&gt;Node1</title>
<path fill="none" stroke="#404040" d="M238.574,-355.458C253.21,-326.079 277.449,-278.319 300,-238 301.472,-235.368 302.992,-232.69 304.541,-229.991"/>
<polygon fill="none" stroke="#404040" points="304.583,-229.918 304.143,-222.72 310.617,-219.545 311.058,-226.743 304.583,-229.918"/>
<text text-anchor="middle" x="318" y="-279.5" font-family="Helvetica,sans-Serif" font-size="10.00"> ~edges</text>
</g>
</g>
</svg>
