<?xml version="1.0" encoding="UTF-8" standalone="no"?>
<!DOCTYPE svg PUBLIC "-//W3C//DTD SVG 1.1//EN"
 "http://www.w3.org/Graphics/SVG/1.1/DTD/svg11.dtd">
<!-- Generated by graphviz version 2.36.0 (20140111.2315)
 -->
<!-- Title: block_pool::make_shared_block_t Pages: 1 -->
<svg width="602pt" height="38pt"
 viewBox="0.00 0.00 602.00 38.00" xmlns="http://www.w3.org/2000/svg" xmlns:xlink="http://www.w3.org/1999/xlink">
<g id="graph0" class="graph" transform="scale(1 1) rotate(0) translate(4 34)">
<title>block_pool::make_shared_block_t</title>
<!-- Node1 -->
<g id="node1" class="node"><title>Node1</title>
<polygon fill="#bfbfbf" stroke="black" points="0,-0 0,-30 128,-30 128,-0 0,-0"/>
<text text-anchor="start" x="8" y="-18" font-family="Helvetica,sans-Serif" font-size="10.00">block_pool::make_shared</text>
<text text-anchor="middle" x="64" y="-7" font-family="Helvetica,sans-Serif" font-size="10.00">_block_t</text>
</g>
<!-- Node2 -->
<g id="node2" class="node"><title>Node2</title>
<g id="a_node2"><a xlink:href="classblock__pool.html#aaabfd73a9589b2d5d024161f3df1a11e" target="_top" xlink:title="block_pool::free_block">
<polygon fill="none" stroke="black" points="164,-5.5 164,-24.5 278,-24.5 278,-5.5 164,-5.5"/>
<text text-anchor="middle" x="221" y="-12.5" font-family="Helvetica,sans-Serif" font-size="10.00">block_pool::free_block</text>
</a>
</g>
</g>
<!-- Node1&#45;&gt;Node2 -->
<g id="edge1" class="edge"><title>Node1&#45;&gt;Node2</title>
<path fill="none" stroke="midnightblue" d="M138.172,-15C146.85,-15 155.601,-15 163.987,-15"/>
<polygon fill="midnightblue" stroke="midnightblue" points="138.044,-11.5001 128.044,-15 138.044,-18.5001 138.044,-11.5001"/>
</g>
<!-- Node3 -->
<g id="node3" class="node"><title>Node3</title>
<g id="a_node3"><a xlink:href="classMS__queue.html#a78a5210001367491d3184c55a7788cdb" target="_top" xlink:title="MS_queue::dequeue">
<polygon fill="none" stroke="black" points="314,-5.5 314,-24.5 420,-24.5 420,-5.5 314,-5.5"/>
<text text-anchor="middle" x="367" y="-12.5" font-family="Helvetica,sans-Serif" font-size="10.00">MS_queue::dequeue</text>
</a>
</g>
</g>
<!-- Node2&#45;&gt;Node3 -->
<g id="edge2" class="edge"><title>Node2&#45;&gt;Node3</title>
<path fill="none" stroke="midnightblue" d="M288.338,-15C296.811,-15 305.389,-15 313.599,-15"/>
<polygon fill="midnightblue" stroke="midnightblue" points="288.087,-11.5001 278.086,-15 288.086,-18.5001 288.087,-11.5001"/>
</g>
<!-- Node4 -->
<g id="node4" class="node"><title>Node4</title>
<g id="a_node4"><a xlink:href="classconcurrent__queue.html#a3ae2645ff7b16a7a317c1cff6142a9db" target="_top" xlink:title="concurrent_queue::dequeue">
<polygon fill="none" stroke="black" points="456.5,-5.5 456.5,-24.5 593.5,-24.5 593.5,-5.5 456.5,-5.5"/>
<text text-anchor="middle" x="525" y="-12.5" font-family="Helvetica,sans-Serif" font-size="10.00">concurrent_queue::dequeue</text>
</a>
</g>
</g>
<!-- Node3&#45;&gt;Node4 -->
<g id="edge3" class="edge"><title>Node3&#45;&gt;Node4</title>
<path fill="none" stroke="midnightblue" d="M430.54,-15C438.995,-15 447.703,-15 456.244,-15"/>
<polygon fill="midnightblue" stroke="midnightblue" points="430.38,-11.5001 420.38,-15 430.38,-18.5001 430.38,-11.5001"/>
</g>
</g>
</svg>
