<?xml version="1.0" encoding="UTF-8" standalone="no"?>
<!DOCTYPE svg PUBLIC "-//W3C//DTD SVG 1.1//EN"
 "http://www.w3.org/Graphics/SVG/1.1/DTD/svg11.dtd">
<!-- Generated by graphviz version 2.36.0 (20140111.2315)
 -->
<!-- Title: RBTree::insert Pages: 1 -->
<svg width="374pt" height="142pt"
 viewBox="0.00 0.00 374.00 142.00" xmlns="http://www.w3.org/2000/svg" xmlns:xlink="http://www.w3.org/1999/xlink">
<g id="graph0" class="graph" transform="scale(1 1) rotate(0) translate(4 138)">
<title>RBTree::insert</title>
<!-- Node1 -->
<g id="node1" class="node"><title>Node1</title>
<polygon fill="#bfbfbf" stroke="black" points="0,-57.5 0,-76.5 80,-76.5 80,-57.5 0,-57.5"/>
<text text-anchor="middle" x="40" y="-64.5" font-family="Helvetica,sans-Serif" font-size="10.00">RBTree::insert</text>
</g>
<!-- Node2 -->
<g id="node2" class="node"><title>Node2</title>
<g id="a_node2"><a xlink:href="structCustomForest.html#ad44371ca2d5043de9a084343cb02dcf9" target="_top" xlink:title="CustomForest::CustomForest">
<polygon fill="none" stroke="black" points="116.5,-114.5 116.5,-133.5 263.5,-133.5 263.5,-114.5 116.5,-114.5"/>
<text text-anchor="middle" x="190" y="-121.5" font-family="Helvetica,sans-Serif" font-size="10.00">CustomForest::CustomForest</text>
</a>
</g>
</g>
<!-- Node1&#45;&gt;Node2 -->
<g id="edge1" class="edge"><title>Node1&#45;&gt;Node2</title>
<path fill="none" stroke="midnightblue" d="M66.3699,-81.5713C80.6173,-89.3121 98.9182,-98.5353 116,-105 125.553,-108.616 136.062,-111.792 146.057,-114.461"/>
<polygon fill="midnightblue" stroke="midnightblue" points="67.6621,-78.2859 57.2186,-76.5012 64.2697,-84.409 67.6621,-78.2859"/>
</g>
<!-- Node3 -->
<g id="node3" class="node"><title>Node3</title>
<g id="a_node3"><a xlink:href="ForestBench_8cpp.html#ad11a233f81ddfcdb0effb7b0bb5b97fb" target="_top" xlink:title="bench_test">
<polygon fill="none" stroke="black" points="157.5,-76.5 157.5,-95.5 222.5,-95.5 222.5,-76.5 157.5,-76.5"/>
<text text-anchor="middle" x="190" y="-83.5" font-family="Helvetica,sans-Serif" font-size="10.00">bench_test</text>
</a>
</g>
</g>
<!-- Node1&#45;&gt;Node3 -->
<g id="edge2" class="edge"><title>Node1&#45;&gt;Node3</title>
<path fill="none" stroke="midnightblue" d="M90.4244,-73.345C112.383,-76.164 137.598,-79.401 157.029,-81.8956"/>
<polygon fill="midnightblue" stroke="midnightblue" points="90.637,-69.8437 80.2727,-72.0418 89.7456,-76.7867 90.637,-69.8437"/>
</g>
<!-- Node4 -->
<g id="node4" class="node"><title>Node4</title>
<g id="a_node4"><a xlink:href="classRBTree.html#afbd6f00d7eab72aaaf6d2a0a6074ba36" target="_top" xlink:title="RBTree::modify">
<polygon fill="none" stroke="black" points="147,-38.5 147,-57.5 233,-57.5 233,-38.5 147,-38.5"/>
<text text-anchor="middle" x="190" y="-45.5" font-family="Helvetica,sans-Serif" font-size="10.00">RBTree::modify</text>
</a>
</g>
</g>
<!-- Node1&#45;&gt;Node4 -->
<g id="edge3" class="edge"><title>Node1&#45;&gt;Node4</title>
<path fill="none" stroke="midnightblue" d="M90.2116,-60.6823C108.589,-58.323 129.273,-55.6676 146.948,-53.3986"/>
<polygon fill="midnightblue" stroke="midnightblue" points="89.7456,-57.2133 80.2727,-61.9582 90.637,-64.1563 89.7456,-57.2133"/>
</g>
<!-- Node6 -->
<g id="node6" class="node"><title>Node6</title>
<g id="a_node6"><a xlink:href="TreeBench_8cpp.html#a3adf213f254e3746cbce57cc95dfb687" target="_top" xlink:title="bench_init">
<polygon fill="none" stroke="black" points="159.5,-0.5 159.5,-19.5 220.5,-19.5 220.5,-0.5 159.5,-0.5"/>
<text text-anchor="middle" x="190" y="-7.5" font-family="Helvetica,sans-Serif" font-size="10.00">bench_init</text>
</a>
</g>
</g>
<!-- Node1&#45;&gt;Node6 -->
<g id="edge5" class="edge"><title>Node1&#45;&gt;Node6</title>
<path fill="none" stroke="midnightblue" d="M66.3699,-52.4287C80.6173,-44.6879 98.9182,-35.4647 116,-29 129.963,-23.7157 145.966,-19.37 159.424,-16.1748"/>
<polygon fill="midnightblue" stroke="midnightblue" points="64.2697,-49.591 57.2186,-57.4988 67.6621,-55.7141 64.2697,-49.591"/>
</g>
<!-- Node5 -->
<g id="node5" class="node"><title>Node5</title>
<g id="a_node5"><a xlink:href="TreeOverwriteBench_8cpp.html#ad11a233f81ddfcdb0effb7b0bb5b97fb" target="_top" xlink:title="bench_test">
<polygon fill="none" stroke="black" points="300.5,-38.5 300.5,-57.5 365.5,-57.5 365.5,-38.5 300.5,-38.5"/>
<text text-anchor="middle" x="333" y="-45.5" font-family="Helvetica,sans-Serif" font-size="10.00">bench_test</text>
</a>
</g>
</g>
<!-- Node4&#45;&gt;Node5 -->
<g id="edge4" class="edge"><title>Node4&#45;&gt;Node5</title>
<path fill="none" stroke="midnightblue" d="M243.424,-48C262.603,-48 283.696,-48 300.486,-48"/>
<polygon fill="midnightblue" stroke="midnightblue" points="243.305,-44.5001 233.305,-48 243.305,-51.5001 243.305,-44.5001"/>
</g>
</g>
</svg>
