<?xml version="1.0" encoding="UTF-8" standalone="no"?>
<!DOCTYPE svg PUBLIC "-//W3C//DTD SVG 1.1//EN"
 "http://www.w3.org/Graphics/SVG/1.1/DTD/svg11.dtd">
<!-- Generated by graphviz version 2.36.0 (20140111.2315)
 -->
<!-- Title: Surface.Worker Pages: 1 -->
<svg width="92pt" height="160pt"
 viewBox="0.00 0.00 92.00 160.00" xmlns="http://www.w3.org/2000/svg" xmlns:xlink="http://www.w3.org/1999/xlink">
<g id="graph0" class="graph" transform="scale(1 1) rotate(0) translate(4 156)">
<title>Surface.Worker</title>
<!-- Node1 -->
<g id="node1" class="node"><title>Node1</title>
<polygon fill="#bfbfbf" stroke="black" points="-0.5,-0.5 -0.5,-57.5 84.5,-57.5 84.5,-0.5 -0.5,-0.5"/>
<text text-anchor="middle" x="42" y="-45.5" font-family="Helvetica,sans-Serif" font-size="10.00">Surface.Worker</text>
<polyline fill="none" stroke="black" points="-0.5,-38.5 84.5,-38.5 "/>
<text text-anchor="middle" x="42" y="-26.5" font-family="Helvetica,sans-Serif" font-size="10.00"> </text>
<polyline fill="none" stroke="black" points="-0.5,-19.5 84.5,-19.5 "/>
<text text-anchor="start" x="7.5" y="-7.5" font-family="Helvetica,sans-Serif" font-size="10.00">+ run()</text>
</g>
<!-- Node2 -->
<g id="node2" class="node"><title>Node2</title>
<g id="a_node2"><a xlink:href="classThread.html" target="_top" xlink:title="{Thread\n||}">
<polygon fill="none" stroke="black" points="18.5,-94.5 18.5,-151.5 65.5,-151.5 65.5,-94.5 18.5,-94.5"/>
<text text-anchor="middle" x="42" y="-139.5" font-family="Helvetica,sans-Serif" font-size="10.00">Thread</text>
<polyline fill="none" stroke="black" points="18.5,-132.5 65.5,-132.5 "/>
<text text-anchor="middle" x="42" y="-120.5" font-family="Helvetica,sans-Serif" font-size="10.00"> </text>
<polyline fill="none" stroke="black" points="18.5,-113.5 65.5,-113.5 "/>
<text text-anchor="middle" x="42" y="-101.5" font-family="Helvetica,sans-Serif" font-size="10.00"> </text>
</a>
</g>
</g>
<!-- Node2&#45;&gt;Node1 -->
<g id="edge1" class="edge"><title>Node2&#45;&gt;Node1</title>
<path fill="none" stroke="midnightblue" d="M42,-84.2092C42,-75.2929 42,-65.9513 42,-57.5836"/>
<polygon fill="none" stroke="midnightblue" points="38.5001,-84.3969 42,-94.397 45.5001,-84.397 38.5001,-84.3969"/>
</g>
</g>
</svg>
