<?xml version="1.0" encoding="UTF-8" standalone="no"?>
<!DOCTYPE svg PUBLIC "-//W3C//DTD SVG 1.1//EN"
 "http://www.w3.org/Graphics/SVG/1.1/DTD/svg11.dtd">
<!-- Generated by graphviz version 2.36.0 (20140111.2315)
 -->
<!-- Title: LLNode&lt; T &gt; Pages: 1 -->
<svg width="157pt" height="172pt"
 viewBox="0.00 0.00 157.00 172.00" xmlns="http://www.w3.org/2000/svg" xmlns:xlink="http://www.w3.org/1999/xlink">
<g id="graph0" class="graph" transform="scale(1 1) rotate(0) translate(4 168)">
<title>LLNode&lt; T &gt;</title>
<!-- Node1 -->
<g id="node1" class="node"><title>Node1</title>
<polygon fill="#bfbfbf" stroke="black" points="30,-0.5 30,-57.5 104,-57.5 104,-0.5 30,-0.5"/>
<text text-anchor="middle" x="67" y="-45.5" font-family="Helvetica,sans-Serif" font-size="10.00">LLNode&lt; T &gt;</text>
<polyline fill="none" stroke="black" points="30,-38.5 104,-38.5 "/>
<text text-anchor="middle" x="67" y="-26.5" font-family="Helvetica,sans-Serif" font-size="10.00"> </text>
<polyline fill="none" stroke="black" points="30,-19.5 104,-19.5 "/>
<text text-anchor="start" x="38" y="-7.5" font-family="Helvetica,sans-Serif" font-size="10.00">&#45; LLNode()</text>
</g>
<!-- Node2 -->
<g id="node2" class="node"><title>Node2</title>
<polygon fill="none" stroke="#bfbfbf" points="0,-106.5 0,-163.5 50,-163.5 50,-106.5 0,-106.5"/>
<text text-anchor="middle" x="25" y="-151.5" font-family="Helvetica,sans-Serif" font-size="10.00">const T</text>
<polyline fill="none" stroke="#bfbfbf" points="0,-144.5 50,-144.5 "/>
<text text-anchor="middle" x="25" y="-132.5" font-family="Helvetica,sans-Serif" font-size="10.00"> </text>
<polyline fill="none" stroke="#bfbfbf" points="0,-125.5 50,-125.5 "/>
<text text-anchor="middle" x="25" y="-113.5" font-family="Helvetica,sans-Serif" font-size="10.00"> </text>
</g>
<!-- Node2&#45;&gt;Node1 -->
<g id="edge1" class="edge"><title>Node2&#45;&gt;Node1</title>
<path fill="none" stroke="#404040" d="M36.145,-106.403C40.7491,-95.0023 46.1706,-81.5777 51.1741,-69.1879"/>
<polygon fill="none" stroke="#404040" points="51.3093,-68.8529 49.8472,-61.7916 55.803,-57.726 57.2651,-64.7873 51.3093,-68.8529"/>
<text text-anchor="middle" x="57.5" y="-79.5" font-family="Helvetica,sans-Serif" font-size="10.00"> &#45;val</text>
</g>
<!-- Node3 -->
<g id="node3" class="node"><title>Node3</title>
<polygon fill="none" stroke="#bfbfbf" points="68.5,-106.5 68.5,-163.5 149.5,-163.5 149.5,-106.5 68.5,-106.5"/>
<text text-anchor="middle" x="109" y="-151.5" font-family="Helvetica,sans-Serif" font-size="10.00">LLNode&lt; T &gt; *</text>
<polyline fill="none" stroke="#bfbfbf" points="68.5,-144.5 149.5,-144.5 "/>
<text text-anchor="middle" x="109" y="-132.5" font-family="Helvetica,sans-Serif" font-size="10.00"> </text>
<polyline fill="none" stroke="#bfbfbf" points="68.5,-125.5 149.5,-125.5 "/>
<text text-anchor="middle" x="109" y="-113.5" font-family="Helvetica,sans-Serif" font-size="10.00"> </text>
</g>
<!-- Node3&#45;&gt;Node1 -->
<g id="edge2" class="edge"><title>Node3&#45;&gt;Node1</title>
<path fill="none" stroke="#404040" d="M97.855,-106.403C93.2509,-95.0023 87.8294,-81.5777 82.8259,-69.1879"/>
<polygon fill="none" stroke="#404040" points="82.6907,-68.8529 76.7349,-64.7873 78.197,-57.726 84.1528,-61.7916 82.6907,-68.8529"/>
<text text-anchor="middle" x="116" y="-79.5" font-family="Helvetica,sans-Serif" font-size="10.00"> &#45;next_node</text>
</g>
</g>
</svg>
