<?xml version="1.0" encoding="UTF-8" standalone="no"?>
<!DOCTYPE svg PUBLIC "-//W3C//DTD SVG 1.1//EN"
 "http://www.w3.org/Graphics/SVG/1.1/DTD/svg11.dtd">
<!-- Generated by graphviz version 2.36.0 (20140111.2315)
 -->
<!-- Title: stm::WBMMPolicy Pages: 1 -->
<svg width="354pt" height="398pt"
 viewBox="0.00 0.00 354.00 398.00" xmlns="http://www.w3.org/2000/svg" xmlns:xlink="http://www.w3.org/1999/xlink">
<g id="graph0" class="graph" transform="scale(1 1) rotate(0) translate(4 394)">
<title>stm::WBMMPolicy</title>
<!-- Node1 -->
<g id="node1" class="node"><title>Node1</title>
<polygon fill="#bfbfbf" stroke="black" points="164.5,-0.5 164.5,-145.5 281.5,-145.5 281.5,-0.5 164.5,-0.5"/>
<text text-anchor="middle" x="223" y="-133.5" font-family="Helvetica,sans-Serif" font-size="10.00">stm::WBMMPolicy</text>
<polyline fill="none" stroke="black" points="164.5,-126.5 281.5,-126.5 "/>
<text text-anchor="middle" x="223" y="-114.5" font-family="Helvetica,sans-Serif" font-size="10.00"> </text>
<polyline fill="none" stroke="black" points="164.5,-107.5 281.5,-107.5 "/>
<text text-anchor="start" x="172.5" y="-95.5" font-family="Helvetica,sans-Serif" font-size="10.00">+ WBMMPolicy()</text>
<text text-anchor="start" x="172.5" y="-84.5" font-family="Helvetica,sans-Serif" font-size="10.00">+ setID()</text>
<text text-anchor="start" x="172.5" y="-73.5" font-family="Helvetica,sans-Serif" font-size="10.00">+ txAlloc()</text>
<text text-anchor="start" x="172.5" y="-62.5" font-family="Helvetica,sans-Serif" font-size="10.00">+ txFree()</text>
<text text-anchor="start" x="172.5" y="-51.5" font-family="Helvetica,sans-Serif" font-size="10.00">+ onTxBegin()</text>
<text text-anchor="start" x="172.5" y="-40.5" font-family="Helvetica,sans-Serif" font-size="10.00">+ onTxAbort()</text>
<text text-anchor="start" x="172.5" y="-29.5" font-family="Helvetica,sans-Serif" font-size="10.00">+ onTxCommit()</text>
<text text-anchor="start" x="172.5" y="-18.5" font-family="Helvetica,sans-Serif" font-size="10.00">&#45; schedForReclaim()</text>
<text text-anchor="start" x="172.5" y="-7.5" font-family="Helvetica,sans-Serif" font-size="10.00">&#45; handle_full_prelimbo()</text>
</g>
<!-- Node2 -->
<g id="node2" class="node"><title>Node2</title>
<g id="a_node2"><a xlink:href="structstm_1_1limbo__t.html" target="_top" xlink:title="{stm::limbo_t\n||+ limbo_t()\l}">
<polygon fill="none" stroke="black" points="31.5,-204.5 31.5,-261.5 102.5,-261.5 102.5,-204.5 31.5,-204.5"/>
<text text-anchor="middle" x="67" y="-249.5" font-family="Helvetica,sans-Serif" font-size="10.00">stm::limbo_t</text>
<polyline fill="none" stroke="black" points="31.5,-242.5 102.5,-242.5 "/>
<text text-anchor="middle" x="67" y="-230.5" font-family="Helvetica,sans-Serif" font-size="10.00"> </text>
<polyline fill="none" stroke="black" points="31.5,-223.5 102.5,-223.5 "/>
<text text-anchor="start" x="39.5" y="-211.5" font-family="Helvetica,sans-Serif" font-size="10.00">+ limbo_t()</text>
</a>
</g>
</g>
<!-- Node2&#45;&gt;Node1 -->
<g id="edge1" class="edge"><title>Node2&#45;&gt;Node1</title>
<path fill="none" stroke="#404040" d="M94.1731,-204.479C111.282,-187.151 134.168,-163.97 155.903,-141.957"/>
<polygon fill="none" stroke="#404040" points="156.05,-141.808 157.419,-134.728 164.481,-133.269 163.112,-140.349 156.05,-141.808"/>
<text text-anchor="middle" x="153.5" y="-178" font-family="Helvetica,sans-Serif" font-size="10.00"> &#45;prelimbo</text>
<text text-anchor="middle" x="153.5" y="-167" font-family="Helvetica,sans-Serif" font-size="10.00">&#45;limbo</text>
</g>
<!-- Node2&#45;&gt;Node2 -->
<g id="edge2" class="edge"><title>Node2&#45;&gt;Node2</title>
<path fill="none" stroke="#404040" d="M102.669,-243.809C112.493,-243.286 120,-239.684 120,-233 120,-229.449 117.881,-226.768 114.422,-224.956"/>
<polygon fill="none" stroke="#404040" points="114.35,-224.94 107.594,-227.459 102.669,-222.191 109.426,-219.672 114.35,-224.94"/>
<text text-anchor="middle" x="135.5" y="-230.5" font-family="Helvetica,sans-Serif" font-size="10.00"> +older</text>
</g>
<!-- Node3 -->
<g id="node3" class="node"><title>Node3</title>
<polygon fill="none" stroke="#bfbfbf" points="-0.5,-332.5 -0.5,-389.5 50.5,-389.5 50.5,-332.5 -0.5,-332.5"/>
<text text-anchor="middle" x="25" y="-377.5" font-family="Helvetica,sans-Serif" font-size="10.00">uint32_t</text>
<polyline fill="none" stroke="#bfbfbf" points="-0.5,-370.5 50.5,-370.5 "/>
<text text-anchor="middle" x="25" y="-358.5" font-family="Helvetica,sans-Serif" font-size="10.00"> </text>
<polyline fill="none" stroke="#bfbfbf" points="-0.5,-351.5 50.5,-351.5 "/>
<text text-anchor="middle" x="25" y="-339.5" font-family="Helvetica,sans-Serif" font-size="10.00"> </text>
</g>
<!-- Node3&#45;&gt;Node2 -->
<g id="edge3" class="edge"><title>Node3&#45;&gt;Node2</title>
<path fill="none" stroke="#404040" d="M20.675,-332.431C19.3167,-316.574 19.5667,-296.574 26,-280 27.1177,-277.12 28.5049,-274.305 30.0866,-271.576"/>
<polygon fill="none" stroke="#404040" points="30.1961,-271.417 30.2975,-264.206 36.9922,-261.527 36.8908,-268.737 30.1961,-271.417"/>
<text text-anchor="middle" x="56.5" y="-305.5" font-family="Helvetica,sans-Serif" font-size="10.00"> +length</text>
<text text-anchor="middle" x="56.5" y="-294.5" font-family="Helvetica,sans-Serif" font-size="10.00">+ts</text>
<text text-anchor="middle" x="56.5" y="-283.5" font-family="Helvetica,sans-Serif" font-size="10.00">+POOL_SIZE</text>
</g>
<!-- Node4 -->
<g id="node4" class="node"><title>Node4</title>
<polygon fill="none" stroke="#bfbfbf" points="88.5,-332.5 88.5,-389.5 129.5,-389.5 129.5,-332.5 88.5,-332.5"/>
<text text-anchor="middle" x="109" y="-377.5" font-family="Helvetica,sans-Serif" font-size="10.00">void *</text>
<polyline fill="none" stroke="#bfbfbf" points="88.5,-370.5 129.5,-370.5 "/>
<text text-anchor="middle" x="109" y="-358.5" font-family="Helvetica,sans-Serif" font-size="10.00"> </text>
<polyline fill="none" stroke="#bfbfbf" points="88.5,-351.5 129.5,-351.5 "/>
<text text-anchor="middle" x="109" y="-339.5" font-family="Helvetica,sans-Serif" font-size="10.00"> </text>
</g>
<!-- Node4&#45;&gt;Node2 -->
<g id="edge4" class="edge"><title>Node4&#45;&gt;Node2</title>
<path fill="none" stroke="#404040" d="M102.415,-332.303C98.4636,-316.763 93.0398,-297.115 87,-280 86.2176,-277.783 85.3777,-275.522 84.5012,-273.25"/>
<polygon fill="none" stroke="#404040" points="84.433,-273.082 78.4665,-269.032 79.9101,-261.967 85.8766,-266.017 84.433,-273.082"/>
<text text-anchor="middle" x="112" y="-294.5" font-family="Helvetica,sans-Serif" font-size="10.00"> +pool</text>
</g>
<!-- Node5 -->
<g id="node5" class="node"><title>Node5</title>
<polygon fill="none" stroke="#bfbfbf" points="170,-204.5 170,-261.5 276,-261.5 276,-204.5 170,-204.5"/>
<text text-anchor="middle" x="223" y="-249.5" font-family="Helvetica,sans-Serif" font-size="10.00">MiniVector&lt; void * &gt;</text>
<polyline fill="none" stroke="#bfbfbf" points="170,-242.5 276,-242.5 "/>
<text text-anchor="middle" x="223" y="-230.5" font-family="Helvetica,sans-Serif" font-size="10.00"> </text>
<polyline fill="none" stroke="#bfbfbf" points="170,-223.5 276,-223.5 "/>
<text text-anchor="middle" x="223" y="-211.5" font-family="Helvetica,sans-Serif" font-size="10.00"> </text>
</g>
<!-- Node5&#45;&gt;Node1 -->
<g id="edge5" class="edge"><title>Node5&#45;&gt;Node1</title>
<path fill="none" stroke="#404040" d="M223,-204.479C223,-191.317 223,-174.778 223,-157.939"/>
<polygon fill="none" stroke="#404040" points="223,-157.668 219,-151.668 223,-145.668 227,-151.668 223,-157.668"/>
<text text-anchor="middle" x="237.5" y="-178" font-family="Helvetica,sans-Serif" font-size="10.00"> &#45;frees</text>
<text text-anchor="middle" x="237.5" y="-167" font-family="Helvetica,sans-Serif" font-size="10.00">&#45;allocs</text>
</g>
<!-- Node6 -->
<g id="node6" class="node"><title>Node6</title>
<polygon fill="none" stroke="#bfbfbf" points="294,-204.5 294,-261.5 346,-261.5 346,-204.5 294,-204.5"/>
<text text-anchor="middle" x="320" y="-249.5" font-family="Helvetica,sans-Serif" font-size="10.00">uintptr_t</text>
<polyline fill="none" stroke="#bfbfbf" points="294,-242.5 346,-242.5 "/>
<text text-anchor="middle" x="320" y="-230.5" font-family="Helvetica,sans-Serif" font-size="10.00"> </text>
<polyline fill="none" stroke="#bfbfbf" points="294,-223.5 346,-223.5 "/>
<text text-anchor="middle" x="320" y="-211.5" font-family="Helvetica,sans-Serif" font-size="10.00"> </text>
</g>
<!-- Node6&#45;&gt;Node1 -->
<g id="edge6" class="edge"><title>Node6&#45;&gt;Node1</title>
<path fill="none" stroke="#404040" d="M303.104,-204.479C294.71,-190.805 284.078,-173.488 273.327,-155.976"/>
<polygon fill="none" stroke="#404040" points="273.277,-155.895 266.729,-152.874 266.999,-145.668 273.547,-148.689 273.277,-155.895"/>
<text text-anchor="middle" x="309" y="-172.5" font-family="Helvetica,sans-Serif" font-size="10.00"> &#45;my_ts</text>
</g>
</g>
</svg>
