<?xml version="1.0" encoding="UTF-8" standalone="no"?>
<!DOCTYPE svg PUBLIC "-//W3C//DTD SVG 1.1//EN"
 "http://www.w3.org/Graphics/SVG/1.1/DTD/svg11.dtd">
<!-- Generated by graphviz version 2.36.0 (20140111.2315)
 -->
<!-- Title: ThreadBarrier Pages: 1 -->
<svg width="209pt" height="184pt"
 viewBox="0.00 0.00 209.00 184.00" xmlns="http://www.w3.org/2000/svg" xmlns:xlink="http://www.w3.org/1999/xlink">
<g id="graph0" class="graph" transform="scale(1 1) rotate(0) translate(4 180)">
<title>ThreadBarrier</title>
<!-- Node1 -->
<g id="node1" class="node"><title>Node1</title>
<polygon fill="#bfbfbf" stroke="black" points="55,-1 55,-69 145,-69 145,-1 55,-1"/>
<text text-anchor="middle" x="100" y="-57" font-family="Helvetica,sans-Serif" font-size="10.00">ThreadBarrier</text>
<polyline fill="none" stroke="black" points="55,-50 145,-50 "/>
<text text-anchor="middle" x="100" y="-38" font-family="Helvetica,sans-Serif" font-size="10.00"> </text>
<polyline fill="none" stroke="black" points="55,-31 145,-31 "/>
<text text-anchor="start" x="63" y="-19" font-family="Helvetica,sans-Serif" font-size="10.00">+ ThreadBarrier()</text>
<text text-anchor="start" x="63" y="-8" font-family="Helvetica,sans-Serif" font-size="10.00">+ Wait()</text>
</g>
<!-- Node2 -->
<g id="node2" class="node"><title>Node2</title>
<polygon fill="none" stroke="#bfbfbf" points="-0.5,-118.5 -0.5,-175.5 102.5,-175.5 102.5,-118.5 -0.5,-118.5"/>
<text text-anchor="middle" x="51" y="-163.5" font-family="Helvetica,sans-Serif" font-size="10.00">atomic&lt; unsigned &gt;</text>
<polyline fill="none" stroke="#bfbfbf" points="-0.5,-156.5 102.5,-156.5 "/>
<text text-anchor="middle" x="51" y="-144.5" font-family="Helvetica,sans-Serif" font-size="10.00"> </text>
<polyline fill="none" stroke="#bfbfbf" points="-0.5,-137.5 102.5,-137.5 "/>
<text text-anchor="middle" x="51" y="-125.5" font-family="Helvetica,sans-Serif" font-size="10.00"> </text>
</g>
<!-- Node2&#45;&gt;Node1 -->
<g id="edge1" class="edge"><title>Node2&#45;&gt;Node1</title>
<path fill="none" stroke="#404040" d="M63.3648,-118.242C68.4959,-106.723 74.5771,-93.0718 80.2956,-80.2344"/>
<polygon fill="none" stroke="#404040" points="80.3116,-80.1984 79.0992,-73.0899 85.1945,-69.2368 86.4069,-76.3453 80.3116,-80.1984"/>
<text text-anchor="middle" x="100.5" y="-91.5" font-family="Helvetica,sans-Serif" font-size="10.00"> &#45;m_arrived</text>
</g>
<!-- Node3 -->
<g id="node3" class="node"><title>Node3</title>
<polygon fill="none" stroke="#bfbfbf" points="121,-118.5 121,-175.5 177,-175.5 177,-118.5 121,-118.5"/>
<text text-anchor="middle" x="149" y="-163.5" font-family="Helvetica,sans-Serif" font-size="10.00">unsigned</text>
<polyline fill="none" stroke="#bfbfbf" points="121,-156.5 177,-156.5 "/>
<text text-anchor="middle" x="149" y="-144.5" font-family="Helvetica,sans-Serif" font-size="10.00"> </text>
<polyline fill="none" stroke="#bfbfbf" points="121,-137.5 177,-137.5 "/>
<text text-anchor="middle" x="149" y="-125.5" font-family="Helvetica,sans-Serif" font-size="10.00"> </text>
</g>
<!-- Node3&#45;&gt;Node1 -->
<g id="edge2" class="edge"><title>Node3&#45;&gt;Node1</title>
<path fill="none" stroke="#404040" d="M139.239,-118.294C135.631,-108.611 131.355,-97.732 127,-88 125.826,-85.3755 124.582,-82.6966 123.297,-80.0074"/>
<polygon fill="none" stroke="#404040" points="123.179,-79.7674 116.937,-76.1571 117.868,-69.0065 124.11,-72.6167 123.179,-79.7674"/>
<text text-anchor="middle" x="166.5" y="-91.5" font-family="Helvetica,sans-Serif" font-size="10.00"> &#45;m_numThread</text>
</g>
</g>
</svg>
