<?xml version="1.0" encoding="UTF-8" standalone="no"?>
<!DOCTYPE svg PUBLIC "-//W3C//DTD SVG 1.1//EN"
 "http://www.w3.org/Graphics/SVG/1.1/DTD/svg11.dtd">
<!-- Generated by graphviz version 2.36.0 (20140111.2315)
 -->
<!-- Title: SetAdaptor&lt; BoostingSkip &gt; Pages: 1 -->
<!--zoomable 1146 -->
<svg id="main" version="1.1" xmlns="http://www.w3.org/2000/svg" xmlns:xlink="http://www.w3.org/1999/xlink" xml:space="preserve" onload="init(evt)">
<style type="text/css"><![CDATA[
.edge:hover path { stroke: red; }
.edge:hover polygon { stroke: red; fill: red; }
]]></style>
<script type="text/javascript"><![CDATA[
var edges = document.getElementsByTagName('g');
if (edges && edges.length) {
  for (var i=0;i<edges.length;i++) {
    if (edges[i].id.substr(0,4)=='edge') {
      edges[i].setAttribute('class','edge');
    }
  }
}
]]></script>
        <defs>
                <circle id="rim" cx="0" cy="0" r="7"/>
                <circle id="rim2" cx="0" cy="0" r="3.5"/>
                <g id="zoomPlus">
                        <use xlink:href="#rim" fill="#404040">
                                <set attributeName="fill" to="#808080" begin="zoomplus.mouseover" end="zoomplus.mouseout"/>
                        </use>
                        <path d="M-4,0h8M0,-4v8" fill="none" stroke="white" stroke-width="1.5" pointer-events="none"/>
                </g>
                <g id="zoomMin">
                        <use xlink:href="#rim" fill="#404040">
                                <set attributeName="fill" to="#808080" begin="zoomminus.mouseover" end="zoomminus.mouseout"/>
                        </use>
                        <path d="M-4,0h8" fill="none" stroke="white" stroke-width="1.5" pointer-events="none"/>
                </g>
                <g id="dirArrow">
                        <path fill="none" stroke="white" stroke-width="1.5" d="M0,-3.0v7 M-2.5,-0.5L0,-3.0L2.5,-0.5"/>
                </g>
               <g id="resetDef">
                       <use xlink:href="#rim2" fill="#404040">
                               <set attributeName="fill" to="#808080" begin="reset.mouseover" end="reset.mouseout"/>
                       </use>
               </g>
        </defs>

<script type="text/javascript">
var viewWidth = 751;
var viewHeight = 1146;
var sectionId = 'dynsection-0';
</script>
<script xlink:href="svgpan.js"/>
<svg id="graph" class="graph">
<g id="viewport">
<title>SetAdaptor&lt; BoostingSkip &gt;</title>
<!-- Node1 -->
<g id="node1" class="node"><title>Node1</title>
<polygon fill="#bfbfbf" stroke="black" points="397.5,-0.5 397.5,-101.5 538.5,-101.5 538.5,-0.5 397.5,-0.5"/>
<text text-anchor="middle" x="468" y="-89.5" font-family="Helvetica,sans-Serif" font-size="10.00">SetAdaptor&lt; BoostingSkip &gt;</text>
<polyline fill="none" stroke="black" points="397.5,-82.5 538.5,-82.5 "/>
<text text-anchor="middle" x="468" y="-70.5" font-family="Helvetica,sans-Serif" font-size="10.00"> </text>
<polyline fill="none" stroke="black" points="397.5,-63.5 538.5,-63.5 "/>
<text text-anchor="start" x="405.5" y="-51.5" font-family="Helvetica,sans-Serif" font-size="10.00">+ SetAdaptor()</text>
<text text-anchor="start" x="405.5" y="-40.5" font-family="Helvetica,sans-Serif" font-size="10.00">+ ~SetAdaptor()</text>
<text text-anchor="start" x="405.5" y="-29.5" font-family="Helvetica,sans-Serif" font-size="10.00">+ Init()</text>
<text text-anchor="start" x="405.5" y="-18.5" font-family="Helvetica,sans-Serif" font-size="10.00">+ Uninit()</text>
<text text-anchor="start" x="405.5" y="-7.5" font-family="Helvetica,sans-Serif" font-size="10.00">+ ExecuteOps()</text>
</g>
<!-- Node2 -->
<g id="node2" class="node"><title>Node2</title>
<g id="a_node2"><a xlink:href="classBoostingSkip.html" target="_top" xlink:title="{BoostingSkip\n||+ BoostingSkip()\l+ ~BoostingSkip()\l+ Init()\l+ Uninit()\l+ Insert()\l+ Delete()\l+ Find()\l+ OnAbort()\l+ OnCommit()\l+ Print()\l&#45; ASSERT_CODE()\l}">
<polygon fill="none" stroke="black" points="416,-150.5 416,-317.5 520,-317.5 520,-150.5 416,-150.5"/>
<text text-anchor="middle" x="468" y="-305.5" font-family="Helvetica,sans-Serif" font-size="10.00">BoostingSkip</text>
<polyline fill="none" stroke="black" points="416,-298.5 520,-298.5 "/>
<text text-anchor="middle" x="468" y="-286.5" font-family="Helvetica,sans-Serif" font-size="10.00"> </text>
<polyline fill="none" stroke="black" points="416,-279.5 520,-279.5 "/>
<text text-anchor="start" x="424" y="-267.5" font-family="Helvetica,sans-Serif" font-size="10.00">+ BoostingSkip()</text>
<text text-anchor="start" x="424" y="-256.5" font-family="Helvetica,sans-Serif" font-size="10.00">+ ~BoostingSkip()</text>
<text text-anchor="start" x="424" y="-245.5" font-family="Helvetica,sans-Serif" font-size="10.00">+ Init()</text>
<text text-anchor="start" x="424" y="-234.5" font-family="Helvetica,sans-Serif" font-size="10.00">+ Uninit()</text>
<text text-anchor="start" x="424" y="-223.5" font-family="Helvetica,sans-Serif" font-size="10.00">+ Insert()</text>
<text text-anchor="start" x="424" y="-212.5" font-family="Helvetica,sans-Serif" font-size="10.00">+ Delete()</text>
<text text-anchor="start" x="424" y="-201.5" font-family="Helvetica,sans-Serif" font-size="10.00">+ Find()</text>
<text text-anchor="start" x="424" y="-190.5" font-family="Helvetica,sans-Serif" font-size="10.00">+ OnAbort()</text>
<text text-anchor="start" x="424" y="-179.5" font-family="Helvetica,sans-Serif" font-size="10.00">+ OnCommit()</text>
<text text-anchor="start" x="424" y="-168.5" font-family="Helvetica,sans-Serif" font-size="10.00">+ Print()</text>
<text text-anchor="start" x="424" y="-157.5" font-family="Helvetica,sans-Serif" font-size="10.00">&#45; ASSERT_CODE()</text>
</a>
</g>
</g>
<!-- Node2&#45;&gt;Node1 -->
<g id="edge1" class="edge"><title>Node2&#45;&gt;Node1</title>
<path fill="none" stroke="#404040" d="M468,-150.445C468,-138.058 468,-125.472 468,-113.623"/>
<polygon fill="none" stroke="#404040" points="468,-113.582 464,-107.582 468,-101.582 472,-107.581 468,-113.582"/>
<text text-anchor="middle" x="484.5" y="-123.5" font-family="Helvetica,sans-Serif" font-size="10.00"> &#45;m_list</text>
</g>
<!-- Node3 -->
<g id="node3" class="node"><title>Node3</title>
<g id="a_node3"><a xlink:href="structfr__set__st.html" target="_top" xlink:title="{fr_set_st\n||}">
<polygon fill="none" stroke="black" points="225.5,-394.5 225.5,-451.5 280.5,-451.5 280.5,-394.5 225.5,-394.5"/>
<text text-anchor="middle" x="253" y="-439.5" font-family="Helvetica,sans-Serif" font-size="10.00">fr_set_st</text>
<polyline fill="none" stroke="black" points="225.5,-432.5 280.5,-432.5 "/>
<text text-anchor="middle" x="253" y="-420.5" font-family="Helvetica,sans-Serif" font-size="10.00"> </text>
<polyline fill="none" stroke="black" points="225.5,-413.5 280.5,-413.5 "/>
<text text-anchor="middle" x="253" y="-401.5" font-family="Helvetica,sans-Serif" font-size="10.00"> </text>
</a>
</g>
</g>
<!-- Node3&#45;&gt;Node2 -->
<g id="edge2" class="edge"><title>Node3&#45;&gt;Node2</title>
<path fill="none" stroke="#404040" d="M280.667,-397.936C312.299,-370.423 365.058,-324.536 406.54,-288.456"/>
<polygon fill="none" stroke="#404040" points="406.69,-288.325 408.592,-281.37 415.744,-280.45 413.842,-287.406 406.69,-288.325"/>
<text text-anchor="middle" x="364.5" y="-339.5" font-family="Helvetica,sans-Serif" font-size="10.00"> &#45;m_list</text>
</g>
<!-- Node4 -->
<g id="node4" class="node"><title>Node4</title>
<g id="a_node4"><a xlink:href="structnode__t.html" target="_top" xlink:title="{node_t\n||}">
<polygon fill="none" stroke="black" points="49,-646.5 49,-703.5 95,-703.5 95,-646.5 49,-646.5"/>
<text text-anchor="middle" x="72" y="-691.5" font-family="Helvetica,sans-Serif" font-size="10.00">node_t</text>
<polyline fill="none" stroke="black" points="49,-684.5 95,-684.5 "/>
<text text-anchor="middle" x="72" y="-672.5" font-family="Helvetica,sans-Serif" font-size="10.00"> </text>
<polyline fill="none" stroke="black" points="49,-665.5 95,-665.5 "/>
<text text-anchor="middle" x="72" y="-653.5" font-family="Helvetica,sans-Serif" font-size="10.00"> </text>
</a>
</g>
</g>
<!-- Node4&#45;&gt;Node3 -->
<g id="edge3" class="edge"><title>Node4&#45;&gt;Node3</title>
<path fill="none" stroke="#404040" d="M92.0617,-646.29C124.611,-601.333 188.975,-512.433 225.676,-461.74"/>
<polygon fill="none" stroke="#404040" points="225.811,-461.554 226.09,-454.348 232.848,-451.834 232.57,-459.039 225.811,-461.554"/>
<text text-anchor="middle" x="189" y="-560.5" font-family="Helvetica,sans-Serif" font-size="10.00"> +tail</text>
</g>
<!-- Node4&#45;&gt;Node4 -->
<g id="edge4" class="edge"><title>Node4&#45;&gt;Node4</title>
<path fill="none" stroke="#404040" d="M95.1818,-684.664C104.825,-685.331 113,-682.109 113,-675 113,-671.223 110.693,-668.544 107.084,-666.961"/>
<polygon fill="none" stroke="#404040" points="107.071,-666.96 100.585,-670.111 95.1818,-665.336 101.668,-662.184 107.071,-666.96"/>
<text text-anchor="middle" x="127" y="-672.5" font-family="Helvetica,sans-Serif" font-size="10.00"> +next</text>
</g>
<!-- Node13 -->
<g id="node13" class="node"><title>Node13</title>
<g id="a_node13"><a xlink:href="structnode__st.html" target="_top" xlink:title="{node_st\n||}">
<polygon fill="none" stroke="black" points="227.5,-534.5 227.5,-591.5 278.5,-591.5 278.5,-534.5 227.5,-534.5"/>
<text text-anchor="middle" x="253" y="-579.5" font-family="Helvetica,sans-Serif" font-size="10.00">node_st</text>
<polyline fill="none" stroke="black" points="227.5,-572.5 278.5,-572.5 "/>
<text text-anchor="middle" x="253" y="-560.5" font-family="Helvetica,sans-Serif" font-size="10.00"> </text>
<polyline fill="none" stroke="black" points="227.5,-553.5 278.5,-553.5 "/>
<text text-anchor="middle" x="253" y="-541.5" font-family="Helvetica,sans-Serif" font-size="10.00"> </text>
</a>
</g>
</g>
<!-- Node4&#45;&gt;Node13 -->
<g id="edge16" class="edge"><title>Node4&#45;&gt;Node13</title>
<path fill="none" stroke="#404040" d="M95.2639,-649.119C106.529,-638.019 120.695,-625.364 135,-616 160.318,-599.428 191.795,-585.859 215.87,-576.743"/>
<polygon fill="none" stroke="#404040" points="216.112,-576.654 220.361,-570.828 227.373,-572.51 223.124,-578.336 216.112,-576.654"/>
<text text-anchor="middle" x="149" y="-619.5" font-family="Helvetica,sans-Serif" font-size="10.00"> +next</text>
</g>
<!-- Node5 -->
<g id="node5" class="node"><title>Node5</title>
<polygon fill="none" stroke="#bfbfbf" points="156.5,-762.5 156.5,-819.5 185.5,-819.5 185.5,-762.5 156.5,-762.5"/>
<text text-anchor="middle" x="171" y="-807.5" font-family="Helvetica,sans-Serif" font-size="10.00">int</text>
<polyline fill="none" stroke="#bfbfbf" points="156.5,-800.5 185.5,-800.5 "/>
<text text-anchor="middle" x="171" y="-788.5" font-family="Helvetica,sans-Serif" font-size="10.00"> </text>
<polyline fill="none" stroke="#bfbfbf" points="156.5,-781.5 185.5,-781.5 "/>
<text text-anchor="middle" x="171" y="-769.5" font-family="Helvetica,sans-Serif" font-size="10.00"> </text>
</g>
<!-- Node5&#45;&gt;Node4 -->
<g id="edge5" class="edge"><title>Node5&#45;&gt;Node4</title>
<path fill="none" stroke="#404040" d="M156.392,-773.179C142.399,-757.066 120.838,-732.238 103.012,-711.711"/>
<polygon fill="none" stroke="#404040" points="102.993,-711.689 96.0392,-709.782 95.1252,-702.629 102.079,-704.536 102.993,-711.689"/>
<text text-anchor="middle" x="146" y="-730.5" font-family="Helvetica,sans-Serif" font-size="10.00"> +level</text>
</g>
<!-- Node5&#45;&gt;Node13 -->
<g id="edge17" class="edge"><title>Node5&#45;&gt;Node13</title>
<path fill="none" stroke="#404040" d="M169.282,-762.319C168.458,-732.451 170.159,-684.057 186,-646 193.519,-627.935 206.368,-610.717 218.815,-596.764"/>
<polygon fill="none" stroke="#404040" points="219.119,-596.438 220.281,-589.321 227.297,-587.656 226.135,-594.773 219.119,-596.438"/>
<text text-anchor="middle" x="201" y="-672.5" font-family="Helvetica,sans-Serif" font-size="10.00"> +level</text>
</g>
<!-- Node6 -->
<g id="node6" class="node"><title>Node6</title>
<g id="a_node6"><a xlink:href="structNodeDesc.html" target="_top" xlink:title="{NodeDesc\n||+ NodeDesc()\l}">
<polygon fill="none" stroke="black" points="57,-762.5 57,-819.5 135,-819.5 135,-762.5 57,-762.5"/>
<text text-anchor="middle" x="96" y="-807.5" font-family="Helvetica,sans-Serif" font-size="10.00">NodeDesc</text>
<polyline fill="none" stroke="black" points="57,-800.5 135,-800.5 "/>
<text text-anchor="middle" x="96" y="-788.5" font-family="Helvetica,sans-Serif" font-size="10.00"> </text>
<polyline fill="none" stroke="black" points="57,-781.5 135,-781.5 "/>
<text text-anchor="start" x="65" y="-769.5" font-family="Helvetica,sans-Serif" font-size="10.00">+ NodeDesc()</text>
</a>
</g>
</g>
<!-- Node6&#45;&gt;Node4 -->
<g id="edge6" class="edge"><title>Node6&#45;&gt;Node4</title>
<path fill="none" stroke="#404040" d="M66.6484,-762.407C62.2905,-756.769 58.4467,-750.542 56,-744 52.5948,-734.895 52.8906,-724.825 54.9036,-715.287"/>
<polygon fill="none" stroke="#404040" points="54.9435,-715.146 52.7353,-708.281 58.2225,-703.603 60.4308,-710.467 54.9435,-715.146"/>
<text text-anchor="middle" x="83" y="-730.5" font-family="Helvetica,sans-Serif" font-size="10.00"> +nodeDesc</text>
</g>
<!-- Node7 -->
<g id="node7" class="node"><title>Node7</title>
<g id="a_node7"><a xlink:href="structDesc.html" target="_top" xlink:title="{Desc\n||+ SizeOf()\l}">
<polygon fill="none" stroke="black" points="124,-868.5 124,-925.5 186,-925.5 186,-868.5 124,-868.5"/>
<text text-anchor="middle" x="155" y="-913.5" font-family="Helvetica,sans-Serif" font-size="10.00">Desc</text>
<polyline fill="none" stroke="black" points="124,-906.5 186,-906.5 "/>
<text text-anchor="middle" x="155" y="-894.5" font-family="Helvetica,sans-Serif" font-size="10.00"> </text>
<polyline fill="none" stroke="black" points="124,-887.5 186,-887.5 "/>
<text text-anchor="start" x="132" y="-875.5" font-family="Helvetica,sans-Serif" font-size="10.00">+ SizeOf()</text>
</a>
</g>
</g>
<!-- Node7&#45;&gt;Node6 -->
<g id="edge7" class="edge"><title>Node7&#45;&gt;Node6</title>
<path fill="none" stroke="#404040" d="M139.344,-868.403C132.743,-856.767 124.946,-843.023 117.798,-830.423"/>
<polygon fill="none" stroke="#404040" points="117.65,-830.163 111.211,-826.918 111.729,-819.726 118.169,-822.971 117.65,-830.163"/>
<text text-anchor="middle" x="143.5" y="-841.5" font-family="Helvetica,sans-Serif" font-size="10.00"> +desc</text>
</g>
<!-- Node8 -->
<g id="node8" class="node"><title>Node8</title>
<polygon fill="none" stroke="#bfbfbf" points="125,-1080.5 125,-1137.5 171,-1137.5 171,-1080.5 125,-1080.5"/>
<text text-anchor="middle" x="148" y="-1125.5" font-family="Helvetica,sans-Serif" font-size="10.00">uint8_t</text>
<polyline fill="none" stroke="#bfbfbf" points="125,-1118.5 171,-1118.5 "/>
<text text-anchor="middle" x="148" y="-1106.5" font-family="Helvetica,sans-Serif" font-size="10.00"> </text>
<polyline fill="none" stroke="#bfbfbf" points="125,-1099.5 171,-1099.5 "/>
<text text-anchor="middle" x="148" y="-1087.5" font-family="Helvetica,sans-Serif" font-size="10.00"> </text>
</g>
<!-- Node8&#45;&gt;Node6 -->
<g id="edge12" class="edge"><title>Node8&#45;&gt;Node6</title>
<path fill="none" stroke="#404040" d="M142.636,-1080.31C135.814,-1044.68 123.857,-980.844 115,-926 109.874,-894.261 104.8,-858.169 101.186,-831.445"/>
<polygon fill="none" stroke="#404040" points="101.181,-831.4 96.4183,-825.985 99.585,-819.507 104.347,-824.922 101.181,-831.4"/>
<text text-anchor="middle" x="134" y="-947.5" font-family="Helvetica,sans-Serif" font-size="10.00"> +opid</text>
</g>
<!-- Node8&#45;&gt;Node7 -->
<g id="edge8" class="edge"><title>Node8&#45;&gt;Node7</title>
<path fill="none" stroke="#404040" d="M148.93,-1080.11C150.146,-1043.61 152.287,-979.403 153.673,-937.798"/>
<polygon fill="none" stroke="#404040" points="153.678,-937.661 149.88,-931.531 154.078,-925.667 157.876,-931.797 153.678,-937.661"/>
<text text-anchor="middle" x="171.5" y="-1006" font-family="Helvetica,sans-Serif" font-size="10.00"> +status</text>
<text text-anchor="middle" x="171.5" y="-995" font-family="Helvetica,sans-Serif" font-size="10.00">+size</text>
</g>
<!-- Node9 -->
<g id="node9" class="node"><title>Node9</title>
<g id="a_node9"><a xlink:href="structOperator.html" target="_top" xlink:title="{Operator\n||}">
<polygon fill="none" stroke="black" points="203,-974.5 203,-1031.5 257,-1031.5 257,-974.5 203,-974.5"/>
<text text-anchor="middle" x="230" y="-1019.5" font-family="Helvetica,sans-Serif" font-size="10.00">Operator</text>
<polyline fill="none" stroke="black" points="203,-1012.5 257,-1012.5 "/>
<text text-anchor="middle" x="230" y="-1000.5" font-family="Helvetica,sans-Serif" font-size="10.00"> </text>
<polyline fill="none" stroke="black" points="203,-993.5 257,-993.5 "/>
<text text-anchor="middle" x="230" y="-981.5" font-family="Helvetica,sans-Serif" font-size="10.00"> </text>
</a>
</g>
</g>
<!-- Node8&#45;&gt;Node9 -->
<g id="edge11" class="edge"><title>Node8&#45;&gt;Node9</title>
<path fill="none" stroke="#404040" d="M169.759,-1080.4C179.212,-1068.41 190.428,-1054.19 200.606,-1041.28"/>
<polygon fill="none" stroke="#404040" points="200.709,-1041.15 201.283,-1033.96 208.139,-1031.73 207.565,-1038.91 200.709,-1041.15"/>
<text text-anchor="middle" x="206" y="-1053.5" font-family="Helvetica,sans-Serif" font-size="10.00"> +type</text>
</g>
<!-- Node9&#45;&gt;Node7 -->
<g id="edge9" class="edge"><title>Node9&#45;&gt;Node7</title>
<path fill="none" stroke="#404040" d="M210.098,-974.403C201.538,-962.532 191.395,-948.467 182.159,-935.661"/>
<polygon fill="none" stroke="#404040" points="182.014,-935.459 175.26,-932.932 174.995,-925.726 181.749,-928.253 182.014,-935.459"/>
<text text-anchor="middle" x="207.5" y="-947.5" font-family="Helvetica,sans-Serif" font-size="10.00"> +ops</text>
</g>
<!-- Node10 -->
<g id="node10" class="node"><title>Node10</title>
<polygon fill="none" stroke="#bfbfbf" points="361.5,-1080.5 361.5,-1137.5 412.5,-1137.5 412.5,-1080.5 361.5,-1080.5"/>
<text text-anchor="middle" x="387" y="-1125.5" font-family="Helvetica,sans-Serif" font-size="10.00">uint32_t</text>
<polyline fill="none" stroke="#bfbfbf" points="361.5,-1118.5 412.5,-1118.5 "/>
<text text-anchor="middle" x="387" y="-1106.5" font-family="Helvetica,sans-Serif" font-size="10.00"> </text>
<polyline fill="none" stroke="#bfbfbf" points="361.5,-1099.5 412.5,-1099.5 "/>
<text text-anchor="middle" x="387" y="-1087.5" font-family="Helvetica,sans-Serif" font-size="10.00"> </text>
</g>
<!-- Node10&#45;&gt;Node2 -->
<g id="edge22" class="edge"><title>Node10&#45;&gt;Node2</title>
<path fill="none" stroke="#404040" d="M412.167,-1080.19C427.436,-1060.41 444,-1032.41 444,-1004 444,-1004 444,-1004 444,-422 444,-391.794 447.119,-359.064 451.108,-329.556"/>
<polygon fill="none" stroke="#404040" points="451.124,-329.441 448.002,-322.941 452.8,-317.558 455.923,-324.058 451.124,-329.441"/>
<text text-anchor="middle" x="488.5" y="-736" font-family="Helvetica,sans-Serif" font-size="10.00"> &#45;g_count_abort</text>
<text text-anchor="middle" x="488.5" y="-725" font-family="Helvetica,sans-Serif" font-size="10.00">&#45;g_count_fake_abort</text>
</g>
<!-- Node10&#45;&gt;Node9 -->
<g id="edge10" class="edge"><title>Node10&#45;&gt;Node9</title>
<path fill="none" stroke="#404040" d="M361.426,-1091.06C335.888,-1074.14 296.363,-1047.96 267.323,-1028.72"/>
<polygon fill="none" stroke="#404040" points="267.148,-1028.61 259.937,-1028.63 257.144,-1021.98 264.355,-1021.96 267.148,-1028.61"/>
<text text-anchor="middle" x="326.5" y="-1053.5" font-family="Helvetica,sans-Serif" font-size="10.00"> +key</text>
</g>
<!-- Node11 -->
<g id="node11" class="node"><title>Node11</title>
<polygon fill="none" stroke="#bfbfbf" points="-0.5,-762.5 -0.5,-819.5 34.5,-819.5 34.5,-762.5 -0.5,-762.5"/>
<text text-anchor="middle" x="17" y="-807.5" font-family="Helvetica,sans-Serif" font-size="10.00">long</text>
<polyline fill="none" stroke="#bfbfbf" points="-0.5,-800.5 34.5,-800.5 "/>
<text text-anchor="middle" x="17" y="-788.5" font-family="Helvetica,sans-Serif" font-size="10.00"> </text>
<polyline fill="none" stroke="#bfbfbf" points="-0.5,-781.5 34.5,-781.5 "/>
<text text-anchor="middle" x="17" y="-769.5" font-family="Helvetica,sans-Serif" font-size="10.00"> </text>
</g>
<!-- Node11&#45;&gt;Node4 -->
<g id="edge13" class="edge"><title>Node11&#45;&gt;Node4</title>
<path fill="none" stroke="#404040" d="M21.5999,-762.244C24.3879,-749.529 28.6637,-734.533 35,-722 36.9074,-718.227 39.1608,-714.476 41.5991,-710.837"/>
<polygon fill="none" stroke="#404040" points="41.7424,-710.641 42.0561,-703.437 48.8269,-700.955 48.5132,-708.16 41.7424,-710.641"/>
<text text-anchor="middle" x="42.5" y="-730.5" font-family="Helvetica,sans-Serif" font-size="10.00"> +k</text>
</g>
<!-- Node12 -->
<g id="node12" class="node"><title>Node12</title>
<polygon fill="none" stroke="#bfbfbf" points="311.5,-762.5 311.5,-819.5 352.5,-819.5 352.5,-762.5 311.5,-762.5"/>
<text text-anchor="middle" x="332" y="-807.5" font-family="Helvetica,sans-Serif" font-size="10.00">void *</text>
<polyline fill="none" stroke="#bfbfbf" points="311.5,-800.5 352.5,-800.5 "/>
<text text-anchor="middle" x="332" y="-788.5" font-family="Helvetica,sans-Serif" font-size="10.00"> </text>
<polyline fill="none" stroke="#bfbfbf" points="311.5,-781.5 352.5,-781.5 "/>
<text text-anchor="middle" x="332" y="-769.5" font-family="Helvetica,sans-Serif" font-size="10.00"> </text>
</g>
<!-- Node12&#45;&gt;Node4 -->
<g id="edge14" class="edge"><title>Node12&#45;&gt;Node4</title>
<path fill="none" stroke="#404040" d="M311.163,-780.864C266.481,-761.273 161.083,-715.059 106.344,-691.059"/>
<polygon fill="none" stroke="#404040" points="106.147,-690.972 99.0459,-692.226 95.1572,-686.154 102.258,-684.9 106.147,-690.972"/>
<text text-anchor="middle" x="233.5" y="-730.5" font-family="Helvetica,sans-Serif" font-size="10.00"> +v</text>
</g>
<!-- Node12&#45;&gt;Node13 -->
<g id="edge19" class="edge"><title>Node12&#45;&gt;Node13</title>
<path fill="none" stroke="#404040" d="M352.797,-763.792C356.992,-757.571 361.022,-750.767 364,-744 381.617,-703.966 393.229,-684.78 373,-646 355.717,-612.868 318.271,-590.628 289.775,-577.765"/>
<polygon fill="none" stroke="#404040" points="289.615,-577.697 282.526,-579.016 278.582,-572.979 285.671,-571.66 289.615,-577.697"/>
<text text-anchor="middle" x="391.5" y="-672.5" font-family="Helvetica,sans-Serif" font-size="10.00"> +v</text>
</g>
<!-- Node15 -->
<g id="node15" class="node"><title>Node15</title>
<g id="a_node15"><a xlink:href="structstm__blk__st.html" target="_top" xlink:title="{stm_blk_st\n||}">
<polygon fill="none" stroke="black" points="299.5,-646.5 299.5,-703.5 364.5,-703.5 364.5,-646.5 299.5,-646.5"/>
<text text-anchor="middle" x="332" y="-691.5" font-family="Helvetica,sans-Serif" font-size="10.00">stm_blk_st</text>
<polyline fill="none" stroke="black" points="299.5,-684.5 364.5,-684.5 "/>
<text text-anchor="middle" x="332" y="-672.5" font-family="Helvetica,sans-Serif" font-size="10.00"> </text>
<polyline fill="none" stroke="black" points="299.5,-665.5 364.5,-665.5 "/>
<text text-anchor="middle" x="332" y="-653.5" font-family="Helvetica,sans-Serif" font-size="10.00"> </text>
</a>
</g>
</g>
<!-- Node12&#45;&gt;Node15 -->
<g id="edge21" class="edge"><title>Node12&#45;&gt;Node15</title>
<path fill="none" stroke="#404040" d="M332,-762.404C332,-748.504 332,-731.392 332,-716.073"/>
<polygon fill="none" stroke="#404040" points="332,-715.737 328,-709.737 332,-703.737 336,-709.737 332,-715.737"/>
<text text-anchor="middle" x="346" y="-730.5" font-family="Helvetica,sans-Serif" font-size="10.00"> +data</text>
</g>
<!-- Node13&#45;&gt;Node3 -->
<g id="edge15" class="edge"><title>Node13&#45;&gt;Node3</title>
<path fill="none" stroke="#404040" d="M253,-534.405C253,-514.191 253,-486.454 253,-463.839"/>
<polygon fill="none" stroke="#404040" points="253,-463.547 249,-457.547 253,-451.547 257,-457.547 253,-463.547"/>
<text text-anchor="middle" x="268.5" y="-501.5" font-family="Helvetica,sans-Serif" font-size="10.00"> +head</text>
</g>
<!-- Node14 -->
<g id="node14" class="node"><title>Node14</title>
<polygon fill="none" stroke="#bfbfbf" points="225,-646.5 225,-703.5 281,-703.5 281,-646.5 225,-646.5"/>
<text text-anchor="middle" x="253" y="-691.5" font-family="Helvetica,sans-Serif" font-size="10.00">unsigned</text>
<polyline fill="none" stroke="#bfbfbf" points="225,-684.5 281,-684.5 "/>
<text text-anchor="middle" x="253" y="-672.5" font-family="Helvetica,sans-Serif" font-size="10.00"> </text>
<polyline fill="none" stroke="#bfbfbf" points="225,-665.5 281,-665.5 "/>
<text text-anchor="middle" x="253" y="-653.5" font-family="Helvetica,sans-Serif" font-size="10.00"> </text>
</g>
<!-- Node14&#45;&gt;Node13 -->
<g id="edge18" class="edge"><title>Node14&#45;&gt;Node13</title>
<path fill="none" stroke="#404040" d="M253,-646.242C253,-633.475 253,-618.088 253,-604.094"/>
<polygon fill="none" stroke="#404040" points="253,-603.749 249,-597.749 253,-591.749 257,-597.749 253,-603.749"/>
<text text-anchor="middle" x="260.5" y="-619.5" font-family="Helvetica,sans-Serif" font-size="10.00"> +k</text>
</g>
<!-- Node15&#45;&gt;Node13 -->
<g id="edge20" class="edge"><title>Node15&#45;&gt;Node13</title>
<path fill="none" stroke="#404040" d="M312.065,-646.242C302.335,-632.694 290.485,-616.195 279.961,-601.54"/>
<polygon fill="none" stroke="#404040" points="279.929,-601.496 273.18,-598.956 272.929,-591.749 279.678,-594.289 279.929,-601.496"/>
<text text-anchor="middle" x="312" y="-619.5" font-family="Helvetica,sans-Serif" font-size="10.00"> +next</text>
</g>
<!-- Node16 -->
<g id="node16" class="node"><title>Node16</title>
<g id="a_node16"><a xlink:href="classLockKey.html" target="_top" xlink:title="{LockKey\n||+ LockKey()\l+ ~LockKey()\l+ Init()\l+ Uninit()\l+ Lock()\l+ Unlock()\l}">
<polygon fill="none" stroke="black" points="484,-367 484,-479 560,-479 560,-367 484,-367"/>
<text text-anchor="middle" x="522" y="-467" font-family="Helvetica,sans-Serif" font-size="10.00">LockKey</text>
<polyline fill="none" stroke="black" points="484,-460 560,-460 "/>
<text text-anchor="middle" x="522" y="-448" font-family="Helvetica,sans-Serif" font-size="10.00"> </text>
<polyline fill="none" stroke="black" points="484,-441 560,-441 "/>
<text text-anchor="start" x="492" y="-429" font-family="Helvetica,sans-Serif" font-size="10.00">+ LockKey()</text>
<text text-anchor="start" x="492" y="-418" font-family="Helvetica,sans-Serif" font-size="10.00">+ ~LockKey()</text>
<text text-anchor="start" x="492" y="-407" font-family="Helvetica,sans-Serif" font-size="10.00">+ Init()</text>
<text text-anchor="start" x="492" y="-396" font-family="Helvetica,sans-Serif" font-size="10.00">+ Uninit()</text>
<text text-anchor="start" x="492" y="-385" font-family="Helvetica,sans-Serif" font-size="10.00">+ Lock()</text>
<text text-anchor="start" x="492" y="-374" font-family="Helvetica,sans-Serif" font-size="10.00">+ Unlock()</text>
</a>
</g>
</g>
<!-- Node16&#45;&gt;Node2 -->
<g id="edge23" class="edge"><title>Node16&#45;&gt;Node2</title>
<path fill="none" stroke="#404040" d="M506.09,-366.905C502.684,-355.11 498.993,-342.328 495.295,-329.52"/>
<polygon fill="none" stroke="#404040" points="495.233,-329.307 489.725,-324.652 491.904,-317.778 497.411,-322.433 495.233,-329.307"/>
<text text-anchor="middle" x="519" y="-339.5" font-family="Helvetica,sans-Serif" font-size="10.00"> &#45;m_lock</text>
</g>
<!-- Node17 -->
<g id="node17" class="node"><title>Node17</title>
<polygon fill="none" stroke="#bfbfbf" points="615.5,-534.5 615.5,-591.5 742.5,-591.5 742.5,-534.5 615.5,-534.5"/>
<text text-anchor="middle" x="679" y="-579.5" font-family="Helvetica,sans-Serif" font-size="10.00">static __thread LockSet *</text>
<polyline fill="none" stroke="#bfbfbf" points="615.5,-572.5 742.5,-572.5 "/>
<text text-anchor="middle" x="679" y="-560.5" font-family="Helvetica,sans-Serif" font-size="10.00"> </text>
<polyline fill="none" stroke="#bfbfbf" points="615.5,-553.5 742.5,-553.5 "/>
<text text-anchor="middle" x="679" y="-541.5" font-family="Helvetica,sans-Serif" font-size="10.00"> </text>
</g>
<!-- Node17&#45;&gt;Node16 -->
<g id="edge24" class="edge"><title>Node17&#45;&gt;Node16</title>
<path fill="none" stroke="#404040" d="M641.517,-534.378C610.957,-511.806 572.313,-483.127 569,-480 568.908,-479.913 568.815,-479.826 568.723,-479.738"/>
<polygon fill="none" stroke="#404040" points="568.671,-479.686 561.602,-478.263 560.196,-471.19 567.266,-472.613 568.671,-479.686"/>
<text text-anchor="middle" x="634.5" y="-501.5" font-family="Helvetica,sans-Serif" font-size="10.00"> &#45;m_lockSet</text>
</g>
<!-- Node18 -->
<g id="node18" class="node"><title>Node18</title>
<polygon fill="none" stroke="#bfbfbf" points="472.5,-529 472.5,-597 597.5,-597 597.5,-529 472.5,-529"/>
<text text-anchor="start" x="480.5" y="-585" font-family="Helvetica,sans-Serif" font-size="10.00">concurrent_hash_map</text>
<text text-anchor="middle" x="535" y="-574" font-family="Helvetica,sans-Serif" font-size="10.00">&lt; uint32_t, LockType * &gt;</text>
<polyline fill="none" stroke="#bfbfbf" points="472.5,-567 597.5,-567 "/>
<text text-anchor="middle" x="535" y="-555" font-family="Helvetica,sans-Serif" font-size="10.00"> </text>
<polyline fill="none" stroke="#bfbfbf" points="472.5,-548 597.5,-548 "/>
<text text-anchor="middle" x="535" y="-536" font-family="Helvetica,sans-Serif" font-size="10.00"> </text>
</g>
<!-- Node18&#45;&gt;Node16 -->
<g id="edge25" class="edge"><title>Node18&#45;&gt;Node16</title>
<path fill="none" stroke="#404040" d="M531.886,-528.946C530.811,-517.529 529.564,-504.292 528.325,-491.144"/>
<polygon fill="none" stroke="#404040" points="528.321,-491.096 523.776,-485.498 527.195,-479.149 531.74,-484.748 528.321,-491.096"/>
<text text-anchor="middle" x="559.5" y="-501.5" font-family="Helvetica,sans-Serif" font-size="10.00"> &#45;m_lockMap</text>
</g>
<!-- Node19 -->
<g id="node19" class="node"><title>Node19</title>
<polygon fill="none" stroke="#bfbfbf" points="578,-394.5 578,-451.5 706,-451.5 706,-394.5 578,-394.5"/>
<text text-anchor="middle" x="642" y="-439.5" font-family="Helvetica,sans-Serif" font-size="10.00">static __thread LogType *</text>
<polyline fill="none" stroke="#bfbfbf" points="578,-432.5 706,-432.5 "/>
<text text-anchor="middle" x="642" y="-420.5" font-family="Helvetica,sans-Serif" font-size="10.00"> </text>
<polyline fill="none" stroke="#bfbfbf" points="578,-413.5 706,-413.5 "/>
<text text-anchor="middle" x="642" y="-401.5" font-family="Helvetica,sans-Serif" font-size="10.00"> </text>
</g>
<!-- Node19&#45;&gt;Node2 -->
<g id="edge26" class="edge"><title>Node19&#45;&gt;Node2</title>
<path fill="none" stroke="#404040" d="M616.326,-394.408C593.254,-369.613 558.476,-332.236 528.394,-299.906"/>
<polygon fill="none" stroke="#404040" points="528.222,-299.721 521.206,-298.053 520.047,-290.936 527.063,-292.604 528.222,-299.721"/>
<text text-anchor="middle" x="587.5" y="-339.5" font-family="Helvetica,sans-Serif" font-size="10.00"> &#45;m_log</text>
</g>
</g>
</svg>
        <g id="navigator" transform="translate(0 0)" fill="#404254">
                <rect fill="#f2f5e9" fill-opacity="0.5" stroke="#606060" stroke-width=".5" x="0" y="0" width="60" height="60"/>
                <use id="zoomplus" xlink:href="#zoomPlus" x="17" y="9" onmousedown="handleZoom(evt,'in')"/>
                <use id="zoomminus" xlink:href="#zoomMin" x="42" y="9" onmousedown="handleZoom(evt,'out')"/>
                <use id="reset" xlink:href="#resetDef" x="30" y="36" onmousedown="handleReset()"/>
                <g id="arrowUp" xlink:href="#dirArrow" transform="translate(30 24)" onmousedown="handlePan(0,-1)">
                  <use xlink:href="#rim" fill="#404040">
                        <set attributeName="fill" to="#808080" begin="arrowUp.mouseover" end="arrowUp.mouseout"/>
                  </use>
                  <path fill="none" stroke="white" stroke-width="1.5" d="M0,-3.0v7 M-2.5,-0.5L0,-3.0L2.5,-0.5"/>
                </g>
                <g id="arrowRight" xlink:href="#dirArrow" transform="rotate(90) translate(36 -43)" onmousedown="handlePan(1,0)">
                  <use xlink:href="#rim" fill="#404040">
                        <set attributeName="fill" to="#808080" begin="arrowRight.mouseover" end="arrowRight.mouseout"/>
                  </use>
                  <path fill="none" stroke="white" stroke-width="1.5" d="M0,-3.0v7 M-2.5,-0.5L0,-3.0L2.5,-0.5"/>
                </g>
                <g id="arrowDown" xlink:href="#dirArrow" transform="rotate(180) translate(-30 -48)" onmousedown="handlePan(0,1)">
                  <use xlink:href="#rim" fill="#404040">
                        <set attributeName="fill" to="#808080" begin="arrowDown.mouseover" end="arrowDown.mouseout"/>
                  </use>
                  <path fill="none" stroke="white" stroke-width="1.5" d="M0,-3.0v7 M-2.5,-0.5L0,-3.0L2.5,-0.5"/>
                </g>
                <g id="arrowLeft" xlink:href="#dirArrow" transform="rotate(270) translate(-36 17)" onmousedown="handlePan(-1,0)">
                  <use xlink:href="#rim" fill="#404040">
                        <set attributeName="fill" to="#808080" begin="arrowLeft.mouseover" end="arrowLeft.mouseout"/>
                  </use>
                  <path fill="none" stroke="white" stroke-width="1.5" d="M0,-3.0v7 M-2.5,-0.5L0,-3.0L2.5,-0.5"/>
                </g>
        </g>
        <svg viewBox="0 0 15 15" width="100%" height="30px" preserveAspectRatio="xMaxYMin meet">
         <g id="arrow_out" transform="scale(0.3 0.3)">
          <a xlink:href="classSetAdaptor_3_01BoostingSkip_01_4__coll__graph_org.svg" target="_base">
           <rect id="button" ry="5" rx="5" y="6" x="6" height="38" width="38"
                fill="#f2f5e9" fill-opacity="0.5" stroke="#606060" stroke-width="1.0"/>
           <path id="arrow"
             d="M 11.500037,31.436501 C 11.940474,20.09759 22.043105,11.32322 32.158766,21.979434 L 37.068811,17.246167 C 37.068811,17.246167 37.088388,32 37.088388,32 L 22.160133,31.978069 C 22.160133,31.978069 26.997745,27.140456 26.997745,27.140456 C 18.528582,18.264221 13.291696,25.230495 11.500037,31.436501 z"
             style="fill:#404040;"/>
          </a>
         </g>
        </svg>
</svg>
