<?xml version="1.0" encoding="UTF-8" standalone="no"?>
<!DOCTYPE svg PUBLIC "-//W3C//DTD SVG 1.1//EN"
 "http://www.w3.org/Graphics/SVG/1.1/DTD/svg11.dtd">
<!-- Generated by graphviz version 2.36.0 (20140111.2315)
 -->
<!-- Title: TransList Pages: 1 -->
<!--zoomable 926 -->
<svg id="main" version="1.1" xmlns="http://www.w3.org/2000/svg" xmlns:xlink="http://www.w3.org/1999/xlink" xml:space="preserve" onload="init(evt)">
<style type="text/css"><![CDATA[
.edge:hover path { stroke: red; }
.edge:hover polygon { stroke: red; fill: red; }
]]></style>
<script type="text/javascript"><![CDATA[
var edges = document.getElementsByTagName('g');
if (edges && edges.length) {
  for (var i=0;i<edges.length;i++) {
    if (edges[i].id.substr(0,4)=='edge') {
      edges[i].setAttribute('class','edge');
    }
  }
}
]]></script>
        <defs>
                <circle id="rim" cx="0" cy="0" r="7"/>
                <circle id="rim2" cx="0" cy="0" r="3.5"/>
                <g id="zoomPlus">
                        <use xlink:href="#rim" fill="#404040">
                                <set attributeName="fill" to="#808080" begin="zoomplus.mouseover" end="zoomplus.mouseout"/>
                        </use>
                        <path d="M-4,0h8M0,-4v8" fill="none" stroke="white" stroke-width="1.5" pointer-events="none"/>
                </g>
                <g id="zoomMin">
                        <use xlink:href="#rim" fill="#404040">
                                <set attributeName="fill" to="#808080" begin="zoomminus.mouseover" end="zoomminus.mouseout"/>
                        </use>
                        <path d="M-4,0h8" fill="none" stroke="white" stroke-width="1.5" pointer-events="none"/>
                </g>
                <g id="dirArrow">
                        <path fill="none" stroke="white" stroke-width="1.5" d="M0,-3.0v7 M-2.5,-0.5L0,-3.0L2.5,-0.5"/>
                </g>
               <g id="resetDef">
                       <use xlink:href="#rim2" fill="#404040">
                               <set attributeName="fill" to="#808080" begin="reset.mouseover" end="reset.mouseout"/>
                       </use>
               </g>
        </defs>

<script type="text/javascript">
var viewWidth = 1024;
var viewHeight = 926;
var sectionId = 'dynsection-0';
</script>
<script xlink:href="svgpan.js"/>
<svg id="graph" class="graph">
<g id="viewport">
<title>TransList</title>
<!-- Node1 -->
<g id="node1" class="node"><title>Node1</title>
<polygon fill="#bfbfbf" stroke="black" points="539.122,-0.5 539.122,-233.5 646.122,-233.5 646.122,-0.5 539.122,-0.5"/>
<text text-anchor="middle" x="592.622" y="-221.5" font-family="Helvetica,sans-Serif" font-size="10.00">TransList</text>
<polyline fill="none" stroke="black" points="539.122,-214.5 646.122,-214.5 "/>
<text text-anchor="middle" x="592.622" y="-202.5" font-family="Helvetica,sans-Serif" font-size="10.00"> </text>
<polyline fill="none" stroke="black" points="539.122,-195.5 646.122,-195.5 "/>
<text text-anchor="start" x="547.122" y="-183.5" font-family="Helvetica,sans-Serif" font-size="10.00">+ TransList()</text>
<text text-anchor="start" x="547.122" y="-172.5" font-family="Helvetica,sans-Serif" font-size="10.00">+ ~TransList()</text>
<text text-anchor="start" x="547.122" y="-161.5" font-family="Helvetica,sans-Serif" font-size="10.00">+ ExecuteOps()</text>
<text text-anchor="start" x="547.122" y="-150.5" font-family="Helvetica,sans-Serif" font-size="10.00">+ AllocateDesc()</text>
<text text-anchor="start" x="547.122" y="-139.5" font-family="Helvetica,sans-Serif" font-size="10.00">&#45; Insert()</text>
<text text-anchor="start" x="547.122" y="-128.5" font-family="Helvetica,sans-Serif" font-size="10.00">&#45; Delete()</text>
<text text-anchor="start" x="547.122" y="-117.5" font-family="Helvetica,sans-Serif" font-size="10.00">&#45; Find()</text>
<text text-anchor="start" x="547.122" y="-106.5" font-family="Helvetica,sans-Serif" font-size="10.00">&#45; HelpOps()</text>
<text text-anchor="start" x="547.122" y="-95.5" font-family="Helvetica,sans-Serif" font-size="10.00">&#45; IsSameOperation()</text>
<text text-anchor="start" x="547.122" y="-84.5" font-family="Helvetica,sans-Serif" font-size="10.00">&#45; FinishPendingTxn()</text>
<text text-anchor="start" x="547.122" y="-73.5" font-family="Helvetica,sans-Serif" font-size="10.00">&#45; IsNodeExist()</text>
<text text-anchor="start" x="547.122" y="-62.5" font-family="Helvetica,sans-Serif" font-size="10.00">&#45; IsNodeActive()</text>
<text text-anchor="start" x="547.122" y="-51.5" font-family="Helvetica,sans-Serif" font-size="10.00">&#45; IsKeyExist()</text>
<text text-anchor="start" x="547.122" y="-40.5" font-family="Helvetica,sans-Serif" font-size="10.00">&#45; LocatePred()</text>
<text text-anchor="start" x="547.122" y="-29.5" font-family="Helvetica,sans-Serif" font-size="10.00">&#45; MarkForDeletion()</text>
<text text-anchor="start" x="547.122" y="-18.5" font-family="Helvetica,sans-Serif" font-size="10.00">&#45; Print()</text>
<text text-anchor="start" x="547.122" y="-7.5" font-family="Helvetica,sans-Serif" font-size="10.00">&#45; ASSERT_CODE()</text>
</g>
<!-- Node2 -->
<g id="node2" class="node"><title>Node2</title>
<g id="a_node2"><a xlink:href="classAllocator.html" target="_top" xlink:title="{Allocator\&lt; TransList\l::Desc \&gt;\n||+ Allocator()\l+ ~Allocator()\l+ Init()\l+ Uninit()\l+ Alloc()\l}">
<polygon fill="none" stroke="black" points="106.622,-293 106.622,-405 210.622,-405 210.622,-293 106.622,-293"/>
<text text-anchor="start" x="114.622" y="-393" font-family="Helvetica,sans-Serif" font-size="10.00">Allocator&lt; TransList</text>
<text text-anchor="middle" x="158.622" y="-382" font-family="Helvetica,sans-Serif" font-size="10.00">::Desc &gt;</text>
<polyline fill="none" stroke="black" points="106.622,-375 210.622,-375 "/>
<text text-anchor="middle" x="158.622" y="-363" font-family="Helvetica,sans-Serif" font-size="10.00"> </text>
<polyline fill="none" stroke="black" points="106.622,-356 210.622,-356 "/>
<text text-anchor="start" x="114.622" y="-344" font-family="Helvetica,sans-Serif" font-size="10.00">+ Allocator()</text>
<text text-anchor="start" x="114.622" y="-333" font-family="Helvetica,sans-Serif" font-size="10.00">+ ~Allocator()</text>
<text text-anchor="start" x="114.622" y="-322" font-family="Helvetica,sans-Serif" font-size="10.00">+ Init()</text>
<text text-anchor="start" x="114.622" y="-311" font-family="Helvetica,sans-Serif" font-size="10.00">+ Uninit()</text>
<text text-anchor="start" x="114.622" y="-300" font-family="Helvetica,sans-Serif" font-size="10.00">+ Alloc()</text>
</a>
</g>
</g>
<!-- Node2&#45;&gt;Node1 -->
<g id="edge1" class="edge"><title>Node2&#45;&gt;Node1</title>
<path fill="none" stroke="#404040" d="M210.973,-320.257C290.644,-278.035 442.148,-197.744 528.372,-152.05"/>
<polygon fill="none" stroke="#404040" points="528.463,-152.001 531.892,-145.657 539.066,-146.382 535.638,-152.726 528.463,-152.001"/>
<text text-anchor="middle" x="377.122" y="-260.5" font-family="Helvetica,sans-Serif" font-size="10.00"> &#45;m_descAllocator</text>
</g>
<!-- Node3 -->
<g id="node3" class="node"><title>Node3</title>
<polygon fill="none" stroke="#bfbfbf" points="183.122,-648.5 183.122,-705.5 234.122,-705.5 234.122,-648.5 183.122,-648.5"/>
<text text-anchor="middle" x="208.622" y="-693.5" font-family="Helvetica,sans-Serif" font-size="10.00">uint64_t</text>
<polyline fill="none" stroke="#bfbfbf" points="183.122,-686.5 234.122,-686.5 "/>
<text text-anchor="middle" x="208.622" y="-674.5" font-family="Helvetica,sans-Serif" font-size="10.00"> </text>
<polyline fill="none" stroke="#bfbfbf" points="183.122,-667.5 234.122,-667.5 "/>
<text text-anchor="middle" x="208.622" y="-655.5" font-family="Helvetica,sans-Serif" font-size="10.00"> </text>
</g>
<!-- Node3&#45;&gt;Node2 -->
<g id="edge2" class="edge"><title>Node3&#45;&gt;Node2</title>
<path fill="none" stroke="#404040" d="M182.871,-670.066C137.291,-657.919 44.4078,-625.315 14.6222,-556 -3.27554,-514.349 -6.01589,-494.363 14.6222,-454 31.7646,-420.474 65.3139,-395.27 95.7192,-378.076"/>
<polygon fill="none" stroke="#404040" points="95.7638,-378.052 99.1293,-371.674 106.311,-372.328 102.945,-378.705 95.7638,-378.052"/>
<text text-anchor="middle" x="49.6222" y="-524.5" font-family="Helvetica,sans-Serif" font-size="10.00"> &#45;m_freeIndex</text>
<text text-anchor="middle" x="49.6222" y="-513.5" font-family="Helvetica,sans-Serif" font-size="10.00">&#45;m_ticket</text>
<text text-anchor="middle" x="49.6222" y="-502.5" font-family="Helvetica,sans-Serif" font-size="10.00">&#45;m_threadCount</text>
<text text-anchor="middle" x="49.6222" y="-491.5" font-family="Helvetica,sans-Serif" font-size="10.00">&#45;m_typeSize</text>
<text text-anchor="middle" x="49.6222" y="-480.5" font-family="Helvetica,sans-Serif" font-size="10.00">&#45;m_totalBytes</text>
</g>
<!-- Node5 -->
<g id="node5" class="node"><title>Node5</title>
<g id="a_node5"><a xlink:href="classAllocator.html" target="_top" xlink:title="{Allocator\&lt; DataType \&gt;\n||+ Allocator()\l+ ~Allocator()\l+ Init()\l+ Uninit()\l+ Alloc()\l}">
<polygon fill="none" stroke="black" points="271.622,-454.5 271.622,-555.5 387.622,-555.5 387.622,-454.5 271.622,-454.5"/>
<text text-anchor="middle" x="329.622" y="-543.5" font-family="Helvetica,sans-Serif" font-size="10.00">Allocator&lt; DataType &gt;</text>
<polyline fill="none" stroke="black" points="271.622,-536.5 387.622,-536.5 "/>
<text text-anchor="middle" x="329.622" y="-524.5" font-family="Helvetica,sans-Serif" font-size="10.00"> </text>
<polyline fill="none" stroke="black" points="271.622,-517.5 387.622,-517.5 "/>
<text text-anchor="start" x="279.622" y="-505.5" font-family="Helvetica,sans-Serif" font-size="10.00">+ Allocator()</text>
<text text-anchor="start" x="279.622" y="-494.5" font-family="Helvetica,sans-Serif" font-size="10.00">+ ~Allocator()</text>
<text text-anchor="start" x="279.622" y="-483.5" font-family="Helvetica,sans-Serif" font-size="10.00">+ Init()</text>
<text text-anchor="start" x="279.622" y="-472.5" font-family="Helvetica,sans-Serif" font-size="10.00">+ Uninit()</text>
<text text-anchor="start" x="279.622" y="-461.5" font-family="Helvetica,sans-Serif" font-size="10.00">+ Alloc()</text>
</a>
</g>
</g>
<!-- Node3&#45;&gt;Node5 -->
<g id="edge5" class="edge"><title>Node3&#45;&gt;Node5</title>
<path fill="none" stroke="#404040" d="M228.107,-648.242C242.552,-627.701 262.75,-599.059 280.622,-574 282.603,-571.223 284.631,-568.385 286.682,-565.52"/>
<polygon fill="none" stroke="#404040" points="286.713,-565.476 286.959,-558.27 293.706,-555.725 293.46,-562.932 286.713,-565.476"/>
<text text-anchor="middle" x="315.622" y="-621.5" font-family="Helvetica,sans-Serif" font-size="10.00"> &#45;m_freeIndex</text>
<text text-anchor="middle" x="315.622" y="-610.5" font-family="Helvetica,sans-Serif" font-size="10.00">&#45;m_ticket</text>
<text text-anchor="middle" x="315.622" y="-599.5" font-family="Helvetica,sans-Serif" font-size="10.00">&#45;m_threadCount</text>
<text text-anchor="middle" x="315.622" y="-588.5" font-family="Helvetica,sans-Serif" font-size="10.00">&#45;m_typeSize</text>
<text text-anchor="middle" x="315.622" y="-577.5" font-family="Helvetica,sans-Serif" font-size="10.00">&#45;m_totalBytes</text>
</g>
<!-- Node6 -->
<g id="node6" class="node"><title>Node6</title>
<g id="a_node6"><a xlink:href="classAllocator.html" target="_top" xlink:title="{Allocator\&lt; TransList\l::Node \&gt;\n||+ Allocator()\l+ ~Allocator()\l+ Init()\l+ Uninit()\l+ Alloc()\l}">
<polygon fill="none" stroke="black" points="328.622,-293 328.622,-405 432.622,-405 432.622,-293 328.622,-293"/>
<text text-anchor="start" x="336.622" y="-393" font-family="Helvetica,sans-Serif" font-size="10.00">Allocator&lt; TransList</text>
<text text-anchor="middle" x="380.622" y="-382" font-family="Helvetica,sans-Serif" font-size="10.00">::Node &gt;</text>
<polyline fill="none" stroke="black" points="328.622,-375 432.622,-375 "/>
<text text-anchor="middle" x="380.622" y="-363" font-family="Helvetica,sans-Serif" font-size="10.00"> </text>
<polyline fill="none" stroke="black" points="328.622,-356 432.622,-356 "/>
<text text-anchor="start" x="336.622" y="-344" font-family="Helvetica,sans-Serif" font-size="10.00">+ Allocator()</text>
<text text-anchor="start" x="336.622" y="-333" font-family="Helvetica,sans-Serif" font-size="10.00">+ ~Allocator()</text>
<text text-anchor="start" x="336.622" y="-322" font-family="Helvetica,sans-Serif" font-size="10.00">+ Init()</text>
<text text-anchor="start" x="336.622" y="-311" font-family="Helvetica,sans-Serif" font-size="10.00">+ Uninit()</text>
<text text-anchor="start" x="336.622" y="-300" font-family="Helvetica,sans-Serif" font-size="10.00">+ Alloc()</text>
</a>
</g>
</g>
<!-- Node3&#45;&gt;Node6 -->
<g id="edge8" class="edge"><title>Node3&#45;&gt;Node6</title>
<path fill="none" stroke="#404040" d="M200.18,-648.241C188.579,-605.444 171.421,-521.259 192.622,-454 209.111,-401.692 268.68,-375.162 316.402,-362.055"/>
<polygon fill="none" stroke="#404040" points="316.625,-361.998 321.437,-356.627 328.245,-359.004 323.433,-364.375 316.625,-361.998"/>
<text text-anchor="middle" x="227.622" y="-524.5" font-family="Helvetica,sans-Serif" font-size="10.00"> &#45;m_freeIndex</text>
<text text-anchor="middle" x="227.622" y="-513.5" font-family="Helvetica,sans-Serif" font-size="10.00">&#45;m_ticket</text>
<text text-anchor="middle" x="227.622" y="-502.5" font-family="Helvetica,sans-Serif" font-size="10.00">&#45;m_threadCount</text>
<text text-anchor="middle" x="227.622" y="-491.5" font-family="Helvetica,sans-Serif" font-size="10.00">&#45;m_typeSize</text>
<text text-anchor="middle" x="227.622" y="-480.5" font-family="Helvetica,sans-Serif" font-size="10.00">&#45;m_totalBytes</text>
</g>
<!-- Node8 -->
<g id="node8" class="node"><title>Node8</title>
<g id="a_node8"><a xlink:href="classAllocator.html" target="_top" xlink:title="{Allocator\&lt; TransList\l::NodeDesc \&gt;\n||+ Allocator()\l+ ~Allocator()\l+ Init()\l+ Uninit()\l+ Alloc()\l}">
<polygon fill="none" stroke="black" points="540.622,-293 540.622,-405 644.622,-405 644.622,-293 540.622,-293"/>
<text text-anchor="start" x="548.622" y="-393" font-family="Helvetica,sans-Serif" font-size="10.00">Allocator&lt; TransList</text>
<text text-anchor="middle" x="592.622" y="-382" font-family="Helvetica,sans-Serif" font-size="10.00">::NodeDesc &gt;</text>
<polyline fill="none" stroke="black" points="540.622,-375 644.622,-375 "/>
<text text-anchor="middle" x="592.622" y="-363" font-family="Helvetica,sans-Serif" font-size="10.00"> </text>
<polyline fill="none" stroke="black" points="540.622,-356 644.622,-356 "/>
<text text-anchor="start" x="548.622" y="-344" font-family="Helvetica,sans-Serif" font-size="10.00">+ Allocator()</text>
<text text-anchor="start" x="548.622" y="-333" font-family="Helvetica,sans-Serif" font-size="10.00">+ ~Allocator()</text>
<text text-anchor="start" x="548.622" y="-322" font-family="Helvetica,sans-Serif" font-size="10.00">+ Init()</text>
<text text-anchor="start" x="548.622" y="-311" font-family="Helvetica,sans-Serif" font-size="10.00">+ Uninit()</text>
<text text-anchor="start" x="548.622" y="-300" font-family="Helvetica,sans-Serif" font-size="10.00">+ Alloc()</text>
</a>
</g>
</g>
<!-- Node3&#45;&gt;Node8 -->
<g id="edge13" class="edge"><title>Node3&#45;&gt;Node8</title>
<path fill="none" stroke="#404040" d="M234.348,-673.237C270.833,-668.51 338.92,-656.667 390.622,-630 435.737,-606.731 449.592,-598.321 477.622,-556 503.858,-516.388 475.275,-486.828 509.622,-454 532.223,-432.399 556.488,-459.037 577.622,-436 582.671,-430.496 586.333,-423.924 588.953,-416.9"/>
<polygon fill="none" stroke="#404040" points="589.011,-416.698 586.84,-409.822 592.352,-405.173 594.524,-412.049 589.011,-416.698"/>
<text text-anchor="middle" x="544.622" y="-524.5" font-family="Helvetica,sans-Serif" font-size="10.00"> &#45;m_freeIndex</text>
<text text-anchor="middle" x="544.622" y="-513.5" font-family="Helvetica,sans-Serif" font-size="10.00">&#45;m_ticket</text>
<text text-anchor="middle" x="544.622" y="-502.5" font-family="Helvetica,sans-Serif" font-size="10.00">&#45;m_threadCount</text>
<text text-anchor="middle" x="544.622" y="-491.5" font-family="Helvetica,sans-Serif" font-size="10.00">&#45;m_typeSize</text>
<text text-anchor="middle" x="544.622" y="-480.5" font-family="Helvetica,sans-Serif" font-size="10.00">&#45;m_totalBytes</text>
</g>
<!-- Node4 -->
<g id="node4" class="node"><title>Node4</title>
<polygon fill="none" stroke="#bfbfbf" points="372.122,-648.5 372.122,-705.5 407.122,-705.5 407.122,-648.5 372.122,-648.5"/>
<text text-anchor="middle" x="389.622" y="-693.5" font-family="Helvetica,sans-Serif" font-size="10.00">char</text>
<polyline fill="none" stroke="#bfbfbf" points="372.122,-686.5 407.122,-686.5 "/>
<text text-anchor="middle" x="389.622" y="-674.5" font-family="Helvetica,sans-Serif" font-size="10.00"> </text>
<polyline fill="none" stroke="#bfbfbf" points="372.122,-667.5 407.122,-667.5 "/>
<text text-anchor="middle" x="389.622" y="-655.5" font-family="Helvetica,sans-Serif" font-size="10.00"> </text>
</g>
<!-- Node4&#45;&gt;Node2 -->
<g id="edge3" class="edge"><title>Node4&#45;&gt;Node2</title>
<path fill="none" stroke="#404040" d="M371.868,-674.496C322.322,-669.19 183.205,-646.437 137.622,-556 116.001,-513.104 122.673,-458.864 133.992,-416.809"/>
<polygon fill="none" stroke="#404040" points="134.067,-416.548 131.874,-409.678 137.372,-405.012 139.565,-411.882 134.067,-416.548"/>
<text text-anchor="middle" x="158.122" y="-508" font-family="Helvetica,sans-Serif" font-size="10.00"> &#45;m_base</text>
<text text-anchor="middle" x="158.122" y="-497" font-family="Helvetica,sans-Serif" font-size="10.00">&#45;m_pool</text>
</g>
<!-- Node4&#45;&gt;Node5 -->
<g id="edge6" class="edge"><title>Node4&#45;&gt;Node5</title>
<path fill="none" stroke="#404040" d="M379.849,-648.308C372.12,-626.41 361.039,-595.013 351.25,-567.278"/>
<polygon fill="none" stroke="#404040" points="351.141,-566.971 345.372,-562.644 347.147,-555.655 352.916,-559.981 351.141,-566.971"/>
<text text-anchor="middle" x="393.122" y="-605" font-family="Helvetica,sans-Serif" font-size="10.00"> &#45;m_base</text>
<text text-anchor="middle" x="393.122" y="-594" font-family="Helvetica,sans-Serif" font-size="10.00">&#45;m_pool</text>
</g>
<!-- Node4&#45;&gt;Node6 -->
<g id="edge9" class="edge"><title>Node4&#45;&gt;Node6</title>
<path fill="none" stroke="#404040" d="M407.212,-650.245C410.677,-643.893 413.802,-636.92 415.622,-630 438.914,-541.457 435.682,-513.331 415.622,-424 415.075,-421.563 414.438,-419.111 413.726,-416.659"/>
<polygon fill="none" stroke="#404040" points="413.709,-416.608 408.012,-412.186 409.902,-405.227 415.599,-409.649 413.709,-416.608"/>
<text text-anchor="middle" x="453.122" y="-508" font-family="Helvetica,sans-Serif" font-size="10.00"> &#45;m_base</text>
<text text-anchor="middle" x="453.122" y="-497" font-family="Helvetica,sans-Serif" font-size="10.00">&#45;m_pool</text>
</g>
<!-- Node4&#45;&gt;Node8 -->
<g id="edge14" class="edge"><title>Node4&#45;&gt;Node8</title>
<path fill="none" stroke="#404040" d="M407.367,-670.632C446.374,-657.836 539.6,-621.607 583.622,-556 610.639,-515.736 611.586,-460.411 606.488,-417.234"/>
<polygon fill="none" stroke="#404040" points="606.458,-417.009 601.696,-411.594 604.863,-405.115 609.625,-410.531 606.458,-417.009"/>
<text text-anchor="middle" x="630.122" y="-508" font-family="Helvetica,sans-Serif" font-size="10.00"> &#45;m_base</text>
<text text-anchor="middle" x="630.122" y="-497" font-family="Helvetica,sans-Serif" font-size="10.00">&#45;m_pool</text>
</g>
<!-- Node5&#45;&gt;Node2 -->
<g id="edge4" class="edge"><title>Node5&#45;&gt;Node2</title>
<path fill="none" stroke="orange" d="M262.701,-457.308C260.995,-456.188 259.3,-455.084 257.622,-454 244.562,-445.561 239.337,-446.224 227.622,-436 217.238,-426.938 207.237,-416.17 198.225,-405.374"/>
<polygon fill="orange" stroke="orange" points="261.026,-460.398 271.294,-463.012 264.898,-454.565 261.026,-460.398"/>
<text text-anchor="middle" x="273.122" y="-427.5" font-family="Helvetica,sans-Serif" font-size="10.00"> &lt; TransList::Desc &gt;</text>
</g>
<!-- Node5&#45;&gt;Node6 -->
<g id="edge10" class="edge"><title>Node5&#45;&gt;Node6</title>
<path fill="none" stroke="orange" d="M320.862,-444.084C321.325,-437.208 322.48,-430.382 324.622,-424 326.776,-417.585 329.73,-411.283 333.164,-405.23"/>
<polygon fill="orange" stroke="orange" points="317.362,-444.072 320.644,-454.146 324.36,-444.224 317.362,-444.072"/>
<text text-anchor="middle" x="370.122" y="-427.5" font-family="Helvetica,sans-Serif" font-size="10.00"> &lt; TransList::Node &gt;</text>
</g>
<!-- Node5&#45;&gt;Node8 -->
<g id="edge15" class="edge"><title>Node5&#45;&gt;Node8</title>
<path fill="none" stroke="orange" d="M396.505,-460.773C400.253,-458.461 403.977,-456.19 407.622,-454 451.837,-427.431 503.02,-398.818 540.327,-378.343"/>
<polygon fill="orange" stroke="orange" points="394.386,-457.97 387.743,-466.223 398.083,-463.914 394.386,-457.97"/>
<text text-anchor="middle" x="516.122" y="-427.5" font-family="Helvetica,sans-Serif" font-size="10.00"> &lt; TransList::NodeDesc &gt;</text>
</g>
<!-- Node6&#45;&gt;Node1 -->
<g id="edge7" class="edge"><title>Node6&#45;&gt;Node1</title>
<path fill="none" stroke="#404040" d="M431.402,-292.909C461.2,-260.58 499.077,-219.488 530.629,-185.257"/>
<polygon fill="none" stroke="#404040" points="530.793,-185.079 531.918,-177.957 538.926,-176.256 537.8,-183.379 530.793,-185.079"/>
<text text-anchor="middle" x="508.122" y="-260.5" font-family="Helvetica,sans-Serif" font-size="10.00"> &#45;m_nodeAllocator</text>
</g>
<!-- Node7 -->
<g id="node7" class="node"><title>Node7</title>
<polygon fill="none" stroke="#bfbfbf" points="848.122,-860.5 848.122,-917.5 899.122,-917.5 899.122,-860.5 848.122,-860.5"/>
<text text-anchor="middle" x="873.622" y="-905.5" font-family="Helvetica,sans-Serif" font-size="10.00">uint32_t</text>
<polyline fill="none" stroke="#bfbfbf" points="848.122,-898.5 899.122,-898.5 "/>
<text text-anchor="middle" x="873.622" y="-886.5" font-family="Helvetica,sans-Serif" font-size="10.00"> </text>
<polyline fill="none" stroke="#bfbfbf" points="848.122,-879.5 899.122,-879.5 "/>
<text text-anchor="middle" x="873.622" y="-867.5" font-family="Helvetica,sans-Serif" font-size="10.00"> </text>
</g>
<!-- Node7&#45;&gt;Node1 -->
<g id="edge11" class="edge"><title>Node7&#45;&gt;Node1</title>
<path fill="none" stroke="#404040" d="M896.715,-860.338C910.997,-840.408 926.622,-812.168 926.622,-784 926.622,-784 926.622,-784 926.622,-348 926.622,-218.911 755.289,-156.751 658.048,-131.867"/>
<polygon fill="none" stroke="#404040" points="657.931,-131.838 651.144,-134.274 646.285,-128.946 653.072,-126.51 657.931,-131.838"/>
<text text-anchor="middle" x="971.122" y="-605" font-family="Helvetica,sans-Serif" font-size="10.00"> &#45;g_count_abort</text>
<text text-anchor="middle" x="971.122" y="-594" font-family="Helvetica,sans-Serif" font-size="10.00">&#45;g_count_fake_abort</text>
</g>
<!-- Node9 -->
<g id="node9" class="node"><title>Node9</title>
<g id="a_node9"><a xlink:href="structTransList_1_1Node.html" target="_top" xlink:title="{TransList::Node\n||+ Node()\l+ Node()\l}">
<polygon fill="none" stroke="black" points="688.622,-315 688.622,-383 774.622,-383 774.622,-315 688.622,-315"/>
<text text-anchor="middle" x="731.622" y="-371" font-family="Helvetica,sans-Serif" font-size="10.00">TransList::Node</text>
<polyline fill="none" stroke="black" points="688.622,-364 774.622,-364 "/>
<text text-anchor="middle" x="731.622" y="-352" font-family="Helvetica,sans-Serif" font-size="10.00"> </text>
<polyline fill="none" stroke="black" points="688.622,-345 774.622,-345 "/>
<text text-anchor="start" x="696.622" y="-333" font-family="Helvetica,sans-Serif" font-size="10.00">+ Node()</text>
<text text-anchor="start" x="696.622" y="-322" font-family="Helvetica,sans-Serif" font-size="10.00">+ Node()</text>
</a>
</g>
</g>
<!-- Node7&#45;&gt;Node9 -->
<g id="edge24" class="edge"><title>Node7&#45;&gt;Node9</title>
<path fill="none" stroke="#404040" d="M873.622,-860.191C873.622,-839.245 873.622,-809.819 873.622,-784 873.622,-784 873.622,-784 873.622,-504 873.622,-449.803 825.501,-406.518 785.284,-379.807"/>
<polygon fill="none" stroke="#404040" points="785.1,-379.689 777.89,-379.818 774.998,-373.212 782.208,-373.083 785.1,-379.689"/>
<text text-anchor="middle" x="886.122" y="-674.5" font-family="Helvetica,sans-Serif" font-size="10.00"> +key</text>
</g>
<!-- Node13 -->
<g id="node13" class="node"><title>Node13</title>
<g id="a_node13"><a xlink:href="structTransList_1_1Operator.html" target="_top" xlink:title="{TransList::Operator\n||}">
<polygon fill="none" stroke="black" points="744.122,-754.5 744.122,-811.5 845.122,-811.5 845.122,-754.5 744.122,-754.5"/>
<text text-anchor="middle" x="794.622" y="-799.5" font-family="Helvetica,sans-Serif" font-size="10.00">TransList::Operator</text>
<polyline fill="none" stroke="black" points="744.122,-792.5 845.122,-792.5 "/>
<text text-anchor="middle" x="794.622" y="-780.5" font-family="Helvetica,sans-Serif" font-size="10.00"> </text>
<polyline fill="none" stroke="black" points="744.122,-773.5 845.122,-773.5 "/>
<text text-anchor="middle" x="794.622" y="-761.5" font-family="Helvetica,sans-Serif" font-size="10.00"> </text>
</a>
</g>
</g>
<!-- Node7&#45;&gt;Node13 -->
<g id="edge22" class="edge"><title>Node7&#45;&gt;Node13</title>
<path fill="none" stroke="#404040" d="M849.245,-860.145C844.295,-854.243 839.205,-847.985 834.622,-842 829.626,-835.475 824.497,-828.38 819.649,-821.463"/>
<polygon fill="none" stroke="#404040" points="819.617,-821.417 812.916,-818.755 812.796,-811.545 819.497,-814.207 819.617,-821.417"/>
<text text-anchor="middle" x="847.122" y="-833.5" font-family="Helvetica,sans-Serif" font-size="10.00"> +key</text>
</g>
<!-- Node8&#45;&gt;Node1 -->
<g id="edge12" class="edge"><title>Node8&#45;&gt;Node1</title>
<path fill="none" stroke="#404040" d="M592.622,-292.909C592.622,-278.472 592.622,-262.288 592.622,-245.747"/>
<polygon fill="none" stroke="#404040" points="592.622,-245.659 588.622,-239.659 592.622,-233.659 596.622,-239.659 592.622,-245.659"/>
<text text-anchor="middle" x="644.122" y="-260.5" font-family="Helvetica,sans-Serif" font-size="10.00"> &#45;m_nodeDescAllocator</text>
</g>
<!-- Node9&#45;&gt;Node1 -->
<g id="edge16" class="edge"><title>Node9&#45;&gt;Node1</title>
<path fill="none" stroke="#404040" d="M723.675,-314.819C718.36,-295.758 710.36,-271.758 699.622,-252 687.044,-228.854 670.377,-205.699 653.951,-185.307"/>
<polygon fill="none" stroke="#404040" points="653.794,-185.115 646.896,-183.014 646.182,-175.838 653.081,-177.939 653.794,-185.115"/>
<text text-anchor="middle" x="730.122" y="-266" font-family="Helvetica,sans-Serif" font-size="10.00"> &#45;m_head</text>
<text text-anchor="middle" x="730.122" y="-255" font-family="Helvetica,sans-Serif" font-size="10.00">&#45;m_tail</text>
</g>
<!-- Node9&#45;&gt;Node9 -->
<g id="edge25" class="edge"><title>Node9&#45;&gt;Node9</title>
<path fill="none" stroke="#404040" d="M774.658,-363.735C784.977,-362.584 792.622,-357.672 792.622,-349 792.622,-344.122 790.203,-340.434 786.25,-337.935"/>
<polygon fill="none" stroke="#404040" points="786.098,-337.887 779.171,-339.889 774.658,-334.265 781.586,-332.263 786.098,-337.887"/>
<text text-anchor="middle" x="806.622" y="-346.5" font-family="Helvetica,sans-Serif" font-size="10.00"> +next</text>
</g>
<!-- Node10 -->
<g id="node10" class="node"><title>Node10</title>
<g id="a_node10"><a xlink:href="structTransList_1_1NodeDesc.html" target="_top" xlink:title="{TransList::NodeDesc\n||+ NodeDesc()\l}">
<polygon fill="none" stroke="black" points="676.622,-476.5 676.622,-533.5 786.622,-533.5 786.622,-476.5 676.622,-476.5"/>
<text text-anchor="middle" x="731.622" y="-521.5" font-family="Helvetica,sans-Serif" font-size="10.00">TransList::NodeDesc</text>
<polyline fill="none" stroke="black" points="676.622,-514.5 786.622,-514.5 "/>
<text text-anchor="middle" x="731.622" y="-502.5" font-family="Helvetica,sans-Serif" font-size="10.00"> </text>
<polyline fill="none" stroke="black" points="676.622,-495.5 786.622,-495.5 "/>
<text text-anchor="start" x="684.622" y="-483.5" font-family="Helvetica,sans-Serif" font-size="10.00">+ NodeDesc()</text>
</a>
</g>
</g>
<!-- Node10&#45;&gt;Node9 -->
<g id="edge17" class="edge"><title>Node10&#45;&gt;Node9</title>
<path fill="none" stroke="#404040" d="M731.622,-476.468C731.622,-453.912 731.622,-421.536 731.622,-395.189"/>
<polygon fill="none" stroke="#404040" points="731.622,-395.188 727.622,-389.188 731.622,-383.188 735.622,-389.188 731.622,-395.188"/>
<text text-anchor="middle" x="758.622" y="-427.5" font-family="Helvetica,sans-Serif" font-size="10.00"> +nodeDesc</text>
</g>
<!-- Node11 -->
<g id="node11" class="node"><title>Node11</title>
<polygon fill="none" stroke="#bfbfbf" points="665.622,-860.5 665.622,-917.5 711.622,-917.5 711.622,-860.5 665.622,-860.5"/>
<text text-anchor="middle" x="688.622" y="-905.5" font-family="Helvetica,sans-Serif" font-size="10.00">uint8_t</text>
<polyline fill="none" stroke="#bfbfbf" points="665.622,-898.5 711.622,-898.5 "/>
<text text-anchor="middle" x="688.622" y="-886.5" font-family="Helvetica,sans-Serif" font-size="10.00"> </text>
<polyline fill="none" stroke="#bfbfbf" points="665.622,-879.5 711.622,-879.5 "/>
<text text-anchor="middle" x="688.622" y="-867.5" font-family="Helvetica,sans-Serif" font-size="10.00"> </text>
</g>
<!-- Node11&#45;&gt;Node10 -->
<g id="edge18" class="edge"><title>Node11&#45;&gt;Node10</title>
<path fill="none" stroke="#404040" d="M682.907,-860.198C674.653,-815.016 662.19,-723.142 679.622,-648 687.928,-612.196 702.701,-573.084 714.384,-544.991"/>
<polygon fill="none" stroke="#404040" points="714.499,-544.719 713.152,-537.635 719.174,-533.667 720.52,-540.751 714.499,-544.719"/>
<text text-anchor="middle" x="685.622" y="-727.5" font-family="Helvetica,sans-Serif" font-size="10.00"> +opid</text>
</g>
<!-- Node12 -->
<g id="node12" class="node"><title>Node12</title>
<g id="a_node12"><a xlink:href="structTransList_1_1Desc.html" target="_top" xlink:title="{TransList::Desc\n||+ SizeOf()\l}">
<polygon fill="none" stroke="black" points="688.622,-648.5 688.622,-705.5 774.622,-705.5 774.622,-648.5 688.622,-648.5"/>
<text text-anchor="middle" x="731.622" y="-693.5" font-family="Helvetica,sans-Serif" font-size="10.00">TransList::Desc</text>
<polyline fill="none" stroke="black" points="688.622,-686.5 774.622,-686.5 "/>
<text text-anchor="middle" x="731.622" y="-674.5" font-family="Helvetica,sans-Serif" font-size="10.00"> </text>
<polyline fill="none" stroke="black" points="688.622,-667.5 774.622,-667.5 "/>
<text text-anchor="start" x="696.622" y="-655.5" font-family="Helvetica,sans-Serif" font-size="10.00">+ SizeOf()</text>
</a>
</g>
</g>
<!-- Node11&#45;&gt;Node12 -->
<g id="edge20" class="edge"><title>Node11&#45;&gt;Node12</title>
<path fill="none" stroke="#404040" d="M687.664,-860.359C687.367,-832.955 688.671,-789.976 697.622,-754 700.737,-741.481 705.813,-728.454 711.103,-716.794"/>
<polygon fill="none" stroke="#404040" points="711.245,-716.496 710.211,-709.359 716.401,-705.66 717.435,-712.796 711.245,-716.496"/>
<text text-anchor="middle" x="716.122" y="-786" font-family="Helvetica,sans-Serif" font-size="10.00"> +status</text>
<text text-anchor="middle" x="716.122" y="-775" font-family="Helvetica,sans-Serif" font-size="10.00">+size</text>
</g>
<!-- Node11&#45;&gt;Node13 -->
<g id="edge23" class="edge"><title>Node11&#45;&gt;Node13</title>
<path fill="none" stroke="#404040" d="M711.623,-865.434C725.06,-852.25 742.334,-835.302 757.64,-820.284"/>
<polygon fill="none" stroke="#404040" points="757.816,-820.112 759.297,-813.055 766.381,-811.708 764.9,-818.765 757.816,-820.112"/>
<text text-anchor="middle" x="759.622" y="-833.5" font-family="Helvetica,sans-Serif" font-size="10.00"> +type</text>
</g>
<!-- Node12&#45;&gt;Node10 -->
<g id="edge19" class="edge"><title>Node12&#45;&gt;Node10</title>
<path fill="none" stroke="#404040" d="M731.622,-648.308C731.622,-620.524 731.622,-577.448 731.622,-545.963"/>
<polygon fill="none" stroke="#404040" points="731.622,-545.68 727.622,-539.68 731.622,-533.68 735.622,-539.68 731.622,-545.68"/>
<text text-anchor="middle" x="747.122" y="-599.5" font-family="Helvetica,sans-Serif" font-size="10.00"> +desc</text>
</g>
<!-- Node13&#45;&gt;Node12 -->
<g id="edge21" class="edge"><title>Node13&#45;&gt;Node12</title>
<path fill="none" stroke="#404040" d="M777.905,-754.403C770.785,-742.65 762.362,-728.745 754.667,-716.041"/>
<polygon fill="none" stroke="#404040" points="754.635,-715.99 748.105,-712.93 748.418,-705.726 754.948,-708.785 754.635,-715.99"/>
<text text-anchor="middle" x="778.122" y="-727.5" font-family="Helvetica,sans-Serif" font-size="10.00"> +ops</text>
</g>
</g>
</svg>
        <g id="navigator" transform="translate(0 0)" fill="#404254">
                <rect fill="#f2f5e9" fill-opacity="0.5" stroke="#606060" stroke-width=".5" x="0" y="0" width="60" height="60"/>
                <use id="zoomplus" xlink:href="#zoomPlus" x="17" y="9" onmousedown="handleZoom(evt,'in')"/>
                <use id="zoomminus" xlink:href="#zoomMin" x="42" y="9" onmousedown="handleZoom(evt,'out')"/>
                <use id="reset" xlink:href="#resetDef" x="30" y="36" onmousedown="handleReset()"/>
                <g id="arrowUp" xlink:href="#dirArrow" transform="translate(30 24)" onmousedown="handlePan(0,-1)">
                  <use xlink:href="#rim" fill="#404040">
                        <set attributeName="fill" to="#808080" begin="arrowUp.mouseover" end="arrowUp.mouseout"/>
                  </use>
                  <path fill="none" stroke="white" stroke-width="1.5" d="M0,-3.0v7 M-2.5,-0.5L0,-3.0L2.5,-0.5"/>
                </g>
                <g id="arrowRight" xlink:href="#dirArrow" transform="rotate(90) translate(36 -43)" onmousedown="handlePan(1,0)">
                  <use xlink:href="#rim" fill="#404040">
                        <set attributeName="fill" to="#808080" begin="arrowRight.mouseover" end="arrowRight.mouseout"/>
                  </use>
                  <path fill="none" stroke="white" stroke-width="1.5" d="M0,-3.0v7 M-2.5,-0.5L0,-3.0L2.5,-0.5"/>
                </g>
                <g id="arrowDown" xlink:href="#dirArrow" transform="rotate(180) translate(-30 -48)" onmousedown="handlePan(0,1)">
                  <use xlink:href="#rim" fill="#404040">
                        <set attributeName="fill" to="#808080" begin="arrowDown.mouseover" end="arrowDown.mouseout"/>
                  </use>
                  <path fill="none" stroke="white" stroke-width="1.5" d="M0,-3.0v7 M-2.5,-0.5L0,-3.0L2.5,-0.5"/>
                </g>
                <g id="arrowLeft" xlink:href="#dirArrow" transform="rotate(270) translate(-36 17)" onmousedown="handlePan(-1,0)">
                  <use xlink:href="#rim" fill="#404040">
                        <set attributeName="fill" to="#808080" begin="arrowLeft.mouseover" end="arrowLeft.mouseout"/>
                  </use>
                  <path fill="none" stroke="white" stroke-width="1.5" d="M0,-3.0v7 M-2.5,-0.5L0,-3.0L2.5,-0.5"/>
                </g>
        </g>
        <svg viewBox="0 0 15 15" width="100%" height="30px" preserveAspectRatio="xMaxYMin meet">
         <g id="arrow_out" transform="scale(0.3 0.3)">
          <a xlink:href="classTransList__coll__graph_org.svg" target="_base">
           <rect id="button" ry="5" rx="5" y="6" x="6" height="38" width="38"
                fill="#f2f5e9" fill-opacity="0.5" stroke="#606060" stroke-width="1.0"/>
           <path id="arrow"
             d="M 11.500037,31.436501 C 11.940474,20.09759 22.043105,11.32322 32.158766,21.979434 L 37.068811,17.246167 C 37.068811,17.246167 37.088388,32 37.088388,32 L 22.160133,31.978069 C 22.160133,31.978069 26.997745,27.140456 26.997745,27.140456 C 18.528582,18.264221 13.291696,25.230495 11.500037,31.436501 z"
             style="fill:#404040;"/>
          </a>
         </g>
        </svg>
</svg>
