<?xml version="1.0" encoding="UTF-8" standalone="no"?>
<!DOCTYPE svg PUBLIC "-//W3C//DTD SVG 1.1//EN"
 "http://www.w3.org/Graphics/SVG/1.1/DTD/svg11.dtd">
<!-- Generated by graphviz version 2.36.0 (20140111.2315)
 -->
<!-- Title: TransList::LocatePred Pages: 1 -->
<svg width="690pt" height="182pt"
 viewBox="0.00 0.00 690.00 181.74" xmlns="http://www.w3.org/2000/svg" xmlns:xlink="http://www.w3.org/1999/xlink">
<g id="graph0" class="graph" transform="scale(1 1) rotate(0) translate(4 177.739)">
<title>TransList::LocatePred</title>
<!-- Node1 -->
<g id="node1" class="node"><title>Node1</title>
<polygon fill="#bfbfbf" stroke="black" points="0.5,-38.8455 0.5,-57.8455 113.5,-57.8455 113.5,-38.8455 0.5,-38.8455"/>
<text text-anchor="middle" x="57" y="-45.8455" font-family="Helvetica,sans-Serif" font-size="10.00">TransList::LocatePred</text>
</g>
<!-- Node2 -->
<g id="node2" class="node"><title>Node2</title>
<g id="a_node2"><a xlink:href="classTransList.html#a5ace06b8defeb2501a9607fc8fdec5f0" target="_top" xlink:title="TransList::Insert">
<polygon fill="none" stroke="black" points="150,-38.8455 150,-57.8455 238,-57.8455 238,-38.8455 150,-38.8455"/>
<text text-anchor="middle" x="194" y="-45.8455" font-family="Helvetica,sans-Serif" font-size="10.00">TransList::Insert</text>
</a>
</g>
</g>
<!-- Node1&#45;&gt;Node2 -->
<g id="edge1" class="edge"><title>Node1&#45;&gt;Node2</title>
<path fill="none" stroke="midnightblue" d="M123.949,-48.3455C132.734,-48.3455 141.553,-48.3455 149.812,-48.3455"/>
<polygon fill="midnightblue" stroke="midnightblue" points="123.689,-44.8456 113.689,-48.3455 123.689,-51.8456 123.689,-44.8456"/>
</g>
<!-- Node6 -->
<g id="node6" class="node"><title>Node6</title>
<g id="a_node6"><a xlink:href="classTransList.html#ae48aacff3239bd5b85749631c2ac271a" target="_top" xlink:title="TransList::Delete">
<polygon fill="none" stroke="black" points="590,-95.8455 590,-114.845 682,-114.845 682,-95.8455 590,-95.8455"/>
<text text-anchor="middle" x="636" y="-102.845" font-family="Helvetica,sans-Serif" font-size="10.00">TransList::Delete</text>
</a>
</g>
</g>
<!-- Node1&#45;&gt;Node6 -->
<g id="edge10" class="edge"><title>Node1&#45;&gt;Node6</title>
<path fill="none" stroke="midnightblue" d="M89.17,-62.0497C149.857,-87.8972 288.741,-142.988 412,-162.345 474.347,-172.137 493.832,-181.394 554,-162.345 583.508,-153.004 611.566,-128.619 625.624,-114.964"/>
<polygon fill="midnightblue" stroke="midnightblue" points="90.3476,-58.7464 79.7779,-58.016 87.5852,-65.1783 90.3476,-58.7464"/>
</g>
<!-- Node7 -->
<g id="node7" class="node"><title>Node7</title>
<g id="a_node7"><a xlink:href="classTransList.html#ab75389528ee7e0773ac0fe9c00351670" target="_top" xlink:title="TransList::Find">
<polygon fill="none" stroke="black" points="595,-19.8455 595,-38.8455 677,-38.8455 677,-19.8455 595,-19.8455"/>
<text text-anchor="middle" x="636" y="-26.8455" font-family="Helvetica,sans-Serif" font-size="10.00">TransList::Find</text>
</a>
</g>
</g>
<!-- Node1&#45;&gt;Node7 -->
<g id="edge11" class="edge"><title>Node1&#45;&gt;Node7</title>
<path fill="none" stroke="midnightblue" d="M108.566,-36.6602C121.975,-33.903 136.483,-31.223 150,-29.3455 328.044,-4.61355 375.437,10.3166 554,-10.3455 570.07,-12.205 587.583,-16.0742 602.2,-19.8386"/>
<polygon fill="midnightblue" stroke="midnightblue" points="107.623,-33.282 98.5611,-38.7717 109.068,-40.1311 107.623,-33.282"/>
</g>
<!-- Node3 -->
<g id="node3" class="node"><title>Node3</title>
<g id="a_node3"><a xlink:href="classTransList.html#aa7e67c5ff8aeadc6d1d7791a297a58c4" target="_top" xlink:title="TransList::HelpOps">
<polygon fill="none" stroke="black" points="274.5,-57.8455 274.5,-76.8455 375.5,-76.8455 375.5,-57.8455 274.5,-57.8455"/>
<text text-anchor="middle" x="325" y="-64.8455" font-family="Helvetica,sans-Serif" font-size="10.00">TransList::HelpOps</text>
</a>
</g>
</g>
<!-- Node2&#45;&gt;Node3 -->
<g id="edge2" class="edge"><title>Node2&#45;&gt;Node3</title>
<path fill="none" stroke="midnightblue" d="M248.276,-56.1923C256.903,-57.4629 265.806,-58.7743 274.343,-60.0316"/>
<polygon fill="midnightblue" stroke="midnightblue" points="248.717,-52.7196 238.314,-54.7251 247.697,-59.6449 248.717,-52.7196"/>
</g>
<!-- Node4 -->
<g id="node4" class="node"><title>Node4</title>
<g id="a_node4"><a xlink:href="classTransList.html#abe5853275ff6befa6ccd7ab0e84b4dce" target="_top" xlink:title="TransList::ExecuteOps">
<polygon fill="none" stroke="black" points="424.5,-133.845 424.5,-152.845 541.5,-152.845 541.5,-133.845 424.5,-133.845"/>
<text text-anchor="middle" x="483" y="-140.845" font-family="Helvetica,sans-Serif" font-size="10.00">TransList::ExecuteOps</text>
</a>
</g>
</g>
<!-- Node3&#45;&gt;Node4 -->
<g id="edge3" class="edge"><title>Node3&#45;&gt;Node4</title>
<path fill="none" stroke="midnightblue" d="M348.408,-82.7183C365.347,-93.8818 389.459,-108.814 412,-119.345 423.872,-124.892 437.397,-129.829 449.372,-133.761"/>
<polygon fill="midnightblue" stroke="midnightblue" points="350.049,-79.6052 339.79,-76.956 346.158,-85.4241 350.049,-79.6052"/>
</g>
<!-- Node5 -->
<g id="node5" class="node"><title>Node5</title>
<g id="a_node5"><a xlink:href="classTransList.html#a7ed667a308f2f7422dde28c7fe40cdc7" target="_top" xlink:title="TransList::FinishPendingTxn">
<polygon fill="none" stroke="black" points="412.5,-19.8455 412.5,-38.8455 553.5,-38.8455 553.5,-19.8455 412.5,-19.8455"/>
<text text-anchor="middle" x="483" y="-26.8455" font-family="Helvetica,sans-Serif" font-size="10.00">TransList::FinishPendingTxn</text>
</a>
</g>
</g>
<!-- Node3&#45;&gt;Node5 -->
<g id="edge4" class="edge"><title>Node3&#45;&gt;Node5</title>
<path fill="none" stroke="midnightblue" d="M375.132,-55.3775C396.993,-50.0524 422.376,-43.8693 442.918,-38.8655"/>
<polygon fill="midnightblue" stroke="midnightblue" points="374.253,-51.9891 365.365,-57.7565 375.91,-58.7903 374.253,-51.9891"/>
</g>
<!-- Node5&#45;&gt;Node2 -->
<g id="edge5" class="edge"><title>Node5&#45;&gt;Node2</title>
<path fill="none" stroke="midnightblue" d="M402.323,-34.6202C349.271,-38.1324 281.602,-42.6122 238.278,-45.4804"/>
<polygon fill="midnightblue" stroke="midnightblue" points="402.641,-38.1069 412.388,-33.9539 402.179,-31.1222 402.641,-38.1069"/>
</g>
<!-- Node5&#45;&gt;Node6 -->
<g id="edge6" class="edge"><title>Node5&#45;&gt;Node6</title>
<path fill="none" stroke="midnightblue" d="M512.325,-43.6019C542.647,-58.8629 589.905,-82.6489 616.031,-95.7982"/>
<polygon fill="midnightblue" stroke="midnightblue" points="513.63,-40.3404 503.124,-38.9709 510.483,-46.5931 513.63,-40.3404"/>
</g>
<!-- Node5&#45;&gt;Node7 -->
<g id="edge8" class="edge"><title>Node5&#45;&gt;Node7</title>
<path fill="none" stroke="midnightblue" d="M563.991,-29.3455C574.66,-29.3455 585.209,-29.3455 594.781,-29.3455"/>
<polygon fill="midnightblue" stroke="midnightblue" points="563.754,-25.8456 553.754,-29.3455 563.754,-32.8456 563.754,-25.8456"/>
</g>
<!-- Node6&#45;&gt;Node3 -->
<g id="edge7" class="edge"><title>Node6&#45;&gt;Node3</title>
<path fill="none" stroke="midnightblue" d="M579.464,-100.211C534.285,-95.8322 468.921,-89.0359 412,-81.3455 400.157,-79.7454 387.434,-77.7997 375.501,-75.874"/>
<polygon fill="midnightblue" stroke="midnightblue" points="579.351,-103.717 589.64,-101.19 580.021,-96.7487 579.351,-103.717"/>
</g>
<!-- Node7&#45;&gt;Node3 -->
<g id="edge9" class="edge"><title>Node7&#45;&gt;Node3</title>
<path fill="none" stroke="midnightblue" d="M589.486,-41.2611C577.973,-43.9325 565.586,-46.514 554,-48.3455 492.992,-57.9889 421.976,-62.9274 375.62,-65.3186"/>
<polygon fill="midnightblue" stroke="midnightblue" points="590.425,-44.6355 599.337,-38.9069 588.798,-37.8272 590.425,-44.6355"/>
</g>
</g>
</svg>
