<?xml version="1.0" encoding="UTF-8" standalone="no"?>
<!DOCTYPE svg PUBLIC "-//W3C//DTD SVG 1.1//EN"
 "http://www.w3.org/Graphics/SVG/1.1/DTD/svg11.dtd">
<!-- Generated by graphviz version 2.36.0 (20140111.2315)
 -->
<!-- Title: stm::WriteSet::rebuild Pages: 1 -->
<svg width="292pt" height="77pt"
 viewBox="0.00 0.00 292.00 77.00" xmlns="http://www.w3.org/2000/svg" xmlns:xlink="http://www.w3.org/1999/xlink">
<g id="graph0" class="graph" transform="scale(1 1) rotate(0) translate(4 73)">
<title>stm::WriteSet::rebuild</title>
<!-- Node1 -->
<g id="node1" class="node"><title>Node1</title>
<polygon fill="#bfbfbf" stroke="black" points="0,-22.5 0,-41.5 112,-41.5 112,-22.5 0,-22.5"/>
<text text-anchor="middle" x="56" y="-29.5" font-family="Helvetica,sans-Serif" font-size="10.00">stm::WriteSet::rebuild</text>
</g>
<!-- Node2 -->
<g id="node2" class="node"><title>Node2</title>
<g id="a_node2"><a xlink:href="classstm_1_1WriteSet.html#a7fc8315912c0e2155d182b7c76616e3a" target="_top" xlink:title="stm::WriteSet::doubleIndex\lLength">
<polygon fill="none" stroke="black" points="148,-39 148,-69 284,-69 284,-39 148,-39"/>
<text text-anchor="start" x="156" y="-57" font-family="Helvetica,sans-Serif" font-size="10.00">stm::WriteSet::doubleIndex</text>
<text text-anchor="middle" x="216" y="-46" font-family="Helvetica,sans-Serif" font-size="10.00">Length</text>
</a>
</g>
</g>
<!-- Node1&#45;&gt;Node2 -->
<g id="edge1" class="edge"><title>Node1&#45;&gt;Node2</title>
<path fill="none" stroke="midnightblue" d="M112.261,-39.6945C120.512,-40.8434 129.144,-42.0453 137.748,-43.2434"/>
<polygon fill="midnightblue" stroke="midnightblue" points="137.424,-46.732 147.811,-44.6446 138.389,-39.7989 137.424,-46.732"/>
</g>
<!-- Node3 -->
<g id="node3" class="node"><title>Node3</title>
<g id="a_node3"><a xlink:href="classstm_1_1WriteSet.html#a07a039f248b6f18a81dae1ef00bb5d1b" target="_top" xlink:title="stm::WriteSet::hash">
<polygon fill="none" stroke="black" points="164,-0.5 164,-19.5 268,-19.5 268,-0.5 164,-0.5"/>
<text text-anchor="middle" x="216" y="-7.5" font-family="Helvetica,sans-Serif" font-size="10.00">stm::WriteSet::hash</text>
</a>
</g>
</g>
<!-- Node1&#45;&gt;Node3 -->
<g id="edge2" class="edge"><title>Node1&#45;&gt;Node3</title>
<path fill="none" stroke="midnightblue" d="M112.261,-24.3055C125.592,-22.4491 139.919,-20.4544 153.516,-18.5611"/>
<polygon fill="midnightblue" stroke="midnightblue" points="154.321,-21.9828 163.743,-17.1371 153.356,-15.0497 154.321,-21.9828"/>
</g>
</g>
</svg>
