<?xml version="1.0" encoding="UTF-8" standalone="no"?>
<!DOCTYPE svg PUBLIC "-//W3C//DTD SVG 1.1//EN"
 "http://www.w3.org/Graphics/SVG/1.1/DTD/svg11.dtd">
<!-- Generated by graphviz version 2.36.0 (20140111.2315)
 -->
<!-- Title: client_run Pages: 1 -->
<svg width="416pt" height="104pt"
 viewBox="0.00 0.00 416.00 104.00" xmlns="http://www.w3.org/2000/svg" xmlns:xlink="http://www.w3.org/1999/xlink">
<g id="graph0" class="graph" transform="scale(1 1) rotate(0) translate(4 100)">
<title>client_run</title>
<!-- Node1 -->
<g id="node1" class="node"><title>Node1</title>
<polygon fill="#bfbfbf" stroke="black" points="0.5,-38.5 0.5,-57.5 59.5,-57.5 59.5,-38.5 0.5,-38.5"/>
<text text-anchor="middle" x="30" y="-45.5" font-family="Helvetica,sans-Serif" font-size="10.00">client_run</text>
</g>
<!-- Node2 -->
<g id="node2" class="node"><title>Node2</title>
<g id="a_node2"><a xlink:href="thread_8c.html#abec126223ac40629f70a1bdcfa1aa088" target="_top" xlink:title="thread_getId">
<polygon fill="none" stroke="black" points="106.5,-76.5 106.5,-95.5 177.5,-95.5 177.5,-76.5 106.5,-76.5"/>
<text text-anchor="middle" x="142" y="-83.5" font-family="Helvetica,sans-Serif" font-size="10.00">thread_getId</text>
</a>
</g>
</g>
<!-- Node1&#45;&gt;Node2 -->
<g id="edge1" class="edge"><title>Node1&#45;&gt;Node2</title>
<path fill="none" stroke="midnightblue" d="M58.7576,-57.589C72.3062,-62.2694 88.8055,-67.9692 103.46,-73.0315"/>
<polygon fill="midnightblue" stroke="midnightblue" points="102.656,-76.457 113.251,-76.4141 104.942,-69.8406 102.656,-76.457"/>
</g>
<!-- Node3 -->
<g id="node3" class="node"><title>Node3</title>
<g id="a_node3"><a xlink:href="random_8c.html#a733bbcfd7d850fa4596d834489b83178" target="_top" xlink:title="random_generate">
<polygon fill="none" stroke="black" points="96,-38.5 96,-57.5 188,-57.5 188,-38.5 96,-38.5"/>
<text text-anchor="middle" x="142" y="-45.5" font-family="Helvetica,sans-Serif" font-size="10.00">random_generate</text>
</a>
</g>
</g>
<!-- Node1&#45;&gt;Node3 -->
<g id="edge2" class="edge"><title>Node1&#45;&gt;Node3</title>
<path fill="none" stroke="midnightblue" d="M59.6141,-48C67.6617,-48 76.6971,-48 85.7418,-48"/>
<polygon fill="midnightblue" stroke="midnightblue" points="85.9055,-51.5001 95.9054,-48 85.9054,-44.5001 85.9055,-51.5001"/>
</g>
<!-- Node6 -->
<g id="node6" class="node"><title>Node6</title>
<g id="a_node6"><a xlink:href="client_8c.html#ac053081bcd35e969dd4fd0c97cfd6042" target="_top" xlink:title="selectAction">
<polygon fill="none" stroke="black" points="106.5,-0.5 106.5,-19.5 177.5,-19.5 177.5,-0.5 106.5,-0.5"/>
<text text-anchor="middle" x="142" y="-7.5" font-family="Helvetica,sans-Serif" font-size="10.00">selectAction</text>
</a>
</g>
</g>
<!-- Node1&#45;&gt;Node6 -->
<g id="edge5" class="edge"><title>Node1&#45;&gt;Node6</title>
<path fill="none" stroke="midnightblue" d="M58.7576,-38.411C72.3062,-33.7306 88.8055,-28.0308 103.46,-22.9685"/>
<polygon fill="midnightblue" stroke="midnightblue" points="104.942,-26.1594 113.251,-19.5859 102.656,-19.543 104.942,-26.1594"/>
</g>
<!-- Node4 -->
<g id="node4" class="node"><title>Node4</title>
<g id="a_node4"><a xlink:href="mt19937ar_8c.html#a8056efdcc7cbf6ff8f46ce36509c506e" target="_top" xlink:title="genrand_int32">
<polygon fill="none" stroke="black" points="224.5,-38.5 224.5,-57.5 301.5,-57.5 301.5,-38.5 224.5,-38.5"/>
<text text-anchor="middle" x="263" y="-45.5" font-family="Helvetica,sans-Serif" font-size="10.00">genrand_int32</text>
</a>
</g>
</g>
<!-- Node3&#45;&gt;Node4 -->
<g id="edge3" class="edge"><title>Node3&#45;&gt;Node4</title>
<path fill="none" stroke="midnightblue" d="M188.328,-48C196.734,-48 205.539,-48 214.021,-48"/>
<polygon fill="midnightblue" stroke="midnightblue" points="214.156,-51.5001 224.156,-48 214.156,-44.5001 214.156,-51.5001"/>
</g>
<!-- Node5 -->
<g id="node5" class="node"><title>Node5</title>
<g id="a_node5"><a xlink:href="mt19937ar_8c.html#aba3fcf9d2e0c0d1db5b8b63af90eb51c" target="_top" xlink:title="init_genrand">
<polygon fill="none" stroke="black" points="338.5,-38.5 338.5,-57.5 407.5,-57.5 407.5,-38.5 338.5,-38.5"/>
<text text-anchor="middle" x="373" y="-45.5" font-family="Helvetica,sans-Serif" font-size="10.00">init_genrand</text>
</a>
</g>
</g>
<!-- Node4&#45;&gt;Node5 -->
<g id="edge4" class="edge"><title>Node4&#45;&gt;Node5</title>
<path fill="none" stroke="midnightblue" d="M301.773,-48C310.342,-48 319.513,-48 328.304,-48"/>
<polygon fill="midnightblue" stroke="midnightblue" points="328.392,-51.5001 338.392,-48 328.392,-44.5001 328.392,-51.5001"/>
</g>
</g>
</svg>
