<?xml version="1.0" encoding="UTF-8" standalone="no"?>
<!DOCTYPE svg PUBLIC "-//W3C//DTD SVG 1.1//EN"
 "http://www.w3.org/Graphics/SVG/1.1/DTD/svg11.dtd">
<!-- Generated by graphviz version 2.36.0 (20140111.2315)
 -->
<!-- Title: extractMoments Pages: 1 -->
<svg width="408pt" height="28pt"
 viewBox="0.00 0.00 408.00 28.00" xmlns="http://www.w3.org/2000/svg" xmlns:xlink="http://www.w3.org/1999/xlink">
<g id="graph0" class="graph" transform="scale(1 1) rotate(0) translate(4 24)">
<title>extractMoments</title>
<!-- Node1 -->
<g id="node1" class="node"><title>Node1</title>
<polygon fill="#bfbfbf" stroke="black" points="0.5,-0.5 0.5,-19.5 87.5,-19.5 87.5,-0.5 0.5,-0.5"/>
<text text-anchor="middle" x="44" y="-7.5" font-family="Helvetica,sans-Serif" font-size="10.00">extractMoments</text>
</g>
<!-- Node2 -->
<g id="node2" class="node"><title>Node2</title>
<g id="a_node2"><a xlink:href="cluster_8c.html#af3992882bbf2558ebbe30680ce6224ca" target="_top" xlink:title="zscoreTransform">
<polygon fill="none" stroke="black" points="124,-0.5 124,-19.5 214,-19.5 214,-0.5 124,-0.5"/>
<text text-anchor="middle" x="169" y="-7.5" font-family="Helvetica,sans-Serif" font-size="10.00">zscoreTransform</text>
</a>
</g>
</g>
<!-- Node1&#45;&gt;Node2 -->
<g id="edge1" class="edge"><title>Node1&#45;&gt;Node2</title>
<path fill="none" stroke="midnightblue" d="M97.7041,-10C106.378,-10 115.289,-10 123.73,-10"/>
<polygon fill="midnightblue" stroke="midnightblue" points="97.6743,-6.5001 87.6742,-10 97.6742,-13.5001 97.6743,-6.5001"/>
</g>
<!-- Node3 -->
<g id="node3" class="node"><title>Node3</title>
<g id="a_node3"><a xlink:href="cluster_8h.html#aebefc2f2848c7ce2e52803168e10d804" target="_top" xlink:title="cluster_exec">
<polygon fill="none" stroke="black" points="250,-0.5 250,-19.5 322,-19.5 322,-0.5 250,-0.5"/>
<text text-anchor="middle" x="286" y="-7.5" font-family="Helvetica,sans-Serif" font-size="10.00">cluster_exec</text>
</a>
</g>
</g>
<!-- Node2&#45;&gt;Node3 -->
<g id="edge2" class="edge"><title>Node2&#45;&gt;Node3</title>
<path fill="none" stroke="midnightblue" d="M224.214,-10C232.882,-10 241.649,-10 249.724,-10"/>
<polygon fill="midnightblue" stroke="midnightblue" points="224.133,-6.5001 214.133,-10 224.133,-13.5001 224.133,-6.5001"/>
</g>
<!-- Node4 -->
<g id="node4" class="node"><title>Node4</title>
<g id="a_node4"><a xlink:href="kmeans_8c.html#a40c5c0b0d4eb7b59a91108269f69dc89" target="_top" xlink:title="MAIN">
<polygon fill="none" stroke="black" points="358,-0.5 358,-19.5 400,-19.5 400,-0.5 358,-0.5"/>
<text text-anchor="middle" x="379" y="-7.5" font-family="Helvetica,sans-Serif" font-size="10.00">MAIN</text>
</a>
</g>
</g>
<!-- Node3&#45;&gt;Node4 -->
<g id="edge3" class="edge"><title>Node3&#45;&gt;Node4</title>
<path fill="none" stroke="midnightblue" d="M332.267,-10C341.27,-10 350.285,-10 357.902,-10"/>
<polygon fill="midnightblue" stroke="midnightblue" points="332.183,-6.5001 322.183,-10 332.183,-13.5001 332.183,-6.5001"/>
</g>
</g>
</svg>
