<?xml version="1.0" encoding="UTF-8" standalone="no"?>
<!DOCTYPE svg PUBLIC "-//W3C//DTD SVG 1.1//EN"
 "http://www.w3.org/Graphics/SVG/1.1/DTD/svg11.dtd">
<!-- Generated by graphviz version 2.36.0 (20140111.2315)
 -->
<!-- Title: rstm/rstm&#45;dev/libstm/cm.hpp Pages: 1 -->
<!--zoomable 544 -->
<svg id="main" version="1.1" xmlns="http://www.w3.org/2000/svg" xmlns:xlink="http://www.w3.org/1999/xlink" xml:space="preserve" onload="init(evt)">
<style type="text/css"><![CDATA[
.edge:hover path { stroke: red; }
.edge:hover polygon { stroke: red; fill: red; }
]]></style>
<script type="text/javascript"><![CDATA[
var edges = document.getElementsByTagName('g');
if (edges && edges.length) {
  for (var i=0;i<edges.length;i++) {
    if (edges[i].id.substr(0,4)=='edge') {
      edges[i].setAttribute('class','edge');
    }
  }
}
]]></script>
        <defs>
                <circle id="rim" cx="0" cy="0" r="7"/>
                <circle id="rim2" cx="0" cy="0" r="3.5"/>
                <g id="zoomPlus">
                        <use xlink:href="#rim" fill="#404040">
                                <set attributeName="fill" to="#808080" begin="zoomplus.mouseover" end="zoomplus.mouseout"/>
                        </use>
                        <path d="M-4,0h8M0,-4v8" fill="none" stroke="white" stroke-width="1.5" pointer-events="none"/>
                </g>
                <g id="zoomMin">
                        <use xlink:href="#rim" fill="#404040">
                                <set attributeName="fill" to="#808080" begin="zoomminus.mouseover" end="zoomminus.mouseout"/>
                        </use>
                        <path d="M-4,0h8" fill="none" stroke="white" stroke-width="1.5" pointer-events="none"/>
                </g>
                <g id="dirArrow">
                        <path fill="none" stroke="white" stroke-width="1.5" d="M0,-3.0v7 M-2.5,-0.5L0,-3.0L2.5,-0.5"/>
                </g>
               <g id="resetDef">
                       <use xlink:href="#rim2" fill="#404040">
                               <set attributeName="fill" to="#808080" begin="reset.mouseover" end="reset.mouseout"/>
                       </use>
               </g>
        </defs>

<script type="text/javascript">
var viewWidth = 1116;
var viewHeight = 544;
var sectionId = 'dynsection-0';
</script>
<script xlink:href="svgpan.js"/>
<svg id="graph" class="graph">
<g id="viewport">
<title>rstm/rstm&#45;dev/libstm/cm.hpp</title>
<!-- Node1 -->
<g id="node1" class="node"><title>Node1</title>
<polygon fill="#bfbfbf" stroke="black" points="450.5,-505 450.5,-535 557.5,-535 557.5,-505 450.5,-505"/>
<text text-anchor="start" x="458.5" y="-523" font-family="Helvetica,sans-Serif" font-size="10.00">rstm/rstm&#45;dev/libstm</text>
<text text-anchor="middle" x="504" y="-512" font-family="Helvetica,sans-Serif" font-size="10.00">/cm.hpp</text>
</g>
<!-- Node2 -->
<g id="node2" class="node"><title>Node2</title>
<polygon fill="none" stroke="#bfbfbf" points="590.5,-0.5 590.5,-19.5 661.5,-19.5 661.5,-0.5 590.5,-0.5"/>
<text text-anchor="middle" x="626" y="-7.5" font-family="Helvetica,sans-Serif" font-size="10.00">stm/config.h</text>
</g>
<!-- Node1&#45;&gt;Node2 -->
<g id="edge1" class="edge"><title>Node1&#45;&gt;Node2</title>
<path fill="none" stroke="midnightblue" d="M450.063,-517.922C320.045,-513.867 0,-494.583 0,-403 0,-403 0,-403 0,-121 0,-55.2072 69.6403,-73.7268 133,-56 216.505,-32.637 474.657,-18.1466 580.262,-13.0567"/>
<polygon fill="midnightblue" stroke="midnightblue" points="580.469,-16.5508 590.292,-12.5795 580.137,-9.55873 580.469,-16.5508"/>
</g>
<!-- Node3 -->
<g id="node3" class="node"><title>Node3</title>
<polygon fill="none" stroke="#bfbfbf" points="1060,-0.5 1060,-19.5 1108,-19.5 1108,-0.5 1060,-0.5"/>
<text text-anchor="middle" x="1084" y="-7.5" font-family="Helvetica,sans-Serif" font-size="10.00">limits.h</text>
</g>
<!-- Node1&#45;&gt;Node3 -->
<g id="edge2" class="edge"><title>Node1&#45;&gt;Node3</title>
<path fill="none" stroke="midnightblue" d="M557.74,-519.706C702.894,-520.179 1092,-511.343 1092,-403 1092,-403 1092,-403 1092,-121 1092,-88.8633 1088.56,-51.5843 1086.19,-29.7187"/>
<polygon fill="midnightblue" stroke="midnightblue" points="1089.64,-29.0874 1085.05,-19.5424 1082.69,-29.8715 1089.64,-29.0874"/>
</g>
<!-- Node4 -->
<g id="node4" class="node"><title>Node4</title>
<g id="a_node4"><a xlink:href="txthread_8hpp.html" target="_top" xlink:title="stm/txthread.hpp">
<polygon fill="none" stroke="black" points="426,-280.5 426,-299.5 516,-299.5 516,-280.5 426,-280.5"/>
<text text-anchor="middle" x="471" y="-287.5" font-family="Helvetica,sans-Serif" font-size="10.00">stm/txthread.hpp</text>
</a>
</g>
</g>
<!-- Node1&#45;&gt;Node4 -->
<g id="edge3" class="edge"><title>Node1&#45;&gt;Node4</title>
<path fill="none" stroke="midnightblue" d="M501.936,-504.738C496.224,-465.277 480.209,-354.626 473.751,-310.007"/>
<polygon fill="midnightblue" stroke="midnightblue" points="477.191,-309.342 472.295,-299.947 470.264,-310.345 477.191,-309.342"/>
</g>
<!-- Node24 -->
<g id="node24" class="node"><title>Node24</title>
<g id="a_node24"><a xlink:href="algs_8hpp.html" target="_top" xlink:title="algs/algs.hpp">
<polygon fill="none" stroke="black" points="524,-448.5 524,-467.5 598,-467.5 598,-448.5 524,-448.5"/>
<text text-anchor="middle" x="561" y="-455.5" font-family="Helvetica,sans-Serif" font-size="10.00">algs/algs.hpp</text>
</a>
</g>
</g>
<!-- Node1&#45;&gt;Node24 -->
<g id="edge43" class="edge"><title>Node1&#45;&gt;Node24</title>
<path fill="none" stroke="midnightblue" d="M517.508,-504.781C525.962,-495.882 536.875,-484.394 545.655,-475.152"/>
<polygon fill="midnightblue" stroke="midnightblue" points="548.356,-477.391 552.706,-467.731 543.281,-472.57 548.356,-477.391"/>
</g>
<!-- Node5 -->
<g id="node5" class="node"><title>Node5</title>
<g id="a_node5"><a xlink:href="rand__r__32_8h.html" target="_top" xlink:title="alt&#45;license/rand_r_32.h">
<polygon fill="none" stroke="black" points="252.5,-224.5 252.5,-243.5 367.5,-243.5 367.5,-224.5 252.5,-224.5"/>
<text text-anchor="middle" x="310" y="-231.5" font-family="Helvetica,sans-Serif" font-size="10.00">alt&#45;license/rand_r_32.h</text>
</a>
</g>
</g>
<!-- Node4&#45;&gt;Node5 -->
<g id="edge4" class="edge"><title>Node4&#45;&gt;Node5</title>
<path fill="none" stroke="midnightblue" d="M445.489,-280.444C418.404,-271.359 375.41,-256.939 345.131,-246.783"/>
<polygon fill="midnightblue" stroke="midnightblue" points="345.986,-243.378 335.392,-243.516 343.76,-250.015 345.986,-243.378"/>
</g>
<!-- Node7 -->
<g id="node7" class="node"><title>Node7</title>
<g id="a_node7"><a xlink:href="locks_8hpp.html" target="_top" xlink:title="common/locks.hpp">
<polygon fill="none" stroke="black" points="852.5,-112.5 852.5,-131.5 951.5,-131.5 951.5,-112.5 852.5,-112.5"/>
<text text-anchor="middle" x="902" y="-119.5" font-family="Helvetica,sans-Serif" font-size="10.00">common/locks.hpp</text>
</a>
</g>
</g>
<!-- Node4&#45;&gt;Node7 -->
<g id="edge7" class="edge"><title>Node4&#45;&gt;Node7</title>
<path fill="none" stroke="midnightblue" d="M516.251,-285.442C588.44,-279.225 726.008,-265.016 770,-244 822.169,-219.078 868.204,-166.507 889.484,-139.613"/>
<polygon fill="midnightblue" stroke="midnightblue" points="892.37,-141.603 895.725,-131.553 886.835,-137.317 892.37,-141.603"/>
</g>
<!-- Node11 -->
<g id="node11" class="node"><title>Node11</title>
<g id="a_node11"><a xlink:href="ThreadLocal_8hpp.html" target="_top" xlink:title="common/ThreadLocal.hpp">
<polygon fill="none" stroke="black" points="28.5,-224.5 28.5,-243.5 157.5,-243.5 157.5,-224.5 28.5,-224.5"/>
<text text-anchor="middle" x="93" y="-231.5" font-family="Helvetica,sans-Serif" font-size="10.00">common/ThreadLocal.hpp</text>
</a>
</g>
</g>
<!-- Node4&#45;&gt;Node11 -->
<g id="edge13" class="edge"><title>Node4&#45;&gt;Node11</title>
<path fill="none" stroke="midnightblue" d="M425.78,-282.54C360.515,-273.216 239.349,-255.907 162.623,-244.946"/>
<polygon fill="midnightblue" stroke="midnightblue" points="162.961,-241.459 152.566,-243.509 161.971,-248.389 162.961,-241.459"/>
</g>
<!-- Node12 -->
<g id="node12" class="node"><title>Node12</title>
<g id="a_node12"><a xlink:href="metadata_8hpp.html" target="_top" xlink:title="stm/metadata.hpp">
<polygon fill="none" stroke="black" points="613.5,-168.5 613.5,-187.5 708.5,-187.5 708.5,-168.5 613.5,-168.5"/>
<text text-anchor="middle" x="661" y="-175.5" font-family="Helvetica,sans-Serif" font-size="10.00">stm/metadata.hpp</text>
</a>
</g>
</g>
<!-- Node4&#45;&gt;Node12 -->
<g id="edge15" class="edge"><title>Node4&#45;&gt;Node12</title>
<path fill="none" stroke="midnightblue" d="M485.909,-280.368C518.791,-261.332 597.755,-215.615 637.422,-192.65"/>
<polygon fill="midnightblue" stroke="midnightblue" points="639.26,-195.631 646.16,-187.591 635.752,-189.573 639.26,-195.631"/>
</g>
<!-- Node18 -->
<g id="node18" class="node"><title>Node18</title>
<g id="a_node18"><a xlink:href="WriteSet_8hpp.html" target="_top" xlink:title="stm/WriteSet.hpp">
<polygon fill="none" stroke="black" points="330.5,-112.5 330.5,-131.5 423.5,-131.5 423.5,-112.5 330.5,-112.5"/>
<text text-anchor="middle" x="377" y="-119.5" font-family="Helvetica,sans-Serif" font-size="10.00">stm/WriteSet.hpp</text>
</a>
</g>
</g>
<!-- Node4&#45;&gt;Node18 -->
<g id="edge25" class="edge"><title>Node4&#45;&gt;Node18</title>
<path fill="none" stroke="midnightblue" d="M425.994,-286.687C366.271,-282.568 265.705,-271.624 243,-244 206.072,-199.071 293.062,-155.708 343.744,-135.242"/>
<polygon fill="midnightblue" stroke="midnightblue" points="345.027,-138.498 353.048,-131.576 342.461,-131.985 345.027,-138.498"/>
</g>
<!-- Node20 -->
<g id="node20" class="node"><title>Node20</title>
<g id="a_node20"><a xlink:href="UndoLog_8hpp.html" target="_top" xlink:title="stm/UndoLog.hpp">
<polygon fill="none" stroke="black" points="102,-168.5 102,-187.5 196,-187.5 196,-168.5 102,-168.5"/>
<text text-anchor="middle" x="149" y="-175.5" font-family="Helvetica,sans-Serif" font-size="10.00">stm/UndoLog.hpp</text>
</a>
</g>
</g>
<!-- Node4&#45;&gt;Node20 -->
<g id="edge30" class="edge"><title>Node4&#45;&gt;Node20</title>
<path fill="none" stroke="midnightblue" d="M425.727,-289.724C371.337,-288.743 278.825,-281.059 210,-244 189.012,-232.699 171.197,-211.466 160.334,-196.343"/>
<polygon fill="midnightblue" stroke="midnightblue" points="163.053,-194.119 154.503,-187.861 157.284,-198.084 163.053,-194.119"/>
</g>
<!-- Node22 -->
<g id="node22" class="node"><title>Node22</title>
<g id="a_node22"><a xlink:href="ValueList_8hpp.html" target="_top" xlink:title="stm/ValueList.hpp">
<polygon fill="none" stroke="black" points="461.5,-168.5 461.5,-187.5 556.5,-187.5 556.5,-168.5 461.5,-168.5"/>
<text text-anchor="middle" x="509" y="-175.5" font-family="Helvetica,sans-Serif" font-size="10.00">stm/ValueList.hpp</text>
</a>
</g>
</g>
<!-- Node4&#45;&gt;Node22 -->
<g id="edge35" class="edge"><title>Node4&#45;&gt;Node22</title>
<path fill="none" stroke="midnightblue" d="M474.662,-280.453C478.458,-271.459 484.461,-256.853 489,-244 494.468,-228.518 499.897,-210.676 503.716,-197.606"/>
<polygon fill="midnightblue" stroke="midnightblue" points="507.105,-198.485 506.511,-187.907 500.379,-196.547 507.105,-198.485"/>
</g>
<!-- Node23 -->
<g id="node23" class="node"><title>Node23</title>
<g id="a_node23"><a xlink:href="WBMMPolicy_8hpp.html" target="_top" xlink:title="WBMMPolicy.hpp">
<polygon fill="none" stroke="black" points="385.5,-224.5 385.5,-243.5 480.5,-243.5 480.5,-224.5 385.5,-224.5"/>
<text text-anchor="middle" x="433" y="-231.5" font-family="Helvetica,sans-Serif" font-size="10.00">WBMMPolicy.hpp</text>
</a>
</g>
</g>
<!-- Node4&#45;&gt;Node23 -->
<g id="edge38" class="edge"><title>Node4&#45;&gt;Node23</title>
<path fill="none" stroke="midnightblue" d="M464.725,-280.083C459.358,-272.455 451.482,-261.264 444.921,-251.941"/>
<polygon fill="midnightblue" stroke="midnightblue" points="447.775,-249.915 439.158,-243.751 442.051,-253.943 447.775,-249.915"/>
</g>
<!-- Node5&#45;&gt;Node2 -->
<g id="edge6" class="edge"><title>Node5&#45;&gt;Node2</title>
<path fill="none" stroke="midnightblue" d="M302.327,-224.459C295.221,-215.927 285.146,-202.088 281,-188 266.285,-138.002 296.251,-78.2597 324,-56 362.653,-24.9935 505.917,-15.2749 580.383,-12.288"/>
<polygon fill="midnightblue" stroke="midnightblue" points="580.554,-15.7841 590.415,-11.9097 580.29,-8.7891 580.554,-15.7841"/>
</g>
<!-- Node6 -->
<g id="node6" class="node"><title>Node6</title>
<polygon fill="none" stroke="#bfbfbf" points="290,-168.5 290,-187.5 338,-187.5 338,-168.5 290,-168.5"/>
<text text-anchor="middle" x="314" y="-175.5" font-family="Helvetica,sans-Serif" font-size="10.00">stdlib.h</text>
</g>
<!-- Node5&#45;&gt;Node6 -->
<g id="edge5" class="edge"><title>Node5&#45;&gt;Node6</title>
<path fill="none" stroke="midnightblue" d="M310.661,-224.083C311.185,-217.006 311.936,-206.861 312.594,-197.986"/>
<polygon fill="midnightblue" stroke="midnightblue" points="316.103,-197.982 313.352,-187.751 309.123,-197.465 316.103,-197.982"/>
</g>
<!-- Node8 -->
<g id="node8" class="node"><title>Node8</title>
<g id="a_node8"><a xlink:href="platform_8hpp.html" target="_top" xlink:title="common/platform.hpp">
<polygon fill="none" stroke="black" points="952.5,-56.5 952.5,-75.5 1063.5,-75.5 1063.5,-56.5 952.5,-56.5"/>
<text text-anchor="middle" x="1008" y="-63.5" font-family="Helvetica,sans-Serif" font-size="10.00">common/platform.hpp</text>
</a>
</g>
</g>
<!-- Node7&#45;&gt;Node8 -->
<g id="edge8" class="edge"><title>Node7&#45;&gt;Node8</title>
<path fill="none" stroke="midnightblue" d="M919.031,-112.324C936.03,-103.664 962.376,-90.2424 981.993,-80.249"/>
<polygon fill="midnightblue" stroke="midnightblue" points="983.69,-83.3125 991.012,-75.6545 980.512,-77.0752 983.69,-83.3125"/>
</g>
<!-- Node8&#45;&gt;Node2 -->
<g id="edge9" class="edge"><title>Node8&#45;&gt;Node2</title>
<path fill="none" stroke="midnightblue" d="M952.454,-57.1479C876.677,-46.436 742.295,-27.4396 671.906,-17.4893"/>
<polygon fill="midnightblue" stroke="midnightblue" points="671.979,-13.965 661.588,-16.0308 671,-20.8961 671.979,-13.965"/>
</g>
<!-- Node8&#45;&gt;Node3 -->
<g id="edge11" class="edge"><title>Node8&#45;&gt;Node3</title>
<path fill="none" stroke="midnightblue" d="M1020.21,-56.324C1031.78,-48.1066 1049.38,-35.6017 1063.16,-25.8069"/>
<polygon fill="midnightblue" stroke="midnightblue" points="1065.44,-28.4791 1071.57,-19.8339 1061.39,-22.7729 1065.44,-28.4791"/>
</g>
<!-- Node9 -->
<g id="node9" class="node"><title>Node9</title>
<polygon fill="none" stroke="#bfbfbf" points="851.5,-0.5 851.5,-19.5 900.5,-19.5 900.5,-0.5 851.5,-0.5"/>
<text text-anchor="middle" x="876" y="-7.5" font-family="Helvetica,sans-Serif" font-size="10.00">stdint.h</text>
</g>
<!-- Node8&#45;&gt;Node9 -->
<g id="edge10" class="edge"><title>Node8&#45;&gt;Node9</title>
<path fill="none" stroke="midnightblue" d="M987.084,-56.4435C965.264,-47.5171 930.85,-33.4387 906.108,-23.3168"/>
<polygon fill="midnightblue" stroke="midnightblue" points="907.399,-20.0634 896.818,-19.5164 904.748,-26.5422 907.399,-20.0634"/>
</g>
<!-- Node10 -->
<g id="node10" class="node"><title>Node10</title>
<polygon fill="none" stroke="#bfbfbf" points="982.5,-0.5 982.5,-19.5 1033.5,-19.5 1033.5,-0.5 982.5,-0.5"/>
<text text-anchor="middle" x="1008" y="-7.5" font-family="Helvetica,sans-Serif" font-size="10.00">unistd.h</text>
</g>
<!-- Node8&#45;&gt;Node10 -->
<g id="edge12" class="edge"><title>Node8&#45;&gt;Node10</title>
<path fill="none" stroke="midnightblue" d="M1008,-56.083C1008,-49.0059 1008,-38.8611 1008,-29.9865"/>
<polygon fill="midnightblue" stroke="midnightblue" points="1011.5,-29.751 1008,-19.7511 1004.5,-29.7511 1011.5,-29.751"/>
</g>
<!-- Node11&#45;&gt;Node2 -->
<g id="edge14" class="edge"><title>Node11&#45;&gt;Node2</title>
<path fill="none" stroke="midnightblue" d="M91.5194,-224.378C89.6751,-211.728 87.4002,-187.525 93,-168 109.183,-111.574 113.096,-86.9089 163,-56 231.951,-13.2939 477.713,-9.90003 580.398,-10.4196"/>
<polygon fill="midnightblue" stroke="midnightblue" points="580.436,-13.9199 590.458,-10.4856 580.481,-6.92001 580.436,-13.9199"/>
</g>
<!-- Node12&#45;&gt;Node2 -->
<g id="edge16" class="edge"><title>Node12&#45;&gt;Node2</title>
<path fill="none" stroke="midnightblue" d="M659.9,-168.413C657.265,-148.494 650.051,-97.6599 640,-56 637.839,-47.0409 634.869,-37.2538 632.22,-29.1018"/>
<polygon fill="midnightblue" stroke="midnightblue" points="635.511,-27.9069 629.019,-19.5343 628.873,-30.1281 635.511,-27.9069"/>
</g>
<!-- Node13 -->
<g id="node13" class="node"><title>Node13</title>
<g id="a_node13"><a xlink:href="MiniVector_8hpp.html" target="_top" xlink:title="stm/MiniVector.hpp">
<polygon fill="none" stroke="black" points="449.5,-112.5 449.5,-131.5 550.5,-131.5 550.5,-112.5 449.5,-112.5"/>
<text text-anchor="middle" x="500" y="-119.5" font-family="Helvetica,sans-Serif" font-size="10.00">stm/MiniVector.hpp</text>
</a>
</g>
</g>
<!-- Node12&#45;&gt;Node13 -->
<g id="edge17" class="edge"><title>Node12&#45;&gt;Node13</title>
<path fill="none" stroke="midnightblue" d="M635.489,-168.444C608.404,-159.359 565.41,-144.939 535.131,-134.783"/>
<polygon fill="midnightblue" stroke="midnightblue" points="535.986,-131.378 525.392,-131.516 533.76,-138.015 535.986,-131.378"/>
</g>
<!-- Node17 -->
<g id="node17" class="node"><title>Node17</title>
<g id="a_node17"><a xlink:href="BitFilter_8hpp.html" target="_top" xlink:title="stm/BitFilter.hpp">
<polygon fill="none" stroke="black" points="768.5,-56.5 768.5,-75.5 857.5,-75.5 857.5,-56.5 768.5,-56.5"/>
<text text-anchor="middle" x="813" y="-63.5" font-family="Helvetica,sans-Serif" font-size="10.00">stm/BitFilter.hpp</text>
</a>
</g>
</g>
<!-- Node12&#45;&gt;Node17 -->
<g id="edge22" class="edge"><title>Node12&#45;&gt;Node17</title>
<path fill="none" stroke="midnightblue" d="M672.927,-168.368C698.899,-149.573 760.811,-104.768 792.918,-81.5334"/>
<polygon fill="midnightblue" stroke="midnightblue" points="795.079,-84.2896 801.128,-75.5914 790.975,-78.6187 795.079,-84.2896"/>
</g>
<!-- Node13&#45;&gt;Node8 -->
<g id="edge21" class="edge"><title>Node13&#45;&gt;Node8</title>
<path fill="none" stroke="midnightblue" d="M550.566,-115.625C643.008,-105.798 839.199,-84.9434 942.011,-74.0146"/>
<polygon fill="midnightblue" stroke="midnightblue" points="942.692,-77.462 952.266,-72.9245 941.952,-70.5013 942.692,-77.462"/>
</g>
<!-- Node14 -->
<g id="node14" class="node"><title>Node14</title>
<polygon fill="none" stroke="#bfbfbf" points="418.5,-56.5 418.5,-75.5 467.5,-75.5 467.5,-56.5 418.5,-56.5"/>
<text text-anchor="middle" x="443" y="-63.5" font-family="Helvetica,sans-Serif" font-size="10.00">cassert</text>
</g>
<!-- Node13&#45;&gt;Node14 -->
<g id="edge18" class="edge"><title>Node13&#45;&gt;Node14</title>
<path fill="none" stroke="midnightblue" d="M490.842,-112.324C482.499,-104.42 469.968,-92.5482 459.823,-82.9377"/>
<polygon fill="midnightblue" stroke="midnightblue" points="461.991,-80.1705 452.325,-75.8339 457.177,-85.2522 461.991,-80.1705"/>
</g>
<!-- Node15 -->
<g id="node15" class="node"><title>Node15</title>
<polygon fill="none" stroke="#bfbfbf" points="485.5,-56.5 485.5,-75.5 530.5,-75.5 530.5,-56.5 485.5,-56.5"/>
<text text-anchor="middle" x="508" y="-63.5" font-family="Helvetica,sans-Serif" font-size="10.00">cstdlib</text>
</g>
<!-- Node13&#45;&gt;Node15 -->
<g id="edge19" class="edge"><title>Node13&#45;&gt;Node15</title>
<path fill="none" stroke="midnightblue" d="M501.321,-112.083C502.381,-104.927 503.906,-94.6353 505.231,-85.6911"/>
<polygon fill="midnightblue" stroke="midnightblue" points="508.7,-86.1561 506.704,-75.7511 501.776,-85.1302 508.7,-86.1561"/>
</g>
<!-- Node16 -->
<g id="node16" class="node"><title>Node16</title>
<polygon fill="none" stroke="#bfbfbf" points="548.5,-56.5 548.5,-75.5 597.5,-75.5 597.5,-56.5 548.5,-56.5"/>
<text text-anchor="middle" x="573" y="-63.5" font-family="Helvetica,sans-Serif" font-size="10.00">string.h</text>
</g>
<!-- Node13&#45;&gt;Node16 -->
<g id="edge20" class="edge"><title>Node13&#45;&gt;Node16</title>
<path fill="none" stroke="midnightblue" d="M511.729,-112.324C522.837,-104.107 539.742,-91.6017 552.983,-81.8069"/>
<polygon fill="midnightblue" stroke="midnightblue" points="555.1,-84.5948 561.058,-75.8339 550.937,-78.9671 555.1,-84.5948"/>
</g>
<!-- Node17&#45;&gt;Node2 -->
<g id="edge23" class="edge"><title>Node17&#45;&gt;Node2</title>
<path fill="none" stroke="midnightblue" d="M783.369,-56.4435C751.5,-47.2406 700.667,-32.5617 665.436,-22.3879"/>
<polygon fill="midnightblue" stroke="midnightblue" points="666.071,-18.9282 655.492,-19.5164 664.128,-25.6534 666.071,-18.9282"/>
</g>
<!-- Node17&#45;&gt;Node9 -->
<g id="edge24" class="edge"><title>Node17&#45;&gt;Node9</title>
<path fill="none" stroke="midnightblue" d="M823.122,-56.324C832.526,-48.2631 846.744,-36.0765 858.069,-26.3695"/>
<polygon fill="midnightblue" stroke="midnightblue" points="860.379,-28.9993 865.694,-19.8339 855.823,-23.6844 860.379,-28.9993"/>
</g>
<!-- Node18&#45;&gt;Node2 -->
<g id="edge26" class="edge"><title>Node18&#45;&gt;Node2</title>
<path fill="none" stroke="midnightblue" d="M366.801,-112.213C352.587,-98.9241 330.148,-73.4201 345,-56 374.674,-21.1962 508.403,-13.1969 580.156,-11.435"/>
<polygon fill="midnightblue" stroke="midnightblue" points="580.351,-14.9317 590.273,-11.2179 580.201,-7.93335 580.351,-14.9317"/>
</g>
<!-- Node18&#45;&gt;Node14 -->
<g id="edge29" class="edge"><title>Node18&#45;&gt;Node14</title>
<path fill="none" stroke="midnightblue" d="M387.604,-112.324C397.456,-104.263 412.351,-92.0765 424.215,-82.3695"/>
<polygon fill="midnightblue" stroke="midnightblue" points="426.68,-84.8752 432.203,-75.8339 422.247,-79.4575 426.68,-84.8752"/>
</g>
<!-- Node18&#45;&gt;Node15 -->
<g id="edge27" class="edge"><title>Node18&#45;&gt;Node15</title>
<path fill="none" stroke="midnightblue" d="M397.757,-112.444C419.316,-103.557 453.263,-89.5632 477.794,-79.4514"/>
<polygon fill="midnightblue" stroke="midnightblue" points="479.428,-82.5634 487.34,-75.5164 476.761,-76.0917 479.428,-82.5634"/>
</g>
<!-- Node19 -->
<g id="node19" class="node"><title>Node19</title>
<polygon fill="none" stroke="#bfbfbf" points="354,-56.5 354,-75.5 400,-75.5 400,-56.5 354,-56.5"/>
<text text-anchor="middle" x="377" y="-63.5" font-family="Helvetica,sans-Serif" font-size="10.00">cstring</text>
</g>
<!-- Node18&#45;&gt;Node19 -->
<g id="edge28" class="edge"><title>Node18&#45;&gt;Node19</title>
<path fill="none" stroke="midnightblue" d="M377,-112.083C377,-105.006 377,-94.8611 377,-85.9865"/>
<polygon fill="midnightblue" stroke="midnightblue" points="380.5,-85.751 377,-75.7511 373.5,-85.7511 380.5,-85.751"/>
</g>
<!-- Node20&#45;&gt;Node2 -->
<g id="edge31" class="edge"><title>Node20&#45;&gt;Node2</title>
<path fill="none" stroke="midnightblue" d="M144.007,-168.097C137.436,-155.099 127.743,-130.465 137,-112 155.644,-74.8116 173.288,-71.2299 212,-56 278.145,-29.9775 486.92,-17.3821 580.199,-12.9395"/>
<polygon fill="midnightblue" stroke="midnightblue" points="580.363,-16.4358 590.189,-12.474 580.037,-9.44338 580.363,-16.4358"/>
</g>
<!-- Node20&#45;&gt;Node13 -->
<g id="edge32" class="edge"><title>Node20&#45;&gt;Node13</title>
<path fill="none" stroke="midnightblue" d="M196.337,-169.717C259.167,-160.051 370.184,-142.972 439.166,-132.359"/>
<polygon fill="midnightblue" stroke="midnightblue" points="440.093,-135.758 449.445,-130.778 439.029,-128.839 440.093,-135.758"/>
</g>
<!-- Node21 -->
<g id="node21" class="node"><title>Node21</title>
<g id="a_node21"><a xlink:href="include_2stm_2macros_8hpp.html" target="_top" xlink:title="stm/macros.hpp">
<polygon fill="none" stroke="black" points="146.5,-112.5 146.5,-131.5 233.5,-131.5 233.5,-112.5 146.5,-112.5"/>
<text text-anchor="middle" x="190" y="-119.5" font-family="Helvetica,sans-Serif" font-size="10.00">stm/macros.hpp</text>
</a>
</g>
</g>
<!-- Node20&#45;&gt;Node21 -->
<g id="edge33" class="edge"><title>Node20&#45;&gt;Node21</title>
<path fill="none" stroke="midnightblue" d="M155.77,-168.083C161.562,-160.455 170.058,-149.264 177.138,-139.941"/>
<polygon fill="midnightblue" stroke="midnightblue" points="180.096,-141.832 183.356,-131.751 174.521,-137.599 180.096,-141.832"/>
</g>
<!-- Node21&#45;&gt;Node2 -->
<g id="edge34" class="edge"><title>Node21&#45;&gt;Node2</title>
<path fill="none" stroke="midnightblue" d="M193.28,-112.482C199.313,-98.0934 213.64,-69.2488 236,-56 293.25,-22.0782 490.071,-13.7236 580.233,-11.6688"/>
<polygon fill="midnightblue" stroke="midnightblue" points="580.502,-15.164 590.426,-11.4532 580.354,-8.16556 580.502,-15.164"/>
</g>
<!-- Node22&#45;&gt;Node2 -->
<g id="edge36" class="edge"><title>Node22&#45;&gt;Node2</title>
<path fill="none" stroke="midnightblue" d="M520.615,-168.412C541.183,-152.556 583.92,-116.574 606,-76 613.936,-61.4162 619.189,-43.241 622.311,-29.8207"/>
<polygon fill="midnightblue" stroke="midnightblue" points="625.774,-30.3602 624.444,-19.8491 618.929,-28.8953 625.774,-30.3602"/>
</g>
<!-- Node22&#45;&gt;Node13 -->
<g id="edge37" class="edge"><title>Node22&#45;&gt;Node13</title>
<path fill="none" stroke="midnightblue" d="M507.514,-168.083C506.321,-160.927 504.606,-150.635 503.115,-141.691"/>
<polygon fill="midnightblue" stroke="midnightblue" points="506.555,-141.04 501.459,-131.751 499.65,-142.19 506.555,-141.04"/>
</g>
<!-- Node23&#45;&gt;Node2 -->
<g id="edge40" class="edge"><title>Node23&#45;&gt;Node2</title>
<path fill="none" stroke="midnightblue" d="M421.193,-224.347C394.64,-204.595 331.694,-156.043 321,-132 311.041,-109.609 331.775,-60.6153 337,-56 372.277,-24.8417 508.013,-15.2122 580.213,-12.2706"/>
<polygon fill="midnightblue" stroke="midnightblue" points="580.525,-15.7614 590.385,-11.8834 580.259,-8.76644 580.525,-15.7614"/>
</g>
<!-- Node23&#45;&gt;Node6 -->
<g id="edge39" class="edge"><title>Node23&#45;&gt;Node6</title>
<path fill="none" stroke="midnightblue" d="M414.144,-224.444C394.734,-215.636 364.27,-201.812 342.035,-191.722"/>
<polygon fill="midnightblue" stroke="midnightblue" points="343.32,-188.462 332.768,-187.516 340.428,-194.836 343.32,-188.462"/>
</g>
<!-- Node23&#45;&gt;Node12 -->
<g id="edge42" class="edge"><title>Node23&#45;&gt;Node12</title>
<path fill="none" stroke="midnightblue" d="M469.127,-224.444C508.651,-215.083 572.097,-200.056 615.113,-189.868"/>
<polygon fill="midnightblue" stroke="midnightblue" points="616.118,-193.227 625.042,-187.516 614.504,-186.415 616.118,-193.227"/>
</g>
<!-- Node23&#45;&gt;Node13 -->
<g id="edge41" class="edge"><title>Node23&#45;&gt;Node13</title>
<path fill="none" stroke="midnightblue" d="M434.037,-224.416C435.92,-211.393 440.797,-186.231 452,-168 459.123,-156.408 470.009,-145.862 479.614,-137.897"/>
<polygon fill="midnightblue" stroke="midnightblue" points="481.913,-140.541 487.598,-131.601 477.579,-135.045 481.913,-140.541"/>
</g>
<!-- Node24&#45;&gt;Node2 -->
<g id="edge44" class="edge"><title>Node24&#45;&gt;Node2</title>
<path fill="none" stroke="midnightblue" d="M598.183,-455.186C700.728,-449.175 980,-425.592 980,-347 980,-347 980,-347 980,-177 980,-108.075 946.455,-82.9083 883,-56 813.018,-26.3241 724.351,-16.2177 671.567,-12.7763"/>
<polygon fill="midnightblue" stroke="midnightblue" points="671.697,-9.27788 661.505,-12.1731 671.278,-16.2653 671.697,-9.27788"/>
</g>
<!-- Node24&#45;&gt;Node4 -->
<g id="edge47" class="edge"><title>Node24&#45;&gt;Node4</title>
<path fill="none" stroke="midnightblue" d="M556.161,-448.075C541.872,-421.719 499.669,-343.878 480.575,-308.661"/>
<polygon fill="midnightblue" stroke="midnightblue" points="483.489,-306.691 475.645,-299.568 477.335,-310.027 483.489,-306.691"/>
</g>
<!-- Node24&#45;&gt;Node12 -->
<g id="edge46" class="edge"><title>Node24&#45;&gt;Node12</title>
<path fill="none" stroke="midnightblue" d="M598.125,-457.898C671.49,-457.541 828,-445.263 828,-347 828,-347 828,-347 828,-289 828,-233.297 762.401,-204.208 713.431,-190.254"/>
<polygon fill="midnightblue" stroke="midnightblue" points="714.141,-186.82 703.573,-187.581 712.309,-193.576 714.141,-186.82"/>
</g>
<!-- Node25 -->
<g id="node25" class="node"><title>Node25</title>
<polygon fill="none" stroke="#bfbfbf" points="603.5,-280.5 603.5,-299.5 646.5,-299.5 646.5,-280.5 603.5,-280.5"/>
<text text-anchor="middle" x="625" y="-287.5" font-family="Helvetica,sans-Serif" font-size="10.00">cstdio</text>
</g>
<!-- Node24&#45;&gt;Node25 -->
<g id="edge45" class="edge"><title>Node24&#45;&gt;Node25</title>
<path fill="none" stroke="midnightblue" d="M557.19,-448.38C552.15,-435.733 544.61,-411.533 551,-392 562.245,-357.626 590.13,-325.271 608.277,-306.83"/>
<polygon fill="midnightblue" stroke="midnightblue" points="610.948,-309.111 615.607,-299.595 606.031,-304.128 610.948,-309.111"/>
</g>
<!-- Node26 -->
<g id="node26" class="node"><title>Node26</title>
<g id="a_node26"><a xlink:href="profiling_8hpp.html" target="_top" xlink:title="../profiling.hpp">
<polygon fill="none" stroke="black" points="560,-392.5 560,-411.5 638,-411.5 638,-392.5 560,-392.5"/>
<text text-anchor="middle" x="599" y="-399.5" font-family="Helvetica,sans-Serif" font-size="10.00">../profiling.hpp</text>
</a>
</g>
</g>
<!-- Node24&#45;&gt;Node26 -->
<g id="edge48" class="edge"><title>Node24&#45;&gt;Node26</title>
<path fill="none" stroke="midnightblue" d="M567.275,-448.083C572.642,-440.455 580.518,-429.264 587.079,-419.941"/>
<polygon fill="midnightblue" stroke="midnightblue" points="589.949,-421.943 592.842,-411.751 584.225,-417.915 589.949,-421.943"/>
</g>
<!-- Node26&#45;&gt;Node2 -->
<g id="edge50" class="edge"><title>Node26&#45;&gt;Node2</title>
<path fill="none" stroke="midnightblue" d="M638.245,-398.695C674.421,-394.777 727.96,-384.246 765,-356 826.886,-308.807 833.195,-135.08 843,-112 853.521,-87.2358 883.183,-76.7047 866,-56 841.829,-26.8755 734.615,-16.4869 671.963,-12.8669"/>
<polygon fill="midnightblue" stroke="midnightblue" points="672.11,-9.36982 661.935,-12.3232 671.731,-16.3596 672.11,-9.36982"/>
</g>
<!-- Node26&#45;&gt;Node4 -->
<g id="edge51" class="edge"><title>Node26&#45;&gt;Node4</title>
<path fill="none" stroke="midnightblue" d="M588.956,-392.368C567.272,-373.733 515.838,-329.532 488.61,-306.134"/>
<polygon fill="midnightblue" stroke="midnightblue" points="490.863,-303.455 480.997,-299.591 486.3,-308.764 490.863,-303.455"/>
</g>
<!-- Node26&#45;&gt;Node15 -->
<g id="edge49" class="edge"><title>Node26&#45;&gt;Node15</title>
<path fill="none" stroke="midnightblue" d="M598.61,-392.385C596.565,-349.88 586.132,-162.541 559,-112 552.455,-99.8081 541.215,-89.3486 530.95,-81.5902"/>
<polygon fill="midnightblue" stroke="midnightblue" points="532.864,-78.6566 522.682,-75.7297 528.816,-84.3677 532.864,-78.6566"/>
</g>
<!-- Node27 -->
<g id="node27" class="node"><title>Node27</title>
<g id="a_node27"><a xlink:href="policies_8hpp.html" target="_top" xlink:title="./policies/policies.hpp">
<polygon fill="none" stroke="black" points="646,-336.5 646,-355.5 756,-355.5 756,-336.5 646,-336.5"/>
<text text-anchor="middle" x="701" y="-343.5" font-family="Helvetica,sans-Serif" font-size="10.00">./policies/policies.hpp</text>
</a>
</g>
</g>
<!-- Node26&#45;&gt;Node27 -->
<g id="edge52" class="edge"><title>Node26&#45;&gt;Node27</title>
<path fill="none" stroke="midnightblue" d="M615.388,-392.324C631.671,-383.703 656.867,-370.364 675.716,-360.386"/>
<polygon fill="midnightblue" stroke="midnightblue" points="677.452,-363.427 684.653,-355.655 674.177,-357.24 677.452,-363.427"/>
</g>
<!-- Node27&#45;&gt;Node2 -->
<g id="edge53" class="edge"><title>Node27&#45;&gt;Node2</title>
<path fill="none" stroke="midnightblue" d="M732.023,-336.436C750.032,-329.694 771.231,-318.302 782,-300 790.945,-284.797 777.753,-246.358 770,-224 742.385,-144.362 737.147,-119.747 682,-56 672.084,-44.5381 658.965,-33.8184 647.917,-25.7188"/>
<polygon fill="midnightblue" stroke="midnightblue" points="649.783,-22.7514 639.601,-19.8207 645.733,-28.461 649.783,-22.7514"/>
</g>
<!-- Node27&#45;&gt;Node4 -->
<g id="edge58" class="edge"><title>Node27&#45;&gt;Node4</title>
<path fill="none" stroke="midnightblue" d="M664.556,-336.444C624.601,-327.063 560.413,-311.993 517.015,-301.804"/>
<polygon fill="midnightblue" stroke="midnightblue" points="517.809,-298.395 507.274,-299.516 516.209,-305.21 517.809,-298.395"/>
</g>
<!-- Node27&#45;&gt;Node8 -->
<g id="edge56" class="edge"><title>Node27&#45;&gt;Node8</title>
<path fill="none" stroke="midnightblue" d="M754.303,-336.441C799.66,-328.298 860.468,-315.076 880,-300 954.098,-242.804 991.127,-129.994 1003.32,-85.5869"/>
<polygon fill="midnightblue" stroke="midnightblue" points="1006.72,-86.4084 1005.89,-75.8463 999.95,-84.622 1006.72,-86.4084"/>
</g>
<!-- Node27&#45;&gt;Node12 -->
<g id="edge57" class="edge"><title>Node27&#45;&gt;Node12</title>
<path fill="none" stroke="midnightblue" d="M710.817,-336.204C723.955,-323.339 744.263,-298.87 732,-280 710.533,-246.967 672.467,-277.033 651,-244 641.977,-230.115 646.387,-211.101 651.906,-197.225"/>
<polygon fill="midnightblue" stroke="midnightblue" points="655.24,-198.343 656.138,-187.786 648.853,-195.479 655.24,-198.343"/>
</g>
<!-- Node27&#45;&gt;Node25 -->
<g id="edge54" class="edge"><title>Node27&#45;&gt;Node25</title>
<path fill="none" stroke="midnightblue" d="M688.789,-336.324C677.224,-328.107 659.625,-315.602 645.839,-305.807"/>
<polygon fill="midnightblue" stroke="midnightblue" points="647.612,-302.773 637.433,-299.834 643.557,-308.479 647.612,-302.773"/>
</g>
<!-- Node28 -->
<g id="node28" class="node"><title>Node28</title>
<polygon fill="none" stroke="#bfbfbf" points="664.5,-280.5 664.5,-299.5 723.5,-299.5 723.5,-280.5 664.5,-280.5"/>
<text text-anchor="middle" x="694" y="-287.5" font-family="Helvetica,sans-Serif" font-size="10.00">inttypes.h</text>
</g>
<!-- Node27&#45;&gt;Node28 -->
<g id="edge55" class="edge"><title>Node27&#45;&gt;Node28</title>
<path fill="none" stroke="midnightblue" d="M699.844,-336.083C698.916,-328.927 697.582,-318.635 696.423,-309.691"/>
<polygon fill="midnightblue" stroke="midnightblue" points="699.891,-309.218 695.134,-299.751 692.949,-310.118 699.891,-309.218"/>
</g>
<!-- Node29 -->
<g id="node29" class="node"><title>Node29</title>
<g id="a_node29"><a xlink:href="lib__globals_8hpp.html" target="_top" xlink:title="stm/lib_globals.hpp">
<polygon fill="none" stroke="black" points="660.5,-224.5 660.5,-243.5 761.5,-243.5 761.5,-224.5 660.5,-224.5"/>
<text text-anchor="middle" x="711" y="-231.5" font-family="Helvetica,sans-Serif" font-size="10.00">stm/lib_globals.hpp</text>
</a>
</g>
</g>
<!-- Node27&#45;&gt;Node29 -->
<g id="edge59" class="edge"><title>Node27&#45;&gt;Node29</title>
<path fill="none" stroke="midnightblue" d="M722.808,-336.447C737.945,-329.221 756.955,-317.264 766,-300 776.365,-280.218 755.342,-261.148 736.368,-248.838"/>
<polygon fill="midnightblue" stroke="midnightblue" points="738.001,-245.735 727.64,-243.522 734.36,-251.713 738.001,-245.735"/>
</g>
<!-- Node29&#45;&gt;Node2 -->
<g id="edge60" class="edge"><title>Node29&#45;&gt;Node2</title>
<path fill="none" stroke="midnightblue" d="M713.585,-224.446C716.982,-211.882 721.966,-187.785 717,-168 702.875,-111.721 661.972,-55.1569 640.133,-27.8488"/>
<polygon fill="midnightblue" stroke="midnightblue" points="642.559,-25.2857 633.524,-19.7521 637.136,-29.7122 642.559,-25.2857"/>
</g>
<!-- Node29&#45;&gt;Node12 -->
<g id="edge61" class="edge"><title>Node29&#45;&gt;Node12</title>
<path fill="none" stroke="midnightblue" d="M702.744,-224.083C695.535,-216.298 684.89,-204.801 676.154,-195.367"/>
<polygon fill="midnightblue" stroke="midnightblue" points="678.465,-192.711 669.103,-187.751 673.329,-197.467 678.465,-192.711"/>
</g>
</g>
</svg>
        <g id="navigator" transform="translate(0 0)" fill="#404254">
                <rect fill="#f2f5e9" fill-opacity="0.5" stroke="#606060" stroke-width=".5" x="0" y="0" width="60" height="60"/>
                <use id="zoomplus" xlink:href="#zoomPlus" x="17" y="9" onmousedown="handleZoom(evt,'in')"/>
                <use id="zoomminus" xlink:href="#zoomMin" x="42" y="9" onmousedown="handleZoom(evt,'out')"/>
                <use id="reset" xlink:href="#resetDef" x="30" y="36" onmousedown="handleReset()"/>
                <g id="arrowUp" xlink:href="#dirArrow" transform="translate(30 24)" onmousedown="handlePan(0,-1)">
                  <use xlink:href="#rim" fill="#404040">
                        <set attributeName="fill" to="#808080" begin="arrowUp.mouseover" end="arrowUp.mouseout"/>
                  </use>
                  <path fill="none" stroke="white" stroke-width="1.5" d="M0,-3.0v7 M-2.5,-0.5L0,-3.0L2.5,-0.5"/>
                </g>
                <g id="arrowRight" xlink:href="#dirArrow" transform="rotate(90) translate(36 -43)" onmousedown="handlePan(1,0)">
                  <use xlink:href="#rim" fill="#404040">
                        <set attributeName="fill" to="#808080" begin="arrowRight.mouseover" end="arrowRight.mouseout"/>
                  </use>
                  <path fill="none" stroke="white" stroke-width="1.5" d="M0,-3.0v7 M-2.5,-0.5L0,-3.0L2.5,-0.5"/>
                </g>
                <g id="arrowDown" xlink:href="#dirArrow" transform="rotate(180) translate(-30 -48)" onmousedown="handlePan(0,1)">
                  <use xlink:href="#rim" fill="#404040">
                        <set attributeName="fill" to="#808080" begin="arrowDown.mouseover" end="arrowDown.mouseout"/>
                  </use>
                  <path fill="none" stroke="white" stroke-width="1.5" d="M0,-3.0v7 M-2.5,-0.5L0,-3.0L2.5,-0.5"/>
                </g>
                <g id="arrowLeft" xlink:href="#dirArrow" transform="rotate(270) translate(-36 17)" onmousedown="handlePan(-1,0)">
                  <use xlink:href="#rim" fill="#404040">
                        <set attributeName="fill" to="#808080" begin="arrowLeft.mouseover" end="arrowLeft.mouseout"/>
                  </use>
                  <path fill="none" stroke="white" stroke-width="1.5" d="M0,-3.0v7 M-2.5,-0.5L0,-3.0L2.5,-0.5"/>
                </g>
        </g>
        <svg viewBox="0 0 15 15" width="100%" height="30px" preserveAspectRatio="xMaxYMin meet">
         <g id="arrow_out" transform="scale(0.3 0.3)">
          <a xlink:href="cm_8hpp__incl_org.svg" target="_base">
           <rect id="button" ry="5" rx="5" y="6" x="6" height="38" width="38"
                fill="#f2f5e9" fill-opacity="0.5" stroke="#606060" stroke-width="1.0"/>
           <path id="arrow"
             d="M 11.500037,31.436501 C 11.940474,20.09759 22.043105,11.32322 32.158766,21.979434 L 37.068811,17.246167 C 37.068811,17.246167 37.088388,32 37.088388,32 L 22.160133,31.978069 C 22.160133,31.978069 26.997745,27.140456 26.997745,27.140456 C 18.528582,18.264221 13.291696,25.230495 11.500037,31.436501 z"
             style="fill:#404040;"/>
          </a>
         </g>
        </svg>
</svg>
