<?xml version="1.0" encoding="UTF-8" standalone="no"?>
<!DOCTYPE svg PUBLIC "-//W3C//DTD SVG 1.1//EN"
 "http://www.w3.org/Graphics/SVG/1.1/DTD/svg11.dtd">
<!-- Generated by graphviz version 2.36.0 (20140111.2315)
 -->
<!-- Title: rstm/rstm&#45;dev/stamp&#45;0.9.10/bayes/data.h Pages: 1 -->
<svg width="471pt" height="244pt"
 viewBox="0.00 0.00 470.87 244.00" xmlns="http://www.w3.org/2000/svg" xmlns:xlink="http://www.w3.org/1999/xlink">
<g id="graph0" class="graph" transform="scale(1 1) rotate(0) translate(4 240)">
<title>rstm/rstm&#45;dev/stamp&#45;0.9.10/bayes/data.h</title>
<!-- Node1 -->
<g id="node1" class="node"><title>Node1</title>
<polygon fill="#bfbfbf" stroke="black" points="144.368,-205 144.368,-235 251.368,-235 251.368,-205 144.368,-205"/>
<text text-anchor="start" x="152.368" y="-223" font-family="Helvetica,sans-Serif" font-size="10.00">rstm/rstm&#45;dev/stamp</text>
<text text-anchor="middle" x="197.868" y="-212" font-family="Helvetica,sans-Serif" font-size="10.00">&#45;0.9.10/bayes/data.h</text>
</g>
<!-- Node2 -->
<g id="node2" class="node"><title>Node2</title>
<g id="a_node2"><a xlink:href="adtree_8h.html" target="_top" xlink:title="rstm/rstm&#45;dev/stamp\l&#45;0.9.10/bayes/adtree.h">
<polygon fill="none" stroke="black" points="98.868,-137 98.868,-167 212.868,-167 212.868,-137 98.868,-137"/>
<text text-anchor="start" x="106.868" y="-155" font-family="Helvetica,sans-Serif" font-size="10.00">rstm/rstm&#45;dev/stamp</text>
<text text-anchor="middle" x="155.868" y="-144" font-family="Helvetica,sans-Serif" font-size="10.00">&#45;0.9.10/bayes/adtree.h</text>
</a>
</g>
</g>
<!-- Node1&#45;&gt;Node2 -->
<g id="edge1" class="edge"><title>Node1&#45;&gt;Node2</title>
<path fill="none" stroke="midnightblue" d="M183.244,-196.019C177.165,-186.467 170.299,-175.677 164.964,-167.293"/>
<polygon fill="midnightblue" stroke="midnightblue" points="180.433,-198.121 188.755,-204.679 186.339,-194.363 180.433,-198.121"/>
</g>
<!-- Node3 -->
<g id="node3" class="node"><title>Node3</title>
<g id="a_node3"><a xlink:href="adtree_8c.html" target="_top" xlink:title="rstm/rstm&#45;dev/stamp\l&#45;0.9.10/bayes/adtree.c">
<polygon fill="none" stroke="black" points="13.868,-69 13.868,-99 127.868,-99 127.868,-69 13.868,-69"/>
<text text-anchor="start" x="21.868" y="-87" font-family="Helvetica,sans-Serif" font-size="10.00">rstm/rstm&#45;dev/stamp</text>
<text text-anchor="middle" x="70.868" y="-76" font-family="Helvetica,sans-Serif" font-size="10.00">&#45;0.9.10/bayes/adtree.c</text>
</a>
</g>
</g>
<!-- Node1&#45;&gt;Node3 -->
<g id="edge8" class="edge"><title>Node1&#45;&gt;Node3</title>
<path fill="none" stroke="midnightblue" d="M135.677,-201.001C118.647,-193.329 101.655,-182.656 89.868,-168 73.8407,-148.072 70.7984,-117.173 70.5104,-99.2324"/>
<polygon fill="midnightblue" stroke="midnightblue" points="134.533,-204.317 145.108,-204.961 137.243,-197.863 134.533,-204.317"/>
</g>
<!-- Node4 -->
<g id="node4" class="node"><title>Node4</title>
<g id="a_node4"><a xlink:href="learner_8h.html" target="_top" xlink:title="rstm/rstm&#45;dev/stamp\l&#45;0.9.10/bayes/learner.h">
<polygon fill="none" stroke="black" points="183.868,-69 183.868,-99 299.868,-99 299.868,-69 183.868,-69"/>
<text text-anchor="start" x="191.868" y="-87" font-family="Helvetica,sans-Serif" font-size="10.00">rstm/rstm&#45;dev/stamp</text>
<text text-anchor="middle" x="241.868" y="-76" font-family="Helvetica,sans-Serif" font-size="10.00">&#45;0.9.10/bayes/learner.h</text>
</a>
</g>
</g>
<!-- Node1&#45;&gt;Node4 -->
<g id="edge10" class="edge"><title>Node1&#45;&gt;Node4</title>
<path fill="none" stroke="midnightblue" d="M210.093,-195.618C214.226,-187.085 218.613,-177.256 221.868,-168 230.178,-144.369 236.232,-115.766 239.388,-99.0548"/>
<polygon fill="midnightblue" stroke="midnightblue" points="206.944,-194.092 205.609,-204.602 213.207,-197.218 206.944,-194.092"/>
</g>
<!-- Node5 -->
<g id="node5" class="node"><title>Node5</title>
<g id="a_node5"><a xlink:href="bayes_8c.html" target="_top" xlink:title="rstm/rstm&#45;dev/stamp\l&#45;0.9.10/bayes/bayes.c">
<polygon fill="none" stroke="black" points="292.368,-1 292.368,-31 405.368,-31 405.368,-1 292.368,-1"/>
<text text-anchor="start" x="300.368" y="-19" font-family="Helvetica,sans-Serif" font-size="10.00">rstm/rstm&#45;dev/stamp</text>
<text text-anchor="middle" x="348.868" y="-8" font-family="Helvetica,sans-Serif" font-size="10.00">&#45;0.9.10/bayes/bayes.c</text>
</a>
</g>
</g>
<!-- Node1&#45;&gt;Node5 -->
<g id="edge9" class="edge"><title>Node1&#45;&gt;Node5</title>
<path fill="none" stroke="midnightblue" d="M221.147,-197.721C244.98,-175.101 282.085,-137.488 307.868,-100 323.351,-77.4881 336.351,-48.2735 343.338,-31.1856"/>
<polygon fill="midnightblue" stroke="midnightblue" points="218.505,-195.4 213.609,-204.796 223.295,-200.504 218.505,-195.4"/>
</g>
<!-- Node6 -->
<g id="node6" class="node"><title>Node6</title>
<g id="a_node6"><a xlink:href="learner_8c.html" target="_top" xlink:title="rstm/rstm&#45;dev/stamp\l&#45;0.9.10/bayes/learner.c">
<polygon fill="none" stroke="black" points="32.868,-1 32.868,-31 148.868,-31 148.868,-1 32.868,-1"/>
<text text-anchor="start" x="40.868" y="-19" font-family="Helvetica,sans-Serif" font-size="10.00">rstm/rstm&#45;dev/stamp</text>
<text text-anchor="middle" x="90.868" y="-8" font-family="Helvetica,sans-Serif" font-size="10.00">&#45;0.9.10/bayes/learner.c</text>
</a>
</g>
</g>
<!-- Node1&#45;&gt;Node6 -->
<g id="edge12" class="edge"><title>Node1&#45;&gt;Node6</title>
<path fill="none" stroke="midnightblue" d="M134.517,-201.73C87.0959,-184.781 26.7962,-153.499 4.86802,-100 -0.525885,-86.8403 -2.17107,-80.3581 4.86802,-68 14.5762,-50.9559 32.4701,-39.0217 49.4317,-31.0072"/>
<polygon fill="midnightblue" stroke="midnightblue" points="133.523,-205.089 144.118,-205.031 135.799,-198.469 133.523,-205.089"/>
</g>
<!-- Node8 -->
<g id="node8" class="node"><title>Node8</title>
<g id="a_node8"><a xlink:href="data_8c.html" target="_top" xlink:title="rstm/rstm&#45;dev/stamp\l&#45;0.9.10/bayes/data.c">
<polygon fill="none" stroke="black" points="356.368,-137 356.368,-167 463.368,-167 463.368,-137 356.368,-137"/>
<text text-anchor="start" x="364.368" y="-155" font-family="Helvetica,sans-Serif" font-size="10.00">rstm/rstm&#45;dev/stamp</text>
<text text-anchor="middle" x="409.868" y="-144" font-family="Helvetica,sans-Serif" font-size="10.00">&#45;0.9.10/bayes/data.c</text>
</a>
</g>
</g>
<!-- Node1&#45;&gt;Node8 -->
<g id="edge11" class="edge"><title>Node1&#45;&gt;Node8</title>
<path fill="none" stroke="midnightblue" d="M253.076,-201.813C287.814,-190.998 332.084,-177.216 364.718,-167.056"/>
<polygon fill="midnightblue" stroke="midnightblue" points="251.595,-198.608 243.087,-204.922 253.676,-205.292 251.595,-198.608"/>
</g>
<!-- Node2&#45;&gt;Node3 -->
<g id="edge2" class="edge"><title>Node2&#45;&gt;Node3</title>
<path fill="none" stroke="midnightblue" d="M129.221,-130.309C116.127,-120.143 100.69,-108.156 88.9838,-99.0663"/>
<polygon fill="midnightblue" stroke="midnightblue" points="127.379,-133.31 137.424,-136.679 131.672,-127.781 127.379,-133.31"/>
</g>
<!-- Node2&#45;&gt;Node4 -->
<g id="edge3" class="edge"><title>Node2&#45;&gt;Node4</title>
<path fill="none" stroke="midnightblue" d="M182.828,-130.309C196.076,-120.143 211.695,-108.156 223.539,-99.0663"/>
<polygon fill="midnightblue" stroke="midnightblue" points="180.331,-127.814 174.529,-136.679 184.593,-133.367 180.331,-127.814"/>
</g>
<!-- Node2&#45;&gt;Node6 -->
<g id="edge7" class="edge"><title>Node2&#45;&gt;Node6</title>
<path fill="none" stroke="midnightblue" d="M153.553,-126.428C151.165,-109.283 146.378,-86.2901 136.868,-68 129.497,-53.8239 117.239,-40.5151 107.23,-31.0497"/>
<polygon fill="midnightblue" stroke="midnightblue" points="150.125,-127.234 154.801,-136.741 157.074,-126.393 150.125,-127.234"/>
</g>
<!-- Node4&#45;&gt;Node5 -->
<g id="edge4" class="edge"><title>Node4&#45;&gt;Node5</title>
<path fill="none" stroke="midnightblue" d="M273.743,-63.339C290.528,-52.9856 310.727,-40.526 325.952,-31.1352"/>
<polygon fill="midnightblue" stroke="midnightblue" points="271.496,-60.6126 264.822,-68.8413 275.171,-66.5703 271.496,-60.6126"/>
</g>
<!-- Node4&#45;&gt;Node6 -->
<g id="edge5" class="edge"><title>Node4&#45;&gt;Node6</title>
<path fill="none" stroke="midnightblue" d="M200.111,-64.7485C175.732,-54.093 145.445,-40.8547 122.948,-31.0218"/>
<polygon fill="midnightblue" stroke="midnightblue" points="198.91,-68.0433 209.475,-68.8413 201.714,-61.6292 198.91,-68.0433"/>
</g>
<!-- Node7 -->
<g id="node7" class="node"><title>Node7</title>
<g id="a_node7"><a xlink:href="net_8c.html" target="_top" xlink:title="rstm/rstm&#45;dev/stamp\l&#45;0.9.10/bayes/net.c">
<polygon fill="none" stroke="black" points="167.368,-1 167.368,-31 274.368,-31 274.368,-1 167.368,-1"/>
<text text-anchor="start" x="175.368" y="-19" font-family="Helvetica,sans-Serif" font-size="10.00">rstm/rstm&#45;dev/stamp</text>
<text text-anchor="middle" x="220.868" y="-8" font-family="Helvetica,sans-Serif" font-size="10.00">&#45;0.9.10/bayes/net.c</text>
</a>
</g>
</g>
<!-- Node4&#45;&gt;Node7 -->
<g id="edge6" class="edge"><title>Node4&#45;&gt;Node7</title>
<path fill="none" stroke="midnightblue" d="M234.273,-59.129C231.305,-49.8014 228.001,-39.4177 225.416,-31.2931"/>
<polygon fill="midnightblue" stroke="midnightblue" points="230.944,-60.211 237.311,-68.679 237.614,-58.0885 230.944,-60.211"/>
</g>
</g>
</svg>
