<?xml version="1.0" encoding="UTF-8" standalone="no"?>
<!DOCTYPE svg PUBLIC "-//W3C//DTD SVG 1.1//EN"
 "http://www.w3.org/Graphics/SVG/1.1/DTD/svg11.dtd">
<!-- Generated by graphviz version 2.36.0 (20140111.2315)
 -->
<!-- Title: compareRecord Pages: 1 -->
<svg width="574pt" height="47pt"
 viewBox="0.00 0.00 574.00 47.00" xmlns="http://www.w3.org/2000/svg" xmlns:xlink="http://www.w3.org/1999/xlink">
<g id="graph0" class="graph" transform="scale(1 1) rotate(0) translate(4 43)">
<title>compareRecord</title>
<!-- Node1 -->
<g id="node1" class="node"><title>Node1</title>
<polygon fill="#bfbfbf" stroke="black" points="0,-0.5 0,-19.5 86,-19.5 86,-0.5 0,-0.5"/>
<text text-anchor="middle" x="43" y="-7.5" font-family="Helvetica,sans-Serif" font-size="10.00">compareRecord</text>
</g>
<!-- Node2 -->
<g id="node2" class="node"><title>Node2</title>
<g id="a_node2"><a xlink:href="data_8h.html#a62cb3f6c6f8e5c0618d981c214fa899d" target="_top" xlink:title="data_sort">
<polygon fill="none" stroke="black" points="122.5,-0.5 122.5,-19.5 179.5,-19.5 179.5,-0.5 122.5,-0.5"/>
<text text-anchor="middle" x="151" y="-7.5" font-family="Helvetica,sans-Serif" font-size="10.00">data_sort</text>
</a>
</g>
</g>
<!-- Node1&#45;&gt;Node2 -->
<g id="edge1" class="edge"><title>Node1&#45;&gt;Node2</title>
<path fill="none" stroke="midnightblue" d="M96.266,-10C105.242,-10 114.246,-10 122.248,-10"/>
<polygon fill="midnightblue" stroke="midnightblue" points="96.1986,-6.5001 86.1986,-10 96.1985,-13.5001 96.1986,-6.5001"/>
</g>
<!-- Node3 -->
<g id="node3" class="node"><title>Node3</title>
<g id="a_node3"><a xlink:href="adtree_8c.html#a62e4644f699e4c7a4fa7b1c42489ca0e" target="_top" xlink:title="makeVary">
<polygon fill="none" stroke="black" points="216.5,-19.5 216.5,-38.5 277.5,-38.5 277.5,-19.5 216.5,-19.5"/>
<text text-anchor="middle" x="247" y="-26.5" font-family="Helvetica,sans-Serif" font-size="10.00">makeVary</text>
</a>
</g>
</g>
<!-- Node2&#45;&gt;Node3 -->
<g id="edge2" class="edge"><title>Node2&#45;&gt;Node3</title>
<path fill="none" stroke="midnightblue" d="M189.745,-17.6293C198.55,-19.409 207.805,-21.2798 216.209,-22.9785"/>
<polygon fill="midnightblue" stroke="midnightblue" points="190.19,-14.1485 179.695,-15.5979 188.803,-21.0098 190.19,-14.1485"/>
</g>
<!-- Node5 -->
<g id="node5" class="node"><title>Node5</title>
<g id="a_node5"><a xlink:href="adtree_8h.html#a46c5e833c1bac78330c62d54d924f065" target="_top" xlink:title="adtree_make">
<polygon fill="none" stroke="black" points="414.5,-0.5 414.5,-19.5 487.5,-19.5 487.5,-0.5 414.5,-0.5"/>
<text text-anchor="middle" x="451" y="-7.5" font-family="Helvetica,sans-Serif" font-size="10.00">adtree_make</text>
</a>
</g>
</g>
<!-- Node2&#45;&gt;Node5 -->
<g id="edge7" class="edge"><title>Node2&#45;&gt;Node5</title>
<path fill="none" stroke="midnightblue" d="M189.682,-10C247.59,-10 357.691,-10 414.35,-10"/>
<polygon fill="midnightblue" stroke="midnightblue" points="189.501,-6.5001 179.501,-10 189.501,-13.5001 189.501,-6.5001"/>
</g>
<!-- Node4 -->
<g id="node4" class="node"><title>Node4</title>
<g id="a_node4"><a xlink:href="adtree_8c.html#a2524e945b88ac537d3646587638ecc12" target="_top" xlink:title="makeNode">
<polygon fill="none" stroke="black" points="314,-19.5 314,-38.5 378,-38.5 378,-19.5 314,-19.5"/>
<text text-anchor="middle" x="346" y="-26.5" font-family="Helvetica,sans-Serif" font-size="10.00">makeNode</text>
</a>
</g>
</g>
<!-- Node3&#45;&gt;Node4 -->
<g id="edge3" class="edge"><title>Node3&#45;&gt;Node4</title>
<path fill="none" stroke="midnightblue" d="M287.639,-22.3511C296.382,-22.1495 305.522,-22.2493 313.871,-22.6505"/>
<polygon fill="midnightblue" stroke="midnightblue" points="287.492,-18.8541 277.63,-22.7263 287.754,-25.8492 287.492,-18.8541"/>
</g>
<!-- Node4&#45;&gt;Node3 -->
<g id="edge4" class="edge"><title>Node4&#45;&gt;Node3</title>
<path fill="none" stroke="midnightblue" d="M303.778,-35.682C294.992,-35.8473 285.88,-35.7112 277.63,-35.2737"/>
<polygon fill="midnightblue" stroke="midnightblue" points="303.991,-39.1769 313.871,-35.3495 303.761,-32.1807 303.991,-39.1769"/>
</g>
<!-- Node4&#45;&gt;Node5 -->
<g id="edge5" class="edge"><title>Node4&#45;&gt;Node5</title>
<path fill="none" stroke="midnightblue" d="M388.086,-21.421C396.735,-19.8255 405.793,-18.1546 414.229,-16.5986"/>
<polygon fill="midnightblue" stroke="midnightblue" points="387.382,-17.9917 378.183,-23.2478 388.652,-24.8756 387.382,-17.9917"/>
</g>
<!-- Node6 -->
<g id="node6" class="node"><title>Node6</title>
<g id="a_node6"><a xlink:href="bayes_8c.html#a40c5c0b0d4eb7b59a91108269f69dc89" target="_top" xlink:title="MAIN">
<polygon fill="none" stroke="black" points="524,-0.5 524,-19.5 566,-19.5 566,-0.5 524,-0.5"/>
<text text-anchor="middle" x="545" y="-7.5" font-family="Helvetica,sans-Serif" font-size="10.00">MAIN</text>
</a>
</g>
</g>
<!-- Node5&#45;&gt;Node6 -->
<g id="edge6" class="edge"><title>Node5&#45;&gt;Node6</title>
<path fill="none" stroke="midnightblue" d="M497.849,-10C507.026,-10 516.211,-10 523.943,-10"/>
<polygon fill="midnightblue" stroke="midnightblue" points="497.57,-6.5001 487.57,-10 497.57,-13.5001 497.57,-6.5001"/>
</g>
</g>
</svg>
