<?xml version="1.0" encoding="UTF-8" standalone="no"?>
<!DOCTYPE svg PUBLIC "-//W3C//DTD SVG 1.1//EN"
 "http://www.w3.org/Graphics/SVG/1.1/DTD/svg11.dtd">
<!-- Generated by graphviz version 2.36.0 (20140111.2315)
 -->
<!-- Title: rstm/rstm&#45;dev/stamp&#45;0.9.10/intruder/decoder.c Pages: 1 -->
<svg width="619pt" height="376pt"
 viewBox="0.00 0.00 619.00 376.00" xmlns="http://www.w3.org/2000/svg" xmlns:xlink="http://www.w3.org/1999/xlink">
<g id="graph0" class="graph" transform="scale(1 1) rotate(0) translate(4 372)">
<title>rstm/rstm&#45;dev/stamp&#45;0.9.10/intruder/decoder.c</title>
<!-- Node1 -->
<g id="node1" class="node"><title>Node1</title>
<polygon fill="#bfbfbf" stroke="black" points="237,-337 237,-367 365,-367 365,-337 237,-337"/>
<text text-anchor="start" x="245" y="-355" font-family="Helvetica,sans-Serif" font-size="10.00">rstm/rstm&#45;dev/stamp</text>
<text text-anchor="middle" x="301" y="-344" font-family="Helvetica,sans-Serif" font-size="10.00">&#45;0.9.10/intruder/decoder.c</text>
</g>
<!-- Node2 -->
<g id="node2" class="node"><title>Node2</title>
<g id="a_node2"><a xlink:href="assert_8h.html" target="_top" xlink:title="assert.h">
<polygon fill="none" stroke="black" points="56,-56.5 56,-75.5 108,-75.5 108,-56.5 56,-56.5"/>
<text text-anchor="middle" x="82" y="-63.5" font-family="Helvetica,sans-Serif" font-size="10.00">assert.h</text>
</a>
</g>
</g>
<!-- Node1&#45;&gt;Node2 -->
<g id="edge1" class="edge"><title>Node1&#45;&gt;Node2</title>
<path fill="none" stroke="midnightblue" d="M236.965,-344.631C190.616,-338.105 127.507,-325.18 77,-300 36.9193,-280.018 0,-279.785 0,-235 0,-235 0,-235 0,-177 0,-136.269 36.5869,-100.872 60.883,-81.8565"/>
<polygon fill="midnightblue" stroke="midnightblue" points="63.2981,-84.4196 69.1875,-75.6125 59.0913,-78.8246 63.2981,-84.4196"/>
</g>
<!-- Node4 -->
<g id="node4" class="node"><title>Node4</title>
<polygon fill="none" stroke="#bfbfbf" points="450,-224.5 450,-243.5 498,-243.5 498,-224.5 450,-224.5"/>
<text text-anchor="middle" x="474" y="-231.5" font-family="Helvetica,sans-Serif" font-size="10.00">stdlib.h</text>
</g>
<!-- Node1&#45;&gt;Node4 -->
<g id="edge3" class="edge"><title>Node1&#45;&gt;Node4</title>
<path fill="none" stroke="midnightblue" d="M354.939,-336.934C378.991,-328.84 406.649,-316.86 428,-300 444.221,-287.192 457.184,-267.175 465.162,-252.738"/>
<polygon fill="midnightblue" stroke="midnightblue" points="468.31,-254.271 469.868,-243.792 462.115,-251.013 468.31,-254.271"/>
</g>
<!-- Node5 -->
<g id="node5" class="node"><title>Node5</title>
<polygon fill="none" stroke="#bfbfbf" points="545.5,-280.5 545.5,-299.5 594.5,-299.5 594.5,-280.5 545.5,-280.5"/>
<text text-anchor="middle" x="570" y="-287.5" font-family="Helvetica,sans-Serif" font-size="10.00">string.h</text>
</g>
<!-- Node1&#45;&gt;Node5 -->
<g id="edge4" class="edge"><title>Node1&#45;&gt;Node5</title>
<path fill="none" stroke="midnightblue" d="M365.011,-337.921C410.051,-328.531 471.963,-315.249 535.375,-300.069"/>
<polygon fill="midnightblue" stroke="midnightblue" points="536.247,-303.459 545.15,-297.716 534.609,-296.653 536.247,-303.459"/>
</g>
<!-- Node6 -->
<g id="node6" class="node"><title>Node6</title>
<g id="a_node6"><a xlink:href="decoder_8h.html" target="_top" xlink:title="decoder.h">
<polygon fill="none" stroke="black" points="166.5,-280.5 166.5,-299.5 225.5,-299.5 225.5,-280.5 166.5,-280.5"/>
<text text-anchor="middle" x="196" y="-287.5" font-family="Helvetica,sans-Serif" font-size="10.00">decoder.h</text>
</a>
</g>
</g>
<!-- Node1&#45;&gt;Node6 -->
<g id="edge5" class="edge"><title>Node1&#45;&gt;Node6</title>
<path fill="none" stroke="midnightblue" d="M276.382,-336.933C259.3,-327.171 236.67,-314.24 219.775,-304.586"/>
<polygon fill="midnightblue" stroke="midnightblue" points="221.469,-301.523 211.05,-299.6 217.996,-307.6 221.469,-301.523"/>
</g>
<!-- Node7 -->
<g id="node7" class="node"><title>Node7</title>
<g id="a_node7"><a xlink:href="error_8h.html" target="_top" xlink:title="error.h">
<polygon fill="none" stroke="black" points="176,-224.5 176,-243.5 220,-243.5 220,-224.5 176,-224.5"/>
<text text-anchor="middle" x="198" y="-231.5" font-family="Helvetica,sans-Serif" font-size="10.00">error.h</text>
</a>
</g>
</g>
<!-- Node1&#45;&gt;Node7 -->
<g id="edge10" class="edge"><title>Node1&#45;&gt;Node7</title>
<path fill="none" stroke="midnightblue" d="M288.37,-336.776C269.137,-315.116 232.612,-273.981 212.384,-251.2"/>
<polygon fill="midnightblue" stroke="midnightblue" points="214.988,-248.861 205.731,-243.707 209.754,-253.509 214.988,-248.861"/>
</g>
<!-- Node8 -->
<g id="node8" class="node"><title>Node8</title>
<g id="a_node8"><a xlink:href="tm_8h.html" target="_top" xlink:title="tm.h">
<polygon fill="none" stroke="black" points="180,-112.5 180,-131.5 216,-131.5 216,-112.5 180,-112.5"/>
<text text-anchor="middle" x="198" y="-119.5" font-family="Helvetica,sans-Serif" font-size="10.00">tm.h</text>
</a>
</g>
</g>
<!-- Node1&#45;&gt;Node8 -->
<g id="edge29" class="edge"><title>Node1&#45;&gt;Node8</title>
<path fill="none" stroke="midnightblue" d="M236.697,-344.879C207.339,-338.498 175.138,-325.666 157,-300 123.08,-252.002 144.246,-222.988 165,-168 168.919,-157.616 175.939,-147.514 182.5,-139.521"/>
<polygon fill="midnightblue" stroke="midnightblue" points="185.333,-141.598 189.271,-131.762 180.059,-136.996 185.333,-141.598"/>
</g>
<!-- Node10 -->
<g id="node10" class="node"><title>Node10</title>
<g id="a_node10"><a xlink:href="list_8h.html" target="_top" xlink:title="list.h">
<polygon fill="none" stroke="black" points="282,-280.5 282,-299.5 320,-299.5 320,-280.5 282,-280.5"/>
<text text-anchor="middle" x="301" y="-287.5" font-family="Helvetica,sans-Serif" font-size="10.00">list.h</text>
</a>
</g>
</g>
<!-- Node1&#45;&gt;Node10 -->
<g id="edge11" class="edge"><title>Node1&#45;&gt;Node10</title>
<path fill="none" stroke="midnightblue" d="M301,-336.781C301,-328.781 301,-318.689 301,-310.017"/>
<polygon fill="midnightblue" stroke="midnightblue" points="304.5,-309.73 301,-299.731 297.5,-309.731 304.5,-309.73"/>
</g>
<!-- Node11 -->
<g id="node11" class="node"><title>Node11</title>
<g id="a_node11"><a xlink:href="types_8h.html" target="_top" xlink:title="types.h">
<polygon fill="none" stroke="black" points="344.5,-224.5 344.5,-243.5 393.5,-243.5 393.5,-224.5 344.5,-224.5"/>
<text text-anchor="middle" x="369" y="-231.5" font-family="Helvetica,sans-Serif" font-size="10.00">types.h</text>
</a>
</g>
</g>
<!-- Node1&#45;&gt;Node11 -->
<g id="edge30" class="edge"><title>Node1&#45;&gt;Node11</title>
<path fill="none" stroke="midnightblue" d="M309.338,-336.776C321.813,-315.496 345.307,-275.418 358.791,-252.415"/>
<polygon fill="midnightblue" stroke="midnightblue" points="361.858,-254.104 363.896,-243.707 355.819,-250.564 361.858,-254.104"/>
</g>
<!-- Node14 -->
<g id="node14" class="node"><title>Node14</title>
<g id="a_node14"><a xlink:href="map_8h.html" target="_top" xlink:title="map.h">
<polygon fill="none" stroke="black" points="376,-280.5 376,-299.5 420,-299.5 420,-280.5 376,-280.5"/>
<text text-anchor="middle" x="398" y="-287.5" font-family="Helvetica,sans-Serif" font-size="10.00">map.h</text>
</a>
</g>
</g>
<!-- Node1&#45;&gt;Node14 -->
<g id="edge17" class="edge"><title>Node1&#45;&gt;Node14</title>
<path fill="none" stroke="midnightblue" d="M323.988,-336.781C339.483,-327.196 359.837,-314.606 375.277,-305.056"/>
<polygon fill="midnightblue" stroke="midnightblue" points="377.505,-307.793 384.168,-299.556 373.823,-301.84 377.505,-307.793"/>
</g>
<!-- Node15 -->
<g id="node15" class="node"><title>Node15</title>
<g id="a_node15"><a xlink:href="packet_8h.html" target="_top" xlink:title="packet.h">
<polygon fill="none" stroke="black" points="28,-168.5 28,-187.5 82,-187.5 82,-168.5 28,-168.5"/>
<text text-anchor="middle" x="55" y="-175.5" font-family="Helvetica,sans-Serif" font-size="10.00">packet.h</text>
</a>
</g>
</g>
<!-- Node1&#45;&gt;Node15 -->
<g id="edge21" class="edge"><title>Node1&#45;&gt;Node15</title>
<path fill="none" stroke="midnightblue" d="M236.887,-341.891C184.709,-333.269 116.475,-318.845 96,-300 66.7146,-273.046 58.3399,-224.427 55.9499,-197.759"/>
<polygon fill="midnightblue" stroke="midnightblue" points="59.422,-197.235 55.2337,-187.503 52.439,-197.723 59.422,-197.235"/>
</g>
<!-- Node16 -->
<g id="node16" class="node"><title>Node16</title>
<g id="a_node16"><a xlink:href="queue_8h.html" target="_top" xlink:title="queue.h">
<polygon fill="none" stroke="black" points="476.5,-280.5 476.5,-299.5 527.5,-299.5 527.5,-280.5 476.5,-280.5"/>
<text text-anchor="middle" x="502" y="-287.5" font-family="Helvetica,sans-Serif" font-size="10.00">queue.h</text>
</a>
</g>
</g>
<!-- Node1&#45;&gt;Node16 -->
<g id="edge23" class="edge"><title>Node1&#45;&gt;Node16</title>
<path fill="none" stroke="midnightblue" d="M348.126,-336.933C384.404,-326.103 433.755,-311.372 466.685,-301.542"/>
<polygon fill="midnightblue" stroke="midnightblue" points="467.764,-304.873 476.345,-298.658 465.761,-298.165 467.764,-304.873"/>
</g>
<!-- Node3 -->
<g id="node3" class="node"><title>Node3</title>
<polygon fill="none" stroke="#bfbfbf" points="56.5,-0.5 56.5,-19.5 107.5,-19.5 107.5,-0.5 56.5,-0.5"/>
<text text-anchor="middle" x="82" y="-7.5" font-family="Helvetica,sans-Serif" font-size="10.00">config.h</text>
</g>
<!-- Node2&#45;&gt;Node3 -->
<g id="edge2" class="edge"><title>Node2&#45;&gt;Node3</title>
<path fill="none" stroke="midnightblue" d="M82,-56.083C82,-49.0059 82,-38.8611 82,-29.9865"/>
<polygon fill="midnightblue" stroke="midnightblue" points="85.5001,-29.751 82,-19.7511 78.5001,-29.7511 85.5001,-29.751"/>
</g>
<!-- Node6&#45;&gt;Node7 -->
<g id="edge6" class="edge"><title>Node6&#45;&gt;Node7</title>
<path fill="none" stroke="midnightblue" d="M196.33,-280.083C196.592,-273.006 196.968,-262.861 197.297,-253.986"/>
<polygon fill="midnightblue" stroke="midnightblue" points="200.803,-253.874 197.676,-243.751 193.808,-253.615 200.803,-253.874"/>
</g>
<!-- Node6&#45;&gt;Node8 -->
<g id="edge7" class="edge"><title>Node6&#45;&gt;Node8</title>
<path fill="none" stroke="midnightblue" d="M188.327,-280.459C181.221,-271.927 171.146,-258.088 167,-244 156.232,-207.412 174.891,-163.987 187.626,-140.388"/>
<polygon fill="midnightblue" stroke="midnightblue" points="190.739,-141.992 192.618,-131.565 184.647,-138.545 190.739,-141.992"/>
</g>
<!-- Node8&#45;&gt;Node2 -->
<g id="edge9" class="edge"><title>Node8&#45;&gt;Node2</title>
<path fill="none" stroke="midnightblue" d="M179.875,-112.562C161.003,-103.777 131.214,-89.9098 109.452,-79.7796"/>
<polygon fill="midnightblue" stroke="midnightblue" points="110.923,-76.6038 100.381,-75.5565 107.969,-82.9499 110.923,-76.6038"/>
</g>
<!-- Node9 -->
<g id="node9" class="node"><title>Node9</title>
<polygon fill="none" stroke="#bfbfbf" points="208,-56.5 208,-75.5 254,-75.5 254,-56.5 208,-56.5"/>
<text text-anchor="middle" x="231" y="-63.5" font-family="Helvetica,sans-Serif" font-size="10.00">stdio.h</text>
</g>
<!-- Node8&#45;&gt;Node9 -->
<g id="edge8" class="edge"><title>Node8&#45;&gt;Node9</title>
<path fill="none" stroke="midnightblue" d="M203.449,-112.083C208.014,-104.613 214.668,-93.7244 220.293,-84.5199"/>
<polygon fill="midnightblue" stroke="midnightblue" points="223.424,-86.109 225.652,-75.7511 217.451,-82.4588 223.424,-86.109"/>
</g>
<!-- Node10&#45;&gt;Node8 -->
<g id="edge12" class="edge"><title>Node10&#45;&gt;Node8</title>
<path fill="none" stroke="midnightblue" d="M293.879,-280.281C286.747,-271.39 275.62,-257.082 267,-244 243.598,-208.486 219.784,-164.659 207.169,-140.703"/>
<polygon fill="midnightblue" stroke="midnightblue" points="210.216,-138.977 202.483,-131.735 204.012,-142.219 210.216,-138.977"/>
</g>
<!-- Node10&#45;&gt;Node11 -->
<g id="edge13" class="edge"><title>Node10&#45;&gt;Node11</title>
<path fill="none" stroke="midnightblue" d="M311.925,-280.324C322.175,-272.185 337.721,-259.839 350.001,-250.087"/>
<polygon fill="midnightblue" stroke="midnightblue" points="352.221,-252.794 357.876,-243.834 347.868,-247.312 352.221,-252.794"/>
</g>
<!-- Node12 -->
<g id="node12" class="node"><title>Node12</title>
<g id="a_node12"><a xlink:href="lehigh_8h.html" target="_top" xlink:title="lehigh.h">
<polygon fill="none" stroke="black" points="276,-224.5 276,-243.5 326,-243.5 326,-224.5 276,-224.5"/>
<text text-anchor="middle" x="301" y="-231.5" font-family="Helvetica,sans-Serif" font-size="10.00">lehigh.h</text>
</a>
</g>
</g>
<!-- Node10&#45;&gt;Node12 -->
<g id="edge14" class="edge"><title>Node10&#45;&gt;Node12</title>
<path fill="none" stroke="midnightblue" d="M301,-280.083C301,-273.006 301,-262.861 301,-253.986"/>
<polygon fill="midnightblue" stroke="midnightblue" points="304.5,-253.751 301,-243.751 297.5,-253.751 304.5,-253.751"/>
</g>
<!-- Node13 -->
<g id="node13" class="node"><title>Node13</title>
<g id="a_node13"><a xlink:href="pair_8h.html" target="_top" xlink:title="pair.h">
<polygon fill="none" stroke="black" points="280.5,-168.5 280.5,-187.5 321.5,-187.5 321.5,-168.5 280.5,-168.5"/>
<text text-anchor="middle" x="301" y="-175.5" font-family="Helvetica,sans-Serif" font-size="10.00">pair.h</text>
</a>
</g>
</g>
<!-- Node12&#45;&gt;Node13 -->
<g id="edge15" class="edge"><title>Node12&#45;&gt;Node13</title>
<path fill="none" stroke="midnightblue" d="M301,-224.083C301,-217.006 301,-206.861 301,-197.986"/>
<polygon fill="midnightblue" stroke="midnightblue" points="304.5,-197.751 301,-187.751 297.5,-197.751 304.5,-197.751"/>
</g>
<!-- Node13&#45;&gt;Node8 -->
<g id="edge16" class="edge"><title>Node13&#45;&gt;Node8</title>
<path fill="none" stroke="midnightblue" d="M284.451,-168.324C268.008,-159.703 242.565,-146.364 223.532,-136.386"/>
<polygon fill="midnightblue" stroke="midnightblue" points="224.989,-133.198 214.508,-131.655 221.739,-139.398 224.989,-133.198"/>
</g>
<!-- Node14&#45;&gt;Node4 -->
<g id="edge18" class="edge"><title>Node14&#45;&gt;Node4</title>
<path fill="none" stroke="midnightblue" d="M410.211,-280.324C421.776,-272.107 439.375,-259.602 453.161,-249.807"/>
<polygon fill="midnightblue" stroke="midnightblue" points="455.443,-252.479 461.567,-243.834 451.388,-246.773 455.443,-252.479"/>
</g>
<!-- Node14&#45;&gt;Node11 -->
<g id="edge20" class="edge"><title>Node14&#45;&gt;Node11</title>
<path fill="none" stroke="midnightblue" d="M393.211,-280.083C389.242,-272.691 383.475,-261.953 378.565,-252.811"/>
<polygon fill="midnightblue" stroke="midnightblue" points="381.514,-250.905 373.7,-243.751 375.347,-254.217 381.514,-250.905"/>
</g>
<!-- Node14&#45;&gt;Node13 -->
<g id="edge19" class="edge"><title>Node14&#45;&gt;Node13</title>
<path fill="none" stroke="midnightblue" d="M401.618,-280.173C406.456,-266.831 413.205,-241.259 402,-224 386.521,-200.157 355.153,-188.841 331.459,-183.537"/>
<polygon fill="midnightblue" stroke="midnightblue" points="332.012,-180.078 321.52,-181.556 330.643,-186.943 332.012,-180.078"/>
</g>
<!-- Node15&#45;&gt;Node8 -->
<g id="edge22" class="edge"><title>Node15&#45;&gt;Node8</title>
<path fill="none" stroke="midnightblue" d="M77.6588,-168.444C102.799,-158.95 143.369,-143.63 170.357,-133.439"/>
<polygon fill="midnightblue" stroke="midnightblue" points="171.856,-136.614 179.975,-129.807 169.383,-130.065 171.856,-136.614"/>
</g>
<!-- Node16&#45;&gt;Node8 -->
<g id="edge27" class="edge"><title>Node16&#45;&gt;Node8</title>
<path fill="none" stroke="midnightblue" d="M505.865,-280.468C511.294,-267.062 519.226,-240.859 507,-224 440.735,-132.625 289.421,-122.377 226.384,-122.267"/>
<polygon fill="midnightblue" stroke="midnightblue" points="225.996,-118.769 216.021,-122.341 226.046,-125.769 225.996,-118.769"/>
</g>
<!-- Node16&#45;&gt;Node11 -->
<g id="edge28" class="edge"><title>Node16&#45;&gt;Node11</title>
<path fill="none" stroke="midnightblue" d="M480.926,-280.444C458.94,-271.517 424.266,-257.439 399.336,-247.317"/>
<polygon fill="midnightblue" stroke="midnightblue" points="400.558,-244.035 389.976,-243.516 397.924,-250.521 400.558,-244.035"/>
</g>
<!-- Node17 -->
<g id="node17" class="node"><title>Node17</title>
<g id="a_node17"><a xlink:href="rstm_2rstm-dev_2stamp-0_89_810_2lib_2random_8h.html" target="_top" xlink:title="random.h">
<polygon fill="none" stroke="black" points="554.5,-168.5 554.5,-187.5 611.5,-187.5 611.5,-168.5 554.5,-168.5"/>
<text text-anchor="middle" x="583" y="-175.5" font-family="Helvetica,sans-Serif" font-size="10.00">random.h</text>
</a>
</g>
</g>
<!-- Node16&#45;&gt;Node17 -->
<g id="edge24" class="edge"><title>Node16&#45;&gt;Node17</title>
<path fill="none" stroke="midnightblue" d="M509.886,-280.286C517.8,-271.399 530.192,-257.095 540,-244 551.749,-228.314 563.968,-209.57 572.364,-196.25"/>
<polygon fill="midnightblue" stroke="midnightblue" points="575.418,-197.968 577.741,-187.631 569.479,-194.263 575.418,-197.968"/>
</g>
<!-- Node18 -->
<g id="node18" class="node"><title>Node18</title>
<g id="a_node18"><a xlink:href="mt19937ar_8h.html" target="_top" xlink:title="mt19937ar.h">
<polygon fill="none" stroke="black" points="415.5,-112.5 415.5,-131.5 486.5,-131.5 486.5,-112.5 415.5,-112.5"/>
<text text-anchor="middle" x="451" y="-119.5" font-family="Helvetica,sans-Serif" font-size="10.00">mt19937ar.h</text>
</a>
</g>
</g>
<!-- Node17&#45;&gt;Node18 -->
<g id="edge25" class="edge"><title>Node17&#45;&gt;Node18</title>
<path fill="none" stroke="midnightblue" d="M562.084,-168.444C540.264,-159.517 505.85,-145.439 481.108,-135.317"/>
<polygon fill="midnightblue" stroke="midnightblue" points="482.399,-132.063 471.818,-131.516 479.748,-138.542 482.399,-132.063"/>
</g>
<!-- Node18&#45;&gt;Node9 -->
<g id="edge26" class="edge"><title>Node18&#45;&gt;Node9</title>
<path fill="none" stroke="midnightblue" d="M416.14,-112.444C374.367,-102.19 304.898,-85.1387 263.978,-75.0946"/>
<polygon fill="midnightblue" stroke="midnightblue" points="264.77,-71.6851 254.224,-72.7003 263.101,-78.4833 264.77,-71.6851"/>
</g>
</g>
</svg>
