<?xml version="1.0" encoding="UTF-8" standalone="no"?>
<!DOCTYPE svg PUBLIC "-//W3C//DTD SVG 1.1//EN"
 "http://www.w3.org/Graphics/SVG/1.1/DTD/svg11.dtd">
<!-- Generated by graphviz version 2.36.0 (20140111.2315)
 -->
<!-- Title: rstm/rstm&#45;dev/stamp&#45;0.9.10/intruder/decoder.h Pages: 1 -->
<svg width="160pt" height="208pt"
 viewBox="0.00 0.00 160.00 208.00" xmlns="http://www.w3.org/2000/svg" xmlns:xlink="http://www.w3.org/1999/xlink">
<g id="graph0" class="graph" transform="scale(1 1) rotate(0) translate(4 204)">
<title>rstm/rstm&#45;dev/stamp&#45;0.9.10/intruder/decoder.h</title>
<!-- Node1 -->
<g id="node1" class="node"><title>Node1</title>
<polygon fill="#bfbfbf" stroke="black" points="0,-169 0,-199 128,-199 128,-169 0,-169"/>
<text text-anchor="start" x="8" y="-187" font-family="Helvetica,sans-Serif" font-size="10.00">rstm/rstm&#45;dev/stamp</text>
<text text-anchor="middle" x="64" y="-176" font-family="Helvetica,sans-Serif" font-size="10.00">&#45;0.9.10/intruder/decoder.h</text>
</g>
<!-- Node2 -->
<g id="node2" class="node"><title>Node2</title>
<g id="a_node2"><a xlink:href="error_8h.html" target="_top" xlink:title="error.h">
<polygon fill="none" stroke="black" points="13,-112.5 13,-131.5 57,-131.5 57,-112.5 13,-112.5"/>
<text text-anchor="middle" x="35" y="-119.5" font-family="Helvetica,sans-Serif" font-size="10.00">error.h</text>
</a>
</g>
</g>
<!-- Node1&#45;&gt;Node2 -->
<g id="edge1" class="edge"><title>Node1&#45;&gt;Node2</title>
<path fill="none" stroke="midnightblue" d="M57.1274,-168.781C53.0871,-160.422 47.9424,-149.777 43.6306,-140.856"/>
<polygon fill="midnightblue" stroke="midnightblue" points="46.7227,-139.211 39.2198,-131.731 40.4203,-142.257 46.7227,-139.211"/>
</g>
<!-- Node3 -->
<g id="node3" class="node"><title>Node3</title>
<g id="a_node3"><a xlink:href="tm_8h.html" target="_top" xlink:title="tm.h">
<polygon fill="none" stroke="black" points="75,-112.5 75,-131.5 111,-131.5 111,-112.5 75,-112.5"/>
<text text-anchor="middle" x="93" y="-119.5" font-family="Helvetica,sans-Serif" font-size="10.00">tm.h</text>
</a>
</g>
</g>
<!-- Node1&#45;&gt;Node3 -->
<g id="edge2" class="edge"><title>Node1&#45;&gt;Node3</title>
<path fill="none" stroke="midnightblue" d="M70.8726,-168.781C74.9129,-160.422 80.0576,-149.777 84.3694,-140.856"/>
<polygon fill="midnightblue" stroke="midnightblue" points="87.5797,-142.257 88.7802,-131.731 81.2773,-139.211 87.5797,-142.257"/>
</g>
<!-- Node4 -->
<g id="node4" class="node"><title>Node4</title>
<polygon fill="none" stroke="#bfbfbf" points="36,-56.5 36,-75.5 82,-75.5 82,-56.5 36,-56.5"/>
<text text-anchor="middle" x="59" y="-63.5" font-family="Helvetica,sans-Serif" font-size="10.00">stdio.h</text>
</g>
<!-- Node3&#45;&gt;Node4 -->
<g id="edge3" class="edge"><title>Node3&#45;&gt;Node4</title>
<path fill="none" stroke="midnightblue" d="M87.3856,-112.083C82.6326,-104.534 75.6819,-93.4948 69.8484,-84.2298"/>
<polygon fill="midnightblue" stroke="midnightblue" points="72.7999,-82.3486 64.5099,-75.7511 66.8763,-86.0783 72.7999,-82.3486"/>
</g>
<!-- Node5 -->
<g id="node5" class="node"><title>Node5</title>
<g id="a_node5"><a xlink:href="assert_8h.html" target="_top" xlink:title="assert.h">
<polygon fill="none" stroke="black" points="100,-56.5 100,-75.5 152,-75.5 152,-56.5 100,-56.5"/>
<text text-anchor="middle" x="126" y="-63.5" font-family="Helvetica,sans-Serif" font-size="10.00">assert.h</text>
</a>
</g>
</g>
<!-- Node3&#45;&gt;Node5 -->
<g id="edge4" class="edge"><title>Node3&#45;&gt;Node5</title>
<path fill="none" stroke="midnightblue" d="M98.4493,-112.083C103.014,-104.613 109.668,-93.7244 115.293,-84.5199"/>
<polygon fill="midnightblue" stroke="midnightblue" points="118.424,-86.109 120.652,-75.7511 112.451,-82.4588 118.424,-86.109"/>
</g>
<!-- Node6 -->
<g id="node6" class="node"><title>Node6</title>
<polygon fill="none" stroke="#bfbfbf" points="100.5,-0.5 100.5,-19.5 151.5,-19.5 151.5,-0.5 100.5,-0.5"/>
<text text-anchor="middle" x="126" y="-7.5" font-family="Helvetica,sans-Serif" font-size="10.00">config.h</text>
</g>
<!-- Node5&#45;&gt;Node6 -->
<g id="edge5" class="edge"><title>Node5&#45;&gt;Node6</title>
<path fill="none" stroke="midnightblue" d="M126,-56.083C126,-49.0059 126,-38.8611 126,-29.9865"/>
<polygon fill="midnightblue" stroke="midnightblue" points="129.5,-29.751 126,-19.7511 122.5,-29.7511 129.5,-29.751"/>
</g>
</g>
</svg>
