<?xml version="1.0" encoding="UTF-8" standalone="no"?>
<!DOCTYPE svg PUBLIC "-//W3C//DTD SVG 1.1//EN"
 "http://www.w3.org/Graphics/SVG/1.1/DTD/svg11.dtd">
<!-- Generated by graphviz version 2.36.0 (20140111.2315)
 -->
<!-- Title: rstm/rstm&#45;dev/stamp&#45;0.9.10/intruder/detector.c Pages: 1 -->
<svg width="369pt" height="320pt"
 viewBox="0.00 0.00 368.57 320.00" xmlns="http://www.w3.org/2000/svg" xmlns:xlink="http://www.w3.org/1999/xlink">
<g id="graph0" class="graph" transform="scale(1 1) rotate(0) translate(4 316)">
<title>rstm/rstm&#45;dev/stamp&#45;0.9.10/intruder/detector.c</title>
<!-- Node1 -->
<g id="node1" class="node"><title>Node1</title>
<polygon fill="#bfbfbf" stroke="black" points="119.801,-281 119.801,-311 247.801,-311 247.801,-281 119.801,-281"/>
<text text-anchor="start" x="127.801" y="-299" font-family="Helvetica,sans-Serif" font-size="10.00">rstm/rstm&#45;dev/stamp</text>
<text text-anchor="middle" x="183.801" y="-288" font-family="Helvetica,sans-Serif" font-size="10.00">&#45;0.9.10/intruder/detector.c</text>
</g>
<!-- Node2 -->
<g id="node2" class="node"><title>Node2</title>
<g id="a_node2"><a xlink:href="assert_8h.html" target="_top" xlink:title="assert.h">
<polygon fill="none" stroke="black" points="100.801,-56.5 100.801,-75.5 152.801,-75.5 152.801,-56.5 100.801,-56.5"/>
<text text-anchor="middle" x="126.801" y="-63.5" font-family="Helvetica,sans-Serif" font-size="10.00">assert.h</text>
</a>
</g>
</g>
<!-- Node1&#45;&gt;Node2 -->
<g id="edge1" class="edge"><title>Node1&#45;&gt;Node2</title>
<path fill="none" stroke="midnightblue" d="M119.724,-284.209C76.5034,-275.474 25.0296,-261.721 11.8009,-244 -31.5756,-185.895 60.8033,-111.87 104.994,-81.2472"/>
<polygon fill="midnightblue" stroke="midnightblue" points="107.072,-84.0669 113.381,-75.5555 103.141,-78.2747 107.072,-84.0669"/>
</g>
<!-- Node4 -->
<g id="node4" class="node"><title>Node4</title>
<polygon fill="none" stroke="#bfbfbf" points="20.8009,-224.5 20.8009,-243.5 68.8009,-243.5 68.8009,-224.5 20.8009,-224.5"/>
<text text-anchor="middle" x="44.8009" y="-231.5" font-family="Helvetica,sans-Serif" font-size="10.00">stdlib.h</text>
</g>
<!-- Node1&#45;&gt;Node4 -->
<g id="edge3" class="edge"><title>Node1&#45;&gt;Node4</title>
<path fill="none" stroke="midnightblue" d="M151.212,-280.933C127.865,-270.855 96.691,-257.399 74.1241,-247.657"/>
<polygon fill="midnightblue" stroke="midnightblue" points="75.2925,-244.35 64.7243,-243.6 72.5183,-250.777 75.2925,-244.35"/>
</g>
<!-- Node5 -->
<g id="node5" class="node"><title>Node5</title>
<g id="a_node5"><a xlink:href="detector_8h.html" target="_top" xlink:title="detector.h">
<polygon fill="none" stroke="black" points="124.801,-224.5 124.801,-243.5 184.801,-243.5 184.801,-224.5 124.801,-224.5"/>
<text text-anchor="middle" x="154.801" y="-231.5" font-family="Helvetica,sans-Serif" font-size="10.00">detector.h</text>
</a>
</g>
</g>
<!-- Node1&#45;&gt;Node5 -->
<g id="edge4" class="edge"><title>Node1&#45;&gt;Node5</title>
<path fill="none" stroke="midnightblue" d="M176.928,-280.781C172.888,-272.422 167.743,-261.777 163.431,-252.856"/>
<polygon fill="midnightblue" stroke="midnightblue" points="166.524,-251.211 159.021,-243.731 160.221,-254.257 166.524,-251.211"/>
</g>
<!-- Node6 -->
<g id="node6" class="node"><title>Node6</title>
<g id="a_node6"><a xlink:href="error_8h.html" target="_top" xlink:title="error.h">
<polygon fill="none" stroke="black" points="79.8009,-168.5 79.8009,-187.5 123.801,-187.5 123.801,-168.5 79.8009,-168.5"/>
<text text-anchor="middle" x="101.801" y="-175.5" font-family="Helvetica,sans-Serif" font-size="10.00">error.h</text>
</a>
</g>
</g>
<!-- Node1&#45;&gt;Node6 -->
<g id="edge14" class="edge"><title>Node1&#45;&gt;Node6</title>
<path fill="none" stroke="midnightblue" d="M156.422,-280.806C142.196,-272.056 125.751,-259.533 115.801,-244 106.948,-230.179 103.61,-211.659 102.392,-197.923"/>
<polygon fill="midnightblue" stroke="midnightblue" points="105.873,-197.497 101.793,-187.719 98.8853,-197.907 105.873,-197.497"/>
</g>
<!-- Node7 -->
<g id="node7" class="node"><title>Node7</title>
<g id="a_node7"><a xlink:href="preprocessor_8h.html" target="_top" xlink:title="preprocessor.h">
<polygon fill="none" stroke="black" points="152.301,-168.5 152.301,-187.5 233.301,-187.5 233.301,-168.5 152.301,-168.5"/>
<text text-anchor="middle" x="192.801" y="-175.5" font-family="Helvetica,sans-Serif" font-size="10.00">preprocessor.h</text>
</a>
</g>
</g>
<!-- Node1&#45;&gt;Node7 -->
<g id="edge15" class="edge"><title>Node1&#45;&gt;Node7</title>
<path fill="none" stroke="midnightblue" d="M186.994,-280.799C189.114,-270.617 191.703,-256.539 192.801,-244 194.156,-228.523 194.054,-210.894 193.669,-197.904"/>
<polygon fill="midnightblue" stroke="midnightblue" points="197.165,-197.713 193.289,-187.853 190.17,-197.978 197.165,-197.713"/>
</g>
<!-- Node8 -->
<g id="node8" class="node"><title>Node8</title>
<g id="a_node8"><a xlink:href="dictionary_8h.html" target="_top" xlink:title="dictionary.h">
<polygon fill="none" stroke="black" points="241.301,-224.5 241.301,-243.5 308.301,-243.5 308.301,-224.5 241.301,-224.5"/>
<text text-anchor="middle" x="274.801" y="-231.5" font-family="Helvetica,sans-Serif" font-size="10.00">dictionary.h</text>
</a>
</g>
</g>
<!-- Node1&#45;&gt;Node8 -->
<g id="edge7" class="edge"><title>Node1&#45;&gt;Node8</title>
<path fill="none" stroke="midnightblue" d="M205.367,-280.781C219.767,-271.286 238.638,-258.843 253.072,-249.327"/>
<polygon fill="midnightblue" stroke="midnightblue" points="255.403,-251.982 261.825,-243.556 251.549,-246.138 255.403,-251.982"/>
</g>
<!-- Node9 -->
<g id="node9" class="node"><title>Node9</title>
<g id="a_node9"><a xlink:href="vector_8h.html" target="_top" xlink:title="vector.h">
<polygon fill="none" stroke="black" points="294.801,-168.5 294.801,-187.5 346.801,-187.5 346.801,-168.5 294.801,-168.5"/>
<text text-anchor="middle" x="320.801" y="-175.5" font-family="Helvetica,sans-Serif" font-size="10.00">vector.h</text>
</a>
</g>
</g>
<!-- Node1&#45;&gt;Node9 -->
<g id="edge17" class="edge"><title>Node1&#45;&gt;Node9</title>
<path fill="none" stroke="midnightblue" d="M247.841,-285.75C273.4,-278.658 300.561,-266.131 316.801,-244 326.512,-230.766 326.495,-211.636 324.66,-197.554"/>
<polygon fill="midnightblue" stroke="midnightblue" points="328.085,-196.82 322.95,-187.553 321.185,-197.999 328.085,-196.82"/>
</g>
<!-- Node10 -->
<g id="node10" class="node"><title>Node10</title>
<g id="a_node10"><a xlink:href="tm_8h.html" target="_top" xlink:title="tm.h">
<polygon fill="none" stroke="black" points="309.801,-112.5 309.801,-131.5 345.801,-131.5 345.801,-112.5 309.801,-112.5"/>
<text text-anchor="middle" x="327.801" y="-119.5" font-family="Helvetica,sans-Serif" font-size="10.00">tm.h</text>
</a>
</g>
</g>
<!-- Node1&#45;&gt;Node10 -->
<g id="edge16" class="edge"><title>Node1&#45;&gt;Node10</title>
<path fill="none" stroke="midnightblue" d="M248.052,-286.22C277.707,-279.205 311.434,-266.607 334.801,-244 359.986,-219.633 365.428,-201.695 355.801,-168 352.899,-157.844 346.969,-147.747 341.311,-139.699"/>
<polygon fill="midnightblue" stroke="midnightblue" points="344.02,-137.479 335.213,-131.589 338.425,-141.685 344.02,-137.479"/>
</g>
<!-- Node3 -->
<g id="node3" class="node"><title>Node3</title>
<polygon fill="none" stroke="#bfbfbf" points="101.301,-0.5 101.301,-19.5 152.301,-19.5 152.301,-0.5 101.301,-0.5"/>
<text text-anchor="middle" x="126.801" y="-7.5" font-family="Helvetica,sans-Serif" font-size="10.00">config.h</text>
</g>
<!-- Node2&#45;&gt;Node3 -->
<g id="edge2" class="edge"><title>Node2&#45;&gt;Node3</title>
<path fill="none" stroke="midnightblue" d="M126.801,-56.083C126.801,-49.0059 126.801,-38.8611 126.801,-29.9865"/>
<polygon fill="midnightblue" stroke="midnightblue" points="130.301,-29.751 126.801,-19.7511 123.301,-29.7511 130.301,-29.751"/>
</g>
<!-- Node5&#45;&gt;Node6 -->
<g id="edge5" class="edge"><title>Node5&#45;&gt;Node6</title>
<path fill="none" stroke="midnightblue" d="M146.049,-224.083C138.331,-216.22 126.896,-204.569 117.584,-195.081"/>
<polygon fill="midnightblue" stroke="midnightblue" points="119.892,-192.436 110.39,-187.751 114.897,-197.34 119.892,-192.436"/>
</g>
<!-- Node5&#45;&gt;Node7 -->
<g id="edge6" class="edge"><title>Node5&#45;&gt;Node7</title>
<path fill="none" stroke="midnightblue" d="M161.076,-224.083C166.443,-216.455 174.318,-205.264 180.88,-195.941"/>
<polygon fill="midnightblue" stroke="midnightblue" points="183.75,-197.943 186.643,-187.751 178.025,-193.915 183.75,-197.943"/>
</g>
<!-- Node8&#45;&gt;Node9 -->
<g id="edge8" class="edge"><title>Node8&#45;&gt;Node9</title>
<path fill="none" stroke="midnightblue" d="M282.397,-224.083C289.028,-216.298 298.822,-204.801 306.859,-195.367"/>
<polygon fill="midnightblue" stroke="midnightblue" points="309.526,-197.633 313.346,-187.751 304.197,-193.094 309.526,-197.633"/>
</g>
<!-- Node12 -->
<g id="node12" class="node"><title>Node12</title>
<g id="a_node12"><a xlink:href="types_8h.html" target="_top" xlink:title="types.h">
<polygon fill="none" stroke="black" points="242.301,-112.5 242.301,-131.5 291.301,-131.5 291.301,-112.5 242.301,-112.5"/>
<text text-anchor="middle" x="266.801" y="-119.5" font-family="Helvetica,sans-Serif" font-size="10.00">types.h</text>
</a>
</g>
</g>
<!-- Node8&#45;&gt;Node12 -->
<g id="edge13" class="edge"><title>Node8&#45;&gt;Node12</title>
<path fill="none" stroke="midnightblue" d="M274.173,-224.368C272.882,-206.617 269.904,-165.666 268.153,-141.597"/>
<polygon fill="midnightblue" stroke="midnightblue" points="271.642,-141.311 267.426,-131.591 264.66,-141.819 271.642,-141.311"/>
</g>
<!-- Node9&#45;&gt;Node10 -->
<g id="edge9" class="edge"><title>Node9&#45;&gt;Node10</title>
<path fill="none" stroke="midnightblue" d="M321.957,-168.083C322.884,-160.927 324.219,-150.635 325.378,-141.691"/>
<polygon fill="midnightblue" stroke="midnightblue" points="328.852,-142.118 326.666,-131.751 321.91,-141.218 328.852,-142.118"/>
</g>
<!-- Node9&#45;&gt;Node12 -->
<g id="edge12" class="edge"><title>Node9&#45;&gt;Node12</title>
<path fill="none" stroke="midnightblue" d="M311.884,-168.083C304.02,-160.22 292.37,-148.569 282.882,-139.081"/>
<polygon fill="midnightblue" stroke="midnightblue" points="285.098,-136.347 275.552,-131.751 280.148,-141.297 285.098,-136.347"/>
</g>
<!-- Node10&#45;&gt;Node2 -->
<g id="edge11" class="edge"><title>Node10&#45;&gt;Node2</title>
<path fill="none" stroke="midnightblue" d="M309.772,-115.04C306.466,-113.994 303.037,-112.94 299.801,-112 252.74,-98.3278 197.912,-84.4005 162.805,-75.735"/>
<polygon fill="midnightblue" stroke="midnightblue" points="163.558,-72.316 153.011,-73.328 161.887,-79.1137 163.558,-72.316"/>
</g>
<!-- Node11 -->
<g id="node11" class="node"><title>Node11</title>
<polygon fill="none" stroke="#bfbfbf" points="304.801,-56.5 304.801,-75.5 350.801,-75.5 350.801,-56.5 304.801,-56.5"/>
<text text-anchor="middle" x="327.801" y="-63.5" font-family="Helvetica,sans-Serif" font-size="10.00">stdio.h</text>
</g>
<!-- Node10&#45;&gt;Node11 -->
<g id="edge10" class="edge"><title>Node10&#45;&gt;Node11</title>
<path fill="none" stroke="midnightblue" d="M327.801,-112.083C327.801,-105.006 327.801,-94.8611 327.801,-85.9865"/>
<polygon fill="midnightblue" stroke="midnightblue" points="331.301,-85.751 327.801,-75.7511 324.301,-85.7511 331.301,-85.751"/>
</g>
</g>
</svg>
