<?xml version="1.0" encoding="UTF-8" standalone="no"?>
<!DOCTYPE svg PUBLIC "-//W3C//DTD SVG 1.1//EN"
 "http://www.w3.org/Graphics/SVG/1.1/DTD/svg11.dtd">
<!-- Generated by graphviz version 2.36.0 (20140111.2315)
 -->
<!-- Title: dictionary_alloc Pages: 1 -->
<svg width="410pt" height="47pt"
 viewBox="0.00 0.00 410.00 47.00" xmlns="http://www.w3.org/2000/svg" xmlns:xlink="http://www.w3.org/1999/xlink">
<g id="graph0" class="graph" transform="scale(1 1) rotate(0) translate(4 43)">
<title>dictionary_alloc</title>
<!-- Node1 -->
<g id="node1" class="node"><title>Node1</title>
<polygon fill="#bfbfbf" stroke="black" points="0,-0.5 0,-19.5 84,-19.5 84,-0.5 0,-0.5"/>
<text text-anchor="middle" x="42" y="-7.5" font-family="Helvetica,sans-Serif" font-size="10.00">dictionary_alloc</text>
</g>
<!-- Node2 -->
<g id="node2" class="node"><title>Node2</title>
<g id="a_node2"><a xlink:href="detector_8h.html#a6b004a6f665b307d4c15f042806e4fc0" target="_top" xlink:title="detector_alloc">
<polygon fill="none" stroke="black" points="120.5,-19.5 120.5,-38.5 197.5,-38.5 197.5,-19.5 120.5,-19.5"/>
<text text-anchor="middle" x="159" y="-26.5" font-family="Helvetica,sans-Serif" font-size="10.00">detector_alloc</text>
</a>
</g>
</g>
<!-- Node1&#45;&gt;Node2 -->
<g id="edge1" class="edge"><title>Node1&#45;&gt;Node2</title>
<path fill="none" stroke="midnightblue" d="M94.2754,-18.4716C102.981,-19.9099 111.879,-21.3801 120.159,-22.7481"/>
<polygon fill="midnightblue" stroke="midnightblue" points="94.6296,-14.9827 84.1928,-16.8058 93.4885,-21.8891 94.6296,-14.9827"/>
</g>
<!-- Node4 -->
<g id="node4" class="node"><title>Node4</title>
<g id="a_node4"><a xlink:href="intruder_8c.html#a40c5c0b0d4eb7b59a91108269f69dc89" target="_top" xlink:title="MAIN">
<polygon fill="none" stroke="black" points="360,-0.5 360,-19.5 402,-19.5 402,-0.5 360,-0.5"/>
<text text-anchor="middle" x="381" y="-7.5" font-family="Helvetica,sans-Serif" font-size="10.00">MAIN</text>
</a>
</g>
</g>
<!-- Node1&#45;&gt;Node4 -->
<g id="edge4" class="edge"><title>Node1&#45;&gt;Node4</title>
<path fill="none" stroke="midnightblue" d="M94.5715,-10C170.231,-10 307.931,-10 359.647,-10"/>
<polygon fill="midnightblue" stroke="midnightblue" points="94.3228,-6.5001 84.3228,-10 94.3228,-13.5001 94.3228,-6.5001"/>
</g>
<!-- Node3 -->
<g id="node3" class="node"><title>Node3</title>
<g id="a_node3"><a xlink:href="stream_8h.html#a1edfb122c99ded84c9f8239b62ed56c8" target="_top" xlink:title="stream_generate">
<polygon fill="none" stroke="black" points="234.5,-19.5 234.5,-38.5 323.5,-38.5 323.5,-19.5 234.5,-19.5"/>
<text text-anchor="middle" x="279" y="-26.5" font-family="Helvetica,sans-Serif" font-size="10.00">stream_generate</text>
</a>
</g>
</g>
<!-- Node2&#45;&gt;Node3 -->
<g id="edge2" class="edge"><title>Node2&#45;&gt;Node3</title>
<path fill="none" stroke="midnightblue" d="M207.703,-29C216.432,-29 225.505,-29 234.116,-29"/>
<polygon fill="midnightblue" stroke="midnightblue" points="207.66,-25.5001 197.66,-29 207.66,-32.5001 207.66,-25.5001"/>
</g>
<!-- Node3&#45;&gt;Node4 -->
<g id="edge3" class="edge"><title>Node3&#45;&gt;Node4</title>
<path fill="none" stroke="midnightblue" d="M333.395,-18.855C342.821,-17.0641 352.085,-15.3039 359.839,-13.8306"/>
<polygon fill="midnightblue" stroke="midnightblue" points="332.741,-15.4164 323.571,-20.7216 334.048,-22.2934 332.741,-15.4164"/>
</g>
</g>
</svg>
