<?xml version="1.0" encoding="UTF-8" standalone="no"?>
<!DOCTYPE svg PUBLIC "-//W3C//DTD SVG 1.1//EN"
 "http://www.w3.org/Graphics/SVG/1.1/DTD/svg11.dtd">
<!-- Generated by graphviz version 2.36.0 (20140111.2315)
 -->
<!-- Title: rstm/rstm&#45;dev/include Pages: 1 -->
<svg width="263pt" height="255pt"
 viewBox="0.00 0.00 263.00 255.00" xmlns="http://www.w3.org/2000/svg" xmlns:xlink="http://www.w3.org/1999/xlink">
<g id="graph0" class="graph" transform="scale(1 1) rotate(0) translate(4 251)">
<title>rstm/rstm&#45;dev/include</title>
<g id="clust1" class="cluster"><title>clusterdir_00ecb6708c2e4e588a7f31eabeda4c09</title>
<g id="a_clust1"><a xlink:href="dir_00ecb6708c2e4e588a7f31eabeda4c09.html" target="_top" xlink:title="rstm&#45;dev">
<polygon fill="#ddddee" stroke="black" points="8,-8 8,-239 186,-239 186,-8 8,-8"/>
<text text-anchor="middle" x="97" y="-227" font-family="Helvetica,sans-Serif" font-size="10.00">rstm&#45;dev</text>
</a>
</g>
</g>
<g id="clust2" class="cluster"><title>clusterdir_e26963830a7c17cb76cff48cea52df4a</title>
<g id="a_clust2"><a xlink:href="dir_e26963830a7c17cb76cff48cea52df4a.html" target="_top">
<polygon fill="#eeeeff" stroke="black" points="16,-16 16,-212 178,-212 178,-16 16,-16"/>
</a>
</g>
</g>
<!-- dir_e26963830a7c17cb76cff48cea52df4a -->
<g id="node1" class="node"><title>dir_e26963830a7c17cb76cff48cea52df4a</title>
<text text-anchor="middle" x="143" y="-183.5" font-family="Helvetica,sans-Serif" font-size="10.00">include</text>
</g>
<!-- dir_42662fc1c97c38132552cf39fd6f5d8d -->
<g id="node2" class="node"><title>dir_42662fc1c97c38132552cf39fd6f5d8d</title>
<g id="a_node2"><a xlink:href="dir_42662fc1c97c38132552cf39fd6f5d8d.html" target="_top" xlink:title="api">
<polygon fill="white" stroke="black" points="98,-204 44,-204 44,-168 98,-168 98,-204"/>
<text text-anchor="middle" x="71" y="-183.5" font-family="Helvetica,sans-Serif" font-size="10.00">api</text>
</a>
</g>
</g>
<!-- dir_ceb89e959ac7edcf36f4084f4bd5cd5e -->
<g id="node3" class="node"><title>dir_ceb89e959ac7edcf36f4084f4bd5cd5e</title>
<g id="a_node3"><a xlink:href="dir_ceb89e959ac7edcf36f4084f4bd5cd5e.html" target="_top" xlink:title="common">
<polygon fill="white" stroke="black" points="124,-60 70,-60 70,-24 124,-24 124,-60"/>
<text text-anchor="middle" x="97" y="-39.5" font-family="Helvetica,sans-Serif" font-size="10.00">common</text>
</a>
</g>
</g>
<!-- dir_42662fc1c97c38132552cf39fd6f5d8d&#45;&gt;dir_ceb89e959ac7edcf36f4084f4bd5cd5e -->
<g id="edge4" class="edge"><title>dir_42662fc1c97c38132552cf39fd6f5d8d&#45;&gt;dir_ceb89e959ac7edcf36f4084f4bd5cd5e</title>
<path fill="none" stroke="black" d="M77.1439,-167.538C80.5252,-157.301 84.5252,-144.051 87,-132 91.196,-111.567 93.7405,-88.108 95.212,-70.406"/>
<polygon fill="black" stroke="black" points="98.7192,-70.445 95.9948,-60.2064 91.7397,-69.9093 98.7192,-70.445"/>
<g id="a_edge4&#45;headlabel"><a xlink:href="dir_000016_000017.html" target="_top" xlink:title="1">
<text text-anchor="middle" x="101.275" y="-71.7463" font-family="Helvetica,sans-Serif" font-size="10.00">1</text>
</a>
</g>
</g>
<!-- dir_bd58ed4cd6c3b1e466ef8c481854bc28 -->
<g id="node5" class="node"><title>dir_bd58ed4cd6c3b1e466ef8c481854bc28</title>
<g id="a_node5"><a xlink:href="dir_bd58ed4cd6c3b1e466ef8c481854bc28.html" target="_top" xlink:title="stm">
<polygon fill="white" stroke="black" points="170,-132 116,-132 116,-96 170,-96 170,-132"/>
<text text-anchor="middle" x="143" y="-111.5" font-family="Helvetica,sans-Serif" font-size="10.00">stm</text>
</a>
</g>
</g>
<!-- dir_42662fc1c97c38132552cf39fd6f5d8d&#45;&gt;dir_bd58ed4cd6c3b1e466ef8c481854bc28 -->
<g id="edge3" class="edge"><title>dir_42662fc1c97c38132552cf39fd6f5d8d&#45;&gt;dir_bd58ed4cd6c3b1e466ef8c481854bc28</title>
<path fill="none" stroke="black" d="M88.7978,-167.697C97.604,-159.135 108.382,-148.656 118.001,-139.304"/>
<polygon fill="black" stroke="black" points="120.677,-141.585 125.407,-132.104 115.797,-136.566 120.677,-141.585"/>
<g id="a_edge3&#45;headlabel"><a xlink:href="dir_000016_000019.html" target="_top" xlink:title="1">
<text text-anchor="middle" x="120.079" y="-143.626" font-family="Helvetica,sans-Serif" font-size="10.00">1</text>
</a>
</g>
</g>
<!-- dir_fcdf7efc96e17d0d52ebe448d82cbe6c -->
<g id="node4" class="node"><title>dir_fcdf7efc96e17d0d52ebe448d82cbe6c</title>
<g id="a_node4"><a xlink:href="dir_fcdf7efc96e17d0d52ebe448d82cbe6c.html" target="_top" xlink:title="itm">
<polygon fill="white" stroke="black" points="78,-132 24,-132 24,-96 78,-96 78,-132"/>
<text text-anchor="middle" x="51" y="-111.5" font-family="Helvetica,sans-Serif" font-size="10.00">itm</text>
</a>
</g>
</g>
<!-- dir_fcdf7efc96e17d0d52ebe448d82cbe6c&#45;&gt;dir_ceb89e959ac7edcf36f4084f4bd5cd5e -->
<g id="edge5" class="edge"><title>dir_fcdf7efc96e17d0d52ebe448d82cbe6c&#45;&gt;dir_ceb89e959ac7edcf36f4084f4bd5cd5e</title>
<path fill="none" stroke="black" d="M62.3708,-95.6966C67.7185,-87.5589 74.2043,-77.689 80.1106,-68.7013"/>
<polygon fill="black" stroke="black" points="83.1932,-70.3835 85.76,-60.1043 77.3432,-66.5393 83.1932,-70.3835"/>
<g id="a_edge5&#45;headlabel"><a xlink:href="dir_000018_000017.html" target="_top" xlink:title="1">
<text text-anchor="middle" x="83.5919" y="-72.4468" font-family="Helvetica,sans-Serif" font-size="10.00">1</text>
</a>
</g>
</g>
<!-- dir_bd58ed4cd6c3b1e466ef8c481854bc28&#45;&gt;dir_ceb89e959ac7edcf36f4084f4bd5cd5e -->
<g id="edge2" class="edge"><title>dir_bd58ed4cd6c3b1e466ef8c481854bc28&#45;&gt;dir_ceb89e959ac7edcf36f4084f4bd5cd5e</title>
<path fill="none" stroke="black" d="M131.629,-95.6966C126.282,-87.5589 119.796,-77.689 113.889,-68.7013"/>
<polygon fill="black" stroke="black" points="116.657,-66.5393 108.24,-60.1043 110.807,-70.3835 116.657,-66.5393"/>
<g id="a_edge2&#45;headlabel"><a xlink:href="dir_000019_000017.html" target="_top" xlink:title="3">
<text text-anchor="middle" x="121.004" y="-65.484" font-family="Helvetica,sans-Serif" font-size="10.00">3</text>
</a>
</g>
</g>
<!-- dir_1e60e34d3486d4be008b412c888c237e -->
<g id="node6" class="node"><title>dir_1e60e34d3486d4be008b412c888c237e</title>
<g id="a_node6"><a xlink:href="dir_1e60e34d3486d4be008b412c888c237e.html" target="_top" xlink:title="alt&#45;license">
<polygon fill="none" stroke="black" points="255.25,-60 194.75,-60 194.75,-24 255.25,-24 255.25,-60"/>
<text text-anchor="middle" x="225" y="-39.5" font-family="Helvetica,sans-Serif" font-size="10.00">alt&#45;license</text>
</a>
</g>
</g>
<!-- dir_bd58ed4cd6c3b1e466ef8c481854bc28&#45;&gt;dir_1e60e34d3486d4be008b412c888c237e -->
<g id="edge1" class="edge"><title>dir_bd58ed4cd6c3b1e466ef8c481854bc28&#45;&gt;dir_1e60e34d3486d4be008b412c888c237e</title>
<path fill="none" stroke="black" d="M163.27,-95.6966C173.498,-86.9655 186.061,-76.2405 197.178,-66.7503"/>
<polygon fill="black" stroke="black" points="199.63,-69.259 204.963,-60.1043 195.085,-63.935 199.63,-69.259"/>
<g id="a_edge1&#45;headlabel"><a xlink:href="dir_000019_000013.html" target="_top" xlink:title="1">
<text text-anchor="middle" x="198.74" y="-71.2522" font-family="Helvetica,sans-Serif" font-size="10.00">1</text>
</a>
</g>
</g>
</g>
</svg>
