<?xml version="1.0" encoding="UTF-8" standalone="no"?>
<!DOCTYPE svg PUBLIC "-//W3C//DTD SVG 1.1//EN"
 "http://www.w3.org/Graphics/SVG/1.1/DTD/svg11.dtd">
<!-- Generated by graphviz version 2.36.0 (20140111.2315)
 -->
<!-- Title: rstm/rstm&#45;dev/stamp&#45;0.9.10/bayes Pages: 1 -->
<svg width="108pt" height="223pt"
 viewBox="0.00 0.00 108.00 223.00" xmlns="http://www.w3.org/2000/svg" xmlns:xlink="http://www.w3.org/1999/xlink">
<g id="graph0" class="graph" transform="scale(1 1) rotate(0) translate(4 219)">
<title>rstm/rstm&#45;dev/stamp&#45;0.9.10/bayes</title>
<g id="clust1" class="cluster"><title>clusterdir_bc9985c95df3be472174950030814f37</title>
<g id="a_clust1"><a xlink:href="dir_bc9985c95df3be472174950030814f37.html" target="_top" xlink:title="stamp&#45;0.9.10">
<polygon fill="#ddddee" stroke="black" points="8,-136 8,-207 82,-207 82,-136 8,-136"/>
<text text-anchor="middle" x="45" y="-195" font-family="Helvetica,sans-Serif" font-size="10.00">stamp&#45;0.9.10</text>
</a>
</g>
</g>
<!-- dir_a1fa1c558c1f87d3ebb31a2d32044749 -->
<g id="node1" class="node"><title>dir_a1fa1c558c1f87d3ebb31a2d32044749</title>
<g id="a_node1"><a xlink:href="dir_a1fa1c558c1f87d3ebb31a2d32044749.html" target="_top" xlink:title="bayes">
<polygon fill="#eeeeff" stroke="black" points="72,-180 18,-180 18,-144 72,-144 72,-180"/>
<text text-anchor="middle" x="45" y="-159.5" font-family="Helvetica,sans-Serif" font-size="10.00">bayes</text>
</a>
</g>
</g>
<!-- dir_c66779e42e8054687bdee5ddde6852fb -->
<g id="node2" class="node"><title>dir_c66779e42e8054687bdee5ddde6852fb</title>
<g id="a_node2"><a xlink:href="dir_c66779e42e8054687bdee5ddde6852fb.html" target="_top" xlink:title="common">
<polygon fill="none" stroke="red" points="72,-36 18,-36 18,-0 72,-0 72,-36"/>
<text text-anchor="middle" x="45" y="-15.5" font-family="Helvetica,sans-Serif" font-size="10.00">common</text>
</a>
</g>
</g>
<!-- dir_a1fa1c558c1f87d3ebb31a2d32044749&#45;&gt;dir_c66779e42e8054687bdee5ddde6852fb -->
<g id="edge1" class="edge"><title>dir_a1fa1c558c1f87d3ebb31a2d32044749&#45;&gt;dir_c66779e42e8054687bdee5ddde6852fb</title>
<path fill="none" stroke="black" d="M41.7517,-143.888C39.9542,-133.542 37.9053,-120.063 37,-108 35.8026,-92.0449 35.8026,-87.9551 37,-72 37.6366,-63.5179 38.8384,-54.3361 40.1208,-46.0356"/>
<polygon fill="black" stroke="black" points="43.5836,-46.5472 41.7517,-36.1119 36.6763,-45.412 43.5836,-46.5472"/>
<g id="a_edge1&#45;headlabel"><a xlink:href="dir_000029_000004.html" target="_top" xlink:title="6">
<text text-anchor="middle" x="45.8024" y="-48.0546" font-family="Helvetica,sans-Serif" font-size="10.00">6</text>
</a>
</g>
</g>
<!-- dir_a058063dc311df04934db0202595fd87 -->
<g id="node3" class="node"><title>dir_a058063dc311df04934db0202595fd87</title>
<g id="a_node3"><a xlink:href="dir_a058063dc311df04934db0202595fd87.html" target="_top" xlink:title="lib">
<polygon fill="none" stroke="black" points="100,-108 46,-108 46,-72 100,-72 100,-108"/>
<text text-anchor="middle" x="73" y="-87.5" font-family="Helvetica,sans-Serif" font-size="10.00">lib</text>
</a>
</g>
</g>
<!-- dir_a1fa1c558c1f87d3ebb31a2d32044749&#45;&gt;dir_a058063dc311df04934db0202595fd87 -->
<g id="edge2" class="edge"><title>dir_a1fa1c558c1f87d3ebb31a2d32044749&#45;&gt;dir_a058063dc311df04934db0202595fd87</title>
<path fill="none" stroke="black" d="M51.9214,-143.697C55.0747,-135.813 58.8783,-126.304 62.3814,-117.546"/>
<polygon fill="black" stroke="black" points="65.694,-118.689 66.1583,-108.104 59.1946,-116.089 65.694,-118.689"/>
<g id="a_edge2&#45;headlabel"><a xlink:href="dir_000029_000009.html" target="_top" xlink:title="25">
<text text-anchor="middle" x="66.9952" y="-120.581" font-family="Helvetica,sans-Serif" font-size="10.00">25</text>
</a>
</g>
</g>
<!-- dir_a058063dc311df04934db0202595fd87&#45;&gt;dir_c66779e42e8054687bdee5ddde6852fb -->
<g id="edge3" class="edge"><title>dir_a058063dc311df04934db0202595fd87&#45;&gt;dir_c66779e42e8054687bdee5ddde6852fb</title>
<path fill="none" stroke="black" d="M66.0786,-71.6966C62.9253,-63.8132 59.1217,-54.3042 55.6186,-45.5464"/>
<polygon fill="black" stroke="black" points="58.8054,-44.0892 51.8417,-36.1043 52.306,-46.689 58.8054,-44.0892"/>
<g id="a_edge3&#45;headlabel"><a xlink:href="dir_000009_000004.html" target="_top" xlink:title="8">
<text text-anchor="middle" x="62.7765" y="-43.8723" font-family="Helvetica,sans-Serif" font-size="10.00">8</text>
</a>
</g>
</g>
</g>
</svg>
