<?xml version="1.0" encoding="UTF-8" standalone="no"?>
<!DOCTYPE svg PUBLIC "-//W3C//DTD SVG 1.1//EN"
 "http://www.w3.org/Graphics/SVG/1.1/DTD/svg11.dtd">
<!-- Generated by graphviz version 2.36.0 (20140111.2315)
 -->
<!-- Title: rstm/rstm&#45;dev/libitm2stm Pages: 1 -->
<svg width="190pt" height="231pt"
 viewBox="0.00 0.00 190.00 231.00" xmlns="http://www.w3.org/2000/svg" xmlns:xlink="http://www.w3.org/1999/xlink">
<g id="graph0" class="graph" transform="scale(1 1) rotate(0) translate(4 227)">
<title>rstm/rstm&#45;dev/libitm2stm</title>
<g id="clust1" class="cluster"><title>clusterdir_00ecb6708c2e4e588a7f31eabeda4c09</title>
<g id="a_clust1"><a xlink:href="dir_00ecb6708c2e4e588a7f31eabeda4c09.html" target="_top" xlink:title="rstm&#45;dev">
<polygon fill="#ddddee" stroke="black" points="8,-128 8,-215 174,-215 174,-128 8,-128"/>
<text text-anchor="middle" x="91" y="-203" font-family="Helvetica,sans-Serif" font-size="10.00">rstm&#45;dev</text>
</a>
</g>
</g>
<g id="clust2" class="cluster"><title>clusterdir_04e047c688dae5bb9ebe1beaef573cd5</title>
<g id="a_clust2"><a xlink:href="dir_04e047c688dae5bb9ebe1beaef573cd5.html" target="_top">
<polygon fill="#eeeeff" stroke="black" points="16,-136 16,-188 166,-188 166,-136 16,-136"/>
</a>
</g>
</g>
<!-- dir_04e047c688dae5bb9ebe1beaef573cd5 -->
<g id="node1" class="node"><title>dir_04e047c688dae5bb9ebe1beaef573cd5</title>
<text text-anchor="middle" x="127" y="-159.5" font-family="Helvetica,sans-Serif" font-size="10.00">libitm2stm</text>
</g>
<!-- dir_1e60e34d3486d4be008b412c888c237e -->
<g id="node3" class="node"><title>dir_1e60e34d3486d4be008b412c888c237e</title>
<g id="a_node3"><a xlink:href="dir_1e60e34d3486d4be008b412c888c237e.html" target="_top" xlink:title="alt&#45;license">
<polygon fill="none" stroke="black" points="157.25,-36 96.75,-36 96.75,-0 157.25,-0 157.25,-36"/>
<text text-anchor="middle" x="127" y="-15.5" font-family="Helvetica,sans-Serif" font-size="10.00">alt&#45;license</text>
</a>
</g>
</g>
<!-- dir_04e047c688dae5bb9ebe1beaef573cd5&#45;&gt;dir_1e60e34d3486d4be008b412c888c237e -->
<g id="edge2" class="edge"><title>dir_04e047c688dae5bb9ebe1beaef573cd5&#45;&gt;dir_1e60e34d3486d4be008b412c888c237e</title>
<path fill="none" stroke="black" d="M123.752,-143.888C121.954,-133.542 119.905,-120.063 119,-108 117.803,-92.0449 117.803,-87.9551 119,-72 119.637,-63.5179 120.838,-54.3361 122.121,-46.0356"/>
<polygon fill="black" stroke="black" points="125.584,-46.5472 123.752,-36.1119 118.676,-45.412 125.584,-46.5472"/>
<g id="a_edge2&#45;headlabel"><a xlink:href="dir_000021_000013.html" target="_top" xlink:title="1">
<text text-anchor="middle" x="127.802" y="-48.0546" font-family="Helvetica,sans-Serif" font-size="10.00">1</text>
</a>
</g>
</g>
<!-- dir_e26963830a7c17cb76cff48cea52df4a -->
<g id="node4" class="node"><title>dir_e26963830a7c17cb76cff48cea52df4a</title>
<g id="a_node4"><a xlink:href="dir_e26963830a7c17cb76cff48cea52df4a.html" target="_top" xlink:title="include">
<polygon fill="none" stroke="red" points="182,-108 128,-108 128,-72 182,-72 182,-108"/>
<text text-anchor="middle" x="155" y="-87.5" font-family="Helvetica,sans-Serif" font-size="10.00">include</text>
</a>
</g>
</g>
<!-- dir_04e047c688dae5bb9ebe1beaef573cd5&#45;&gt;dir_e26963830a7c17cb76cff48cea52df4a -->
<g id="edge3" class="edge"><title>dir_04e047c688dae5bb9ebe1beaef573cd5&#45;&gt;dir_e26963830a7c17cb76cff48cea52df4a</title>
<path fill="none" stroke="black" d="M133.921,-143.697C137.075,-135.813 140.878,-126.304 144.381,-117.546"/>
<polygon fill="black" stroke="black" points="147.694,-118.689 148.158,-108.104 141.195,-116.089 147.694,-118.689"/>
<g id="a_edge3&#45;headlabel"><a xlink:href="dir_000021_000015.html" target="_top" xlink:title="13">
<text text-anchor="middle" x="148.995" y="-120.581" font-family="Helvetica,sans-Serif" font-size="10.00">13</text>
</a>
</g>
</g>
<!-- dir_cb598305e2aff56a324708aea1bd71a1 -->
<g id="node2" class="node"><title>dir_cb598305e2aff56a324708aea1bd71a1</title>
<g id="a_node2"><a xlink:href="dir_cb598305e2aff56a324708aea1bd71a1.html" target="_top" xlink:title="arch">
<polygon fill="white" stroke="red" points="78,-180 24,-180 24,-144 78,-144 78,-180"/>
<text text-anchor="middle" x="51" y="-159.5" font-family="Helvetica,sans-Serif" font-size="10.00">arch</text>
</a>
</g>
</g>
<!-- dir_e26963830a7c17cb76cff48cea52df4a&#45;&gt;dir_1e60e34d3486d4be008b412c888c237e -->
<g id="edge1" class="edge"><title>dir_e26963830a7c17cb76cff48cea52df4a&#45;&gt;dir_1e60e34d3486d4be008b412c888c237e</title>
<path fill="none" stroke="black" d="M148.079,-71.6966C144.925,-63.8132 141.122,-54.3042 137.619,-45.5464"/>
<polygon fill="black" stroke="black" points="140.805,-44.0892 133.842,-36.1043 134.306,-46.689 140.805,-44.0892"/>
<g id="a_edge1&#45;headlabel"><a xlink:href="dir_000015_000013.html" target="_top" xlink:title="1">
<text text-anchor="middle" x="144.777" y="-43.8723" font-family="Helvetica,sans-Serif" font-size="10.00">1</text>
</a>
</g>
</g>
</g>
</svg>
