<?xml version="1.0" encoding="UTF-8" standalone="no"?>
<!DOCTYPE svg PUBLIC "-//W3C//DTD SVG 1.1//EN"
 "http://www.w3.org/Graphics/SVG/1.1/DTD/svg11.dtd">
<!-- Generated by graphviz version 2.36.0 (20140111.2315)
 -->
<!-- Title: rstm/rstm&#45;dev/mesh/dwyer.hpp Pages: 1 -->
<svg width="356pt" height="108pt"
 viewBox="0.00 0.00 356.00 108.00" xmlns="http://www.w3.org/2000/svg" xmlns:xlink="http://www.w3.org/1999/xlink">
<g id="graph0" class="graph" transform="scale(1 1) rotate(0) translate(4 104)">
<title>rstm/rstm&#45;dev/mesh/dwyer.hpp</title>
<!-- Node1 -->
<g id="node1" class="node"><title>Node1</title>
<polygon fill="#bfbfbf" stroke="black" points="122,-69 122,-99 226,-99 226,-69 122,-69"/>
<text text-anchor="start" x="130" y="-87" font-family="Helvetica,sans-Serif" font-size="10.00">rstm/rstm&#45;dev/mesh</text>
<text text-anchor="middle" x="174" y="-76" font-family="Helvetica,sans-Serif" font-size="10.00">/dwyer.hpp</text>
</g>
<!-- Node2 -->
<g id="node2" class="node"><title>Node2</title>
<g id="a_node2"><a xlink:href="dwyer_8cpp.html" target="_top" xlink:title="rstm/rstm&#45;dev/mesh\l/dwyer.cpp">
<polygon fill="none" stroke="black" points="0,-1 0,-31 104,-31 104,-1 0,-1"/>
<text text-anchor="start" x="8" y="-19" font-family="Helvetica,sans-Serif" font-size="10.00">rstm/rstm&#45;dev/mesh</text>
<text text-anchor="middle" x="52" y="-8" font-family="Helvetica,sans-Serif" font-size="10.00">/dwyer.cpp</text>
</a>
</g>
</g>
<!-- Node1&#45;&gt;Node2 -->
<g id="edge1" class="edge"><title>Node1&#45;&gt;Node2</title>
<path fill="none" stroke="midnightblue" d="M138.98,-64.0545C119.588,-53.5641 95.8892,-40.7434 78.1288,-31.1352"/>
<polygon fill="midnightblue" stroke="midnightblue" points="137.367,-67.1615 147.828,-68.8413 140.698,-61.0047 137.367,-67.1615"/>
</g>
<!-- Node3 -->
<g id="node3" class="node"><title>Node3</title>
<g id="a_node3"><a xlink:href="mesh_8cpp.html" target="_top" xlink:title="rstm/rstm&#45;dev/mesh\l/mesh.cpp">
<polygon fill="none" stroke="black" points="122,-1 122,-31 226,-31 226,-1 122,-1"/>
<text text-anchor="start" x="130" y="-19" font-family="Helvetica,sans-Serif" font-size="10.00">rstm/rstm&#45;dev/mesh</text>
<text text-anchor="middle" x="174" y="-8" font-family="Helvetica,sans-Serif" font-size="10.00">/mesh.cpp</text>
</a>
</g>
</g>
<!-- Node1&#45;&gt;Node3 -->
<g id="edge2" class="edge"><title>Node1&#45;&gt;Node3</title>
<path fill="none" stroke="midnightblue" d="M174,-58.5322C174,-49.3606 174,-39.2449 174,-31.2931"/>
<polygon fill="midnightblue" stroke="midnightblue" points="170.5,-58.6789 174,-68.679 177.5,-58.679 170.5,-58.6789"/>
</g>
<!-- Node4 -->
<g id="node4" class="node"><title>Node4</title>
<g id="a_node4"><a xlink:href="worker_8cpp.html" target="_top" xlink:title="rstm/rstm&#45;dev/mesh\l/worker.cpp">
<polygon fill="none" stroke="black" points="244,-1 244,-31 348,-31 348,-1 244,-1"/>
<text text-anchor="start" x="252" y="-19" font-family="Helvetica,sans-Serif" font-size="10.00">rstm/rstm&#45;dev/mesh</text>
<text text-anchor="middle" x="296" y="-8" font-family="Helvetica,sans-Serif" font-size="10.00">/worker.cpp</text>
</a>
</g>
</g>
<!-- Node1&#45;&gt;Node4 -->
<g id="edge3" class="edge"><title>Node1&#45;&gt;Node4</title>
<path fill="none" stroke="midnightblue" d="M209.02,-64.0545C228.412,-53.5641 252.111,-40.7434 269.871,-31.1352"/>
<polygon fill="midnightblue" stroke="midnightblue" points="207.302,-61.0047 200.172,-68.8413 210.633,-67.1615 207.302,-61.0047"/>
</g>
</g>
</svg>
