<?xml version="1.0" encoding="UTF-8" standalone="no"?>
<!DOCTYPE svg PUBLIC "-//W3C//DTD SVG 1.1//EN"
 "http://www.w3.org/Graphics/SVG/1.1/DTD/svg11.dtd">
<!-- Generated by graphviz version 2.36.0 (20140111.2315)
 -->
<!-- Title: stitch Pages: 1 -->
<svg width="624pt" height="268pt"
 viewBox="0.00 0.00 624.00 268.24" xmlns="http://www.w3.org/2000/svg" xmlns:xlink="http://www.w3.org/1999/xlink">
<g id="graph0" class="graph" transform="scale(1 1) rotate(0) translate(4 264.241)">
<title>stitch</title>
<!-- Node1 -->
<g id="node1" class="node"><title>Node1</title>
<polygon fill="#bfbfbf" stroke="black" points="0.5,-114.5 0.5,-133.5 41.5,-133.5 41.5,-114.5 0.5,-114.5"/>
<text text-anchor="middle" x="21" y="-121.5" font-family="Helvetica,sans-Serif" font-size="10.00">stitch</text>
</g>
<!-- Node2 -->
<g id="node2" class="node"><title>Node2</title>
<g id="a_node2"><a xlink:href="structpv__side.html#a163c81bef5a8989bb0f307e7ce72f555" target="_top" xlink:title="pv_side::initialize">
<polygon fill="none" stroke="black" points="92,-190.5 92,-209.5 184,-209.5 184,-190.5 92,-190.5"/>
<text text-anchor="middle" x="138" y="-197.5" font-family="Helvetica,sans-Serif" font-size="10.00">pv_side::initialize</text>
</a>
</g>
</g>
<!-- Node1&#45;&gt;Node2 -->
<g id="edge1" class="edge"><title>Node1&#45;&gt;Node2</title>
<path fill="none" stroke="midnightblue" d="M36.5648,-133.625C56.0933,-146.531 90.9726,-169.582 114.05,-184.833"/>
<polygon fill="midnightblue" stroke="midnightblue" points="112.281,-187.859 122.553,-190.453 116.14,-182.019 112.281,-187.859"/>
</g>
<!-- Node4 -->
<g id="node4" class="node"><title>Node4</title>
<g id="a_node4"><a xlink:href="classedge.html#a528535c93e864fea104ca95de447b198" target="_top" xlink:title="edge::index_of">
<polygon fill="none" stroke="black" points="353,-171.5 353,-190.5 433,-190.5 433,-171.5 353,-171.5"/>
<text text-anchor="middle" x="393" y="-178.5" font-family="Helvetica,sans-Serif" font-size="10.00">edge::index_of</text>
</a>
</g>
</g>
<!-- Node1&#45;&gt;Node4 -->
<g id="edge22" class="edge"><title>Node1&#45;&gt;Node4</title>
<path fill="none" stroke="midnightblue" d="M24.4932,-133.568C30.2034,-153.359 46.2503,-198.641 78,-219 166.499,-275.747 213.652,-266.346 314,-235 337.392,-227.693 359.943,-210.637 374.728,-197.633"/>
<polygon fill="midnightblue" stroke="midnightblue" points="377.46,-199.878 382.483,-190.55 372.739,-194.71 377.46,-199.878"/>
</g>
<!-- Node6 -->
<g id="node6" class="node"><title>Node6</title>
<g id="a_node6"><a xlink:href="structpv__side.html#a58d4b8e4888146331f3af5a3a6a0eaa6" target="_top" xlink:title="pv_side::move">
<polygon fill="none" stroke="black" points="234,-114.5 234,-133.5 314,-133.5 314,-114.5 234,-114.5"/>
<text text-anchor="middle" x="274" y="-121.5" font-family="Helvetica,sans-Serif" font-size="10.00">pv_side::move</text>
</a>
</g>
</g>
<!-- Node1&#45;&gt;Node6 -->
<g id="edge6" class="edge"><title>Node1&#45;&gt;Node6</title>
<path fill="none" stroke="midnightblue" d="M41.6955,-124C80.4554,-124 167.686,-124 223.255,-124"/>
<polygon fill="midnightblue" stroke="midnightblue" points="223.583,-127.5 233.583,-124 223.583,-120.5 223.583,-127.5"/>
</g>
<!-- Node7 -->
<g id="node7" class="node"><title>Node7</title>
<g id="a_node7"><a xlink:href="structpv__side.html#ab6c6440d122035bd15a096d96350ce77" target="_top" xlink:title="pv_side::find_candidate">
<polygon fill="none" stroke="black" points="78.5,-76.5 78.5,-95.5 197.5,-95.5 197.5,-76.5 78.5,-76.5"/>
<text text-anchor="middle" x="138" y="-83.5" font-family="Helvetica,sans-Serif" font-size="10.00">pv_side::find_candidate</text>
</a>
</g>
</g>
<!-- Node1&#45;&gt;Node7 -->
<g id="edge9" class="edge"><title>Node1&#45;&gt;Node7</title>
<path fill="none" stroke="midnightblue" d="M41.5082,-117.554C57.006,-112.433 79.1687,-105.109 98.2422,-98.8069"/>
<polygon fill="midnightblue" stroke="midnightblue" points="99.4862,-102.082 107.883,-95.6212 97.2899,-95.4355 99.4862,-102.082"/>
</g>
<!-- Node8 -->
<g id="node8" class="node"><title>Node8</title>
<g id="a_node8"><a xlink:href="point_8cpp.html#a015cc895b4407d06a8c9b1e9155359ae" target="_top" xlink:title="encircled">
<polygon fill="none" stroke="black" points="246,-0.5 246,-19.5 302,-19.5 302,-0.5 246,-0.5"/>
<text text-anchor="middle" x="274" y="-7.5" font-family="Helvetica,sans-Serif" font-size="10.00">encircled</text>
</a>
</g>
</g>
<!-- Node1&#45;&gt;Node8 -->
<g id="edge21" class="edge"><title>Node1&#45;&gt;Node8</title>
<path fill="none" stroke="midnightblue" d="M28.8505,-114.453C38.4374,-101.778 57.0498,-79.5387 78,-67 127.975,-37.0902 194.61,-22.0503 235.621,-15.1416"/>
<polygon fill="midnightblue" stroke="midnightblue" points="236.403,-18.5609 245.721,-13.5178 235.292,-11.6496 236.403,-18.5609"/>
</g>
<!-- Node3 -->
<g id="node3" class="node"><title>Node3</title>
<g id="a_node3"><a xlink:href="side_8cpp.html#aff00fd7e652791cd3d588bbd711d0327" target="_top" xlink:title="hull_edge">
<polygon fill="none" stroke="black" points="245,-190.5 245,-209.5 303,-209.5 303,-190.5 245,-190.5"/>
<text text-anchor="middle" x="274" y="-197.5" font-family="Helvetica,sans-Serif" font-size="10.00">hull_edge</text>
</a>
</g>
</g>
<!-- Node2&#45;&gt;Node3 -->
<g id="edge2" class="edge"><title>Node2&#45;&gt;Node3</title>
<path fill="none" stroke="midnightblue" d="M184.366,-200C200.653,-200 218.849,-200 234.497,-200"/>
<polygon fill="midnightblue" stroke="midnightblue" points="234.868,-203.5 244.868,-200 234.868,-196.5 234.868,-203.5"/>
</g>
<!-- Node2&#45;&gt;Node4 -->
<g id="edge5" class="edge"><title>Node2&#45;&gt;Node4</title>
<path fill="none" stroke="midnightblue" d="M170.032,-209.536C205.305,-218.959 264.418,-230.435 314,-219 333.57,-214.487 353.912,-204.367 368.915,-195.705"/>
<polygon fill="midnightblue" stroke="midnightblue" points="370.725,-198.7 377.511,-190.563 367.132,-192.693 370.725,-198.7"/>
</g>
<!-- Node3&#45;&gt;Node4 -->
<g id="edge3" class="edge"><title>Node3&#45;&gt;Node4</title>
<path fill="none" stroke="midnightblue" d="M303.024,-195.449C314.876,-193.524 329.044,-191.224 342.551,-189.03"/>
<polygon fill="midnightblue" stroke="midnightblue" points="343.393,-192.439 352.702,-187.382 342.271,-185.53 343.393,-192.439"/>
</g>
<!-- Node5 -->
<g id="node5" class="node"><title>Node5</title>
<g id="a_node5"><a xlink:href="point_8cpp.html#ae77890a7cdbacaf1b115d396c571bfda" target="_top" xlink:title="extern_angle">
<polygon fill="none" stroke="black" points="357,-114.5 357,-133.5 429,-133.5 429,-114.5 357,-114.5"/>
<text text-anchor="middle" x="393" y="-121.5" font-family="Helvetica,sans-Serif" font-size="10.00">extern_angle</text>
</a>
</g>
</g>
<!-- Node3&#45;&gt;Node5 -->
<g id="edge4" class="edge"><title>Node3&#45;&gt;Node5</title>
<path fill="none" stroke="midnightblue" d="M289.818,-190.375C309.686,-177.469 345.172,-154.418 368.651,-139.167"/>
<polygon fill="midnightblue" stroke="midnightblue" points="370.823,-141.93 377.302,-133.547 367.01,-136.06 370.823,-141.93"/>
</g>
<!-- Node6&#45;&gt;Node4 -->
<g id="edge8" class="edge"><title>Node6&#45;&gt;Node4</title>
<path fill="none" stroke="midnightblue" d="M294.583,-133.541C313.312,-142.665 341.781,-156.534 363.114,-166.927"/>
<polygon fill="midnightblue" stroke="midnightblue" points="361.83,-170.195 372.353,-171.428 364.896,-163.902 361.83,-170.195"/>
</g>
<!-- Node6&#45;&gt;Node5 -->
<g id="edge7" class="edge"><title>Node6&#45;&gt;Node5</title>
<path fill="none" stroke="midnightblue" d="M314.285,-124C324.749,-124 336.136,-124 346.885,-124"/>
<polygon fill="midnightblue" stroke="midnightblue" points="346.946,-127.5 356.946,-124 346.946,-120.5 346.946,-127.5"/>
</g>
<!-- Node7&#45;&gt;Node4 -->
<g id="edge11" class="edge"><title>Node7&#45;&gt;Node4</title>
<path fill="none" stroke="midnightblue" d="M152.157,-95.6814C169.891,-108.301 202.845,-130.258 234,-143 269.227,-157.407 311.201,-167.182 343.03,-173.207"/>
<polygon fill="midnightblue" stroke="midnightblue" points="342.519,-176.671 352.987,-175.032 343.782,-169.786 342.519,-176.671"/>
</g>
<!-- Node7&#45;&gt;Node5 -->
<g id="edge10" class="edge"><title>Node7&#45;&gt;Node5</title>
<path fill="none" stroke="midnightblue" d="M162.176,-76.4353C196.745,-63.6915 263.187,-45.1436 314,-67 335.371,-76.1925 331.047,-91.5086 350,-105 352.384,-106.697 354.943,-108.297 357.58,-109.792"/>
<polygon fill="midnightblue" stroke="midnightblue" points="356.202,-113.019 366.697,-114.467 359.396,-106.79 356.202,-113.019"/>
</g>
<!-- Node7&#45;&gt;Node8 -->
<g id="edge12" class="edge"><title>Node7&#45;&gt;Node8</title>
<path fill="none" stroke="midnightblue" d="M155.971,-76.3745C179.028,-63.2975 220.45,-39.8043 247.322,-24.5634"/>
<polygon fill="midnightblue" stroke="midnightblue" points="249.195,-27.5252 256.167,-19.5473 245.742,-21.4363 249.195,-27.5252"/>
</g>
<!-- Node11 -->
<g id="node11" class="node"><title>Node11</title>
<g id="a_node11"><a xlink:href="classedge.html#a17a50641ad92dce62c3c8db8bf528ddc" target="_top" xlink:title="edge::destroy">
<polygon fill="none" stroke="black" points="236,-76.5 236,-95.5 312,-95.5 312,-76.5 236,-76.5"/>
<text text-anchor="middle" x="274" y="-83.5" font-family="Helvetica,sans-Serif" font-size="10.00">edge::destroy</text>
</a>
</g>
</g>
<!-- Node7&#45;&gt;Node11 -->
<g id="edge15" class="edge"><title>Node7&#45;&gt;Node11</title>
<path fill="none" stroke="midnightblue" d="M197.774,-86C207.074,-86 216.589,-86 225.587,-86"/>
<polygon fill="midnightblue" stroke="midnightblue" points="225.868,-89.5001 235.868,-86 225.868,-82.5001 225.868,-89.5001"/>
</g>
<!-- Node9 -->
<g id="node9" class="node"><title>Node9</title>
<g id="a_node9"><a xlink:href="point_8cpp.html#a0586855a04f97999cb91cca634421222" target="_top" xlink:title="det4">
<polygon fill="none" stroke="black" points="375.5,-0.5 375.5,-19.5 410.5,-19.5 410.5,-0.5 375.5,-0.5"/>
<text text-anchor="middle" x="393" y="-7.5" font-family="Helvetica,sans-Serif" font-size="10.00">det4</text>
</a>
</g>
</g>
<!-- Node8&#45;&gt;Node9 -->
<g id="edge13" class="edge"><title>Node8&#45;&gt;Node9</title>
<path fill="none" stroke="midnightblue" d="M302.136,-10C321.186,-10 346.534,-10 365.452,-10"/>
<polygon fill="midnightblue" stroke="midnightblue" points="365.485,-13.5001 375.485,-10 365.485,-6.5001 365.485,-13.5001"/>
</g>
<!-- Node10 -->
<g id="node10" class="node"><title>Node10</title>
<g id="a_node10"><a xlink:href="point_8cpp.html#a0fdafd56f3e289d97c15611bdbee0fec" target="_top" xlink:title="det3">
<polygon fill="none" stroke="black" points="485.5,-0.5 485.5,-19.5 520.5,-19.5 520.5,-0.5 485.5,-0.5"/>
<text text-anchor="middle" x="503" y="-7.5" font-family="Helvetica,sans-Serif" font-size="10.00">det3</text>
</a>
</g>
</g>
<!-- Node9&#45;&gt;Node10 -->
<g id="edge14" class="edge"><title>Node9&#45;&gt;Node10</title>
<path fill="none" stroke="midnightblue" d="M410.875,-10C428.074,-10 455.01,-10 475.143,-10"/>
<polygon fill="midnightblue" stroke="midnightblue" points="475.244,-13.5001 485.243,-10 475.243,-6.5001 475.244,-13.5001"/>
</g>
<!-- Node11&#45;&gt;Node4 -->
<g id="edge20" class="edge"><title>Node11&#45;&gt;Node4</title>
<path fill="none" stroke="midnightblue" d="M298.066,-95.54C303.511,-98.2444 309.142,-101.436 314,-105 332.759,-118.76 333.362,-126.739 350,-143 357.279,-150.113 365.537,-157.686 372.793,-164.184"/>
<polygon fill="midnightblue" stroke="midnightblue" points="370.928,-167.209 380.732,-171.227 375.574,-161.973 370.928,-167.209"/>
</g>
<!-- Node12 -->
<g id="node12" class="node"><title>Node12</title>
<g id="a_node12"><a xlink:href="classedge__set.html#a4cd26bf920c05e300c6856848870aeb9" target="_top" xlink:title="edge_set::erase">
<polygon fill="none" stroke="black" points="350,-76.5 350,-95.5 436,-95.5 436,-76.5 350,-76.5"/>
<text text-anchor="middle" x="393" y="-83.5" font-family="Helvetica,sans-Serif" font-size="10.00">edge_set::erase</text>
</a>
</g>
</g>
<!-- Node11&#45;&gt;Node12 -->
<g id="edge16" class="edge"><title>Node11&#45;&gt;Node12</title>
<path fill="none" stroke="midnightblue" d="M312.02,-86C320.869,-86 330.48,-86 339.87,-86"/>
<polygon fill="midnightblue" stroke="midnightblue" points="339.926,-89.5001 349.926,-86 339.926,-82.5001 339.926,-89.5001"/>
</g>
<!-- Node13 -->
<g id="node13" class="node"><title>Node13</title>
<g id="a_node13"><a xlink:href="edge__set_8cpp.html#a04afedf3efb1930b4069d80cd6122ca9" target="_top" xlink:title="segment">
<polygon fill="none" stroke="black" points="476,-57.5 476,-76.5 530,-76.5 530,-57.5 476,-57.5"/>
<text text-anchor="middle" x="503" y="-64.5" font-family="Helvetica,sans-Serif" font-size="10.00">segment</text>
</a>
</g>
</g>
<!-- Node12&#45;&gt;Node13 -->
<g id="edge17" class="edge"><title>Node12&#45;&gt;Node13</title>
<path fill="none" stroke="midnightblue" d="M436.065,-78.5997C445.895,-76.8704 456.28,-75.0433 465.828,-73.3636"/>
<polygon fill="midnightblue" stroke="midnightblue" points="466.551,-76.7902 475.794,-71.6104 465.339,-69.896 466.551,-76.7902"/>
</g>
<!-- Node15 -->
<g id="node15" class="node"><title>Node15</title>
<g id="a_node15"><a xlink:href="classedge.html#a67b4470d9fae58c63a3a63765880cf58" target="_top" xlink:title="edge::print">
<polygon fill="none" stroke="black" points="472,-95.5 472,-114.5 534,-114.5 534,-95.5 472,-95.5"/>
<text text-anchor="middle" x="503" y="-102.5" font-family="Helvetica,sans-Serif" font-size="10.00">edge::print</text>
</a>
</g>
</g>
<!-- Node12&#45;&gt;Node15 -->
<g id="edge19" class="edge"><title>Node12&#45;&gt;Node15</title>
<path fill="none" stroke="midnightblue" d="M436.065,-93.4003C444.571,-94.8967 453.492,-96.4662 461.927,-97.9501"/>
<polygon fill="midnightblue" stroke="midnightblue" points="461.459,-101.421 471.914,-99.707 462.671,-94.5273 461.459,-101.421"/>
</g>
<!-- Node14 -->
<g id="node14" class="node"><title>Node14</title>
<g id="a_node14"><a xlink:href="point_8hpp.html#ac3affcd51103a7fafe2143a933683b30" target="_top" xlink:title="bucket">
<polygon fill="none" stroke="black" points="570,-57.5 570,-76.5 616,-76.5 616,-57.5 570,-57.5"/>
<text text-anchor="middle" x="593" y="-64.5" font-family="Helvetica,sans-Serif" font-size="10.00">bucket</text>
</a>
</g>
</g>
<!-- Node13&#45;&gt;Node14 -->
<g id="edge18" class="edge"><title>Node13&#45;&gt;Node14</title>
<path fill="none" stroke="midnightblue" d="M530.403,-67C539.623,-67 550.078,-67 559.722,-67"/>
<polygon fill="midnightblue" stroke="midnightblue" points="559.773,-70.5001 569.773,-67 559.773,-63.5001 559.773,-70.5001"/>
</g>
</g>
</svg>
