<?xml version="1.0" encoding="UTF-8" standalone="no"?>
<!DOCTYPE svg PUBLIC "-//W3C//DTD SVG 1.1//EN"
 "http://www.w3.org/Graphics/SVG/1.1/DTD/svg11.dtd">
<!-- Generated by graphviz version 2.36.0 (20140111.2315)
 -->
<!-- Title: stitch Pages: 1 -->
<svg width="378pt" height="66pt"
 viewBox="0.00 0.00 378.00 66.00" xmlns="http://www.w3.org/2000/svg" xmlns:xlink="http://www.w3.org/1999/xlink">
<g id="graph0" class="graph" transform="scale(1 1) rotate(0) translate(4 62)">
<title>stitch</title>
<!-- Node1 -->
<g id="node1" class="node"><title>Node1</title>
<polygon fill="#bfbfbf" stroke="black" points="0.5,-19.5 0.5,-38.5 41.5,-38.5 41.5,-19.5 0.5,-19.5"/>
<text text-anchor="middle" x="21" y="-26.5" font-family="Helvetica,sans-Serif" font-size="10.00">stitch</text>
</g>
<!-- Node2 -->
<g id="node2" class="node"><title>Node2</title>
<g id="a_node2"><a xlink:href="dwyer_8hpp.html#af02e2aa3c0f40c330c2d1bc03ad9438a" target="_top" xlink:title="dwyer_solve">
<polygon fill="none" stroke="black" points="78.5,-19.5 78.5,-38.5 149.5,-38.5 149.5,-19.5 78.5,-19.5"/>
<text text-anchor="middle" x="114" y="-26.5" font-family="Helvetica,sans-Serif" font-size="10.00">dwyer_solve</text>
</a>
</g>
</g>
<!-- Node1&#45;&gt;Node2 -->
<g id="edge1" class="edge"><title>Node1&#45;&gt;Node2</title>
<path fill="none" stroke="midnightblue" d="M51.8841,-29C60.313,-29 69.5556,-29 78.2438,-29"/>
<polygon fill="midnightblue" stroke="midnightblue" points="51.7457,-25.5001 41.7456,-29 51.7456,-32.5001 51.7457,-25.5001"/>
</g>
<!-- Node2&#45;&gt;Node2 -->
<g id="edge2" class="edge"><title>Node2&#45;&gt;Node2</title>
<path fill="none" stroke="midnightblue" d="M96.9638,-48.4C98.1015,-53.3146 103.78,-57 114,-57 130.352,-57 135.078,-47.5653 128.18,-38.7571"/>
<polygon fill="midnightblue" stroke="midnightblue" points="100.336,-49.3393 99.8201,-38.7571 93.6241,-47.3512 100.336,-49.3393"/>
</g>
<!-- Node3 -->
<g id="node3" class="node"><title>Node3</title>
<g id="a_node3"><a xlink:href="mesh_8cpp.html#a0ddf1224851353fc92bfbff6f499fa97" target="_top" xlink:title="main">
<polygon fill="none" stroke="black" points="194,-38.5 194,-57.5 232,-57.5 232,-38.5 194,-38.5"/>
<text text-anchor="middle" x="213" y="-45.5" font-family="Helvetica,sans-Serif" font-size="10.00">main</text>
</a>
</g>
</g>
<!-- Node2&#45;&gt;Node3 -->
<g id="edge3" class="edge"><title>Node2&#45;&gt;Node3</title>
<path fill="none" stroke="midnightblue" d="M159.725,-37.7606C171.772,-40.1203 184.131,-42.5412 193.806,-44.4362"/>
<polygon fill="midnightblue" stroke="midnightblue" points="160.232,-34.2934 149.745,-35.8058 158.886,-41.1628 160.232,-34.2934"/>
</g>
<!-- Node4 -->
<g id="node4" class="node"><title>Node4</title>
<g id="a_node4"><a xlink:href="worker_8cpp.html#a4d3d5d6b1446463eca81bdd1106ef943" target="_top" xlink:title="do_work">
<polygon fill="none" stroke="black" points="186.5,-0.5 186.5,-19.5 239.5,-19.5 239.5,-0.5 186.5,-0.5"/>
<text text-anchor="middle" x="213" y="-7.5" font-family="Helvetica,sans-Serif" font-size="10.00">do_work</text>
</a>
</g>
</g>
<!-- Node2&#45;&gt;Node4 -->
<g id="edge4" class="edge"><title>Node2&#45;&gt;Node4</title>
<path fill="none" stroke="midnightblue" d="M159.562,-20.2714C168.734,-18.4747 178.096,-16.641 186.323,-15.0295"/>
<polygon fill="midnightblue" stroke="midnightblue" points="158.886,-16.8372 149.745,-22.1942 160.232,-23.7066 158.886,-16.8372"/>
</g>
<!-- Node5 -->
<g id="node5" class="node"><title>Node5</title>
<g id="a_node5"><a xlink:href="classworker.html#a7b7d6866de64fc583693899b65cb12bc" target="_top" xlink:title="worker::operator()">
<polygon fill="none" stroke="black" points="276.5,-0.5 276.5,-19.5 369.5,-19.5 369.5,-0.5 276.5,-0.5"/>
<text text-anchor="middle" x="323" y="-7.5" font-family="Helvetica,sans-Serif" font-size="10.00">worker::operator()</text>
</a>
</g>
</g>
<!-- Node4&#45;&gt;Node5 -->
<g id="edge5" class="edge"><title>Node4&#45;&gt;Node5</title>
<path fill="none" stroke="midnightblue" d="M249.596,-10C258.134,-10 267.37,-10 276.296,-10"/>
<polygon fill="midnightblue" stroke="midnightblue" points="249.595,-6.5001 239.594,-10 249.594,-13.5001 249.595,-6.5001"/>
</g>
</g>
</svg>
