<?xml version="1.0" encoding="UTF-8" standalone="no"?>
<!DOCTYPE svg PUBLIC "-//W3C//DTD SVG 1.1//EN"
 "http://www.w3.org/Graphics/SVG/1.1/DTD/svg11.dtd">
<!-- Generated by graphviz version 2.36.0 (20140111.2315)
 -->
<!-- Title: dwyer_solve Pages: 1 -->
<svg width="408pt" height="88pt"
 viewBox="0.00 0.00 408.00 87.93" xmlns="http://www.w3.org/2000/svg" xmlns:xlink="http://www.w3.org/1999/xlink">
<g id="graph0" class="graph" transform="scale(1 1) rotate(0) translate(4 83.9329)">
<title>dwyer_solve</title>
<!-- Node1 -->
<g id="node1" class="node"><title>Node1</title>
<polygon fill="#bfbfbf" stroke="black" points="0.5,-28.5 0.5,-47.5 71.5,-47.5 71.5,-28.5 0.5,-28.5"/>
<text text-anchor="middle" x="36" y="-35.5" font-family="Helvetica,sans-Serif" font-size="10.00">dwyer_solve</text>
</g>
<!-- Node2 -->
<g id="node2" class="node"><title>Node2</title>
<g id="a_node2"><a xlink:href="dwyer_8hpp.html#af02e2aa3c0f40c330c2d1bc03ad9438a" target="_top" xlink:title="dwyer_solve">
<polygon fill="none" stroke="black" points="108.5,-28.5 108.5,-47.5 179.5,-47.5 179.5,-28.5 108.5,-28.5"/>
<text text-anchor="middle" x="144" y="-35.5" font-family="Helvetica,sans-Serif" font-size="10.00">dwyer_solve</text>
</a>
</g>
</g>
<!-- Node1&#45;&gt;Node2 -->
<g id="edge1" class="edge"><title>Node1&#45;&gt;Node2</title>
<path fill="none" stroke="midnightblue" d="M81.8538,-38C90.668,-38 99.7902,-38 108.214,-38"/>
<polygon fill="midnightblue" stroke="midnightblue" points="81.7084,-34.5001 71.7084,-38 81.7083,-41.5001 81.7084,-34.5001"/>
</g>
<!-- Node3 -->
<g id="node3" class="node"><title>Node3</title>
<g id="a_node3"><a xlink:href="mesh_8cpp.html#a0ddf1224851353fc92bfbff6f499fa97" target="_top" xlink:title="main">
<polygon fill="none" stroke="black" points="224,-47.5 224,-66.5 262,-66.5 262,-47.5 224,-47.5"/>
<text text-anchor="middle" x="243" y="-54.5" font-family="Helvetica,sans-Serif" font-size="10.00">main</text>
</a>
</g>
</g>
<!-- Node1&#45;&gt;Node3 -->
<g id="edge6" class="edge"><title>Node1&#45;&gt;Node3</title>
<path fill="none" stroke="midnightblue" d="M59.1667,-53.0978C72.6398,-61.3453 90.5588,-70.7281 108,-75 139.081,-82.6128 148.319,-79.5059 180,-75 195.091,-72.8536 211.646,-67.9077 223.85,-63.7425"/>
<polygon fill="midnightblue" stroke="midnightblue" points="60.9244,-50.0677 50.61,-47.6461 57.1631,-55.9713 60.9244,-50.0677"/>
</g>
<!-- Node4 -->
<g id="node4" class="node"><title>Node4</title>
<g id="a_node4"><a xlink:href="worker_8cpp.html#a4d3d5d6b1446463eca81bdd1106ef943" target="_top" xlink:title="do_work">
<polygon fill="none" stroke="black" points="216.5,-0.5 216.5,-19.5 269.5,-19.5 269.5,-0.5 216.5,-0.5"/>
<text text-anchor="middle" x="243" y="-7.5" font-family="Helvetica,sans-Serif" font-size="10.00">do_work</text>
</a>
</g>
</g>
<!-- Node1&#45;&gt;Node4 -->
<g id="edge7" class="edge"><title>Node1&#45;&gt;Node4</title>
<path fill="none" stroke="midnightblue" d="M77.1594,-25.7984C87.1523,-23.1664 97.8979,-20.6746 108,-19 145.379,-12.8039 189.296,-10.8476 216.391,-10.2451"/>
<polygon fill="midnightblue" stroke="midnightblue" points="76.1895,-22.4351 67.4691,-28.4522 78.0385,-29.1865 76.1895,-22.4351"/>
</g>
<!-- Node2&#45;&gt;Node2 -->
<g id="edge2" class="edge"><title>Node2&#45;&gt;Node2</title>
<path fill="none" stroke="midnightblue" d="M125.853,-57.4C127.065,-62.3146 133.114,-66 144,-66 161.418,-66 166.453,-56.5653 159.105,-47.7571"/>
<polygon fill="midnightblue" stroke="midnightblue" points="129.224,-58.3468 128.895,-47.7571 122.548,-56.2404 129.224,-58.3468"/>
</g>
<!-- Node2&#45;&gt;Node3 -->
<g id="edge3" class="edge"><title>Node2&#45;&gt;Node3</title>
<path fill="none" stroke="midnightblue" d="M189.725,-46.7606C201.772,-49.1203 214.131,-51.5412 223.806,-53.4362"/>
<polygon fill="midnightblue" stroke="midnightblue" points="190.232,-43.2934 179.745,-44.8058 188.886,-50.1628 190.232,-43.2934"/>
</g>
<!-- Node2&#45;&gt;Node4 -->
<g id="edge4" class="edge"><title>Node2&#45;&gt;Node4</title>
<path fill="none" stroke="midnightblue" d="M187.722,-25.668C197.498,-22.8458 207.593,-19.9319 216.386,-17.3939"/>
<polygon fill="midnightblue" stroke="midnightblue" points="186.748,-22.3062 178.111,-28.4423 188.689,-29.0316 186.748,-22.3062"/>
</g>
<!-- Node5 -->
<g id="node5" class="node"><title>Node5</title>
<g id="a_node5"><a xlink:href="classworker.html#a7b7d6866de64fc583693899b65cb12bc" target="_top" xlink:title="worker::operator()">
<polygon fill="none" stroke="black" points="306.5,-0.5 306.5,-19.5 399.5,-19.5 399.5,-0.5 306.5,-0.5"/>
<text text-anchor="middle" x="353" y="-7.5" font-family="Helvetica,sans-Serif" font-size="10.00">worker::operator()</text>
</a>
</g>
</g>
<!-- Node4&#45;&gt;Node5 -->
<g id="edge5" class="edge"><title>Node4&#45;&gt;Node5</title>
<path fill="none" stroke="midnightblue" d="M279.596,-10C288.134,-10 297.37,-10 306.296,-10"/>
<polygon fill="midnightblue" stroke="midnightblue" points="279.595,-6.5001 269.594,-10 279.594,-13.5001 279.595,-6.5001"/>
</g>
</g>
</svg>
