<?xml version="1.0" encoding="UTF-8" standalone="no"?>
<!DOCTYPE svg PUBLIC "-//W3C//DTD SVG 1.1//EN"
 "http://www.w3.org/Graphics/SVG/1.1/DTD/svg11.dtd">
<!-- Generated by graphviz version 2.36.0 (20140111.2315)
 -->
<!-- Title: rstm/rstm&#45;dev/mesh/edge_set.cpp Pages: 1 -->
<svg width="884pt" height="432pt"
 viewBox="0.00 0.00 884.00 432.00" xmlns="http://www.w3.org/2000/svg" xmlns:xlink="http://www.w3.org/1999/xlink">
<g id="graph0" class="graph" transform="scale(1 1) rotate(0) translate(4 428)">
<title>rstm/rstm&#45;dev/mesh/edge_set.cpp</title>
<!-- Node1 -->
<g id="node1" class="node"><title>Node1</title>
<polygon fill="#bfbfbf" stroke="black" points="509,-393 509,-423 613,-423 613,-393 509,-393"/>
<text text-anchor="start" x="517" y="-411" font-family="Helvetica,sans-Serif" font-size="10.00">rstm/rstm&#45;dev/mesh</text>
<text text-anchor="middle" x="561" y="-400" font-family="Helvetica,sans-Serif" font-size="10.00">/edge_set.cpp</text>
</g>
<!-- Node2 -->
<g id="node2" class="node"><title>Node2</title>
<polygon fill="none" stroke="#bfbfbf" points="773,-0.5 773,-19.5 827,-19.5 827,-0.5 773,-0.5"/>
<text text-anchor="middle" x="800" y="-7.5" font-family="Helvetica,sans-Serif" font-size="10.00">iostream</text>
</g>
<!-- Node1&#45;&gt;Node2 -->
<g id="edge1" class="edge"><title>Node1&#45;&gt;Node2</title>
<path fill="none" stroke="midnightblue" d="M613.016,-398.885C702.485,-383.445 876,-346.364 876,-291 876,-291 876,-291 876,-121 876,-81.2757 842.036,-45.5045 819.518,-26.1536"/>
<polygon fill="midnightblue" stroke="midnightblue" points="821.482,-23.2364 811.543,-19.5672 817.024,-28.6337 821.482,-23.2364"/>
</g>
<!-- Node3 -->
<g id="node3" class="node"><title>Node3</title>
<g id="a_node3"><a xlink:href="common_8hpp.html" target="_top" xlink:title="common.hpp">
<polygon fill="none" stroke="black" points="438.5,-168.5 438.5,-187.5 511.5,-187.5 511.5,-168.5 438.5,-168.5"/>
<text text-anchor="middle" x="475" y="-175.5" font-family="Helvetica,sans-Serif" font-size="10.00">common.hpp</text>
</a>
</g>
</g>
<!-- Node1&#45;&gt;Node3 -->
<g id="edge2" class="edge"><title>Node1&#45;&gt;Node3</title>
<path fill="none" stroke="midnightblue" d="M563.838,-392.781C565.724,-382.589 568.025,-368.509 569,-356 571.648,-322.034 572.583,-311.244 559,-280 543.735,-244.889 512.37,-212.396 492.584,-194.184"/>
<polygon fill="midnightblue" stroke="midnightblue" points="494.917,-191.576 485.137,-187.501 490.241,-196.785 494.917,-191.576"/>
</g>
<!-- Node16 -->
<g id="node16" class="node"><title>Node16</title>
<g id="a_node16"><a xlink:href="point_8hpp.html" target="_top" xlink:title="point.hpp">
<polygon fill="none" stroke="black" points="374,-224.5 374,-243.5 430,-243.5 430,-224.5 374,-224.5"/>
<text text-anchor="middle" x="402" y="-231.5" font-family="Helvetica,sans-Serif" font-size="10.00">point.hpp</text>
</a>
</g>
</g>
<!-- Node1&#45;&gt;Node16 -->
<g id="edge19" class="edge"><title>Node1&#45;&gt;Node16</title>
<path fill="none" stroke="midnightblue" d="M529.824,-392.924C512.56,-384.061 491.52,-371.389 476,-356 444.789,-325.052 421.125,-278.434 409.658,-253.045"/>
<polygon fill="midnightblue" stroke="midnightblue" points="412.725,-251.324 405.504,-243.571 406.315,-254.135 412.725,-251.324"/>
</g>
<!-- Node18 -->
<g id="node18" class="node"><title>Node18</title>
<g id="a_node18"><a xlink:href="edge__set_8hpp.html" target="_top" xlink:title="edge_set.hpp">
<polygon fill="none" stroke="black" points="485.5,-336.5 485.5,-355.5 560.5,-355.5 560.5,-336.5 485.5,-336.5"/>
<text text-anchor="middle" x="523" y="-343.5" font-family="Helvetica,sans-Serif" font-size="10.00">edge_set.hpp</text>
</a>
</g>
</g>
<!-- Node1&#45;&gt;Node18 -->
<g id="edge22" class="edge"><title>Node1&#45;&gt;Node18</title>
<path fill="none" stroke="midnightblue" d="M551.995,-392.781C546.587,-384.242 539.668,-373.318 533.946,-364.283"/>
<polygon fill="midnightblue" stroke="midnightblue" points="536.837,-362.306 528.529,-355.731 530.923,-366.051 536.837,-362.306"/>
</g>
<!-- Node3&#45;&gt;Node2 -->
<g id="edge3" class="edge"><title>Node3&#45;&gt;Node2</title>
<path fill="none" stroke="midnightblue" d="M494.068,-168.472C510.528,-160.529 534.367,-147.588 552,-132 583.835,-103.858 574.36,-79.1342 610,-56 610,-56 707.701,-32.8604 762.982,-19.7674"/>
<polygon fill="midnightblue" stroke="midnightblue" points="763.853,-23.1579 772.778,-17.4474 762.24,-16.3464 763.853,-23.1579"/>
</g>
<!-- Node4 -->
<g id="node4" class="node"><title>Node4</title>
<polygon fill="none" stroke="#bfbfbf" points="437.5,-0.5 437.5,-19.5 486.5,-19.5 486.5,-0.5 437.5,-0.5"/>
<text text-anchor="middle" x="462" y="-7.5" font-family="Helvetica,sans-Serif" font-size="10.00">cassert</text>
</g>
<!-- Node3&#45;&gt;Node4 -->
<g id="edge4" class="edge"><title>Node3&#45;&gt;Node4</title>
<path fill="none" stroke="midnightblue" d="M474.301,-168.075C472.255,-141.945 466.245,-65.2106 463.455,-29.577"/>
<polygon fill="midnightblue" stroke="midnightblue" points="466.941,-29.2643 462.671,-19.5681 459.963,-29.8109 466.941,-29.2643"/>
</g>
<!-- Node5 -->
<g id="node5" class="node"><title>Node5</title>
<g id="a_node5"><a xlink:href="platform_8hpp.html" target="_top" xlink:title="common/platform.hpp">
<polygon fill="none" stroke="black" points="175.5,-112.5 175.5,-131.5 286.5,-131.5 286.5,-112.5 175.5,-112.5"/>
<text text-anchor="middle" x="231" y="-119.5" font-family="Helvetica,sans-Serif" font-size="10.00">common/platform.hpp</text>
</a>
</g>
</g>
<!-- Node3&#45;&gt;Node5 -->
<g id="edge5" class="edge"><title>Node3&#45;&gt;Node5</title>
<path fill="none" stroke="midnightblue" d="M438.471,-168.916C396.236,-159.569 326.536,-144.143 279.715,-133.781"/>
<polygon fill="midnightblue" stroke="midnightblue" points="280.318,-130.33 269.798,-131.587 278.806,-137.165 280.318,-130.33"/>
</g>
<!-- Node10 -->
<g id="node10" class="node"><title>Node10</title>
<g id="a_node10"><a xlink:href="ThreadLocal_8hpp.html" target="_top" xlink:title="common/ThreadLocal.hpp">
<polygon fill="none" stroke="black" points="304.5,-112.5 304.5,-131.5 433.5,-131.5 433.5,-112.5 304.5,-112.5"/>
<text text-anchor="middle" x="369" y="-119.5" font-family="Helvetica,sans-Serif" font-size="10.00">common/ThreadLocal.hpp</text>
</a>
</g>
</g>
<!-- Node3&#45;&gt;Node10 -->
<g id="edge10" class="edge"><title>Node3&#45;&gt;Node10</title>
<path fill="none" stroke="midnightblue" d="M457.969,-168.324C440.97,-159.664 414.624,-146.242 395.007,-136.249"/>
<polygon fill="midnightblue" stroke="midnightblue" points="396.488,-133.075 385.988,-131.655 393.31,-139.312 396.488,-133.075"/>
</g>
<!-- Node11 -->
<g id="node11" class="node"><title>Node11</title>
<g id="a_node11"><a xlink:href="lock_8hpp.html" target="_top" xlink:title="lock.hpp">
<polygon fill="none" stroke="black" points="676.5,-112.5 676.5,-131.5 729.5,-131.5 729.5,-112.5 676.5,-112.5"/>
<text text-anchor="middle" x="703" y="-119.5" font-family="Helvetica,sans-Serif" font-size="10.00">lock.hpp</text>
</a>
</g>
</g>
<!-- Node3&#45;&gt;Node11 -->
<g id="edge12" class="edge"><title>Node3&#45;&gt;Node11</title>
<path fill="none" stroke="midnightblue" d="M511.127,-168.444C553.584,-158.388 623.644,-141.795 666.333,-131.684"/>
<polygon fill="midnightblue" stroke="midnightblue" points="667.379,-135.033 676.303,-129.323 665.766,-128.222 667.379,-135.033"/>
</g>
<!-- Node15 -->
<g id="node15" class="node"><title>Node15</title>
<polygon fill="none" stroke="#bfbfbf" points="490.5,-112.5 490.5,-131.5 543.5,-131.5 543.5,-112.5 490.5,-112.5"/>
<text text-anchor="middle" x="517" y="-119.5" font-family="Helvetica,sans-Serif" font-size="10.00">malloc.h</text>
</g>
<!-- Node3&#45;&gt;Node15 -->
<g id="edge18" class="edge"><title>Node3&#45;&gt;Node15</title>
<path fill="none" stroke="midnightblue" d="M481.935,-168.083C487.929,-160.377 496.752,-149.033 504.048,-139.653"/>
<polygon fill="midnightblue" stroke="midnightblue" points="506.817,-141.793 510.194,-131.751 501.291,-137.496 506.817,-141.793"/>
</g>
<!-- Node6 -->
<g id="node6" class="node"><title>Node6</title>
<polygon fill="none" stroke="#bfbfbf" points="362.5,-56.5 362.5,-75.5 433.5,-75.5 433.5,-56.5 362.5,-56.5"/>
<text text-anchor="middle" x="398" y="-63.5" font-family="Helvetica,sans-Serif" font-size="10.00">stm/config.h</text>
</g>
<!-- Node5&#45;&gt;Node6 -->
<g id="edge6" class="edge"><title>Node5&#45;&gt;Node6</title>
<path fill="none" stroke="midnightblue" d="M257.462,-112.444C285.678,-103.32 330.54,-88.8133 361.968,-78.6509"/>
<polygon fill="midnightblue" stroke="midnightblue" points="363.224,-81.9234 371.662,-75.5164 361.07,-75.263 363.224,-81.9234"/>
</g>
<!-- Node7 -->
<g id="node7" class="node"><title>Node7</title>
<polygon fill="none" stroke="#bfbfbf" points="159.5,-56.5 159.5,-75.5 208.5,-75.5 208.5,-56.5 159.5,-56.5"/>
<text text-anchor="middle" x="184" y="-63.5" font-family="Helvetica,sans-Serif" font-size="10.00">stdint.h</text>
</g>
<!-- Node5&#45;&gt;Node7 -->
<g id="edge7" class="edge"><title>Node5&#45;&gt;Node7</title>
<path fill="none" stroke="midnightblue" d="M223.239,-112.083C216.463,-104.298 206.457,-92.8015 198.245,-83.3665"/>
<polygon fill="midnightblue" stroke="midnightblue" points="200.822,-80.9963 191.617,-75.7511 195.542,-85.592 200.822,-80.9963"/>
</g>
<!-- Node8 -->
<g id="node8" class="node"><title>Node8</title>
<polygon fill="none" stroke="#bfbfbf" points="227,-56.5 227,-75.5 275,-75.5 275,-56.5 227,-56.5"/>
<text text-anchor="middle" x="251" y="-63.5" font-family="Helvetica,sans-Serif" font-size="10.00">limits.h</text>
</g>
<!-- Node5&#45;&gt;Node8 -->
<g id="edge8" class="edge"><title>Node5&#45;&gt;Node8</title>
<path fill="none" stroke="midnightblue" d="M234.303,-112.083C236.982,-104.849 240.849,-94.4087 244.186,-85.3968"/>
<polygon fill="midnightblue" stroke="midnightblue" points="247.568,-86.3442 247.759,-75.7511 241.004,-83.9129 247.568,-86.3442"/>
</g>
<!-- Node9 -->
<g id="node9" class="node"><title>Node9</title>
<polygon fill="none" stroke="#bfbfbf" points="293.5,-56.5 293.5,-75.5 344.5,-75.5 344.5,-56.5 293.5,-56.5"/>
<text text-anchor="middle" x="319" y="-63.5" font-family="Helvetica,sans-Serif" font-size="10.00">unistd.h</text>
</g>
<!-- Node5&#45;&gt;Node9 -->
<g id="edge9" class="edge"><title>Node5&#45;&gt;Node9</title>
<path fill="none" stroke="midnightblue" d="M245.139,-112.324C258.866,-103.9 279.936,-90.9709 296.064,-81.0741"/>
<polygon fill="midnightblue" stroke="midnightblue" points="298.204,-83.8678 304.896,-75.6545 294.543,-77.9016 298.204,-83.8678"/>
</g>
<!-- Node10&#45;&gt;Node6 -->
<g id="edge11" class="edge"><title>Node10&#45;&gt;Node6</title>
<path fill="none" stroke="midnightblue" d="M373.789,-112.083C377.758,-104.691 383.525,-93.9533 388.435,-84.8111"/>
<polygon fill="midnightblue" stroke="midnightblue" points="391.653,-86.217 393.3,-75.7511 385.486,-82.9051 391.653,-86.217"/>
</g>
<!-- Node12 -->
<g id="node12" class="node"><title>Node12</title>
<polygon fill="none" stroke="#bfbfbf" points="619.5,-56.5 619.5,-75.5 676.5,-75.5 676.5,-56.5 619.5,-56.5"/>
<text text-anchor="middle" x="648" y="-63.5" font-family="Helvetica,sans-Serif" font-size="10.00">pthread.h</text>
</g>
<!-- Node11&#45;&gt;Node12 -->
<g id="edge13" class="edge"><title>Node11&#45;&gt;Node12</title>
<path fill="none" stroke="midnightblue" d="M693.918,-112.083C685.829,-104.141 673.805,-92.3354 664.09,-82.7973"/>
<polygon fill="midnightblue" stroke="midnightblue" points="666.501,-80.2595 656.913,-75.7511 661.597,-85.2545 666.501,-80.2595"/>
</g>
<!-- Node13 -->
<g id="node13" class="node"><title>Node13</title>
<g id="a_node13"><a xlink:href="mesh_2macros_8hpp.html" target="_top" xlink:title="macros.hpp">
<polygon fill="none" stroke="black" points="695,-56.5 695,-75.5 763,-75.5 763,-56.5 695,-56.5"/>
<text text-anchor="middle" x="729" y="-63.5" font-family="Helvetica,sans-Serif" font-size="10.00">macros.hpp</text>
</a>
</g>
</g>
<!-- Node11&#45;&gt;Node13 -->
<g id="edge14" class="edge"><title>Node11&#45;&gt;Node13</title>
<path fill="none" stroke="midnightblue" d="M707.293,-112.083C710.852,-104.691 716.022,-93.9533 720.424,-84.8111"/>
<polygon fill="midnightblue" stroke="midnightblue" points="723.602,-86.2795 724.787,-75.7511 717.295,-83.2427 723.602,-86.2795"/>
</g>
<!-- Node13&#45;&gt;Node2 -->
<g id="edge15" class="edge"><title>Node13&#45;&gt;Node2</title>
<path fill="none" stroke="midnightblue" d="M740.407,-56.324C751.109,-48.1849 767.341,-35.8395 780.163,-26.0874"/>
<polygon fill="midnightblue" stroke="midnightblue" points="782.544,-28.6734 788.385,-19.8339 778.307,-23.1018 782.544,-28.6734"/>
</g>
<!-- Node13&#45;&gt;Node4 -->
<g id="edge17" class="edge"><title>Node13&#45;&gt;Node4</title>
<path fill="none" stroke="midnightblue" d="M694.892,-58.0141C691.55,-57.3323 688.209,-56.652 685,-56 618.352,-42.4592 540.469,-26.7746 496.62,-17.9567"/>
<polygon fill="midnightblue" stroke="midnightblue" points="497.247,-14.5128 486.754,-15.9729 495.868,-21.3755 497.247,-14.5128"/>
</g>
<!-- Node14 -->
<g id="node14" class="node"><title>Node14</title>
<polygon fill="none" stroke="#bfbfbf" points="704.5,-0.5 704.5,-19.5 753.5,-19.5 753.5,-0.5 704.5,-0.5"/>
<text text-anchor="middle" x="729" y="-7.5" font-family="Helvetica,sans-Serif" font-size="10.00">string.h</text>
</g>
<!-- Node13&#45;&gt;Node14 -->
<g id="edge16" class="edge"><title>Node13&#45;&gt;Node14</title>
<path fill="none" stroke="midnightblue" d="M729,-56.083C729,-49.0059 729,-38.8611 729,-29.9865"/>
<polygon fill="midnightblue" stroke="midnightblue" points="732.5,-29.751 729,-19.7511 725.5,-29.7511 732.5,-29.751"/>
</g>
<!-- Node16&#45;&gt;Node3 -->
<g id="edge21" class="edge"><title>Node16&#45;&gt;Node3</title>
<path fill="none" stroke="midnightblue" d="M413.729,-224.324C424.837,-216.107 441.742,-203.602 454.983,-193.807"/>
<polygon fill="midnightblue" stroke="midnightblue" points="457.1,-196.595 463.058,-187.834 452.937,-190.967 457.1,-196.595"/>
</g>
<!-- Node17 -->
<g id="node17" class="node"><title>Node17</title>
<polygon fill="none" stroke="#bfbfbf" points="390,-168.5 390,-187.5 420,-187.5 420,-168.5 390,-168.5"/>
<text text-anchor="middle" x="405" y="-175.5" font-family="Helvetica,sans-Serif" font-size="10.00">set</text>
</g>
<!-- Node16&#45;&gt;Node17 -->
<g id="edge20" class="edge"><title>Node16&#45;&gt;Node17</title>
<path fill="none" stroke="midnightblue" d="M402.495,-224.083C402.889,-217.006 403.452,-206.861 403.945,-197.986"/>
<polygon fill="midnightblue" stroke="midnightblue" points="407.454,-197.93 404.514,-187.751 400.464,-197.542 407.454,-197.93"/>
</g>
<!-- Node19 -->
<g id="node19" class="node"><title>Node19</title>
<g id="a_node19"><a xlink:href="tm__hash__set_8hpp.html" target="_top" xlink:title="tm_hash_set.hpp">
<polygon fill="none" stroke="black" points="56,-280.5 56,-299.5 148,-299.5 148,-280.5 56,-280.5"/>
<text text-anchor="middle" x="102" y="-287.5" font-family="Helvetica,sans-Serif" font-size="10.00">tm_hash_set.hpp</text>
</a>
</g>
</g>
<!-- Node18&#45;&gt;Node19 -->
<g id="edge23" class="edge"><title>Node18&#45;&gt;Node19</title>
<path fill="none" stroke="midnightblue" d="M485.269,-340.16C410.913,-330.623 245.122,-309.358 157.98,-298.18"/>
<polygon fill="midnightblue" stroke="midnightblue" points="158.373,-294.702 148.009,-296.901 157.482,-301.645 158.373,-294.702"/>
</g>
<!-- Node22 -->
<g id="node22" class="node"><title>Node22</title>
<g id="a_node22"><a xlink:href="edge_8hpp.html" target="_top" xlink:title="edge.hpp">
<polygon fill="none" stroke="black" points="495,-280.5 495,-299.5 551,-299.5 551,-280.5 495,-280.5"/>
<text text-anchor="middle" x="523" y="-287.5" font-family="Helvetica,sans-Serif" font-size="10.00">edge.hpp</text>
</a>
</g>
</g>
<!-- Node18&#45;&gt;Node22 -->
<g id="edge29" class="edge"><title>Node18&#45;&gt;Node22</title>
<path fill="none" stroke="midnightblue" d="M523,-336.083C523,-329.006 523,-318.861 523,-309.986"/>
<polygon fill="midnightblue" stroke="midnightblue" points="526.5,-309.751 523,-299.751 519.5,-309.751 526.5,-309.751"/>
</g>
<!-- Node20 -->
<g id="node20" class="node"><title>Node20</title>
<g id="a_node20"><a xlink:href="tm__set_8hpp.html" target="_top" xlink:title="tm_set.hpp">
<polygon fill="none" stroke="black" points="-0.5,-168.5 -0.5,-187.5 64.5,-187.5 64.5,-168.5 -0.5,-168.5"/>
<text text-anchor="middle" x="32" y="-175.5" font-family="Helvetica,sans-Serif" font-size="10.00">tm_set.hpp</text>
</a>
</g>
</g>
<!-- Node19&#45;&gt;Node20 -->
<g id="edge24" class="edge"><title>Node19&#45;&gt;Node20</title>
<path fill="none" stroke="midnightblue" d="M88.3541,-280.254C76.801,-272.172 60.6265,-259.148 51,-244 42.034,-229.891 37.1664,-211.403 34.6106,-197.753"/>
<polygon fill="midnightblue" stroke="midnightblue" points="38.0241,-196.937 32.9681,-187.627 31.1144,-198.058 38.0241,-196.937"/>
</g>
<!-- Node21 -->
<g id="node21" class="node"><title>Node21</title>
<g id="a_node21"><a xlink:href="tm__list__set_8hpp.html" target="_top" xlink:title="tm_list_set.hpp">
<polygon fill="none" stroke="black" points="60.5,-224.5 60.5,-243.5 143.5,-243.5 143.5,-224.5 60.5,-224.5"/>
<text text-anchor="middle" x="102" y="-231.5" font-family="Helvetica,sans-Serif" font-size="10.00">tm_list_set.hpp</text>
</a>
</g>
</g>
<!-- Node19&#45;&gt;Node21 -->
<g id="edge25" class="edge"><title>Node19&#45;&gt;Node21</title>
<path fill="none" stroke="midnightblue" d="M102,-280.083C102,-273.006 102,-262.861 102,-253.986"/>
<polygon fill="midnightblue" stroke="midnightblue" points="105.5,-253.751 102,-243.751 98.5001,-253.751 105.5,-253.751"/>
</g>
<!-- Node21&#45;&gt;Node3 -->
<g id="edge27" class="edge"><title>Node21&#45;&gt;Node3</title>
<path fill="none" stroke="midnightblue" d="M143.53,-227.97C205.58,-220.296 326.102,-204.777 428,-188 428.105,-187.983 428.21,-187.965 428.315,-187.948"/>
<polygon fill="midnightblue" stroke="midnightblue" points="429.087,-191.367 438.342,-186.21 427.892,-184.469 429.087,-191.367"/>
</g>
<!-- Node21&#45;&gt;Node4 -->
<g id="edge26" class="edge"><title>Node21&#45;&gt;Node4</title>
<path fill="none" stroke="midnightblue" d="M100.317,-224.312C95.259,-195.321 83.4374,-101.193 133,-56 175.43,-17.3114 351.036,-11.5855 426.868,-10.9491"/>
<polygon fill="midnightblue" stroke="midnightblue" points="427.325,-14.4466 437.305,-10.8889 427.285,-7.44676 427.325,-14.4466"/>
</g>
<!-- Node21&#45;&gt;Node20 -->
<g id="edge28" class="edge"><title>Node21&#45;&gt;Node20</title>
<path fill="none" stroke="midnightblue" d="M90.7533,-224.324C80.2026,-216.185 64.1993,-203.839 51.5578,-194.087"/>
<polygon fill="midnightblue" stroke="midnightblue" points="53.507,-191.171 43.4513,-187.834 49.2314,-196.713 53.507,-191.171"/>
</g>
<!-- Node22&#45;&gt;Node2 -->
<g id="edge30" class="edge"><title>Node22&#45;&gt;Node2</title>
<path fill="none" stroke="midnightblue" d="M551.231,-285.32C628.548,-274.46 838,-239.46 838,-179 838,-179 838,-179 838,-121 838,-86.8131 821.4,-49.7639 810.143,-28.5707"/>
<polygon fill="midnightblue" stroke="midnightblue" points="813.181,-26.832 805.284,-19.769 807.053,-30.2151 813.181,-26.832"/>
</g>
<!-- Node22&#45;&gt;Node3 -->
<g id="edge40" class="edge"><title>Node22&#45;&gt;Node3</title>
<path fill="none" stroke="midnightblue" d="M520.044,-280.47C515.627,-267.935 506.871,-243.873 498,-224 493.932,-214.887 488.938,-204.987 484.644,-196.8"/>
<polygon fill="midnightblue" stroke="midnightblue" points="487.656,-195.009 479.863,-187.83 481.478,-198.301 487.656,-195.009"/>
</g>
<!-- Node22&#45;&gt;Node11 -->
<g id="edge50" class="edge"><title>Node22&#45;&gt;Node11</title>
<path fill="none" stroke="midnightblue" d="M551.001,-286.506C598.642,-281.62 692.243,-269.013 712,-244 735.41,-214.361 721.614,-166.885 711.245,-141.096"/>
<polygon fill="midnightblue" stroke="midnightblue" points="714.409,-139.594 707.26,-131.775 707.972,-142.346 714.409,-139.594"/>
</g>
<!-- Node22&#45;&gt;Node16 -->
<g id="edge41" class="edge"><title>Node22&#45;&gt;Node16</title>
<path fill="none" stroke="midnightblue" d="M503.827,-280.444C484.091,-271.636 453.115,-257.812 430.507,-247.722"/>
<polygon fill="midnightblue" stroke="midnightblue" points="431.641,-244.396 421.083,-243.516 428.789,-250.788 431.641,-244.396"/>
</g>
<!-- Node23 -->
<g id="node23" class="node"><title>Node23</title>
<polygon fill="none" stroke="#bfbfbf" points="530,-168.5 530,-187.5 582,-187.5 582,-168.5 530,-168.5"/>
<text text-anchor="middle" x="556" y="-175.5" font-family="Helvetica,sans-Serif" font-size="10.00">sstream</text>
</g>
<!-- Node22&#45;&gt;Node23 -->
<g id="edge31" class="edge"><title>Node22&#45;&gt;Node23</title>
<path fill="none" stroke="midnightblue" d="M525.589,-280.368C530.939,-262.537 543.311,-221.295 550.518,-197.272"/>
<polygon fill="midnightblue" stroke="midnightblue" points="553.901,-198.175 553.423,-187.591 547.197,-196.164 553.901,-198.175"/>
</g>
<!-- Node24 -->
<g id="node24" class="node"><title>Node24</title>
<polygon fill="none" stroke="#bfbfbf" points="448.5,-224.5 448.5,-243.5 489.5,-243.5 489.5,-224.5 448.5,-224.5"/>
<text text-anchor="middle" x="469" y="-231.5" font-family="Helvetica,sans-Serif" font-size="10.00">string</text>
</g>
<!-- Node22&#45;&gt;Node24 -->
<g id="edge32" class="edge"><title>Node22&#45;&gt;Node24</title>
<path fill="none" stroke="midnightblue" d="M514.083,-280.083C506.22,-272.22 494.569,-260.569 485.081,-251.081"/>
<polygon fill="midnightblue" stroke="midnightblue" points="487.297,-248.347 477.751,-243.751 482.347,-253.297 487.297,-248.347"/>
</g>
<!-- Node25 -->
<g id="node25" class="node"><title>Node25</title>
<g id="a_node25"><a xlink:href="queues_8hpp.html" target="_top" xlink:title="queues.hpp">
<polygon fill="none" stroke="black" points="271.5,-224.5 271.5,-243.5 338.5,-243.5 338.5,-224.5 271.5,-224.5"/>
<text text-anchor="middle" x="305" y="-231.5" font-family="Helvetica,sans-Serif" font-size="10.00">queues.hpp</text>
</a>
</g>
</g>
<!-- Node22&#45;&gt;Node25 -->
<g id="edge33" class="edge"><title>Node22&#45;&gt;Node25</title>
<path fill="none" stroke="midnightblue" d="M494.947,-282.051C457.82,-272.854 391.989,-256.548 348.416,-245.754"/>
<polygon fill="midnightblue" stroke="midnightblue" points="349.211,-242.346 338.663,-243.339 347.528,-249.14 349.211,-242.346"/>
</g>
<!-- Node29 -->
<g id="node29" class="node"><title>Node29</title>
<g id="a_node29"><a xlink:href="my__thread_8hpp.html" target="_top" xlink:title="my_thread.hpp">
<polygon fill="none" stroke="black" points="622.5,-224.5 622.5,-243.5 703.5,-243.5 703.5,-224.5 622.5,-224.5"/>
<text text-anchor="middle" x="663" y="-231.5" font-family="Helvetica,sans-Serif" font-size="10.00">my_thread.hpp</text>
</a>
</g>
</g>
<!-- Node22&#45;&gt;Node29 -->
<g id="edge42" class="edge"><title>Node22&#45;&gt;Node29</title>
<path fill="none" stroke="midnightblue" d="M545.183,-280.444C568.428,-271.478 605.149,-257.314 631.415,-247.183"/>
<polygon fill="midnightblue" stroke="midnightblue" points="632.85,-250.381 640.92,-243.516 630.331,-243.85 632.85,-250.381"/>
</g>
<!-- Node25&#45;&gt;Node3 -->
<g id="edge37" class="edge"><title>Node25&#45;&gt;Node3</title>
<path fill="none" stroke="midnightblue" d="M331.937,-224.444C360.66,-215.32 406.329,-200.813 438.321,-190.651"/>
<polygon fill="midnightblue" stroke="midnightblue" points="439.718,-193.88 448.189,-187.516 437.599,-187.208 439.718,-193.88"/>
</g>
<!-- Node25&#45;&gt;Node4 -->
<g id="edge35" class="edge"><title>Node25&#45;&gt;Node4</title>
<path fill="none" stroke="midnightblue" d="M271.244,-233.757C235.249,-232.524 179.695,-224.333 152,-188 116.431,-141.337 111.587,-100.351 150,-56 185.516,-14.994 353.136,-10.512 426.953,-10.5766"/>
<polygon fill="midnightblue" stroke="midnightblue" points="427.124,-14.0771 437.137,-10.6153 427.15,-7.07719 427.124,-14.0771"/>
</g>
<!-- Node26 -->
<g id="node26" class="node"><title>Node26</title>
<polygon fill="none" stroke="#bfbfbf" points="265.5,-168.5 265.5,-187.5 310.5,-187.5 310.5,-168.5 265.5,-168.5"/>
<text text-anchor="middle" x="288" y="-175.5" font-family="Helvetica,sans-Serif" font-size="10.00">cstdlib</text>
</g>
<!-- Node25&#45;&gt;Node26 -->
<g id="edge34" class="edge"><title>Node25&#45;&gt;Node26</title>
<path fill="none" stroke="midnightblue" d="M302.193,-224.083C299.915,-216.849 296.629,-206.409 293.792,-197.397"/>
<polygon fill="midnightblue" stroke="midnightblue" points="297.096,-196.239 290.755,-187.751 290.419,-198.341 297.096,-196.239"/>
</g>
<!-- Node27 -->
<g id="node27" class="node"><title>Node27</title>
<polygon fill="none" stroke="#bfbfbf" points="328.5,-168.5 328.5,-187.5 371.5,-187.5 371.5,-168.5 328.5,-168.5"/>
<text text-anchor="middle" x="350" y="-175.5" font-family="Helvetica,sans-Serif" font-size="10.00">queue</text>
</g>
<!-- Node25&#45;&gt;Node27 -->
<g id="edge36" class="edge"><title>Node25&#45;&gt;Node27</title>
<path fill="none" stroke="midnightblue" d="M312.431,-224.083C318.853,-216.377 328.306,-205.033 336.122,-195.653"/>
<polygon fill="midnightblue" stroke="midnightblue" points="338.994,-197.674 342.707,-187.751 333.617,-193.193 338.994,-197.674"/>
</g>
<!-- Node28 -->
<g id="node28" class="node"><title>Node28</title>
<g id="a_node28"><a xlink:href="counted__ptr_8hpp.html" target="_top" xlink:title="counted_ptr.hpp">
<polygon fill="none" stroke="black" points="161,-168.5 161,-187.5 247,-187.5 247,-168.5 161,-168.5"/>
<text text-anchor="middle" x="204" y="-175.5" font-family="Helvetica,sans-Serif" font-size="10.00">counted_ptr.hpp</text>
</a>
</g>
</g>
<!-- Node25&#45;&gt;Node28 -->
<g id="edge38" class="edge"><title>Node25&#45;&gt;Node28</title>
<path fill="none" stroke="midnightblue" d="M288.773,-224.324C272.649,-215.703 247.7,-202.364 229.036,-192.386"/>
<polygon fill="midnightblue" stroke="midnightblue" points="230.656,-189.283 220.187,-187.655 227.356,-195.456 230.656,-189.283"/>
</g>
<!-- Node28&#45;&gt;Node5 -->
<g id="edge39" class="edge"><title>Node28&#45;&gt;Node5</title>
<path fill="none" stroke="midnightblue" d="M208.459,-168.083C212.154,-160.691 217.523,-149.953 222.094,-140.811"/>
<polygon fill="midnightblue" stroke="midnightblue" points="225.283,-142.261 226.624,-131.751 219.022,-139.13 225.283,-142.261"/>
</g>
<!-- Node29&#45;&gt;Node2 -->
<g id="edge44" class="edge"><title>Node29&#45;&gt;Node2</title>
<path fill="none" stroke="midnightblue" d="M680.097,-224.499C694.434,-216.66 714.649,-203.852 728,-188 768.896,-139.443 788.884,-64.574 796.37,-29.8647"/>
<polygon fill="midnightblue" stroke="midnightblue" points="799.868,-30.2276 798.441,-19.7293 793.009,-28.8258 799.868,-30.2276"/>
</g>
<!-- Node29&#45;&gt;Node3 -->
<g id="edge47" class="edge"><title>Node29&#45;&gt;Node3</title>
<path fill="none" stroke="midnightblue" d="M633.211,-224.444C601.171,-215.241 550.067,-200.562 514.647,-190.388"/>
<polygon fill="midnightblue" stroke="midnightblue" points="515.227,-186.913 504.65,-187.516 513.295,-193.641 515.227,-186.913"/>
</g>
<!-- Node29&#45;&gt;Node4 -->
<g id="edge46" class="edge"><title>Node29&#45;&gt;Node4</title>
<path fill="none" stroke="midnightblue" d="M655.121,-224.297C624.982,-191.01 516.706,-71.421 476.856,-27.4084"/>
<polygon fill="midnightblue" stroke="midnightblue" points="479.35,-24.9476 470.043,-19.8837 474.161,-29.6459 479.35,-24.9476"/>
</g>
<!-- Node29&#45;&gt;Node11 -->
<g id="edge49" class="edge"><title>Node29&#45;&gt;Node11</title>
<path fill="none" stroke="midnightblue" d="M666.139,-224.368C672.623,-206.537 687.62,-165.295 696.356,-141.272"/>
<polygon fill="midnightblue" stroke="midnightblue" points="699.748,-142.185 699.876,-131.591 693.169,-139.793 699.748,-142.185"/>
</g>
<!-- Node29&#45;&gt;Node12 -->
<g id="edge43" class="edge"><title>Node29&#45;&gt;Node12</title>
<path fill="none" stroke="midnightblue" d="M662.194,-224.075C659.832,-197.945 652.899,-121.211 649.679,-85.577"/>
<polygon fill="midnightblue" stroke="midnightblue" points="653.16,-85.2125 648.774,-75.5681 646.188,-85.8425 653.16,-85.2125"/>
</g>
<!-- Node29&#45;&gt;Node13 -->
<g id="edge48" class="edge"><title>Node29&#45;&gt;Node13</title>
<path fill="none" stroke="midnightblue" d="M672.543,-224.441C689.668,-208.357 725.037,-171.65 738,-132 742.978,-116.773 739.772,-98.6609 735.87,-85.4285"/>
<polygon fill="midnightblue" stroke="midnightblue" points="739.085,-84.005 732.594,-75.6313 732.446,-86.2251 739.085,-84.005"/>
</g>
<!-- Node29&#45;&gt;Node23 -->
<g id="edge45" class="edge"><title>Node29&#45;&gt;Node23</title>
<path fill="none" stroke="midnightblue" d="M645.809,-224.324C628.649,-215.664 602.054,-202.242 582.253,-192.249"/>
<polygon fill="midnightblue" stroke="midnightblue" points="583.653,-189.035 573.149,-187.655 580.499,-195.285 583.653,-189.035"/>
</g>
</g>
</svg>
