<?xml version="1.0" encoding="UTF-8" standalone="no"?>
<!DOCTYPE svg PUBLIC "-//W3C//DTD SVG 1.1//EN"
 "http://www.w3.org/Graphics/SVG/1.1/DTD/svg11.dtd">
<!-- Generated by graphviz version 2.36.0 (20140111.2315)
 -->
<!-- Title: rstm/rstm&#45;dev/mesh/edge.hpp Pages: 1 -->
<!--zoomable 176 -->
<svg id="main" version="1.1" xmlns="http://www.w3.org/2000/svg" xmlns:xlink="http://www.w3.org/1999/xlink" xml:space="preserve" onload="init(evt)">
<style type="text/css"><![CDATA[
.edge:hover path { stroke: red; }
.edge:hover polygon { stroke: red; fill: red; }
]]></style>
<script type="text/javascript"><![CDATA[
var edges = document.getElementsByTagName('g');
if (edges && edges.length) {
  for (var i=0;i<edges.length;i++) {
    if (edges[i].id.substr(0,4)=='edge') {
      edges[i].setAttribute('class','edge');
    }
  }
}
]]></script>
        <defs>
                <circle id="rim" cx="0" cy="0" r="7"/>
                <circle id="rim2" cx="0" cy="0" r="3.5"/>
                <g id="zoomPlus">
                        <use xlink:href="#rim" fill="#404040">
                                <set attributeName="fill" to="#808080" begin="zoomplus.mouseover" end="zoomplus.mouseout"/>
                        </use>
                        <path d="M-4,0h8M0,-4v8" fill="none" stroke="white" stroke-width="1.5" pointer-events="none"/>
                </g>
                <g id="zoomMin">
                        <use xlink:href="#rim" fill="#404040">
                                <set attributeName="fill" to="#808080" begin="zoomminus.mouseover" end="zoomminus.mouseout"/>
                        </use>
                        <path d="M-4,0h8" fill="none" stroke="white" stroke-width="1.5" pointer-events="none"/>
                </g>
                <g id="dirArrow">
                        <path fill="none" stroke="white" stroke-width="1.5" d="M0,-3.0v7 M-2.5,-0.5L0,-3.0L2.5,-0.5"/>
                </g>
               <g id="resetDef">
                       <use xlink:href="#rim2" fill="#404040">
                               <set attributeName="fill" to="#808080" begin="reset.mouseover" end="reset.mouseout"/>
                       </use>
               </g>
        </defs>

<script type="text/javascript">
var viewWidth = 722;
var viewHeight = 176;
var sectionId = 'dynsection-1';
</script>
<script xlink:href="svgpan.js"/>
<svg id="graph" class="graph">
<g id="viewport">
<title>rstm/rstm&#45;dev/mesh/edge.hpp</title>
<!-- Node1 -->
<g id="node1" class="node"><title>Node1</title>
<polygon fill="#bfbfbf" stroke="black" points="326,-137 326,-167 430,-167 430,-137 326,-137"/>
<text text-anchor="start" x="334" y="-155" font-family="Helvetica,sans-Serif" font-size="10.00">rstm/rstm&#45;dev/mesh</text>
<text text-anchor="middle" x="378" y="-144" font-family="Helvetica,sans-Serif" font-size="10.00">/edge.hpp</text>
</g>
<!-- Node2 -->
<g id="node2" class="node"><title>Node2</title>
<g id="a_node2"><a xlink:href="dwyer_8cpp.html" target="_top" xlink:title="rstm/rstm&#45;dev/mesh\l/dwyer.cpp">
<polygon fill="none" stroke="black" points="0,-1 0,-31 104,-31 104,-1 0,-1"/>
<text text-anchor="start" x="8" y="-19" font-family="Helvetica,sans-Serif" font-size="10.00">rstm/rstm&#45;dev/mesh</text>
<text text-anchor="middle" x="52" y="-8" font-family="Helvetica,sans-Serif" font-size="10.00">/dwyer.cpp</text>
</a>
</g>
</g>
<!-- Node1&#45;&gt;Node2 -->
<g id="edge1" class="edge"><title>Node1&#45;&gt;Node2</title>
<path fill="none" stroke="midnightblue" d="M315.666,-151.214C259.311,-148.694 176.064,-137.99 115,-100 87.8119,-83.0853 68.1032,-49.8829 58.5283,-31.0016"/>
<polygon fill="midnightblue" stroke="midnightblue" points="315.74,-154.719 325.864,-151.594 316.001,-147.723 315.74,-154.719"/>
</g>
<!-- Node3 -->
<g id="node3" class="node"><title>Node3</title>
<g id="a_node3"><a xlink:href="side_8hpp.html" target="_top" xlink:title="rstm/rstm&#45;dev/mesh\l/side.hpp">
<polygon fill="none" stroke="black" points="124,-69 124,-99 228,-99 228,-69 124,-69"/>
<text text-anchor="start" x="132" y="-87" font-family="Helvetica,sans-Serif" font-size="10.00">rstm/rstm&#45;dev/mesh</text>
<text text-anchor="middle" x="176" y="-76" font-family="Helvetica,sans-Serif" font-size="10.00">/side.hpp</text>
</a>
</g>
</g>
<!-- Node1&#45;&gt;Node3 -->
<g id="edge2" class="edge"><title>Node1&#45;&gt;Node3</title>
<path fill="none" stroke="midnightblue" d="M325.147,-133.731C292.047,-122.916 249.942,-109.159 218.915,-99.0218"/>
<polygon fill="midnightblue" stroke="midnightblue" points="324.073,-137.062 334.666,-136.841 326.247,-130.409 324.073,-137.062"/>
</g>
<!-- Node5 -->
<g id="node5" class="node"><title>Node5</title>
<g id="a_node5"><a xlink:href="worker_8cpp.html" target="_top" xlink:title="rstm/rstm&#45;dev/mesh\l/worker.cpp">
<polygon fill="none" stroke="black" points="244,-1 244,-31 348,-31 348,-1 244,-1"/>
<text text-anchor="start" x="252" y="-19" font-family="Helvetica,sans-Serif" font-size="10.00">rstm/rstm&#45;dev/mesh</text>
<text text-anchor="middle" x="296" y="-8" font-family="Helvetica,sans-Serif" font-size="10.00">/worker.cpp</text>
</a>
</g>
</g>
<!-- Node1&#45;&gt;Node5 -->
<g id="edge17" class="edge"><title>Node1&#45;&gt;Node5</title>
<path fill="none" stroke="midnightblue" d="M316.624,-133.115C301.029,-125.497 286.122,-114.824 277,-100 263.753,-78.471 276.681,-48.6703 286.726,-31.2542"/>
<polygon fill="midnightblue" stroke="midnightblue" points="315.291,-136.353 325.847,-137.256 318.158,-129.967 315.291,-136.353"/>
</g>
<!-- Node6 -->
<g id="node6" class="node"><title>Node6</title>
<g id="a_node6"><a xlink:href="edge_8cpp.html" target="_top" xlink:title="rstm/rstm&#45;dev/mesh\l/edge.cpp">
<polygon fill="none" stroke="black" points="610,-1 610,-31 714,-31 714,-1 610,-1"/>
<text text-anchor="start" x="618" y="-19" font-family="Helvetica,sans-Serif" font-size="10.00">rstm/rstm&#45;dev/mesh</text>
<text text-anchor="middle" x="662" y="-8" font-family="Helvetica,sans-Serif" font-size="10.00">/edge.cpp</text>
</a>
</g>
</g>
<!-- Node1&#45;&gt;Node6 -->
<g id="edge6" class="edge"><title>Node1&#45;&gt;Node6</title>
<path fill="none" stroke="midnightblue" d="M440.062,-140.336C476.201,-132.492 521.82,-119.701 559,-100 578.51,-89.662 579.868,-81.9279 597,-68 612.582,-55.3327 630.561,-41.2676 643.655,-31.1219"/>
<polygon fill="midnightblue" stroke="midnightblue" points="439.204,-136.94 430.136,-142.42 440.642,-143.791 439.204,-136.94"/>
</g>
<!-- Node7 -->
<g id="node7" class="node"><title>Node7</title>
<g id="a_node7"><a xlink:href="edge__set_8hpp.html" target="_top" xlink:title="rstm/rstm&#45;dev/mesh\l/edge_set.hpp">
<polygon fill="none" stroke="black" points="446,-69 446,-99 550,-99 550,-69 446,-69"/>
<text text-anchor="start" x="454" y="-87" font-family="Helvetica,sans-Serif" font-size="10.00">rstm/rstm&#45;dev/mesh</text>
<text text-anchor="middle" x="498" y="-76" font-family="Helvetica,sans-Serif" font-size="10.00">/edge_set.hpp</text>
</a>
</g>
</g>
<!-- Node1&#45;&gt;Node7 -->
<g id="edge7" class="edge"><title>Node1&#45;&gt;Node7</title>
<path fill="none" stroke="midnightblue" d="M412.705,-131.912C431.731,-121.448 454.909,-108.7 472.3,-99.1352"/>
<polygon fill="midnightblue" stroke="midnightblue" points="410.818,-128.955 403.743,-136.841 414.192,-135.089 410.818,-128.955"/>
</g>
<!-- Node9 -->
<g id="node9" class="node"><title>Node9</title>
<g id="a_node9"><a xlink:href="mesh_8cpp.html" target="_top" xlink:title="rstm/rstm&#45;dev/mesh\l/mesh.cpp">
<polygon fill="none" stroke="black" points="366,-1 366,-31 470,-31 470,-1 366,-1"/>
<text text-anchor="start" x="374" y="-19" font-family="Helvetica,sans-Serif" font-size="10.00">rstm/rstm&#45;dev/mesh</text>
<text text-anchor="middle" x="418" y="-8" font-family="Helvetica,sans-Serif" font-size="10.00">/mesh.cpp</text>
</a>
</g>
</g>
<!-- Node1&#45;&gt;Node9 -->
<g id="edge12" class="edge"><title>Node1&#45;&gt;Node9</title>
<path fill="none" stroke="midnightblue" d="M388.591,-127.592C392.212,-119.026 396.081,-109.182 399,-100 406.524,-76.3328 412.356,-47.9837 415.476,-31.2903"/>
<polygon fill="midnightblue" stroke="midnightblue" points="385.302,-126.378 384.526,-136.945 391.722,-129.169 385.302,-126.378"/>
</g>
<!-- Node10 -->
<g id="node10" class="node"><title>Node10</title>
<g id="a_node10"><a xlink:href="worker_8hpp.html" target="_top" xlink:title="rstm/rstm&#45;dev/mesh\l/worker.hpp">
<polygon fill="none" stroke="black" points="286,-69 286,-99 390,-99 390,-69 286,-69"/>
<text text-anchor="start" x="294" y="-87" font-family="Helvetica,sans-Serif" font-size="10.00">rstm/rstm&#45;dev/mesh</text>
<text text-anchor="middle" x="338" y="-76" font-family="Helvetica,sans-Serif" font-size="10.00">/worker.hpp</text>
</a>
</g>
</g>
<!-- Node1&#45;&gt;Node10 -->
<g id="edge13" class="edge"><title>Node1&#45;&gt;Node10</title>
<path fill="none" stroke="midnightblue" d="M364.072,-128.019C358.283,-118.467 351.744,-107.677 346.662,-99.2931"/>
<polygon fill="midnightblue" stroke="midnightblue" points="361.144,-129.941 369.321,-136.679 367.131,-126.313 361.144,-129.941"/>
</g>
<!-- Node11 -->
<g id="node11" class="node"><title>Node11</title>
<g id="a_node11"><a xlink:href="queues_8cpp.html" target="_top" xlink:title="rstm/rstm&#45;dev/mesh\l/queues.cpp">
<polygon fill="none" stroke="black" points="606,-69 606,-99 710,-99 710,-69 606,-69"/>
<text text-anchor="start" x="614" y="-87" font-family="Helvetica,sans-Serif" font-size="10.00">rstm/rstm&#45;dev/mesh</text>
<text text-anchor="middle" x="658" y="-76" font-family="Helvetica,sans-Serif" font-size="10.00">/queues.cpp</text>
</a>
</g>
</g>
<!-- Node1&#45;&gt;Node11 -->
<g id="edge16" class="edge"><title>Node1&#45;&gt;Node11</title>
<path fill="none" stroke="midnightblue" d="M440.006,-136.384C489.765,-124.655 558.83,-108.376 605.795,-97.3056"/>
<polygon fill="midnightblue" stroke="midnightblue" points="438.94,-133.04 430.01,-138.741 440.546,-139.853 438.94,-133.04"/>
</g>
<!-- Node3&#45;&gt;Node2 -->
<g id="edge3" class="edge"><title>Node3&#45;&gt;Node2</title>
<path fill="none" stroke="midnightblue" d="M140.406,-64.0545C120.696,-53.5641 96.6087,-40.7434 78.5571,-31.1352"/>
<polygon fill="midnightblue" stroke="midnightblue" points="138.927,-67.2324 149.399,-68.8413 142.216,-61.0532 138.927,-67.2324"/>
</g>
<!-- Node4 -->
<g id="node4" class="node"><title>Node4</title>
<g id="a_node4"><a xlink:href="side_8cpp.html" target="_top" xlink:title="rstm/rstm&#45;dev/mesh\l/side.cpp">
<polygon fill="none" stroke="black" points="122,-1 122,-31 226,-31 226,-1 122,-1"/>
<text text-anchor="start" x="130" y="-19" font-family="Helvetica,sans-Serif" font-size="10.00">rstm/rstm&#45;dev/mesh</text>
<text text-anchor="middle" x="174" y="-8" font-family="Helvetica,sans-Serif" font-size="10.00">/side.cpp</text>
</a>
</g>
</g>
<!-- Node3&#45;&gt;Node4 -->
<g id="edge4" class="edge"><title>Node3&#45;&gt;Node4</title>
<path fill="none" stroke="midnightblue" d="M175.259,-58.5322C174.981,-49.3606 174.674,-39.2449 174.433,-31.2931"/>
<polygon fill="midnightblue" stroke="midnightblue" points="171.765,-58.7896 175.566,-68.679 178.761,-58.5775 171.765,-58.7896"/>
</g>
<!-- Node3&#45;&gt;Node5 -->
<g id="edge5" class="edge"><title>Node3&#45;&gt;Node5</title>
<path fill="none" stroke="midnightblue" d="M210.705,-63.912C229.731,-53.4481 252.909,-40.6999 270.3,-31.1352"/>
<polygon fill="midnightblue" stroke="midnightblue" points="208.818,-60.9553 201.743,-68.8413 212.192,-67.0889 208.818,-60.9553"/>
</g>
<!-- Node7&#45;&gt;Node5 -->
<g id="edge11" class="edge"><title>Node7&#45;&gt;Node5</title>
<path fill="none" stroke="midnightblue" d="M445.147,-65.731C412.047,-54.9164 369.942,-41.1592 338.915,-31.0218"/>
<polygon fill="midnightblue" stroke="midnightblue" points="444.073,-69.0624 454.666,-68.8413 446.247,-62.4086 444.073,-69.0624"/>
</g>
<!-- Node7&#45;&gt;Node6 -->
<g id="edge8" class="edge"><title>Node7&#45;&gt;Node6</title>
<path fill="none" stroke="midnightblue" d="M542.651,-65.0308C569.247,-54.3276 602.509,-40.9417 627.158,-31.0218"/>
<polygon fill="midnightblue" stroke="midnightblue" points="541.152,-61.8609 533.182,-68.8413 543.766,-68.3548 541.152,-61.8609"/>
</g>
<!-- Node8 -->
<g id="node8" class="node"><title>Node8</title>
<g id="a_node8"><a xlink:href="edge__set_8cpp.html" target="_top" xlink:title="rstm/rstm&#45;dev/mesh\l/edge_set.cpp">
<polygon fill="none" stroke="black" points="488,-1 488,-31 592,-31 592,-1 488,-1"/>
<text text-anchor="start" x="496" y="-19" font-family="Helvetica,sans-Serif" font-size="10.00">rstm/rstm&#45;dev/mesh</text>
<text text-anchor="middle" x="540" y="-8" font-family="Helvetica,sans-Serif" font-size="10.00">/edge_set.cpp</text>
</a>
</g>
</g>
<!-- Node7&#45;&gt;Node8 -->
<g id="edge9" class="edge"><title>Node7&#45;&gt;Node8</title>
<path fill="none" stroke="midnightblue" d="M512.624,-60.0187C518.703,-50.4665 525.569,-39.677 530.904,-31.2931"/>
<polygon fill="midnightblue" stroke="midnightblue" points="509.529,-58.3633 507.113,-68.679 515.435,-62.1214 509.529,-58.3633"/>
</g>
<!-- Node7&#45;&gt;Node9 -->
<g id="edge10" class="edge"><title>Node7&#45;&gt;Node9</title>
<path fill="none" stroke="midnightblue" d="M472.92,-62.3094C460.597,-52.1426 446.068,-40.1562 435.05,-31.0663"/>
<polygon fill="midnightblue" stroke="midnightblue" points="470.7,-65.0149 480.641,-68.679 475.155,-59.6153 470.7,-65.0149"/>
</g>
<!-- Node10&#45;&gt;Node5 -->
<g id="edge15" class="edge"><title>Node10&#45;&gt;Node5</title>
<path fill="none" stroke="midnightblue" d="M323.376,-60.0187C317.297,-50.4665 310.431,-39.677 305.096,-31.2931"/>
<polygon fill="midnightblue" stroke="midnightblue" points="320.565,-62.1214 328.887,-68.679 326.471,-58.3633 320.565,-62.1214"/>
</g>
<!-- Node10&#45;&gt;Node9 -->
<g id="edge14" class="edge"><title>Node10&#45;&gt;Node9</title>
<path fill="none" stroke="midnightblue" d="M363.08,-62.3094C375.403,-52.1426 389.932,-40.1562 400.95,-31.0663"/>
<polygon fill="midnightblue" stroke="midnightblue" points="360.845,-59.6153 355.359,-68.679 365.3,-65.0149 360.845,-59.6153"/>
</g>
</g>
</svg>
        <g id="navigator" transform="translate(0 0)" fill="#404254">
                <rect fill="#f2f5e9" fill-opacity="0.5" stroke="#606060" stroke-width=".5" x="0" y="0" width="60" height="60"/>
                <use id="zoomplus" xlink:href="#zoomPlus" x="17" y="9" onmousedown="handleZoom(evt,'in')"/>
                <use id="zoomminus" xlink:href="#zoomMin" x="42" y="9" onmousedown="handleZoom(evt,'out')"/>
                <use id="reset" xlink:href="#resetDef" x="30" y="36" onmousedown="handleReset()"/>
                <g id="arrowUp" xlink:href="#dirArrow" transform="translate(30 24)" onmousedown="handlePan(0,-1)">
                  <use xlink:href="#rim" fill="#404040">
                        <set attributeName="fill" to="#808080" begin="arrowUp.mouseover" end="arrowUp.mouseout"/>
                  </use>
                  <path fill="none" stroke="white" stroke-width="1.5" d="M0,-3.0v7 M-2.5,-0.5L0,-3.0L2.5,-0.5"/>
                </g>
                <g id="arrowRight" xlink:href="#dirArrow" transform="rotate(90) translate(36 -43)" onmousedown="handlePan(1,0)">
                  <use xlink:href="#rim" fill="#404040">
                        <set attributeName="fill" to="#808080" begin="arrowRight.mouseover" end="arrowRight.mouseout"/>
                  </use>
                  <path fill="none" stroke="white" stroke-width="1.5" d="M0,-3.0v7 M-2.5,-0.5L0,-3.0L2.5,-0.5"/>
                </g>
                <g id="arrowDown" xlink:href="#dirArrow" transform="rotate(180) translate(-30 -48)" onmousedown="handlePan(0,1)">
                  <use xlink:href="#rim" fill="#404040">
                        <set attributeName="fill" to="#808080" begin="arrowDown.mouseover" end="arrowDown.mouseout"/>
                  </use>
                  <path fill="none" stroke="white" stroke-width="1.5" d="M0,-3.0v7 M-2.5,-0.5L0,-3.0L2.5,-0.5"/>
                </g>
                <g id="arrowLeft" xlink:href="#dirArrow" transform="rotate(270) translate(-36 17)" onmousedown="handlePan(-1,0)">
                  <use xlink:href="#rim" fill="#404040">
                        <set attributeName="fill" to="#808080" begin="arrowLeft.mouseover" end="arrowLeft.mouseout"/>
                  </use>
                  <path fill="none" stroke="white" stroke-width="1.5" d="M0,-3.0v7 M-2.5,-0.5L0,-3.0L2.5,-0.5"/>
                </g>
        </g>
        <svg viewBox="0 0 15 15" width="100%" height="30px" preserveAspectRatio="xMaxYMin meet">
         <g id="arrow_out" transform="scale(0.3 0.3)">
          <a xlink:href="edge_8hpp__dep__incl_org.svg" target="_base">
           <rect id="button" ry="5" rx="5" y="6" x="6" height="38" width="38"
                fill="#f2f5e9" fill-opacity="0.5" stroke="#606060" stroke-width="1.0"/>
           <path id="arrow"
             d="M 11.500037,31.436501 C 11.940474,20.09759 22.043105,11.32322 32.158766,21.979434 L 37.068811,17.246167 C 37.068811,17.246167 37.088388,32 37.088388,32 L 22.160133,31.978069 C 22.160133,31.978069 26.997745,27.140456 26.997745,27.140456 C 18.528582,18.264221 13.291696,25.230495 11.500037,31.436501 z"
             style="fill:#404040;"/>
          </a>
         </g>
        </svg>
</svg>
