<?xml version="1.0" encoding="UTF-8" standalone="no"?>
<!DOCTYPE svg PUBLIC "-//W3C//DTD SVG 1.1//EN"
 "http://www.w3.org/Graphics/SVG/1.1/DTD/svg11.dtd">
<!-- Generated by graphviz version 2.36.0 (20140111.2315)
 -->
<!-- Title: setEdge Pages: 1 -->
<svg width="202pt" height="66pt"
 viewBox="0.00 0.00 202.00 66.00" xmlns="http://www.w3.org/2000/svg" xmlns:xlink="http://www.w3.org/1999/xlink">
<g id="graph0" class="graph" transform="scale(1 1) rotate(0) translate(4 62)">
<title>setEdge</title>
<!-- Node1 -->
<g id="node1" class="node"><title>Node1</title>
<polygon fill="#bfbfbf" stroke="black" points="0.5,-19.5 0.5,-38.5 53.5,-38.5 53.5,-19.5 0.5,-19.5"/>
<text text-anchor="middle" x="27" y="-26.5" font-family="Helvetica,sans-Serif" font-size="10.00">setEdge</text>
</g>
<!-- Node2 -->
<g id="node2" class="node"><title>Node2</title>
<g id="a_node2"><a xlink:href="yada_2coordinate_8c.html#a6ab38f14cde3ffe89a1496fbdf628549" target="_top" xlink:title="coordinate_compare">
<polygon fill="none" stroke="black" points="90,-38.5 90,-57.5 194,-57.5 194,-38.5 90,-38.5"/>
<text text-anchor="middle" x="142" y="-45.5" font-family="Helvetica,sans-Serif" font-size="10.00">coordinate_compare</text>
</a>
</g>
</g>
<!-- Node1&#45;&gt;Node2 -->
<g id="edge1" class="edge"><title>Node1&#45;&gt;Node2</title>
<path fill="none" stroke="midnightblue" d="M53.6414,-33.3114C61.4839,-34.63 70.4707,-36.1411 79.6294,-37.681"/>
<polygon fill="midnightblue" stroke="midnightblue" points="79.1471,-41.149 89.589,-39.3557 80.3078,-34.2459 79.1471,-41.149"/>
</g>
<!-- Node3 -->
<g id="node3" class="node"><title>Node3</title>
<g id="a_node3"><a xlink:href="yada_2coordinate_8c.html#a4b619d07f8343b4990b31920c9307c44" target="_top" xlink:title="coordinate_distance">
<polygon fill="none" stroke="black" points="90,-0.5 90,-19.5 194,-19.5 194,-0.5 90,-0.5"/>
<text text-anchor="middle" x="142" y="-7.5" font-family="Helvetica,sans-Serif" font-size="10.00">coordinate_distance</text>
</a>
</g>
</g>
<!-- Node1&#45;&gt;Node3 -->
<g id="edge2" class="edge"><title>Node1&#45;&gt;Node3</title>
<path fill="none" stroke="midnightblue" d="M53.6414,-24.6886C61.4839,-23.37 70.4707,-21.8589 79.6294,-20.319"/>
<polygon fill="midnightblue" stroke="midnightblue" points="80.3078,-23.7541 89.589,-18.6443 79.1471,-16.851 80.3078,-23.7541"/>
</g>
</g>
</svg>
