<?xml version="1.0" encoding="UTF-8" standalone="no"?>
<!DOCTYPE svg PUBLIC "-//W3C//DTD SVG 1.1//EN"
 "http://www.w3.org/Graphics/SVG/1.1/DTD/svg11.dtd">
<!-- Generated by graphviz version 2.36.0 (20140111.2315)
 -->
<!-- Title: TMelement_alloc Pages: 1 -->
<svg width="534pt" height="142pt"
 viewBox="0.00 0.00 534.00 142.00" xmlns="http://www.w3.org/2000/svg" xmlns:xlink="http://www.w3.org/1999/xlink">
<g id="graph0" class="graph" transform="scale(1 1) rotate(0) translate(4 138)">
<title>TMelement_alloc</title>
<!-- Node1 -->
<g id="node1" class="node"><title>Node1</title>
<polygon fill="#bfbfbf" stroke="black" points="0.5,-57.5 0.5,-76.5 91.5,-76.5 91.5,-57.5 0.5,-57.5"/>
<text text-anchor="middle" x="46" y="-64.5" font-family="Helvetica,sans-Serif" font-size="10.00">TMelement_alloc</text>
</g>
<!-- Node2 -->
<g id="node2" class="node"><title>Node2</title>
<g id="a_node2"><a xlink:href="element_8c.html#ac0e5e56e092166a5407cbd8df8d566cc" target="_top" xlink:title="minimizeCoordinates">
<polygon fill="none" stroke="black" points="278,-114.5 278,-133.5 386,-133.5 386,-114.5 278,-114.5"/>
<text text-anchor="middle" x="332" y="-121.5" font-family="Helvetica,sans-Serif" font-size="10.00">minimizeCoordinates</text>
</a>
</g>
</g>
<!-- Node1&#45;&gt;Node2 -->
<g id="edge1" class="edge"><title>Node1&#45;&gt;Node2</title>
<path fill="none" stroke="midnightblue" d="M63.1122,-76.6064C79.016,-85.5858 104.321,-98.5487 128,-105 173.809,-117.481 227.344,-122.099 267.933,-123.667"/>
<polygon fill="midnightblue" stroke="midnightblue" points="267.849,-127.166 277.96,-124.003 268.083,-120.17 267.849,-127.166"/>
</g>
<!-- Node4 -->
<g id="node4" class="node"><title>Node4</title>
<g id="a_node4"><a xlink:href="element_8c.html#a516b4b4c0f1c9b721118afb05dc2bc39" target="_top" xlink:title="checkAngles">
<polygon fill="none" stroke="black" points="148.5,-0.5 148.5,-19.5 221.5,-19.5 221.5,-0.5 148.5,-0.5"/>
<text text-anchor="middle" x="185" y="-7.5" font-family="Helvetica,sans-Serif" font-size="10.00">checkAngles</text>
</a>
</g>
</g>
<!-- Node1&#45;&gt;Node4 -->
<g id="edge3" class="edge"><title>Node1&#45;&gt;Node4</title>
<path fill="none" stroke="midnightblue" d="M65.7212,-57.4883C81.9715,-49.4088 106.243,-37.7625 128,-29 133.178,-26.9145 138.683,-24.8577 144.142,-22.9115"/>
<polygon fill="midnightblue" stroke="midnightblue" points="145.54,-26.1314 153.839,-19.5457 143.244,-19.5185 145.54,-26.1314"/>
</g>
<!-- Node7 -->
<g id="node7" class="node"><title>Node7</title>
<g id="a_node7"><a xlink:href="element_8c.html#aa2f8ebe6a209829f3c48db5dece61abe" target="_top" xlink:title="calculateCircumCircle">
<polygon fill="none" stroke="black" points="128.5,-38.5 128.5,-57.5 241.5,-57.5 241.5,-38.5 128.5,-38.5"/>
<text text-anchor="middle" x="185" y="-45.5" font-family="Helvetica,sans-Serif" font-size="10.00">calculateCircumCircle</text>
</a>
</g>
</g>
<!-- Node1&#45;&gt;Node7 -->
<g id="edge6" class="edge"><title>Node1&#45;&gt;Node7</title>
<path fill="none" stroke="midnightblue" d="M91.8589,-60.7787C100.25,-59.6149 109.181,-58.3763 118.055,-57.1457"/>
<polygon fill="midnightblue" stroke="midnightblue" points="118.593,-60.6046 128.017,-55.764 117.631,-53.671 118.593,-60.6046"/>
</g>
<!-- Node8 -->
<g id="node8" class="node"><title>Node8</title>
<g id="a_node8"><a xlink:href="element_8c.html#ad41119d6e3f2c2b16323533b941cabee" target="_top" xlink:title="initEdges">
<polygon fill="none" stroke="black" points="156.5,-76.5 156.5,-95.5 213.5,-95.5 213.5,-76.5 156.5,-76.5"/>
<text text-anchor="middle" x="185" y="-83.5" font-family="Helvetica,sans-Serif" font-size="10.00">initEdges</text>
</a>
</g>
</g>
<!-- Node1&#45;&gt;Node8 -->
<g id="edge8" class="edge"><title>Node1&#45;&gt;Node8</title>
<path fill="none" stroke="midnightblue" d="M91.8589,-73.2213C109.437,-75.6591 129.382,-78.4252 146.209,-80.759"/>
<polygon fill="midnightblue" stroke="midnightblue" points="145.849,-84.2424 156.235,-82.1493 146.81,-77.3087 145.849,-84.2424"/>
</g>
<!-- Node3 -->
<g id="node3" class="node"><title>Node3</title>
<g id="a_node3"><a xlink:href="yada_2coordinate_8c.html#a6ab38f14cde3ffe89a1496fbdf628549" target="_top" xlink:title="coordinate_compare">
<polygon fill="none" stroke="black" points="422,-95.5 422,-114.5 526,-114.5 526,-95.5 422,-95.5"/>
<text text-anchor="middle" x="474" y="-102.5" font-family="Helvetica,sans-Serif" font-size="10.00">coordinate_compare</text>
</a>
</g>
</g>
<!-- Node2&#45;&gt;Node3 -->
<g id="edge2" class="edge"><title>Node2&#45;&gt;Node3</title>
<path fill="none" stroke="midnightblue" d="M386.327,-116.763C394.568,-115.644 403.136,-114.482 411.537,-113.341"/>
<polygon fill="midnightblue" stroke="midnightblue" points="412.23,-116.779 421.669,-111.966 411.289,-109.843 412.23,-116.779"/>
</g>
<!-- Node5 -->
<g id="node5" class="node"><title>Node5</title>
<g id="a_node5"><a xlink:href="yada_2coordinate_8c.html#a23a6907e7021be62b89c588424af02d5" target="_top" xlink:title="coordinate_angle">
<polygon fill="none" stroke="black" points="287,-0.5 287,-19.5 377,-19.5 377,-0.5 287,-0.5"/>
<text text-anchor="middle" x="332" y="-7.5" font-family="Helvetica,sans-Serif" font-size="10.00">coordinate_angle</text>
</a>
</g>
</g>
<!-- Node4&#45;&gt;Node5 -->
<g id="edge4" class="edge"><title>Node4&#45;&gt;Node5</title>
<path fill="none" stroke="midnightblue" d="M221.843,-10C238.324,-10 258.235,-10 276.515,-10"/>
<polygon fill="midnightblue" stroke="midnightblue" points="276.76,-13.5001 286.76,-10 276.76,-6.5001 276.76,-13.5001"/>
</g>
<!-- Node6 -->
<g id="node6" class="node"><title>Node6</title>
<g id="a_node6"><a xlink:href="yada_2coordinate_8c.html#a4b619d07f8343b4990b31920c9307c44" target="_top" xlink:title="coordinate_distance">
<polygon fill="none" stroke="black" points="422,-38.5 422,-57.5 526,-57.5 526,-38.5 422,-38.5"/>
<text text-anchor="middle" x="474" y="-45.5" font-family="Helvetica,sans-Serif" font-size="10.00">coordinate_distance</text>
</a>
</g>
</g>
<!-- Node5&#45;&gt;Node6 -->
<g id="edge5" class="edge"><title>Node5&#45;&gt;Node6</title>
<path fill="none" stroke="midnightblue" d="M368.328,-19.589C386.401,-24.4944 408.598,-30.5196 427.895,-35.7571"/>
<polygon fill="midnightblue" stroke="midnightblue" points="427.116,-39.1723 437.683,-38.4141 428.949,-32.4167 427.116,-39.1723"/>
</g>
<!-- Node7&#45;&gt;Node6 -->
<g id="edge7" class="edge"><title>Node7&#45;&gt;Node6</title>
<path fill="none" stroke="midnightblue" d="M241.677,-48C290.478,-48 361.297,-48 411.701,-48"/>
<polygon fill="midnightblue" stroke="midnightblue" points="411.814,-51.5001 421.814,-48 411.814,-44.5001 411.814,-51.5001"/>
</g>
<!-- Node9 -->
<g id="node9" class="node"><title>Node9</title>
<g id="a_node9"><a xlink:href="element_8c.html#a32284f030a82851bfa5e95cb61901fea" target="_top" xlink:title="setEdge">
<polygon fill="none" stroke="black" points="305.5,-76.5 305.5,-95.5 358.5,-95.5 358.5,-76.5 305.5,-76.5"/>
<text text-anchor="middle" x="332" y="-83.5" font-family="Helvetica,sans-Serif" font-size="10.00">setEdge</text>
</a>
</g>
</g>
<!-- Node8&#45;&gt;Node9 -->
<g id="edge9" class="edge"><title>Node8&#45;&gt;Node9</title>
<path fill="none" stroke="midnightblue" d="M213.615,-86C236.766,-86 269.984,-86 295.179,-86"/>
<polygon fill="midnightblue" stroke="midnightblue" points="295.433,-89.5001 305.433,-86 295.433,-82.5001 295.433,-89.5001"/>
</g>
<!-- Node9&#45;&gt;Node3 -->
<g id="edge10" class="edge"><title>Node9&#45;&gt;Node3</title>
<path fill="none" stroke="midnightblue" d="M358.678,-89.4849C373.667,-91.5191 393.261,-94.1783 411.983,-96.7192"/>
<polygon fill="midnightblue" stroke="midnightblue" points="411.582,-100.197 421.962,-98.0734 412.523,-93.2603 411.582,-100.197"/>
</g>
<!-- Node9&#45;&gt;Node6 -->
<g id="edge11" class="edge"><title>Node9&#45;&gt;Node6</title>
<path fill="none" stroke="midnightblue" d="M358.678,-79.0302C378.069,-73.7669 405.169,-66.4112 428.117,-60.1824"/>
<polygon fill="midnightblue" stroke="midnightblue" points="429.26,-63.4991 437.994,-57.5017 427.426,-56.7435 429.26,-63.4991"/>
</g>
</g>
</svg>
