<?xml version="1.0" encoding="UTF-8" standalone="no"?>
<!DOCTYPE svg PUBLIC "-//W3C//DTD SVG 1.1//EN"
 "http://www.w3.org/Graphics/SVG/1.1/DTD/svg11.dtd">
<!-- Generated by graphviz version 2.36.0 (20140111.2315)
 -->
<!-- Title: rstm/rstm&#45;dev/stamp&#45;0.9.10/yada/element.h Pages: 1 -->
<svg width="305pt" height="376pt"
 viewBox="0.00 0.00 305.33 376.00" xmlns="http://www.w3.org/2000/svg" xmlns:xlink="http://www.w3.org/1999/xlink">
<g id="graph0" class="graph" transform="scale(1 1) rotate(0) translate(4 372)">
<title>rstm/rstm&#45;dev/stamp&#45;0.9.10/yada/element.h</title>
<!-- Node1 -->
<g id="node1" class="node"><title>Node1</title>
<polygon fill="#bfbfbf" stroke="black" points="131,-337 131,-367 247,-367 247,-337 131,-337"/>
<text text-anchor="start" x="139" y="-355" font-family="Helvetica,sans-Serif" font-size="10.00">rstm/rstm&#45;dev/stamp</text>
<text text-anchor="middle" x="189" y="-344" font-family="Helvetica,sans-Serif" font-size="10.00">&#45;0.9.10/yada/element.h</text>
</g>
<!-- Node2 -->
<g id="node2" class="node"><title>Node2</title>
<g id="a_node2"><a xlink:href="yada_2coordinate_8h.html" target="_top" xlink:title="coordinate.h">
<polygon fill="none" stroke="black" points="0,-168.5 0,-187.5 70,-187.5 70,-168.5 0,-168.5"/>
<text text-anchor="middle" x="35" y="-175.5" font-family="Helvetica,sans-Serif" font-size="10.00">coordinate.h</text>
</a>
</g>
</g>
<!-- Node1&#45;&gt;Node2 -->
<g id="edge1" class="edge"><title>Node1&#45;&gt;Node2</title>
<path fill="none" stroke="midnightblue" d="M142.483,-336.911C122.324,-328.837 99.7767,-316.877 84,-300 56.4969,-270.578 43.5659,-223.699 38.2289,-197.776"/>
<polygon fill="midnightblue" stroke="midnightblue" points="41.6336,-196.944 36.3358,-187.768 34.7556,-198.245 41.6336,-196.944"/>
</g>
<!-- Node3 -->
<g id="node3" class="node"><title>Node3</title>
<g id="a_node3"><a xlink:href="tm_8h.html" target="_top" xlink:title="tm.h">
<polygon fill="none" stroke="black" points="99,-112.5 99,-131.5 135,-131.5 135,-112.5 99,-112.5"/>
<text text-anchor="middle" x="117" y="-119.5" font-family="Helvetica,sans-Serif" font-size="10.00">tm.h</text>
</a>
</g>
</g>
<!-- Node1&#45;&gt;Node3 -->
<g id="edge13" class="edge"><title>Node1&#45;&gt;Node3</title>
<path fill="none" stroke="midnightblue" d="M180.184,-336.628C174.265,-326.602 166.564,-312.781 161,-300 140.076,-251.933 135.091,-239.237 124,-188 120.657,-172.556 118.88,-154.687 117.954,-141.597"/>
<polygon fill="midnightblue" stroke="midnightblue" points="121.441,-141.275 117.342,-131.505 114.454,-141.699 121.441,-141.275"/>
</g>
<!-- Node7 -->
<g id="node7" class="node"><title>Node7</title>
<g id="a_node7"><a xlink:href="list_8h.html" target="_top" xlink:title="list.h">
<polygon fill="none" stroke="black" points="170,-280.5 170,-299.5 208,-299.5 208,-280.5 170,-280.5"/>
<text text-anchor="middle" x="189" y="-287.5" font-family="Helvetica,sans-Serif" font-size="10.00">list.h</text>
</a>
</g>
</g>
<!-- Node1&#45;&gt;Node7 -->
<g id="edge6" class="edge"><title>Node1&#45;&gt;Node7</title>
<path fill="none" stroke="midnightblue" d="M189,-336.781C189,-328.781 189,-318.689 189,-310.017"/>
<polygon fill="midnightblue" stroke="midnightblue" points="192.5,-309.73 189,-299.731 185.5,-309.731 192.5,-309.73"/>
</g>
<!-- Node8 -->
<g id="node8" class="node"><title>Node8</title>
<g id="a_node8"><a xlink:href="types_8h.html" target="_top" xlink:title="types.h">
<polygon fill="none" stroke="black" points="232.5,-224.5 232.5,-243.5 281.5,-243.5 281.5,-224.5 232.5,-224.5"/>
<text text-anchor="middle" x="257" y="-231.5" font-family="Helvetica,sans-Serif" font-size="10.00">types.h</text>
</a>
</g>
</g>
<!-- Node1&#45;&gt;Node8 -->
<g id="edge14" class="edge"><title>Node1&#45;&gt;Node8</title>
<path fill="none" stroke="midnightblue" d="M197.338,-336.776C209.813,-315.496 233.307,-275.418 246.791,-252.415"/>
<polygon fill="midnightblue" stroke="midnightblue" points="249.858,-254.104 251.896,-243.707 243.819,-250.564 249.858,-254.104"/>
</g>
<!-- Node10 -->
<g id="node10" class="node"><title>Node10</title>
<g id="a_node10"><a xlink:href="pair_8h.html" target="_top" xlink:title="pair.h">
<polygon fill="none" stroke="black" points="168.5,-168.5 168.5,-187.5 209.5,-187.5 209.5,-168.5 168.5,-168.5"/>
<text text-anchor="middle" x="189" y="-175.5" font-family="Helvetica,sans-Serif" font-size="10.00">pair.h</text>
</a>
</g>
</g>
<!-- Node1&#45;&gt;Node10 -->
<g id="edge12" class="edge"><title>Node1&#45;&gt;Node10</title>
<path fill="none" stroke="midnightblue" d="M215.172,-336.83C253.7,-314.064 318.225,-267.476 290,-224 274.521,-200.157 243.153,-188.841 219.459,-183.537"/>
<polygon fill="midnightblue" stroke="midnightblue" points="220.012,-180.078 209.52,-181.556 218.643,-186.943 220.012,-180.078"/>
</g>
<!-- Node2&#45;&gt;Node3 -->
<g id="edge2" class="edge"><title>Node2&#45;&gt;Node3</title>
<path fill="none" stroke="midnightblue" d="M48.1747,-168.324C60.8468,-159.979 80.2334,-147.212 95.2056,-137.352"/>
<polygon fill="midnightblue" stroke="midnightblue" points="97.4312,-140.078 103.858,-131.655 93.5813,-134.231 97.4312,-140.078"/>
</g>
<!-- Node4 -->
<g id="node4" class="node"><title>Node4</title>
<polygon fill="none" stroke="#bfbfbf" points="61,-56.5 61,-75.5 107,-75.5 107,-56.5 61,-56.5"/>
<text text-anchor="middle" x="84" y="-63.5" font-family="Helvetica,sans-Serif" font-size="10.00">stdio.h</text>
</g>
<!-- Node3&#45;&gt;Node4 -->
<g id="edge3" class="edge"><title>Node3&#45;&gt;Node4</title>
<path fill="none" stroke="midnightblue" d="M111.551,-112.083C106.986,-104.613 100.332,-93.7244 94.7066,-84.5199"/>
<polygon fill="midnightblue" stroke="midnightblue" points="97.5489,-82.4588 89.3479,-75.7511 91.5759,-86.109 97.5489,-82.4588"/>
</g>
<!-- Node5 -->
<g id="node5" class="node"><title>Node5</title>
<g id="a_node5"><a xlink:href="assert_8h.html" target="_top" xlink:title="assert.h">
<polygon fill="none" stroke="black" points="125,-56.5 125,-75.5 177,-75.5 177,-56.5 125,-56.5"/>
<text text-anchor="middle" x="151" y="-63.5" font-family="Helvetica,sans-Serif" font-size="10.00">assert.h</text>
</a>
</g>
</g>
<!-- Node3&#45;&gt;Node5 -->
<g id="edge4" class="edge"><title>Node3&#45;&gt;Node5</title>
<path fill="none" stroke="midnightblue" d="M122.614,-112.083C127.367,-104.534 134.318,-93.4948 140.152,-84.2298"/>
<polygon fill="midnightblue" stroke="midnightblue" points="143.124,-86.0783 145.49,-75.7511 137.2,-82.3486 143.124,-86.0783"/>
</g>
<!-- Node6 -->
<g id="node6" class="node"><title>Node6</title>
<polygon fill="none" stroke="#bfbfbf" points="125.5,-0.5 125.5,-19.5 176.5,-19.5 176.5,-0.5 125.5,-0.5"/>
<text text-anchor="middle" x="151" y="-7.5" font-family="Helvetica,sans-Serif" font-size="10.00">config.h</text>
</g>
<!-- Node5&#45;&gt;Node6 -->
<g id="edge5" class="edge"><title>Node5&#45;&gt;Node6</title>
<path fill="none" stroke="midnightblue" d="M151,-56.083C151,-49.0059 151,-38.8611 151,-29.9865"/>
<polygon fill="midnightblue" stroke="midnightblue" points="154.5,-29.751 151,-19.7511 147.5,-29.7511 154.5,-29.751"/>
</g>
<!-- Node7&#45;&gt;Node3 -->
<g id="edge7" class="edge"><title>Node7&#45;&gt;Node3</title>
<path fill="none" stroke="midnightblue" d="M180.982,-280.312C173.376,-271.671 162.085,-257.753 155,-244 137.417,-209.866 126.156,-166.09 120.763,-141.646"/>
<polygon fill="midnightblue" stroke="midnightblue" points="124.132,-140.662 118.64,-131.602 117.284,-142.11 124.132,-140.662"/>
</g>
<!-- Node7&#45;&gt;Node8 -->
<g id="edge8" class="edge"><title>Node7&#45;&gt;Node8</title>
<path fill="none" stroke="midnightblue" d="M199.925,-280.324C210.175,-272.185 225.721,-259.839 238.001,-250.087"/>
<polygon fill="midnightblue" stroke="midnightblue" points="240.221,-252.794 245.876,-243.834 235.868,-247.312 240.221,-252.794"/>
</g>
<!-- Node9 -->
<g id="node9" class="node"><title>Node9</title>
<g id="a_node9"><a xlink:href="lehigh_8h.html" target="_top" xlink:title="lehigh.h">
<polygon fill="none" stroke="black" points="164,-224.5 164,-243.5 214,-243.5 214,-224.5 164,-224.5"/>
<text text-anchor="middle" x="189" y="-231.5" font-family="Helvetica,sans-Serif" font-size="10.00">lehigh.h</text>
</a>
</g>
</g>
<!-- Node7&#45;&gt;Node9 -->
<g id="edge9" class="edge"><title>Node7&#45;&gt;Node9</title>
<path fill="none" stroke="midnightblue" d="M189,-280.083C189,-273.006 189,-262.861 189,-253.986"/>
<polygon fill="midnightblue" stroke="midnightblue" points="192.5,-253.751 189,-243.751 185.5,-253.751 192.5,-253.751"/>
</g>
<!-- Node9&#45;&gt;Node10 -->
<g id="edge10" class="edge"><title>Node9&#45;&gt;Node10</title>
<path fill="none" stroke="midnightblue" d="M189,-224.083C189,-217.006 189,-206.861 189,-197.986"/>
<polygon fill="midnightblue" stroke="midnightblue" points="192.5,-197.751 189,-187.751 185.5,-197.751 192.5,-197.751"/>
</g>
<!-- Node10&#45;&gt;Node3 -->
<g id="edge11" class="edge"><title>Node10&#45;&gt;Node3</title>
<path fill="none" stroke="midnightblue" d="M177.432,-168.324C166.58,-160.185 150.119,-147.839 137.117,-138.087"/>
<polygon fill="midnightblue" stroke="midnightblue" points="138.879,-135.034 128.779,-131.834 134.679,-140.634 138.879,-135.034"/>
</g>
</g>
</svg>
