<?xml version="1.0" encoding="UTF-8" standalone="no"?>
<!DOCTYPE svg PUBLIC "-//W3C//DTD SVG 1.1//EN"
 "http://www.w3.org/Graphics/SVG/1.1/DTD/svg11.dtd">
<!-- Generated by graphviz version 2.36.0 (20140111.2315)
 -->
<!-- Title: TMelement_getNeighborListPtr Pages: 1 -->
<svg width="410pt" height="66pt"
 viewBox="0.00 0.00 410.00 66.00" xmlns="http://www.w3.org/2000/svg" xmlns:xlink="http://www.w3.org/1999/xlink">
<g id="graph0" class="graph" transform="scale(1 1) rotate(0) translate(4 62)">
<title>TMelement_getNeighborListPtr</title>
<!-- Node1 -->
<g id="node1" class="node"><title>Node1</title>
<polygon fill="#bfbfbf" stroke="black" points="0,-19.5 0,-38.5 152,-38.5 152,-19.5 0,-19.5"/>
<text text-anchor="middle" x="76" y="-26.5" font-family="Helvetica,sans-Serif" font-size="10.00">TMelement_getNeighborListPtr</text>
</g>
<!-- Node2 -->
<g id="node2" class="node"><title>Node2</title>
<g id="a_node2"><a xlink:href="mesh_8h.html#aaf836528fdfb409e139e560e4ee014bd" target="_top" xlink:title="TMmesh_remove">
<polygon fill="none" stroke="black" points="188,-38.5 188,-57.5 280,-57.5 280,-38.5 188,-38.5"/>
<text text-anchor="middle" x="234" y="-45.5" font-family="Helvetica,sans-Serif" font-size="10.00">TMmesh_remove</text>
</a>
</g>
</g>
<!-- Node1&#45;&gt;Node2 -->
<g id="edge1" class="edge"><title>Node1&#45;&gt;Node2</title>
<path fill="none" stroke="midnightblue" d="M162.225,-39.3799C171.027,-40.452 179.705,-41.509 187.806,-42.4956"/>
<polygon fill="midnightblue" stroke="midnightblue" points="162.608,-35.9009 152.258,-38.1661 161.762,-42.8495 162.608,-35.9009"/>
</g>
<!-- Node3 -->
<g id="node3" class="node"><title>Node3</title>
<g id="a_node3"><a xlink:href="region_8c.html#afd9637f04d120aec5464b6304cfa0c99" target="_top" xlink:title="TMgrowRegion">
<polygon fill="none" stroke="black" points="192.5,-0.5 192.5,-19.5 275.5,-19.5 275.5,-0.5 192.5,-0.5"/>
<text text-anchor="middle" x="234" y="-7.5" font-family="Helvetica,sans-Serif" font-size="10.00">TMgrowRegion</text>
</a>
</g>
</g>
<!-- Node1&#45;&gt;Node3 -->
<g id="edge2" class="edge"><title>Node1&#45;&gt;Node3</title>
<path fill="none" stroke="midnightblue" d="M162.33,-18.6072C172.805,-17.3315 183.101,-16.0774 192.455,-14.9382"/>
<polygon fill="midnightblue" stroke="midnightblue" points="161.762,-15.1505 152.258,-19.8339 162.608,-22.0991 161.762,-15.1505"/>
</g>
<!-- Node4 -->
<g id="node4" class="node"><title>Node4</title>
<g id="a_node4"><a xlink:href="region_8h.html#a74d9ac41436518894e8e1bd6564ebf42" target="_top" xlink:title="TMregion_refine">
<polygon fill="none" stroke="black" points="316,-0.5 316,-19.5 402,-19.5 402,-0.5 316,-0.5"/>
<text text-anchor="middle" x="359" y="-7.5" font-family="Helvetica,sans-Serif" font-size="10.00">TMregion_refine</text>
</a>
</g>
</g>
<!-- Node3&#45;&gt;Node4 -->
<g id="edge3" class="edge"><title>Node3&#45;&gt;Node4</title>
<path fill="none" stroke="midnightblue" d="M285.805,-10C295.76,-10 306.101,-10 315.74,-10"/>
<polygon fill="midnightblue" stroke="midnightblue" points="285.616,-6.5001 275.616,-10 285.616,-13.5001 285.616,-6.5001"/>
</g>
<!-- Node4&#45;&gt;Node4 -->
<g id="edge4" class="edge"><title>Node4&#45;&gt;Node4</title>
<path fill="none" stroke="midnightblue" d="M335.935,-29.0292C337.193,-34.128 344.881,-38 359,-38 381.039,-38 387.41,-28.5653 378.112,-19.7571"/>
<polygon fill="midnightblue" stroke="midnightblue" points="339.185,-30.3286 339.888,-19.7571 332.746,-27.5831 339.185,-30.3286"/>
</g>
</g>
</svg>
