<?xml version="1.0" encoding="UTF-8" standalone="no"?>
<!DOCTYPE svg PUBLIC "-//W3C//DTD SVG 1.1//EN"
 "http://www.w3.org/Graphics/SVG/1.1/DTD/svg11.dtd">
<!-- Generated by graphviz version 2.36.0 (20140111.2315)
 -->
<!-- Title: minimizeCoordinates Pages: 1 -->
<svg width="540pt" height="104pt"
 viewBox="0.00 0.00 540.00 104.00" xmlns="http://www.w3.org/2000/svg" xmlns:xlink="http://www.w3.org/1999/xlink">
<g id="graph0" class="graph" transform="scale(1 1) rotate(0) translate(4 100)">
<title>minimizeCoordinates</title>
<!-- Node1 -->
<g id="node1" class="node"><title>Node1</title>
<polygon fill="#bfbfbf" stroke="black" points="0,-38.5 0,-57.5 108,-57.5 108,-38.5 0,-38.5"/>
<text text-anchor="middle" x="54" y="-45.5" font-family="Helvetica,sans-Serif" font-size="10.00">minimizeCoordinates</text>
</g>
<!-- Node2 -->
<g id="node2" class="node"><title>Node2</title>
<g id="a_node2"><a xlink:href="element_8h.html#a1a00d843176baba36fcdf77c6c37d6f8" target="_top" xlink:title="element_alloc">
<polygon fill="none" stroke="black" points="151.5,-76.5 151.5,-95.5 228.5,-95.5 228.5,-76.5 151.5,-76.5"/>
<text text-anchor="middle" x="190" y="-83.5" font-family="Helvetica,sans-Serif" font-size="10.00">element_alloc</text>
</a>
</g>
</g>
<!-- Node1&#45;&gt;Node2 -->
<g id="edge1" class="edge"><title>Node1&#45;&gt;Node2</title>
<path fill="none" stroke="midnightblue" d="M98.4383,-60.3183C116.849,-65.5393 137.98,-71.5316 155.197,-76.4141"/>
<polygon fill="midnightblue" stroke="midnightblue" points="99.3894,-56.9501 88.8139,-57.589 97.4796,-63.6845 99.3894,-56.9501"/>
</g>
<!-- Node6 -->
<g id="node6" class="node"><title>Node6</title>
<g id="a_node6"><a xlink:href="element_8h.html#a99bb9348e9a8bb0c04c3bd29fc21e177" target="_top" xlink:title="Pelement_alloc">
<polygon fill="none" stroke="black" points="148.5,-38.5 148.5,-57.5 231.5,-57.5 231.5,-38.5 148.5,-38.5"/>
<text text-anchor="middle" x="190" y="-45.5" font-family="Helvetica,sans-Serif" font-size="10.00">Pelement_alloc</text>
</a>
</g>
</g>
<!-- Node1&#45;&gt;Node6 -->
<g id="edge5" class="edge"><title>Node1&#45;&gt;Node6</title>
<path fill="none" stroke="midnightblue" d="M118.413,-48C128.553,-48 138.802,-48 148.228,-48"/>
<polygon fill="midnightblue" stroke="midnightblue" points="118.345,-44.5001 108.345,-48 118.345,-51.5001 118.345,-44.5001"/>
</g>
<!-- Node7 -->
<g id="node7" class="node"><title>Node7</title>
<g id="a_node7"><a xlink:href="element_8h.html#adc5c9c33f02a9b69f04dc85448a8140b" target="_top" xlink:title="TMelement_alloc">
<polygon fill="none" stroke="black" points="144.5,-0.5 144.5,-19.5 235.5,-19.5 235.5,-0.5 144.5,-0.5"/>
<text text-anchor="middle" x="190" y="-7.5" font-family="Helvetica,sans-Serif" font-size="10.00">TMelement_alloc</text>
</a>
</g>
</g>
<!-- Node1&#45;&gt;Node7 -->
<g id="edge6" class="edge"><title>Node1&#45;&gt;Node7</title>
<path fill="none" stroke="midnightblue" d="M98.4383,-35.6817C116.849,-30.4607 137.98,-24.4684 155.197,-19.5859"/>
<polygon fill="midnightblue" stroke="midnightblue" points="97.4796,-32.3155 88.8139,-38.411 99.3894,-39.0499 97.4796,-32.3155"/>
</g>
<!-- Node3 -->
<g id="node3" class="node"><title>Node3</title>
<g id="a_node3"><a xlink:href="mesh_8c.html#a0351e3ec738e05a319ead0e2e44353d0" target="_top" xlink:title="createElement">
<polygon fill="none" stroke="black" points="272,-76.5 272,-95.5 352,-95.5 352,-76.5 272,-76.5"/>
<text text-anchor="middle" x="312" y="-83.5" font-family="Helvetica,sans-Serif" font-size="10.00">createElement</text>
</a>
</g>
</g>
<!-- Node2&#45;&gt;Node3 -->
<g id="edge2" class="edge"><title>Node2&#45;&gt;Node3</title>
<path fill="none" stroke="midnightblue" d="M238.899,-86C249.831,-86 261.321,-86 271.837,-86"/>
<polygon fill="midnightblue" stroke="midnightblue" points="238.64,-82.5001 228.64,-86 238.639,-89.5001 238.64,-82.5001"/>
</g>
<!-- Node4 -->
<g id="node4" class="node"><title>Node4</title>
<g id="a_node4"><a xlink:href="mesh_8h.html#a0ee17a9bc1b62a498c98f8e0dc41d902" target="_top" xlink:title="mesh_read">
<polygon fill="none" stroke="black" points="388.5,-76.5 388.5,-95.5 453.5,-95.5 453.5,-76.5 388.5,-76.5"/>
<text text-anchor="middle" x="421" y="-83.5" font-family="Helvetica,sans-Serif" font-size="10.00">mesh_read</text>
</a>
</g>
</g>
<!-- Node3&#45;&gt;Node4 -->
<g id="edge3" class="edge"><title>Node3&#45;&gt;Node4</title>
<path fill="none" stroke="midnightblue" d="M362.484,-86C371.322,-86 380.307,-86 388.466,-86"/>
<polygon fill="midnightblue" stroke="midnightblue" points="362.235,-82.5001 352.235,-86 362.235,-89.5001 362.235,-82.5001"/>
</g>
<!-- Node5 -->
<g id="node5" class="node"><title>Node5</title>
<g id="a_node5"><a xlink:href="yada_8c.html#a40c5c0b0d4eb7b59a91108269f69dc89" target="_top" xlink:title="MAIN">
<polygon fill="none" stroke="black" points="490,-76.5 490,-95.5 532,-95.5 532,-76.5 490,-76.5"/>
<text text-anchor="middle" x="511" y="-83.5" font-family="Helvetica,sans-Serif" font-size="10.00">MAIN</text>
</a>
</g>
</g>
<!-- Node4&#45;&gt;Node5 -->
<g id="edge4" class="edge"><title>Node4&#45;&gt;Node5</title>
<path fill="none" stroke="midnightblue" d="M463.839,-86C472.875,-86 482.033,-86 489.783,-86"/>
<polygon fill="midnightblue" stroke="midnightblue" points="463.77,-82.5001 453.77,-86 463.77,-89.5001 463.77,-82.5001"/>
</g>
</g>
</svg>
