<?xml version="1.0" encoding="UTF-8" standalone="no"?>
<!DOCTYPE svg PUBLIC "-//W3C//DTD SVG 1.1//EN"
 "http://www.w3.org/Graphics/SVG/1.1/DTD/svg11.dtd">
<!-- Generated by graphviz version 2.36.0 (20140111.2315)
 -->
<!-- Title: element_compare Pages: 1 -->
<svg width="440pt" height="66pt"
 viewBox="0.00 0.00 440.00 66.00" xmlns="http://www.w3.org/2000/svg" xmlns:xlink="http://www.w3.org/1999/xlink">
<g id="graph0" class="graph" transform="scale(1 1) rotate(0) translate(4 62)">
<title>element_compare</title>
<!-- Node1 -->
<g id="node1" class="node"><title>Node1</title>
<polygon fill="#bfbfbf" stroke="black" points="0,-19.5 0,-38.5 94,-38.5 94,-19.5 0,-19.5"/>
<text text-anchor="middle" x="47" y="-26.5" font-family="Helvetica,sans-Serif" font-size="10.00">element_compare</text>
</g>
<!-- Node2 -->
<g id="node2" class="node"><title>Node2</title>
<g id="a_node2"><a xlink:href="element_8h.html#aa6688e0935ddeadcc33e9cf640849331" target="_top" xlink:title="element_listCompare">
<polygon fill="none" stroke="black" points="133.5,-38.5 133.5,-57.5 242.5,-57.5 242.5,-38.5 133.5,-38.5"/>
<text text-anchor="middle" x="188" y="-45.5" font-family="Helvetica,sans-Serif" font-size="10.00">element_listCompare</text>
</a>
</g>
</g>
<!-- Node1&#45;&gt;Node2 -->
<g id="edge1" class="edge"><title>Node1&#45;&gt;Node2</title>
<path fill="none" stroke="midnightblue" d="M104.432,-36.7137C113.938,-38.0131 123.782,-39.3587 133.219,-40.6486"/>
<polygon fill="midnightblue" stroke="midnightblue" points="104.667,-33.2134 94.285,-35.3267 103.719,-40.1489 104.667,-33.2134"/>
</g>
<!-- Node3 -->
<g id="node3" class="node"><title>Node3</title>
<g id="a_node3"><a xlink:href="element_8h.html#a1eab731611c38d22d97a2cfd07d67943" target="_top" xlink:title="element_mapCompare">
<polygon fill="none" stroke="black" points="130.5,-0.5 130.5,-19.5 245.5,-19.5 245.5,-0.5 130.5,-0.5"/>
<text text-anchor="middle" x="188" y="-7.5" font-family="Helvetica,sans-Serif" font-size="10.00">element_mapCompare</text>
</a>
</g>
</g>
<!-- Node1&#45;&gt;Node3 -->
<g id="edge2" class="edge"><title>Node1&#45;&gt;Node3</title>
<path fill="none" stroke="midnightblue" d="M104.209,-21.3167C112.801,-20.1422 121.675,-18.9293 130.279,-17.7533"/>
<polygon fill="midnightblue" stroke="midnightblue" points="103.719,-17.8511 94.285,-22.6733 104.667,-24.7866 103.719,-17.8511"/>
</g>
<!-- Node4 -->
<g id="node4" class="node"><title>Node4</title>
<g id="a_node4"><a xlink:href="mesh_8h.html#afb91c14cea2629ce82a85ab0f37da14b" target="_top" xlink:title="mesh_check">
<polygon fill="none" stroke="black" points="282,-0.5 282,-19.5 354,-19.5 354,-0.5 282,-0.5"/>
<text text-anchor="middle" x="318" y="-7.5" font-family="Helvetica,sans-Serif" font-size="10.00">mesh_check</text>
</a>
</g>
</g>
<!-- Node3&#45;&gt;Node4 -->
<g id="edge3" class="edge"><title>Node3&#45;&gt;Node4</title>
<path fill="none" stroke="midnightblue" d="M255.67,-10C264.671,-10 273.602,-10 281.748,-10"/>
<polygon fill="midnightblue" stroke="midnightblue" points="255.515,-6.5001 245.515,-10 255.515,-13.5001 255.515,-6.5001"/>
</g>
<!-- Node5 -->
<g id="node5" class="node"><title>Node5</title>
<g id="a_node5"><a xlink:href="yada_8c.html#a40c5c0b0d4eb7b59a91108269f69dc89" target="_top" xlink:title="MAIN">
<polygon fill="none" stroke="black" points="390,-0.5 390,-19.5 432,-19.5 432,-0.5 390,-0.5"/>
<text text-anchor="middle" x="411" y="-7.5" font-family="Helvetica,sans-Serif" font-size="10.00">MAIN</text>
</a>
</g>
</g>
<!-- Node4&#45;&gt;Node5 -->
<g id="edge4" class="edge"><title>Node4&#45;&gt;Node5</title>
<path fill="none" stroke="midnightblue" d="M364.267,-10C373.27,-10 382.285,-10 389.902,-10"/>
<polygon fill="midnightblue" stroke="midnightblue" points="364.183,-6.5001 354.183,-10 364.183,-13.5001 364.183,-6.5001"/>
</g>
</g>
</svg>
