<?xml version="1.0" encoding="UTF-8" standalone="no"?>
<!DOCTYPE svg PUBLIC "-//W3C//DTD SVG 1.1//EN"
 "http://www.w3.org/Graphics/SVG/1.1/DTD/svg11.dtd">
<!-- Generated by graphviz version 2.36.0 (20140111.2315)
 -->
<!-- Title: rstm/rstm&#45;dev/stamp&#45;0.9.10/intruder/error.h Pages: 1 -->
<svg width="567pt" height="176pt"
 viewBox="0.00 0.00 567.00 176.00" xmlns="http://www.w3.org/2000/svg" xmlns:xlink="http://www.w3.org/1999/xlink">
<g id="graph0" class="graph" transform="scale(1 1) rotate(0) translate(4 172)">
<title>rstm/rstm&#45;dev/stamp&#45;0.9.10/intruder/error.h</title>
<!-- Node1 -->
<g id="node1" class="node"><title>Node1</title>
<polygon fill="#bfbfbf" stroke="black" points="221.5,-137 221.5,-167 334.5,-167 334.5,-137 221.5,-137"/>
<text text-anchor="start" x="229.5" y="-155" font-family="Helvetica,sans-Serif" font-size="10.00">rstm/rstm&#45;dev/stamp</text>
<text text-anchor="middle" x="278" y="-144" font-family="Helvetica,sans-Serif" font-size="10.00">&#45;0.9.10/intruder/error.h</text>
</g>
<!-- Node2 -->
<g id="node2" class="node"><title>Node2</title>
<g id="a_node2"><a xlink:href="decoder_8h.html" target="_top" xlink:title="rstm/rstm&#45;dev/stamp\l&#45;0.9.10/intruder/decoder.h">
<polygon fill="none" stroke="black" points="141,-69 141,-99 269,-99 269,-69 141,-69"/>
<text text-anchor="start" x="149" y="-87" font-family="Helvetica,sans-Serif" font-size="10.00">rstm/rstm&#45;dev/stamp</text>
<text text-anchor="middle" x="205" y="-76" font-family="Helvetica,sans-Serif" font-size="10.00">&#45;0.9.10/intruder/decoder.h</text>
</a>
</g>
</g>
<!-- Node1&#45;&gt;Node2 -->
<g id="edge1" class="edge"><title>Node1&#45;&gt;Node2</title>
<path fill="none" stroke="midnightblue" d="M254.47,-129.727C243.366,-119.687 230.421,-107.983 220.558,-99.0663"/>
<polygon fill="midnightblue" stroke="midnightblue" points="252.395,-132.569 262.16,-136.679 257.09,-127.376 252.395,-132.569"/>
</g>
<!-- Node3 -->
<g id="node3" class="node"><title>Node3</title>
<g id="a_node3"><a xlink:href="decoder_8c.html" target="_top" xlink:title="rstm/rstm&#45;dev/stamp\l&#45;0.9.10/intruder/decoder.c">
<polygon fill="none" stroke="black" points="0,-1 0,-31 128,-31 128,-1 0,-1"/>
<text text-anchor="start" x="8" y="-19" font-family="Helvetica,sans-Serif" font-size="10.00">rstm/rstm&#45;dev/stamp</text>
<text text-anchor="middle" x="64" y="-8" font-family="Helvetica,sans-Serif" font-size="10.00">&#45;0.9.10/intruder/decoder.c</text>
</a>
</g>
</g>
<!-- Node1&#45;&gt;Node3 -->
<g id="edge4" class="edge"><title>Node1&#45;&gt;Node3</title>
<path fill="none" stroke="midnightblue" d="M211.338,-136.077C185.073,-128.137 155.608,-116.508 132,-100 105.284,-81.3185 83.3176,-49.3922 72.0913,-31.0591"/>
<polygon fill="midnightblue" stroke="midnightblue" points="210.65,-139.522 221.229,-138.942 212.598,-132.798 210.65,-139.522"/>
</g>
<!-- Node5 -->
<g id="node5" class="node"><title>Node5</title>
<g id="a_node5"><a xlink:href="detector_8h.html" target="_top" xlink:title="rstm/rstm&#45;dev/stamp\l&#45;0.9.10/intruder/detector.h">
<polygon fill="none" stroke="black" points="287,-69 287,-99 415,-99 415,-69 287,-69"/>
<text text-anchor="start" x="295" y="-87" font-family="Helvetica,sans-Serif" font-size="10.00">rstm/rstm&#45;dev/stamp</text>
<text text-anchor="middle" x="351" y="-76" font-family="Helvetica,sans-Serif" font-size="10.00">&#45;0.9.10/intruder/detector.h</text>
</a>
</g>
</g>
<!-- Node1&#45;&gt;Node5 -->
<g id="edge5" class="edge"><title>Node1&#45;&gt;Node5</title>
<path fill="none" stroke="midnightblue" d="M301.53,-129.727C312.634,-119.687 325.579,-107.983 335.442,-99.0663"/>
<polygon fill="midnightblue" stroke="midnightblue" points="298.91,-127.376 293.84,-136.679 303.605,-132.569 298.91,-127.376"/>
</g>
<!-- Node6 -->
<g id="node6" class="node"><title>Node6</title>
<g id="a_node6"><a xlink:href="detector_8c.html" target="_top" xlink:title="rstm/rstm&#45;dev/stamp\l&#45;0.9.10/intruder/detector.c">
<polygon fill="none" stroke="black" points="431,-1 431,-31 559,-31 559,-1 431,-1"/>
<text text-anchor="start" x="439" y="-19" font-family="Helvetica,sans-Serif" font-size="10.00">rstm/rstm&#45;dev/stamp</text>
<text text-anchor="middle" x="495" y="-8" font-family="Helvetica,sans-Serif" font-size="10.00">&#45;0.9.10/intruder/detector.c</text>
</a>
</g>
</g>
<!-- Node1&#45;&gt;Node6 -->
<g id="edge9" class="edge"><title>Node1&#45;&gt;Node6</title>
<path fill="none" stroke="midnightblue" d="M344.485,-135.823C370.725,-127.845 400.218,-116.257 424,-100 451.396,-81.2732 474.515,-49.3635 486.402,-31.0455"/>
<polygon fill="midnightblue" stroke="midnightblue" points="343.226,-132.544 334.607,-138.705 345.187,-139.264 343.226,-132.544"/>
</g>
<!-- Node2&#45;&gt;Node3 -->
<g id="edge2" class="edge"><title>Node2&#45;&gt;Node3</title>
<path fill="none" stroke="midnightblue" d="M165.436,-64.4805C142.859,-53.9128 115.003,-40.8738 94.198,-31.1352"/>
<polygon fill="midnightblue" stroke="midnightblue" points="164.211,-67.7718 174.752,-68.8413 167.179,-61.432 164.211,-67.7718"/>
</g>
<!-- Node4 -->
<g id="node4" class="node"><title>Node4</title>
<g id="a_node4"><a xlink:href="intruder_8c.html" target="_top" xlink:title="rstm/rstm&#45;dev/stamp\l&#45;0.9.10/intruder/intruder.c">
<polygon fill="none" stroke="black" points="146.5,-1 146.5,-31 271.5,-31 271.5,-1 146.5,-1"/>
<text text-anchor="start" x="154.5" y="-19" font-family="Helvetica,sans-Serif" font-size="10.00">rstm/rstm&#45;dev/stamp</text>
<text text-anchor="middle" x="209" y="-8" font-family="Helvetica,sans-Serif" font-size="10.00">&#45;0.9.10/intruder/intruder.c</text>
</a>
</g>
</g>
<!-- Node2&#45;&gt;Node4 -->
<g id="edge3" class="edge"><title>Node2&#45;&gt;Node4</title>
<path fill="none" stroke="midnightblue" d="M206.483,-58.5322C207.039,-49.3606 207.652,-39.2449 208.134,-31.2931"/>
<polygon fill="midnightblue" stroke="midnightblue" points="202.979,-58.4855 205.868,-68.679 209.967,-58.9091 202.979,-58.4855"/>
</g>
<!-- Node5&#45;&gt;Node4 -->
<g id="edge7" class="edge"><title>Node5&#45;&gt;Node4</title>
<path fill="none" stroke="midnightblue" d="M311.459,-64.6218C288.669,-54.0292 260.458,-40.9173 239.412,-31.1352"/>
<polygon fill="midnightblue" stroke="midnightblue" points="309.994,-67.8003 320.537,-68.8413 312.944,-61.4525 309.994,-67.8003"/>
</g>
<!-- Node5&#45;&gt;Node6 -->
<g id="edge6" class="edge"><title>Node5&#45;&gt;Node6</title>
<path fill="none" stroke="midnightblue" d="M391.098,-64.6218C414.209,-54.0292 442.817,-40.9173 464.159,-31.1352"/>
<polygon fill="midnightblue" stroke="midnightblue" points="389.524,-61.493 381.892,-68.8413 392.441,-67.8565 389.524,-61.493"/>
</g>
<!-- Node7 -->
<g id="node7" class="node"><title>Node7</title>
<g id="a_node7"><a xlink:href="stream_8c.html" target="_top" xlink:title="rstm/rstm&#45;dev/stamp\l&#45;0.9.10/intruder/stream.c">
<polygon fill="none" stroke="black" points="289.5,-1 289.5,-31 412.5,-31 412.5,-1 289.5,-1"/>
<text text-anchor="start" x="297.5" y="-19" font-family="Helvetica,sans-Serif" font-size="10.00">rstm/rstm&#45;dev/stamp</text>
<text text-anchor="middle" x="351" y="-8" font-family="Helvetica,sans-Serif" font-size="10.00">&#45;0.9.10/intruder/stream.c</text>
</a>
</g>
</g>
<!-- Node5&#45;&gt;Node7 -->
<g id="edge8" class="edge"><title>Node5&#45;&gt;Node7</title>
<path fill="none" stroke="midnightblue" d="M351,-58.5322C351,-49.3606 351,-39.2449 351,-31.2931"/>
<polygon fill="midnightblue" stroke="midnightblue" points="347.5,-58.6789 351,-68.679 354.5,-58.679 347.5,-58.6789"/>
</g>
</g>
</svg>
