<?xml version="1.0" encoding="UTF-8" standalone="no"?>
<!DOCTYPE svg PUBLIC "-//W3C//DTD SVG 1.1//EN"
 "http://www.w3.org/Graphics/SVG/1.1/DTD/svg11.dtd">
<!-- Generated by graphviz version 2.36.0 (20140111.2315)
 -->
<!-- Title: bench_test Pages: 1 -->
<svg width="200pt" height="142pt"
 viewBox="0.00 0.00 200.00 142.00" xmlns="http://www.w3.org/2000/svg" xmlns:xlink="http://www.w3.org/1999/xlink">
<g id="graph0" class="graph" transform="scale(1 1) rotate(0) translate(4 138)">
<title>bench_test</title>
<!-- Node1 -->
<g id="node1" class="node"><title>Node1</title>
<polygon fill="#bfbfbf" stroke="black" points="0.5,-57.5 0.5,-76.5 65.5,-76.5 65.5,-57.5 0.5,-57.5"/>
<text text-anchor="middle" x="33" y="-64.5" font-family="Helvetica,sans-Serif" font-size="10.00">bench_test</text>
</g>
<!-- Node2 -->
<g id="node2" class="node"><title>Node2</title>
<g id="a_node2"><a xlink:href="rand__r__32_8h.html#afaaf1d013ccb194d66735f6e59dcc930" target="_top" xlink:title="rand_r_32">
<polygon fill="none" stroke="black" points="117.5,-114.5 117.5,-133.5 176.5,-133.5 176.5,-114.5 117.5,-114.5"/>
<text text-anchor="middle" x="147" y="-121.5" font-family="Helvetica,sans-Serif" font-size="10.00">rand_r_32</text>
</a>
</g>
</g>
<!-- Node1&#45;&gt;Node2 -->
<g id="edge1" class="edge"><title>Node1&#45;&gt;Node2</title>
<path fill="none" stroke="midnightblue" d="M49.965,-76.5307C63.5908,-84.5167 83.8104,-96.0194 102,-105 105.591,-106.773 109.386,-108.55 113.183,-110.269"/>
<polygon fill="midnightblue" stroke="midnightblue" points="111.944,-113.547 122.506,-114.38 114.768,-107.142 111.944,-113.547"/>
</g>
<!-- Node3 -->
<g id="node3" class="node"><title>Node3</title>
<g id="a_node3"><a xlink:href="classRBTree.html#ac08a215acdc2f4ccecebaafbbe1dce41" target="_top" xlink:title="RBTree::lookup">
<polygon fill="none" stroke="black" points="104.5,-76.5 104.5,-95.5 189.5,-95.5 189.5,-76.5 104.5,-76.5"/>
<text text-anchor="middle" x="147" y="-83.5" font-family="Helvetica,sans-Serif" font-size="10.00">RBTree::lookup</text>
</a>
</g>
</g>
<!-- Node1&#45;&gt;Node3 -->
<g id="edge2" class="edge"><title>Node1&#45;&gt;Node3</title>
<path fill="none" stroke="midnightblue" d="M65.7951,-72.3938C74.7229,-73.9083 84.667,-75.5953 94.4304,-77.2516"/>
<polygon fill="midnightblue" stroke="midnightblue" points="94.0447,-80.7361 104.489,-78.958 95.2156,-73.8347 94.0447,-80.7361"/>
</g>
<!-- Node4 -->
<g id="node4" class="node"><title>Node4</title>
<g id="a_node4"><a xlink:href="classRBTree.html#abbb72e04b9cc677051094c3839ca09ab" target="_top" xlink:title="RBTree::insert">
<polygon fill="none" stroke="black" points="107,-38.5 107,-57.5 187,-57.5 187,-38.5 107,-38.5"/>
<text text-anchor="middle" x="147" y="-45.5" font-family="Helvetica,sans-Serif" font-size="10.00">RBTree::insert</text>
</a>
</g>
</g>
<!-- Node1&#45;&gt;Node4 -->
<g id="edge3" class="edge"><title>Node1&#45;&gt;Node4</title>
<path fill="none" stroke="midnightblue" d="M65.7951,-61.6062C75.499,-59.96 86.4035,-58.1101 96.9716,-56.3173"/>
<polygon fill="midnightblue" stroke="midnightblue" points="97.677,-59.7478 106.951,-54.6244 96.5061,-52.8464 97.677,-59.7478"/>
</g>
<!-- Node5 -->
<g id="node5" class="node"><title>Node5</title>
<g id="a_node5"><a xlink:href="classRBTree.html#a98d0db9e5d36729c5b35b2a40e959856" target="_top" xlink:title="RBTree::remove">
<polygon fill="none" stroke="black" points="102.5,-0.5 102.5,-19.5 191.5,-19.5 191.5,-0.5 102.5,-0.5"/>
<text text-anchor="middle" x="147" y="-7.5" font-family="Helvetica,sans-Serif" font-size="10.00">RBTree::remove</text>
</a>
</g>
</g>
<!-- Node1&#45;&gt;Node5 -->
<g id="edge4" class="edge"><title>Node1&#45;&gt;Node5</title>
<path fill="none" stroke="midnightblue" d="M49.965,-57.4693C63.5908,-49.4833 83.8104,-37.9806 102,-29 105.591,-27.2273 109.386,-25.4496 113.183,-23.7315"/>
<polygon fill="midnightblue" stroke="midnightblue" points="114.768,-26.8575 122.506,-19.6201 111.944,-20.4526 114.768,-26.8575"/>
</g>
</g>
</svg>
