<?xml version="1.0" encoding="UTF-8" standalone="no"?>
<!DOCTYPE svg PUBLIC "-//W3C//DTD SVG 1.1//EN"
 "http://www.w3.org/Graphics/SVG/1.1/DTD/svg11.dtd">
<!-- Generated by graphviz version 2.36.0 (20140111.2315)
 -->
<!-- Title: rstm/rstm&#45;dev/bench/ForestBench.cpp Pages: 1 -->
<svg width="1102pt" height="544pt"
 viewBox="0.00 0.00 1102.00 544.00" xmlns="http://www.w3.org/2000/svg" xmlns:xlink="http://www.w3.org/1999/xlink">
<g id="graph0" class="graph" transform="scale(1 1) rotate(0) translate(4 540)">
<title>rstm/rstm&#45;dev/bench/ForestBench.cpp</title>
<!-- Node1 -->
<g id="node1" class="node"><title>Node1</title>
<polygon fill="#bfbfbf" stroke="black" points="652.5,-505 652.5,-535 759.5,-535 759.5,-505 652.5,-505"/>
<text text-anchor="start" x="660.5" y="-523" font-family="Helvetica,sans-Serif" font-size="10.00">rstm/rstm&#45;dev/bench</text>
<text text-anchor="middle" x="706" y="-512" font-family="Helvetica,sans-Serif" font-size="10.00">/ForestBench.cpp</text>
</g>
<!-- Node2 -->
<g id="node2" class="node"><title>Node2</title>
<polygon fill="none" stroke="#bfbfbf" points="230.5,-0.5 230.5,-19.5 301.5,-19.5 301.5,-0.5 230.5,-0.5"/>
<text text-anchor="middle" x="266" y="-7.5" font-family="Helvetica,sans-Serif" font-size="10.00">stm/config.h</text>
</g>
<!-- Node1&#45;&gt;Node2 -->
<g id="edge1" class="edge"><title>Node1&#45;&gt;Node2</title>
<path fill="none" stroke="midnightblue" d="M652.356,-515.843C487.6,-505.439 0,-469.066 0,-403 0,-403 0,-403 0,-121 0,-26.8554 144.05,-11.7023 220.139,-10.265"/>
<polygon fill="midnightblue" stroke="midnightblue" points="220.443,-13.7619 230.402,-10.1465 220.362,-6.76232 220.443,-13.7619"/>
</g>
<!-- Node3 -->
<g id="node3" class="node"><title>Node3</title>
<polygon fill="none" stroke="#bfbfbf" points="1022,-392.5 1022,-411.5 1076,-411.5 1076,-392.5 1022,-392.5"/>
<text text-anchor="middle" x="1049" y="-399.5" font-family="Helvetica,sans-Serif" font-size="10.00">iostream</text>
</g>
<!-- Node1&#45;&gt;Node3 -->
<g id="edge2" class="edge"><title>Node1&#45;&gt;Node3</title>
<path fill="none" stroke="midnightblue" d="M759.79,-514.609C833.822,-507.75 962.456,-492.665 1002,-468 1019.86,-456.862 1033.01,-436.223 1040.79,-421.181"/>
<polygon fill="midnightblue" stroke="midnightblue" points="1044.1,-422.373 1045.31,-411.847 1037.8,-419.322 1044.1,-422.373"/>
</g>
<!-- Node4 -->
<g id="node4" class="node"><title>Node4</title>
<polygon fill="none" stroke="#bfbfbf" points="1050,-448.5 1050,-467.5 1094,-467.5 1094,-448.5 1050,-448.5"/>
<text text-anchor="middle" x="1072" y="-455.5" font-family="Helvetica,sans-Serif" font-size="10.00">vector</text>
</g>
<!-- Node1&#45;&gt;Node4 -->
<g id="edge3" class="edge"><title>Node1&#45;&gt;Node4</title>
<path fill="none" stroke="midnightblue" d="M759.708,-512.239C825.236,-503.637 939.254,-487.526 1036,-468 1037.28,-467.742 1038.58,-467.468 1039.89,-467.183"/>
<polygon fill="midnightblue" stroke="midnightblue" points="1041.04,-470.511 1049.99,-464.842 1039.46,-463.692 1041.04,-470.511"/>
</g>
<!-- Node5 -->
<g id="node5" class="node"><title>Node5</title>
<g id="a_node5"><a xlink:href="rand__r__32_8h.html" target="_top" xlink:title="alt&#45;license/rand_r_32.h">
<polygon fill="none" stroke="black" points="608.5,-224.5 608.5,-243.5 723.5,-243.5 723.5,-224.5 608.5,-224.5"/>
<text text-anchor="middle" x="666" y="-231.5" font-family="Helvetica,sans-Serif" font-size="10.00">alt&#45;license/rand_r_32.h</text>
</a>
</g>
</g>
<!-- Node1&#45;&gt;Node5 -->
<g id="edge4" class="edge"><title>Node1&#45;&gt;Node5</title>
<path fill="none" stroke="midnightblue" d="M706,-504.713C706,-482.82 706,-439.653 706,-403 706,-403 706,-403 706,-345 706,-310.617 688.526,-273.631 676.677,-252.503"/>
<polygon fill="midnightblue" stroke="midnightblue" points="679.623,-250.607 671.562,-243.731 673.576,-254.133 679.623,-250.607"/>
</g>
<!-- Node7 -->
<g id="node7" class="node"><title>Node7</title>
<g id="a_node7"><a xlink:href="api_8hpp.html" target="_top" xlink:title="api/api.hpp">
<polygon fill="none" stroke="black" points="548,-392.5 548,-411.5 612,-411.5 612,-392.5 548,-392.5"/>
<text text-anchor="middle" x="580" y="-399.5" font-family="Helvetica,sans-Serif" font-size="10.00">api/api.hpp</text>
</a>
</g>
</g>
<!-- Node1&#45;&gt;Node7 -->
<g id="edge7" class="edge"><title>Node1&#45;&gt;Node7</title>
<path fill="none" stroke="midnightblue" d="M669.081,-504.972C650.485,-496.475 628.631,-484.136 613,-468 600.089,-454.671 591.142,-435.288 585.854,-421.158"/>
<polygon fill="midnightblue" stroke="midnightblue" points="589.108,-419.859 582.518,-411.563 582.496,-422.158 589.108,-419.859"/>
</g>
<!-- Node30 -->
<g id="node30" class="node"><title>Node30</title>
<g id="a_node30"><a xlink:href="bmconfig_8hpp.html" target="_top" xlink:title="bmconfig.hpp">
<polygon fill="none" stroke="black" points="918.5,-448.5 918.5,-467.5 993.5,-467.5 993.5,-448.5 918.5,-448.5"/>
<text text-anchor="middle" x="956" y="-455.5" font-family="Helvetica,sans-Serif" font-size="10.00">bmconfig.hpp</text>
</a>
</g>
</g>
<!-- Node1&#45;&gt;Node30 -->
<g id="edge53" class="edge"><title>Node1&#45;&gt;Node30</title>
<path fill="none" stroke="midnightblue" d="M759.631,-506.128C804.659,-495.322 868.267,-480.056 910.759,-469.858"/>
<polygon fill="midnightblue" stroke="midnightblue" points="911.644,-473.245 920.551,-467.508 910.01,-466.438 911.644,-473.245"/>
</g>
<!-- Node31 -->
<g id="node31" class="node"><title>Node31</title>
<g id="a_node31"><a xlink:href="Tree_8hpp.html" target="_top" xlink:title="Tree.hpp">
<polygon fill="none" stroke="black" points="622.5,-448.5 622.5,-467.5 677.5,-467.5 677.5,-448.5 622.5,-448.5"/>
<text text-anchor="middle" x="650" y="-455.5" font-family="Helvetica,sans-Serif" font-size="10.00">Tree.hpp</text>
</a>
</g>
</g>
<!-- Node1&#45;&gt;Node31 -->
<g id="edge57" class="edge"><title>Node1&#45;&gt;Node31</title>
<path fill="none" stroke="midnightblue" d="M692.729,-504.781C684.424,-495.882 673.701,-484.394 665.076,-475.152"/>
<polygon fill="midnightblue" stroke="midnightblue" points="667.53,-472.653 658.148,-467.731 662.413,-477.429 667.53,-472.653"/>
</g>
<!-- Node5&#45;&gt;Node2 -->
<g id="edge6" class="edge"><title>Node5&#45;&gt;Node2</title>
<path fill="none" stroke="midnightblue" d="M668.412,-224.245C673.624,-203.534 684.072,-150.394 666,-112 650.046,-78.1044 637.057,-71.6067 603,-56 552.095,-32.6726 391.536,-19.205 311.822,-13.7956"/>
<polygon fill="midnightblue" stroke="midnightblue" points="311.801,-10.2866 301.591,-13.1156 311.337,-17.2712 311.801,-10.2866"/>
</g>
<!-- Node6 -->
<g id="node6" class="node"><title>Node6</title>
<polygon fill="none" stroke="#bfbfbf" points="499,-168.5 499,-187.5 547,-187.5 547,-168.5 499,-168.5"/>
<text text-anchor="middle" x="523" y="-175.5" font-family="Helvetica,sans-Serif" font-size="10.00">stdlib.h</text>
</g>
<!-- Node5&#45;&gt;Node6 -->
<g id="edge5" class="edge"><title>Node5&#45;&gt;Node6</title>
<path fill="none" stroke="midnightblue" d="M643.341,-224.444C619.598,-215.478 582.091,-201.314 555.262,-191.183"/>
<polygon fill="midnightblue" stroke="midnightblue" points="556.144,-187.775 545.553,-187.516 553.671,-194.324 556.144,-187.775"/>
</g>
<!-- Node7&#45;&gt;Node2 -->
<g id="edge8" class="edge"><title>Node7&#45;&gt;Node2</title>
<path fill="none" stroke="midnightblue" d="M547.719,-401.366C431.036,-401.837 38,-395.657 38,-291 38,-291 38,-291 38,-121 38,-40.9023 153.555,-19.0996 220.135,-13.1851"/>
<polygon fill="midnightblue" stroke="midnightblue" points="220.686,-16.6523 230.375,-12.3657 220.128,-9.67455 220.686,-16.6523"/>
</g>
<!-- Node8 -->
<g id="node8" class="node"><title>Node8</title>
<g id="a_node8"><a xlink:href="library_8hpp.html" target="_top" xlink:title="api/library.hpp">
<polygon fill="none" stroke="black" points="541.5,-336.5 541.5,-355.5 618.5,-355.5 618.5,-336.5 541.5,-336.5"/>
<text text-anchor="middle" x="580" y="-343.5" font-family="Helvetica,sans-Serif" font-size="10.00">api/library.hpp</text>
</a>
</g>
</g>
<!-- Node7&#45;&gt;Node8 -->
<g id="edge9" class="edge"><title>Node7&#45;&gt;Node8</title>
<path fill="none" stroke="midnightblue" d="M580,-392.083C580,-385.006 580,-374.861 580,-365.986"/>
<polygon fill="midnightblue" stroke="midnightblue" points="583.5,-365.751 580,-355.751 576.5,-365.751 583.5,-365.751"/>
</g>
<!-- Node8&#45;&gt;Node2 -->
<g id="edge11" class="edge"><title>Node8&#45;&gt;Node2</title>
<path fill="none" stroke="midnightblue" d="M618.598,-339.243C672.022,-328.841 762,-301.456 762,-235 762,-235 762,-235 762,-177 762,-123.156 804.334,-95.7367 768,-56 737.55,-22.6988 430.248,-13.8469 312.016,-11.6646"/>
<polygon fill="midnightblue" stroke="midnightblue" points="311.901,-8.1621 301.84,-11.4847 311.777,-15.161 311.901,-8.1621"/>
</g>
<!-- Node9 -->
<g id="node9" class="node"><title>Node9</title>
<polygon fill="none" stroke="#bfbfbf" points="553,-280.5 553,-299.5 607,-299.5 607,-280.5 553,-280.5"/>
<text text-anchor="middle" x="580" y="-287.5" font-family="Helvetica,sans-Serif" font-size="10.00">setjmp.h</text>
</g>
<!-- Node8&#45;&gt;Node9 -->
<g id="edge10" class="edge"><title>Node8&#45;&gt;Node9</title>
<path fill="none" stroke="midnightblue" d="M580,-336.083C580,-329.006 580,-318.861 580,-309.986"/>
<polygon fill="midnightblue" stroke="midnightblue" points="583.5,-309.751 580,-299.751 576.5,-309.751 583.5,-309.751"/>
</g>
<!-- Node10 -->
<g id="node10" class="node"><title>Node10</title>
<g id="a_node10"><a xlink:href="platform_8hpp.html" target="_top" xlink:title="common/platform.hpp">
<polygon fill="none" stroke="black" points="816.5,-56.5 816.5,-75.5 927.5,-75.5 927.5,-56.5 816.5,-56.5"/>
<text text-anchor="middle" x="872" y="-63.5" font-family="Helvetica,sans-Serif" font-size="10.00">common/platform.hpp</text>
</a>
</g>
</g>
<!-- Node8&#45;&gt;Node10 -->
<g id="edge12" class="edge"><title>Node8&#45;&gt;Node10</title>
<path fill="none" stroke="midnightblue" d="M618.773,-340.701C707.555,-329.782 918,-297.327 918,-235 918,-235 918,-235 918,-177 918,-141.817 897.722,-104.863 884.093,-83.9988"/>
<polygon fill="midnightblue" stroke="midnightblue" points="886.91,-81.9156 878.396,-75.609 881.119,-85.8481 886.91,-81.9156"/>
</g>
<!-- Node14 -->
<g id="node14" class="node"><title>Node14</title>
<g id="a_node14"><a xlink:href="txthread_8hpp.html" target="_top" xlink:title="stm/txthread.hpp">
<polygon fill="none" stroke="black" points="426,-280.5 426,-299.5 516,-299.5 516,-280.5 426,-280.5"/>
<text text-anchor="middle" x="471" y="-287.5" font-family="Helvetica,sans-Serif" font-size="10.00">stm/txthread.hpp</text>
</a>
</g>
</g>
<!-- Node8&#45;&gt;Node14 -->
<g id="edge17" class="edge"><title>Node8&#45;&gt;Node14</title>
<path fill="none" stroke="midnightblue" d="M562.487,-336.324C544.928,-327.625 517.669,-314.12 497.469,-304.113"/>
<polygon fill="midnightblue" stroke="midnightblue" points="498.984,-300.958 488.469,-299.655 495.876,-307.23 498.984,-300.958"/>
</g>
<!-- Node29 -->
<g id="node29" class="node"><title>Node29</title>
<g id="a_node29"><a xlink:href="library__inst_8hpp.html" target="_top" xlink:title="library_inst.hpp">
<polygon fill="none" stroke="black" points="196.5,-280.5 196.5,-299.5 279.5,-299.5 279.5,-280.5 196.5,-280.5"/>
<text text-anchor="middle" x="238" y="-287.5" font-family="Helvetica,sans-Serif" font-size="10.00">library_inst.hpp</text>
</a>
</g>
</g>
<!-- Node8&#45;&gt;Node29 -->
<g id="edge51" class="edge"><title>Node8&#45;&gt;Node29</title>
<path fill="none" stroke="midnightblue" d="M541.433,-338.91C479.787,-329.177 358.976,-310.101 289.84,-299.185"/>
<polygon fill="midnightblue" stroke="midnightblue" points="290.04,-295.674 279.617,-297.571 288.948,-302.588 290.04,-295.674"/>
</g>
<!-- Node10&#45;&gt;Node2 -->
<g id="edge13" class="edge"><title>Node10&#45;&gt;Node2</title>
<path fill="none" stroke="midnightblue" d="M816.242,-57.6059C811.428,-57.0358 806.63,-56.4918 802,-56 620.935,-36.7689 404.742,-20.7272 311.973,-14.1729"/>
<polygon fill="midnightblue" stroke="midnightblue" points="312.027,-10.6682 301.806,-13.4578 311.536,-17.6509 312.027,-10.6682"/>
</g>
<!-- Node11 -->
<g id="node11" class="node"><title>Node11</title>
<polygon fill="none" stroke="#bfbfbf" points="847.5,-0.5 847.5,-19.5 896.5,-19.5 896.5,-0.5 847.5,-0.5"/>
<text text-anchor="middle" x="872" y="-7.5" font-family="Helvetica,sans-Serif" font-size="10.00">stdint.h</text>
</g>
<!-- Node10&#45;&gt;Node11 -->
<g id="edge14" class="edge"><title>Node10&#45;&gt;Node11</title>
<path fill="none" stroke="midnightblue" d="M872,-56.083C872,-49.0059 872,-38.8611 872,-29.9865"/>
<polygon fill="midnightblue" stroke="midnightblue" points="875.5,-29.751 872,-19.7511 868.5,-29.7511 875.5,-29.751"/>
</g>
<!-- Node12 -->
<g id="node12" class="node"><title>Node12</title>
<polygon fill="none" stroke="#bfbfbf" points="781,-0.5 781,-19.5 829,-19.5 829,-0.5 781,-0.5"/>
<text text-anchor="middle" x="805" y="-7.5" font-family="Helvetica,sans-Serif" font-size="10.00">limits.h</text>
</g>
<!-- Node10&#45;&gt;Node12 -->
<g id="edge15" class="edge"><title>Node10&#45;&gt;Node12</title>
<path fill="none" stroke="midnightblue" d="M861.235,-56.324C851.234,-48.2631 836.113,-36.0765 824.07,-26.3695"/>
<polygon fill="midnightblue" stroke="midnightblue" points="825.943,-23.3841 815.961,-19.8339 821.55,-28.8343 825.943,-23.3841"/>
</g>
<!-- Node13 -->
<g id="node13" class="node"><title>Node13</title>
<polygon fill="none" stroke="#bfbfbf" points="914.5,-0.5 914.5,-19.5 965.5,-19.5 965.5,-0.5 914.5,-0.5"/>
<text text-anchor="middle" x="940" y="-7.5" font-family="Helvetica,sans-Serif" font-size="10.00">unistd.h</text>
</g>
<!-- Node10&#45;&gt;Node13 -->
<g id="edge16" class="edge"><title>Node10&#45;&gt;Node13</title>
<path fill="none" stroke="midnightblue" d="M882.925,-56.324C893.175,-48.1849 908.721,-35.8395 921.001,-26.0874"/>
<polygon fill="midnightblue" stroke="midnightblue" points="923.221,-28.7937 928.876,-19.8339 918.868,-23.3119 923.221,-28.7937"/>
</g>
<!-- Node14&#45;&gt;Node5 -->
<g id="edge18" class="edge"><title>Node14&#45;&gt;Node5</title>
<path fill="none" stroke="midnightblue" d="M501.898,-280.444C535.274,-271.201 588.594,-256.436 625.349,-246.257"/>
<polygon fill="midnightblue" stroke="midnightblue" points="626.543,-249.558 635.246,-243.516 624.675,-242.812 626.543,-249.558"/>
</g>
<!-- Node15 -->
<g id="node15" class="node"><title>Node15</title>
<g id="a_node15"><a xlink:href="locks_8hpp.html" target="_top" xlink:title="common/locks.hpp">
<polygon fill="none" stroke="black" points="790.5,-112.5 790.5,-131.5 889.5,-131.5 889.5,-112.5 790.5,-112.5"/>
<text text-anchor="middle" x="840" y="-119.5" font-family="Helvetica,sans-Serif" font-size="10.00">common/locks.hpp</text>
</a>
</g>
</g>
<!-- Node14&#45;&gt;Node15 -->
<g id="edge19" class="edge"><title>Node14&#45;&gt;Node15</title>
<path fill="none" stroke="midnightblue" d="M516.083,-282.877C585.728,-273.171 713.428,-254.301 732,-244 777.176,-218.942 813.07,-167.653 829.783,-140.601"/>
<polygon fill="midnightblue" stroke="midnightblue" points="832.906,-142.199 835.055,-131.824 826.905,-138.595 832.906,-142.199"/>
</g>
<!-- Node16 -->
<g id="node16" class="node"><title>Node16</title>
<g id="a_node16"><a xlink:href="ThreadLocal_8hpp.html" target="_top" xlink:title="common/ThreadLocal.hpp">
<polygon fill="none" stroke="black" points="104.5,-224.5 104.5,-243.5 233.5,-243.5 233.5,-224.5 104.5,-224.5"/>
<text text-anchor="middle" x="169" y="-231.5" font-family="Helvetica,sans-Serif" font-size="10.00">common/ThreadLocal.hpp</text>
</a>
</g>
</g>
<!-- Node14&#45;&gt;Node16 -->
<g id="edge21" class="edge"><title>Node14&#45;&gt;Node16</title>
<path fill="none" stroke="midnightblue" d="M425.788,-280.916C372.778,-271.437 284.812,-255.708 226.867,-245.347"/>
<polygon fill="midnightblue" stroke="midnightblue" points="227.229,-241.856 216.769,-243.541 225.997,-248.747 227.229,-241.856"/>
</g>
<!-- Node17 -->
<g id="node17" class="node"><title>Node17</title>
<g id="a_node17"><a xlink:href="metadata_8hpp.html" target="_top" xlink:title="stm/metadata.hpp">
<polygon fill="none" stroke="black" points="347.5,-168.5 347.5,-187.5 442.5,-187.5 442.5,-168.5 347.5,-168.5"/>
<text text-anchor="middle" x="395" y="-175.5" font-family="Helvetica,sans-Serif" font-size="10.00">stm/metadata.hpp</text>
</a>
</g>
</g>
<!-- Node14&#45;&gt;Node17 -->
<g id="edge23" class="edge"><title>Node14&#45;&gt;Node17</title>
<path fill="none" stroke="midnightblue" d="M455.472,-280.465C442.565,-272.603 424.647,-259.783 414,-244 404.652,-230.141 399.826,-211.626 397.384,-197.901"/>
<polygon fill="midnightblue" stroke="midnightblue" points="400.799,-197.073 395.845,-187.707 393.877,-198.117 400.799,-197.073"/>
</g>
<!-- Node23 -->
<g id="node23" class="node"><title>Node23</title>
<g id="a_node23"><a xlink:href="WriteSet_8hpp.html" target="_top" xlink:title="stm/WriteSet.hpp">
<polygon fill="none" stroke="black" points="270.5,-112.5 270.5,-131.5 363.5,-131.5 363.5,-112.5 270.5,-112.5"/>
<text text-anchor="middle" x="317" y="-119.5" font-family="Helvetica,sans-Serif" font-size="10.00">stm/WriteSet.hpp</text>
</a>
</g>
</g>
<!-- Node14&#45;&gt;Node23 -->
<g id="edge33" class="edge"><title>Node14&#45;&gt;Node23</title>
<path fill="none" stroke="midnightblue" d="M425.571,-285.252C367.558,-277.739 269.38,-255.237 225,-188 208.891,-163.594 242.989,-145.523 274.138,-134.713"/>
<polygon fill="midnightblue" stroke="midnightblue" points="275.241,-138.035 283.651,-131.592 273.059,-131.383 275.241,-138.035"/>
</g>
<!-- Node25 -->
<g id="node25" class="node"><title>Node25</title>
<g id="a_node25"><a xlink:href="UndoLog_8hpp.html" target="_top" xlink:title="stm/UndoLog.hpp">
<polygon fill="none" stroke="black" points="565,-168.5 565,-187.5 659,-187.5 659,-168.5 565,-168.5"/>
<text text-anchor="middle" x="612" y="-175.5" font-family="Helvetica,sans-Serif" font-size="10.00">stm/UndoLog.hpp</text>
</a>
</g>
</g>
<!-- Node14&#45;&gt;Node25 -->
<g id="edge38" class="edge"><title>Node14&#45;&gt;Node25</title>
<path fill="none" stroke="midnightblue" d="M482.064,-280.368C506.054,-261.653 563.098,-217.151 592.988,-193.832"/>
<polygon fill="midnightblue" stroke="midnightblue" points="595.256,-196.502 600.987,-187.591 590.95,-190.983 595.256,-196.502"/>
</g>
<!-- Node27 -->
<g id="node27" class="node"><title>Node27</title>
<g id="a_node27"><a xlink:href="ValueList_8hpp.html" target="_top" xlink:title="stm/ValueList.hpp">
<polygon fill="none" stroke="black" points="234.5,-168.5 234.5,-187.5 329.5,-187.5 329.5,-168.5 234.5,-168.5"/>
<text text-anchor="middle" x="282" y="-175.5" font-family="Helvetica,sans-Serif" font-size="10.00">stm/ValueList.hpp</text>
</a>
</g>
</g>
<!-- Node14&#45;&gt;Node27 -->
<g id="edge43" class="edge"><title>Node14&#45;&gt;Node27</title>
<path fill="none" stroke="midnightblue" d="M456.169,-280.368C423.461,-261.332 344.912,-215.615 305.454,-192.65"/>
<polygon fill="midnightblue" stroke="midnightblue" points="307.165,-189.597 296.762,-187.591 303.644,-195.647 307.165,-189.597"/>
</g>
<!-- Node28 -->
<g id="node28" class="node"><title>Node28</title>
<g id="a_node28"><a xlink:href="WBMMPolicy_8hpp.html" target="_top" xlink:title="WBMMPolicy.hpp">
<polygon fill="none" stroke="black" points="423.5,-224.5 423.5,-243.5 518.5,-243.5 518.5,-224.5 423.5,-224.5"/>
<text text-anchor="middle" x="471" y="-231.5" font-family="Helvetica,sans-Serif" font-size="10.00">WBMMPolicy.hpp</text>
</a>
</g>
</g>
<!-- Node14&#45;&gt;Node28 -->
<g id="edge46" class="edge"><title>Node14&#45;&gt;Node28</title>
<path fill="none" stroke="midnightblue" d="M471,-280.083C471,-273.006 471,-262.861 471,-253.986"/>
<polygon fill="midnightblue" stroke="midnightblue" points="474.5,-253.751 471,-243.751 467.5,-253.751 474.5,-253.751"/>
</g>
<!-- Node15&#45;&gt;Node10 -->
<g id="edge20" class="edge"><title>Node15&#45;&gt;Node10</title>
<path fill="none" stroke="midnightblue" d="M845.284,-112.083C849.711,-104.613 856.163,-93.7244 861.618,-84.5199"/>
<polygon fill="midnightblue" stroke="midnightblue" points="864.727,-86.1383 866.814,-75.7511 858.705,-82.5697 864.727,-86.1383"/>
</g>
<!-- Node16&#45;&gt;Node2 -->
<g id="edge22" class="edge"><title>Node16&#45;&gt;Node2</title>
<path fill="none" stroke="midnightblue" d="M160.517,-224.234C152.946,-215.75 142.396,-202.131 138,-188 120.572,-131.982 104.086,-103.871 138,-56 156.494,-29.894 191.394,-18.8224 220.086,-14.1805"/>
<polygon fill="midnightblue" stroke="midnightblue" points="220.916,-17.5985 230.333,-12.7453 219.945,-10.6662 220.916,-17.5985"/>
</g>
<!-- Node17&#45;&gt;Node2 -->
<g id="edge24" class="edge"><title>Node17&#45;&gt;Node2</title>
<path fill="none" stroke="midnightblue" d="M353.045,-168.489C317.983,-160.424 271.996,-147.292 261,-132 239.09,-101.53 250.165,-54.7237 258.879,-29.1764"/>
<polygon fill="midnightblue" stroke="midnightblue" points="262.219,-30.2326 262.366,-19.6388 255.645,-27.8291 262.219,-30.2326"/>
</g>
<!-- Node18 -->
<g id="node18" class="node"><title>Node18</title>
<g id="a_node18"><a xlink:href="MiniVector_8hpp.html" target="_top" xlink:title="stm/MiniVector.hpp">
<polygon fill="none" stroke="black" points="404.5,-112.5 404.5,-131.5 505.5,-131.5 505.5,-112.5 404.5,-112.5"/>
<text text-anchor="middle" x="455" y="-119.5" font-family="Helvetica,sans-Serif" font-size="10.00">stm/MiniVector.hpp</text>
</a>
</g>
</g>
<!-- Node17&#45;&gt;Node18 -->
<g id="edge25" class="edge"><title>Node17&#45;&gt;Node18</title>
<path fill="none" stroke="midnightblue" d="M404.64,-168.324C413.51,-160.341 426.875,-148.313 437.608,-138.653"/>
<polygon fill="midnightblue" stroke="midnightblue" points="440.093,-141.125 445.185,-131.834 435.41,-135.922 440.093,-141.125"/>
</g>
<!-- Node22 -->
<g id="node22" class="node"><title>Node22</title>
<g id="a_node22"><a xlink:href="BitFilter_8hpp.html" target="_top" xlink:title="stm/BitFilter.hpp">
<polygon fill="none" stroke="black" points="670.5,-56.5 670.5,-75.5 759.5,-75.5 759.5,-56.5 670.5,-56.5"/>
<text text-anchor="middle" x="715" y="-63.5" font-family="Helvetica,sans-Serif" font-size="10.00">stm/BitFilter.hpp</text>
</a>
</g>
</g>
<!-- Node17&#45;&gt;Node22 -->
<g id="edge30" class="edge"><title>Node17&#45;&gt;Node22</title>
<path fill="none" stroke="midnightblue" d="M442.503,-171.059C515.088,-161.691 647.211,-143.383 666,-132 684.442,-120.827 698.307,-99.883 706.5,-84.7838"/>
<polygon fill="midnightblue" stroke="midnightblue" points="709.622,-86.3645 711.055,-75.867 703.389,-83.1796 709.622,-86.3645"/>
</g>
<!-- Node18&#45;&gt;Node10 -->
<g id="edge29" class="edge"><title>Node18&#45;&gt;Node10</title>
<path fill="none" stroke="midnightblue" d="M505.715,-114.433C581.143,-104.665 722.916,-86.3059 806.227,-75.5173"/>
<polygon fill="midnightblue" stroke="midnightblue" points="806.87,-78.9634 816.338,-74.2081 805.971,-72.0214 806.87,-78.9634"/>
</g>
<!-- Node19 -->
<g id="node19" class="node"><title>Node19</title>
<polygon fill="none" stroke="#bfbfbf" points="421.5,-56.5 421.5,-75.5 470.5,-75.5 470.5,-56.5 421.5,-56.5"/>
<text text-anchor="middle" x="446" y="-63.5" font-family="Helvetica,sans-Serif" font-size="10.00">cassert</text>
</g>
<!-- Node18&#45;&gt;Node19 -->
<g id="edge26" class="edge"><title>Node18&#45;&gt;Node19</title>
<path fill="none" stroke="midnightblue" d="M453.514,-112.083C452.321,-104.927 450.606,-94.6353 449.115,-85.6911"/>
<polygon fill="midnightblue" stroke="midnightblue" points="452.555,-85.0396 447.459,-75.7511 445.65,-86.1904 452.555,-85.0396"/>
</g>
<!-- Node20 -->
<g id="node20" class="node"><title>Node20</title>
<polygon fill="none" stroke="#bfbfbf" points="358.5,-56.5 358.5,-75.5 403.5,-75.5 403.5,-56.5 358.5,-56.5"/>
<text text-anchor="middle" x="381" y="-63.5" font-family="Helvetica,sans-Serif" font-size="10.00">cstdlib</text>
</g>
<!-- Node18&#45;&gt;Node20 -->
<g id="edge27" class="edge"><title>Node18&#45;&gt;Node20</title>
<path fill="none" stroke="midnightblue" d="M443.111,-112.324C431.85,-104.107 414.713,-91.6017 401.291,-81.8069"/>
<polygon fill="midnightblue" stroke="midnightblue" points="403.247,-78.9014 393.106,-75.8339 399.12,-84.5559 403.247,-78.9014"/>
</g>
<!-- Node21 -->
<g id="node21" class="node"><title>Node21</title>
<polygon fill="none" stroke="#bfbfbf" points="488.5,-56.5 488.5,-75.5 537.5,-75.5 537.5,-56.5 488.5,-56.5"/>
<text text-anchor="middle" x="513" y="-63.5" font-family="Helvetica,sans-Serif" font-size="10.00">string.h</text>
</g>
<!-- Node18&#45;&gt;Node21 -->
<g id="edge28" class="edge"><title>Node18&#45;&gt;Node21</title>
<path fill="none" stroke="midnightblue" d="M464.319,-112.324C472.893,-104.341 485.812,-92.3128 496.188,-82.6529"/>
<polygon fill="midnightblue" stroke="midnightblue" points="498.578,-85.2098 503.512,-75.8339 493.808,-80.0865 498.578,-85.2098"/>
</g>
<!-- Node22&#45;&gt;Node2 -->
<g id="edge31" class="edge"><title>Node22&#45;&gt;Node2</title>
<path fill="none" stroke="midnightblue" d="M670.247,-57.9978C665.441,-57.2983 660.621,-56.6189 656,-56 531.731,-39.3582 384.681,-23.3977 311.755,-15.7321"/>
<polygon fill="midnightblue" stroke="midnightblue" points="311.855,-12.2235 301.544,-14.6622 311.125,-19.1854 311.855,-12.2235"/>
</g>
<!-- Node22&#45;&gt;Node11 -->
<g id="edge32" class="edge"><title>Node22&#45;&gt;Node11</title>
<path fill="none" stroke="midnightblue" d="M739.877,-56.4435C766.367,-47.3324 808.462,-32.8539 838.002,-22.6936"/>
<polygon fill="midnightblue" stroke="midnightblue" points="839.18,-25.9898 847.498,-19.4275 836.903,-19.3704 839.18,-25.9898"/>
</g>
<!-- Node23&#45;&gt;Node2 -->
<g id="edge34" class="edge"><title>Node23&#45;&gt;Node2</title>
<path fill="none" stroke="midnightblue" d="M309.426,-112.258C302.247,-103.577 291.605,-89.6303 285,-76 277.79,-61.1218 272.768,-42.9757 269.706,-29.6413"/>
<polygon fill="midnightblue" stroke="midnightblue" points="273.104,-28.7959 267.589,-19.7495 266.259,-30.2605 273.104,-28.7959"/>
</g>
<!-- Node23&#45;&gt;Node19 -->
<g id="edge37" class="edge"><title>Node23&#45;&gt;Node19</title>
<path fill="none" stroke="midnightblue" d="M337.44,-112.444C358.67,-103.557 392.099,-89.5632 416.255,-79.4514"/>
<polygon fill="midnightblue" stroke="midnightblue" points="417.782,-82.6064 425.655,-75.5164 415.079,-76.1493 417.782,-82.6064"/>
</g>
<!-- Node23&#45;&gt;Node20 -->
<g id="edge35" class="edge"><title>Node23&#45;&gt;Node20</title>
<path fill="none" stroke="midnightblue" d="M327.283,-112.324C336.836,-104.263 351.28,-92.0765 362.784,-82.3695"/>
<polygon fill="midnightblue" stroke="midnightblue" points="365.144,-84.9577 370.53,-75.8339 360.63,-79.6076 365.144,-84.9577"/>
</g>
<!-- Node24 -->
<g id="node24" class="node"><title>Node24</title>
<polygon fill="none" stroke="#bfbfbf" points="294,-56.5 294,-75.5 340,-75.5 340,-56.5 294,-56.5"/>
<text text-anchor="middle" x="317" y="-63.5" font-family="Helvetica,sans-Serif" font-size="10.00">cstring</text>
</g>
<!-- Node23&#45;&gt;Node24 -->
<g id="edge36" class="edge"><title>Node23&#45;&gt;Node24</title>
<path fill="none" stroke="midnightblue" d="M317,-112.083C317,-105.006 317,-94.8611 317,-85.9865"/>
<polygon fill="midnightblue" stroke="midnightblue" points="320.5,-85.751 317,-75.7511 313.5,-85.7511 320.5,-85.751"/>
</g>
<!-- Node25&#45;&gt;Node2 -->
<g id="edge39" class="edge"><title>Node25&#45;&gt;Node2</title>
<path fill="none" stroke="midnightblue" d="M598.014,-168.46C586.242,-160.51 569.939,-147.564 561,-132 543.853,-102.144 570.774,-79.9092 546,-56 513.356,-24.495 382.607,-15.0294 311.919,-12.1985"/>
<polygon fill="midnightblue" stroke="midnightblue" points="311.652,-8.6863 301.529,-11.8129 311.392,-15.6815 311.652,-8.6863"/>
</g>
<!-- Node25&#45;&gt;Node18 -->
<g id="edge40" class="edge"><title>Node25&#45;&gt;Node18</title>
<path fill="none" stroke="midnightblue" d="M587.123,-168.444C560.711,-159.359 518.785,-144.939 489.258,-134.783"/>
<polygon fill="midnightblue" stroke="midnightblue" points="490.355,-131.459 479.761,-131.516 488.079,-138.079 490.355,-131.459"/>
</g>
<!-- Node26 -->
<g id="node26" class="node"><title>Node26</title>
<g id="a_node26"><a xlink:href="include_2stm_2macros_8hpp.html" target="_top" xlink:title="stm/macros.hpp">
<polygon fill="none" stroke="black" points="570.5,-112.5 570.5,-131.5 657.5,-131.5 657.5,-112.5 570.5,-112.5"/>
<text text-anchor="middle" x="614" y="-119.5" font-family="Helvetica,sans-Serif" font-size="10.00">stm/macros.hpp</text>
</a>
</g>
</g>
<!-- Node25&#45;&gt;Node26 -->
<g id="edge41" class="edge"><title>Node25&#45;&gt;Node26</title>
<path fill="none" stroke="midnightblue" d="M612.33,-168.083C612.592,-161.006 612.968,-150.861 613.297,-141.986"/>
<polygon fill="midnightblue" stroke="midnightblue" points="616.803,-141.874 613.676,-131.751 609.808,-141.615 616.803,-141.874"/>
</g>
<!-- Node26&#45;&gt;Node2 -->
<g id="edge42" class="edge"><title>Node26&#45;&gt;Node2</title>
<path fill="none" stroke="midnightblue" d="M612.102,-112.146C608.525,-97.7934 599.339,-69.6784 580,-56 537.756,-26.1215 388.346,-15.8604 311.857,-12.5158"/>
<polygon fill="midnightblue" stroke="midnightblue" points="311.703,-9.00645 301.566,-12.0884 311.412,-16.0004 311.703,-9.00645"/>
</g>
<!-- Node27&#45;&gt;Node2 -->
<g id="edge44" class="edge"><title>Node27&#45;&gt;Node2</title>
<path fill="none" stroke="midnightblue" d="M276.616,-168.443C271.444,-159.678 263.988,-145.467 261,-132 253.099,-96.3837 258.206,-53.4589 262.317,-29.4963"/>
<polygon fill="midnightblue" stroke="midnightblue" points="265.762,-30.1123 264.139,-19.6425 258.879,-28.839 265.762,-30.1123"/>
</g>
<!-- Node27&#45;&gt;Node18 -->
<g id="edge45" class="edge"><title>Node27&#45;&gt;Node18</title>
<path fill="none" stroke="midnightblue" d="M309.412,-168.444C338.769,-159.28 385.519,-144.688 418.096,-134.519"/>
<polygon fill="midnightblue" stroke="midnightblue" points="419.213,-137.837 427.716,-131.516 417.127,-131.155 419.213,-137.837"/>
</g>
<!-- Node28&#45;&gt;Node2 -->
<g id="edge48" class="edge"><title>Node28&#45;&gt;Node2</title>
<path fill="none" stroke="midnightblue" d="M423.296,-231.279C359.009,-227.842 249.743,-217.68 225,-188 185.491,-140.608 230.297,-62.2994 253.636,-27.9905"/>
<polygon fill="midnightblue" stroke="midnightblue" points="256.684,-29.7395 259.561,-19.5427 250.953,-25.7198 256.684,-29.7395"/>
</g>
<!-- Node28&#45;&gt;Node6 -->
<g id="edge47" class="edge"><title>Node28&#45;&gt;Node6</title>
<path fill="none" stroke="midnightblue" d="M479.587,-224.083C487.159,-216.22 498.378,-204.569 507.514,-195.081"/>
<polygon fill="midnightblue" stroke="midnightblue" points="510.158,-197.382 514.573,-187.751 505.115,-192.527 510.158,-197.382"/>
</g>
<!-- Node28&#45;&gt;Node17 -->
<g id="edge50" class="edge"><title>Node28&#45;&gt;Node17</title>
<path fill="none" stroke="midnightblue" d="M458.789,-224.324C447.224,-216.107 429.625,-203.602 415.839,-193.807"/>
<polygon fill="midnightblue" stroke="midnightblue" points="417.612,-190.773 407.433,-187.834 413.557,-196.479 417.612,-190.773"/>
</g>
<!-- Node28&#45;&gt;Node18 -->
<g id="edge49" class="edge"><title>Node28&#45;&gt;Node18</title>
<path fill="none" stroke="midnightblue" d="M469.745,-224.368C467.162,-206.617 461.206,-165.666 457.705,-141.597"/>
<polygon fill="midnightblue" stroke="midnightblue" points="461.153,-140.983 456.25,-131.591 454.226,-141.991 461.153,-140.983"/>
</g>
<!-- Node29&#45;&gt;Node2 -->
<g id="edge52" class="edge"><title>Node29&#45;&gt;Node2</title>
<path fill="none" stroke="midnightblue" d="M196.212,-286.249C164.365,-281.963 121.593,-271.143 95,-244 73.9368,-222.501 76,-209.098 76,-179 76,-179 76,-179 76,-121 76,-54.6181 163.937,-27.6463 220.161,-17.1854"/>
<polygon fill="midnightblue" stroke="midnightblue" points="221.015,-20.5894 230.262,-15.4185 219.809,-13.694 221.015,-20.5894"/>
</g>
<!-- Node30&#45;&gt;Node2 -->
<g id="edge54" class="edge"><title>Node30&#45;&gt;Node2</title>
<path fill="none" stroke="midnightblue" d="M956,-448.442C956,-429.936 956,-384.812 956,-347 956,-347 956,-347 956,-121 956,-90.7745 959.697,-74.762 936,-56 887.29,-17.435 455.154,-11.8936 311.905,-11.1189"/>
<polygon fill="midnightblue" stroke="midnightblue" points="311.721,-7.61803 301.704,-11.0692 311.687,-14.618 311.721,-7.61803"/>
</g>
<!-- Node30&#45;&gt;Node3 -->
<g id="edge56" class="edge"><title>Node30&#45;&gt;Node3</title>
<path fill="none" stroke="midnightblue" d="M970.942,-448.324C985.585,-439.822 1008.13,-426.729 1025.24,-416.797"/>
<polygon fill="midnightblue" stroke="midnightblue" points="1027.2,-419.703 1034.1,-411.655 1023.69,-413.649 1027.2,-419.703"/>
</g>
<!-- Node30&#45;&gt;Node11 -->
<g id="edge55" class="edge"><title>Node30&#45;&gt;Node11</title>
<path fill="none" stroke="midnightblue" d="M961.284,-448.231C971.725,-430.043 994,-386.601 994,-347 994,-347 994,-347 994,-121 994,-90.2048 990.924,-78.595 970,-56 960.679,-45.9347 929.915,-32.6468 905.313,-23.1241"/>
<polygon fill="midnightblue" stroke="midnightblue" points="906.497,-19.8299 895.906,-19.5473 904.009,-26.3729 906.497,-19.8299"/>
</g>
<!-- Node31&#45;&gt;Node7 -->
<g id="edge59" class="edge"><title>Node31&#45;&gt;Node7</title>
<path fill="none" stroke="midnightblue" d="M638.753,-448.324C628.203,-440.185 612.199,-427.839 599.558,-418.087"/>
<polygon fill="midnightblue" stroke="midnightblue" points="601.507,-415.171 591.451,-411.834 597.231,-420.713 601.507,-415.171"/>
</g>
<!-- Node32 -->
<g id="node32" class="node"><title>Node32</title>
<polygon fill="none" stroke="#bfbfbf" points="630.5,-392.5 630.5,-411.5 675.5,-411.5 675.5,-392.5 630.5,-392.5"/>
<text text-anchor="middle" x="653" y="-399.5" font-family="Helvetica,sans-Serif" font-size="10.00">climits</text>
</g>
<!-- Node31&#45;&gt;Node32 -->
<g id="edge58" class="edge"><title>Node31&#45;&gt;Node32</title>
<path fill="none" stroke="midnightblue" d="M650.495,-448.083C650.889,-441.006 651.452,-430.861 651.945,-421.986"/>
<polygon fill="midnightblue" stroke="midnightblue" points="655.454,-421.93 652.514,-411.751 648.464,-421.542 655.454,-421.93"/>
</g>
</g>
</svg>
