<?xml version="1.0" encoding="UTF-8" standalone="no"?>
<!DOCTYPE svg PUBLIC "-//W3C//DTD SVG 1.1//EN"
 "http://www.w3.org/Graphics/SVG/1.1/DTD/svg11.dtd">
<!-- Generated by graphviz version 2.36.0 (20140111.2315)
 -->
<!-- Title: common/fraser/gc.h Pages: 1 -->
<!--zoomable 208 -->
<svg id="main" version="1.1" xmlns="http://www.w3.org/2000/svg" xmlns:xlink="http://www.w3.org/1999/xlink" xml:space="preserve" onload="init(evt)">
<style type="text/css"><![CDATA[
.edge:hover path { stroke: red; }
.edge:hover polygon { stroke: red; fill: red; }
]]></style>
<script type="text/javascript"><![CDATA[
var edges = document.getElementsByTagName('g');
if (edges && edges.length) {
  for (var i=0;i<edges.length;i++) {
    if (edges[i].id.substr(0,4)=='edge') {
      edges[i].setAttribute('class','edge');
    }
  }
}
]]></script>
        <defs>
                <circle id="rim" cx="0" cy="0" r="7"/>
                <circle id="rim2" cx="0" cy="0" r="3.5"/>
                <g id="zoomPlus">
                        <use xlink:href="#rim" fill="#404040">
                                <set attributeName="fill" to="#808080" begin="zoomplus.mouseover" end="zoomplus.mouseout"/>
                        </use>
                        <path d="M-4,0h8M0,-4v8" fill="none" stroke="white" stroke-width="1.5" pointer-events="none"/>
                </g>
                <g id="zoomMin">
                        <use xlink:href="#rim" fill="#404040">
                                <set attributeName="fill" to="#808080" begin="zoomminus.mouseover" end="zoomminus.mouseout"/>
                        </use>
                        <path d="M-4,0h8" fill="none" stroke="white" stroke-width="1.5" pointer-events="none"/>
                </g>
                <g id="dirArrow">
                        <path fill="none" stroke="white" stroke-width="1.5" d="M0,-3.0v7 M-2.5,-0.5L0,-3.0L2.5,-0.5"/>
                </g>
               <g id="resetDef">
                       <use xlink:href="#rim2" fill="#404040">
                               <set attributeName="fill" to="#808080" begin="reset.mouseover" end="reset.mouseout"/>
                       </use>
               </g>
        </defs>

<script type="text/javascript">
var viewWidth = 839;
var viewHeight = 208;
var sectionId = 'dynsection-1';
</script>
<script xlink:href="svgpan.js"/>
<svg id="graph" class="graph">
<g id="viewport">
<title>common/fraser/gc.h</title>
<!-- Node1 -->
<g id="node1" class="node"><title>Node1</title>
<polygon fill="#bfbfbf" stroke="black" points="549,-180.5 549,-199.5 653,-199.5 653,-180.5 549,-180.5"/>
<text text-anchor="middle" x="601" y="-187.5" font-family="Helvetica,sans-Serif" font-size="10.00">common/fraser/gc.h</text>
</g>
<!-- Node2 -->
<g id="node2" class="node"><title>Node2</title>
<g id="a_node2"><a xlink:href="ptst_8h.html" target="_top" xlink:title="common/fraser/ptst.h">
<polygon fill="none" stroke="black" points="414,-124.5 414,-143.5 524,-143.5 524,-124.5 414,-124.5"/>
<text text-anchor="middle" x="469" y="-131.5" font-family="Helvetica,sans-Serif" font-size="10.00">common/fraser/ptst.h</text>
</a>
</g>
</g>
<!-- Node1&#45;&gt;Node2 -->
<g id="edge1" class="edge"><title>Node1&#45;&gt;Node2</title>
<path fill="none" stroke="midnightblue" d="M565.352,-176.772C539.037,-166.629 504.645,-152.467 484.738,-143.516"/>
<polygon fill="midnightblue" stroke="midnightblue" points="564.405,-180.156 574.995,-180.444 566.895,-173.614 564.405,-180.156"/>
</g>
<!-- Node6 -->
<g id="node6" class="node"><title>Node6</title>
<g id="a_node6"><a xlink:href="stmskip_8cc.html" target="_top" xlink:title="ostm/skiplist/stmskip.cc">
<polygon fill="none" stroke="black" points="463.5,-0.5 463.5,-19.5 586.5,-19.5 586.5,-0.5 463.5,-0.5"/>
<text text-anchor="middle" x="525" y="-7.5" font-family="Helvetica,sans-Serif" font-size="10.00">ostm/skiplist/stmskip.cc</text>
</a>
</g>
</g>
<!-- Node1&#45;&gt;Node6 -->
<g id="edge11" class="edge"><title>Node1&#45;&gt;Node6</title>
<path fill="none" stroke="midnightblue" d="M621.558,-174.082C653.944,-148.764 710.201,-96.2156 680,-56 667.633,-39.5314 618.361,-27.1382 578.645,-19.5703"/>
<polygon fill="midnightblue" stroke="midnightblue" points="619.368,-171.351 613.527,-180.189 623.605,-176.923 619.368,-171.351"/>
</g>
<!-- Node7 -->
<g id="node7" class="node"><title>Node7</title>
<g id="a_node7"><a xlink:href="stm__fraser_8c.html" target="_top" xlink:title="common/fraser/stm_fraser.c">
<polygon fill="none" stroke="black" points="531,-62.5 531,-81.5 671,-81.5 671,-62.5 531,-62.5"/>
<text text-anchor="middle" x="601" y="-69.5" font-family="Helvetica,sans-Serif" font-size="10.00">common/fraser/stm_fraser.c</text>
</a>
</g>
</g>
<!-- Node1&#45;&gt;Node7 -->
<g id="edge10" class="edge"><title>Node1&#45;&gt;Node7</title>
<path fill="none" stroke="midnightblue" d="M601,-170.025C601,-144.464 601,-100.041 601,-81.5048"/>
<polygon fill="midnightblue" stroke="midnightblue" points="597.5,-170.281 601,-180.281 604.5,-170.281 597.5,-170.281"/>
</g>
<!-- Node9 -->
<g id="node9" class="node"><title>Node9</title>
<g id="a_node9"><a xlink:href="gc_8c.html" target="_top" xlink:title="common/fraser/gc.c">
<polygon fill="none" stroke="black" points="727,-124.5 727,-143.5 831,-143.5 831,-124.5 727,-124.5"/>
<text text-anchor="middle" x="779" y="-131.5" font-family="Helvetica,sans-Serif" font-size="10.00">common/fraser/gc.c</text>
</a>
</g>
</g>
<!-- Node1&#45;&gt;Node9 -->
<g id="edge9" class="edge"><title>Node1&#45;&gt;Node9</title>
<path fill="none" stroke="midnightblue" d="M639.117,-177.436C672.678,-167.255 720.774,-152.664 750.927,-143.516"/>
<polygon fill="midnightblue" stroke="midnightblue" points="637.758,-174.191 629.205,-180.444 639.79,-180.89 637.758,-174.191"/>
</g>
<!-- Node2&#45;&gt;Node1 -->
<g id="edge3" class="edge"><title>Node2&#45;&gt;Node1</title>
<path fill="none" stroke="midnightblue" d="M504.53,-147.183C530.821,-157.314 565.223,-171.478 585.173,-180.444"/>
<polygon fill="midnightblue" stroke="midnightblue" points="505.489,-143.803 494.898,-143.516 502.999,-150.345 505.489,-143.803"/>
</g>
<!-- Node3 -->
<g id="node3" class="node"><title>Node3</title>
<g id="a_node3"><a xlink:href="lockfreeskip_8c.html" target="_top" xlink:title="boosting/skiplist/lockfreeskip.c">
<polygon fill="none" stroke="black" points="-0.5,-62.5 -0.5,-81.5 150.5,-81.5 150.5,-62.5 -0.5,-62.5"/>
<text text-anchor="middle" x="75" y="-69.5" font-family="Helvetica,sans-Serif" font-size="10.00">boosting/skiplist/lockfreeskip.c</text>
</a>
</g>
</g>
<!-- Node2&#45;&gt;Node3 -->
<g id="edge2" class="edge"><title>Node2&#45;&gt;Node3</title>
<path fill="none" stroke="midnightblue" d="M403.819,-124.087C341.223,-115.391 244.035,-101.531 160,-88 147.573,-85.999 134.149,-83.6962 121.721,-81.5051"/>
<polygon fill="midnightblue" stroke="midnightblue" points="403.558,-127.585 413.943,-125.491 404.519,-120.651 403.558,-127.585"/>
</g>
<!-- Node4 -->
<g id="node4" class="node"><title>Node4</title>
<g id="a_node4"><a xlink:href="ptst_8c.html" target="_top" xlink:title="common/fraser/ptst.c">
<polygon fill="none" stroke="black" points="169,-62.5 169,-81.5 279,-81.5 279,-62.5 169,-62.5"/>
<text text-anchor="middle" x="224" y="-69.5" font-family="Helvetica,sans-Serif" font-size="10.00">common/fraser/ptst.c</text>
</a>
</g>
</g>
<!-- Node2&#45;&gt;Node4 -->
<g id="edge4" class="edge"><title>Node2&#45;&gt;Node4</title>
<path fill="none" stroke="midnightblue" d="M424.417,-122.082C376.759,-110.41 302.203,-92.1517 258.722,-81.5034"/>
<polygon fill="midnightblue" stroke="midnightblue" points="423.612,-125.488 434.158,-124.467 425.277,-118.689 423.612,-125.488"/>
</g>
<!-- Node5 -->
<g id="node5" class="node"><title>Node5</title>
<g id="a_node5"><a xlink:href="stm_8h.html" target="_top" xlink:title="common/fraser/stm.h">
<polygon fill="none" stroke="black" points="297,-62.5 297,-81.5 407,-81.5 407,-62.5 297,-62.5"/>
<text text-anchor="middle" x="352" y="-69.5" font-family="Helvetica,sans-Serif" font-size="10.00">common/fraser/stm.h</text>
</a>
</g>
</g>
<!-- Node2&#45;&gt;Node5 -->
<g id="edge5" class="edge"><title>Node2&#45;&gt;Node5</title>
<path fill="none" stroke="midnightblue" d="M443.174,-119.756C420.499,-108.127 388.18,-91.5538 368.732,-81.5806"/>
<polygon fill="midnightblue" stroke="midnightblue" points="441.741,-122.955 452.237,-124.403 444.936,-116.726 441.741,-122.955"/>
</g>
<!-- Node2&#45;&gt;Node7 -->
<g id="edge7" class="edge"><title>Node2&#45;&gt;Node7</title>
<path fill="none" stroke="midnightblue" d="M497.115,-120.221C522.74,-108.573 559.888,-91.6874 582.123,-81.5806"/>
<polygon fill="midnightblue" stroke="midnightblue" points="495.568,-117.079 487.912,-124.403 498.464,-123.452 495.568,-117.079"/>
</g>
<!-- Node8 -->
<g id="node8" class="node"><title>Node8</title>
<g id="a_node8"><a xlink:href="transskip_8cc.html" target="_top" xlink:title="translink/skiplist\l/transskip.cc">
<polygon fill="none" stroke="black" points="425.5,-57 425.5,-87 512.5,-87 512.5,-57 425.5,-57"/>
<text text-anchor="start" x="433.5" y="-75" font-family="Helvetica,sans-Serif" font-size="10.00">translink/skiplist</text>
<text text-anchor="middle" x="469" y="-64" font-family="Helvetica,sans-Serif" font-size="10.00">/transskip.cc</text>
</a>
</g>
</g>
<!-- Node2&#45;&gt;Node8 -->
<g id="edge8" class="edge"><title>Node2&#45;&gt;Node8</title>
<path fill="none" stroke="midnightblue" d="M469,-114.371C469,-105.585 469,-95.2721 469,-87.1408"/>
<polygon fill="midnightblue" stroke="midnightblue" points="465.5,-114.403 469,-124.403 472.5,-114.403 465.5,-114.403"/>
</g>
<!-- Node5&#45;&gt;Node6 -->
<g id="edge6" class="edge"><title>Node5&#45;&gt;Node6</title>
<path fill="none" stroke="midnightblue" d="M386.65,-58.9826C420.278,-47.3197 470.476,-29.91 500.259,-19.5806"/>
<polygon fill="midnightblue" stroke="midnightblue" points="385.088,-55.8199 376.787,-62.4035 387.381,-62.4334 385.088,-55.8199"/>
</g>
</g>
</svg>
        <g id="navigator" transform="translate(0 0)" fill="#404254">
                <rect fill="#f2f5e9" fill-opacity="0.5" stroke="#606060" stroke-width=".5" x="0" y="0" width="60" height="60"/>
                <use id="zoomplus" xlink:href="#zoomPlus" x="17" y="9" onmousedown="handleZoom(evt,'in')"/>
                <use id="zoomminus" xlink:href="#zoomMin" x="42" y="9" onmousedown="handleZoom(evt,'out')"/>
                <use id="reset" xlink:href="#resetDef" x="30" y="36" onmousedown="handleReset()"/>
                <g id="arrowUp" xlink:href="#dirArrow" transform="translate(30 24)" onmousedown="handlePan(0,-1)">
                  <use xlink:href="#rim" fill="#404040">
                        <set attributeName="fill" to="#808080" begin="arrowUp.mouseover" end="arrowUp.mouseout"/>
                  </use>
                  <path fill="none" stroke="white" stroke-width="1.5" d="M0,-3.0v7 M-2.5,-0.5L0,-3.0L2.5,-0.5"/>
                </g>
                <g id="arrowRight" xlink:href="#dirArrow" transform="rotate(90) translate(36 -43)" onmousedown="handlePan(1,0)">
                  <use xlink:href="#rim" fill="#404040">
                        <set attributeName="fill" to="#808080" begin="arrowRight.mouseover" end="arrowRight.mouseout"/>
                  </use>
                  <path fill="none" stroke="white" stroke-width="1.5" d="M0,-3.0v7 M-2.5,-0.5L0,-3.0L2.5,-0.5"/>
                </g>
                <g id="arrowDown" xlink:href="#dirArrow" transform="rotate(180) translate(-30 -48)" onmousedown="handlePan(0,1)">
                  <use xlink:href="#rim" fill="#404040">
                        <set attributeName="fill" to="#808080" begin="arrowDown.mouseover" end="arrowDown.mouseout"/>
                  </use>
                  <path fill="none" stroke="white" stroke-width="1.5" d="M0,-3.0v7 M-2.5,-0.5L0,-3.0L2.5,-0.5"/>
                </g>
                <g id="arrowLeft" xlink:href="#dirArrow" transform="rotate(270) translate(-36 17)" onmousedown="handlePan(-1,0)">
                  <use xlink:href="#rim" fill="#404040">
                        <set attributeName="fill" to="#808080" begin="arrowLeft.mouseover" end="arrowLeft.mouseout"/>
                  </use>
                  <path fill="none" stroke="white" stroke-width="1.5" d="M0,-3.0v7 M-2.5,-0.5L0,-3.0L2.5,-0.5"/>
                </g>
        </g>
        <svg viewBox="0 0 15 15" width="100%" height="30px" preserveAspectRatio="xMaxYMin meet">
         <g id="arrow_out" transform="scale(0.3 0.3)">
          <a xlink:href="gc_8h__dep__incl_org.svg" target="_base">
           <rect id="button" ry="5" rx="5" y="6" x="6" height="38" width="38"
                fill="#f2f5e9" fill-opacity="0.5" stroke="#606060" stroke-width="1.0"/>
           <path id="arrow"
             d="M 11.500037,31.436501 C 11.940474,20.09759 22.043105,11.32322 32.158766,21.979434 L 37.068811,17.246167 C 37.068811,17.246167 37.088388,32 37.088388,32 L 22.160133,31.978069 C 22.160133,31.978069 26.997745,27.140456 26.997745,27.140456 C 18.528582,18.264221 13.291696,25.230495 11.500037,31.436501 z"
             style="fill:#404040;"/>
          </a>
         </g>
        </svg>
</svg>
