<?xml version="1.0" encoding="UTF-8" standalone="no"?>
<!DOCTYPE svg PUBLIC "-//W3C//DTD SVG 1.1//EN"
 "http://www.w3.org/Graphics/SVG/1.1/DTD/svg11.dtd">
<!-- Generated by graphviz version 2.36.0 (20140111.2315)
 -->
<!-- Title: get_alloc_chunk Pages: 1 -->
<svg width="498pt" height="66pt"
 viewBox="0.00 0.00 498.00 66.00" xmlns="http://www.w3.org/2000/svg" xmlns:xlink="http://www.w3.org/1999/xlink">
<g id="graph0" class="graph" transform="scale(1 1) rotate(0) translate(4 62)">
<title>get_alloc_chunk</title>
<!-- Node1 -->
<g id="node1" class="node"><title>Node1</title>
<polygon fill="#bfbfbf" stroke="black" points="0.5,-19.5 0.5,-38.5 87.5,-38.5 87.5,-19.5 0.5,-19.5"/>
<text text-anchor="middle" x="44" y="-26.5" font-family="Helvetica,sans-Serif" font-size="10.00">get_alloc_chunk</text>
</g>
<!-- Node2 -->
<g id="node2" class="node"><title>Node2</title>
<g id="a_node2"><a xlink:href="gc_8c.html#ae47e099483bed50da4e41b906c300b99" target="_top" xlink:title="get_filled_chunks">
<polygon fill="none" stroke="black" points="124,-38.5 124,-57.5 216,-57.5 216,-38.5 124,-38.5"/>
<text text-anchor="middle" x="170" y="-45.5" font-family="Helvetica,sans-Serif" font-size="10.00">get_filled_chunks</text>
</a>
</g>
</g>
<!-- Node1&#45;&gt;Node2 -->
<g id="edge1" class="edge"><title>Node1&#45;&gt;Node2</title>
<path fill="none" stroke="midnightblue" d="M87.6738,-35.5387C96.0323,-36.8195 104.912,-38.18 113.615,-39.5136"/>
<polygon fill="midnightblue" stroke="midnightblue" points="113.295,-43.0053 123.71,-41.0603 114.355,-36.086 113.295,-43.0053"/>
</g>
<!-- Node4 -->
<g id="node4" class="node"><title>Node4</title>
<g id="a_node4"><a xlink:href="gc_8c.html#ac360b80b93ad00f0fba18a1993e1d6a0" target="_top" xlink:title="add_chunks_to_list">
<polygon fill="none" stroke="black" points="388.5,-0.5 388.5,-19.5 489.5,-19.5 489.5,-0.5 388.5,-0.5"/>
<text text-anchor="middle" x="439" y="-7.5" font-family="Helvetica,sans-Serif" font-size="10.00">add_chunks_to_list</text>
</a>
</g>
</g>
<!-- Node1&#45;&gt;Node4 -->
<g id="edge5" class="edge"><title>Node1&#45;&gt;Node4</title>
<path fill="none" stroke="midnightblue" d="M87.806,-26.9305C158.06,-23.534 298,-16.7684 378.074,-12.8972"/>
<polygon fill="midnightblue" stroke="midnightblue" points="378.667,-16.3727 388.486,-12.3938 378.329,-9.38088 378.667,-16.3727"/>
</g>
<!-- Node3 -->
<g id="node3" class="node"><title>Node3</title>
<g id="a_node3"><a xlink:href="gc_8c.html#a2a6f41199ed37925df4cc7b9909dc0ed" target="_top" xlink:title="get_empty_chunks">
<polygon fill="none" stroke="black" points="252.5,-38.5 252.5,-57.5 351.5,-57.5 351.5,-38.5 252.5,-38.5"/>
<text text-anchor="middle" x="302" y="-45.5" font-family="Helvetica,sans-Serif" font-size="10.00">get_empty_chunks</text>
</a>
</g>
</g>
<!-- Node2&#45;&gt;Node3 -->
<g id="edge2" class="edge"><title>Node2&#45;&gt;Node3</title>
<path fill="none" stroke="midnightblue" d="M216.103,-48C224.536,-48 233.464,-48 242.239,-48"/>
<polygon fill="midnightblue" stroke="midnightblue" points="242.431,-51.5001 252.431,-48 242.431,-44.5001 242.431,-51.5001"/>
</g>
<!-- Node3&#45;&gt;Node4 -->
<g id="edge3" class="edge"><title>Node3&#45;&gt;Node4</title>
<path fill="none" stroke="midnightblue" d="M337.066,-38.411C354.413,-33.5281 375.702,-27.5357 394.249,-22.315"/>
<polygon fill="midnightblue" stroke="midnightblue" points="395.267,-25.6646 403.945,-19.5859 393.37,-18.9265 395.267,-25.6646"/>
</g>
<!-- Node5 -->
<g id="node5" class="node"><title>Node5</title>
<g id="a_node5"><a xlink:href="gc_8c.html#ade31863985bdaa481ade142bdfb6d99f" target="_top" xlink:title="alloc_more_chunks">
<polygon fill="none" stroke="black" points="388.5,-38.5 388.5,-57.5 489.5,-57.5 489.5,-38.5 388.5,-38.5"/>
<text text-anchor="middle" x="439" y="-45.5" font-family="Helvetica,sans-Serif" font-size="10.00">alloc_more_chunks</text>
</a>
</g>
</g>
<!-- Node3&#45;&gt;Node5 -->
<g id="edge4" class="edge"><title>Node3&#45;&gt;Node5</title>
<path fill="none" stroke="midnightblue" d="M351.738,-48C360.315,-48 369.331,-48 378.169,-48"/>
<polygon fill="midnightblue" stroke="midnightblue" points="378.426,-51.5001 388.426,-48 378.426,-44.5001 378.426,-51.5001"/>
</g>
</g>
</svg>
