<?xml version="1.0" encoding="UTF-8" standalone="no"?>
<!DOCTYPE svg PUBLIC "-//W3C//DTD SVG 1.1//EN"
 "http://www.w3.org/Graphics/SVG/1.1/DTD/svg11.dtd">
<!-- Generated by graphviz version 2.36.0 (20140111.2315)
 -->
<!-- Title: grid_setPoint Pages: 1 -->
<!--zoomable 142 -->
<svg id="main" version="1.1" xmlns="http://www.w3.org/2000/svg" xmlns:xlink="http://www.w3.org/1999/xlink" xml:space="preserve" onload="init(evt)">
<style type="text/css"><![CDATA[
.edge:hover path { stroke: red; }
.edge:hover polygon { stroke: red; fill: red; }
]]></style>
<script type="text/javascript"><![CDATA[
var edges = document.getElementsByTagName('g');
if (edges && edges.length) {
  for (var i=0;i<edges.length;i++) {
    if (edges[i].id.substr(0,4)=='edge') {
      edges[i].setAttribute('class','edge');
    }
  }
}
]]></script>
        <defs>
                <circle id="rim" cx="0" cy="0" r="7"/>
                <circle id="rim2" cx="0" cy="0" r="3.5"/>
                <g id="zoomPlus">
                        <use xlink:href="#rim" fill="#404040">
                                <set attributeName="fill" to="#808080" begin="zoomplus.mouseover" end="zoomplus.mouseout"/>
                        </use>
                        <path d="M-4,0h8M0,-4v8" fill="none" stroke="white" stroke-width="1.5" pointer-events="none"/>
                </g>
                <g id="zoomMin">
                        <use xlink:href="#rim" fill="#404040">
                                <set attributeName="fill" to="#808080" begin="zoomminus.mouseover" end="zoomminus.mouseout"/>
                        </use>
                        <path d="M-4,0h8" fill="none" stroke="white" stroke-width="1.5" pointer-events="none"/>
                </g>
                <g id="dirArrow">
                        <path fill="none" stroke="white" stroke-width="1.5" d="M0,-3.0v7 M-2.5,-0.5L0,-3.0L2.5,-0.5"/>
                </g>
               <g id="resetDef">
                       <use xlink:href="#rim2" fill="#404040">
                               <set attributeName="fill" to="#808080" begin="reset.mouseover" end="reset.mouseout"/>
                       </use>
               </g>
        </defs>

<script type="text/javascript">
var viewWidth = 512;
var viewHeight = 142;
var sectionId = 'dynsection-20';
</script>
<script xlink:href="svgpan.js"/>
<svg id="graph" class="graph">
<g id="viewport">
<title>grid_setPoint</title>
<!-- Node1 -->
<g id="node1" class="node"><title>Node1</title>
<polygon fill="#bfbfbf" stroke="black" points="0,-57.5 0,-76.5 74,-76.5 74,-57.5 0,-57.5"/>
<text text-anchor="middle" x="37" y="-64.5" font-family="Helvetica,sans-Serif" font-size="10.00">grid_setPoint</text>
</g>
<!-- Node2 -->
<g id="node2" class="node"><title>Node2</title>
<g id="a_node2"><a xlink:href="grid_8h.html#aebb205a584b3af6d9301883ebd5bc895" target="_top" xlink:title="grid_addPath">
<polygon fill="none" stroke="black" points="113,-114.5 113,-133.5 187,-133.5 187,-114.5 113,-114.5"/>
<text text-anchor="middle" x="150" y="-121.5" font-family="Helvetica,sans-Serif" font-size="10.00">grid_addPath</text>
</a>
</g>
</g>
<!-- Node1&#45;&gt;Node2 -->
<g id="edge1" class="edge"><title>Node1&#45;&gt;Node2</title>
<path fill="none" stroke="midnightblue" d="M65.6093,-81.1777C85.8022,-91.5471 112.651,-105.334 130.36,-114.428"/>
<polygon fill="midnightblue" stroke="midnightblue" points="67.0734,-77.9951 56.5789,-76.5405 63.8758,-84.2221 67.0734,-77.9951"/>
</g>
<!-- Node6 -->
<g id="node6" class="node"><title>Node6</title>
<g id="a_node6"><a xlink:href="maze_8h.html#a3a26e3e203155748b35f8c460dcc6401" target="_top" xlink:title="maze_checkPaths">
<polygon fill="none" stroke="black" points="226,-76.5 226,-95.5 324,-95.5 324,-76.5 226,-76.5"/>
<text text-anchor="middle" x="275" y="-83.5" font-family="Helvetica,sans-Serif" font-size="10.00">maze_checkPaths</text>
</a>
</g>
</g>
<!-- Node1&#45;&gt;Node6 -->
<g id="edge7" class="edge"><title>Node1&#45;&gt;Node6</title>
<path fill="none" stroke="midnightblue" d="M84.3062,-70.728C125.08,-74.0107 184.246,-78.774 225.627,-82.1055"/>
<polygon fill="midnightblue" stroke="midnightblue" points="84.3489,-67.2202 74.1002,-69.9064 83.7871,-74.1977 84.3489,-67.2202"/>
</g>
<!-- Node7 -->
<g id="node7" class="node"><title>Node7</title>
<g id="a_node7"><a xlink:href="router_8c.html#a30a3b3fa79c8edd2bc05533b7a3ef342" target="_top" xlink:title="PdoExpansion">
<polygon fill="none" stroke="black" points="110,-38.5 110,-57.5 190,-57.5 190,-38.5 110,-38.5"/>
<text text-anchor="middle" x="150" y="-45.5" font-family="Helvetica,sans-Serif" font-size="10.00">PdoExpansion</text>
</a>
</g>
</g>
<!-- Node1&#45;&gt;Node7 -->
<g id="edge8" class="edge"><title>Node1&#45;&gt;Node7</title>
<path fill="none" stroke="midnightblue" d="M83.8991,-59.1434C92.4655,-57.6771 101.347,-56.1569 109.692,-54.7284"/>
<polygon fill="midnightblue" stroke="midnightblue" points="83.3046,-55.6942 74.0385,-60.8312 84.4857,-62.5938 83.3046,-55.6942"/>
</g>
<!-- Node9 -->
<g id="node9" class="node"><title>Node9</title>
<g id="a_node9"><a xlink:href="router_8c.html#ac5973d035daa93806bb4391426b310f4" target="_top" xlink:title="PdoTraceback">
<polygon fill="none" stroke="black" points="110,-0.5 110,-19.5 190,-19.5 190,-0.5 110,-0.5"/>
<text text-anchor="middle" x="150" y="-7.5" font-family="Helvetica,sans-Serif" font-size="10.00">PdoTraceback</text>
</a>
</g>
</g>
<!-- Node1&#45;&gt;Node9 -->
<g id="edge11" class="edge"><title>Node1&#45;&gt;Node9</title>
<path fill="none" stroke="midnightblue" d="M64.8713,-52.5543C78.3616,-45.3694 94.9884,-36.6156 110,-29 116.179,-25.8651 122.954,-22.5296 129.098,-19.5425"/>
<polygon fill="midnightblue" stroke="midnightblue" points="62.8413,-49.6706 55.6705,-57.4701 66.1399,-55.8447 62.8413,-49.6706"/>
</g>
<!-- Node3 -->
<g id="node3" class="node"><title>Node3</title>
<g id="a_node3"><a xlink:href="maze_8c.html#a3e149a3612d14ed3e9fbe35a4287bbd1" target="_top" xlink:title="addToGrid">
<polygon fill="none" stroke="black" points="244,-114.5 244,-133.5 306,-133.5 306,-114.5 244,-114.5"/>
<text text-anchor="middle" x="275" y="-121.5" font-family="Helvetica,sans-Serif" font-size="10.00">addToGrid</text>
</a>
</g>
</g>
<!-- Node2&#45;&gt;Node3 -->
<g id="edge2" class="edge"><title>Node2&#45;&gt;Node3</title>
<path fill="none" stroke="midnightblue" d="M197.68,-124C213.143,-124 229.936,-124 243.822,-124"/>
<polygon fill="midnightblue" stroke="midnightblue" points="197.239,-120.5 187.239,-124 197.239,-127.5 197.239,-120.5"/>
</g>
<!-- Node2&#45;&gt;Node6 -->
<g id="edge5" class="edge"><title>Node2&#45;&gt;Node6</title>
<path fill="none" stroke="midnightblue" d="M192.045,-111.32C208.664,-106.185 227.532,-100.356 242.972,-95.5859"/>
<polygon fill="midnightblue" stroke="midnightblue" points="190.559,-108.115 182.038,-114.411 192.626,-114.803 190.559,-108.115"/>
</g>
<!-- Node4 -->
<g id="node4" class="node"><title>Node4</title>
<g id="a_node4"><a xlink:href="maze_8h.html#a2135cee3a633084c9456873cb7746e0e" target="_top" xlink:title="maze_read">
<polygon fill="none" stroke="black" points="360.5,-114.5 360.5,-133.5 425.5,-133.5 425.5,-114.5 360.5,-114.5"/>
<text text-anchor="middle" x="393" y="-121.5" font-family="Helvetica,sans-Serif" font-size="10.00">maze_read</text>
</a>
</g>
</g>
<!-- Node3&#45;&gt;Node4 -->
<g id="edge3" class="edge"><title>Node3&#45;&gt;Node4</title>
<path fill="none" stroke="midnightblue" d="M316.33,-124C330.748,-124 346.775,-124 360.355,-124"/>
<polygon fill="midnightblue" stroke="midnightblue" points="316.175,-120.5 306.175,-124 316.175,-127.5 316.175,-120.5"/>
</g>
<!-- Node5 -->
<g id="node5" class="node"><title>Node5</title>
<g id="a_node5"><a xlink:href="labyrinth_8c.html#a40c5c0b0d4eb7b59a91108269f69dc89" target="_top" xlink:title="MAIN">
<polygon fill="none" stroke="black" points="462,-76.5 462,-95.5 504,-95.5 504,-76.5 462,-76.5"/>
<text text-anchor="middle" x="483" y="-83.5" font-family="Helvetica,sans-Serif" font-size="10.00">MAIN</text>
</a>
</g>
</g>
<!-- Node4&#45;&gt;Node5 -->
<g id="edge4" class="edge"><title>Node4&#45;&gt;Node5</title>
<path fill="none" stroke="midnightblue" d="M425.55,-110.376C437.666,-105.144 451.155,-99.3196 461.908,-94.6763"/>
<polygon fill="midnightblue" stroke="midnightblue" points="423.999,-107.233 416.206,-114.411 426.774,-113.66 423.999,-107.233"/>
</g>
<!-- Node6&#45;&gt;Node5 -->
<g id="edge6" class="edge"><title>Node6&#45;&gt;Node5</title>
<path fill="none" stroke="midnightblue" d="M334.068,-86C376.891,-86 432.602,-86 461.926,-86"/>
<polygon fill="midnightblue" stroke="midnightblue" points="334.038,-82.5001 324.038,-86 334.038,-89.5001 334.038,-82.5001"/>
</g>
<!-- Node8 -->
<g id="node8" class="node"><title>Node8</title>
<g id="a_node8"><a xlink:href="router_8h.html#afc99f42b8c4c1bdfd53f6e15b75900b7" target="_top" xlink:title="router_solve">
<polygon fill="none" stroke="black" points="240,-38.5 240,-57.5 310,-57.5 310,-38.5 240,-38.5"/>
<text text-anchor="middle" x="275" y="-45.5" font-family="Helvetica,sans-Serif" font-size="10.00">router_solve</text>
</a>
</g>
</g>
<!-- Node7&#45;&gt;Node8 -->
<g id="edge9" class="edge"><title>Node7&#45;&gt;Node8</title>
<path fill="none" stroke="midnightblue" d="M200.569,-48C213.689,-48 227.562,-48 239.675,-48"/>
<polygon fill="midnightblue" stroke="midnightblue" points="200.256,-44.5001 190.256,-48 200.256,-51.5001 200.256,-44.5001"/>
</g>
<!-- Node8&#45;&gt;Node5 -->
<g id="edge10" class="edge"><title>Node8&#45;&gt;Node5</title>
<path fill="none" stroke="midnightblue" d="M319.852,-56.0893C363.741,-64.1852 429.301,-76.2789 461.981,-82.3073"/>
<polygon fill="midnightblue" stroke="midnightblue" points="320.486,-52.6471 310.017,-54.2749 319.216,-59.531 320.486,-52.6471"/>
</g>
<!-- Node9&#45;&gt;Node8 -->
<g id="edge12" class="edge"><title>Node9&#45;&gt;Node8</title>
<path fill="none" stroke="midnightblue" d="M192.045,-22.6804C208.664,-27.8148 227.532,-33.6441 242.972,-38.4141"/>
<polygon fill="midnightblue" stroke="midnightblue" points="192.626,-19.1968 182.038,-19.589 190.559,-25.8849 192.626,-19.1968"/>
</g>
</g>
</svg>
        <g id="navigator" transform="translate(0 0)" fill="#404254">
                <rect fill="#f2f5e9" fill-opacity="0.5" stroke="#606060" stroke-width=".5" x="0" y="0" width="60" height="60"/>
                <use id="zoomplus" xlink:href="#zoomPlus" x="17" y="9" onmousedown="handleZoom(evt,'in')"/>
                <use id="zoomminus" xlink:href="#zoomMin" x="42" y="9" onmousedown="handleZoom(evt,'out')"/>
                <use id="reset" xlink:href="#resetDef" x="30" y="36" onmousedown="handleReset()"/>
                <g id="arrowUp" xlink:href="#dirArrow" transform="translate(30 24)" onmousedown="handlePan(0,-1)">
                  <use xlink:href="#rim" fill="#404040">
                        <set attributeName="fill" to="#808080" begin="arrowUp.mouseover" end="arrowUp.mouseout"/>
                  </use>
                  <path fill="none" stroke="white" stroke-width="1.5" d="M0,-3.0v7 M-2.5,-0.5L0,-3.0L2.5,-0.5"/>
                </g>
                <g id="arrowRight" xlink:href="#dirArrow" transform="rotate(90) translate(36 -43)" onmousedown="handlePan(1,0)">
                  <use xlink:href="#rim" fill="#404040">
                        <set attributeName="fill" to="#808080" begin="arrowRight.mouseover" end="arrowRight.mouseout"/>
                  </use>
                  <path fill="none" stroke="white" stroke-width="1.5" d="M0,-3.0v7 M-2.5,-0.5L0,-3.0L2.5,-0.5"/>
                </g>
                <g id="arrowDown" xlink:href="#dirArrow" transform="rotate(180) translate(-30 -48)" onmousedown="handlePan(0,1)">
                  <use xlink:href="#rim" fill="#404040">
                        <set attributeName="fill" to="#808080" begin="arrowDown.mouseover" end="arrowDown.mouseout"/>
                  </use>
                  <path fill="none" stroke="white" stroke-width="1.5" d="M0,-3.0v7 M-2.5,-0.5L0,-3.0L2.5,-0.5"/>
                </g>
                <g id="arrowLeft" xlink:href="#dirArrow" transform="rotate(270) translate(-36 17)" onmousedown="handlePan(-1,0)">
                  <use xlink:href="#rim" fill="#404040">
                        <set attributeName="fill" to="#808080" begin="arrowLeft.mouseover" end="arrowLeft.mouseout"/>
                  </use>
                  <path fill="none" stroke="white" stroke-width="1.5" d="M0,-3.0v7 M-2.5,-0.5L0,-3.0L2.5,-0.5"/>
                </g>
        </g>
        <svg viewBox="0 0 15 15" width="100%" height="30px" preserveAspectRatio="xMaxYMin meet">
         <g id="arrow_out" transform="scale(0.3 0.3)">
          <a xlink:href="grid_8h_ae0084d041e90d094ce2c24dfffb4ec66_icgraph_org.svg" target="_base">
           <rect id="button" ry="5" rx="5" y="6" x="6" height="38" width="38"
                fill="#f2f5e9" fill-opacity="0.5" stroke="#606060" stroke-width="1.0"/>
           <path id="arrow"
             d="M 11.500037,31.436501 C 11.940474,20.09759 22.043105,11.32322 32.158766,21.979434 L 37.068811,17.246167 C 37.068811,17.246167 37.088388,32 37.088388,32 L 22.160133,31.978069 C 22.160133,31.978069 26.997745,27.140456 26.997745,27.140456 C 18.528582,18.264221 13.291696,25.230495 11.500037,31.436501 z"
             style="fill:#404040;"/>
          </a>
         </g>
        </svg>
</svg>
