<?xml version="1.0" encoding="UTF-8" standalone="no"?>
<!DOCTYPE svg PUBLIC "-//W3C//DTD SVG 1.1//EN"
 "http://www.w3.org/Graphics/SVG/1.1/DTD/svg11.dtd">
<!-- Generated by graphviz version 2.36.0 (20140111.2315)
 -->
<!-- Title: grid_getPointIndices Pages: 1 -->
<svg width="442pt" height="66pt"
 viewBox="0.00 0.00 442.00 66.00" xmlns="http://www.w3.org/2000/svg" xmlns:xlink="http://www.w3.org/1999/xlink">
<g id="graph0" class="graph" transform="scale(1 1) rotate(0) translate(4 62)">
<title>grid_getPointIndices</title>
<!-- Node1 -->
<g id="node1" class="node"><title>Node1</title>
<polygon fill="#bfbfbf" stroke="black" points="0.5,-19.5 0.5,-38.5 105.5,-38.5 105.5,-19.5 0.5,-19.5"/>
<text text-anchor="middle" x="53" y="-26.5" font-family="Helvetica,sans-Serif" font-size="10.00">grid_getPointIndices</text>
</g>
<!-- Node2 -->
<g id="node2" class="node"><title>Node2</title>
<g id="a_node2"><a xlink:href="maze_8h.html#a3a26e3e203155748b35f8c460dcc6401" target="_top" xlink:title="maze_checkPaths">
<polygon fill="none" stroke="black" points="258,-38.5 258,-57.5 356,-57.5 356,-38.5 258,-38.5"/>
<text text-anchor="middle" x="307" y="-45.5" font-family="Helvetica,sans-Serif" font-size="10.00">maze_checkPaths</text>
</a>
</g>
</g>
<!-- Node1&#45;&gt;Node2 -->
<g id="edge1" class="edge"><title>Node1&#45;&gt;Node2</title>
<path fill="none" stroke="midnightblue" d="M115.848,-33.6631C159.637,-36.9647 217.526,-41.3293 257.88,-44.3719"/>
<polygon fill="midnightblue" stroke="midnightblue" points="115.839,-30.1526 105.604,-32.8908 115.313,-37.1328 115.839,-30.1526"/>
</g>
<!-- Node4 -->
<g id="node4" class="node"><title>Node4</title>
<g id="a_node4"><a xlink:href="router_8c.html#a30a3b3fa79c8edd2bc05533b7a3ef342" target="_top" xlink:title="PdoExpansion">
<polygon fill="none" stroke="black" points="142,-0.5 142,-19.5 222,-19.5 222,-0.5 142,-0.5"/>
<text text-anchor="middle" x="182" y="-7.5" font-family="Helvetica,sans-Serif" font-size="10.00">PdoExpansion</text>
</a>
</g>
</g>
<!-- Node1&#45;&gt;Node4 -->
<g id="edge3" class="edge"><title>Node1&#45;&gt;Node4</title>
<path fill="none" stroke="midnightblue" d="M115.666,-19.7744C124.584,-18.4402 133.55,-17.0989 141.86,-15.8557"/>
<polygon fill="midnightblue" stroke="midnightblue" points="115.028,-16.3308 105.656,-21.272 116.064,-23.2538 115.028,-16.3308"/>
</g>
<!-- Node3 -->
<g id="node3" class="node"><title>Node3</title>
<g id="a_node3"><a xlink:href="labyrinth_8c.html#a40c5c0b0d4eb7b59a91108269f69dc89" target="_top" xlink:title="MAIN">
<polygon fill="none" stroke="black" points="392,-19.5 392,-38.5 434,-38.5 434,-19.5 392,-19.5"/>
<text text-anchor="middle" x="413" y="-26.5" font-family="Helvetica,sans-Serif" font-size="10.00">MAIN</text>
</a>
</g>
</g>
<!-- Node2&#45;&gt;Node3 -->
<g id="edge2" class="edge"><title>Node2&#45;&gt;Node3</title>
<path fill="none" stroke="midnightblue" d="M366.146,-37.3771C375.414,-35.6839 384.419,-34.0389 391.958,-32.6615"/>
<polygon fill="midnightblue" stroke="midnightblue" points="365.251,-33.9827 356.042,-39.223 366.509,-40.8688 365.251,-33.9827"/>
</g>
<!-- Node5 -->
<g id="node5" class="node"><title>Node5</title>
<g id="a_node5"><a xlink:href="router_8h.html#afc99f42b8c4c1bdfd53f6e15b75900b7" target="_top" xlink:title="router_solve">
<polygon fill="none" stroke="black" points="272,-0.5 272,-19.5 342,-19.5 342,-0.5 272,-0.5"/>
<text text-anchor="middle" x="307" y="-7.5" font-family="Helvetica,sans-Serif" font-size="10.00">router_solve</text>
</a>
</g>
</g>
<!-- Node4&#45;&gt;Node5 -->
<g id="edge4" class="edge"><title>Node4&#45;&gt;Node5</title>
<path fill="none" stroke="midnightblue" d="M232.569,-10C245.689,-10 259.562,-10 271.675,-10"/>
<polygon fill="midnightblue" stroke="midnightblue" points="232.256,-6.5001 222.256,-10 232.256,-13.5001 232.256,-6.5001"/>
</g>
<!-- Node5&#45;&gt;Node3 -->
<g id="edge5" class="edge"><title>Node5&#45;&gt;Node3</title>
<path fill="none" stroke="midnightblue" d="M351.958,-18.0308C365.83,-20.5652 380.485,-23.2425 391.844,-25.3176"/>
<polygon fill="midnightblue" stroke="midnightblue" points="352.52,-14.5756 342.053,-16.2213 351.262,-21.4616 352.52,-14.5756"/>
</g>
</g>
</svg>
