<?xml version="1.0" encoding="UTF-8" standalone="no"?>
<!DOCTYPE svg PUBLIC "-//W3C//DTD SVG 1.1//EN"
 "http://www.w3.org/Graphics/SVG/1.1/DTD/svg11.dtd">
<!-- Generated by graphviz version 2.36.0 (20140111.2315)
 -->
<!-- Title: rstm/rstm&#45;dev/stamp&#45;0.9.10/labyrinth/grid.c Pages: 1 -->
<svg width="453pt" height="320pt"
 viewBox="0.00 0.00 453.00 320.00" xmlns="http://www.w3.org/2000/svg" xmlns:xlink="http://www.w3.org/1999/xlink">
<g id="graph0" class="graph" transform="scale(1 1) rotate(0) translate(4 316)">
<title>rstm/rstm&#45;dev/stamp&#45;0.9.10/labyrinth/grid.c</title>
<!-- Node1 -->
<g id="node1" class="node"><title>Node1</title>
<polygon fill="#bfbfbf" stroke="black" points="158.5,-281 158.5,-311 271.5,-311 271.5,-281 158.5,-281"/>
<text text-anchor="start" x="166.5" y="-299" font-family="Helvetica,sans-Serif" font-size="10.00">rstm/rstm&#45;dev/stamp</text>
<text text-anchor="middle" x="215" y="-288" font-family="Helvetica,sans-Serif" font-size="10.00">&#45;0.9.10/labyrinth/grid.c</text>
</g>
<!-- Node2 -->
<g id="node2" class="node"><title>Node2</title>
<g id="a_node2"><a xlink:href="assert_8h.html" target="_top" xlink:title="assert.h">
<polygon fill="none" stroke="black" points="0,-56.5 0,-75.5 52,-75.5 52,-56.5 0,-56.5"/>
<text text-anchor="middle" x="26" y="-63.5" font-family="Helvetica,sans-Serif" font-size="10.00">assert.h</text>
</a>
</g>
</g>
<!-- Node1&#45;&gt;Node2 -->
<g id="edge1" class="edge"><title>Node1&#45;&gt;Node2</title>
<path fill="none" stroke="midnightblue" d="M158.368,-283.645C131.181,-275.985 99.4945,-263.588 76,-244 28.419,-204.33 24.2393,-123.135 25.0053,-86.1344"/>
<polygon fill="midnightblue" stroke="midnightblue" points="28.5159,-85.9028 25.3791,-75.783 21.5204,-85.6501 28.5159,-85.9028"/>
</g>
<!-- Node4 -->
<g id="node4" class="node"><title>Node4</title>
<polygon fill="none" stroke="#bfbfbf" points="330,-224.5 330,-243.5 378,-243.5 378,-224.5 330,-224.5"/>
<text text-anchor="middle" x="354" y="-231.5" font-family="Helvetica,sans-Serif" font-size="10.00">stdlib.h</text>
</g>
<!-- Node1&#45;&gt;Node4 -->
<g id="edge3" class="edge"><title>Node1&#45;&gt;Node4</title>
<path fill="none" stroke="midnightblue" d="M247.589,-280.933C270.936,-270.855 302.11,-257.399 324.677,-247.657"/>
<polygon fill="midnightblue" stroke="midnightblue" points="326.283,-250.777 334.077,-243.6 323.508,-244.35 326.283,-250.777"/>
</g>
<!-- Node5 -->
<g id="node5" class="node"><title>Node5</title>
<polygon fill="none" stroke="#bfbfbf" points="103,-56.5 103,-75.5 149,-75.5 149,-56.5 103,-56.5"/>
<text text-anchor="middle" x="126" y="-63.5" font-family="Helvetica,sans-Serif" font-size="10.00">stdio.h</text>
</g>
<!-- Node1&#45;&gt;Node5 -->
<g id="edge4" class="edge"><title>Node1&#45;&gt;Node5</title>
<path fill="none" stroke="midnightblue" d="M232.183,-280.879C242.091,-271.576 253.621,-258.469 259,-244 274.051,-203.514 280.616,-169.376 232,-112 213.536,-90.2095 182.67,-78.7255 158.993,-72.8309"/>
<polygon fill="midnightblue" stroke="midnightblue" points="159.545,-69.3671 149.018,-70.566 157.995,-76.1934 159.545,-69.3671"/>
</g>
<!-- Node6 -->
<g id="node6" class="node"><title>Node6</title>
<polygon fill="none" stroke="#bfbfbf" points="396.5,-224.5 396.5,-243.5 445.5,-243.5 445.5,-224.5 396.5,-224.5"/>
<text text-anchor="middle" x="421" y="-231.5" font-family="Helvetica,sans-Serif" font-size="10.00">string.h</text>
</g>
<!-- Node1&#45;&gt;Node6 -->
<g id="edge5" class="edge"><title>Node1&#45;&gt;Node6</title>
<path fill="none" stroke="midnightblue" d="M263.298,-280.933C301.126,-269.915 352.821,-254.858 386.552,-245.033"/>
<polygon fill="midnightblue" stroke="midnightblue" points="387.786,-248.32 396.408,-242.163 385.828,-241.599 387.786,-248.32"/>
</g>
<!-- Node7 -->
<g id="node7" class="node"><title>Node7</title>
<g id="a_node7"><a xlink:href="labyrinth_2coordinate_8h.html" target="_top" xlink:title="coordinate.h">
<polygon fill="none" stroke="black" points="58,-168.5 58,-187.5 128,-187.5 128,-168.5 58,-168.5"/>
<text text-anchor="middle" x="93" y="-175.5" font-family="Helvetica,sans-Serif" font-size="10.00">coordinate.h</text>
</a>
</g>
</g>
<!-- Node1&#45;&gt;Node7 -->
<g id="edge6" class="edge"><title>Node1&#45;&gt;Node7</title>
<path fill="none" stroke="midnightblue" d="M200.04,-280.776C177.06,-258.926 133.237,-217.258 109.412,-194.604"/>
<polygon fill="midnightblue" stroke="midnightblue" points="111.816,-192.061 102.157,-187.707 106.993,-197.134 111.816,-192.061"/>
</g>
<!-- Node8 -->
<g id="node8" class="node"><title>Node8</title>
<g id="a_node8"><a xlink:href="tm_8h.html" target="_top" xlink:title="tm.h">
<polygon fill="none" stroke="black" points="75,-112.5 75,-131.5 111,-131.5 111,-112.5 75,-112.5"/>
<text text-anchor="middle" x="93" y="-119.5" font-family="Helvetica,sans-Serif" font-size="10.00">tm.h</text>
</a>
</g>
</g>
<!-- Node1&#45;&gt;Node8 -->
<g id="edge16" class="edge"><title>Node1&#45;&gt;Node8</title>
<path fill="none" stroke="midnightblue" d="M172.046,-280.876C132.086,-265.176 74.9308,-235.565 49,-188 39.2588,-170.132 55.8574,-150.99 71.3791,-138.142"/>
<polygon fill="midnightblue" stroke="midnightblue" points="73.9441,-140.583 79.7174,-131.699 69.6642,-135.044 73.9441,-140.583"/>
</g>
<!-- Node9 -->
<g id="node9" class="node"><title>Node9</title>
<g id="a_node9"><a xlink:href="types_8h.html" target="_top" xlink:title="types.h">
<polygon fill="none" stroke="black" points="174.5,-112.5 174.5,-131.5 223.5,-131.5 223.5,-112.5 174.5,-112.5"/>
<text text-anchor="middle" x="199" y="-119.5" font-family="Helvetica,sans-Serif" font-size="10.00">types.h</text>
</a>
</g>
</g>
<!-- Node1&#45;&gt;Node9 -->
<g id="edge17" class="edge"><title>Node1&#45;&gt;Node9</title>
<path fill="none" stroke="midnightblue" d="M225.808,-280.715C232.495,-270.949 240.459,-257.392 244,-244 246.272,-235.406 245.586,-232.746 244,-224 238.345,-192.814 221.266,-159.843 209.852,-140.362"/>
<polygon fill="midnightblue" stroke="midnightblue" points="212.797,-138.469 204.633,-131.716 206.804,-142.086 212.797,-138.469"/>
</g>
<!-- Node10 -->
<g id="node10" class="node"><title>Node10</title>
<g id="a_node10"><a xlink:href="grid_8h.html" target="_top" xlink:title="grid.h">
<polygon fill="none" stroke="black" points="194.5,-224.5 194.5,-243.5 235.5,-243.5 235.5,-224.5 194.5,-224.5"/>
<text text-anchor="middle" x="215" y="-231.5" font-family="Helvetica,sans-Serif" font-size="10.00">grid.h</text>
</a>
</g>
</g>
<!-- Node1&#45;&gt;Node10 -->
<g id="edge11" class="edge"><title>Node1&#45;&gt;Node10</title>
<path fill="none" stroke="midnightblue" d="M215,-280.781C215,-272.781 215,-262.689 215,-254.017"/>
<polygon fill="midnightblue" stroke="midnightblue" points="218.5,-253.73 215,-243.731 211.5,-253.731 218.5,-253.73"/>
</g>
<!-- Node11 -->
<g id="node11" class="node"><title>Node11</title>
<g id="a_node11"><a xlink:href="vector_8h.html" target="_top" xlink:title="vector.h">
<polygon fill="none" stroke="black" points="146,-168.5 146,-187.5 198,-187.5 198,-168.5 146,-168.5"/>
<text text-anchor="middle" x="172" y="-175.5" font-family="Helvetica,sans-Serif" font-size="10.00">vector.h</text>
</a>
</g>
</g>
<!-- Node1&#45;&gt;Node11 -->
<g id="edge18" class="edge"><title>Node1&#45;&gt;Node11</title>
<path fill="none" stroke="midnightblue" d="M204.976,-280.924C198.377,-271.03 190.054,-257.244 185,-244 179.288,-229.031 175.944,-211.12 174.081,-197.893"/>
<polygon fill="midnightblue" stroke="midnightblue" points="177.517,-197.157 172.804,-187.668 170.571,-198.024 177.517,-197.157"/>
</g>
<!-- Node3 -->
<g id="node3" class="node"><title>Node3</title>
<polygon fill="none" stroke="#bfbfbf" points="0.5,-0.5 0.5,-19.5 51.5,-19.5 51.5,-0.5 0.5,-0.5"/>
<text text-anchor="middle" x="26" y="-7.5" font-family="Helvetica,sans-Serif" font-size="10.00">config.h</text>
</g>
<!-- Node2&#45;&gt;Node3 -->
<g id="edge2" class="edge"><title>Node2&#45;&gt;Node3</title>
<path fill="none" stroke="midnightblue" d="M26,-56.083C26,-49.0059 26,-38.8611 26,-29.9865"/>
<polygon fill="midnightblue" stroke="midnightblue" points="29.5001,-29.751 26,-19.7511 22.5001,-29.7511 29.5001,-29.751"/>
</g>
<!-- Node7&#45;&gt;Node8 -->
<g id="edge7" class="edge"><title>Node7&#45;&gt;Node8</title>
<path fill="none" stroke="midnightblue" d="M93,-168.083C93,-161.006 93,-150.861 93,-141.986"/>
<polygon fill="midnightblue" stroke="midnightblue" points="96.5001,-141.751 93,-131.751 89.5001,-141.751 96.5001,-141.751"/>
</g>
<!-- Node7&#45;&gt;Node9 -->
<g id="edge10" class="edge"><title>Node7&#45;&gt;Node9</title>
<path fill="none" stroke="midnightblue" d="M110.031,-168.324C127.03,-159.664 153.376,-146.242 172.993,-136.249"/>
<polygon fill="midnightblue" stroke="midnightblue" points="174.69,-139.312 182.012,-131.655 171.512,-133.075 174.69,-139.312"/>
</g>
<!-- Node8&#45;&gt;Node2 -->
<g id="edge9" class="edge"><title>Node8&#45;&gt;Node2</title>
<path fill="none" stroke="midnightblue" d="M82.2353,-112.324C72.2339,-104.263 57.1135,-92.0765 45.0695,-82.3695"/>
<polygon fill="midnightblue" stroke="midnightblue" points="46.9429,-79.3841 36.9606,-75.8339 42.5502,-84.8343 46.9429,-79.3841"/>
</g>
<!-- Node8&#45;&gt;Node5 -->
<g id="edge8" class="edge"><title>Node8&#45;&gt;Node5</title>
<path fill="none" stroke="midnightblue" d="M98.4493,-112.083C103.014,-104.613 109.668,-93.7244 115.293,-84.5199"/>
<polygon fill="midnightblue" stroke="midnightblue" points="118.424,-86.109 120.652,-75.7511 112.451,-82.4588 118.424,-86.109"/>
</g>
<!-- Node10&#45;&gt;Node9 -->
<g id="edge12" class="edge"><title>Node10&#45;&gt;Node9</title>
<path fill="none" stroke="midnightblue" d="M214.062,-224.148C212.701,-211.621 210.008,-188.014 207,-168 205.686,-159.261 204.001,-149.608 202.517,-141.491"/>
<polygon fill="midnightblue" stroke="midnightblue" points="205.947,-140.792 200.671,-131.604 199.066,-142.077 205.947,-140.792"/>
</g>
<!-- Node10&#45;&gt;Node11 -->
<g id="edge13" class="edge"><title>Node10&#45;&gt;Node11</title>
<path fill="none" stroke="midnightblue" d="M207.899,-224.083C201.763,-216.377 192.73,-205.033 185.261,-195.653"/>
<polygon fill="midnightblue" stroke="midnightblue" points="187.936,-193.394 178.968,-187.751 182.46,-197.754 187.936,-193.394"/>
</g>
<!-- Node11&#45;&gt;Node8 -->
<g id="edge14" class="edge"><title>Node11&#45;&gt;Node8</title>
<path fill="none" stroke="midnightblue" d="M159.307,-168.324C147.099,-159.979 128.422,-147.212 113.997,-137.352"/>
<polygon fill="midnightblue" stroke="midnightblue" points="115.892,-134.408 105.661,-131.655 111.942,-140.187 115.892,-134.408"/>
</g>
<!-- Node11&#45;&gt;Node9 -->
<g id="edge15" class="edge"><title>Node11&#45;&gt;Node9</title>
<path fill="none" stroke="midnightblue" d="M176.459,-168.083C180.154,-160.691 185.523,-149.953 190.094,-140.811"/>
<polygon fill="midnightblue" stroke="midnightblue" points="193.283,-142.261 194.624,-131.751 187.022,-139.13 193.283,-142.261"/>
</g>
</g>
</svg>
