<?xml version="1.0" encoding="UTF-8" standalone="no"?>
<!DOCTYPE svg PUBLIC "-//W3C//DTD SVG 1.1//EN"
 "http://www.w3.org/Graphics/SVG/1.1/DTD/svg11.dtd">
<!-- Generated by graphviz version 2.36.0 (20140111.2315)
 -->
<!-- Title: hashtable_free Pages: 1 -->
<svg width="460pt" height="28pt"
 viewBox="0.00 0.00 460.00 28.00" xmlns="http://www.w3.org/2000/svg" xmlns:xlink="http://www.w3.org/1999/xlink">
<g id="graph0" class="graph" transform="scale(1 1) rotate(0) translate(4 24)">
<title>hashtable_free</title>
<!-- Node1 -->
<g id="node1" class="node"><title>Node1</title>
<polygon fill="#bfbfbf" stroke="black" points="0,-0.5 0,-19.5 80,-19.5 80,-0.5 0,-0.5"/>
<text text-anchor="middle" x="40" y="-7.5" font-family="Helvetica,sans-Serif" font-size="10.00">hashtable_free</text>
</g>
<!-- Node2 -->
<g id="node2" class="node"><title>Node2</title>
<g id="a_node2"><a xlink:href="hashtable_8c.html#a666b4d62a09333d1509c0006406e04eb" target="_top" xlink:title="freeBuckets">
<polygon fill="none" stroke="black" points="116.5,-0.5 116.5,-19.5 185.5,-19.5 185.5,-0.5 116.5,-0.5"/>
<text text-anchor="middle" x="151" y="-7.5" font-family="Helvetica,sans-Serif" font-size="10.00">freeBuckets</text>
</a>
</g>
</g>
<!-- Node1&#45;&gt;Node2 -->
<g id="edge1" class="edge"><title>Node1&#45;&gt;Node2</title>
<path fill="none" stroke="midnightblue" d="M80.0436,-10C88.4688,-10 97.4313,-10 106.03,-10"/>
<polygon fill="midnightblue" stroke="midnightblue" points="106.278,-13.5001 116.278,-10 106.278,-6.5001 106.278,-13.5001"/>
</g>
<!-- Node3 -->
<g id="node3" class="node"><title>Node3</title>
<g id="a_node3"><a xlink:href="list_8c.html#a4fb22eb8e01180e8150cd15c8257e57a" target="_top" xlink:title="list_free">
<polygon fill="none" stroke="black" points="222.5,-0.5 222.5,-19.5 273.5,-19.5 273.5,-0.5 222.5,-0.5"/>
<text text-anchor="middle" x="248" y="-7.5" font-family="Helvetica,sans-Serif" font-size="10.00">list_free</text>
</a>
</g>
</g>
<!-- Node2&#45;&gt;Node3 -->
<g id="edge2" class="edge"><title>Node2&#45;&gt;Node3</title>
<path fill="none" stroke="midnightblue" d="M185.761,-10C194.33,-10 203.551,-10 212.172,-10"/>
<polygon fill="midnightblue" stroke="midnightblue" points="212.305,-13.5001 222.305,-10 212.305,-6.5001 212.305,-13.5001"/>
</g>
<!-- Node4 -->
<g id="node4" class="node"><title>Node4</title>
<g id="a_node4"><a xlink:href="list_8c.html#a475696d1a0aedfdbac6a0c6516fc78da" target="_top" xlink:title="freeList">
<polygon fill="none" stroke="black" points="310.5,-0.5 310.5,-19.5 359.5,-19.5 359.5,-0.5 310.5,-0.5"/>
<text text-anchor="middle" x="335" y="-7.5" font-family="Helvetica,sans-Serif" font-size="10.00">freeList</text>
</a>
</g>
</g>
<!-- Node3&#45;&gt;Node4 -->
<g id="edge3" class="edge"><title>Node3&#45;&gt;Node4</title>
<path fill="none" stroke="midnightblue" d="M273.586,-10C281.902,-10 291.34,-10 300.242,-10"/>
<polygon fill="midnightblue" stroke="midnightblue" points="300.348,-13.5001 310.347,-10 300.347,-6.5001 300.348,-13.5001"/>
</g>
<!-- Node5 -->
<g id="node5" class="node"><title>Node5</title>
<g id="a_node5"><a xlink:href="list_8c.html#ac485202058cce61a3db7ad23eea4c658" target="_top" xlink:title="freeNode">
<polygon fill="none" stroke="black" points="396,-0.5 396,-19.5 452,-19.5 452,-0.5 396,-0.5"/>
<text text-anchor="middle" x="424" y="-7.5" font-family="Helvetica,sans-Serif" font-size="10.00">freeNode</text>
</a>
</g>
</g>
<!-- Node4&#45;&gt;Node5 -->
<g id="edge4" class="edge"><title>Node4&#45;&gt;Node5</title>
<path fill="none" stroke="midnightblue" d="M359.773,-10C367.801,-10 376.966,-10 385.779,-10"/>
<polygon fill="midnightblue" stroke="midnightblue" points="385.875,-13.5001 395.875,-10 385.875,-6.5001 385.875,-13.5001"/>
</g>
</g>
</svg>
