<?xml version="1.0" encoding="UTF-8" standalone="no"?>
<!DOCTYPE svg PUBLIC "-//W3C//DTD SVG 1.1//EN"
 "http://www.w3.org/Graphics/SVG/1.1/DTD/svg11.dtd">
<!-- Generated by graphviz version 2.36.0 (20140111.2315)
 -->
<!-- Title: rstm/rstm&#45;dev/stamp&#45;0.9.10/lib/hash.h Pages: 1 -->
<svg width="273pt" height="108pt"
 viewBox="0.00 0.00 273.00 108.00" xmlns="http://www.w3.org/2000/svg" xmlns:xlink="http://www.w3.org/1999/xlink">
<g id="graph0" class="graph" transform="scale(1 1) rotate(0) translate(4 104)">
<title>rstm/rstm&#45;dev/stamp&#45;0.9.10/lib/hash.h</title>
<!-- Node1 -->
<g id="node1" class="node"><title>Node1</title>
<polygon fill="#bfbfbf" stroke="black" points="87.5,-69 87.5,-99 194.5,-99 194.5,-69 87.5,-69"/>
<text text-anchor="start" x="95.5" y="-87" font-family="Helvetica,sans-Serif" font-size="10.00">rstm/rstm&#45;dev/stamp</text>
<text text-anchor="middle" x="141" y="-76" font-family="Helvetica,sans-Serif" font-size="10.00">&#45;0.9.10/lib/hash.h</text>
</g>
<!-- Node2 -->
<g id="node2" class="node"><title>Node2</title>
<g id="a_node2"><a xlink:href="sequencer_8c.html" target="_top" xlink:title="rstm/rstm&#45;dev/stamp\l&#45;0.9.10/genome/sequencer.c">
<polygon fill="none" stroke="black" points="0,-1 0,-31 140,-31 140,-1 0,-1"/>
<text text-anchor="start" x="8" y="-19" font-family="Helvetica,sans-Serif" font-size="10.00">rstm/rstm&#45;dev/stamp</text>
<text text-anchor="middle" x="70" y="-8" font-family="Helvetica,sans-Serif" font-size="10.00">&#45;0.9.10/genome/sequencer.c</text>
</a>
</g>
</g>
<!-- Node1&#45;&gt;Node2 -->
<g id="edge1" class="edge"><title>Node1&#45;&gt;Node2</title>
<path fill="none" stroke="midnightblue" d="M118.168,-61.7762C107.448,-51.8105 94.9529,-40.1956 85.3759,-31.2931"/>
<polygon fill="midnightblue" stroke="midnightblue" points="115.887,-64.434 125.594,-68.679 120.653,-59.307 115.887,-64.434"/>
</g>
<!-- Node3 -->
<g id="node3" class="node"><title>Node3</title>
<g id="a_node3"><a xlink:href="hash_8c.html" target="_top" xlink:title="rstm/rstm&#45;dev/stamp\l&#45;0.9.10/lib/hash.c">
<polygon fill="none" stroke="black" points="158.5,-1 158.5,-31 265.5,-31 265.5,-1 158.5,-1"/>
<text text-anchor="start" x="166.5" y="-19" font-family="Helvetica,sans-Serif" font-size="10.00">rstm/rstm&#45;dev/stamp</text>
<text text-anchor="middle" x="212" y="-8" font-family="Helvetica,sans-Serif" font-size="10.00">&#45;0.9.10/lib/hash.c</text>
</a>
</g>
</g>
<!-- Node1&#45;&gt;Node3 -->
<g id="edge2" class="edge"><title>Node1&#45;&gt;Node3</title>
<path fill="none" stroke="midnightblue" d="M163.832,-61.7762C174.552,-51.8105 187.047,-40.1956 196.624,-31.2931"/>
<polygon fill="midnightblue" stroke="midnightblue" points="161.347,-59.307 156.406,-68.679 166.113,-64.434 161.347,-59.307"/>
</g>
</g>
</svg>
