<?xml version="1.0" encoding="UTF-8" standalone="no"?>
<!DOCTYPE svg PUBLIC "-//W3C//DTD SVG 1.1//EN"
 "http://www.w3.org/Graphics/SVG/1.1/DTD/svg11.dtd">
<!-- Generated by graphviz version 2.36.0 (20140111.2315)
 -->
<!-- Title: hashtable_find Pages: 1 -->
<svg width="1996pt" height="435pt"
 viewBox="0.00 0.00 1996.00 434.89" xmlns="http://www.w3.org/2000/svg" xmlns:xlink="http://www.w3.org/1999/xlink">
<g id="graph0" class="graph" transform="scale(1 1) rotate(0) translate(4 430.886)">
<title>hashtable_find</title>
<!-- Node1 -->
<g id="node1" class="node"><title>Node1</title>
<polygon fill="#bfbfbf" stroke="black" points="0,-182.5 0,-201.5 80,-201.5 80,-182.5 0,-182.5"/>
<text text-anchor="middle" x="40" y="-189.5" font-family="Helvetica,sans-Serif" font-size="10.00">hashtable_find</text>
</g>
<!-- Node2 -->
<g id="node2" class="node"><title>Node2</title>
<g id="a_node2"><a xlink:href="list_8c.html#a1379a3cf001369bd5979fe53160640f5" target="_top" xlink:title="list_find">
<polygon fill="none" stroke="black" points="116,-182.5 116,-201.5 166,-201.5 166,-182.5 116,-182.5"/>
<text text-anchor="middle" x="141" y="-189.5" font-family="Helvetica,sans-Serif" font-size="10.00">list_find</text>
</a>
</g>
</g>
<!-- Node1&#45;&gt;Node2 -->
<g id="edge1" class="edge"><title>Node1&#45;&gt;Node2</title>
<path fill="none" stroke="midnightblue" d="M80.1274,-192C88.6399,-192 97.5808,-192 105.881,-192"/>
<polygon fill="midnightblue" stroke="midnightblue" points="105.972,-195.5 115.972,-192 105.972,-188.5 105.972,-195.5"/>
</g>
<!-- Node3 -->
<g id="node3" class="node"><title>Node3</title>
<g id="a_node3"><a xlink:href="list_8c.html#a3ed9de59a6e4cd353dee80f797da7a19" target="_top" xlink:title="findPrevious">
<polygon fill="none" stroke="black" points="202.5,-182.5 202.5,-201.5 273.5,-201.5 273.5,-182.5 202.5,-182.5"/>
<text text-anchor="middle" x="238" y="-189.5" font-family="Helvetica,sans-Serif" font-size="10.00">findPrevious</text>
</a>
</g>
</g>
<!-- Node2&#45;&gt;Node3 -->
<g id="edge2" class="edge"><title>Node2&#45;&gt;Node3</title>
<path fill="none" stroke="midnightblue" d="M166.465,-192C174.289,-192 183.213,-192 192.021,-192"/>
<polygon fill="midnightblue" stroke="midnightblue" points="192.234,-195.5 202.234,-192 192.234,-188.5 192.234,-195.5"/>
</g>
<!-- Node4 -->
<g id="node4" class="node"><title>Node4</title>
<g id="a_node4"><a xlink:href="stmskip_8cc.html#a9ab04b9e875013b4d2dd249d0c97dce5" target="_top" xlink:title="for">
<polygon fill="none" stroke="black" points="310.5,-182.5 310.5,-201.5 339.5,-201.5 339.5,-182.5 310.5,-182.5"/>
<text text-anchor="middle" x="325" y="-189.5" font-family="Helvetica,sans-Serif" font-size="10.00">for</text>
</a>
</g>
</g>
<!-- Node3&#45;&gt;Node4 -->
<g id="edge3" class="edge"><title>Node3&#45;&gt;Node4</title>
<path fill="none" stroke="midnightblue" d="M273.573,-192C282.521,-192 291.955,-192 300.212,-192"/>
<polygon fill="midnightblue" stroke="midnightblue" points="300.249,-195.5 310.249,-192 300.249,-188.5 300.249,-195.5"/>
</g>
<!-- Node5 -->
<g id="node5" class="node"><title>Node5</title>
<g id="a_node5"><a xlink:href="stmskip_8cc.html#a09de30bf6124d9640899b27c93b49471" target="_top" xlink:title="stmskip_lookup">
<polygon fill="none" stroke="black" points="378.5,-239.5 378.5,-258.5 463.5,-258.5 463.5,-239.5 378.5,-239.5"/>
<text text-anchor="middle" x="421" y="-246.5" font-family="Helvetica,sans-Serif" font-size="10.00">stmskip_lookup</text>
</a>
</g>
</g>
<!-- Node4&#45;&gt;Node5 -->
<g id="edge4" class="edge"><title>Node4&#45;&gt;Node5</title>
<path fill="none" stroke="midnightblue" d="M336.966,-201.58C346.747,-209.811 361.691,-221.64 376,-230 379.038,-231.775 382.272,-233.481 385.556,-235.094"/>
<polygon fill="midnightblue" stroke="midnightblue" points="384.27,-238.356 394.816,-239.37 387.204,-232 384.27,-238.356"/>
</g>
<!-- Node23 -->
<g id="node23" class="node"><title>Node23</title>
<g id="a_node23"><a xlink:href="stmskip_8cc.html#ad17c6ea2fd390c2dd637a34fdeb0b3df" target="_top" xlink:title="stmskip_update">
<polygon fill="none" stroke="black" points="378,-144.5 378,-163.5 464,-163.5 464,-144.5 378,-144.5"/>
<text text-anchor="middle" x="421" y="-151.5" font-family="Helvetica,sans-Serif" font-size="10.00">stmskip_update</text>
</a>
</g>
</g>
<!-- Node4&#45;&gt;Node23 -->
<g id="edge27" class="edge"><title>Node4&#45;&gt;Node23</title>
<path fill="none" stroke="midnightblue" d="M339.87,-186.393C352.135,-181.435 370.523,-174.001 386.593,-167.505"/>
<polygon fill="midnightblue" stroke="midnightblue" points="388.264,-170.605 396.223,-163.612 385.64,-164.115 388.264,-170.605"/>
</g>
<!-- Node36 -->
<g id="node36" class="node"><title>Node36</title>
<g id="a_node36"><a xlink:href="stmskip_8cc.html#a3925aa5d2590fc57854aa9d670f58e4d" target="_top" xlink:title="stmskip_remove">
<polygon fill="none" stroke="black" points="376.5,-201.5 376.5,-220.5 465.5,-220.5 465.5,-201.5 376.5,-201.5"/>
<text text-anchor="middle" x="421" y="-208.5" font-family="Helvetica,sans-Serif" font-size="10.00">stmskip_remove</text>
</a>
</g>
</g>
<!-- Node4&#45;&gt;Node36 -->
<g id="edge50" class="edge"><title>Node4&#45;&gt;Node36</title>
<path fill="none" stroke="midnightblue" d="M339.87,-194.804C347.147,-196.274 356.581,-198.181 366.407,-200.167"/>
<polygon fill="midnightblue" stroke="midnightblue" points="365.803,-203.616 376.298,-202.167 367.19,-196.755 365.803,-203.616"/>
</g>
<!-- Node37 -->
<g id="node37" class="node"><title>Node37</title>
<g id="a_node37"><a xlink:href="stm_8h.html#ad6e1404788ef0e710c991c3e00fd5c39" target="_top" xlink:title="abort_stm_tx">
<polygon fill="none" stroke="black" points="384,-106.5 384,-125.5 458,-125.5 458,-106.5 384,-106.5"/>
<text text-anchor="middle" x="421" y="-113.5" font-family="Helvetica,sans-Serif" font-size="10.00">abort_stm_tx</text>
</a>
</g>
</g>
<!-- Node4&#45;&gt;Node37 -->
<g id="edge53" class="edge"><title>Node4&#45;&gt;Node37</title>
<path fill="none" stroke="midnightblue" d="M332.404,-182.351C341.038,-169.968 357.481,-148.479 376,-135 378.334,-133.302 380.843,-131.714 383.437,-130.24"/>
<polygon fill="midnightblue" stroke="midnightblue" points="385.121,-133.31 392.453,-125.661 381.952,-127.069 385.121,-133.31"/>
</g>
<!-- Node6 -->
<g id="node6" class="node"><title>Node6</title>
<g id="a_node6"><a xlink:href="stmskip_8cc.html#aa82848b11e972b9339ceadb6816cdb6a" target="_top" xlink:title="search_predecessors">
<polygon fill="none" stroke="black" points="502,-239.5 502,-258.5 612,-258.5 612,-239.5 502,-239.5"/>
<text text-anchor="middle" x="557" y="-246.5" font-family="Helvetica,sans-Serif" font-size="10.00">search_predecessors</text>
</a>
</g>
</g>
<!-- Node5&#45;&gt;Node6 -->
<g id="edge5" class="edge"><title>Node5&#45;&gt;Node6</title>
<path fill="none" stroke="midnightblue" d="M463.664,-249C472.466,-249 481.951,-249 491.374,-249"/>
<polygon fill="midnightblue" stroke="midnightblue" points="491.539,-252.5 501.539,-249 491.539,-245.5 491.539,-252.5"/>
</g>
<!-- Node7 -->
<g id="node7" class="node"><title>Node7</title>
<g id="a_node7"><a xlink:href="stm_8h.html#a5594d7fca67459d7d9738436af589c5c" target="_top" xlink:title="read_stm_blk">
<polygon fill="none" stroke="black" points="649.5,-345.5 649.5,-364.5 724.5,-364.5 724.5,-345.5 649.5,-345.5"/>
<text text-anchor="middle" x="687" y="-352.5" font-family="Helvetica,sans-Serif" font-size="10.00">read_stm_blk</text>
</a>
</g>
</g>
<!-- Node6&#45;&gt;Node7 -->
<g id="edge6" class="edge"><title>Node6&#45;&gt;Node7</title>
<path fill="none" stroke="midnightblue" d="M569.812,-258.782C591.816,-277.004 639.283,-316.313 666.242,-338.638"/>
<polygon fill="midnightblue" stroke="midnightblue" points="664.282,-341.559 674.216,-345.241 668.746,-336.168 664.282,-341.559"/>
</g>
<!-- Node8 -->
<g id="node8" class="node"><title>Node8</title>
<g id="a_node8"><a xlink:href="stm__fraser_8c.html#aca0d40200c3502bdabeb44b27dfd4105" target="_top" xlink:title="search_stm_tx_entry">
<polygon fill="none" stroke="black" points="1078,-359.5 1078,-378.5 1186,-378.5 1186,-359.5 1078,-359.5"/>
<text text-anchor="middle" x="1132" y="-366.5" font-family="Helvetica,sans-Serif" font-size="10.00">search_stm_tx_entry</text>
</a>
</g>
</g>
<!-- Node7&#45;&gt;Node8 -->
<g id="edge7" class="edge"><title>Node7&#45;&gt;Node8</title>
<path fill="none" stroke="midnightblue" d="M696.889,-364.713C709.74,-377.955 734.95,-401.048 762,-410 880.508,-449.217 919.064,-409.652 1042,-388 1054.16,-385.859 1067.18,-383.255 1079.41,-380.671"/>
<polygon fill="midnightblue" stroke="midnightblue" points="1080.42,-384.034 1089.47,-378.514 1078.95,-377.19 1080.42,-384.034"/>
</g>
<!-- Node9 -->
<g id="node9" class="node"><title>Node9</title>
<g id="a_node9"><a xlink:href="stm__fraser_8c.html#a75177d9fa0335bd50b6fae9a68341443" target="_top" xlink:title="alloc_stm_tx_entry">
<polygon fill="none" stroke="black" points="773.5,-326.5 773.5,-345.5 872.5,-345.5 872.5,-326.5 773.5,-326.5"/>
<text text-anchor="middle" x="823" y="-333.5" font-family="Helvetica,sans-Serif" font-size="10.00">alloc_stm_tx_entry</text>
</a>
</g>
</g>
<!-- Node7&#45;&gt;Node9 -->
<g id="edge8" class="edge"><title>Node7&#45;&gt;Node9</title>
<path fill="none" stroke="midnightblue" d="M724.616,-349.808C736.596,-348.11 750.219,-346.178 763.402,-344.309"/>
<polygon fill="midnightblue" stroke="midnightblue" points="763.953,-347.766 773.362,-342.896 762.97,-340.835 763.953,-347.766"/>
</g>
<!-- Node10 -->
<g id="node10" class="node"><title>Node10</title>
<g id="a_node10"><a xlink:href="stm__fraser_8c.html#a4e016a575dac2ee3931ef9ec94550d33" target="_top" xlink:title="read_blk_data">
<polygon fill="none" stroke="black" points="784.5,-364.5 784.5,-383.5 861.5,-383.5 861.5,-364.5 784.5,-364.5"/>
<text text-anchor="middle" x="823" y="-371.5" font-family="Helvetica,sans-Serif" font-size="10.00">read_blk_data</text>
</a>
</g>
</g>
<!-- Node7&#45;&gt;Node10 -->
<g id="edge9" class="edge"><title>Node7&#45;&gt;Node10</title>
<path fill="none" stroke="midnightblue" d="M724.616,-360.192C740.017,-362.376 758.136,-364.945 774.542,-367.271"/>
<polygon fill="midnightblue" stroke="midnightblue" points="774.103,-370.744 784.495,-368.682 775.086,-363.813 774.103,-370.744"/>
</g>
<!-- Node21 -->
<g id="node21" class="node"><title>Node21</title>
<g id="a_node21"><a xlink:href="stm__fraser_8c.html#a31ea9d61a84d817aac10ffbc4ba9f296" target="_top" xlink:title="commit_stm_tx">
<polygon fill="none" stroke="black" points="939,-359.5 939,-378.5 1023,-378.5 1023,-359.5 939,-359.5"/>
<text text-anchor="middle" x="981" y="-366.5" font-family="Helvetica,sans-Serif" font-size="10.00">commit_stm_tx</text>
</a>
</g>
</g>
<!-- Node7&#45;&gt;Node21 -->
<g id="edge26" class="edge"><title>Node7&#45;&gt;Node21</title>
<path fill="none" stroke="midnightblue" d="M701.671,-364.558C715.957,-373.915 739.399,-387.536 762,-393 823.46,-407.858 896.917,-393.34 940.944,-381.306"/>
<polygon fill="midnightblue" stroke="midnightblue" points="942.007,-384.643 950.677,-378.554 940.102,-377.907 942.007,-384.643"/>
</g>
<!-- Node22 -->
<g id="node22" class="node"><title>Node22</title>
<g id="a_node22"><a xlink:href="stm__fraser_8c.html#ad6e1404788ef0e710c991c3e00fd5c39" target="_top" xlink:title="abort_stm_tx">
<polygon fill="none" stroke="black" points="786,-288.5 786,-307.5 860,-307.5 860,-288.5 786,-288.5"/>
<text text-anchor="middle" x="823" y="-295.5" font-family="Helvetica,sans-Serif" font-size="10.00">abort_stm_tx</text>
</a>
</g>
</g>
<!-- Node7&#45;&gt;Node22 -->
<g id="edge25" class="edge"><title>Node7&#45;&gt;Node22</title>
<path fill="none" stroke="midnightblue" d="M704.665,-345.419C719.419,-337.186 741.701,-325.357 762,-317 767.372,-314.788 773.101,-312.676 778.807,-310.716"/>
<polygon fill="midnightblue" stroke="midnightblue" points="779.923,-314.034 788.321,-307.573 777.728,-307.387 779.923,-314.034"/>
</g>
<!-- Node11 -->
<g id="node11" class="node"><title>Node11</title>
<g id="a_node11"><a xlink:href="stm__fraser_8c.html#a3baf54f8c2c6bdb79109865e5500cbd9" target="_top" xlink:title="rc_up_descriptor">
<polygon fill="none" stroke="black" points="1087.5,-321.5 1087.5,-340.5 1176.5,-340.5 1176.5,-321.5 1087.5,-321.5"/>
<text text-anchor="middle" x="1132" y="-328.5" font-family="Helvetica,sans-Serif" font-size="10.00">rc_up_descriptor</text>
</a>
</g>
</g>
<!-- Node10&#45;&gt;Node11 -->
<g id="edge10" class="edge"><title>Node10&#45;&gt;Node11</title>
<path fill="none" stroke="midnightblue" d="M857.053,-364.389C875.441,-359.384 898.826,-353.578 920,-350 972.936,-341.055 1034.1,-336.134 1076.9,-333.556"/>
<polygon fill="midnightblue" stroke="midnightblue" points="1077.32,-337.037 1087.1,-332.965 1076.92,-330.049 1077.32,-337.037"/>
</g>
<!-- Node13 -->
<g id="node13" class="node"><title>Node13</title>
<g id="a_node13"><a xlink:href="stm__fraser_8c.html#ad41e28910c7dbe8cfd98c9e0c168c9dc" target="_top" xlink:title="rc_down_descriptor">
<polygon fill="none" stroke="black" points="1081.5,-397.5 1081.5,-416.5 1182.5,-416.5 1182.5,-397.5 1081.5,-397.5"/>
<text text-anchor="middle" x="1132" y="-404.5" font-family="Helvetica,sans-Serif" font-size="10.00">rc_down_descriptor</text>
</a>
</g>
</g>
<!-- Node10&#45;&gt;Node13 -->
<g id="edge12" class="edge"><title>Node10&#45;&gt;Node13</title>
<path fill="none" stroke="midnightblue" d="M861.781,-380C879.437,-382.678 900.764,-385.733 920,-388 970.955,-394.005 1029.03,-399.107 1071.34,-402.508"/>
<polygon fill="midnightblue" stroke="midnightblue" points="1071.22,-406.009 1081.47,-403.314 1071.78,-399.031 1071.22,-406.009"/>
</g>
<!-- Node10&#45;&gt;Node21 -->
<g id="edge21" class="edge"><title>Node10&#45;&gt;Node21</title>
<path fill="none" stroke="midnightblue" d="M861.763,-372.79C881.847,-372.146 906.832,-371.345 928.654,-370.646"/>
<polygon fill="midnightblue" stroke="midnightblue" points="928.869,-374.141 938.751,-370.322 928.644,-367.144 928.869,-374.141"/>
</g>
<!-- Node12 -->
<g id="node12" class="node"><title>Node12</title>
<g id="a_node12"><a xlink:href="stm__fraser_8c.html#a1a59f05201730ec9ba9a348070073e57" target="_top" xlink:title="rc_delta_descriptor">
<polygon fill="none" stroke="black" points="1222.5,-321.5 1222.5,-340.5 1321.5,-340.5 1321.5,-321.5 1222.5,-321.5"/>
<text text-anchor="middle" x="1272" y="-328.5" font-family="Helvetica,sans-Serif" font-size="10.00">rc_delta_descriptor</text>
</a>
</g>
</g>
<!-- Node11&#45;&gt;Node12 -->
<g id="edge11" class="edge"><title>Node11&#45;&gt;Node12</title>
<path fill="none" stroke="midnightblue" d="M1176.66,-331C1187.9,-331 1200.18,-331 1212.05,-331"/>
<polygon fill="midnightblue" stroke="midnightblue" points="1212.35,-334.5 1222.35,-331 1212.35,-327.5 1212.35,-334.5"/>
</g>
<!-- Node14 -->
<g id="node14" class="node"><title>Node14</title>
<g id="a_node14"><a xlink:href="stm__fraser_8c.html#afd1a951db8c0f79e6bf20624e7dca338" target="_top" xlink:title="release_descriptor">
<polygon fill="none" stroke="black" points="1224,-378.5 1224,-397.5 1320,-397.5 1320,-378.5 1224,-378.5"/>
<text text-anchor="middle" x="1272" y="-385.5" font-family="Helvetica,sans-Serif" font-size="10.00">release_descriptor</text>
</a>
</g>
</g>
<!-- Node13&#45;&gt;Node14 -->
<g id="edge13" class="edge"><title>Node13&#45;&gt;Node14</title>
<path fill="none" stroke="midnightblue" d="M1182.82,-400.141C1192.78,-398.769 1203.32,-397.318 1213.51,-395.915"/>
<polygon fill="midnightblue" stroke="midnightblue" points="1214.13,-399.363 1223.56,-394.532 1213.17,-392.429 1214.13,-399.363"/>
</g>
<!-- Node15 -->
<g id="node15" class="node"><title>Node15</title>
<g id="a_node15"><a xlink:href="gc_8c.html#a80f4a5c119aa70ab0452a73dfac21bbd" target="_top" xlink:title="fr_gc_free">
<polygon fill="none" stroke="black" points="1504,-340.5 1504,-359.5 1564,-359.5 1564,-340.5 1504,-340.5"/>
<text text-anchor="middle" x="1534" y="-347.5" font-family="Helvetica,sans-Serif" font-size="10.00">fr_gc_free</text>
</a>
</g>
</g>
<!-- Node14&#45;&gt;Node15 -->
<g id="edge14" class="edge"><title>Node14&#45;&gt;Node15</title>
<path fill="none" stroke="midnightblue" d="M1320.11,-384.761C1356.78,-381.829 1408.85,-376.765 1454,-369 1467.16,-366.736 1481.4,-363.548 1494.11,-360.428"/>
<polygon fill="midnightblue" stroke="midnightblue" points="1495.08,-363.793 1503.93,-357.96 1493.38,-357.004 1495.08,-363.793"/>
</g>
<!-- Node20 -->
<g id="node20" class="node"><title>Node20</title>
<g id="a_node20"><a xlink:href="gc_8c.html#a1e1a80c2d04496b5b70bd86b59510355" target="_top" xlink:title="fr_gc_unsafe_free">
<polygon fill="none" stroke="black" points="1358.5,-340.5 1358.5,-359.5 1453.5,-359.5 1453.5,-340.5 1358.5,-340.5"/>
<text text-anchor="middle" x="1406" y="-347.5" font-family="Helvetica,sans-Serif" font-size="10.00">fr_gc_unsafe_free</text>
</a>
</g>
</g>
<!-- Node14&#45;&gt;Node20 -->
<g id="edge19" class="edge"><title>Node14&#45;&gt;Node20</title>
<path fill="none" stroke="midnightblue" d="M1306.31,-378.411C1323.19,-373.551 1343.89,-367.591 1361.97,-362.387"/>
<polygon fill="midnightblue" stroke="midnightblue" points="1363.06,-365.716 1371.7,-359.586 1361.12,-358.989 1363.06,-365.716"/>
</g>
<!-- Node16 -->
<g id="node16" class="node"><title>Node16</title>
<g id="a_node16"><a xlink:href="gc_8c.html#afb494e950c8c6b5661974748ae89b61e" target="_top" xlink:title="chunk_from_cache">
<polygon fill="none" stroke="black" points="1614.5,-284.5 1614.5,-303.5 1713.5,-303.5 1713.5,-284.5 1614.5,-284.5"/>
<text text-anchor="middle" x="1664" y="-291.5" font-family="Helvetica,sans-Serif" font-size="10.00">chunk_from_cache</text>
</a>
</g>
</g>
<!-- Node15&#45;&gt;Node16 -->
<g id="edge15" class="edge"><title>Node15&#45;&gt;Node16</title>
<path fill="none" stroke="midnightblue" d="M1557,-340.373C1577.64,-331.343 1608.72,-317.749 1631.89,-307.611"/>
<polygon fill="midnightblue" stroke="midnightblue" points="1633.52,-310.716 1641.28,-303.501 1630.72,-304.303 1633.52,-310.716"/>
</g>
<!-- Node17 -->
<g id="node17" class="node"><title>Node17</title>
<g id="a_node17"><a xlink:href="gc_8c.html#a2a6f41199ed37925df4cc7b9909dc0ed" target="_top" xlink:title="get_empty_chunks">
<polygon fill="none" stroke="black" points="1750.5,-190.5 1750.5,-209.5 1849.5,-209.5 1849.5,-190.5 1750.5,-190.5"/>
<text text-anchor="middle" x="1800" y="-197.5" font-family="Helvetica,sans-Serif" font-size="10.00">get_empty_chunks</text>
</a>
</g>
</g>
<!-- Node16&#45;&gt;Node17 -->
<g id="edge16" class="edge"><title>Node16&#45;&gt;Node17</title>
<path fill="none" stroke="midnightblue" d="M1678.84,-284.294C1702.13,-267.956 1749.34,-234.837 1777.15,-215.33"/>
<polygon fill="midnightblue" stroke="midnightblue" points="1779.26,-218.121 1785.44,-209.513 1775.24,-212.39 1779.26,-218.121"/>
</g>
<!-- Node18 -->
<g id="node18" class="node"><title>Node18</title>
<g id="a_node18"><a xlink:href="gc_8c.html#ac360b80b93ad00f0fba18a1993e1d6a0" target="_top" xlink:title="add_chunks_to_list">
<polygon fill="none" stroke="black" points="1886.5,-152.5 1886.5,-171.5 1987.5,-171.5 1987.5,-152.5 1886.5,-152.5"/>
<text text-anchor="middle" x="1937" y="-159.5" font-family="Helvetica,sans-Serif" font-size="10.00">add_chunks_to_list</text>
</a>
</g>
</g>
<!-- Node17&#45;&gt;Node18 -->
<g id="edge17" class="edge"><title>Node17&#45;&gt;Node18</title>
<path fill="none" stroke="midnightblue" d="M1835.07,-190.411C1852.41,-185.528 1873.7,-179.536 1892.25,-174.315"/>
<polygon fill="midnightblue" stroke="midnightblue" points="1893.27,-177.665 1901.94,-171.586 1891.37,-170.926 1893.27,-177.665"/>
</g>
<!-- Node19 -->
<g id="node19" class="node"><title>Node19</title>
<g id="a_node19"><a xlink:href="gc_8c.html#ade31863985bdaa481ade142bdfb6d99f" target="_top" xlink:title="alloc_more_chunks">
<polygon fill="none" stroke="black" points="1886.5,-190.5 1886.5,-209.5 1987.5,-209.5 1987.5,-190.5 1886.5,-190.5"/>
<text text-anchor="middle" x="1937" y="-197.5" font-family="Helvetica,sans-Serif" font-size="10.00">alloc_more_chunks</text>
</a>
</g>
</g>
<!-- Node17&#45;&gt;Node19 -->
<g id="edge18" class="edge"><title>Node17&#45;&gt;Node19</title>
<path fill="none" stroke="midnightblue" d="M1849.74,-200C1858.31,-200 1867.33,-200 1876.17,-200"/>
<polygon fill="midnightblue" stroke="midnightblue" points="1876.43,-203.5 1886.43,-200 1876.43,-196.5 1876.43,-203.5"/>
</g>
<!-- Node20&#45;&gt;Node15 -->
<g id="edge20" class="edge"><title>Node20&#45;&gt;Node15</title>
<path fill="none" stroke="midnightblue" d="M1453.56,-350C1466.7,-350 1480.87,-350 1493.56,-350"/>
<polygon fill="midnightblue" stroke="midnightblue" points="1493.81,-353.5 1503.81,-350 1493.81,-346.5 1493.81,-353.5"/>
</g>
<!-- Node21&#45;&gt;Node8 -->
<g id="edge24" class="edge"><title>Node21&#45;&gt;Node8</title>
<path fill="none" stroke="midnightblue" d="M1023.11,-369C1036.83,-369 1052.45,-369 1067.46,-369"/>
<polygon fill="midnightblue" stroke="midnightblue" points="1067.73,-372.5 1077.73,-369 1067.73,-365.5 1067.73,-372.5"/>
</g>
<!-- Node21&#45;&gt;Node11 -->
<g id="edge22" class="edge"><title>Node21&#45;&gt;Node11</title>
<path fill="none" stroke="midnightblue" d="M1019.6,-359.411C1039.08,-354.442 1063.07,-348.323 1083.8,-343.039"/>
<polygon fill="midnightblue" stroke="midnightblue" points="1084.85,-346.383 1093.67,-340.52 1083.12,-339.6 1084.85,-346.383"/>
</g>
<!-- Node21&#45;&gt;Node13 -->
<g id="edge23" class="edge"><title>Node21&#45;&gt;Node13</title>
<path fill="none" stroke="midnightblue" d="M1019.6,-378.589C1039.08,-383.558 1063.07,-389.677 1083.8,-394.961"/>
<polygon fill="midnightblue" stroke="midnightblue" points="1083.12,-398.4 1093.67,-397.48 1084.85,-391.617 1083.12,-398.4"/>
</g>
<!-- Node23&#45;&gt;Node6 -->
<g id="edge29" class="edge"><title>Node23&#45;&gt;Node6</title>
<path fill="none" stroke="midnightblue" d="M435.836,-163.809C459.126,-180.321 506.339,-213.792 534.147,-233.507"/>
<polygon fill="midnightblue" stroke="midnightblue" points="532.257,-236.458 542.439,-239.386 536.306,-230.747 532.257,-236.458"/>
</g>
<!-- Node24 -->
<g id="node24" class="node"><title>Node24</title>
<g id="a_node24"><a xlink:href="avltree_8c.html#a645f38498ce0006cd109919b893e21f4" target="_top" xlink:title="new_node">
<polygon fill="none" stroke="black" points="526.5,-38.5 526.5,-57.5 587.5,-57.5 587.5,-38.5 526.5,-38.5"/>
<text text-anchor="middle" x="557" y="-45.5" font-family="Helvetica,sans-Serif" font-size="10.00">new_node</text>
</a>
</g>
</g>
<!-- Node23&#45;&gt;Node24 -->
<g id="edge28" class="edge"><title>Node23&#45;&gt;Node24</title>
<path fill="none" stroke="midnightblue" d="M451.512,-144.412C456.701,-141.88 461.782,-138.772 466,-135 490.039,-113.503 478.075,-93.6243 502,-72 506.437,-67.9896 511.653,-64.5612 517.064,-61.6576"/>
<polygon fill="midnightblue" stroke="midnightblue" points="518.745,-64.7336 526.251,-57.2565 515.72,-58.4207 518.745,-64.7336"/>
</g>
<!-- Node25 -->
<g id="node25" class="node"><title>Node25</title>
<g id="a_node25"><a xlink:href="stm_8h.html#a7f41614dded09613f4ccd7578ef188ba" target="_top" xlink:title="new_stm_blk">
<polygon fill="none" stroke="black" points="1235,-76.5 1235,-95.5 1309,-95.5 1309,-76.5 1235,-76.5"/>
<text text-anchor="middle" x="1272" y="-83.5" font-family="Helvetica,sans-Serif" font-size="10.00">new_stm_blk</text>
</a>
</g>
</g>
<!-- Node23&#45;&gt;Node25 -->
<g id="edge30" class="edge"><title>Node23&#45;&gt;Node25</title>
<path fill="none" stroke="midnightblue" d="M443.761,-144.401C488.302,-125.657 593.471,-86 686,-86 686,-86 686,-86 982,-86 1067.73,-86 1167.76,-86 1224.82,-86"/>
<polygon fill="midnightblue" stroke="midnightblue" points="1224.96,-89.5001 1234.96,-86 1224.96,-82.5001 1224.96,-89.5001"/>
</g>
<!-- Node29 -->
<g id="node29" class="node"><title>Node29</title>
<g id="a_node29"><a xlink:href="stm_8h.html#a2c77806bb0511fb17494d226b5ea20d8" target="_top" xlink:title="init_stm_blk">
<polygon fill="none" stroke="black" points="522.5,-0.5 522.5,-19.5 591.5,-19.5 591.5,-0.5 522.5,-0.5"/>
<text text-anchor="middle" x="557" y="-7.5" font-family="Helvetica,sans-Serif" font-size="10.00">init_stm_blk</text>
</a>
</g>
</g>
<!-- Node23&#45;&gt;Node29 -->
<g id="edge37" class="edge"><title>Node23&#45;&gt;Node29</title>
<path fill="none" stroke="midnightblue" d="M453.48,-144.335C458.117,-141.86 462.501,-138.791 466,-135 499.742,-98.436 467.011,-64.373 502,-29 505.232,-25.7321 509.059,-23.0248 513.161,-20.7822"/>
<polygon fill="midnightblue" stroke="midnightblue" points="514.785,-23.8891 522.453,-16.578 511.899,-17.5116 514.785,-23.8891"/>
</g>
<!-- Node30 -->
<g id="node30" class="node"><title>Node30</title>
<g id="a_node30"><a xlink:href="stmskip_8cc.html#ab6919257456cff4d47684cdfd3bc5a3c" target="_top" xlink:title="get_level">
<polygon fill="none" stroke="black" points="529,-163.5 529,-182.5 585,-182.5 585,-163.5 529,-163.5"/>
<text text-anchor="middle" x="557" y="-170.5" font-family="Helvetica,sans-Serif" font-size="10.00">get_level</text>
</a>
</g>
</g>
<!-- Node23&#45;&gt;Node30 -->
<g id="edge38" class="edge"><title>Node23&#45;&gt;Node30</title>
<path fill="none" stroke="midnightblue" d="M464.031,-159.96C481.574,-162.447 501.782,-165.312 518.78,-167.722"/>
<polygon fill="midnightblue" stroke="midnightblue" points="518.503,-171.218 528.896,-169.157 519.486,-164.288 518.503,-171.218"/>
</g>
<!-- Node31 -->
<g id="node31" class="node"><title>Node31</title>
<g id="a_node31"><a xlink:href="stm_8h.html#a00de1ad150378181157510e2e5982f75" target="_top" xlink:title="write_stm_blk">
<polygon fill="none" stroke="black" points="648.5,-212.5 648.5,-231.5 725.5,-231.5 725.5,-212.5 648.5,-212.5"/>
<text text-anchor="middle" x="687" y="-219.5" font-family="Helvetica,sans-Serif" font-size="10.00">write_stm_blk</text>
</a>
</g>
</g>
<!-- Node23&#45;&gt;Node31 -->
<g id="edge39" class="edge"><title>Node23&#45;&gt;Node31</title>
<path fill="none" stroke="midnightblue" d="M464.377,-145.447C503.988,-139.403 564.054,-135.316 612,-154 637.65,-163.996 659.793,-187.501 673.007,-204.066"/>
<polygon fill="midnightblue" stroke="midnightblue" points="670.543,-206.605 679.396,-212.425 676.104,-202.354 670.543,-206.605"/>
</g>
<!-- Node26 -->
<g id="node26" class="node"><title>Node26</title>
<g id="a_node26"><a xlink:href="gc_8c.html#a5c5981457deeeefd60df569f6265f59c" target="_top" xlink:title="fr_gc_alloc">
<polygon fill="none" stroke="black" points="1374,-114.5 1374,-133.5 1438,-133.5 1438,-114.5 1374,-114.5"/>
<text text-anchor="middle" x="1406" y="-121.5" font-family="Helvetica,sans-Serif" font-size="10.00">fr_gc_alloc</text>
</a>
</g>
</g>
<!-- Node25&#45;&gt;Node26 -->
<g id="edge31" class="edge"><title>Node25&#45;&gt;Node26</title>
<path fill="none" stroke="midnightblue" d="M1306.31,-95.589C1323.92,-100.658 1345.68,-106.923 1364.29,-112.279"/>
<polygon fill="midnightblue" stroke="midnightblue" points="1363.39,-115.664 1373.97,-115.067 1365.33,-108.937 1363.39,-115.664"/>
</g>
<!-- Node26&#45;&gt;Node18 -->
<g id="edge32" class="edge"><title>Node26&#45;&gt;Node18</title>
<path fill="none" stroke="midnightblue" d="M1438.12,-126.235C1523.7,-132.383 1763.72,-149.624 1876.3,-157.711"/>
<polygon fill="midnightblue" stroke="midnightblue" points="1876.23,-161.216 1886.46,-158.441 1876.73,-154.234 1876.23,-161.216"/>
</g>
<!-- Node27 -->
<g id="node27" class="node"><title>Node27</title>
<g id="a_node27"><a xlink:href="gc_8c.html#a6dffa65320ddab40d01f198433b3aeb6" target="_top" xlink:title="get_alloc_chunk">
<polygon fill="none" stroke="black" points="1490.5,-152.5 1490.5,-171.5 1577.5,-171.5 1577.5,-152.5 1490.5,-152.5"/>
<text text-anchor="middle" x="1534" y="-159.5" font-family="Helvetica,sans-Serif" font-size="10.00">get_alloc_chunk</text>
</a>
</g>
</g>
<!-- Node26&#45;&gt;Node27 -->
<g id="edge33" class="edge"><title>Node26&#45;&gt;Node27</title>
<path fill="none" stroke="midnightblue" d="M1438.15,-133.393C1454.23,-138.244 1474.07,-144.227 1491.44,-149.466"/>
<polygon fill="midnightblue" stroke="midnightblue" points="1490.75,-152.914 1501.34,-152.451 1492.77,-146.212 1490.75,-152.914"/>
</g>
<!-- Node27&#45;&gt;Node18 -->
<g id="edge36" class="edge"><title>Node27&#45;&gt;Node18</title>
<path fill="none" stroke="midnightblue" d="M1577.53,-162C1649.25,-162 1794.39,-162 1876.28,-162"/>
<polygon fill="midnightblue" stroke="midnightblue" points="1876.43,-165.5 1886.43,-162 1876.43,-158.5 1876.43,-165.5"/>
</g>
<!-- Node28 -->
<g id="node28" class="node"><title>Node28</title>
<g id="a_node28"><a xlink:href="gc_8c.html#ae47e099483bed50da4e41b906c300b99" target="_top" xlink:title="get_filled_chunks">
<polygon fill="none" stroke="black" points="1618,-190.5 1618,-209.5 1710,-209.5 1710,-190.5 1618,-190.5"/>
<text text-anchor="middle" x="1664" y="-197.5" font-family="Helvetica,sans-Serif" font-size="10.00">get_filled_chunks</text>
</a>
</g>
</g>
<!-- Node27&#45;&gt;Node28 -->
<g id="edge34" class="edge"><title>Node27&#45;&gt;Node28</title>
<path fill="none" stroke="midnightblue" d="M1567.3,-171.589C1583.52,-176.404 1603.38,-182.299 1620.79,-187.468"/>
<polygon fill="midnightblue" stroke="midnightblue" points="1620.13,-190.923 1630.71,-190.414 1622.12,-184.213 1620.13,-190.923"/>
</g>
<!-- Node28&#45;&gt;Node17 -->
<g id="edge35" class="edge"><title>Node28&#45;&gt;Node17</title>
<path fill="none" stroke="midnightblue" d="M1710.37,-200C1719.95,-200 1730.19,-200 1740.18,-200"/>
<polygon fill="midnightblue" stroke="midnightblue" points="1740.47,-203.5 1750.47,-200 1740.47,-196.5 1740.47,-203.5"/>
</g>
<!-- Node31&#45;&gt;Node8 -->
<g id="edge40" class="edge"><title>Node31&#45;&gt;Node8</title>
<path fill="none" stroke="midnightblue" d="M725.837,-217.551C766.628,-214.35 832.614,-213.872 884,-236 903.935,-244.585 902.183,-256.604 920,-269 984.778,-314.066 1005.6,-318.619 1078,-350 1082.7,-352.037 1087.7,-354.036 1092.67,-355.928"/>
<polygon fill="midnightblue" stroke="midnightblue" points="1091.54,-359.239 1102.13,-359.414 1093.96,-352.671 1091.54,-359.239"/>
</g>
<!-- Node31&#45;&gt;Node9 -->
<g id="edge41" class="edge"><title>Node31&#45;&gt;Node9</title>
<path fill="none" stroke="midnightblue" d="M692.902,-231.645C703.116,-250.784 728.535,-293.718 762,-317 764.867,-318.995 767.954,-320.788 771.161,-322.398"/>
<polygon fill="midnightblue" stroke="midnightblue" points="769.87,-325.654 780.434,-326.469 772.684,-319.244 769.87,-325.654"/>
</g>
<!-- Node31&#45;&gt;Node10 -->
<g id="edge42" class="edge"><title>Node31&#45;&gt;Node10</title>
<path fill="none" stroke="midnightblue" d="M690.645,-231.653C697.832,-256.061 720.046,-320.735 762,-355 765.819,-358.119 770.155,-360.729 774.709,-362.912"/>
<polygon fill="midnightblue" stroke="midnightblue" points="773.683,-366.273 784.263,-366.82 776.333,-359.795 773.683,-366.273"/>
</g>
<!-- Node31&#45;&gt;Node21 -->
<g id="edge49" class="edge"><title>Node31&#45;&gt;Node21</title>
<path fill="none" stroke="midnightblue" d="M725.522,-230.696C774.426,-242.407 856.907,-263.557 884,-279 917.518,-298.106 948.59,-331.169 965.857,-351.461"/>
<polygon fill="midnightblue" stroke="midnightblue" points="963.292,-353.851 972.379,-359.298 968.673,-349.373 963.292,-353.851"/>
</g>
<!-- Node31&#45;&gt;Node22 -->
<g id="edge48" class="edge"><title>Node31&#45;&gt;Node22</title>
<path fill="none" stroke="midnightblue" d="M699.999,-231.755C714.185,-242.966 738.806,-261.434 762,-274 769.144,-277.871 777.048,-281.472 784.71,-284.647"/>
<polygon fill="midnightblue" stroke="midnightblue" points="783.625,-287.982 794.21,-288.428 786.213,-281.478 783.625,-287.982"/>
</g>
<!-- Node31&#45;&gt;Node26 -->
<g id="edge43" class="edge"><title>Node31&#45;&gt;Node26</title>
<path fill="none" stroke="midnightblue" d="M693.646,-212.342C704.415,-194.945 729.719,-158.693 762,-143 849.468,-100.478 882.744,-124 980,-124 980,-124 980,-124 1133,-124 1214.9,-124 1310.67,-124 1363.93,-124"/>
<polygon fill="midnightblue" stroke="midnightblue" points="1364,-127.5 1374,-124 1364,-120.5 1364,-127.5"/>
</g>
<!-- Node32 -->
<g id="node32" class="node"><title>Node32</title>
<g id="a_node32"><a xlink:href="namespaceanonymous__namespace_02libitm-5_813_0014_8cpp_03.html#a8b7be7cf3afef27c0623b844ce9116d8" target="_top" xlink:title="anonymous_namespace\l\{libitm&#45;5::13,14::cpp\}\l::memcpy">
<polygon fill="none" stroke="black" points="762,-152.5 762,-193.5 884,-193.5 884,-152.5 762,-152.5"/>
<text text-anchor="start" x="770" y="-181.5" font-family="Helvetica,sans-Serif" font-size="10.00">anonymous_namespace</text>
<text text-anchor="start" x="770" y="-170.5" font-family="Helvetica,sans-Serif" font-size="10.00">{libitm&#45;5::13,14::cpp}</text>
<text text-anchor="middle" x="823" y="-159.5" font-family="Helvetica,sans-Serif" font-size="10.00">::memcpy</text>
</a>
</g>
</g>
<!-- Node31&#45;&gt;Node32 -->
<g id="edge44" class="edge"><title>Node31&#45;&gt;Node32</title>
<path fill="none" stroke="midnightblue" d="M714.155,-212.436C726.213,-208.027 741.126,-202.573 755.975,-197.143"/>
<polygon fill="midnightblue" stroke="midnightblue" points="757.503,-200.311 765.693,-193.59 755.099,-193.737 757.503,-200.311"/>
</g>
<!-- Node33 -->
<g id="node33" class="node"><title>Node33</title>
<g id="a_node33"><a xlink:href="namespaceanonymous__namespace_02oreceager_8cpp_03.html#a7a88c7a7453bbfaca53eeac03b80a5d6" target="_top" xlink:title="anonymous_namespace\l\{oreceager::cpp\}::read">
<polygon fill="none" stroke="black" points="920,-191 920,-221 1042,-221 1042,-191 920,-191"/>
<text text-anchor="start" x="928" y="-209" font-family="Helvetica,sans-Serif" font-size="10.00">anonymous_namespace</text>
<text text-anchor="middle" x="981" y="-198" font-family="Helvetica,sans-Serif" font-size="10.00">{oreceager::cpp}::read</text>
</a>
</g>
</g>
<!-- Node32&#45;&gt;Node33 -->
<g id="edge45" class="edge"><title>Node32&#45;&gt;Node33</title>
<path fill="none" stroke="midnightblue" d="M884.314,-185.759C892.695,-187.532 901.363,-189.365 909.904,-191.172"/>
<polygon fill="midnightblue" stroke="midnightblue" points="909.339,-194.63 919.847,-193.275 910.788,-187.781 909.339,-194.63"/>
</g>
<!-- Node34 -->
<g id="node34" class="node"><title>Node34</title>
<g id="a_node34"><a xlink:href="namespaceitm2stm.html#a334b9615cac957b9ce7a4743beaaaf53" target="_top" xlink:title="itm2stm::add_bytes">
<polygon fill="none" stroke="black" points="929.5,-152.5 929.5,-171.5 1032.5,-171.5 1032.5,-152.5 929.5,-152.5"/>
<text text-anchor="middle" x="981" y="-159.5" font-family="Helvetica,sans-Serif" font-size="10.00">itm2stm::add_bytes</text>
</a>
</g>
</g>
<!-- Node32&#45;&gt;Node34 -->
<g id="edge46" class="edge"><title>Node32&#45;&gt;Node34</title>
<path fill="none" stroke="midnightblue" d="M884.314,-168.747C895.852,-167.933 907.936,-167.081 919.481,-166.267"/>
<polygon fill="midnightblue" stroke="midnightblue" points="919.732,-169.758 929.461,-165.564 919.239,-162.776 919.732,-169.758"/>
</g>
<!-- Node35 -->
<g id="node35" class="node"><title>Node35</title>
<g id="a_node35"><a xlink:href="namespaceitm2stm.html#aa9908b113027ae21130750939980ee0b" target="_top" xlink:title="itm2stm::offset_of">
<polygon fill="none" stroke="black" points="933,-240.5 933,-259.5 1029,-259.5 1029,-240.5 933,-240.5"/>
<text text-anchor="middle" x="981" y="-247.5" font-family="Helvetica,sans-Serif" font-size="10.00">itm2stm::offset_of</text>
</a>
</g>
</g>
<!-- Node32&#45;&gt;Node35 -->
<g id="edge47" class="edge"><title>Node32&#45;&gt;Node35</title>
<path fill="none" stroke="midnightblue" d="M859.605,-193.608C867.646,-198.308 876.131,-203.301 884,-208 900.099,-217.613 902.996,-222.096 920,-230 925.422,-232.52 931.252,-234.874 937.071,-237.016"/>
<polygon fill="midnightblue" stroke="midnightblue" points="936.185,-240.415 946.78,-240.417 938.499,-233.808 936.185,-240.415"/>
</g>
<!-- Node36&#45;&gt;Node6 -->
<g id="edge51" class="edge"><title>Node36&#45;&gt;Node6</title>
<path fill="none" stroke="midnightblue" d="M455.814,-220.589C473.033,-225.472 494.164,-231.464 512.573,-236.685"/>
<polygon fill="midnightblue" stroke="midnightblue" points="511.621,-240.053 522.197,-239.414 513.531,-233.319 511.621,-240.053"/>
</g>
<!-- Node36&#45;&gt;Node31 -->
<g id="edge52" class="edge"><title>Node36&#45;&gt;Node31</title>
<path fill="none" stroke="midnightblue" d="M465.594,-212.816C513.175,-214.799 589.119,-217.963 638.271,-220.011"/>
<polygon fill="midnightblue" stroke="midnightblue" points="638.196,-223.511 648.333,-220.431 638.487,-216.517 638.196,-223.511"/>
</g>
</g>
</svg>
