<?xml version="1.0" encoding="UTF-8" standalone="no"?>
<!DOCTYPE svg PUBLIC "-//W3C//DTD SVG 1.1//EN"
 "http://www.w3.org/Graphics/SVG/1.1/DTD/svg11.dtd">
<!-- Generated by graphviz version 2.36.0 (20140111.2315)
 -->
<!-- Title: rstm/rstm&#45;dev/bench/HashBench.cpp Pages: 1 -->
<svg width="1238pt" height="488pt"
 viewBox="0.00 0.00 1238.00 488.00" xmlns="http://www.w3.org/2000/svg" xmlns:xlink="http://www.w3.org/1999/xlink">
<g id="graph0" class="graph" transform="scale(1 1) rotate(0) translate(4 484)">
<title>rstm/rstm&#45;dev/bench/HashBench.cpp</title>
<!-- Node1 -->
<g id="node1" class="node"><title>Node1</title>
<polygon fill="#bfbfbf" stroke="black" points="989.5,-449 989.5,-479 1096.5,-479 1096.5,-449 989.5,-449"/>
<text text-anchor="start" x="997.5" y="-467" font-family="Helvetica,sans-Serif" font-size="10.00">rstm/rstm&#45;dev/bench</text>
<text text-anchor="middle" x="1043" y="-456" font-family="Helvetica,sans-Serif" font-size="10.00">/HashBench.cpp</text>
</g>
<!-- Node2 -->
<g id="node2" class="node"><title>Node2</title>
<polygon fill="none" stroke="#bfbfbf" points="698.5,-0.5 698.5,-19.5 769.5,-19.5 769.5,-0.5 698.5,-0.5"/>
<text text-anchor="middle" x="734" y="-7.5" font-family="Helvetica,sans-Serif" font-size="10.00">stm/config.h</text>
</g>
<!-- Node1&#45;&gt;Node2 -->
<g id="edge1" class="edge"><title>Node1&#45;&gt;Node2</title>
<path fill="none" stroke="midnightblue" d="M1036.16,-448.723C1026.5,-427.193 1010,-384.898 1010,-347 1010,-347 1010,-347 1010,-121 1010,-84.8221 991.647,-75.2255 961,-56 905.353,-21.0914 828.191,-12.4176 779.695,-10.707"/>
<polygon fill="midnightblue" stroke="midnightblue" points="779.593,-7.20313 769.503,-10.4353 779.406,-14.2006 779.593,-7.20313"/>
</g>
<!-- Node3 -->
<g id="node3" class="node"><title>Node3</title>
<polygon fill="none" stroke="#bfbfbf" points="1096,-336.5 1096,-355.5 1150,-355.5 1150,-336.5 1096,-336.5"/>
<text text-anchor="middle" x="1123" y="-343.5" font-family="Helvetica,sans-Serif" font-size="10.00">iostream</text>
</g>
<!-- Node1&#45;&gt;Node3 -->
<g id="edge2" class="edge"><title>Node1&#45;&gt;Node3</title>
<path fill="none" stroke="midnightblue" d="M1079.38,-448.993C1095.44,-440.791 1112.73,-428.703 1122,-412 1129.78,-397.967 1129.23,-379.471 1127.2,-365.798"/>
<polygon fill="midnightblue" stroke="midnightblue" points="1130.58,-364.834 1125.3,-355.651 1123.7,-366.125 1130.58,-364.834"/>
</g>
<!-- Node4 -->
<g id="node4" class="node"><title>Node4</title>
<g id="a_node4"><a xlink:href="rand__r__32_8h.html" target="_top" xlink:title="alt&#45;license/rand_r_32.h">
<polygon fill="none" stroke="black" points="790.5,-224.5 790.5,-243.5 905.5,-243.5 905.5,-224.5 790.5,-224.5"/>
<text text-anchor="middle" x="848" y="-231.5" font-family="Helvetica,sans-Serif" font-size="10.00">alt&#45;license/rand_r_32.h</text>
</a>
</g>
</g>
<!-- Node1&#45;&gt;Node4 -->
<g id="edge3" class="edge"><title>Node1&#45;&gt;Node4</title>
<path fill="none" stroke="midnightblue" d="M1025.48,-448.762C979.036,-410.946 855.999,-310.18 851,-300 843.919,-285.582 843.779,-267.128 845.053,-253.57"/>
<polygon fill="midnightblue" stroke="midnightblue" points="848.54,-253.89 846.335,-243.528 841.597,-253.004 848.54,-253.89"/>
</g>
<!-- Node6 -->
<g id="node6" class="node"><title>Node6</title>
<g id="a_node6"><a xlink:href="api_8hpp.html" target="_top" xlink:title="api/api.hpp">
<polygon fill="none" stroke="black" points="880,-392.5 880,-411.5 944,-411.5 944,-392.5 880,-392.5"/>
<text text-anchor="middle" x="912" y="-399.5" font-family="Helvetica,sans-Serif" font-size="10.00">api/api.hpp</text>
</a>
</g>
</g>
<!-- Node1&#45;&gt;Node6 -->
<g id="edge6" class="edge"><title>Node1&#45;&gt;Node6</title>
<path fill="none" stroke="midnightblue" d="M1012.29,-448.933C990.382,-438.9 961.167,-425.519 939.922,-415.789"/>
<polygon fill="midnightblue" stroke="midnightblue" points="941.326,-412.582 930.777,-411.6 938.411,-418.946 941.326,-412.582"/>
</g>
<!-- Node29 -->
<g id="node29" class="node"><title>Node29</title>
<g id="a_node29"><a xlink:href="bmconfig_8hpp.html" target="_top" xlink:title="bmconfig.hpp">
<polygon fill="none" stroke="black" points="1038.5,-392.5 1038.5,-411.5 1113.5,-411.5 1113.5,-392.5 1038.5,-392.5"/>
<text text-anchor="middle" x="1076" y="-399.5" font-family="Helvetica,sans-Serif" font-size="10.00">bmconfig.hpp</text>
</a>
</g>
</g>
<!-- Node1&#45;&gt;Node29 -->
<g id="edge52" class="edge"><title>Node1&#45;&gt;Node29</title>
<path fill="none" stroke="midnightblue" d="M1050.82,-448.781C1055.47,-440.332 1061.4,-429.548 1066.34,-420.569"/>
<polygon fill="midnightblue" stroke="midnightblue" points="1069.45,-422.179 1071.2,-411.731 1063.31,-418.806 1069.45,-422.179"/>
</g>
<!-- Node30 -->
<g id="node30" class="node"><title>Node30</title>
<g id="a_node30"><a xlink:href="Hash_8hpp.html" target="_top" xlink:title="Hash.hpp">
<polygon fill="none" stroke="black" points="1170.5,-392.5 1170.5,-411.5 1229.5,-411.5 1229.5,-392.5 1170.5,-392.5"/>
<text text-anchor="middle" x="1200" y="-399.5" font-family="Helvetica,sans-Serif" font-size="10.00">Hash.hpp</text>
</a>
</g>
</g>
<!-- Node1&#45;&gt;Node30 -->
<g id="edge56" class="edge"><title>Node1&#45;&gt;Node30</title>
<path fill="none" stroke="midnightblue" d="M1079.81,-448.933C1106.53,-438.72 1142.34,-425.036 1167.9,-415.266"/>
<polygon fill="midnightblue" stroke="midnightblue" points="1169.4,-418.439 1177.5,-411.6 1166.91,-411.901 1169.4,-418.439"/>
</g>
<!-- Node4&#45;&gt;Node2 -->
<g id="edge5" class="edge"><title>Node4&#45;&gt;Node2</title>
<path fill="none" stroke="midnightblue" d="M850.65,-224.252C856.348,-203.992 868.287,-152.493 856,-112 847.409,-83.6866 841.835,-75.9677 820,-56 804.823,-42.1208 784.571,-31.2474 767.532,-23.6684"/>
<polygon fill="midnightblue" stroke="midnightblue" points="768.506,-20.2794 757.933,-19.5888 765.767,-26.7216 768.506,-20.2794"/>
</g>
<!-- Node5 -->
<g id="node5" class="node"><title>Node5</title>
<polygon fill="none" stroke="#bfbfbf" points="782,-168.5 782,-187.5 830,-187.5 830,-168.5 782,-168.5"/>
<text text-anchor="middle" x="806" y="-175.5" font-family="Helvetica,sans-Serif" font-size="10.00">stdlib.h</text>
</g>
<!-- Node4&#45;&gt;Node5 -->
<g id="edge4" class="edge"><title>Node4&#45;&gt;Node5</title>
<path fill="none" stroke="midnightblue" d="M841.065,-224.083C835.071,-216.377 826.248,-205.033 818.952,-195.653"/>
<polygon fill="midnightblue" stroke="midnightblue" points="821.709,-193.496 812.806,-187.751 816.183,-197.793 821.709,-193.496"/>
</g>
<!-- Node6&#45;&gt;Node2 -->
<g id="edge7" class="edge"><title>Node6&#45;&gt;Node2</title>
<path fill="none" stroke="midnightblue" d="M917.537,-392.403C932.391,-368.488 972,-298.74 972,-235 972,-235 972,-235 972,-121 972,-37.2211 848.98,-17.0501 779.83,-12.3296"/>
<polygon fill="midnightblue" stroke="midnightblue" points="779.823,-8.82291 769.631,-11.7182 779.404,-15.8104 779.823,-8.82291"/>
</g>
<!-- Node7 -->
<g id="node7" class="node"><title>Node7</title>
<g id="a_node7"><a xlink:href="library_8hpp.html" target="_top" xlink:title="api/library.hpp">
<polygon fill="none" stroke="black" points="329.5,-336.5 329.5,-355.5 406.5,-355.5 406.5,-336.5 329.5,-336.5"/>
<text text-anchor="middle" x="368" y="-343.5" font-family="Helvetica,sans-Serif" font-size="10.00">api/library.hpp</text>
</a>
</g>
</g>
<!-- Node6&#45;&gt;Node7 -->
<g id="edge8" class="edge"><title>Node6&#45;&gt;Node7</title>
<path fill="none" stroke="midnightblue" d="M879.599,-397.784C787.862,-388.677 525.928,-362.677 416.727,-351.837"/>
<polygon fill="midnightblue" stroke="midnightblue" points="416.943,-348.341 406.646,-350.836 416.252,-355.307 416.943,-348.341"/>
</g>
<!-- Node7&#45;&gt;Node2 -->
<g id="edge10" class="edge"><title>Node7&#45;&gt;Node2</title>
<path fill="none" stroke="midnightblue" d="M352.313,-336.396C325.33,-320.314 273,-282.943 273,-235 273,-235 273,-235 273,-177 273,-118.466 277.954,-90.8265 325,-56 381.655,-14.0598 594.026,-10.0402 688.358,-10.3996"/>
<polygon fill="midnightblue" stroke="midnightblue" points="688.435,-13.9 698.455,-10.4568 688.475,-6.90014 688.435,-13.9"/>
</g>
<!-- Node8 -->
<g id="node8" class="node"><title>Node8</title>
<polygon fill="none" stroke="#bfbfbf" points="191,-280.5 191,-299.5 245,-299.5 245,-280.5 191,-280.5"/>
<text text-anchor="middle" x="218" y="-287.5" font-family="Helvetica,sans-Serif" font-size="10.00">setjmp.h</text>
</g>
<!-- Node7&#45;&gt;Node8 -->
<g id="edge9" class="edge"><title>Node7&#45;&gt;Node8</title>
<path fill="none" stroke="midnightblue" d="M344.232,-336.444C319.107,-327.399 279.289,-313.064 251.1,-302.916"/>
<polygon fill="midnightblue" stroke="midnightblue" points="252.251,-299.611 241.657,-299.516 249.88,-306.197 252.251,-299.611"/>
</g>
<!-- Node9 -->
<g id="node9" class="node"><title>Node9</title>
<g id="a_node9"><a xlink:href="platform_8hpp.html" target="_top" xlink:title="common/platform.hpp">
<polygon fill="none" stroke="black" points="35.5,-56.5 35.5,-75.5 146.5,-75.5 146.5,-56.5 35.5,-56.5"/>
<text text-anchor="middle" x="91" y="-63.5" font-family="Helvetica,sans-Serif" font-size="10.00">common/platform.hpp</text>
</a>
</g>
</g>
<!-- Node7&#45;&gt;Node9 -->
<g id="edge11" class="edge"><title>Node7&#45;&gt;Node9</title>
<path fill="none" stroke="midnightblue" d="M329.359,-340.15C243.625,-328.309 45,-294.461 45,-235 45,-235 45,-235 45,-177 45,-141.817 65.2776,-104.863 78.9065,-83.9988"/>
<polygon fill="midnightblue" stroke="midnightblue" points="81.8814,-85.8481 84.6039,-75.609 76.0905,-81.9156 81.8814,-85.8481"/>
</g>
<!-- Node13 -->
<g id="node13" class="node"><title>Node13</title>
<g id="a_node13"><a xlink:href="txthread_8hpp.html" target="_top" xlink:title="stm/txthread.hpp">
<polygon fill="none" stroke="black" points="418,-280.5 418,-299.5 508,-299.5 508,-280.5 418,-280.5"/>
<text text-anchor="middle" x="463" y="-287.5" font-family="Helvetica,sans-Serif" font-size="10.00">stm/txthread.hpp</text>
</a>
</g>
</g>
<!-- Node7&#45;&gt;Node13 -->
<g id="edge16" class="edge"><title>Node7&#45;&gt;Node13</title>
<path fill="none" stroke="midnightblue" d="M383.263,-336.324C398.221,-327.822 421.255,-314.729 438.727,-304.797"/>
<polygon fill="midnightblue" stroke="midnightblue" points="440.81,-307.639 447.774,-299.655 437.351,-301.553 440.81,-307.639"/>
</g>
<!-- Node28 -->
<g id="node28" class="node"><title>Node28</title>
<g id="a_node28"><a xlink:href="library__inst_8hpp.html" target="_top" xlink:title="library_inst.hpp">
<polygon fill="none" stroke="black" points="860.5,-280.5 860.5,-299.5 943.5,-299.5 943.5,-280.5 860.5,-280.5"/>
<text text-anchor="middle" x="902" y="-287.5" font-family="Helvetica,sans-Serif" font-size="10.00">library_inst.hpp</text>
</a>
</g>
</g>
<!-- Node7&#45;&gt;Node28 -->
<g id="edge50" class="edge"><title>Node7&#45;&gt;Node28</title>
<path fill="none" stroke="midnightblue" d="M406.834,-341.073C501.368,-331.513 743.505,-307.028 850.194,-296.239"/>
<polygon fill="midnightblue" stroke="midnightblue" points="850.794,-299.696 860.391,-295.208 850.089,-292.732 850.794,-299.696"/>
</g>
<!-- Node9&#45;&gt;Node2 -->
<g id="edge12" class="edge"><title>Node9&#45;&gt;Node2</title>
<path fill="none" stroke="midnightblue" d="M146.822,-56.9419C149.585,-56.6083 152.323,-56.292 155,-56 353.005,-34.4044 590.209,-19.3413 688.201,-13.5889"/>
<polygon fill="midnightblue" stroke="midnightblue" points="688.571,-17.0734 698.35,-12.9973 688.163,-10.0853 688.571,-17.0734"/>
</g>
<!-- Node10 -->
<g id="node10" class="node"><title>Node10</title>
<polygon fill="none" stroke="#bfbfbf" points="-0.5,-0.5 -0.5,-19.5 48.5,-19.5 48.5,-0.5 -0.5,-0.5"/>
<text text-anchor="middle" x="24" y="-7.5" font-family="Helvetica,sans-Serif" font-size="10.00">stdint.h</text>
</g>
<!-- Node9&#45;&gt;Node10 -->
<g id="edge13" class="edge"><title>Node9&#45;&gt;Node10</title>
<path fill="none" stroke="midnightblue" d="M80.2353,-56.324C70.2339,-48.2631 55.1135,-36.0765 43.0695,-26.3695"/>
<polygon fill="midnightblue" stroke="midnightblue" points="44.9429,-23.3841 34.9606,-19.8339 40.5502,-28.8343 44.9429,-23.3841"/>
</g>
<!-- Node11 -->
<g id="node11" class="node"><title>Node11</title>
<polygon fill="none" stroke="#bfbfbf" points="67,-0.5 67,-19.5 115,-19.5 115,-0.5 67,-0.5"/>
<text text-anchor="middle" x="91" y="-7.5" font-family="Helvetica,sans-Serif" font-size="10.00">limits.h</text>
</g>
<!-- Node9&#45;&gt;Node11 -->
<g id="edge14" class="edge"><title>Node9&#45;&gt;Node11</title>
<path fill="none" stroke="midnightblue" d="M91,-56.083C91,-49.0059 91,-38.8611 91,-29.9865"/>
<polygon fill="midnightblue" stroke="midnightblue" points="94.5001,-29.751 91,-19.7511 87.5001,-29.7511 94.5001,-29.751"/>
</g>
<!-- Node12 -->
<g id="node12" class="node"><title>Node12</title>
<polygon fill="none" stroke="#bfbfbf" points="133.5,-0.5 133.5,-19.5 184.5,-19.5 184.5,-0.5 133.5,-0.5"/>
<text text-anchor="middle" x="159" y="-7.5" font-family="Helvetica,sans-Serif" font-size="10.00">unistd.h</text>
</g>
<!-- Node9&#45;&gt;Node12 -->
<g id="edge15" class="edge"><title>Node9&#45;&gt;Node12</title>
<path fill="none" stroke="midnightblue" d="M101.925,-56.324C112.175,-48.1849 127.721,-35.8395 140.001,-26.0874"/>
<polygon fill="midnightblue" stroke="midnightblue" points="142.221,-28.7937 147.876,-19.8339 137.868,-23.3119 142.221,-28.7937"/>
</g>
<!-- Node13&#45;&gt;Node4 -->
<g id="edge17" class="edge"><title>Node13&#45;&gt;Node4</title>
<path fill="none" stroke="midnightblue" d="M508.297,-282.647C575.448,-273.228 701.881,-255.495 780.127,-244.52"/>
<polygon fill="midnightblue" stroke="midnightblue" points="780.949,-247.939 790.366,-243.084 779.976,-241.007 780.949,-247.939"/>
</g>
<!-- Node14 -->
<g id="node14" class="node"><title>Node14</title>
<g id="a_node14"><a xlink:href="locks_8hpp.html" target="_top" xlink:title="common/locks.hpp">
<polygon fill="none" stroke="black" points="113.5,-112.5 113.5,-131.5 212.5,-131.5 212.5,-112.5 113.5,-112.5"/>
<text text-anchor="middle" x="163" y="-119.5" font-family="Helvetica,sans-Serif" font-size="10.00">common/locks.hpp</text>
</a>
</g>
</g>
<!-- Node13&#45;&gt;Node14 -->
<g id="edge18" class="edge"><title>Node13&#45;&gt;Node14</title>
<path fill="none" stroke="midnightblue" d="M447.293,-280.309C398.186,-253.136 247.282,-169.636 187.632,-136.63"/>
<polygon fill="midnightblue" stroke="midnightblue" points="188.996,-133.384 178.551,-131.605 185.607,-139.509 188.996,-133.384"/>
</g>
<!-- Node15 -->
<g id="node15" class="node"><title>Node15</title>
<g id="a_node15"><a xlink:href="ThreadLocal_8hpp.html" target="_top" xlink:title="common/ThreadLocal.hpp">
<polygon fill="none" stroke="black" points="643.5,-224.5 643.5,-243.5 772.5,-243.5 772.5,-224.5 643.5,-224.5"/>
<text text-anchor="middle" x="708" y="-231.5" font-family="Helvetica,sans-Serif" font-size="10.00">common/ThreadLocal.hpp</text>
</a>
</g>
</g>
<!-- Node13&#45;&gt;Node15 -->
<g id="edge20" class="edge"><title>Node13&#45;&gt;Node15</title>
<path fill="none" stroke="midnightblue" d="M501.821,-280.444C544.561,-271.023 613.332,-255.866 659.566,-245.675"/>
<polygon fill="midnightblue" stroke="midnightblue" points="660.348,-249.087 669.361,-243.516 658.842,-242.251 660.348,-249.087"/>
</g>
<!-- Node16 -->
<g id="node16" class="node"><title>Node16</title>
<g id="a_node16"><a xlink:href="metadata_8hpp.html" target="_top" xlink:title="stm/metadata.hpp">
<polygon fill="none" stroke="black" points="301.5,-168.5 301.5,-187.5 396.5,-187.5 396.5,-168.5 301.5,-168.5"/>
<text text-anchor="middle" x="349" y="-175.5" font-family="Helvetica,sans-Serif" font-size="10.00">stm/metadata.hpp</text>
</a>
</g>
</g>
<!-- Node13&#45;&gt;Node16 -->
<g id="edge22" class="edge"><title>Node13&#45;&gt;Node16</title>
<path fill="none" stroke="midnightblue" d="M452.382,-280.32C441.685,-271.46 424.83,-257.176 411,-244 394.169,-227.965 375.918,-208.566 363.607,-195.157"/>
<polygon fill="midnightblue" stroke="midnightblue" points="366.099,-192.696 356.775,-187.665 360.927,-197.412 366.099,-192.696"/>
</g>
<!-- Node22 -->
<g id="node22" class="node"><title>Node22</title>
<g id="a_node22"><a xlink:href="WriteSet_8hpp.html" target="_top" xlink:title="stm/WriteSet.hpp">
<polygon fill="none" stroke="black" points="508.5,-112.5 508.5,-131.5 601.5,-131.5 601.5,-112.5 508.5,-112.5"/>
<text text-anchor="middle" x="555" y="-119.5" font-family="Helvetica,sans-Serif" font-size="10.00">stm/WriteSet.hpp</text>
</a>
</g>
</g>
<!-- Node13&#45;&gt;Node22 -->
<g id="edge32" class="edge"><title>Node13&#45;&gt;Node22</title>
<path fill="none" stroke="midnightblue" d="M457.793,-280.192C445.961,-258.909 419.883,-203.801 444,-168 456.436,-149.539 477.881,-138.648 498.625,-132.225"/>
<polygon fill="midnightblue" stroke="midnightblue" points="499.7,-135.559 508.39,-129.497 497.817,-128.817 499.7,-135.559"/>
</g>
<!-- Node24 -->
<g id="node24" class="node"><title>Node24</title>
<g id="a_node24"><a xlink:href="UndoLog_8hpp.html" target="_top" xlink:title="stm/UndoLog.hpp">
<polygon fill="none" stroke="black" points="670,-168.5 670,-187.5 764,-187.5 764,-168.5 670,-168.5"/>
<text text-anchor="middle" x="717" y="-175.5" font-family="Helvetica,sans-Serif" font-size="10.00">stm/UndoLog.hpp</text>
</a>
</g>
</g>
<!-- Node13&#45;&gt;Node24 -->
<g id="edge37" class="edge"><title>Node13&#45;&gt;Node24</title>
<path fill="none" stroke="midnightblue" d="M492.348,-280.484C519.441,-272.274 560.568,-258.926 595,-244 604.77,-239.765 659.631,-210.16 692.366,-192.398"/>
<polygon fill="midnightblue" stroke="midnightblue" points="694.231,-195.368 701.349,-187.52 690.891,-189.217 694.231,-195.368"/>
</g>
<!-- Node26 -->
<g id="node26" class="node"><title>Node26</title>
<g id="a_node26"><a xlink:href="ValueList_8hpp.html" target="_top" xlink:title="stm/ValueList.hpp">
<polygon fill="none" stroke="black" points="453.5,-168.5 453.5,-187.5 548.5,-187.5 548.5,-168.5 453.5,-168.5"/>
<text text-anchor="middle" x="501" y="-175.5" font-family="Helvetica,sans-Serif" font-size="10.00">stm/ValueList.hpp</text>
</a>
</g>
</g>
<!-- Node13&#45;&gt;Node26 -->
<g id="edge42" class="edge"><title>Node13&#45;&gt;Node26</title>
<path fill="none" stroke="midnightblue" d="M465.153,-280.487C468.393,-267.973 474.904,-243.937 482,-224 485.239,-214.9 489.357,-204.989 492.931,-196.79"/>
<polygon fill="midnightblue" stroke="midnightblue" points="496.192,-198.07 497.059,-187.511 489.797,-195.225 496.192,-198.07"/>
</g>
<!-- Node27 -->
<g id="node27" class="node"><title>Node27</title>
<g id="a_node27"><a xlink:href="WBMMPolicy_8hpp.html" target="_top" xlink:title="WBMMPolicy.hpp">
<polygon fill="none" stroke="black" points="491.5,-224.5 491.5,-243.5 586.5,-243.5 586.5,-224.5 491.5,-224.5"/>
<text text-anchor="middle" x="539" y="-231.5" font-family="Helvetica,sans-Serif" font-size="10.00">WBMMPolicy.hpp</text>
</a>
</g>
</g>
<!-- Node13&#45;&gt;Node27 -->
<g id="edge45" class="edge"><title>Node13&#45;&gt;Node27</title>
<path fill="none" stroke="midnightblue" d="M475.211,-280.324C486.776,-272.107 504.375,-259.602 518.161,-249.807"/>
<polygon fill="midnightblue" stroke="midnightblue" points="520.443,-252.479 526.567,-243.834 516.388,-246.773 520.443,-252.479"/>
</g>
<!-- Node14&#45;&gt;Node9 -->
<g id="edge19" class="edge"><title>Node14&#45;&gt;Node9</title>
<path fill="none" stroke="midnightblue" d="M151.432,-112.324C140.58,-104.185 124.119,-91.8395 111.117,-82.0874"/>
<polygon fill="midnightblue" stroke="midnightblue" points="112.879,-79.0339 102.779,-75.8339 108.679,-84.6339 112.879,-79.0339"/>
</g>
<!-- Node15&#45;&gt;Node2 -->
<g id="edge21" class="edge"><title>Node15&#45;&gt;Node2</title>
<path fill="none" stroke="midnightblue" d="M748.694,-224.439C783.021,-216.294 828.242,-203.071 839,-188 845.19,-179.329 853.841,-148.554 838,-112 821.332,-73.5386 782.334,-42.3733 757.115,-25.2894"/>
<polygon fill="midnightblue" stroke="midnightblue" points="758.795,-22.2056 748.514,-19.645 754.954,-28.0579 758.795,-22.2056"/>
</g>
<!-- Node16&#45;&gt;Node2 -->
<g id="edge23" class="edge"><title>Node16&#45;&gt;Node2</title>
<path fill="none" stroke="midnightblue" d="M344.542,-168.345C333.948,-146.436 310.226,-88.2378 339,-56 361.943,-30.2945 589.421,-17.3113 688.394,-12.8431"/>
<polygon fill="midnightblue" stroke="midnightblue" points="688.569,-16.3389 698.404,-12.4005 688.26,-9.3457 688.569,-16.3389"/>
</g>
<!-- Node17 -->
<g id="node17" class="node"><title>Node17</title>
<g id="a_node17"><a xlink:href="MiniVector_8hpp.html" target="_top" xlink:title="stm/MiniVector.hpp">
<polygon fill="none" stroke="black" points="389.5,-112.5 389.5,-131.5 490.5,-131.5 490.5,-112.5 389.5,-112.5"/>
<text text-anchor="middle" x="440" y="-119.5" font-family="Helvetica,sans-Serif" font-size="10.00">stm/MiniVector.hpp</text>
</a>
</g>
</g>
<!-- Node16&#45;&gt;Node17 -->
<g id="edge24" class="edge"><title>Node16&#45;&gt;Node17</title>
<path fill="none" stroke="midnightblue" d="M363.621,-168.324C377.949,-159.822 400.013,-146.729 416.749,-136.797"/>
<polygon fill="midnightblue" stroke="midnightblue" points="418.602,-139.768 425.416,-131.655 415.03,-133.748 418.602,-139.768"/>
</g>
<!-- Node21 -->
<g id="node21" class="node"><title>Node21</title>
<g id="a_node21"><a xlink:href="BitFilter_8hpp.html" target="_top" xlink:title="stm/BitFilter.hpp">
<polygon fill="none" stroke="black" points="164.5,-56.5 164.5,-75.5 253.5,-75.5 253.5,-56.5 164.5,-56.5"/>
<text text-anchor="middle" x="209" y="-63.5" font-family="Helvetica,sans-Serif" font-size="10.00">stm/BitFilter.hpp</text>
</a>
</g>
</g>
<!-- Node16&#45;&gt;Node21 -->
<g id="edge29" class="edge"><title>Node16&#45;&gt;Node21</title>
<path fill="none" stroke="midnightblue" d="M338.014,-168.368C314.195,-149.653 257.556,-105.151 227.878,-81.8324"/>
<polygon fill="midnightblue" stroke="midnightblue" points="229.96,-79.0176 219.935,-75.5914 225.635,-84.5218 229.96,-79.0176"/>
</g>
<!-- Node17&#45;&gt;Node9 -->
<g id="edge28" class="edge"><title>Node17&#45;&gt;Node9</title>
<path fill="none" stroke="midnightblue" d="M389.252,-113.148C327.664,-103.618 223.702,-87.5327 156.224,-77.0919"/>
<polygon fill="midnightblue" stroke="midnightblue" points="156.548,-73.6006 146.131,-75.5303 155.478,-80.5183 156.548,-73.6006"/>
</g>
<!-- Node18 -->
<g id="node18" class="node"><title>Node18</title>
<polygon fill="none" stroke="#bfbfbf" points="415.5,-56.5 415.5,-75.5 464.5,-75.5 464.5,-56.5 415.5,-56.5"/>
<text text-anchor="middle" x="440" y="-63.5" font-family="Helvetica,sans-Serif" font-size="10.00">cassert</text>
</g>
<!-- Node17&#45;&gt;Node18 -->
<g id="edge25" class="edge"><title>Node17&#45;&gt;Node18</title>
<path fill="none" stroke="midnightblue" d="M440,-112.083C440,-105.006 440,-94.8611 440,-85.9865"/>
<polygon fill="midnightblue" stroke="midnightblue" points="443.5,-85.751 440,-75.7511 436.5,-85.7511 443.5,-85.751"/>
</g>
<!-- Node19 -->
<g id="node19" class="node"><title>Node19</title>
<polygon fill="none" stroke="#bfbfbf" points="482.5,-56.5 482.5,-75.5 527.5,-75.5 527.5,-56.5 482.5,-56.5"/>
<text text-anchor="middle" x="505" y="-63.5" font-family="Helvetica,sans-Serif" font-size="10.00">cstdlib</text>
</g>
<!-- Node17&#45;&gt;Node19 -->
<g id="edge26" class="edge"><title>Node17&#45;&gt;Node19</title>
<path fill="none" stroke="midnightblue" d="M450.443,-112.324C460.146,-104.263 474.815,-92.0765 486.5,-82.3695"/>
<polygon fill="midnightblue" stroke="midnightblue" points="488.911,-84.9163 494.367,-75.8339 484.438,-79.532 488.911,-84.9163"/>
</g>
<!-- Node20 -->
<g id="node20" class="node"><title>Node20</title>
<polygon fill="none" stroke="#bfbfbf" points="348.5,-56.5 348.5,-75.5 397.5,-75.5 397.5,-56.5 348.5,-56.5"/>
<text text-anchor="middle" x="373" y="-63.5" font-family="Helvetica,sans-Serif" font-size="10.00">string.h</text>
</g>
<!-- Node17&#45;&gt;Node20 -->
<g id="edge27" class="edge"><title>Node17&#45;&gt;Node20</title>
<path fill="none" stroke="midnightblue" d="M429.235,-112.324C419.234,-104.263 404.113,-92.0765 392.07,-82.3695"/>
<polygon fill="midnightblue" stroke="midnightblue" points="393.943,-79.3841 383.961,-75.8339 389.55,-84.8343 393.943,-79.3841"/>
</g>
<!-- Node21&#45;&gt;Node2 -->
<g id="edge30" class="edge"><title>Node21&#45;&gt;Node2</title>
<path fill="none" stroke="midnightblue" d="M253.742,-57.9101C258.55,-57.2274 263.373,-56.5759 268,-56 421.537,-36.891 604.399,-21.3189 688.081,-14.5895"/>
<polygon fill="midnightblue" stroke="midnightblue" points="688.575,-18.0613 698.264,-13.775 688.017,-11.0836 688.575,-18.0613"/>
</g>
<!-- Node21&#45;&gt;Node10 -->
<g id="edge31" class="edge"><title>Node21&#45;&gt;Node10</title>
<path fill="none" stroke="midnightblue" d="M179.686,-56.4435C146.767,-46.8346 93.3949,-31.2558 58.4942,-21.0686"/>
<polygon fill="midnightblue" stroke="midnightblue" points="59.3164,-17.6626 48.7363,-18.2203 57.355,-24.3822 59.3164,-17.6626"/>
</g>
<!-- Node22&#45;&gt;Node2 -->
<g id="edge33" class="edge"><title>Node22&#45;&gt;Node2</title>
<path fill="none" stroke="midnightblue" d="M565.556,-112.388C581.824,-99.3281 614.262,-74.119 644,-56 663.762,-43.9592 687.171,-32.3303 705.16,-23.9111"/>
<polygon fill="midnightblue" stroke="midnightblue" points="706.927,-26.9506 714.54,-19.5818 703.993,-20.595 706.927,-26.9506"/>
</g>
<!-- Node22&#45;&gt;Node18 -->
<g id="edge36" class="edge"><title>Node22&#45;&gt;Node18</title>
<path fill="none" stroke="midnightblue" d="M536.778,-112.444C518.104,-103.675 488.844,-89.9355 467.383,-79.8579"/>
<polygon fill="midnightblue" stroke="midnightblue" points="468.676,-76.5988 458.137,-75.5164 465.701,-82.935 468.676,-76.5988"/>
</g>
<!-- Node22&#45;&gt;Node19 -->
<g id="edge34" class="edge"><title>Node22&#45;&gt;Node19</title>
<path fill="none" stroke="midnightblue" d="M546.744,-112.083C539.535,-104.298 528.89,-92.8015 520.154,-83.3665"/>
<polygon fill="midnightblue" stroke="midnightblue" points="522.465,-80.7108 513.103,-75.7511 517.329,-85.4666 522.465,-80.7108"/>
</g>
<!-- Node23 -->
<g id="node23" class="node"><title>Node23</title>
<polygon fill="none" stroke="#bfbfbf" points="546,-56.5 546,-75.5 592,-75.5 592,-56.5 546,-56.5"/>
<text text-anchor="middle" x="569" y="-63.5" font-family="Helvetica,sans-Serif" font-size="10.00">cstring</text>
</g>
<!-- Node22&#45;&gt;Node23 -->
<g id="edge35" class="edge"><title>Node22&#45;&gt;Node23</title>
<path fill="none" stroke="midnightblue" d="M557.312,-112.083C559.167,-104.927 561.835,-94.6353 564.154,-85.6911"/>
<polygon fill="midnightblue" stroke="midnightblue" points="567.609,-86.3094 566.731,-75.7511 560.834,-84.5527 567.609,-86.3094"/>
</g>
<!-- Node24&#45;&gt;Node2 -->
<g id="edge38" class="edge"><title>Node24&#45;&gt;Node2</title>
<path fill="none" stroke="midnightblue" d="M717.914,-168.075C720.59,-141.945 728.448,-65.2106 732.098,-29.577"/>
<polygon fill="midnightblue" stroke="midnightblue" points="735.585,-29.8727 733.123,-19.5681 728.622,-29.1595 735.585,-29.8727"/>
</g>
<!-- Node24&#45;&gt;Node17 -->
<g id="edge39" class="edge"><title>Node24&#45;&gt;Node17</title>
<path fill="none" stroke="midnightblue" d="M673.109,-168.444C624.483,-158.964 546.054,-143.675 493.776,-133.483"/>
<polygon fill="midnightblue" stroke="midnightblue" points="494.171,-129.995 483.686,-131.516 492.832,-136.865 494.171,-129.995"/>
</g>
<!-- Node25 -->
<g id="node25" class="node"><title>Node25</title>
<g id="a_node25"><a xlink:href="include_2stm_2macros_8hpp.html" target="_top" xlink:title="stm/macros.hpp">
<polygon fill="none" stroke="black" points="742.5,-112.5 742.5,-131.5 829.5,-131.5 829.5,-112.5 742.5,-112.5"/>
<text text-anchor="middle" x="786" y="-119.5" font-family="Helvetica,sans-Serif" font-size="10.00">stm/macros.hpp</text>
</a>
</g>
</g>
<!-- Node24&#45;&gt;Node25 -->
<g id="edge40" class="edge"><title>Node24&#45;&gt;Node25</title>
<path fill="none" stroke="midnightblue" d="M728.086,-168.324C738.486,-160.185 754.261,-147.839 766.722,-138.087"/>
<polygon fill="midnightblue" stroke="midnightblue" points="768.994,-140.753 774.712,-131.834 764.68,-135.241 768.994,-140.753"/>
</g>
<!-- Node25&#45;&gt;Node2 -->
<g id="edge41" class="edge"><title>Node25&#45;&gt;Node2</title>
<path fill="none" stroke="midnightblue" d="M781.92,-112.368C773.452,-94.4563 753.818,-52.9233 742.485,-28.9482"/>
<polygon fill="midnightblue" stroke="midnightblue" points="745.5,-27.1363 738.061,-19.5914 739.171,-30.128 745.5,-27.1363"/>
</g>
<!-- Node26&#45;&gt;Node2 -->
<g id="edge43" class="edge"><title>Node26&#45;&gt;Node2</title>
<path fill="none" stroke="midnightblue" d="M530.906,-168.437C553.813,-161.014 585.533,-148.81 610,-132 648.35,-105.652 648.367,-88.152 682,-56 692.787,-45.6876 705.438,-34.7171 715.56,-26.1898"/>
<polygon fill="midnightblue" stroke="midnightblue" points="717.938,-28.7646 723.372,-19.6696 713.452,-23.3905 717.938,-28.7646"/>
</g>
<!-- Node26&#45;&gt;Node17 -->
<g id="edge44" class="edge"><title>Node26&#45;&gt;Node17</title>
<path fill="none" stroke="midnightblue" d="M491.199,-168.324C482.182,-160.341 468.594,-148.313 457.682,-138.653"/>
<polygon fill="midnightblue" stroke="midnightblue" points="459.787,-135.842 449.979,-131.834 455.147,-141.083 459.787,-135.842"/>
</g>
<!-- Node27&#45;&gt;Node2 -->
<g id="edge47" class="edge"><title>Node27&#45;&gt;Node2</title>
<path fill="none" stroke="midnightblue" d="M547.938,-224.348C565.52,-207.208 605.617,-167.521 637,-132 658.14,-108.072 662.027,-100.911 682,-76 695.074,-59.6937 709.972,-41.0663 720.461,-27.9446"/>
<polygon fill="midnightblue" stroke="midnightblue" points="723.432,-29.8331 726.941,-19.8362 717.964,-25.4629 723.432,-29.8331"/>
</g>
<!-- Node27&#45;&gt;Node5 -->
<g id="edge46" class="edge"><title>Node27&#45;&gt;Node5</title>
<path fill="none" stroke="midnightblue" d="M586.73,-224.921C632.046,-217.004 702.266,-204.1 772.06,-188.081"/>
<polygon fill="midnightblue" stroke="midnightblue" points="772.952,-191.467 781.903,-185.8 771.371,-184.648 772.952,-191.467"/>
</g>
<!-- Node27&#45;&gt;Node16 -->
<g id="edge49" class="edge"><title>Node27&#45;&gt;Node16</title>
<path fill="none" stroke="midnightblue" d="M508.894,-224.444C476.374,-215.201 424.421,-200.436 388.609,-190.257"/>
<polygon fill="midnightblue" stroke="midnightblue" points="389.541,-186.884 378.965,-187.516 387.627,-193.617 389.541,-186.884"/>
</g>
<!-- Node27&#45;&gt;Node17 -->
<g id="edge48" class="edge"><title>Node27&#45;&gt;Node17</title>
<path fill="none" stroke="midnightblue" d="M545.667,-224.25C554.877,-211.009 569.065,-185.567 557,-168 548.255,-155.267 513.234,-142.819 483.766,-134.254"/>
<polygon fill="midnightblue" stroke="midnightblue" points="484.606,-130.855 474.031,-131.504 482.703,-137.591 484.606,-130.855"/>
</g>
<!-- Node28&#45;&gt;Node2 -->
<g id="edge51" class="edge"><title>Node28&#45;&gt;Node2</title>
<path fill="none" stroke="midnightblue" d="M906.316,-280.408C915.05,-262.2 934,-218.181 934,-179 934,-179 934,-179 934,-121 934,-51.0939 839.03,-25.298 779.976,-16.0151"/>
<polygon fill="midnightblue" stroke="midnightblue" points="780.158,-12.5044 769.756,-14.5156 779.142,-19.4302 780.158,-12.5044"/>
</g>
<!-- Node29&#45;&gt;Node2 -->
<g id="edge53" class="edge"><title>Node29&#45;&gt;Node2</title>
<path fill="none" stroke="midnightblue" d="M1073.17,-392.268C1067.44,-373.794 1055,-329.301 1055,-291 1055,-291 1055,-291 1055,-121 1055,-88.9938 1049.67,-75.1104 1024,-56 986.165,-27.8383 851.372,-16.8737 779.655,-12.9615"/>
<polygon fill="midnightblue" stroke="midnightblue" points="779.719,-9.46018 769.55,-12.4343 779.354,-16.4507 779.719,-9.46018"/>
</g>
<!-- Node29&#45;&gt;Node3 -->
<g id="edge55" class="edge"><title>Node29&#45;&gt;Node3</title>
<path fill="none" stroke="midnightblue" d="M1083.76,-392.083C1090.54,-384.298 1100.54,-372.801 1108.76,-363.367"/>
<polygon fill="midnightblue" stroke="midnightblue" points="1111.46,-365.592 1115.38,-355.751 1106.18,-360.996 1111.46,-365.592"/>
</g>
<!-- Node29&#45;&gt;Node10 -->
<g id="edge54" class="edge"><title>Node29&#45;&gt;Node10</title>
<path fill="none" stroke="midnightblue" d="M1038.33,-398.084C1013.99,-396.24 981.631,-393.861 953,-392 671.806,-373.718 598.087,-401.518 320,-356 212.211,-338.357 83,-400.223 83,-291 83,-291 83,-291 83,-233 83,-158.766 39.984,-148.905 26,-76 23.0391,-60.5635 22.7071,-42.6931 23.0204,-29.6013"/>
<polygon fill="midnightblue" stroke="midnightblue" points="26.5216,-29.636 23.4119,-19.5078 19.5269,-29.3646 26.5216,-29.636"/>
</g>
<!-- Node31 -->
<g id="node31" class="node"><title>Node31</title>
<g id="a_node31"><a xlink:href="List_8hpp.html" target="_top" xlink:title="List.hpp">
<polygon fill="none" stroke="black" points="1174.5,-336.5 1174.5,-355.5 1225.5,-355.5 1225.5,-336.5 1174.5,-336.5"/>
<text text-anchor="middle" x="1200" y="-343.5" font-family="Helvetica,sans-Serif" font-size="10.00">List.hpp</text>
</a>
</g>
</g>
<!-- Node30&#45;&gt;Node31 -->
<g id="edge57" class="edge"><title>Node30&#45;&gt;Node31</title>
<path fill="none" stroke="midnightblue" d="M1200,-392.083C1200,-385.006 1200,-374.861 1200,-365.986"/>
<polygon fill="midnightblue" stroke="midnightblue" points="1203.5,-365.751 1200,-355.751 1196.5,-365.751 1203.5,-365.751"/>
</g>
</g>
</svg>
