<?xml version="1.0" encoding="UTF-8" standalone="no"?>
<!DOCTYPE svg PUBLIC "-//W3C//DTD SVG 1.1//EN"
 "http://www.w3.org/Graphics/SVG/1.1/DTD/svg11.dtd">
<!-- Generated by graphviz version 2.36.0 (20140111.2315)
 -->
<!-- Title: hashtable_iter_hasNext Pages: 1 -->
<svg width="254pt" height="104pt"
 viewBox="0.00 0.00 254.00 104.00" xmlns="http://www.w3.org/2000/svg" xmlns:xlink="http://www.w3.org/1999/xlink">
<g id="graph0" class="graph" transform="scale(1 1) rotate(0) translate(4 100)">
<title>hashtable_iter_hasNext</title>
<!-- Node1 -->
<g id="node1" class="node"><title>Node1</title>
<polygon fill="#bfbfbf" stroke="black" points="0.5,-38.5 0.5,-57.5 119.5,-57.5 119.5,-38.5 0.5,-38.5"/>
<text text-anchor="middle" x="60" y="-45.5" font-family="Helvetica,sans-Serif" font-size="10.00">hashtable_iter_hasNext</text>
</g>
<!-- Node2 -->
<g id="node2" class="node"><title>Node2</title>
<g id="a_node2"><a xlink:href="point_8hpp.html#ac3affcd51103a7fafe2143a933683b30" target="_top" xlink:title="bucket">
<polygon fill="none" stroke="black" points="178,-76.5 178,-95.5 224,-95.5 224,-76.5 178,-76.5"/>
<text text-anchor="middle" x="201" y="-83.5" font-family="Helvetica,sans-Serif" font-size="10.00">bucket</text>
</a>
</g>
</g>
<!-- Node1&#45;&gt;Node2 -->
<g id="edge1" class="edge"><title>Node1&#45;&gt;Node2</title>
<path fill="none" stroke="midnightblue" d="M96.0756,-57.589C118.293,-63.6628 146.79,-71.4532 168.322,-77.3397"/>
<polygon fill="midnightblue" stroke="midnightblue" points="167.406,-80.7178 177.975,-79.9788 169.252,-73.9656 167.406,-80.7178"/>
</g>
<!-- Node3 -->
<g id="node3" class="node"><title>Node3</title>
<g id="a_node3"><a xlink:href="list_8c.html#af8d7b94e84661c7b1da55a7c87619911" target="_top" xlink:title="list_iter_hasNext">
<polygon fill="none" stroke="black" points="156,-38.5 156,-57.5 246,-57.5 246,-38.5 156,-38.5"/>
<text text-anchor="middle" x="201" y="-45.5" font-family="Helvetica,sans-Serif" font-size="10.00">list_iter_hasNext</text>
</a>
</g>
</g>
<!-- Node1&#45;&gt;Node3 -->
<g id="edge2" class="edge"><title>Node1&#45;&gt;Node3</title>
<path fill="none" stroke="midnightblue" d="M119.546,-48C128.196,-48 137.079,-48 145.64,-48"/>
<polygon fill="midnightblue" stroke="midnightblue" points="145.885,-51.5001 155.885,-48 145.885,-44.5001 145.885,-51.5001"/>
</g>
<!-- Node4 -->
<g id="node4" class="node"><title>Node4</title>
<g id="a_node4"><a xlink:href="list_8c.html#af9a0fb76faf3f2c75d3454dc7f7d9b6a" target="_top" xlink:title="list_iter_reset">
<polygon fill="none" stroke="black" points="163.5,-0.5 163.5,-19.5 238.5,-19.5 238.5,-0.5 163.5,-0.5"/>
<text text-anchor="middle" x="201" y="-7.5" font-family="Helvetica,sans-Serif" font-size="10.00">list_iter_reset</text>
</a>
</g>
</g>
<!-- Node1&#45;&gt;Node4 -->
<g id="edge3" class="edge"><title>Node1&#45;&gt;Node4</title>
<path fill="none" stroke="midnightblue" d="M96.0756,-38.411C114.019,-33.5056 136.058,-27.4804 155.217,-22.2429"/>
<polygon fill="midnightblue" stroke="midnightblue" points="156.213,-25.5992 164.936,-19.5859 154.367,-18.8469 156.213,-25.5992"/>
</g>
</g>
</svg>
