<?xml version="1.0" encoding="UTF-8" standalone="no"?>
<!DOCTYPE svg PUBLIC "-//W3C//DTD SVG 1.1//EN"
 "http://www.w3.org/Graphics/SVG/1.1/DTD/svg11.dtd">
<!-- Generated by graphviz version 2.36.0 (20140111.2315)
 -->
<!-- Title: bench_verify Pages: 1 -->
<svg width="372pt" height="38pt"
 viewBox="0.00 0.00 372.00 38.00" xmlns="http://www.w3.org/2000/svg" xmlns:xlink="http://www.w3.org/1999/xlink">
<g id="graph0" class="graph" transform="scale(1 1) rotate(0) translate(4 34)">
<title>bench_verify</title>
<!-- Node1 -->
<g id="node1" class="node"><title>Node1</title>
<polygon fill="#bfbfbf" stroke="black" points="0,-5.5 0,-24.5 72,-24.5 72,-5.5 0,-5.5"/>
<text text-anchor="middle" x="36" y="-12.5" font-family="Helvetica,sans-Serif" font-size="10.00">bench_verify</text>
</g>
<!-- Node2 -->
<g id="node2" class="node"><title>Node2</title>
<g id="a_node2"><a xlink:href="classHashTable.html#ad7ef164978b3a4e34d27d175ccbaecfb" target="_top" xlink:title="HashTable::isSane">
<polygon fill="none" stroke="black" points="108,-5.5 108,-24.5 208,-24.5 208,-5.5 108,-5.5"/>
<text text-anchor="middle" x="158" y="-12.5" font-family="Helvetica,sans-Serif" font-size="10.00">HashTable::isSane</text>
</a>
</g>
</g>
<!-- Node1&#45;&gt;Node2 -->
<g id="edge1" class="edge"><title>Node1&#45;&gt;Node2</title>
<path fill="none" stroke="midnightblue" d="M72.0316,-15C80.0866,-15 88.8724,-15 97.6399,-15"/>
<polygon fill="midnightblue" stroke="midnightblue" points="97.879,-18.5001 107.879,-15 97.879,-11.5001 97.879,-18.5001"/>
</g>
<!-- Node3 -->
<g id="node3" class="node"><title>Node3</title>
<g id="a_node3"><a xlink:href="classHashTable.html#a45e8619d114405fe58a54402a3eb8624" target="_top" xlink:title="HashTable::verify_hash\l_function">
<polygon fill="none" stroke="black" points="244,-0 244,-30 364,-30 364,-0 244,-0"/>
<text text-anchor="start" x="252" y="-18" font-family="Helvetica,sans-Serif" font-size="10.00">HashTable::verify_hash</text>
<text text-anchor="middle" x="304" y="-7" font-family="Helvetica,sans-Serif" font-size="10.00">_function</text>
</a>
</g>
</g>
<!-- Node2&#45;&gt;Node3 -->
<g id="edge2" class="edge"><title>Node2&#45;&gt;Node3</title>
<path fill="none" stroke="midnightblue" d="M208.154,-15C216.411,-15 225.115,-15 233.766,-15"/>
<polygon fill="midnightblue" stroke="midnightblue" points="233.867,-18.5001 243.867,-15 233.867,-11.5001 233.867,-18.5001"/>
</g>
</g>
</svg>
