<?xml version="1.0" encoding="UTF-8" standalone="no"?>
<!DOCTYPE svg PUBLIC "-//W3C//DTD SVG 1.1//EN"
 "http://www.w3.org/Graphics/SVG/1.1/DTD/svg11.dtd">
<!-- Generated by graphviz version 2.36.0 (20140111.2315)
 -->
<!-- Title: heap_isValid Pages: 1 -->
<!--zoomable 435 -->
<svg id="main" version="1.1" xmlns="http://www.w3.org/2000/svg" xmlns:xlink="http://www.w3.org/1999/xlink" xml:space="preserve" onload="init(evt)">
<style type="text/css"><![CDATA[
.edge:hover path { stroke: red; }
.edge:hover polygon { stroke: red; fill: red; }
]]></style>
<script type="text/javascript"><![CDATA[
var edges = document.getElementsByTagName('g');
if (edges && edges.length) {
  for (var i=0;i<edges.length;i++) {
    if (edges[i].id.substr(0,4)=='edge') {
      edges[i].setAttribute('class','edge');
    }
  }
}
]]></script>
        <defs>
                <circle id="rim" cx="0" cy="0" r="7"/>
                <circle id="rim2" cx="0" cy="0" r="3.5"/>
                <g id="zoomPlus">
                        <use xlink:href="#rim" fill="#404040">
                                <set attributeName="fill" to="#808080" begin="zoomplus.mouseover" end="zoomplus.mouseout"/>
                        </use>
                        <path d="M-4,0h8M0,-4v8" fill="none" stroke="white" stroke-width="1.5" pointer-events="none"/>
                </g>
                <g id="zoomMin">
                        <use xlink:href="#rim" fill="#404040">
                                <set attributeName="fill" to="#808080" begin="zoomminus.mouseover" end="zoomminus.mouseout"/>
                        </use>
                        <path d="M-4,0h8" fill="none" stroke="white" stroke-width="1.5" pointer-events="none"/>
                </g>
                <g id="dirArrow">
                        <path fill="none" stroke="white" stroke-width="1.5" d="M0,-3.0v7 M-2.5,-0.5L0,-3.0L2.5,-0.5"/>
                </g>
               <g id="resetDef">
                       <use xlink:href="#rim2" fill="#404040">
                               <set attributeName="fill" to="#808080" begin="reset.mouseover" end="reset.mouseout"/>
                       </use>
               </g>
        </defs>

<script type="text/javascript">
var viewWidth = 1794;
var viewHeight = 435;
var sectionId = 'dynsection-4';
</script>
<script xlink:href="svgpan.js"/>
<svg id="graph" class="graph">
<g id="viewport">
<title>heap_isValid</title>
<!-- Node1 -->
<g id="node1" class="node"><title>Node1</title>
<polygon fill="#bfbfbf" stroke="black" points="0,-182.5 0,-201.5 72,-201.5 72,-182.5 0,-182.5"/>
<text text-anchor="middle" x="36" y="-189.5" font-family="Helvetica,sans-Serif" font-size="10.00">heap_isValid</text>
</g>
<!-- Node2 -->
<g id="node2" class="node"><title>Node2</title>
<g id="a_node2"><a xlink:href="stmskip_8cc.html#a9ab04b9e875013b4d2dd249d0c97dce5" target="_top" xlink:title="for">
<polygon fill="none" stroke="black" points="108.5,-182.5 108.5,-201.5 137.5,-201.5 137.5,-182.5 108.5,-182.5"/>
<text text-anchor="middle" x="123" y="-189.5" font-family="Helvetica,sans-Serif" font-size="10.00">for</text>
</a>
</g>
</g>
<!-- Node1&#45;&gt;Node2 -->
<g id="edge1" class="edge"><title>Node1&#45;&gt;Node2</title>
<path fill="none" stroke="midnightblue" d="M72.0635,-192C80.8667,-192 90.1092,-192 98.2164,-192"/>
<polygon fill="midnightblue" stroke="midnightblue" points="98.4199,-195.5 108.42,-192 98.4198,-188.5 98.4199,-195.5"/>
</g>
<!-- Node3 -->
<g id="node3" class="node"><title>Node3</title>
<g id="a_node3"><a xlink:href="stmskip_8cc.html#a09de30bf6124d9640899b27c93b49471" target="_top" xlink:title="stmskip_lookup">
<polygon fill="none" stroke="black" points="176.5,-239.5 176.5,-258.5 261.5,-258.5 261.5,-239.5 176.5,-239.5"/>
<text text-anchor="middle" x="219" y="-246.5" font-family="Helvetica,sans-Serif" font-size="10.00">stmskip_lookup</text>
</a>
</g>
</g>
<!-- Node2&#45;&gt;Node3 -->
<g id="edge2" class="edge"><title>Node2&#45;&gt;Node3</title>
<path fill="none" stroke="midnightblue" d="M134.966,-201.58C144.747,-209.811 159.691,-221.64 174,-230 177.038,-231.775 180.272,-233.481 183.556,-235.094"/>
<polygon fill="midnightblue" stroke="midnightblue" points="182.27,-238.356 192.816,-239.37 185.204,-232 182.27,-238.356"/>
</g>
<!-- Node21 -->
<g id="node21" class="node"><title>Node21</title>
<g id="a_node21"><a xlink:href="stmskip_8cc.html#ad17c6ea2fd390c2dd637a34fdeb0b3df" target="_top" xlink:title="stmskip_update">
<polygon fill="none" stroke="black" points="176,-144.5 176,-163.5 262,-163.5 262,-144.5 176,-144.5"/>
<text text-anchor="middle" x="219" y="-151.5" font-family="Helvetica,sans-Serif" font-size="10.00">stmskip_update</text>
</a>
</g>
</g>
<!-- Node2&#45;&gt;Node21 -->
<g id="edge25" class="edge"><title>Node2&#45;&gt;Node21</title>
<path fill="none" stroke="midnightblue" d="M137.87,-186.393C150.135,-181.435 168.523,-174.001 184.593,-167.505"/>
<polygon fill="midnightblue" stroke="midnightblue" points="186.264,-170.605 194.223,-163.612 183.64,-164.115 186.264,-170.605"/>
</g>
<!-- Node34 -->
<g id="node34" class="node"><title>Node34</title>
<g id="a_node34"><a xlink:href="stmskip_8cc.html#a3925aa5d2590fc57854aa9d670f58e4d" target="_top" xlink:title="stmskip_remove">
<polygon fill="none" stroke="black" points="174.5,-201.5 174.5,-220.5 263.5,-220.5 263.5,-201.5 174.5,-201.5"/>
<text text-anchor="middle" x="219" y="-208.5" font-family="Helvetica,sans-Serif" font-size="10.00">stmskip_remove</text>
</a>
</g>
</g>
<!-- Node2&#45;&gt;Node34 -->
<g id="edge48" class="edge"><title>Node2&#45;&gt;Node34</title>
<path fill="none" stroke="midnightblue" d="M137.87,-194.804C145.147,-196.274 154.581,-198.181 164.407,-200.167"/>
<polygon fill="midnightblue" stroke="midnightblue" points="163.803,-203.616 174.298,-202.167 165.19,-196.755 163.803,-203.616"/>
</g>
<!-- Node35 -->
<g id="node35" class="node"><title>Node35</title>
<g id="a_node35"><a xlink:href="stm_8h.html#ad6e1404788ef0e710c991c3e00fd5c39" target="_top" xlink:title="abort_stm_tx">
<polygon fill="none" stroke="black" points="182,-106.5 182,-125.5 256,-125.5 256,-106.5 182,-106.5"/>
<text text-anchor="middle" x="219" y="-113.5" font-family="Helvetica,sans-Serif" font-size="10.00">abort_stm_tx</text>
</a>
</g>
</g>
<!-- Node2&#45;&gt;Node35 -->
<g id="edge51" class="edge"><title>Node2&#45;&gt;Node35</title>
<path fill="none" stroke="midnightblue" d="M130.404,-182.351C139.038,-169.968 155.481,-148.479 174,-135 176.334,-133.302 178.843,-131.714 181.437,-130.24"/>
<polygon fill="midnightblue" stroke="midnightblue" points="183.121,-133.31 190.453,-125.661 179.952,-127.069 183.121,-133.31"/>
</g>
<!-- Node4 -->
<g id="node4" class="node"><title>Node4</title>
<g id="a_node4"><a xlink:href="stmskip_8cc.html#aa82848b11e972b9339ceadb6816cdb6a" target="_top" xlink:title="search_predecessors">
<polygon fill="none" stroke="black" points="300,-239.5 300,-258.5 410,-258.5 410,-239.5 300,-239.5"/>
<text text-anchor="middle" x="355" y="-246.5" font-family="Helvetica,sans-Serif" font-size="10.00">search_predecessors</text>
</a>
</g>
</g>
<!-- Node3&#45;&gt;Node4 -->
<g id="edge3" class="edge"><title>Node3&#45;&gt;Node4</title>
<path fill="none" stroke="midnightblue" d="M261.664,-249C270.466,-249 279.951,-249 289.374,-249"/>
<polygon fill="midnightblue" stroke="midnightblue" points="289.539,-252.5 299.539,-249 289.539,-245.5 289.539,-252.5"/>
</g>
<!-- Node5 -->
<g id="node5" class="node"><title>Node5</title>
<g id="a_node5"><a xlink:href="stm_8h.html#a5594d7fca67459d7d9738436af589c5c" target="_top" xlink:title="read_stm_blk">
<polygon fill="none" stroke="black" points="447.5,-345.5 447.5,-364.5 522.5,-364.5 522.5,-345.5 447.5,-345.5"/>
<text text-anchor="middle" x="485" y="-352.5" font-family="Helvetica,sans-Serif" font-size="10.00">read_stm_blk</text>
</a>
</g>
</g>
<!-- Node4&#45;&gt;Node5 -->
<g id="edge4" class="edge"><title>Node4&#45;&gt;Node5</title>
<path fill="none" stroke="midnightblue" d="M367.812,-258.782C389.816,-277.004 437.283,-316.313 464.242,-338.638"/>
<polygon fill="midnightblue" stroke="midnightblue" points="462.282,-341.559 472.216,-345.241 466.746,-336.168 462.282,-341.559"/>
</g>
<!-- Node6 -->
<g id="node6" class="node"><title>Node6</title>
<g id="a_node6"><a xlink:href="stm__fraser_8c.html#aca0d40200c3502bdabeb44b27dfd4105" target="_top" xlink:title="search_stm_tx_entry">
<polygon fill="none" stroke="black" points="876,-359.5 876,-378.5 984,-378.5 984,-359.5 876,-359.5"/>
<text text-anchor="middle" x="930" y="-366.5" font-family="Helvetica,sans-Serif" font-size="10.00">search_stm_tx_entry</text>
</a>
</g>
</g>
<!-- Node5&#45;&gt;Node6 -->
<g id="edge5" class="edge"><title>Node5&#45;&gt;Node6</title>
<path fill="none" stroke="midnightblue" d="M494.889,-364.713C507.74,-377.955 532.95,-401.048 560,-410 678.508,-449.217 717.064,-409.652 840,-388 852.156,-385.859 865.182,-383.255 877.414,-380.671"/>
<polygon fill="midnightblue" stroke="midnightblue" points="878.422,-384.034 887.465,-378.514 876.954,-377.19 878.422,-384.034"/>
</g>
<!-- Node7 -->
<g id="node7" class="node"><title>Node7</title>
<g id="a_node7"><a xlink:href="stm__fraser_8c.html#a75177d9fa0335bd50b6fae9a68341443" target="_top" xlink:title="alloc_stm_tx_entry">
<polygon fill="none" stroke="black" points="571.5,-326.5 571.5,-345.5 670.5,-345.5 670.5,-326.5 571.5,-326.5"/>
<text text-anchor="middle" x="621" y="-333.5" font-family="Helvetica,sans-Serif" font-size="10.00">alloc_stm_tx_entry</text>
</a>
</g>
</g>
<!-- Node5&#45;&gt;Node7 -->
<g id="edge6" class="edge"><title>Node5&#45;&gt;Node7</title>
<path fill="none" stroke="midnightblue" d="M522.616,-349.808C534.596,-348.11 548.219,-346.178 561.402,-344.309"/>
<polygon fill="midnightblue" stroke="midnightblue" points="561.953,-347.766 571.362,-342.896 560.97,-340.835 561.953,-347.766"/>
</g>
<!-- Node8 -->
<g id="node8" class="node"><title>Node8</title>
<g id="a_node8"><a xlink:href="stm__fraser_8c.html#a4e016a575dac2ee3931ef9ec94550d33" target="_top" xlink:title="read_blk_data">
<polygon fill="none" stroke="black" points="582.5,-364.5 582.5,-383.5 659.5,-383.5 659.5,-364.5 582.5,-364.5"/>
<text text-anchor="middle" x="621" y="-371.5" font-family="Helvetica,sans-Serif" font-size="10.00">read_blk_data</text>
</a>
</g>
</g>
<!-- Node5&#45;&gt;Node8 -->
<g id="edge7" class="edge"><title>Node5&#45;&gt;Node8</title>
<path fill="none" stroke="midnightblue" d="M522.616,-360.192C538.017,-362.376 556.136,-364.945 572.542,-367.271"/>
<polygon fill="midnightblue" stroke="midnightblue" points="572.103,-370.744 582.495,-368.682 573.086,-363.813 572.103,-370.744"/>
</g>
<!-- Node19 -->
<g id="node19" class="node"><title>Node19</title>
<g id="a_node19"><a xlink:href="stm__fraser_8c.html#a31ea9d61a84d817aac10ffbc4ba9f296" target="_top" xlink:title="commit_stm_tx">
<polygon fill="none" stroke="black" points="737,-359.5 737,-378.5 821,-378.5 821,-359.5 737,-359.5"/>
<text text-anchor="middle" x="779" y="-366.5" font-family="Helvetica,sans-Serif" font-size="10.00">commit_stm_tx</text>
</a>
</g>
</g>
<!-- Node5&#45;&gt;Node19 -->
<g id="edge24" class="edge"><title>Node5&#45;&gt;Node19</title>
<path fill="none" stroke="midnightblue" d="M499.671,-364.558C513.957,-373.915 537.399,-387.536 560,-393 621.46,-407.858 694.917,-393.34 738.944,-381.306"/>
<polygon fill="midnightblue" stroke="midnightblue" points="740.007,-384.643 748.677,-378.554 738.102,-377.907 740.007,-384.643"/>
</g>
<!-- Node20 -->
<g id="node20" class="node"><title>Node20</title>
<g id="a_node20"><a xlink:href="stm__fraser_8c.html#ad6e1404788ef0e710c991c3e00fd5c39" target="_top" xlink:title="abort_stm_tx">
<polygon fill="none" stroke="black" points="584,-288.5 584,-307.5 658,-307.5 658,-288.5 584,-288.5"/>
<text text-anchor="middle" x="621" y="-295.5" font-family="Helvetica,sans-Serif" font-size="10.00">abort_stm_tx</text>
</a>
</g>
</g>
<!-- Node5&#45;&gt;Node20 -->
<g id="edge23" class="edge"><title>Node5&#45;&gt;Node20</title>
<path fill="none" stroke="midnightblue" d="M502.665,-345.419C517.419,-337.186 539.701,-325.357 560,-317 565.372,-314.788 571.101,-312.676 576.807,-310.716"/>
<polygon fill="midnightblue" stroke="midnightblue" points="577.923,-314.034 586.321,-307.573 575.728,-307.387 577.923,-314.034"/>
</g>
<!-- Node9 -->
<g id="node9" class="node"><title>Node9</title>
<g id="a_node9"><a xlink:href="stm__fraser_8c.html#a3baf54f8c2c6bdb79109865e5500cbd9" target="_top" xlink:title="rc_up_descriptor">
<polygon fill="none" stroke="black" points="885.5,-321.5 885.5,-340.5 974.5,-340.5 974.5,-321.5 885.5,-321.5"/>
<text text-anchor="middle" x="930" y="-328.5" font-family="Helvetica,sans-Serif" font-size="10.00">rc_up_descriptor</text>
</a>
</g>
</g>
<!-- Node8&#45;&gt;Node9 -->
<g id="edge8" class="edge"><title>Node8&#45;&gt;Node9</title>
<path fill="none" stroke="midnightblue" d="M655.053,-364.389C673.441,-359.384 696.826,-353.578 718,-350 770.936,-341.055 832.102,-336.134 874.904,-333.556"/>
<polygon fill="midnightblue" stroke="midnightblue" points="875.321,-337.037 885.102,-332.965 874.916,-330.049 875.321,-337.037"/>
</g>
<!-- Node11 -->
<g id="node11" class="node"><title>Node11</title>
<g id="a_node11"><a xlink:href="stm__fraser_8c.html#ad41e28910c7dbe8cfd98c9e0c168c9dc" target="_top" xlink:title="rc_down_descriptor">
<polygon fill="none" stroke="black" points="879.5,-397.5 879.5,-416.5 980.5,-416.5 980.5,-397.5 879.5,-397.5"/>
<text text-anchor="middle" x="930" y="-404.5" font-family="Helvetica,sans-Serif" font-size="10.00">rc_down_descriptor</text>
</a>
</g>
</g>
<!-- Node8&#45;&gt;Node11 -->
<g id="edge10" class="edge"><title>Node8&#45;&gt;Node11</title>
<path fill="none" stroke="midnightblue" d="M659.781,-380C677.437,-382.678 698.764,-385.733 718,-388 768.955,-394.005 827.03,-399.107 869.336,-402.508"/>
<polygon fill="midnightblue" stroke="midnightblue" points="869.22,-406.009 879.466,-403.314 869.775,-399.031 869.22,-406.009"/>
</g>
<!-- Node8&#45;&gt;Node19 -->
<g id="edge19" class="edge"><title>Node8&#45;&gt;Node19</title>
<path fill="none" stroke="midnightblue" d="M659.763,-372.79C679.847,-372.146 704.832,-371.345 726.654,-370.646"/>
<polygon fill="midnightblue" stroke="midnightblue" points="726.869,-374.141 736.751,-370.322 726.644,-367.144 726.869,-374.141"/>
</g>
<!-- Node10 -->
<g id="node10" class="node"><title>Node10</title>
<g id="a_node10"><a xlink:href="stm__fraser_8c.html#a1a59f05201730ec9ba9a348070073e57" target="_top" xlink:title="rc_delta_descriptor">
<polygon fill="none" stroke="black" points="1020.5,-321.5 1020.5,-340.5 1119.5,-340.5 1119.5,-321.5 1020.5,-321.5"/>
<text text-anchor="middle" x="1070" y="-328.5" font-family="Helvetica,sans-Serif" font-size="10.00">rc_delta_descriptor</text>
</a>
</g>
</g>
<!-- Node9&#45;&gt;Node10 -->
<g id="edge9" class="edge"><title>Node9&#45;&gt;Node10</title>
<path fill="none" stroke="midnightblue" d="M974.664,-331C985.902,-331 998.18,-331 1010.05,-331"/>
<polygon fill="midnightblue" stroke="midnightblue" points="1010.35,-334.5 1020.35,-331 1010.35,-327.5 1010.35,-334.5"/>
</g>
<!-- Node12 -->
<g id="node12" class="node"><title>Node12</title>
<g id="a_node12"><a xlink:href="stm__fraser_8c.html#afd1a951db8c0f79e6bf20624e7dca338" target="_top" xlink:title="release_descriptor">
<polygon fill="none" stroke="black" points="1022,-378.5 1022,-397.5 1118,-397.5 1118,-378.5 1022,-378.5"/>
<text text-anchor="middle" x="1070" y="-385.5" font-family="Helvetica,sans-Serif" font-size="10.00">release_descriptor</text>
</a>
</g>
</g>
<!-- Node11&#45;&gt;Node12 -->
<g id="edge11" class="edge"><title>Node11&#45;&gt;Node12</title>
<path fill="none" stroke="midnightblue" d="M980.821,-400.141C990.78,-398.769 1001.32,-397.318 1011.51,-395.915"/>
<polygon fill="midnightblue" stroke="midnightblue" points="1012.13,-399.363 1021.56,-394.532 1011.17,-392.429 1012.13,-399.363"/>
</g>
<!-- Node13 -->
<g id="node13" class="node"><title>Node13</title>
<g id="a_node13"><a xlink:href="gc_8c.html#a80f4a5c119aa70ab0452a73dfac21bbd" target="_top" xlink:title="fr_gc_free">
<polygon fill="none" stroke="black" points="1302,-340.5 1302,-359.5 1362,-359.5 1362,-340.5 1302,-340.5"/>
<text text-anchor="middle" x="1332" y="-347.5" font-family="Helvetica,sans-Serif" font-size="10.00">fr_gc_free</text>
</a>
</g>
</g>
<!-- Node12&#45;&gt;Node13 -->
<g id="edge12" class="edge"><title>Node12&#45;&gt;Node13</title>
<path fill="none" stroke="midnightblue" d="M1118.11,-384.761C1154.78,-381.829 1206.85,-376.765 1252,-369 1265.16,-366.736 1279.4,-363.548 1292.11,-360.428"/>
<polygon fill="midnightblue" stroke="midnightblue" points="1293.08,-363.793 1301.93,-357.96 1291.38,-357.004 1293.08,-363.793"/>
</g>
<!-- Node18 -->
<g id="node18" class="node"><title>Node18</title>
<g id="a_node18"><a xlink:href="gc_8c.html#a1e1a80c2d04496b5b70bd86b59510355" target="_top" xlink:title="fr_gc_unsafe_free">
<polygon fill="none" stroke="black" points="1156.5,-340.5 1156.5,-359.5 1251.5,-359.5 1251.5,-340.5 1156.5,-340.5"/>
<text text-anchor="middle" x="1204" y="-347.5" font-family="Helvetica,sans-Serif" font-size="10.00">fr_gc_unsafe_free</text>
</a>
</g>
</g>
<!-- Node12&#45;&gt;Node18 -->
<g id="edge17" class="edge"><title>Node12&#45;&gt;Node18</title>
<path fill="none" stroke="midnightblue" d="M1104.31,-378.411C1121.19,-373.551 1141.89,-367.591 1159.97,-362.387"/>
<polygon fill="midnightblue" stroke="midnightblue" points="1161.06,-365.716 1169.7,-359.586 1159.12,-358.989 1161.06,-365.716"/>
</g>
<!-- Node14 -->
<g id="node14" class="node"><title>Node14</title>
<g id="a_node14"><a xlink:href="gc_8c.html#afb494e950c8c6b5661974748ae89b61e" target="_top" xlink:title="chunk_from_cache">
<polygon fill="none" stroke="black" points="1412.5,-284.5 1412.5,-303.5 1511.5,-303.5 1511.5,-284.5 1412.5,-284.5"/>
<text text-anchor="middle" x="1462" y="-291.5" font-family="Helvetica,sans-Serif" font-size="10.00">chunk_from_cache</text>
</a>
</g>
</g>
<!-- Node13&#45;&gt;Node14 -->
<g id="edge13" class="edge"><title>Node13&#45;&gt;Node14</title>
<path fill="none" stroke="midnightblue" d="M1355,-340.373C1375.64,-331.343 1406.72,-317.749 1429.89,-307.611"/>
<polygon fill="midnightblue" stroke="midnightblue" points="1431.52,-310.716 1439.28,-303.501 1428.72,-304.303 1431.52,-310.716"/>
</g>
<!-- Node15 -->
<g id="node15" class="node"><title>Node15</title>
<g id="a_node15"><a xlink:href="gc_8c.html#a2a6f41199ed37925df4cc7b9909dc0ed" target="_top" xlink:title="get_empty_chunks">
<polygon fill="none" stroke="black" points="1548.5,-190.5 1548.5,-209.5 1647.5,-209.5 1647.5,-190.5 1548.5,-190.5"/>
<text text-anchor="middle" x="1598" y="-197.5" font-family="Helvetica,sans-Serif" font-size="10.00">get_empty_chunks</text>
</a>
</g>
</g>
<!-- Node14&#45;&gt;Node15 -->
<g id="edge14" class="edge"><title>Node14&#45;&gt;Node15</title>
<path fill="none" stroke="midnightblue" d="M1476.84,-284.294C1500.13,-267.956 1547.34,-234.837 1575.15,-215.33"/>
<polygon fill="midnightblue" stroke="midnightblue" points="1577.26,-218.121 1583.44,-209.513 1573.24,-212.39 1577.26,-218.121"/>
</g>
<!-- Node16 -->
<g id="node16" class="node"><title>Node16</title>
<g id="a_node16"><a xlink:href="gc_8c.html#ac360b80b93ad00f0fba18a1993e1d6a0" target="_top" xlink:title="add_chunks_to_list">
<polygon fill="none" stroke="black" points="1684.5,-152.5 1684.5,-171.5 1785.5,-171.5 1785.5,-152.5 1684.5,-152.5"/>
<text text-anchor="middle" x="1735" y="-159.5" font-family="Helvetica,sans-Serif" font-size="10.00">add_chunks_to_list</text>
</a>
</g>
</g>
<!-- Node15&#45;&gt;Node16 -->
<g id="edge15" class="edge"><title>Node15&#45;&gt;Node16</title>
<path fill="none" stroke="midnightblue" d="M1633.07,-190.411C1650.41,-185.528 1671.7,-179.536 1690.25,-174.315"/>
<polygon fill="midnightblue" stroke="midnightblue" points="1691.27,-177.665 1699.94,-171.586 1689.37,-170.926 1691.27,-177.665"/>
</g>
<!-- Node17 -->
<g id="node17" class="node"><title>Node17</title>
<g id="a_node17"><a xlink:href="gc_8c.html#ade31863985bdaa481ade142bdfb6d99f" target="_top" xlink:title="alloc_more_chunks">
<polygon fill="none" stroke="black" points="1684.5,-190.5 1684.5,-209.5 1785.5,-209.5 1785.5,-190.5 1684.5,-190.5"/>
<text text-anchor="middle" x="1735" y="-197.5" font-family="Helvetica,sans-Serif" font-size="10.00">alloc_more_chunks</text>
</a>
</g>
</g>
<!-- Node15&#45;&gt;Node17 -->
<g id="edge16" class="edge"><title>Node15&#45;&gt;Node17</title>
<path fill="none" stroke="midnightblue" d="M1647.74,-200C1656.31,-200 1665.33,-200 1674.17,-200"/>
<polygon fill="midnightblue" stroke="midnightblue" points="1674.43,-203.5 1684.43,-200 1674.43,-196.5 1674.43,-203.5"/>
</g>
<!-- Node18&#45;&gt;Node13 -->
<g id="edge18" class="edge"><title>Node18&#45;&gt;Node13</title>
<path fill="none" stroke="midnightblue" d="M1251.56,-350C1264.7,-350 1278.87,-350 1291.56,-350"/>
<polygon fill="midnightblue" stroke="midnightblue" points="1291.81,-353.5 1301.81,-350 1291.81,-346.5 1291.81,-353.5"/>
</g>
<!-- Node19&#45;&gt;Node6 -->
<g id="edge22" class="edge"><title>Node19&#45;&gt;Node6</title>
<path fill="none" stroke="midnightblue" d="M821.109,-369C834.827,-369 850.449,-369 865.463,-369"/>
<polygon fill="midnightblue" stroke="midnightblue" points="865.73,-372.5 875.73,-369 865.73,-365.5 865.73,-372.5"/>
</g>
<!-- Node19&#45;&gt;Node9 -->
<g id="edge20" class="edge"><title>Node19&#45;&gt;Node9</title>
<path fill="none" stroke="midnightblue" d="M817.599,-359.411C837.084,-354.442 861.075,-348.323 881.796,-343.039"/>
<polygon fill="midnightblue" stroke="midnightblue" points="882.846,-346.383 891.671,-340.52 881.117,-339.6 882.846,-346.383"/>
</g>
<!-- Node19&#45;&gt;Node11 -->
<g id="edge21" class="edge"><title>Node19&#45;&gt;Node11</title>
<path fill="none" stroke="midnightblue" d="M817.599,-378.589C837.084,-383.558 861.075,-389.677 881.796,-394.961"/>
<polygon fill="midnightblue" stroke="midnightblue" points="881.117,-398.4 891.671,-397.48 882.846,-391.617 881.117,-398.4"/>
</g>
<!-- Node21&#45;&gt;Node4 -->
<g id="edge27" class="edge"><title>Node21&#45;&gt;Node4</title>
<path fill="none" stroke="midnightblue" d="M233.836,-163.809C257.126,-180.321 304.339,-213.792 332.147,-233.507"/>
<polygon fill="midnightblue" stroke="midnightblue" points="330.257,-236.458 340.439,-239.386 334.306,-230.747 330.257,-236.458"/>
</g>
<!-- Node22 -->
<g id="node22" class="node"><title>Node22</title>
<g id="a_node22"><a xlink:href="avltree_8c.html#a645f38498ce0006cd109919b893e21f4" target="_top" xlink:title="new_node">
<polygon fill="none" stroke="black" points="324.5,-38.5 324.5,-57.5 385.5,-57.5 385.5,-38.5 324.5,-38.5"/>
<text text-anchor="middle" x="355" y="-45.5" font-family="Helvetica,sans-Serif" font-size="10.00">new_node</text>
</a>
</g>
</g>
<!-- Node21&#45;&gt;Node22 -->
<g id="edge26" class="edge"><title>Node21&#45;&gt;Node22</title>
<path fill="none" stroke="midnightblue" d="M249.512,-144.412C254.701,-141.88 259.782,-138.772 264,-135 288.039,-113.503 276.075,-93.6243 300,-72 304.437,-67.9896 309.653,-64.5612 315.064,-61.6576"/>
<polygon fill="midnightblue" stroke="midnightblue" points="316.745,-64.7336 324.251,-57.2565 313.72,-58.4207 316.745,-64.7336"/>
</g>
<!-- Node23 -->
<g id="node23" class="node"><title>Node23</title>
<g id="a_node23"><a xlink:href="stm_8h.html#a7f41614dded09613f4ccd7578ef188ba" target="_top" xlink:title="new_stm_blk">
<polygon fill="none" stroke="black" points="1033,-76.5 1033,-95.5 1107,-95.5 1107,-76.5 1033,-76.5"/>
<text text-anchor="middle" x="1070" y="-83.5" font-family="Helvetica,sans-Serif" font-size="10.00">new_stm_blk</text>
</a>
</g>
</g>
<!-- Node21&#45;&gt;Node23 -->
<g id="edge28" class="edge"><title>Node21&#45;&gt;Node23</title>
<path fill="none" stroke="midnightblue" d="M241.761,-144.401C286.302,-125.657 391.471,-86 484,-86 484,-86 484,-86 780,-86 865.729,-86 965.763,-86 1022.82,-86"/>
<polygon fill="midnightblue" stroke="midnightblue" points="1022.96,-89.5001 1032.96,-86 1022.96,-82.5001 1022.96,-89.5001"/>
</g>
<!-- Node27 -->
<g id="node27" class="node"><title>Node27</title>
<g id="a_node27"><a xlink:href="stm_8h.html#a2c77806bb0511fb17494d226b5ea20d8" target="_top" xlink:title="init_stm_blk">
<polygon fill="none" stroke="black" points="320.5,-0.5 320.5,-19.5 389.5,-19.5 389.5,-0.5 320.5,-0.5"/>
<text text-anchor="middle" x="355" y="-7.5" font-family="Helvetica,sans-Serif" font-size="10.00">init_stm_blk</text>
</a>
</g>
</g>
<!-- Node21&#45;&gt;Node27 -->
<g id="edge35" class="edge"><title>Node21&#45;&gt;Node27</title>
<path fill="none" stroke="midnightblue" d="M251.48,-144.335C256.117,-141.86 260.501,-138.791 264,-135 297.742,-98.436 265.011,-64.373 300,-29 303.232,-25.7321 307.059,-23.0248 311.161,-20.7822"/>
<polygon fill="midnightblue" stroke="midnightblue" points="312.785,-23.8891 320.453,-16.578 309.899,-17.5116 312.785,-23.8891"/>
</g>
<!-- Node28 -->
<g id="node28" class="node"><title>Node28</title>
<g id="a_node28"><a xlink:href="stmskip_8cc.html#ab6919257456cff4d47684cdfd3bc5a3c" target="_top" xlink:title="get_level">
<polygon fill="none" stroke="black" points="327,-163.5 327,-182.5 383,-182.5 383,-163.5 327,-163.5"/>
<text text-anchor="middle" x="355" y="-170.5" font-family="Helvetica,sans-Serif" font-size="10.00">get_level</text>
</a>
</g>
</g>
<!-- Node21&#45;&gt;Node28 -->
<g id="edge36" class="edge"><title>Node21&#45;&gt;Node28</title>
<path fill="none" stroke="midnightblue" d="M262.031,-159.96C279.574,-162.447 299.782,-165.312 316.78,-167.722"/>
<polygon fill="midnightblue" stroke="midnightblue" points="316.503,-171.218 326.896,-169.157 317.486,-164.288 316.503,-171.218"/>
</g>
<!-- Node29 -->
<g id="node29" class="node"><title>Node29</title>
<g id="a_node29"><a xlink:href="stm_8h.html#a00de1ad150378181157510e2e5982f75" target="_top" xlink:title="write_stm_blk">
<polygon fill="none" stroke="black" points="446.5,-212.5 446.5,-231.5 523.5,-231.5 523.5,-212.5 446.5,-212.5"/>
<text text-anchor="middle" x="485" y="-219.5" font-family="Helvetica,sans-Serif" font-size="10.00">write_stm_blk</text>
</a>
</g>
</g>
<!-- Node21&#45;&gt;Node29 -->
<g id="edge37" class="edge"><title>Node21&#45;&gt;Node29</title>
<path fill="none" stroke="midnightblue" d="M262.377,-145.447C301.988,-139.403 362.054,-135.316 410,-154 435.65,-163.996 457.793,-187.501 471.007,-204.066"/>
<polygon fill="midnightblue" stroke="midnightblue" points="468.543,-206.605 477.396,-212.425 474.104,-202.354 468.543,-206.605"/>
</g>
<!-- Node24 -->
<g id="node24" class="node"><title>Node24</title>
<g id="a_node24"><a xlink:href="gc_8c.html#a5c5981457deeeefd60df569f6265f59c" target="_top" xlink:title="fr_gc_alloc">
<polygon fill="none" stroke="black" points="1172,-114.5 1172,-133.5 1236,-133.5 1236,-114.5 1172,-114.5"/>
<text text-anchor="middle" x="1204" y="-121.5" font-family="Helvetica,sans-Serif" font-size="10.00">fr_gc_alloc</text>
</a>
</g>
</g>
<!-- Node23&#45;&gt;Node24 -->
<g id="edge29" class="edge"><title>Node23&#45;&gt;Node24</title>
<path fill="none" stroke="midnightblue" d="M1104.31,-95.589C1121.92,-100.658 1143.68,-106.923 1162.29,-112.279"/>
<polygon fill="midnightblue" stroke="midnightblue" points="1161.39,-115.664 1171.97,-115.067 1163.33,-108.937 1161.39,-115.664"/>
</g>
<!-- Node24&#45;&gt;Node16 -->
<g id="edge30" class="edge"><title>Node24&#45;&gt;Node16</title>
<path fill="none" stroke="midnightblue" d="M1236.12,-126.235C1321.7,-132.383 1561.72,-149.624 1674.3,-157.711"/>
<polygon fill="midnightblue" stroke="midnightblue" points="1674.23,-161.216 1684.46,-158.441 1674.73,-154.234 1674.23,-161.216"/>
</g>
<!-- Node25 -->
<g id="node25" class="node"><title>Node25</title>
<g id="a_node25"><a xlink:href="gc_8c.html#a6dffa65320ddab40d01f198433b3aeb6" target="_top" xlink:title="get_alloc_chunk">
<polygon fill="none" stroke="black" points="1288.5,-152.5 1288.5,-171.5 1375.5,-171.5 1375.5,-152.5 1288.5,-152.5"/>
<text text-anchor="middle" x="1332" y="-159.5" font-family="Helvetica,sans-Serif" font-size="10.00">get_alloc_chunk</text>
</a>
</g>
</g>
<!-- Node24&#45;&gt;Node25 -->
<g id="edge31" class="edge"><title>Node24&#45;&gt;Node25</title>
<path fill="none" stroke="midnightblue" d="M1236.15,-133.393C1252.23,-138.244 1272.07,-144.227 1289.44,-149.466"/>
<polygon fill="midnightblue" stroke="midnightblue" points="1288.75,-152.914 1299.34,-152.451 1290.77,-146.212 1288.75,-152.914"/>
</g>
<!-- Node25&#45;&gt;Node16 -->
<g id="edge34" class="edge"><title>Node25&#45;&gt;Node16</title>
<path fill="none" stroke="midnightblue" d="M1375.53,-162C1447.25,-162 1592.39,-162 1674.28,-162"/>
<polygon fill="midnightblue" stroke="midnightblue" points="1674.43,-165.5 1684.43,-162 1674.43,-158.5 1674.43,-165.5"/>
</g>
<!-- Node26 -->
<g id="node26" class="node"><title>Node26</title>
<g id="a_node26"><a xlink:href="gc_8c.html#ae47e099483bed50da4e41b906c300b99" target="_top" xlink:title="get_filled_chunks">
<polygon fill="none" stroke="black" points="1416,-190.5 1416,-209.5 1508,-209.5 1508,-190.5 1416,-190.5"/>
<text text-anchor="middle" x="1462" y="-197.5" font-family="Helvetica,sans-Serif" font-size="10.00">get_filled_chunks</text>
</a>
</g>
</g>
<!-- Node25&#45;&gt;Node26 -->
<g id="edge32" class="edge"><title>Node25&#45;&gt;Node26</title>
<path fill="none" stroke="midnightblue" d="M1365.3,-171.589C1381.52,-176.404 1401.38,-182.299 1418.79,-187.468"/>
<polygon fill="midnightblue" stroke="midnightblue" points="1418.13,-190.923 1428.71,-190.414 1420.12,-184.213 1418.13,-190.923"/>
</g>
<!-- Node26&#45;&gt;Node15 -->
<g id="edge33" class="edge"><title>Node26&#45;&gt;Node15</title>
<path fill="none" stroke="midnightblue" d="M1508.37,-200C1517.95,-200 1528.19,-200 1538.18,-200"/>
<polygon fill="midnightblue" stroke="midnightblue" points="1538.47,-203.5 1548.47,-200 1538.47,-196.5 1538.47,-203.5"/>
</g>
<!-- Node29&#45;&gt;Node6 -->
<g id="edge38" class="edge"><title>Node29&#45;&gt;Node6</title>
<path fill="none" stroke="midnightblue" d="M523.837,-217.551C564.628,-214.35 630.614,-213.872 682,-236 701.935,-244.585 700.183,-256.604 718,-269 782.778,-314.066 803.595,-318.619 876,-350 880.7,-352.037 885.697,-354.036 890.672,-355.928"/>
<polygon fill="midnightblue" stroke="midnightblue" points="889.536,-359.239 900.129,-359.414 891.957,-352.671 889.536,-359.239"/>
</g>
<!-- Node29&#45;&gt;Node7 -->
<g id="edge39" class="edge"><title>Node29&#45;&gt;Node7</title>
<path fill="none" stroke="midnightblue" d="M490.902,-231.645C501.116,-250.784 526.535,-293.718 560,-317 562.867,-318.995 565.954,-320.788 569.161,-322.398"/>
<polygon fill="midnightblue" stroke="midnightblue" points="567.87,-325.654 578.434,-326.469 570.684,-319.244 567.87,-325.654"/>
</g>
<!-- Node29&#45;&gt;Node8 -->
<g id="edge40" class="edge"><title>Node29&#45;&gt;Node8</title>
<path fill="none" stroke="midnightblue" d="M488.645,-231.653C495.832,-256.061 518.046,-320.735 560,-355 563.819,-358.119 568.155,-360.729 572.709,-362.912"/>
<polygon fill="midnightblue" stroke="midnightblue" points="571.683,-366.273 582.263,-366.82 574.333,-359.795 571.683,-366.273"/>
</g>
<!-- Node29&#45;&gt;Node19 -->
<g id="edge47" class="edge"><title>Node29&#45;&gt;Node19</title>
<path fill="none" stroke="midnightblue" d="M523.522,-230.696C572.426,-242.407 654.907,-263.557 682,-279 715.518,-298.106 746.59,-331.169 763.857,-351.461"/>
<polygon fill="midnightblue" stroke="midnightblue" points="761.292,-353.851 770.379,-359.298 766.673,-349.373 761.292,-353.851"/>
</g>
<!-- Node29&#45;&gt;Node20 -->
<g id="edge46" class="edge"><title>Node29&#45;&gt;Node20</title>
<path fill="none" stroke="midnightblue" d="M497.999,-231.755C512.185,-242.966 536.806,-261.434 560,-274 567.144,-277.871 575.048,-281.472 582.71,-284.647"/>
<polygon fill="midnightblue" stroke="midnightblue" points="581.625,-287.982 592.21,-288.428 584.213,-281.478 581.625,-287.982"/>
</g>
<!-- Node29&#45;&gt;Node24 -->
<g id="edge41" class="edge"><title>Node29&#45;&gt;Node24</title>
<path fill="none" stroke="midnightblue" d="M491.646,-212.342C502.415,-194.945 527.719,-158.693 560,-143 647.468,-100.478 680.744,-124 778,-124 778,-124 778,-124 931,-124 1012.9,-124 1108.67,-124 1161.93,-124"/>
<polygon fill="midnightblue" stroke="midnightblue" points="1162,-127.5 1172,-124 1162,-120.5 1162,-127.5"/>
</g>
<!-- Node30 -->
<g id="node30" class="node"><title>Node30</title>
<g id="a_node30"><a xlink:href="namespaceanonymous__namespace_02libitm-5_813_0014_8cpp_03.html#a8b7be7cf3afef27c0623b844ce9116d8" target="_top" xlink:title="anonymous_namespace\l\{libitm&#45;5::13,14::cpp\}\l::memcpy">
<polygon fill="none" stroke="black" points="560,-152.5 560,-193.5 682,-193.5 682,-152.5 560,-152.5"/>
<text text-anchor="start" x="568" y="-181.5" font-family="Helvetica,sans-Serif" font-size="10.00">anonymous_namespace</text>
<text text-anchor="start" x="568" y="-170.5" font-family="Helvetica,sans-Serif" font-size="10.00">{libitm&#45;5::13,14::cpp}</text>
<text text-anchor="middle" x="621" y="-159.5" font-family="Helvetica,sans-Serif" font-size="10.00">::memcpy</text>
</a>
</g>
</g>
<!-- Node29&#45;&gt;Node30 -->
<g id="edge42" class="edge"><title>Node29&#45;&gt;Node30</title>
<path fill="none" stroke="midnightblue" d="M512.155,-212.436C524.213,-208.027 539.126,-202.573 553.975,-197.143"/>
<polygon fill="midnightblue" stroke="midnightblue" points="555.503,-200.311 563.693,-193.59 553.099,-193.737 555.503,-200.311"/>
</g>
<!-- Node31 -->
<g id="node31" class="node"><title>Node31</title>
<g id="a_node31"><a xlink:href="namespaceanonymous__namespace_02oreceager_8cpp_03.html#a7a88c7a7453bbfaca53eeac03b80a5d6" target="_top" xlink:title="anonymous_namespace\l\{oreceager::cpp\}::read">
<polygon fill="none" stroke="black" points="718,-191 718,-221 840,-221 840,-191 718,-191"/>
<text text-anchor="start" x="726" y="-209" font-family="Helvetica,sans-Serif" font-size="10.00">anonymous_namespace</text>
<text text-anchor="middle" x="779" y="-198" font-family="Helvetica,sans-Serif" font-size="10.00">{oreceager::cpp}::read</text>
</a>
</g>
</g>
<!-- Node30&#45;&gt;Node31 -->
<g id="edge43" class="edge"><title>Node30&#45;&gt;Node31</title>
<path fill="none" stroke="midnightblue" d="M682.314,-185.759C690.695,-187.532 699.363,-189.365 707.904,-191.172"/>
<polygon fill="midnightblue" stroke="midnightblue" points="707.339,-194.63 717.847,-193.275 708.788,-187.781 707.339,-194.63"/>
</g>
<!-- Node32 -->
<g id="node32" class="node"><title>Node32</title>
<g id="a_node32"><a xlink:href="namespaceitm2stm.html#a334b9615cac957b9ce7a4743beaaaf53" target="_top" xlink:title="itm2stm::add_bytes">
<polygon fill="none" stroke="black" points="727.5,-152.5 727.5,-171.5 830.5,-171.5 830.5,-152.5 727.5,-152.5"/>
<text text-anchor="middle" x="779" y="-159.5" font-family="Helvetica,sans-Serif" font-size="10.00">itm2stm::add_bytes</text>
</a>
</g>
</g>
<!-- Node30&#45;&gt;Node32 -->
<g id="edge44" class="edge"><title>Node30&#45;&gt;Node32</title>
<path fill="none" stroke="midnightblue" d="M682.314,-168.747C693.852,-167.933 705.936,-167.081 717.481,-166.267"/>
<polygon fill="midnightblue" stroke="midnightblue" points="717.732,-169.758 727.461,-165.564 717.239,-162.776 717.732,-169.758"/>
</g>
<!-- Node33 -->
<g id="node33" class="node"><title>Node33</title>
<g id="a_node33"><a xlink:href="namespaceitm2stm.html#aa9908b113027ae21130750939980ee0b" target="_top" xlink:title="itm2stm::offset_of">
<polygon fill="none" stroke="black" points="731,-240.5 731,-259.5 827,-259.5 827,-240.5 731,-240.5"/>
<text text-anchor="middle" x="779" y="-247.5" font-family="Helvetica,sans-Serif" font-size="10.00">itm2stm::offset_of</text>
</a>
</g>
</g>
<!-- Node30&#45;&gt;Node33 -->
<g id="edge45" class="edge"><title>Node30&#45;&gt;Node33</title>
<path fill="none" stroke="midnightblue" d="M657.605,-193.608C665.646,-198.308 674.131,-203.301 682,-208 698.099,-217.613 700.996,-222.096 718,-230 723.422,-232.52 729.252,-234.874 735.071,-237.016"/>
<polygon fill="midnightblue" stroke="midnightblue" points="734.185,-240.415 744.78,-240.417 736.499,-233.808 734.185,-240.415"/>
</g>
<!-- Node34&#45;&gt;Node4 -->
<g id="edge49" class="edge"><title>Node34&#45;&gt;Node4</title>
<path fill="none" stroke="midnightblue" d="M253.814,-220.589C271.033,-225.472 292.164,-231.464 310.573,-236.685"/>
<polygon fill="midnightblue" stroke="midnightblue" points="309.621,-240.053 320.197,-239.414 311.531,-233.319 309.621,-240.053"/>
</g>
<!-- Node34&#45;&gt;Node29 -->
<g id="edge50" class="edge"><title>Node34&#45;&gt;Node29</title>
<path fill="none" stroke="midnightblue" d="M263.594,-212.816C311.175,-214.799 387.119,-217.963 436.271,-220.011"/>
<polygon fill="midnightblue" stroke="midnightblue" points="436.196,-223.511 446.333,-220.431 436.487,-216.517 436.196,-223.511"/>
</g>
</g>
</svg>
        <g id="navigator" transform="translate(0 0)" fill="#404254">
                <rect fill="#f2f5e9" fill-opacity="0.5" stroke="#606060" stroke-width=".5" x="0" y="0" width="60" height="60"/>
                <use id="zoomplus" xlink:href="#zoomPlus" x="17" y="9" onmousedown="handleZoom(evt,'in')"/>
                <use id="zoomminus" xlink:href="#zoomMin" x="42" y="9" onmousedown="handleZoom(evt,'out')"/>
                <use id="reset" xlink:href="#resetDef" x="30" y="36" onmousedown="handleReset()"/>
                <g id="arrowUp" xlink:href="#dirArrow" transform="translate(30 24)" onmousedown="handlePan(0,-1)">
                  <use xlink:href="#rim" fill="#404040">
                        <set attributeName="fill" to="#808080" begin="arrowUp.mouseover" end="arrowUp.mouseout"/>
                  </use>
                  <path fill="none" stroke="white" stroke-width="1.5" d="M0,-3.0v7 M-2.5,-0.5L0,-3.0L2.5,-0.5"/>
                </g>
                <g id="arrowRight" xlink:href="#dirArrow" transform="rotate(90) translate(36 -43)" onmousedown="handlePan(1,0)">
                  <use xlink:href="#rim" fill="#404040">
                        <set attributeName="fill" to="#808080" begin="arrowRight.mouseover" end="arrowRight.mouseout"/>
                  </use>
                  <path fill="none" stroke="white" stroke-width="1.5" d="M0,-3.0v7 M-2.5,-0.5L0,-3.0L2.5,-0.5"/>
                </g>
                <g id="arrowDown" xlink:href="#dirArrow" transform="rotate(180) translate(-30 -48)" onmousedown="handlePan(0,1)">
                  <use xlink:href="#rim" fill="#404040">
                        <set attributeName="fill" to="#808080" begin="arrowDown.mouseover" end="arrowDown.mouseout"/>
                  </use>
                  <path fill="none" stroke="white" stroke-width="1.5" d="M0,-3.0v7 M-2.5,-0.5L0,-3.0L2.5,-0.5"/>
                </g>
                <g id="arrowLeft" xlink:href="#dirArrow" transform="rotate(270) translate(-36 17)" onmousedown="handlePan(-1,0)">
                  <use xlink:href="#rim" fill="#404040">
                        <set attributeName="fill" to="#808080" begin="arrowLeft.mouseover" end="arrowLeft.mouseout"/>
                  </use>
                  <path fill="none" stroke="white" stroke-width="1.5" d="M0,-3.0v7 M-2.5,-0.5L0,-3.0L2.5,-0.5"/>
                </g>
        </g>
        <svg viewBox="0 0 15 15" width="100%" height="30px" preserveAspectRatio="xMaxYMin meet">
         <g id="arrow_out" transform="scale(0.3 0.3)">
          <a xlink:href="heap_8c_a9c77dbc94ac2daa5b202375477e26188_cgraph_org.svg" target="_base">
           <rect id="button" ry="5" rx="5" y="6" x="6" height="38" width="38"
                fill="#f2f5e9" fill-opacity="0.5" stroke="#606060" stroke-width="1.0"/>
           <path id="arrow"
             d="M 11.500037,31.436501 C 11.940474,20.09759 22.043105,11.32322 32.158766,21.979434 L 37.068811,17.246167 C 37.068811,17.246167 37.088388,32 37.088388,32 L 22.160133,31.978069 C 22.160133,31.978069 26.997745,27.140456 26.997745,27.140456 C 18.528582,18.264221 13.291696,25.230495 11.500037,31.436501 z"
             style="fill:#404040;"/>
          </a>
         </g>
        </svg>
</svg>
