<?xml version="1.0" encoding="UTF-8" standalone="no"?>
<!DOCTYPE svg PUBLIC "-//W3C//DTD SVG 1.1//EN"
 "http://www.w3.org/Graphics/SVG/1.1/DTD/svg11.dtd">
<!-- Generated by graphviz version 2.36.0 (20140111.2315)
 -->
<!-- Title: rstm/rstm&#45;dev/libstm/inst.hpp Pages: 1 -->
<svg width="281pt" height="152pt"
 viewBox="0.00 0.00 281.00 152.00" xmlns="http://www.w3.org/2000/svg" xmlns:xlink="http://www.w3.org/1999/xlink">
<g id="graph0" class="graph" transform="scale(1 1) rotate(0) translate(4 148)">
<title>rstm/rstm&#45;dev/libstm/inst.hpp</title>
<!-- Node1 -->
<g id="node1" class="node"><title>Node1</title>
<polygon fill="#bfbfbf" stroke="black" points="23.5,-113 23.5,-143 130.5,-143 130.5,-113 23.5,-113"/>
<text text-anchor="start" x="31.5" y="-131" font-family="Helvetica,sans-Serif" font-size="10.00">rstm/rstm&#45;dev/libstm</text>
<text text-anchor="middle" x="77" y="-120" font-family="Helvetica,sans-Serif" font-size="10.00">/inst.hpp</text>
</g>
<!-- Node2 -->
<g id="node2" class="node"><title>Node2</title>
<polygon fill="none" stroke="#bfbfbf" points="-0.5,-0.5 -0.5,-19.5 70.5,-19.5 70.5,-0.5 -0.5,-0.5"/>
<text text-anchor="middle" x="35" y="-7.5" font-family="Helvetica,sans-Serif" font-size="10.00">stm/config.h</text>
</g>
<!-- Node1&#45;&gt;Node2 -->
<g id="edge1" class="edge"><title>Node1&#45;&gt;Node2</title>
<path fill="none" stroke="midnightblue" d="M70.4162,-112.879C65.8078,-102.733 59.6656,-88.6681 55,-76 49.2619,-60.4197 43.7929,-42.3428 40.0288,-29.2134"/>
<polygon fill="midnightblue" stroke="midnightblue" points="43.3769,-28.1903 37.2995,-19.5119 36.6385,-30.0861 43.3769,-28.1903"/>
</g>
<!-- Node3 -->
<g id="node3" class="node"><title>Node3</title>
<g id="a_node3"><a xlink:href="platform_8hpp.html" target="_top" xlink:title="common/platform.hpp">
<polygon fill="none" stroke="black" points="63.5,-56.5 63.5,-75.5 174.5,-75.5 174.5,-56.5 63.5,-56.5"/>
<text text-anchor="middle" x="119" y="-63.5" font-family="Helvetica,sans-Serif" font-size="10.00">common/platform.hpp</text>
</a>
</g>
</g>
<!-- Node1&#45;&gt;Node3 -->
<g id="edge2" class="edge"><title>Node1&#45;&gt;Node3</title>
<path fill="none" stroke="midnightblue" d="M86.9534,-112.781C92.9936,-104.152 100.738,-93.0882 107.101,-83.9987"/>
<polygon fill="midnightblue" stroke="midnightblue" points="110.021,-85.93 112.889,-75.7305 104.287,-81.9157 110.021,-85.93"/>
</g>
<!-- Node3&#45;&gt;Node2 -->
<g id="edge3" class="edge"><title>Node3&#45;&gt;Node2</title>
<path fill="none" stroke="midnightblue" d="M105.504,-56.324C92.4004,-47.9002 72.2881,-34.9709 56.8931,-25.0741"/>
<polygon fill="midnightblue" stroke="midnightblue" points="58.767,-22.118 48.4626,-19.6545 54.9817,-28.0063 58.767,-22.118"/>
</g>
<!-- Node4 -->
<g id="node4" class="node"><title>Node4</title>
<polygon fill="none" stroke="#bfbfbf" points="88.5,-0.5 88.5,-19.5 137.5,-19.5 137.5,-0.5 88.5,-0.5"/>
<text text-anchor="middle" x="113" y="-7.5" font-family="Helvetica,sans-Serif" font-size="10.00">stdint.h</text>
</g>
<!-- Node3&#45;&gt;Node4 -->
<g id="edge4" class="edge"><title>Node3&#45;&gt;Node4</title>
<path fill="none" stroke="midnightblue" d="M118.009,-56.083C117.214,-48.9272 116.071,-38.6353 115.077,-29.6911"/>
<polygon fill="midnightblue" stroke="midnightblue" points="118.555,-29.3034 113.972,-19.7511 111.598,-30.0765 118.555,-29.3034"/>
</g>
<!-- Node5 -->
<g id="node5" class="node"><title>Node5</title>
<polygon fill="none" stroke="#bfbfbf" points="156,-0.5 156,-19.5 204,-19.5 204,-0.5 156,-0.5"/>
<text text-anchor="middle" x="180" y="-7.5" font-family="Helvetica,sans-Serif" font-size="10.00">limits.h</text>
</g>
<!-- Node3&#45;&gt;Node5 -->
<g id="edge5" class="edge"><title>Node3&#45;&gt;Node5</title>
<path fill="none" stroke="midnightblue" d="M128.801,-56.324C137.818,-48.3414 151.406,-36.3128 162.318,-26.6529"/>
<polygon fill="midnightblue" stroke="midnightblue" points="164.853,-29.083 170.021,-19.8339 160.213,-23.8416 164.853,-29.083"/>
</g>
<!-- Node6 -->
<g id="node6" class="node"><title>Node6</title>
<polygon fill="none" stroke="#bfbfbf" points="222.5,-0.5 222.5,-19.5 273.5,-19.5 273.5,-0.5 222.5,-0.5"/>
<text text-anchor="middle" x="248" y="-7.5" font-family="Helvetica,sans-Serif" font-size="10.00">unistd.h</text>
</g>
<!-- Node3&#45;&gt;Node6 -->
<g id="edge6" class="edge"><title>Node3&#45;&gt;Node6</title>
<path fill="none" stroke="midnightblue" d="M139.44,-56.4435C160.67,-47.5566 194.099,-33.5632 218.255,-23.4514"/>
<polygon fill="midnightblue" stroke="midnightblue" points="219.782,-26.6064 227.655,-19.5164 217.079,-20.1493 219.782,-26.6064"/>
</g>
</g>
</svg>
