<?xml version="1.0" encoding="UTF-8" standalone="no"?>
<!DOCTYPE svg PUBLIC "-//W3C//DTD SVG 1.1//EN"
 "http://www.w3.org/Graphics/SVG/1.1/DTD/svg11.dtd">
<!-- Generated by graphviz version 2.36.0 (20140111.2315)
 -->
<!-- Title: setDefaultParams Pages: 1 -->
<svg width="280pt" height="28pt"
 viewBox="0.00 0.00 280.00 28.00" xmlns="http://www.w3.org/2000/svg" xmlns:xlink="http://www.w3.org/1999/xlink">
<g id="graph0" class="graph" transform="scale(1 1) rotate(0) translate(4 24)">
<title>setDefaultParams</title>
<!-- Node1 -->
<g id="node1" class="node"><title>Node1</title>
<polygon fill="#bfbfbf" stroke="black" points="0.5,-0.5 0.5,-19.5 95.5,-19.5 95.5,-0.5 0.5,-0.5"/>
<text text-anchor="middle" x="48" y="-7.5" font-family="Helvetica,sans-Serif" font-size="10.00">setDefaultParams</text>
</g>
<!-- Node2 -->
<g id="node2" class="node"><title>Node2</title>
<g id="a_node2"><a xlink:href="labyrinth_8c.html#accf0fd4bc6c5b765d7fc74882d20f222" target="_top" xlink:title="parseArgs">
<polygon fill="none" stroke="black" points="132.5,-0.5 132.5,-19.5 193.5,-19.5 193.5,-0.5 132.5,-0.5"/>
<text text-anchor="middle" x="163" y="-7.5" font-family="Helvetica,sans-Serif" font-size="10.00">parseArgs</text>
</a>
</g>
</g>
<!-- Node1&#45;&gt;Node2 -->
<g id="edge1" class="edge"><title>Node1&#45;&gt;Node2</title>
<path fill="none" stroke="midnightblue" d="M105.884,-10C115.02,-10 124.143,-10 132.297,-10"/>
<polygon fill="midnightblue" stroke="midnightblue" points="105.614,-6.5001 95.6138,-10 105.614,-13.5001 105.614,-6.5001"/>
</g>
<!-- Node3 -->
<g id="node3" class="node"><title>Node3</title>
<g id="a_node3"><a xlink:href="labyrinth_8c.html#a40c5c0b0d4eb7b59a91108269f69dc89" target="_top" xlink:title="MAIN">
<polygon fill="none" stroke="black" points="230,-0.5 230,-19.5 272,-19.5 272,-0.5 230,-0.5"/>
<text text-anchor="middle" x="251" y="-7.5" font-family="Helvetica,sans-Serif" font-size="10.00">MAIN</text>
</a>
</g>
</g>
<!-- Node2&#45;&gt;Node3 -->
<g id="edge2" class="edge"><title>Node2&#45;&gt;Node3</title>
<path fill="none" stroke="midnightblue" d="M203.659,-10C212.723,-10 221.986,-10 229.825,-10"/>
<polygon fill="midnightblue" stroke="midnightblue" points="203.596,-6.5001 193.596,-10 203.596,-13.5001 203.596,-6.5001"/>
</g>
</g>
</svg>
