<?xml version="1.0" encoding="UTF-8" standalone="no"?>
<!DOCTYPE svg PUBLIC "-//W3C//DTD SVG 1.1//EN"
 "http://www.w3.org/Graphics/SVG/1.1/DTD/svg11.dtd">
<!-- Generated by graphviz version 2.36.0 (20140111.2315)
 -->
<!-- Title: rstm/rstm&#45;dev/stamp&#45;0.9.10/labyrinth/coordinate.c Pages: 1 -->
<svg width="327pt" height="264pt"
 viewBox="0.00 0.00 327.00 264.00" xmlns="http://www.w3.org/2000/svg" xmlns:xlink="http://www.w3.org/1999/xlink">
<g id="graph0" class="graph" transform="scale(1 1) rotate(0) translate(4 260)">
<title>rstm/rstm&#45;dev/stamp&#45;0.9.10/labyrinth/coordinate.c</title>
<!-- Node1 -->
<g id="node1" class="node"><title>Node1</title>
<polygon fill="#bfbfbf" stroke="black" points="93.5,-225 93.5,-255 236.5,-255 236.5,-225 93.5,-225"/>
<text text-anchor="start" x="101.5" y="-243" font-family="Helvetica,sans-Serif" font-size="10.00">rstm/rstm&#45;dev/stamp</text>
<text text-anchor="middle" x="165" y="-232" font-family="Helvetica,sans-Serif" font-size="10.00">&#45;0.9.10/labyrinth/coordinate.c</text>
</g>
<!-- Node2 -->
<g id="node2" class="node"><title>Node2</title>
<polygon fill="none" stroke="#bfbfbf" points="-0.5,-168.5 -0.5,-187.5 46.5,-187.5 46.5,-168.5 -0.5,-168.5"/>
<text text-anchor="middle" x="23" y="-175.5" font-family="Helvetica,sans-Serif" font-size="10.00">math.h</text>
</g>
<!-- Node1&#45;&gt;Node2 -->
<g id="edge1" class="edge"><title>Node1&#45;&gt;Node2</title>
<path fill="none" stroke="midnightblue" d="M131.707,-224.933C107.75,-214.81 75.7243,-201.278 52.6465,-191.527"/>
<polygon fill="midnightblue" stroke="midnightblue" points="53.9271,-188.268 43.3534,-187.6 51.2026,-194.716 53.9271,-188.268"/>
</g>
<!-- Node3 -->
<g id="node3" class="node"><title>Node3</title>
<polygon fill="none" stroke="#bfbfbf" points="65,-168.5 65,-187.5 113,-187.5 113,-168.5 65,-168.5"/>
<text text-anchor="middle" x="89" y="-175.5" font-family="Helvetica,sans-Serif" font-size="10.00">stdlib.h</text>
</g>
<!-- Node1&#45;&gt;Node3 -->
<g id="edge2" class="edge"><title>Node1&#45;&gt;Node3</title>
<path fill="none" stroke="midnightblue" d="M146.989,-224.781C135.262,-215.523 119.985,-203.462 108.055,-194.044"/>
<polygon fill="midnightblue" stroke="midnightblue" points="110.076,-191.18 100.059,-187.731 105.739,-196.674 110.076,-191.18"/>
</g>
<!-- Node4 -->
<g id="node4" class="node"><title>Node4</title>
<g id="a_node4"><a xlink:href="labyrinth_2coordinate_8h.html" target="_top" xlink:title="coordinate.h">
<polygon fill="none" stroke="black" points="229,-168.5 229,-187.5 299,-187.5 299,-168.5 229,-168.5"/>
<text text-anchor="middle" x="264" y="-175.5" font-family="Helvetica,sans-Serif" font-size="10.00">coordinate.h</text>
</a>
</g>
</g>
<!-- Node1&#45;&gt;Node4 -->
<g id="edge3" class="edge"><title>Node1&#45;&gt;Node4</title>
<path fill="none" stroke="midnightblue" d="M188.211,-224.933C204.168,-215.262 225.259,-202.479 241.14,-192.855"/>
<polygon fill="midnightblue" stroke="midnightblue" points="243.072,-195.776 249.81,-187.6 239.444,-189.79 243.072,-195.776"/>
</g>
<!-- Node5 -->
<g id="node5" class="node"><title>Node5</title>
<g id="a_node5"><a xlink:href="tm_8h.html" target="_top" xlink:title="tm.h">
<polygon fill="none" stroke="black" points="172,-112.5 172,-131.5 208,-131.5 208,-112.5 172,-112.5"/>
<text text-anchor="middle" x="190" y="-119.5" font-family="Helvetica,sans-Serif" font-size="10.00">tm.h</text>
</a>
</g>
</g>
<!-- Node1&#45;&gt;Node5 -->
<g id="edge11" class="edge"><title>Node1&#45;&gt;Node5</title>
<path fill="none" stroke="midnightblue" d="M161.438,-224.802C158.417,-210.234 155.388,-187.068 161,-168 164.012,-157.765 170.155,-147.66 176.014,-139.627"/>
<polygon fill="midnightblue" stroke="midnightblue" points="178.932,-141.577 182.327,-131.541 173.414,-137.269 178.932,-141.577"/>
</g>
<!-- Node9 -->
<g id="node9" class="node"><title>Node9</title>
<g id="a_node9"><a xlink:href="types_8h.html" target="_top" xlink:title="types.h">
<polygon fill="none" stroke="black" points="270.5,-112.5 270.5,-131.5 319.5,-131.5 319.5,-112.5 270.5,-112.5"/>
<text text-anchor="middle" x="295" y="-119.5" font-family="Helvetica,sans-Serif" font-size="10.00">types.h</text>
</a>
</g>
</g>
<!-- Node1&#45;&gt;Node9 -->
<g id="edge12" class="edge"><title>Node1&#45;&gt;Node9</title>
<path fill="none" stroke="midnightblue" d="M236.674,-230.9C263.583,-223.978 291.597,-211.265 308,-188 317.712,-174.225 312.057,-154.938 305.439,-140.954"/>
<polygon fill="midnightblue" stroke="midnightblue" points="308.41,-139.083 300.656,-131.863 302.215,-142.342 308.41,-139.083"/>
</g>
<!-- Node10 -->
<g id="node10" class="node"><title>Node10</title>
<g id="a_node10"><a xlink:href="pair_8h.html" target="_top" xlink:title="pair.h">
<polygon fill="none" stroke="black" points="169.5,-168.5 169.5,-187.5 210.5,-187.5 210.5,-168.5 169.5,-168.5"/>
<text text-anchor="middle" x="190" y="-175.5" font-family="Helvetica,sans-Serif" font-size="10.00">pair.h</text>
</a>
</g>
</g>
<!-- Node1&#45;&gt;Node10 -->
<g id="edge9" class="edge"><title>Node1&#45;&gt;Node10</title>
<path fill="none" stroke="midnightblue" d="M170.925,-224.781C174.37,-216.512 178.748,-206.006 182.44,-197.145"/>
<polygon fill="midnightblue" stroke="midnightblue" points="185.747,-198.307 186.362,-187.731 179.285,-195.615 185.747,-198.307"/>
</g>
<!-- Node4&#45;&gt;Node5 -->
<g id="edge4" class="edge"><title>Node4&#45;&gt;Node5</title>
<path fill="none" stroke="midnightblue" d="M252.111,-168.324C240.85,-160.107 223.713,-147.602 210.291,-137.807"/>
<polygon fill="midnightblue" stroke="midnightblue" points="212.247,-134.901 202.106,-131.834 208.12,-140.556 212.247,-134.901"/>
</g>
<!-- Node4&#45;&gt;Node9 -->
<g id="edge8" class="edge"><title>Node4&#45;&gt;Node9</title>
<path fill="none" stroke="midnightblue" d="M269.119,-168.083C273.408,-160.613 279.658,-149.724 284.942,-140.52"/>
<polygon fill="midnightblue" stroke="midnightblue" points="288.033,-142.166 289.976,-131.751 281.962,-138.681 288.033,-142.166"/>
</g>
<!-- Node6 -->
<g id="node6" class="node"><title>Node6</title>
<polygon fill="none" stroke="#bfbfbf" points="134,-56.5 134,-75.5 180,-75.5 180,-56.5 134,-56.5"/>
<text text-anchor="middle" x="157" y="-63.5" font-family="Helvetica,sans-Serif" font-size="10.00">stdio.h</text>
</g>
<!-- Node5&#45;&gt;Node6 -->
<g id="edge5" class="edge"><title>Node5&#45;&gt;Node6</title>
<path fill="none" stroke="midnightblue" d="M184.551,-112.083C179.986,-104.613 173.332,-93.7244 167.707,-84.5199"/>
<polygon fill="midnightblue" stroke="midnightblue" points="170.549,-82.4588 162.348,-75.7511 164.576,-86.109 170.549,-82.4588"/>
</g>
<!-- Node7 -->
<g id="node7" class="node"><title>Node7</title>
<g id="a_node7"><a xlink:href="assert_8h.html" target="_top" xlink:title="assert.h">
<polygon fill="none" stroke="black" points="198,-56.5 198,-75.5 250,-75.5 250,-56.5 198,-56.5"/>
<text text-anchor="middle" x="224" y="-63.5" font-family="Helvetica,sans-Serif" font-size="10.00">assert.h</text>
</a>
</g>
</g>
<!-- Node5&#45;&gt;Node7 -->
<g id="edge6" class="edge"><title>Node5&#45;&gt;Node7</title>
<path fill="none" stroke="midnightblue" d="M195.614,-112.083C200.367,-104.534 207.318,-93.4948 213.152,-84.2298"/>
<polygon fill="midnightblue" stroke="midnightblue" points="216.124,-86.0783 218.49,-75.7511 210.2,-82.3486 216.124,-86.0783"/>
</g>
<!-- Node8 -->
<g id="node8" class="node"><title>Node8</title>
<polygon fill="none" stroke="#bfbfbf" points="198.5,-0.5 198.5,-19.5 249.5,-19.5 249.5,-0.5 198.5,-0.5"/>
<text text-anchor="middle" x="224" y="-7.5" font-family="Helvetica,sans-Serif" font-size="10.00">config.h</text>
</g>
<!-- Node7&#45;&gt;Node8 -->
<g id="edge7" class="edge"><title>Node7&#45;&gt;Node8</title>
<path fill="none" stroke="midnightblue" d="M224,-56.083C224,-49.0059 224,-38.8611 224,-29.9865"/>
<polygon fill="midnightblue" stroke="midnightblue" points="227.5,-29.751 224,-19.7511 220.5,-29.7511 227.5,-29.751"/>
</g>
<!-- Node10&#45;&gt;Node5 -->
<g id="edge10" class="edge"><title>Node10&#45;&gt;Node5</title>
<path fill="none" stroke="midnightblue" d="M190,-168.083C190,-161.006 190,-150.861 190,-141.986"/>
<polygon fill="midnightblue" stroke="midnightblue" points="193.5,-141.751 190,-131.751 186.5,-141.751 193.5,-141.751"/>
</g>
</g>
</svg>
