<?xml version="1.0" encoding="UTF-8" standalone="no"?>
<!DOCTYPE svg PUBLIC "-//W3C//DTD SVG 1.1//EN"
 "http://www.w3.org/Graphics/SVG/1.1/DTD/svg11.dtd">
<!-- Generated by graphviz version 2.36.0 (20140111.2315)
 -->
<!-- Title: computeLocalLogLikelihoodHelper Pages: 1 -->
<!--zoomable 117 -->
<svg id="main" version="1.1" xmlns="http://www.w3.org/2000/svg" xmlns:xlink="http://www.w3.org/1999/xlink" xml:space="preserve" onload="init(evt)">
<style type="text/css"><![CDATA[
.edge:hover path { stroke: red; }
.edge:hover polygon { stroke: red; fill: red; }
]]></style>
<script type="text/javascript"><![CDATA[
var edges = document.getElementsByTagName('g');
if (edges && edges.length) {
  for (var i=0;i<edges.length;i++) {
    if (edges[i].id.substr(0,4)=='edge') {
      edges[i].setAttribute('class','edge');
    }
  }
}
]]></script>
        <defs>
                <circle id="rim" cx="0" cy="0" r="7"/>
                <circle id="rim2" cx="0" cy="0" r="3.5"/>
                <g id="zoomPlus">
                        <use xlink:href="#rim" fill="#404040">
                                <set attributeName="fill" to="#808080" begin="zoomplus.mouseover" end="zoomplus.mouseout"/>
                        </use>
                        <path d="M-4,0h8M0,-4v8" fill="none" stroke="white" stroke-width="1.5" pointer-events="none"/>
                </g>
                <g id="zoomMin">
                        <use xlink:href="#rim" fill="#404040">
                                <set attributeName="fill" to="#808080" begin="zoomminus.mouseover" end="zoomminus.mouseout"/>
                        </use>
                        <path d="M-4,0h8" fill="none" stroke="white" stroke-width="1.5" pointer-events="none"/>
                </g>
                <g id="dirArrow">
                        <path fill="none" stroke="white" stroke-width="1.5" d="M0,-3.0v7 M-2.5,-0.5L0,-3.0L2.5,-0.5"/>
                </g>
               <g id="resetDef">
                       <use xlink:href="#rim2" fill="#404040">
                               <set attributeName="fill" to="#808080" begin="reset.mouseover" end="reset.mouseout"/>
                       </use>
               </g>
        </defs>

<script type="text/javascript">
var viewWidth = 882;
var viewHeight = 117;
var sectionId = 'dynsection-5';
</script>
<script xlink:href="svgpan.js"/>
<svg id="graph" class="graph">
<g id="viewport">
<title>computeLocalLogLikelihoodHelper</title>
<!-- Node1 -->
<g id="node1" class="node"><title>Node1</title>
<polygon fill="#bfbfbf" stroke="black" points="0.5,-46.39 0.5,-76.39 137.5,-76.39 137.5,-46.39 0.5,-46.39"/>
<text text-anchor="start" x="8.5" y="-64.39" font-family="Helvetica,sans-Serif" font-size="10.00">computeLocalLogLikelihood</text>
<text text-anchor="middle" x="69" y="-53.39" font-family="Helvetica,sans-Serif" font-size="10.00">Helper</text>
</g>
<!-- Node2 -->
<g id="node2" class="node"><title>Node2</title>
<g id="a_node2"><a xlink:href="learner_8c.html#ad3241a2f5d00bb81f7db714702ea3d46" target="_top" xlink:title="computeLocalLogLikelihood">
<polygon fill="none" stroke="black" points="174.5,-51.89 174.5,-70.89 311.5,-70.89 311.5,-51.89 174.5,-51.89"/>
<text text-anchor="middle" x="243" y="-58.89" font-family="Helvetica,sans-Serif" font-size="10.00">computeLocalLogLikelihood</text>
</a>
</g>
</g>
<!-- Node1&#45;&gt;Node2 -->
<g id="edge1" class="edge"><title>Node1&#45;&gt;Node2</title>
<path fill="none" stroke="midnightblue" d="M148.134,-61.39C156.846,-61.39 165.666,-61.39 174.233,-61.39"/>
<polygon fill="midnightblue" stroke="midnightblue" points="147.979,-57.8901 137.979,-61.39 147.979,-64.8901 147.979,-57.8901"/>
</g>
<!-- Node3 -->
<g id="node3" class="node"><title>Node3</title>
<g id="a_node3"><a xlink:href="learner_8c.html#af4655d41f33380b11243cae071a4ce37" target="_top" xlink:title="TMfindBestInsertTask">
<polygon fill="none" stroke="black" points="348.5,-89.89 348.5,-108.89 461.5,-108.89 461.5,-89.89 348.5,-89.89"/>
<text text-anchor="middle" x="405" y="-96.89" font-family="Helvetica,sans-Serif" font-size="10.00">TMfindBestInsertTask</text>
</a>
</g>
</g>
<!-- Node2&#45;&gt;Node3 -->
<g id="edge2" class="edge"><title>Node2&#45;&gt;Node3</title>
<path fill="none" stroke="midnightblue" d="M294.392,-73.358C316.813,-78.6831 342.847,-84.8662 363.916,-89.87"/>
<polygon fill="midnightblue" stroke="midnightblue" points="294.913,-69.8845 284.375,-70.979 293.295,-76.6951 294.913,-69.8845"/>
</g>
<!-- Node4 -->
<g id="node4" class="node"><title>Node4</title>
<g id="a_node4"><a xlink:href="learner_8c.html#a992842224f9ab3030136c9cadb79bd44" target="_top" xlink:title="learnStructure">
<polygon fill="none" stroke="black" points="498.5,-89.89 498.5,-108.89 575.5,-108.89 575.5,-89.89 498.5,-89.89"/>
<text text-anchor="middle" x="537" y="-96.89" font-family="Helvetica,sans-Serif" font-size="10.00">learnStructure</text>
</a>
</g>
</g>
<!-- Node2&#45;&gt;Node4 -->
<g id="edge6" class="edge"><title>Node2&#45;&gt;Node4</title>
<path fill="none" stroke="midnightblue" d="M321.749,-65.055C363.533,-67.8057 415.814,-72.5032 462,-80.39 475.728,-82.7343 490.644,-86.3519 503.464,-89.8039"/>
<polygon fill="midnightblue" stroke="midnightblue" points="321.838,-61.5538 311.637,-64.4137 321.395,-68.5397 321.838,-61.5538"/>
</g>
<!-- Node7 -->
<g id="node7" class="node"><title>Node7</title>
<g id="a_node7"><a xlink:href="learner_8h.html#a643517a90c64064dfb94cb9cb8d6eddf" target="_top" xlink:title="learner_score">
<polygon fill="none" stroke="black" points="367.5,-13.89 367.5,-32.89 442.5,-32.89 442.5,-13.89 367.5,-13.89"/>
<text text-anchor="middle" x="405" y="-20.89" font-family="Helvetica,sans-Serif" font-size="10.00">learner_score</text>
</a>
</g>
</g>
<!-- Node2&#45;&gt;Node7 -->
<g id="edge7" class="edge"><title>Node2&#45;&gt;Node7</title>
<path fill="none" stroke="midnightblue" d="M294.265,-49.4521C317.992,-43.8169 345.788,-37.2153 367.468,-32.0663"/>
<polygon fill="midnightblue" stroke="midnightblue" points="293.295,-46.0849 284.375,-51.801 294.913,-52.8955 293.295,-46.0849"/>
</g>
<!-- Node3&#45;&gt;Node4 -->
<g id="edge3" class="edge"><title>Node3&#45;&gt;Node4</title>
<path fill="none" stroke="midnightblue" d="M471.767,-99.39C480.878,-99.39 489.97,-99.39 498.325,-99.39"/>
<polygon fill="midnightblue" stroke="midnightblue" points="471.509,-95.8901 461.509,-99.39 471.509,-102.89 471.509,-95.8901"/>
</g>
<!-- Node5 -->
<g id="node5" class="node"><title>Node5</title>
<g id="a_node5"><a xlink:href="learner_8h.html#a23d451d4d355a14fa7c9735304ba4d95" target="_top" xlink:title="learner_run">
<polygon fill="none" stroke="black" points="730.5,-51.89 730.5,-70.89 795.5,-70.89 795.5,-51.89 730.5,-51.89"/>
<text text-anchor="middle" x="763" y="-58.89" font-family="Helvetica,sans-Serif" font-size="10.00">learner_run</text>
</a>
</g>
</g>
<!-- Node4&#45;&gt;Node5 -->
<g id="edge4" class="edge"><title>Node4&#45;&gt;Node5</title>
<path fill="none" stroke="midnightblue" d="M585.872,-95.4502C616.891,-92.4333 658.061,-87.5566 694,-80.39 706.502,-77.897 720.069,-74.2938 731.772,-70.8939"/>
<polygon fill="midnightblue" stroke="midnightblue" points="585.391,-91.9799 575.764,-96.4026 586.048,-98.949 585.391,-91.9799"/>
</g>
<!-- Node6 -->
<g id="node6" class="node"><title>Node6</title>
<g id="a_node6"><a xlink:href="bayes_8c.html#a40c5c0b0d4eb7b59a91108269f69dc89" target="_top" xlink:title="MAIN">
<polygon fill="none" stroke="black" points="832,-13.89 832,-32.89 874,-32.89 874,-13.89 832,-13.89"/>
<text text-anchor="middle" x="853" y="-20.89" font-family="Helvetica,sans-Serif" font-size="10.00">MAIN</text>
</a>
</g>
</g>
<!-- Node5&#45;&gt;Node6 -->
<g id="edge5" class="edge"><title>Node5&#45;&gt;Node6</title>
<path fill="none" stroke="midnightblue" d="M795.55,-47.7661C807.666,-42.5341 821.155,-36.7096 831.908,-32.0663"/>
<polygon fill="midnightblue" stroke="midnightblue" points="793.999,-44.6234 786.206,-51.801 796.774,-51.0498 793.999,-44.6234"/>
</g>
<!-- Node7&#45;&gt;Node6 -->
<g id="edge13" class="edge"><title>Node7&#45;&gt;Node6</title>
<path fill="none" stroke="midnightblue" d="M453.023,-11.7588C467.367,-8.73121 483.247,-5.89752 498,-4.39 624.742,8.56083 777.972,-11.8549 831.987,-20.1448"/>
<polygon fill="midnightblue" stroke="midnightblue" points="451.905,-8.4206 442.887,-13.9814 453.404,-15.2581 451.905,-8.4206"/>
</g>
<!-- Node8 -->
<g id="node8" class="node"><title>Node8</title>
<g id="a_node8"><a xlink:href="bayes_8c.html#aa39a74293929705f5dfd47a76641d12a" target="_top" xlink:title="score">
<polygon fill="none" stroke="black" points="516.5,-13.89 516.5,-32.89 557.5,-32.89 557.5,-13.89 516.5,-13.89"/>
<text text-anchor="middle" x="537" y="-20.89" font-family="Helvetica,sans-Serif" font-size="10.00">score</text>
</a>
</g>
</g>
<!-- Node7&#45;&gt;Node8 -->
<g id="edge8" class="edge"><title>Node7&#45;&gt;Node8</title>
<path fill="none" stroke="midnightblue" d="M452.667,-16.8845C474.513,-16.2872 499.368,-16.7843 516.206,-18.3759"/>
<polygon fill="midnightblue" stroke="midnightblue" points="452.425,-13.3909 442.558,-17.2507 452.678,-20.3863 452.425,-13.3909"/>
</g>
<!-- Node8&#45;&gt;Node6 -->
<g id="edge9" class="edge"><title>Node8&#45;&gt;Node6</title>
<path fill="none" stroke="midnightblue" d="M567.78,-23.39C631.229,-23.39 778.317,-23.39 831.961,-23.39"/>
<polygon fill="midnightblue" stroke="midnightblue" points="567.642,-19.8901 557.642,-23.39 567.642,-26.8901 567.642,-19.8901"/>
</g>
<!-- Node8&#45;&gt;Node7 -->
<g id="edge12" class="edge"><title>Node8&#45;&gt;Node7</title>
<path fill="none" stroke="midnightblue" d="M506.077,-29.1769C487.172,-30.3302 462.615,-30.4477 442.558,-29.5293"/>
<polygon fill="midnightblue" stroke="midnightblue" points="506.501,-32.6548 516.206,-28.4041 505.969,-25.6751 506.501,-32.6548"/>
</g>
<!-- Node9 -->
<g id="node9" class="node"><title>Node9</title>
<g id="a_node9"><a xlink:href="learner_8c.html#a5a45fbc491ab273140631145a6e82e54" target="_top" xlink:title="createTaskList">
<polygon fill="none" stroke="black" points="612.5,-51.89 612.5,-70.89 693.5,-70.89 693.5,-51.89 612.5,-51.89"/>
<text text-anchor="middle" x="653" y="-58.89" font-family="Helvetica,sans-Serif" font-size="10.00">createTaskList</text>
</a>
</g>
</g>
<!-- Node8&#45;&gt;Node9 -->
<g id="edge10" class="edge"><title>Node8&#45;&gt;Node9</title>
<path fill="none" stroke="midnightblue" d="M567.153,-33.1077C584.383,-38.8508 606.112,-46.094 623.267,-51.8125"/>
<polygon fill="midnightblue" stroke="midnightblue" points="568.191,-29.7644 557.597,-29.9224 565.977,-36.4052 568.191,-29.7644"/>
</g>
<!-- Node9&#45;&gt;Node5 -->
<g id="edge11" class="edge"><title>Node9&#45;&gt;Node5</title>
<path fill="none" stroke="midnightblue" d="M703.656,-61.39C712.67,-61.39 721.846,-61.39 730.171,-61.39"/>
<polygon fill="midnightblue" stroke="midnightblue" points="703.602,-57.8901 693.602,-61.39 703.602,-64.8901 703.602,-57.8901"/>
</g>
</g>
</svg>
        <g id="navigator" transform="translate(0 0)" fill="#404254">
                <rect fill="#f2f5e9" fill-opacity="0.5" stroke="#606060" stroke-width=".5" x="0" y="0" width="60" height="60"/>
                <use id="zoomplus" xlink:href="#zoomPlus" x="17" y="9" onmousedown="handleZoom(evt,'in')"/>
                <use id="zoomminus" xlink:href="#zoomMin" x="42" y="9" onmousedown="handleZoom(evt,'out')"/>
                <use id="reset" xlink:href="#resetDef" x="30" y="36" onmousedown="handleReset()"/>
                <g id="arrowUp" xlink:href="#dirArrow" transform="translate(30 24)" onmousedown="handlePan(0,-1)">
                  <use xlink:href="#rim" fill="#404040">
                        <set attributeName="fill" to="#808080" begin="arrowUp.mouseover" end="arrowUp.mouseout"/>
                  </use>
                  <path fill="none" stroke="white" stroke-width="1.5" d="M0,-3.0v7 M-2.5,-0.5L0,-3.0L2.5,-0.5"/>
                </g>
                <g id="arrowRight" xlink:href="#dirArrow" transform="rotate(90) translate(36 -43)" onmousedown="handlePan(1,0)">
                  <use xlink:href="#rim" fill="#404040">
                        <set attributeName="fill" to="#808080" begin="arrowRight.mouseover" end="arrowRight.mouseout"/>
                  </use>
                  <path fill="none" stroke="white" stroke-width="1.5" d="M0,-3.0v7 M-2.5,-0.5L0,-3.0L2.5,-0.5"/>
                </g>
                <g id="arrowDown" xlink:href="#dirArrow" transform="rotate(180) translate(-30 -48)" onmousedown="handlePan(0,1)">
                  <use xlink:href="#rim" fill="#404040">
                        <set attributeName="fill" to="#808080" begin="arrowDown.mouseover" end="arrowDown.mouseout"/>
                  </use>
                  <path fill="none" stroke="white" stroke-width="1.5" d="M0,-3.0v7 M-2.5,-0.5L0,-3.0L2.5,-0.5"/>
                </g>
                <g id="arrowLeft" xlink:href="#dirArrow" transform="rotate(270) translate(-36 17)" onmousedown="handlePan(-1,0)">
                  <use xlink:href="#rim" fill="#404040">
                        <set attributeName="fill" to="#808080" begin="arrowLeft.mouseover" end="arrowLeft.mouseout"/>
                  </use>
                  <path fill="none" stroke="white" stroke-width="1.5" d="M0,-3.0v7 M-2.5,-0.5L0,-3.0L2.5,-0.5"/>
                </g>
        </g>
        <svg viewBox="0 0 15 15" width="100%" height="30px" preserveAspectRatio="xMaxYMin meet">
         <g id="arrow_out" transform="scale(0.3 0.3)">
          <a xlink:href="learner_8c_a280dfaac5218200a65bd222548bd0563_icgraph_org.svg" target="_base">
           <rect id="button" ry="5" rx="5" y="6" x="6" height="38" width="38"
                fill="#f2f5e9" fill-opacity="0.5" stroke="#606060" stroke-width="1.0"/>
           <path id="arrow"
             d="M 11.500037,31.436501 C 11.940474,20.09759 22.043105,11.32322 32.158766,21.979434 L 37.068811,17.246167 C 37.068811,17.246167 37.088388,32 37.088388,32 L 22.160133,31.978069 C 22.160133,31.978069 26.997745,27.140456 26.997745,27.140456 C 18.528582,18.264221 13.291696,25.230495 11.500037,31.436501 z"
             style="fill:#404040;"/>
          </a>
         </g>
        </svg>
</svg>
