<?xml version="1.0" encoding="UTF-8" standalone="no"?>
<!DOCTYPE svg PUBLIC "-//W3C//DTD SVG 1.1//EN"
 "http://www.w3.org/Graphics/SVG/1.1/DTD/svg11.dtd">
<!-- Generated by graphviz version 2.36.0 (20140111.2315)
 -->
<!-- Title: computeSpecificLocalLogLikelihood Pages: 1 -->
<!--zoomable 155 -->
<svg id="main" version="1.1" xmlns="http://www.w3.org/2000/svg" xmlns:xlink="http://www.w3.org/1999/xlink" xml:space="preserve" onload="init(evt)">
<style type="text/css"><![CDATA[
.edge:hover path { stroke: red; }
.edge:hover polygon { stroke: red; fill: red; }
]]></style>
<script type="text/javascript"><![CDATA[
var edges = document.getElementsByTagName('g');
if (edges && edges.length) {
  for (var i=0;i<edges.length;i++) {
    if (edges[i].id.substr(0,4)=='edge') {
      edges[i].setAttribute('class','edge');
    }
  }
}
]]></script>
        <defs>
                <circle id="rim" cx="0" cy="0" r="7"/>
                <circle id="rim2" cx="0" cy="0" r="3.5"/>
                <g id="zoomPlus">
                        <use xlink:href="#rim" fill="#404040">
                                <set attributeName="fill" to="#808080" begin="zoomplus.mouseover" end="zoomplus.mouseout"/>
                        </use>
                        <path d="M-4,0h8M0,-4v8" fill="none" stroke="white" stroke-width="1.5" pointer-events="none"/>
                </g>
                <g id="zoomMin">
                        <use xlink:href="#rim" fill="#404040">
                                <set attributeName="fill" to="#808080" begin="zoomminus.mouseover" end="zoomminus.mouseout"/>
                        </use>
                        <path d="M-4,0h8" fill="none" stroke="white" stroke-width="1.5" pointer-events="none"/>
                </g>
                <g id="dirArrow">
                        <path fill="none" stroke="white" stroke-width="1.5" d="M0,-3.0v7 M-2.5,-0.5L0,-3.0L2.5,-0.5"/>
                </g>
               <g id="resetDef">
                       <use xlink:href="#rim2" fill="#404040">
                               <set attributeName="fill" to="#808080" begin="reset.mouseover" end="reset.mouseout"/>
                       </use>
               </g>
        </defs>

<script type="text/javascript">
var viewWidth = 1090;
var viewHeight = 155;
var sectionId = 'dynsection-7';
</script>
<script xlink:href="svgpan.js"/>
<svg id="graph" class="graph">
<g id="viewport">
<title>computeSpecificLocalLogLikelihood</title>
<!-- Node1 -->
<g id="node1" class="node"><title>Node1</title>
<polygon fill="#bfbfbf" stroke="black" points="0,-73.89 0,-92.89 172,-92.89 172,-73.89 0,-73.89"/>
<text text-anchor="middle" x="86" y="-80.89" font-family="Helvetica,sans-Serif" font-size="10.00">computeSpecificLocalLogLikelihood</text>
</g>
<!-- Node2 -->
<g id="node2" class="node"><title>Node2</title>
<g id="a_node2"><a xlink:href="learner_8c.html#a5a45fbc491ab273140631145a6e82e54" target="_top" xlink:title="createTaskList">
<polygon fill="none" stroke="black" points="820.5,-51.89 820.5,-70.89 901.5,-70.89 901.5,-51.89 820.5,-51.89"/>
<text text-anchor="middle" x="861" y="-58.89" font-family="Helvetica,sans-Serif" font-size="10.00">createTaskList</text>
</a>
</g>
</g>
<!-- Node1&#45;&gt;Node2 -->
<g id="edge1" class="edge"><title>Node1&#45;&gt;Node2</title>
<path fill="none" stroke="midnightblue" d="M182.474,-74.439C255.624,-68.3488 359.097,-61.39 450,-61.39 450,-61.39 450,-61.39 614,-61.39 686.818,-61.39 771.76,-61.39 820.376,-61.39"/>
<polygon fill="midnightblue" stroke="midnightblue" points="182.028,-70.964 172.357,-75.2917 182.616,-77.9393 182.028,-70.964"/>
</g>
<!-- Node5 -->
<g id="node5" class="node"><title>Node5</title>
<g id="a_node5"><a xlink:href="learner_8c.html#a280dfaac5218200a65bd222548bd0563" target="_top" xlink:title="computeLocalLogLikelihood\lHelper">
<polygon fill="none" stroke="black" points="208.5,-90.39 208.5,-120.39 345.5,-120.39 345.5,-90.39 208.5,-90.39"/>
<text text-anchor="start" x="216.5" y="-108.39" font-family="Helvetica,sans-Serif" font-size="10.00">computeLocalLogLikelihood</text>
<text text-anchor="middle" x="277" y="-97.39" font-family="Helvetica,sans-Serif" font-size="10.00">Helper</text>
</a>
</g>
</g>
<!-- Node1&#45;&gt;Node5 -->
<g id="edge4" class="edge"><title>Node1&#45;&gt;Node5</title>
<path fill="none" stroke="midnightblue" d="M179.033,-94.1029C188.883,-95.2495 198.77,-96.4002 208.263,-97.5053"/>
<polygon fill="midnightblue" stroke="midnightblue" points="179.137,-90.5913 168.799,-92.9116 178.327,-97.5444 179.137,-90.5913"/>
</g>
<!-- Node3 -->
<g id="node3" class="node"><title>Node3</title>
<g id="a_node3"><a xlink:href="learner_8h.html#a23d451d4d355a14fa7c9735304ba4d95" target="_top" xlink:title="learner_run">
<polygon fill="none" stroke="black" points="938.5,-51.89 938.5,-70.89 1003.5,-70.89 1003.5,-51.89 938.5,-51.89"/>
<text text-anchor="middle" x="971" y="-58.89" font-family="Helvetica,sans-Serif" font-size="10.00">learner_run</text>
</a>
</g>
</g>
<!-- Node2&#45;&gt;Node3 -->
<g id="edge2" class="edge"><title>Node2&#45;&gt;Node3</title>
<path fill="none" stroke="midnightblue" d="M911.656,-61.39C920.67,-61.39 929.846,-61.39 938.171,-61.39"/>
<polygon fill="midnightblue" stroke="midnightblue" points="911.602,-57.8901 901.602,-61.39 911.602,-64.8901 911.602,-57.8901"/>
</g>
<!-- Node4 -->
<g id="node4" class="node"><title>Node4</title>
<g id="a_node4"><a xlink:href="bayes_8c.html#a40c5c0b0d4eb7b59a91108269f69dc89" target="_top" xlink:title="MAIN">
<polygon fill="none" stroke="black" points="1040,-13.89 1040,-32.89 1082,-32.89 1082,-13.89 1040,-13.89"/>
<text text-anchor="middle" x="1061" y="-20.89" font-family="Helvetica,sans-Serif" font-size="10.00">MAIN</text>
</a>
</g>
</g>
<!-- Node3&#45;&gt;Node4 -->
<g id="edge3" class="edge"><title>Node3&#45;&gt;Node4</title>
<path fill="none" stroke="midnightblue" d="M1003.55,-47.7661C1015.67,-42.5341 1029.15,-36.7096 1039.91,-32.0663"/>
<polygon fill="midnightblue" stroke="midnightblue" points="1002,-44.6234 994.206,-51.801 1004.77,-51.0498 1002,-44.6234"/>
</g>
<!-- Node6 -->
<g id="node6" class="node"><title>Node6</title>
<g id="a_node6"><a xlink:href="learner_8c.html#ad3241a2f5d00bb81f7db714702ea3d46" target="_top" xlink:title="computeLocalLogLikelihood">
<polygon fill="none" stroke="black" points="382.5,-92.89 382.5,-111.89 519.5,-111.89 519.5,-92.89 382.5,-92.89"/>
<text text-anchor="middle" x="451" y="-99.89" font-family="Helvetica,sans-Serif" font-size="10.00">computeLocalLogLikelihood</text>
</a>
</g>
</g>
<!-- Node5&#45;&gt;Node6 -->
<g id="edge5" class="edge"><title>Node5&#45;&gt;Node6</title>
<path fill="none" stroke="midnightblue" d="M356.134,-104.027C364.846,-103.875 373.666,-103.721 382.233,-103.572"/>
<polygon fill="midnightblue" stroke="midnightblue" points="355.916,-100.53 345.979,-104.204 356.039,-107.529 355.916,-100.53"/>
</g>
<!-- Node7 -->
<g id="node7" class="node"><title>Node7</title>
<g id="a_node7"><a xlink:href="learner_8c.html#af4655d41f33380b11243cae071a4ce37" target="_top" xlink:title="TMfindBestInsertTask">
<polygon fill="none" stroke="black" points="556.5,-127.89 556.5,-146.89 669.5,-146.89 669.5,-127.89 556.5,-127.89"/>
<text text-anchor="middle" x="613" y="-134.89" font-family="Helvetica,sans-Serif" font-size="10.00">TMfindBestInsertTask</text>
</a>
</g>
</g>
<!-- Node6&#45;&gt;Node7 -->
<g id="edge6" class="edge"><title>Node6&#45;&gt;Node7</title>
<path fill="none" stroke="midnightblue" d="M505.508,-114.095C525.925,-118.561 548.937,-123.595 568.332,-127.838"/>
<polygon fill="midnightblue" stroke="midnightblue" points="506.238,-110.672 495.721,-111.954 504.742,-117.51 506.238,-110.672"/>
</g>
<!-- Node8 -->
<g id="node8" class="node"><title>Node8</title>
<g id="a_node8"><a xlink:href="learner_8c.html#a992842224f9ab3030136c9cadb79bd44" target="_top" xlink:title="learnStructure">
<polygon fill="none" stroke="black" points="706.5,-89.89 706.5,-108.89 783.5,-108.89 783.5,-89.89 706.5,-89.89"/>
<text text-anchor="middle" x="745" y="-96.89" font-family="Helvetica,sans-Serif" font-size="10.00">learnStructure</text>
</a>
</g>
</g>
<!-- Node6&#45;&gt;Node8 -->
<g id="edge9" class="edge"><title>Node6&#45;&gt;Node8</title>
<path fill="none" stroke="midnightblue" d="M529.787,-101.591C586.783,-101.005 661.669,-100.236 706.125,-99.7791"/>
<polygon fill="midnightblue" stroke="midnightblue" points="529.688,-98.0916 519.725,-101.694 529.76,-105.091 529.688,-98.0916"/>
</g>
<!-- Node9 -->
<g id="node9" class="node"><title>Node9</title>
<g id="a_node9"><a xlink:href="learner_8h.html#a643517a90c64064dfb94cb9cb8d6eddf" target="_top" xlink:title="learner_score">
<polygon fill="none" stroke="black" points="575.5,-13.89 575.5,-32.89 650.5,-32.89 650.5,-13.89 575.5,-13.89"/>
<text text-anchor="middle" x="613" y="-20.89" font-family="Helvetica,sans-Serif" font-size="10.00">learner_score</text>
</a>
</g>
</g>
<!-- Node6&#45;&gt;Node9 -->
<g id="edge10" class="edge"><title>Node6&#45;&gt;Node9</title>
<path fill="none" stroke="midnightblue" d="M480.667,-88.2359C513.007,-72.2677 564.723,-46.7329 592.632,-32.953"/>
<polygon fill="midnightblue" stroke="midnightblue" points="478.717,-85.2952 471.3,-92.8608 481.816,-91.5718 478.717,-85.2952"/>
</g>
<!-- Node7&#45;&gt;Node8 -->
<g id="edge7" class="edge"><title>Node7&#45;&gt;Node8</title>
<path fill="none" stroke="midnightblue" d="M656.884,-124.855C674.569,-119.685 694.734,-113.791 711.206,-108.976"/>
<polygon fill="midnightblue" stroke="midnightblue" points="655.421,-121.636 646.804,-127.801 657.385,-128.355 655.421,-121.636"/>
</g>
<!-- Node8&#45;&gt;Node3 -->
<g id="edge8" class="edge"><title>Node8&#45;&gt;Node3</title>
<path fill="none" stroke="midnightblue" d="M793.872,-95.4502C824.891,-92.4333 866.061,-87.5566 902,-80.39 914.502,-77.897 928.069,-74.2938 939.772,-70.8939"/>
<polygon fill="midnightblue" stroke="midnightblue" points="793.391,-91.9799 783.764,-96.4026 794.048,-98.949 793.391,-91.9799"/>
</g>
<!-- Node9&#45;&gt;Node4 -->
<g id="edge15" class="edge"><title>Node9&#45;&gt;Node4</title>
<path fill="none" stroke="midnightblue" d="M661.023,-11.7588C675.367,-8.73121 691.247,-5.89752 706,-4.39 832.742,8.56083 985.972,-11.8549 1039.99,-20.1448"/>
<polygon fill="midnightblue" stroke="midnightblue" points="659.905,-8.4206 650.887,-13.9814 661.404,-15.2581 659.905,-8.4206"/>
</g>
<!-- Node10 -->
<g id="node10" class="node"><title>Node10</title>
<g id="a_node10"><a xlink:href="bayes_8c.html#aa39a74293929705f5dfd47a76641d12a" target="_top" xlink:title="score">
<polygon fill="none" stroke="black" points="724.5,-13.89 724.5,-32.89 765.5,-32.89 765.5,-13.89 724.5,-13.89"/>
<text text-anchor="middle" x="745" y="-20.89" font-family="Helvetica,sans-Serif" font-size="10.00">score</text>
</a>
</g>
</g>
<!-- Node9&#45;&gt;Node10 -->
<g id="edge11" class="edge"><title>Node9&#45;&gt;Node10</title>
<path fill="none" stroke="midnightblue" d="M660.667,-16.8845C682.513,-16.2872 707.368,-16.7843 724.206,-18.3759"/>
<polygon fill="midnightblue" stroke="midnightblue" points="660.425,-13.3909 650.558,-17.2507 660.678,-20.3863 660.425,-13.3909"/>
</g>
<!-- Node10&#45;&gt;Node2 -->
<g id="edge13" class="edge"><title>Node10&#45;&gt;Node2</title>
<path fill="none" stroke="midnightblue" d="M775.153,-33.1077C792.383,-38.8508 814.112,-46.094 831.267,-51.8125"/>
<polygon fill="midnightblue" stroke="midnightblue" points="776.191,-29.7644 765.597,-29.9224 773.977,-36.4052 776.191,-29.7644"/>
</g>
<!-- Node10&#45;&gt;Node4 -->
<g id="edge12" class="edge"><title>Node10&#45;&gt;Node4</title>
<path fill="none" stroke="midnightblue" d="M775.78,-23.39C839.229,-23.39 986.317,-23.39 1039.96,-23.39"/>
<polygon fill="midnightblue" stroke="midnightblue" points="775.642,-19.8901 765.642,-23.39 775.642,-26.8901 775.642,-19.8901"/>
</g>
<!-- Node10&#45;&gt;Node9 -->
<g id="edge14" class="edge"><title>Node10&#45;&gt;Node9</title>
<path fill="none" stroke="midnightblue" d="M714.077,-29.1769C695.172,-30.3302 670.615,-30.4477 650.558,-29.5293"/>
<polygon fill="midnightblue" stroke="midnightblue" points="714.501,-32.6548 724.206,-28.4041 713.969,-25.6751 714.501,-32.6548"/>
</g>
</g>
</svg>
        <g id="navigator" transform="translate(0 0)" fill="#404254">
                <rect fill="#f2f5e9" fill-opacity="0.5" stroke="#606060" stroke-width=".5" x="0" y="0" width="60" height="60"/>
                <use id="zoomplus" xlink:href="#zoomPlus" x="17" y="9" onmousedown="handleZoom(evt,'in')"/>
                <use id="zoomminus" xlink:href="#zoomMin" x="42" y="9" onmousedown="handleZoom(evt,'out')"/>
                <use id="reset" xlink:href="#resetDef" x="30" y="36" onmousedown="handleReset()"/>
                <g id="arrowUp" xlink:href="#dirArrow" transform="translate(30 24)" onmousedown="handlePan(0,-1)">
                  <use xlink:href="#rim" fill="#404040">
                        <set attributeName="fill" to="#808080" begin="arrowUp.mouseover" end="arrowUp.mouseout"/>
                  </use>
                  <path fill="none" stroke="white" stroke-width="1.5" d="M0,-3.0v7 M-2.5,-0.5L0,-3.0L2.5,-0.5"/>
                </g>
                <g id="arrowRight" xlink:href="#dirArrow" transform="rotate(90) translate(36 -43)" onmousedown="handlePan(1,0)">
                  <use xlink:href="#rim" fill="#404040">
                        <set attributeName="fill" to="#808080" begin="arrowRight.mouseover" end="arrowRight.mouseout"/>
                  </use>
                  <path fill="none" stroke="white" stroke-width="1.5" d="M0,-3.0v7 M-2.5,-0.5L0,-3.0L2.5,-0.5"/>
                </g>
                <g id="arrowDown" xlink:href="#dirArrow" transform="rotate(180) translate(-30 -48)" onmousedown="handlePan(0,1)">
                  <use xlink:href="#rim" fill="#404040">
                        <set attributeName="fill" to="#808080" begin="arrowDown.mouseover" end="arrowDown.mouseout"/>
                  </use>
                  <path fill="none" stroke="white" stroke-width="1.5" d="M0,-3.0v7 M-2.5,-0.5L0,-3.0L2.5,-0.5"/>
                </g>
                <g id="arrowLeft" xlink:href="#dirArrow" transform="rotate(270) translate(-36 17)" onmousedown="handlePan(-1,0)">
                  <use xlink:href="#rim" fill="#404040">
                        <set attributeName="fill" to="#808080" begin="arrowLeft.mouseover" end="arrowLeft.mouseout"/>
                  </use>
                  <path fill="none" stroke="white" stroke-width="1.5" d="M0,-3.0v7 M-2.5,-0.5L0,-3.0L2.5,-0.5"/>
                </g>
        </g>
        <svg viewBox="0 0 15 15" width="100%" height="30px" preserveAspectRatio="xMaxYMin meet">
         <g id="arrow_out" transform="scale(0.3 0.3)">
          <a xlink:href="learner_8c_a98c61c86b28cffdf94d0d158c4ae5aa0_icgraph_org.svg" target="_base">
           <rect id="button" ry="5" rx="5" y="6" x="6" height="38" width="38"
                fill="#f2f5e9" fill-opacity="0.5" stroke="#606060" stroke-width="1.0"/>
           <path id="arrow"
             d="M 11.500037,31.436501 C 11.940474,20.09759 22.043105,11.32322 32.158766,21.979434 L 37.068811,17.246167 C 37.068811,17.246167 37.088388,32 37.088388,32 L 22.160133,31.978069 C 22.160133,31.978069 26.997745,27.140456 26.997745,27.140456 C 18.528582,18.264221 13.291696,25.230495 11.500037,31.436501 z"
             style="fill:#404040;"/>
          </a>
         </g>
        </svg>
</svg>
