<?xml version="1.0" encoding="UTF-8" standalone="no"?>
<!DOCTYPE svg PUBLIC "-//W3C//DTD SVG 1.1//EN"
 "http://www.w3.org/Graphics/SVG/1.1/DTD/svg11.dtd">
<!-- Generated by graphviz version 2.36.0 (20140111.2315)
 -->
<!-- Title: createTaskList Pages: 1 -->
<svg width="1294pt" height="952pt"
 viewBox="0.00 0.00 1294.00 952.00" xmlns="http://www.w3.org/2000/svg" xmlns:xlink="http://www.w3.org/1999/xlink">
<g id="graph0" class="graph" transform="scale(1 1) rotate(0) translate(4 948)">
<title>createTaskList</title>
<!-- Node1 -->
<g id="node1" class="node"><title>Node1</title>
<polygon fill="#bfbfbf" stroke="black" points="0.5,-411.5 0.5,-430.5 81.5,-430.5 81.5,-411.5 0.5,-411.5"/>
<text text-anchor="middle" x="41" y="-418.5" font-family="Helvetica,sans-Serif" font-size="10.00">createTaskList</text>
</g>
<!-- Node2 -->
<g id="node2" class="node"><title>Node2</title>
<g id="a_node2"><a xlink:href="thread_8c.html#abec126223ac40629f70a1bdcfa1aa088" target="_top" xlink:title="thread_getId">
<polygon fill="none" stroke="black" points="139.5,-924.5 139.5,-943.5 210.5,-943.5 210.5,-924.5 139.5,-924.5"/>
<text text-anchor="middle" x="175" y="-931.5" font-family="Helvetica,sans-Serif" font-size="10.00">thread_getId</text>
</a>
</g>
</g>
<!-- Node1&#45;&gt;Node2 -->
<g id="edge1" class="edge"><title>Node1&#45;&gt;Node2</title>
<path fill="none" stroke="midnightblue" d="M42.1645,-430.771C43.4078,-493.346 53.1565,-837.729 118,-915 121.338,-918.978 125.543,-922.125 130.142,-924.615"/>
<polygon fill="midnightblue" stroke="midnightblue" points="128.783,-927.841 139.347,-928.639 131.586,-921.427 128.783,-927.841"/>
</g>
<!-- Node3 -->
<g id="node3" class="node"><title>Node3</title>
<g id="a_node3"><a xlink:href="thread_8c.html#a82f23d770962c29f4e8f09480227e8be" target="_top" xlink:title="thread_getNumThread">
<polygon fill="none" stroke="black" points="118.5,-886.5 118.5,-905.5 231.5,-905.5 231.5,-886.5 118.5,-886.5"/>
<text text-anchor="middle" x="175" y="-893.5" font-family="Helvetica,sans-Serif" font-size="10.00">thread_getNumThread</text>
</a>
</g>
</g>
<!-- Node1&#45;&gt;Node3 -->
<g id="edge2" class="edge"><title>Node1&#45;&gt;Node3</title>
<path fill="none" stroke="midnightblue" d="M42.3939,-430.617C44.9759,-489.366 61.184,-799.757 118,-872 120.873,-875.653 124.409,-878.759 128.297,-881.398"/>
<polygon fill="midnightblue" stroke="midnightblue" points="126.82,-884.584 137.247,-886.462 130.266,-878.491 126.82,-884.584"/>
</g>
<!-- Node4 -->
<g id="node4" class="node"><title>Node4</title>
<g id="a_node4"><a xlink:href="vector_8c.html#a644473da71660c373cbfb134d83b37bf" target="_top" xlink:title="vector_pushBack">
<polygon fill="none" stroke="black" points="1194,-506.5 1194,-525.5 1286,-525.5 1286,-506.5 1194,-506.5"/>
<text text-anchor="middle" x="1240" y="-513.5" font-family="Helvetica,sans-Serif" font-size="10.00">vector_pushBack</text>
</a>
</g>
</g>
<!-- Node1&#45;&gt;Node4 -->
<g id="edge3" class="edge"><title>Node1&#45;&gt;Node4</title>
<path fill="none" stroke="midnightblue" d="M41.5369,-430.577C39.9765,-473.074 38.8547,-647.165 118,-753 175.083,-829.333 209.684,-858 305,-858 305,-858 305,-858 998,-858 1081.62,-858 1106.12,-824.586 1158,-759 1213.07,-689.376 1231.51,-580.578 1236.96,-536.035"/>
<polygon fill="midnightblue" stroke="midnightblue" points="1240.45,-536.261 1238.1,-525.931 1233.5,-535.474 1240.45,-536.261"/>
</g>
<!-- Node5 -->
<g id="node5" class="node"><title>Node5</title>
<g id="a_node5"><a xlink:href="learner_8c.html#acc48aeed933570cb6798c0e4930f6875" target="_top" xlink:title="createPartition">
<polygon fill="none" stroke="black" points="135,-0.5 135,-19.5 215,-19.5 215,-0.5 135,-0.5"/>
<text text-anchor="middle" x="175" y="-7.5" font-family="Helvetica,sans-Serif" font-size="10.00">createPartition</text>
</a>
</g>
</g>
<!-- Node1&#45;&gt;Node5 -->
<g id="edge4" class="edge"><title>Node1&#45;&gt;Node5</title>
<path fill="none" stroke="midnightblue" d="M42.6865,-411.382C46.6929,-357.675 68.6011,-95.0986 118,-34 121.04,-30.2395 124.781,-27.0567 128.875,-24.3652"/>
<polygon fill="midnightblue" stroke="midnightblue" points="130.607,-27.4069 137.662,-19.5029 127.217,-21.282 130.607,-27.4069"/>
</g>
<!-- Node7 -->
<g id="node7" class="node"><title>Node7</title>
<g id="a_node7"><a xlink:href="learner_8c.html#a98c61c86b28cffdf94d0d158c4ae5aa0" target="_top" xlink:title="computeSpecificLocalLogLikelihood">
<polygon fill="none" stroke="black" points="728,-79.5 728,-98.5 900,-98.5 900,-79.5 728,-79.5"/>
<text text-anchor="middle" x="814" y="-86.5" font-family="Helvetica,sans-Serif" font-size="10.00">computeSpecificLocalLogLikelihood</text>
</a>
</g>
</g>
<!-- Node1&#45;&gt;Node7 -->
<g id="edge6" class="edge"><title>Node1&#45;&gt;Node7</title>
<path fill="none" stroke="midnightblue" d="M41.7616,-411.262C41.3113,-371.725 44.6765,-221.175 118,-134 176.884,-63.9922 213.521,-48 305,-48 305,-48 305,-48 450,-48 557.887,-48 585.011,-53.1102 692,-67 713.283,-69.7631 736.508,-73.7481 756.868,-77.5695"/>
<polygon fill="midnightblue" stroke="midnightblue" points="756.44,-81.0509 766.918,-79.4857 757.751,-74.1748 756.44,-81.0509"/>
</g>
<!-- Node12 -->
<g id="node12" class="node"><title>Node12</title>
<g id="a_node12"><a xlink:href="bayes_8c.html#aa39a74293929705f5dfd47a76641d12a" target="_top" xlink:title="score">
<polygon fill="none" stroke="black" points="154.5,-411.5 154.5,-430.5 195.5,-430.5 195.5,-411.5 154.5,-411.5"/>
<text text-anchor="middle" x="175" y="-418.5" font-family="Helvetica,sans-Serif" font-size="10.00">score</text>
</a>
</g>
</g>
<!-- Node1&#45;&gt;Node12 -->
<g id="edge15" class="edge"><title>Node1&#45;&gt;Node12</title>
<path fill="none" stroke="midnightblue" d="M81.6044,-421C101.664,-421 125.62,-421 144.111,-421"/>
<polygon fill="midnightblue" stroke="midnightblue" points="144.296,-424.5 154.296,-421 144.296,-417.5 144.296,-424.5"/>
</g>
<!-- Node33 -->
<g id="node33" class="node"><title>Node33</title>
<g id="a_node33"><a xlink:href="list_8c.html#af9a0fb76faf3f2c75d3454dc7f7d9b6a" target="_top" xlink:title="list_iter_reset">
<polygon fill="none" stroke="black" points="776.5,-734.5 776.5,-753.5 851.5,-753.5 851.5,-734.5 776.5,-734.5"/>
<text text-anchor="middle" x="814" y="-741.5" font-family="Helvetica,sans-Serif" font-size="10.00">list_iter_reset</text>
</a>
</g>
</g>
<!-- Node1&#45;&gt;Node33 -->
<g id="edge69" class="edge"><title>Node1&#45;&gt;Node33</title>
<path fill="none" stroke="midnightblue" d="M43.426,-430.863C52.911,-492.306 112.52,-820 305,-820 305,-820 305,-820 450,-820 571.624,-820 711.399,-778.622 776.32,-756.929"/>
<polygon fill="midnightblue" stroke="midnightblue" points="777.732,-760.146 786.082,-753.625 775.488,-753.515 777.732,-760.146"/>
</g>
<!-- Node34 -->
<g id="node34" class="node"><title>Node34</title>
<g id="a_node34"><a xlink:href="list_8c.html#af8d7b94e84661c7b1da55a7c87619911" target="_top" xlink:title="list_iter_hasNext">
<polygon fill="none" stroke="black" points="769,-198.5 769,-217.5 859,-217.5 859,-198.5 769,-198.5"/>
<text text-anchor="middle" x="814" y="-205.5" font-family="Helvetica,sans-Serif" font-size="10.00">list_iter_hasNext</text>
</a>
</g>
</g>
<!-- Node1&#45;&gt;Node34 -->
<g id="edge70" class="edge"><title>Node1&#45;&gt;Node34</title>
<path fill="none" stroke="midnightblue" d="M46.2949,-411.317C67.2773,-365.651 163.749,-174 305,-174 305,-174 305,-174 450,-174 560.102,-174 688.172,-189.697 758.961,-199.76"/>
<polygon fill="midnightblue" stroke="midnightblue" points="758.584,-203.242 768.981,-201.201 759.581,-196.313 758.584,-203.242"/>
</g>
<!-- Node35 -->
<g id="node35" class="node"><title>Node35</title>
<g id="a_node35"><a xlink:href="list_8c.html#a3dce8c731efc2b63a61958b2503f4c5d" target="_top" xlink:title="list_iter_next">
<polygon fill="none" stroke="black" points="778,-160.5 778,-179.5 850,-179.5 850,-160.5 778,-160.5"/>
<text text-anchor="middle" x="814" y="-167.5" font-family="Helvetica,sans-Serif" font-size="10.00">list_iter_next</text>
</a>
</g>
</g>
<!-- Node1&#45;&gt;Node35 -->
<g id="edge71" class="edge"><title>Node1&#45;&gt;Node35</title>
<path fill="none" stroke="midnightblue" d="M42.2134,-411.084C43.5219,-375.835 52.784,-255.322 118,-192 180.244,-131.564 218.242,-136 305,-136 305,-136 305,-136 450,-136 564.843,-136 699.236,-153.078 767.782,-163.027"/>
<polygon fill="midnightblue" stroke="midnightblue" points="767.403,-166.509 777.806,-164.5 768.421,-159.583 767.403,-166.509"/>
</g>
<!-- Node6 -->
<g id="node6" class="node"><title>Node6</title>
<g id="a_node6"><a xlink:href="avltree_8c.html#aef0786e63ba14dfdb6d8632333208422" target="_top" xlink:title="start">
<polygon fill="none" stroke="black" points="288,-0.5 288,-19.5 324,-19.5 324,-0.5 288,-0.5"/>
<text text-anchor="middle" x="306" y="-7.5" font-family="Helvetica,sans-Serif" font-size="10.00">start</text>
</a>
</g>
</g>
<!-- Node5&#45;&gt;Node6 -->
<g id="edge5" class="edge"><title>Node5&#45;&gt;Node6</title>
<path fill="none" stroke="midnightblue" d="M215.054,-10C235.292,-10 259.51,-10 277.715,-10"/>
<polygon fill="midnightblue" stroke="midnightblue" points="277.924,-13.5001 287.924,-10 277.924,-6.5001 277.924,-13.5001"/>
</g>
<!-- Node8 -->
<g id="node8" class="node"><title>Node8</title>
<g id="a_node8"><a xlink:href="adtree_8c.html#a378e9c0c9fae060a6a0d9ccdef934643" target="_top" xlink:title="adtree_getCount">
<polygon fill="none" stroke="black" points="952.5,-79.5 952.5,-98.5 1041.5,-98.5 1041.5,-79.5 952.5,-79.5"/>
<text text-anchor="middle" x="997" y="-86.5" font-family="Helvetica,sans-Serif" font-size="10.00">adtree_getCount</text>
</a>
</g>
</g>
<!-- Node7&#45;&gt;Node8 -->
<g id="edge7" class="edge"><title>Node7&#45;&gt;Node8</title>
<path fill="none" stroke="midnightblue" d="M900.2,-89C914.381,-89 928.735,-89 941.865,-89"/>
<polygon fill="midnightblue" stroke="midnightblue" points="942.106,-92.5001 952.106,-89 942.106,-85.5001 942.106,-92.5001"/>
</g>
<!-- Node9 -->
<g id="node9" class="node"><title>Node9</title>
<g id="a_node9"><a xlink:href="vector_8c.html#a158656a347e208114bcd945b91cfd87a" target="_top" xlink:title="vector_getSize">
<polygon fill="none" stroke="black" points="1199,-60.5 1199,-79.5 1281,-79.5 1281,-60.5 1199,-60.5"/>
<text text-anchor="middle" x="1240" y="-67.5" font-family="Helvetica,sans-Serif" font-size="10.00">vector_getSize</text>
</a>
</g>
</g>
<!-- Node8&#45;&gt;Node9 -->
<g id="edge8" class="edge"><title>Node8&#45;&gt;Node9</title>
<path fill="none" stroke="midnightblue" d="M1036.98,-79.4898C1054.32,-75.7248 1075.06,-71.8561 1094,-70 1125.32,-66.93 1160.64,-66.8587 1188.57,-67.5893"/>
<polygon fill="midnightblue" stroke="midnightblue" points="1188.79,-71.0975 1198.89,-67.904 1189,-64.1008 1188.79,-71.0975"/>
</g>
<!-- Node10 -->
<g id="node10" class="node"><title>Node10</title>
<g id="a_node10"><a xlink:href="vector_8c.html#a043c4e94efce1c5a44095eb9388ba5e7" target="_top" xlink:title="vector_at">
<polygon fill="none" stroke="black" points="1211.5,-184.5 1211.5,-203.5 1268.5,-203.5 1268.5,-184.5 1211.5,-184.5"/>
<text text-anchor="middle" x="1240" y="-191.5" font-family="Helvetica,sans-Serif" font-size="10.00">vector_at</text>
</a>
</g>
</g>
<!-- Node8&#45;&gt;Node10 -->
<g id="edge9" class="edge"><title>Node8&#45;&gt;Node10</title>
<path fill="none" stroke="midnightblue" d="M1025.59,-98.5642C1057.8,-109.991 1112.48,-130.188 1158,-151 1176.83,-159.608 1197.42,-170.563 1213.13,-179.262"/>
<polygon fill="midnightblue" stroke="midnightblue" points="1211.79,-182.52 1222.23,-184.345 1215.21,-176.41 1211.79,-182.52"/>
</g>
<!-- Node11 -->
<g id="node11" class="node"><title>Node11</title>
<g id="a_node11"><a xlink:href="adtree_8c.html#a8d3ad641fa20a5b10eeb67ba1c0cd7a7" target="_top" xlink:title="getCount">
<polygon fill="none" stroke="black" points="1098,-79.5 1098,-98.5 1154,-98.5 1154,-79.5 1098,-79.5"/>
<text text-anchor="middle" x="1126" y="-86.5" font-family="Helvetica,sans-Serif" font-size="10.00">getCount</text>
</a>
</g>
</g>
<!-- Node8&#45;&gt;Node11 -->
<g id="edge10" class="edge"><title>Node8&#45;&gt;Node11</title>
<path fill="none" stroke="midnightblue" d="M1041.71,-82.5503C1056.72,-82.0806 1073.37,-82.1619 1087.81,-82.794"/>
<polygon fill="midnightblue" stroke="midnightblue" points="1087.71,-86.2934 1097.89,-83.3517 1088.1,-79.3041 1087.71,-86.2934"/>
</g>
<!-- Node11&#45;&gt;Node4 -->
<g id="edge13" class="edge"><title>Node11&#45;&gt;Node4</title>
<path fill="none" stroke="midnightblue" d="M1129.55,-98.7208C1143.86,-153.273 1214.23,-421.572 1233.89,-496.521"/>
<polygon fill="midnightblue" stroke="midnightblue" points="1230.58,-497.695 1236.5,-506.48 1237.35,-495.919 1230.58,-497.695"/>
</g>
<!-- Node11&#45;&gt;Node8 -->
<g id="edge14" class="edge"><title>Node11&#45;&gt;Node8</title>
<path fill="none" stroke="midnightblue" d="M1097.89,-94.6483C1084.48,-95.5654 1067.82,-95.9099 1051.97,-95.6819"/>
<polygon fill="midnightblue" stroke="midnightblue" points="1051.78,-92.177 1041.71,-95.4497 1051.62,-99.1752 1051.78,-92.177"/>
</g>
<!-- Node11&#45;&gt;Node9 -->
<g id="edge12" class="edge"><title>Node11&#45;&gt;Node9</title>
<path fill="none" stroke="midnightblue" d="M1154.11,-84.4006C1164.53,-82.6331 1176.79,-80.5539 1188.7,-78.5336"/>
<polygon fill="midnightblue" stroke="midnightblue" points="1189.3,-81.9819 1198.57,-76.8586 1188.13,-75.0805 1189.3,-81.9819"/>
</g>
<!-- Node11&#45;&gt;Node10 -->
<g id="edge11" class="edge"><title>Node11&#45;&gt;Node10</title>
<path fill="none" stroke="midnightblue" d="M1140.27,-98.6858C1145.87,-102.924 1152.38,-108.051 1158,-113 1181.6,-133.785 1206.95,-159.797 1222.88,-176.648"/>
<polygon fill="midnightblue" stroke="midnightblue" points="1220.5,-179.227 1229.9,-184.122 1225.61,-174.436 1220.5,-179.227"/>
</g>
<!-- Node13 -->
<g id="node13" class="node"><title>Node13</title>
<g id="a_node13"><a xlink:href="data_8c.html#acd7642ce517c922061d6015294de8bc1" target="_top" xlink:title="data_alloc">
<polygon fill="none" stroke="black" points="275.5,-392.5 275.5,-411.5 336.5,-411.5 336.5,-392.5 275.5,-392.5"/>
<text text-anchor="middle" x="306" y="-399.5" font-family="Helvetica,sans-Serif" font-size="10.00">data_alloc</text>
</a>
</g>
</g>
<!-- Node12&#45;&gt;Node13 -->
<g id="edge16" class="edge"><title>Node12&#45;&gt;Node13</title>
<path fill="none" stroke="midnightblue" d="M195.592,-418.114C213.929,-415.414 241.879,-411.297 264.938,-407.901"/>
<polygon fill="midnightblue" stroke="midnightblue" points="265.753,-411.318 275.136,-406.399 264.733,-404.393 265.753,-411.318"/>
</g>
<!-- Node14 -->
<g id="node14" class="node"><title>Node14</title>
<g id="a_node14"><a xlink:href="learner_8c.html#aea1955f8471f02d66c6a39136d621f5b" target="_top" xlink:title="learner_alloc">
<polygon fill="none" stroke="black" points="270.5,-430.5 270.5,-449.5 341.5,-449.5 341.5,-430.5 270.5,-430.5"/>
<text text-anchor="middle" x="306" y="-437.5" font-family="Helvetica,sans-Serif" font-size="10.00">learner_alloc</text>
</a>
</g>
</g>
<!-- Node12&#45;&gt;Node14 -->
<g id="edge17" class="edge"><title>Node12&#45;&gt;Node14</title>
<path fill="none" stroke="midnightblue" d="M195.592,-423.886C212.69,-426.404 238.146,-430.153 260.202,-433.402"/>
<polygon fill="midnightblue" stroke="midnightblue" points="259.975,-436.906 270.379,-434.901 260.995,-429.981 259.975,-436.906"/>
</g>
<!-- Node27 -->
<g id="node27" class="node"><title>Node27</title>
<g id="a_node27"><a xlink:href="learner_8c.html#a643517a90c64064dfb94cb9cb8d6eddf" target="_top" xlink:title="learner_score">
<polygon fill="none" stroke="black" points="268.5,-335.5 268.5,-354.5 343.5,-354.5 343.5,-335.5 268.5,-335.5"/>
<text text-anchor="middle" x="306" y="-342.5" font-family="Helvetica,sans-Serif" font-size="10.00">learner_score</text>
</a>
</g>
</g>
<!-- Node12&#45;&gt;Node27 -->
<g id="edge33" class="edge"><title>Node12&#45;&gt;Node27</title>
<path fill="none" stroke="midnightblue" d="M186.122,-411.193C203.999,-397.786 241.938,-374.692 270.174,-359.447"/>
<polygon fill="midnightblue" stroke="midnightblue" points="272.131,-362.372 279.335,-354.603 268.859,-356.184 272.131,-362.372"/>
</g>
<!-- Node45 -->
<g id="node45" class="node"><title>Node45</title>
<g id="a_node45"><a xlink:href="learner_8c.html#abf2edbd2546d2d60274a331e41eb5147" target="_top" xlink:title="learner_free">
<polygon fill="none" stroke="black" points="272,-677.5 272,-696.5 340,-696.5 340,-677.5 272,-677.5"/>
<text text-anchor="middle" x="306" y="-684.5" font-family="Helvetica,sans-Serif" font-size="10.00">learner_free</text>
</a>
</g>
</g>
<!-- Node12&#45;&gt;Node45 -->
<g id="edge61" class="edge"><title>Node12&#45;&gt;Node45</title>
<path fill="none" stroke="midnightblue" d="M180.744,-430.783C199.75,-469.974 270.582,-616.03 295.917,-668.271"/>
<polygon fill="midnightblue" stroke="midnightblue" points="292.836,-669.939 300.349,-677.409 299.134,-666.884 292.836,-669.939"/>
</g>
<!-- Node47 -->
<g id="node47" class="node"><title>Node47</title>
<g id="a_node47"><a xlink:href="data_8c.html#a86fa8c38d589c7f8a58aa58480bdb0bb" target="_top" xlink:title="data_free">
<polygon fill="none" stroke="black" points="277.5,-468.5 277.5,-487.5 334.5,-487.5 334.5,-468.5 277.5,-468.5"/>
<text text-anchor="middle" x="306" y="-475.5" font-family="Helvetica,sans-Serif" font-size="10.00">data_free</text>
</a>
</g>
</g>
<!-- Node12&#45;&gt;Node47 -->
<g id="edge68" class="edge"><title>Node12&#45;&gt;Node47</title>
<path fill="none" stroke="midnightblue" d="M195.592,-429.657C216.499,-438.895 249.903,-453.655 274.307,-464.438"/>
<polygon fill="midnightblue" stroke="midnightblue" points="272.938,-467.659 283.499,-468.5 275.767,-461.256 272.938,-467.659"/>
</g>
<!-- Node15 -->
<g id="node15" class="node"><title>Node15</title>
<g id="a_node15"><a xlink:href="net_8c.html#a0e1584818d0f7bb3619e74222bc3f918" target="_top" xlink:title="net_alloc">
<polygon fill="none" stroke="black" points="421,-544.5 421,-563.5 477,-563.5 477,-544.5 421,-544.5"/>
<text text-anchor="middle" x="449" y="-551.5" font-family="Helvetica,sans-Serif" font-size="10.00">net_alloc</text>
</a>
</g>
</g>
<!-- Node14&#45;&gt;Node15 -->
<g id="edge18" class="edge"><title>Node14&#45;&gt;Node15</title>
<path fill="none" stroke="midnightblue" d="M327.918,-449.518C333.323,-452.303 339.019,-455.539 344,-459 378.216,-482.777 412.955,-516.986 432.364,-537.208"/>
<polygon fill="midnightblue" stroke="midnightblue" points="429.826,-539.617 439.246,-544.465 434.905,-534.801 429.826,-539.617"/>
</g>
<!-- Node18 -->
<g id="node18" class="node"><title>Node18</title>
<g id="a_node18"><a xlink:href="list_8c.html#acff01c26015a0263b94839e622c17d66" target="_top" xlink:title="Plist_alloc">
<polygon fill="none" stroke="black" points="783,-582.5 783,-601.5 845,-601.5 845,-582.5 783,-582.5"/>
<text text-anchor="middle" x="814" y="-589.5" font-family="Helvetica,sans-Serif" font-size="10.00">Plist_alloc</text>
</a>
</g>
</g>
<!-- Node14&#45;&gt;Node18 -->
<g id="edge32" class="edge"><title>Node14&#45;&gt;Node18</title>
<path fill="none" stroke="midnightblue" d="M341.727,-437.394C425.287,-431.795 634.873,-421.945 692,-459 721.683,-478.253 705.074,-503.053 728,-530 744.429,-549.311 768.031,-565.908 786.198,-577.057"/>
<polygon fill="midnightblue" stroke="midnightblue" points="784.752,-580.27 795.135,-582.376 788.332,-574.254 784.752,-580.27"/>
</g>
<!-- Node15&#45;&gt;Node4 -->
<g id="edge31" class="edge"><title>Node15&#45;&gt;Node4</title>
<path fill="none" stroke="midnightblue" d="M477.322,-554C537.805,-554 687.589,-554 813,-554 813,-554 813,-554 998,-554 1066.02,-554 1143.53,-539.049 1191.86,-527.903"/>
<polygon fill="midnightblue" stroke="midnightblue" points="1192.78,-531.282 1201.72,-525.589 1191.18,-524.467 1192.78,-531.282"/>
</g>
<!-- Node15&#45;&gt;Node10 -->
<g id="edge25" class="edge"><title>Node15&#45;&gt;Node10</title>
<path fill="none" stroke="midnightblue" d="M477.15,-552.595C581.888,-546.752 958.749,-521.68 1058,-459 1155.21,-397.61 1213.31,-263.001 1232.19,-213.104"/>
<polygon fill="midnightblue" stroke="midnightblue" points="1235.53,-214.144 1235.71,-203.551 1228.97,-211.723 1235.53,-214.144"/>
</g>
<!-- Node16 -->
<g id="node16" class="node"><title>Node16</title>
<g id="a_node16"><a xlink:href="vector_8c.html#ad0293c3f6bcd3112d0294b4bc6f99647" target="_top" xlink:title="vector_alloc">
<polygon fill="none" stroke="black" points="588.5,-468.5 588.5,-487.5 657.5,-487.5 657.5,-468.5 588.5,-468.5"/>
<text text-anchor="middle" x="623" y="-475.5" font-family="Helvetica,sans-Serif" font-size="10.00">vector_alloc</text>
</a>
</g>
</g>
<!-- Node15&#45;&gt;Node16 -->
<g id="edge19" class="edge"><title>Node15&#45;&gt;Node16</title>
<path fill="none" stroke="midnightblue" d="M467.352,-544.489C487.749,-533.506 522.783,-515.253 554,-502 563.152,-498.115 573.169,-494.331 582.634,-490.959"/>
<polygon fill="midnightblue" stroke="midnightblue" points="583.951,-494.206 592.239,-487.607 581.644,-487.597 583.951,-494.206"/>
</g>
<!-- Node17 -->
<g id="node17" class="node"><title>Node17</title>
<g id="a_node17"><a xlink:href="net_8c.html#a030be629086cd702f3bf5b69aaf97842" target="_top" xlink:title="allocNode">
<polygon fill="none" stroke="black" points="593,-582.5 593,-601.5 653,-601.5 653,-582.5 593,-582.5"/>
<text text-anchor="middle" x="623" y="-589.5" font-family="Helvetica,sans-Serif" font-size="10.00">allocNode</text>
</a>
</g>
</g>
<!-- Node15&#45;&gt;Node17 -->
<g id="edge20" class="edge"><title>Node15&#45;&gt;Node17</title>
<path fill="none" stroke="midnightblue" d="M477.254,-560.021C505.717,-566.31 550.625,-576.231 582.873,-583.356"/>
<polygon fill="midnightblue" stroke="midnightblue" points="582.342,-586.823 592.861,-585.562 583.852,-579.987 582.342,-586.823"/>
</g>
<!-- Node22 -->
<g id="node22" class="node"><title>Node22</title>
<g id="a_node22"><a xlink:href="net_8c.html#a9b09a09bba447345436e63f1ecc582f6" target="_top" xlink:title="freeNode">
<polygon fill="none" stroke="black" points="595,-620.5 595,-639.5 651,-639.5 651,-620.5 595,-620.5"/>
<text text-anchor="middle" x="623" y="-627.5" font-family="Helvetica,sans-Serif" font-size="10.00">freeNode</text>
</a>
</g>
</g>
<!-- Node15&#45;&gt;Node22 -->
<g id="edge26" class="edge"><title>Node15&#45;&gt;Node22</title>
<path fill="none" stroke="midnightblue" d="M464.963,-563.637C484.7,-576.007 520.822,-597.482 554,-611 563.791,-614.989 574.703,-618.447 584.87,-621.279"/>
<polygon fill="midnightblue" stroke="midnightblue" points="584.155,-624.71 594.719,-623.898 585.954,-617.946 584.155,-624.71"/>
</g>
<!-- Node26 -->
<g id="node26" class="node"><title>Node26</title>
<g id="a_node26"><a xlink:href="vector_8c.html#aed7f3fe585748794ca18f6c957733e40" target="_top" xlink:title="vector_free">
<polygon fill="none" stroke="black" points="590.5,-658.5 590.5,-677.5 655.5,-677.5 655.5,-658.5 590.5,-658.5"/>
<text text-anchor="middle" x="623" y="-665.5" font-family="Helvetica,sans-Serif" font-size="10.00">vector_free</text>
</a>
</g>
</g>
<!-- Node15&#45;&gt;Node26 -->
<g id="edge30" class="edge"><title>Node15&#45;&gt;Node26</title>
<path fill="none" stroke="midnightblue" d="M469.625,-563.656C484.056,-571.377 503.585,-583.174 518,-597 538.286,-616.458 531.104,-632.694 554,-649 561.772,-654.535 571.105,-658.461 580.331,-661.244"/>
<polygon fill="midnightblue" stroke="midnightblue" points="579.661,-664.687 590.221,-663.838 581.436,-657.916 579.661,-664.687"/>
</g>
<!-- Node17&#45;&gt;Node18 -->
<g id="edge21" class="edge"><title>Node17&#45;&gt;Node18</title>
<path fill="none" stroke="midnightblue" d="M653.117,-592C685.16,-592 736.875,-592 772.777,-592"/>
<polygon fill="midnightblue" stroke="midnightblue" points="772.912,-595.5 782.912,-592 772.912,-588.5 772.912,-595.5"/>
</g>
<!-- Node19 -->
<g id="node19" class="node"><title>Node19</title>
<g id="a_node19"><a xlink:href="list_8c.html#a4fb22eb8e01180e8150cd15c8257e57a" target="_top" xlink:title="list_free">
<polygon fill="none" stroke="black" points="788.5,-658.5 788.5,-677.5 839.5,-677.5 839.5,-658.5 788.5,-658.5"/>
<text text-anchor="middle" x="814" y="-665.5" font-family="Helvetica,sans-Serif" font-size="10.00">list_free</text>
</a>
</g>
</g>
<!-- Node17&#45;&gt;Node19 -->
<g id="edge22" class="edge"><title>Node17&#45;&gt;Node19</title>
<path fill="none" stroke="midnightblue" d="M653.181,-596.545C665.757,-599.39 680.242,-603.913 692,-611 711.925,-623.01 707.766,-637.518 728,-649 743.211,-657.632 762.029,-662.343 778.088,-664.913"/>
<polygon fill="midnightblue" stroke="midnightblue" points="777.792,-668.405 788.178,-666.313 778.754,-661.472 777.792,-668.405"/>
</g>
<!-- Node20 -->
<g id="node20" class="node"><title>Node20</title>
<g id="a_node20"><a xlink:href="list_8c.html#a475696d1a0aedfdbac6a0c6516fc78da" target="_top" xlink:title="freeList">
<polygon fill="none" stroke="black" points="972.5,-658.5 972.5,-677.5 1021.5,-677.5 1021.5,-658.5 972.5,-658.5"/>
<text text-anchor="middle" x="997" y="-665.5" font-family="Helvetica,sans-Serif" font-size="10.00">freeList</text>
</a>
</g>
</g>
<!-- Node19&#45;&gt;Node20 -->
<g id="edge23" class="edge"><title>Node19&#45;&gt;Node20</title>
<path fill="none" stroke="midnightblue" d="M839.788,-668C871.463,-668 926.439,-668 962.005,-668"/>
<polygon fill="midnightblue" stroke="midnightblue" points="962.373,-671.5 972.373,-668 962.373,-664.5 962.373,-671.5"/>
</g>
<!-- Node21 -->
<g id="node21" class="node"><title>Node21</title>
<g id="a_node21"><a xlink:href="list_8c.html#ac485202058cce61a3db7ad23eea4c658" target="_top" xlink:title="freeNode">
<polygon fill="none" stroke="black" points="1098,-658.5 1098,-677.5 1154,-677.5 1154,-658.5 1098,-658.5"/>
<text text-anchor="middle" x="1126" y="-665.5" font-family="Helvetica,sans-Serif" font-size="10.00">freeNode</text>
</a>
</g>
</g>
<!-- Node20&#45;&gt;Node21 -->
<g id="edge24" class="edge"><title>Node20&#45;&gt;Node21</title>
<path fill="none" stroke="midnightblue" d="M1021.59,-668C1040.08,-668 1066.17,-668 1087.52,-668"/>
<polygon fill="midnightblue" stroke="midnightblue" points="1087.56,-671.5 1097.56,-668 1087.56,-664.5 1087.56,-671.5"/>
</g>
<!-- Node23 -->
<g id="node23" class="node"><title>Node23</title>
<g id="a_node23"><a xlink:href="list_8c.html#aeeb44928a75497916888d4f858d43e14" target="_top" xlink:title="Plist_free">
<polygon fill="none" stroke="black" points="785,-620.5 785,-639.5 843,-639.5 843,-620.5 785,-620.5"/>
<text text-anchor="middle" x="814" y="-627.5" font-family="Helvetica,sans-Serif" font-size="10.00">Plist_free</text>
</a>
</g>
</g>
<!-- Node22&#45;&gt;Node23 -->
<g id="edge27" class="edge"><title>Node22&#45;&gt;Node23</title>
<path fill="none" stroke="midnightblue" d="M651.079,-630C683.408,-630 737.704,-630 774.417,-630"/>
<polygon fill="midnightblue" stroke="midnightblue" points="774.737,-633.5 784.737,-630 774.737,-626.5 774.737,-633.5"/>
</g>
<!-- Node24 -->
<g id="node24" class="node"><title>Node24</title>
<g id="a_node24"><a xlink:href="list_8c.html#a6b1a80c1e3dd7162630ac048d37c4c2c" target="_top" xlink:title="PfreeList">
<polygon fill="none" stroke="black" points="969,-620.5 969,-639.5 1025,-639.5 1025,-620.5 969,-620.5"/>
<text text-anchor="middle" x="997" y="-627.5" font-family="Helvetica,sans-Serif" font-size="10.00">PfreeList</text>
</a>
</g>
</g>
<!-- Node23&#45;&gt;Node24 -->
<g id="edge28" class="edge"><title>Node23&#45;&gt;Node24</title>
<path fill="none" stroke="midnightblue" d="M843.281,-630C874.367,-630 924.437,-630 958.713,-630"/>
<polygon fill="midnightblue" stroke="midnightblue" points="958.805,-633.5 968.805,-630 958.805,-626.5 958.805,-633.5"/>
</g>
<!-- Node25 -->
<g id="node25" class="node"><title>Node25</title>
<g id="a_node25"><a xlink:href="list_8c.html#aa0d20e134da87470791d0621d655d31e" target="_top" xlink:title="PfreeNode">
<polygon fill="none" stroke="black" points="1094.5,-620.5 1094.5,-639.5 1157.5,-639.5 1157.5,-620.5 1094.5,-620.5"/>
<text text-anchor="middle" x="1126" y="-627.5" font-family="Helvetica,sans-Serif" font-size="10.00">PfreeNode</text>
</a>
</g>
</g>
<!-- Node24&#45;&gt;Node25 -->
<g id="edge29" class="edge"><title>Node24&#45;&gt;Node25</title>
<path fill="none" stroke="midnightblue" d="M1025.24,-630C1042.42,-630 1064.92,-630 1084.2,-630"/>
<polygon fill="midnightblue" stroke="midnightblue" points="1084.23,-633.5 1094.23,-630 1084.23,-626.5 1084.23,-633.5"/>
</g>
<!-- Node27&#45;&gt;Node12 -->
<g id="edge60" class="edge"><title>Node27&#45;&gt;Node12</title>
<path fill="none" stroke="midnightblue" d="M294.995,-354.718C275.852,-369.101 233.399,-394.746 204.732,-409.799"/>
<polygon fill="midnightblue" stroke="midnightblue" points="202.906,-406.801 195.592,-414.467 206.09,-413.036 202.906,-406.801"/>
</g>
<!-- Node27&#45;&gt;Node16 -->
<g id="edge34" class="edge"><title>Node27&#45;&gt;Node16</title>
<path fill="none" stroke="midnightblue" d="M329.654,-354.565C384.689,-377.802 525.59,-437.293 589.549,-464.298"/>
<polygon fill="midnightblue" stroke="midnightblue" points="588.554,-467.678 599.128,-468.343 591.277,-461.229 588.554,-467.678"/>
</g>
<!-- Node27&#45;&gt;Node26 -->
<g id="edge59" class="edge"><title>Node27&#45;&gt;Node26</title>
<path fill="none" stroke="midnightblue" d="M319.599,-354.593C327.842,-361.565 338.136,-371.727 344,-383 383.663,-459.248 326.418,-505.8 380,-573 429.433,-634.997 524.985,-656.642 580.078,-664.122"/>
<polygon fill="midnightblue" stroke="midnightblue" points="579.844,-667.62 590.203,-665.398 580.72,-660.675 579.844,-667.62"/>
</g>
<!-- Node28 -->
<g id="node28" class="node"><title>Node28</title>
<g id="a_node28"><a xlink:href="net_8c.html#ad32183bff5aacc2cb805dbf1fc492024" target="_top" xlink:title="net_getParentIdListPtr">
<polygon fill="none" stroke="black" points="757,-236.5 757,-255.5 871,-255.5 871,-236.5 757,-236.5"/>
<text text-anchor="middle" x="814" y="-243.5" font-family="Helvetica,sans-Serif" font-size="10.00">net_getParentIdListPtr</text>
</a>
</g>
</g>
<!-- Node27&#45;&gt;Node28 -->
<g id="edge35" class="edge"><title>Node27&#45;&gt;Node28</title>
<path fill="none" stroke="midnightblue" d="M321.785,-335.358C358.923,-311.788 459.896,-251.669 554,-231 624.112,-215.601 707.31,-225.189 760.125,-234.621"/>
<polygon fill="midnightblue" stroke="midnightblue" points="759.801,-238.12 770.271,-236.498 761.074,-231.237 759.801,-238.12"/>
</g>
<!-- Node29 -->
<g id="node29" class="node"><title>Node29</title>
<g id="a_node29"><a xlink:href="list_8c.html#aa154e6bc9945a0491e0516756a7fb20c" target="_top" xlink:title="list_getSize">
<polygon fill="none" stroke="black" points="415,-202.5 415,-221.5 483,-221.5 483,-202.5 415,-202.5"/>
<text text-anchor="middle" x="449" y="-209.5" font-family="Helvetica,sans-Serif" font-size="10.00">list_getSize</text>
</a>
</g>
</g>
<!-- Node27&#45;&gt;Node29 -->
<g id="edge37" class="edge"><title>Node27&#45;&gt;Node29</title>
<path fill="none" stroke="midnightblue" d="M310.92,-335.328C319.944,-314.239 344.195,-263.788 380,-236 387.408,-230.25 396.303,-225.811 405.18,-222.407"/>
<polygon fill="midnightblue" stroke="midnightblue" points="406.426,-225.68 414.735,-219.106 404.14,-219.063 406.426,-225.68"/>
</g>
<!-- Node30 -->
<g id="node30" class="node"><title>Node30</title>
<g id="a_node30"><a xlink:href="learner_8c.html#a02c8bbd9e58f6b76caafe97e1265357d" target="_top" xlink:title="populateQueryVectors">
<polygon fill="none" stroke="black" points="392.5,-325.5 392.5,-344.5 505.5,-344.5 505.5,-325.5 392.5,-325.5"/>
<text text-anchor="middle" x="449" y="-332.5" font-family="Helvetica,sans-Serif" font-size="10.00">populateQueryVectors</text>
</a>
</g>
</g>
<!-- Node27&#45;&gt;Node30 -->
<g id="edge38" class="edge"><title>Node27&#45;&gt;Node30</title>
<path fill="none" stroke="midnightblue" d="M343.678,-342.399C355.512,-341.559 369.013,-340.602 382.286,-339.661"/>
<polygon fill="midnightblue" stroke="midnightblue" points="382.633,-343.145 392.36,-338.946 382.137,-336.162 382.633,-343.145"/>
</g>
<!-- Node43 -->
<g id="node43" class="node"><title>Node43</title>
<g id="a_node43"><a xlink:href="learner_8c.html#ad3241a2f5d00bb81f7db714702ea3d46" target="_top" xlink:title="computeLocalLogLikelihood">
<polygon fill="none" stroke="black" points="380.5,-82.5 380.5,-101.5 517.5,-101.5 517.5,-82.5 380.5,-82.5"/>
<text text-anchor="middle" x="449" y="-89.5" font-family="Helvetica,sans-Serif" font-size="10.00">computeLocalLogLikelihood</text>
</a>
</g>
</g>
<!-- Node27&#45;&gt;Node43 -->
<g id="edge54" class="edge"><title>Node27&#45;&gt;Node43</title>
<path fill="none" stroke="midnightblue" d="M311.138,-335.148C321.586,-310.574 350.319,-244.822 380,-193 397.31,-162.777 420.507,-129.62 434.842,-109.825"/>
<polygon fill="midnightblue" stroke="midnightblue" points="437.683,-111.869 440.752,-101.729 432.029,-107.742 437.683,-111.869"/>
</g>
<!-- Node28&#45;&gt;Node10 -->
<g id="edge36" class="edge"><title>Node28&#45;&gt;Node10</title>
<path fill="none" stroke="midnightblue" d="M871.304,-239.095C959.012,-228.338 1125.96,-207.864 1200.91,-198.672"/>
<polygon fill="midnightblue" stroke="midnightblue" points="1201.78,-202.091 1211.28,-197.4 1200.93,-195.143 1201.78,-202.091"/>
</g>
<!-- Node30&#45;&gt;Node4 -->
<g id="edge51" class="edge"><title>Node30&#45;&gt;Node4</title>
<path fill="none" stroke="midnightblue" d="M467.518,-344.647C487.784,-355.433 522.418,-372.73 554,-383 781.576,-457.004 1065.8,-495.991 1183.75,-509.938"/>
<polygon fill="midnightblue" stroke="midnightblue" points="1183.63,-513.448 1193.97,-511.132 1184.44,-506.495 1183.63,-513.448"/>
</g>
<!-- Node31 -->
<g id="node31" class="node"><title>Node31</title>
<g id="a_node31"><a xlink:href="learner_8c.html#a923c66a4bc105d43d93146cddc7795cf" target="_top" xlink:title="populateParentQueryVector">
<polygon fill="none" stroke="black" points="554.5,-316.5 554.5,-335.5 691.5,-335.5 691.5,-316.5 554.5,-316.5"/>
<text text-anchor="middle" x="623" y="-323.5" font-family="Helvetica,sans-Serif" font-size="10.00">populateParentQueryVector</text>
</a>
</g>
</g>
<!-- Node30&#45;&gt;Node31 -->
<g id="edge39" class="edge"><title>Node30&#45;&gt;Node31</title>
<path fill="none" stroke="midnightblue" d="M505.843,-332.078C518.073,-331.438 531.234,-330.749 544.147,-330.074"/>
<polygon fill="midnightblue" stroke="midnightblue" points="544.625,-333.554 554.428,-329.536 544.259,-326.563 544.625,-333.554"/>
</g>
<!-- Node36 -->
<g id="node36" class="node"><title>Node36</title>
<g id="a_node36"><a xlink:href="vector_8c.html#ac600a587704d6277a6117628ec5f9fe5" target="_top" xlink:title="vector_copy">
<polygon fill="none" stroke="black" points="588,-354.5 588,-373.5 658,-373.5 658,-354.5 588,-354.5"/>
<text text-anchor="middle" x="623" y="-361.5" font-family="Helvetica,sans-Serif" font-size="10.00">vector_copy</text>
</a>
</g>
</g>
<!-- Node30&#45;&gt;Node36 -->
<g id="edge46" class="edge"><title>Node30&#45;&gt;Node36</title>
<path fill="none" stroke="midnightblue" d="M505.843,-344.415C529.215,-348.356 555.99,-352.87 577.938,-356.571"/>
<polygon fill="midnightblue" stroke="midnightblue" points="577.527,-360.051 587.97,-358.262 578.691,-353.148 577.527,-360.051"/>
</g>
<!-- Node41 -->
<g id="node41" class="node"><title>Node41</title>
<g id="a_node41"><a xlink:href="vector_8c.html#a058c0986d7b6ec20a2e67e9ae7612744" target="_top" xlink:title="vector_sort">
<polygon fill="none" stroke="black" points="590.5,-240.5 590.5,-259.5 655.5,-259.5 655.5,-240.5 590.5,-240.5"/>
<text text-anchor="middle" x="623" y="-247.5" font-family="Helvetica,sans-Serif" font-size="10.00">vector_sort</text>
</a>
</g>
</g>
<!-- Node30&#45;&gt;Node41 -->
<g id="edge52" class="edge"><title>Node30&#45;&gt;Node41</title>
<path fill="none" stroke="midnightblue" d="M462.444,-325.379C481.293,-311.219 518.642,-284.746 554,-269 562.298,-265.304 571.491,-262.156 580.364,-259.548"/>
<polygon fill="midnightblue" stroke="midnightblue" points="581.477,-262.872 590.183,-256.833 579.611,-256.125 581.477,-262.872"/>
</g>
<!-- Node42 -->
<g id="node42" class="node"><title>Node42</title>
<g id="a_node42"><a xlink:href="learner_8c.html#a05d316b71b33410bb2a7493a79b7a243" target="_top" xlink:title="compareQuery">
<polygon fill="none" stroke="black" points="583,-278.5 583,-297.5 663,-297.5 663,-278.5 583,-278.5"/>
<text text-anchor="middle" x="623" y="-285.5" font-family="Helvetica,sans-Serif" font-size="10.00">compareQuery</text>
</a>
</g>
</g>
<!-- Node30&#45;&gt;Node42 -->
<g id="edge53" class="edge"><title>Node30&#45;&gt;Node42</title>
<path fill="none" stroke="midnightblue" d="M484.807,-325.489C511.413,-318.219 548.297,-308.14 577.121,-300.263"/>
<polygon fill="midnightblue" stroke="midnightblue" points="578.226,-303.59 586.95,-297.578 576.381,-296.837 578.226,-303.59"/>
</g>
<!-- Node31&#45;&gt;Node4 -->
<g id="edge45" class="edge"><title>Node31&#45;&gt;Node4</title>
<path fill="none" stroke="midnightblue" d="M691.692,-320.945C796.862,-314.117 994.066,-305.704 1058,-333 1139.46,-367.776 1203.28,-458.399 1227.94,-497.546"/>
<polygon fill="midnightblue" stroke="midnightblue" points="1225.13,-499.651 1233.36,-506.325 1231.09,-495.976 1225.13,-499.651"/>
</g>
<!-- Node31&#45;&gt;Node28 -->
<g id="edge41" class="edge"><title>Node31&#45;&gt;Node28</title>
<path fill="none" stroke="midnightblue" d="M671.994,-316.467C679.001,-313.99 685.901,-310.886 692,-307 712.734,-293.788 706.926,-277.662 728,-265 733.835,-261.494 740.246,-258.634 746.85,-256.3"/>
<polygon fill="midnightblue" stroke="midnightblue" points="748.12,-259.57 756.619,-253.245 746.03,-252.89 748.12,-259.57"/>
</g>
<!-- Node32 -->
<g id="node32" class="node"><title>Node32</title>
<g id="a_node32"><a xlink:href="vector_8c.html#ac38a38534f4bbf4a29e4cdebede8cd9d" target="_top" xlink:title="vector_clear">
<polygon fill="none" stroke="black" points="779,-274.5 779,-293.5 849,-293.5 849,-274.5 779,-274.5"/>
<text text-anchor="middle" x="814" y="-281.5" font-family="Helvetica,sans-Serif" font-size="10.00">vector_clear</text>
</a>
</g>
</g>
<!-- Node31&#45;&gt;Node32 -->
<g id="edge40" class="edge"><title>Node31&#45;&gt;Node32</title>
<path fill="none" stroke="midnightblue" d="M666.887,-316.47C697.319,-309.707 738.051,-300.655 768.778,-293.827"/>
<polygon fill="midnightblue" stroke="midnightblue" points="769.783,-297.189 778.786,-291.603 768.264,-290.356 769.783,-297.189"/>
</g>
<!-- Node31&#45;&gt;Node33 -->
<g id="edge42" class="edge"><title>Node31&#45;&gt;Node33</title>
<path fill="none" stroke="midnightblue" d="M680.462,-335.571C684.807,-338.065 688.756,-341.161 692,-345 741.325,-403.37 688.547,-621.552 728,-687 739.639,-706.308 760.621,-720.478 778.826,-729.861"/>
<polygon fill="midnightblue" stroke="midnightblue" points="777.504,-733.111 788.028,-734.334 780.564,-726.815 777.504,-733.111"/>
</g>
<!-- Node31&#45;&gt;Node34 -->
<g id="edge43" class="edge"><title>Node31&#45;&gt;Node34</title>
<path fill="none" stroke="midnightblue" d="M676.889,-316.351C682.36,-313.902 687.539,-310.836 692,-307 721.563,-281.579 697.779,-251.635 728,-227 736.884,-219.758 747.958,-215.139 759.147,-212.225"/>
<polygon fill="midnightblue" stroke="midnightblue" points="759.937,-215.635 768.958,-210.079 758.441,-208.796 759.937,-215.635"/>
</g>
<!-- Node31&#45;&gt;Node35 -->
<g id="edge44" class="edge"><title>Node31&#45;&gt;Node35</title>
<path fill="none" stroke="midnightblue" d="M678.393,-316.409C683.394,-313.94 688.054,-310.854 692,-307 731.227,-268.69 687.78,-226.266 728,-189 738.71,-179.076 753.435,-173.935 767.621,-171.382"/>
<polygon fill="midnightblue" stroke="midnightblue" points="768.377,-174.81 777.79,-169.948 767.399,-167.878 768.377,-174.81"/>
</g>
<!-- Node37 -->
<g id="node37" class="node"><title>Node37</title>
<g id="a_node37"><a xlink:href="namespaceanonymous__namespace_02libitm-5_813_0014_8cpp_03.html#a8b7be7cf3afef27c0623b844ce9116d8" target="_top" xlink:title="anonymous_namespace\l\{libitm&#45;5::13,14::cpp\}\l::memcpy">
<polygon fill="none" stroke="black" points="753,-360.5 753,-401.5 875,-401.5 875,-360.5 753,-360.5"/>
<text text-anchor="start" x="761" y="-389.5" font-family="Helvetica,sans-Serif" font-size="10.00">anonymous_namespace</text>
<text text-anchor="start" x="761" y="-378.5" font-family="Helvetica,sans-Serif" font-size="10.00">{libitm&#45;5::13,14::cpp}</text>
<text text-anchor="middle" x="814" y="-367.5" font-family="Helvetica,sans-Serif" font-size="10.00">::memcpy</text>
</a>
</g>
</g>
<!-- Node36&#45;&gt;Node37 -->
<g id="edge47" class="edge"><title>Node36&#45;&gt;Node37</title>
<path fill="none" stroke="midnightblue" d="M658.226,-367.079C681.73,-369.193 713.771,-372.075 742.605,-374.668"/>
<polygon fill="midnightblue" stroke="midnightblue" points="742.377,-378.162 752.65,-375.572 743.004,-371.19 742.377,-378.162"/>
</g>
<!-- Node38 -->
<g id="node38" class="node"><title>Node38</title>
<g id="a_node38"><a xlink:href="namespaceanonymous__namespace_02oreceager_8cpp_03.html#a7a88c7a7453bbfaca53eeac03b80a5d6" target="_top" xlink:title="anonymous_namespace\l\{oreceager::cpp\}::read">
<polygon fill="none" stroke="black" points="936,-381 936,-411 1058,-411 1058,-381 936,-381"/>
<text text-anchor="start" x="944" y="-399" font-family="Helvetica,sans-Serif" font-size="10.00">anonymous_namespace</text>
<text text-anchor="middle" x="997" y="-388" font-family="Helvetica,sans-Serif" font-size="10.00">{oreceager::cpp}::read</text>
</a>
</g>
</g>
<!-- Node37&#45;&gt;Node38 -->
<g id="edge48" class="edge"><title>Node37&#45;&gt;Node38</title>
<path fill="none" stroke="midnightblue" d="M875.019,-385.974C891.21,-387.316 908.876,-388.78 925.58,-390.164"/>
<polygon fill="midnightblue" stroke="midnightblue" points="925.58,-393.676 935.835,-391.014 926.158,-386.7 925.58,-393.676"/>
</g>
<!-- Node39 -->
<g id="node39" class="node"><title>Node39</title>
<g id="a_node39"><a xlink:href="namespaceitm2stm.html#a334b9615cac957b9ce7a4743beaaaf53" target="_top" xlink:title="itm2stm::add_bytes">
<polygon fill="none" stroke="black" points="945.5,-342.5 945.5,-361.5 1048.5,-361.5 1048.5,-342.5 945.5,-342.5"/>
<text text-anchor="middle" x="997" y="-349.5" font-family="Helvetica,sans-Serif" font-size="10.00">itm2stm::add_bytes</text>
</a>
</g>
</g>
<!-- Node37&#45;&gt;Node39 -->
<g id="edge49" class="edge"><title>Node37&#45;&gt;Node39</title>
<path fill="none" stroke="midnightblue" d="M875.019,-371.384C894.385,-368.281 915.86,-364.84 935.277,-361.729"/>
<polygon fill="midnightblue" stroke="midnightblue" points="935.9,-365.174 945.221,-360.136 934.793,-358.262 935.9,-365.174"/>
</g>
<!-- Node40 -->
<g id="node40" class="node"><title>Node40</title>
<g id="a_node40"><a xlink:href="namespaceitm2stm.html#aa9908b113027ae21130750939980ee0b" target="_top" xlink:title="itm2stm::offset_of">
<polygon fill="none" stroke="black" points="949,-430.5 949,-449.5 1045,-449.5 1045,-430.5 949,-430.5"/>
<text text-anchor="middle" x="997" y="-437.5" font-family="Helvetica,sans-Serif" font-size="10.00">itm2stm::offset_of</text>
</a>
</g>
</g>
<!-- Node37&#45;&gt;Node40 -->
<g id="edge50" class="edge"><title>Node37&#45;&gt;Node40</title>
<path fill="none" stroke="midnightblue" d="M875.019,-400.564C902.032,-409.369 933.146,-419.512 957.057,-427.306"/>
<polygon fill="midnightblue" stroke="midnightblue" points="956.237,-430.72 966.83,-430.491 958.407,-424.065 956.237,-430.72"/>
</g>
<!-- Node43&#45;&gt;Node9 -->
<g id="edge55" class="edge"><title>Node43&#45;&gt;Node9</title>
<path fill="none" stroke="midnightblue" d="M474.65,-82.4331C532.676,-60.8024 682.813,-10 813,-10 813,-10 813,-10 998,-10 1074.93,-10 1161.68,-39.1411 1207.2,-56.8058"/>
<polygon fill="midnightblue" stroke="midnightblue" points="1205.95,-60.0743 1216.54,-60.4928 1208.52,-53.5638 1205.95,-60.0743"/>
</g>
<!-- Node44 -->
<g id="node44" class="node"><title>Node44</title>
<g id="a_node44"><a xlink:href="learner_8c.html#a280dfaac5218200a65bd222548bd0563" target="_top" xlink:title="computeLocalLogLikelihood\lHelper">
<polygon fill="none" stroke="black" points="554.5,-77 554.5,-107 691.5,-107 691.5,-77 554.5,-77"/>
<text text-anchor="start" x="562.5" y="-95" font-family="Helvetica,sans-Serif" font-size="10.00">computeLocalLogLikelihood</text>
<text text-anchor="middle" x="623" y="-84" font-family="Helvetica,sans-Serif" font-size="10.00">Helper</text>
</a>
</g>
</g>
<!-- Node43&#45;&gt;Node44 -->
<g id="edge56" class="edge"><title>Node43&#45;&gt;Node44</title>
<path fill="none" stroke="midnightblue" d="M517.979,-92C526.55,-92 535.372,-92 544.082,-92"/>
<polygon fill="midnightblue" stroke="midnightblue" points="544.233,-95.5001 554.233,-92 544.233,-88.5001 544.233,-95.5001"/>
</g>
<!-- Node44&#45;&gt;Node7 -->
<g id="edge57" class="edge"><title>Node44&#45;&gt;Node7</title>
<path fill="none" stroke="midnightblue" d="M691.7,-90.9254C700.15,-90.7913 708.912,-90.6522 717.684,-90.513"/>
<polygon fill="midnightblue" stroke="midnightblue" points="718.024,-94.0081 727.967,-90.3497 717.913,-87.009 718.024,-94.0081"/>
</g>
<!-- Node44&#45;&gt;Node10 -->
<g id="edge58" class="edge"><title>Node44&#45;&gt;Node10</title>
<path fill="none" stroke="midnightblue" d="M691.575,-103.208C821.012,-124.675 1100.05,-170.954 1201.31,-187.749"/>
<polygon fill="midnightblue" stroke="midnightblue" points="1200.94,-191.236 1211.38,-189.419 1202.09,-184.33 1200.94,-191.236"/>
</g>
<!-- Node45&#45;&gt;Node19 -->
<g id="edge62" class="edge"><title>Node45&#45;&gt;Node19</title>
<path fill="none" stroke="midnightblue" d="M336.498,-696.504C349.66,-700.268 365.451,-704.138 380,-706 517.799,-723.639 554.29,-705.32 692,-687 721.195,-683.116 754.217,-677.873 778.38,-673.879"/>
<polygon fill="midnightblue" stroke="midnightblue" points="779.195,-677.291 788.484,-672.196 778.045,-670.386 779.195,-677.291"/>
</g>
<!-- Node46 -->
<g id="node46" class="node"><title>Node46</title>
<g id="a_node46"><a xlink:href="net_8c.html#abdc957330d97273b46714332ba2619b0" target="_top" xlink:title="net_free">
<polygon fill="none" stroke="black" points="423,-677.5 423,-696.5 475,-696.5 475,-677.5 423,-677.5"/>
<text text-anchor="middle" x="449" y="-684.5" font-family="Helvetica,sans-Serif" font-size="10.00">net_free</text>
</a>
</g>
</g>
<!-- Node45&#45;&gt;Node46 -->
<g id="edge63" class="edge"><title>Node45&#45;&gt;Node46</title>
<path fill="none" stroke="midnightblue" d="M340.058,-687C361.842,-687 390.343,-687 412.589,-687"/>
<polygon fill="midnightblue" stroke="midnightblue" points="412.636,-690.5 422.636,-687 412.636,-683.5 412.636,-690.5"/>
</g>
<!-- Node46&#45;&gt;Node9 -->
<g id="edge64" class="edge"><title>Node46&#45;&gt;Node9</title>
<path fill="none" stroke="midnightblue" d="M475.061,-689.217C533.964,-694.229 685.839,-706 813,-706 813,-706 813,-706 998,-706 1069.61,-706 1108.59,-738.837 1158,-687 1197.35,-645.718 1180.58,-230.428 1194,-175 1201.66,-143.361 1218,-109.128 1228.74,-88.6346"/>
<polygon fill="midnightblue" stroke="midnightblue" points="1231.86,-90.2172 1233.49,-79.7495 1225.69,-86.9121 1231.86,-90.2172"/>
</g>
<!-- Node46&#45;&gt;Node10 -->
<g id="edge65" class="edge"><title>Node46&#45;&gt;Node10</title>
<path fill="none" stroke="midnightblue" d="M471.176,-696.632C526.273,-720.784 679.131,-782 813,-782 813,-782 813,-782 998,-782 1074.26,-782 1110.23,-779.446 1158,-720 1162.08,-714.918 1221.99,-309.511 1236.06,-213.995"/>
<polygon fill="midnightblue" stroke="midnightblue" points="1239.55,-214.334 1237.54,-203.931 1232.62,-213.315 1239.55,-214.334"/>
</g>
<!-- Node46&#45;&gt;Node22 -->
<g id="edge66" class="edge"><title>Node46&#45;&gt;Node22</title>
<path fill="none" stroke="midnightblue" d="M474.608,-677.394C495.564,-669.362 526.552,-657.834 554,-649 563.976,-645.789 574.874,-642.604 584.965,-639.785"/>
<polygon fill="midnightblue" stroke="midnightblue" points="586.009,-643.128 594.722,-637.101 584.152,-636.378 586.009,-643.128"/>
</g>
<!-- Node46&#45;&gt;Node26 -->
<g id="edge67" class="edge"><title>Node46&#45;&gt;Node26</title>
<path fill="none" stroke="midnightblue" d="M475.01,-684.237C502.502,-681.2 547.125,-676.271 580.004,-672.639"/>
<polygon fill="midnightblue" stroke="midnightblue" points="580.674,-676.086 590.229,-671.51 579.906,-669.129 580.674,-676.086"/>
</g>
</g>
</svg>
