<?xml version="1.0" encoding="UTF-8" standalone="no"?>
<!DOCTYPE svg PUBLIC "-//W3C//DTD SVG 1.1//EN"
 "http://www.w3.org/Graphics/SVG/1.1/DTD/svg11.dtd">
<!-- Generated by graphviz version 2.36.0 (20140111.2315)
 -->
<!-- Title: computeLocalLogLikelihood Pages: 1 -->
<!--zoomable 117 -->
<svg id="main" version="1.1" xmlns="http://www.w3.org/2000/svg" xmlns:xlink="http://www.w3.org/1999/xlink" xml:space="preserve" onload="init(evt)">
<style type="text/css"><![CDATA[
.edge:hover path { stroke: red; }
.edge:hover polygon { stroke: red; fill: red; }
]]></style>
<script type="text/javascript"><![CDATA[
var edges = document.getElementsByTagName('g');
if (edges && edges.length) {
  for (var i=0;i<edges.length;i++) {
    if (edges[i].id.substr(0,4)=='edge') {
      edges[i].setAttribute('class','edge');
    }
  }
}
]]></script>
        <defs>
                <circle id="rim" cx="0" cy="0" r="7"/>
                <circle id="rim2" cx="0" cy="0" r="3.5"/>
                <g id="zoomPlus">
                        <use xlink:href="#rim" fill="#404040">
                                <set attributeName="fill" to="#808080" begin="zoomplus.mouseover" end="zoomplus.mouseout"/>
                        </use>
                        <path d="M-4,0h8M0,-4v8" fill="none" stroke="white" stroke-width="1.5" pointer-events="none"/>
                </g>
                <g id="zoomMin">
                        <use xlink:href="#rim" fill="#404040">
                                <set attributeName="fill" to="#808080" begin="zoomminus.mouseover" end="zoomminus.mouseout"/>
                        </use>
                        <path d="M-4,0h8" fill="none" stroke="white" stroke-width="1.5" pointer-events="none"/>
                </g>
                <g id="dirArrow">
                        <path fill="none" stroke="white" stroke-width="1.5" d="M0,-3.0v7 M-2.5,-0.5L0,-3.0L2.5,-0.5"/>
                </g>
               <g id="resetDef">
                       <use xlink:href="#rim2" fill="#404040">
                               <set attributeName="fill" to="#808080" begin="reset.mouseover" end="reset.mouseout"/>
                       </use>
               </g>
        </defs>

<script type="text/javascript">
var viewWidth = 708;
var viewHeight = 117;
var sectionId = 'dynsection-3';
</script>
<script xlink:href="svgpan.js"/>
<svg id="graph" class="graph">
<g id="viewport">
<title>computeLocalLogLikelihood</title>
<!-- Node1 -->
<g id="node1" class="node"><title>Node1</title>
<polygon fill="#bfbfbf" stroke="black" points="0.5,-51.89 0.5,-70.89 137.5,-70.89 137.5,-51.89 0.5,-51.89"/>
<text text-anchor="middle" x="69" y="-58.89" font-family="Helvetica,sans-Serif" font-size="10.00">computeLocalLogLikelihood</text>
</g>
<!-- Node2 -->
<g id="node2" class="node"><title>Node2</title>
<g id="a_node2"><a xlink:href="learner_8c.html#af4655d41f33380b11243cae071a4ce37" target="_top" xlink:title="TMfindBestInsertTask">
<polygon fill="none" stroke="black" points="174.5,-89.89 174.5,-108.89 287.5,-108.89 287.5,-89.89 174.5,-89.89"/>
<text text-anchor="middle" x="231" y="-96.89" font-family="Helvetica,sans-Serif" font-size="10.00">TMfindBestInsertTask</text>
</a>
</g>
</g>
<!-- Node1&#45;&gt;Node2 -->
<g id="edge1" class="edge"><title>Node1&#45;&gt;Node2</title>
<path fill="none" stroke="midnightblue" d="M120.392,-73.358C142.813,-78.6831 168.847,-84.8662 189.916,-89.87"/>
<polygon fill="midnightblue" stroke="midnightblue" points="120.913,-69.8845 110.375,-70.979 119.295,-76.6951 120.913,-69.8845"/>
</g>
<!-- Node3 -->
<g id="node3" class="node"><title>Node3</title>
<g id="a_node3"><a xlink:href="learner_8c.html#a992842224f9ab3030136c9cadb79bd44" target="_top" xlink:title="learnStructure">
<polygon fill="none" stroke="black" points="324.5,-89.89 324.5,-108.89 401.5,-108.89 401.5,-89.89 324.5,-89.89"/>
<text text-anchor="middle" x="363" y="-96.89" font-family="Helvetica,sans-Serif" font-size="10.00">learnStructure</text>
</a>
</g>
</g>
<!-- Node1&#45;&gt;Node3 -->
<g id="edge5" class="edge"><title>Node1&#45;&gt;Node3</title>
<path fill="none" stroke="midnightblue" d="M147.749,-65.055C189.533,-67.8057 241.814,-72.5032 288,-80.39 301.728,-82.7343 316.644,-86.3519 329.464,-89.8039"/>
<polygon fill="midnightblue" stroke="midnightblue" points="147.838,-61.5538 137.637,-64.4137 147.395,-68.5397 147.838,-61.5538"/>
</g>
<!-- Node6 -->
<g id="node6" class="node"><title>Node6</title>
<g id="a_node6"><a xlink:href="learner_8h.html#a643517a90c64064dfb94cb9cb8d6eddf" target="_top" xlink:title="learner_score">
<polygon fill="none" stroke="black" points="193.5,-13.89 193.5,-32.89 268.5,-32.89 268.5,-13.89 193.5,-13.89"/>
<text text-anchor="middle" x="231" y="-20.89" font-family="Helvetica,sans-Serif" font-size="10.00">learner_score</text>
</a>
</g>
</g>
<!-- Node1&#45;&gt;Node6 -->
<g id="edge6" class="edge"><title>Node1&#45;&gt;Node6</title>
<path fill="none" stroke="midnightblue" d="M120.265,-49.4521C143.992,-43.8169 171.788,-37.2153 193.468,-32.0663"/>
<polygon fill="midnightblue" stroke="midnightblue" points="119.295,-46.0849 110.375,-51.801 120.913,-52.8955 119.295,-46.0849"/>
</g>
<!-- Node2&#45;&gt;Node3 -->
<g id="edge2" class="edge"><title>Node2&#45;&gt;Node3</title>
<path fill="none" stroke="midnightblue" d="M297.767,-99.39C306.878,-99.39 315.97,-99.39 324.325,-99.39"/>
<polygon fill="midnightblue" stroke="midnightblue" points="297.509,-95.8901 287.509,-99.39 297.509,-102.89 297.509,-95.8901"/>
</g>
<!-- Node4 -->
<g id="node4" class="node"><title>Node4</title>
<g id="a_node4"><a xlink:href="learner_8h.html#a23d451d4d355a14fa7c9735304ba4d95" target="_top" xlink:title="learner_run">
<polygon fill="none" stroke="black" points="556.5,-51.89 556.5,-70.89 621.5,-70.89 621.5,-51.89 556.5,-51.89"/>
<text text-anchor="middle" x="589" y="-58.89" font-family="Helvetica,sans-Serif" font-size="10.00">learner_run</text>
</a>
</g>
</g>
<!-- Node3&#45;&gt;Node4 -->
<g id="edge3" class="edge"><title>Node3&#45;&gt;Node4</title>
<path fill="none" stroke="midnightblue" d="M411.872,-95.4502C442.891,-92.4333 484.061,-87.5566 520,-80.39 532.502,-77.897 546.069,-74.2938 557.772,-70.8939"/>
<polygon fill="midnightblue" stroke="midnightblue" points="411.391,-91.9799 401.764,-96.4026 412.048,-98.949 411.391,-91.9799"/>
</g>
<!-- Node5 -->
<g id="node5" class="node"><title>Node5</title>
<g id="a_node5"><a xlink:href="bayes_8c.html#a40c5c0b0d4eb7b59a91108269f69dc89" target="_top" xlink:title="MAIN">
<polygon fill="none" stroke="black" points="658,-13.89 658,-32.89 700,-32.89 700,-13.89 658,-13.89"/>
<text text-anchor="middle" x="679" y="-20.89" font-family="Helvetica,sans-Serif" font-size="10.00">MAIN</text>
</a>
</g>
</g>
<!-- Node4&#45;&gt;Node5 -->
<g id="edge4" class="edge"><title>Node4&#45;&gt;Node5</title>
<path fill="none" stroke="midnightblue" d="M621.55,-47.7661C633.666,-42.5341 647.155,-36.7096 657.908,-32.0663"/>
<polygon fill="midnightblue" stroke="midnightblue" points="619.999,-44.6234 612.206,-51.801 622.774,-51.0498 619.999,-44.6234"/>
</g>
<!-- Node6&#45;&gt;Node5 -->
<g id="edge12" class="edge"><title>Node6&#45;&gt;Node5</title>
<path fill="none" stroke="midnightblue" d="M279.023,-11.7588C293.367,-8.73121 309.247,-5.89752 324,-4.39 450.742,8.56083 603.972,-11.8549 657.987,-20.1448"/>
<polygon fill="midnightblue" stroke="midnightblue" points="277.905,-8.4206 268.887,-13.9814 279.404,-15.2581 277.905,-8.4206"/>
</g>
<!-- Node7 -->
<g id="node7" class="node"><title>Node7</title>
<g id="a_node7"><a xlink:href="bayes_8c.html#aa39a74293929705f5dfd47a76641d12a" target="_top" xlink:title="score">
<polygon fill="none" stroke="black" points="342.5,-13.89 342.5,-32.89 383.5,-32.89 383.5,-13.89 342.5,-13.89"/>
<text text-anchor="middle" x="363" y="-20.89" font-family="Helvetica,sans-Serif" font-size="10.00">score</text>
</a>
</g>
</g>
<!-- Node6&#45;&gt;Node7 -->
<g id="edge7" class="edge"><title>Node6&#45;&gt;Node7</title>
<path fill="none" stroke="midnightblue" d="M278.667,-16.8845C300.513,-16.2872 325.368,-16.7843 342.206,-18.3759"/>
<polygon fill="midnightblue" stroke="midnightblue" points="278.425,-13.3909 268.558,-17.2507 278.678,-20.3863 278.425,-13.3909"/>
</g>
<!-- Node7&#45;&gt;Node5 -->
<g id="edge8" class="edge"><title>Node7&#45;&gt;Node5</title>
<path fill="none" stroke="midnightblue" d="M393.78,-23.39C457.229,-23.39 604.317,-23.39 657.961,-23.39"/>
<polygon fill="midnightblue" stroke="midnightblue" points="393.642,-19.8901 383.642,-23.39 393.642,-26.8901 393.642,-19.8901"/>
</g>
<!-- Node7&#45;&gt;Node6 -->
<g id="edge11" class="edge"><title>Node7&#45;&gt;Node6</title>
<path fill="none" stroke="midnightblue" d="M332.077,-29.1769C313.172,-30.3302 288.615,-30.4477 268.558,-29.5293"/>
<polygon fill="midnightblue" stroke="midnightblue" points="332.501,-32.6548 342.206,-28.4041 331.969,-25.6751 332.501,-32.6548"/>
</g>
<!-- Node8 -->
<g id="node8" class="node"><title>Node8</title>
<g id="a_node8"><a xlink:href="learner_8c.html#a5a45fbc491ab273140631145a6e82e54" target="_top" xlink:title="createTaskList">
<polygon fill="none" stroke="black" points="438.5,-51.89 438.5,-70.89 519.5,-70.89 519.5,-51.89 438.5,-51.89"/>
<text text-anchor="middle" x="479" y="-58.89" font-family="Helvetica,sans-Serif" font-size="10.00">createTaskList</text>
</a>
</g>
</g>
<!-- Node7&#45;&gt;Node8 -->
<g id="edge9" class="edge"><title>Node7&#45;&gt;Node8</title>
<path fill="none" stroke="midnightblue" d="M393.153,-33.1077C410.383,-38.8508 432.112,-46.094 449.267,-51.8125"/>
<polygon fill="midnightblue" stroke="midnightblue" points="394.191,-29.7644 383.597,-29.9224 391.977,-36.4052 394.191,-29.7644"/>
</g>
<!-- Node8&#45;&gt;Node4 -->
<g id="edge10" class="edge"><title>Node8&#45;&gt;Node4</title>
<path fill="none" stroke="midnightblue" d="M529.656,-61.39C538.67,-61.39 547.846,-61.39 556.171,-61.39"/>
<polygon fill="midnightblue" stroke="midnightblue" points="529.602,-57.8901 519.602,-61.39 529.602,-64.8901 529.602,-57.8901"/>
</g>
</g>
</svg>
        <g id="navigator" transform="translate(0 0)" fill="#404254">
                <rect fill="#f2f5e9" fill-opacity="0.5" stroke="#606060" stroke-width=".5" x="0" y="0" width="60" height="60"/>
                <use id="zoomplus" xlink:href="#zoomPlus" x="17" y="9" onmousedown="handleZoom(evt,'in')"/>
                <use id="zoomminus" xlink:href="#zoomMin" x="42" y="9" onmousedown="handleZoom(evt,'out')"/>
                <use id="reset" xlink:href="#resetDef" x="30" y="36" onmousedown="handleReset()"/>
                <g id="arrowUp" xlink:href="#dirArrow" transform="translate(30 24)" onmousedown="handlePan(0,-1)">
                  <use xlink:href="#rim" fill="#404040">
                        <set attributeName="fill" to="#808080" begin="arrowUp.mouseover" end="arrowUp.mouseout"/>
                  </use>
                  <path fill="none" stroke="white" stroke-width="1.5" d="M0,-3.0v7 M-2.5,-0.5L0,-3.0L2.5,-0.5"/>
                </g>
                <g id="arrowRight" xlink:href="#dirArrow" transform="rotate(90) translate(36 -43)" onmousedown="handlePan(1,0)">
                  <use xlink:href="#rim" fill="#404040">
                        <set attributeName="fill" to="#808080" begin="arrowRight.mouseover" end="arrowRight.mouseout"/>
                  </use>
                  <path fill="none" stroke="white" stroke-width="1.5" d="M0,-3.0v7 M-2.5,-0.5L0,-3.0L2.5,-0.5"/>
                </g>
                <g id="arrowDown" xlink:href="#dirArrow" transform="rotate(180) translate(-30 -48)" onmousedown="handlePan(0,1)">
                  <use xlink:href="#rim" fill="#404040">
                        <set attributeName="fill" to="#808080" begin="arrowDown.mouseover" end="arrowDown.mouseout"/>
                  </use>
                  <path fill="none" stroke="white" stroke-width="1.5" d="M0,-3.0v7 M-2.5,-0.5L0,-3.0L2.5,-0.5"/>
                </g>
                <g id="arrowLeft" xlink:href="#dirArrow" transform="rotate(270) translate(-36 17)" onmousedown="handlePan(-1,0)">
                  <use xlink:href="#rim" fill="#404040">
                        <set attributeName="fill" to="#808080" begin="arrowLeft.mouseover" end="arrowLeft.mouseout"/>
                  </use>
                  <path fill="none" stroke="white" stroke-width="1.5" d="M0,-3.0v7 M-2.5,-0.5L0,-3.0L2.5,-0.5"/>
                </g>
        </g>
        <svg viewBox="0 0 15 15" width="100%" height="30px" preserveAspectRatio="xMaxYMin meet">
         <g id="arrow_out" transform="scale(0.3 0.3)">
          <a xlink:href="learner_8c_ad3241a2f5d00bb81f7db714702ea3d46_icgraph_org.svg" target="_base">
           <rect id="button" ry="5" rx="5" y="6" x="6" height="38" width="38"
                fill="#f2f5e9" fill-opacity="0.5" stroke="#606060" stroke-width="1.0"/>
           <path id="arrow"
             d="M 11.500037,31.436501 C 11.940474,20.09759 22.043105,11.32322 32.158766,21.979434 L 37.068811,17.246167 C 37.068811,17.246167 37.088388,32 37.088388,32 L 22.160133,31.978069 C 22.160133,31.978069 26.997745,27.140456 26.997745,27.140456 C 18.528582,18.264221 13.291696,25.230495 11.500037,31.436501 z"
             style="fill:#404040;"/>
          </a>
         </g>
        </svg>
</svg>
