<?xml version="1.0" encoding="UTF-8" standalone="no"?>
<!DOCTYPE svg PUBLIC "-//W3C//DTD SVG 1.1//EN"
 "http://www.w3.org/Graphics/SVG/1.1/DTD/svg11.dtd">
<!-- Generated by graphviz version 2.36.0 (20140111.2315)
 -->
<!-- Title: populateParentQueryVector Pages: 1 -->
<svg width="390pt" height="218pt"
 viewBox="0.00 0.00 390.00 218.00" xmlns="http://www.w3.org/2000/svg" xmlns:xlink="http://www.w3.org/1999/xlink">
<g id="graph0" class="graph" transform="scale(1 1) rotate(0) translate(4 214)">
<title>populateParentQueryVector</title>
<!-- Node1 -->
<g id="node1" class="node"><title>Node1</title>
<polygon fill="#bfbfbf" stroke="black" points="0.5,-95.5 0.5,-114.5 137.5,-114.5 137.5,-95.5 0.5,-95.5"/>
<text text-anchor="middle" x="69" y="-102.5" font-family="Helvetica,sans-Serif" font-size="10.00">populateParentQueryVector</text>
</g>
<!-- Node2 -->
<g id="node2" class="node"><title>Node2</title>
<g id="a_node2"><a xlink:href="vector_8c.html#ac38a38534f4bbf4a29e4cdebede8cd9d" target="_top" xlink:title="vector_clear">
<polygon fill="none" stroke="black" points="196,-190.5 196,-209.5 266,-209.5 266,-190.5 196,-190.5"/>
<text text-anchor="middle" x="231" y="-197.5" font-family="Helvetica,sans-Serif" font-size="10.00">vector_clear</text>
</a>
</g>
</g>
<!-- Node1&#45;&gt;Node2 -->
<g id="edge1" class="edge"><title>Node1&#45;&gt;Node2</title>
<path fill="none" stroke="midnightblue" d="M80.7957,-114.639C98.9129,-130.394 137.088,-161.826 174,-181 178.056,-183.107 182.394,-185.055 186.795,-186.837"/>
<polygon fill="midnightblue" stroke="midnightblue" points="185.849,-190.221 196.441,-190.468 188.314,-183.669 185.849,-190.221"/>
</g>
<!-- Node3 -->
<g id="node3" class="node"><title>Node3</title>
<g id="a_node3"><a xlink:href="net_8c.html#ad32183bff5aacc2cb805dbf1fc492024" target="_top" xlink:title="net_getParentIdListPtr">
<polygon fill="none" stroke="black" points="174,-152.5 174,-171.5 288,-171.5 288,-152.5 174,-152.5"/>
<text text-anchor="middle" x="231" y="-159.5" font-family="Helvetica,sans-Serif" font-size="10.00">net_getParentIdListPtr</text>
</a>
</g>
</g>
<!-- Node1&#45;&gt;Node3 -->
<g id="edge2" class="edge"><title>Node1&#45;&gt;Node3</title>
<path fill="none" stroke="midnightblue" d="M95.5842,-114.536C116.599,-122.323 147.166,-133.547 174,-143 179.707,-145.011 185.755,-147.102 191.683,-149.131"/>
<polygon fill="midnightblue" stroke="midnightblue" points="190.873,-152.553 201.467,-152.462 193.128,-145.926 190.873,-152.553"/>
</g>
<!-- Node5 -->
<g id="node5" class="node"><title>Node5</title>
<g id="a_node5"><a xlink:href="list_8c.html#af9a0fb76faf3f2c75d3454dc7f7d9b6a" target="_top" xlink:title="list_iter_reset">
<polygon fill="none" stroke="black" points="193.5,-114.5 193.5,-133.5 268.5,-133.5 268.5,-114.5 193.5,-114.5"/>
<text text-anchor="middle" x="231" y="-121.5" font-family="Helvetica,sans-Serif" font-size="10.00">list_iter_reset</text>
</a>
</g>
</g>
<!-- Node1&#45;&gt;Node5 -->
<g id="edge4" class="edge"><title>Node1&#45;&gt;Node5</title>
<path fill="none" stroke="midnightblue" d="M137.854,-113.058C153.207,-114.881 169.17,-116.776 183.411,-118.468"/>
<polygon fill="midnightblue" stroke="midnightblue" points="183.1,-121.955 193.443,-119.659 183.926,-115.004 183.1,-121.955"/>
</g>
<!-- Node6 -->
<g id="node6" class="node"><title>Node6</title>
<g id="a_node6"><a xlink:href="list_8c.html#af8d7b94e84661c7b1da55a7c87619911" target="_top" xlink:title="list_iter_hasNext">
<polygon fill="none" stroke="black" points="186,-76.5 186,-95.5 276,-95.5 276,-76.5 186,-76.5"/>
<text text-anchor="middle" x="231" y="-83.5" font-family="Helvetica,sans-Serif" font-size="10.00">list_iter_hasNext</text>
</a>
</g>
</g>
<!-- Node1&#45;&gt;Node6 -->
<g id="edge5" class="edge"><title>Node1&#45;&gt;Node6</title>
<path fill="none" stroke="midnightblue" d="M137.854,-96.9423C150.497,-95.441 163.554,-93.8904 175.723,-92.4454"/>
<polygon fill="midnightblue" stroke="midnightblue" points="176.189,-95.9147 185.707,-91.2598 175.364,-88.9636 176.189,-95.9147"/>
</g>
<!-- Node7 -->
<g id="node7" class="node"><title>Node7</title>
<g id="a_node7"><a xlink:href="list_8c.html#a3dce8c731efc2b63a61958b2503f4c5d" target="_top" xlink:title="list_iter_next">
<polygon fill="none" stroke="black" points="195,-38.5 195,-57.5 267,-57.5 267,-38.5 195,-38.5"/>
<text text-anchor="middle" x="231" y="-45.5" font-family="Helvetica,sans-Serif" font-size="10.00">list_iter_next</text>
</a>
</g>
</g>
<!-- Node1&#45;&gt;Node7 -->
<g id="edge6" class="edge"><title>Node1&#45;&gt;Node7</title>
<path fill="none" stroke="midnightblue" d="M95.5842,-95.4642C116.599,-87.6767 147.166,-76.453 174,-67 179.707,-64.9895 185.755,-62.8977 191.683,-60.8685"/>
<polygon fill="midnightblue" stroke="midnightblue" points="193.128,-64.0738 201.467,-57.5382 190.873,-57.4472 193.128,-64.0738"/>
</g>
<!-- Node8 -->
<g id="node8" class="node"><title>Node8</title>
<g id="a_node8"><a xlink:href="vector_8c.html#a644473da71660c373cbfb134d83b37bf" target="_top" xlink:title="vector_pushBack">
<polygon fill="none" stroke="black" points="185,-0.5 185,-19.5 277,-19.5 277,-0.5 185,-0.5"/>
<text text-anchor="middle" x="231" y="-7.5" font-family="Helvetica,sans-Serif" font-size="10.00">vector_pushBack</text>
</a>
</g>
</g>
<!-- Node1&#45;&gt;Node8 -->
<g id="edge7" class="edge"><title>Node1&#45;&gt;Node8</title>
<path fill="none" stroke="midnightblue" d="M80.7957,-95.3612C98.9129,-79.6057 137.088,-48.174 174,-29 178.056,-26.8933 182.394,-24.9447 186.795,-23.163"/>
<polygon fill="midnightblue" stroke="midnightblue" points="188.314,-26.3307 196.441,-19.5324 185.849,-19.7793 188.314,-26.3307"/>
</g>
<!-- Node4 -->
<g id="node4" class="node"><title>Node4</title>
<g id="a_node4"><a xlink:href="vector_8c.html#a043c4e94efce1c5a44095eb9388ba5e7" target="_top" xlink:title="vector_at">
<polygon fill="none" stroke="black" points="324.5,-152.5 324.5,-171.5 381.5,-171.5 381.5,-152.5 324.5,-152.5"/>
<text text-anchor="middle" x="353" y="-159.5" font-family="Helvetica,sans-Serif" font-size="10.00">vector_at</text>
</a>
</g>
</g>
<!-- Node3&#45;&gt;Node4 -->
<g id="edge3" class="edge"><title>Node3&#45;&gt;Node4</title>
<path fill="none" stroke="midnightblue" d="M288.135,-162C296.97,-162 305.918,-162 314.207,-162"/>
<polygon fill="midnightblue" stroke="midnightblue" points="314.297,-165.5 324.297,-162 314.296,-158.5 314.297,-165.5"/>
</g>
</g>
</svg>
