<?xml version="1.0" encoding="UTF-8" standalone="no"?>
<!DOCTYPE svg PUBLIC "-//W3C//DTD SVG 1.1//EN"
 "http://www.w3.org/Graphics/SVG/1.1/DTD/svg11.dtd">
<!-- Generated by graphviz version 2.36.0 (20140111.2315)
 -->
<!-- Title: TMpopulateParentQueryVector Pages: 1 -->
<svg width="618pt" height="66pt"
 viewBox="0.00 0.00 618.00 66.00" xmlns="http://www.w3.org/2000/svg" xmlns:xlink="http://www.w3.org/1999/xlink">
<g id="graph0" class="graph" transform="scale(1 1) rotate(0) translate(4 62)">
<title>TMpopulateParentQueryVector</title>
<!-- Node1 -->
<g id="node1" class="node"><title>Node1</title>
<polygon fill="#bfbfbf" stroke="black" points="0.5,-19.5 0.5,-38.5 151.5,-38.5 151.5,-19.5 0.5,-19.5"/>
<text text-anchor="middle" x="76" y="-26.5" font-family="Helvetica,sans-Serif" font-size="10.00">TMpopulateParentQueryVector</text>
</g>
<!-- Node2 -->
<g id="node2" class="node"><title>Node2</title>
<g id="a_node2"><a xlink:href="learner_8c.html#ad1501982eb48921ad41de7de9457db4b" target="_top" xlink:title="TMpopulateQueryVectors">
<polygon fill="none" stroke="black" points="188,-38.5 188,-57.5 316,-57.5 316,-38.5 188,-38.5"/>
<text text-anchor="middle" x="252" y="-45.5" font-family="Helvetica,sans-Serif" font-size="10.00">TMpopulateQueryVectors</text>
</a>
</g>
</g>
<!-- Node1&#45;&gt;Node2 -->
<g id="edge1" class="edge"><title>Node1&#45;&gt;Node2</title>
<path fill="none" stroke="midnightblue" d="M161.515,-38.2286C170.372,-39.1958 179.264,-40.1667 187.822,-41.1013"/>
<polygon fill="midnightblue" stroke="midnightblue" points="161.87,-34.7467 151.549,-37.1404 161.11,-41.7053 161.87,-34.7467"/>
</g>
<!-- Node6 -->
<g id="node6" class="node"><title>Node6</title>
<g id="a_node6"><a xlink:href="learner_8c.html#af4655d41f33380b11243cae071a4ce37" target="_top" xlink:title="TMfindBestInsertTask">
<polygon fill="none" stroke="black" points="195.5,-0.5 195.5,-19.5 308.5,-19.5 308.5,-0.5 195.5,-0.5"/>
<text text-anchor="middle" x="252" y="-7.5" font-family="Helvetica,sans-Serif" font-size="10.00">TMfindBestInsertTask</text>
</a>
</g>
</g>
<!-- Node1&#45;&gt;Node6 -->
<g id="edge5" class="edge"><title>Node1&#45;&gt;Node6</title>
<path fill="none" stroke="midnightblue" d="M161.572,-19.7652C173.016,-18.5155 184.516,-17.2598 195.279,-16.0844"/>
<polygon fill="midnightblue" stroke="midnightblue" points="161.11,-16.2947 151.549,-20.8596 161.87,-23.2533 161.11,-16.2947"/>
</g>
<!-- Node3 -->
<g id="node3" class="node"><title>Node3</title>
<g id="a_node3"><a xlink:href="learner_8c.html#a992842224f9ab3030136c9cadb79bd44" target="_top" xlink:title="learnStructure">
<polygon fill="none" stroke="black" points="352.5,-19.5 352.5,-38.5 429.5,-38.5 429.5,-19.5 352.5,-19.5"/>
<text text-anchor="middle" x="391" y="-26.5" font-family="Helvetica,sans-Serif" font-size="10.00">learnStructure</text>
</a>
</g>
</g>
<!-- Node2&#45;&gt;Node3 -->
<g id="edge2" class="edge"><title>Node2&#45;&gt;Node3</title>
<path fill="none" stroke="midnightblue" d="M326.427,-37.8167C335.395,-36.573 344.249,-35.345 352.372,-34.2185"/>
<polygon fill="midnightblue" stroke="midnightblue" points="325.711,-34.3824 316.287,-39.223 326.673,-41.316 325.711,-34.3824"/>
</g>
<!-- Node4 -->
<g id="node4" class="node"><title>Node4</title>
<g id="a_node4"><a xlink:href="learner_8h.html#a23d451d4d355a14fa7c9735304ba4d95" target="_top" xlink:title="learner_run">
<polygon fill="none" stroke="black" points="466.5,-19.5 466.5,-38.5 531.5,-38.5 531.5,-19.5 466.5,-19.5"/>
<text text-anchor="middle" x="499" y="-26.5" font-family="Helvetica,sans-Serif" font-size="10.00">learner_run</text>
</a>
</g>
</g>
<!-- Node3&#45;&gt;Node4 -->
<g id="edge3" class="edge"><title>Node3&#45;&gt;Node4</title>
<path fill="none" stroke="midnightblue" d="M439.732,-29C448.772,-29 458.018,-29 466.405,-29"/>
<polygon fill="midnightblue" stroke="midnightblue" points="439.67,-25.5001 429.67,-29 439.67,-32.5001 439.67,-25.5001"/>
</g>
<!-- Node5 -->
<g id="node5" class="node"><title>Node5</title>
<g id="a_node5"><a xlink:href="bayes_8c.html#a40c5c0b0d4eb7b59a91108269f69dc89" target="_top" xlink:title="MAIN">
<polygon fill="none" stroke="black" points="568,-19.5 568,-38.5 610,-38.5 610,-19.5 568,-19.5"/>
<text text-anchor="middle" x="589" y="-26.5" font-family="Helvetica,sans-Serif" font-size="10.00">MAIN</text>
</a>
</g>
</g>
<!-- Node4&#45;&gt;Node5 -->
<g id="edge4" class="edge"><title>Node4&#45;&gt;Node5</title>
<path fill="none" stroke="midnightblue" d="M541.839,-29C550.875,-29 560.033,-29 567.783,-29"/>
<polygon fill="midnightblue" stroke="midnightblue" points="541.77,-25.5001 531.77,-29 541.77,-32.5001 541.77,-25.5001"/>
</g>
<!-- Node6&#45;&gt;Node3 -->
<g id="edge6" class="edge"><title>Node6&#45;&gt;Node3</title>
<path fill="none" stroke="midnightblue" d="M318.785,-19.1234C330.301,-20.7206 341.921,-22.3321 352.338,-23.7767"/>
<polygon fill="midnightblue" stroke="midnightblue" points="319.109,-15.635 308.723,-17.728 318.148,-22.5686 319.109,-15.635"/>
</g>
</g>
</svg>
