<?xml version="1.0" encoding="UTF-8" standalone="no"?>
<!DOCTYPE svg PUBLIC "-//W3C//DTD SVG 1.1//EN"
 "http://www.w3.org/Graphics/SVG/1.1/DTD/svg11.dtd">
<!-- Generated by graphviz version 2.36.0 (20140111.2315)
 -->
<!-- Title: TMfindBestRemoveTask Pages: 1 -->
<svg width="428pt" height="28pt"
 viewBox="0.00 0.00 428.00 28.00" xmlns="http://www.w3.org/2000/svg" xmlns:xlink="http://www.w3.org/1999/xlink">
<g id="graph0" class="graph" transform="scale(1 1) rotate(0) translate(4 24)">
<title>TMfindBestRemoveTask</title>
<!-- Node1 -->
<g id="node1" class="node"><title>Node1</title>
<polygon fill="#bfbfbf" stroke="black" points="0.5,-0.5 0.5,-19.5 125.5,-19.5 125.5,-0.5 0.5,-0.5"/>
<text text-anchor="middle" x="63" y="-7.5" font-family="Helvetica,sans-Serif" font-size="10.00">TMfindBestRemoveTask</text>
</g>
<!-- Node2 -->
<g id="node2" class="node"><title>Node2</title>
<g id="a_node2"><a xlink:href="learner_8c.html#a992842224f9ab3030136c9cadb79bd44" target="_top" xlink:title="learnStructure">
<polygon fill="none" stroke="black" points="162.5,-0.5 162.5,-19.5 239.5,-19.5 239.5,-0.5 162.5,-0.5"/>
<text text-anchor="middle" x="201" y="-7.5" font-family="Helvetica,sans-Serif" font-size="10.00">learnStructure</text>
</a>
</g>
</g>
<!-- Node1&#45;&gt;Node2 -->
<g id="edge1" class="edge"><title>Node1&#45;&gt;Node2</title>
<path fill="none" stroke="midnightblue" d="M135.925,-10C145.037,-10 154.054,-10 162.32,-10"/>
<polygon fill="midnightblue" stroke="midnightblue" points="135.633,-6.5001 125.633,-10 135.633,-13.5001 135.633,-6.5001"/>
</g>
<!-- Node3 -->
<g id="node3" class="node"><title>Node3</title>
<g id="a_node3"><a xlink:href="learner_8h.html#a23d451d4d355a14fa7c9735304ba4d95" target="_top" xlink:title="learner_run">
<polygon fill="none" stroke="black" points="276.5,-0.5 276.5,-19.5 341.5,-19.5 341.5,-0.5 276.5,-0.5"/>
<text text-anchor="middle" x="309" y="-7.5" font-family="Helvetica,sans-Serif" font-size="10.00">learner_run</text>
</a>
</g>
</g>
<!-- Node2&#45;&gt;Node3 -->
<g id="edge2" class="edge"><title>Node2&#45;&gt;Node3</title>
<path fill="none" stroke="midnightblue" d="M249.732,-10C258.772,-10 268.018,-10 276.405,-10"/>
<polygon fill="midnightblue" stroke="midnightblue" points="249.67,-6.5001 239.67,-10 249.67,-13.5001 249.67,-6.5001"/>
</g>
<!-- Node4 -->
<g id="node4" class="node"><title>Node4</title>
<g id="a_node4"><a xlink:href="bayes_8c.html#a40c5c0b0d4eb7b59a91108269f69dc89" target="_top" xlink:title="MAIN">
<polygon fill="none" stroke="black" points="378,-0.5 378,-19.5 420,-19.5 420,-0.5 378,-0.5"/>
<text text-anchor="middle" x="399" y="-7.5" font-family="Helvetica,sans-Serif" font-size="10.00">MAIN</text>
</a>
</g>
</g>
<!-- Node3&#45;&gt;Node4 -->
<g id="edge3" class="edge"><title>Node3&#45;&gt;Node4</title>
<path fill="none" stroke="midnightblue" d="M351.839,-10C360.875,-10 370.033,-10 377.783,-10"/>
<polygon fill="midnightblue" stroke="midnightblue" points="351.77,-6.5001 341.77,-10 351.77,-13.5001 351.77,-6.5001"/>
</g>
</g>
</svg>
