<?xml version="1.0" encoding="UTF-8" standalone="no"?>
<!DOCTYPE svg PUBLIC "-//W3C//DTD SVG 1.1//EN"
 "http://www.w3.org/Graphics/SVG/1.1/DTD/svg11.dtd">
<!-- Generated by graphviz version 2.36.0 (20140111.2315)
 -->
<!-- Title: learner_score Pages: 1 -->
<svg width="460pt" height="115pt"
 viewBox="0.00 0.00 460.00 115.34" xmlns="http://www.w3.org/2000/svg" xmlns:xlink="http://www.w3.org/1999/xlink">
<g id="graph0" class="graph" transform="scale(1 1) rotate(0) translate(4 111.343)">
<title>learner_score</title>
<!-- Node1 -->
<g id="node1" class="node"><title>Node1</title>
<polygon fill="#bfbfbf" stroke="black" points="0.5,-0.5 0.5,-19.5 75.5,-19.5 75.5,-0.5 0.5,-0.5"/>
<text text-anchor="middle" x="38" y="-7.5" font-family="Helvetica,sans-Serif" font-size="10.00">learner_score</text>
</g>
<!-- Node2 -->
<g id="node2" class="node"><title>Node2</title>
<g id="a_node2"><a xlink:href="bayes_8c.html#aa39a74293929705f5dfd47a76641d12a" target="_top" xlink:title="score">
<polygon fill="none" stroke="black" points="112.5,-19.5 112.5,-38.5 153.5,-38.5 153.5,-19.5 112.5,-19.5"/>
<text text-anchor="middle" x="133" y="-26.5" font-family="Helvetica,sans-Serif" font-size="10.00">score</text>
</a>
</g>
</g>
<!-- Node1&#45;&gt;Node2 -->
<g id="edge1" class="edge"><title>Node1&#45;&gt;Node2</title>
<path fill="none" stroke="midnightblue" d="M85.845,-19.5705C95.2021,-21.4821 104.54,-23.39 112.345,-24.9844"/>
<polygon fill="midnightblue" stroke="midnightblue" points="86.2543,-16.0819 75.7561,-17.5093 84.8531,-22.9402 86.2543,-16.0819"/>
</g>
<!-- Node3 -->
<g id="node3" class="node"><title>Node3</title>
<g id="a_node3"><a xlink:href="bayes_8c.html#a40c5c0b0d4eb7b59a91108269f69dc89" target="_top" xlink:title="MAIN">
<polygon fill="none" stroke="black" points="410,-38.5 410,-57.5 452,-57.5 452,-38.5 410,-38.5"/>
<text text-anchor="middle" x="431" y="-45.5" font-family="Helvetica,sans-Serif" font-size="10.00">MAIN</text>
</a>
</g>
</g>
<!-- Node1&#45;&gt;Node3 -->
<g id="edge9" class="edge"><title>Node1&#45;&gt;Node3</title>
<path fill="none" stroke="midnightblue" d="M86.0666,-7.08169C133.239,-4.84191 207.867,-3.16234 272,-10 318.114,-14.9166 329.013,-20.7348 374,-32 385.966,-34.9965 399.245,-38.7707 409.868,-41.9009"/>
<polygon fill="midnightblue" stroke="midnightblue" points="85.6624,-3.59752 75.8511,-7.59605 86.0145,-10.5887 85.6624,-3.59752"/>
</g>
<!-- Node2&#45;&gt;Node3 -->
<g id="edge2" class="edge"><title>Node2&#45;&gt;Node3</title>
<path fill="none" stroke="midnightblue" d="M145.736,-47.1194C155.681,-60.6686 171.29,-78.153 190,-86 265.414,-117.629 295.829,-110.018 374,-86 391.97,-80.4787 409.352,-67.0153 419.862,-57.6941"/>
<polygon fill="midnightblue" stroke="midnightblue" points="148.36,-44.7608 139.788,-38.5347 142.606,-48.7477 148.36,-44.7608"/>
</g>
<!-- Node4 -->
<g id="node4" class="node"><title>Node4</title>
<g id="a_node4"><a xlink:href="learner_8c.html#a5a45fbc491ab273140631145a6e82e54" target="_top" xlink:title="createTaskList">
<polygon fill="none" stroke="black" points="190.5,-57.5 190.5,-76.5 271.5,-76.5 271.5,-57.5 190.5,-57.5"/>
<text text-anchor="middle" x="231" y="-64.5" font-family="Helvetica,sans-Serif" font-size="10.00">createTaskList</text>
</a>
</g>
</g>
<!-- Node2&#45;&gt;Node4 -->
<g id="edge3" class="edge"><title>Node2&#45;&gt;Node4</title>
<path fill="none" stroke="midnightblue" d="M163.282,-40.5909C176.861,-45.9657 192.809,-52.2785 205.707,-57.3841"/>
<polygon fill="midnightblue" stroke="midnightblue" points="164.478,-37.2998 153.891,-36.8736 161.901,-43.8085 164.478,-37.2998"/>
</g>
<!-- Node6 -->
<g id="node6" class="node"><title>Node6</title>
<g id="a_node6"><a xlink:href="learner_8h.html#a643517a90c64064dfb94cb9cb8d6eddf" target="_top" xlink:title="learner_score">
<polygon fill="none" stroke="black" points="193.5,-19.5 193.5,-38.5 268.5,-38.5 268.5,-19.5 193.5,-19.5"/>
<text text-anchor="middle" x="231" y="-26.5" font-family="Helvetica,sans-Serif" font-size="10.00">learner_score</text>
</a>
</g>
</g>
<!-- Node2&#45;&gt;Node6 -->
<g id="edge6" class="edge"><title>Node2&#45;&gt;Node6</title>
<path fill="none" stroke="midnightblue" d="M163.905,-22.6958C173.26,-22.2131 183.69,-22.1224 193.45,-22.4237"/>
<polygon fill="midnightblue" stroke="midnightblue" points="163.618,-19.2072 153.891,-23.4073 164.114,-26.1896 163.618,-19.2072"/>
</g>
<!-- Node5 -->
<g id="node5" class="node"><title>Node5</title>
<g id="a_node5"><a xlink:href="learner_8h.html#a23d451d4d355a14fa7c9735304ba4d95" target="_top" xlink:title="learner_run">
<polygon fill="none" stroke="black" points="308.5,-57.5 308.5,-76.5 373.5,-76.5 373.5,-57.5 308.5,-57.5"/>
<text text-anchor="middle" x="341" y="-64.5" font-family="Helvetica,sans-Serif" font-size="10.00">learner_run</text>
</a>
</g>
</g>
<!-- Node4&#45;&gt;Node5 -->
<g id="edge4" class="edge"><title>Node4&#45;&gt;Node5</title>
<path fill="none" stroke="midnightblue" d="M281.656,-67C290.67,-67 299.846,-67 308.171,-67"/>
<polygon fill="midnightblue" stroke="midnightblue" points="281.602,-63.5001 271.602,-67 281.602,-70.5001 281.602,-63.5001"/>
</g>
<!-- Node5&#45;&gt;Node3 -->
<g id="edge5" class="edge"><title>Node5&#45;&gt;Node3</title>
<path fill="none" stroke="midnightblue" d="M383.547,-58.0295C392.678,-56.0582 401.95,-54.0563 409.783,-52.3649"/>
<polygon fill="midnightblue" stroke="midnightblue" points="382.806,-54.6089 373.77,-60.1406 384.283,-61.4512 382.806,-54.6089"/>
</g>
<!-- Node6&#45;&gt;Node2 -->
<g id="edge7" class="edge"><title>Node6&#45;&gt;Node2</title>
<path fill="none" stroke="midnightblue" d="M183.208,-35.7481C172.871,-35.7806 162.459,-35.3955 153.891,-34.5927"/>
<polygon fill="midnightblue" stroke="midnightblue" points="183.51,-39.2436 193.45,-35.5763 183.392,-32.2446 183.51,-39.2436"/>
</g>
<!-- Node6&#45;&gt;Node3 -->
<g id="edge8" class="edge"><title>Node6&#45;&gt;Node3</title>
<path fill="none" stroke="midnightblue" d="M278.953,-33.5056C320.532,-37.4955 379.226,-43.1277 409.761,-46.0579"/>
<polygon fill="midnightblue" stroke="midnightblue" points="279.067,-30.0005 268.778,-32.5292 278.398,-36.9685 279.067,-30.0005"/>
</g>
</g>
</svg>
