<?xml version="1.0" encoding="UTF-8" standalone="no"?>
<!DOCTYPE svg PUBLIC "-//W3C//DTD SVG 1.1//EN"
 "http://www.w3.org/Graphics/SVG/1.1/DTD/svg11.dtd">
<!-- Generated by graphviz version 2.36.0 (20140111.2315)
 -->
<!-- Title: learner_free Pages: 1 -->
<svg width="568pt" height="180pt"
 viewBox="0.00 0.00 568.00 180.00" xmlns="http://www.w3.org/2000/svg" xmlns:xlink="http://www.w3.org/1999/xlink">
<g id="graph0" class="graph" transform="scale(1 1) rotate(0) translate(4 176)">
<title>learner_free</title>
<!-- Node1 -->
<g id="node1" class="node"><title>Node1</title>
<polygon fill="#bfbfbf" stroke="black" points="0,-104.5 0,-123.5 68,-123.5 68,-104.5 0,-104.5"/>
<text text-anchor="middle" x="34" y="-111.5" font-family="Helvetica,sans-Serif" font-size="10.00">learner_free</text>
</g>
<!-- Node2 -->
<g id="node2" class="node"><title>Node2</title>
<g id="a_node2"><a xlink:href="list_8c.html#a4fb22eb8e01180e8150cd15c8257e57a" target="_top" xlink:title="list_free">
<polygon fill="none" stroke="black" points="104.5,-133.5 104.5,-152.5 155.5,-152.5 155.5,-133.5 104.5,-133.5"/>
<text text-anchor="middle" x="130" y="-140.5" font-family="Helvetica,sans-Serif" font-size="10.00">list_free</text>
</a>
</g>
</g>
<!-- Node1&#45;&gt;Node2 -->
<g id="edge1" class="edge"><title>Node1&#45;&gt;Node2</title>
<path fill="none" stroke="midnightblue" d="M66.0396,-123.576C75.1507,-126.387 85.1699,-129.478 94.4838,-132.351"/>
<polygon fill="midnightblue" stroke="midnightblue" points="93.6499,-135.757 104.237,-135.36 95.7135,-129.068 93.6499,-135.757"/>
</g>
<!-- Node5 -->
<g id="node5" class="node"><title>Node5</title>
<g id="a_node5"><a xlink:href="net_8c.html#abdc957330d97273b46714332ba2619b0" target="_top" xlink:title="net_free">
<polygon fill="none" stroke="black" points="104,-76.5 104,-95.5 156,-95.5 156,-76.5 104,-76.5"/>
<text text-anchor="middle" x="130" y="-83.5" font-family="Helvetica,sans-Serif" font-size="10.00">net_free</text>
</a>
</g>
</g>
<!-- Node1&#45;&gt;Node5 -->
<g id="edge4" class="edge"><title>Node1&#45;&gt;Node5</title>
<path fill="none" stroke="midnightblue" d="M67.0866,-104.442C75.8198,-101.841 85.3195,-99.0112 94.1957,-96.3672"/>
<polygon fill="midnightblue" stroke="midnightblue" points="95.2936,-99.6923 103.878,-93.4831 93.2952,-92.9836 95.2936,-99.6923"/>
</g>
<!-- Node3 -->
<g id="node3" class="node"><title>Node3</title>
<g id="a_node3"><a xlink:href="list_8c.html#a475696d1a0aedfdbac6a0c6516fc78da" target="_top" xlink:title="freeList">
<polygon fill="none" stroke="black" points="208.5,-152.5 208.5,-171.5 257.5,-171.5 257.5,-152.5 208.5,-152.5"/>
<text text-anchor="middle" x="233" y="-159.5" font-family="Helvetica,sans-Serif" font-size="10.00">freeList</text>
</a>
</g>
</g>
<!-- Node2&#45;&gt;Node3 -->
<g id="edge2" class="edge"><title>Node2&#45;&gt;Node3</title>
<path fill="none" stroke="midnightblue" d="M155.707,-147.648C168.459,-150.047 184.209,-153.01 198.082,-155.619"/>
<polygon fill="midnightblue" stroke="midnightblue" points="197.768,-159.122 208.243,-157.531 199.063,-152.242 197.768,-159.122"/>
</g>
<!-- Node4 -->
<g id="node4" class="node"><title>Node4</title>
<g id="a_node4"><a xlink:href="list_8c.html#ac485202058cce61a3db7ad23eea4c658" target="_top" xlink:title="freeNode">
<polygon fill="none" stroke="black" points="311,-152.5 311,-171.5 367,-171.5 367,-152.5 311,-152.5"/>
<text text-anchor="middle" x="339" y="-159.5" font-family="Helvetica,sans-Serif" font-size="10.00">freeNode</text>
</a>
</g>
</g>
<!-- Node3&#45;&gt;Node4 -->
<g id="edge3" class="edge"><title>Node3&#45;&gt;Node4</title>
<path fill="none" stroke="midnightblue" d="M257.599,-162C270.331,-162 286.339,-162 300.712,-162"/>
<polygon fill="midnightblue" stroke="midnightblue" points="300.82,-165.5 310.82,-162 300.82,-158.5 300.82,-165.5"/>
</g>
<!-- Node6 -->
<g id="node6" class="node"><title>Node6</title>
<g id="a_node6"><a xlink:href="vector_8c.html#a158656a347e208114bcd945b91cfd87a" target="_top" xlink:title="vector_getSize">
<polygon fill="none" stroke="black" points="192,-114.5 192,-133.5 274,-133.5 274,-114.5 192,-114.5"/>
<text text-anchor="middle" x="233" y="-121.5" font-family="Helvetica,sans-Serif" font-size="10.00">vector_getSize</text>
</a>
</g>
</g>
<!-- Node5&#45;&gt;Node6 -->
<g id="edge5" class="edge"><title>Node5&#45;&gt;Node6</title>
<path fill="none" stroke="midnightblue" d="M156.226,-95.491C168.638,-100.161 183.796,-105.864 197.283,-110.938"/>
<polygon fill="midnightblue" stroke="midnightblue" points="196.154,-114.253 206.746,-114.498 198.619,-107.701 196.154,-114.253"/>
</g>
<!-- Node7 -->
<g id="node7" class="node"><title>Node7</title>
<g id="a_node7"><a xlink:href="vector_8c.html#a043c4e94efce1c5a44095eb9388ba5e7" target="_top" xlink:title="vector_at">
<polygon fill="none" stroke="black" points="204.5,-76.5 204.5,-95.5 261.5,-95.5 261.5,-76.5 204.5,-76.5"/>
<text text-anchor="middle" x="233" y="-83.5" font-family="Helvetica,sans-Serif" font-size="10.00">vector_at</text>
</a>
</g>
</g>
<!-- Node5&#45;&gt;Node7 -->
<g id="edge6" class="edge"><title>Node5&#45;&gt;Node7</title>
<path fill="none" stroke="midnightblue" d="M156.226,-86C167.638,-86 181.37,-86 193.991,-86"/>
<polygon fill="midnightblue" stroke="midnightblue" points="194.256,-89.5001 204.256,-86 194.256,-82.5001 194.256,-89.5001"/>
</g>
<!-- Node8 -->
<g id="node8" class="node"><title>Node8</title>
<g id="a_node8"><a xlink:href="net_8c.html#a9b09a09bba447345436e63f1ecc582f6" target="_top" xlink:title="freeNode">
<polygon fill="none" stroke="black" points="205,-38.5 205,-57.5 261,-57.5 261,-38.5 205,-38.5"/>
<text text-anchor="middle" x="233" y="-45.5" font-family="Helvetica,sans-Serif" font-size="10.00">freeNode</text>
</a>
</g>
</g>
<!-- Node5&#45;&gt;Node8 -->
<g id="edge7" class="edge"><title>Node5&#45;&gt;Node8</title>
<path fill="none" stroke="midnightblue" d="M156.226,-76.509C168.638,-71.839 183.796,-66.1363 197.283,-61.0619"/>
<polygon fill="midnightblue" stroke="midnightblue" points="198.619,-64.299 206.746,-57.5017 196.154,-57.7473 198.619,-64.299"/>
</g>
<!-- Node12 -->
<g id="node12" class="node"><title>Node12</title>
<g id="a_node12"><a xlink:href="vector_8c.html#aed7f3fe585748794ca18f6c957733e40" target="_top" xlink:title="vector_free">
<polygon fill="none" stroke="black" points="200.5,-0.5 200.5,-19.5 265.5,-19.5 265.5,-0.5 200.5,-0.5"/>
<text text-anchor="middle" x="233" y="-7.5" font-family="Helvetica,sans-Serif" font-size="10.00">vector_free</text>
</a>
</g>
</g>
<!-- Node5&#45;&gt;Node12 -->
<g id="edge11" class="edge"><title>Node5&#45;&gt;Node12</title>
<path fill="none" stroke="midnightblue" d="M139.736,-76.1464C150.938,-63.9344 171.389,-43.0247 192,-29 194.384,-27.3781 196.927,-25.8237 199.533,-24.3518"/>
<polygon fill="midnightblue" stroke="midnightblue" points="201.236,-27.4111 208.488,-19.6871 198.002,-21.2029 201.236,-27.4111"/>
</g>
<!-- Node9 -->
<g id="node9" class="node"><title>Node9</title>
<g id="a_node9"><a xlink:href="list_8c.html#aeeb44928a75497916888d4f858d43e14" target="_top" xlink:title="Plist_free">
<polygon fill="none" stroke="black" points="310,-38.5 310,-57.5 368,-57.5 368,-38.5 310,-38.5"/>
<text text-anchor="middle" x="339" y="-45.5" font-family="Helvetica,sans-Serif" font-size="10.00">Plist_free</text>
</a>
</g>
</g>
<!-- Node8&#45;&gt;Node9 -->
<g id="edge8" class="edge"><title>Node8&#45;&gt;Node9</title>
<path fill="none" stroke="midnightblue" d="M261.053,-48C272.926,-48 287.072,-48 299.977,-48"/>
<polygon fill="midnightblue" stroke="midnightblue" points="299.994,-51.5001 309.994,-48 299.994,-44.5001 299.994,-51.5001"/>
</g>
<!-- Node10 -->
<g id="node10" class="node"><title>Node10</title>
<g id="a_node10"><a xlink:href="list_8c.html#a6b1a80c1e3dd7162630ac048d37c4c2c" target="_top" xlink:title="PfreeList">
<polygon fill="none" stroke="black" points="404,-38.5 404,-57.5 460,-57.5 460,-38.5 404,-38.5"/>
<text text-anchor="middle" x="432" y="-45.5" font-family="Helvetica,sans-Serif" font-size="10.00">PfreeList</text>
</a>
</g>
</g>
<!-- Node9&#45;&gt;Node10 -->
<g id="edge9" class="edge"><title>Node9&#45;&gt;Node10</title>
<path fill="none" stroke="midnightblue" d="M368.294,-48C376.38,-48 385.317,-48 393.848,-48"/>
<polygon fill="midnightblue" stroke="midnightblue" points="393.968,-51.5001 403.968,-48 393.968,-44.5001 393.968,-51.5001"/>
</g>
<!-- Node11 -->
<g id="node11" class="node"><title>Node11</title>
<g id="a_node11"><a xlink:href="list_8c.html#aa0d20e134da87470791d0621d655d31e" target="_top" xlink:title="PfreeNode">
<polygon fill="none" stroke="black" points="496.5,-38.5 496.5,-57.5 559.5,-57.5 559.5,-38.5 496.5,-38.5"/>
<text text-anchor="middle" x="528" y="-45.5" font-family="Helvetica,sans-Serif" font-size="10.00">PfreeNode</text>
</a>
</g>
</g>
<!-- Node10&#45;&gt;Node11 -->
<g id="edge10" class="edge"><title>Node10&#45;&gt;Node11</title>
<path fill="none" stroke="midnightblue" d="M460.189,-48C468.295,-48 477.364,-48 486.141,-48"/>
<polygon fill="midnightblue" stroke="midnightblue" points="486.237,-51.5001 496.237,-48 486.237,-44.5001 486.237,-51.5001"/>
</g>
</g>
</svg>
