<?xml version="1.0" encoding="UTF-8" standalone="no"?>
<!DOCTYPE svg PUBLIC "-//W3C//DTD SVG 1.1//EN"
 "http://www.w3.org/Graphics/SVG/1.1/DTD/svg11.dtd">
<!-- Generated by graphviz version 2.36.0 (20140111.2315)
 -->
<!-- Title: TMpopulateParentQueryVector Pages: 1 -->
<svg width="404pt" height="66pt"
 viewBox="0.00 0.00 404.00 66.00" xmlns="http://www.w3.org/2000/svg" xmlns:xlink="http://www.w3.org/1999/xlink">
<g id="graph0" class="graph" transform="scale(1 1) rotate(0) translate(4 62)">
<title>TMpopulateParentQueryVector</title>
<!-- Node1 -->
<g id="node1" class="node"><title>Node1</title>
<polygon fill="#bfbfbf" stroke="black" points="0.5,-19.5 0.5,-38.5 151.5,-38.5 151.5,-19.5 0.5,-19.5"/>
<text text-anchor="middle" x="76" y="-26.5" font-family="Helvetica,sans-Serif" font-size="10.00">TMpopulateParentQueryVector</text>
</g>
<!-- Node2 -->
<g id="node2" class="node"><title>Node2</title>
<g id="a_node2"><a xlink:href="vector_8c.html#ac38a38534f4bbf4a29e4cdebede8cd9d" target="_top" xlink:title="vector_clear">
<polygon fill="none" stroke="black" points="210,-38.5 210,-57.5 280,-57.5 280,-38.5 210,-38.5"/>
<text text-anchor="middle" x="245" y="-45.5" font-family="Helvetica,sans-Serif" font-size="10.00">vector_clear</text>
</a>
</g>
</g>
<!-- Node1&#45;&gt;Node2 -->
<g id="edge1" class="edge"><title>Node1&#45;&gt;Node2</title>
<path fill="none" stroke="midnightblue" d="M151.708,-37.4997C168.061,-39.3602 184.868,-41.2724 199.584,-42.9467"/>
<polygon fill="midnightblue" stroke="midnightblue" points="199.562,-46.4667 209.894,-44.1196 200.353,-39.5115 199.562,-46.4667"/>
</g>
<!-- Node3 -->
<g id="node3" class="node"><title>Node3</title>
<g id="a_node3"><a xlink:href="net_8c.html#ad32183bff5aacc2cb805dbf1fc492024" target="_top" xlink:title="net_getParentIdListPtr">
<polygon fill="none" stroke="black" points="188,-0.5 188,-19.5 302,-19.5 302,-0.5 188,-0.5"/>
<text text-anchor="middle" x="245" y="-7.5" font-family="Helvetica,sans-Serif" font-size="10.00">net_getParentIdListPtr</text>
</a>
</g>
</g>
<!-- Node1&#45;&gt;Node3 -->
<g id="edge2" class="edge"><title>Node1&#45;&gt;Node3</title>
<path fill="none" stroke="midnightblue" d="M151.708,-20.5003C160.447,-19.5061 169.315,-18.4971 177.925,-17.5175"/>
<polygon fill="midnightblue" stroke="midnightblue" points="178.35,-20.9918 187.891,-16.3837 177.559,-14.0367 178.35,-20.9918"/>
</g>
<!-- Node4 -->
<g id="node4" class="node"><title>Node4</title>
<g id="a_node4"><a xlink:href="vector_8c.html#a043c4e94efce1c5a44095eb9388ba5e7" target="_top" xlink:title="vector_at">
<polygon fill="none" stroke="black" points="338.5,-0.5 338.5,-19.5 395.5,-19.5 395.5,-0.5 338.5,-0.5"/>
<text text-anchor="middle" x="367" y="-7.5" font-family="Helvetica,sans-Serif" font-size="10.00">vector_at</text>
</a>
</g>
</g>
<!-- Node3&#45;&gt;Node4 -->
<g id="edge3" class="edge"><title>Node3&#45;&gt;Node4</title>
<path fill="none" stroke="midnightblue" d="M302.135,-10C310.97,-10 319.918,-10 328.207,-10"/>
<polygon fill="midnightblue" stroke="midnightblue" points="328.297,-13.5001 338.297,-10 328.296,-6.5001 328.297,-13.5001"/>
</g>
</g>
</svg>
