<?xml version="1.0" encoding="UTF-8" standalone="no"?>
<!DOCTYPE svg PUBLIC "-//W3C//DTD SVG 1.1//EN"
 "http://www.w3.org/Graphics/SVG/1.1/DTD/svg11.dtd">
<!-- Generated by graphviz version 2.36.0 (20140111.2315)
 -->
<!-- Title: populateParentQueryVector Pages: 1 -->
<svg width="784pt" height="69pt"
 viewBox="0.00 0.00 784.00 68.90" xmlns="http://www.w3.org/2000/svg" xmlns:xlink="http://www.w3.org/1999/xlink">
<g id="graph0" class="graph" transform="scale(1 1) rotate(0) translate(4 64.9014)">
<title>populateParentQueryVector</title>
<!-- Node1 -->
<g id="node1" class="node"><title>Node1</title>
<polygon fill="#bfbfbf" stroke="black" points="0.5,-22.4151 0.5,-41.4151 137.5,-41.4151 137.5,-22.4151 0.5,-22.4151"/>
<text text-anchor="middle" x="69" y="-29.4151" font-family="Helvetica,sans-Serif" font-size="10.00">populateParentQueryVector</text>
</g>
<!-- Node2 -->
<g id="node2" class="node"><title>Node2</title>
<g id="a_node2"><a xlink:href="learner_8c.html#a02c8bbd9e58f6b76caafe97e1265357d" target="_top" xlink:title="populateQueryVectors">
<polygon fill="none" stroke="black" points="174.5,-22.4151 174.5,-41.4151 287.5,-41.4151 287.5,-22.4151 174.5,-22.4151"/>
<text text-anchor="middle" x="231" y="-29.4151" font-family="Helvetica,sans-Serif" font-size="10.00">populateQueryVectors</text>
</a>
</g>
</g>
<!-- Node1&#45;&gt;Node2 -->
<g id="edge1" class="edge"><title>Node1&#45;&gt;Node2</title>
<path fill="none" stroke="midnightblue" d="M148.124,-31.9151C156.905,-31.9151 165.716,-31.9151 174.135,-31.9151"/>
<polygon fill="midnightblue" stroke="midnightblue" points="147.854,-28.4152 137.854,-31.9151 147.854,-35.4152 147.854,-28.4152"/>
</g>
<!-- Node3 -->
<g id="node3" class="node"><title>Node3</title>
<g id="a_node3"><a xlink:href="learner_8h.html#a643517a90c64064dfb94cb9cb8d6eddf" target="_top" xlink:title="learner_score">
<polygon fill="none" stroke="black" points="324.5,-22.4151 324.5,-41.4151 399.5,-41.4151 399.5,-22.4151 324.5,-22.4151"/>
<text text-anchor="middle" x="362" y="-29.4151" font-family="Helvetica,sans-Serif" font-size="10.00">learner_score</text>
</a>
</g>
</g>
<!-- Node2&#45;&gt;Node3 -->
<g id="edge2" class="edge"><title>Node2&#45;&gt;Node3</title>
<path fill="none" stroke="midnightblue" d="M298.056,-31.9151C307.132,-31.9151 316.166,-31.9151 324.439,-31.9151"/>
<polygon fill="midnightblue" stroke="midnightblue" points="297.831,-28.4152 287.831,-31.9151 297.831,-35.4152 297.831,-28.4152"/>
</g>
<!-- Node4 -->
<g id="node4" class="node"><title>Node4</title>
<g id="a_node4"><a xlink:href="bayes_8c.html#aa39a74293929705f5dfd47a76641d12a" target="_top" xlink:title="score">
<polygon fill="none" stroke="black" points="436.5,-22.4151 436.5,-41.4151 477.5,-41.4151 477.5,-22.4151 436.5,-22.4151"/>
<text text-anchor="middle" x="457" y="-29.4151" font-family="Helvetica,sans-Serif" font-size="10.00">score</text>
</a>
</g>
</g>
<!-- Node3&#45;&gt;Node4 -->
<g id="edge3" class="edge"><title>Node3&#45;&gt;Node4</title>
<path fill="none" stroke="midnightblue" d="M409.845,-25.1652C419.202,-25.1742 428.54,-25.5476 436.345,-26.2855"/>
<polygon fill="midnightblue" stroke="midnightblue" points="409.709,-21.6666 399.756,-25.2986 409.801,-28.666 409.709,-21.6666"/>
</g>
<!-- Node5 -->
<g id="node5" class="node"><title>Node5</title>
<g id="a_node5"><a xlink:href="bayes_8c.html#a40c5c0b0d4eb7b59a91108269f69dc89" target="_top" xlink:title="MAIN">
<polygon fill="none" stroke="black" points="734,-22.4151 734,-41.4151 776,-41.4151 776,-22.4151 734,-22.4151"/>
<text text-anchor="middle" x="755" y="-29.4151" font-family="Helvetica,sans-Serif" font-size="10.00">MAIN</text>
</a>
</g>
</g>
<!-- Node3&#45;&gt;Node5 -->
<g id="edge9" class="edge"><title>Node3&#45;&gt;Node5</title>
<path fill="none" stroke="midnightblue" d="M402.469,-19.6875C413.236,-16.8903 424.975,-14.3263 436,-12.9151 551.502,1.86973 583.109,6.04452 698,-12.9151 710.257,-14.9377 723.438,-19.293 733.931,-23.324"/>
<polygon fill="midnightblue" stroke="midnightblue" points="401.223,-16.3996 392.498,-22.4108 403.067,-23.1523 401.223,-16.3996"/>
</g>
<!-- Node4&#45;&gt;Node3 -->
<g id="edge8" class="edge"><title>Node4&#45;&gt;Node3</title>
<path fill="none" stroke="midnightblue" d="M426.228,-38.2609C417.805,-38.6852 408.538,-38.7754 399.756,-38.5316"/>
<polygon fill="midnightblue" stroke="midnightblue" points="426.617,-41.7422 436.345,-37.5447 426.122,-34.7597 426.617,-41.7422"/>
</g>
<!-- Node4&#45;&gt;Node5 -->
<g id="edge4" class="edge"><title>Node4&#45;&gt;Node5</title>
<path fill="none" stroke="midnightblue" d="M487.063,-43.7823C495.596,-46.7142 505.045,-49.4373 514,-50.9151 594.687,-64.2302 617.313,-64.2302 698,-50.9151 710.257,-48.8924 723.438,-44.5371 733.931,-40.5061"/>
<polygon fill="midnightblue" stroke="midnightblue" points="488.145,-40.4512 477.551,-40.3065 485.742,-47.0261 488.145,-40.4512"/>
</g>
<!-- Node6 -->
<g id="node6" class="node"><title>Node6</title>
<g id="a_node6"><a xlink:href="learner_8c.html#a5a45fbc491ab273140631145a6e82e54" target="_top" xlink:title="createTaskList">
<polygon fill="none" stroke="black" points="514.5,-22.4151 514.5,-41.4151 595.5,-41.4151 595.5,-22.4151 514.5,-22.4151"/>
<text text-anchor="middle" x="555" y="-29.4151" font-family="Helvetica,sans-Serif" font-size="10.00">createTaskList</text>
</a>
</g>
</g>
<!-- Node4&#45;&gt;Node6 -->
<g id="edge5" class="edge"><title>Node4&#45;&gt;Node6</title>
<path fill="none" stroke="midnightblue" d="M487.928,-31.9151C496.287,-31.9151 505.502,-31.9151 514.33,-31.9151"/>
<polygon fill="midnightblue" stroke="midnightblue" points="487.891,-28.4152 477.891,-31.9151 487.891,-35.4152 487.891,-28.4152"/>
</g>
<!-- Node7 -->
<g id="node7" class="node"><title>Node7</title>
<g id="a_node7"><a xlink:href="learner_8h.html#a23d451d4d355a14fa7c9735304ba4d95" target="_top" xlink:title="learner_run">
<polygon fill="none" stroke="black" points="632.5,-22.4151 632.5,-41.4151 697.5,-41.4151 697.5,-22.4151 632.5,-22.4151"/>
<text text-anchor="middle" x="665" y="-29.4151" font-family="Helvetica,sans-Serif" font-size="10.00">learner_run</text>
</a>
</g>
</g>
<!-- Node6&#45;&gt;Node7 -->
<g id="edge6" class="edge"><title>Node6&#45;&gt;Node7</title>
<path fill="none" stroke="midnightblue" d="M605.656,-31.9151C614.67,-31.9151 623.846,-31.9151 632.171,-31.9151"/>
<polygon fill="midnightblue" stroke="midnightblue" points="605.602,-28.4152 595.602,-31.9151 605.602,-35.4152 605.602,-28.4152"/>
</g>
<!-- Node7&#45;&gt;Node5 -->
<g id="edge7" class="edge"><title>Node7&#45;&gt;Node5</title>
<path fill="none" stroke="midnightblue" d="M707.839,-31.9151C716.875,-31.9151 726.033,-31.9151 733.783,-31.9151"/>
<polygon fill="midnightblue" stroke="midnightblue" points="707.77,-28.4152 697.77,-31.9151 707.77,-35.4152 707.77,-28.4152"/>
</g>
</g>
</svg>
