<?xml version="1.0" encoding="UTF-8" standalone="no"?>
<!DOCTYPE svg PUBLIC "-//W3C//DTD SVG 1.1//EN"
 "http://www.w3.org/Graphics/SVG/1.1/DTD/svg11.dtd">
<!-- Generated by graphviz version 2.36.0 (20140111.2315)
 -->
<!-- Title: _ITM_memmoveRnWtaR Pages: 1 -->
<svg width="462pt" height="148pt"
 viewBox="0.00 0.00 462.00 148.00" xmlns="http://www.w3.org/2000/svg" xmlns:xlink="http://www.w3.org/1999/xlink">
<g id="graph0" class="graph" transform="scale(1 1) rotate(0) translate(4 144)">
<title>_ITM_memmoveRnWtaR</title>
<!-- Node1 -->
<g id="node1" class="node"><title>Node1</title>
<polygon fill="#bfbfbf" stroke="black" points="0,-41.5 0,-60.5 128,-60.5 128,-41.5 0,-41.5"/>
<text text-anchor="middle" x="64" y="-48.5" font-family="Helvetica,sans-Serif" font-size="10.00">_ITM_memmoveRnWtaR</text>
</g>
<!-- Node2 -->
<g id="node2" class="node"><title>Node2</title>
<g id="a_node2"><a xlink:href="namespaceanonymous__namespace_02libitm-5_813_0014_8cpp_03.html#a8b7be7cf3afef27c0623b844ce9116d8" target="_top" xlink:title="anonymous_namespace\l\{libitm&#45;5::13,14::cpp\}\l::memcpy">
<polygon fill="none" stroke="black" points="169,-60.5 169,-101.5 291,-101.5 291,-60.5 169,-60.5"/>
<text text-anchor="start" x="177" y="-89.5" font-family="Helvetica,sans-Serif" font-size="10.00">anonymous_namespace</text>
<text text-anchor="start" x="177" y="-78.5" font-family="Helvetica,sans-Serif" font-size="10.00">{libitm&#45;5::13,14::cpp}</text>
<text text-anchor="middle" x="230" y="-67.5" font-family="Helvetica,sans-Serif" font-size="10.00">::memcpy</text>
</a>
</g>
</g>
<!-- Node1&#45;&gt;Node2 -->
<g id="edge1" class="edge"><title>Node1&#45;&gt;Node2</title>
<path fill="none" stroke="midnightblue" d="M117.342,-60.5747C130.542,-62.9894 144.928,-65.621 158.849,-68.1674"/>
<polygon fill="midnightblue" stroke="midnightblue" points="158.413,-71.6457 168.879,-70.0023 159.672,-64.7599 158.413,-71.6457"/>
</g>
<!-- Node6 -->
<g id="node6" class="node"><title>Node6</title>
<g id="a_node6"><a xlink:href="namespaceanonymous__namespace_02libitm-5_813_0014_8cpp_03.html#a8dd7dae76248648e1534f566e0af169b" target="_top" xlink:title="anonymous_namespace\l\{libitm&#45;5::13,14::cpp\}\l::builtin_memcpy_wrapper">
<polygon fill="none" stroke="black" points="164.5,-0.5 164.5,-41.5 295.5,-41.5 295.5,-0.5 164.5,-0.5"/>
<text text-anchor="start" x="172.5" y="-29.5" font-family="Helvetica,sans-Serif" font-size="10.00">anonymous_namespace</text>
<text text-anchor="start" x="172.5" y="-18.5" font-family="Helvetica,sans-Serif" font-size="10.00">{libitm&#45;5::13,14::cpp}</text>
<text text-anchor="middle" x="230" y="-7.5" font-family="Helvetica,sans-Serif" font-size="10.00">::builtin_memcpy_wrapper</text>
</a>
</g>
</g>
<!-- Node1&#45;&gt;Node6 -->
<g id="edge5" class="edge"><title>Node1&#45;&gt;Node6</title>
<path fill="none" stroke="midnightblue" d="M117.342,-41.4253C129.102,-39.2739 141.804,-36.9505 154.279,-34.6684"/>
<polygon fill="midnightblue" stroke="midnightblue" points="155.006,-38.0936 164.213,-32.8512 153.747,-31.2079 155.006,-38.0936"/>
</g>
<!-- Node3 -->
<g id="node3" class="node"><title>Node3</title>
<g id="a_node3"><a xlink:href="namespaceanonymous__namespace_02oreceager_8cpp_03.html#a7a88c7a7453bbfaca53eeac03b80a5d6" target="_top" xlink:title="anonymous_namespace\l\{oreceager::cpp\}::read">
<polygon fill="none" stroke="black" points="332,-110 332,-140 454,-140 454,-110 332,-110"/>
<text text-anchor="start" x="340" y="-128" font-family="Helvetica,sans-Serif" font-size="10.00">anonymous_namespace</text>
<text text-anchor="middle" x="393" y="-117" font-family="Helvetica,sans-Serif" font-size="10.00">{oreceager::cpp}::read</text>
</a>
</g>
</g>
<!-- Node2&#45;&gt;Node3 -->
<g id="edge2" class="edge"><title>Node2&#45;&gt;Node3</title>
<path fill="none" stroke="midnightblue" d="M291.409,-97.5092C303.12,-100.71 315.437,-104.076 327.28,-107.312"/>
<polygon fill="midnightblue" stroke="midnightblue" points="326.523,-110.734 337.092,-109.994 328.369,-103.982 326.523,-110.734"/>
</g>
<!-- Node4 -->
<g id="node4" class="node"><title>Node4</title>
<g id="a_node4"><a xlink:href="namespaceitm2stm.html#a334b9615cac957b9ce7a4743beaaaf53" target="_top" xlink:title="itm2stm::add_bytes">
<polygon fill="none" stroke="black" points="341.5,-71.5 341.5,-90.5 444.5,-90.5 444.5,-71.5 341.5,-71.5"/>
<text text-anchor="middle" x="393" y="-78.5" font-family="Helvetica,sans-Serif" font-size="10.00">itm2stm::add_bytes</text>
</a>
</g>
</g>
<!-- Node2&#45;&gt;Node4 -->
<g id="edge3" class="edge"><title>Node2&#45;&gt;Node4</title>
<path fill="none" stroke="midnightblue" d="M291.409,-81C304.363,-81 318.06,-81 331.035,-81"/>
<polygon fill="midnightblue" stroke="midnightblue" points="331.259,-84.5001 341.259,-81 331.259,-77.5001 331.259,-84.5001"/>
</g>
<!-- Node5 -->
<g id="node5" class="node"><title>Node5</title>
<g id="a_node5"><a xlink:href="namespaceitm2stm.html#aa9908b113027ae21130750939980ee0b" target="_top" xlink:title="itm2stm::offset_of">
<polygon fill="none" stroke="black" points="345,-33.5 345,-52.5 441,-52.5 441,-33.5 345,-33.5"/>
<text text-anchor="middle" x="393" y="-40.5" font-family="Helvetica,sans-Serif" font-size="10.00">itm2stm::offset_of</text>
</a>
</g>
</g>
<!-- Node2&#45;&gt;Node5 -->
<g id="edge4" class="edge"><title>Node2&#45;&gt;Node5</title>
<path fill="none" stroke="midnightblue" d="M291.409,-66.7421C307.804,-62.8723 325.387,-58.7222 341.194,-54.9914"/>
<polygon fill="midnightblue" stroke="midnightblue" points="342.366,-58.311 351.295,-52.6074 340.758,-51.4982 342.366,-58.311"/>
</g>
</g>
</svg>
