<?xml version="1.0" encoding="UTF-8" standalone="no"?>
<!DOCTYPE svg PUBLIC "-//W3C//DTD SVG 1.1//EN"
 "http://www.w3.org/Graphics/SVG/1.1/DTD/svg11.dtd">
<!-- Generated by graphviz version 2.36.0 (20140111.2315)
 -->
<!-- Title: rstm/rstm&#45;dev/libitm2stm/libitm&#45;5.12.cpp Pages: 1 -->
<svg width="1202pt" height="388pt"
 viewBox="0.00 0.00 1202.00 388.00" xmlns="http://www.w3.org/2000/svg" xmlns:xlink="http://www.w3.org/1999/xlink">
<g id="graph0" class="graph" transform="scale(1 1) rotate(0) translate(4 384)">
<title>rstm/rstm&#45;dev/libitm2stm/libitm&#45;5.12.cpp</title>
<!-- Node1 -->
<g id="node1" class="node"><title>Node1</title>
<polygon fill="#bfbfbf" stroke="black" points="123.5,-349 123.5,-379 248.5,-379 248.5,-349 123.5,-349"/>
<text text-anchor="start" x="131.5" y="-367" font-family="Helvetica,sans-Serif" font-size="10.00">rstm/rstm&#45;dev/libitm2stm</text>
<text text-anchor="middle" x="186" y="-356" font-family="Helvetica,sans-Serif" font-size="10.00">/libitm&#45;5.12.cpp</text>
</g>
<!-- Node2 -->
<g id="node2" class="node"><title>Node2</title>
<g id="a_node2"><a xlink:href="libitm_8h.html" target="_top" xlink:title="libitm.h">
<polygon fill="none" stroke="black" points="195,-180.5 195,-199.5 243,-199.5 243,-180.5 195,-180.5"/>
<text text-anchor="middle" x="219" y="-187.5" font-family="Helvetica,sans-Serif" font-size="10.00">libitm.h</text>
</a>
</g>
</g>
<!-- Node1&#45;&gt;Node2 -->
<g id="edge1" class="edge"><title>Node1&#45;&gt;Node2</title>
<path fill="none" stroke="midnightblue" d="M161.563,-348.744C142.433,-335.547 120.391,-314.601 129,-292 142.949,-255.379 176.947,-223.59 198.934,-205.891"/>
<polygon fill="midnightblue" stroke="midnightblue" points="201.251,-208.522 206.98,-199.609 196.943,-203.004 201.251,-208.522"/>
</g>
<!-- Node12 -->
<g id="node12" class="node"><title>Node12</title>
<g id="a_node12"><a xlink:href="Transaction_8h.html" target="_top" xlink:title="Transaction.h">
<polygon fill="none" stroke="black" points="252,-292.5 252,-311.5 328,-311.5 328,-292.5 252,-292.5"/>
<text text-anchor="middle" x="290" y="-299.5" font-family="Helvetica,sans-Serif" font-size="10.00">Transaction.h</text>
</a>
</g>
</g>
<!-- Node1&#45;&gt;Node12 -->
<g id="edge12" class="edge"><title>Node1&#45;&gt;Node12</title>
<path fill="none" stroke="midnightblue" d="M210.383,-348.933C227.146,-339.262 249.303,-326.479 265.985,-316.855"/>
<polygon fill="midnightblue" stroke="midnightblue" points="268.18,-319.629 275.093,-311.6 264.682,-313.566 268.18,-319.629"/>
</g>
<!-- Node17 -->
<g id="node17" class="node"><title>Node17</title>
<polygon fill="none" stroke="#bfbfbf" points="138.5,-292.5 138.5,-311.5 233.5,-311.5 233.5,-292.5 138.5,-292.5"/>
<text text-anchor="middle" x="186" y="-299.5" font-family="Helvetica,sans-Serif" font-size="10.00">TypeAlignments.h</text>
</g>
<!-- Node1&#45;&gt;Node17 -->
<g id="edge20" class="edge"><title>Node1&#45;&gt;Node17</title>
<path fill="none" stroke="midnightblue" d="M186,-348.781C186,-340.781 186,-330.689 186,-322.017"/>
<polygon fill="midnightblue" stroke="midnightblue" points="189.5,-321.73 186,-311.731 182.5,-321.731 189.5,-321.73"/>
</g>
<!-- Node18 -->
<g id="node18" class="node"><title>Node18</title>
<g id="a_node18"><a xlink:href="Utilities_8h.html" target="_top" xlink:title="Utilities.h">
<polygon fill="none" stroke="black" points="0,-292.5 0,-311.5 58,-311.5 58,-292.5 0,-292.5"/>
<text text-anchor="middle" x="29" y="-299.5" font-family="Helvetica,sans-Serif" font-size="10.00">Utilities.h</text>
</a>
</g>
</g>
<!-- Node1&#45;&gt;Node18 -->
<g id="edge21" class="edge"><title>Node1&#45;&gt;Node18</title>
<path fill="none" stroke="midnightblue" d="M149.19,-348.933C122.466,-338.72 86.6608,-325.036 61.097,-315.266"/>
<polygon fill="midnightblue" stroke="midnightblue" points="62.094,-311.901 51.5034,-311.6 59.595,-318.439 62.094,-311.901"/>
</g>
<!-- Node19 -->
<g id="node19" class="node"><title>Node19</title>
<g id="a_node19"><a xlink:href="txthread_8hpp.html" target="_top" xlink:title="stm/txthread.hpp">
<polygon fill="none" stroke="black" points="696,-292.5 696,-311.5 786,-311.5 786,-292.5 696,-292.5"/>
<text text-anchor="middle" x="741" y="-299.5" font-family="Helvetica,sans-Serif" font-size="10.00">stm/txthread.hpp</text>
</a>
</g>
</g>
<!-- Node1&#45;&gt;Node19 -->
<g id="edge23" class="edge"><title>Node1&#45;&gt;Node19</title>
<path fill="none" stroke="midnightblue" d="M248.587,-356.234C357.917,-344.414 581.923,-320.198 685.818,-308.966"/>
<polygon fill="midnightblue" stroke="midnightblue" points="686.223,-312.442 695.789,-307.888 685.471,-305.483 686.223,-312.442"/>
</g>
<!-- Node3 -->
<g id="node3" class="node"><title>Node3</title>
<g id="a_node3"><a xlink:href="itm_8h.html" target="_top" xlink:title="itm/itm.h">
<polygon fill="none" stroke="black" points="265.5,-118.5 265.5,-137.5 320.5,-137.5 320.5,-118.5 265.5,-118.5"/>
<text text-anchor="middle" x="293" y="-125.5" font-family="Helvetica,sans-Serif" font-size="10.00">itm/itm.h</text>
</a>
</g>
</g>
<!-- Node2&#45;&gt;Node3 -->
<g id="edge2" class="edge"><title>Node2&#45;&gt;Node3</title>
<path fill="none" stroke="midnightblue" d="M229.602,-180.403C241.252,-170.958 260.186,-155.606 274.335,-144.134"/>
<polygon fill="midnightblue" stroke="midnightblue" points="276.854,-146.597 282.417,-137.581 272.445,-141.16 276.854,-146.597"/>
</g>
<!-- Node6 -->
<g id="node6" class="node"><title>Node6</title>
<polygon fill="none" stroke="#bfbfbf" points="107.5,-0.5 107.5,-19.5 156.5,-19.5 156.5,-0.5 107.5,-0.5"/>
<text text-anchor="middle" x="132" y="-7.5" font-family="Helvetica,sans-Serif" font-size="10.00">stdint.h</text>
</g>
<!-- Node2&#45;&gt;Node6 -->
<g id="edge8" class="edge"><title>Node2&#45;&gt;Node6</title>
<path fill="none" stroke="midnightblue" d="M194.729,-185.618C154.783,-179.501 77.9988,-165.229 62,-144 47.5689,-124.852 76.9756,-57.5733 78,-56 85.9866,-43.7345 98.3426,-33.0845 109.221,-25.2285"/>
<polygon fill="midnightblue" stroke="midnightblue" points="111.242,-28.0867 117.516,-19.5497 107.287,-22.3105 111.242,-28.0867"/>
</g>
<!-- Node9 -->
<g id="node9" class="node"><title>Node9</title>
<polygon fill="none" stroke="#bfbfbf" points="191,-118.5 191,-137.5 247,-137.5 247,-118.5 191,-118.5"/>
<text text-anchor="middle" x="219" y="-125.5" font-family="Helvetica,sans-Serif" font-size="10.00">stdbool.h</text>
</g>
<!-- Node2&#45;&gt;Node9 -->
<g id="edge9" class="edge"><title>Node2&#45;&gt;Node9</title>
<path fill="none" stroke="midnightblue" d="M219,-180.403C219,-171.938 219,-158.728 219,-147.82"/>
<polygon fill="midnightblue" stroke="midnightblue" points="222.5,-147.581 219,-137.581 215.5,-147.581 222.5,-147.581"/>
</g>
<!-- Node10 -->
<g id="node10" class="node"><title>Node10</title>
<g id="a_node10"><a xlink:href="avxintrin__emu_8h.html" target="_top" xlink:title="alt&#45;license/avxintrin\l_emu.h">
<polygon fill="none" stroke="black" points="71.5,-113 71.5,-143 172.5,-143 172.5,-113 71.5,-113"/>
<text text-anchor="start" x="79.5" y="-131" font-family="Helvetica,sans-Serif" font-size="10.00">alt&#45;license/avxintrin</text>
<text text-anchor="middle" x="122" y="-120" font-family="Helvetica,sans-Serif" font-size="10.00">_emu.h</text>
</a>
</g>
</g>
<!-- Node2&#45;&gt;Node10 -->
<g id="edge10" class="edge"><title>Node2&#45;&gt;Node10</title>
<path fill="none" stroke="midnightblue" d="M205.102,-180.403C191.719,-172.125 171.002,-159.311 153.602,-148.547"/>
<polygon fill="midnightblue" stroke="midnightblue" points="155.207,-145.425 144.861,-143.141 151.524,-151.378 155.207,-145.425"/>
</g>
<!-- Node4 -->
<g id="node4" class="node"><title>Node4</title>
<g id="a_node4"><a xlink:href="platform_8hpp.html" target="_top" xlink:title="common/platform.hpp">
<polygon fill="none" stroke="black" points="302.5,-56.5 302.5,-75.5 413.5,-75.5 413.5,-56.5 302.5,-56.5"/>
<text text-anchor="middle" x="358" y="-63.5" font-family="Helvetica,sans-Serif" font-size="10.00">common/platform.hpp</text>
</a>
</g>
</g>
<!-- Node3&#45;&gt;Node4 -->
<g id="edge3" class="edge"><title>Node3&#45;&gt;Node4</title>
<path fill="none" stroke="midnightblue" d="M302.313,-118.403C312.449,-109.047 328.864,-93.8948 341.252,-82.4599"/>
<polygon fill="midnightblue" stroke="midnightblue" points="343.73,-84.9352 348.704,-75.5806 338.982,-79.7916 343.73,-84.9352"/>
</g>
<!-- Node5 -->
<g id="node5" class="node"><title>Node5</title>
<polygon fill="none" stroke="#bfbfbf" points="696.5,-0.5 696.5,-19.5 767.5,-19.5 767.5,-0.5 696.5,-0.5"/>
<text text-anchor="middle" x="732" y="-7.5" font-family="Helvetica,sans-Serif" font-size="10.00">stm/config.h</text>
</g>
<!-- Node4&#45;&gt;Node5 -->
<g id="edge4" class="edge"><title>Node4&#45;&gt;Node5</title>
<path fill="none" stroke="midnightblue" d="M413.588,-56.974C487.717,-46.2707 617.558,-27.5238 686.301,-17.5983"/>
<polygon fill="midnightblue" stroke="midnightblue" points="686.992,-21.0349 696.389,-16.1417 685.991,-14.1068 686.992,-21.0349"/>
</g>
<!-- Node4&#45;&gt;Node6 -->
<g id="edge5" class="edge"><title>Node4&#45;&gt;Node6</title>
<path fill="none" stroke="midnightblue" d="M322.19,-56.4435C279.531,-46.2507 208.758,-29.3403 166.627,-19.2737"/>
<polygon fill="midnightblue" stroke="midnightblue" points="167.361,-15.8506 156.821,-16.9308 165.734,-22.659 167.361,-15.8506"/>
</g>
<!-- Node7 -->
<g id="node7" class="node"><title>Node7</title>
<polygon fill="none" stroke="#bfbfbf" points="300,-0.5 300,-19.5 348,-19.5 348,-0.5 300,-0.5"/>
<text text-anchor="middle" x="324" y="-7.5" font-family="Helvetica,sans-Serif" font-size="10.00">limits.h</text>
</g>
<!-- Node4&#45;&gt;Node7 -->
<g id="edge6" class="edge"><title>Node4&#45;&gt;Node7</title>
<path fill="none" stroke="midnightblue" d="M352.386,-56.083C347.633,-48.5341 340.682,-37.4948 334.848,-28.2298"/>
<polygon fill="midnightblue" stroke="midnightblue" points="337.8,-26.3486 329.51,-19.7511 331.876,-30.0783 337.8,-26.3486"/>
</g>
<!-- Node8 -->
<g id="node8" class="node"><title>Node8</title>
<polygon fill="none" stroke="#bfbfbf" points="366.5,-0.5 366.5,-19.5 417.5,-19.5 417.5,-0.5 366.5,-0.5"/>
<text text-anchor="middle" x="392" y="-7.5" font-family="Helvetica,sans-Serif" font-size="10.00">unistd.h</text>
</g>
<!-- Node4&#45;&gt;Node8 -->
<g id="edge7" class="edge"><title>Node4&#45;&gt;Node8</title>
<path fill="none" stroke="midnightblue" d="M363.614,-56.083C368.367,-48.5341 375.318,-37.4948 381.152,-28.2298"/>
<polygon fill="midnightblue" stroke="midnightblue" points="384.124,-30.0783 386.49,-19.7511 378.2,-26.3486 384.124,-30.0783"/>
</g>
<!-- Node11 -->
<g id="node11" class="node"><title>Node11</title>
<polygon fill="none" stroke="#bfbfbf" points="87,-56.5 87,-75.5 157,-75.5 157,-56.5 87,-56.5"/>
<text text-anchor="middle" x="122" y="-63.5" font-family="Helvetica,sans-Serif" font-size="10.00">wmmintrin.h</text>
</g>
<!-- Node10&#45;&gt;Node11 -->
<g id="edge11" class="edge"><title>Node10&#45;&gt;Node11</title>
<path fill="none" stroke="midnightblue" d="M122,-112.781C122,-104.781 122,-94.6887 122,-86.0168"/>
<polygon fill="midnightblue" stroke="midnightblue" points="125.5,-85.7305 122,-75.7305 118.5,-85.7306 125.5,-85.7305"/>
</g>
<!-- Node12&#45;&gt;Node2 -->
<g id="edge13" class="edge"><title>Node12&#45;&gt;Node2</title>
<path fill="none" stroke="midnightblue" d="M282.335,-292.394C274.686,-283.592 262.831,-269.352 254,-256 243.859,-240.666 234.094,-222.11 227.467,-208.755"/>
<polygon fill="midnightblue" stroke="midnightblue" points="230.582,-207.156 223.058,-199.697 224.288,-210.22 230.582,-207.156"/>
</g>
<!-- Node13 -->
<g id="node13" class="node"><title>Node13</title>
<g id="a_node13"><a xlink:href="Scope_8h.html" target="_top" xlink:title="Scope.h">
<polygon fill="none" stroke="black" points="263.5,-236.5 263.5,-255.5 316.5,-255.5 316.5,-236.5 263.5,-236.5"/>
<text text-anchor="middle" x="290" y="-243.5" font-family="Helvetica,sans-Serif" font-size="10.00">Scope.h</text>
</a>
</g>
</g>
<!-- Node12&#45;&gt;Node13 -->
<g id="edge14" class="edge"><title>Node12&#45;&gt;Node13</title>
<path fill="none" stroke="midnightblue" d="M290,-292.083C290,-285.006 290,-274.861 290,-265.986"/>
<polygon fill="midnightblue" stroke="midnightblue" points="293.5,-265.751 290,-255.751 286.5,-265.751 293.5,-265.751"/>
</g>
<!-- Node13&#45;&gt;Node2 -->
<g id="edge16" class="edge"><title>Node13&#45;&gt;Node2</title>
<path fill="none" stroke="midnightblue" d="M278.593,-236.324C267.891,-228.185 251.659,-215.839 238.837,-206.087"/>
<polygon fill="midnightblue" stroke="midnightblue" points="240.693,-203.102 230.615,-199.834 236.456,-208.673 240.693,-203.102"/>
</g>
<!-- Node14 -->
<g id="node14" class="node"><title>Node14</title>
<polygon fill="none" stroke="#bfbfbf" points="268,-180.5 268,-199.5 312,-199.5 312,-180.5 268,-180.5"/>
<text text-anchor="middle" x="290" y="-187.5" font-family="Helvetica,sans-Serif" font-size="10.00">vector</text>
</g>
<!-- Node13&#45;&gt;Node14 -->
<g id="edge15" class="edge"><title>Node13&#45;&gt;Node14</title>
<path fill="none" stroke="midnightblue" d="M290,-236.083C290,-229.006 290,-218.861 290,-209.986"/>
<polygon fill="midnightblue" stroke="midnightblue" points="293.5,-209.751 290,-199.751 286.5,-209.751 293.5,-209.751"/>
</g>
<!-- Node15 -->
<g id="node15" class="node"><title>Node15</title>
<g id="a_node15"><a xlink:href="Checkpoint_8h.html" target="_top" xlink:title="Checkpoint.h">
<polygon fill="none" stroke="black" points="337,-180.5 337,-199.5 411,-199.5 411,-180.5 337,-180.5"/>
<text text-anchor="middle" x="374" y="-187.5" font-family="Helvetica,sans-Serif" font-size="10.00">Checkpoint.h</text>
</a>
</g>
</g>
<!-- Node13&#45;&gt;Node15 -->
<g id="edge17" class="edge"><title>Node13&#45;&gt;Node15</title>
<path fill="none" stroke="midnightblue" d="M303.496,-236.324C316.6,-227.9 336.712,-214.971 352.107,-205.074"/>
<polygon fill="midnightblue" stroke="midnightblue" points="354.018,-208.006 360.537,-199.655 350.233,-202.118 354.018,-208.006"/>
</g>
<!-- Node15&#45;&gt;Node5 -->
<g id="edge18" class="edge"><title>Node15&#45;&gt;Node5</title>
<path fill="none" stroke="midnightblue" d="M384.963,-180.276C395.049,-171.822 409.928,-158.223 420,-144 444.937,-108.788 426.642,-82.1011 461,-56 495.607,-29.7099 618.288,-18.0454 686.101,-13.5066"/>
<polygon fill="midnightblue" stroke="midnightblue" points="686.737,-16.973 696.492,-12.8381 686.288,-9.98743 686.737,-16.973"/>
</g>
<!-- Node16 -->
<g id="node16" class="node"><title>Node16</title>
<polygon fill="none" stroke="#bfbfbf" points="339,-118.5 339,-137.5 411,-137.5 411,-118.5 339,-118.5"/>
<text text-anchor="middle" x="375" y="-125.5" font-family="Helvetica,sans-Serif" font-size="10.00">checkpoint.h</text>
</g>
<!-- Node15&#45;&gt;Node16 -->
<g id="edge19" class="edge"><title>Node15&#45;&gt;Node16</title>
<path fill="none" stroke="midnightblue" d="M374.143,-180.403C374.284,-171.938 374.505,-158.728 374.686,-147.82"/>
<polygon fill="midnightblue" stroke="midnightblue" points="378.19,-147.638 374.857,-137.581 371.191,-147.521 378.19,-147.638"/>
</g>
<!-- Node18&#45;&gt;Node6 -->
<g id="edge22" class="edge"><title>Node18&#45;&gt;Node6</title>
<path fill="none" stroke="midnightblue" d="M25.7633,-292.301C19.2123,-273.889 5,-229.507 5,-191 5,-191 5,-191 5,-127 5,-75.7395 62.1035,-41.0667 99.7293,-23.7843"/>
<polygon fill="midnightblue" stroke="midnightblue" points="101.556,-26.8042 109.295,-19.5684 98.7327,-20.3987 101.556,-26.8042"/>
</g>
<!-- Node20 -->
<g id="node20" class="node"><title>Node20</title>
<g id="a_node20"><a xlink:href="rand__r__32_8h.html" target="_top" xlink:title="alt&#45;license/rand_r_32.h">
<polygon fill="none" stroke="black" points="845.5,-236.5 845.5,-255.5 960.5,-255.5 960.5,-236.5 845.5,-236.5"/>
<text text-anchor="middle" x="903" y="-243.5" font-family="Helvetica,sans-Serif" font-size="10.00">alt&#45;license/rand_r_32.h</text>
</a>
</g>
</g>
<!-- Node19&#45;&gt;Node20 -->
<g id="edge24" class="edge"><title>Node19&#45;&gt;Node20</title>
<path fill="none" stroke="midnightblue" d="M766.669,-292.444C793.923,-283.359 837.184,-268.939 867.651,-258.783"/>
<polygon fill="midnightblue" stroke="midnightblue" points="869.071,-261.999 877.451,-255.516 866.857,-255.358 869.071,-261.999"/>
</g>
<!-- Node22 -->
<g id="node22" class="node"><title>Node22</title>
<g id="a_node22"><a xlink:href="locks_8hpp.html" target="_top" xlink:title="common/locks.hpp">
<polygon fill="none" stroke="black" points="425.5,-236.5 425.5,-255.5 524.5,-255.5 524.5,-236.5 425.5,-236.5"/>
<text text-anchor="middle" x="475" y="-243.5" font-family="Helvetica,sans-Serif" font-size="10.00">common/locks.hpp</text>
</a>
</g>
</g>
<!-- Node19&#45;&gt;Node22 -->
<g id="edge27" class="edge"><title>Node19&#45;&gt;Node22</title>
<path fill="none" stroke="midnightblue" d="M698.852,-292.444C652.254,-282.984 577.156,-267.738 526.955,-257.547"/>
<polygon fill="midnightblue" stroke="midnightblue" points="527.448,-254.076 516.951,-255.516 526.055,-260.936 527.448,-254.076"/>
</g>
<!-- Node23 -->
<g id="node23" class="node"><title>Node23</title>
<g id="a_node23"><a xlink:href="ThreadLocal_8hpp.html" target="_top" xlink:title="common/ThreadLocal.hpp">
<polygon fill="none" stroke="black" points="978.5,-236.5 978.5,-255.5 1107.5,-255.5 1107.5,-236.5 978.5,-236.5"/>
<text text-anchor="middle" x="1043" y="-243.5" font-family="Helvetica,sans-Serif" font-size="10.00">common/ThreadLocal.hpp</text>
</a>
</g>
</g>
<!-- Node19&#45;&gt;Node23 -->
<g id="edge29" class="edge"><title>Node19&#45;&gt;Node23</title>
<path fill="none" stroke="midnightblue" d="M786.212,-292.916C839.222,-283.437 927.188,-267.708 985.133,-257.347"/>
<polygon fill="midnightblue" stroke="midnightblue" points="986.003,-260.747 995.231,-255.541 984.771,-253.856 986.003,-260.747"/>
</g>
<!-- Node24 -->
<g id="node24" class="node"><title>Node24</title>
<g id="a_node24"><a xlink:href="metadata_8hpp.html" target="_top" xlink:title="stm/metadata.hpp">
<polygon fill="none" stroke="black" points="617.5,-180.5 617.5,-199.5 712.5,-199.5 712.5,-180.5 617.5,-180.5"/>
<text text-anchor="middle" x="665" y="-187.5" font-family="Helvetica,sans-Serif" font-size="10.00">stm/metadata.hpp</text>
</a>
</g>
</g>
<!-- Node19&#45;&gt;Node24 -->
<g id="edge31" class="edge"><title>Node19&#45;&gt;Node24</title>
<path fill="none" stroke="midnightblue" d="M725.472,-292.465C712.565,-284.603 694.647,-271.783 684,-256 674.652,-242.141 669.826,-223.626 667.384,-209.901"/>
<polygon fill="midnightblue" stroke="midnightblue" points="670.799,-209.073 665.845,-199.707 663.877,-210.117 670.799,-209.073"/>
</g>
<!-- Node30 -->
<g id="node30" class="node"><title>Node30</title>
<g id="a_node30"><a xlink:href="WriteSet_8hpp.html" target="_top" xlink:title="stm/WriteSet.hpp">
<polygon fill="none" stroke="black" points="812.5,-118.5 812.5,-137.5 905.5,-137.5 905.5,-118.5 812.5,-118.5"/>
<text text-anchor="middle" x="859" y="-125.5" font-family="Helvetica,sans-Serif" font-size="10.00">stm/WriteSet.hpp</text>
</a>
</g>
</g>
<!-- Node19&#45;&gt;Node30 -->
<g id="edge41" class="edge"><title>Node19&#45;&gt;Node30</title>
<path fill="none" stroke="midnightblue" d="M754.877,-292.408C767.182,-284.243 785.012,-271.007 797,-256 824.335,-221.781 843.693,-173.537 852.909,-147.462"/>
<polygon fill="midnightblue" stroke="midnightblue" points="856.306,-148.345 856.232,-137.751 849.683,-146.079 856.306,-148.345"/>
</g>
<!-- Node32 -->
<g id="node32" class="node"><title>Node32</title>
<g id="a_node32"><a xlink:href="UndoLog_8hpp.html" target="_top" xlink:title="stm/UndoLog.hpp">
<polygon fill="none" stroke="black" points="1078,-180.5 1078,-199.5 1172,-199.5 1172,-180.5 1078,-180.5"/>
<text text-anchor="middle" x="1125" y="-187.5" font-family="Helvetica,sans-Serif" font-size="10.00">stm/UndoLog.hpp</text>
</a>
</g>
</g>
<!-- Node19&#45;&gt;Node32 -->
<g id="edge46" class="edge"><title>Node19&#45;&gt;Node32</title>
<path fill="none" stroke="midnightblue" d="M786.1,-298.639C880.644,-293.261 1092.81,-278.771 1116,-256 1128.05,-244.169 1129.16,-224.249 1127.96,-209.572"/>
<polygon fill="midnightblue" stroke="midnightblue" points="1131.43,-209.092 1126.74,-199.592 1124.48,-209.943 1131.43,-209.092"/>
</g>
<!-- Node34 -->
<g id="node34" class="node"><title>Node34</title>
<g id="a_node34"><a xlink:href="ValueList_8hpp.html" target="_top" xlink:title="stm/ValueList.hpp">
<polygon fill="none" stroke="black" points="504.5,-180.5 504.5,-199.5 599.5,-199.5 599.5,-180.5 504.5,-180.5"/>
<text text-anchor="middle" x="552" y="-187.5" font-family="Helvetica,sans-Serif" font-size="10.00">stm/ValueList.hpp</text>
</a>
</g>
</g>
<!-- Node19&#45;&gt;Node34 -->
<g id="edge51" class="edge"><title>Node19&#45;&gt;Node34</title>
<path fill="none" stroke="midnightblue" d="M726.169,-292.368C693.461,-273.332 614.912,-227.615 575.454,-204.65"/>
<polygon fill="midnightblue" stroke="midnightblue" points="577.165,-201.597 566.762,-199.591 573.644,-207.647 577.165,-201.597"/>
</g>
<!-- Node35 -->
<g id="node35" class="node"><title>Node35</title>
<g id="a_node35"><a xlink:href="WBMMPolicy_8hpp.html" target="_top" xlink:title="WBMMPolicy.hpp">
<polygon fill="none" stroke="black" points="693.5,-236.5 693.5,-255.5 788.5,-255.5 788.5,-236.5 693.5,-236.5"/>
<text text-anchor="middle" x="741" y="-243.5" font-family="Helvetica,sans-Serif" font-size="10.00">WBMMPolicy.hpp</text>
</a>
</g>
</g>
<!-- Node19&#45;&gt;Node35 -->
<g id="edge54" class="edge"><title>Node19&#45;&gt;Node35</title>
<path fill="none" stroke="midnightblue" d="M741,-292.083C741,-285.006 741,-274.861 741,-265.986"/>
<polygon fill="midnightblue" stroke="midnightblue" points="744.5,-265.751 741,-255.751 737.5,-265.751 744.5,-265.751"/>
</g>
<!-- Node20&#45;&gt;Node5 -->
<g id="edge26" class="edge"><title>Node20&#45;&gt;Node5</title>
<path fill="none" stroke="midnightblue" d="M910.746,-236.405C935.756,-207.606 1010.07,-113.123 963,-56 939.974,-28.055 838.098,-17.2347 777.596,-13.2219"/>
<polygon fill="midnightblue" stroke="midnightblue" points="777.734,-9.72378 767.534,-12.5918 777.296,-16.7101 777.734,-9.72378"/>
</g>
<!-- Node21 -->
<g id="node21" class="node"><title>Node21</title>
<polygon fill="none" stroke="#bfbfbf" points="863,-180.5 863,-199.5 911,-199.5 911,-180.5 863,-180.5"/>
<text text-anchor="middle" x="887" y="-187.5" font-family="Helvetica,sans-Serif" font-size="10.00">stdlib.h</text>
</g>
<!-- Node20&#45;&gt;Node21 -->
<g id="edge25" class="edge"><title>Node20&#45;&gt;Node21</title>
<path fill="none" stroke="midnightblue" d="M900.358,-236.083C898.214,-228.849 895.121,-218.409 892.451,-209.397"/>
<polygon fill="midnightblue" stroke="midnightblue" points="895.79,-208.345 889.593,-199.751 889.078,-210.333 895.79,-208.345"/>
</g>
<!-- Node22&#45;&gt;Node4 -->
<g id="edge28" class="edge"><title>Node22&#45;&gt;Node4</title>
<path fill="none" stroke="midnightblue" d="M473.172,-236.387C468.061,-213.911 451.864,-152.424 420,-112 409.996,-99.3081 395.521,-88.5267 383.073,-80.7013"/>
<polygon fill="midnightblue" stroke="midnightblue" points="384.837,-77.6782 374.46,-75.5407 381.239,-83.6829 384.837,-77.6782"/>
</g>
<!-- Node23&#45;&gt;Node5 -->
<g id="edge30" class="edge"><title>Node23&#45;&gt;Node5</title>
<path fill="none" stroke="midnightblue" d="M1043.16,-236.192C1043.18,-205.881 1038.89,-105.055 983,-56 953.138,-29.7875 841.743,-18.2098 777.839,-13.6312"/>
<polygon fill="midnightblue" stroke="midnightblue" points="777.846,-10.1236 767.63,-12.9303 777.367,-17.1071 777.846,-10.1236"/>
</g>
<!-- Node24&#45;&gt;Node5 -->
<g id="edge32" class="edge"><title>Node24&#45;&gt;Node5</title>
<path fill="none" stroke="midnightblue" d="M660.147,-180.463C648.182,-158.171 619.993,-97.0892 645,-56 654.46,-40.4569 671.21,-30.0455 687.505,-23.1913"/>
<polygon fill="midnightblue" stroke="midnightblue" points="688.903,-26.4035 696.987,-19.5548 686.397,-19.8676 688.903,-26.4035"/>
</g>
<!-- Node25 -->
<g id="node25" class="node"><title>Node25</title>
<g id="a_node25"><a xlink:href="MiniVector_8hpp.html" target="_top" xlink:title="stm/MiniVector.hpp">
<polygon fill="none" stroke="black" points="654.5,-118.5 654.5,-137.5 755.5,-137.5 755.5,-118.5 654.5,-118.5"/>
<text text-anchor="middle" x="705" y="-125.5" font-family="Helvetica,sans-Serif" font-size="10.00">stm/MiniVector.hpp</text>
</a>
</g>
</g>
<!-- Node24&#45;&gt;Node25 -->
<g id="edge33" class="edge"><title>Node24&#45;&gt;Node25</title>
<path fill="none" stroke="midnightblue" d="M670.731,-180.403C676.672,-171.493 686.117,-157.325 693.588,-146.118"/>
<polygon fill="midnightblue" stroke="midnightblue" points="696.645,-147.843 699.28,-137.581 690.82,-143.96 696.645,-147.843"/>
</g>
<!-- Node29 -->
<g id="node29" class="node"><title>Node29</title>
<g id="a_node29"><a xlink:href="BitFilter_8hpp.html" target="_top" xlink:title="stm/BitFilter.hpp">
<polygon fill="none" stroke="black" points="470.5,-56.5 470.5,-75.5 559.5,-75.5 559.5,-56.5 470.5,-56.5"/>
<text text-anchor="middle" x="515" y="-63.5" font-family="Helvetica,sans-Serif" font-size="10.00">stm/BitFilter.hpp</text>
</a>
</g>
</g>
<!-- Node24&#45;&gt;Node29 -->
<g id="edge38" class="edge"><title>Node24&#45;&gt;Node29</title>
<path fill="none" stroke="midnightblue" d="M654.212,-180.226C628.915,-159.651 565.516,-108.086 533.752,-82.2517"/>
<polygon fill="midnightblue" stroke="midnightblue" points="535.656,-79.289 525.69,-75.6944 531.239,-84.7196 535.656,-79.289"/>
</g>
<!-- Node25&#45;&gt;Node4 -->
<g id="edge37" class="edge"><title>Node25&#45;&gt;Node4</title>
<path fill="none" stroke="midnightblue" d="M655.652,-118.467C592.827,-107.604 484.394,-88.8549 417.19,-77.2346"/>
<polygon fill="midnightblue" stroke="midnightblue" points="417.628,-73.7585 407.178,-75.5034 416.435,-80.6561 417.628,-73.7585"/>
</g>
<!-- Node26 -->
<g id="node26" class="node"><title>Node26</title>
<polygon fill="none" stroke="#bfbfbf" points="760.5,-56.5 760.5,-75.5 809.5,-75.5 809.5,-56.5 760.5,-56.5"/>
<text text-anchor="middle" x="785" y="-63.5" font-family="Helvetica,sans-Serif" font-size="10.00">cassert</text>
</g>
<!-- Node25&#45;&gt;Node26 -->
<g id="edge34" class="edge"><title>Node25&#45;&gt;Node26</title>
<path fill="none" stroke="midnightblue" d="M716.462,-118.403C729.175,-108.869 749.913,-93.3154 765.253,-81.8106"/>
<polygon fill="midnightblue" stroke="midnightblue" points="767.659,-84.3806 773.559,-75.5806 763.459,-78.7806 767.659,-84.3806"/>
</g>
<!-- Node27 -->
<g id="node27" class="node"><title>Node27</title>
<polygon fill="none" stroke="#bfbfbf" points="827.5,-56.5 827.5,-75.5 872.5,-75.5 872.5,-56.5 827.5,-56.5"/>
<text text-anchor="middle" x="850" y="-63.5" font-family="Helvetica,sans-Serif" font-size="10.00">cstdlib</text>
</g>
<!-- Node25&#45;&gt;Node27 -->
<g id="edge35" class="edge"><title>Node25&#45;&gt;Node27</title>
<path fill="none" stroke="midnightblue" d="M725.775,-118.403C750.432,-108.2 791.745,-91.1055 819.902,-79.4544"/>
<polygon fill="midnightblue" stroke="midnightblue" points="821.362,-82.6382 829.264,-75.5806 818.685,-76.1701 821.362,-82.6382"/>
</g>
<!-- Node28 -->
<g id="node28" class="node"><title>Node28</title>
<polygon fill="none" stroke="#bfbfbf" points="654.5,-56.5 654.5,-75.5 703.5,-75.5 703.5,-56.5 654.5,-56.5"/>
<text text-anchor="middle" x="679" y="-63.5" font-family="Helvetica,sans-Serif" font-size="10.00">string.h</text>
</g>
<!-- Node25&#45;&gt;Node28 -->
<g id="edge36" class="edge"><title>Node25&#45;&gt;Node28</title>
<path fill="none" stroke="midnightblue" d="M701.275,-118.403C697.491,-109.671 691.519,-95.8893 686.711,-84.7936"/>
<polygon fill="midnightblue" stroke="midnightblue" points="689.906,-83.3645 682.718,-75.5806 683.483,-86.1478 689.906,-83.3645"/>
</g>
<!-- Node29&#45;&gt;Node5 -->
<g id="edge39" class="edge"><title>Node29&#45;&gt;Node5</title>
<path fill="none" stroke="midnightblue" d="M549.384,-56.4435C586.922,-47.1024 647.131,-32.1194 688.067,-21.9326"/>
<polygon fill="midnightblue" stroke="midnightblue" points="688.918,-25.3278 697.777,-19.5164 687.227,-18.5349 688.918,-25.3278"/>
</g>
<!-- Node29&#45;&gt;Node6 -->
<g id="edge40" class="edge"><title>Node29&#45;&gt;Node6</title>
<path fill="none" stroke="midnightblue" d="M470.315,-58.6998C393.174,-47.8235 236.599,-25.7476 166.864,-15.9155"/>
<polygon fill="midnightblue" stroke="midnightblue" points="167.224,-12.4318 156.833,-14.5013 166.247,-19.3632 167.224,-12.4318"/>
</g>
<!-- Node30&#45;&gt;Node5 -->
<g id="edge42" class="edge"><title>Node30&#45;&gt;Node5</title>
<path fill="none" stroke="midnightblue" d="M885.233,-118.441C918.113,-106.344 967.684,-82.7177 946,-56 925.223,-30.3994 834.129,-18.8228 777.699,-14.025"/>
<polygon fill="midnightblue" stroke="midnightblue" points="777.841,-10.525 767.591,-13.2061 777.275,-17.5022 777.841,-10.525"/>
</g>
<!-- Node30&#45;&gt;Node26 -->
<g id="edge45" class="edge"><title>Node30&#45;&gt;Node26</title>
<path fill="none" stroke="midnightblue" d="M848.398,-118.403C836.748,-108.958 817.814,-93.6056 803.665,-82.1342"/>
<polygon fill="midnightblue" stroke="midnightblue" points="805.555,-79.16 795.583,-75.5806 801.146,-84.5973 805.555,-79.16"/>
</g>
<!-- Node30&#45;&gt;Node27 -->
<g id="edge43" class="edge"><title>Node30&#45;&gt;Node27</title>
<path fill="none" stroke="midnightblue" d="M857.711,-118.403C856.427,-109.849 854.417,-96.4497 852.771,-85.4762"/>
<polygon fill="midnightblue" stroke="midnightblue" points="856.232,-84.9507 851.287,-75.5806 849.309,-85.9892 856.232,-84.9507"/>
</g>
<!-- Node31 -->
<g id="node31" class="node"><title>Node31</title>
<polygon fill="none" stroke="#bfbfbf" points="891,-56.5 891,-75.5 937,-75.5 937,-56.5 891,-56.5"/>
<text text-anchor="middle" x="914" y="-63.5" font-family="Helvetica,sans-Serif" font-size="10.00">cstring</text>
</g>
<!-- Node30&#45;&gt;Node31 -->
<g id="edge44" class="edge"><title>Node30&#45;&gt;Node31</title>
<path fill="none" stroke="midnightblue" d="M866.88,-118.403C875.294,-109.225 888.819,-94.4699 899.226,-83.1173"/>
<polygon fill="midnightblue" stroke="midnightblue" points="901.957,-85.3172 906.134,-75.5806 896.797,-80.5871 901.957,-85.3172"/>
</g>
<!-- Node32&#45;&gt;Node5 -->
<g id="edge47" class="edge"><title>Node32&#45;&gt;Node5</title>
<path fill="none" stroke="midnightblue" d="M1119.86,-180.46C1114.5,-171.472 1105.93,-156.871 1099,-144 1078.27,-105.496 1090.52,-81.5064 1055,-56 1011.54,-24.7887 856.175,-15.135 777.845,-12.2199"/>
<polygon fill="midnightblue" stroke="midnightblue" points="777.894,-8.71952 767.778,-11.8666 777.649,-15.7152 777.894,-8.71952"/>
</g>
<!-- Node32&#45;&gt;Node25 -->
<g id="edge48" class="edge"><title>Node32&#45;&gt;Node25</title>
<path fill="none" stroke="midnightblue" d="M1077.78,-182.596C1014.99,-174.038 900.599,-158.289 803,-144 790.959,-142.237 778.094,-140.304 765.778,-138.429"/>
<polygon fill="midnightblue" stroke="midnightblue" points="766.006,-134.923 755.592,-136.872 764.949,-141.843 766.006,-134.923"/>
</g>
<!-- Node33 -->
<g id="node33" class="node"><title>Node33</title>
<g id="a_node33"><a xlink:href="include_2stm_2macros_8hpp.html" target="_top" xlink:title="stm/macros.hpp">
<polygon fill="none" stroke="black" points="1107.5,-118.5 1107.5,-137.5 1194.5,-137.5 1194.5,-118.5 1107.5,-118.5"/>
<text text-anchor="middle" x="1151" y="-125.5" font-family="Helvetica,sans-Serif" font-size="10.00">stm/macros.hpp</text>
</a>
</g>
</g>
<!-- Node32&#45;&gt;Node33 -->
<g id="edge49" class="edge"><title>Node32&#45;&gt;Node33</title>
<path fill="none" stroke="midnightblue" d="M1128.73,-180.403C1132.51,-171.671 1138.48,-157.889 1143.29,-146.794"/>
<polygon fill="midnightblue" stroke="midnightblue" points="1146.52,-148.148 1147.28,-137.581 1140.09,-145.365 1146.52,-148.148"/>
</g>
<!-- Node33&#45;&gt;Node5 -->
<g id="edge50" class="edge"><title>Node33&#45;&gt;Node5</title>
<path fill="none" stroke="midnightblue" d="M1146.7,-118.193C1138.6,-102.653 1119.47,-70.6289 1093,-56 1039.8,-26.5975 862.535,-15.9701 777.831,-12.5062"/>
<polygon fill="midnightblue" stroke="midnightblue" points="777.861,-9.00475 767.731,-12.1093 777.586,-15.9994 777.861,-9.00475"/>
</g>
<!-- Node34&#45;&gt;Node5 -->
<g id="edge52" class="edge"><title>Node34&#45;&gt;Node5</title>
<path fill="none" stroke="midnightblue" d="M555.241,-180.337C564.288,-157.203 591.948,-93.2099 634,-56 650.792,-41.1413 673.322,-30.3363 692.545,-23.0442"/>
<polygon fill="midnightblue" stroke="midnightblue" points="693.743,-26.3329 701.961,-19.6464 691.367,-19.7484 693.743,-26.3329"/>
</g>
<!-- Node34&#45;&gt;Node25 -->
<g id="edge53" class="edge"><title>Node34&#45;&gt;Node25</title>
<path fill="none" stroke="midnightblue" d="M573.921,-180.403C600.052,-170.156 643.912,-152.956 673.63,-141.302"/>
<polygon fill="midnightblue" stroke="midnightblue" points="675.088,-144.49 683.119,-137.581 672.532,-137.973 675.088,-144.49"/>
</g>
<!-- Node35&#45;&gt;Node5 -->
<g id="edge56" class="edge"><title>Node35&#45;&gt;Node5</title>
<path fill="none" stroke="midnightblue" d="M744.604,-236.284C752.933,-215.032 772.201,-158.857 764,-112 761.067,-95.2435 756.278,-92.1718 751,-76 745.927,-60.4573 740.759,-42.6204 737.096,-29.5681"/>
<polygon fill="midnightblue" stroke="midnightblue" points="740.456,-28.5844 734.408,-19.8849 733.711,-30.4567 740.456,-28.5844"/>
</g>
<!-- Node35&#45;&gt;Node21 -->
<g id="edge55" class="edge"><title>Node35&#45;&gt;Node21</title>
<path fill="none" stroke="midnightblue" d="M764.134,-236.444C788.482,-227.438 827.007,-213.189 854.423,-203.049"/>
<polygon fill="midnightblue" stroke="midnightblue" points="855.809,-206.268 863.974,-199.516 853.381,-199.703 855.809,-206.268"/>
</g>
<!-- Node35&#45;&gt;Node24 -->
<g id="edge58" class="edge"><title>Node35&#45;&gt;Node24</title>
<path fill="none" stroke="midnightblue" d="M728.789,-236.324C717.224,-228.107 699.625,-215.602 685.839,-205.807"/>
<polygon fill="midnightblue" stroke="midnightblue" points="687.612,-202.773 677.433,-199.834 683.557,-208.479 687.612,-202.773"/>
</g>
<!-- Node35&#45;&gt;Node25 -->
<g id="edge57" class="edge"><title>Node35&#45;&gt;Node25</title>
<path fill="none" stroke="midnightblue" d="M738.298,-236.164C734.469,-223.655 727.236,-200.07 721,-180 717.639,-169.183 713.846,-157.087 710.796,-147.39"/>
<polygon fill="midnightblue" stroke="midnightblue" points="714.074,-146.146 707.732,-137.658 707.397,-148.248 714.074,-146.146"/>
</g>
</g>
</svg>
