<?xml version="1.0" encoding="UTF-8" standalone="no"?>
<!DOCTYPE svg PUBLIC "-//W3C//DTD SVG 1.1//EN"
 "http://www.w3.org/Graphics/SVG/1.1/DTD/svg11.dtd">
<!-- Generated by graphviz version 2.36.0 (20140111.2315)
 -->
<!-- Title: rstm/rstm&#45;dev/libitm2stm/libitm&#45;5.7.cpp Pages: 1 -->
<svg width="1219pt" height="388pt"
 viewBox="0.00 0.00 1219.36 388.00" xmlns="http://www.w3.org/2000/svg" xmlns:xlink="http://www.w3.org/1999/xlink">
<g id="graph0" class="graph" transform="scale(1 1) rotate(0) translate(4 384)">
<title>rstm/rstm&#45;dev/libitm2stm/libitm&#45;5.7.cpp</title>
<!-- Node1 -->
<g id="node1" class="node"><title>Node1</title>
<polygon fill="#bfbfbf" stroke="black" points="355.858,-349 355.858,-379 480.858,-379 480.858,-349 355.858,-349"/>
<text text-anchor="start" x="363.858" y="-367" font-family="Helvetica,sans-Serif" font-size="10.00">rstm/rstm&#45;dev/libitm2stm</text>
<text text-anchor="middle" x="418.358" y="-356" font-family="Helvetica,sans-Serif" font-size="10.00">/libitm&#45;5.7.cpp</text>
</g>
<!-- Node2 -->
<g id="node2" class="node"><title>Node2</title>
<g id="a_node2"><a xlink:href="libitm_8h.html" target="_top" xlink:title="libitm.h">
<polygon fill="none" stroke="black" points="156.358,-180.5 156.358,-199.5 204.358,-199.5 204.358,-180.5 156.358,-180.5"/>
<text text-anchor="middle" x="180.358" y="-187.5" font-family="Helvetica,sans-Serif" font-size="10.00">libitm.h</text>
</a>
</g>
</g>
<!-- Node1&#45;&gt;Node2 -->
<g id="edge1" class="edge"><title>Node1&#45;&gt;Node2</title>
<path fill="none" stroke="midnightblue" d="M355.669,-360.743C314.358,-356.107 261.583,-343.751 226.358,-312 196.414,-285.01 185.849,-236.437 182.206,-209.778"/>
<polygon fill="midnightblue" stroke="midnightblue" points="185.679,-209.342 181.033,-199.821 178.727,-210.162 185.679,-209.342"/>
</g>
<!-- Node4 -->
<g id="node4" class="node"><title>Node4</title>
<g id="a_node4"><a xlink:href="platform_8hpp.html" target="_top" xlink:title="common/platform.hpp">
<polygon fill="none" stroke="black" points="258.858,-56.5 258.858,-75.5 369.858,-75.5 369.858,-56.5 258.858,-56.5"/>
<text text-anchor="middle" x="314.358" y="-63.5" font-family="Helvetica,sans-Serif" font-size="10.00">common/platform.hpp</text>
</a>
</g>
</g>
<!-- Node1&#45;&gt;Node4 -->
<g id="edge20" class="edge"><title>Node1&#45;&gt;Node4</title>
<path fill="none" stroke="midnightblue" d="M418.358,-348.713C418.358,-326.82 418.358,-283.653 418.358,-247 418.358,-247 418.358,-247 418.358,-189 418.358,-140.068 369.306,-100.804 338.577,-81.0083"/>
<polygon fill="midnightblue" stroke="midnightblue" points="340.046,-77.8004 329.704,-75.5005 336.354,-83.7479 340.046,-77.8004"/>
</g>
<!-- Node12 -->
<g id="node12" class="node"><title>Node12</title>
<g id="a_node12"><a xlink:href="Transaction_8h.html" target="_top" xlink:title="Transaction.h">
<polygon fill="none" stroke="black" points="235.358,-292.5 235.358,-311.5 311.358,-311.5 311.358,-292.5 235.358,-292.5"/>
<text text-anchor="middle" x="273.358" y="-299.5" font-family="Helvetica,sans-Serif" font-size="10.00">Transaction.h</text>
</a>
</g>
</g>
<!-- Node1&#45;&gt;Node12 -->
<g id="edge12" class="edge"><title>Node1&#45;&gt;Node12</title>
<path fill="none" stroke="midnightblue" d="M384.362,-348.933C359.899,-338.81 327.196,-325.278 303.631,-315.527"/>
<polygon fill="midnightblue" stroke="midnightblue" points="304.72,-312.19 294.141,-311.6 302.043,-318.658 304.72,-312.19"/>
</g>
<!-- Node17 -->
<g id="node17" class="node"><title>Node17</title>
<g id="a_node17"><a xlink:href="txthread_8hpp.html" target="_top" xlink:title="stm/txthread.hpp">
<polygon fill="none" stroke="black" points="762.358,-292.5 762.358,-311.5 852.358,-311.5 852.358,-292.5 762.358,-292.5"/>
<text text-anchor="middle" x="807.358" y="-299.5" font-family="Helvetica,sans-Serif" font-size="10.00">stm/txthread.hpp</text>
</a>
</g>
</g>
<!-- Node1&#45;&gt;Node17 -->
<g id="edge21" class="edge"><title>Node1&#45;&gt;Node17</title>
<path fill="none" stroke="midnightblue" d="M481.29,-353.293C556.302,-341.723 680.464,-322.572 751.979,-311.542"/>
<polygon fill="midnightblue" stroke="midnightblue" points="752.786,-314.959 762.136,-309.975 751.719,-308.041 752.786,-314.959"/>
</g>
<!-- Node34 -->
<g id="node34" class="node"><title>Node34</title>
<g id="a_node34"><a xlink:href="lib__globals_8hpp.html" target="_top" xlink:title="stm/lib_globals.hpp">
<polygon fill="none" stroke="black" points="563.858,-236.5 563.858,-255.5 664.858,-255.5 664.858,-236.5 563.858,-236.5"/>
<text text-anchor="middle" x="614.358" y="-243.5" font-family="Helvetica,sans-Serif" font-size="10.00">stm/lib_globals.hpp</text>
</a>
</g>
</g>
<!-- Node1&#45;&gt;Node34 -->
<g id="edge57" class="edge"><title>Node1&#45;&gt;Node34</title>
<path fill="none" stroke="midnightblue" d="M442.391,-348.776C480.274,-326.356 553.412,-283.07 590.921,-260.871"/>
<polygon fill="midnightblue" stroke="midnightblue" points="592.823,-263.812 599.646,-255.707 589.258,-257.788 592.823,-263.812"/>
</g>
<!-- Node3 -->
<g id="node3" class="node"><title>Node3</title>
<g id="a_node3"><a xlink:href="itm_8h.html" target="_top" xlink:title="itm/itm.h">
<polygon fill="none" stroke="black" points="132.858,-118.5 132.858,-137.5 187.858,-137.5 187.858,-118.5 132.858,-118.5"/>
<text text-anchor="middle" x="160.358" y="-125.5" font-family="Helvetica,sans-Serif" font-size="10.00">itm/itm.h</text>
</a>
</g>
</g>
<!-- Node2&#45;&gt;Node3 -->
<g id="edge2" class="edge"><title>Node2&#45;&gt;Node3</title>
<path fill="none" stroke="midnightblue" d="M177.492,-180.403C174.611,-171.76 170.081,-158.17 166.403,-147.134"/>
<polygon fill="midnightblue" stroke="midnightblue" points="169.701,-145.961 163.218,-137.581 163.06,-148.174 169.701,-145.961"/>
</g>
<!-- Node6 -->
<g id="node6" class="node"><title>Node6</title>
<polygon fill="none" stroke="#bfbfbf" points="289.858,-0.5 289.858,-19.5 338.858,-19.5 338.858,-0.5 289.858,-0.5"/>
<text text-anchor="middle" x="314.358" y="-7.5" font-family="Helvetica,sans-Serif" font-size="10.00">stdint.h</text>
</g>
<!-- Node2&#45;&gt;Node6 -->
<g id="edge8" class="edge"><title>Node2&#45;&gt;Node6</title>
<path fill="none" stroke="midnightblue" d="M156.34,-186.453C112.642,-181.27 22.927,-167.914 4.35795,-144 -10.5086,-124.854 18.5409,-57.5778 20.3579,-56 62.3357,-19.5493 208.538,-30.3113 279.634,-19.67"/>
<polygon fill="midnightblue" stroke="midnightblue" points="280.308,-23.1052 289.557,-17.9365 279.104,-16.2096 280.308,-23.1052"/>
</g>
<!-- Node9 -->
<g id="node9" class="node"><title>Node9</title>
<polygon fill="none" stroke="#bfbfbf" points="206.358,-118.5 206.358,-137.5 262.358,-137.5 262.358,-118.5 206.358,-118.5"/>
<text text-anchor="middle" x="234.358" y="-125.5" font-family="Helvetica,sans-Serif" font-size="10.00">stdbool.h</text>
</g>
<!-- Node2&#45;&gt;Node9 -->
<g id="edge9" class="edge"><title>Node2&#45;&gt;Node9</title>
<path fill="none" stroke="midnightblue" d="M188.095,-180.403C196.355,-171.225 209.635,-156.47 219.852,-145.117"/>
<polygon fill="midnightblue" stroke="midnightblue" points="222.547,-147.355 226.635,-137.581 217.344,-142.672 222.547,-147.355"/>
</g>
<!-- Node10 -->
<g id="node10" class="node"><title>Node10</title>
<g id="a_node10"><a xlink:href="avxintrin__emu_8h.html" target="_top" xlink:title="alt&#45;license/avxintrin\l_emu.h">
<polygon fill="none" stroke="black" points="13.8579,-113 13.8579,-143 114.858,-143 114.858,-113 13.8579,-113"/>
<text text-anchor="start" x="21.8579" y="-131" font-family="Helvetica,sans-Serif" font-size="10.00">alt&#45;license/avxintrin</text>
<text text-anchor="middle" x="64.3579" y="-120" font-family="Helvetica,sans-Serif" font-size="10.00">_emu.h</text>
</a>
</g>
</g>
<!-- Node2&#45;&gt;Node10 -->
<g id="edge10" class="edge"><title>Node2&#45;&gt;Node10</title>
<path fill="none" stroke="midnightblue" d="M163.738,-180.403C147.367,-171.936 121.817,-158.72 100.724,-147.81"/>
<polygon fill="midnightblue" stroke="midnightblue" points="102.187,-144.626 91.6969,-143.141 98.971,-150.844 102.187,-144.626"/>
</g>
<!-- Node3&#45;&gt;Node4 -->
<g id="edge3" class="edge"><title>Node3&#45;&gt;Node4</title>
<path fill="none" stroke="midnightblue" d="M181.463,-118.367C186.653,-116.266 192.201,-114.037 197.358,-112 226.05,-100.667 258.84,-88.0879 282.392,-79.1169"/>
<polygon fill="midnightblue" stroke="midnightblue" points="283.779,-82.334 291.882,-75.5073 281.291,-75.7913 283.779,-82.334"/>
</g>
<!-- Node5 -->
<g id="node5" class="node"><title>Node5</title>
<polygon fill="none" stroke="#bfbfbf" points="620.858,-0.5 620.858,-19.5 691.858,-19.5 691.858,-0.5 620.858,-0.5"/>
<text text-anchor="middle" x="656.358" y="-7.5" font-family="Helvetica,sans-Serif" font-size="10.00">stm/config.h</text>
</g>
<!-- Node4&#45;&gt;Node5 -->
<g id="edge4" class="edge"><title>Node4&#45;&gt;Node5</title>
<path fill="none" stroke="midnightblue" d="M368.549,-56.4435C435.455,-45.8794 548.061,-28.0995 610.748,-18.2015"/>
<polygon fill="midnightblue" stroke="midnightblue" points="611.405,-21.6412 620.737,-16.6243 610.314,-14.7269 611.405,-21.6412"/>
</g>
<!-- Node4&#45;&gt;Node6 -->
<g id="edge5" class="edge"><title>Node4&#45;&gt;Node6</title>
<path fill="none" stroke="midnightblue" d="M314.358,-56.083C314.358,-49.0059 314.358,-38.8611 314.358,-29.9865"/>
<polygon fill="midnightblue" stroke="midnightblue" points="317.858,-29.751 314.358,-19.7511 310.858,-29.7511 317.858,-29.751"/>
</g>
<!-- Node7 -->
<g id="node7" class="node"><title>Node7</title>
<polygon fill="none" stroke="#bfbfbf" points="357.358,-0.5 357.358,-19.5 405.358,-19.5 405.358,-0.5 357.358,-0.5"/>
<text text-anchor="middle" x="381.358" y="-7.5" font-family="Helvetica,sans-Serif" font-size="10.00">limits.h</text>
</g>
<!-- Node4&#45;&gt;Node7 -->
<g id="edge6" class="edge"><title>Node4&#45;&gt;Node7</title>
<path fill="none" stroke="midnightblue" d="M325.123,-56.324C335.124,-48.2631 350.244,-36.0765 362.288,-26.3695"/>
<polygon fill="midnightblue" stroke="midnightblue" points="364.808,-28.8343 370.397,-19.8339 360.415,-23.3841 364.808,-28.8343"/>
</g>
<!-- Node8 -->
<g id="node8" class="node"><title>Node8</title>
<polygon fill="none" stroke="#bfbfbf" points="220.858,-0.5 220.858,-19.5 271.858,-19.5 271.858,-0.5 220.858,-0.5"/>
<text text-anchor="middle" x="246.358" y="-7.5" font-family="Helvetica,sans-Serif" font-size="10.00">unistd.h</text>
</g>
<!-- Node4&#45;&gt;Node8 -->
<g id="edge7" class="edge"><title>Node4&#45;&gt;Node8</title>
<path fill="none" stroke="midnightblue" d="M303.433,-56.324C293.183,-48.1849 277.637,-35.8395 265.357,-26.0874"/>
<polygon fill="midnightblue" stroke="midnightblue" points="267.49,-23.3119 257.482,-19.8339 263.137,-28.7937 267.49,-23.3119"/>
</g>
<!-- Node11 -->
<g id="node11" class="node"><title>Node11</title>
<polygon fill="none" stroke="#bfbfbf" points="29.3579,-56.5 29.3579,-75.5 99.3579,-75.5 99.3579,-56.5 29.3579,-56.5"/>
<text text-anchor="middle" x="64.3579" y="-63.5" font-family="Helvetica,sans-Serif" font-size="10.00">wmmintrin.h</text>
</g>
<!-- Node10&#45;&gt;Node11 -->
<g id="edge11" class="edge"><title>Node10&#45;&gt;Node11</title>
<path fill="none" stroke="midnightblue" d="M64.3579,-112.781C64.3579,-104.781 64.3579,-94.6887 64.3579,-86.0168"/>
<polygon fill="midnightblue" stroke="midnightblue" points="67.858,-85.7305 64.3579,-75.7305 60.858,-85.7306 67.858,-85.7305"/>
</g>
<!-- Node12&#45;&gt;Node2 -->
<g id="edge13" class="edge"><title>Node12&#45;&gt;Node2</title>
<path fill="none" stroke="midnightblue" d="M266.06,-292.368C250.577,-274.055 214.218,-231.049 194.192,-207.362"/>
<polygon fill="midnightblue" stroke="midnightblue" points="196.751,-204.968 187.622,-199.591 191.405,-209.488 196.751,-204.968"/>
</g>
<!-- Node13 -->
<g id="node13" class="node"><title>Node13</title>
<g id="a_node13"><a xlink:href="Scope_8h.html" target="_top" xlink:title="Scope.h">
<polygon fill="none" stroke="black" points="246.858,-236.5 246.858,-255.5 299.858,-255.5 299.858,-236.5 246.858,-236.5"/>
<text text-anchor="middle" x="273.358" y="-243.5" font-family="Helvetica,sans-Serif" font-size="10.00">Scope.h</text>
</a>
</g>
</g>
<!-- Node12&#45;&gt;Node13 -->
<g id="edge14" class="edge"><title>Node12&#45;&gt;Node13</title>
<path fill="none" stroke="midnightblue" d="M273.358,-292.083C273.358,-285.006 273.358,-274.861 273.358,-265.986"/>
<polygon fill="midnightblue" stroke="midnightblue" points="276.858,-265.751 273.358,-255.751 269.858,-265.751 276.858,-265.751"/>
</g>
<!-- Node13&#45;&gt;Node2 -->
<g id="edge16" class="edge"><title>Node13&#45;&gt;Node2</title>
<path fill="none" stroke="midnightblue" d="M258.416,-236.324C243.773,-227.822 221.224,-214.729 204.12,-204.797"/>
<polygon fill="midnightblue" stroke="midnightblue" points="205.668,-201.649 195.263,-199.655 202.153,-207.703 205.668,-201.649"/>
</g>
<!-- Node14 -->
<g id="node14" class="node"><title>Node14</title>
<polygon fill="none" stroke="#bfbfbf" points="236.358,-180.5 236.358,-199.5 280.358,-199.5 280.358,-180.5 236.358,-180.5"/>
<text text-anchor="middle" x="258.358" y="-187.5" font-family="Helvetica,sans-Serif" font-size="10.00">vector</text>
</g>
<!-- Node13&#45;&gt;Node14 -->
<g id="edge15" class="edge"><title>Node13&#45;&gt;Node14</title>
<path fill="none" stroke="midnightblue" d="M270.881,-236.083C268.871,-228.849 265.971,-218.409 263.468,-209.397"/>
<polygon fill="midnightblue" stroke="midnightblue" points="266.838,-208.449 260.789,-199.751 260.093,-210.323 266.838,-208.449"/>
</g>
<!-- Node15 -->
<g id="node15" class="node"><title>Node15</title>
<g id="a_node15"><a xlink:href="Checkpoint_8h.html" target="_top" xlink:title="Checkpoint.h">
<polygon fill="none" stroke="black" points="298.358,-180.5 298.358,-199.5 372.358,-199.5 372.358,-180.5 298.358,-180.5"/>
<text text-anchor="middle" x="335.358" y="-187.5" font-family="Helvetica,sans-Serif" font-size="10.00">Checkpoint.h</text>
</a>
</g>
</g>
<!-- Node13&#45;&gt;Node15 -->
<g id="edge17" class="edge"><title>Node13&#45;&gt;Node15</title>
<path fill="none" stroke="midnightblue" d="M283.319,-236.324C292.485,-228.341 306.295,-216.313 317.386,-206.653"/>
<polygon fill="midnightblue" stroke="midnightblue" points="319.973,-209.041 325.215,-199.834 315.376,-203.762 319.973,-209.041"/>
</g>
<!-- Node15&#45;&gt;Node5 -->
<g id="edge18" class="edge"><title>Node15&#45;&gt;Node5</title>
<path fill="none" stroke="midnightblue" d="M340.93,-180.398C358.453,-153.606 412.84,-72.4711 439.358,-56 491.925,-23.3489 564.093,-13.9626 610.485,-11.4962"/>
<polygon fill="midnightblue" stroke="midnightblue" points="610.714,-14.9895 620.548,-11.0482 610.403,-7.99645 610.714,-14.9895"/>
</g>
<!-- Node16 -->
<g id="node16" class="node"><title>Node16</title>
<polygon fill="none" stroke="#bfbfbf" points="280.358,-118.5 280.358,-137.5 352.358,-137.5 352.358,-118.5 280.358,-118.5"/>
<text text-anchor="middle" x="316.358" y="-125.5" font-family="Helvetica,sans-Serif" font-size="10.00">checkpoint.h</text>
</g>
<!-- Node15&#45;&gt;Node16 -->
<g id="edge19" class="edge"><title>Node15&#45;&gt;Node16</title>
<path fill="none" stroke="midnightblue" d="M332.636,-180.403C329.899,-171.76 325.595,-158.17 322.1,-147.134"/>
<polygon fill="midnightblue" stroke="midnightblue" points="325.431,-146.057 319.075,-137.581 318.757,-148.171 325.431,-146.057"/>
</g>
<!-- Node18 -->
<g id="node18" class="node"><title>Node18</title>
<g id="a_node18"><a xlink:href="rand__r__32_8h.html" target="_top" xlink:title="alt&#45;license/rand_r_32.h">
<polygon fill="none" stroke="black" points="949.858,-236.5 949.858,-255.5 1064.86,-255.5 1064.86,-236.5 949.858,-236.5"/>
<text text-anchor="middle" x="1007.36" y="-243.5" font-family="Helvetica,sans-Serif" font-size="10.00">alt&#45;license/rand_r_32.h</text>
</a>
</g>
</g>
<!-- Node17&#45;&gt;Node18 -->
<g id="edge22" class="edge"><title>Node17&#45;&gt;Node18</title>
<path fill="none" stroke="midnightblue" d="M839.049,-292.444C873.426,-283.162 928.435,-268.309 966.147,-258.127"/>
<polygon fill="midnightblue" stroke="midnightblue" points="967.074,-261.502 975.816,-255.516 965.249,-254.744 967.074,-261.502"/>
</g>
<!-- Node20 -->
<g id="node20" class="node"><title>Node20</title>
<g id="a_node20"><a xlink:href="locks_8hpp.html" target="_top" xlink:title="common/locks.hpp">
<polygon fill="none" stroke="black" points="446.858,-236.5 446.858,-255.5 545.858,-255.5 545.858,-236.5 446.858,-236.5"/>
<text text-anchor="middle" x="496.358" y="-243.5" font-family="Helvetica,sans-Serif" font-size="10.00">common/locks.hpp</text>
</a>
</g>
</g>
<!-- Node17&#45;&gt;Node20 -->
<g id="edge25" class="edge"><title>Node17&#45;&gt;Node20</title>
<path fill="none" stroke="midnightblue" d="M762.136,-293.148C707.591,-283.677 615.751,-267.731 555.595,-257.285"/>
<polygon fill="midnightblue" stroke="midnightblue" points="555.937,-253.793 545.486,-255.53 554.74,-260.689 555.937,-253.793"/>
</g>
<!-- Node21 -->
<g id="node21" class="node"><title>Node21</title>
<g id="a_node21"><a xlink:href="ThreadLocal_8hpp.html" target="_top" xlink:title="common/ThreadLocal.hpp">
<polygon fill="none" stroke="black" points="1082.86,-236.5 1082.86,-255.5 1211.86,-255.5 1211.86,-236.5 1082.86,-236.5"/>
<text text-anchor="middle" x="1147.36" y="-243.5" font-family="Helvetica,sans-Serif" font-size="10.00">common/ThreadLocal.hpp</text>
</a>
</g>
</g>
<!-- Node17&#45;&gt;Node21 -->
<g id="edge27" class="edge"><title>Node17&#45;&gt;Node21</title>
<path fill="none" stroke="midnightblue" d="M852.507,-293.829C911.784,-284.415 1016.2,-267.831 1083.54,-257.136"/>
<polygon fill="midnightblue" stroke="midnightblue" points="1084.28,-260.562 1093.61,-255.537 1083.18,-253.649 1084.28,-260.562"/>
</g>
<!-- Node22 -->
<g id="node22" class="node"><title>Node22</title>
<g id="a_node22"><a xlink:href="metadata_8hpp.html" target="_top" xlink:title="stm/metadata.hpp">
<polygon fill="none" stroke="black" points="683.858,-180.5 683.858,-199.5 778.858,-199.5 778.858,-180.5 683.858,-180.5"/>
<text text-anchor="middle" x="731.358" y="-187.5" font-family="Helvetica,sans-Serif" font-size="10.00">stm/metadata.hpp</text>
</a>
</g>
</g>
<!-- Node17&#45;&gt;Node22 -->
<g id="edge29" class="edge"><title>Node17&#45;&gt;Node22</title>
<path fill="none" stroke="midnightblue" d="M791.83,-292.465C778.923,-284.603 761.004,-271.783 750.358,-256 741.009,-242.141 736.184,-223.626 733.742,-209.901"/>
<polygon fill="midnightblue" stroke="midnightblue" points="737.156,-209.073 732.203,-199.707 730.235,-210.117 737.156,-209.073"/>
</g>
<!-- Node28 -->
<g id="node28" class="node"><title>Node28</title>
<g id="a_node28"><a xlink:href="WriteSet_8hpp.html" target="_top" xlink:title="stm/WriteSet.hpp">
<polygon fill="none" stroke="black" points="861.858,-118.5 861.858,-137.5 954.858,-137.5 954.858,-118.5 861.858,-118.5"/>
<text text-anchor="middle" x="908.358" y="-125.5" font-family="Helvetica,sans-Serif" font-size="10.00">stm/WriteSet.hpp</text>
</a>
</g>
</g>
<!-- Node17&#45;&gt;Node28 -->
<g id="edge39" class="edge"><title>Node17&#45;&gt;Node28</title>
<path fill="none" stroke="midnightblue" d="M822.143,-292.409C834.701,-284.426 852.386,-271.46 863.358,-256 887.416,-222.101 899.757,-174.07 905.056,-147.86"/>
<polygon fill="midnightblue" stroke="midnightblue" points="908.544,-148.25 906.961,-137.774 901.666,-146.951 908.544,-148.25"/>
</g>
<!-- Node30 -->
<g id="node30" class="node"><title>Node30</title>
<g id="a_node30"><a xlink:href="UndoLog_8hpp.html" target="_top" xlink:title="stm/UndoLog.hpp">
<polygon fill="none" stroke="black" points="571.358,-180.5 571.358,-199.5 665.358,-199.5 665.358,-180.5 571.358,-180.5"/>
<text text-anchor="middle" x="618.358" y="-187.5" font-family="Helvetica,sans-Serif" font-size="10.00">stm/UndoLog.hpp</text>
</a>
</g>
</g>
<!-- Node17&#45;&gt;Node30 -->
<g id="edge44" class="edge"><title>Node17&#45;&gt;Node30</title>
<path fill="none" stroke="midnightblue" d="M792.527,-292.368C759.819,-273.332 681.27,-227.615 641.812,-204.65"/>
<polygon fill="midnightblue" stroke="midnightblue" points="643.523,-201.597 633.12,-199.591 640.002,-207.647 643.523,-201.597"/>
</g>
<!-- Node32 -->
<g id="node32" class="node"><title>Node32</title>
<g id="a_node32"><a xlink:href="ValueList_8hpp.html" target="_top" xlink:title="stm/ValueList.hpp">
<polygon fill="none" stroke="black" points="977.858,-180.5 977.858,-199.5 1072.86,-199.5 1072.86,-180.5 977.858,-180.5"/>
<text text-anchor="middle" x="1025.36" y="-187.5" font-family="Helvetica,sans-Serif" font-size="10.00">stm/ValueList.hpp</text>
</a>
</g>
</g>
<!-- Node17&#45;&gt;Node32 -->
<g id="edge49" class="edge"><title>Node17&#45;&gt;Node32</title>
<path fill="none" stroke="midnightblue" d="M824.628,-292.405C842.757,-283.373 872.085,-268.735 897.358,-256 932.685,-238.199 973.411,-217.484 999.26,-204.313"/>
<polygon fill="midnightblue" stroke="midnightblue" points="1001.08,-207.315 1008.4,-199.655 997.898,-201.079 1001.08,-207.315"/>
</g>
<!-- Node33 -->
<g id="node33" class="node"><title>Node33</title>
<g id="a_node33"><a xlink:href="WBMMPolicy_8hpp.html" target="_top" xlink:title="WBMMPolicy.hpp">
<polygon fill="none" stroke="black" points="759.858,-236.5 759.858,-255.5 854.858,-255.5 854.858,-236.5 759.858,-236.5"/>
<text text-anchor="middle" x="807.358" y="-243.5" font-family="Helvetica,sans-Serif" font-size="10.00">WBMMPolicy.hpp</text>
</a>
</g>
</g>
<!-- Node17&#45;&gt;Node33 -->
<g id="edge52" class="edge"><title>Node17&#45;&gt;Node33</title>
<path fill="none" stroke="midnightblue" d="M807.358,-292.083C807.358,-285.006 807.358,-274.861 807.358,-265.986"/>
<polygon fill="midnightblue" stroke="midnightblue" points="810.858,-265.751 807.358,-255.751 803.858,-265.751 810.858,-265.751"/>
</g>
<!-- Node18&#45;&gt;Node5 -->
<g id="edge24" class="edge"><title>Node18&#45;&gt;Node5</title>
<path fill="none" stroke="midnightblue" d="M1034.29,-236.356C1051.08,-229.411 1071.34,-217.825 1081.36,-200 1105.48,-157.107 1152.65,-146.491 1046.36,-56 995.45,-12.6587 793.518,-9.31868 701.94,-10.1238"/>
<polygon fill="midnightblue" stroke="midnightblue" points="701.819,-6.62482 691.858,-10.2333 701.895,-13.6244 701.819,-6.62482"/>
</g>
<!-- Node19 -->
<g id="node19" class="node"><title>Node19</title>
<polygon fill="none" stroke="#bfbfbf" points="911.358,-180.5 911.358,-199.5 959.358,-199.5 959.358,-180.5 911.358,-180.5"/>
<text text-anchor="middle" x="935.358" y="-187.5" font-family="Helvetica,sans-Serif" font-size="10.00">stdlib.h</text>
</g>
<!-- Node18&#45;&gt;Node19 -->
<g id="edge23" class="edge"><title>Node18&#45;&gt;Node19</title>
<path fill="none" stroke="midnightblue" d="M995.79,-236.324C984.938,-228.185 968.477,-215.839 955.475,-206.087"/>
<polygon fill="midnightblue" stroke="midnightblue" points="957.237,-203.034 947.136,-199.834 953.036,-208.634 957.237,-203.034"/>
</g>
<!-- Node20&#45;&gt;Node4 -->
<g id="edge26" class="edge"><title>Node20&#45;&gt;Node4</title>
<path fill="none" stroke="midnightblue" d="M493.108,-236.193C483.123,-209.529 452.355,-130.381 432.358,-112 414.72,-95.7877 390.642,-85.217 368.835,-78.4254"/>
<polygon fill="midnightblue" stroke="midnightblue" points="369.586,-74.9989 359.006,-75.5643 367.629,-81.7199 369.586,-74.9989"/>
</g>
<!-- Node21&#45;&gt;Node5 -->
<g id="edge28" class="edge"><title>Node21&#45;&gt;Node5</title>
<path fill="none" stroke="midnightblue" d="M1147.36,-236.074C1146.82,-203.522 1139.92,-91.2582 1071.36,-56 1007.84,-23.3365 796.105,-14.2944 702.052,-11.8629"/>
<polygon fill="midnightblue" stroke="midnightblue" points="702.068,-8.3623 691.985,-11.6164 701.896,-15.3602 702.068,-8.3623"/>
</g>
<!-- Node22&#45;&gt;Node5 -->
<g id="edge30" class="edge"><title>Node22&#45;&gt;Node5</title>
<path fill="none" stroke="midnightblue" d="M727.741,-180.415C716.186,-152.992 679.995,-67.0986 664.041,-29.2356"/>
<polygon fill="midnightblue" stroke="midnightblue" points="667.224,-27.7748 660.116,-19.9185 660.773,-30.4929 667.224,-27.7748"/>
</g>
<!-- Node23 -->
<g id="node23" class="node"><title>Node23</title>
<g id="a_node23"><a xlink:href="MiniVector_8hpp.html" target="_top" xlink:title="stm/MiniVector.hpp">
<polygon fill="none" stroke="black" points="742.858,-118.5 742.858,-137.5 843.858,-137.5 843.858,-118.5 742.858,-118.5"/>
<text text-anchor="middle" x="793.358" y="-125.5" font-family="Helvetica,sans-Serif" font-size="10.00">stm/MiniVector.hpp</text>
</a>
</g>
</g>
<!-- Node22&#45;&gt;Node23 -->
<g id="edge31" class="edge"><title>Node22&#45;&gt;Node23</title>
<path fill="none" stroke="midnightblue" d="M740.241,-180.403C749.817,-171.136 765.269,-156.183 777.044,-144.788"/>
<polygon fill="midnightblue" stroke="midnightblue" points="779.739,-147.05 784.491,-137.581 774.871,-142.02 779.739,-147.05"/>
</g>
<!-- Node27 -->
<g id="node27" class="node"><title>Node27</title>
<g id="a_node27"><a xlink:href="BitFilter_8hpp.html" target="_top" xlink:title="stm/BitFilter.hpp">
<polygon fill="none" stroke="black" points="481.858,-56.5 481.858,-75.5 570.858,-75.5 570.858,-56.5 481.858,-56.5"/>
<text text-anchor="middle" x="526.358" y="-63.5" font-family="Helvetica,sans-Serif" font-size="10.00">stm/BitFilter.hpp</text>
</a>
</g>
</g>
<!-- Node22&#45;&gt;Node27 -->
<g id="edge36" class="edge"><title>Node22&#45;&gt;Node27</title>
<path fill="none" stroke="midnightblue" d="M683.57,-181.041C654.48,-174.527 617.609,-163.162 589.358,-144 566.201,-128.294 547.123,-101.631 536.236,-84.168"/>
<polygon fill="midnightblue" stroke="midnightblue" points="539.204,-82.3125 531.056,-75.5409 533.203,-85.9159 539.204,-82.3125"/>
</g>
<!-- Node23&#45;&gt;Node4 -->
<g id="edge35" class="edge"><title>Node23&#45;&gt;Node4</title>
<path fill="none" stroke="midnightblue" d="M742.785,-119.014C727.263,-116.65 710.121,-114.127 694.358,-112 584.477,-97.1735 456.354,-82.5525 380.479,-74.1709"/>
<polygon fill="midnightblue" stroke="midnightblue" points="380.45,-70.6466 370.127,-73.0302 379.684,-77.6045 380.45,-70.6466"/>
</g>
<!-- Node24 -->
<g id="node24" class="node"><title>Node24</title>
<polygon fill="none" stroke="#bfbfbf" points="833.858,-56.5 833.858,-75.5 882.858,-75.5 882.858,-56.5 833.858,-56.5"/>
<text text-anchor="middle" x="858.358" y="-63.5" font-family="Helvetica,sans-Serif" font-size="10.00">cassert</text>
</g>
<!-- Node23&#45;&gt;Node24 -->
<g id="edge32" class="edge"><title>Node23&#45;&gt;Node24</title>
<path fill="none" stroke="midnightblue" d="M802.671,-118.403C812.807,-109.047 829.222,-93.8948 841.61,-82.4599"/>
<polygon fill="midnightblue" stroke="midnightblue" points="844.088,-84.9352 849.062,-75.5806 839.34,-79.7916 844.088,-84.9352"/>
</g>
<!-- Node25 -->
<g id="node25" class="node"><title>Node25</title>
<polygon fill="none" stroke="#bfbfbf" points="770.858,-56.5 770.858,-75.5 815.858,-75.5 815.858,-56.5 770.858,-56.5"/>
<text text-anchor="middle" x="793.358" y="-63.5" font-family="Helvetica,sans-Serif" font-size="10.00">cstdlib</text>
</g>
<!-- Node23&#45;&gt;Node25 -->
<g id="edge33" class="edge"><title>Node23&#45;&gt;Node25</title>
<path fill="none" stroke="midnightblue" d="M793.358,-118.403C793.358,-109.938 793.358,-96.7283 793.358,-85.8199"/>
<polygon fill="midnightblue" stroke="midnightblue" points="796.858,-85.5806 793.358,-75.5806 789.858,-85.5806 796.858,-85.5806"/>
</g>
<!-- Node26 -->
<g id="node26" class="node"><title>Node26</title>
<polygon fill="none" stroke="#bfbfbf" points="703.858,-56.5 703.858,-75.5 752.858,-75.5 752.858,-56.5 703.858,-56.5"/>
<text text-anchor="middle" x="728.358" y="-63.5" font-family="Helvetica,sans-Serif" font-size="10.00">string.h</text>
</g>
<!-- Node23&#45;&gt;Node26 -->
<g id="edge34" class="edge"><title>Node23&#45;&gt;Node26</title>
<path fill="none" stroke="midnightblue" d="M784.045,-118.403C773.909,-109.047 757.494,-93.8948 745.106,-82.4599"/>
<polygon fill="midnightblue" stroke="midnightblue" points="747.376,-79.7916 737.654,-75.5806 742.628,-84.9352 747.376,-79.7916"/>
</g>
<!-- Node27&#45;&gt;Node5 -->
<g id="edge37" class="edge"><title>Node27&#45;&gt;Node5</title>
<path fill="none" stroke="midnightblue" d="M546.957,-56.4435C568.351,-47.5566 602.039,-33.5632 626.382,-23.4514"/>
<polygon fill="midnightblue" stroke="midnightblue" points="627.963,-26.5848 635.855,-19.5164 625.278,-20.1203 627.963,-26.5848"/>
</g>
<!-- Node27&#45;&gt;Node6 -->
<g id="edge38" class="edge"><title>Node27&#45;&gt;Node6</title>
<path fill="none" stroke="midnightblue" d="M492.205,-56.486C458.311,-48.0099 404.627,-34.5135 348.606,-20.0422"/>
<polygon fill="midnightblue" stroke="midnightblue" points="349.421,-16.6379 338.863,-17.5216 347.668,-23.4148 349.421,-16.6379"/>
</g>
<!-- Node28&#45;&gt;Node5 -->
<g id="edge40" class="edge"><title>Node28&#45;&gt;Node5</title>
<path fill="none" stroke="midnightblue" d="M921.531,-118.459C941.254,-104.648 974.32,-76.8577 956.358,-56 924.109,-18.5526 777.914,-11.8259 702.171,-10.9029"/>
<polygon fill="midnightblue" stroke="midnightblue" points="702.002,-7.40125 691.971,-10.8085 701.938,-14.4009 702.002,-7.40125"/>
</g>
<!-- Node28&#45;&gt;Node24 -->
<g id="edge43" class="edge"><title>Node28&#45;&gt;Node24</title>
<path fill="none" stroke="midnightblue" d="M901.194,-118.403C893.62,-109.314 881.488,-94.7559 872.065,-83.4489"/>
<polygon fill="midnightblue" stroke="midnightblue" points="874.599,-81.0222 865.508,-75.5806 869.222,-85.5035 874.599,-81.0222"/>
</g>
<!-- Node28&#45;&gt;Node25 -->
<g id="edge41" class="edge"><title>Node28&#45;&gt;Node25</title>
<path fill="none" stroke="midnightblue" d="M891.881,-118.403C872.752,-108.423 840.985,-91.8487 818.706,-80.2253"/>
<polygon fill="midnightblue" stroke="midnightblue" points="820.289,-77.1033 809.804,-75.5806 817.051,-83.3094 820.289,-77.1033"/>
</g>
<!-- Node29 -->
<g id="node29" class="node"><title>Node29</title>
<polygon fill="none" stroke="#bfbfbf" points="901.358,-56.5 901.358,-75.5 947.358,-75.5 947.358,-56.5 901.358,-56.5"/>
<text text-anchor="middle" x="924.358" y="-63.5" font-family="Helvetica,sans-Serif" font-size="10.00">cstring</text>
</g>
<!-- Node28&#45;&gt;Node29 -->
<g id="edge42" class="edge"><title>Node28&#45;&gt;Node29</title>
<path fill="none" stroke="midnightblue" d="M910.65,-118.403C912.932,-109.849 916.505,-96.4497 919.431,-85.4762"/>
<polygon fill="midnightblue" stroke="midnightblue" points="922.875,-86.1448 922.07,-75.5806 916.111,-84.3411 922.875,-86.1448"/>
</g>
<!-- Node30&#45;&gt;Node5 -->
<g id="edge45" class="edge"><title>Node30&#45;&gt;Node5</title>
<path fill="none" stroke="midnightblue" d="M610.685,-180.459C603.579,-171.927 593.504,-158.088 589.358,-144 585.342,-130.356 585.252,-125.617 589.358,-112 599.472,-78.4566 624.772,-45.8221 641.225,-27.1032"/>
<polygon fill="midnightblue" stroke="midnightblue" points="643.964,-29.2929 648.076,-19.5286 638.772,-24.5973 643.964,-29.2929"/>
</g>
<!-- Node30&#45;&gt;Node23 -->
<g id="edge46" class="edge"><title>Node30&#45;&gt;Node23</title>
<path fill="none" stroke="midnightblue" d="M643.431,-180.403C673.71,-170.022 724.798,-152.506 758.798,-140.849"/>
<polygon fill="midnightblue" stroke="midnightblue" points="760.007,-144.135 768.331,-137.581 757.737,-137.513 760.007,-144.135"/>
</g>
<!-- Node31 -->
<g id="node31" class="node"><title>Node31</title>
<g id="a_node31"><a xlink:href="include_2stm_2macros_8hpp.html" target="_top" xlink:title="stm/macros.hpp">
<polygon fill="none" stroke="black" points="598.858,-118.5 598.858,-137.5 685.858,-137.5 685.858,-118.5 598.858,-118.5"/>
<text text-anchor="middle" x="642.358" y="-125.5" font-family="Helvetica,sans-Serif" font-size="10.00">stm/macros.hpp</text>
</a>
</g>
</g>
<!-- Node30&#45;&gt;Node31 -->
<g id="edge47" class="edge"><title>Node30&#45;&gt;Node31</title>
<path fill="none" stroke="midnightblue" d="M621.797,-180.403C625.254,-171.76 630.69,-158.17 635.104,-147.134"/>
<polygon fill="midnightblue" stroke="midnightblue" points="638.461,-148.165 638.926,-137.581 631.962,-145.565 638.461,-148.165"/>
</g>
<!-- Node31&#45;&gt;Node5 -->
<g id="edge48" class="edge"><title>Node31&#45;&gt;Node5</title>
<path fill="none" stroke="midnightblue" d="M643.41,-118.281C645.671,-99.5475 651.036,-55.098 654.103,-29.6822"/>
<polygon fill="midnightblue" stroke="midnightblue" points="657.608,-29.8521 655.332,-19.5048 650.658,-29.0133 657.608,-29.8521"/>
</g>
<!-- Node32&#45;&gt;Node5 -->
<g id="edge50" class="edge"><title>Node32&#45;&gt;Node5</title>
<path fill="none" stroke="midnightblue" d="M1029.03,-180.18C1038.19,-156.655 1059.06,-91.7785 1027.36,-56 1006.1,-32.0112 796.637,-18.2451 702.163,-13.2123"/>
<polygon fill="midnightblue" stroke="midnightblue" points="702.208,-9.70996 692.039,-12.683 701.842,-16.7004 702.208,-9.70996"/>
</g>
<!-- Node32&#45;&gt;Node23 -->
<g id="edge51" class="edge"><title>Node32&#45;&gt;Node23</title>
<path fill="none" stroke="midnightblue" d="M992.118,-180.403C951.116,-169.799 881.329,-151.751 836.304,-140.107"/>
<polygon fill="midnightblue" stroke="midnightblue" points="837.094,-136.696 826.536,-137.581 835.341,-143.473 837.094,-136.696"/>
</g>
<!-- Node33&#45;&gt;Node5 -->
<g id="edge54" class="edge"><title>Node33&#45;&gt;Node5</title>
<path fill="none" stroke="midnightblue" d="M819.48,-236.32C837.371,-223.599 872.008,-199.308 902.358,-180 928.919,-163.102 945.796,-170.126 963.358,-144 985.318,-111.332 999.162,-85.7254 973.358,-56 938.79,-16.1783 781.338,-10.6655 702.137,-10.4798"/>
<polygon fill="midnightblue" stroke="midnightblue" points="701.959,-6.97981 691.961,-10.4844 701.962,-13.9798 701.959,-6.97981"/>
</g>
<!-- Node33&#45;&gt;Node19 -->
<g id="edge53" class="edge"><title>Node33&#45;&gt;Node19</title>
<path fill="none" stroke="midnightblue" d="M827.64,-236.444C848.705,-227.557 881.875,-213.563 905.843,-203.451"/>
<polygon fill="midnightblue" stroke="midnightblue" points="907.318,-206.628 915.171,-199.516 904.597,-200.179 907.318,-206.628"/>
</g>
<!-- Node33&#45;&gt;Node22 -->
<g id="edge56" class="edge"><title>Node33&#45;&gt;Node22</title>
<path fill="none" stroke="midnightblue" d="M795.147,-236.324C783.582,-228.107 765.983,-215.602 752.197,-205.807"/>
<polygon fill="midnightblue" stroke="midnightblue" points="753.97,-202.773 743.791,-199.834 749.915,-208.479 753.97,-202.773"/>
</g>
<!-- Node33&#45;&gt;Node23 -->
<g id="edge55" class="edge"><title>Node33&#45;&gt;Node23</title>
<path fill="none" stroke="midnightblue" d="M806.306,-236.281C804.045,-217.547 798.68,-173.098 795.613,-147.682"/>
<polygon fill="midnightblue" stroke="midnightblue" points="799.057,-147.013 794.384,-137.505 792.108,-147.852 799.057,-147.013"/>
</g>
<!-- Node34&#45;&gt;Node5 -->
<g id="edge58" class="edge"><title>Node34&#45;&gt;Node5</title>
<path fill="none" stroke="midnightblue" d="M598.787,-236.426C551.9,-209.541 418.51,-124.605 472.358,-56 489.229,-34.5055 561.731,-21.9547 610.53,-15.7935"/>
<polygon fill="midnightblue" stroke="midnightblue" points="611.051,-19.2561 620.555,-14.5749 610.206,-12.3073 611.051,-19.2561"/>
</g>
<!-- Node34&#45;&gt;Node22 -->
<g id="edge59" class="edge"><title>Node34&#45;&gt;Node22</title>
<path fill="none" stroke="midnightblue" d="M632.897,-236.444C651.981,-227.636 681.933,-213.812 703.794,-203.722"/>
<polygon fill="midnightblue" stroke="midnightblue" points="705.293,-206.885 712.906,-199.516 702.359,-200.529 705.293,-206.885"/>
</g>
</g>
</svg>
