<?xml version="1.0" encoding="UTF-8" standalone="no"?>
<!DOCTYPE svg PUBLIC "-//W3C//DTD SVG 1.1//EN"
 "http://www.w3.org/Graphics/SVG/1.1/DTD/svg11.dtd">
<!-- Generated by graphviz version 2.36.0 (20140111.2315)
 -->
<!-- Title: _ITM_memsetWaR Pages: 1 -->
<svg width="552pt" height="145pt"
 viewBox="0.00 0.00 552.00 145.10" xmlns="http://www.w3.org/2000/svg" xmlns:xlink="http://www.w3.org/1999/xlink">
<g id="graph0" class="graph" transform="scale(1 1) rotate(0) translate(4 141.096)">
<title>_ITM_memsetWaR</title>
<!-- Node1 -->
<g id="node1" class="node"><title>Node1</title>
<polygon fill="#bfbfbf" stroke="black" points="0,-54.5957 0,-73.5957 102,-73.5957 102,-54.5957 0,-54.5957"/>
<text text-anchor="middle" x="51" y="-61.5957" font-family="Helvetica,sans-Serif" font-size="10.00">_ITM_memsetWaR</text>
</g>
<!-- Node2 -->
<g id="node2" class="node"><title>Node2</title>
<g id="a_node2"><a xlink:href="namespaceitm2stm.html#ad658616dcf595ab736e02f0f4f274f67" target="_top" xlink:title="itm2stm::block_set">
<polygon fill="none" stroke="black" points="138,-54.5957 138,-73.5957 238,-73.5957 238,-54.5957 138,-54.5957"/>
<text text-anchor="middle" x="188" y="-61.5957" font-family="Helvetica,sans-Serif" font-size="10.00">itm2stm::block_set</text>
</a>
</g>
</g>
<!-- Node1&#45;&gt;Node2 -->
<g id="edge1" class="edge"><title>Node1&#45;&gt;Node2</title>
<path fill="none" stroke="midnightblue" d="M102.269,-64.0957C110.477,-64.0957 119.048,-64.0957 127.453,-64.0957"/>
<polygon fill="midnightblue" stroke="midnightblue" points="127.587,-67.5958 137.587,-64.0957 127.587,-60.5958 127.587,-67.5958"/>
</g>
<!-- Node3 -->
<g id="node3" class="node"><title>Node3</title>
<g id="a_node3"><a xlink:href="namespaceitm2stm.html#a6c0f462e6a92340d0aaff5050c4a6ed6" target="_top" xlink:title="itm2stm::base_of">
<polygon fill="none" stroke="black" points="289,-117.596 289,-136.596 381,-136.596 381,-117.596 289,-117.596"/>
<text text-anchor="middle" x="335" y="-124.596" font-family="Helvetica,sans-Serif" font-size="10.00">itm2stm::base_of</text>
</a>
</g>
</g>
<!-- Node2&#45;&gt;Node3 -->
<g id="edge2" class="edge"><title>Node2&#45;&gt;Node3</title>
<path fill="none" stroke="midnightblue" d="M209.139,-73.6783C226.284,-81.7532 251.619,-93.4922 274,-103.096 282.39,-106.696 291.508,-110.432 300.045,-113.854"/>
<polygon fill="midnightblue" stroke="midnightblue" points="298.78,-117.118 309.365,-117.561 301.366,-110.613 298.78,-117.118"/>
</g>
<!-- Node4 -->
<g id="node4" class="node"><title>Node4</title>
<g id="a_node4"><a xlink:href="namespaceitm2stm.html#aa9908b113027ae21130750939980ee0b" target="_top" xlink:title="itm2stm::offset_of">
<polygon fill="none" stroke="black" points="440,-51.5957 440,-70.5957 536,-70.5957 536,-51.5957 440,-51.5957"/>
<text text-anchor="middle" x="488" y="-58.5957" font-family="Helvetica,sans-Serif" font-size="10.00">itm2stm::offset_of</text>
</a>
</g>
</g>
<!-- Node2&#45;&gt;Node4 -->
<g id="edge3" class="edge"><title>Node2&#45;&gt;Node4</title>
<path fill="none" stroke="midnightblue" d="M238.42,-67.4948C250.082,-68.1605 262.475,-68.757 274,-69.0957 328.199,-70.6884 341.83,-71.4722 396,-69.0957 406.918,-68.6167 418.551,-67.816 429.724,-66.9014"/>
<polygon fill="midnightblue" stroke="midnightblue" points="430.157,-70.3772 439.821,-66.0355 429.559,-63.4028 430.157,-70.3772"/>
</g>
<!-- Node5 -->
<g id="node5" class="node"><title>Node5</title>
<g id="a_node5"><a xlink:href="namespaceanonymous__namespace_02BlockOperations_8cpp_03.html#a637c079bc9ac3e8e4b5d988b469703ae" target="_top" xlink:title="anonymous_namespace\l\{BlockOperations::cpp\}\l::write_subword">
<polygon fill="none" stroke="black" points="274,-19.5957 274,-60.5957 396,-60.5957 396,-19.5957 274,-19.5957"/>
<text text-anchor="start" x="282" y="-48.5957" font-family="Helvetica,sans-Serif" font-size="10.00">anonymous_namespace</text>
<text text-anchor="start" x="282" y="-37.5957" font-family="Helvetica,sans-Serif" font-size="10.00">{BlockOperations::cpp}</text>
<text text-anchor="middle" x="335" y="-26.5957" font-family="Helvetica,sans-Serif" font-size="10.00">::write_subword</text>
</a>
</g>
</g>
<!-- Node2&#45;&gt;Node5 -->
<g id="edge4" class="edge"><title>Node2&#45;&gt;Node5</title>
<path fill="none" stroke="midnightblue" d="M238.09,-55.9704C246.358,-54.602 255.08,-53.1583 263.759,-51.7218"/>
<polygon fill="midnightblue" stroke="midnightblue" points="264.603,-55.1297 273.898,-50.0437 263.46,-48.2237 264.603,-55.1297"/>
</g>
<!-- Node6 -->
<g id="node6" class="node"><title>Node6</title>
<g id="a_node6"><a xlink:href="namespaceitm2stm.html#a7bfcca557e548ad294de7fe74eb4cdf6" target="_top" xlink:title="itm2stm::make_mask">
<polygon fill="none" stroke="black" points="432.5,-8.5957 432.5,-27.5957 543.5,-27.5957 543.5,-8.5957 432.5,-8.5957"/>
<text text-anchor="middle" x="488" y="-15.5957" font-family="Helvetica,sans-Serif" font-size="10.00">itm2stm::make_mask</text>
</a>
</g>
</g>
<!-- Node2&#45;&gt;Node6 -->
<g id="edge7" class="edge"><title>Node2&#45;&gt;Node6</title>
<path fill="none" stroke="midnightblue" d="M199.542,-54.5314C214.697,-41.4976 244.118,-18.7851 274,-10.0957 326.745,5.24187 389.935,0.103295 433.725,-6.9225"/>
<polygon fill="midnightblue" stroke="midnightblue" points="433.147,-10.3744 443.591,-8.58989 434.314,-3.47229 433.147,-10.3744"/>
</g>
<!-- Node5&#45;&gt;Node4 -->
<g id="edge5" class="edge"><title>Node5&#45;&gt;Node4</title>
<path fill="none" stroke="midnightblue" d="M396.113,-48.4558C407.195,-49.9971 418.74,-51.6026 429.735,-53.1317"/>
<polygon fill="midnightblue" stroke="midnightblue" points="429.263,-56.5997 439.65,-54.5106 430.227,-49.6664 429.263,-56.5997"/>
</g>
<!-- Node5&#45;&gt;Node6 -->
<g id="edge6" class="edge"><title>Node5&#45;&gt;Node6</title>
<path fill="none" stroke="midnightblue" d="M396.113,-31.3375C404.744,-30.0801 413.654,-28.7818 422.368,-27.5123"/>
<polygon fill="midnightblue" stroke="midnightblue" points="423.086,-30.9447 432.477,-26.0394 422.077,-24.0178 423.086,-30.9447"/>
</g>
</g>
</svg>
