<?xml version="1.0" encoding="UTF-8" standalone="no"?>
<!DOCTYPE svg PUBLIC "-//W3C//DTD SVG 1.1//EN"
 "http://www.w3.org/Graphics/SVG/1.1/DTD/svg11.dtd">
<!-- Generated by graphviz version 2.36.0 (20140111.2315)
 -->
<!-- Title: rstm/rstm&#45;dev/libitm2stm/libitm&#45;5.15.cpp Pages: 1 -->
<svg width="451pt" height="388pt"
 viewBox="0.00 0.00 451.00 388.00" xmlns="http://www.w3.org/2000/svg" xmlns:xlink="http://www.w3.org/1999/xlink">
<g id="graph0" class="graph" transform="scale(1 1) rotate(0) translate(4 384)">
<title>rstm/rstm&#45;dev/libitm2stm/libitm&#45;5.15.cpp</title>
<!-- Node1 -->
<g id="node1" class="node"><title>Node1</title>
<polygon fill="#bfbfbf" stroke="black" points="231.5,-349 231.5,-379 356.5,-379 356.5,-349 231.5,-349"/>
<text text-anchor="start" x="239.5" y="-367" font-family="Helvetica,sans-Serif" font-size="10.00">rstm/rstm&#45;dev/libitm2stm</text>
<text text-anchor="middle" x="294" y="-356" font-family="Helvetica,sans-Serif" font-size="10.00">/libitm&#45;5.15.cpp</text>
</g>
<!-- Node2 -->
<g id="node2" class="node"><title>Node2</title>
<g id="a_node2"><a xlink:href="libitm_8h.html" target="_top" xlink:title="libitm.h">
<polygon fill="none" stroke="black" points="251,-180.5 251,-199.5 299,-199.5 299,-180.5 251,-180.5"/>
<text text-anchor="middle" x="275" y="-187.5" font-family="Helvetica,sans-Serif" font-size="10.00">libitm.h</text>
</a>
</g>
</g>
<!-- Node1&#45;&gt;Node2 -->
<g id="edge1" class="edge"><title>Node1&#45;&gt;Node2</title>
<path fill="none" stroke="midnightblue" d="M292.445,-348.925C289.037,-318.073 280.908,-244.484 277.072,-209.755"/>
<polygon fill="midnightblue" stroke="midnightblue" points="280.525,-209.14 275.948,-199.585 273.568,-209.909 280.525,-209.14"/>
</g>
<!-- Node12 -->
<g id="node12" class="node"><title>Node12</title>
<g id="a_node12"><a xlink:href="Transaction_8h.html" target="_top" xlink:title="Transaction.h">
<polygon fill="none" stroke="black" points="190,-292.5 190,-311.5 266,-311.5 266,-292.5 190,-292.5"/>
<text text-anchor="middle" x="228" y="-299.5" font-family="Helvetica,sans-Serif" font-size="10.00">Transaction.h</text>
</a>
</g>
</g>
<!-- Node1&#45;&gt;Node12 -->
<g id="edge12" class="edge"><title>Node1&#45;&gt;Node12</title>
<path fill="none" stroke="midnightblue" d="M278.359,-348.781C268.373,-339.703 255.422,-327.929 245.155,-318.595"/>
<polygon fill="midnightblue" stroke="midnightblue" points="247.357,-315.867 237.604,-311.731 242.649,-321.047 247.357,-315.867"/>
</g>
<!-- Node17 -->
<g id="node17" class="node"><title>Node17</title>
<g id="a_node17"><a xlink:href="BlockOperations_8h.html" target="_top" xlink:title="BlockOperations.h">
<polygon fill="none" stroke="black" points="331.5,-292.5 331.5,-311.5 428.5,-311.5 428.5,-292.5 331.5,-292.5"/>
<text text-anchor="middle" x="380" y="-299.5" font-family="Helvetica,sans-Serif" font-size="10.00">BlockOperations.h</text>
</a>
</g>
</g>
<!-- Node1&#45;&gt;Node17 -->
<g id="edge20" class="edge"><title>Node1&#45;&gt;Node17</title>
<path fill="none" stroke="midnightblue" d="M314.381,-348.781C327.99,-339.286 345.824,-326.843 359.465,-317.327"/>
<polygon fill="midnightblue" stroke="midnightblue" points="361.538,-320.148 367.737,-311.556 357.533,-314.407 361.538,-320.148"/>
</g>
<!-- Node3 -->
<g id="node3" class="node"><title>Node3</title>
<g id="a_node3"><a xlink:href="itm_8h.html" target="_top" xlink:title="itm/itm.h">
<polygon fill="none" stroke="black" points="247.5,-118.5 247.5,-137.5 302.5,-137.5 302.5,-118.5 247.5,-118.5"/>
<text text-anchor="middle" x="275" y="-125.5" font-family="Helvetica,sans-Serif" font-size="10.00">itm/itm.h</text>
</a>
</g>
</g>
<!-- Node2&#45;&gt;Node3 -->
<g id="edge2" class="edge"><title>Node2&#45;&gt;Node3</title>
<path fill="none" stroke="midnightblue" d="M275,-180.403C275,-171.938 275,-158.728 275,-147.82"/>
<polygon fill="midnightblue" stroke="midnightblue" points="278.5,-147.581 275,-137.581 271.5,-147.581 278.5,-147.581"/>
</g>
<!-- Node6 -->
<g id="node6" class="node"><title>Node6</title>
<polygon fill="none" stroke="#bfbfbf" points="380.5,-0.5 380.5,-19.5 429.5,-19.5 429.5,-0.5 380.5,-0.5"/>
<text text-anchor="middle" x="405" y="-7.5" font-family="Helvetica,sans-Serif" font-size="10.00">stdint.h</text>
</g>
<!-- Node2&#45;&gt;Node6 -->
<g id="edge8" class="edge"><title>Node2&#45;&gt;Node6</title>
<path fill="none" stroke="midnightblue" d="M299.31,-186.052C324.831,-181.594 364.096,-170.61 385,-144 411.242,-110.594 410.286,-57.4961 407.536,-29.568"/>
<polygon fill="midnightblue" stroke="midnightblue" points="411.005,-29.0991 406.364,-19.575 404.053,-29.9148 411.005,-29.0991"/>
</g>
<!-- Node9 -->
<g id="node9" class="node"><title>Node9</title>
<polygon fill="none" stroke="#bfbfbf" points="321,-118.5 321,-137.5 377,-137.5 377,-118.5 321,-118.5"/>
<text text-anchor="middle" x="349" y="-125.5" font-family="Helvetica,sans-Serif" font-size="10.00">stdbool.h</text>
</g>
<!-- Node2&#45;&gt;Node9 -->
<g id="edge9" class="edge"><title>Node2&#45;&gt;Node9</title>
<path fill="none" stroke="midnightblue" d="M285.602,-180.403C297.252,-170.958 316.186,-155.606 330.335,-144.134"/>
<polygon fill="midnightblue" stroke="midnightblue" points="332.854,-146.597 338.417,-137.581 328.445,-141.16 332.854,-146.597"/>
</g>
<!-- Node10 -->
<g id="node10" class="node"><title>Node10</title>
<g id="a_node10"><a xlink:href="avxintrin__emu_8h.html" target="_top" xlink:title="alt&#45;license/avxintrin\l_emu.h">
<polygon fill="none" stroke="black" points="128.5,-113 128.5,-143 229.5,-143 229.5,-113 128.5,-113"/>
<text text-anchor="start" x="136.5" y="-131" font-family="Helvetica,sans-Serif" font-size="10.00">alt&#45;license/avxintrin</text>
<text text-anchor="middle" x="179" y="-120" font-family="Helvetica,sans-Serif" font-size="10.00">_emu.h</text>
</a>
</g>
</g>
<!-- Node2&#45;&gt;Node10 -->
<g id="edge10" class="edge"><title>Node2&#45;&gt;Node10</title>
<path fill="none" stroke="midnightblue" d="M261.246,-180.403C248.001,-172.125 227.497,-159.311 210.276,-148.547"/>
<polygon fill="midnightblue" stroke="midnightblue" points="211.96,-145.473 201.625,-143.141 208.25,-151.409 211.96,-145.473"/>
</g>
<!-- Node4 -->
<g id="node4" class="node"><title>Node4</title>
<g id="a_node4"><a xlink:href="platform_8hpp.html" target="_top" xlink:title="common/platform.hpp">
<polygon fill="none" stroke="black" points="226.5,-56.5 226.5,-75.5 337.5,-75.5 337.5,-56.5 226.5,-56.5"/>
<text text-anchor="middle" x="282" y="-63.5" font-family="Helvetica,sans-Serif" font-size="10.00">common/platform.hpp</text>
</a>
</g>
</g>
<!-- Node3&#45;&gt;Node4 -->
<g id="edge3" class="edge"><title>Node3&#45;&gt;Node4</title>
<path fill="none" stroke="midnightblue" d="M276.003,-118.403C276.991,-109.938 278.532,-96.7283 279.804,-85.8199"/>
<polygon fill="midnightblue" stroke="midnightblue" points="283.316,-85.9188 280.999,-75.5806 276.364,-85.1076 283.316,-85.9188"/>
</g>
<!-- Node5 -->
<g id="node5" class="node"><title>Node5</title>
<polygon fill="none" stroke="#bfbfbf" points="109.5,-0.5 109.5,-19.5 180.5,-19.5 180.5,-0.5 109.5,-0.5"/>
<text text-anchor="middle" x="145" y="-7.5" font-family="Helvetica,sans-Serif" font-size="10.00">stm/config.h</text>
</g>
<!-- Node4&#45;&gt;Node5 -->
<g id="edge4" class="edge"><title>Node4&#45;&gt;Node5</title>
<path fill="none" stroke="midnightblue" d="M260.292,-56.4435C237.645,-47.5171 201.928,-33.4387 176.248,-23.3168"/>
<polygon fill="midnightblue" stroke="midnightblue" points="177.193,-19.9273 166.606,-19.5164 174.626,-26.4397 177.193,-19.9273"/>
</g>
<!-- Node4&#45;&gt;Node6 -->
<g id="edge5" class="edge"><title>Node4&#45;&gt;Node6</title>
<path fill="none" stroke="midnightblue" d="M301.49,-56.4435C321.642,-47.5961 353.323,-33.6875 376.331,-23.5865"/>
<polygon fill="midnightblue" stroke="midnightblue" points="377.852,-26.7411 385.601,-19.5164 375.038,-20.3316 377.852,-26.7411"/>
</g>
<!-- Node7 -->
<g id="node7" class="node"><title>Node7</title>
<polygon fill="none" stroke="#bfbfbf" points="217,-0.5 217,-19.5 265,-19.5 265,-0.5 217,-0.5"/>
<text text-anchor="middle" x="241" y="-7.5" font-family="Helvetica,sans-Serif" font-size="10.00">limits.h</text>
</g>
<!-- Node4&#45;&gt;Node7 -->
<g id="edge6" class="edge"><title>Node4&#45;&gt;Node7</title>
<path fill="none" stroke="midnightblue" d="M275.23,-56.083C269.438,-48.4554 260.942,-37.2645 253.862,-27.9408"/>
<polygon fill="midnightblue" stroke="midnightblue" points="256.479,-25.5991 247.644,-19.7511 250.904,-29.8321 256.479,-25.5991"/>
</g>
<!-- Node8 -->
<g id="node8" class="node"><title>Node8</title>
<polygon fill="none" stroke="#bfbfbf" points="283.5,-0.5 283.5,-19.5 334.5,-19.5 334.5,-0.5 283.5,-0.5"/>
<text text-anchor="middle" x="309" y="-7.5" font-family="Helvetica,sans-Serif" font-size="10.00">unistd.h</text>
</g>
<!-- Node4&#45;&gt;Node8 -->
<g id="edge7" class="edge"><title>Node4&#45;&gt;Node8</title>
<path fill="none" stroke="midnightblue" d="M286.459,-56.083C290.154,-48.6913 295.523,-37.9533 300.094,-28.8111"/>
<polygon fill="midnightblue" stroke="midnightblue" points="303.283,-30.2606 304.624,-19.7511 297.022,-27.1301 303.283,-30.2606"/>
</g>
<!-- Node11 -->
<g id="node11" class="node"><title>Node11</title>
<polygon fill="none" stroke="#bfbfbf" points="138,-56.5 138,-75.5 208,-75.5 208,-56.5 138,-56.5"/>
<text text-anchor="middle" x="173" y="-63.5" font-family="Helvetica,sans-Serif" font-size="10.00">wmmintrin.h</text>
</g>
<!-- Node10&#45;&gt;Node11 -->
<g id="edge11" class="edge"><title>Node10&#45;&gt;Node11</title>
<path fill="none" stroke="midnightblue" d="M177.578,-112.781C176.769,-104.691 175.746,-94.4617 174.873,-85.725"/>
<polygon fill="midnightblue" stroke="midnightblue" points="178.351,-85.3326 173.873,-75.7305 171.386,-86.0292 178.351,-85.3326"/>
</g>
<!-- Node12&#45;&gt;Node2 -->
<g id="edge13" class="edge"><title>Node12&#45;&gt;Node2</title>
<path fill="none" stroke="midnightblue" d="M231.688,-292.368C239.341,-274.456 257.087,-232.923 267.331,-208.948"/>
<polygon fill="midnightblue" stroke="midnightblue" points="270.618,-210.162 271.329,-199.591 264.181,-207.412 270.618,-210.162"/>
</g>
<!-- Node13 -->
<g id="node13" class="node"><title>Node13</title>
<g id="a_node13"><a xlink:href="Scope_8h.html" target="_top" xlink:title="Scope.h">
<polygon fill="none" stroke="black" points="138.5,-236.5 138.5,-255.5 191.5,-255.5 191.5,-236.5 138.5,-236.5"/>
<text text-anchor="middle" x="165" y="-243.5" font-family="Helvetica,sans-Serif" font-size="10.00">Scope.h</text>
</a>
</g>
</g>
<!-- Node12&#45;&gt;Node13 -->
<g id="edge14" class="edge"><title>Node12&#45;&gt;Node13</title>
<path fill="none" stroke="midnightblue" d="M217.878,-292.324C208.474,-284.263 194.256,-272.077 182.931,-262.369"/>
<polygon fill="midnightblue" stroke="midnightblue" points="185.177,-259.684 175.306,-255.834 180.621,-264.999 185.177,-259.684"/>
</g>
<!-- Node13&#45;&gt;Node2 -->
<g id="edge16" class="edge"><title>Node13&#45;&gt;Node2</title>
<path fill="none" stroke="midnightblue" d="M182.673,-236.324C200.394,-227.625 227.903,-214.12 248.288,-204.113"/>
<polygon fill="midnightblue" stroke="midnightblue" points="249.936,-207.203 257.37,-199.655 246.851,-200.919 249.936,-207.203"/>
</g>
<!-- Node14 -->
<g id="node14" class="node"><title>Node14</title>
<polygon fill="none" stroke="#bfbfbf" points="23,-180.5 23,-199.5 67,-199.5 67,-180.5 23,-180.5"/>
<text text-anchor="middle" x="45" y="-187.5" font-family="Helvetica,sans-Serif" font-size="10.00">vector</text>
</g>
<!-- Node13&#45;&gt;Node14 -->
<g id="edge15" class="edge"><title>Node13&#45;&gt;Node14</title>
<path fill="none" stroke="midnightblue" d="M145.986,-236.444C126.412,-227.636 95.6924,-213.812 73.2711,-203.722"/>
<polygon fill="midnightblue" stroke="midnightblue" points="74.4809,-200.428 63.9254,-199.516 71.6083,-206.812 74.4809,-200.428"/>
</g>
<!-- Node15 -->
<g id="node15" class="node"><title>Node15</title>
<g id="a_node15"><a xlink:href="Checkpoint_8h.html" target="_top" xlink:title="Checkpoint.h">
<polygon fill="none" stroke="black" points="85,-180.5 85,-199.5 159,-199.5 159,-180.5 85,-180.5"/>
<text text-anchor="middle" x="122" y="-187.5" font-family="Helvetica,sans-Serif" font-size="10.00">Checkpoint.h</text>
</a>
</g>
</g>
<!-- Node13&#45;&gt;Node15 -->
<g id="edge17" class="edge"><title>Node13&#45;&gt;Node15</title>
<path fill="none" stroke="midnightblue" d="M157.899,-236.083C151.763,-228.377 142.73,-217.033 135.261,-207.653"/>
<polygon fill="midnightblue" stroke="midnightblue" points="137.936,-205.394 128.968,-199.751 132.46,-209.754 137.936,-205.394"/>
</g>
<!-- Node15&#45;&gt;Node5 -->
<g id="edge18" class="edge"><title>Node15&#45;&gt;Node5</title>
<path fill="none" stroke="midnightblue" d="M121.254,-180.382C120.511,-171.33 119.422,-156.677 119,-144 117.69,-104.659 118.912,-94.0483 129,-56 131.364,-47.0836 134.695,-37.4185 137.706,-29.3393"/>
<polygon fill="midnightblue" stroke="midnightblue" points="141.041,-30.418 141.372,-19.8283 134.51,-27.9005 141.041,-30.418"/>
</g>
<!-- Node16 -->
<g id="node16" class="node"><title>Node16</title>
<polygon fill="none" stroke="#bfbfbf" points="0,-118.5 0,-137.5 72,-137.5 72,-118.5 0,-118.5"/>
<text text-anchor="middle" x="36" y="-125.5" font-family="Helvetica,sans-Serif" font-size="10.00">checkpoint.h</text>
</g>
<!-- Node15&#45;&gt;Node16 -->
<g id="edge19" class="edge"><title>Node15&#45;&gt;Node16</title>
<path fill="none" stroke="midnightblue" d="M109.678,-180.403C95.8842,-170.78 73.3013,-155.024 56.7677,-143.489"/>
<polygon fill="midnightblue" stroke="midnightblue" points="58.5028,-140.432 48.2988,-137.581 54.4975,-146.173 58.5028,-140.432"/>
</g>
<!-- Node17&#45;&gt;Node6 -->
<g id="edge22" class="edge"><title>Node17&#45;&gt;Node6</title>
<path fill="none" stroke="midnightblue" d="M389.296,-292.282C406.82,-274.851 443,-233.695 443,-191 443,-191 443,-191 443,-127 443,-90.6128 425.905,-50.8528 414.647,-28.6136"/>
<polygon fill="midnightblue" stroke="midnightblue" points="417.716,-26.9294 409.968,-19.7035 411.519,-30.1842 417.716,-26.9294"/>
</g>
<!-- Node18 -->
<g id="node18" class="node"><title>Node18</title>
<polygon fill="none" stroke="#bfbfbf" points="355.5,-236.5 355.5,-255.5 404.5,-255.5 404.5,-236.5 355.5,-236.5"/>
<text text-anchor="middle" x="380" y="-243.5" font-family="Helvetica,sans-Serif" font-size="10.00">cstddef</text>
</g>
<!-- Node17&#45;&gt;Node18 -->
<g id="edge21" class="edge"><title>Node17&#45;&gt;Node18</title>
<path fill="none" stroke="midnightblue" d="M380,-292.083C380,-285.006 380,-274.861 380,-265.986"/>
<polygon fill="midnightblue" stroke="midnightblue" points="383.5,-265.751 380,-255.751 376.5,-265.751 383.5,-265.751"/>
</g>
</g>
</svg>
