<?xml version="1.0" encoding="UTF-8" standalone="no"?>
<!DOCTYPE svg PUBLIC "-//W3C//DTD SVG 1.1//EN"
 "http://www.w3.org/Graphics/SVG/1.1/DTD/svg11.dtd">
<!-- Generated by graphviz version 2.36.0 (20140111.2315)
 -->
<!-- Title: _ITM_getTransaction Pages: 1 -->
<!--zoomable 237 -->
<svg id="main" version="1.1" xmlns="http://www.w3.org/2000/svg" xmlns:xlink="http://www.w3.org/1999/xlink" xml:space="preserve" onload="init(evt)">
<style type="text/css"><![CDATA[
.edge:hover path { stroke: red; }
.edge:hover polygon { stroke: red; fill: red; }
]]></style>
<script type="text/javascript"><![CDATA[
var edges = document.getElementsByTagName('g');
if (edges && edges.length) {
  for (var i=0;i<edges.length;i++) {
    if (edges[i].id.substr(0,4)=='edge') {
      edges[i].setAttribute('class','edge');
    }
  }
}
]]></script>
        <defs>
                <circle id="rim" cx="0" cy="0" r="7"/>
                <circle id="rim2" cx="0" cy="0" r="3.5"/>
                <g id="zoomPlus">
                        <use xlink:href="#rim" fill="#404040">
                                <set attributeName="fill" to="#808080" begin="zoomplus.mouseover" end="zoomplus.mouseout"/>
                        </use>
                        <path d="M-4,0h8M0,-4v8" fill="none" stroke="white" stroke-width="1.5" pointer-events="none"/>
                </g>
                <g id="zoomMin">
                        <use xlink:href="#rim" fill="#404040">
                                <set attributeName="fill" to="#808080" begin="zoomminus.mouseover" end="zoomminus.mouseout"/>
                        </use>
                        <path d="M-4,0h8" fill="none" stroke="white" stroke-width="1.5" pointer-events="none"/>
                </g>
                <g id="dirArrow">
                        <path fill="none" stroke="white" stroke-width="1.5" d="M0,-3.0v7 M-2.5,-0.5L0,-3.0L2.5,-0.5"/>
                </g>
               <g id="resetDef">
                       <use xlink:href="#rim2" fill="#404040">
                               <set attributeName="fill" to="#808080" begin="reset.mouseover" end="reset.mouseout"/>
                       </use>
               </g>
        </defs>

<script type="text/javascript">
var viewWidth = 1798;
var viewHeight = 237;
var sectionId = 'dynsection-3';
</script>
<script xlink:href="svgpan.js"/>
<svg id="graph" class="graph">
<g id="viewport">
<title>_ITM_getTransaction</title>
<!-- Node1 -->
<g id="node1" class="node"><title>Node1</title>
<polygon fill="#bfbfbf" stroke="black" points="0.5,-68.5 0.5,-87.5 109.5,-87.5 109.5,-68.5 0.5,-68.5"/>
<text text-anchor="middle" x="55" y="-75.5" font-family="Helvetica,sans-Serif" font-size="10.00">_ITM_getTransaction</text>
</g>
<!-- Node2 -->
<g id="node2" class="node"><title>Node2</title>
<g id="a_node2"><a xlink:href="structstm_1_1TxThread.html#a4e78a4f0dcb5010456aa031d3fda70ac" target="_top" xlink:title="stm::TxThread::thread_init">
<polygon fill="none" stroke="black" points="146.5,-68.5 146.5,-87.5 277.5,-87.5 277.5,-68.5 146.5,-68.5"/>
<text text-anchor="middle" x="212" y="-75.5" font-family="Helvetica,sans-Serif" font-size="10.00">stm::TxThread::thread_init</text>
</a>
</g>
</g>
<!-- Node1&#45;&gt;Node2 -->
<g id="edge1" class="edge"><title>Node1&#45;&gt;Node2</title>
<path fill="none" stroke="midnightblue" d="M109.776,-78C118.353,-78 127.358,-78 136.313,-78"/>
<polygon fill="midnightblue" stroke="midnightblue" points="136.377,-81.5001 146.377,-78 136.377,-74.5001 136.377,-81.5001"/>
</g>
<!-- Node3 -->
<g id="node3" class="node"><title>Node3</title>
<g id="a_node3"><a xlink:href="structstm_1_1TxThread.html#a27aa264d621bb5d008571c6aab47a9ba" target="_top" xlink:title="stm::TxThread::TxThread">
<polygon fill="none" stroke="black" points="314,-68.5 314,-87.5 442,-87.5 442,-68.5 314,-68.5"/>
<text text-anchor="middle" x="378" y="-75.5" font-family="Helvetica,sans-Serif" font-size="10.00">stm::TxThread::TxThread</text>
</a>
</g>
</g>
<!-- Node2&#45;&gt;Node3 -->
<g id="edge2" class="edge"><title>Node2&#45;&gt;Node3</title>
<path fill="none" stroke="midnightblue" d="M277.817,-78C286.376,-78 295.196,-78 303.882,-78"/>
<polygon fill="midnightblue" stroke="midnightblue" points="303.993,-81.5001 313.993,-78 303.993,-74.5001 303.993,-81.5001"/>
</g>
<!-- Node4 -->
<g id="node4" class="node"><title>Node4</title>
<g id="a_node4"><a xlink:href="namespacestm.html#a5dc0e1df0fe411722145e01e8b09b4b8" target="_top" xlink:title="stm::begin">
<polygon fill="none" stroke="black" points="502,-125.5 502,-144.5 564,-144.5 564,-125.5 502,-125.5"/>
<text text-anchor="middle" x="533" y="-132.5" font-family="Helvetica,sans-Serif" font-size="10.00">stm::begin</text>
</a>
</g>
</g>
<!-- Node3&#45;&gt;Node4 -->
<g id="edge3" class="edge"><title>Node3&#45;&gt;Node4</title>
<path fill="none" stroke="midnightblue" d="M403.339,-87.5617C423.335,-95.3642 452.427,-106.595 478,-116 483.497,-118.022 489.326,-120.12 495.041,-122.151"/>
<polygon fill="midnightblue" stroke="midnightblue" points="493.88,-125.453 504.475,-125.483 496.212,-118.853 493.88,-125.453"/>
</g>
<!-- Node5 -->
<g id="node5" class="node"><title>Node5</title>
<g id="a_node5"><a xlink:href="namespacestm.html#a347d5009be494e8595a8933c49a342b4" target="_top" xlink:title="stm::begin_blocker">
<polygon fill="none" stroke="black" points="483.5,-87.5 483.5,-106.5 582.5,-106.5 582.5,-87.5 483.5,-87.5"/>
<text text-anchor="middle" x="533" y="-94.5" font-family="Helvetica,sans-Serif" font-size="10.00">stm::begin_blocker</text>
</a>
</g>
</g>
<!-- Node3&#45;&gt;Node5 -->
<g id="edge4" class="edge"><title>Node3&#45;&gt;Node5</title>
<path fill="none" stroke="midnightblue" d="M442.114,-85.8377C452.363,-87.1104 462.942,-88.4241 473.085,-89.6837"/>
<polygon fill="midnightblue" stroke="midnightblue" points="472.699,-93.1626 483.054,-90.9217 473.562,-86.216 472.699,-93.1626"/>
</g>
<!-- Node21 -->
<g id="node21" class="node"><title>Node21</title>
<g id="a_node21"><a xlink:href="locks_8hpp.html#a67493dc021b0db009a9603ea55d18c59" target="_top" xlink:title="spin64">
<polygon fill="none" stroke="black" points="664.5,-49.5 664.5,-68.5 709.5,-68.5 709.5,-49.5 664.5,-49.5"/>
<text text-anchor="middle" x="687" y="-56.5" font-family="Helvetica,sans-Serif" font-size="10.00">spin64</text>
</a>
</g>
</g>
<!-- Node3&#45;&gt;Node21 -->
<g id="edge22" class="edge"><title>Node3&#45;&gt;Node21</title>
<path fill="none" stroke="midnightblue" d="M442.238,-74.0862C506.832,-70.0886 604.499,-64.044 654.328,-60.9602"/>
<polygon fill="midnightblue" stroke="midnightblue" points="654.727,-64.4422 664.492,-60.3311 654.295,-57.4556 654.727,-64.4422"/>
</g>
<!-- Node22 -->
<g id="node22" class="node"><title>Node22</title>
<g id="a_node22"><a xlink:href="namespacestm.html#a103d1928b37a80dd6c538aeab4b1624d" target="_top" xlink:title="stm::install_algorithm\l_local">
<polygon fill="none" stroke="black" points="478,-0 478,-30 588,-30 588,-0 478,-0"/>
<text text-anchor="start" x="486" y="-18" font-family="Helvetica,sans-Serif" font-size="10.00">stm::install_algorithm</text>
<text text-anchor="middle" x="533" y="-7" font-family="Helvetica,sans-Serif" font-size="10.00">_local</text>
</a>
</g>
</g>
<!-- Node3&#45;&gt;Node22 -->
<g id="edge23" class="edge"><title>Node3&#45;&gt;Node22</title>
<path fill="none" stroke="midnightblue" d="M402.237,-68.4317C424.372,-59.3174 458.317,-45.34 485.937,-33.967"/>
<polygon fill="midnightblue" stroke="midnightblue" points="487.499,-37.109 495.413,-30.065 484.834,-30.6362 487.499,-37.109"/>
</g>
<!-- Node6 -->
<g id="node6" class="node"><title>Node6</title>
<g id="a_node6"><a xlink:href="namespaceanonymous__namespace_02irrevocability_8cpp_03.html#a5f2e3da55eda99c9e30b6314c36ed8b2" target="_top" xlink:title="anonymous_namespace\l\{irrevocability::cpp\}\l::set_irrevocable_barriers">
<polygon fill="none" stroke="black" points="624,-87.5 624,-128.5 750,-128.5 750,-87.5 624,-87.5"/>
<text text-anchor="start" x="632" y="-116.5" font-family="Helvetica,sans-Serif" font-size="10.00">anonymous_namespace</text>
<text text-anchor="start" x="632" y="-105.5" font-family="Helvetica,sans-Serif" font-size="10.00">{irrevocability::cpp}</text>
<text text-anchor="middle" x="687" y="-94.5" font-family="Helvetica,sans-Serif" font-size="10.00">::set_irrevocable_barriers</text>
</a>
</g>
</g>
<!-- Node5&#45;&gt;Node6 -->
<g id="edge5" class="edge"><title>Node5&#45;&gt;Node6</title>
<path fill="none" stroke="midnightblue" d="M582.512,-100.511C592.454,-101.23 603.121,-102.002 613.693,-102.767"/>
<polygon fill="midnightblue" stroke="midnightblue" points="613.546,-106.266 623.772,-103.497 614.051,-99.2839 613.546,-106.266"/>
</g>
<!-- Node5&#45;&gt;Node21 -->
<g id="edge21" class="edge"><title>Node5&#45;&gt;Node21</title>
<path fill="none" stroke="midnightblue" d="M572.356,-87.411C597.637,-81.0907 630.354,-72.9116 654.187,-66.9533"/>
<polygon fill="midnightblue" stroke="midnightblue" points="655.279,-70.2882 664.131,-64.4672 653.581,-63.4972 655.279,-70.2882"/>
</g>
<!-- Node7 -->
<g id="node7" class="node"><title>Node7</title>
<g id="a_node7"><a xlink:href="namespaceanonymous__namespace_02irrevocability_8cpp_03.html#af9e6aae425588bac29be16e10b91cd4c" target="_top" xlink:title="anonymous_namespace\l\{irrevocability::cpp\}\l::commit_irrevocable">
<polygon fill="none" stroke="black" points="786,-147.5 786,-188.5 908,-188.5 908,-147.5 786,-147.5"/>
<text text-anchor="start" x="794" y="-176.5" font-family="Helvetica,sans-Serif" font-size="10.00">anonymous_namespace</text>
<text text-anchor="start" x="794" y="-165.5" font-family="Helvetica,sans-Serif" font-size="10.00">{irrevocability::cpp}</text>
<text text-anchor="middle" x="847" y="-154.5" font-family="Helvetica,sans-Serif" font-size="10.00">::commit_irrevocable</text>
</a>
</g>
</g>
<!-- Node6&#45;&gt;Node7 -->
<g id="edge6" class="edge"><title>Node6&#45;&gt;Node7</title>
<path fill="none" stroke="midnightblue" d="M742.375,-128.649C755.232,-133.531 769.057,-138.781 782.287,-143.805"/>
<polygon fill="midnightblue" stroke="midnightblue" points="781.202,-147.137 791.793,-147.415 783.687,-140.593 781.202,-147.137"/>
</g>
<!-- Node18 -->
<g id="node18" class="node"><title>Node18</title>
<g id="a_node18"><a xlink:href="namespaceanonymous__namespace_02irrevocability_8cpp_03.html#adfdb44f5b204ddd367543d1e3a5465fc" target="_top" xlink:title="anonymous_namespace\l\{irrevocability::cpp\}\l::rollback_irrevocable">
<polygon fill="none" stroke="black" points="786,-87.5 786,-128.5 908,-128.5 908,-87.5 786,-87.5"/>
<text text-anchor="start" x="794" y="-116.5" font-family="Helvetica,sans-Serif" font-size="10.00">anonymous_namespace</text>
<text text-anchor="start" x="794" y="-105.5" font-family="Helvetica,sans-Serif" font-size="10.00">{irrevocability::cpp}</text>
<text text-anchor="middle" x="847" y="-94.5" font-family="Helvetica,sans-Serif" font-size="10.00">::rollback_irrevocable</text>
</a>
</g>
</g>
<!-- Node6&#45;&gt;Node18 -->
<g id="edge17" class="edge"><title>Node6&#45;&gt;Node18</title>
<path fill="none" stroke="midnightblue" d="M750.446,-108C758.724,-108 767.257,-108 775.658,-108"/>
<polygon fill="midnightblue" stroke="midnightblue" points="775.813,-111.5 785.813,-108 775.813,-104.5 775.813,-111.5"/>
</g>
<!-- Node20 -->
<g id="node20" class="node"><title>Node20</title>
<g id="a_node20"><a xlink:href="namespaceanonymous__namespace_02irrevocability_8cpp_03.html#ac71fd4f2ae60b1814ccaedea40d424a2" target="_top" xlink:title="anonymous_namespace\l\{irrevocability::cpp\}\l::abort_irrevocable">
<polygon fill="none" stroke="black" points="786,-27.5 786,-68.5 908,-68.5 908,-27.5 786,-27.5"/>
<text text-anchor="start" x="794" y="-56.5" font-family="Helvetica,sans-Serif" font-size="10.00">anonymous_namespace</text>
<text text-anchor="start" x="794" y="-45.5" font-family="Helvetica,sans-Serif" font-size="10.00">{irrevocability::cpp}</text>
<text text-anchor="middle" x="847" y="-34.5" font-family="Helvetica,sans-Serif" font-size="10.00">::abort_irrevocable</text>
</a>
</g>
</g>
<!-- Node6&#45;&gt;Node20 -->
<g id="edge19" class="edge"><title>Node6&#45;&gt;Node20</title>
<path fill="none" stroke="midnightblue" d="M742.375,-87.3514C755.232,-82.4687 769.057,-77.2189 782.287,-72.1949"/>
<polygon fill="midnightblue" stroke="midnightblue" points="783.687,-75.4072 791.793,-68.585 781.202,-68.8631 783.687,-75.4072"/>
</g>
<!-- Node8 -->
<g id="node8" class="node"><title>Node8</title>
<g id="a_node8"><a xlink:href="namespaceanonymous__namespace_02irrevocability_8cpp_03.html#ab42770392de26e3b0bc1ffbe2f7932b8" target="_top" xlink:title="anonymous_namespace\l\{irrevocability::cpp\}\l::unset_irrevocable_barriers">
<polygon fill="none" stroke="black" points="944.5,-168.5 944.5,-209.5 1081.5,-209.5 1081.5,-168.5 944.5,-168.5"/>
<text text-anchor="start" x="952.5" y="-197.5" font-family="Helvetica,sans-Serif" font-size="10.00">anonymous_namespace</text>
<text text-anchor="start" x="952.5" y="-186.5" font-family="Helvetica,sans-Serif" font-size="10.00">{irrevocability::cpp}</text>
<text text-anchor="middle" x="1013" y="-175.5" font-family="Helvetica,sans-Serif" font-size="10.00">::unset_irrevocable_barriers</text>
</a>
</g>
</g>
<!-- Node7&#45;&gt;Node8 -->
<g id="edge7" class="edge"><title>Node7&#45;&gt;Node8</title>
<path fill="none" stroke="midnightblue" d="M908.136,-175.7C916.705,-176.798 925.616,-177.939 934.459,-179.071"/>
<polygon fill="midnightblue" stroke="midnightblue" points="934.027,-182.544 944.391,-180.343 934.916,-175.601 934.027,-182.544"/>
</g>
<!-- Node9 -->
<g id="node9" class="node"><title>Node9</title>
<g id="a_node9"><a xlink:href="namespacestm.html#a00287c50a719dcda144cc1cbc9e9ae4b" target="_top" xlink:title="stm::OnReadOnlyCommit">
<polygon fill="none" stroke="black" points="948,-130.5 948,-149.5 1078,-149.5 1078,-130.5 948,-130.5"/>
<text text-anchor="middle" x="1013" y="-137.5" font-family="Helvetica,sans-Serif" font-size="10.00">stm::OnReadOnlyCommit</text>
</a>
</g>
</g>
<!-- Node7&#45;&gt;Node9 -->
<g id="edge8" class="edge"><title>Node7&#45;&gt;Node9</title>
<path fill="none" stroke="midnightblue" d="M908.136,-157.733C920.543,-155.615 933.671,-153.373 946.265,-151.223"/>
<polygon fill="midnightblue" stroke="midnightblue" points="946.958,-154.655 956.227,-149.522 945.78,-147.755 946.958,-154.655"/>
</g>
<!-- Node10 -->
<g id="node10" class="node"><title>Node10</title>
<g id="a_node10"><a xlink:href="classstm_1_1WBMMPolicy.html#af174b70b9898c8d900a5a2604cfadc7c" target="_top" xlink:title="stm::WBMMPolicy::onTxCommit">
<polygon fill="none" stroke="black" points="1118.5,-149.5 1118.5,-168.5 1279.5,-168.5 1279.5,-149.5 1118.5,-149.5"/>
<text text-anchor="middle" x="1199" y="-156.5" font-family="Helvetica,sans-Serif" font-size="10.00">stm::WBMMPolicy::onTxCommit</text>
</a>
</g>
</g>
<!-- Node9&#45;&gt;Node10 -->
<g id="edge9" class="edge"><title>Node9&#45;&gt;Node10</title>
<path fill="none" stroke="midnightblue" d="M1078.1,-146.619C1087.82,-147.623 1098,-148.674 1108.15,-149.722"/>
<polygon fill="midnightblue" stroke="midnightblue" points="1107.96,-153.221 1118.27,-150.767 1108.68,-146.258 1107.96,-153.221"/>
</g>
<!-- Node17 -->
<g id="node17" class="node"><title>Node17</title>
<g id="a_node17"><a xlink:href="structstm_1_1toxic__nop__t.html#a1c92cb621137c523ad38b9c252b4da06" target="_top" xlink:title="stm::toxic_nop_t::onCommit">
<polygon fill="none" stroke="black" points="1129,-111.5 1129,-130.5 1269,-130.5 1269,-111.5 1129,-111.5"/>
<text text-anchor="middle" x="1199" y="-118.5" font-family="Helvetica,sans-Serif" font-size="10.00">stm::toxic_nop_t::onCommit</text>
</a>
</g>
</g>
<!-- Node9&#45;&gt;Node17 -->
<g id="edge16" class="edge"><title>Node9&#45;&gt;Node17</title>
<path fill="none" stroke="midnightblue" d="M1078.1,-133.381C1091.15,-132.033 1105.04,-130.599 1118.56,-129.203"/>
<polygon fill="midnightblue" stroke="midnightblue" points="1119.22,-132.654 1128.81,-128.145 1118.5,-125.691 1119.22,-132.654"/>
</g>
<!-- Node11 -->
<g id="node11" class="node"><title>Node11</title>
<g id="a_node11"><a xlink:href="classstm_1_1MiniVector.html#a4d707e1115e162943b4709a2af92ed77" target="_top" xlink:title="stm::MiniVector::begin">
<polygon fill="none" stroke="black" points="1331.5,-209.5 1331.5,-228.5 1446.5,-228.5 1446.5,-209.5 1331.5,-209.5"/>
<text text-anchor="middle" x="1389" y="-216.5" font-family="Helvetica,sans-Serif" font-size="10.00">stm::MiniVector::begin</text>
</a>
</g>
</g>
<!-- Node10&#45;&gt;Node11 -->
<g id="edge10" class="edge"><title>Node10&#45;&gt;Node11</title>
<path fill="none" stroke="midnightblue" d="M1225.15,-168.558C1248.51,-177.278 1284.36,-190.252 1316,-200 1323.56,-202.329 1331.61,-204.629 1339.5,-206.782"/>
<polygon fill="midnightblue" stroke="midnightblue" points="1338.78,-210.213 1349.35,-209.421 1340.59,-203.452 1338.78,-210.213"/>
</g>
<!-- Node12 -->
<g id="node12" class="node"><title>Node12</title>
<g id="a_node12"><a xlink:href="classstm_1_1MiniVector.html#ae2297c706ac2ebee161ef60ace9ae645" target="_top" xlink:title="stm::MiniVector::end">
<polygon fill="none" stroke="black" points="1335.5,-171.5 1335.5,-190.5 1442.5,-190.5 1442.5,-171.5 1335.5,-171.5"/>
<text text-anchor="middle" x="1389" y="-178.5" font-family="Helvetica,sans-Serif" font-size="10.00">stm::MiniVector::end</text>
</a>
</g>
</g>
<!-- Node10&#45;&gt;Node12 -->
<g id="edge11" class="edge"><title>Node10&#45;&gt;Node12</title>
<path fill="none" stroke="midnightblue" d="M1279.73,-168.33C1295.02,-170.119 1310.82,-171.968 1325.47,-173.682"/>
<polygon fill="midnightblue" stroke="midnightblue" points="1325.07,-177.159 1335.4,-174.845 1325.88,-170.207 1325.07,-177.159"/>
</g>
<!-- Node13 -->
<g id="node13" class="node"><title>Node13</title>
<g id="a_node13"><a xlink:href="classstm_1_1WBMMPolicy.html#aa2aa233946e7b6b1d35b184503b8c9f9" target="_top" xlink:title="stm::WBMMPolicy::schedFor\lReclaim">
<polygon fill="none" stroke="black" points="1316,-122 1316,-152 1462,-152 1462,-122 1316,-122"/>
<text text-anchor="start" x="1324" y="-140" font-family="Helvetica,sans-Serif" font-size="10.00">stm::WBMMPolicy::schedFor</text>
<text text-anchor="middle" x="1389" y="-129" font-family="Helvetica,sans-Serif" font-size="10.00">Reclaim</text>
</a>
</g>
</g>
<!-- Node10&#45;&gt;Node13 -->
<g id="edge12" class="edge"><title>Node10&#45;&gt;Node13</title>
<path fill="none" stroke="midnightblue" d="M1279.73,-149.67C1288.36,-148.66 1297.16,-147.631 1305.82,-146.617"/>
<polygon fill="midnightblue" stroke="midnightblue" points="1306.38,-150.076 1315.9,-145.437 1305.56,-143.123 1306.38,-150.076"/>
</g>
<!-- Node16 -->
<g id="node16" class="node"><title>Node16</title>
<g id="a_node16"><a xlink:href="classstm_1_1MiniVector.html#ad17f9c76202d399264ba62812f0b5c41" target="_top" xlink:title="stm::MiniVector::reset">
<polygon fill="none" stroke="black" points="1332.5,-83.5 1332.5,-102.5 1445.5,-102.5 1445.5,-83.5 1332.5,-83.5"/>
<text text-anchor="middle" x="1389" y="-90.5" font-family="Helvetica,sans-Serif" font-size="10.00">stm::MiniVector::reset</text>
</a>
</g>
</g>
<!-- Node10&#45;&gt;Node16 -->
<g id="edge15" class="edge"><title>Node10&#45;&gt;Node16</title>
<path fill="none" stroke="midnightblue" d="M1254.45,-149.396C1263.21,-146.914 1272.02,-143.827 1280,-140 1298.28,-131.236 1297.83,-120.99 1316,-112 1320.66,-109.694 1325.63,-107.643 1330.71,-105.825"/>
<polygon fill="midnightblue" stroke="midnightblue" points="1332.11,-109.047 1340.53,-102.609 1329.93,-102.395 1332.11,-109.047"/>
</g>
<!-- Node14 -->
<g id="node14" class="node"><title>Node14</title>
<g id="a_node14"><a xlink:href="classstm_1_1WBMMPolicy.html#a80a035e5b8f805d49606613b869ddd3c" target="_top" xlink:title="stm::WBMMPolicy::handle\l_full_prelimbo">
<polygon fill="none" stroke="black" points="1498,-122 1498,-152 1632,-152 1632,-122 1498,-122"/>
<text text-anchor="start" x="1506" y="-140" font-family="Helvetica,sans-Serif" font-size="10.00">stm::WBMMPolicy::handle</text>
<text text-anchor="middle" x="1565" y="-129" font-family="Helvetica,sans-Serif" font-size="10.00">_full_prelimbo</text>
</a>
</g>
</g>
<!-- Node13&#45;&gt;Node14 -->
<g id="edge13" class="edge"><title>Node13&#45;&gt;Node14</title>
<path fill="none" stroke="midnightblue" d="M1462.03,-137C1470.47,-137 1479.11,-137 1487.6,-137"/>
<polygon fill="midnightblue" stroke="midnightblue" points="1487.88,-140.5 1497.88,-137 1487.88,-133.5 1487.88,-140.5"/>
</g>
<!-- Node15 -->
<g id="node15" class="node"><title>Node15</title>
<g id="a_node15"><a xlink:href="namespaceanonymous__namespace_02WBMMPolicy_8cpp_03.html#a030c6e9142fd49127ce70ad9b1af5e79" target="_top" xlink:title="anonymous_namespace\l\{WBMMPolicy::cpp\}::is\l_strictly_older">
<polygon fill="none" stroke="black" points="1668,-116.5 1668,-157.5 1790,-157.5 1790,-116.5 1668,-116.5"/>
<text text-anchor="start" x="1676" y="-145.5" font-family="Helvetica,sans-Serif" font-size="10.00">anonymous_namespace</text>
<text text-anchor="start" x="1676" y="-134.5" font-family="Helvetica,sans-Serif" font-size="10.00">{WBMMPolicy::cpp}::is</text>
<text text-anchor="middle" x="1729" y="-123.5" font-family="Helvetica,sans-Serif" font-size="10.00">_strictly_older</text>
</a>
</g>
</g>
<!-- Node14&#45;&gt;Node15 -->
<g id="edge14" class="edge"><title>Node14&#45;&gt;Node15</title>
<path fill="none" stroke="midnightblue" d="M1632.36,-137C1640.75,-137 1649.35,-137 1657.79,-137"/>
<polygon fill="midnightblue" stroke="midnightblue" points="1657.99,-140.5 1667.99,-137 1657.99,-133.5 1657.99,-140.5"/>
</g>
<!-- Node19 -->
<g id="node19" class="node"><title>Node19</title>
<g id="a_node19"><a xlink:href="namespacestm.html#a51b2c0958e7709b39500d037648c461b" target="_top" xlink:title="stm::UNRECOVERABLE">
<polygon fill="none" stroke="black" points="948,-76.5 948,-95.5 1078,-95.5 1078,-76.5 948,-76.5"/>
<text text-anchor="middle" x="1013" y="-83.5" font-family="Helvetica,sans-Serif" font-size="10.00">stm::UNRECOVERABLE</text>
</a>
</g>
</g>
<!-- Node18&#45;&gt;Node19 -->
<g id="edge18" class="edge"><title>Node18&#45;&gt;Node19</title>
<path fill="none" stroke="midnightblue" d="M908.136,-99.9329C917.703,-98.6496 927.698,-97.3088 937.546,-95.9877"/>
<polygon fill="midnightblue" stroke="midnightblue" points="938.287,-99.4198 947.733,-94.6212 937.356,-92.482 938.287,-99.4198"/>
</g>
<!-- Node20&#45;&gt;Node19 -->
<g id="edge20" class="edge"><title>Node20&#45;&gt;Node19</title>
<path fill="none" stroke="midnightblue" d="M908.136,-61.934C925.397,-65.9334 944.052,-70.2559 960.726,-74.1193"/>
<polygon fill="midnightblue" stroke="midnightblue" points="960.289,-77.6108 970.821,-76.4585 961.869,-70.7915 960.289,-77.6108"/>
</g>
</g>
</svg>
        <g id="navigator" transform="translate(0 0)" fill="#404254">
                <rect fill="#f2f5e9" fill-opacity="0.5" stroke="#606060" stroke-width=".5" x="0" y="0" width="60" height="60"/>
                <use id="zoomplus" xlink:href="#zoomPlus" x="17" y="9" onmousedown="handleZoom(evt,'in')"/>
                <use id="zoomminus" xlink:href="#zoomMin" x="42" y="9" onmousedown="handleZoom(evt,'out')"/>
                <use id="reset" xlink:href="#resetDef" x="30" y="36" onmousedown="handleReset()"/>
                <g id="arrowUp" xlink:href="#dirArrow" transform="translate(30 24)" onmousedown="handlePan(0,-1)">
                  <use xlink:href="#rim" fill="#404040">
                        <set attributeName="fill" to="#808080" begin="arrowUp.mouseover" end="arrowUp.mouseout"/>
                  </use>
                  <path fill="none" stroke="white" stroke-width="1.5" d="M0,-3.0v7 M-2.5,-0.5L0,-3.0L2.5,-0.5"/>
                </g>
                <g id="arrowRight" xlink:href="#dirArrow" transform="rotate(90) translate(36 -43)" onmousedown="handlePan(1,0)">
                  <use xlink:href="#rim" fill="#404040">
                        <set attributeName="fill" to="#808080" begin="arrowRight.mouseover" end="arrowRight.mouseout"/>
                  </use>
                  <path fill="none" stroke="white" stroke-width="1.5" d="M0,-3.0v7 M-2.5,-0.5L0,-3.0L2.5,-0.5"/>
                </g>
                <g id="arrowDown" xlink:href="#dirArrow" transform="rotate(180) translate(-30 -48)" onmousedown="handlePan(0,1)">
                  <use xlink:href="#rim" fill="#404040">
                        <set attributeName="fill" to="#808080" begin="arrowDown.mouseover" end="arrowDown.mouseout"/>
                  </use>
                  <path fill="none" stroke="white" stroke-width="1.5" d="M0,-3.0v7 M-2.5,-0.5L0,-3.0L2.5,-0.5"/>
                </g>
                <g id="arrowLeft" xlink:href="#dirArrow" transform="rotate(270) translate(-36 17)" onmousedown="handlePan(-1,0)">
                  <use xlink:href="#rim" fill="#404040">
                        <set attributeName="fill" to="#808080" begin="arrowLeft.mouseover" end="arrowLeft.mouseout"/>
                  </use>
                  <path fill="none" stroke="white" stroke-width="1.5" d="M0,-3.0v7 M-2.5,-0.5L0,-3.0L2.5,-0.5"/>
                </g>
        </g>
        <svg viewBox="0 0 15 15" width="100%" height="30px" preserveAspectRatio="xMaxYMin meet">
         <g id="arrow_out" transform="scale(0.3 0.3)">
          <a xlink:href="libitm_8h_a5edce724a00eff63931f07466901ef7d_cgraph_org.svg" target="_base">
           <rect id="button" ry="5" rx="5" y="6" x="6" height="38" width="38"
                fill="#f2f5e9" fill-opacity="0.5" stroke="#606060" stroke-width="1.0"/>
           <path id="arrow"
             d="M 11.500037,31.436501 C 11.940474,20.09759 22.043105,11.32322 32.158766,21.979434 L 37.068811,17.246167 C 37.068811,17.246167 37.088388,32 37.088388,32 L 22.160133,31.978069 C 22.160133,31.978069 26.997745,27.140456 26.997745,27.140456 C 18.528582,18.264221 13.291696,25.230495 11.500037,31.436501 z"
             style="fill:#404040;"/>
          </a>
         </g>
        </svg>
</svg>
