<?xml version="1.0" encoding="UTF-8" standalone="no"?>
<!DOCTYPE svg PUBLIC "-//W3C//DTD SVG 1.1//EN"
 "http://www.w3.org/Graphics/SVG/1.1/DTD/svg11.dtd">
<!-- Generated by graphviz version 2.36.0 (20140111.2315)
 -->
<!-- Title: rstm/rstm&#45;dev/libitm2stm/libitm&#45;5.2.cpp Pages: 1 -->
<svg width="460pt" height="276pt"
 viewBox="0.00 0.00 460.00 276.00" xmlns="http://www.w3.org/2000/svg" xmlns:xlink="http://www.w3.org/1999/xlink">
<g id="graph0" class="graph" transform="scale(1 1) rotate(0) translate(4 272)">
<title>rstm/rstm&#45;dev/libitm2stm/libitm&#45;5.2.cpp</title>
<!-- Node1 -->
<g id="node1" class="node"><title>Node1</title>
<polygon fill="#bfbfbf" stroke="black" points="214.5,-237 214.5,-267 339.5,-267 339.5,-237 214.5,-237"/>
<text text-anchor="start" x="222.5" y="-255" font-family="Helvetica,sans-Serif" font-size="10.00">rstm/rstm&#45;dev/libitm2stm</text>
<text text-anchor="middle" x="277" y="-244" font-family="Helvetica,sans-Serif" font-size="10.00">/libitm&#45;5.2.cpp</text>
</g>
<!-- Node2 -->
<g id="node2" class="node"><title>Node2</title>
<g id="a_node2"><a xlink:href="libitm_8h.html" target="_top" xlink:title="libitm.h">
<polygon fill="none" stroke="black" points="253,-180.5 253,-199.5 301,-199.5 301,-180.5 253,-180.5"/>
<text text-anchor="middle" x="277" y="-187.5" font-family="Helvetica,sans-Serif" font-size="10.00">libitm.h</text>
</a>
</g>
</g>
<!-- Node1&#45;&gt;Node2 -->
<g id="edge1" class="edge"><title>Node1&#45;&gt;Node2</title>
<path fill="none" stroke="midnightblue" d="M277,-236.781C277,-228.781 277,-218.689 277,-210.017"/>
<polygon fill="midnightblue" stroke="midnightblue" points="280.5,-209.73 277,-199.731 273.5,-209.731 280.5,-209.73"/>
</g>
<!-- Node3 -->
<g id="node3" class="node"><title>Node3</title>
<g id="a_node3"><a xlink:href="itm_8h.html" target="_top" xlink:title="itm/itm.h">
<polygon fill="none" stroke="black" points="151.5,-118.5 151.5,-137.5 206.5,-137.5 206.5,-118.5 151.5,-118.5"/>
<text text-anchor="middle" x="179" y="-125.5" font-family="Helvetica,sans-Serif" font-size="10.00">itm/itm.h</text>
</a>
</g>
</g>
<!-- Node2&#45;&gt;Node3 -->
<g id="edge2" class="edge"><title>Node2&#45;&gt;Node3</title>
<path fill="none" stroke="midnightblue" d="M262.959,-180.403C246.949,-170.601 220.55,-154.439 201.626,-142.853"/>
<polygon fill="midnightblue" stroke="midnightblue" points="203.371,-139.817 193.015,-137.581 199.716,-145.787 203.371,-139.817"/>
</g>
<!-- Node6 -->
<g id="node6" class="node"><title>Node6</title>
<polygon fill="none" stroke="#bfbfbf" points="224.5,-0.5 224.5,-19.5 273.5,-19.5 273.5,-0.5 224.5,-0.5"/>
<text text-anchor="middle" x="249" y="-7.5" font-family="Helvetica,sans-Serif" font-size="10.00">stdint.h</text>
</g>
<!-- Node2&#45;&gt;Node6 -->
<g id="edge8" class="edge"><title>Node2&#45;&gt;Node6</title>
<path fill="none" stroke="midnightblue" d="M275.132,-180.4C273.204,-171.363 270.179,-156.722 268,-144 261.068,-103.529 254.685,-55.8267 251.374,-29.9758"/>
<polygon fill="midnightblue" stroke="midnightblue" points="254.807,-29.2216 250.078,-19.7405 247.862,-30.1009 254.807,-29.2216"/>
</g>
<!-- Node9 -->
<g id="node9" class="node"><title>Node9</title>
<polygon fill="none" stroke="#bfbfbf" points="277,-118.5 277,-137.5 333,-137.5 333,-118.5 277,-118.5"/>
<text text-anchor="middle" x="305" y="-125.5" font-family="Helvetica,sans-Serif" font-size="10.00">stdbool.h</text>
</g>
<!-- Node2&#45;&gt;Node9 -->
<g id="edge9" class="edge"><title>Node2&#45;&gt;Node9</title>
<path fill="none" stroke="midnightblue" d="M281.012,-180.403C285.087,-171.671 291.518,-157.889 296.696,-146.794"/>
<polygon fill="midnightblue" stroke="midnightblue" points="299.938,-148.123 300.996,-137.581 293.595,-145.162 299.938,-148.123"/>
</g>
<!-- Node10 -->
<g id="node10" class="node"><title>Node10</title>
<g id="a_node10"><a xlink:href="avxintrin__emu_8h.html" target="_top" xlink:title="alt&#45;license/avxintrin\l_emu.h">
<polygon fill="none" stroke="black" points="351.5,-113 351.5,-143 452.5,-143 452.5,-113 351.5,-113"/>
<text text-anchor="start" x="359.5" y="-131" font-family="Helvetica,sans-Serif" font-size="10.00">alt&#45;license/avxintrin</text>
<text text-anchor="middle" x="402" y="-120" font-family="Helvetica,sans-Serif" font-size="10.00">_emu.h</text>
</a>
</g>
</g>
<!-- Node2&#45;&gt;Node10 -->
<g id="edge10" class="edge"><title>Node2&#45;&gt;Node10</title>
<path fill="none" stroke="midnightblue" d="M294.909,-180.403C312.709,-171.86 340.577,-158.483 363.423,-147.517"/>
<polygon fill="midnightblue" stroke="midnightblue" points="365.039,-150.624 372.54,-143.141 362.01,-144.313 365.039,-150.624"/>
</g>
<!-- Node4 -->
<g id="node4" class="node"><title>Node4</title>
<g id="a_node4"><a xlink:href="platform_8hpp.html" target="_top" xlink:title="common/platform.hpp">
<polygon fill="none" stroke="black" points="109.5,-56.5 109.5,-75.5 220.5,-75.5 220.5,-56.5 109.5,-56.5"/>
<text text-anchor="middle" x="165" y="-63.5" font-family="Helvetica,sans-Serif" font-size="10.00">common/platform.hpp</text>
</a>
</g>
</g>
<!-- Node3&#45;&gt;Node4 -->
<g id="edge3" class="edge"><title>Node3&#45;&gt;Node4</title>
<path fill="none" stroke="midnightblue" d="M176.994,-118.403C174.998,-109.849 171.872,-96.4497 169.311,-85.4762"/>
<polygon fill="midnightblue" stroke="midnightblue" points="172.683,-84.5237 167.002,-75.5806 165.866,-86.1143 172.683,-84.5237"/>
</g>
<!-- Node5 -->
<g id="node5" class="node"><title>Node5</title>
<polygon fill="none" stroke="#bfbfbf" points="-0.5,-0.5 -0.5,-19.5 70.5,-19.5 70.5,-0.5 -0.5,-0.5"/>
<text text-anchor="middle" x="35" y="-7.5" font-family="Helvetica,sans-Serif" font-size="10.00">stm/config.h</text>
</g>
<!-- Node4&#45;&gt;Node5 -->
<g id="edge4" class="edge"><title>Node4&#45;&gt;Node5</title>
<path fill="none" stroke="midnightblue" d="M144.401,-56.4435C123.007,-47.5566 89.3188,-33.5632 64.9756,-23.4514"/>
<polygon fill="midnightblue" stroke="midnightblue" points="66.0801,-20.1203 55.5025,-19.5164 63.3948,-26.5848 66.0801,-20.1203"/>
</g>
<!-- Node4&#45;&gt;Node6 -->
<g id="edge5" class="edge"><title>Node4&#45;&gt;Node6</title>
<path fill="none" stroke="midnightblue" d="M178.496,-56.324C191.6,-47.9002 211.712,-34.9709 227.107,-25.0741"/>
<polygon fill="midnightblue" stroke="midnightblue" points="229.018,-28.0063 235.537,-19.6545 225.233,-22.118 229.018,-28.0063"/>
</g>
<!-- Node7 -->
<g id="node7" class="node"><title>Node7</title>
<polygon fill="none" stroke="#bfbfbf" points="89,-0.5 89,-19.5 137,-19.5 137,-0.5 89,-0.5"/>
<text text-anchor="middle" x="113" y="-7.5" font-family="Helvetica,sans-Serif" font-size="10.00">limits.h</text>
</g>
<!-- Node4&#45;&gt;Node7 -->
<g id="edge6" class="edge"><title>Node4&#45;&gt;Node7</title>
<path fill="none" stroke="midnightblue" d="M156.413,-56.083C148.841,-48.2195 137.622,-36.5688 128.486,-27.0813"/>
<polygon fill="midnightblue" stroke="midnightblue" points="130.885,-24.5266 121.427,-19.7511 125.842,-29.3821 130.885,-24.5266"/>
</g>
<!-- Node8 -->
<g id="node8" class="node"><title>Node8</title>
<polygon fill="none" stroke="#bfbfbf" points="155.5,-0.5 155.5,-19.5 206.5,-19.5 206.5,-0.5 155.5,-0.5"/>
<text text-anchor="middle" x="181" y="-7.5" font-family="Helvetica,sans-Serif" font-size="10.00">unistd.h</text>
</g>
<!-- Node4&#45;&gt;Node8 -->
<g id="edge7" class="edge"><title>Node4&#45;&gt;Node8</title>
<path fill="none" stroke="midnightblue" d="M167.642,-56.083C169.786,-48.8486 172.879,-38.4087 175.549,-29.3968"/>
<polygon fill="midnightblue" stroke="midnightblue" points="178.922,-30.3334 178.407,-19.7511 172.21,-28.3447 178.922,-30.3334"/>
</g>
<!-- Node11 -->
<g id="node11" class="node"><title>Node11</title>
<polygon fill="none" stroke="#bfbfbf" points="367,-56.5 367,-75.5 437,-75.5 437,-56.5 367,-56.5"/>
<text text-anchor="middle" x="402" y="-63.5" font-family="Helvetica,sans-Serif" font-size="10.00">wmmintrin.h</text>
</g>
<!-- Node10&#45;&gt;Node11 -->
<g id="edge11" class="edge"><title>Node10&#45;&gt;Node11</title>
<path fill="none" stroke="midnightblue" d="M402,-112.781C402,-104.781 402,-94.6887 402,-86.0168"/>
<polygon fill="midnightblue" stroke="midnightblue" points="405.5,-85.7305 402,-75.7305 398.5,-85.7306 405.5,-85.7305"/>
</g>
</g>
</svg>
