<?xml version="1.0" encoding="UTF-8" standalone="no"?>
<!DOCTYPE svg PUBLIC "-//W3C//DTD SVG 1.1//EN"
 "http://www.w3.org/Graphics/SVG/1.1/DTD/svg11.dtd">
<!-- Generated by graphviz version 2.36.0 (20140111.2315)
 -->
<!-- Title: TMlist_alloc Pages: 1 -->
<svg width="336pt" height="28pt"
 viewBox="0.00 0.00 336.00 28.00" xmlns="http://www.w3.org/2000/svg" xmlns:xlink="http://www.w3.org/1999/xlink">
<g id="graph0" class="graph" transform="scale(1 1) rotate(0) translate(4 24)">
<title>TMlist_alloc</title>
<!-- Node1 -->
<g id="node1" class="node"><title>Node1</title>
<polygon fill="#bfbfbf" stroke="black" points="0.5,-0.5 0.5,-19.5 69.5,-19.5 69.5,-0.5 0.5,-0.5"/>
<text text-anchor="middle" x="35" y="-7.5" font-family="Helvetica,sans-Serif" font-size="10.00">TMlist_alloc</text>
</g>
<!-- Node2 -->
<g id="node2" class="node"><title>Node2</title>
<g id="a_node2"><a xlink:href="hashtable_8c.html#ad6325f281d36d291b143ea77de0c50aa" target="_top" xlink:title="TMallocBuckets">
<polygon fill="none" stroke="black" points="106.5,-0.5 106.5,-19.5 193.5,-19.5 193.5,-0.5 106.5,-0.5"/>
<text text-anchor="middle" x="150" y="-7.5" font-family="Helvetica,sans-Serif" font-size="10.00">TMallocBuckets</text>
</a>
</g>
</g>
<!-- Node1&#45;&gt;Node2 -->
<g id="edge1" class="edge"><title>Node1&#45;&gt;Node2</title>
<path fill="none" stroke="midnightblue" d="M79.6802,-10C88.4875,-10 97.7335,-10 106.5,-10"/>
<polygon fill="midnightblue" stroke="midnightblue" points="79.5978,-6.5001 69.5978,-10 79.5977,-13.5001 79.5978,-6.5001"/>
</g>
<!-- Node3 -->
<g id="node3" class="node"><title>Node3</title>
<g id="a_node3"><a xlink:href="hashtable_8h.html#aac0b99437cd237e85613e10b99e818f9" target="_top" xlink:title="TMhashtable_alloc">
<polygon fill="none" stroke="black" points="230,-0.5 230,-19.5 328,-19.5 328,-0.5 230,-0.5"/>
<text text-anchor="middle" x="279" y="-7.5" font-family="Helvetica,sans-Serif" font-size="10.00">TMhashtable_alloc</text>
</a>
</g>
</g>
<!-- Node2&#45;&gt;Node3 -->
<g id="edge2" class="edge"><title>Node2&#45;&gt;Node3</title>
<path fill="none" stroke="midnightblue" d="M203.702,-10C212.416,-10 221.409,-10 229.999,-10"/>
<polygon fill="midnightblue" stroke="midnightblue" points="203.642,-6.5001 193.642,-10 203.642,-13.5001 203.642,-6.5001"/>
</g>
</g>
</svg>
