<?xml version="1.0" encoding="UTF-8" standalone="no"?>
<!DOCTYPE svg PUBLIC "-//W3C//DTD SVG 1.1//EN"
 "http://www.w3.org/Graphics/SVG/1.1/DTD/svg11.dtd">
<!-- Generated by graphviz version 2.36.0 (20140111.2315)
 -->
<!-- Title: bench_test Pages: 1 -->
<svg width="182pt" height="142pt"
 viewBox="0.00 0.00 182.00 142.00" xmlns="http://www.w3.org/2000/svg" xmlns:xlink="http://www.w3.org/1999/xlink">
<g id="graph0" class="graph" transform="scale(1 1) rotate(0) translate(4 138)">
<title>bench_test</title>
<!-- Node1 -->
<g id="node1" class="node"><title>Node1</title>
<polygon fill="#bfbfbf" stroke="black" points="0.5,-57.5 0.5,-76.5 65.5,-76.5 65.5,-57.5 0.5,-57.5"/>
<text text-anchor="middle" x="33" y="-64.5" font-family="Helvetica,sans-Serif" font-size="10.00">bench_test</text>
</g>
<!-- Node2 -->
<g id="node2" class="node"><title>Node2</title>
<g id="a_node2"><a xlink:href="rand__r__32_8h.html#afaaf1d013ccb194d66735f6e59dcc930" target="_top" xlink:title="rand_r_32">
<polygon fill="none" stroke="black" points="108.5,-114.5 108.5,-133.5 167.5,-133.5 167.5,-114.5 108.5,-114.5"/>
<text text-anchor="middle" x="138" y="-121.5" font-family="Helvetica,sans-Serif" font-size="10.00">rand_r_32</text>
</a>
</g>
</g>
<!-- Node1&#45;&gt;Node2 -->
<g id="edge1" class="edge"><title>Node1&#45;&gt;Node2</title>
<path fill="none" stroke="midnightblue" d="M51.0148,-76.5841C64.7501,-84.3027 84.5868,-95.4086 102,-105 104.699,-106.487 107.518,-108.031 110.335,-109.569"/>
<polygon fill="midnightblue" stroke="midnightblue" points="108.715,-112.672 119.172,-114.376 112.06,-106.523 108.715,-112.672"/>
</g>
<!-- Node3 -->
<g id="node3" class="node"><title>Node3</title>
<g id="a_node3"><a xlink:href="classList.html#a90ad13d3e3bb04ca8ade206e2169808d" target="_top" xlink:title="List::lookup">
<polygon fill="none" stroke="black" points="104.5,-76.5 104.5,-95.5 171.5,-95.5 171.5,-76.5 104.5,-76.5"/>
<text text-anchor="middle" x="138" y="-83.5" font-family="Helvetica,sans-Serif" font-size="10.00">List::lookup</text>
</a>
</g>
</g>
<!-- Node1&#45;&gt;Node3 -->
<g id="edge2" class="edge"><title>Node1&#45;&gt;Node3</title>
<path fill="none" stroke="midnightblue" d="M65.7438,-72.8557C74.8688,-74.5389 84.9691,-76.4021 94.627,-78.1836"/>
<polygon fill="midnightblue" stroke="midnightblue" points="94.003,-81.6275 104.472,-79.9997 95.2729,-74.7436 94.003,-81.6275"/>
</g>
<!-- Node4 -->
<g id="node4" class="node"><title>Node4</title>
<g id="a_node4"><a xlink:href="classList.html#a40fadae377879ab1219603a6138d5a54" target="_top" xlink:title="List::insert">
<polygon fill="none" stroke="black" points="107,-38.5 107,-57.5 169,-57.5 169,-38.5 107,-38.5"/>
<text text-anchor="middle" x="138" y="-45.5" font-family="Helvetica,sans-Serif" font-size="10.00">List::insert</text>
</a>
</g>
</g>
<!-- Node1&#45;&gt;Node4 -->
<g id="edge3" class="edge"><title>Node1&#45;&gt;Node4</title>
<path fill="none" stroke="midnightblue" d="M65.7438,-61.1443C75.5855,-59.3289 86.5617,-57.3041 96.8938,-55.3982"/>
<polygon fill="midnightblue" stroke="midnightblue" points="97.7462,-58.8001 106.945,-53.5441 96.4763,-51.9163 97.7462,-58.8001"/>
</g>
<!-- Node5 -->
<g id="node5" class="node"><title>Node5</title>
<g id="a_node5"><a xlink:href="classList.html#a32e2c5d870d4cfb2fb38d3a446173148" target="_top" xlink:title="List::remove">
<polygon fill="none" stroke="black" points="102.5,-0.5 102.5,-19.5 173.5,-19.5 173.5,-0.5 102.5,-0.5"/>
<text text-anchor="middle" x="138" y="-7.5" font-family="Helvetica,sans-Serif" font-size="10.00">List::remove</text>
</a>
</g>
</g>
<!-- Node1&#45;&gt;Node5 -->
<g id="edge4" class="edge"><title>Node1&#45;&gt;Node5</title>
<path fill="none" stroke="midnightblue" d="M51.0148,-57.4159C64.7501,-49.6973 84.5868,-38.5914 102,-29 104.699,-27.5135 107.518,-25.9688 110.335,-24.4312"/>
<polygon fill="midnightblue" stroke="midnightblue" points="112.06,-27.4773 119.172,-19.6237 108.715,-21.3284 112.06,-27.4773"/>
</g>
</g>
</svg>
