<?xml version="1.0" encoding="UTF-8" standalone="no"?>
<!DOCTYPE svg PUBLIC "-//W3C//DTD SVG 1.1//EN"
 "http://www.w3.org/Graphics/SVG/1.1/DTD/svg11.dtd">
<!-- Generated by graphviz version 2.36.0 (20140111.2315)
 -->
<!-- Title: rstm/rstm&#45;dev/bench/List.hpp Pages: 1 -->
<svg width="239pt" height="176pt"
 viewBox="0.00 0.00 239.00 176.00" xmlns="http://www.w3.org/2000/svg" xmlns:xlink="http://www.w3.org/1999/xlink">
<g id="graph0" class="graph" transform="scale(1 1) rotate(0) translate(4 172)">
<title>rstm/rstm&#45;dev/bench/List.hpp</title>
<!-- Node1 -->
<g id="node1" class="node"><title>Node1</title>
<polygon fill="#bfbfbf" stroke="black" points="61.5,-137 61.5,-167 168.5,-167 168.5,-137 61.5,-137"/>
<text text-anchor="start" x="69.5" y="-155" font-family="Helvetica,sans-Serif" font-size="10.00">rstm/rstm&#45;dev/bench</text>
<text text-anchor="middle" x="115" y="-144" font-family="Helvetica,sans-Serif" font-size="10.00">/List.hpp</text>
</g>
<!-- Node2 -->
<g id="node2" class="node"><title>Node2</title>
<g id="a_node2"><a xlink:href="Hash_8hpp.html" target="_top" xlink:title="rstm/rstm&#45;dev/bench\l/Hash.hpp">
<polygon fill="none" stroke="black" points="-0.5,-69 -0.5,-99 106.5,-99 106.5,-69 -0.5,-69"/>
<text text-anchor="start" x="7.5" y="-87" font-family="Helvetica,sans-Serif" font-size="10.00">rstm/rstm&#45;dev/bench</text>
<text text-anchor="middle" x="53" y="-76" font-family="Helvetica,sans-Serif" font-size="10.00">/Hash.hpp</text>
</a>
</g>
</g>
<!-- Node1&#45;&gt;Node2 -->
<g id="edge1" class="edge"><title>Node1&#45;&gt;Node2</title>
<path fill="none" stroke="midnightblue" d="M94.5154,-129.194C85.278,-119.36 74.6274,-108.023 66.4268,-99.2931"/>
<polygon fill="midnightblue" stroke="midnightblue" points="92.1492,-131.787 101.547,-136.679 97.2511,-126.994 92.1492,-131.787"/>
</g>
<!-- Node4 -->
<g id="node4" class="node"><title>Node4</title>
<g id="a_node4"><a xlink:href="ListBench_8cpp.html" target="_top" xlink:title="rstm/rstm&#45;dev/bench\l/ListBench.cpp">
<polygon fill="none" stroke="black" points="124.5,-69 124.5,-99 231.5,-99 231.5,-69 124.5,-69"/>
<text text-anchor="start" x="132.5" y="-87" font-family="Helvetica,sans-Serif" font-size="10.00">rstm/rstm&#45;dev/bench</text>
<text text-anchor="middle" x="178" y="-76" font-family="Helvetica,sans-Serif" font-size="10.00">/ListBench.cpp</text>
</a>
</g>
</g>
<!-- Node1&#45;&gt;Node4 -->
<g id="edge3" class="edge"><title>Node1&#45;&gt;Node4</title>
<path fill="none" stroke="midnightblue" d="M135.815,-129.194C145.201,-119.36 156.024,-108.023 164.357,-99.2931"/>
<polygon fill="midnightblue" stroke="midnightblue" points="133.043,-127.029 128.67,-136.679 138.107,-131.862 133.043,-127.029"/>
</g>
<!-- Node3 -->
<g id="node3" class="node"><title>Node3</title>
<g id="a_node3"><a xlink:href="HashBench_8cpp.html" target="_top" xlink:title="rstm/rstm&#45;dev/bench\l/HashBench.cpp">
<polygon fill="none" stroke="black" points="-0.5,-1 -0.5,-31 106.5,-31 106.5,-1 -0.5,-1"/>
<text text-anchor="start" x="7.5" y="-19" font-family="Helvetica,sans-Serif" font-size="10.00">rstm/rstm&#45;dev/bench</text>
<text text-anchor="middle" x="53" y="-8" font-family="Helvetica,sans-Serif" font-size="10.00">/HashBench.cpp</text>
</a>
</g>
</g>
<!-- Node2&#45;&gt;Node3 -->
<g id="edge2" class="edge"><title>Node2&#45;&gt;Node3</title>
<path fill="none" stroke="midnightblue" d="M53,-58.5322C53,-49.3606 53,-39.2449 53,-31.2931"/>
<polygon fill="midnightblue" stroke="midnightblue" points="49.5001,-58.6789 53,-68.679 56.5001,-58.679 49.5001,-58.6789"/>
</g>
</g>
</svg>
