<?xml version="1.0" encoding="UTF-8" standalone="no"?>
<!DOCTYPE svg PUBLIC "-//W3C//DTD SVG 1.1//EN"
 "http://www.w3.org/Graphics/SVG/1.1/DTD/svg11.dtd">
<!-- Generated by graphviz version 2.36.0 (20140111.2315)
 -->
<!-- Title: list_find Pages: 1 -->
<svg width="334pt" height="180pt"
 viewBox="0.00 0.00 334.00 180.00" xmlns="http://www.w3.org/2000/svg" xmlns:xlink="http://www.w3.org/1999/xlink">
<g id="graph0" class="graph" transform="scale(1 1) rotate(0) translate(4 176)">
<title>list_find</title>
<!-- Node1 -->
<g id="node1" class="node"><title>Node1</title>
<polygon fill="#bfbfbf" stroke="black" points="0,-76.5 0,-95.5 50,-95.5 50,-76.5 0,-76.5"/>
<text text-anchor="middle" x="25" y="-83.5" font-family="Helvetica,sans-Serif" font-size="10.00">list_find</text>
</g>
<!-- Node2 -->
<g id="node2" class="node"><title>Node2</title>
<g id="a_node2"><a xlink:href="hashtable_8h.html#ac641ace1e3d79ee78d271d999df92db9" target="_top" xlink:title="hashtable_containsKey">
<polygon fill="none" stroke="black" points="86,-152.5 86,-171.5 204,-171.5 204,-152.5 86,-152.5"/>
<text text-anchor="middle" x="145" y="-159.5" font-family="Helvetica,sans-Serif" font-size="10.00">hashtable_containsKey</text>
</a>
</g>
</g>
<!-- Node1&#45;&gt;Node2 -->
<g id="edge1" class="edge"><title>Node1&#45;&gt;Node2</title>
<path fill="none" stroke="midnightblue" d="M40.5016,-103.428C51.7658,-115.979 68.3909,-132.488 86,-143 92.2778,-146.747 99.385,-149.855 106.418,-152.396"/>
<polygon fill="midnightblue" stroke="midnightblue" points="43.1195,-101.104 33.917,-95.8539 37.8368,-105.697 43.1195,-101.104"/>
</g>
<!-- Node3 -->
<g id="node3" class="node"><title>Node3</title>
<g id="a_node3"><a xlink:href="hashtable_8h.html#a686d66befe855b80c215e27cb2e9343e" target="_top" xlink:title="hashtable_find">
<polygon fill="none" stroke="black" points="105,-114.5 105,-133.5 185,-133.5 185,-114.5 105,-114.5"/>
<text text-anchor="middle" x="145" y="-121.5" font-family="Helvetica,sans-Serif" font-size="10.00">hashtable_find</text>
</a>
</g>
</g>
<!-- Node1&#45;&gt;Node3 -->
<g id="edge2" class="edge"><title>Node1&#45;&gt;Node3</title>
<path fill="none" stroke="midnightblue" d="M59.8468,-96.8998C77.083,-102.45 97.8429,-109.136 114.431,-114.478"/>
<polygon fill="midnightblue" stroke="midnightblue" points="60.7553,-93.5154 50.1638,-93.7816 58.6095,-100.178 60.7553,-93.5154"/>
</g>
<!-- Node4 -->
<g id="node4" class="node"><title>Node4</title>
<g id="a_node4"><a xlink:href="hashtable_8h.html#a76f7704c9b87a69d6a94a01f06a65185" target="_top" xlink:title="hashtable_insert">
<polygon fill="none" stroke="black" points="101,-76.5 101,-95.5 189,-95.5 189,-76.5 101,-76.5"/>
<text text-anchor="middle" x="145" y="-83.5" font-family="Helvetica,sans-Serif" font-size="10.00">hashtable_insert</text>
</a>
</g>
</g>
<!-- Node1&#45;&gt;Node4 -->
<g id="edge3" class="edge"><title>Node1&#45;&gt;Node4</title>
<path fill="none" stroke="midnightblue" d="M60.2888,-86C72.9391,-86 87.4393,-86 100.778,-86"/>
<polygon fill="midnightblue" stroke="midnightblue" points="60.1638,-82.5001 50.1638,-86 60.1638,-89.5001 60.1638,-82.5001"/>
</g>
<!-- Node5 -->
<g id="node5" class="node"><title>Node5</title>
<g id="a_node5"><a xlink:href="hashtable_8h.html#a1097b4c3a3d33b866a55e103f49dee7b" target="_top" xlink:title="hashtable_remove">
<polygon fill="none" stroke="black" points="97,-38.5 97,-57.5 193,-57.5 193,-38.5 97,-38.5"/>
<text text-anchor="middle" x="145" y="-45.5" font-family="Helvetica,sans-Serif" font-size="10.00">hashtable_remove</text>
</a>
</g>
</g>
<!-- Node1&#45;&gt;Node5 -->
<g id="edge4" class="edge"><title>Node1&#45;&gt;Node5</title>
<path fill="none" stroke="midnightblue" d="M59.8468,-75.1002C77.083,-69.5495 97.8429,-62.8641 114.431,-57.5223"/>
<polygon fill="midnightblue" stroke="midnightblue" points="58.6095,-71.8215 50.1638,-78.2184 60.7553,-78.4846 58.6095,-71.8215"/>
</g>
<!-- Node6 -->
<g id="node6" class="node"><title>Node6</title>
<g id="a_node6"><a xlink:href="region_8c.html#afd9637f04d120aec5464b6304cfa0c99" target="_top" xlink:title="TMgrowRegion">
<polygon fill="none" stroke="black" points="103.5,-0.5 103.5,-19.5 186.5,-19.5 186.5,-0.5 103.5,-0.5"/>
<text text-anchor="middle" x="145" y="-7.5" font-family="Helvetica,sans-Serif" font-size="10.00">TMgrowRegion</text>
</a>
</g>
</g>
<!-- Node1&#45;&gt;Node6 -->
<g id="edge5" class="edge"><title>Node1&#45;&gt;Node6</title>
<path fill="none" stroke="midnightblue" d="M40.5016,-68.5724C51.7658,-56.0211 68.3909,-39.5115 86,-29 92.2778,-25.2525 99.385,-22.1449 106.418,-19.6044"/>
<polygon fill="midnightblue" stroke="midnightblue" points="37.8368,-66.303 33.917,-76.1461 43.1195,-70.8958 37.8368,-66.303"/>
</g>
<!-- Node7 -->
<g id="node7" class="node"><title>Node7</title>
<g id="a_node7"><a xlink:href="region_8h.html#a74d9ac41436518894e8e1bd6564ebf42" target="_top" xlink:title="TMregion_refine">
<polygon fill="none" stroke="black" points="240,-0.5 240,-19.5 326,-19.5 326,-0.5 240,-0.5"/>
<text text-anchor="middle" x="283" y="-7.5" font-family="Helvetica,sans-Serif" font-size="10.00">TMregion_refine</text>
</a>
</g>
</g>
<!-- Node6&#45;&gt;Node7 -->
<g id="edge6" class="edge"><title>Node6&#45;&gt;Node7</title>
<path fill="none" stroke="midnightblue" d="M196.878,-10C211.022,-10 226.223,-10 239.81,-10"/>
<polygon fill="midnightblue" stroke="midnightblue" points="196.805,-6.5001 186.804,-10 196.804,-13.5001 196.805,-6.5001"/>
</g>
<!-- Node7&#45;&gt;Node7 -->
<g id="edge7" class="edge"><title>Node7&#45;&gt;Node7</title>
<path fill="none" stroke="midnightblue" d="M257.33,-29.0292C258.731,-34.128 267.287,-38 283,-38 307.527,-38 314.617,-28.5653 304.27,-19.7571"/>
<polygon fill="midnightblue" stroke="midnightblue" points="260.605,-30.292 261.73,-19.7571 254.281,-27.2911 260.605,-30.292"/>
</g>
</g>
</svg>
