<?xml version="1.0" encoding="UTF-8" standalone="no"?>
<!DOCTYPE svg PUBLIC "-//W3C//DTD SVG 1.1//EN"
 "http://www.w3.org/Graphics/SVG/1.1/DTD/svg11.dtd">
<!-- Generated by graphviz version 2.36.0 (20140111.2315)
 -->
<!-- Title: list_find Pages: 1 -->
<!--zoomable 435 -->
<svg id="main" version="1.1" xmlns="http://www.w3.org/2000/svg" xmlns:xlink="http://www.w3.org/1999/xlink" xml:space="preserve" onload="init(evt)">
<style type="text/css"><![CDATA[
.edge:hover path { stroke: red; }
.edge:hover polygon { stroke: red; fill: red; }
]]></style>
<script type="text/javascript"><![CDATA[
var edges = document.getElementsByTagName('g');
if (edges && edges.length) {
  for (var i=0;i<edges.length;i++) {
    if (edges[i].id.substr(0,4)=='edge') {
      edges[i].setAttribute('class','edge');
    }
  }
}
]]></script>
        <defs>
                <circle id="rim" cx="0" cy="0" r="7"/>
                <circle id="rim2" cx="0" cy="0" r="3.5"/>
                <g id="zoomPlus">
                        <use xlink:href="#rim" fill="#404040">
                                <set attributeName="fill" to="#808080" begin="zoomplus.mouseover" end="zoomplus.mouseout"/>
                        </use>
                        <path d="M-4,0h8M0,-4v8" fill="none" stroke="white" stroke-width="1.5" pointer-events="none"/>
                </g>
                <g id="zoomMin">
                        <use xlink:href="#rim" fill="#404040">
                                <set attributeName="fill" to="#808080" begin="zoomminus.mouseover" end="zoomminus.mouseout"/>
                        </use>
                        <path d="M-4,0h8" fill="none" stroke="white" stroke-width="1.5" pointer-events="none"/>
                </g>
                <g id="dirArrow">
                        <path fill="none" stroke="white" stroke-width="1.5" d="M0,-3.0v7 M-2.5,-0.5L0,-3.0L2.5,-0.5"/>
                </g>
               <g id="resetDef">
                       <use xlink:href="#rim2" fill="#404040">
                               <set attributeName="fill" to="#808080" begin="reset.mouseover" end="reset.mouseout"/>
                       </use>
               </g>
        </defs>

<script type="text/javascript">
var viewWidth = 1880;
var viewHeight = 435;
var sectionId = 'dynsection-3';
</script>
<script xlink:href="svgpan.js"/>
<svg id="graph" class="graph">
<g id="viewport">
<title>list_find</title>
<!-- Node1 -->
<g id="node1" class="node"><title>Node1</title>
<polygon fill="#bfbfbf" stroke="black" points="0,-182.5 0,-201.5 50,-201.5 50,-182.5 0,-182.5"/>
<text text-anchor="middle" x="25" y="-189.5" font-family="Helvetica,sans-Serif" font-size="10.00">list_find</text>
</g>
<!-- Node2 -->
<g id="node2" class="node"><title>Node2</title>
<g id="a_node2"><a xlink:href="list_8c.html#a3ed9de59a6e4cd353dee80f797da7a19" target="_top" xlink:title="findPrevious">
<polygon fill="none" stroke="black" points="86.5,-182.5 86.5,-201.5 157.5,-201.5 157.5,-182.5 86.5,-182.5"/>
<text text-anchor="middle" x="122" y="-189.5" font-family="Helvetica,sans-Serif" font-size="10.00">findPrevious</text>
</a>
</g>
</g>
<!-- Node1&#45;&gt;Node2 -->
<g id="edge1" class="edge"><title>Node1&#45;&gt;Node2</title>
<path fill="none" stroke="midnightblue" d="M50.4649,-192C58.2887,-192 67.2126,-192 76.0206,-192"/>
<polygon fill="midnightblue" stroke="midnightblue" points="76.2344,-195.5 86.2344,-192 76.2343,-188.5 76.2344,-195.5"/>
</g>
<!-- Node3 -->
<g id="node3" class="node"><title>Node3</title>
<g id="a_node3"><a xlink:href="stmskip_8cc.html#a9ab04b9e875013b4d2dd249d0c97dce5" target="_top" xlink:title="for">
<polygon fill="none" stroke="black" points="194.5,-182.5 194.5,-201.5 223.5,-201.5 223.5,-182.5 194.5,-182.5"/>
<text text-anchor="middle" x="209" y="-189.5" font-family="Helvetica,sans-Serif" font-size="10.00">for</text>
</a>
</g>
</g>
<!-- Node2&#45;&gt;Node3 -->
<g id="edge2" class="edge"><title>Node2&#45;&gt;Node3</title>
<path fill="none" stroke="midnightblue" d="M157.573,-192C166.521,-192 175.955,-192 184.212,-192"/>
<polygon fill="midnightblue" stroke="midnightblue" points="184.249,-195.5 194.249,-192 184.249,-188.5 184.249,-195.5"/>
</g>
<!-- Node4 -->
<g id="node4" class="node"><title>Node4</title>
<g id="a_node4"><a xlink:href="stmskip_8cc.html#a09de30bf6124d9640899b27c93b49471" target="_top" xlink:title="stmskip_lookup">
<polygon fill="none" stroke="black" points="262.5,-239.5 262.5,-258.5 347.5,-258.5 347.5,-239.5 262.5,-239.5"/>
<text text-anchor="middle" x="305" y="-246.5" font-family="Helvetica,sans-Serif" font-size="10.00">stmskip_lookup</text>
</a>
</g>
</g>
<!-- Node3&#45;&gt;Node4 -->
<g id="edge3" class="edge"><title>Node3&#45;&gt;Node4</title>
<path fill="none" stroke="midnightblue" d="M220.966,-201.58C230.747,-209.811 245.691,-221.64 260,-230 263.038,-231.775 266.272,-233.481 269.556,-235.094"/>
<polygon fill="midnightblue" stroke="midnightblue" points="268.27,-238.356 278.816,-239.37 271.204,-232 268.27,-238.356"/>
</g>
<!-- Node22 -->
<g id="node22" class="node"><title>Node22</title>
<g id="a_node22"><a xlink:href="stmskip_8cc.html#ad17c6ea2fd390c2dd637a34fdeb0b3df" target="_top" xlink:title="stmskip_update">
<polygon fill="none" stroke="black" points="262,-144.5 262,-163.5 348,-163.5 348,-144.5 262,-144.5"/>
<text text-anchor="middle" x="305" y="-151.5" font-family="Helvetica,sans-Serif" font-size="10.00">stmskip_update</text>
</a>
</g>
</g>
<!-- Node3&#45;&gt;Node22 -->
<g id="edge26" class="edge"><title>Node3&#45;&gt;Node22</title>
<path fill="none" stroke="midnightblue" d="M223.87,-186.393C236.135,-181.435 254.523,-174.001 270.593,-167.505"/>
<polygon fill="midnightblue" stroke="midnightblue" points="272.264,-170.605 280.223,-163.612 269.64,-164.115 272.264,-170.605"/>
</g>
<!-- Node35 -->
<g id="node35" class="node"><title>Node35</title>
<g id="a_node35"><a xlink:href="stmskip_8cc.html#a3925aa5d2590fc57854aa9d670f58e4d" target="_top" xlink:title="stmskip_remove">
<polygon fill="none" stroke="black" points="260.5,-201.5 260.5,-220.5 349.5,-220.5 349.5,-201.5 260.5,-201.5"/>
<text text-anchor="middle" x="305" y="-208.5" font-family="Helvetica,sans-Serif" font-size="10.00">stmskip_remove</text>
</a>
</g>
</g>
<!-- Node3&#45;&gt;Node35 -->
<g id="edge49" class="edge"><title>Node3&#45;&gt;Node35</title>
<path fill="none" stroke="midnightblue" d="M223.87,-194.804C231.147,-196.274 240.581,-198.181 250.407,-200.167"/>
<polygon fill="midnightblue" stroke="midnightblue" points="249.803,-203.616 260.298,-202.167 251.19,-196.755 249.803,-203.616"/>
</g>
<!-- Node36 -->
<g id="node36" class="node"><title>Node36</title>
<g id="a_node36"><a xlink:href="stm_8h.html#ad6e1404788ef0e710c991c3e00fd5c39" target="_top" xlink:title="abort_stm_tx">
<polygon fill="none" stroke="black" points="268,-106.5 268,-125.5 342,-125.5 342,-106.5 268,-106.5"/>
<text text-anchor="middle" x="305" y="-113.5" font-family="Helvetica,sans-Serif" font-size="10.00">abort_stm_tx</text>
</a>
</g>
</g>
<!-- Node3&#45;&gt;Node36 -->
<g id="edge52" class="edge"><title>Node3&#45;&gt;Node36</title>
<path fill="none" stroke="midnightblue" d="M216.404,-182.351C225.038,-169.968 241.481,-148.479 260,-135 262.334,-133.302 264.843,-131.714 267.437,-130.24"/>
<polygon fill="midnightblue" stroke="midnightblue" points="269.121,-133.31 276.453,-125.661 265.952,-127.069 269.121,-133.31"/>
</g>
<!-- Node5 -->
<g id="node5" class="node"><title>Node5</title>
<g id="a_node5"><a xlink:href="stmskip_8cc.html#aa82848b11e972b9339ceadb6816cdb6a" target="_top" xlink:title="search_predecessors">
<polygon fill="none" stroke="black" points="386,-239.5 386,-258.5 496,-258.5 496,-239.5 386,-239.5"/>
<text text-anchor="middle" x="441" y="-246.5" font-family="Helvetica,sans-Serif" font-size="10.00">search_predecessors</text>
</a>
</g>
</g>
<!-- Node4&#45;&gt;Node5 -->
<g id="edge4" class="edge"><title>Node4&#45;&gt;Node5</title>
<path fill="none" stroke="midnightblue" d="M347.664,-249C356.466,-249 365.951,-249 375.374,-249"/>
<polygon fill="midnightblue" stroke="midnightblue" points="375.539,-252.5 385.539,-249 375.539,-245.5 375.539,-252.5"/>
</g>
<!-- Node6 -->
<g id="node6" class="node"><title>Node6</title>
<g id="a_node6"><a xlink:href="stm_8h.html#a5594d7fca67459d7d9738436af589c5c" target="_top" xlink:title="read_stm_blk">
<polygon fill="none" stroke="black" points="533.5,-345.5 533.5,-364.5 608.5,-364.5 608.5,-345.5 533.5,-345.5"/>
<text text-anchor="middle" x="571" y="-352.5" font-family="Helvetica,sans-Serif" font-size="10.00">read_stm_blk</text>
</a>
</g>
</g>
<!-- Node5&#45;&gt;Node6 -->
<g id="edge5" class="edge"><title>Node5&#45;&gt;Node6</title>
<path fill="none" stroke="midnightblue" d="M453.812,-258.782C475.816,-277.004 523.283,-316.313 550.242,-338.638"/>
<polygon fill="midnightblue" stroke="midnightblue" points="548.282,-341.559 558.216,-345.241 552.746,-336.168 548.282,-341.559"/>
</g>
<!-- Node7 -->
<g id="node7" class="node"><title>Node7</title>
<g id="a_node7"><a xlink:href="stm__fraser_8c.html#aca0d40200c3502bdabeb44b27dfd4105" target="_top" xlink:title="search_stm_tx_entry">
<polygon fill="none" stroke="black" points="962,-359.5 962,-378.5 1070,-378.5 1070,-359.5 962,-359.5"/>
<text text-anchor="middle" x="1016" y="-366.5" font-family="Helvetica,sans-Serif" font-size="10.00">search_stm_tx_entry</text>
</a>
</g>
</g>
<!-- Node6&#45;&gt;Node7 -->
<g id="edge6" class="edge"><title>Node6&#45;&gt;Node7</title>
<path fill="none" stroke="midnightblue" d="M580.889,-364.713C593.74,-377.955 618.95,-401.048 646,-410 764.508,-449.217 803.064,-409.652 926,-388 938.156,-385.859 951.182,-383.255 963.414,-380.671"/>
<polygon fill="midnightblue" stroke="midnightblue" points="964.422,-384.034 973.465,-378.514 962.954,-377.19 964.422,-384.034"/>
</g>
<!-- Node8 -->
<g id="node8" class="node"><title>Node8</title>
<g id="a_node8"><a xlink:href="stm__fraser_8c.html#a75177d9fa0335bd50b6fae9a68341443" target="_top" xlink:title="alloc_stm_tx_entry">
<polygon fill="none" stroke="black" points="657.5,-326.5 657.5,-345.5 756.5,-345.5 756.5,-326.5 657.5,-326.5"/>
<text text-anchor="middle" x="707" y="-333.5" font-family="Helvetica,sans-Serif" font-size="10.00">alloc_stm_tx_entry</text>
</a>
</g>
</g>
<!-- Node6&#45;&gt;Node8 -->
<g id="edge7" class="edge"><title>Node6&#45;&gt;Node8</title>
<path fill="none" stroke="midnightblue" d="M608.616,-349.808C620.596,-348.11 634.219,-346.178 647.402,-344.309"/>
<polygon fill="midnightblue" stroke="midnightblue" points="647.953,-347.766 657.362,-342.896 646.97,-340.835 647.953,-347.766"/>
</g>
<!-- Node9 -->
<g id="node9" class="node"><title>Node9</title>
<g id="a_node9"><a xlink:href="stm__fraser_8c.html#a4e016a575dac2ee3931ef9ec94550d33" target="_top" xlink:title="read_blk_data">
<polygon fill="none" stroke="black" points="668.5,-364.5 668.5,-383.5 745.5,-383.5 745.5,-364.5 668.5,-364.5"/>
<text text-anchor="middle" x="707" y="-371.5" font-family="Helvetica,sans-Serif" font-size="10.00">read_blk_data</text>
</a>
</g>
</g>
<!-- Node6&#45;&gt;Node9 -->
<g id="edge8" class="edge"><title>Node6&#45;&gt;Node9</title>
<path fill="none" stroke="midnightblue" d="M608.616,-360.192C624.017,-362.376 642.136,-364.945 658.542,-367.271"/>
<polygon fill="midnightblue" stroke="midnightblue" points="658.103,-370.744 668.495,-368.682 659.086,-363.813 658.103,-370.744"/>
</g>
<!-- Node20 -->
<g id="node20" class="node"><title>Node20</title>
<g id="a_node20"><a xlink:href="stm__fraser_8c.html#a31ea9d61a84d817aac10ffbc4ba9f296" target="_top" xlink:title="commit_stm_tx">
<polygon fill="none" stroke="black" points="823,-359.5 823,-378.5 907,-378.5 907,-359.5 823,-359.5"/>
<text text-anchor="middle" x="865" y="-366.5" font-family="Helvetica,sans-Serif" font-size="10.00">commit_stm_tx</text>
</a>
</g>
</g>
<!-- Node6&#45;&gt;Node20 -->
<g id="edge25" class="edge"><title>Node6&#45;&gt;Node20</title>
<path fill="none" stroke="midnightblue" d="M585.671,-364.558C599.957,-373.915 623.399,-387.536 646,-393 707.46,-407.858 780.917,-393.34 824.944,-381.306"/>
<polygon fill="midnightblue" stroke="midnightblue" points="826.007,-384.643 834.677,-378.554 824.102,-377.907 826.007,-384.643"/>
</g>
<!-- Node21 -->
<g id="node21" class="node"><title>Node21</title>
<g id="a_node21"><a xlink:href="stm__fraser_8c.html#ad6e1404788ef0e710c991c3e00fd5c39" target="_top" xlink:title="abort_stm_tx">
<polygon fill="none" stroke="black" points="670,-288.5 670,-307.5 744,-307.5 744,-288.5 670,-288.5"/>
<text text-anchor="middle" x="707" y="-295.5" font-family="Helvetica,sans-Serif" font-size="10.00">abort_stm_tx</text>
</a>
</g>
</g>
<!-- Node6&#45;&gt;Node21 -->
<g id="edge24" class="edge"><title>Node6&#45;&gt;Node21</title>
<path fill="none" stroke="midnightblue" d="M588.665,-345.419C603.419,-337.186 625.701,-325.357 646,-317 651.372,-314.788 657.101,-312.676 662.807,-310.716"/>
<polygon fill="midnightblue" stroke="midnightblue" points="663.923,-314.034 672.321,-307.573 661.728,-307.387 663.923,-314.034"/>
</g>
<!-- Node10 -->
<g id="node10" class="node"><title>Node10</title>
<g id="a_node10"><a xlink:href="stm__fraser_8c.html#a3baf54f8c2c6bdb79109865e5500cbd9" target="_top" xlink:title="rc_up_descriptor">
<polygon fill="none" stroke="black" points="971.5,-321.5 971.5,-340.5 1060.5,-340.5 1060.5,-321.5 971.5,-321.5"/>
<text text-anchor="middle" x="1016" y="-328.5" font-family="Helvetica,sans-Serif" font-size="10.00">rc_up_descriptor</text>
</a>
</g>
</g>
<!-- Node9&#45;&gt;Node10 -->
<g id="edge9" class="edge"><title>Node9&#45;&gt;Node10</title>
<path fill="none" stroke="midnightblue" d="M741.053,-364.389C759.441,-359.384 782.826,-353.578 804,-350 856.936,-341.055 918.102,-336.134 960.904,-333.556"/>
<polygon fill="midnightblue" stroke="midnightblue" points="961.321,-337.037 971.102,-332.965 960.916,-330.049 961.321,-337.037"/>
</g>
<!-- Node12 -->
<g id="node12" class="node"><title>Node12</title>
<g id="a_node12"><a xlink:href="stm__fraser_8c.html#ad41e28910c7dbe8cfd98c9e0c168c9dc" target="_top" xlink:title="rc_down_descriptor">
<polygon fill="none" stroke="black" points="965.5,-397.5 965.5,-416.5 1066.5,-416.5 1066.5,-397.5 965.5,-397.5"/>
<text text-anchor="middle" x="1016" y="-404.5" font-family="Helvetica,sans-Serif" font-size="10.00">rc_down_descriptor</text>
</a>
</g>
</g>
<!-- Node9&#45;&gt;Node12 -->
<g id="edge11" class="edge"><title>Node9&#45;&gt;Node12</title>
<path fill="none" stroke="midnightblue" d="M745.781,-380C763.437,-382.678 784.764,-385.733 804,-388 854.955,-394.005 913.03,-399.107 955.336,-402.508"/>
<polygon fill="midnightblue" stroke="midnightblue" points="955.22,-406.009 965.466,-403.314 955.775,-399.031 955.22,-406.009"/>
</g>
<!-- Node9&#45;&gt;Node20 -->
<g id="edge20" class="edge"><title>Node9&#45;&gt;Node20</title>
<path fill="none" stroke="midnightblue" d="M745.763,-372.79C765.847,-372.146 790.832,-371.345 812.654,-370.646"/>
<polygon fill="midnightblue" stroke="midnightblue" points="812.869,-374.141 822.751,-370.322 812.644,-367.144 812.869,-374.141"/>
</g>
<!-- Node11 -->
<g id="node11" class="node"><title>Node11</title>
<g id="a_node11"><a xlink:href="stm__fraser_8c.html#a1a59f05201730ec9ba9a348070073e57" target="_top" xlink:title="rc_delta_descriptor">
<polygon fill="none" stroke="black" points="1106.5,-321.5 1106.5,-340.5 1205.5,-340.5 1205.5,-321.5 1106.5,-321.5"/>
<text text-anchor="middle" x="1156" y="-328.5" font-family="Helvetica,sans-Serif" font-size="10.00">rc_delta_descriptor</text>
</a>
</g>
</g>
<!-- Node10&#45;&gt;Node11 -->
<g id="edge10" class="edge"><title>Node10&#45;&gt;Node11</title>
<path fill="none" stroke="midnightblue" d="M1060.66,-331C1071.9,-331 1084.18,-331 1096.05,-331"/>
<polygon fill="midnightblue" stroke="midnightblue" points="1096.35,-334.5 1106.35,-331 1096.35,-327.5 1096.35,-334.5"/>
</g>
<!-- Node13 -->
<g id="node13" class="node"><title>Node13</title>
<g id="a_node13"><a xlink:href="stm__fraser_8c.html#afd1a951db8c0f79e6bf20624e7dca338" target="_top" xlink:title="release_descriptor">
<polygon fill="none" stroke="black" points="1108,-378.5 1108,-397.5 1204,-397.5 1204,-378.5 1108,-378.5"/>
<text text-anchor="middle" x="1156" y="-385.5" font-family="Helvetica,sans-Serif" font-size="10.00">release_descriptor</text>
</a>
</g>
</g>
<!-- Node12&#45;&gt;Node13 -->
<g id="edge12" class="edge"><title>Node12&#45;&gt;Node13</title>
<path fill="none" stroke="midnightblue" d="M1066.82,-400.141C1076.78,-398.769 1087.32,-397.318 1097.51,-395.915"/>
<polygon fill="midnightblue" stroke="midnightblue" points="1098.13,-399.363 1107.56,-394.532 1097.17,-392.429 1098.13,-399.363"/>
</g>
<!-- Node14 -->
<g id="node14" class="node"><title>Node14</title>
<g id="a_node14"><a xlink:href="gc_8c.html#a80f4a5c119aa70ab0452a73dfac21bbd" target="_top" xlink:title="fr_gc_free">
<polygon fill="none" stroke="black" points="1388,-340.5 1388,-359.5 1448,-359.5 1448,-340.5 1388,-340.5"/>
<text text-anchor="middle" x="1418" y="-347.5" font-family="Helvetica,sans-Serif" font-size="10.00">fr_gc_free</text>
</a>
</g>
</g>
<!-- Node13&#45;&gt;Node14 -->
<g id="edge13" class="edge"><title>Node13&#45;&gt;Node14</title>
<path fill="none" stroke="midnightblue" d="M1204.11,-384.761C1240.78,-381.829 1292.85,-376.765 1338,-369 1351.16,-366.736 1365.4,-363.548 1378.11,-360.428"/>
<polygon fill="midnightblue" stroke="midnightblue" points="1379.08,-363.793 1387.93,-357.96 1377.38,-357.004 1379.08,-363.793"/>
</g>
<!-- Node19 -->
<g id="node19" class="node"><title>Node19</title>
<g id="a_node19"><a xlink:href="gc_8c.html#a1e1a80c2d04496b5b70bd86b59510355" target="_top" xlink:title="fr_gc_unsafe_free">
<polygon fill="none" stroke="black" points="1242.5,-340.5 1242.5,-359.5 1337.5,-359.5 1337.5,-340.5 1242.5,-340.5"/>
<text text-anchor="middle" x="1290" y="-347.5" font-family="Helvetica,sans-Serif" font-size="10.00">fr_gc_unsafe_free</text>
</a>
</g>
</g>
<!-- Node13&#45;&gt;Node19 -->
<g id="edge18" class="edge"><title>Node13&#45;&gt;Node19</title>
<path fill="none" stroke="midnightblue" d="M1190.31,-378.411C1207.19,-373.551 1227.89,-367.591 1245.97,-362.387"/>
<polygon fill="midnightblue" stroke="midnightblue" points="1247.06,-365.716 1255.7,-359.586 1245.12,-358.989 1247.06,-365.716"/>
</g>
<!-- Node15 -->
<g id="node15" class="node"><title>Node15</title>
<g id="a_node15"><a xlink:href="gc_8c.html#afb494e950c8c6b5661974748ae89b61e" target="_top" xlink:title="chunk_from_cache">
<polygon fill="none" stroke="black" points="1498.5,-284.5 1498.5,-303.5 1597.5,-303.5 1597.5,-284.5 1498.5,-284.5"/>
<text text-anchor="middle" x="1548" y="-291.5" font-family="Helvetica,sans-Serif" font-size="10.00">chunk_from_cache</text>
</a>
</g>
</g>
<!-- Node14&#45;&gt;Node15 -->
<g id="edge14" class="edge"><title>Node14&#45;&gt;Node15</title>
<path fill="none" stroke="midnightblue" d="M1441,-340.373C1461.64,-331.343 1492.72,-317.749 1515.89,-307.611"/>
<polygon fill="midnightblue" stroke="midnightblue" points="1517.52,-310.716 1525.28,-303.501 1514.72,-304.303 1517.52,-310.716"/>
</g>
<!-- Node16 -->
<g id="node16" class="node"><title>Node16</title>
<g id="a_node16"><a xlink:href="gc_8c.html#a2a6f41199ed37925df4cc7b9909dc0ed" target="_top" xlink:title="get_empty_chunks">
<polygon fill="none" stroke="black" points="1634.5,-190.5 1634.5,-209.5 1733.5,-209.5 1733.5,-190.5 1634.5,-190.5"/>
<text text-anchor="middle" x="1684" y="-197.5" font-family="Helvetica,sans-Serif" font-size="10.00">get_empty_chunks</text>
</a>
</g>
</g>
<!-- Node15&#45;&gt;Node16 -->
<g id="edge15" class="edge"><title>Node15&#45;&gt;Node16</title>
<path fill="none" stroke="midnightblue" d="M1562.84,-284.294C1586.13,-267.956 1633.34,-234.837 1661.15,-215.33"/>
<polygon fill="midnightblue" stroke="midnightblue" points="1663.26,-218.121 1669.44,-209.513 1659.24,-212.39 1663.26,-218.121"/>
</g>
<!-- Node17 -->
<g id="node17" class="node"><title>Node17</title>
<g id="a_node17"><a xlink:href="gc_8c.html#ac360b80b93ad00f0fba18a1993e1d6a0" target="_top" xlink:title="add_chunks_to_list">
<polygon fill="none" stroke="black" points="1770.5,-152.5 1770.5,-171.5 1871.5,-171.5 1871.5,-152.5 1770.5,-152.5"/>
<text text-anchor="middle" x="1821" y="-159.5" font-family="Helvetica,sans-Serif" font-size="10.00">add_chunks_to_list</text>
</a>
</g>
</g>
<!-- Node16&#45;&gt;Node17 -->
<g id="edge16" class="edge"><title>Node16&#45;&gt;Node17</title>
<path fill="none" stroke="midnightblue" d="M1719.07,-190.411C1736.41,-185.528 1757.7,-179.536 1776.25,-174.315"/>
<polygon fill="midnightblue" stroke="midnightblue" points="1777.27,-177.665 1785.94,-171.586 1775.37,-170.926 1777.27,-177.665"/>
</g>
<!-- Node18 -->
<g id="node18" class="node"><title>Node18</title>
<g id="a_node18"><a xlink:href="gc_8c.html#ade31863985bdaa481ade142bdfb6d99f" target="_top" xlink:title="alloc_more_chunks">
<polygon fill="none" stroke="black" points="1770.5,-190.5 1770.5,-209.5 1871.5,-209.5 1871.5,-190.5 1770.5,-190.5"/>
<text text-anchor="middle" x="1821" y="-197.5" font-family="Helvetica,sans-Serif" font-size="10.00">alloc_more_chunks</text>
</a>
</g>
</g>
<!-- Node16&#45;&gt;Node18 -->
<g id="edge17" class="edge"><title>Node16&#45;&gt;Node18</title>
<path fill="none" stroke="midnightblue" d="M1733.74,-200C1742.31,-200 1751.33,-200 1760.17,-200"/>
<polygon fill="midnightblue" stroke="midnightblue" points="1760.43,-203.5 1770.43,-200 1760.43,-196.5 1760.43,-203.5"/>
</g>
<!-- Node19&#45;&gt;Node14 -->
<g id="edge19" class="edge"><title>Node19&#45;&gt;Node14</title>
<path fill="none" stroke="midnightblue" d="M1337.56,-350C1350.7,-350 1364.87,-350 1377.56,-350"/>
<polygon fill="midnightblue" stroke="midnightblue" points="1377.81,-353.5 1387.81,-350 1377.81,-346.5 1377.81,-353.5"/>
</g>
<!-- Node20&#45;&gt;Node7 -->
<g id="edge23" class="edge"><title>Node20&#45;&gt;Node7</title>
<path fill="none" stroke="midnightblue" d="M907.109,-369C920.827,-369 936.449,-369 951.463,-369"/>
<polygon fill="midnightblue" stroke="midnightblue" points="951.73,-372.5 961.73,-369 951.73,-365.5 951.73,-372.5"/>
</g>
<!-- Node20&#45;&gt;Node10 -->
<g id="edge21" class="edge"><title>Node20&#45;&gt;Node10</title>
<path fill="none" stroke="midnightblue" d="M903.599,-359.411C923.084,-354.442 947.075,-348.323 967.796,-343.039"/>
<polygon fill="midnightblue" stroke="midnightblue" points="968.846,-346.383 977.671,-340.52 967.117,-339.6 968.846,-346.383"/>
</g>
<!-- Node20&#45;&gt;Node12 -->
<g id="edge22" class="edge"><title>Node20&#45;&gt;Node12</title>
<path fill="none" stroke="midnightblue" d="M903.599,-378.589C923.084,-383.558 947.075,-389.677 967.796,-394.961"/>
<polygon fill="midnightblue" stroke="midnightblue" points="967.117,-398.4 977.671,-397.48 968.846,-391.617 967.117,-398.4"/>
</g>
<!-- Node22&#45;&gt;Node5 -->
<g id="edge28" class="edge"><title>Node22&#45;&gt;Node5</title>
<path fill="none" stroke="midnightblue" d="M319.836,-163.809C343.126,-180.321 390.339,-213.792 418.147,-233.507"/>
<polygon fill="midnightblue" stroke="midnightblue" points="416.257,-236.458 426.439,-239.386 420.306,-230.747 416.257,-236.458"/>
</g>
<!-- Node23 -->
<g id="node23" class="node"><title>Node23</title>
<g id="a_node23"><a xlink:href="avltree_8c.html#a645f38498ce0006cd109919b893e21f4" target="_top" xlink:title="new_node">
<polygon fill="none" stroke="black" points="410.5,-38.5 410.5,-57.5 471.5,-57.5 471.5,-38.5 410.5,-38.5"/>
<text text-anchor="middle" x="441" y="-45.5" font-family="Helvetica,sans-Serif" font-size="10.00">new_node</text>
</a>
</g>
</g>
<!-- Node22&#45;&gt;Node23 -->
<g id="edge27" class="edge"><title>Node22&#45;&gt;Node23</title>
<path fill="none" stroke="midnightblue" d="M335.512,-144.412C340.701,-141.88 345.782,-138.772 350,-135 374.039,-113.503 362.075,-93.6243 386,-72 390.437,-67.9896 395.653,-64.5612 401.064,-61.6576"/>
<polygon fill="midnightblue" stroke="midnightblue" points="402.745,-64.7336 410.251,-57.2565 399.72,-58.4207 402.745,-64.7336"/>
</g>
<!-- Node24 -->
<g id="node24" class="node"><title>Node24</title>
<g id="a_node24"><a xlink:href="stm_8h.html#a7f41614dded09613f4ccd7578ef188ba" target="_top" xlink:title="new_stm_blk">
<polygon fill="none" stroke="black" points="1119,-76.5 1119,-95.5 1193,-95.5 1193,-76.5 1119,-76.5"/>
<text text-anchor="middle" x="1156" y="-83.5" font-family="Helvetica,sans-Serif" font-size="10.00">new_stm_blk</text>
</a>
</g>
</g>
<!-- Node22&#45;&gt;Node24 -->
<g id="edge29" class="edge"><title>Node22&#45;&gt;Node24</title>
<path fill="none" stroke="midnightblue" d="M327.761,-144.401C372.302,-125.657 477.471,-86 570,-86 570,-86 570,-86 866,-86 951.729,-86 1051.76,-86 1108.82,-86"/>
<polygon fill="midnightblue" stroke="midnightblue" points="1108.96,-89.5001 1118.96,-86 1108.96,-82.5001 1108.96,-89.5001"/>
</g>
<!-- Node28 -->
<g id="node28" class="node"><title>Node28</title>
<g id="a_node28"><a xlink:href="stm_8h.html#a2c77806bb0511fb17494d226b5ea20d8" target="_top" xlink:title="init_stm_blk">
<polygon fill="none" stroke="black" points="406.5,-0.5 406.5,-19.5 475.5,-19.5 475.5,-0.5 406.5,-0.5"/>
<text text-anchor="middle" x="441" y="-7.5" font-family="Helvetica,sans-Serif" font-size="10.00">init_stm_blk</text>
</a>
</g>
</g>
<!-- Node22&#45;&gt;Node28 -->
<g id="edge36" class="edge"><title>Node22&#45;&gt;Node28</title>
<path fill="none" stroke="midnightblue" d="M337.48,-144.335C342.117,-141.86 346.501,-138.791 350,-135 383.742,-98.436 351.011,-64.373 386,-29 389.232,-25.7321 393.059,-23.0248 397.161,-20.7822"/>
<polygon fill="midnightblue" stroke="midnightblue" points="398.785,-23.8891 406.453,-16.578 395.899,-17.5116 398.785,-23.8891"/>
</g>
<!-- Node29 -->
<g id="node29" class="node"><title>Node29</title>
<g id="a_node29"><a xlink:href="stmskip_8cc.html#ab6919257456cff4d47684cdfd3bc5a3c" target="_top" xlink:title="get_level">
<polygon fill="none" stroke="black" points="413,-163.5 413,-182.5 469,-182.5 469,-163.5 413,-163.5"/>
<text text-anchor="middle" x="441" y="-170.5" font-family="Helvetica,sans-Serif" font-size="10.00">get_level</text>
</a>
</g>
</g>
<!-- Node22&#45;&gt;Node29 -->
<g id="edge37" class="edge"><title>Node22&#45;&gt;Node29</title>
<path fill="none" stroke="midnightblue" d="M348.031,-159.96C365.574,-162.447 385.782,-165.312 402.78,-167.722"/>
<polygon fill="midnightblue" stroke="midnightblue" points="402.503,-171.218 412.896,-169.157 403.486,-164.288 402.503,-171.218"/>
</g>
<!-- Node30 -->
<g id="node30" class="node"><title>Node30</title>
<g id="a_node30"><a xlink:href="stm_8h.html#a00de1ad150378181157510e2e5982f75" target="_top" xlink:title="write_stm_blk">
<polygon fill="none" stroke="black" points="532.5,-212.5 532.5,-231.5 609.5,-231.5 609.5,-212.5 532.5,-212.5"/>
<text text-anchor="middle" x="571" y="-219.5" font-family="Helvetica,sans-Serif" font-size="10.00">write_stm_blk</text>
</a>
</g>
</g>
<!-- Node22&#45;&gt;Node30 -->
<g id="edge38" class="edge"><title>Node22&#45;&gt;Node30</title>
<path fill="none" stroke="midnightblue" d="M348.377,-145.447C387.988,-139.403 448.054,-135.316 496,-154 521.65,-163.996 543.793,-187.501 557.007,-204.066"/>
<polygon fill="midnightblue" stroke="midnightblue" points="554.543,-206.605 563.396,-212.425 560.104,-202.354 554.543,-206.605"/>
</g>
<!-- Node25 -->
<g id="node25" class="node"><title>Node25</title>
<g id="a_node25"><a xlink:href="gc_8c.html#a5c5981457deeeefd60df569f6265f59c" target="_top" xlink:title="fr_gc_alloc">
<polygon fill="none" stroke="black" points="1258,-114.5 1258,-133.5 1322,-133.5 1322,-114.5 1258,-114.5"/>
<text text-anchor="middle" x="1290" y="-121.5" font-family="Helvetica,sans-Serif" font-size="10.00">fr_gc_alloc</text>
</a>
</g>
</g>
<!-- Node24&#45;&gt;Node25 -->
<g id="edge30" class="edge"><title>Node24&#45;&gt;Node25</title>
<path fill="none" stroke="midnightblue" d="M1190.31,-95.589C1207.92,-100.658 1229.68,-106.923 1248.29,-112.279"/>
<polygon fill="midnightblue" stroke="midnightblue" points="1247.39,-115.664 1257.97,-115.067 1249.33,-108.937 1247.39,-115.664"/>
</g>
<!-- Node25&#45;&gt;Node17 -->
<g id="edge31" class="edge"><title>Node25&#45;&gt;Node17</title>
<path fill="none" stroke="midnightblue" d="M1322.12,-126.235C1407.7,-132.383 1647.72,-149.624 1760.3,-157.711"/>
<polygon fill="midnightblue" stroke="midnightblue" points="1760.23,-161.216 1770.46,-158.441 1760.73,-154.234 1760.23,-161.216"/>
</g>
<!-- Node26 -->
<g id="node26" class="node"><title>Node26</title>
<g id="a_node26"><a xlink:href="gc_8c.html#a6dffa65320ddab40d01f198433b3aeb6" target="_top" xlink:title="get_alloc_chunk">
<polygon fill="none" stroke="black" points="1374.5,-152.5 1374.5,-171.5 1461.5,-171.5 1461.5,-152.5 1374.5,-152.5"/>
<text text-anchor="middle" x="1418" y="-159.5" font-family="Helvetica,sans-Serif" font-size="10.00">get_alloc_chunk</text>
</a>
</g>
</g>
<!-- Node25&#45;&gt;Node26 -->
<g id="edge32" class="edge"><title>Node25&#45;&gt;Node26</title>
<path fill="none" stroke="midnightblue" d="M1322.15,-133.393C1338.23,-138.244 1358.07,-144.227 1375.44,-149.466"/>
<polygon fill="midnightblue" stroke="midnightblue" points="1374.75,-152.914 1385.34,-152.451 1376.77,-146.212 1374.75,-152.914"/>
</g>
<!-- Node26&#45;&gt;Node17 -->
<g id="edge35" class="edge"><title>Node26&#45;&gt;Node17</title>
<path fill="none" stroke="midnightblue" d="M1461.53,-162C1533.25,-162 1678.39,-162 1760.28,-162"/>
<polygon fill="midnightblue" stroke="midnightblue" points="1760.43,-165.5 1770.43,-162 1760.43,-158.5 1760.43,-165.5"/>
</g>
<!-- Node27 -->
<g id="node27" class="node"><title>Node27</title>
<g id="a_node27"><a xlink:href="gc_8c.html#ae47e099483bed50da4e41b906c300b99" target="_top" xlink:title="get_filled_chunks">
<polygon fill="none" stroke="black" points="1502,-190.5 1502,-209.5 1594,-209.5 1594,-190.5 1502,-190.5"/>
<text text-anchor="middle" x="1548" y="-197.5" font-family="Helvetica,sans-Serif" font-size="10.00">get_filled_chunks</text>
</a>
</g>
</g>
<!-- Node26&#45;&gt;Node27 -->
<g id="edge33" class="edge"><title>Node26&#45;&gt;Node27</title>
<path fill="none" stroke="midnightblue" d="M1451.3,-171.589C1467.52,-176.404 1487.38,-182.299 1504.79,-187.468"/>
<polygon fill="midnightblue" stroke="midnightblue" points="1504.13,-190.923 1514.71,-190.414 1506.12,-184.213 1504.13,-190.923"/>
</g>
<!-- Node27&#45;&gt;Node16 -->
<g id="edge34" class="edge"><title>Node27&#45;&gt;Node16</title>
<path fill="none" stroke="midnightblue" d="M1594.37,-200C1603.95,-200 1614.19,-200 1624.18,-200"/>
<polygon fill="midnightblue" stroke="midnightblue" points="1624.47,-203.5 1634.47,-200 1624.47,-196.5 1624.47,-203.5"/>
</g>
<!-- Node30&#45;&gt;Node7 -->
<g id="edge39" class="edge"><title>Node30&#45;&gt;Node7</title>
<path fill="none" stroke="midnightblue" d="M609.837,-217.551C650.628,-214.35 716.614,-213.872 768,-236 787.935,-244.585 786.183,-256.604 804,-269 868.778,-314.066 889.595,-318.619 962,-350 966.7,-352.037 971.697,-354.036 976.672,-355.928"/>
<polygon fill="midnightblue" stroke="midnightblue" points="975.536,-359.239 986.129,-359.414 977.957,-352.671 975.536,-359.239"/>
</g>
<!-- Node30&#45;&gt;Node8 -->
<g id="edge40" class="edge"><title>Node30&#45;&gt;Node8</title>
<path fill="none" stroke="midnightblue" d="M576.902,-231.645C587.116,-250.784 612.535,-293.718 646,-317 648.867,-318.995 651.954,-320.788 655.161,-322.398"/>
<polygon fill="midnightblue" stroke="midnightblue" points="653.87,-325.654 664.434,-326.469 656.684,-319.244 653.87,-325.654"/>
</g>
<!-- Node30&#45;&gt;Node9 -->
<g id="edge41" class="edge"><title>Node30&#45;&gt;Node9</title>
<path fill="none" stroke="midnightblue" d="M574.645,-231.653C581.832,-256.061 604.046,-320.735 646,-355 649.819,-358.119 654.155,-360.729 658.709,-362.912"/>
<polygon fill="midnightblue" stroke="midnightblue" points="657.683,-366.273 668.263,-366.82 660.333,-359.795 657.683,-366.273"/>
</g>
<!-- Node30&#45;&gt;Node20 -->
<g id="edge48" class="edge"><title>Node30&#45;&gt;Node20</title>
<path fill="none" stroke="midnightblue" d="M609.522,-230.696C658.426,-242.407 740.907,-263.557 768,-279 801.518,-298.106 832.59,-331.169 849.857,-351.461"/>
<polygon fill="midnightblue" stroke="midnightblue" points="847.292,-353.851 856.379,-359.298 852.673,-349.373 847.292,-353.851"/>
</g>
<!-- Node30&#45;&gt;Node21 -->
<g id="edge47" class="edge"><title>Node30&#45;&gt;Node21</title>
<path fill="none" stroke="midnightblue" d="M583.999,-231.755C598.185,-242.966 622.806,-261.434 646,-274 653.144,-277.871 661.048,-281.472 668.71,-284.647"/>
<polygon fill="midnightblue" stroke="midnightblue" points="667.625,-287.982 678.21,-288.428 670.213,-281.478 667.625,-287.982"/>
</g>
<!-- Node30&#45;&gt;Node25 -->
<g id="edge42" class="edge"><title>Node30&#45;&gt;Node25</title>
<path fill="none" stroke="midnightblue" d="M577.646,-212.342C588.415,-194.945 613.719,-158.693 646,-143 733.468,-100.478 766.744,-124 864,-124 864,-124 864,-124 1017,-124 1098.9,-124 1194.67,-124 1247.93,-124"/>
<polygon fill="midnightblue" stroke="midnightblue" points="1248,-127.5 1258,-124 1248,-120.5 1248,-127.5"/>
</g>
<!-- Node31 -->
<g id="node31" class="node"><title>Node31</title>
<g id="a_node31"><a xlink:href="namespaceanonymous__namespace_02libitm-5_813_0014_8cpp_03.html#a8b7be7cf3afef27c0623b844ce9116d8" target="_top" xlink:title="anonymous_namespace\l\{libitm&#45;5::13,14::cpp\}\l::memcpy">
<polygon fill="none" stroke="black" points="646,-152.5 646,-193.5 768,-193.5 768,-152.5 646,-152.5"/>
<text text-anchor="start" x="654" y="-181.5" font-family="Helvetica,sans-Serif" font-size="10.00">anonymous_namespace</text>
<text text-anchor="start" x="654" y="-170.5" font-family="Helvetica,sans-Serif" font-size="10.00">{libitm&#45;5::13,14::cpp}</text>
<text text-anchor="middle" x="707" y="-159.5" font-family="Helvetica,sans-Serif" font-size="10.00">::memcpy</text>
</a>
</g>
</g>
<!-- Node30&#45;&gt;Node31 -->
<g id="edge43" class="edge"><title>Node30&#45;&gt;Node31</title>
<path fill="none" stroke="midnightblue" d="M598.155,-212.436C610.213,-208.027 625.126,-202.573 639.975,-197.143"/>
<polygon fill="midnightblue" stroke="midnightblue" points="641.503,-200.311 649.693,-193.59 639.099,-193.737 641.503,-200.311"/>
</g>
<!-- Node32 -->
<g id="node32" class="node"><title>Node32</title>
<g id="a_node32"><a xlink:href="namespaceanonymous__namespace_02oreceager_8cpp_03.html#a7a88c7a7453bbfaca53eeac03b80a5d6" target="_top" xlink:title="anonymous_namespace\l\{oreceager::cpp\}::read">
<polygon fill="none" stroke="black" points="804,-191 804,-221 926,-221 926,-191 804,-191"/>
<text text-anchor="start" x="812" y="-209" font-family="Helvetica,sans-Serif" font-size="10.00">anonymous_namespace</text>
<text text-anchor="middle" x="865" y="-198" font-family="Helvetica,sans-Serif" font-size="10.00">{oreceager::cpp}::read</text>
</a>
</g>
</g>
<!-- Node31&#45;&gt;Node32 -->
<g id="edge44" class="edge"><title>Node31&#45;&gt;Node32</title>
<path fill="none" stroke="midnightblue" d="M768.314,-185.759C776.695,-187.532 785.363,-189.365 793.904,-191.172"/>
<polygon fill="midnightblue" stroke="midnightblue" points="793.339,-194.63 803.847,-193.275 794.788,-187.781 793.339,-194.63"/>
</g>
<!-- Node33 -->
<g id="node33" class="node"><title>Node33</title>
<g id="a_node33"><a xlink:href="namespaceitm2stm.html#a334b9615cac957b9ce7a4743beaaaf53" target="_top" xlink:title="itm2stm::add_bytes">
<polygon fill="none" stroke="black" points="813.5,-152.5 813.5,-171.5 916.5,-171.5 916.5,-152.5 813.5,-152.5"/>
<text text-anchor="middle" x="865" y="-159.5" font-family="Helvetica,sans-Serif" font-size="10.00">itm2stm::add_bytes</text>
</a>
</g>
</g>
<!-- Node31&#45;&gt;Node33 -->
<g id="edge45" class="edge"><title>Node31&#45;&gt;Node33</title>
<path fill="none" stroke="midnightblue" d="M768.314,-168.747C779.852,-167.933 791.936,-167.081 803.481,-166.267"/>
<polygon fill="midnightblue" stroke="midnightblue" points="803.732,-169.758 813.461,-165.564 803.239,-162.776 803.732,-169.758"/>
</g>
<!-- Node34 -->
<g id="node34" class="node"><title>Node34</title>
<g id="a_node34"><a xlink:href="namespaceitm2stm.html#aa9908b113027ae21130750939980ee0b" target="_top" xlink:title="itm2stm::offset_of">
<polygon fill="none" stroke="black" points="817,-240.5 817,-259.5 913,-259.5 913,-240.5 817,-240.5"/>
<text text-anchor="middle" x="865" y="-247.5" font-family="Helvetica,sans-Serif" font-size="10.00">itm2stm::offset_of</text>
</a>
</g>
</g>
<!-- Node31&#45;&gt;Node34 -->
<g id="edge46" class="edge"><title>Node31&#45;&gt;Node34</title>
<path fill="none" stroke="midnightblue" d="M743.605,-193.608C751.646,-198.308 760.131,-203.301 768,-208 784.099,-217.613 786.996,-222.096 804,-230 809.422,-232.52 815.252,-234.874 821.071,-237.016"/>
<polygon fill="midnightblue" stroke="midnightblue" points="820.185,-240.415 830.78,-240.417 822.499,-233.808 820.185,-240.415"/>
</g>
<!-- Node35&#45;&gt;Node5 -->
<g id="edge50" class="edge"><title>Node35&#45;&gt;Node5</title>
<path fill="none" stroke="midnightblue" d="M339.814,-220.589C357.033,-225.472 378.164,-231.464 396.573,-236.685"/>
<polygon fill="midnightblue" stroke="midnightblue" points="395.621,-240.053 406.197,-239.414 397.531,-233.319 395.621,-240.053"/>
</g>
<!-- Node35&#45;&gt;Node30 -->
<g id="edge51" class="edge"><title>Node35&#45;&gt;Node30</title>
<path fill="none" stroke="midnightblue" d="M349.594,-212.816C397.175,-214.799 473.119,-217.963 522.271,-220.011"/>
<polygon fill="midnightblue" stroke="midnightblue" points="522.196,-223.511 532.333,-220.431 522.487,-216.517 522.196,-223.511"/>
</g>
</g>
</svg>
        <g id="navigator" transform="translate(0 0)" fill="#404254">
                <rect fill="#f2f5e9" fill-opacity="0.5" stroke="#606060" stroke-width=".5" x="0" y="0" width="60" height="60"/>
                <use id="zoomplus" xlink:href="#zoomPlus" x="17" y="9" onmousedown="handleZoom(evt,'in')"/>
                <use id="zoomminus" xlink:href="#zoomMin" x="42" y="9" onmousedown="handleZoom(evt,'out')"/>
                <use id="reset" xlink:href="#resetDef" x="30" y="36" onmousedown="handleReset()"/>
                <g id="arrowUp" xlink:href="#dirArrow" transform="translate(30 24)" onmousedown="handlePan(0,-1)">
                  <use xlink:href="#rim" fill="#404040">
                        <set attributeName="fill" to="#808080" begin="arrowUp.mouseover" end="arrowUp.mouseout"/>
                  </use>
                  <path fill="none" stroke="white" stroke-width="1.5" d="M0,-3.0v7 M-2.5,-0.5L0,-3.0L2.5,-0.5"/>
                </g>
                <g id="arrowRight" xlink:href="#dirArrow" transform="rotate(90) translate(36 -43)" onmousedown="handlePan(1,0)">
                  <use xlink:href="#rim" fill="#404040">
                        <set attributeName="fill" to="#808080" begin="arrowRight.mouseover" end="arrowRight.mouseout"/>
                  </use>
                  <path fill="none" stroke="white" stroke-width="1.5" d="M0,-3.0v7 M-2.5,-0.5L0,-3.0L2.5,-0.5"/>
                </g>
                <g id="arrowDown" xlink:href="#dirArrow" transform="rotate(180) translate(-30 -48)" onmousedown="handlePan(0,1)">
                  <use xlink:href="#rim" fill="#404040">
                        <set attributeName="fill" to="#808080" begin="arrowDown.mouseover" end="arrowDown.mouseout"/>
                  </use>
                  <path fill="none" stroke="white" stroke-width="1.5" d="M0,-3.0v7 M-2.5,-0.5L0,-3.0L2.5,-0.5"/>
                </g>
                <g id="arrowLeft" xlink:href="#dirArrow" transform="rotate(270) translate(-36 17)" onmousedown="handlePan(-1,0)">
                  <use xlink:href="#rim" fill="#404040">
                        <set attributeName="fill" to="#808080" begin="arrowLeft.mouseover" end="arrowLeft.mouseout"/>
                  </use>
                  <path fill="none" stroke="white" stroke-width="1.5" d="M0,-3.0v7 M-2.5,-0.5L0,-3.0L2.5,-0.5"/>
                </g>
        </g>
        <svg viewBox="0 0 15 15" width="100%" height="30px" preserveAspectRatio="xMaxYMin meet">
         <g id="arrow_out" transform="scale(0.3 0.3)">
          <a xlink:href="list_8h_a1379a3cf001369bd5979fe53160640f5_cgraph_org.svg" target="_base">
           <rect id="button" ry="5" rx="5" y="6" x="6" height="38" width="38"
                fill="#f2f5e9" fill-opacity="0.5" stroke="#606060" stroke-width="1.0"/>
           <path id="arrow"
             d="M 11.500037,31.436501 C 11.940474,20.09759 22.043105,11.32322 32.158766,21.979434 L 37.068811,17.246167 C 37.068811,17.246167 37.088388,32 37.088388,32 L 22.160133,31.978069 C 22.160133,31.978069 26.997745,27.140456 26.997745,27.140456 C 18.528582,18.264221 13.291696,25.230495 11.500037,31.436501 z"
             style="fill:#404040;"/>
          </a>
         </g>
        </svg>
</svg>
