<?xml version="1.0" encoding="UTF-8" standalone="no"?>
<!DOCTYPE svg PUBLIC "-//W3C//DTD SVG 1.1//EN"
 "http://www.w3.org/Graphics/SVG/1.1/DTD/svg11.dtd">
<!-- Generated by graphviz version 2.36.0 (20140111.2315)
 -->
<!-- Title: TMlist_find Pages: 1 -->
<!--zoomable 435 -->
<svg id="main" version="1.1" xmlns="http://www.w3.org/2000/svg" xmlns:xlink="http://www.w3.org/1999/xlink" xml:space="preserve" onload="init(evt)">
<style type="text/css"><![CDATA[
.edge:hover path { stroke: red; }
.edge:hover polygon { stroke: red; fill: red; }
]]></style>
<script type="text/javascript"><![CDATA[
var edges = document.getElementsByTagName('g');
if (edges && edges.length) {
  for (var i=0;i<edges.length;i++) {
    if (edges[i].id.substr(0,4)=='edge') {
      edges[i].setAttribute('class','edge');
    }
  }
}
]]></script>
        <defs>
                <circle id="rim" cx="0" cy="0" r="7"/>
                <circle id="rim2" cx="0" cy="0" r="3.5"/>
                <g id="zoomPlus">
                        <use xlink:href="#rim" fill="#404040">
                                <set attributeName="fill" to="#808080" begin="zoomplus.mouseover" end="zoomplus.mouseout"/>
                        </use>
                        <path d="M-4,0h8M0,-4v8" fill="none" stroke="white" stroke-width="1.5" pointer-events="none"/>
                </g>
                <g id="zoomMin">
                        <use xlink:href="#rim" fill="#404040">
                                <set attributeName="fill" to="#808080" begin="zoomminus.mouseover" end="zoomminus.mouseout"/>
                        </use>
                        <path d="M-4,0h8" fill="none" stroke="white" stroke-width="1.5" pointer-events="none"/>
                </g>
                <g id="dirArrow">
                        <path fill="none" stroke="white" stroke-width="1.5" d="M0,-3.0v7 M-2.5,-0.5L0,-3.0L2.5,-0.5"/>
                </g>
               <g id="resetDef">
                       <use xlink:href="#rim2" fill="#404040">
                               <set attributeName="fill" to="#808080" begin="reset.mouseover" end="reset.mouseout"/>
                       </use>
               </g>
        </defs>

<script type="text/javascript">
var viewWidth = 1910;
var viewHeight = 435;
var sectionId = 'dynsection-24';
</script>
<script xlink:href="svgpan.js"/>
<svg id="graph" class="graph">
<g id="viewport">
<title>TMlist_find</title>
<!-- Node1 -->
<g id="node1" class="node"><title>Node1</title>
<polygon fill="#bfbfbf" stroke="black" points="0.5,-182.5 0.5,-201.5 65.5,-201.5 65.5,-182.5 0.5,-182.5"/>
<text text-anchor="middle" x="33" y="-189.5" font-family="Helvetica,sans-Serif" font-size="10.00">TMlist_find</text>
</g>
<!-- Node2 -->
<g id="node2" class="node"><title>Node2</title>
<g id="a_node2"><a xlink:href="list_8c.html#abae8c22f79c73d231c8ddd9b795e47d9" target="_top" xlink:title="TMfindPrevious">
<polygon fill="none" stroke="black" points="102.5,-182.5 102.5,-201.5 187.5,-201.5 187.5,-182.5 102.5,-182.5"/>
<text text-anchor="middle" x="145" y="-189.5" font-family="Helvetica,sans-Serif" font-size="10.00">TMfindPrevious</text>
</a>
</g>
</g>
<!-- Node1&#45;&gt;Node2 -->
<g id="edge1" class="edge"><title>Node1&#45;&gt;Node2</title>
<path fill="none" stroke="midnightblue" d="M65.5216,-192C73.8244,-192 83.0059,-192 92.0756,-192"/>
<polygon fill="midnightblue" stroke="midnightblue" points="92.2152,-195.5 102.215,-192 92.2152,-188.5 92.2152,-195.5"/>
</g>
<!-- Node3 -->
<g id="node3" class="node"><title>Node3</title>
<g id="a_node3"><a xlink:href="stmskip_8cc.html#a9ab04b9e875013b4d2dd249d0c97dce5" target="_top" xlink:title="for">
<polygon fill="none" stroke="black" points="224.5,-182.5 224.5,-201.5 253.5,-201.5 253.5,-182.5 224.5,-182.5"/>
<text text-anchor="middle" x="239" y="-189.5" font-family="Helvetica,sans-Serif" font-size="10.00">for</text>
</a>
</g>
</g>
<!-- Node2&#45;&gt;Node3 -->
<g id="edge2" class="edge"><title>Node2&#45;&gt;Node3</title>
<path fill="none" stroke="midnightblue" d="M187.693,-192C196.714,-192 205.959,-192 214.021,-192"/>
<polygon fill="midnightblue" stroke="midnightblue" points="214.152,-195.5 224.152,-192 214.152,-188.5 214.152,-195.5"/>
</g>
<!-- Node4 -->
<g id="node4" class="node"><title>Node4</title>
<g id="a_node4"><a xlink:href="stmskip_8cc.html#a09de30bf6124d9640899b27c93b49471" target="_top" xlink:title="stmskip_lookup">
<polygon fill="none" stroke="black" points="292.5,-239.5 292.5,-258.5 377.5,-258.5 377.5,-239.5 292.5,-239.5"/>
<text text-anchor="middle" x="335" y="-246.5" font-family="Helvetica,sans-Serif" font-size="10.00">stmskip_lookup</text>
</a>
</g>
</g>
<!-- Node3&#45;&gt;Node4 -->
<g id="edge3" class="edge"><title>Node3&#45;&gt;Node4</title>
<path fill="none" stroke="midnightblue" d="M250.966,-201.58C260.747,-209.811 275.691,-221.64 290,-230 293.038,-231.775 296.272,-233.481 299.556,-235.094"/>
<polygon fill="midnightblue" stroke="midnightblue" points="298.27,-238.356 308.816,-239.37 301.204,-232 298.27,-238.356"/>
</g>
<!-- Node22 -->
<g id="node22" class="node"><title>Node22</title>
<g id="a_node22"><a xlink:href="stmskip_8cc.html#ad17c6ea2fd390c2dd637a34fdeb0b3df" target="_top" xlink:title="stmskip_update">
<polygon fill="none" stroke="black" points="292,-144.5 292,-163.5 378,-163.5 378,-144.5 292,-144.5"/>
<text text-anchor="middle" x="335" y="-151.5" font-family="Helvetica,sans-Serif" font-size="10.00">stmskip_update</text>
</a>
</g>
</g>
<!-- Node3&#45;&gt;Node22 -->
<g id="edge26" class="edge"><title>Node3&#45;&gt;Node22</title>
<path fill="none" stroke="midnightblue" d="M253.87,-186.393C266.135,-181.435 284.523,-174.001 300.593,-167.505"/>
<polygon fill="midnightblue" stroke="midnightblue" points="302.264,-170.605 310.223,-163.612 299.64,-164.115 302.264,-170.605"/>
</g>
<!-- Node35 -->
<g id="node35" class="node"><title>Node35</title>
<g id="a_node35"><a xlink:href="stmskip_8cc.html#a3925aa5d2590fc57854aa9d670f58e4d" target="_top" xlink:title="stmskip_remove">
<polygon fill="none" stroke="black" points="290.5,-201.5 290.5,-220.5 379.5,-220.5 379.5,-201.5 290.5,-201.5"/>
<text text-anchor="middle" x="335" y="-208.5" font-family="Helvetica,sans-Serif" font-size="10.00">stmskip_remove</text>
</a>
</g>
</g>
<!-- Node3&#45;&gt;Node35 -->
<g id="edge49" class="edge"><title>Node3&#45;&gt;Node35</title>
<path fill="none" stroke="midnightblue" d="M253.87,-194.804C261.147,-196.274 270.581,-198.181 280.407,-200.167"/>
<polygon fill="midnightblue" stroke="midnightblue" points="279.803,-203.616 290.298,-202.167 281.19,-196.755 279.803,-203.616"/>
</g>
<!-- Node36 -->
<g id="node36" class="node"><title>Node36</title>
<g id="a_node36"><a xlink:href="stm_8h.html#ad6e1404788ef0e710c991c3e00fd5c39" target="_top" xlink:title="abort_stm_tx">
<polygon fill="none" stroke="black" points="298,-106.5 298,-125.5 372,-125.5 372,-106.5 298,-106.5"/>
<text text-anchor="middle" x="335" y="-113.5" font-family="Helvetica,sans-Serif" font-size="10.00">abort_stm_tx</text>
</a>
</g>
</g>
<!-- Node3&#45;&gt;Node36 -->
<g id="edge52" class="edge"><title>Node3&#45;&gt;Node36</title>
<path fill="none" stroke="midnightblue" d="M246.404,-182.351C255.038,-169.968 271.481,-148.479 290,-135 292.334,-133.302 294.843,-131.714 297.437,-130.24"/>
<polygon fill="midnightblue" stroke="midnightblue" points="299.121,-133.31 306.453,-125.661 295.952,-127.069 299.121,-133.31"/>
</g>
<!-- Node5 -->
<g id="node5" class="node"><title>Node5</title>
<g id="a_node5"><a xlink:href="stmskip_8cc.html#aa82848b11e972b9339ceadb6816cdb6a" target="_top" xlink:title="search_predecessors">
<polygon fill="none" stroke="black" points="416,-239.5 416,-258.5 526,-258.5 526,-239.5 416,-239.5"/>
<text text-anchor="middle" x="471" y="-246.5" font-family="Helvetica,sans-Serif" font-size="10.00">search_predecessors</text>
</a>
</g>
</g>
<!-- Node4&#45;&gt;Node5 -->
<g id="edge4" class="edge"><title>Node4&#45;&gt;Node5</title>
<path fill="none" stroke="midnightblue" d="M377.664,-249C386.466,-249 395.951,-249 405.374,-249"/>
<polygon fill="midnightblue" stroke="midnightblue" points="405.539,-252.5 415.539,-249 405.539,-245.5 405.539,-252.5"/>
</g>
<!-- Node6 -->
<g id="node6" class="node"><title>Node6</title>
<g id="a_node6"><a xlink:href="stm_8h.html#a5594d7fca67459d7d9738436af589c5c" target="_top" xlink:title="read_stm_blk">
<polygon fill="none" stroke="black" points="563.5,-345.5 563.5,-364.5 638.5,-364.5 638.5,-345.5 563.5,-345.5"/>
<text text-anchor="middle" x="601" y="-352.5" font-family="Helvetica,sans-Serif" font-size="10.00">read_stm_blk</text>
</a>
</g>
</g>
<!-- Node5&#45;&gt;Node6 -->
<g id="edge5" class="edge"><title>Node5&#45;&gt;Node6</title>
<path fill="none" stroke="midnightblue" d="M483.812,-258.782C505.816,-277.004 553.283,-316.313 580.242,-338.638"/>
<polygon fill="midnightblue" stroke="midnightblue" points="578.282,-341.559 588.216,-345.241 582.746,-336.168 578.282,-341.559"/>
</g>
<!-- Node7 -->
<g id="node7" class="node"><title>Node7</title>
<g id="a_node7"><a xlink:href="stm__fraser_8c.html#aca0d40200c3502bdabeb44b27dfd4105" target="_top" xlink:title="search_stm_tx_entry">
<polygon fill="none" stroke="black" points="992,-359.5 992,-378.5 1100,-378.5 1100,-359.5 992,-359.5"/>
<text text-anchor="middle" x="1046" y="-366.5" font-family="Helvetica,sans-Serif" font-size="10.00">search_stm_tx_entry</text>
</a>
</g>
</g>
<!-- Node6&#45;&gt;Node7 -->
<g id="edge6" class="edge"><title>Node6&#45;&gt;Node7</title>
<path fill="none" stroke="midnightblue" d="M610.889,-364.713C623.74,-377.955 648.95,-401.048 676,-410 794.508,-449.217 833.064,-409.652 956,-388 968.156,-385.859 981.182,-383.255 993.414,-380.671"/>
<polygon fill="midnightblue" stroke="midnightblue" points="994.422,-384.034 1003.47,-378.514 992.954,-377.19 994.422,-384.034"/>
</g>
<!-- Node8 -->
<g id="node8" class="node"><title>Node8</title>
<g id="a_node8"><a xlink:href="stm__fraser_8c.html#a75177d9fa0335bd50b6fae9a68341443" target="_top" xlink:title="alloc_stm_tx_entry">
<polygon fill="none" stroke="black" points="687.5,-326.5 687.5,-345.5 786.5,-345.5 786.5,-326.5 687.5,-326.5"/>
<text text-anchor="middle" x="737" y="-333.5" font-family="Helvetica,sans-Serif" font-size="10.00">alloc_stm_tx_entry</text>
</a>
</g>
</g>
<!-- Node6&#45;&gt;Node8 -->
<g id="edge7" class="edge"><title>Node6&#45;&gt;Node8</title>
<path fill="none" stroke="midnightblue" d="M638.616,-349.808C650.596,-348.11 664.219,-346.178 677.402,-344.309"/>
<polygon fill="midnightblue" stroke="midnightblue" points="677.953,-347.766 687.362,-342.896 676.97,-340.835 677.953,-347.766"/>
</g>
<!-- Node9 -->
<g id="node9" class="node"><title>Node9</title>
<g id="a_node9"><a xlink:href="stm__fraser_8c.html#a4e016a575dac2ee3931ef9ec94550d33" target="_top" xlink:title="read_blk_data">
<polygon fill="none" stroke="black" points="698.5,-364.5 698.5,-383.5 775.5,-383.5 775.5,-364.5 698.5,-364.5"/>
<text text-anchor="middle" x="737" y="-371.5" font-family="Helvetica,sans-Serif" font-size="10.00">read_blk_data</text>
</a>
</g>
</g>
<!-- Node6&#45;&gt;Node9 -->
<g id="edge8" class="edge"><title>Node6&#45;&gt;Node9</title>
<path fill="none" stroke="midnightblue" d="M638.616,-360.192C654.017,-362.376 672.136,-364.945 688.542,-367.271"/>
<polygon fill="midnightblue" stroke="midnightblue" points="688.103,-370.744 698.495,-368.682 689.086,-363.813 688.103,-370.744"/>
</g>
<!-- Node20 -->
<g id="node20" class="node"><title>Node20</title>
<g id="a_node20"><a xlink:href="stm__fraser_8c.html#a31ea9d61a84d817aac10ffbc4ba9f296" target="_top" xlink:title="commit_stm_tx">
<polygon fill="none" stroke="black" points="853,-359.5 853,-378.5 937,-378.5 937,-359.5 853,-359.5"/>
<text text-anchor="middle" x="895" y="-366.5" font-family="Helvetica,sans-Serif" font-size="10.00">commit_stm_tx</text>
</a>
</g>
</g>
<!-- Node6&#45;&gt;Node20 -->
<g id="edge25" class="edge"><title>Node6&#45;&gt;Node20</title>
<path fill="none" stroke="midnightblue" d="M615.671,-364.558C629.957,-373.915 653.399,-387.536 676,-393 737.46,-407.858 810.917,-393.34 854.944,-381.306"/>
<polygon fill="midnightblue" stroke="midnightblue" points="856.007,-384.643 864.677,-378.554 854.102,-377.907 856.007,-384.643"/>
</g>
<!-- Node21 -->
<g id="node21" class="node"><title>Node21</title>
<g id="a_node21"><a xlink:href="stm__fraser_8c.html#ad6e1404788ef0e710c991c3e00fd5c39" target="_top" xlink:title="abort_stm_tx">
<polygon fill="none" stroke="black" points="700,-288.5 700,-307.5 774,-307.5 774,-288.5 700,-288.5"/>
<text text-anchor="middle" x="737" y="-295.5" font-family="Helvetica,sans-Serif" font-size="10.00">abort_stm_tx</text>
</a>
</g>
</g>
<!-- Node6&#45;&gt;Node21 -->
<g id="edge24" class="edge"><title>Node6&#45;&gt;Node21</title>
<path fill="none" stroke="midnightblue" d="M618.665,-345.419C633.419,-337.186 655.701,-325.357 676,-317 681.372,-314.788 687.101,-312.676 692.807,-310.716"/>
<polygon fill="midnightblue" stroke="midnightblue" points="693.923,-314.034 702.321,-307.573 691.728,-307.387 693.923,-314.034"/>
</g>
<!-- Node10 -->
<g id="node10" class="node"><title>Node10</title>
<g id="a_node10"><a xlink:href="stm__fraser_8c.html#a3baf54f8c2c6bdb79109865e5500cbd9" target="_top" xlink:title="rc_up_descriptor">
<polygon fill="none" stroke="black" points="1001.5,-321.5 1001.5,-340.5 1090.5,-340.5 1090.5,-321.5 1001.5,-321.5"/>
<text text-anchor="middle" x="1046" y="-328.5" font-family="Helvetica,sans-Serif" font-size="10.00">rc_up_descriptor</text>
</a>
</g>
</g>
<!-- Node9&#45;&gt;Node10 -->
<g id="edge9" class="edge"><title>Node9&#45;&gt;Node10</title>
<path fill="none" stroke="midnightblue" d="M771.053,-364.389C789.441,-359.384 812.826,-353.578 834,-350 886.936,-341.055 948.102,-336.134 990.904,-333.556"/>
<polygon fill="midnightblue" stroke="midnightblue" points="991.321,-337.037 1001.1,-332.965 990.916,-330.049 991.321,-337.037"/>
</g>
<!-- Node12 -->
<g id="node12" class="node"><title>Node12</title>
<g id="a_node12"><a xlink:href="stm__fraser_8c.html#ad41e28910c7dbe8cfd98c9e0c168c9dc" target="_top" xlink:title="rc_down_descriptor">
<polygon fill="none" stroke="black" points="995.5,-397.5 995.5,-416.5 1096.5,-416.5 1096.5,-397.5 995.5,-397.5"/>
<text text-anchor="middle" x="1046" y="-404.5" font-family="Helvetica,sans-Serif" font-size="10.00">rc_down_descriptor</text>
</a>
</g>
</g>
<!-- Node9&#45;&gt;Node12 -->
<g id="edge11" class="edge"><title>Node9&#45;&gt;Node12</title>
<path fill="none" stroke="midnightblue" d="M775.781,-380C793.437,-382.678 814.764,-385.733 834,-388 884.955,-394.005 943.03,-399.107 985.336,-402.508"/>
<polygon fill="midnightblue" stroke="midnightblue" points="985.22,-406.009 995.466,-403.314 985.775,-399.031 985.22,-406.009"/>
</g>
<!-- Node9&#45;&gt;Node20 -->
<g id="edge20" class="edge"><title>Node9&#45;&gt;Node20</title>
<path fill="none" stroke="midnightblue" d="M775.763,-372.79C795.847,-372.146 820.832,-371.345 842.654,-370.646"/>
<polygon fill="midnightblue" stroke="midnightblue" points="842.869,-374.141 852.751,-370.322 842.644,-367.144 842.869,-374.141"/>
</g>
<!-- Node11 -->
<g id="node11" class="node"><title>Node11</title>
<g id="a_node11"><a xlink:href="stm__fraser_8c.html#a1a59f05201730ec9ba9a348070073e57" target="_top" xlink:title="rc_delta_descriptor">
<polygon fill="none" stroke="black" points="1136.5,-321.5 1136.5,-340.5 1235.5,-340.5 1235.5,-321.5 1136.5,-321.5"/>
<text text-anchor="middle" x="1186" y="-328.5" font-family="Helvetica,sans-Serif" font-size="10.00">rc_delta_descriptor</text>
</a>
</g>
</g>
<!-- Node10&#45;&gt;Node11 -->
<g id="edge10" class="edge"><title>Node10&#45;&gt;Node11</title>
<path fill="none" stroke="midnightblue" d="M1090.66,-331C1101.9,-331 1114.18,-331 1126.05,-331"/>
<polygon fill="midnightblue" stroke="midnightblue" points="1126.35,-334.5 1136.35,-331 1126.35,-327.5 1126.35,-334.5"/>
</g>
<!-- Node13 -->
<g id="node13" class="node"><title>Node13</title>
<g id="a_node13"><a xlink:href="stm__fraser_8c.html#afd1a951db8c0f79e6bf20624e7dca338" target="_top" xlink:title="release_descriptor">
<polygon fill="none" stroke="black" points="1138,-378.5 1138,-397.5 1234,-397.5 1234,-378.5 1138,-378.5"/>
<text text-anchor="middle" x="1186" y="-385.5" font-family="Helvetica,sans-Serif" font-size="10.00">release_descriptor</text>
</a>
</g>
</g>
<!-- Node12&#45;&gt;Node13 -->
<g id="edge12" class="edge"><title>Node12&#45;&gt;Node13</title>
<path fill="none" stroke="midnightblue" d="M1096.82,-400.141C1106.78,-398.769 1117.32,-397.318 1127.51,-395.915"/>
<polygon fill="midnightblue" stroke="midnightblue" points="1128.13,-399.363 1137.56,-394.532 1127.17,-392.429 1128.13,-399.363"/>
</g>
<!-- Node14 -->
<g id="node14" class="node"><title>Node14</title>
<g id="a_node14"><a xlink:href="gc_8c.html#a80f4a5c119aa70ab0452a73dfac21bbd" target="_top" xlink:title="fr_gc_free">
<polygon fill="none" stroke="black" points="1418,-340.5 1418,-359.5 1478,-359.5 1478,-340.5 1418,-340.5"/>
<text text-anchor="middle" x="1448" y="-347.5" font-family="Helvetica,sans-Serif" font-size="10.00">fr_gc_free</text>
</a>
</g>
</g>
<!-- Node13&#45;&gt;Node14 -->
<g id="edge13" class="edge"><title>Node13&#45;&gt;Node14</title>
<path fill="none" stroke="midnightblue" d="M1234.11,-384.761C1270.78,-381.829 1322.85,-376.765 1368,-369 1381.16,-366.736 1395.4,-363.548 1408.11,-360.428"/>
<polygon fill="midnightblue" stroke="midnightblue" points="1409.08,-363.793 1417.93,-357.96 1407.38,-357.004 1409.08,-363.793"/>
</g>
<!-- Node19 -->
<g id="node19" class="node"><title>Node19</title>
<g id="a_node19"><a xlink:href="gc_8c.html#a1e1a80c2d04496b5b70bd86b59510355" target="_top" xlink:title="fr_gc_unsafe_free">
<polygon fill="none" stroke="black" points="1272.5,-340.5 1272.5,-359.5 1367.5,-359.5 1367.5,-340.5 1272.5,-340.5"/>
<text text-anchor="middle" x="1320" y="-347.5" font-family="Helvetica,sans-Serif" font-size="10.00">fr_gc_unsafe_free</text>
</a>
</g>
</g>
<!-- Node13&#45;&gt;Node19 -->
<g id="edge18" class="edge"><title>Node13&#45;&gt;Node19</title>
<path fill="none" stroke="midnightblue" d="M1220.31,-378.411C1237.19,-373.551 1257.89,-367.591 1275.97,-362.387"/>
<polygon fill="midnightblue" stroke="midnightblue" points="1277.06,-365.716 1285.7,-359.586 1275.12,-358.989 1277.06,-365.716"/>
</g>
<!-- Node15 -->
<g id="node15" class="node"><title>Node15</title>
<g id="a_node15"><a xlink:href="gc_8c.html#afb494e950c8c6b5661974748ae89b61e" target="_top" xlink:title="chunk_from_cache">
<polygon fill="none" stroke="black" points="1528.5,-284.5 1528.5,-303.5 1627.5,-303.5 1627.5,-284.5 1528.5,-284.5"/>
<text text-anchor="middle" x="1578" y="-291.5" font-family="Helvetica,sans-Serif" font-size="10.00">chunk_from_cache</text>
</a>
</g>
</g>
<!-- Node14&#45;&gt;Node15 -->
<g id="edge14" class="edge"><title>Node14&#45;&gt;Node15</title>
<path fill="none" stroke="midnightblue" d="M1471,-340.373C1491.64,-331.343 1522.72,-317.749 1545.89,-307.611"/>
<polygon fill="midnightblue" stroke="midnightblue" points="1547.52,-310.716 1555.28,-303.501 1544.72,-304.303 1547.52,-310.716"/>
</g>
<!-- Node16 -->
<g id="node16" class="node"><title>Node16</title>
<g id="a_node16"><a xlink:href="gc_8c.html#a2a6f41199ed37925df4cc7b9909dc0ed" target="_top" xlink:title="get_empty_chunks">
<polygon fill="none" stroke="black" points="1664.5,-190.5 1664.5,-209.5 1763.5,-209.5 1763.5,-190.5 1664.5,-190.5"/>
<text text-anchor="middle" x="1714" y="-197.5" font-family="Helvetica,sans-Serif" font-size="10.00">get_empty_chunks</text>
</a>
</g>
</g>
<!-- Node15&#45;&gt;Node16 -->
<g id="edge15" class="edge"><title>Node15&#45;&gt;Node16</title>
<path fill="none" stroke="midnightblue" d="M1592.84,-284.294C1616.13,-267.956 1663.34,-234.837 1691.15,-215.33"/>
<polygon fill="midnightblue" stroke="midnightblue" points="1693.26,-218.121 1699.44,-209.513 1689.24,-212.39 1693.26,-218.121"/>
</g>
<!-- Node17 -->
<g id="node17" class="node"><title>Node17</title>
<g id="a_node17"><a xlink:href="gc_8c.html#ac360b80b93ad00f0fba18a1993e1d6a0" target="_top" xlink:title="add_chunks_to_list">
<polygon fill="none" stroke="black" points="1800.5,-152.5 1800.5,-171.5 1901.5,-171.5 1901.5,-152.5 1800.5,-152.5"/>
<text text-anchor="middle" x="1851" y="-159.5" font-family="Helvetica,sans-Serif" font-size="10.00">add_chunks_to_list</text>
</a>
</g>
</g>
<!-- Node16&#45;&gt;Node17 -->
<g id="edge16" class="edge"><title>Node16&#45;&gt;Node17</title>
<path fill="none" stroke="midnightblue" d="M1749.07,-190.411C1766.41,-185.528 1787.7,-179.536 1806.25,-174.315"/>
<polygon fill="midnightblue" stroke="midnightblue" points="1807.27,-177.665 1815.94,-171.586 1805.37,-170.926 1807.27,-177.665"/>
</g>
<!-- Node18 -->
<g id="node18" class="node"><title>Node18</title>
<g id="a_node18"><a xlink:href="gc_8c.html#ade31863985bdaa481ade142bdfb6d99f" target="_top" xlink:title="alloc_more_chunks">
<polygon fill="none" stroke="black" points="1800.5,-190.5 1800.5,-209.5 1901.5,-209.5 1901.5,-190.5 1800.5,-190.5"/>
<text text-anchor="middle" x="1851" y="-197.5" font-family="Helvetica,sans-Serif" font-size="10.00">alloc_more_chunks</text>
</a>
</g>
</g>
<!-- Node16&#45;&gt;Node18 -->
<g id="edge17" class="edge"><title>Node16&#45;&gt;Node18</title>
<path fill="none" stroke="midnightblue" d="M1763.74,-200C1772.31,-200 1781.33,-200 1790.17,-200"/>
<polygon fill="midnightblue" stroke="midnightblue" points="1790.43,-203.5 1800.43,-200 1790.43,-196.5 1790.43,-203.5"/>
</g>
<!-- Node19&#45;&gt;Node14 -->
<g id="edge19" class="edge"><title>Node19&#45;&gt;Node14</title>
<path fill="none" stroke="midnightblue" d="M1367.56,-350C1380.7,-350 1394.87,-350 1407.56,-350"/>
<polygon fill="midnightblue" stroke="midnightblue" points="1407.81,-353.5 1417.81,-350 1407.81,-346.5 1407.81,-353.5"/>
</g>
<!-- Node20&#45;&gt;Node7 -->
<g id="edge23" class="edge"><title>Node20&#45;&gt;Node7</title>
<path fill="none" stroke="midnightblue" d="M937.109,-369C950.827,-369 966.449,-369 981.463,-369"/>
<polygon fill="midnightblue" stroke="midnightblue" points="981.73,-372.5 991.73,-369 981.73,-365.5 981.73,-372.5"/>
</g>
<!-- Node20&#45;&gt;Node10 -->
<g id="edge21" class="edge"><title>Node20&#45;&gt;Node10</title>
<path fill="none" stroke="midnightblue" d="M933.599,-359.411C953.084,-354.442 977.075,-348.323 997.796,-343.039"/>
<polygon fill="midnightblue" stroke="midnightblue" points="998.846,-346.383 1007.67,-340.52 997.117,-339.6 998.846,-346.383"/>
</g>
<!-- Node20&#45;&gt;Node12 -->
<g id="edge22" class="edge"><title>Node20&#45;&gt;Node12</title>
<path fill="none" stroke="midnightblue" d="M933.599,-378.589C953.084,-383.558 977.075,-389.677 997.796,-394.961"/>
<polygon fill="midnightblue" stroke="midnightblue" points="997.117,-398.4 1007.67,-397.48 998.846,-391.617 997.117,-398.4"/>
</g>
<!-- Node22&#45;&gt;Node5 -->
<g id="edge28" class="edge"><title>Node22&#45;&gt;Node5</title>
<path fill="none" stroke="midnightblue" d="M349.836,-163.809C373.126,-180.321 420.339,-213.792 448.147,-233.507"/>
<polygon fill="midnightblue" stroke="midnightblue" points="446.257,-236.458 456.439,-239.386 450.306,-230.747 446.257,-236.458"/>
</g>
<!-- Node23 -->
<g id="node23" class="node"><title>Node23</title>
<g id="a_node23"><a xlink:href="avltree_8c.html#a645f38498ce0006cd109919b893e21f4" target="_top" xlink:title="new_node">
<polygon fill="none" stroke="black" points="440.5,-38.5 440.5,-57.5 501.5,-57.5 501.5,-38.5 440.5,-38.5"/>
<text text-anchor="middle" x="471" y="-45.5" font-family="Helvetica,sans-Serif" font-size="10.00">new_node</text>
</a>
</g>
</g>
<!-- Node22&#45;&gt;Node23 -->
<g id="edge27" class="edge"><title>Node22&#45;&gt;Node23</title>
<path fill="none" stroke="midnightblue" d="M365.512,-144.412C370.701,-141.88 375.782,-138.772 380,-135 404.039,-113.503 392.075,-93.6243 416,-72 420.437,-67.9896 425.653,-64.5612 431.064,-61.6576"/>
<polygon fill="midnightblue" stroke="midnightblue" points="432.745,-64.7336 440.251,-57.2565 429.72,-58.4207 432.745,-64.7336"/>
</g>
<!-- Node24 -->
<g id="node24" class="node"><title>Node24</title>
<g id="a_node24"><a xlink:href="stm_8h.html#a7f41614dded09613f4ccd7578ef188ba" target="_top" xlink:title="new_stm_blk">
<polygon fill="none" stroke="black" points="1149,-76.5 1149,-95.5 1223,-95.5 1223,-76.5 1149,-76.5"/>
<text text-anchor="middle" x="1186" y="-83.5" font-family="Helvetica,sans-Serif" font-size="10.00">new_stm_blk</text>
</a>
</g>
</g>
<!-- Node22&#45;&gt;Node24 -->
<g id="edge29" class="edge"><title>Node22&#45;&gt;Node24</title>
<path fill="none" stroke="midnightblue" d="M357.761,-144.401C402.302,-125.657 507.471,-86 600,-86 600,-86 600,-86 896,-86 981.729,-86 1081.76,-86 1138.82,-86"/>
<polygon fill="midnightblue" stroke="midnightblue" points="1138.96,-89.5001 1148.96,-86 1138.96,-82.5001 1138.96,-89.5001"/>
</g>
<!-- Node28 -->
<g id="node28" class="node"><title>Node28</title>
<g id="a_node28"><a xlink:href="stm_8h.html#a2c77806bb0511fb17494d226b5ea20d8" target="_top" xlink:title="init_stm_blk">
<polygon fill="none" stroke="black" points="436.5,-0.5 436.5,-19.5 505.5,-19.5 505.5,-0.5 436.5,-0.5"/>
<text text-anchor="middle" x="471" y="-7.5" font-family="Helvetica,sans-Serif" font-size="10.00">init_stm_blk</text>
</a>
</g>
</g>
<!-- Node22&#45;&gt;Node28 -->
<g id="edge36" class="edge"><title>Node22&#45;&gt;Node28</title>
<path fill="none" stroke="midnightblue" d="M367.48,-144.335C372.117,-141.86 376.501,-138.791 380,-135 413.742,-98.436 381.011,-64.373 416,-29 419.232,-25.7321 423.059,-23.0248 427.161,-20.7822"/>
<polygon fill="midnightblue" stroke="midnightblue" points="428.785,-23.8891 436.453,-16.578 425.899,-17.5116 428.785,-23.8891"/>
</g>
<!-- Node29 -->
<g id="node29" class="node"><title>Node29</title>
<g id="a_node29"><a xlink:href="stmskip_8cc.html#ab6919257456cff4d47684cdfd3bc5a3c" target="_top" xlink:title="get_level">
<polygon fill="none" stroke="black" points="443,-163.5 443,-182.5 499,-182.5 499,-163.5 443,-163.5"/>
<text text-anchor="middle" x="471" y="-170.5" font-family="Helvetica,sans-Serif" font-size="10.00">get_level</text>
</a>
</g>
</g>
<!-- Node22&#45;&gt;Node29 -->
<g id="edge37" class="edge"><title>Node22&#45;&gt;Node29</title>
<path fill="none" stroke="midnightblue" d="M378.031,-159.96C395.574,-162.447 415.782,-165.312 432.78,-167.722"/>
<polygon fill="midnightblue" stroke="midnightblue" points="432.503,-171.218 442.896,-169.157 433.486,-164.288 432.503,-171.218"/>
</g>
<!-- Node30 -->
<g id="node30" class="node"><title>Node30</title>
<g id="a_node30"><a xlink:href="stm_8h.html#a00de1ad150378181157510e2e5982f75" target="_top" xlink:title="write_stm_blk">
<polygon fill="none" stroke="black" points="562.5,-212.5 562.5,-231.5 639.5,-231.5 639.5,-212.5 562.5,-212.5"/>
<text text-anchor="middle" x="601" y="-219.5" font-family="Helvetica,sans-Serif" font-size="10.00">write_stm_blk</text>
</a>
</g>
</g>
<!-- Node22&#45;&gt;Node30 -->
<g id="edge38" class="edge"><title>Node22&#45;&gt;Node30</title>
<path fill="none" stroke="midnightblue" d="M378.377,-145.447C417.988,-139.403 478.054,-135.316 526,-154 551.65,-163.996 573.793,-187.501 587.007,-204.066"/>
<polygon fill="midnightblue" stroke="midnightblue" points="584.543,-206.605 593.396,-212.425 590.104,-202.354 584.543,-206.605"/>
</g>
<!-- Node25 -->
<g id="node25" class="node"><title>Node25</title>
<g id="a_node25"><a xlink:href="gc_8c.html#a5c5981457deeeefd60df569f6265f59c" target="_top" xlink:title="fr_gc_alloc">
<polygon fill="none" stroke="black" points="1288,-114.5 1288,-133.5 1352,-133.5 1352,-114.5 1288,-114.5"/>
<text text-anchor="middle" x="1320" y="-121.5" font-family="Helvetica,sans-Serif" font-size="10.00">fr_gc_alloc</text>
</a>
</g>
</g>
<!-- Node24&#45;&gt;Node25 -->
<g id="edge30" class="edge"><title>Node24&#45;&gt;Node25</title>
<path fill="none" stroke="midnightblue" d="M1220.31,-95.589C1237.92,-100.658 1259.68,-106.923 1278.29,-112.279"/>
<polygon fill="midnightblue" stroke="midnightblue" points="1277.39,-115.664 1287.97,-115.067 1279.33,-108.937 1277.39,-115.664"/>
</g>
<!-- Node25&#45;&gt;Node17 -->
<g id="edge31" class="edge"><title>Node25&#45;&gt;Node17</title>
<path fill="none" stroke="midnightblue" d="M1352.12,-126.235C1437.7,-132.383 1677.72,-149.624 1790.3,-157.711"/>
<polygon fill="midnightblue" stroke="midnightblue" points="1790.23,-161.216 1800.46,-158.441 1790.73,-154.234 1790.23,-161.216"/>
</g>
<!-- Node26 -->
<g id="node26" class="node"><title>Node26</title>
<g id="a_node26"><a xlink:href="gc_8c.html#a6dffa65320ddab40d01f198433b3aeb6" target="_top" xlink:title="get_alloc_chunk">
<polygon fill="none" stroke="black" points="1404.5,-152.5 1404.5,-171.5 1491.5,-171.5 1491.5,-152.5 1404.5,-152.5"/>
<text text-anchor="middle" x="1448" y="-159.5" font-family="Helvetica,sans-Serif" font-size="10.00">get_alloc_chunk</text>
</a>
</g>
</g>
<!-- Node25&#45;&gt;Node26 -->
<g id="edge32" class="edge"><title>Node25&#45;&gt;Node26</title>
<path fill="none" stroke="midnightblue" d="M1352.15,-133.393C1368.23,-138.244 1388.07,-144.227 1405.44,-149.466"/>
<polygon fill="midnightblue" stroke="midnightblue" points="1404.75,-152.914 1415.34,-152.451 1406.77,-146.212 1404.75,-152.914"/>
</g>
<!-- Node26&#45;&gt;Node17 -->
<g id="edge35" class="edge"><title>Node26&#45;&gt;Node17</title>
<path fill="none" stroke="midnightblue" d="M1491.53,-162C1563.25,-162 1708.39,-162 1790.28,-162"/>
<polygon fill="midnightblue" stroke="midnightblue" points="1790.43,-165.5 1800.43,-162 1790.43,-158.5 1790.43,-165.5"/>
</g>
<!-- Node27 -->
<g id="node27" class="node"><title>Node27</title>
<g id="a_node27"><a xlink:href="gc_8c.html#ae47e099483bed50da4e41b906c300b99" target="_top" xlink:title="get_filled_chunks">
<polygon fill="none" stroke="black" points="1532,-190.5 1532,-209.5 1624,-209.5 1624,-190.5 1532,-190.5"/>
<text text-anchor="middle" x="1578" y="-197.5" font-family="Helvetica,sans-Serif" font-size="10.00">get_filled_chunks</text>
</a>
</g>
</g>
<!-- Node26&#45;&gt;Node27 -->
<g id="edge33" class="edge"><title>Node26&#45;&gt;Node27</title>
<path fill="none" stroke="midnightblue" d="M1481.3,-171.589C1497.52,-176.404 1517.38,-182.299 1534.79,-187.468"/>
<polygon fill="midnightblue" stroke="midnightblue" points="1534.13,-190.923 1544.71,-190.414 1536.12,-184.213 1534.13,-190.923"/>
</g>
<!-- Node27&#45;&gt;Node16 -->
<g id="edge34" class="edge"><title>Node27&#45;&gt;Node16</title>
<path fill="none" stroke="midnightblue" d="M1624.37,-200C1633.95,-200 1644.19,-200 1654.18,-200"/>
<polygon fill="midnightblue" stroke="midnightblue" points="1654.47,-203.5 1664.47,-200 1654.47,-196.5 1654.47,-203.5"/>
</g>
<!-- Node30&#45;&gt;Node7 -->
<g id="edge39" class="edge"><title>Node30&#45;&gt;Node7</title>
<path fill="none" stroke="midnightblue" d="M639.837,-217.551C680.628,-214.35 746.614,-213.872 798,-236 817.935,-244.585 816.183,-256.604 834,-269 898.778,-314.066 919.595,-318.619 992,-350 996.7,-352.037 1001.7,-354.036 1006.67,-355.928"/>
<polygon fill="midnightblue" stroke="midnightblue" points="1005.54,-359.239 1016.13,-359.414 1007.96,-352.671 1005.54,-359.239"/>
</g>
<!-- Node30&#45;&gt;Node8 -->
<g id="edge40" class="edge"><title>Node30&#45;&gt;Node8</title>
<path fill="none" stroke="midnightblue" d="M606.902,-231.645C617.116,-250.784 642.535,-293.718 676,-317 678.867,-318.995 681.954,-320.788 685.161,-322.398"/>
<polygon fill="midnightblue" stroke="midnightblue" points="683.87,-325.654 694.434,-326.469 686.684,-319.244 683.87,-325.654"/>
</g>
<!-- Node30&#45;&gt;Node9 -->
<g id="edge41" class="edge"><title>Node30&#45;&gt;Node9</title>
<path fill="none" stroke="midnightblue" d="M604.645,-231.653C611.832,-256.061 634.046,-320.735 676,-355 679.819,-358.119 684.155,-360.729 688.709,-362.912"/>
<polygon fill="midnightblue" stroke="midnightblue" points="687.683,-366.273 698.263,-366.82 690.333,-359.795 687.683,-366.273"/>
</g>
<!-- Node30&#45;&gt;Node20 -->
<g id="edge48" class="edge"><title>Node30&#45;&gt;Node20</title>
<path fill="none" stroke="midnightblue" d="M639.522,-230.696C688.426,-242.407 770.907,-263.557 798,-279 831.518,-298.106 862.59,-331.169 879.857,-351.461"/>
<polygon fill="midnightblue" stroke="midnightblue" points="877.292,-353.851 886.379,-359.298 882.673,-349.373 877.292,-353.851"/>
</g>
<!-- Node30&#45;&gt;Node21 -->
<g id="edge47" class="edge"><title>Node30&#45;&gt;Node21</title>
<path fill="none" stroke="midnightblue" d="M613.999,-231.755C628.185,-242.966 652.806,-261.434 676,-274 683.144,-277.871 691.048,-281.472 698.71,-284.647"/>
<polygon fill="midnightblue" stroke="midnightblue" points="697.625,-287.982 708.21,-288.428 700.213,-281.478 697.625,-287.982"/>
</g>
<!-- Node30&#45;&gt;Node25 -->
<g id="edge42" class="edge"><title>Node30&#45;&gt;Node25</title>
<path fill="none" stroke="midnightblue" d="M607.646,-212.342C618.415,-194.945 643.719,-158.693 676,-143 763.468,-100.478 796.744,-124 894,-124 894,-124 894,-124 1047,-124 1128.9,-124 1224.67,-124 1277.93,-124"/>
<polygon fill="midnightblue" stroke="midnightblue" points="1278,-127.5 1288,-124 1278,-120.5 1278,-127.5"/>
</g>
<!-- Node31 -->
<g id="node31" class="node"><title>Node31</title>
<g id="a_node31"><a xlink:href="namespaceanonymous__namespace_02libitm-5_813_0014_8cpp_03.html#a8b7be7cf3afef27c0623b844ce9116d8" target="_top" xlink:title="anonymous_namespace\l\{libitm&#45;5::13,14::cpp\}\l::memcpy">
<polygon fill="none" stroke="black" points="676,-152.5 676,-193.5 798,-193.5 798,-152.5 676,-152.5"/>
<text text-anchor="start" x="684" y="-181.5" font-family="Helvetica,sans-Serif" font-size="10.00">anonymous_namespace</text>
<text text-anchor="start" x="684" y="-170.5" font-family="Helvetica,sans-Serif" font-size="10.00">{libitm&#45;5::13,14::cpp}</text>
<text text-anchor="middle" x="737" y="-159.5" font-family="Helvetica,sans-Serif" font-size="10.00">::memcpy</text>
</a>
</g>
</g>
<!-- Node30&#45;&gt;Node31 -->
<g id="edge43" class="edge"><title>Node30&#45;&gt;Node31</title>
<path fill="none" stroke="midnightblue" d="M628.155,-212.436C640.213,-208.027 655.126,-202.573 669.975,-197.143"/>
<polygon fill="midnightblue" stroke="midnightblue" points="671.503,-200.311 679.693,-193.59 669.099,-193.737 671.503,-200.311"/>
</g>
<!-- Node32 -->
<g id="node32" class="node"><title>Node32</title>
<g id="a_node32"><a xlink:href="namespaceanonymous__namespace_02oreceager_8cpp_03.html#a7a88c7a7453bbfaca53eeac03b80a5d6" target="_top" xlink:title="anonymous_namespace\l\{oreceager::cpp\}::read">
<polygon fill="none" stroke="black" points="834,-191 834,-221 956,-221 956,-191 834,-191"/>
<text text-anchor="start" x="842" y="-209" font-family="Helvetica,sans-Serif" font-size="10.00">anonymous_namespace</text>
<text text-anchor="middle" x="895" y="-198" font-family="Helvetica,sans-Serif" font-size="10.00">{oreceager::cpp}::read</text>
</a>
</g>
</g>
<!-- Node31&#45;&gt;Node32 -->
<g id="edge44" class="edge"><title>Node31&#45;&gt;Node32</title>
<path fill="none" stroke="midnightblue" d="M798.314,-185.759C806.695,-187.532 815.363,-189.365 823.904,-191.172"/>
<polygon fill="midnightblue" stroke="midnightblue" points="823.339,-194.63 833.847,-193.275 824.788,-187.781 823.339,-194.63"/>
</g>
<!-- Node33 -->
<g id="node33" class="node"><title>Node33</title>
<g id="a_node33"><a xlink:href="namespaceitm2stm.html#a334b9615cac957b9ce7a4743beaaaf53" target="_top" xlink:title="itm2stm::add_bytes">
<polygon fill="none" stroke="black" points="843.5,-152.5 843.5,-171.5 946.5,-171.5 946.5,-152.5 843.5,-152.5"/>
<text text-anchor="middle" x="895" y="-159.5" font-family="Helvetica,sans-Serif" font-size="10.00">itm2stm::add_bytes</text>
</a>
</g>
</g>
<!-- Node31&#45;&gt;Node33 -->
<g id="edge45" class="edge"><title>Node31&#45;&gt;Node33</title>
<path fill="none" stroke="midnightblue" d="M798.314,-168.747C809.852,-167.933 821.936,-167.081 833.481,-166.267"/>
<polygon fill="midnightblue" stroke="midnightblue" points="833.732,-169.758 843.461,-165.564 833.239,-162.776 833.732,-169.758"/>
</g>
<!-- Node34 -->
<g id="node34" class="node"><title>Node34</title>
<g id="a_node34"><a xlink:href="namespaceitm2stm.html#aa9908b113027ae21130750939980ee0b" target="_top" xlink:title="itm2stm::offset_of">
<polygon fill="none" stroke="black" points="847,-240.5 847,-259.5 943,-259.5 943,-240.5 847,-240.5"/>
<text text-anchor="middle" x="895" y="-247.5" font-family="Helvetica,sans-Serif" font-size="10.00">itm2stm::offset_of</text>
</a>
</g>
</g>
<!-- Node31&#45;&gt;Node34 -->
<g id="edge46" class="edge"><title>Node31&#45;&gt;Node34</title>
<path fill="none" stroke="midnightblue" d="M773.605,-193.608C781.646,-198.308 790.131,-203.301 798,-208 814.099,-217.613 816.996,-222.096 834,-230 839.422,-232.52 845.252,-234.874 851.071,-237.016"/>
<polygon fill="midnightblue" stroke="midnightblue" points="850.185,-240.415 860.78,-240.417 852.499,-233.808 850.185,-240.415"/>
</g>
<!-- Node35&#45;&gt;Node5 -->
<g id="edge50" class="edge"><title>Node35&#45;&gt;Node5</title>
<path fill="none" stroke="midnightblue" d="M369.814,-220.589C387.033,-225.472 408.164,-231.464 426.573,-236.685"/>
<polygon fill="midnightblue" stroke="midnightblue" points="425.621,-240.053 436.197,-239.414 427.531,-233.319 425.621,-240.053"/>
</g>
<!-- Node35&#45;&gt;Node30 -->
<g id="edge51" class="edge"><title>Node35&#45;&gt;Node30</title>
<path fill="none" stroke="midnightblue" d="M379.594,-212.816C427.175,-214.799 503.119,-217.963 552.271,-220.011"/>
<polygon fill="midnightblue" stroke="midnightblue" points="552.196,-223.511 562.333,-220.431 552.487,-216.517 552.196,-223.511"/>
</g>
</g>
</svg>
        <g id="navigator" transform="translate(0 0)" fill="#404254">
                <rect fill="#f2f5e9" fill-opacity="0.5" stroke="#606060" stroke-width=".5" x="0" y="0" width="60" height="60"/>
                <use id="zoomplus" xlink:href="#zoomPlus" x="17" y="9" onmousedown="handleZoom(evt,'in')"/>
                <use id="zoomminus" xlink:href="#zoomMin" x="42" y="9" onmousedown="handleZoom(evt,'out')"/>
                <use id="reset" xlink:href="#resetDef" x="30" y="36" onmousedown="handleReset()"/>
                <g id="arrowUp" xlink:href="#dirArrow" transform="translate(30 24)" onmousedown="handlePan(0,-1)">
                  <use xlink:href="#rim" fill="#404040">
                        <set attributeName="fill" to="#808080" begin="arrowUp.mouseover" end="arrowUp.mouseout"/>
                  </use>
                  <path fill="none" stroke="white" stroke-width="1.5" d="M0,-3.0v7 M-2.5,-0.5L0,-3.0L2.5,-0.5"/>
                </g>
                <g id="arrowRight" xlink:href="#dirArrow" transform="rotate(90) translate(36 -43)" onmousedown="handlePan(1,0)">
                  <use xlink:href="#rim" fill="#404040">
                        <set attributeName="fill" to="#808080" begin="arrowRight.mouseover" end="arrowRight.mouseout"/>
                  </use>
                  <path fill="none" stroke="white" stroke-width="1.5" d="M0,-3.0v7 M-2.5,-0.5L0,-3.0L2.5,-0.5"/>
                </g>
                <g id="arrowDown" xlink:href="#dirArrow" transform="rotate(180) translate(-30 -48)" onmousedown="handlePan(0,1)">
                  <use xlink:href="#rim" fill="#404040">
                        <set attributeName="fill" to="#808080" begin="arrowDown.mouseover" end="arrowDown.mouseout"/>
                  </use>
                  <path fill="none" stroke="white" stroke-width="1.5" d="M0,-3.0v7 M-2.5,-0.5L0,-3.0L2.5,-0.5"/>
                </g>
                <g id="arrowLeft" xlink:href="#dirArrow" transform="rotate(270) translate(-36 17)" onmousedown="handlePan(-1,0)">
                  <use xlink:href="#rim" fill="#404040">
                        <set attributeName="fill" to="#808080" begin="arrowLeft.mouseover" end="arrowLeft.mouseout"/>
                  </use>
                  <path fill="none" stroke="white" stroke-width="1.5" d="M0,-3.0v7 M-2.5,-0.5L0,-3.0L2.5,-0.5"/>
                </g>
        </g>
        <svg viewBox="0 0 15 15" width="100%" height="30px" preserveAspectRatio="xMaxYMin meet">
         <g id="arrow_out" transform="scale(0.3 0.3)">
          <a xlink:href="list_8h_a0df36bca5d3d52f49147ca6fca13a375_cgraph_org.svg" target="_base">
           <rect id="button" ry="5" rx="5" y="6" x="6" height="38" width="38"
                fill="#f2f5e9" fill-opacity="0.5" stroke="#606060" stroke-width="1.0"/>
           <path id="arrow"
             d="M 11.500037,31.436501 C 11.940474,20.09759 22.043105,11.32322 32.158766,21.979434 L 37.068811,17.246167 C 37.068811,17.246167 37.088388,32 37.088388,32 L 22.160133,31.978069 C 22.160133,31.978069 26.997745,27.140456 26.997745,27.140456 C 18.528582,18.264221 13.291696,25.230495 11.500037,31.436501 z"
             style="fill:#404040;"/>
          </a>
         </g>
        </svg>
</svg>
