<?xml version="1.0" encoding="UTF-8" standalone="no"?>
<!DOCTYPE svg PUBLIC "-//W3C//DTD SVG 1.1//EN"
 "http://www.w3.org/Graphics/SVG/1.1/DTD/svg11.dtd">
<!-- Generated by graphviz version 2.36.0 (20140111.2315)
 -->
<!-- Title: list_alloc Pages: 1 -->
<!--zoomable 162 -->
<svg id="main" version="1.1" xmlns="http://www.w3.org/2000/svg" xmlns:xlink="http://www.w3.org/1999/xlink" xml:space="preserve" onload="init(evt)">
<style type="text/css"><![CDATA[
.edge:hover path { stroke: red; }
.edge:hover polygon { stroke: red; fill: red; }
]]></style>
<script type="text/javascript"><![CDATA[
var edges = document.getElementsByTagName('g');
if (edges && edges.length) {
  for (var i=0;i<edges.length;i++) {
    if (edges[i].id.substr(0,4)=='edge') {
      edges[i].setAttribute('class','edge');
    }
  }
}
]]></script>
        <defs>
                <circle id="rim" cx="0" cy="0" r="7"/>
                <circle id="rim2" cx="0" cy="0" r="3.5"/>
                <g id="zoomPlus">
                        <use xlink:href="#rim" fill="#404040">
                                <set attributeName="fill" to="#808080" begin="zoomplus.mouseover" end="zoomplus.mouseout"/>
                        </use>
                        <path d="M-4,0h8M0,-4v8" fill="none" stroke="white" stroke-width="1.5" pointer-events="none"/>
                </g>
                <g id="zoomMin">
                        <use xlink:href="#rim" fill="#404040">
                                <set attributeName="fill" to="#808080" begin="zoomminus.mouseover" end="zoomminus.mouseout"/>
                        </use>
                        <path d="M-4,0h8" fill="none" stroke="white" stroke-width="1.5" pointer-events="none"/>
                </g>
                <g id="dirArrow">
                        <path fill="none" stroke="white" stroke-width="1.5" d="M0,-3.0v7 M-2.5,-0.5L0,-3.0L2.5,-0.5"/>
                </g>
               <g id="resetDef">
                       <use xlink:href="#rim2" fill="#404040">
                               <set attributeName="fill" to="#808080" begin="reset.mouseover" end="reset.mouseout"/>
                       </use>
               </g>
        </defs>

<script type="text/javascript">
var viewWidth = 514;
var viewHeight = 162;
var sectionId = 'dynsection-7';
</script>
<script xlink:href="svgpan.js"/>
<svg id="graph" class="graph">
<g id="viewport">
<title>list_alloc</title>
<!-- Node1 -->
<g id="node1" class="node"><title>Node1</title>
<polygon fill="#bfbfbf" stroke="black" points="0.5,-76.5 0.5,-95.5 55.5,-95.5 55.5,-76.5 0.5,-76.5"/>
<text text-anchor="middle" x="28" y="-83.5" font-family="Helvetica,sans-Serif" font-size="10.00">list_alloc</text>
</g>
<!-- Node2 -->
<g id="node2" class="node"><title>Node2</title>
<g id="a_node2"><a xlink:href="table_8h.html#a2fc6637e05cc972581e5f4d0b9ae85af" target="_top" xlink:title="table_alloc">
<polygon fill="none" stroke="black" points="230.5,-128.5 230.5,-147.5 293.5,-147.5 293.5,-128.5 230.5,-128.5"/>
<text text-anchor="middle" x="262" y="-135.5" font-family="Helvetica,sans-Serif" font-size="10.00">table_alloc</text>
</a>
</g>
</g>
<!-- Node1&#45;&gt;Node2 -->
<g id="edge1" class="edge"><title>Node1&#45;&gt;Node2</title>
<path fill="none" stroke="midnightblue" d="M42.0551,-103.391C53.4996,-117.071 71.4834,-135.096 92,-143 137.606,-160.569 195.377,-153.17 230.197,-145.848"/>
<polygon fill="midnightblue" stroke="midnightblue" points="44.783,-101.198 35.8101,-95.5647 39.3113,-105.564 44.783,-101.198"/>
</g>
<!-- Node5 -->
<g id="node5" class="node"><title>Node5</title>
<g id="a_node5"><a xlink:href="decoder_8h.html#a92136c16eda5a24a0eb6c60b9f96244a" target="_top" xlink:title="decoder_process">
<polygon fill="none" stroke="black" points="92.5,-114.5 92.5,-133.5 183.5,-133.5 183.5,-114.5 92.5,-114.5"/>
<text text-anchor="middle" x="138" y="-121.5" font-family="Helvetica,sans-Serif" font-size="10.00">decoder_process</text>
</a>
</g>
</g>
<!-- Node1&#45;&gt;Node5 -->
<g id="edge4" class="edge"><title>Node1&#45;&gt;Node5</title>
<path fill="none" stroke="midnightblue" d="M65.3986,-98.8069C79.9409,-103.924 96.3953,-109.713 109.86,-114.451"/>
<polygon fill="midnightblue" stroke="midnightblue" points="66.2915,-95.4108 55.6966,-95.3933 63.9681,-102.014 66.2915,-95.4108"/>
</g>
<!-- Node6 -->
<g id="node6" class="node"><title>Node6</title>
<g id="a_node6"><a xlink:href="labyrinth_8c.html#a40c5c0b0d4eb7b59a91108269f69dc89" target="_top" xlink:title="MAIN">
<polygon fill="none" stroke="black" points="241,-66.5 241,-85.5 283,-85.5 283,-66.5 241,-66.5"/>
<text text-anchor="middle" x="262" y="-73.5" font-family="Helvetica,sans-Serif" font-size="10.00">MAIN</text>
</a>
</g>
</g>
<!-- Node1&#45;&gt;Node6 -->
<g id="edge5" class="edge"><title>Node1&#45;&gt;Node6</title>
<path fill="none" stroke="midnightblue" d="M65.8904,-84.4099C115.426,-82.2748 201.72,-78.5552 240.773,-76.8718"/>
<polygon fill="midnightblue" stroke="midnightblue" points="65.4533,-80.9254 55.6133,-84.8529 65.7548,-87.9189 65.4533,-80.9254"/>
</g>
<!-- Node7 -->
<g id="node7" class="node"><title>Node7</title>
<g id="a_node7"><a xlink:href="maze_8h.html#a2135cee3a633084c9456873cb7746e0e" target="_top" xlink:title="maze_read">
<polygon fill="none" stroke="black" points="105.5,-38.5 105.5,-57.5 170.5,-57.5 170.5,-38.5 105.5,-38.5"/>
<text text-anchor="middle" x="138" y="-45.5" font-family="Helvetica,sans-Serif" font-size="10.00">maze_read</text>
</a>
</g>
</g>
<!-- Node1&#45;&gt;Node7 -->
<g id="edge6" class="edge"><title>Node1&#45;&gt;Node7</title>
<path fill="none" stroke="midnightblue" d="M65.3986,-73.1931C79.9409,-68.0764 96.3953,-62.2868 109.86,-57.5491"/>
<polygon fill="midnightblue" stroke="midnightblue" points="63.9681,-69.986 55.6966,-76.6067 66.2915,-76.5892 63.9681,-69.986"/>
</g>
<!-- Node8 -->
<g id="node8" class="node"><title>Node8</title>
<g id="a_node8"><a xlink:href="hashtable_8c.html#a45593e850734e8054df44299e0d7826c" target="_top" xlink:title="allocBuckets">
<polygon fill="none" stroke="black" points="101.5,-0.5 101.5,-19.5 174.5,-19.5 174.5,-0.5 101.5,-0.5"/>
<text text-anchor="middle" x="138" y="-7.5" font-family="Helvetica,sans-Serif" font-size="10.00">allocBuckets</text>
</a>
</g>
</g>
<!-- Node1&#45;&gt;Node8 -->
<g id="edge8" class="edge"><title>Node1&#45;&gt;Node8</title>
<path fill="none" stroke="midnightblue" d="M44.6591,-69.0449C56.7057,-56.733 74.2468,-40.3161 92,-29 97.5779,-25.4446 103.934,-22.2919 110.077,-19.6266"/>
<polygon fill="midnightblue" stroke="midnightblue" points="41.9645,-66.7988 37.5891,-76.448 47.0268,-71.6333 41.9645,-66.7988"/>
</g>
<!-- Node3 -->
<g id="node3" class="node"><title>Node3</title>
<g id="a_node3"><a xlink:href="sequencer_8h.html#ac075f78fc01ff6ba3a740957341bf254" target="_top" xlink:title="sequencer_alloc">
<polygon fill="none" stroke="black" points="340.5,-73.5 340.5,-92.5 427.5,-92.5 427.5,-73.5 340.5,-73.5"/>
<text text-anchor="middle" x="384" y="-80.5" font-family="Helvetica,sans-Serif" font-size="10.00">sequencer_alloc</text>
</a>
</g>
</g>
<!-- Node2&#45;&gt;Node3 -->
<g id="edge2" class="edge"><title>Node2&#45;&gt;Node3</title>
<path fill="none" stroke="midnightblue" d="M293.218,-124.15C314.659,-114.323 342.898,-101.38 361.934,-92.655"/>
<polygon fill="midnightblue" stroke="midnightblue" points="291.535,-121.071 283.902,-128.42 294.451,-127.435 291.535,-121.071"/>
</g>
<!-- Node4 -->
<g id="node4" class="node"><title>Node4</title>
<g id="a_node4"><a xlink:href="genome_8c.html#a40c5c0b0d4eb7b59a91108269f69dc89" target="_top" xlink:title="MAIN">
<polygon fill="none" stroke="black" points="464,-73.5 464,-92.5 506,-92.5 506,-73.5 464,-73.5"/>
<text text-anchor="middle" x="485" y="-80.5" font-family="Helvetica,sans-Serif" font-size="10.00">MAIN</text>
</a>
</g>
</g>
<!-- Node3&#45;&gt;Node4 -->
<g id="edge3" class="edge"><title>Node3&#45;&gt;Node4</title>
<path fill="none" stroke="midnightblue" d="M437.649,-83C446.951,-83 456.104,-83 463.787,-83"/>
<polygon fill="midnightblue" stroke="midnightblue" points="437.559,-79.5001 427.559,-83 437.559,-86.5001 437.559,-79.5001"/>
</g>
<!-- Node7&#45;&gt;Node6 -->
<g id="edge7" class="edge"><title>Node7&#45;&gt;Node6</title>
<path fill="none" stroke="midnightblue" d="M180.721,-57.5754C201.06,-62.2433 224.586,-67.6427 240.889,-71.3845"/>
<polygon fill="midnightblue" stroke="midnightblue" points="181.265,-54.1093 170.736,-55.2836 179.699,-60.9319 181.265,-54.1093"/>
</g>
<!-- Node9 -->
<g id="node9" class="node"><title>Node9</title>
<g id="a_node9"><a xlink:href="hashtable_8h.html#aea4bab05eb6f8a5ceb5692278bb9a4e8" target="_top" xlink:title="hashtable_alloc">
<polygon fill="none" stroke="black" points="220,-19.5 220,-38.5 304,-38.5 304,-19.5 220,-19.5"/>
<text text-anchor="middle" x="262" y="-26.5" font-family="Helvetica,sans-Serif" font-size="10.00">hashtable_alloc</text>
</a>
</g>
</g>
<!-- Node8&#45;&gt;Node9 -->
<g id="edge9" class="edge"><title>Node8&#45;&gt;Node9</title>
<path fill="none" stroke="midnightblue" d="M184.57,-17.0969C196.184,-18.9057 208.597,-20.8388 219.969,-22.6099"/>
<polygon fill="midnightblue" stroke="midnightblue" points="185.035,-13.6273 174.615,-15.5467 183.958,-20.5439 185.035,-13.6273"/>
</g>
<!-- Node9&#45;&gt;Node3 -->
<g id="edge10" class="edge"><title>Node9&#45;&gt;Node3</title>
<path fill="none" stroke="midnightblue" d="M293.441,-42.6987C314.741,-52.2834 342.665,-64.8493 361.631,-73.3838"/>
<polygon fill="midnightblue" stroke="midnightblue" points="294.733,-39.4418 284.177,-38.5298 291.86,-45.8252 294.733,-39.4418"/>
</g>
</g>
</svg>
        <g id="navigator" transform="translate(0 0)" fill="#404254">
                <rect fill="#f2f5e9" fill-opacity="0.5" stroke="#606060" stroke-width=".5" x="0" y="0" width="60" height="60"/>
                <use id="zoomplus" xlink:href="#zoomPlus" x="17" y="9" onmousedown="handleZoom(evt,'in')"/>
                <use id="zoomminus" xlink:href="#zoomMin" x="42" y="9" onmousedown="handleZoom(evt,'out')"/>
                <use id="reset" xlink:href="#resetDef" x="30" y="36" onmousedown="handleReset()"/>
                <g id="arrowUp" xlink:href="#dirArrow" transform="translate(30 24)" onmousedown="handlePan(0,-1)">
                  <use xlink:href="#rim" fill="#404040">
                        <set attributeName="fill" to="#808080" begin="arrowUp.mouseover" end="arrowUp.mouseout"/>
                  </use>
                  <path fill="none" stroke="white" stroke-width="1.5" d="M0,-3.0v7 M-2.5,-0.5L0,-3.0L2.5,-0.5"/>
                </g>
                <g id="arrowRight" xlink:href="#dirArrow" transform="rotate(90) translate(36 -43)" onmousedown="handlePan(1,0)">
                  <use xlink:href="#rim" fill="#404040">
                        <set attributeName="fill" to="#808080" begin="arrowRight.mouseover" end="arrowRight.mouseout"/>
                  </use>
                  <path fill="none" stroke="white" stroke-width="1.5" d="M0,-3.0v7 M-2.5,-0.5L0,-3.0L2.5,-0.5"/>
                </g>
                <g id="arrowDown" xlink:href="#dirArrow" transform="rotate(180) translate(-30 -48)" onmousedown="handlePan(0,1)">
                  <use xlink:href="#rim" fill="#404040">
                        <set attributeName="fill" to="#808080" begin="arrowDown.mouseover" end="arrowDown.mouseout"/>
                  </use>
                  <path fill="none" stroke="white" stroke-width="1.5" d="M0,-3.0v7 M-2.5,-0.5L0,-3.0L2.5,-0.5"/>
                </g>
                <g id="arrowLeft" xlink:href="#dirArrow" transform="rotate(270) translate(-36 17)" onmousedown="handlePan(-1,0)">
                  <use xlink:href="#rim" fill="#404040">
                        <set attributeName="fill" to="#808080" begin="arrowLeft.mouseover" end="arrowLeft.mouseout"/>
                  </use>
                  <path fill="none" stroke="white" stroke-width="1.5" d="M0,-3.0v7 M-2.5,-0.5L0,-3.0L2.5,-0.5"/>
                </g>
        </g>
        <svg viewBox="0 0 15 15" width="100%" height="30px" preserveAspectRatio="xMaxYMin meet">
         <g id="arrow_out" transform="scale(0.3 0.3)">
          <a xlink:href="list_8c_afb48e81a34dc4cb5c37fd445b128df68_icgraph_org.svg" target="_base">
           <rect id="button" ry="5" rx="5" y="6" x="6" height="38" width="38"
                fill="#f2f5e9" fill-opacity="0.5" stroke="#606060" stroke-width="1.0"/>
           <path id="arrow"
             d="M 11.500037,31.436501 C 11.940474,20.09759 22.043105,11.32322 32.158766,21.979434 L 37.068811,17.246167 C 37.068811,17.246167 37.088388,32 37.088388,32 L 22.160133,31.978069 C 22.160133,31.978069 26.997745,27.140456 26.997745,27.140456 C 18.528582,18.264221 13.291696,25.230495 11.500037,31.436501 z"
             style="fill:#404040;"/>
          </a>
         </g>
        </svg>
</svg>
