<?xml version="1.0" encoding="UTF-8" standalone="no"?>
<!DOCTYPE svg PUBLIC "-//W3C//DTD SVG 1.1//EN"
 "http://www.w3.org/Graphics/SVG/1.1/DTD/svg11.dtd">
<!-- Generated by graphviz version 2.36.0 (20140111.2315)
 -->
<!-- Title: PfreeList Pages: 1 -->
<!--zoomable 247 -->
<svg id="main" version="1.1" xmlns="http://www.w3.org/2000/svg" xmlns:xlink="http://www.w3.org/1999/xlink" xml:space="preserve" onload="init(evt)">
<style type="text/css"><![CDATA[
.edge:hover path { stroke: red; }
.edge:hover polygon { stroke: red; fill: red; }
]]></style>
<script type="text/javascript"><![CDATA[
var edges = document.getElementsByTagName('g');
if (edges && edges.length) {
  for (var i=0;i<edges.length;i++) {
    if (edges[i].id.substr(0,4)=='edge') {
      edges[i].setAttribute('class','edge');
    }
  }
}
]]></script>
        <defs>
                <circle id="rim" cx="0" cy="0" r="7"/>
                <circle id="rim2" cx="0" cy="0" r="3.5"/>
                <g id="zoomPlus">
                        <use xlink:href="#rim" fill="#404040">
                                <set attributeName="fill" to="#808080" begin="zoomplus.mouseover" end="zoomplus.mouseout"/>
                        </use>
                        <path d="M-4,0h8M0,-4v8" fill="none" stroke="white" stroke-width="1.5" pointer-events="none"/>
                </g>
                <g id="zoomMin">
                        <use xlink:href="#rim" fill="#404040">
                                <set attributeName="fill" to="#808080" begin="zoomminus.mouseover" end="zoomminus.mouseout"/>
                        </use>
                        <path d="M-4,0h8" fill="none" stroke="white" stroke-width="1.5" pointer-events="none"/>
                </g>
                <g id="dirArrow">
                        <path fill="none" stroke="white" stroke-width="1.5" d="M0,-3.0v7 M-2.5,-0.5L0,-3.0L2.5,-0.5"/>
                </g>
               <g id="resetDef">
                       <use xlink:href="#rim2" fill="#404040">
                               <set attributeName="fill" to="#808080" begin="reset.mouseover" end="reset.mouseout"/>
                       </use>
               </g>
        </defs>

<script type="text/javascript">
var viewWidth = 866;
var viewHeight = 247;
var sectionId = 'dynsection-23';
</script>
<script xlink:href="svgpan.js"/>
<svg id="graph" class="graph">
<g id="viewport">
<title>PfreeList</title>
<!-- Node1 -->
<g id="node1" class="node"><title>Node1</title>
<polygon fill="#bfbfbf" stroke="black" points="0,-94.6569 0,-113.657 56,-113.657 56,-94.6569 0,-94.6569"/>
<text text-anchor="middle" x="28" y="-101.657" font-family="Helvetica,sans-Serif" font-size="10.00">PfreeList</text>
</g>
<!-- Node2 -->
<g id="node2" class="node"><title>Node2</title>
<g id="a_node2"><a xlink:href="list_8h.html#aeeb44928a75497916888d4f858d43e14" target="_top" xlink:title="Plist_free">
<polygon fill="none" stroke="black" points="94,-113.657 94,-132.657 152,-132.657 152,-113.657 94,-113.657"/>
<text text-anchor="middle" x="123" y="-120.657" font-family="Helvetica,sans-Serif" font-size="10.00">Plist_free</text>
</a>
</g>
</g>
<!-- Node1&#45;&gt;Node2 -->
<g id="edge1" class="edge"><title>Node1&#45;&gt;Node2</title>
<path fill="none" stroke="midnightblue" d="M66.4347,-111.805C75.5758,-113.672 85.2032,-115.639 93.8288,-117.402"/>
<polygon fill="midnightblue" stroke="midnightblue" points="66.8983,-108.327 56.4001,-109.755 65.4971,-115.186 66.8983,-108.327"/>
</g>
<!-- Node14 -->
<g id="node14" class="node"><title>Node14</title>
<g id="a_node14"><a xlink:href="list_8h.html#a4ea0ab7dd309987a04b05cb033eb6cf6" target="_top" xlink:title="Plist_clear">
<polygon fill="none" stroke="black" points="92,-75.6569 92,-94.6569 154,-94.6569 154,-75.6569 92,-75.6569"/>
<text text-anchor="middle" x="123" y="-82.6569" font-family="Helvetica,sans-Serif" font-size="10.00">Plist_clear</text>
</a>
</g>
</g>
<!-- Node1&#45;&gt;Node14 -->
<g id="edge21" class="edge"><title>Node1&#45;&gt;Node14</title>
<path fill="none" stroke="midnightblue" d="M66.4294,-96.5101C74.8858,-94.7824 83.7587,-92.9697 91.8698,-91.3125"/>
<polygon fill="midnightblue" stroke="midnightblue" points="65.4971,-93.1281 56.4001,-98.5591 66.8983,-99.9865 65.4971,-93.1281"/>
</g>
<!-- Node3 -->
<g id="node3" class="node"><title>Node3</title>
<g id="a_node3"><a xlink:href="net_8c.html#a9b09a09bba447345436e63f1ecc582f6" target="_top" xlink:title="freeNode">
<polygon fill="none" stroke="black" points="190,-113.657 190,-132.657 246,-132.657 246,-113.657 190,-113.657"/>
<text text-anchor="middle" x="218" y="-120.657" font-family="Helvetica,sans-Serif" font-size="10.00">freeNode</text>
</a>
</g>
</g>
<!-- Node2&#45;&gt;Node3 -->
<g id="edge2" class="edge"><title>Node2&#45;&gt;Node3</title>
<path fill="none" stroke="midnightblue" d="M162.331,-123.157C171.584,-123.157 181.282,-123.157 189.897,-123.157"/>
<polygon fill="midnightblue" stroke="midnightblue" points="162.155,-119.657 152.155,-123.157 162.155,-126.657 162.155,-119.657"/>
</g>
<!-- Node4 -->
<g id="node4" class="node"><title>Node4</title>
<g id="a_node4"><a xlink:href="net_8h.html#a0e1584818d0f7bb3619e74222bc3f918" target="_top" xlink:title="net_alloc">
<polygon fill="none" stroke="black" points="282,-151.657 282,-170.657 338,-170.657 338,-151.657 282,-151.657"/>
<text text-anchor="middle" x="310" y="-158.657" font-family="Helvetica,sans-Serif" font-size="10.00">net_alloc</text>
</a>
</g>
</g>
<!-- Node3&#45;&gt;Node4 -->
<g id="edge3" class="edge"><title>Node3&#45;&gt;Node4</title>
<path fill="none" stroke="midnightblue" d="M251.113,-136.716C262.748,-141.628 275.639,-147.071 286.296,-151.571"/>
<polygon fill="midnightblue" stroke="midnightblue" points="252.285,-133.411 241.711,-132.746 249.562,-139.86 252.285,-133.411"/>
</g>
<!-- Node12 -->
<g id="node12" class="node"><title>Node12</title>
<g id="a_node12"><a xlink:href="net_8h.html#abdc957330d97273b46714332ba2619b0" target="_top" xlink:title="net_free">
<polygon fill="none" stroke="black" points="284,-56.6569 284,-75.6569 336,-75.6569 336,-56.6569 284,-56.6569"/>
<text text-anchor="middle" x="310" y="-63.6569" font-family="Helvetica,sans-Serif" font-size="10.00">net_free</text>
</a>
</g>
</g>
<!-- Node3&#45;&gt;Node12 -->
<g id="edge16" class="edge"><title>Node3&#45;&gt;Node12</title>
<path fill="none" stroke="midnightblue" d="M242.717,-108.136C258.95,-97.8551 279.985,-84.5331 293.958,-75.6834"/>
<polygon fill="midnightblue" stroke="midnightblue" points="240.843,-105.18 234.267,-113.488 244.588,-111.094 240.843,-105.18"/>
</g>
<!-- Node5 -->
<g id="node5" class="node"><title>Node5</title>
<g id="a_node5"><a xlink:href="data_8h.html#a0f45b98c6cac17904d9daf25fbdc1dc9" target="_top" xlink:title="data_generate">
<polygon fill="none" stroke="black" points="482,-218.657 482,-237.657 560,-237.657 560,-218.657 482,-218.657"/>
<text text-anchor="middle" x="521" y="-225.657" font-family="Helvetica,sans-Serif" font-size="10.00">data_generate</text>
</a>
</g>
</g>
<!-- Node4&#45;&gt;Node5 -->
<g id="edge4" class="edge"><title>Node4&#45;&gt;Node5</title>
<path fill="none" stroke="midnightblue" d="M348.101,-173.05C388.684,-186.06 452.922,-206.653 490.309,-218.639"/>
<polygon fill="midnightblue" stroke="midnightblue" points="348.914,-169.636 338.323,-169.916 346.777,-176.302 348.914,-169.636"/>
</g>
<!-- Node7 -->
<g id="node7" class="node"><title>Node7</title>
<g id="a_node7"><a xlink:href="learner_8h.html#aea1955f8471f02d66c6a39136d621f5b" target="_top" xlink:title="learner_alloc">
<polygon fill="none" stroke="black" points="374.5,-151.657 374.5,-170.657 445.5,-170.657 445.5,-151.657 374.5,-151.657"/>
<text text-anchor="middle" x="410" y="-158.657" font-family="Helvetica,sans-Serif" font-size="10.00">learner_alloc</text>
</a>
</g>
</g>
<!-- Node4&#45;&gt;Node7 -->
<g id="edge6" class="edge"><title>Node4&#45;&gt;Node7</title>
<path fill="none" stroke="midnightblue" d="M348.175,-161.157C356.757,-161.157 365.854,-161.157 374.325,-161.157"/>
<polygon fill="midnightblue" stroke="midnightblue" points="348.038,-157.657 338.038,-161.157 348.038,-164.657 348.038,-157.657"/>
</g>
<!-- Node6 -->
<g id="node6" class="node"><title>Node6</title>
<g id="a_node6"><a xlink:href="bayes_8c.html#a40c5c0b0d4eb7b59a91108269f69dc89" target="_top" xlink:title="MAIN">
<polygon fill="none" stroke="black" points="816,-104.657 816,-123.657 858,-123.657 858,-104.657 816,-104.657"/>
<text text-anchor="middle" x="837" y="-111.657" font-family="Helvetica,sans-Serif" font-size="10.00">MAIN</text>
</a>
</g>
</g>
<!-- Node5&#45;&gt;Node6 -->
<g id="edge5" class="edge"><title>Node5&#45;&gt;Node6</title>
<path fill="none" stroke="midnightblue" d="M570.474,-235.766C625.53,-241.823 716.006,-243.699 780,-204.157 810.528,-185.294 827.04,-142.948 833.176,-123.839"/>
<polygon fill="midnightblue" stroke="midnightblue" points="570.631,-232.26 560.287,-234.553 569.803,-239.211 570.631,-232.26"/>
</g>
<!-- Node7&#45;&gt;Node6 -->
<g id="edge15" class="edge"><title>Node7&#45;&gt;Node6</title>
<path fill="none" stroke="midnightblue" d="M455.792,-166.869C508.954,-172.716 600.203,-179.819 678,-171.157 724.186,-166.014 736.908,-165.555 780,-148.157 795.609,-141.855 811.887,-131.476 822.843,-123.84"/>
<polygon fill="midnightblue" stroke="midnightblue" points="456.014,-163.371 445.683,-165.721 455.224,-170.327 456.014,-163.371"/>
</g>
<!-- Node8 -->
<g id="node8" class="node"><title>Node8</title>
<g id="a_node8"><a xlink:href="bayes_8c.html#aa39a74293929705f5dfd47a76641d12a" target="_top" xlink:title="score">
<polygon fill="none" stroke="black" points="500.5,-113.657 500.5,-132.657 541.5,-132.657 541.5,-113.657 500.5,-113.657"/>
<text text-anchor="middle" x="521" y="-120.657" font-family="Helvetica,sans-Serif" font-size="10.00">score</text>
</a>
</g>
</g>
<!-- Node7&#45;&gt;Node8 -->
<g id="edge7" class="edge"><title>Node7&#45;&gt;Node8</title>
<path fill="none" stroke="midnightblue" d="M448.429,-148.108C465.901,-142.017 485.977,-135.018 500.411,-129.986"/>
<polygon fill="midnightblue" stroke="midnightblue" points="446.796,-144.971 438.505,-151.568 449.1,-151.581 446.796,-144.971"/>
</g>
<!-- Node8&#45;&gt;Node6 -->
<g id="edge8" class="edge"><title>Node8&#45;&gt;Node6</title>
<path fill="none" stroke="midnightblue" d="M551.78,-122.303C615.229,-120.485 762.317,-116.269 815.961,-114.731"/>
<polygon fill="midnightblue" stroke="midnightblue" points="551.538,-118.809 541.642,-122.594 551.738,-125.806 551.538,-118.809"/>
</g>
<!-- Node9 -->
<g id="node9" class="node"><title>Node9</title>
<g id="a_node9"><a xlink:href="learner_8c.html#a5a45fbc491ab273140631145a6e82e54" target="_top" xlink:title="createTaskList">
<polygon fill="none" stroke="black" points="596.5,-66.6569 596.5,-85.6569 677.5,-85.6569 677.5,-66.6569 596.5,-66.6569"/>
<text text-anchor="middle" x="637" y="-73.6569" font-family="Helvetica,sans-Serif" font-size="10.00">createTaskList</text>
</a>
</g>
</g>
<!-- Node8&#45;&gt;Node9 -->
<g id="edge9" class="edge"><title>Node8&#45;&gt;Node9</title>
<path fill="none" stroke="midnightblue" d="M551.027,-111.19C570.161,-103.301 594.887,-93.1072 612.727,-85.7518"/>
<polygon fill="midnightblue" stroke="midnightblue" points="549.508,-108.03 541.597,-115.077 552.176,-114.501 549.508,-108.03"/>
</g>
<!-- Node11 -->
<g id="node11" class="node"><title>Node11</title>
<g id="a_node11"><a xlink:href="learner_8h.html#a643517a90c64064dfb94cb9cb8d6eddf" target="_top" xlink:title="learner_score">
<polygon fill="none" stroke="black" points="599.5,-142.657 599.5,-161.657 674.5,-161.657 674.5,-142.657 599.5,-142.657"/>
<text text-anchor="middle" x="637" y="-149.657" font-family="Helvetica,sans-Serif" font-size="10.00">learner_score</text>
</a>
</g>
</g>
<!-- Node8&#45;&gt;Node11 -->
<g id="edge12" class="edge"><title>Node8&#45;&gt;Node11</title>
<path fill="none" stroke="midnightblue" d="M551.646,-124.693C572.734,-128.814 600.369,-136.158 618.157,-142.552"/>
<polygon fill="midnightblue" stroke="midnightblue" points="552.057,-121.211 541.597,-122.9 550.827,-128.102 552.057,-121.211"/>
</g>
<!-- Node10 -->
<g id="node10" class="node"><title>Node10</title>
<g id="a_node10"><a xlink:href="learner_8h.html#a23d451d4d355a14fa7c9735304ba4d95" target="_top" xlink:title="learner_run">
<polygon fill="none" stroke="black" points="714.5,-66.6569 714.5,-85.6569 779.5,-85.6569 779.5,-66.6569 714.5,-66.6569"/>
<text text-anchor="middle" x="747" y="-73.6569" font-family="Helvetica,sans-Serif" font-size="10.00">learner_run</text>
</a>
</g>
</g>
<!-- Node9&#45;&gt;Node10 -->
<g id="edge10" class="edge"><title>Node9&#45;&gt;Node10</title>
<path fill="none" stroke="midnightblue" d="M687.656,-76.1569C696.67,-76.1569 705.846,-76.1569 714.171,-76.1569"/>
<polygon fill="midnightblue" stroke="midnightblue" points="687.602,-72.657 677.602,-76.1569 687.602,-79.657 687.602,-72.657"/>
</g>
<!-- Node10&#45;&gt;Node6 -->
<g id="edge11" class="edge"><title>Node10&#45;&gt;Node6</title>
<path fill="none" stroke="midnightblue" d="M779.55,-89.7809C791.666,-95.0128 805.155,-100.837 815.908,-105.481"/>
<polygon fill="midnightblue" stroke="midnightblue" points="780.774,-86.4971 770.206,-85.7459 777.999,-92.9236 780.774,-86.4971"/>
</g>
<!-- Node11&#45;&gt;Node6 -->
<g id="edge14" class="edge"><title>Node11&#45;&gt;Node6</title>
<path fill="none" stroke="midnightblue" d="M684.848,-145.175C712.61,-140.805 748.426,-134.762 780,-128.157 791.967,-125.654 805.246,-122.357 815.869,-119.591"/>
<polygon fill="midnightblue" stroke="midnightblue" points="683.97,-141.769 674.628,-146.766 685.047,-148.686 683.97,-141.769"/>
</g>
<!-- Node11&#45;&gt;Node8 -->
<g id="edge13" class="edge"><title>Node11&#45;&gt;Node8</title>
<path fill="none" stroke="midnightblue" d="M589.384,-146.948C571.919,-142.847 553.109,-137.533 539.812,-132.751"/>
<polygon fill="midnightblue" stroke="midnightblue" points="588.936,-150.434 599.459,-149.209 590.468,-143.604 588.936,-150.434"/>
</g>
<!-- Node12&#45;&gt;Node6 -->
<g id="edge17" class="edge"><title>Node12&#45;&gt;Node6</title>
<path fill="none" stroke="midnightblue" d="M337.665,-51.9349C376.59,-32.5347 451.773,-0.156916 520,-0.156916 520,-0.156916 520,-0.156916 638,-0.156916 702.895,-0.156916 726.35,2.35374 780,-34.1569 806.63,-52.2796 824.578,-87.5688 832.063,-104.56"/>
<polygon fill="midnightblue" stroke="midnightblue" points="335.902,-48.9052 328.577,-56.5599 339.076,-55.1439 335.902,-48.9052"/>
</g>
<!-- Node13 -->
<g id="node13" class="node"><title>Node13</title>
<g id="a_node13"><a xlink:href="learner_8h.html#abf2edbd2546d2d60274a331e41eb5147" target="_top" xlink:title="learner_free">
<polygon fill="none" stroke="black" points="376,-56.6569 376,-75.6569 444,-75.6569 444,-56.6569 376,-56.6569"/>
<text text-anchor="middle" x="410" y="-63.6569" font-family="Helvetica,sans-Serif" font-size="10.00">learner_free</text>
</a>
</g>
</g>
<!-- Node12&#45;&gt;Node13 -->
<g id="edge18" class="edge"><title>Node12&#45;&gt;Node13</title>
<path fill="none" stroke="midnightblue" d="M346.274,-66.1569C355.871,-66.1569 366.232,-66.1569 375.715,-66.1569"/>
<polygon fill="midnightblue" stroke="midnightblue" points="346.237,-62.657 336.237,-66.1569 346.237,-69.657 346.237,-62.657"/>
</g>
<!-- Node13&#45;&gt;Node6 -->
<g id="edge20" class="edge"><title>Node13&#45;&gt;Node6</title>
<path fill="none" stroke="midnightblue" d="M454.187,-54.1262C525.316,-36.6586 670.167,-11.0923 780,-57.1569 803.027,-66.8148 821.358,-91.0712 830.212,-104.622"/>
<polygon fill="midnightblue" stroke="midnightblue" points="453.081,-50.7956 444.24,-56.6352 454.793,-57.583 453.081,-50.7956"/>
</g>
<!-- Node13&#45;&gt;Node8 -->
<g id="edge19" class="edge"><title>Node13&#45;&gt;Node8</title>
<path fill="none" stroke="midnightblue" d="M438.368,-80.4685C458.2,-90.8396 484.468,-104.576 501.783,-113.63"/>
<polygon fill="midnightblue" stroke="midnightblue" points="439.974,-77.3587 429.49,-75.8262 436.73,-83.5618 439.974,-77.3587"/>
</g>
</g>
</svg>
        <g id="navigator" transform="translate(0 0)" fill="#404254">
                <rect fill="#f2f5e9" fill-opacity="0.5" stroke="#606060" stroke-width=".5" x="0" y="0" width="60" height="60"/>
                <use id="zoomplus" xlink:href="#zoomPlus" x="17" y="9" onmousedown="handleZoom(evt,'in')"/>
                <use id="zoomminus" xlink:href="#zoomMin" x="42" y="9" onmousedown="handleZoom(evt,'out')"/>
                <use id="reset" xlink:href="#resetDef" x="30" y="36" onmousedown="handleReset()"/>
                <g id="arrowUp" xlink:href="#dirArrow" transform="translate(30 24)" onmousedown="handlePan(0,-1)">
                  <use xlink:href="#rim" fill="#404040">
                        <set attributeName="fill" to="#808080" begin="arrowUp.mouseover" end="arrowUp.mouseout"/>
                  </use>
                  <path fill="none" stroke="white" stroke-width="1.5" d="M0,-3.0v7 M-2.5,-0.5L0,-3.0L2.5,-0.5"/>
                </g>
                <g id="arrowRight" xlink:href="#dirArrow" transform="rotate(90) translate(36 -43)" onmousedown="handlePan(1,0)">
                  <use xlink:href="#rim" fill="#404040">
                        <set attributeName="fill" to="#808080" begin="arrowRight.mouseover" end="arrowRight.mouseout"/>
                  </use>
                  <path fill="none" stroke="white" stroke-width="1.5" d="M0,-3.0v7 M-2.5,-0.5L0,-3.0L2.5,-0.5"/>
                </g>
                <g id="arrowDown" xlink:href="#dirArrow" transform="rotate(180) translate(-30 -48)" onmousedown="handlePan(0,1)">
                  <use xlink:href="#rim" fill="#404040">
                        <set attributeName="fill" to="#808080" begin="arrowDown.mouseover" end="arrowDown.mouseout"/>
                  </use>
                  <path fill="none" stroke="white" stroke-width="1.5" d="M0,-3.0v7 M-2.5,-0.5L0,-3.0L2.5,-0.5"/>
                </g>
                <g id="arrowLeft" xlink:href="#dirArrow" transform="rotate(270) translate(-36 17)" onmousedown="handlePan(-1,0)">
                  <use xlink:href="#rim" fill="#404040">
                        <set attributeName="fill" to="#808080" begin="arrowLeft.mouseover" end="arrowLeft.mouseout"/>
                  </use>
                  <path fill="none" stroke="white" stroke-width="1.5" d="M0,-3.0v7 M-2.5,-0.5L0,-3.0L2.5,-0.5"/>
                </g>
        </g>
        <svg viewBox="0 0 15 15" width="100%" height="30px" preserveAspectRatio="xMaxYMin meet">
         <g id="arrow_out" transform="scale(0.3 0.3)">
          <a xlink:href="list_8c_a6b1a80c1e3dd7162630ac048d37c4c2c_icgraph_org.svg" target="_base">
           <rect id="button" ry="5" rx="5" y="6" x="6" height="38" width="38"
                fill="#f2f5e9" fill-opacity="0.5" stroke="#606060" stroke-width="1.0"/>
           <path id="arrow"
             d="M 11.500037,31.436501 C 11.940474,20.09759 22.043105,11.32322 32.158766,21.979434 L 37.068811,17.246167 C 37.068811,17.246167 37.088388,32 37.088388,32 L 22.160133,31.978069 C 22.160133,31.978069 26.997745,27.140456 26.997745,27.140456 C 18.528582,18.264221 13.291696,25.230495 11.500037,31.436501 z"
             style="fill:#404040;"/>
          </a>
         </g>
        </svg>
</svg>
