<?xml version="1.0" encoding="UTF-8" standalone="no"?>
<!DOCTYPE svg PUBLIC "-//W3C//DTD SVG 1.1//EN"
 "http://www.w3.org/Graphics/SVG/1.1/DTD/svg11.dtd">
<!-- Generated by graphviz version 2.36.0 (20140111.2315)
 -->
<!-- Title: TMfindPrevious Pages: 1 -->
<svg width="1808pt" height="435pt"
 viewBox="0.00 0.00 1808.00 434.89" xmlns="http://www.w3.org/2000/svg" xmlns:xlink="http://www.w3.org/1999/xlink">
<g id="graph0" class="graph" transform="scale(1 1) rotate(0) translate(4 430.886)">
<title>TMfindPrevious</title>
<!-- Node1 -->
<g id="node1" class="node"><title>Node1</title>
<polygon fill="#bfbfbf" stroke="black" points="0.5,-182.5 0.5,-201.5 85.5,-201.5 85.5,-182.5 0.5,-182.5"/>
<text text-anchor="middle" x="43" y="-189.5" font-family="Helvetica,sans-Serif" font-size="10.00">TMfindPrevious</text>
</g>
<!-- Node2 -->
<g id="node2" class="node"><title>Node2</title>
<g id="a_node2"><a xlink:href="stmskip_8cc.html#a9ab04b9e875013b4d2dd249d0c97dce5" target="_top" xlink:title="for">
<polygon fill="none" stroke="black" points="122.5,-182.5 122.5,-201.5 151.5,-201.5 151.5,-182.5 122.5,-182.5"/>
<text text-anchor="middle" x="137" y="-189.5" font-family="Helvetica,sans-Serif" font-size="10.00">for</text>
</a>
</g>
</g>
<!-- Node1&#45;&gt;Node2 -->
<g id="edge1" class="edge"><title>Node1&#45;&gt;Node2</title>
<path fill="none" stroke="midnightblue" d="M85.6931,-192C94.7144,-192 103.959,-192 112.021,-192"/>
<polygon fill="midnightblue" stroke="midnightblue" points="112.152,-195.5 122.152,-192 112.152,-188.5 112.152,-195.5"/>
</g>
<!-- Node3 -->
<g id="node3" class="node"><title>Node3</title>
<g id="a_node3"><a xlink:href="stmskip_8cc.html#a09de30bf6124d9640899b27c93b49471" target="_top" xlink:title="stmskip_lookup">
<polygon fill="none" stroke="black" points="190.5,-239.5 190.5,-258.5 275.5,-258.5 275.5,-239.5 190.5,-239.5"/>
<text text-anchor="middle" x="233" y="-246.5" font-family="Helvetica,sans-Serif" font-size="10.00">stmskip_lookup</text>
</a>
</g>
</g>
<!-- Node2&#45;&gt;Node3 -->
<g id="edge2" class="edge"><title>Node2&#45;&gt;Node3</title>
<path fill="none" stroke="midnightblue" d="M148.966,-201.58C158.747,-209.811 173.691,-221.64 188,-230 191.038,-231.775 194.272,-233.481 197.556,-235.094"/>
<polygon fill="midnightblue" stroke="midnightblue" points="196.27,-238.356 206.816,-239.37 199.204,-232 196.27,-238.356"/>
</g>
<!-- Node21 -->
<g id="node21" class="node"><title>Node21</title>
<g id="a_node21"><a xlink:href="stmskip_8cc.html#ad17c6ea2fd390c2dd637a34fdeb0b3df" target="_top" xlink:title="stmskip_update">
<polygon fill="none" stroke="black" points="190,-144.5 190,-163.5 276,-163.5 276,-144.5 190,-144.5"/>
<text text-anchor="middle" x="233" y="-151.5" font-family="Helvetica,sans-Serif" font-size="10.00">stmskip_update</text>
</a>
</g>
</g>
<!-- Node2&#45;&gt;Node21 -->
<g id="edge25" class="edge"><title>Node2&#45;&gt;Node21</title>
<path fill="none" stroke="midnightblue" d="M151.87,-186.393C164.135,-181.435 182.523,-174.001 198.593,-167.505"/>
<polygon fill="midnightblue" stroke="midnightblue" points="200.264,-170.605 208.223,-163.612 197.64,-164.115 200.264,-170.605"/>
</g>
<!-- Node34 -->
<g id="node34" class="node"><title>Node34</title>
<g id="a_node34"><a xlink:href="stmskip_8cc.html#a3925aa5d2590fc57854aa9d670f58e4d" target="_top" xlink:title="stmskip_remove">
<polygon fill="none" stroke="black" points="188.5,-201.5 188.5,-220.5 277.5,-220.5 277.5,-201.5 188.5,-201.5"/>
<text text-anchor="middle" x="233" y="-208.5" font-family="Helvetica,sans-Serif" font-size="10.00">stmskip_remove</text>
</a>
</g>
</g>
<!-- Node2&#45;&gt;Node34 -->
<g id="edge48" class="edge"><title>Node2&#45;&gt;Node34</title>
<path fill="none" stroke="midnightblue" d="M151.87,-194.804C159.147,-196.274 168.581,-198.181 178.407,-200.167"/>
<polygon fill="midnightblue" stroke="midnightblue" points="177.803,-203.616 188.298,-202.167 179.19,-196.755 177.803,-203.616"/>
</g>
<!-- Node35 -->
<g id="node35" class="node"><title>Node35</title>
<g id="a_node35"><a xlink:href="stm_8h.html#ad6e1404788ef0e710c991c3e00fd5c39" target="_top" xlink:title="abort_stm_tx">
<polygon fill="none" stroke="black" points="196,-106.5 196,-125.5 270,-125.5 270,-106.5 196,-106.5"/>
<text text-anchor="middle" x="233" y="-113.5" font-family="Helvetica,sans-Serif" font-size="10.00">abort_stm_tx</text>
</a>
</g>
</g>
<!-- Node2&#45;&gt;Node35 -->
<g id="edge51" class="edge"><title>Node2&#45;&gt;Node35</title>
<path fill="none" stroke="midnightblue" d="M144.404,-182.351C153.038,-169.968 169.481,-148.479 188,-135 190.334,-133.302 192.843,-131.714 195.437,-130.24"/>
<polygon fill="midnightblue" stroke="midnightblue" points="197.121,-133.31 204.453,-125.661 193.952,-127.069 197.121,-133.31"/>
</g>
<!-- Node4 -->
<g id="node4" class="node"><title>Node4</title>
<g id="a_node4"><a xlink:href="stmskip_8cc.html#aa82848b11e972b9339ceadb6816cdb6a" target="_top" xlink:title="search_predecessors">
<polygon fill="none" stroke="black" points="314,-239.5 314,-258.5 424,-258.5 424,-239.5 314,-239.5"/>
<text text-anchor="middle" x="369" y="-246.5" font-family="Helvetica,sans-Serif" font-size="10.00">search_predecessors</text>
</a>
</g>
</g>
<!-- Node3&#45;&gt;Node4 -->
<g id="edge3" class="edge"><title>Node3&#45;&gt;Node4</title>
<path fill="none" stroke="midnightblue" d="M275.664,-249C284.466,-249 293.951,-249 303.374,-249"/>
<polygon fill="midnightblue" stroke="midnightblue" points="303.539,-252.5 313.539,-249 303.539,-245.5 303.539,-252.5"/>
</g>
<!-- Node5 -->
<g id="node5" class="node"><title>Node5</title>
<g id="a_node5"><a xlink:href="stm_8h.html#a5594d7fca67459d7d9738436af589c5c" target="_top" xlink:title="read_stm_blk">
<polygon fill="none" stroke="black" points="461.5,-345.5 461.5,-364.5 536.5,-364.5 536.5,-345.5 461.5,-345.5"/>
<text text-anchor="middle" x="499" y="-352.5" font-family="Helvetica,sans-Serif" font-size="10.00">read_stm_blk</text>
</a>
</g>
</g>
<!-- Node4&#45;&gt;Node5 -->
<g id="edge4" class="edge"><title>Node4&#45;&gt;Node5</title>
<path fill="none" stroke="midnightblue" d="M381.812,-258.782C403.816,-277.004 451.283,-316.313 478.242,-338.638"/>
<polygon fill="midnightblue" stroke="midnightblue" points="476.282,-341.559 486.216,-345.241 480.746,-336.168 476.282,-341.559"/>
</g>
<!-- Node6 -->
<g id="node6" class="node"><title>Node6</title>
<g id="a_node6"><a xlink:href="stm__fraser_8c.html#aca0d40200c3502bdabeb44b27dfd4105" target="_top" xlink:title="search_stm_tx_entry">
<polygon fill="none" stroke="black" points="890,-359.5 890,-378.5 998,-378.5 998,-359.5 890,-359.5"/>
<text text-anchor="middle" x="944" y="-366.5" font-family="Helvetica,sans-Serif" font-size="10.00">search_stm_tx_entry</text>
</a>
</g>
</g>
<!-- Node5&#45;&gt;Node6 -->
<g id="edge5" class="edge"><title>Node5&#45;&gt;Node6</title>
<path fill="none" stroke="midnightblue" d="M508.889,-364.713C521.74,-377.955 546.95,-401.048 574,-410 692.508,-449.217 731.064,-409.652 854,-388 866.156,-385.859 879.182,-383.255 891.414,-380.671"/>
<polygon fill="midnightblue" stroke="midnightblue" points="892.422,-384.034 901.465,-378.514 890.954,-377.19 892.422,-384.034"/>
</g>
<!-- Node7 -->
<g id="node7" class="node"><title>Node7</title>
<g id="a_node7"><a xlink:href="stm__fraser_8c.html#a75177d9fa0335bd50b6fae9a68341443" target="_top" xlink:title="alloc_stm_tx_entry">
<polygon fill="none" stroke="black" points="585.5,-326.5 585.5,-345.5 684.5,-345.5 684.5,-326.5 585.5,-326.5"/>
<text text-anchor="middle" x="635" y="-333.5" font-family="Helvetica,sans-Serif" font-size="10.00">alloc_stm_tx_entry</text>
</a>
</g>
</g>
<!-- Node5&#45;&gt;Node7 -->
<g id="edge6" class="edge"><title>Node5&#45;&gt;Node7</title>
<path fill="none" stroke="midnightblue" d="M536.616,-349.808C548.596,-348.11 562.219,-346.178 575.402,-344.309"/>
<polygon fill="midnightblue" stroke="midnightblue" points="575.953,-347.766 585.362,-342.896 574.97,-340.835 575.953,-347.766"/>
</g>
<!-- Node8 -->
<g id="node8" class="node"><title>Node8</title>
<g id="a_node8"><a xlink:href="stm__fraser_8c.html#a4e016a575dac2ee3931ef9ec94550d33" target="_top" xlink:title="read_blk_data">
<polygon fill="none" stroke="black" points="596.5,-364.5 596.5,-383.5 673.5,-383.5 673.5,-364.5 596.5,-364.5"/>
<text text-anchor="middle" x="635" y="-371.5" font-family="Helvetica,sans-Serif" font-size="10.00">read_blk_data</text>
</a>
</g>
</g>
<!-- Node5&#45;&gt;Node8 -->
<g id="edge7" class="edge"><title>Node5&#45;&gt;Node8</title>
<path fill="none" stroke="midnightblue" d="M536.616,-360.192C552.017,-362.376 570.136,-364.945 586.542,-367.271"/>
<polygon fill="midnightblue" stroke="midnightblue" points="586.103,-370.744 596.495,-368.682 587.086,-363.813 586.103,-370.744"/>
</g>
<!-- Node19 -->
<g id="node19" class="node"><title>Node19</title>
<g id="a_node19"><a xlink:href="stm__fraser_8c.html#a31ea9d61a84d817aac10ffbc4ba9f296" target="_top" xlink:title="commit_stm_tx">
<polygon fill="none" stroke="black" points="751,-359.5 751,-378.5 835,-378.5 835,-359.5 751,-359.5"/>
<text text-anchor="middle" x="793" y="-366.5" font-family="Helvetica,sans-Serif" font-size="10.00">commit_stm_tx</text>
</a>
</g>
</g>
<!-- Node5&#45;&gt;Node19 -->
<g id="edge24" class="edge"><title>Node5&#45;&gt;Node19</title>
<path fill="none" stroke="midnightblue" d="M513.671,-364.558C527.957,-373.915 551.399,-387.536 574,-393 635.46,-407.858 708.917,-393.34 752.944,-381.306"/>
<polygon fill="midnightblue" stroke="midnightblue" points="754.007,-384.643 762.677,-378.554 752.102,-377.907 754.007,-384.643"/>
</g>
<!-- Node20 -->
<g id="node20" class="node"><title>Node20</title>
<g id="a_node20"><a xlink:href="stm__fraser_8c.html#ad6e1404788ef0e710c991c3e00fd5c39" target="_top" xlink:title="abort_stm_tx">
<polygon fill="none" stroke="black" points="598,-288.5 598,-307.5 672,-307.5 672,-288.5 598,-288.5"/>
<text text-anchor="middle" x="635" y="-295.5" font-family="Helvetica,sans-Serif" font-size="10.00">abort_stm_tx</text>
</a>
</g>
</g>
<!-- Node5&#45;&gt;Node20 -->
<g id="edge23" class="edge"><title>Node5&#45;&gt;Node20</title>
<path fill="none" stroke="midnightblue" d="M516.665,-345.419C531.419,-337.186 553.701,-325.357 574,-317 579.372,-314.788 585.101,-312.676 590.807,-310.716"/>
<polygon fill="midnightblue" stroke="midnightblue" points="591.923,-314.034 600.321,-307.573 589.728,-307.387 591.923,-314.034"/>
</g>
<!-- Node9 -->
<g id="node9" class="node"><title>Node9</title>
<g id="a_node9"><a xlink:href="stm__fraser_8c.html#a3baf54f8c2c6bdb79109865e5500cbd9" target="_top" xlink:title="rc_up_descriptor">
<polygon fill="none" stroke="black" points="899.5,-321.5 899.5,-340.5 988.5,-340.5 988.5,-321.5 899.5,-321.5"/>
<text text-anchor="middle" x="944" y="-328.5" font-family="Helvetica,sans-Serif" font-size="10.00">rc_up_descriptor</text>
</a>
</g>
</g>
<!-- Node8&#45;&gt;Node9 -->
<g id="edge8" class="edge"><title>Node8&#45;&gt;Node9</title>
<path fill="none" stroke="midnightblue" d="M669.053,-364.389C687.441,-359.384 710.826,-353.578 732,-350 784.936,-341.055 846.102,-336.134 888.904,-333.556"/>
<polygon fill="midnightblue" stroke="midnightblue" points="889.321,-337.037 899.102,-332.965 888.916,-330.049 889.321,-337.037"/>
</g>
<!-- Node11 -->
<g id="node11" class="node"><title>Node11</title>
<g id="a_node11"><a xlink:href="stm__fraser_8c.html#ad41e28910c7dbe8cfd98c9e0c168c9dc" target="_top" xlink:title="rc_down_descriptor">
<polygon fill="none" stroke="black" points="893.5,-397.5 893.5,-416.5 994.5,-416.5 994.5,-397.5 893.5,-397.5"/>
<text text-anchor="middle" x="944" y="-404.5" font-family="Helvetica,sans-Serif" font-size="10.00">rc_down_descriptor</text>
</a>
</g>
</g>
<!-- Node8&#45;&gt;Node11 -->
<g id="edge10" class="edge"><title>Node8&#45;&gt;Node11</title>
<path fill="none" stroke="midnightblue" d="M673.781,-380C691.437,-382.678 712.764,-385.733 732,-388 782.955,-394.005 841.03,-399.107 883.336,-402.508"/>
<polygon fill="midnightblue" stroke="midnightblue" points="883.22,-406.009 893.466,-403.314 883.775,-399.031 883.22,-406.009"/>
</g>
<!-- Node8&#45;&gt;Node19 -->
<g id="edge19" class="edge"><title>Node8&#45;&gt;Node19</title>
<path fill="none" stroke="midnightblue" d="M673.763,-372.79C693.847,-372.146 718.832,-371.345 740.654,-370.646"/>
<polygon fill="midnightblue" stroke="midnightblue" points="740.869,-374.141 750.751,-370.322 740.644,-367.144 740.869,-374.141"/>
</g>
<!-- Node10 -->
<g id="node10" class="node"><title>Node10</title>
<g id="a_node10"><a xlink:href="stm__fraser_8c.html#a1a59f05201730ec9ba9a348070073e57" target="_top" xlink:title="rc_delta_descriptor">
<polygon fill="none" stroke="black" points="1034.5,-321.5 1034.5,-340.5 1133.5,-340.5 1133.5,-321.5 1034.5,-321.5"/>
<text text-anchor="middle" x="1084" y="-328.5" font-family="Helvetica,sans-Serif" font-size="10.00">rc_delta_descriptor</text>
</a>
</g>
</g>
<!-- Node9&#45;&gt;Node10 -->
<g id="edge9" class="edge"><title>Node9&#45;&gt;Node10</title>
<path fill="none" stroke="midnightblue" d="M988.664,-331C999.902,-331 1012.18,-331 1024.05,-331"/>
<polygon fill="midnightblue" stroke="midnightblue" points="1024.35,-334.5 1034.35,-331 1024.35,-327.5 1024.35,-334.5"/>
</g>
<!-- Node12 -->
<g id="node12" class="node"><title>Node12</title>
<g id="a_node12"><a xlink:href="stm__fraser_8c.html#afd1a951db8c0f79e6bf20624e7dca338" target="_top" xlink:title="release_descriptor">
<polygon fill="none" stroke="black" points="1036,-378.5 1036,-397.5 1132,-397.5 1132,-378.5 1036,-378.5"/>
<text text-anchor="middle" x="1084" y="-385.5" font-family="Helvetica,sans-Serif" font-size="10.00">release_descriptor</text>
</a>
</g>
</g>
<!-- Node11&#45;&gt;Node12 -->
<g id="edge11" class="edge"><title>Node11&#45;&gt;Node12</title>
<path fill="none" stroke="midnightblue" d="M994.821,-400.141C1004.78,-398.769 1015.32,-397.318 1025.51,-395.915"/>
<polygon fill="midnightblue" stroke="midnightblue" points="1026.13,-399.363 1035.56,-394.532 1025.17,-392.429 1026.13,-399.363"/>
</g>
<!-- Node13 -->
<g id="node13" class="node"><title>Node13</title>
<g id="a_node13"><a xlink:href="gc_8c.html#a80f4a5c119aa70ab0452a73dfac21bbd" target="_top" xlink:title="fr_gc_free">
<polygon fill="none" stroke="black" points="1316,-340.5 1316,-359.5 1376,-359.5 1376,-340.5 1316,-340.5"/>
<text text-anchor="middle" x="1346" y="-347.5" font-family="Helvetica,sans-Serif" font-size="10.00">fr_gc_free</text>
</a>
</g>
</g>
<!-- Node12&#45;&gt;Node13 -->
<g id="edge12" class="edge"><title>Node12&#45;&gt;Node13</title>
<path fill="none" stroke="midnightblue" d="M1132.11,-384.761C1168.78,-381.829 1220.85,-376.765 1266,-369 1279.16,-366.736 1293.4,-363.548 1306.11,-360.428"/>
<polygon fill="midnightblue" stroke="midnightblue" points="1307.08,-363.793 1315.93,-357.96 1305.38,-357.004 1307.08,-363.793"/>
</g>
<!-- Node18 -->
<g id="node18" class="node"><title>Node18</title>
<g id="a_node18"><a xlink:href="gc_8c.html#a1e1a80c2d04496b5b70bd86b59510355" target="_top" xlink:title="fr_gc_unsafe_free">
<polygon fill="none" stroke="black" points="1170.5,-340.5 1170.5,-359.5 1265.5,-359.5 1265.5,-340.5 1170.5,-340.5"/>
<text text-anchor="middle" x="1218" y="-347.5" font-family="Helvetica,sans-Serif" font-size="10.00">fr_gc_unsafe_free</text>
</a>
</g>
</g>
<!-- Node12&#45;&gt;Node18 -->
<g id="edge17" class="edge"><title>Node12&#45;&gt;Node18</title>
<path fill="none" stroke="midnightblue" d="M1118.31,-378.411C1135.19,-373.551 1155.89,-367.591 1173.97,-362.387"/>
<polygon fill="midnightblue" stroke="midnightblue" points="1175.06,-365.716 1183.7,-359.586 1173.12,-358.989 1175.06,-365.716"/>
</g>
<!-- Node14 -->
<g id="node14" class="node"><title>Node14</title>
<g id="a_node14"><a xlink:href="gc_8c.html#afb494e950c8c6b5661974748ae89b61e" target="_top" xlink:title="chunk_from_cache">
<polygon fill="none" stroke="black" points="1426.5,-284.5 1426.5,-303.5 1525.5,-303.5 1525.5,-284.5 1426.5,-284.5"/>
<text text-anchor="middle" x="1476" y="-291.5" font-family="Helvetica,sans-Serif" font-size="10.00">chunk_from_cache</text>
</a>
</g>
</g>
<!-- Node13&#45;&gt;Node14 -->
<g id="edge13" class="edge"><title>Node13&#45;&gt;Node14</title>
<path fill="none" stroke="midnightblue" d="M1369,-340.373C1389.64,-331.343 1420.72,-317.749 1443.89,-307.611"/>
<polygon fill="midnightblue" stroke="midnightblue" points="1445.52,-310.716 1453.28,-303.501 1442.72,-304.303 1445.52,-310.716"/>
</g>
<!-- Node15 -->
<g id="node15" class="node"><title>Node15</title>
<g id="a_node15"><a xlink:href="gc_8c.html#a2a6f41199ed37925df4cc7b9909dc0ed" target="_top" xlink:title="get_empty_chunks">
<polygon fill="none" stroke="black" points="1562.5,-190.5 1562.5,-209.5 1661.5,-209.5 1661.5,-190.5 1562.5,-190.5"/>
<text text-anchor="middle" x="1612" y="-197.5" font-family="Helvetica,sans-Serif" font-size="10.00">get_empty_chunks</text>
</a>
</g>
</g>
<!-- Node14&#45;&gt;Node15 -->
<g id="edge14" class="edge"><title>Node14&#45;&gt;Node15</title>
<path fill="none" stroke="midnightblue" d="M1490.84,-284.294C1514.13,-267.956 1561.34,-234.837 1589.15,-215.33"/>
<polygon fill="midnightblue" stroke="midnightblue" points="1591.26,-218.121 1597.44,-209.513 1587.24,-212.39 1591.26,-218.121"/>
</g>
<!-- Node16 -->
<g id="node16" class="node"><title>Node16</title>
<g id="a_node16"><a xlink:href="gc_8c.html#ac360b80b93ad00f0fba18a1993e1d6a0" target="_top" xlink:title="add_chunks_to_list">
<polygon fill="none" stroke="black" points="1698.5,-152.5 1698.5,-171.5 1799.5,-171.5 1799.5,-152.5 1698.5,-152.5"/>
<text text-anchor="middle" x="1749" y="-159.5" font-family="Helvetica,sans-Serif" font-size="10.00">add_chunks_to_list</text>
</a>
</g>
</g>
<!-- Node15&#45;&gt;Node16 -->
<g id="edge15" class="edge"><title>Node15&#45;&gt;Node16</title>
<path fill="none" stroke="midnightblue" d="M1647.07,-190.411C1664.41,-185.528 1685.7,-179.536 1704.25,-174.315"/>
<polygon fill="midnightblue" stroke="midnightblue" points="1705.27,-177.665 1713.94,-171.586 1703.37,-170.926 1705.27,-177.665"/>
</g>
<!-- Node17 -->
<g id="node17" class="node"><title>Node17</title>
<g id="a_node17"><a xlink:href="gc_8c.html#ade31863985bdaa481ade142bdfb6d99f" target="_top" xlink:title="alloc_more_chunks">
<polygon fill="none" stroke="black" points="1698.5,-190.5 1698.5,-209.5 1799.5,-209.5 1799.5,-190.5 1698.5,-190.5"/>
<text text-anchor="middle" x="1749" y="-197.5" font-family="Helvetica,sans-Serif" font-size="10.00">alloc_more_chunks</text>
</a>
</g>
</g>
<!-- Node15&#45;&gt;Node17 -->
<g id="edge16" class="edge"><title>Node15&#45;&gt;Node17</title>
<path fill="none" stroke="midnightblue" d="M1661.74,-200C1670.31,-200 1679.33,-200 1688.17,-200"/>
<polygon fill="midnightblue" stroke="midnightblue" points="1688.43,-203.5 1698.43,-200 1688.43,-196.5 1688.43,-203.5"/>
</g>
<!-- Node18&#45;&gt;Node13 -->
<g id="edge18" class="edge"><title>Node18&#45;&gt;Node13</title>
<path fill="none" stroke="midnightblue" d="M1265.56,-350C1278.7,-350 1292.87,-350 1305.56,-350"/>
<polygon fill="midnightblue" stroke="midnightblue" points="1305.81,-353.5 1315.81,-350 1305.81,-346.5 1305.81,-353.5"/>
</g>
<!-- Node19&#45;&gt;Node6 -->
<g id="edge22" class="edge"><title>Node19&#45;&gt;Node6</title>
<path fill="none" stroke="midnightblue" d="M835.109,-369C848.827,-369 864.449,-369 879.463,-369"/>
<polygon fill="midnightblue" stroke="midnightblue" points="879.73,-372.5 889.73,-369 879.73,-365.5 879.73,-372.5"/>
</g>
<!-- Node19&#45;&gt;Node9 -->
<g id="edge20" class="edge"><title>Node19&#45;&gt;Node9</title>
<path fill="none" stroke="midnightblue" d="M831.599,-359.411C851.084,-354.442 875.075,-348.323 895.796,-343.039"/>
<polygon fill="midnightblue" stroke="midnightblue" points="896.846,-346.383 905.671,-340.52 895.117,-339.6 896.846,-346.383"/>
</g>
<!-- Node19&#45;&gt;Node11 -->
<g id="edge21" class="edge"><title>Node19&#45;&gt;Node11</title>
<path fill="none" stroke="midnightblue" d="M831.599,-378.589C851.084,-383.558 875.075,-389.677 895.796,-394.961"/>
<polygon fill="midnightblue" stroke="midnightblue" points="895.117,-398.4 905.671,-397.48 896.846,-391.617 895.117,-398.4"/>
</g>
<!-- Node21&#45;&gt;Node4 -->
<g id="edge27" class="edge"><title>Node21&#45;&gt;Node4</title>
<path fill="none" stroke="midnightblue" d="M247.836,-163.809C271.126,-180.321 318.339,-213.792 346.147,-233.507"/>
<polygon fill="midnightblue" stroke="midnightblue" points="344.257,-236.458 354.439,-239.386 348.306,-230.747 344.257,-236.458"/>
</g>
<!-- Node22 -->
<g id="node22" class="node"><title>Node22</title>
<g id="a_node22"><a xlink:href="avltree_8c.html#a645f38498ce0006cd109919b893e21f4" target="_top" xlink:title="new_node">
<polygon fill="none" stroke="black" points="338.5,-38.5 338.5,-57.5 399.5,-57.5 399.5,-38.5 338.5,-38.5"/>
<text text-anchor="middle" x="369" y="-45.5" font-family="Helvetica,sans-Serif" font-size="10.00">new_node</text>
</a>
</g>
</g>
<!-- Node21&#45;&gt;Node22 -->
<g id="edge26" class="edge"><title>Node21&#45;&gt;Node22</title>
<path fill="none" stroke="midnightblue" d="M263.512,-144.412C268.701,-141.88 273.782,-138.772 278,-135 302.039,-113.503 290.075,-93.6243 314,-72 318.437,-67.9896 323.653,-64.5612 329.064,-61.6576"/>
<polygon fill="midnightblue" stroke="midnightblue" points="330.745,-64.7336 338.251,-57.2565 327.72,-58.4207 330.745,-64.7336"/>
</g>
<!-- Node23 -->
<g id="node23" class="node"><title>Node23</title>
<g id="a_node23"><a xlink:href="stm_8h.html#a7f41614dded09613f4ccd7578ef188ba" target="_top" xlink:title="new_stm_blk">
<polygon fill="none" stroke="black" points="1047,-76.5 1047,-95.5 1121,-95.5 1121,-76.5 1047,-76.5"/>
<text text-anchor="middle" x="1084" y="-83.5" font-family="Helvetica,sans-Serif" font-size="10.00">new_stm_blk</text>
</a>
</g>
</g>
<!-- Node21&#45;&gt;Node23 -->
<g id="edge28" class="edge"><title>Node21&#45;&gt;Node23</title>
<path fill="none" stroke="midnightblue" d="M255.761,-144.401C300.302,-125.657 405.471,-86 498,-86 498,-86 498,-86 794,-86 879.729,-86 979.763,-86 1036.82,-86"/>
<polygon fill="midnightblue" stroke="midnightblue" points="1036.96,-89.5001 1046.96,-86 1036.96,-82.5001 1036.96,-89.5001"/>
</g>
<!-- Node27 -->
<g id="node27" class="node"><title>Node27</title>
<g id="a_node27"><a xlink:href="stm_8h.html#a2c77806bb0511fb17494d226b5ea20d8" target="_top" xlink:title="init_stm_blk">
<polygon fill="none" stroke="black" points="334.5,-0.5 334.5,-19.5 403.5,-19.5 403.5,-0.5 334.5,-0.5"/>
<text text-anchor="middle" x="369" y="-7.5" font-family="Helvetica,sans-Serif" font-size="10.00">init_stm_blk</text>
</a>
</g>
</g>
<!-- Node21&#45;&gt;Node27 -->
<g id="edge35" class="edge"><title>Node21&#45;&gt;Node27</title>
<path fill="none" stroke="midnightblue" d="M265.48,-144.335C270.117,-141.86 274.501,-138.791 278,-135 311.742,-98.436 279.011,-64.373 314,-29 317.232,-25.7321 321.059,-23.0248 325.161,-20.7822"/>
<polygon fill="midnightblue" stroke="midnightblue" points="326.785,-23.8891 334.453,-16.578 323.899,-17.5116 326.785,-23.8891"/>
</g>
<!-- Node28 -->
<g id="node28" class="node"><title>Node28</title>
<g id="a_node28"><a xlink:href="stmskip_8cc.html#ab6919257456cff4d47684cdfd3bc5a3c" target="_top" xlink:title="get_level">
<polygon fill="none" stroke="black" points="341,-163.5 341,-182.5 397,-182.5 397,-163.5 341,-163.5"/>
<text text-anchor="middle" x="369" y="-170.5" font-family="Helvetica,sans-Serif" font-size="10.00">get_level</text>
</a>
</g>
</g>
<!-- Node21&#45;&gt;Node28 -->
<g id="edge36" class="edge"><title>Node21&#45;&gt;Node28</title>
<path fill="none" stroke="midnightblue" d="M276.031,-159.96C293.574,-162.447 313.782,-165.312 330.78,-167.722"/>
<polygon fill="midnightblue" stroke="midnightblue" points="330.503,-171.218 340.896,-169.157 331.486,-164.288 330.503,-171.218"/>
</g>
<!-- Node29 -->
<g id="node29" class="node"><title>Node29</title>
<g id="a_node29"><a xlink:href="stm_8h.html#a00de1ad150378181157510e2e5982f75" target="_top" xlink:title="write_stm_blk">
<polygon fill="none" stroke="black" points="460.5,-212.5 460.5,-231.5 537.5,-231.5 537.5,-212.5 460.5,-212.5"/>
<text text-anchor="middle" x="499" y="-219.5" font-family="Helvetica,sans-Serif" font-size="10.00">write_stm_blk</text>
</a>
</g>
</g>
<!-- Node21&#45;&gt;Node29 -->
<g id="edge37" class="edge"><title>Node21&#45;&gt;Node29</title>
<path fill="none" stroke="midnightblue" d="M276.377,-145.447C315.988,-139.403 376.054,-135.316 424,-154 449.65,-163.996 471.793,-187.501 485.007,-204.066"/>
<polygon fill="midnightblue" stroke="midnightblue" points="482.543,-206.605 491.396,-212.425 488.104,-202.354 482.543,-206.605"/>
</g>
<!-- Node24 -->
<g id="node24" class="node"><title>Node24</title>
<g id="a_node24"><a xlink:href="gc_8c.html#a5c5981457deeeefd60df569f6265f59c" target="_top" xlink:title="fr_gc_alloc">
<polygon fill="none" stroke="black" points="1186,-114.5 1186,-133.5 1250,-133.5 1250,-114.5 1186,-114.5"/>
<text text-anchor="middle" x="1218" y="-121.5" font-family="Helvetica,sans-Serif" font-size="10.00">fr_gc_alloc</text>
</a>
</g>
</g>
<!-- Node23&#45;&gt;Node24 -->
<g id="edge29" class="edge"><title>Node23&#45;&gt;Node24</title>
<path fill="none" stroke="midnightblue" d="M1118.31,-95.589C1135.92,-100.658 1157.68,-106.923 1176.29,-112.279"/>
<polygon fill="midnightblue" stroke="midnightblue" points="1175.39,-115.664 1185.97,-115.067 1177.33,-108.937 1175.39,-115.664"/>
</g>
<!-- Node24&#45;&gt;Node16 -->
<g id="edge30" class="edge"><title>Node24&#45;&gt;Node16</title>
<path fill="none" stroke="midnightblue" d="M1250.12,-126.235C1335.7,-132.383 1575.72,-149.624 1688.3,-157.711"/>
<polygon fill="midnightblue" stroke="midnightblue" points="1688.23,-161.216 1698.46,-158.441 1688.73,-154.234 1688.23,-161.216"/>
</g>
<!-- Node25 -->
<g id="node25" class="node"><title>Node25</title>
<g id="a_node25"><a xlink:href="gc_8c.html#a6dffa65320ddab40d01f198433b3aeb6" target="_top" xlink:title="get_alloc_chunk">
<polygon fill="none" stroke="black" points="1302.5,-152.5 1302.5,-171.5 1389.5,-171.5 1389.5,-152.5 1302.5,-152.5"/>
<text text-anchor="middle" x="1346" y="-159.5" font-family="Helvetica,sans-Serif" font-size="10.00">get_alloc_chunk</text>
</a>
</g>
</g>
<!-- Node24&#45;&gt;Node25 -->
<g id="edge31" class="edge"><title>Node24&#45;&gt;Node25</title>
<path fill="none" stroke="midnightblue" d="M1250.15,-133.393C1266.23,-138.244 1286.07,-144.227 1303.44,-149.466"/>
<polygon fill="midnightblue" stroke="midnightblue" points="1302.75,-152.914 1313.34,-152.451 1304.77,-146.212 1302.75,-152.914"/>
</g>
<!-- Node25&#45;&gt;Node16 -->
<g id="edge34" class="edge"><title>Node25&#45;&gt;Node16</title>
<path fill="none" stroke="midnightblue" d="M1389.53,-162C1461.25,-162 1606.39,-162 1688.28,-162"/>
<polygon fill="midnightblue" stroke="midnightblue" points="1688.43,-165.5 1698.43,-162 1688.43,-158.5 1688.43,-165.5"/>
</g>
<!-- Node26 -->
<g id="node26" class="node"><title>Node26</title>
<g id="a_node26"><a xlink:href="gc_8c.html#ae47e099483bed50da4e41b906c300b99" target="_top" xlink:title="get_filled_chunks">
<polygon fill="none" stroke="black" points="1430,-190.5 1430,-209.5 1522,-209.5 1522,-190.5 1430,-190.5"/>
<text text-anchor="middle" x="1476" y="-197.5" font-family="Helvetica,sans-Serif" font-size="10.00">get_filled_chunks</text>
</a>
</g>
</g>
<!-- Node25&#45;&gt;Node26 -->
<g id="edge32" class="edge"><title>Node25&#45;&gt;Node26</title>
<path fill="none" stroke="midnightblue" d="M1379.3,-171.589C1395.52,-176.404 1415.38,-182.299 1432.79,-187.468"/>
<polygon fill="midnightblue" stroke="midnightblue" points="1432.13,-190.923 1442.71,-190.414 1434.12,-184.213 1432.13,-190.923"/>
</g>
<!-- Node26&#45;&gt;Node15 -->
<g id="edge33" class="edge"><title>Node26&#45;&gt;Node15</title>
<path fill="none" stroke="midnightblue" d="M1522.37,-200C1531.95,-200 1542.19,-200 1552.18,-200"/>
<polygon fill="midnightblue" stroke="midnightblue" points="1552.47,-203.5 1562.47,-200 1552.47,-196.5 1552.47,-203.5"/>
</g>
<!-- Node29&#45;&gt;Node6 -->
<g id="edge38" class="edge"><title>Node29&#45;&gt;Node6</title>
<path fill="none" stroke="midnightblue" d="M537.837,-217.551C578.628,-214.35 644.614,-213.872 696,-236 715.935,-244.585 714.183,-256.604 732,-269 796.778,-314.066 817.595,-318.619 890,-350 894.7,-352.037 899.697,-354.036 904.672,-355.928"/>
<polygon fill="midnightblue" stroke="midnightblue" points="903.536,-359.239 914.129,-359.414 905.957,-352.671 903.536,-359.239"/>
</g>
<!-- Node29&#45;&gt;Node7 -->
<g id="edge39" class="edge"><title>Node29&#45;&gt;Node7</title>
<path fill="none" stroke="midnightblue" d="M504.902,-231.645C515.116,-250.784 540.535,-293.718 574,-317 576.867,-318.995 579.954,-320.788 583.161,-322.398"/>
<polygon fill="midnightblue" stroke="midnightblue" points="581.87,-325.654 592.434,-326.469 584.684,-319.244 581.87,-325.654"/>
</g>
<!-- Node29&#45;&gt;Node8 -->
<g id="edge40" class="edge"><title>Node29&#45;&gt;Node8</title>
<path fill="none" stroke="midnightblue" d="M502.645,-231.653C509.832,-256.061 532.046,-320.735 574,-355 577.819,-358.119 582.155,-360.729 586.709,-362.912"/>
<polygon fill="midnightblue" stroke="midnightblue" points="585.683,-366.273 596.263,-366.82 588.333,-359.795 585.683,-366.273"/>
</g>
<!-- Node29&#45;&gt;Node19 -->
<g id="edge47" class="edge"><title>Node29&#45;&gt;Node19</title>
<path fill="none" stroke="midnightblue" d="M537.522,-230.696C586.426,-242.407 668.907,-263.557 696,-279 729.518,-298.106 760.59,-331.169 777.857,-351.461"/>
<polygon fill="midnightblue" stroke="midnightblue" points="775.292,-353.851 784.379,-359.298 780.673,-349.373 775.292,-353.851"/>
</g>
<!-- Node29&#45;&gt;Node20 -->
<g id="edge46" class="edge"><title>Node29&#45;&gt;Node20</title>
<path fill="none" stroke="midnightblue" d="M511.999,-231.755C526.185,-242.966 550.806,-261.434 574,-274 581.144,-277.871 589.048,-281.472 596.71,-284.647"/>
<polygon fill="midnightblue" stroke="midnightblue" points="595.625,-287.982 606.21,-288.428 598.213,-281.478 595.625,-287.982"/>
</g>
<!-- Node29&#45;&gt;Node24 -->
<g id="edge41" class="edge"><title>Node29&#45;&gt;Node24</title>
<path fill="none" stroke="midnightblue" d="M505.646,-212.342C516.415,-194.945 541.719,-158.693 574,-143 661.468,-100.478 694.744,-124 792,-124 792,-124 792,-124 945,-124 1026.9,-124 1122.67,-124 1175.93,-124"/>
<polygon fill="midnightblue" stroke="midnightblue" points="1176,-127.5 1186,-124 1176,-120.5 1176,-127.5"/>
</g>
<!-- Node30 -->
<g id="node30" class="node"><title>Node30</title>
<g id="a_node30"><a xlink:href="namespaceanonymous__namespace_02libitm-5_813_0014_8cpp_03.html#a8b7be7cf3afef27c0623b844ce9116d8" target="_top" xlink:title="anonymous_namespace\l\{libitm&#45;5::13,14::cpp\}\l::memcpy">
<polygon fill="none" stroke="black" points="574,-152.5 574,-193.5 696,-193.5 696,-152.5 574,-152.5"/>
<text text-anchor="start" x="582" y="-181.5" font-family="Helvetica,sans-Serif" font-size="10.00">anonymous_namespace</text>
<text text-anchor="start" x="582" y="-170.5" font-family="Helvetica,sans-Serif" font-size="10.00">{libitm&#45;5::13,14::cpp}</text>
<text text-anchor="middle" x="635" y="-159.5" font-family="Helvetica,sans-Serif" font-size="10.00">::memcpy</text>
</a>
</g>
</g>
<!-- Node29&#45;&gt;Node30 -->
<g id="edge42" class="edge"><title>Node29&#45;&gt;Node30</title>
<path fill="none" stroke="midnightblue" d="M526.155,-212.436C538.213,-208.027 553.126,-202.573 567.975,-197.143"/>
<polygon fill="midnightblue" stroke="midnightblue" points="569.503,-200.311 577.693,-193.59 567.099,-193.737 569.503,-200.311"/>
</g>
<!-- Node31 -->
<g id="node31" class="node"><title>Node31</title>
<g id="a_node31"><a xlink:href="namespaceanonymous__namespace_02oreceager_8cpp_03.html#a7a88c7a7453bbfaca53eeac03b80a5d6" target="_top" xlink:title="anonymous_namespace\l\{oreceager::cpp\}::read">
<polygon fill="none" stroke="black" points="732,-191 732,-221 854,-221 854,-191 732,-191"/>
<text text-anchor="start" x="740" y="-209" font-family="Helvetica,sans-Serif" font-size="10.00">anonymous_namespace</text>
<text text-anchor="middle" x="793" y="-198" font-family="Helvetica,sans-Serif" font-size="10.00">{oreceager::cpp}::read</text>
</a>
</g>
</g>
<!-- Node30&#45;&gt;Node31 -->
<g id="edge43" class="edge"><title>Node30&#45;&gt;Node31</title>
<path fill="none" stroke="midnightblue" d="M696.314,-185.759C704.695,-187.532 713.363,-189.365 721.904,-191.172"/>
<polygon fill="midnightblue" stroke="midnightblue" points="721.339,-194.63 731.847,-193.275 722.788,-187.781 721.339,-194.63"/>
</g>
<!-- Node32 -->
<g id="node32" class="node"><title>Node32</title>
<g id="a_node32"><a xlink:href="namespaceitm2stm.html#a334b9615cac957b9ce7a4743beaaaf53" target="_top" xlink:title="itm2stm::add_bytes">
<polygon fill="none" stroke="black" points="741.5,-152.5 741.5,-171.5 844.5,-171.5 844.5,-152.5 741.5,-152.5"/>
<text text-anchor="middle" x="793" y="-159.5" font-family="Helvetica,sans-Serif" font-size="10.00">itm2stm::add_bytes</text>
</a>
</g>
</g>
<!-- Node30&#45;&gt;Node32 -->
<g id="edge44" class="edge"><title>Node30&#45;&gt;Node32</title>
<path fill="none" stroke="midnightblue" d="M696.314,-168.747C707.852,-167.933 719.936,-167.081 731.481,-166.267"/>
<polygon fill="midnightblue" stroke="midnightblue" points="731.732,-169.758 741.461,-165.564 731.239,-162.776 731.732,-169.758"/>
</g>
<!-- Node33 -->
<g id="node33" class="node"><title>Node33</title>
<g id="a_node33"><a xlink:href="namespaceitm2stm.html#aa9908b113027ae21130750939980ee0b" target="_top" xlink:title="itm2stm::offset_of">
<polygon fill="none" stroke="black" points="745,-240.5 745,-259.5 841,-259.5 841,-240.5 745,-240.5"/>
<text text-anchor="middle" x="793" y="-247.5" font-family="Helvetica,sans-Serif" font-size="10.00">itm2stm::offset_of</text>
</a>
</g>
</g>
<!-- Node30&#45;&gt;Node33 -->
<g id="edge45" class="edge"><title>Node30&#45;&gt;Node33</title>
<path fill="none" stroke="midnightblue" d="M671.605,-193.608C679.646,-198.308 688.131,-203.301 696,-208 712.099,-217.613 714.996,-222.096 732,-230 737.422,-232.52 743.252,-234.874 749.071,-237.016"/>
<polygon fill="midnightblue" stroke="midnightblue" points="748.185,-240.415 758.78,-240.417 750.499,-233.808 748.185,-240.415"/>
</g>
<!-- Node34&#45;&gt;Node4 -->
<g id="edge49" class="edge"><title>Node34&#45;&gt;Node4</title>
<path fill="none" stroke="midnightblue" d="M267.814,-220.589C285.033,-225.472 306.164,-231.464 324.573,-236.685"/>
<polygon fill="midnightblue" stroke="midnightblue" points="323.621,-240.053 334.197,-239.414 325.531,-233.319 323.621,-240.053"/>
</g>
<!-- Node34&#45;&gt;Node29 -->
<g id="edge50" class="edge"><title>Node34&#45;&gt;Node29</title>
<path fill="none" stroke="midnightblue" d="M277.594,-212.816C325.175,-214.799 401.119,-217.963 450.271,-220.011"/>
<polygon fill="midnightblue" stroke="midnightblue" points="450.196,-223.511 460.333,-220.431 450.487,-216.517 450.196,-223.511"/>
</g>
</g>
</svg>
