<?xml version="1.0" encoding="UTF-8" standalone="no"?>
<!DOCTYPE svg PUBLIC "-//W3C//DTD SVG 1.1//EN"
 "http://www.w3.org/Graphics/SVG/1.1/DTD/svg11.dtd">
<!-- Generated by graphviz version 2.36.0 (20140111.2315)
 -->
<!-- Title: Plist_alloc Pages: 1 -->
<svg width="934pt" height="250pt"
 viewBox="0.00 0.00 934.00 250.03" xmlns="http://www.w3.org/2000/svg" xmlns:xlink="http://www.w3.org/1999/xlink">
<g id="graph0" class="graph" transform="scale(1 1) rotate(0) translate(4 246.032)">
<title>Plist_alloc</title>
<!-- Node1 -->
<g id="node1" class="node"><title>Node1</title>
<polygon fill="#bfbfbf" stroke="black" points="0,-57.5 0,-76.5 62,-76.5 62,-57.5 0,-57.5"/>
<text text-anchor="middle" x="31" y="-64.5" font-family="Helvetica,sans-Serif" font-size="10.00">Plist_alloc</text>
</g>
<!-- Node2 -->
<g id="node2" class="node"><title>Node2</title>
<g id="a_node2"><a xlink:href="learner_8h.html#aea1955f8471f02d66c6a39136d621f5b" target="_top" xlink:title="learner_alloc">
<polygon fill="none" stroke="black" points="416.5,-114.5 416.5,-133.5 487.5,-133.5 487.5,-114.5 416.5,-114.5"/>
<text text-anchor="middle" x="452" y="-121.5" font-family="Helvetica,sans-Serif" font-size="10.00">learner_alloc</text>
</a>
</g>
</g>
<!-- Node1&#45;&gt;Node2 -->
<g id="edge1" class="edge"><title>Node1&#45;&gt;Node2</title>
<path fill="none" stroke="midnightblue" d="M53.0813,-82.561C65.4951,-90.8189 81.8825,-100.224 98,-105 210.539,-138.349 351.943,-132.474 416.274,-127.369"/>
<polygon fill="midnightblue" stroke="midnightblue" points="55.0198,-79.6461 44.8051,-76.8332 51.0362,-85.4021 55.0198,-79.6461"/>
</g>
<!-- Node8 -->
<g id="node8" class="node"><title>Node8</title>
<g id="a_node8"><a xlink:href="net_8c.html#a030be629086cd702f3bf5b69aaf97842" target="_top" xlink:title="allocNode">
<polygon fill="none" stroke="black" points="120,-76.5 120,-95.5 180,-95.5 180,-76.5 120,-76.5"/>
<text text-anchor="middle" x="150" y="-83.5" font-family="Helvetica,sans-Serif" font-size="10.00">allocNode</text>
</a>
</g>
</g>
<!-- Node1&#45;&gt;Node8 -->
<g id="edge11" class="edge"><title>Node1&#45;&gt;Node8</title>
<path fill="none" stroke="midnightblue" d="M72.0836,-73.5093C87.7417,-76.0521 105.36,-78.9132 119.78,-81.2549"/>
<polygon fill="midnightblue" stroke="midnightblue" points="72.5622,-70.0412 62.1304,-71.893 71.44,-76.9507 72.5622,-70.0412"/>
</g>
<!-- Node11 -->
<g id="node11" class="node"><title>Node11</title>
<g id="a_node11"><a xlink:href="customer_8h.html#a977a1905b51f19c2b024776bcad52548" target="_top" xlink:title="customer_alloc_seq">
<polygon fill="none" stroke="black" points="98,-38.5 98,-57.5 202,-57.5 202,-38.5 98,-38.5"/>
<text text-anchor="middle" x="150" y="-45.5" font-family="Helvetica,sans-Serif" font-size="10.00">customer_alloc_seq</text>
</a>
</g>
</g>
<!-- Node1&#45;&gt;Node11 -->
<g id="edge16" class="edge"><title>Node1&#45;&gt;Node11</title>
<path fill="none" stroke="midnightblue" d="M72.1759,-60.4757C80.3761,-59.1441 89.1106,-57.7256 97.6395,-56.3406"/>
<polygon fill="midnightblue" stroke="midnightblue" points="71.44,-57.0493 62.1304,-62.107 72.5622,-63.9588 71.44,-57.0493"/>
</g>
<!-- Node16 -->
<g id="node16" class="node"><title>Node16</title>
<g id="a_node16"><a xlink:href="element_8h.html#a1a00d843176baba36fcdf77c6c37d6f8" target="_top" xlink:title="element_alloc">
<polygon fill="none" stroke="black" points="111.5,-0.5 111.5,-19.5 188.5,-19.5 188.5,-0.5 111.5,-0.5"/>
<text text-anchor="middle" x="150" y="-7.5" font-family="Helvetica,sans-Serif" font-size="10.00">element_alloc</text>
</a>
</g>
</g>
<!-- Node1&#45;&gt;Node16 -->
<g id="edge21" class="edge"><title>Node1&#45;&gt;Node16</title>
<path fill="none" stroke="midnightblue" d="M55.832,-51.9978C68.1582,-44.5706 83.6025,-35.7695 98,-29 105.268,-25.5827 113.332,-22.34 120.862,-19.5328"/>
<polygon fill="midnightblue" stroke="midnightblue" points="53.7846,-49.1474 47.0828,-57.3533 57.4391,-55.1177 53.7846,-49.1474"/>
</g>
<!-- Node3 -->
<g id="node3" class="node"><title>Node3</title>
<g id="a_node3"><a xlink:href="bayes_8c.html#aa39a74293929705f5dfd47a76641d12a" target="_top" xlink:title="score">
<polygon fill="none" stroke="black" points="550.5,-152.5 550.5,-171.5 591.5,-171.5 591.5,-152.5 550.5,-152.5"/>
<text text-anchor="middle" x="571" y="-159.5" font-family="Helvetica,sans-Serif" font-size="10.00">score</text>
</a>
</g>
</g>
<!-- Node2&#45;&gt;Node3 -->
<g id="edge2" class="edge"><title>Node2&#45;&gt;Node3</title>
<path fill="none" stroke="midnightblue" d="M492.119,-136.705C511.7,-143.065 534.546,-150.485 550.409,-155.637"/>
<polygon fill="midnightblue" stroke="midnightblue" points="493.116,-133.349 482.524,-133.589 490.954,-140.007 493.116,-133.349"/>
</g>
<!-- Node4 -->
<g id="node4" class="node"><title>Node4</title>
<g id="a_node4"><a xlink:href="bayes_8c.html#a40c5c0b0d4eb7b59a91108269f69dc89" target="_top" xlink:title="MAIN">
<polygon fill="none" stroke="black" points="884,-152.5 884,-171.5 926,-171.5 926,-152.5 884,-152.5"/>
<text text-anchor="middle" x="905" y="-159.5" font-family="Helvetica,sans-Serif" font-size="10.00">MAIN</text>
</a>
</g>
</g>
<!-- Node2&#45;&gt;Node4 -->
<g id="edge10" class="edge"><title>Node2&#45;&gt;Node4</title>
<path fill="none" stroke="midnightblue" d="M497.84,-126.425C553.343,-129.566 650.731,-135.535 734,-143 788.278,-147.866 852.089,-155.518 883.879,-159.462"/>
<polygon fill="midnightblue" stroke="midnightblue" points="497.827,-122.919 487.646,-125.853 497.434,-129.908 497.827,-122.919"/>
</g>
<!-- Node3&#45;&gt;Node4 -->
<g id="edge3" class="edge"><title>Node3&#45;&gt;Node4</title>
<path fill="none" stroke="midnightblue" d="M588.695,-178.703C603.775,-192.52 627.331,-211.11 652,-219 734.971,-245.535 767.668,-252.692 848,-219 871.027,-209.342 889.358,-185.086 898.212,-171.535"/>
<polygon fill="midnightblue" stroke="midnightblue" points="590.896,-175.966 581.235,-171.616 586.074,-181.041 590.896,-175.966"/>
</g>
<!-- Node5 -->
<g id="node5" class="node"><title>Node5</title>
<g id="a_node5"><a xlink:href="learner_8c.html#a5a45fbc491ab273140631145a6e82e54" target="_top" xlink:title="createTaskList">
<polygon fill="none" stroke="black" points="652.5,-190.5 652.5,-209.5 733.5,-209.5 733.5,-190.5 652.5,-190.5"/>
<text text-anchor="middle" x="693" y="-197.5" font-family="Helvetica,sans-Serif" font-size="10.00">createTaskList</text>
</a>
</g>
</g>
<!-- Node3&#45;&gt;Node5 -->
<g id="edge4" class="edge"><title>Node3&#45;&gt;Node5</title>
<path fill="none" stroke="midnightblue" d="M601.126,-171.223C619.467,-177.031 643.098,-184.514 661.664,-190.394"/>
<polygon fill="midnightblue" stroke="midnightblue" points="602.137,-167.872 591.547,-168.19 600.024,-174.546 602.137,-167.872"/>
</g>
<!-- Node7 -->
<g id="node7" class="node"><title>Node7</title>
<g id="a_node7"><a xlink:href="learner_8h.html#a643517a90c64064dfb94cb9cb8d6eddf" target="_top" xlink:title="learner_score">
<polygon fill="none" stroke="black" points="655.5,-152.5 655.5,-171.5 730.5,-171.5 730.5,-152.5 655.5,-152.5"/>
<text text-anchor="middle" x="693" y="-159.5" font-family="Helvetica,sans-Serif" font-size="10.00">learner_score</text>
</a>
</g>
</g>
<!-- Node3&#45;&gt;Node7 -->
<g id="edge7" class="edge"><title>Node3&#45;&gt;Node7</title>
<path fill="none" stroke="midnightblue" d="M601.591,-156.089C617.879,-155.105 638.231,-154.987 655.5,-155.733"/>
<polygon fill="midnightblue" stroke="midnightblue" points="601.25,-152.604 591.547,-156.859 601.786,-159.584 601.25,-152.604"/>
</g>
<!-- Node6 -->
<g id="node6" class="node"><title>Node6</title>
<g id="a_node6"><a xlink:href="learner_8h.html#a23d451d4d355a14fa7c9735304ba4d95" target="_top" xlink:title="learner_run">
<polygon fill="none" stroke="black" points="776.5,-190.5 776.5,-209.5 841.5,-209.5 841.5,-190.5 776.5,-190.5"/>
<text text-anchor="middle" x="809" y="-197.5" font-family="Helvetica,sans-Serif" font-size="10.00">learner_run</text>
</a>
</g>
</g>
<!-- Node5&#45;&gt;Node6 -->
<g id="edge5" class="edge"><title>Node5&#45;&gt;Node6</title>
<path fill="none" stroke="midnightblue" d="M743.616,-200C754.746,-200 766.258,-200 776.416,-200"/>
<polygon fill="midnightblue" stroke="midnightblue" points="743.552,-196.5 733.552,-200 743.552,-203.5 743.552,-196.5"/>
</g>
<!-- Node6&#45;&gt;Node4 -->
<g id="edge6" class="edge"><title>Node6&#45;&gt;Node4</title>
<path fill="none" stroke="midnightblue" d="M843.212,-186.574C856.753,-181.1 871.97,-174.948 883.791,-170.169"/>
<polygon fill="midnightblue" stroke="midnightblue" points="841.679,-183.418 833.72,-190.411 844.303,-189.908 841.679,-183.418"/>
</g>
<!-- Node7&#45;&gt;Node3 -->
<g id="edge8" class="edge"><title>Node7&#45;&gt;Node3</title>
<path fill="none" stroke="midnightblue" d="M645.346,-168.599C626.642,-169.028 606.116,-168.542 591.547,-167.141"/>
<polygon fill="midnightblue" stroke="midnightblue" points="645.62,-172.092 655.5,-168.267 645.39,-165.096 645.62,-172.092"/>
</g>
<!-- Node7&#45;&gt;Node4 -->
<g id="edge9" class="edge"><title>Node7&#45;&gt;Node4</title>
<path fill="none" stroke="midnightblue" d="M740.665,-162C785.557,-162 851.29,-162 883.989,-162"/>
<polygon fill="midnightblue" stroke="midnightblue" points="740.579,-158.5 730.579,-162 740.579,-165.5 740.579,-158.5"/>
</g>
<!-- Node9 -->
<g id="node9" class="node"><title>Node9</title>
<g id="a_node9"><a xlink:href="net_8h.html#a0e1584818d0f7bb3619e74222bc3f918" target="_top" xlink:title="net_alloc">
<polygon fill="none" stroke="black" points="280,-76.5 280,-95.5 336,-95.5 336,-76.5 280,-76.5"/>
<text text-anchor="middle" x="308" y="-83.5" font-family="Helvetica,sans-Serif" font-size="10.00">net_alloc</text>
</a>
</g>
</g>
<!-- Node8&#45;&gt;Node9 -->
<g id="edge12" class="edge"><title>Node8&#45;&gt;Node9</title>
<path fill="none" stroke="midnightblue" d="M190.577,-86C218.513,-86 255.214,-86 279.877,-86"/>
<polygon fill="midnightblue" stroke="midnightblue" points="190.342,-82.5001 180.342,-86 190.342,-89.5001 190.342,-82.5001"/>
</g>
<!-- Node9&#45;&gt;Node2 -->
<g id="edge15" class="edge"><title>Node9&#45;&gt;Node2</title>
<path fill="none" stroke="midnightblue" d="M345.896,-95.8735C367.613,-101.685 394.914,-108.991 416.248,-114.7"/>
<polygon fill="midnightblue" stroke="midnightblue" points="346.608,-92.4411 336.043,-93.237 344.799,-99.2032 346.608,-92.4411"/>
</g>
<!-- Node10 -->
<g id="node10" class="node"><title>Node10</title>
<g id="a_node10"><a xlink:href="data_8h.html#a0f45b98c6cac17904d9daf25fbdc1dc9" target="_top" xlink:title="data_generate">
<polygon fill="none" stroke="black" points="770,-76.5 770,-95.5 848,-95.5 848,-76.5 770,-76.5"/>
<text text-anchor="middle" x="809" y="-83.5" font-family="Helvetica,sans-Serif" font-size="10.00">data_generate</text>
</a>
</g>
</g>
<!-- Node9&#45;&gt;Node10 -->
<g id="edge13" class="edge"><title>Node9&#45;&gt;Node10</title>
<path fill="none" stroke="midnightblue" d="M346.454,-86C438.848,-86 676.876,-86 769.921,-86"/>
<polygon fill="midnightblue" stroke="midnightblue" points="346.183,-82.5001 336.183,-86 346.183,-89.5001 346.183,-82.5001"/>
</g>
<!-- Node10&#45;&gt;Node4 -->
<g id="edge14" class="edge"><title>Node10&#45;&gt;Node4</title>
<path fill="none" stroke="midnightblue" d="M835.359,-101.094C839.671,-103.92 844.035,-106.949 848,-110 865.455,-123.431 883.819,-141.308 894.574,-152.218"/>
<polygon fill="midnightblue" stroke="midnightblue" points="837.044,-98.0191 826.72,-95.6367 833.305,-103.937 837.044,-98.0191"/>
</g>
<!-- Node12 -->
<g id="node12" class="node"><title>Node12</title>
<g id="a_node12"><a xlink:href="manager_8h.html#a065147f4828a2f8104c450af70f20371" target="_top" xlink:title="manager_addCustomer_seq">
<polygon fill="none" stroke="black" points="238.5,-38.5 238.5,-57.5 377.5,-57.5 377.5,-38.5 238.5,-38.5"/>
<text text-anchor="middle" x="308" y="-45.5" font-family="Helvetica,sans-Serif" font-size="10.00">manager_addCustomer_seq</text>
</a>
</g>
</g>
<!-- Node11&#45;&gt;Node12 -->
<g id="edge17" class="edge"><title>Node11&#45;&gt;Node12</title>
<path fill="none" stroke="midnightblue" d="M212.294,-48C220.804,-48 229.593,-48 238.228,-48"/>
<polygon fill="midnightblue" stroke="midnightblue" points="212.08,-44.5001 202.08,-48 212.08,-51.5001 212.08,-44.5001"/>
</g>
<!-- Node13 -->
<g id="node13" class="node"><title>Node13</title>
<g id="a_node13"><a xlink:href="vacation_8c.html#a71a90924e6bac2c48cdfc1153b33084b" target="_top" xlink:title="addCustomer">
<polygon fill="none" stroke="black" points="414.5,-38.5 414.5,-57.5 489.5,-57.5 489.5,-38.5 414.5,-38.5"/>
<text text-anchor="middle" x="452" y="-45.5" font-family="Helvetica,sans-Serif" font-size="10.00">addCustomer</text>
</a>
</g>
</g>
<!-- Node12&#45;&gt;Node13 -->
<g id="edge18" class="edge"><title>Node12&#45;&gt;Node13</title>
<path fill="none" stroke="midnightblue" d="M387.669,-48C397,-48 406.153,-48 414.472,-48"/>
<polygon fill="midnightblue" stroke="midnightblue" points="387.504,-44.5001 377.504,-48 387.504,-51.5001 387.504,-44.5001"/>
</g>
<!-- Node14 -->
<g id="node14" class="node"><title>Node14</title>
<g id="a_node14"><a xlink:href="vacation_8c.html#a50cbd725eec0f7508965d533f2dadf44" target="_top" xlink:title="initializeManager">
<polygon fill="none" stroke="black" points="526.5,-38.5 526.5,-57.5 615.5,-57.5 615.5,-38.5 526.5,-38.5"/>
<text text-anchor="middle" x="571" y="-45.5" font-family="Helvetica,sans-Serif" font-size="10.00">initializeManager</text>
</a>
</g>
</g>
<!-- Node13&#45;&gt;Node14 -->
<g id="edge19" class="edge"><title>Node13&#45;&gt;Node14</title>
<path fill="none" stroke="midnightblue" d="M499.807,-48C508.605,-48 517.77,-48 526.463,-48"/>
<polygon fill="midnightblue" stroke="midnightblue" points="499.699,-44.5001 489.699,-48 499.698,-51.5001 499.699,-44.5001"/>
</g>
<!-- Node15 -->
<g id="node15" class="node"><title>Node15</title>
<g id="a_node15"><a xlink:href="vacation_8c.html#a40c5c0b0d4eb7b59a91108269f69dc89" target="_top" xlink:title="MAIN">
<polygon fill="none" stroke="black" points="672,-38.5 672,-57.5 714,-57.5 714,-38.5 672,-38.5"/>
<text text-anchor="middle" x="693" y="-45.5" font-family="Helvetica,sans-Serif" font-size="10.00">MAIN</text>
</a>
</g>
</g>
<!-- Node14&#45;&gt;Node15 -->
<g id="edge20" class="edge"><title>Node14&#45;&gt;Node15</title>
<path fill="none" stroke="midnightblue" d="M625.714,-48C642.059,-48 659.033,-48 671.713,-48"/>
<polygon fill="midnightblue" stroke="midnightblue" points="625.662,-44.5001 615.662,-48 625.662,-51.5001 625.662,-44.5001"/>
</g>
<!-- Node17 -->
<g id="node17" class="node"><title>Node17</title>
<g id="a_node17"><a xlink:href="mesh_8c.html#a0351e3ec738e05a319ead0e2e44353d0" target="_top" xlink:title="createElement">
<polygon fill="none" stroke="black" points="268,-0.5 268,-19.5 348,-19.5 348,-0.5 268,-0.5"/>
<text text-anchor="middle" x="308" y="-7.5" font-family="Helvetica,sans-Serif" font-size="10.00">createElement</text>
</a>
</g>
</g>
<!-- Node16&#45;&gt;Node17 -->
<g id="edge22" class="edge"><title>Node16&#45;&gt;Node17</title>
<path fill="none" stroke="midnightblue" d="M198.958,-10C221.093,-10 247.039,-10 267.955,-10"/>
<polygon fill="midnightblue" stroke="midnightblue" points="198.763,-6.5001 188.763,-10 198.763,-13.5001 198.763,-6.5001"/>
</g>
<!-- Node18 -->
<g id="node18" class="node"><title>Node18</title>
<g id="a_node18"><a xlink:href="mesh_8h.html#a0ee17a9bc1b62a498c98f8e0dc41d902" target="_top" xlink:title="mesh_read">
<polygon fill="none" stroke="black" points="419.5,-0.5 419.5,-19.5 484.5,-19.5 484.5,-0.5 419.5,-0.5"/>
<text text-anchor="middle" x="452" y="-7.5" font-family="Helvetica,sans-Serif" font-size="10.00">mesh_read</text>
</a>
</g>
</g>
<!-- Node17&#45;&gt;Node18 -->
<g id="edge23" class="edge"><title>Node17&#45;&gt;Node18</title>
<path fill="none" stroke="midnightblue" d="M358.432,-10C378.562,-10 401.246,-10 419.121,-10"/>
<polygon fill="midnightblue" stroke="midnightblue" points="358.178,-6.5001 348.178,-10 358.178,-13.5001 358.178,-6.5001"/>
</g>
<!-- Node19 -->
<g id="node19" class="node"><title>Node19</title>
<g id="a_node19"><a xlink:href="yada_8c.html#a40c5c0b0d4eb7b59a91108269f69dc89" target="_top" xlink:title="MAIN">
<polygon fill="none" stroke="black" points="550,-0.5 550,-19.5 592,-19.5 592,-0.5 550,-0.5"/>
<text text-anchor="middle" x="571" y="-7.5" font-family="Helvetica,sans-Serif" font-size="10.00">MAIN</text>
</a>
</g>
</g>
<!-- Node18&#45;&gt;Node19 -->
<g id="edge24" class="edge"><title>Node18&#45;&gt;Node19</title>
<path fill="none" stroke="midnightblue" d="M494.734,-10C513.425,-10 534.608,-10 549.73,-10"/>
<polygon fill="midnightblue" stroke="midnightblue" points="494.662,-6.5001 484.662,-10 494.662,-13.5001 494.662,-6.5001"/>
</g>
</g>
</svg>
