<?xml version="1.0" encoding="UTF-8" standalone="no"?>
<!DOCTYPE svg PUBLIC "-//W3C//DTD SVG 1.1//EN"
 "http://www.w3.org/Graphics/SVG/1.1/DTD/svg11.dtd">
<!-- Generated by graphviz version 2.36.0 (20140111.2315)
 -->
<!-- Title: TMfreeList Pages: 1 -->
<svg width="178pt" height="66pt"
 viewBox="0.00 0.00 178.00 66.00" xmlns="http://www.w3.org/2000/svg" xmlns:xlink="http://www.w3.org/1999/xlink">
<g id="graph0" class="graph" transform="scale(1 1) rotate(0) translate(4 62)">
<title>TMfreeList</title>
<!-- Node1 -->
<g id="node1" class="node"><title>Node1</title>
<polygon fill="#bfbfbf" stroke="black" points="0.5,-19.5 0.5,-38.5 63.5,-38.5 63.5,-19.5 0.5,-19.5"/>
<text text-anchor="middle" x="32" y="-26.5" font-family="Helvetica,sans-Serif" font-size="10.00">TMfreeList</text>
</g>
<!-- Node2 -->
<g id="node2" class="node"><title>Node2</title>
<g id="a_node2"><a xlink:href="list_8h.html#acbdaeb0540d50af3ce833902e4bba7ce" target="_top" xlink:title="TMlist_free">
<polygon fill="none" stroke="black" points="102.5,-38.5 102.5,-57.5 167.5,-57.5 167.5,-38.5 102.5,-38.5"/>
<text text-anchor="middle" x="135" y="-45.5" font-family="Helvetica,sans-Serif" font-size="10.00">TMlist_free</text>
</a>
</g>
</g>
<!-- Node1&#45;&gt;Node2 -->
<g id="edge1" class="edge"><title>Node1&#45;&gt;Node2</title>
<path fill="none" stroke="midnightblue" d="M73.4096,-36.6018C83.0838,-38.4217 93.273,-40.3385 102.478,-42.0701"/>
<polygon fill="midnightblue" stroke="midnightblue" points="74.0521,-33.1614 63.5774,-34.7522 72.7579,-40.0407 74.0521,-33.1614"/>
</g>
<!-- Node3 -->
<g id="node3" class="node"><title>Node3</title>
<g id="a_node3"><a xlink:href="list_8h.html#af4517c04a0fdb15b838f8f3f2afd7de9" target="_top" xlink:title="TMlist_clear">
<polygon fill="none" stroke="black" points="100,-0.5 100,-19.5 170,-19.5 170,-0.5 100,-0.5"/>
<text text-anchor="middle" x="135" y="-7.5" font-family="Helvetica,sans-Serif" font-size="10.00">TMlist_clear</text>
</a>
</g>
</g>
<!-- Node1&#45;&gt;Node3 -->
<g id="edge2" class="edge"><title>Node1&#45;&gt;Node3</title>
<path fill="none" stroke="midnightblue" d="M73.5999,-21.3624C82.356,-19.7152 91.5253,-17.9903 99.9985,-16.3963"/>
<polygon fill="midnightblue" stroke="midnightblue" points="72.7579,-17.9593 63.5774,-23.2478 74.0521,-24.8386 72.7579,-17.9593"/>
</g>
</g>
</svg>
