<?xml version="1.0" encoding="UTF-8" standalone="no"?>
<!DOCTYPE svg PUBLIC "-//W3C//DTD SVG 1.1//EN"
 "http://www.w3.org/Graphics/SVG/1.1/DTD/svg11.dtd">
<!-- Generated by graphviz version 2.36.0 (20140111.2315)
 -->
<!-- Title: Plist_clear Pages: 1 -->
<svg width="262pt" height="28pt"
 viewBox="0.00 0.00 262.00 28.00" xmlns="http://www.w3.org/2000/svg" xmlns:xlink="http://www.w3.org/1999/xlink">
<g id="graph0" class="graph" transform="scale(1 1) rotate(0) translate(4 24)">
<title>Plist_clear</title>
<!-- Node1 -->
<g id="node1" class="node"><title>Node1</title>
<polygon fill="#bfbfbf" stroke="black" points="0,-0.5 0,-19.5 62,-19.5 62,-0.5 0,-0.5"/>
<text text-anchor="middle" x="31" y="-7.5" font-family="Helvetica,sans-Serif" font-size="10.00">Plist_clear</text>
</g>
<!-- Node2 -->
<g id="node2" class="node"><title>Node2</title>
<g id="a_node2"><a xlink:href="list_8c.html#a6b1a80c1e3dd7162630ac048d37c4c2c" target="_top" xlink:title="PfreeList">
<polygon fill="none" stroke="black" points="98,-0.5 98,-19.5 154,-19.5 154,-0.5 98,-0.5"/>
<text text-anchor="middle" x="126" y="-7.5" font-family="Helvetica,sans-Serif" font-size="10.00">PfreeList</text>
</a>
</g>
</g>
<!-- Node1&#45;&gt;Node2 -->
<g id="edge1" class="edge"><title>Node1&#45;&gt;Node2</title>
<path fill="none" stroke="midnightblue" d="M62.1944,-10C70.3391,-10 79.2479,-10 87.7298,-10"/>
<polygon fill="midnightblue" stroke="midnightblue" points="87.7841,-13.5001 97.784,-10 87.784,-6.5001 87.7841,-13.5001"/>
</g>
<!-- Node3 -->
<g id="node3" class="node"><title>Node3</title>
<g id="a_node3"><a xlink:href="list_8c.html#aa0d20e134da87470791d0621d655d31e" target="_top" xlink:title="PfreeNode">
<polygon fill="none" stroke="black" points="190.5,-0.5 190.5,-19.5 253.5,-19.5 253.5,-0.5 190.5,-0.5"/>
<text text-anchor="middle" x="222" y="-7.5" font-family="Helvetica,sans-Serif" font-size="10.00">PfreeNode</text>
</a>
</g>
</g>
<!-- Node2&#45;&gt;Node3 -->
<g id="edge2" class="edge"><title>Node2&#45;&gt;Node3</title>
<path fill="none" stroke="midnightblue" d="M154.189,-10C162.295,-10 171.364,-10 180.141,-10"/>
<polygon fill="midnightblue" stroke="midnightblue" points="180.237,-13.5001 190.237,-10 180.237,-6.5001 180.237,-13.5001"/>
</g>
</g>
</svg>
