<?xml version="1.0" encoding="UTF-8" standalone="no"?>
<!DOCTYPE svg PUBLIC "-//W3C//DTD SVG 1.1//EN"
 "http://www.w3.org/Graphics/SVG/1.1/DTD/svg11.dtd">
<!-- Generated by graphviz version 2.36.0 (20140111.2315)
 -->
<!-- Title: TMlist_clear Pages: 1 -->
<svg width="286pt" height="28pt"
 viewBox="0.00 0.00 286.00 28.00" xmlns="http://www.w3.org/2000/svg" xmlns:xlink="http://www.w3.org/1999/xlink">
<g id="graph0" class="graph" transform="scale(1 1) rotate(0) translate(4 24)">
<title>TMlist_clear</title>
<!-- Node1 -->
<g id="node1" class="node"><title>Node1</title>
<polygon fill="#bfbfbf" stroke="black" points="0,-0.5 0,-19.5 70,-19.5 70,-0.5 0,-0.5"/>
<text text-anchor="middle" x="35" y="-7.5" font-family="Helvetica,sans-Serif" font-size="10.00">TMlist_clear</text>
</g>
<!-- Node2 -->
<g id="node2" class="node"><title>Node2</title>
<g id="a_node2"><a xlink:href="list_8c.html#a048f102e50784dd0668b7ff6db6e1f3b" target="_top" xlink:title="TMfreeList">
<polygon fill="none" stroke="black" points="106.5,-0.5 106.5,-19.5 169.5,-19.5 169.5,-0.5 106.5,-0.5"/>
<text text-anchor="middle" x="138" y="-7.5" font-family="Helvetica,sans-Serif" font-size="10.00">TMfreeList</text>
</a>
</g>
</g>
<!-- Node1&#45;&gt;Node2 -->
<g id="edge1" class="edge"><title>Node1&#45;&gt;Node2</title>
<path fill="none" stroke="midnightblue" d="M70.194,-10C78.4939,-10 87.4521,-10 96.0296,-10"/>
<polygon fill="midnightblue" stroke="midnightblue" points="96.2338,-13.5001 106.234,-10 96.2337,-6.5001 96.2338,-13.5001"/>
</g>
<!-- Node3 -->
<g id="node3" class="node"><title>Node3</title>
<g id="a_node3"><a xlink:href="list_8c.html#afa945682e445397e0a5195b009042791" target="_top" xlink:title="TMfreeNode">
<polygon fill="none" stroke="black" points="206.5,-0.5 206.5,-19.5 277.5,-19.5 277.5,-0.5 206.5,-0.5"/>
<text text-anchor="middle" x="242" y="-7.5" font-family="Helvetica,sans-Serif" font-size="10.00">TMfreeNode</text>
</a>
</g>
</g>
<!-- Node2&#45;&gt;Node3 -->
<g id="edge2" class="edge"><title>Node2&#45;&gt;Node3</title>
<path fill="none" stroke="midnightblue" d="M169.603,-10C178.045,-10 187.38,-10 196.439,-10"/>
<polygon fill="midnightblue" stroke="midnightblue" points="196.487,-13.5001 206.487,-10 196.487,-6.5001 196.487,-13.5001"/>
</g>
</g>
</svg>
