<?xml version="1.0" encoding="UTF-8" standalone="no"?>
<!DOCTYPE svg PUBLIC "-//W3C//DTD SVG 1.1//EN"
 "http://www.w3.org/Graphics/SVG/1.1/DTD/svg11.dtd">
<!-- Generated by graphviz version 2.36.0 (20140111.2315)
 -->
<!-- Title: do_full_delete Pages: 1 -->
<svg width="342pt" height="104pt"
 viewBox="0.00 0.00 342.00 104.00" xmlns="http://www.w3.org/2000/svg" xmlns:xlink="http://www.w3.org/1999/xlink">
<g id="graph0" class="graph" transform="scale(1 1) rotate(0) translate(4 100)">
<title>do_full_delete</title>
<!-- Node1 -->
<g id="node1" class="node"><title>Node1</title>
<polygon fill="#bfbfbf" stroke="black" points="0.5,-38.5 0.5,-57.5 77.5,-57.5 77.5,-38.5 0.5,-38.5"/>
<text text-anchor="middle" x="39" y="-45.5" font-family="Helvetica,sans-Serif" font-size="10.00">do_full_delete</text>
</g>
<!-- Node2 -->
<g id="node2" class="node"><title>Node2</title>
<g id="a_node2"><a xlink:href="lockfreeskip_8h.html#ae4d4144644d817c1c038bdda714a16c7" target="_top" xlink:title="set_update">
<polygon fill="none" stroke="black" points="115.5,-57.5 115.5,-76.5 180.5,-76.5 180.5,-57.5 115.5,-57.5"/>
<text text-anchor="middle" x="148" y="-64.5" font-family="Helvetica,sans-Serif" font-size="10.00">set_update</text>
</a>
</g>
</g>
<!-- Node1&#45;&gt;Node2 -->
<g id="edge1" class="edge"><title>Node1&#45;&gt;Node2</title>
<path fill="none" stroke="midnightblue" d="M87.7081,-56.4715C97.0454,-58.1296 106.621,-59.8299 115.279,-61.3673"/>
<polygon fill="midnightblue" stroke="midnightblue" points="88.1821,-53.001 77.7242,-54.6987 86.9582,-59.8932 88.1821,-53.001"/>
</g>
<!-- Node5 -->
<g id="node5" class="node"><title>Node5</title>
<g id="a_node5"><a xlink:href="lockfreeskip_8h.html#aa995b64d64a390fcb661ae5c92241d61" target="_top" xlink:title="set_remove">
<polygon fill="none" stroke="black" points="114,-19.5 114,-38.5 182,-38.5 182,-19.5 114,-19.5"/>
<text text-anchor="middle" x="148" y="-26.5" font-family="Helvetica,sans-Serif" font-size="10.00">set_remove</text>
</a>
</g>
</g>
<!-- Node1&#45;&gt;Node5 -->
<g id="edge4" class="edge"><title>Node1&#45;&gt;Node5</title>
<path fill="none" stroke="midnightblue" d="M87.5971,-39.5482C96.471,-37.9724 105.564,-36.3577 113.884,-34.8804"/>
<polygon fill="midnightblue" stroke="midnightblue" points="86.9582,-36.1068 77.7242,-41.3013 88.1821,-42.999 86.9582,-36.1068"/>
</g>
<!-- Node3 -->
<g id="node3" class="node"><title>Node3</title>
<g id="a_node3"><a xlink:href="classBoostingSkip.html#ae0ddab9bd1e3d1972fc8bcaa74a9ed81" target="_top" xlink:title="BoostingSkip::Insert">
<polygon fill="none" stroke="black" points="223.5,-76.5 223.5,-95.5 328.5,-95.5 328.5,-76.5 223.5,-76.5"/>
<text text-anchor="middle" x="276" y="-83.5" font-family="Helvetica,sans-Serif" font-size="10.00">BoostingSkip::Insert</text>
</a>
</g>
</g>
<!-- Node2&#45;&gt;Node3 -->
<g id="edge2" class="edge"><title>Node2&#45;&gt;Node3</title>
<path fill="none" stroke="midnightblue" d="M190.803,-73.3036C201.147,-74.8635 212.354,-76.5534 223.115,-78.176"/>
<polygon fill="midnightblue" stroke="midnightblue" points="191.205,-69.8248 180.795,-71.7945 190.161,-76.7465 191.205,-69.8248"/>
</g>
<!-- Node4 -->
<g id="node4" class="node"><title>Node4</title>
<g id="a_node4"><a xlink:href="classBoostingSkip.html#ac9bf8693a172f366ae733c5a78804071" target="_top" xlink:title="BoostingSkip::OnAbort">
<polygon fill="none" stroke="black" points="218,-38.5 218,-57.5 334,-57.5 334,-38.5 218,-38.5"/>
<text text-anchor="middle" x="276" y="-45.5" font-family="Helvetica,sans-Serif" font-size="10.00">BoostingSkip::OnAbort</text>
</a>
</g>
</g>
<!-- Node2&#45;&gt;Node4 -->
<g id="edge3" class="edge"><title>Node2&#45;&gt;Node4</title>
<path fill="none" stroke="midnightblue" d="M190.924,-60.6781C199.51,-59.3835 208.685,-57.9999 217.703,-56.64"/>
<polygon fill="midnightblue" stroke="midnightblue" points="190.161,-57.2535 180.795,-62.2055 191.205,-64.1752 190.161,-57.2535"/>
</g>
<!-- Node5&#45;&gt;Node4 -->
<g id="edge6" class="edge"><title>Node5&#45;&gt;Node4</title>
<path fill="none" stroke="midnightblue" d="M192.211,-35.5159C200.439,-36.7567 209.169,-38.0731 217.755,-39.3678"/>
<polygon fill="midnightblue" stroke="midnightblue" points="192.515,-32.0223 182.105,-33.992 191.471,-38.9441 192.515,-32.0223"/>
</g>
<!-- Node6 -->
<g id="node6" class="node"><title>Node6</title>
<g id="a_node6"><a xlink:href="classBoostingSkip.html#ab1f1f0ba800de912c42ec328767c4685" target="_top" xlink:title="BoostingSkip::Delete">
<polygon fill="none" stroke="black" points="221.5,-0.5 221.5,-19.5 330.5,-19.5 330.5,-0.5 221.5,-0.5"/>
<text text-anchor="middle" x="276" y="-7.5" font-family="Helvetica,sans-Serif" font-size="10.00">BoostingSkip::Delete</text>
</a>
</g>
</g>
<!-- Node5&#45;&gt;Node6 -->
<g id="edge5" class="edge"><title>Node5&#45;&gt;Node6</title>
<path fill="none" stroke="midnightblue" d="M192.284,-22.473C201.584,-21.0707 211.521,-19.5723 221.165,-18.118"/>
<polygon fill="midnightblue" stroke="midnightblue" points="191.471,-19.0559 182.105,-24.008 192.515,-25.9777 191.471,-19.0559"/>
</g>
</g>
</svg>
