<?xml version="1.0" encoding="UTF-8" standalone="no"?>
<!DOCTYPE svg PUBLIC "-//W3C//DTD SVG 1.1//EN"
 "http://www.w3.org/Graphics/SVG/1.1/DTD/svg11.dtd">
<!-- Generated by graphviz version 2.36.0 (20140111.2315)
 -->
<!-- Title: get_level Pages: 1 -->
<svg width="418pt" height="66pt"
 viewBox="0.00 0.00 418.00 66.00" xmlns="http://www.w3.org/2000/svg" xmlns:xlink="http://www.w3.org/1999/xlink">
<g id="graph0" class="graph" transform="scale(1 1) rotate(0) translate(4 62)">
<title>get_level</title>
<!-- Node1 -->
<g id="node1" class="node"><title>Node1</title>
<polygon fill="#bfbfbf" stroke="black" points="0,-19.5 0,-38.5 56,-38.5 56,-19.5 0,-19.5"/>
<text text-anchor="middle" x="28" y="-26.5" font-family="Helvetica,sans-Serif" font-size="10.00">get_level</text>
</g>
<!-- Node2 -->
<g id="node2" class="node"><title>Node2</title>
<g id="a_node2"><a xlink:href="lockfreeskip_8c.html#aaebbe09bfcc49916e869df817e0ef5f2" target="_top" xlink:title="alloc_node">
<polygon fill="none" stroke="black" points="92.5,-19.5 92.5,-38.5 155.5,-38.5 155.5,-19.5 92.5,-19.5"/>
<text text-anchor="middle" x="124" y="-26.5" font-family="Helvetica,sans-Serif" font-size="10.00">alloc_node</text>
</a>
</g>
</g>
<!-- Node1&#45;&gt;Node2 -->
<g id="edge1" class="edge"><title>Node1&#45;&gt;Node2</title>
<path fill="none" stroke="midnightblue" d="M66.3545,-29C74.9378,-29 83.9696,-29 92.2371,-29"/>
<polygon fill="midnightblue" stroke="midnightblue" points="66.1887,-25.5001 56.1887,-29 66.1887,-32.5001 66.1887,-25.5001"/>
</g>
<!-- Node3 -->
<g id="node3" class="node"><title>Node3</title>
<g id="a_node3"><a xlink:href="lockfreeskip_8h.html#ae4d4144644d817c1c038bdda714a16c7" target="_top" xlink:title="set_update">
<polygon fill="none" stroke="black" points="192.5,-19.5 192.5,-38.5 257.5,-38.5 257.5,-19.5 192.5,-19.5"/>
<text text-anchor="middle" x="225" y="-26.5" font-family="Helvetica,sans-Serif" font-size="10.00">set_update</text>
</a>
</g>
</g>
<!-- Node2&#45;&gt;Node3 -->
<g id="edge2" class="edge"><title>Node2&#45;&gt;Node3</title>
<path fill="none" stroke="midnightblue" d="M165.71,-29C174.613,-29 183.908,-29 192.392,-29"/>
<polygon fill="midnightblue" stroke="midnightblue" points="165.511,-25.5001 155.511,-29 165.511,-32.5001 165.511,-25.5001"/>
</g>
<!-- Node4 -->
<g id="node4" class="node"><title>Node4</title>
<g id="a_node4"><a xlink:href="classBoostingSkip.html#ae0ddab9bd1e3d1972fc8bcaa74a9ed81" target="_top" xlink:title="BoostingSkip::Insert">
<polygon fill="none" stroke="black" points="299.5,-38.5 299.5,-57.5 404.5,-57.5 404.5,-38.5 299.5,-38.5"/>
<text text-anchor="middle" x="352" y="-45.5" font-family="Helvetica,sans-Serif" font-size="10.00">BoostingSkip::Insert</text>
</a>
</g>
</g>
<!-- Node3&#45;&gt;Node4 -->
<g id="edge3" class="edge"><title>Node3&#45;&gt;Node4</title>
<path fill="none" stroke="midnightblue" d="M267.672,-35.3341C277.722,-36.8618 288.584,-38.5128 299.041,-40.1022"/>
<polygon fill="midnightblue" stroke="midnightblue" points="267.955,-31.8371 257.543,-33.7945 266.903,-38.7576 267.955,-31.8371"/>
</g>
<!-- Node5 -->
<g id="node5" class="node"><title>Node5</title>
<g id="a_node5"><a xlink:href="classBoostingSkip.html#ac9bf8693a172f366ae733c5a78804071" target="_top" xlink:title="BoostingSkip::OnAbort">
<polygon fill="none" stroke="black" points="294,-0.5 294,-19.5 410,-19.5 410,-0.5 294,-0.5"/>
<text text-anchor="middle" x="352" y="-7.5" font-family="Helvetica,sans-Serif" font-size="10.00">BoostingSkip::OnAbort</text>
</a>
</g>
</g>
<!-- Node3&#45;&gt;Node5 -->
<g id="edge4" class="edge"><title>Node3&#45;&gt;Node5</title>
<path fill="none" stroke="midnightblue" d="M267.457,-22.6986C275.857,-21.4217 284.832,-20.0576 293.667,-18.7145"/>
<polygon fill="midnightblue" stroke="midnightblue" points="266.903,-19.2424 257.543,-24.2055 267.955,-26.1629 266.903,-19.2424"/>
</g>
</g>
</svg>
