<?xml version="1.0" encoding="UTF-8" standalone="no"?>
<!DOCTYPE svg PUBLIC "-//W3C//DTD SVG 1.1//EN"
 "http://www.w3.org/Graphics/SVG/1.1/DTD/svg11.dtd">
<!-- Generated by graphviz version 2.36.0 (20140111.2315)
 -->
<!-- Title: get_marked_ref Pages: 1 -->
<svg width="534pt" height="161pt"
 viewBox="0.00 0.00 534.00 161.00" xmlns="http://www.w3.org/2000/svg" xmlns:xlink="http://www.w3.org/1999/xlink">
<g id="graph0" class="graph" transform="scale(1 1) rotate(0) translate(4 157)">
<title>get_marked_ref</title>
<!-- Node1 -->
<g id="node1" class="node"><title>Node1</title>
<polygon fill="#bfbfbf" stroke="black" points="0,-76.5 0,-95.5 84,-95.5 84,-76.5 0,-76.5"/>
<text text-anchor="middle" x="42" y="-83.5" font-family="Helvetica,sans-Serif" font-size="10.00">get_marked_ref</text>
</g>
<!-- Node2 -->
<g id="node2" class="node"><title>Node2</title>
<g id="a_node2"><a xlink:href="classLockfreeList.html#a8be9fbf09485d88165f5a3ff614bb121" target="_top" xlink:title="LockfreeList::Delete">
<polygon fill="none" stroke="black" points="120,-95.5 120,-114.5 224,-114.5 224,-95.5 120,-95.5"/>
<text text-anchor="middle" x="172" y="-102.5" font-family="Helvetica,sans-Serif" font-size="10.00">LockfreeList::Delete</text>
</a>
</g>
</g>
<!-- Node1&#45;&gt;Node2 -->
<g id="edge1" class="edge"><title>Node1&#45;&gt;Node2</title>
<path fill="none" stroke="midnightblue" d="M94.1955,-93.5993C102.542,-94.8383 111.192,-96.1223 119.545,-97.3622"/>
<polygon fill="midnightblue" stroke="midnightblue" points="94.6101,-90.1226 84.2046,-92.1163 93.5823,-97.0467 94.6101,-90.1226"/>
</g>
<!-- Node5 -->
<g id="node5" class="node"><title>Node5</title>
<g id="a_node5"><a xlink:href="lockfreeskip_8c.html#aa90f43c28b73bafc95db43e5b8f3d42d" target="_top" xlink:title="mark_deleted">
<polygon fill="none" stroke="black" points="134.5,-57.5 134.5,-76.5 209.5,-76.5 209.5,-57.5 134.5,-57.5"/>
<text text-anchor="middle" x="172" y="-64.5" font-family="Helvetica,sans-Serif" font-size="10.00">mark_deleted</text>
</a>
</g>
</g>
<!-- Node1&#45;&gt;Node5 -->
<g id="edge4" class="edge"><title>Node1&#45;&gt;Node5</title>
<path fill="none" stroke="midnightblue" d="M94.2348,-78.3948C107.602,-76.4107 121.743,-74.3115 134.197,-72.4629"/>
<polygon fill="midnightblue" stroke="midnightblue" points="93.5823,-74.9533 84.2046,-79.8837 94.6101,-81.8774 93.5823,-74.9533"/>
</g>
<!-- Node3 -->
<g id="node3" class="node"><title>Node3</title>
<g id="a_node3"><a xlink:href="classBoostingList.html#ad0ab949b2089c509eef7e21357080ae0" target="_top" xlink:title="BoostingList::Delete">
<polygon fill="none" stroke="black" points="264.5,-133.5 264.5,-152.5 369.5,-152.5 369.5,-133.5 264.5,-133.5"/>
<text text-anchor="middle" x="317" y="-140.5" font-family="Helvetica,sans-Serif" font-size="10.00">BoostingList::Delete</text>
</a>
</g>
</g>
<!-- Node2&#45;&gt;Node3 -->
<g id="edge2" class="edge"><title>Node2&#45;&gt;Node3</title>
<path fill="none" stroke="midnightblue" d="M218.813,-117.174C238.587,-122.429 261.384,-128.487 279.927,-133.414"/>
<polygon fill="midnightblue" stroke="midnightblue" points="219.648,-113.775 209.085,-114.589 217.851,-120.54 219.648,-113.775"/>
</g>
<!-- Node4 -->
<g id="node4" class="node"><title>Node4</title>
<g id="a_node4"><a xlink:href="classBoostingList.html#add73a97e46b96edaf01a3de3b185fd53" target="_top" xlink:title="BoostingList::OnAbort">
<polygon fill="none" stroke="black" points="260.5,-95.5 260.5,-114.5 373.5,-114.5 373.5,-95.5 260.5,-95.5"/>
<text text-anchor="middle" x="317" y="-102.5" font-family="Helvetica,sans-Serif" font-size="10.00">BoostingList::OnAbort</text>
</a>
</g>
</g>
<!-- Node2&#45;&gt;Node4 -->
<g id="edge3" class="edge"><title>Node2&#45;&gt;Node4</title>
<path fill="none" stroke="midnightblue" d="M234.251,-105C242.9,-105 251.754,-105 260.292,-105"/>
<polygon fill="midnightblue" stroke="midnightblue" points="234.222,-101.5 224.222,-105 234.222,-108.5 234.222,-101.5"/>
</g>
<!-- Node6 -->
<g id="node6" class="node"><title>Node6</title>
<g id="a_node6"><a xlink:href="lockfreeskip_8h.html#ae4d4144644d817c1c038bdda714a16c7" target="_top" xlink:title="set_update">
<polygon fill="none" stroke="black" points="284.5,-57.5 284.5,-76.5 349.5,-76.5 349.5,-57.5 284.5,-57.5"/>
<text text-anchor="middle" x="317" y="-64.5" font-family="Helvetica,sans-Serif" font-size="10.00">set_update</text>
</a>
</g>
</g>
<!-- Node5&#45;&gt;Node6 -->
<g id="edge5" class="edge"><title>Node5&#45;&gt;Node6</title>
<path fill="none" stroke="midnightblue" d="M219.868,-67C240.934,-67 265.25,-67 284.155,-67"/>
<polygon fill="midnightblue" stroke="midnightblue" points="219.826,-63.5001 209.826,-67 219.826,-70.5001 219.826,-63.5001"/>
</g>
<!-- Node9 -->
<g id="node9" class="node"><title>Node9</title>
<g id="a_node9"><a xlink:href="lockfreeskip_8h.html#aa995b64d64a390fcb661ae5c92241d61" target="_top" xlink:title="set_remove">
<polygon fill="none" stroke="black" points="283,-19.5 283,-38.5 351,-38.5 351,-19.5 283,-19.5"/>
<text text-anchor="middle" x="317" y="-26.5" font-family="Helvetica,sans-Serif" font-size="10.00">set_remove</text>
</a>
</g>
</g>
<!-- Node5&#45;&gt;Node9 -->
<g id="edge8" class="edge"><title>Node5&#45;&gt;Node9</title>
<path fill="none" stroke="midnightblue" d="M218.989,-54.7791C239.782,-49.2538 263.887,-42.8482 282.867,-37.8045"/>
<polygon fill="midnightblue" stroke="midnightblue" points="217.851,-51.4601 209.085,-57.411 219.648,-58.2253 217.851,-51.4601"/>
</g>
<!-- Node7 -->
<g id="node7" class="node"><title>Node7</title>
<g id="a_node7"><a xlink:href="classBoostingSkip.html#ae0ddab9bd1e3d1972fc8bcaa74a9ed81" target="_top" xlink:title="BoostingSkip::Insert">
<polygon fill="none" stroke="black" points="415.5,-76.5 415.5,-95.5 520.5,-95.5 520.5,-76.5 415.5,-76.5"/>
<text text-anchor="middle" x="468" y="-83.5" font-family="Helvetica,sans-Serif" font-size="10.00">BoostingSkip::Insert</text>
</a>
</g>
</g>
<!-- Node6&#45;&gt;Node7 -->
<g id="edge6" class="edge"><title>Node6&#45;&gt;Node7</title>
<path fill="none" stroke="midnightblue" d="M359.881,-72.3406C377.064,-74.5316 397.13,-77.0904 415.22,-79.3972"/>
<polygon fill="midnightblue" stroke="midnightblue" points="359.961,-68.8225 349.599,-71.0294 359.076,-75.7663 359.961,-68.8225"/>
</g>
<!-- Node8 -->
<g id="node8" class="node"><title>Node8</title>
<g id="a_node8"><a xlink:href="classBoostingSkip.html#ac9bf8693a172f366ae733c5a78804071" target="_top" xlink:title="BoostingSkip::OnAbort">
<polygon fill="none" stroke="black" points="410,-38.5 410,-57.5 526,-57.5 526,-38.5 410,-38.5"/>
<text text-anchor="middle" x="468" y="-45.5" font-family="Helvetica,sans-Serif" font-size="10.00">BoostingSkip::OnAbort</text>
</a>
</g>
</g>
<!-- Node6&#45;&gt;Node8 -->
<g id="edge7" class="edge"><title>Node6&#45;&gt;Node8</title>
<path fill="none" stroke="midnightblue" d="M359.912,-61.6555C375.412,-59.679 393.257,-57.4035 409.879,-55.2839"/>
<polygon fill="midnightblue" stroke="midnightblue" points="359.076,-58.2337 349.599,-62.9706 359.961,-65.1775 359.076,-58.2337"/>
</g>
<!-- Node9&#45;&gt;Node8 -->
<g id="edge10" class="edge"><title>Node9&#45;&gt;Node8</title>
<path fill="none" stroke="midnightblue" d="M361.179,-34.506C376.329,-36.4379 393.591,-38.6392 409.716,-40.6953"/>
<polygon fill="midnightblue" stroke="midnightblue" points="361.43,-31.0098 351.068,-33.2167 360.545,-37.9536 361.43,-31.0098"/>
</g>
<!-- Node10 -->
<g id="node10" class="node"><title>Node10</title>
<g id="a_node10"><a xlink:href="classBoostingSkip.html#ab1f1f0ba800de912c42ec328767c4685" target="_top" xlink:title="BoostingSkip::Delete">
<polygon fill="none" stroke="black" points="413.5,-0.5 413.5,-19.5 522.5,-19.5 522.5,-0.5 413.5,-0.5"/>
<text text-anchor="middle" x="468" y="-7.5" font-family="Helvetica,sans-Serif" font-size="10.00">BoostingSkip::Delete</text>
</a>
</g>
</g>
<!-- Node9&#45;&gt;Node10 -->
<g id="edge9" class="edge"><title>Node9&#45;&gt;Node10</title>
<path fill="none" stroke="midnightblue" d="M361.342,-23.4732C377.567,-21.4042 396.197,-19.0286 413.25,-16.854"/>
<polygon fill="midnightblue" stroke="midnightblue" points="360.545,-20.0464 351.068,-24.7833 361.43,-26.9902 360.545,-20.0464"/>
</g>
</g>
</svg>
