<?xml version="1.0" encoding="UTF-8" standalone="no"?>
<!DOCTYPE svg PUBLIC "-//W3C//DTD SVG 1.1//EN"
 "http://www.w3.org/Graphics/SVG/1.1/DTD/svg11.dtd">
<!-- Generated by graphviz version 2.36.0 (20140111.2315)
 -->
<!-- Title: do_full_delete Pages: 1 -->
<svg width="806pt" height="123pt"
 viewBox="0.00 0.00 806.00 123.00" xmlns="http://www.w3.org/2000/svg" xmlns:xlink="http://www.w3.org/1999/xlink">
<g id="graph0" class="graph" transform="scale(1 1) rotate(0) translate(4 119)">
<title>do_full_delete</title>
<!-- Node1 -->
<g id="node1" class="node"><title>Node1</title>
<polygon fill="#bfbfbf" stroke="black" points="0.5,-57.5 0.5,-76.5 77.5,-76.5 77.5,-57.5 0.5,-57.5"/>
<text text-anchor="middle" x="39" y="-64.5" font-family="Helvetica,sans-Serif" font-size="10.00">do_full_delete</text>
</g>
<!-- Node2 -->
<g id="node2" class="node"><title>Node2</title>
<g id="a_node2"><a xlink:href="lockfreeskip_8c.html#a5b9ae140c05ded5ef68e086be1c15052" target="_top" xlink:title="strong_search_predecessors">
<polygon fill="none" stroke="black" points="114,-95.5 114,-114.5 256,-114.5 256,-95.5 114,-95.5"/>
<text text-anchor="middle" x="185" y="-102.5" font-family="Helvetica,sans-Serif" font-size="10.00">strong_search_predecessors</text>
</a>
</g>
</g>
<!-- Node1&#45;&gt;Node2 -->
<g id="edge1" class="edge"><title>Node1&#45;&gt;Node2</title>
<path fill="none" stroke="midnightblue" d="M76.3373,-76.589C95.0829,-81.5358 118.143,-87.6211 138.107,-92.8892"/>
<polygon fill="midnightblue" stroke="midnightblue" points="137.362,-96.3125 147.924,-95.4799 139.148,-89.5442 137.362,-96.3125"/>
</g>
<!-- Node4 -->
<g id="node4" class="node"><title>Node4</title>
<g id="a_node4"><a xlink:href="lockfreelist_8cc.html#ae7e018e2dc9f9f93414a68f3e0bbd14c" target="_top" xlink:title="get_unmarked_ref">
<polygon fill="none" stroke="black" points="292.5,-57.5 292.5,-76.5 387.5,-76.5 387.5,-57.5 292.5,-57.5"/>
<text text-anchor="middle" x="340" y="-64.5" font-family="Helvetica,sans-Serif" font-size="10.00">get_unmarked_ref</text>
</a>
</g>
</g>
<!-- Node1&#45;&gt;Node4 -->
<g id="edge4" class="edge"><title>Node1&#45;&gt;Node4</title>
<path fill="none" stroke="midnightblue" d="M77.5658,-67C129.089,-67 222.116,-67 282.18,-67"/>
<polygon fill="midnightblue" stroke="midnightblue" points="282.259,-70.5001 292.259,-67 282.259,-63.5001 282.259,-70.5001"/>
</g>
<!-- Node5 -->
<g id="node5" class="node"><title>Node5</title>
<g id="a_node5"><a xlink:href="lockfreeskip_8c.html#ab054f9326717e9cb34629a01bd93dbc6" target="_top" xlink:title="free_node">
<polygon fill="none" stroke="black" points="155.5,-19.5 155.5,-38.5 214.5,-38.5 214.5,-19.5 155.5,-19.5"/>
<text text-anchor="middle" x="185" y="-26.5" font-family="Helvetica,sans-Serif" font-size="10.00">free_node</text>
</a>
</g>
</g>
<!-- Node1&#45;&gt;Node5 -->
<g id="edge5" class="edge"><title>Node1&#45;&gt;Node5</title>
<path fill="none" stroke="midnightblue" d="M76.3373,-57.411C97.4838,-51.8307 124.121,-44.8014 145.609,-39.1309"/>
<polygon fill="midnightblue" stroke="midnightblue" points="146.613,-42.4859 155.389,-36.5502 144.827,-35.7176 146.613,-42.4859"/>
</g>
<!-- Node3 -->
<g id="node3" class="node"><title>Node3</title>
<g id="a_node3"><a xlink:href="lockfreelist_8cc.html#af3132c9d8404c5dc002b587f7318bdab" target="_top" xlink:title="is_marked_ref">
<polygon fill="none" stroke="black" points="301,-95.5 301,-114.5 379,-114.5 379,-95.5 301,-95.5"/>
<text text-anchor="middle" x="340" y="-102.5" font-family="Helvetica,sans-Serif" font-size="10.00">is_marked_ref</text>
</a>
</g>
</g>
<!-- Node2&#45;&gt;Node3 -->
<g id="edge2" class="edge"><title>Node2&#45;&gt;Node3</title>
<path fill="none" stroke="midnightblue" d="M256.231,-105C267.899,-105 279.763,-105 290.727,-105"/>
<polygon fill="midnightblue" stroke="midnightblue" points="290.928,-108.5 300.928,-105 290.928,-101.5 290.928,-108.5"/>
</g>
<!-- Node2&#45;&gt;Node4 -->
<g id="edge3" class="edge"><title>Node2&#45;&gt;Node4</title>
<path fill="none" stroke="midnightblue" d="M224.608,-95.411C244.707,-90.4191 269.475,-84.2676 290.819,-78.9666"/>
<polygon fill="midnightblue" stroke="midnightblue" points="291.808,-82.3274 300.669,-76.5201 290.12,-75.5338 291.808,-82.3274"/>
</g>
<!-- Node6 -->
<g id="node6" class="node"><title>Node6</title>
<g id="a_node6"><a xlink:href="gc_8c.html#a80f4a5c119aa70ab0452a73dfac21bbd" target="_top" xlink:title="fr_gc_free">
<polygon fill="none" stroke="black" points="310,-19.5 310,-38.5 370,-38.5 370,-19.5 310,-19.5"/>
<text text-anchor="middle" x="340" y="-26.5" font-family="Helvetica,sans-Serif" font-size="10.00">fr_gc_free</text>
</a>
</g>
</g>
<!-- Node5&#45;&gt;Node6 -->
<g id="edge6" class="edge"><title>Node5&#45;&gt;Node6</title>
<path fill="none" stroke="midnightblue" d="M214.778,-29C238.774,-29 273.199,-29 299.727,-29"/>
<polygon fill="midnightblue" stroke="midnightblue" points="299.831,-32.5001 309.831,-29 299.831,-25.5001 299.831,-32.5001"/>
</g>
<!-- Node7 -->
<g id="node7" class="node"><title>Node7</title>
<g id="a_node7"><a xlink:href="gc_8c.html#afb494e950c8c6b5661974748ae89b61e" target="_top" xlink:title="chunk_from_cache">
<polygon fill="none" stroke="black" points="424.5,-19.5 424.5,-38.5 523.5,-38.5 523.5,-19.5 424.5,-19.5"/>
<text text-anchor="middle" x="474" y="-26.5" font-family="Helvetica,sans-Serif" font-size="10.00">chunk_from_cache</text>
</a>
</g>
</g>
<!-- Node6&#45;&gt;Node7 -->
<g id="edge7" class="edge"><title>Node6&#45;&gt;Node7</title>
<path fill="none" stroke="midnightblue" d="M370.295,-29C383.193,-29 398.833,-29 413.977,-29"/>
<polygon fill="midnightblue" stroke="midnightblue" points="414.343,-32.5001 424.343,-29 414.343,-25.5001 414.343,-32.5001"/>
</g>
<!-- Node8 -->
<g id="node8" class="node"><title>Node8</title>
<g id="a_node8"><a xlink:href="gc_8c.html#a2a6f41199ed37925df4cc7b9909dc0ed" target="_top" xlink:title="get_empty_chunks">
<polygon fill="none" stroke="black" points="560.5,-19.5 560.5,-38.5 659.5,-38.5 659.5,-19.5 560.5,-19.5"/>
<text text-anchor="middle" x="610" y="-26.5" font-family="Helvetica,sans-Serif" font-size="10.00">get_empty_chunks</text>
</a>
</g>
</g>
<!-- Node7&#45;&gt;Node8 -->
<g id="edge8" class="edge"><title>Node7&#45;&gt;Node8</title>
<path fill="none" stroke="midnightblue" d="M523.756,-29C532.254,-29 541.176,-29 549.916,-29"/>
<polygon fill="midnightblue" stroke="midnightblue" points="550.056,-32.5001 560.056,-29 550.056,-25.5001 550.056,-32.5001"/>
</g>
<!-- Node9 -->
<g id="node9" class="node"><title>Node9</title>
<g id="a_node9"><a xlink:href="gc_8c.html#ac360b80b93ad00f0fba18a1993e1d6a0" target="_top" xlink:title="add_chunks_to_list">
<polygon fill="none" stroke="black" points="696.5,-38.5 696.5,-57.5 797.5,-57.5 797.5,-38.5 696.5,-38.5"/>
<text text-anchor="middle" x="747" y="-45.5" font-family="Helvetica,sans-Serif" font-size="10.00">add_chunks_to_list</text>
</a>
</g>
</g>
<!-- Node8&#45;&gt;Node9 -->
<g id="edge9" class="edge"><title>Node8&#45;&gt;Node9</title>
<path fill="none" stroke="midnightblue" d="M659.738,-35.8594C668.408,-37.0797 677.527,-38.363 686.457,-39.6199"/>
<polygon fill="midnightblue" stroke="midnightblue" points="686.036,-43.095 696.426,-41.0229 687.011,-36.1633 686.036,-43.095"/>
</g>
<!-- Node10 -->
<g id="node10" class="node"><title>Node10</title>
<g id="a_node10"><a xlink:href="gc_8c.html#ade31863985bdaa481ade142bdfb6d99f" target="_top" xlink:title="alloc_more_chunks">
<polygon fill="none" stroke="black" points="696.5,-0.5 696.5,-19.5 797.5,-19.5 797.5,-0.5 696.5,-0.5"/>
<text text-anchor="middle" x="747" y="-7.5" font-family="Helvetica,sans-Serif" font-size="10.00">alloc_more_chunks</text>
</a>
</g>
</g>
<!-- Node8&#45;&gt;Node10 -->
<g id="edge10" class="edge"><title>Node8&#45;&gt;Node10</title>
<path fill="none" stroke="midnightblue" d="M659.738,-22.1406C668.408,-20.9203 677.527,-19.637 686.457,-18.3801"/>
<polygon fill="midnightblue" stroke="midnightblue" points="687.011,-21.8367 696.426,-16.9771 686.036,-14.905 687.011,-21.8367"/>
</g>
</g>
</svg>
