<?xml version="1.0" encoding="UTF-8" standalone="no"?>
<!DOCTYPE svg PUBLIC "-//W3C//DTD SVG 1.1//EN"
 "http://www.w3.org/Graphics/SVG/1.1/DTD/svg11.dtd">
<!-- Generated by graphviz version 2.36.0 (20140111.2315)
 -->
<!-- Title: tatas_acquire Pages: 1 -->
<svg width="348pt" height="28pt"
 viewBox="0.00 0.00 348.00 28.00" xmlns="http://www.w3.org/2000/svg" xmlns:xlink="http://www.w3.org/1999/xlink">
<g id="graph0" class="graph" transform="scale(1 1) rotate(0) translate(4 24)">
<title>tatas_acquire</title>
<!-- Node1 -->
<g id="node1" class="node"><title>Node1</title>
<polygon fill="#bfbfbf" stroke="black" points="0.5,-0.5 0.5,-19.5 75.5,-19.5 75.5,-0.5 0.5,-0.5"/>
<text text-anchor="middle" x="38" y="-7.5" font-family="Helvetica,sans-Serif" font-size="10.00">tatas_acquire</text>
</g>
<!-- Node2 -->
<g id="node2" class="node"><title>Node2</title>
<g id="a_node2"><a xlink:href="namespacestm.html#a74784f193abf87bd1c6f688d6b25cacd" target="_top" xlink:title="stm::begin_CGL">
<polygon fill="none" stroke="black" points="112,-0.5 112,-19.5 200,-19.5 200,-0.5 112,-0.5"/>
<text text-anchor="middle" x="156" y="-7.5" font-family="Helvetica,sans-Serif" font-size="10.00">stm::begin_CGL</text>
</a>
</g>
</g>
<!-- Node1&#45;&gt;Node2 -->
<g id="edge1" class="edge"><title>Node1&#45;&gt;Node2</title>
<path fill="none" stroke="midnightblue" d="M85.8721,-10C94.3865,-10 103.233,-10 111.641,-10"/>
<polygon fill="midnightblue" stroke="midnightblue" points="85.7032,-6.5001 75.7031,-10 85.7031,-13.5001 85.7032,-6.5001"/>
</g>
<!-- Node3 -->
<g id="node3" class="node"><title>Node3</title>
<g id="a_node3"><a xlink:href="namespacestm.html#a976f5145078328564e9e05c97bce777e" target="_top" xlink:title="stm::initTM\&lt; CGL \&gt;">
<polygon fill="none" stroke="black" points="236,-0.5 236,-19.5 340,-19.5 340,-0.5 236,-0.5"/>
<text text-anchor="middle" x="288" y="-7.5" font-family="Helvetica,sans-Serif" font-size="10.00">stm::initTM&lt; CGL &gt;</text>
</a>
</g>
</g>
<!-- Node2&#45;&gt;Node3 -->
<g id="edge2" class="edge"><title>Node2&#45;&gt;Node3</title>
<path fill="none" stroke="midnightblue" d="M210.364,-10C218.766,-10 227.435,-10 235.787,-10"/>
<polygon fill="midnightblue" stroke="midnightblue" points="210.288,-6.5001 200.288,-10 210.288,-13.5001 210.288,-6.5001"/>
</g>
</g>
</svg>
