<?xml version="1.0" encoding="UTF-8" standalone="no"?>
<!DOCTYPE svg PUBLIC "-//W3C//DTD SVG 1.1//EN"
 "http://www.w3.org/Graphics/SVG/1.1/DTD/svg11.dtd">
<!-- Generated by graphviz version 2.36.0 (20140111.2315)
 -->
<!-- Title: rstm/rstm&#45;dev/mesh/lock.hpp Pages: 1 -->
<svg width="1201pt" height="380pt"
 viewBox="0.00 0.00 1200.78 380.00" xmlns="http://www.w3.org/2000/svg" xmlns:xlink="http://www.w3.org/1999/xlink">
<g id="graph0" class="graph" transform="scale(1 1) rotate(0) translate(4 376)">
<title>rstm/rstm&#45;dev/mesh/lock.hpp</title>
<!-- Node1 -->
<g id="node1" class="node"><title>Node1</title>
<polygon fill="#bfbfbf" stroke="black" points="550,-341 550,-371 654,-371 654,-341 550,-341"/>
<text text-anchor="start" x="558" y="-359" font-family="Helvetica,sans-Serif" font-size="10.00">rstm/rstm&#45;dev/mesh</text>
<text text-anchor="middle" x="602" y="-348" font-family="Helvetica,sans-Serif" font-size="10.00">/lock.hpp</text>
</g>
<!-- Node2 -->
<g id="node2" class="node"><title>Node2</title>
<g id="a_node2"><a xlink:href="common_8hpp.html" target="_top" xlink:title="rstm/rstm&#45;dev/mesh\l/common.hpp">
<polygon fill="none" stroke="black" points="550,-273 550,-303 654,-303 654,-273 550,-273"/>
<text text-anchor="start" x="558" y="-291" font-family="Helvetica,sans-Serif" font-size="10.00">rstm/rstm&#45;dev/mesh</text>
<text text-anchor="middle" x="602" y="-280" font-family="Helvetica,sans-Serif" font-size="10.00">/common.hpp</text>
</a>
</g>
</g>
<!-- Node1&#45;&gt;Node2 -->
<g id="edge1" class="edge"><title>Node1&#45;&gt;Node2</title>
<path fill="none" stroke="midnightblue" d="M602,-330.532C602,-321.361 602,-311.245 602,-303.293"/>
<polygon fill="midnightblue" stroke="midnightblue" points="598.5,-330.679 602,-340.679 605.5,-330.679 598.5,-330.679"/>
</g>
<!-- Node5 -->
<g id="node5" class="node"><title>Node5</title>
<g id="a_node5"><a xlink:href="edge_8hpp.html" target="_top" xlink:title="rstm/rstm&#45;dev/mesh\l/edge.hpp">
<polygon fill="none" stroke="black" points="493,-137 493,-167 597,-167 597,-137 493,-137"/>
<text text-anchor="start" x="501" y="-155" font-family="Helvetica,sans-Serif" font-size="10.00">rstm/rstm&#45;dev/mesh</text>
<text text-anchor="middle" x="545" y="-144" font-family="Helvetica,sans-Serif" font-size="10.00">/edge.hpp</text>
</a>
</g>
</g>
<!-- Node1&#45;&gt;Node5 -->
<g id="edge55" class="edge"><title>Node1&#45;&gt;Node5</title>
<path fill="none" stroke="midnightblue" d="M569.642,-334.927C558.89,-326.654 547.91,-316.141 541,-304 518.884,-265.14 523.627,-248.256 530,-204 531.842,-191.211 536.155,-177.157 539.686,-167.047"/>
<polygon fill="midnightblue" stroke="midnightblue" points="567.598,-337.769 577.748,-340.808 571.709,-332.103 567.598,-337.769"/>
</g>
<!-- Node8 -->
<g id="node8" class="node"><title>Node8</title>
<g id="a_node8"><a xlink:href="worker_8cpp.html" target="_top" xlink:title="rstm/rstm&#45;dev/mesh\l/worker.cpp">
<polygon fill="none" stroke="black" points="303,-1 303,-31 407,-31 407,-1 303,-1"/>
<text text-anchor="start" x="311" y="-19" font-family="Helvetica,sans-Serif" font-size="10.00">rstm/rstm&#45;dev/mesh</text>
<text text-anchor="middle" x="355" y="-8" font-family="Helvetica,sans-Serif" font-size="10.00">/worker.cpp</text>
</a>
</g>
</g>
<!-- Node1&#45;&gt;Node8 -->
<g id="edge57" class="edge"><title>Node1&#45;&gt;Node8</title>
<path fill="none" stroke="midnightblue" d="M539.901,-347.991C417.794,-333.073 152.358,-294.675 84,-236 25.8359,-186.075 -4.60722,-126.435 45,-68 53.2952,-58.2286 216.592,-35.3043 302.758,-23.8152"/>
<polygon fill="midnightblue" stroke="midnightblue" points="539.505,-351.469 549.852,-349.193 540.344,-344.519 539.505,-351.469"/>
</g>
<!-- Node12 -->
<g id="node12" class="node"><title>Node12</title>
<g id="a_node12"><a xlink:href="mesh_8cpp.html" target="_top" xlink:title="rstm/rstm&#45;dev/mesh\l/mesh.cpp">
<polygon fill="none" stroke="black" points="573,-1 573,-31 677,-31 677,-1 573,-1"/>
<text text-anchor="start" x="581" y="-19" font-family="Helvetica,sans-Serif" font-size="10.00">rstm/rstm&#45;dev/mesh</text>
<text text-anchor="middle" x="625" y="-8" font-family="Helvetica,sans-Serif" font-size="10.00">/mesh.cpp</text>
</a>
</g>
</g>
<!-- Node1&#45;&gt;Node12 -->
<g id="edge56" class="edge"><title>Node1&#45;&gt;Node12</title>
<path fill="none" stroke="midnightblue" d="M664.48,-353.467C812.649,-348.139 1173,-324.54 1173,-221 1173,-221 1173,-221 1173,-151 1173,-95.9301 1131.45,-90.0751 1081,-68 919.5,2.66424 859.86,-61.1293 686,-32 683.096,-31.5134 680.126,-30.9627 677.136,-30.3666"/>
<polygon fill="midnightblue" stroke="midnightblue" points="664.06,-349.979 654.186,-353.819 664.3,-356.975 664.06,-349.979"/>
</g>
<!-- Node18 -->
<g id="node18" class="node"><title>Node18</title>
<g id="a_node18"><a xlink:href="my__thread_8hpp.html" target="_top" xlink:title="rstm/rstm&#45;dev/mesh\l/my_thread.hpp">
<polygon fill="none" stroke="black" points="906,-205 906,-235 1010,-235 1010,-205 906,-205"/>
<text text-anchor="start" x="914" y="-223" font-family="Helvetica,sans-Serif" font-size="10.00">rstm/rstm&#45;dev/mesh</text>
<text text-anchor="middle" x="958" y="-212" font-family="Helvetica,sans-Serif" font-size="10.00">/my_thread.hpp</text>
</a>
</g>
</g>
<!-- Node1&#45;&gt;Node18 -->
<g id="edge54" class="edge"><title>Node1&#45;&gt;Node18</title>
<path fill="none" stroke="midnightblue" d="M649.086,-337.277C720.613,-310.353 855.217,-259.688 920.542,-235.099"/>
<polygon fill="midnightblue" stroke="midnightblue" points="647.551,-334.114 639.425,-340.913 650.017,-340.666 647.551,-334.114"/>
</g>
<!-- Node3 -->
<g id="node3" class="node"><title>Node3</title>
<g id="a_node3"><a xlink:href="dwyer_8cpp.html" target="_top" xlink:title="rstm/rstm&#45;dev/mesh\l/dwyer.cpp">
<polygon fill="none" stroke="black" points="0,-1 0,-31 104,-31 104,-1 0,-1"/>
<text text-anchor="start" x="8" y="-19" font-family="Helvetica,sans-Serif" font-size="10.00">rstm/rstm&#45;dev/mesh</text>
<text text-anchor="middle" x="52" y="-8" font-family="Helvetica,sans-Serif" font-size="10.00">/dwyer.cpp</text>
</a>
</g>
</g>
<!-- Node2&#45;&gt;Node3 -->
<g id="edge2" class="edge"><title>Node2&#45;&gt;Node3</title>
<path fill="none" stroke="midnightblue" d="M539.568,-284.467C409.741,-278.684 119.712,-262.895 84,-236 22.253,-189.498 29.3786,-144.698 39,-68 40.5922,-55.3073 44.3309,-41.2445 47.3922,-31.1063"/>
<polygon fill="midnightblue" stroke="midnightblue" points="539.611,-287.972 549.755,-284.915 539.919,-280.979 539.611,-287.972"/>
</g>
<!-- Node4 -->
<g id="node4" class="node"><title>Node4</title>
<g id="a_node4"><a xlink:href="point_8hpp.html" target="_top" xlink:title="rstm/rstm&#45;dev/mesh\l/point.hpp">
<polygon fill="none" stroke="black" points="318,-205 318,-235 422,-235 422,-205 318,-205"/>
<text text-anchor="start" x="326" y="-223" font-family="Helvetica,sans-Serif" font-size="10.00">rstm/rstm&#45;dev/mesh</text>
<text text-anchor="middle" x="370" y="-212" font-family="Helvetica,sans-Serif" font-size="10.00">/point.hpp</text>
</a>
</g>
</g>
<!-- Node2&#45;&gt;Node4 -->
<g id="edge3" class="edge"><title>Node2&#45;&gt;Node4</title>
<path fill="none" stroke="midnightblue" d="M542.561,-270.091C504.401,-259.235 455.429,-245.303 419.409,-235.056"/>
<polygon fill="midnightblue" stroke="midnightblue" points="541.939,-273.552 552.515,-272.922 543.854,-266.82 541.939,-273.552"/>
</g>
<!-- Node2&#45;&gt;Node5 -->
<g id="edge37" class="edge"><title>Node2&#45;&gt;Node5</title>
<path fill="none" stroke="midnightblue" d="M567.723,-266.861C557.143,-258.735 546.765,-248.334 541,-236 530.615,-213.782 535.787,-184.471 540.433,-167.285"/>
<polygon fill="midnightblue" stroke="midnightblue" points="565.994,-269.926 576.167,-272.884 570.058,-264.227 565.994,-269.926"/>
</g>
<!-- Node6 -->
<g id="node6" class="node"><title>Node6</title>
<g id="a_node6"><a xlink:href="side_8hpp.html" target="_top" xlink:title="rstm/rstm&#45;dev/mesh\l/side.hpp">
<polygon fill="none" stroke="black" points="63,-69 63,-99 167,-99 167,-69 63,-69"/>
<text text-anchor="start" x="71" y="-87" font-family="Helvetica,sans-Serif" font-size="10.00">rstm/rstm&#45;dev/mesh</text>
<text text-anchor="middle" x="115" y="-76" font-family="Helvetica,sans-Serif" font-size="10.00">/side.hpp</text>
</a>
</g>
</g>
<!-- Node2&#45;&gt;Node6 -->
<g id="edge44" class="edge"><title>Node2&#45;&gt;Node6</title>
<path fill="none" stroke="midnightblue" d="M539.923,-284.27C466.082,-279.68 339.76,-267.563 236,-236 169.821,-215.868 132.704,-226.633 96,-168 82.5872,-146.574 95.5705,-116.739 105.671,-99.2882"/>
<polygon fill="midnightblue" stroke="midnightblue" points="539.796,-287.768 549.986,-284.869 540.212,-280.781 539.796,-287.768"/>
</g>
<!-- Node2&#45;&gt;Node8 -->
<g id="edge53" class="edge"><title>Node2&#45;&gt;Node8</title>
<path fill="none" stroke="midnightblue" d="M539.603,-287.223C426.21,-286.522 191.87,-279.648 125,-236 67.9015,-198.73 68.8749,-166.543 54,-100 50.8974,-86.1203 44.8217,-78.8642 54,-68 61.9953,-58.5361 218.919,-35.6855 302.93,-24.0552"/>
<polygon fill="midnightblue" stroke="midnightblue" points="539.844,-290.724 549.861,-287.271 539.877,-283.724 539.844,-290.724"/>
</g>
<!-- Node11 -->
<g id="node11" class="node"><title>Node11</title>
<g id="a_node11"><a xlink:href="edge__set_8cpp.html" target="_top" xlink:title="rstm/rstm&#45;dev/mesh\l/edge_set.cpp">
<polygon fill="none" stroke="black" points="695,-1 695,-31 799,-31 799,-1 695,-1"/>
<text text-anchor="start" x="703" y="-19" font-family="Helvetica,sans-Serif" font-size="10.00">rstm/rstm&#45;dev/mesh</text>
<text text-anchor="middle" x="747" y="-8" font-family="Helvetica,sans-Serif" font-size="10.00">/edge_set.cpp</text>
</a>
</g>
</g>
<!-- Node2&#45;&gt;Node11 -->
<g id="edge48" class="edge"><title>Node2&#45;&gt;Node11</title>
<path fill="none" stroke="midnightblue" d="M664.15,-285.331C772.572,-281.558 991.202,-269.879 1059,-236 1133.25,-198.896 1156.4,-177.159 1187,-100 1192.24,-86.7795 1196.46,-78.6198 1187,-68 1161.58,-39.4685 910.424,-24.4988 799.36,-19.2303"/>
<polygon fill="midnightblue" stroke="midnightblue" points="663.887,-281.838 654.011,-285.672 664.123,-288.834 663.887,-281.838"/>
</g>
<!-- Node2&#45;&gt;Node12 -->
<g id="edge49" class="edge"><title>Node2&#45;&gt;Node12</title>
<path fill="none" stroke="midnightblue" d="M664.083,-284.007C764.413,-278.409 957.203,-264.273 1019,-236 1059.92,-217.28 1075.77,-209.136 1094,-168 1113.75,-123.442 1090.74,-93.1629 1049,-68 979.577,-26.1476 765.894,-45.713 686,-32 683.098,-31.5019 680.129,-30.942 677.141,-30.3389"/>
<polygon fill="midnightblue" stroke="midnightblue" points="663.876,-280.513 654.082,-284.554 664.258,-287.503 663.876,-280.513"/>
</g>
<!-- Node13 -->
<g id="node13" class="node"><title>Node13</title>
<g id="a_node13"><a xlink:href="worker_8hpp.html" target="_top" xlink:title="rstm/rstm&#45;dev/mesh\l/worker.hpp">
<polygon fill="none" stroke="black" points="573,-69 573,-99 677,-99 677,-69 573,-69"/>
<text text-anchor="start" x="581" y="-87" font-family="Helvetica,sans-Serif" font-size="10.00">rstm/rstm&#45;dev/mesh</text>
<text text-anchor="middle" x="625" y="-76" font-family="Helvetica,sans-Serif" font-size="10.00">/worker.hpp</text>
</a>
</g>
</g>
<!-- Node2&#45;&gt;Node13 -->
<g id="edge50" class="edge"><title>Node2&#45;&gt;Node13</title>
<path fill="none" stroke="midnightblue" d="M636.277,-266.861C646.857,-258.735 657.235,-248.334 663,-236 685.091,-188.735 652.275,-126.912 634.785,-99.3462"/>
<polygon fill="midnightblue" stroke="midnightblue" points="633.942,-264.227 627.833,-272.884 638.006,-269.926 633.942,-264.227"/>
</g>
<!-- Node14 -->
<g id="node14" class="node"><title>Node14</title>
<g id="a_node14"><a xlink:href="queues_8cpp.html" target="_top" xlink:title="rstm/rstm&#45;dev/mesh\l/queues.cpp">
<polygon fill="none" stroke="black" points="817,-69 817,-99 921,-99 921,-69 817,-69"/>
<text text-anchor="start" x="825" y="-87" font-family="Helvetica,sans-Serif" font-size="10.00">rstm/rstm&#45;dev/mesh</text>
<text text-anchor="middle" x="869" y="-76" font-family="Helvetica,sans-Serif" font-size="10.00">/queues.cpp</text>
</a>
</g>
</g>
<!-- Node2&#45;&gt;Node14 -->
<g id="edge52" class="edge"><title>Node2&#45;&gt;Node14</title>
<path fill="none" stroke="midnightblue" d="M664.099,-279.7C725.516,-271.456 814.231,-256.473 842,-236 880.269,-207.786 885.041,-183.277 880,-136 878.656,-123.391 875.492,-109.32 872.901,-99.1576"/>
<polygon fill="midnightblue" stroke="midnightblue" points="663.569,-276.24 654.111,-281.014 664.482,-283.18 663.569,-276.24"/>
</g>
<!-- Node16 -->
<g id="node16" class="node"><title>Node16</title>
<g id="a_node16"><a xlink:href="point_8cpp.html" target="_top" xlink:title="rstm/rstm&#45;dev/mesh\l/point.cpp">
<polygon fill="none" stroke="black" points="105,-137 105,-167 209,-167 209,-137 105,-137"/>
<text text-anchor="start" x="113" y="-155" font-family="Helvetica,sans-Serif" font-size="10.00">rstm/rstm&#45;dev/mesh</text>
<text text-anchor="middle" x="157" y="-144" font-family="Helvetica,sans-Serif" font-size="10.00">/point.cpp</text>
</a>
</g>
</g>
<!-- Node2&#45;&gt;Node16 -->
<g id="edge51" class="edge"><title>Node2&#45;&gt;Node16</title>
<path fill="none" stroke="midnightblue" d="M539.768,-282.113C479.418,-276.003 385.951,-262.881 309,-236 259.043,-218.549 205.933,-185.863 177.618,-167.138"/>
<polygon fill="midnightblue" stroke="midnightblue" points="539.606,-285.614 549.9,-283.104 540.288,-278.647 539.606,-285.614"/>
</g>
<!-- Node17 -->
<g id="node17" class="node"><title>Node17</title>
<g id="a_node17"><a xlink:href="queues_8hpp.html" target="_top" xlink:title="rstm/rstm&#45;dev/mesh\l/queues.hpp">
<polygon fill="none" stroke="black" points="550,-205 550,-235 654,-235 654,-205 550,-205"/>
<text text-anchor="start" x="558" y="-223" font-family="Helvetica,sans-Serif" font-size="10.00">rstm/rstm&#45;dev/mesh</text>
<text text-anchor="middle" x="602" y="-212" font-family="Helvetica,sans-Serif" font-size="10.00">/queues.hpp</text>
</a>
</g>
</g>
<!-- Node2&#45;&gt;Node17 -->
<g id="edge33" class="edge"><title>Node2&#45;&gt;Node17</title>
<path fill="none" stroke="midnightblue" d="M602,-262.532C602,-253.361 602,-243.245 602,-235.293"/>
<polygon fill="midnightblue" stroke="midnightblue" points="598.5,-262.679 602,-272.679 605.5,-262.679 598.5,-262.679"/>
</g>
<!-- Node2&#45;&gt;Node18 -->
<g id="edge38" class="edge"><title>Node2&#45;&gt;Node18</title>
<path fill="none" stroke="midnightblue" d="M663.887,-277.026C722.715,-267.33 813.598,-251.793 892,-236 896.492,-235.095 901.148,-234.118 905.812,-233.111"/>
<polygon fill="midnightblue" stroke="midnightblue" points="663.308,-273.574 654.007,-278.649 664.443,-280.482 663.308,-273.574"/>
</g>
<!-- Node20 -->
<g id="node20" class="node"><title>Node20</title>
<g id="a_node20"><a xlink:href="tm__list__set_8hpp.html" target="_top" xlink:title="rstm/rstm&#45;dev/mesh\l/tm_list_set.hpp">
<polygon fill="none" stroke="black" points="729,-205 729,-235 833,-235 833,-205 729,-205"/>
<text text-anchor="start" x="737" y="-223" font-family="Helvetica,sans-Serif" font-size="10.00">rstm/rstm&#45;dev/mesh</text>
<text text-anchor="middle" x="781" y="-212" font-family="Helvetica,sans-Serif" font-size="10.00">/tm_list_set.hpp</text>
</a>
</g>
</g>
<!-- Node2&#45;&gt;Node20 -->
<g id="edge45" class="edge"><title>Node2&#45;&gt;Node20</title>
<path fill="none" stroke="midnightblue" d="M649.972,-269.312C679.125,-258.563 715.831,-245.029 742.971,-235.022"/>
<polygon fill="midnightblue" stroke="midnightblue" points="648.572,-266.098 640.4,-272.841 650.993,-272.666 648.572,-266.098"/>
</g>
<!-- Node4&#45;&gt;Node3 -->
<g id="edge4" class="edge"><title>Node4&#45;&gt;Node3</title>
<path fill="none" stroke="midnightblue" d="M317.712,-201.371C296.139,-192.907 271.453,-181.619 251,-168 233.995,-156.677 235.997,-145.67 218,-136 152.264,-100.679 101.467,-157.582 54,-100 38.0471,-80.6474 42.8562,-49.2583 47.5738,-31.1353"/>
<polygon fill="midnightblue" stroke="midnightblue" points="316.471,-204.643 327.061,-204.941 318.968,-198.104 316.471,-204.643"/>
</g>
<!-- Node4&#45;&gt;Node5 -->
<g id="edge5" class="edge"><title>Node4&#45;&gt;Node5</title>
<path fill="none" stroke="midnightblue" d="M416.9,-201.312C445.402,-190.563 481.288,-177.029 507.821,-167.022"/>
<polygon fill="midnightblue" stroke="midnightblue" points="415.663,-198.038 407.542,-204.841 418.134,-204.587 415.663,-198.038"/>
</g>
<!-- Node4&#45;&gt;Node6 -->
<g id="edge23" class="edge"><title>Node4&#45;&gt;Node6</title>
<path fill="none" stroke="midnightblue" d="M344.768,-198.593C321.462,-180.444 285.354,-154.056 251,-136 222.205,-120.866 187.897,-108.034 160.943,-99.0274"/>
<polygon fill="midnightblue" stroke="midnightblue" points="342.726,-201.44 352.748,-204.876 347.057,-195.94 342.726,-201.44"/>
</g>
<!-- Node4&#45;&gt;Node8 -->
<g id="edge32" class="edge"><title>Node4&#45;&gt;Node8</title>
<path fill="none" stroke="midnightblue" d="M368.199,-194.75C365.038,-152.18 358.586,-65.2913 356.054,-31.1886"/>
<polygon fill="midnightblue" stroke="midnightblue" points="364.714,-195.082 368.945,-204.796 371.695,-194.564 364.714,-195.082"/>
</g>
<!-- Node4&#45;&gt;Node11 -->
<g id="edge28" class="edge"><title>Node4&#45;&gt;Node11</title>
<path fill="none" stroke="midnightblue" d="M388.566,-196.905C408.555,-173.175 437.927,-138.506 441,-136 465.205,-116.262 535.094,-79.8282 564,-68 587.58,-58.351 649.353,-41.7728 694.63,-30.1437"/>
<polygon fill="midnightblue" stroke="midnightblue" points="385.706,-194.867 381.945,-204.772 391.062,-199.375 385.706,-194.867"/>
</g>
<!-- Node4&#45;&gt;Node12 -->
<g id="edge29" class="edge"><title>Node4&#45;&gt;Node12</title>
<path fill="none" stroke="midnightblue" d="M377.973,-195.368C384.972,-177.395 396.609,-152.95 413,-136 462.587,-84.7241 539.094,-49.2874 585.369,-31.1237"/>
<polygon fill="midnightblue" stroke="midnightblue" points="374.654,-194.254 374.474,-204.848 381.221,-196.678 374.654,-194.254"/>
</g>
<!-- Node4&#45;&gt;Node13 -->
<g id="edge30" class="edge"><title>Node4&#45;&gt;Node13</title>
<path fill="none" stroke="midnightblue" d="M398.121,-198.966C411.195,-189.609 426.93,-178.287 441,-168 460.23,-153.939 463.019,-147.283 484,-136 512.887,-120.465 547.495,-107.868 575.195,-99.0794"/>
<polygon fill="midnightblue" stroke="midnightblue" points="396.058,-196.138 389.957,-204.8 400.128,-201.833 396.058,-196.138"/>
</g>
<!-- Node15 -->
<g id="node15" class="node"><title>Node15</title>
<g id="a_node15"><a xlink:href="dwyer_8hpp.html" target="_top" xlink:title="rstm/rstm&#45;dev/mesh\l/dwyer.hpp">
<polygon fill="none" stroke="black" points="223,-69 223,-99 327,-99 327,-69 223,-69"/>
<text text-anchor="start" x="231" y="-87" font-family="Helvetica,sans-Serif" font-size="10.00">rstm/rstm&#45;dev/mesh</text>
<text text-anchor="middle" x="275" y="-76" font-family="Helvetica,sans-Serif" font-size="10.00">/dwyer.hpp</text>
</a>
</g>
</g>
<!-- Node4&#45;&gt;Node15 -->
<g id="edge24" class="edge"><title>Node4&#45;&gt;Node15</title>
<path fill="none" stroke="midnightblue" d="M353.943,-196.351C334.274,-168.607 301.545,-122.442 285.094,-99.2372"/>
<polygon fill="midnightblue" stroke="midnightblue" points="351.194,-198.526 359.833,-204.66 356.905,-194.478 351.194,-198.526"/>
</g>
<!-- Node4&#45;&gt;Node16 -->
<g id="edge31" class="edge"><title>Node4&#45;&gt;Node16</title>
<path fill="none" stroke="midnightblue" d="M314.981,-201.952C280.011,-191.116 235.292,-177.259 202.363,-167.056"/>
<polygon fill="midnightblue" stroke="midnightblue" points="313.98,-205.306 324.567,-204.922 316.051,-198.619 313.98,-205.306"/>
</g>
<!-- Node5&#45;&gt;Node3 -->
<g id="edge6" class="edge"><title>Node5&#45;&gt;Node3</title>
<path fill="none" stroke="midnightblue" d="M482.705,-151.299C413.965,-149.426 301.488,-139.742 214,-100 193.897,-90.8683 194.88,-79.4473 176,-68 150.622,-52.6128 119.764,-39.9021 95.1805,-31.0187"/>
<polygon fill="midnightblue" stroke="midnightblue" points="482.86,-154.803 492.936,-151.528 483.017,-147.805 482.86,-154.803"/>
</g>
<!-- Node5&#45;&gt;Node6 -->
<g id="edge7" class="edge"><title>Node5&#45;&gt;Node6</title>
<path fill="none" stroke="midnightblue" d="M482.59,-143.879C409.887,-135.209 286.289,-119.305 181,-100 176.492,-99.1735 171.826,-98.2507 167.155,-97.2801"/>
<polygon fill="midnightblue" stroke="midnightblue" points="482.597,-147.404 492.94,-145.105 483.421,-140.453 482.597,-147.404"/>
</g>
<!-- Node5&#45;&gt;Node8 -->
<g id="edge22" class="edge"><title>Node5&#45;&gt;Node8</title>
<path fill="none" stroke="midnightblue" d="M516.755,-131.08C477.902,-103.678 408.929,-55.0341 374.992,-31.0994"/>
<polygon fill="midnightblue" stroke="midnightblue" points="514.836,-134.01 525.026,-136.913 518.871,-128.289 514.836,-134.01"/>
</g>
<!-- Node9 -->
<g id="node9" class="node"><title>Node9</title>
<g id="a_node9"><a xlink:href="edge_8cpp.html" target="_top" xlink:title="rstm/rstm&#45;dev/mesh\l/edge.cpp">
<polygon fill="none" stroke="black" points="438,-1 438,-31 542,-31 542,-1 438,-1"/>
<text text-anchor="start" x="446" y="-19" font-family="Helvetica,sans-Serif" font-size="10.00">rstm/rstm&#45;dev/mesh</text>
<text text-anchor="middle" x="490" y="-8" font-family="Helvetica,sans-Serif" font-size="10.00">/edge.cpp</text>
</a>
</g>
</g>
<!-- Node5&#45;&gt;Node9 -->
<g id="edge11" class="edge"><title>Node5&#45;&gt;Node9</title>
<path fill="none" stroke="midnightblue" d="M516.507,-130.347C507.299,-122.042 498.145,-111.659 493,-100 483.103,-77.5743 485.027,-48.3315 487.437,-31.2148"/>
<polygon fill="midnightblue" stroke="midnightblue" points="514.269,-133.039 524.167,-136.817 518.786,-127.691 514.269,-133.039"/>
</g>
<!-- Node10 -->
<g id="node10" class="node"><title>Node10</title>
<g id="a_node10"><a xlink:href="edge__set_8hpp.html" target="_top" xlink:title="rstm/rstm&#45;dev/mesh\l/edge_set.hpp">
<polygon fill="none" stroke="black" points="695,-69 695,-99 799,-99 799,-69 695,-69"/>
<text text-anchor="start" x="703" y="-87" font-family="Helvetica,sans-Serif" font-size="10.00">rstm/rstm&#45;dev/mesh</text>
<text text-anchor="middle" x="747" y="-76" font-family="Helvetica,sans-Serif" font-size="10.00">/edge_set.hpp</text>
</a>
</g>
</g>
<!-- Node5&#45;&gt;Node10 -->
<g id="edge12" class="edge"><title>Node5&#45;&gt;Node10</title>
<path fill="none" stroke="midnightblue" d="M597.853,-133.731C630.953,-122.916 673.058,-109.159 704.085,-99.0218"/>
<polygon fill="midnightblue" stroke="midnightblue" points="596.753,-130.409 588.334,-136.841 598.927,-137.062 596.753,-130.409"/>
</g>
<!-- Node5&#45;&gt;Node12 -->
<g id="edge17" class="edge"><title>Node5&#45;&gt;Node12</title>
<path fill="none" stroke="midnightblue" d="M546.439,-126.785C548.412,-109.348 553.063,-85.849 564,-68 573.232,-52.9343 588.482,-40.1843 601.424,-31.2007"/>
<polygon fill="midnightblue" stroke="midnightblue" points="542.953,-126.476 545.525,-136.754 549.924,-127.115 542.953,-126.476"/>
</g>
<!-- Node5&#45;&gt;Node13 -->
<g id="edge18" class="edge"><title>Node5&#45;&gt;Node13</title>
<path fill="none" stroke="midnightblue" d="M570.08,-130.309C582.403,-120.143 596.932,-108.156 607.95,-99.0663"/>
<polygon fill="midnightblue" stroke="midnightblue" points="567.845,-127.615 562.359,-136.679 572.3,-133.015 567.845,-127.615"/>
</g>
<!-- Node5&#45;&gt;Node14 -->
<g id="edge21" class="edge"><title>Node5&#45;&gt;Node14</title>
<path fill="none" stroke="midnightblue" d="M607.051,-139.865C660.458,-130.066 739.505,-115.053 808,-100 810.876,-99.368 813.824,-98.7024 816.796,-98.0174"/>
<polygon fill="midnightblue" stroke="midnightblue" points="606.262,-136.451 597.054,-141.693 607.521,-143.337 606.262,-136.451"/>
</g>
<!-- Node6&#45;&gt;Node3 -->
<g id="edge8" class="edge"><title>Node6&#45;&gt;Node3</title>
<path fill="none" stroke="midnightblue" d="M94.185,-61.1939C84.7986,-51.3605 73.9763,-40.0228 65.6434,-31.2931"/>
<polygon fill="midnightblue" stroke="midnightblue" points="91.8934,-63.8621 101.33,-68.679 96.9569,-59.0287 91.8934,-63.8621"/>
</g>
<!-- Node7 -->
<g id="node7" class="node"><title>Node7</title>
<g id="a_node7"><a xlink:href="side_8cpp.html" target="_top" xlink:title="rstm/rstm&#45;dev/mesh\l/side.cpp">
<polygon fill="none" stroke="black" points="122,-1 122,-31 226,-31 226,-1 122,-1"/>
<text text-anchor="start" x="130" y="-19" font-family="Helvetica,sans-Serif" font-size="10.00">rstm/rstm&#45;dev/mesh</text>
<text text-anchor="middle" x="174" y="-8" font-family="Helvetica,sans-Serif" font-size="10.00">/side.cpp</text>
</a>
</g>
</g>
<!-- Node6&#45;&gt;Node7 -->
<g id="edge9" class="edge"><title>Node6&#45;&gt;Node7</title>
<path fill="none" stroke="midnightblue" d="M134.493,-61.1939C143.284,-51.3605 153.419,-40.0228 161.223,-31.2931"/>
<polygon fill="midnightblue" stroke="midnightblue" points="131.857,-58.891 127.802,-68.679 137.076,-63.5562 131.857,-58.891"/>
</g>
<!-- Node6&#45;&gt;Node8 -->
<g id="edge10" class="edge"><title>Node6&#45;&gt;Node8</title>
<path fill="none" stroke="midnightblue" d="M175.986,-66.2289C215.533,-55.3534 266.467,-41.3466 303.887,-31.0561"/>
<polygon fill="midnightblue" stroke="midnightblue" points="174.906,-62.8959 166.192,-68.9223 176.762,-69.6454 174.906,-62.8959"/>
</g>
<!-- Node10&#45;&gt;Node8 -->
<g id="edge16" class="edge"><title>Node10&#45;&gt;Node8</title>
<path fill="none" stroke="midnightblue" d="M684.678,-67.8645C570.972,-46.4794 539.463,-50.9143 429,-32 421.894,-30.7832 414.425,-29.3969 407.078,-27.9701"/>
<polygon fill="midnightblue" stroke="midnightblue" points="684.355,-71.3659 694.834,-69.8013 685.666,-64.4898 684.355,-71.3659"/>
</g>
<!-- Node10&#45;&gt;Node9 -->
<g id="edge13" class="edge"><title>Node10&#45;&gt;Node9</title>
<path fill="none" stroke="midnightblue" d="M685.071,-67.0961C641.453,-55.8946 583.698,-41.0624 542.371,-30.4493"/>
<polygon fill="midnightblue" stroke="midnightblue" points="684.436,-70.5465 694.992,-69.6439 686.177,-63.7665 684.436,-70.5465"/>
</g>
<!-- Node10&#45;&gt;Node11 -->
<g id="edge14" class="edge"><title>Node10&#45;&gt;Node11</title>
<path fill="none" stroke="midnightblue" d="M747,-58.5322C747,-49.3606 747,-39.2449 747,-31.2931"/>
<polygon fill="midnightblue" stroke="midnightblue" points="743.5,-58.6789 747,-68.679 750.5,-58.679 743.5,-58.6789"/>
</g>
<!-- Node10&#45;&gt;Node12 -->
<g id="edge15" class="edge"><title>Node10&#45;&gt;Node12</title>
<path fill="none" stroke="midnightblue" d="M711.98,-64.0545C692.588,-53.5641 668.889,-40.7434 651.129,-31.1352"/>
<polygon fill="midnightblue" stroke="midnightblue" points="710.367,-67.1615 720.828,-68.8413 713.698,-61.0047 710.367,-67.1615"/>
</g>
<!-- Node13&#45;&gt;Node8 -->
<g id="edge20" class="edge"><title>Node13&#45;&gt;Node8</title>
<path fill="none" stroke="midnightblue" d="M563.162,-67.8841C516.063,-56.3709 451.94,-40.6964 407.359,-29.7988"/>
<polygon fill="midnightblue" stroke="midnightblue" points="562.396,-71.2998 572.941,-70.2745 564.058,-64.5 562.396,-71.2998"/>
</g>
<!-- Node13&#45;&gt;Node12 -->
<g id="edge19" class="edge"><title>Node13&#45;&gt;Node12</title>
<path fill="none" stroke="midnightblue" d="M625,-58.5322C625,-49.3606 625,-39.2449 625,-31.2931"/>
<polygon fill="midnightblue" stroke="midnightblue" points="621.5,-58.6789 625,-68.679 628.5,-58.679 621.5,-58.6789"/>
</g>
<!-- Node15&#45;&gt;Node3 -->
<g id="edge25" class="edge"><title>Node15&#45;&gt;Node3</title>
<path fill="none" stroke="midnightblue" d="M217.398,-65.9518C180.787,-55.1162 133.967,-41.2594 99.4925,-31.0561"/>
<polygon fill="midnightblue" stroke="midnightblue" points="216.852,-69.4404 227.434,-68.9223 218.839,-62.7282 216.852,-69.4404"/>
</g>
<!-- Node15&#45;&gt;Node8 -->
<g id="edge27" class="edge"><title>Node15&#45;&gt;Node8</title>
<path fill="none" stroke="midnightblue" d="M300.08,-62.3094C312.403,-52.1426 326.932,-40.1562 337.95,-31.0663"/>
<polygon fill="midnightblue" stroke="midnightblue" points="297.845,-59.6153 292.359,-68.679 302.3,-65.0149 297.845,-59.6153"/>
</g>
<!-- Node15&#45;&gt;Node12 -->
<g id="edge26" class="edge"><title>Node15&#45;&gt;Node12</title>
<path fill="none" stroke="midnightblue" d="M337.304,-71.8043C393.282,-61.6701 477.705,-46.1993 551,-32 558.078,-30.6288 565.53,-29.1544 572.87,-27.6845"/>
<polygon fill="midnightblue" stroke="midnightblue" points="336.41,-68.4092 327.192,-73.633 337.656,-75.2975 336.41,-68.4092"/>
</g>
<!-- Node17&#45;&gt;Node5 -->
<g id="edge34" class="edge"><title>Node17&#45;&gt;Node5</title>
<path fill="none" stroke="midnightblue" d="M582.915,-196.901C574.481,-187.136 564.809,-175.936 557.344,-167.293"/>
<polygon fill="midnightblue" stroke="midnightblue" points="580.447,-199.398 589.632,-204.679 585.745,-194.823 580.447,-199.398"/>
</g>
<!-- Node17&#45;&gt;Node13 -->
<g id="edge35" class="edge"><title>Node17&#45;&gt;Node13</title>
<path fill="none" stroke="midnightblue" d="M606.201,-194.524C610.991,-166.619 618.66,-121.94 622.556,-99.2372"/>
<polygon fill="midnightblue" stroke="midnightblue" points="602.704,-194.212 604.461,-204.66 609.603,-195.396 602.704,-194.212"/>
</g>
<!-- Node17&#45;&gt;Node14 -->
<g id="edge36" class="edge"><title>Node17&#45;&gt;Node14</title>
<path fill="none" stroke="midnightblue" d="M636.232,-200.047C667.641,-182.835 715.588,-157.004 758,-136 784.417,-122.918 814.871,-109.006 837.19,-99.0232"/>
<polygon fill="midnightblue" stroke="midnightblue" points="634.515,-196.997 627.435,-204.88 637.885,-203.132 634.515,-196.997"/>
</g>
<!-- Node18&#45;&gt;Node5 -->
<g id="edge39" class="edge"><title>Node18&#45;&gt;Node5</title>
<path fill="none" stroke="midnightblue" d="M895.585,-209.026C814.184,-196.017 673.23,-173.492 597.207,-161.343"/>
<polygon fill="midnightblue" stroke="midnightblue" points="895.266,-212.519 905.693,-210.641 896.371,-205.607 895.266,-212.519"/>
</g>
<!-- Node18&#45;&gt;Node8 -->
<g id="edge43" class="edge"><title>Node18&#45;&gt;Node8</title>
<path fill="none" stroke="midnightblue" d="M956.983,-194.526C954.835,-156.143 948.406,-84.4584 930,-68 888.396,-30.7989 484.296,-39.5592 429,-32 421.857,-31.0235 414.367,-29.7742 407.01,-28.4144"/>
<polygon fill="midnightblue" stroke="midnightblue" points="953.504,-195.023 957.502,-204.834 960.495,-194.671 953.504,-195.023"/>
</g>
<!-- Node18&#45;&gt;Node12 -->
<g id="edge40" class="edge"><title>Node18&#45;&gt;Node12</title>
<path fill="none" stroke="midnightblue" d="M1020.06,-207.477C1042.17,-200.058 1064.84,-187.899 1078,-168 1085.85,-156.139 1085.05,-148.354 1078,-136 988.688,20.5673 863.168,-65.1879 686,-32 683.106,-31.4578 680.144,-30.8632 677.16,-30.2331"/>
<polygon fill="midnightblue" stroke="midnightblue" points="1018.84,-204.188 1010.31,-210.468 1020.9,-210.88 1018.84,-204.188"/>
</g>
<!-- Node18&#45;&gt;Node13 -->
<g id="edge41" class="edge"><title>Node18&#45;&gt;Node13</title>
<path fill="none" stroke="midnightblue" d="M895.644,-208.255C855.35,-200.071 802.351,-186.95 758,-168 714.2,-149.285 668.132,-117.371 643.364,-99.049"/>
<polygon fill="midnightblue" stroke="midnightblue" points="895.112,-211.717 905.602,-210.229 896.474,-204.851 895.112,-211.717"/>
</g>
<!-- Node19 -->
<g id="node19" class="node"><title>Node19</title>
<g id="a_node19"><a xlink:href="my__thread_8cpp.html" target="_top" xlink:title="rstm/rstm&#45;dev/mesh\l/my_thread.cpp">
<polygon fill="none" stroke="black" points="965,-137 965,-167 1069,-167 1069,-137 965,-137"/>
<text text-anchor="start" x="973" y="-155" font-family="Helvetica,sans-Serif" font-size="10.00">rstm/rstm&#45;dev/mesh</text>
<text text-anchor="middle" x="1017" y="-144" font-family="Helvetica,sans-Serif" font-size="10.00">/my_thread.cpp</text>
</a>
</g>
</g>
<!-- Node18&#45;&gt;Node19 -->
<g id="edge42" class="edge"><title>Node18&#45;&gt;Node19</title>
<path fill="none" stroke="midnightblue" d="M977.493,-197.194C986.284,-187.36 996.419,-176.023 1004.22,-167.293"/>
<polygon fill="midnightblue" stroke="midnightblue" points="974.857,-194.891 970.802,-204.679 980.076,-199.556 974.857,-194.891"/>
</g>
<!-- Node21 -->
<g id="node21" class="node"><title>Node21</title>
<g id="a_node21"><a xlink:href="tm__hash__set_8hpp.html" target="_top" xlink:title="rstm/rstm&#45;dev/mesh\l/tm_hash_set.hpp">
<polygon fill="none" stroke="black" points="767,-137 767,-167 871,-167 871,-137 767,-137"/>
<text text-anchor="start" x="775" y="-155" font-family="Helvetica,sans-Serif" font-size="10.00">rstm/rstm&#45;dev/mesh</text>
<text text-anchor="middle" x="819" y="-144" font-family="Helvetica,sans-Serif" font-size="10.00">/tm_hash_set.hpp</text>
</a>
</g>
</g>
<!-- Node20&#45;&gt;Node21 -->
<g id="edge46" class="edge"><title>Node20&#45;&gt;Node21</title>
<path fill="none" stroke="midnightblue" d="M794.402,-195.723C799.859,-186.244 805.993,-175.591 810.771,-167.293"/>
<polygon fill="midnightblue" stroke="midnightblue" points="791.202,-194.266 789.245,-204.679 797.268,-197.759 791.202,-194.266"/>
</g>
<!-- Node21&#45;&gt;Node10 -->
<g id="edge47" class="edge"><title>Node21&#45;&gt;Node10</title>
<path fill="none" stroke="midnightblue" d="M795.847,-129.776C784.975,-119.81 772.304,-108.196 762.592,-99.2931"/>
<polygon fill="midnightblue" stroke="midnightblue" points="793.64,-132.502 803.377,-136.679 798.371,-127.342 793.64,-132.502"/>
</g>
</g>
</svg>
