<?xml version="1.0" encoding="UTF-8" standalone="no"?>
<!DOCTYPE svg PUBLIC "-//W3C//DTD SVG 1.1//EN"
 "http://www.w3.org/Graphics/SVG/1.1/DTD/svg11.dtd">
<!-- Generated by graphviz version 2.36.0 (20140111.2315)
 -->
<!-- Title: boosting/lockkey.h Pages: 1 -->
<svg width="495pt" height="196pt"
 viewBox="0.00 0.00 495.00 196.00" xmlns="http://www.w3.org/2000/svg" xmlns:xlink="http://www.w3.org/1999/xlink">
<g id="graph0" class="graph" transform="scale(1 1) rotate(0) translate(4 192)">
<title>boosting/lockkey.h</title>
<!-- Node1 -->
<g id="node1" class="node"><title>Node1</title>
<polygon fill="#bfbfbf" stroke="black" points="239,-168.5 239,-187.5 337,-187.5 337,-168.5 239,-168.5"/>
<text text-anchor="middle" x="288" y="-175.5" font-family="Helvetica,sans-Serif" font-size="10.00">boosting/lockkey.h</text>
</g>
<!-- Node2 -->
<g id="node2" class="node"><title>Node2</title>
<g id="a_node2"><a xlink:href="boostinglist_8h.html" target="_top" xlink:title="boosting/list/boostinglist.h">
<polygon fill="none" stroke="black" points="63,-112.5 63,-131.5 193,-131.5 193,-112.5 63,-112.5"/>
<text text-anchor="middle" x="128" y="-119.5" font-family="Helvetica,sans-Serif" font-size="10.00">boosting/list/boostinglist.h</text>
</a>
</g>
</g>
<!-- Node1&#45;&gt;Node2 -->
<g id="edge1" class="edge"><title>Node1&#45;&gt;Node2</title>
<path fill="none" stroke="midnightblue" d="M252.954,-165.172C222.826,-155.004 180.104,-140.585 153.234,-131.516"/>
<polygon fill="midnightblue" stroke="midnightblue" points="252.053,-168.562 262.648,-168.444 254.292,-161.929 252.053,-168.562"/>
</g>
<!-- Node6 -->
<g id="node6" class="node"><title>Node6</title>
<g id="a_node6"><a xlink:href="boostingskip_8h.html" target="_top" xlink:title="boosting/skiplist/boostingskip.h">
<polygon fill="none" stroke="black" points="211.5,-112.5 211.5,-131.5 364.5,-131.5 364.5,-112.5 211.5,-112.5"/>
<text text-anchor="middle" x="288" y="-119.5" font-family="Helvetica,sans-Serif" font-size="10.00">boosting/skiplist/boostingskip.h</text>
</a>
</g>
</g>
<!-- Node1&#45;&gt;Node6 -->
<g id="edge5" class="edge"><title>Node1&#45;&gt;Node6</title>
<path fill="none" stroke="midnightblue" d="M288,-157.805C288,-148.91 288,-138.78 288,-131.751"/>
<polygon fill="midnightblue" stroke="midnightblue" points="284.5,-158.083 288,-168.083 291.5,-158.083 284.5,-158.083"/>
</g>
<!-- Node8 -->
<g id="node8" class="node"><title>Node8</title>
<g id="a_node8"><a xlink:href="lockkey_8cc.html" target="_top" xlink:title="boosting/lockkey.cc">
<polygon fill="none" stroke="black" points="383,-112.5 383,-131.5 487,-131.5 487,-112.5 383,-112.5"/>
<text text-anchor="middle" x="435" y="-119.5" font-family="Helvetica,sans-Serif" font-size="10.00">boosting/lockkey.cc</text>
</a>
</g>
</g>
<!-- Node1&#45;&gt;Node8 -->
<g id="edge8" class="edge"><title>Node1&#45;&gt;Node8</title>
<path fill="none" stroke="midnightblue" d="M320.923,-164.906C348.56,-154.754 387.344,-140.506 411.816,-131.516"/>
<polygon fill="midnightblue" stroke="midnightblue" points="319.472,-161.71 311.293,-168.444 321.886,-168.281 319.472,-161.71"/>
</g>
<!-- Node3 -->
<g id="node3" class="node"><title>Node3</title>
<g id="a_node3"><a xlink:href="setadaptor_8h.html" target="_top" xlink:title="bench/setadaptor.h">
<polygon fill="none" stroke="black" points="153,-56.5 153,-75.5 253,-75.5 253,-56.5 153,-56.5"/>
<text text-anchor="middle" x="203" y="-63.5" font-family="Helvetica,sans-Serif" font-size="10.00">bench/setadaptor.h</text>
</a>
</g>
</g>
<!-- Node2&#45;&gt;Node3 -->
<g id="edge2" class="edge"><title>Node2&#45;&gt;Node3</title>
<path fill="none" stroke="midnightblue" d="M148.305,-106.38C161.861,-96.6204 179.242,-84.1057 190.731,-75.8339"/>
<polygon fill="midnightblue" stroke="midnightblue" points="146.12,-103.641 140.05,-112.324 150.21,-109.321 146.12,-103.641"/>
</g>
<!-- Node5 -->
<g id="node5" class="node"><title>Node5</title>
<g id="a_node5"><a xlink:href="boostinglist_8cc.html" target="_top" xlink:title="boosting/list/boostinglist.cc">
<polygon fill="none" stroke="black" points="-0.5,-56.5 -0.5,-75.5 134.5,-75.5 134.5,-56.5 -0.5,-56.5"/>
<text text-anchor="middle" x="67" y="-63.5" font-family="Helvetica,sans-Serif" font-size="10.00">boosting/list/boostinglist.cc</text>
</a>
</g>
</g>
<!-- Node2&#45;&gt;Node5 -->
<g id="edge4" class="edge"><title>Node2&#45;&gt;Node5</title>
<path fill="none" stroke="midnightblue" d="M110.533,-105.537C99.6562,-95.9087 86.0561,-83.8694 76.979,-75.8339"/>
<polygon fill="midnightblue" stroke="midnightblue" points="108.392,-108.316 118.199,-112.324 113.032,-103.075 108.392,-108.316"/>
</g>
<!-- Node4 -->
<g id="node4" class="node"><title>Node4</title>
<g id="a_node4"><a xlink:href="main_8cc.html" target="_top" xlink:title="bench/main.cc">
<polygon fill="none" stroke="black" points="163,-0.5 163,-19.5 243,-19.5 243,-0.5 163,-0.5"/>
<text text-anchor="middle" x="203" y="-7.5" font-family="Helvetica,sans-Serif" font-size="10.00">bench/main.cc</text>
</a>
</g>
</g>
<!-- Node3&#45;&gt;Node4 -->
<g id="edge3" class="edge"><title>Node3&#45;&gt;Node4</title>
<path fill="none" stroke="midnightblue" d="M203,-45.8045C203,-36.9102 203,-26.7798 203,-19.7511"/>
<polygon fill="midnightblue" stroke="midnightblue" points="199.5,-46.083 203,-56.083 206.5,-46.083 199.5,-46.083"/>
</g>
<!-- Node6&#45;&gt;Node3 -->
<g id="edge6" class="edge"><title>Node6&#45;&gt;Node3</title>
<path fill="none" stroke="midnightblue" d="M265.806,-106.901C250.22,-96.9986 229.87,-84.0705 216.623,-75.6545"/>
<polygon fill="midnightblue" stroke="midnightblue" points="264.026,-109.916 274.343,-112.324 267.779,-104.007 264.026,-109.916"/>
</g>
<!-- Node7 -->
<g id="node7" class="node"><title>Node7</title>
<g id="a_node7"><a xlink:href="boostingskip_8cc.html" target="_top" xlink:title="boosting/skiplist/boostingskip.cc">
<polygon fill="none" stroke="black" points="271,-56.5 271,-75.5 429,-75.5 429,-56.5 271,-56.5"/>
<text text-anchor="middle" x="350" y="-63.5" font-family="Helvetica,sans-Serif" font-size="10.00">boosting/skiplist/boostingskip.cc</text>
</a>
</g>
</g>
<!-- Node6&#45;&gt;Node7 -->
<g id="edge7" class="edge"><title>Node6&#45;&gt;Node7</title>
<path fill="none" stroke="midnightblue" d="M305.754,-105.537C316.808,-95.9087 330.631,-83.8694 339.857,-75.8339"/>
<polygon fill="midnightblue" stroke="midnightblue" points="303.203,-103.117 297.961,-112.324 307.801,-108.395 303.203,-103.117"/>
</g>
</g>
</svg>
