<?xml version="1.0" encoding="UTF-8" standalone="no"?>
<!DOCTYPE svg PUBLIC "-//W3C//DTD SVG 1.1//EN"
 "http://www.w3.org/Graphics/SVG/1.1/DTD/svg11.dtd">
<!-- Generated by graphviz version 2.36.0 (20140111.2315)
 -->
<!-- Title: tatas_acquire Pages: 1 -->
<svg width="326pt" height="28pt"
 viewBox="0.00 0.00 326.00 28.00" xmlns="http://www.w3.org/2000/svg" xmlns:xlink="http://www.w3.org/1999/xlink">
<g id="graph0" class="graph" transform="scale(1 1) rotate(0) translate(4 24)">
<title>tatas_acquire</title>
<!-- Node1 -->
<g id="node1" class="node"><title>Node1</title>
<polygon fill="#bfbfbf" stroke="black" points="0.5,-0.5 0.5,-19.5 75.5,-19.5 75.5,-0.5 0.5,-0.5"/>
<text text-anchor="middle" x="38" y="-7.5" font-family="Helvetica,sans-Serif" font-size="10.00">tatas_acquire</text>
</g>
<!-- Node2 -->
<g id="node2" class="node"><title>Node2</title>
<g id="a_node2"><a xlink:href="locks_8hpp.html#a61d1a83c5eb0a8300dce2fbb225b078c" target="_top" xlink:title="tatas_acquire_slowpath">
<polygon fill="none" stroke="black" points="112.5,-0.5 112.5,-19.5 231.5,-19.5 231.5,-0.5 112.5,-0.5"/>
<text text-anchor="middle" x="172" y="-7.5" font-family="Helvetica,sans-Serif" font-size="10.00">tatas_acquire_slowpath</text>
</a>
</g>
</g>
<!-- Node1&#45;&gt;Node2 -->
<g id="edge1" class="edge"><title>Node1&#45;&gt;Node2</title>
<path fill="none" stroke="midnightblue" d="M75.7694,-10C84.0278,-10 93.0513,-10 102.147,-10"/>
<polygon fill="midnightblue" stroke="midnightblue" points="102.411,-13.5001 112.411,-10 102.411,-6.5001 102.411,-13.5001"/>
</g>
<!-- Node3 -->
<g id="node3" class="node"><title>Node3</title>
<g id="a_node3"><a xlink:href="locks_8hpp.html#af5ba9b667099d9a2ff30ad4439e502a5" target="_top" xlink:title="backoff">
<polygon fill="none" stroke="black" points="268.5,-0.5 268.5,-19.5 317.5,-19.5 317.5,-0.5 268.5,-0.5"/>
<text text-anchor="middle" x="293" y="-7.5" font-family="Helvetica,sans-Serif" font-size="10.00">backoff</text>
</a>
</g>
</g>
<!-- Node2&#45;&gt;Node3 -->
<g id="edge2" class="edge"><title>Node2&#45;&gt;Node3</title>
<path fill="none" stroke="midnightblue" d="M231.803,-10C240.943,-10 250.105,-10 258.426,-10"/>
<polygon fill="midnightblue" stroke="midnightblue" points="258.452,-13.5001 268.452,-10 258.452,-6.5001 258.452,-13.5001"/>
</g>
</g>
</svg>
