<?xml version="1.0" encoding="UTF-8" standalone="no"?>
<!DOCTYPE svg PUBLIC "-//W3C//DTD SVG 1.1//EN"
 "http://www.w3.org/Graphics/SVG/1.1/DTD/svg11.dtd">
<!-- Generated by graphviz version 2.36.0 (20140111.2315)
 -->
<!-- Title: manager_addFlight_seq Pages: 1 -->
<svg width="602pt" height="104pt"
 viewBox="0.00 0.00 602.00 104.00" xmlns="http://www.w3.org/2000/svg" xmlns:xlink="http://www.w3.org/1999/xlink">
<g id="graph0" class="graph" transform="scale(1 1) rotate(0) translate(4 100)">
<title>manager_addFlight_seq</title>
<!-- Node1 -->
<g id="node1" class="node"><title>Node1</title>
<polygon fill="#bfbfbf" stroke="black" points="0,-38.5 0,-57.5 120,-57.5 120,-38.5 0,-38.5"/>
<text text-anchor="middle" x="60" y="-45.5" font-family="Helvetica,sans-Serif" font-size="10.00">manager_addFlight_seq</text>
</g>
<!-- Node2 -->
<g id="node2" class="node"><title>Node2</title>
<g id="a_node2"><a xlink:href="manager_8c.html#a5f407c87365596a5d4085c9d53982a91" target="_top" xlink:title="addReservation_seq">
<polygon fill="none" stroke="black" points="156,-38.5 156,-57.5 262,-57.5 262,-38.5 156,-38.5"/>
<text text-anchor="middle" x="209" y="-45.5" font-family="Helvetica,sans-Serif" font-size="10.00">addReservation_seq</text>
</a>
</g>
</g>
<!-- Node1&#45;&gt;Node2 -->
<g id="edge1" class="edge"><title>Node1&#45;&gt;Node2</title>
<path fill="none" stroke="midnightblue" d="M120.367,-48C128.751,-48 137.39,-48 145.825,-48"/>
<polygon fill="midnightblue" stroke="midnightblue" points="145.983,-51.5001 155.983,-48 145.983,-44.5001 145.983,-51.5001"/>
</g>
<!-- Node3 -->
<g id="node3" class="node"><title>Node3</title>
<g id="a_node3"><a xlink:href="reservation_8c.html#a5a7178e63efa3d32eb1eb43f9d95b758" target="_top" xlink:title="reservation_alloc_seq">
<polygon fill="none" stroke="black" points="314.5,-76.5 314.5,-95.5 425.5,-95.5 425.5,-76.5 314.5,-76.5"/>
<text text-anchor="middle" x="370" y="-83.5" font-family="Helvetica,sans-Serif" font-size="10.00">reservation_alloc_seq</text>
</a>
</g>
</g>
<!-- Node2&#45;&gt;Node3 -->
<g id="edge2" class="edge"><title>Node2&#45;&gt;Node3</title>
<path fill="none" stroke="midnightblue" d="M250.122,-57.589C271.104,-62.6035 296.982,-68.7881 319.23,-74.1053"/>
<polygon fill="midnightblue" stroke="midnightblue" points="318.626,-77.5595 329.166,-76.4799 320.254,-70.7513 318.626,-77.5595"/>
</g>
<!-- Node5 -->
<g id="node5" class="node"><title>Node5</title>
<g id="a_node5"><a xlink:href="reservation_8c.html#a095eddecd019df693bdcce5a3182799a" target="_top" xlink:title="reservation_addToTotal_seq">
<polygon fill="none" stroke="black" points="300,-38.5 300,-57.5 440,-57.5 440,-38.5 300,-38.5"/>
<text text-anchor="middle" x="370" y="-45.5" font-family="Helvetica,sans-Serif" font-size="10.00">reservation_addToTotal_seq</text>
</a>
</g>
</g>
<!-- Node2&#45;&gt;Node5 -->
<g id="edge4" class="edge"><title>Node2&#45;&gt;Node5</title>
<path fill="none" stroke="midnightblue" d="M262.063,-48C270.909,-48 280.271,-48 289.631,-48"/>
<polygon fill="midnightblue" stroke="midnightblue" points="289.763,-51.5001 299.763,-48 289.763,-44.5001 289.763,-51.5001"/>
</g>
<!-- Node6 -->
<g id="node6" class="node"><title>Node6</title>
<g id="a_node6"><a xlink:href="reservation_8c.html#af0f4e11ded3a9cc6d745ad63cc433f10" target="_top" xlink:title="reservation_updatePrice_seq">
<polygon fill="none" stroke="black" points="298.5,-0.5 298.5,-19.5 441.5,-19.5 441.5,-0.5 298.5,-0.5"/>
<text text-anchor="middle" x="370" y="-7.5" font-family="Helvetica,sans-Serif" font-size="10.00">reservation_updatePrice_seq</text>
</a>
</g>
</g>
<!-- Node2&#45;&gt;Node6 -->
<g id="edge6" class="edge"><title>Node2&#45;&gt;Node6</title>
<path fill="none" stroke="midnightblue" d="M250.122,-38.411C271.104,-33.3965 296.982,-27.2119 319.23,-21.8947"/>
<polygon fill="midnightblue" stroke="midnightblue" points="320.254,-25.2487 329.166,-19.5201 318.626,-18.4405 320.254,-25.2487"/>
</g>
<!-- Node4 -->
<g id="node4" class="node"><title>Node4</title>
<g id="a_node4"><a xlink:href="reservation_8c.html#a00e6e3fa05212396ac8ee5bc91602c30" target="_top" xlink:title="checkReservation_seq">
<polygon fill="none" stroke="black" points="478,-38.5 478,-57.5 594,-57.5 594,-38.5 478,-38.5"/>
<text text-anchor="middle" x="536" y="-45.5" font-family="Helvetica,sans-Serif" font-size="10.00">checkReservation_seq</text>
</a>
</g>
</g>
<!-- Node3&#45;&gt;Node4 -->
<g id="edge3" class="edge"><title>Node3&#45;&gt;Node4</title>
<path fill="none" stroke="midnightblue" d="M412.384,-76.411C434.123,-71.3739 460.957,-65.1562 483.975,-59.8229"/>
<polygon fill="midnightblue" stroke="midnightblue" points="484.962,-63.1871 493.913,-57.5201 483.381,-56.3677 484.962,-63.1871"/>
</g>
<!-- Node5&#45;&gt;Node4 -->
<g id="edge5" class="edge"><title>Node5&#45;&gt;Node4</title>
<path fill="none" stroke="midnightblue" d="M440.075,-48C449.234,-48 458.614,-48 467.741,-48"/>
<polygon fill="midnightblue" stroke="midnightblue" points="467.914,-51.5001 477.914,-48 467.914,-44.5001 467.914,-51.5001"/>
</g>
<!-- Node6&#45;&gt;Node4 -->
<g id="edge7" class="edge"><title>Node6&#45;&gt;Node4</title>
<path fill="none" stroke="midnightblue" d="M412.384,-19.589C434.123,-24.6261 460.957,-30.8438 483.975,-36.1771"/>
<polygon fill="midnightblue" stroke="midnightblue" points="483.381,-39.6323 493.913,-38.4799 484.962,-32.8129 483.381,-39.6323"/>
</g>
</g>
</svg>
