<?xml version="1.0" encoding="UTF-8" standalone="no"?>
<!DOCTYPE svg PUBLIC "-//W3C//DTD SVG 1.1//EN"
 "http://www.w3.org/Graphics/SVG/1.1/DTD/svg11.dtd">
<!-- Generated by graphviz version 2.36.0 (20140111.2315)
 -->
<!-- Title: queryNumFree Pages: 1 -->
<svg width="236pt" height="104pt"
 viewBox="0.00 0.00 236.00 104.00" xmlns="http://www.w3.org/2000/svg" xmlns:xlink="http://www.w3.org/1999/xlink">
<g id="graph0" class="graph" transform="scale(1 1) rotate(0) translate(4 100)">
<title>queryNumFree</title>
<!-- Node1 -->
<g id="node1" class="node"><title>Node1</title>
<polygon fill="#bfbfbf" stroke="black" points="0.5,-38.5 0.5,-57.5 81.5,-57.5 81.5,-38.5 0.5,-38.5"/>
<text text-anchor="middle" x="41" y="-45.5" font-family="Helvetica,sans-Serif" font-size="10.00">queryNumFree</text>
</g>
<!-- Node2 -->
<g id="node2" class="node"><title>Node2</title>
<g id="a_node2"><a xlink:href="manager_8h.html#a6feaf651c90349874b25be9f4536139a" target="_top" xlink:title="manager_queryCar">
<polygon fill="none" stroke="black" points="123.5,-76.5 123.5,-95.5 222.5,-95.5 222.5,-76.5 123.5,-76.5"/>
<text text-anchor="middle" x="173" y="-83.5" font-family="Helvetica,sans-Serif" font-size="10.00">manager_queryCar</text>
</a>
</g>
</g>
<!-- Node1&#45;&gt;Node2 -->
<g id="edge1" class="edge"><title>Node1&#45;&gt;Node2</title>
<path fill="none" stroke="midnightblue" d="M84.8839,-60.5353C102.569,-65.7048 122.734,-71.5991 139.206,-76.4141"/>
<polygon fill="midnightblue" stroke="midnightblue" points="85.3848,-57.0353 74.8045,-57.589 83.4208,-63.7542 85.3848,-57.0353"/>
</g>
<!-- Node3 -->
<g id="node3" class="node"><title>Node3</title>
<g id="a_node3"><a xlink:href="manager_8h.html#a2c1ab3a05dafa6c6d7f41e1c0afa2229" target="_top" xlink:title="manager_queryRoom">
<polygon fill="none" stroke="black" points="118,-38.5 118,-57.5 228,-57.5 228,-38.5 118,-38.5"/>
<text text-anchor="middle" x="173" y="-45.5" font-family="Helvetica,sans-Serif" font-size="10.00">manager_queryRoom</text>
</a>
</g>
</g>
<!-- Node1&#45;&gt;Node3 -->
<g id="edge2" class="edge"><title>Node1&#45;&gt;Node3</title>
<path fill="none" stroke="midnightblue" d="M91.8169,-48C100.284,-48 109.116,-48 117.692,-48"/>
<polygon fill="midnightblue" stroke="midnightblue" points="91.7107,-44.5001 81.7107,-48 91.7106,-51.5001 91.7107,-44.5001"/>
</g>
<!-- Node4 -->
<g id="node4" class="node"><title>Node4</title>
<g id="a_node4"><a xlink:href="manager_8h.html#ae7d9290684c5c512869715459940001b" target="_top" xlink:title="manager_queryFlight">
<polygon fill="none" stroke="black" points="119.5,-0.5 119.5,-19.5 226.5,-19.5 226.5,-0.5 119.5,-0.5"/>
<text text-anchor="middle" x="173" y="-7.5" font-family="Helvetica,sans-Serif" font-size="10.00">manager_queryFlight</text>
</a>
</g>
</g>
<!-- Node1&#45;&gt;Node4 -->
<g id="edge3" class="edge"><title>Node1&#45;&gt;Node4</title>
<path fill="none" stroke="midnightblue" d="M84.8839,-35.4647C102.569,-30.2952 122.734,-24.4009 139.206,-19.5859"/>
<polygon fill="midnightblue" stroke="midnightblue" points="83.4208,-32.2458 74.8045,-38.411 85.3848,-38.9647 83.4208,-32.2458"/>
</g>
</g>
</svg>
