<?xml version="1.0" encoding="UTF-8" standalone="no"?>
<!DOCTYPE svg PUBLIC "-//W3C//DTD SVG 1.1//EN"
 "http://www.w3.org/Graphics/SVG/1.1/DTD/svg11.dtd">
<!-- Generated by graphviz version 2.36.0 (20140111.2315)
 -->
<!-- Title: addReservation_seq Pages: 1 -->
<svg width="446pt" height="104pt"
 viewBox="0.00 0.00 446.00 104.00" xmlns="http://www.w3.org/2000/svg" xmlns:xlink="http://www.w3.org/1999/xlink">
<g id="graph0" class="graph" transform="scale(1 1) rotate(0) translate(4 100)">
<title>addReservation_seq</title>
<!-- Node1 -->
<g id="node1" class="node"><title>Node1</title>
<polygon fill="#bfbfbf" stroke="black" points="0,-38.5 0,-57.5 106,-57.5 106,-38.5 0,-38.5"/>
<text text-anchor="middle" x="53" y="-45.5" font-family="Helvetica,sans-Serif" font-size="10.00">addReservation_seq</text>
</g>
<!-- Node2 -->
<g id="node2" class="node"><title>Node2</title>
<g id="a_node2"><a xlink:href="reservation_8c.html#a5a7178e63efa3d32eb1eb43f9d95b758" target="_top" xlink:title="reservation_alloc_seq">
<polygon fill="none" stroke="black" points="158.5,-76.5 158.5,-95.5 269.5,-95.5 269.5,-76.5 158.5,-76.5"/>
<text text-anchor="middle" x="214" y="-83.5" font-family="Helvetica,sans-Serif" font-size="10.00">reservation_alloc_seq</text>
</a>
</g>
</g>
<!-- Node1&#45;&gt;Node2 -->
<g id="edge1" class="edge"><title>Node1&#45;&gt;Node2</title>
<path fill="none" stroke="midnightblue" d="M94.1224,-57.589C115.104,-62.6035 140.982,-68.7881 163.23,-74.1053"/>
<polygon fill="midnightblue" stroke="midnightblue" points="162.626,-77.5595 173.166,-76.4799 164.254,-70.7513 162.626,-77.5595"/>
</g>
<!-- Node4 -->
<g id="node4" class="node"><title>Node4</title>
<g id="a_node4"><a xlink:href="reservation_8c.html#a095eddecd019df693bdcce5a3182799a" target="_top" xlink:title="reservation_addToTotal_seq">
<polygon fill="none" stroke="black" points="144,-38.5 144,-57.5 284,-57.5 284,-38.5 144,-38.5"/>
<text text-anchor="middle" x="214" y="-45.5" font-family="Helvetica,sans-Serif" font-size="10.00">reservation_addToTotal_seq</text>
</a>
</g>
</g>
<!-- Node1&#45;&gt;Node4 -->
<g id="edge3" class="edge"><title>Node1&#45;&gt;Node4</title>
<path fill="none" stroke="midnightblue" d="M106.063,-48C114.909,-48 124.271,-48 133.631,-48"/>
<polygon fill="midnightblue" stroke="midnightblue" points="133.763,-51.5001 143.763,-48 133.763,-44.5001 133.763,-51.5001"/>
</g>
<!-- Node5 -->
<g id="node5" class="node"><title>Node5</title>
<g id="a_node5"><a xlink:href="reservation_8c.html#af0f4e11ded3a9cc6d745ad63cc433f10" target="_top" xlink:title="reservation_updatePrice_seq">
<polygon fill="none" stroke="black" points="142.5,-0.5 142.5,-19.5 285.5,-19.5 285.5,-0.5 142.5,-0.5"/>
<text text-anchor="middle" x="214" y="-7.5" font-family="Helvetica,sans-Serif" font-size="10.00">reservation_updatePrice_seq</text>
</a>
</g>
</g>
<!-- Node1&#45;&gt;Node5 -->
<g id="edge5" class="edge"><title>Node1&#45;&gt;Node5</title>
<path fill="none" stroke="midnightblue" d="M94.1224,-38.411C115.104,-33.3965 140.982,-27.2119 163.23,-21.8947"/>
<polygon fill="midnightblue" stroke="midnightblue" points="164.254,-25.2487 173.166,-19.5201 162.626,-18.4405 164.254,-25.2487"/>
</g>
<!-- Node3 -->
<g id="node3" class="node"><title>Node3</title>
<g id="a_node3"><a xlink:href="reservation_8c.html#a00e6e3fa05212396ac8ee5bc91602c30" target="_top" xlink:title="checkReservation_seq">
<polygon fill="none" stroke="black" points="322,-38.5 322,-57.5 438,-57.5 438,-38.5 322,-38.5"/>
<text text-anchor="middle" x="380" y="-45.5" font-family="Helvetica,sans-Serif" font-size="10.00">checkReservation_seq</text>
</a>
</g>
</g>
<!-- Node2&#45;&gt;Node3 -->
<g id="edge2" class="edge"><title>Node2&#45;&gt;Node3</title>
<path fill="none" stroke="midnightblue" d="M256.384,-76.411C278.123,-71.3739 304.957,-65.1562 327.975,-59.8229"/>
<polygon fill="midnightblue" stroke="midnightblue" points="328.962,-63.1871 337.913,-57.5201 327.381,-56.3677 328.962,-63.1871"/>
</g>
<!-- Node4&#45;&gt;Node3 -->
<g id="edge4" class="edge"><title>Node4&#45;&gt;Node3</title>
<path fill="none" stroke="midnightblue" d="M284.075,-48C293.234,-48 302.614,-48 311.741,-48"/>
<polygon fill="midnightblue" stroke="midnightblue" points="311.914,-51.5001 321.914,-48 311.914,-44.5001 311.914,-51.5001"/>
</g>
<!-- Node5&#45;&gt;Node3 -->
<g id="edge6" class="edge"><title>Node5&#45;&gt;Node3</title>
<path fill="none" stroke="midnightblue" d="M256.384,-19.589C278.123,-24.6261 304.957,-30.8438 327.975,-36.1771"/>
<polygon fill="midnightblue" stroke="midnightblue" points="327.381,-39.6323 337.913,-38.4799 328.962,-32.8129 327.381,-39.6323"/>
</g>
</g>
</svg>
