<?xml version="1.0" encoding="UTF-8" standalone="no"?>
<!DOCTYPE svg PUBLIC "-//W3C//DTD SVG 1.1//EN"
 "http://www.w3.org/Graphics/SVG/1.1/DTD/svg11.dtd">
<!-- Generated by graphviz version 2.36.0 (20140111.2315)
 -->
<!-- Title: manager_addRoom_seq Pages: 1 -->
<svg width="334pt" height="66pt"
 viewBox="0.00 0.00 334.00 66.00" xmlns="http://www.w3.org/2000/svg" xmlns:xlink="http://www.w3.org/1999/xlink">
<g id="graph0" class="graph" transform="scale(1 1) rotate(0) translate(4 62)">
<title>manager_addRoom_seq</title>
<!-- Node1 -->
<g id="node1" class="node"><title>Node1</title>
<polygon fill="#bfbfbf" stroke="black" points="0,-19.5 0,-38.5 122,-38.5 122,-19.5 0,-19.5"/>
<text text-anchor="middle" x="61" y="-26.5" font-family="Helvetica,sans-Serif" font-size="10.00">manager_addRoom_seq</text>
</g>
<!-- Node2 -->
<g id="node2" class="node"><title>Node2</title>
<g id="a_node2"><a xlink:href="vacation_8c.html#a50cbd725eec0f7508965d533f2dadf44" target="_top" xlink:title="initializeManager">
<polygon fill="none" stroke="black" points="158.5,-38.5 158.5,-57.5 247.5,-57.5 247.5,-38.5 158.5,-38.5"/>
<text text-anchor="middle" x="203" y="-45.5" font-family="Helvetica,sans-Serif" font-size="10.00">initializeManager</text>
</a>
</g>
</g>
<!-- Node1&#45;&gt;Node2 -->
<g id="edge1" class="edge"><title>Node1&#45;&gt;Node2</title>
<path fill="none" stroke="midnightblue" d="M132.215,-38.5292C141.124,-39.7382 150.028,-40.9467 158.351,-42.0762"/>
<polygon fill="midnightblue" stroke="midnightblue" points="132.565,-35.0447 122.185,-37.168 131.624,-41.9811 132.565,-35.0447"/>
</g>
<!-- Node4 -->
<g id="node4" class="node"><title>Node4</title>
<g id="a_node4"><a xlink:href="vacation_8c.html#a788803b8aaa6ed92eb1ca5cb47cad275" target="_top" xlink:title="checkTables">
<polygon fill="none" stroke="black" points="167,-0.5 167,-19.5 239,-19.5 239,-0.5 167,-0.5"/>
<text text-anchor="middle" x="203" y="-7.5" font-family="Helvetica,sans-Serif" font-size="10.00">checkTables</text>
</a>
</g>
</g>
<!-- Node1&#45;&gt;Node4 -->
<g id="edge3" class="edge"><title>Node1&#45;&gt;Node4</title>
<path fill="none" stroke="midnightblue" d="M132.264,-19.4642C144.297,-17.8311 156.319,-16.1995 166.909,-14.7623"/>
<polygon fill="midnightblue" stroke="midnightblue" points="131.624,-16.0189 122.185,-20.832 132.565,-22.9553 131.624,-16.0189"/>
</g>
<!-- Node3 -->
<g id="node3" class="node"><title>Node3</title>
<g id="a_node3"><a xlink:href="vacation_8c.html#a40c5c0b0d4eb7b59a91108269f69dc89" target="_top" xlink:title="MAIN">
<polygon fill="none" stroke="black" points="284,-19.5 284,-38.5 326,-38.5 326,-19.5 284,-19.5"/>
<text text-anchor="middle" x="305" y="-26.5" font-family="Helvetica,sans-Serif" font-size="10.00">MAIN</text>
</a>
</g>
</g>
<!-- Node2&#45;&gt;Node3 -->
<g id="edge2" class="edge"><title>Node2&#45;&gt;Node3</title>
<path fill="none" stroke="midnightblue" d="M257.395,-37.855C266.821,-36.0641 276.085,-34.3039 283.839,-32.8306"/>
<polygon fill="midnightblue" stroke="midnightblue" points="256.741,-34.4164 247.571,-39.7216 258.048,-41.2934 256.741,-34.4164"/>
</g>
<!-- Node4&#45;&gt;Node3 -->
<g id="edge4" class="edge"><title>Node4&#45;&gt;Node3</title>
<path fill="none" stroke="midnightblue" d="M249.286,-18.6044C261.407,-20.9073 273.9,-23.281 283.883,-25.1777"/>
<polygon fill="midnightblue" stroke="midnightblue" points="249.734,-15.1269 239.256,-16.6987 248.427,-22.0039 249.734,-15.1269"/>
</g>
</g>
</svg>
