<?xml version="1.0" encoding="UTF-8" standalone="no"?>
<!DOCTYPE svg PUBLIC "-//W3C//DTD SVG 1.1//EN"
 "http://www.w3.org/Graphics/SVG/1.1/DTD/svg11.dtd">
<!-- Generated by graphviz version 2.36.0 (20140111.2315)
 -->
<!-- Title: rstm/rstm&#45;dev/stamp&#45;0.9.10/labyrinth/maze.c Pages: 1 -->
<svg width="652pt" height="432pt"
 viewBox="0.00 0.00 652.00 432.00" xmlns="http://www.w3.org/2000/svg" xmlns:xlink="http://www.w3.org/1999/xlink">
<g id="graph0" class="graph" transform="scale(1 1) rotate(0) translate(4 428)">
<title>rstm/rstm&#45;dev/stamp&#45;0.9.10/labyrinth/maze.c</title>
<!-- Node1 -->
<g id="node1" class="node"><title>Node1</title>
<polygon fill="#bfbfbf" stroke="black" points="242,-393 242,-423 364,-423 364,-393 242,-393"/>
<text text-anchor="start" x="250" y="-411" font-family="Helvetica,sans-Serif" font-size="10.00">rstm/rstm&#45;dev/stamp</text>
<text text-anchor="middle" x="303" y="-400" font-family="Helvetica,sans-Serif" font-size="10.00">&#45;0.9.10/labyrinth/maze.c</text>
</g>
<!-- Node2 -->
<g id="node2" class="node"><title>Node2</title>
<g id="a_node2"><a xlink:href="assert_8h.html" target="_top" xlink:title="assert.h">
<polygon fill="none" stroke="black" points="94,-56.5 94,-75.5 146,-75.5 146,-56.5 94,-56.5"/>
<text text-anchor="middle" x="120" y="-63.5" font-family="Helvetica,sans-Serif" font-size="10.00">assert.h</text>
</a>
</g>
</g>
<!-- Node1&#45;&gt;Node2 -->
<g id="edge1" class="edge"><title>Node1&#45;&gt;Node2</title>
<path fill="none" stroke="midnightblue" d="M241.683,-396.375C153.146,-379.264 0,-342.258 0,-291 0,-291 0,-291 0,-177 0,-129.08 52.643,-96.3821 88.1941,-79.7644"/>
<polygon fill="midnightblue" stroke="midnightblue" points="90.013,-82.7849 97.7102,-75.5045 87.1529,-76.3959 90.013,-82.7849"/>
</g>
<!-- Node4 -->
<g id="node4" class="node"><title>Node4</title>
<polygon fill="none" stroke="#bfbfbf" points="596,-336.5 596,-355.5 644,-355.5 644,-336.5 596,-336.5"/>
<text text-anchor="middle" x="620" y="-343.5" font-family="Helvetica,sans-Serif" font-size="10.00">stdlib.h</text>
</g>
<!-- Node1&#45;&gt;Node4 -->
<g id="edge3" class="edge"><title>Node1&#45;&gt;Node4</title>
<path fill="none" stroke="midnightblue" d="M364.135,-396.762C420.779,-387.055 507.302,-371.662 582,-356 583.269,-355.734 584.561,-355.457 585.864,-355.173"/>
<polygon fill="midnightblue" stroke="midnightblue" points="586.936,-358.519 595.919,-352.902 585.394,-351.691 586.936,-358.519"/>
</g>
<!-- Node5 -->
<g id="node5" class="node"><title>Node5</title>
<g id="a_node5"><a xlink:href="labyrinth_2coordinate_8h.html" target="_top" xlink:title="coordinate.h">
<polygon fill="none" stroke="black" points="394,-280.5 394,-299.5 464,-299.5 464,-280.5 394,-280.5"/>
<text text-anchor="middle" x="429" y="-287.5" font-family="Helvetica,sans-Serif" font-size="10.00">coordinate.h</text>
</a>
</g>
</g>
<!-- Node1&#45;&gt;Node5 -->
<g id="edge4" class="edge"><title>Node1&#45;&gt;Node5</title>
<path fill="none" stroke="midnightblue" d="M320.358,-392.818C332.497,-382.762 348.981,-368.829 363,-356 380.685,-339.816 400.152,-320.441 413.329,-307.078"/>
<polygon fill="midnightblue" stroke="midnightblue" points="416.144,-309.207 420.649,-299.617 411.148,-304.304 416.144,-309.207"/>
</g>
<!-- Node8 -->
<g id="node8" class="node"><title>Node8</title>
<g id="a_node8"><a xlink:href="types_8h.html" target="_top" xlink:title="types.h">
<polygon fill="none" stroke="black" points="341.5,-168.5 341.5,-187.5 390.5,-187.5 390.5,-168.5 341.5,-168.5"/>
<text text-anchor="middle" x="366" y="-175.5" font-family="Helvetica,sans-Serif" font-size="10.00">types.h</text>
</a>
</g>
</g>
<!-- Node1&#45;&gt;Node8 -->
<g id="edge35" class="edge"><title>Node1&#45;&gt;Node8</title>
<path fill="none" stroke="midnightblue" d="M347.958,-392.997C388.977,-377.526 447.034,-348.202 473,-300 497.153,-255.164 433.188,-213.047 393.973,-192.356"/>
<polygon fill="midnightblue" stroke="midnightblue" points="395.103,-189.003 384.605,-187.569 391.917,-195.236 395.103,-189.003"/>
</g>
<!-- Node9 -->
<g id="node9" class="node"><title>Node9</title>
<g id="a_node9"><a xlink:href="grid_8h.html" target="_top" xlink:title="grid.h">
<polygon fill="none" stroke="black" points="258.5,-280.5 258.5,-299.5 299.5,-299.5 299.5,-280.5 258.5,-280.5"/>
<text text-anchor="middle" x="279" y="-287.5" font-family="Helvetica,sans-Serif" font-size="10.00">grid.h</text>
</a>
</g>
</g>
<!-- Node1&#45;&gt;Node9 -->
<g id="edge9" class="edge"><title>Node1&#45;&gt;Node9</title>
<path fill="none" stroke="midnightblue" d="M300.057,-392.776C295.733,-371.876 287.657,-332.844 282.861,-309.664"/>
<polygon fill="midnightblue" stroke="midnightblue" points="286.255,-308.79 280.801,-299.707 279.4,-310.209 286.255,-308.79"/>
</g>
<!-- Node10 -->
<g id="node10" class="node"><title>Node10</title>
<g id="a_node10"><a xlink:href="vector_8h.html" target="_top" xlink:title="vector.h">
<polygon fill="none" stroke="black" points="248,-224.5 248,-243.5 300,-243.5 300,-224.5 248,-224.5"/>
<text text-anchor="middle" x="274" y="-231.5" font-family="Helvetica,sans-Serif" font-size="10.00">vector.h</text>
</a>
</g>
</g>
<!-- Node1&#45;&gt;Node10 -->
<g id="edge36" class="edge"><title>Node1&#45;&gt;Node10</title>
<path fill="none" stroke="midnightblue" d="M293.183,-392.956C280.078,-373.264 257.529,-335.829 249,-300 246.942,-291.353 246.77,-288.605 249,-280 251.546,-270.175 256.753,-260.212 261.759,-252.166"/>
<polygon fill="midnightblue" stroke="midnightblue" points="264.749,-253.99 267.371,-243.725 258.92,-250.114 264.749,-253.99"/>
</g>
<!-- Node11 -->
<g id="node11" class="node"><title>Node11</title>
<g id="a_node11"><a xlink:href="list_8h.html" target="_top" xlink:title="list.h">
<polygon fill="none" stroke="black" points="126,-280.5 126,-299.5 164,-299.5 164,-280.5 126,-280.5"/>
<text text-anchor="middle" x="145" y="-287.5" font-family="Helvetica,sans-Serif" font-size="10.00">list.h</text>
</a>
</g>
</g>
<!-- Node1&#45;&gt;Node11 -->
<g id="edge14" class="edge"><title>Node1&#45;&gt;Node11</title>
<path fill="none" stroke="midnightblue" d="M275.811,-392.996C258.172,-383.45 235.018,-370.035 216,-356 195.542,-340.903 174.324,-320.792 160.475,-306.96"/>
<polygon fill="midnightblue" stroke="midnightblue" points="162.75,-304.283 153.233,-299.626 157.769,-309.201 162.75,-304.283"/>
</g>
<!-- Node13 -->
<g id="node13" class="node"><title>Node13</title>
<g id="a_node13"><a xlink:href="pair_8h.html" target="_top" xlink:title="pair.h">
<polygon fill="none" stroke="black" points="154.5,-168.5 154.5,-187.5 195.5,-187.5 195.5,-168.5 154.5,-168.5"/>
<text text-anchor="middle" x="175" y="-175.5" font-family="Helvetica,sans-Serif" font-size="10.00">pair.h</text>
</a>
</g>
</g>
<!-- Node1&#45;&gt;Node13 -->
<g id="edge34" class="edge"><title>Node1&#45;&gt;Node13</title>
<path fill="none" stroke="midnightblue" d="M257.928,-392.891C215.112,-377.129 152.199,-347.409 117,-300 96.038,-271.766 77.2473,-254.354 95,-224 105.725,-205.662 126.974,-194.22 144.879,-187.465"/>
<polygon fill="midnightblue" stroke="midnightblue" points="146.083,-190.752 154.393,-184.18 143.798,-184.135 146.083,-190.752"/>
</g>
<!-- Node14 -->
<g id="node14" class="node"><title>Node14</title>
<g id="a_node14"><a xlink:href="maze_8h.html" target="_top" xlink:title="maze.h">
<polygon fill="none" stroke="black" points="305.5,-336.5 305.5,-355.5 354.5,-355.5 354.5,-336.5 305.5,-336.5"/>
<text text-anchor="middle" x="330" y="-343.5" font-family="Helvetica,sans-Serif" font-size="10.00">maze.h</text>
</a>
</g>
</g>
<!-- Node1&#45;&gt;Node14 -->
<g id="edge20" class="edge"><title>Node1&#45;&gt;Node14</title>
<path fill="none" stroke="midnightblue" d="M309.399,-392.781C313.16,-384.422 317.95,-373.777 321.965,-364.856"/>
<polygon fill="midnightblue" stroke="midnightblue" points="325.159,-366.286 326.071,-355.731 318.776,-363.413 325.159,-366.286"/>
</g>
<!-- Node15 -->
<g id="node15" class="node"><title>Node15</title>
<g id="a_node15"><a xlink:href="queue_8h.html" target="_top" xlink:title="queue.h">
<polygon fill="none" stroke="black" points="508.5,-224.5 508.5,-243.5 559.5,-243.5 559.5,-224.5 508.5,-224.5"/>
<text text-anchor="middle" x="534" y="-231.5" font-family="Helvetica,sans-Serif" font-size="10.00">queue.h</text>
</a>
</g>
</g>
<!-- Node1&#45;&gt;Node15 -->
<g id="edge33" class="edge"><title>Node1&#45;&gt;Node15</title>
<path fill="none" stroke="midnightblue" d="M364.157,-398.754C416.469,-390.463 486.337,-376.034 506,-356 532.97,-328.52 535.938,-280.501 535.267,-253.968"/>
<polygon fill="midnightblue" stroke="midnightblue" points="538.752,-253.566 534.795,-243.737 531.759,-253.888 538.752,-253.566"/>
</g>
<!-- Node3 -->
<g id="node3" class="node"><title>Node3</title>
<polygon fill="none" stroke="#bfbfbf" points="94.5,-0.5 94.5,-19.5 145.5,-19.5 145.5,-0.5 94.5,-0.5"/>
<text text-anchor="middle" x="120" y="-7.5" font-family="Helvetica,sans-Serif" font-size="10.00">config.h</text>
</g>
<!-- Node2&#45;&gt;Node3 -->
<g id="edge2" class="edge"><title>Node2&#45;&gt;Node3</title>
<path fill="none" stroke="midnightblue" d="M120,-56.083C120,-49.0059 120,-38.8611 120,-29.9865"/>
<polygon fill="midnightblue" stroke="midnightblue" points="123.5,-29.751 120,-19.7511 116.5,-29.7511 123.5,-29.751"/>
</g>
<!-- Node6 -->
<g id="node6" class="node"><title>Node6</title>
<g id="a_node6"><a xlink:href="tm_8h.html" target="_top" xlink:title="tm.h">
<polygon fill="none" stroke="black" points="256,-112.5 256,-131.5 292,-131.5 292,-112.5 256,-112.5"/>
<text text-anchor="middle" x="274" y="-119.5" font-family="Helvetica,sans-Serif" font-size="10.00">tm.h</text>
</a>
</g>
</g>
<!-- Node5&#45;&gt;Node6 -->
<g id="edge5" class="edge"><title>Node5&#45;&gt;Node6</title>
<path fill="none" stroke="midnightblue" d="M429.442,-280.429C430.081,-258.716 428.724,-200.939 399,-168 374.063,-140.366 330.891,-129.689 302.385,-125.573"/>
<polygon fill="midnightblue" stroke="midnightblue" points="302.605,-122.073 292.246,-124.294 301.73,-129.018 302.605,-122.073"/>
</g>
<!-- Node5&#45;&gt;Node8 -->
<g id="edge8" class="edge"><title>Node5&#45;&gt;Node8</title>
<path fill="none" stroke="midnightblue" d="M424.056,-280.368C413.706,-262.296 389.583,-220.176 375.912,-196.307"/>
<polygon fill="midnightblue" stroke="midnightblue" points="378.928,-194.53 370.921,-187.591 372.853,-198.008 378.928,-194.53"/>
</g>
<!-- Node6&#45;&gt;Node2 -->
<g id="edge7" class="edge"><title>Node6&#45;&gt;Node2</title>
<path fill="none" stroke="midnightblue" d="M255.729,-114.593C230.711,-105.821 185.326,-89.9064 153.967,-78.9105"/>
<polygon fill="midnightblue" stroke="midnightblue" points="154.917,-75.5347 144.322,-75.5285 152.601,-82.1404 154.917,-75.5347"/>
</g>
<!-- Node7 -->
<g id="node7" class="node"><title>Node7</title>
<polygon fill="none" stroke="#bfbfbf" points="284,-56.5 284,-75.5 330,-75.5 330,-56.5 284,-56.5"/>
<text text-anchor="middle" x="307" y="-63.5" font-family="Helvetica,sans-Serif" font-size="10.00">stdio.h</text>
</g>
<!-- Node6&#45;&gt;Node7 -->
<g id="edge6" class="edge"><title>Node6&#45;&gt;Node7</title>
<path fill="none" stroke="midnightblue" d="M279.449,-112.083C284.014,-104.613 290.668,-93.7244 296.293,-84.5199"/>
<polygon fill="midnightblue" stroke="midnightblue" points="299.424,-86.109 301.652,-75.7511 293.451,-82.4588 299.424,-86.109"/>
</g>
<!-- Node9&#45;&gt;Node8 -->
<g id="edge10" class="edge"><title>Node9&#45;&gt;Node8</title>
<path fill="none" stroke="midnightblue" d="M285.827,-280.368C300.248,-262.135 334.027,-219.426 352.811,-195.675"/>
<polygon fill="midnightblue" stroke="midnightblue" points="355.747,-197.606 359.205,-187.591 350.256,-193.264 355.747,-197.606"/>
</g>
<!-- Node9&#45;&gt;Node10 -->
<g id="edge11" class="edge"><title>Node9&#45;&gt;Node10</title>
<path fill="none" stroke="midnightblue" d="M278.174,-280.083C277.519,-273.006 276.58,-262.861 275.758,-253.986"/>
<polygon fill="midnightblue" stroke="midnightblue" points="279.217,-253.386 274.81,-243.751 272.247,-254.031 279.217,-253.386"/>
</g>
<!-- Node10&#45;&gt;Node6 -->
<g id="edge12" class="edge"><title>Node10&#45;&gt;Node6</title>
<path fill="none" stroke="midnightblue" d="M274,-224.368C274,-206.617 274,-165.666 274,-141.597"/>
<polygon fill="midnightblue" stroke="midnightblue" points="277.5,-141.591 274,-131.591 270.5,-141.591 277.5,-141.591"/>
</g>
<!-- Node10&#45;&gt;Node8 -->
<g id="edge13" class="edge"><title>Node10&#45;&gt;Node8</title>
<path fill="none" stroke="midnightblue" d="M288.781,-224.324C303.267,-215.822 325.573,-202.729 342.493,-192.797"/>
<polygon fill="midnightblue" stroke="midnightblue" points="344.403,-195.735 351.255,-187.655 340.859,-189.698 344.403,-195.735"/>
</g>
<!-- Node11&#45;&gt;Node6 -->
<g id="edge15" class="edge"><title>Node11&#45;&gt;Node6</title>
<path fill="none" stroke="midnightblue" d="M130.048,-280.474C118.068,-272.702 102.127,-260.002 95,-244 91.3837,-235.88 91.8319,-232.305 95,-224 118.547,-162.271 201.67,-137.001 245.873,-127.741"/>
<polygon fill="midnightblue" stroke="midnightblue" points="246.563,-131.173 255.702,-125.813 245.216,-124.304 246.563,-131.173"/>
</g>
<!-- Node11&#45;&gt;Node8 -->
<g id="edge16" class="edge"><title>Node11&#45;&gt;Node8</title>
<path fill="none" stroke="midnightblue" d="M155.411,-280.412C172.156,-266.93 206.497,-240.624 239,-224 268.968,-208.673 305.373,-196.358 331.509,-188.513"/>
<polygon fill="midnightblue" stroke="midnightblue" points="332.727,-191.803 341.336,-185.628 330.755,-185.086 332.727,-191.803"/>
</g>
<!-- Node12 -->
<g id="node12" class="node"><title>Node12</title>
<g id="a_node12"><a xlink:href="lehigh_8h.html" target="_top" xlink:title="lehigh.h">
<polygon fill="none" stroke="black" points="104,-224.5 104,-243.5 154,-243.5 154,-224.5 104,-224.5"/>
<text text-anchor="middle" x="129" y="-231.5" font-family="Helvetica,sans-Serif" font-size="10.00">lehigh.h</text>
</a>
</g>
</g>
<!-- Node11&#45;&gt;Node12 -->
<g id="edge17" class="edge"><title>Node11&#45;&gt;Node12</title>
<path fill="none" stroke="midnightblue" d="M142.358,-280.083C140.214,-272.849 137.121,-262.409 134.451,-253.397"/>
<polygon fill="midnightblue" stroke="midnightblue" points="137.79,-252.345 131.593,-243.751 131.078,-254.333 137.79,-252.345"/>
</g>
<!-- Node12&#45;&gt;Node13 -->
<g id="edge18" class="edge"><title>Node12&#45;&gt;Node13</title>
<path fill="none" stroke="midnightblue" d="M136.596,-224.083C143.227,-216.298 153.021,-204.801 161.058,-195.367"/>
<polygon fill="midnightblue" stroke="midnightblue" points="163.725,-197.633 167.545,-187.751 158.396,-193.094 163.725,-197.633"/>
</g>
<!-- Node13&#45;&gt;Node6 -->
<g id="edge19" class="edge"><title>Node13&#45;&gt;Node6</title>
<path fill="none" stroke="midnightblue" d="M190.906,-168.324C206.638,-159.743 230.942,-146.486 249.209,-136.522"/>
<polygon fill="midnightblue" stroke="midnightblue" points="251.03,-139.516 258.133,-131.655 247.678,-133.37 251.03,-139.516"/>
</g>
<!-- Node14&#45;&gt;Node5 -->
<g id="edge21" class="edge"><title>Node14&#45;&gt;Node5</title>
<path fill="none" stroke="midnightblue" d="M345.906,-336.324C361.638,-327.743 385.942,-314.486 404.209,-304.522"/>
<polygon fill="midnightblue" stroke="midnightblue" points="406.03,-307.516 413.133,-299.655 402.678,-301.37 406.03,-307.516"/>
</g>
<!-- Node14&#45;&gt;Node8 -->
<g id="edge31" class="edge"><title>Node14&#45;&gt;Node8</title>
<path fill="none" stroke="midnightblue" d="M331.936,-336.075C337.602,-309.945 354.243,-233.211 361.971,-197.577"/>
<polygon fill="midnightblue" stroke="midnightblue" points="365.443,-198.083 364.142,-187.568 358.602,-196.599 365.443,-198.083"/>
</g>
<!-- Node14&#45;&gt;Node9 -->
<g id="edge22" class="edge"><title>Node14&#45;&gt;Node9</title>
<path fill="none" stroke="midnightblue" d="M321.578,-336.083C314.152,-328.22 303.148,-316.569 294.188,-307.081"/>
<polygon fill="midnightblue" stroke="midnightblue" points="296.676,-304.618 287.265,-299.751 291.587,-309.424 296.676,-304.618"/>
</g>
<!-- Node14&#45;&gt;Node10 -->
<g id="edge32" class="edge"><title>Node14&#45;&gt;Node10</title>
<path fill="none" stroke="midnightblue" d="M327.986,-336.227C324.832,-323.389 318.03,-298.954 308,-280 302.63,-269.851 295.045,-259.558 288.402,-251.382"/>
<polygon fill="midnightblue" stroke="midnightblue" points="291.07,-249.117 281.952,-243.723 285.716,-253.626 291.07,-249.117"/>
</g>
<!-- Node14&#45;&gt;Node11 -->
<g id="edge23" class="edge"><title>Node14&#45;&gt;Node11</title>
<path fill="none" stroke="midnightblue" d="M305.433,-337.829C271.439,-327.907 210.165,-310.021 173.977,-299.458"/>
<polygon fill="midnightblue" stroke="midnightblue" points="174.625,-296.001 164.045,-296.559 172.663,-302.721 174.625,-296.001"/>
</g>
<!-- Node14&#45;&gt;Node13 -->
<g id="edge24" class="edge"><title>Node14&#45;&gt;Node13</title>
<path fill="none" stroke="midnightblue" d="M307.734,-336.375C290.242,-328.777 266.067,-316.369 249,-300 217.136,-269.44 193.606,-222.333 182.367,-196.848"/>
<polygon fill="midnightblue" stroke="midnightblue" points="185.582,-195.464 178.432,-187.645 179.146,-198.216 185.582,-195.464"/>
</g>
<!-- Node14&#45;&gt;Node15 -->
<g id="edge25" class="edge"><title>Node14&#45;&gt;Node15</title>
<path fill="none" stroke="midnightblue" d="M354.625,-341.195C384.471,-335.731 435.426,-323.609 473,-300 492.967,-287.454 510.776,-266.815 521.922,-252.162"/>
<polygon fill="midnightblue" stroke="midnightblue" points="524.863,-254.07 527.96,-243.938 519.22,-249.927 524.863,-254.07"/>
</g>
<!-- Node15&#45;&gt;Node6 -->
<g id="edge29" class="edge"><title>Node15&#45;&gt;Node6</title>
<path fill="none" stroke="midnightblue" d="M531.193,-224.247C526.159,-210.039 514.194,-182.128 494,-168 463.283,-146.51 354.555,-131.912 302.364,-125.979"/>
<polygon fill="midnightblue" stroke="midnightblue" points="302.458,-122.468 292.133,-124.845 301.687,-129.425 302.458,-122.468"/>
</g>
<!-- Node15&#45;&gt;Node8 -->
<g id="edge30" class="edge"><title>Node15&#45;&gt;Node8</title>
<path fill="none" stroke="midnightblue" d="M508.484,-224.799C479.66,-215.534 432.597,-200.406 400.509,-190.092"/>
<polygon fill="midnightblue" stroke="midnightblue" points="401.251,-186.654 390.659,-186.926 399.108,-193.318 401.251,-186.654"/>
</g>
<!-- Node16 -->
<g id="node16" class="node"><title>Node16</title>
<g id="a_node16"><a xlink:href="rstm_2rstm-dev_2stamp-0_89_810_2lib_2random_8h.html" target="_top" xlink:title="random.h">
<polygon fill="none" stroke="black" points="546.5,-168.5 546.5,-187.5 603.5,-187.5 603.5,-168.5 546.5,-168.5"/>
<text text-anchor="middle" x="575" y="-175.5" font-family="Helvetica,sans-Serif" font-size="10.00">random.h</text>
</a>
</g>
</g>
<!-- Node15&#45;&gt;Node16 -->
<g id="edge26" class="edge"><title>Node15&#45;&gt;Node16</title>
<path fill="none" stroke="midnightblue" d="M540.77,-224.083C546.562,-216.455 555.058,-205.264 562.138,-195.941"/>
<polygon fill="midnightblue" stroke="midnightblue" points="565.096,-197.832 568.356,-187.751 559.521,-193.599 565.096,-197.832"/>
</g>
<!-- Node17 -->
<g id="node17" class="node"><title>Node17</title>
<g id="a_node17"><a xlink:href="mt19937ar_8h.html" target="_top" xlink:title="mt19937ar.h">
<polygon fill="none" stroke="black" points="424.5,-112.5 424.5,-131.5 495.5,-131.5 495.5,-112.5 424.5,-112.5"/>
<text text-anchor="middle" x="460" y="-119.5" font-family="Helvetica,sans-Serif" font-size="10.00">mt19937ar.h</text>
</a>
</g>
</g>
<!-- Node16&#45;&gt;Node17 -->
<g id="edge27" class="edge"><title>Node16&#45;&gt;Node17</title>
<path fill="none" stroke="midnightblue" d="M556.778,-168.444C538.104,-159.675 508.844,-145.935 487.383,-135.858"/>
<polygon fill="midnightblue" stroke="midnightblue" points="488.676,-132.599 478.137,-131.516 485.701,-138.935 488.676,-132.599"/>
</g>
<!-- Node17&#45;&gt;Node7 -->
<g id="edge28" class="edge"><title>Node17&#45;&gt;Node7</title>
<path fill="none" stroke="midnightblue" d="M435.757,-112.444C409.828,-103.292 368.557,-88.726 339.752,-78.5594"/>
<polygon fill="midnightblue" stroke="midnightblue" points="340.723,-75.1907 330.128,-75.1629 338.393,-81.7917 340.723,-75.1907"/>
</g>
</g>
</svg>
