<?xml version="1.0" encoding="UTF-8" standalone="no"?>
<!DOCTYPE svg PUBLIC "-//W3C//DTD SVG 1.1//EN"
 "http://www.w3.org/Graphics/SVG/1.1/DTD/svg11.dtd">
<!-- Generated by graphviz version 2.36.0 (20140111.2315)
 -->
<!-- Title: rstm/rstm&#45;dev/mesh/macros.hpp Pages: 1 -->
<svg width="1395pt" height="448pt"
 viewBox="0.00 0.00 1395.42 448.00" xmlns="http://www.w3.org/2000/svg" xmlns:xlink="http://www.w3.org/1999/xlink">
<g id="graph0" class="graph" transform="scale(1 1) rotate(0) translate(4 444)">
<title>rstm/rstm&#45;dev/mesh/macros.hpp</title>
<!-- Node1 -->
<g id="node1" class="node"><title>Node1</title>
<polygon fill="#bfbfbf" stroke="black" points="1158,-409 1158,-439 1262,-439 1262,-409 1158,-409"/>
<text text-anchor="start" x="1166" y="-427" font-family="Helvetica,sans-Serif" font-size="10.00">rstm/rstm&#45;dev/mesh</text>
<text text-anchor="middle" x="1210" y="-416" font-family="Helvetica,sans-Serif" font-size="10.00">/macros.hpp</text>
</g>
<!-- Node2 -->
<g id="node2" class="node"><title>Node2</title>
<g id="a_node2"><a xlink:href="barrier_8hpp.html" target="_top" xlink:title="rstm/rstm&#45;dev/mesh\l/barrier.hpp">
<polygon fill="none" stroke="black" points="1066,-137 1066,-167 1170,-167 1170,-137 1066,-137"/>
<text text-anchor="start" x="1074" y="-155" font-family="Helvetica,sans-Serif" font-size="10.00">rstm/rstm&#45;dev/mesh</text>
<text text-anchor="middle" x="1118" y="-144" font-family="Helvetica,sans-Serif" font-size="10.00">/barrier.hpp</text>
</a>
</g>
</g>
<!-- Node1&#45;&gt;Node2 -->
<g id="edge1" class="edge"><title>Node1&#45;&gt;Node2</title>
<path fill="none" stroke="midnightblue" d="M1201.94,-399.336C1183.33,-344.744 1137.87,-211.305 1122.88,-167.322"/>
<polygon fill="midnightblue" stroke="midnightblue" points="1198.64,-400.527 1205.18,-408.864 1205.27,-398.269 1198.64,-400.527"/>
</g>
<!-- Node6 -->
<g id="node6" class="node"><title>Node6</title>
<g id="a_node6"><a xlink:href="lock_8hpp.html" target="_top" xlink:title="rstm/rstm&#45;dev/mesh\l/lock.hpp">
<polygon fill="none" stroke="black" points="969,-341 969,-371 1073,-371 1073,-341 969,-341"/>
<text text-anchor="start" x="977" y="-359" font-family="Helvetica,sans-Serif" font-size="10.00">rstm/rstm&#45;dev/mesh</text>
<text text-anchor="middle" x="1021" y="-348" font-family="Helvetica,sans-Serif" font-size="10.00">/lock.hpp</text>
</a>
</g>
</g>
<!-- Node1&#45;&gt;Node6 -->
<g id="edge6" class="edge"><title>Node1&#45;&gt;Node6</title>
<path fill="none" stroke="midnightblue" d="M1159.75,-405.452C1128.9,-394.68 1089.93,-381.072 1061.15,-371.022"/>
<polygon fill="midnightblue" stroke="midnightblue" points="1158.86,-408.849 1169.45,-408.841 1161.17,-402.24 1158.86,-408.849"/>
</g>
<!-- Node20 -->
<g id="node20" class="node"><title>Node20</title>
<g id="a_node20"><a xlink:href="my__thread_8hpp.html" target="_top" xlink:title="rstm/rstm&#45;dev/mesh\l/my_thread.hpp">
<polygon fill="none" stroke="black" points="990,-205 990,-235 1094,-235 1094,-205 990,-205"/>
<text text-anchor="start" x="998" y="-223" font-family="Helvetica,sans-Serif" font-size="10.00">rstm/rstm&#45;dev/mesh</text>
<text text-anchor="middle" x="1042" y="-212" font-family="Helvetica,sans-Serif" font-size="10.00">/my_thread.hpp</text>
</a>
</g>
</g>
<!-- Node1&#45;&gt;Node20 -->
<g id="edge62" class="edge"><title>Node1&#45;&gt;Node20</title>
<path fill="none" stroke="midnightblue" d="M1191.6,-400.881C1156.89,-359.147 1082.64,-269.871 1053.8,-235.189"/>
<polygon fill="midnightblue" stroke="midnightblue" points="1189.1,-403.345 1198.19,-408.796 1194.48,-398.869 1189.1,-403.345"/>
</g>
<!-- Node3 -->
<g id="node3" class="node"><title>Node3</title>
<g id="a_node3"><a xlink:href="worker_8hpp.html" target="_top" xlink:title="rstm/rstm&#45;dev/mesh\l/worker.hpp">
<polygon fill="none" stroke="black" points="880,-69 880,-99 984,-99 984,-69 880,-69"/>
<text text-anchor="start" x="888" y="-87" font-family="Helvetica,sans-Serif" font-size="10.00">rstm/rstm&#45;dev/mesh</text>
<text text-anchor="middle" x="932" y="-76" font-family="Helvetica,sans-Serif" font-size="10.00">/worker.hpp</text>
</a>
</g>
</g>
<!-- Node2&#45;&gt;Node3 -->
<g id="edge2" class="edge"><title>Node2&#45;&gt;Node3</title>
<path fill="none" stroke="midnightblue" d="M1068.55,-133.452C1038.19,-122.68 999.84,-109.072 971.516,-99.0218"/>
<polygon fill="midnightblue" stroke="midnightblue" points="1067.5,-136.796 1078.1,-136.841 1069.84,-130.199 1067.5,-136.796"/>
</g>
<!-- Node5 -->
<g id="node5" class="node"><title>Node5</title>
<g id="a_node5"><a xlink:href="worker_8cpp.html" target="_top" xlink:title="rstm/rstm&#45;dev/mesh\l/worker.cpp">
<polygon fill="none" stroke="black" points="548,-1 548,-31 652,-31 652,-1 548,-1"/>
<text text-anchor="start" x="556" y="-19" font-family="Helvetica,sans-Serif" font-size="10.00">rstm/rstm&#45;dev/mesh</text>
<text text-anchor="middle" x="600" y="-8" font-family="Helvetica,sans-Serif" font-size="10.00">/worker.cpp</text>
</a>
</g>
</g>
<!-- Node2&#45;&gt;Node5 -->
<g id="edge5" class="edge"><title>Node2&#45;&gt;Node5</title>
<path fill="none" stroke="midnightblue" d="M1109.31,-127.327C1100.87,-107.943 1086.07,-81.5819 1064,-68 996.106,-26.2115 758.499,-18.532 652.149,-17.2157"/>
<polygon fill="midnightblue" stroke="midnightblue" points="1106.13,-128.79 1113.15,-136.723 1112.61,-126.142 1106.13,-128.79"/>
</g>
<!-- Node4 -->
<g id="node4" class="node"><title>Node4</title>
<g id="a_node4"><a xlink:href="mesh_8cpp.html" target="_top" xlink:title="rstm/rstm&#45;dev/mesh\l/mesh.cpp">
<polygon fill="none" stroke="black" points="1013,-1 1013,-31 1117,-31 1117,-1 1013,-1"/>
<text text-anchor="start" x="1021" y="-19" font-family="Helvetica,sans-Serif" font-size="10.00">rstm/rstm&#45;dev/mesh</text>
<text text-anchor="middle" x="1065" y="-8" font-family="Helvetica,sans-Serif" font-size="10.00">/mesh.cpp</text>
</a>
</g>
</g>
<!-- Node3&#45;&gt;Node4 -->
<g id="edge3" class="edge"><title>Node3&#45;&gt;Node4</title>
<path fill="none" stroke="midnightblue" d="M969.605,-64.3388C990.85,-53.7964 1016.98,-40.8303 1036.52,-31.1352"/>
<polygon fill="midnightblue" stroke="midnightblue" points="967.934,-61.2609 960.532,-68.8413 971.045,-67.5313 967.934,-61.2609"/>
</g>
<!-- Node3&#45;&gt;Node5 -->
<g id="edge4" class="edge"><title>Node3&#45;&gt;Node5</title>
<path fill="none" stroke="midnightblue" d="M869.872,-67.8181C788.351,-50.3175 704.679,-35.1313 652.124,-25.93"/>
<polygon fill="midnightblue" stroke="midnightblue" points="869.287,-71.2724 879.8,-69.9635 870.765,-64.4303 869.287,-71.2724"/>
</g>
<!-- Node6&#45;&gt;Node4 -->
<g id="edge60" class="edge"><title>Node6&#45;&gt;Node4</title>
<path fill="none" stroke="midnightblue" d="M1083.21,-344.489C1169.13,-326.115 1319.98,-278.943 1377,-168 1398.21,-126.731 1383.45,-96.7094 1347,-68 1312.12,-40.5263 1188.78,-26.5704 1117.29,-20.6384"/>
<polygon fill="midnightblue" stroke="midnightblue" points="1082.4,-341.083 1073.32,-346.539 1083.82,-347.937 1082.4,-341.083"/>
</g>
<!-- Node6&#45;&gt;Node5 -->
<g id="edge61" class="edge"><title>Node6&#45;&gt;Node5</title>
<path fill="none" stroke="midnightblue" d="M1010.58,-331.534C1000.71,-307.941 986.603,-270.254 981,-236 968.916,-162.125 1042.41,-124.235 993,-68 970.833,-42.771 753.87,-26.3592 652.145,-19.9907"/>
<polygon fill="midnightblue" stroke="midnightblue" points="1007.36,-332.912 1014.51,-340.732 1013.8,-330.161 1007.36,-332.912"/>
</g>
<!-- Node7 -->
<g id="node7" class="node"><title>Node7</title>
<g id="a_node7"><a xlink:href="common_8hpp.html" target="_top" xlink:title="rstm/rstm&#45;dev/mesh\l/common.hpp">
<polygon fill="none" stroke="black" points="583,-273 583,-303 687,-303 687,-273 583,-273"/>
<text text-anchor="start" x="591" y="-291" font-family="Helvetica,sans-Serif" font-size="10.00">rstm/rstm&#45;dev/mesh</text>
<text text-anchor="middle" x="635" y="-280" font-family="Helvetica,sans-Serif" font-size="10.00">/common.hpp</text>
</a>
</g>
</g>
<!-- Node6&#45;&gt;Node7 -->
<g id="edge7" class="edge"><title>Node6&#45;&gt;Node7</title>
<path fill="none" stroke="midnightblue" d="M958.645,-344.338C883.235,-331.444 757.667,-309.974 687.156,-297.918"/>
<polygon fill="midnightblue" stroke="midnightblue" points="958.495,-347.863 968.942,-346.099 959.675,-340.964 958.495,-347.863"/>
</g>
<!-- Node10 -->
<g id="node10" class="node"><title>Node10</title>
<g id="a_node10"><a xlink:href="edge_8hpp.html" target="_top" xlink:title="rstm/rstm&#45;dev/mesh\l/edge.hpp">
<polygon fill="none" stroke="black" points="442,-137 442,-167 546,-167 546,-137 442,-137"/>
<text text-anchor="start" x="450" y="-155" font-family="Helvetica,sans-Serif" font-size="10.00">rstm/rstm&#45;dev/mesh</text>
<text text-anchor="middle" x="494" y="-144" font-family="Helvetica,sans-Serif" font-size="10.00">/edge.hpp</text>
</a>
</g>
</g>
<!-- Node6&#45;&gt;Node10 -->
<g id="edge59" class="edge"><title>Node6&#45;&gt;Node10</title>
<path fill="none" stroke="midnightblue" d="M958.513,-355.274C794.403,-354.497 357.955,-342.288 273,-236 264.12,-224.89 264.146,-215.13 273,-204 293.714,-177.961 383.392,-164.076 441.953,-157.645"/>
<polygon fill="midnightblue" stroke="midnightblue" points="958.911,-358.775 968.923,-355.309 958.935,-351.775 958.911,-358.775"/>
</g>
<!-- Node6&#45;&gt;Node20 -->
<g id="edge58" class="edge"><title>Node6&#45;&gt;Node20</title>
<path fill="none" stroke="midnightblue" d="M1024.84,-330.524C1029.21,-302.619 1036.21,-257.94 1039.77,-235.237"/>
<polygon fill="midnightblue" stroke="midnightblue" points="1021.34,-330.238 1023.25,-340.66 1028.25,-331.322 1021.34,-330.238"/>
</g>
<!-- Node7&#45;&gt;Node3 -->
<g id="edge54" class="edge"><title>Node7&#45;&gt;Node3</title>
<path fill="none" stroke="midnightblue" d="M697.039,-284.043C740.935,-279.181 799.19,-266.842 841,-236 889.77,-200.024 917.536,-129.369 927.613,-99.2006"/>
<polygon fill="midnightblue" stroke="midnightblue" points="696.656,-280.563 687.057,-285.048 697.358,-287.528 696.656,-280.563"/>
</g>
<!-- Node7&#45;&gt;Node4 -->
<g id="edge53" class="edge"><title>Node7&#45;&gt;Node4</title>
<path fill="none" stroke="midnightblue" d="M697.474,-287.073C858.334,-285.75 1279.77,-272.217 1360,-168 1386.59,-133.462 1325.01,-71.5599 1320,-68 1288.04,-45.2671 1182,-29.8992 1117.16,-22.3709"/>
<polygon fill="midnightblue" stroke="midnightblue" points="697.237,-283.574 687.262,-287.143 697.286,-290.574 697.237,-283.574"/>
</g>
<!-- Node7&#45;&gt;Node5 -->
<g id="edge57" class="edge"><title>Node7&#45;&gt;Node5</title>
<path fill="none" stroke="midnightblue" d="M572.875,-271.593C523.089,-255.343 457.627,-224.075 433,-168 404.316,-102.686 501.401,-53.7555 559.513,-31.0424"/>
<polygon fill="midnightblue" stroke="midnightblue" points="572.018,-274.992 582.607,-274.646 574.113,-268.313 572.018,-274.992"/>
</g>
<!-- Node8 -->
<g id="node8" class="node"><title>Node8</title>
<g id="a_node8"><a xlink:href="dwyer_8cpp.html" target="_top" xlink:title="rstm/rstm&#45;dev/mesh\l/dwyer.cpp">
<polygon fill="none" stroke="black" points="244,-1 244,-31 348,-31 348,-1 244,-1"/>
<text text-anchor="start" x="252" y="-19" font-family="Helvetica,sans-Serif" font-size="10.00">rstm/rstm&#45;dev/mesh</text>
<text text-anchor="middle" x="296" y="-8" font-family="Helvetica,sans-Serif" font-size="10.00">/dwyer.cpp</text>
</a>
</g>
</g>
<!-- Node7&#45;&gt;Node8 -->
<g id="edge8" class="edge"><title>Node7&#45;&gt;Node8</title>
<path fill="none" stroke="midnightblue" d="M572.563,-285.056C475.648,-281.032 294.48,-269.193 240,-236 166.934,-191.483 96.1803,-137.559 146,-68 152.106,-59.4745 204.167,-43.0084 245.264,-31.0875"/>
<polygon fill="midnightblue" stroke="midnightblue" points="572.679,-288.563 582.811,-285.465 572.959,-281.569 572.679,-288.563"/>
</g>
<!-- Node9 -->
<g id="node9" class="node"><title>Node9</title>
<g id="a_node9"><a xlink:href="point_8hpp.html" target="_top" xlink:title="rstm/rstm&#45;dev/mesh\l/point.hpp">
<polygon fill="none" stroke="black" points="541,-205 541,-235 645,-235 645,-205 541,-205"/>
<text text-anchor="start" x="549" y="-223" font-family="Helvetica,sans-Serif" font-size="10.00">rstm/rstm&#45;dev/mesh</text>
<text text-anchor="middle" x="593" y="-212" font-family="Helvetica,sans-Serif" font-size="10.00">/point.hpp</text>
</a>
</g>
</g>
<!-- Node7&#45;&gt;Node9 -->
<g id="edge9" class="edge"><title>Node7&#45;&gt;Node9</title>
<path fill="none" stroke="midnightblue" d="M620.376,-264.019C614.297,-254.467 607.431,-243.677 602.096,-235.293"/>
<polygon fill="midnightblue" stroke="midnightblue" points="617.565,-266.121 625.887,-272.679 623.471,-262.363 617.565,-266.121"/>
</g>
<!-- Node7&#45;&gt;Node10 -->
<g id="edge41" class="edge"><title>Node7&#45;&gt;Node10</title>
<path fill="none" stroke="midnightblue" d="M581.443,-268.811C564.012,-260.865 545.657,-250.079 532,-236 512.91,-216.321 502.268,-185.335 497.373,-167.311"/>
<polygon fill="midnightblue" stroke="midnightblue" points="580.429,-272.185 590.997,-272.937 583.204,-265.759 580.429,-272.185"/>
</g>
<!-- Node11 -->
<g id="node11" class="node"><title>Node11</title>
<g id="a_node11"><a xlink:href="side_8hpp.html" target="_top" xlink:title="rstm/rstm&#45;dev/mesh\l/side.hpp">
<polygon fill="none" stroke="black" points="164,-69 164,-99 268,-99 268,-69 164,-69"/>
<text text-anchor="start" x="172" y="-87" font-family="Helvetica,sans-Serif" font-size="10.00">rstm/rstm&#45;dev/mesh</text>
<text text-anchor="middle" x="216" y="-76" font-family="Helvetica,sans-Serif" font-size="10.00">/side.hpp</text>
</a>
</g>
</g>
<!-- Node7&#45;&gt;Node11 -->
<g id="edge48" class="edge"><title>Node7&#45;&gt;Node11</title>
<path fill="none" stroke="midnightblue" d="M572.591,-284.81C482.198,-280.549 320.456,-268.507 273,-236 226.996,-204.488 218.071,-130.723 216.377,-99.4375"/>
<polygon fill="midnightblue" stroke="midnightblue" points="572.565,-288.312 582.713,-285.268 572.882,-281.319 572.565,-288.312"/>
</g>
<!-- Node15 -->
<g id="node15" class="node"><title>Node15</title>
<g id="a_node15"><a xlink:href="edge__set_8cpp.html" target="_top" xlink:title="rstm/rstm&#45;dev/mesh\l/edge_set.cpp">
<polygon fill="none" stroke="black" points="0,-1 0,-31 104,-31 104,-1 0,-1"/>
<text text-anchor="start" x="8" y="-19" font-family="Helvetica,sans-Serif" font-size="10.00">rstm/rstm&#45;dev/mesh</text>
<text text-anchor="middle" x="52" y="-8" font-family="Helvetica,sans-Serif" font-size="10.00">/edge_set.cpp</text>
</a>
</g>
</g>
<!-- Node7&#45;&gt;Node15 -->
<g id="edge52" class="edge"><title>Node7&#45;&gt;Node15</title>
<path fill="none" stroke="midnightblue" d="M572.659,-285.402C466.106,-281.765 254.141,-270.328 189,-236 105.483,-191.988 66.6838,-72.2847 55.5301,-31.1242"/>
<polygon fill="midnightblue" stroke="midnightblue" points="572.835,-288.909 582.944,-285.74 573.064,-281.913 572.835,-288.909"/>
</g>
<!-- Node16 -->
<g id="node16" class="node"><title>Node16</title>
<g id="a_node16"><a xlink:href="queues_8cpp.html" target="_top" xlink:title="rstm/rstm&#45;dev/mesh\l/queues.cpp">
<polygon fill="none" stroke="black" points="758,-69 758,-99 862,-99 862,-69 758,-69"/>
<text text-anchor="start" x="766" y="-87" font-family="Helvetica,sans-Serif" font-size="10.00">rstm/rstm&#45;dev/mesh</text>
<text text-anchor="middle" x="810" y="-76" font-family="Helvetica,sans-Serif" font-size="10.00">/queues.cpp</text>
</a>
</g>
</g>
<!-- Node7&#45;&gt;Node16 -->
<g id="edge56" class="edge"><title>Node7&#45;&gt;Node16</title>
<path fill="none" stroke="midnightblue" d="M697.479,-278.099C745.419,-269.84 805.881,-255.822 821,-236 852.243,-195.037 829.197,-128.285 816.678,-99.2454"/>
<polygon fill="midnightblue" stroke="midnightblue" points="696.746,-274.673 687.46,-279.774 697.9,-281.577 696.746,-274.673"/>
</g>
<!-- Node18 -->
<g id="node18" class="node"><title>Node18</title>
<g id="a_node18"><a xlink:href="point_8cpp.html" target="_top" xlink:title="rstm/rstm&#45;dev/mesh\l/point.cpp">
<polygon fill="none" stroke="black" points="678,-137 678,-167 782,-167 782,-137 678,-137"/>
<text text-anchor="start" x="686" y="-155" font-family="Helvetica,sans-Serif" font-size="10.00">rstm/rstm&#45;dev/mesh</text>
<text text-anchor="middle" x="730" y="-144" font-family="Helvetica,sans-Serif" font-size="10.00">/point.cpp</text>
</a>
</g>
</g>
<!-- Node7&#45;&gt;Node18 -->
<g id="edge55" class="edge"><title>Node7&#45;&gt;Node18</title>
<path fill="none" stroke="midnightblue" d="M651.057,-264.351C670.726,-236.607 703.455,-190.442 719.906,-167.237"/>
<polygon fill="midnightblue" stroke="midnightblue" points="648.095,-262.478 645.167,-272.66 653.806,-266.526 648.095,-262.478"/>
</g>
<!-- Node19 -->
<g id="node19" class="node"><title>Node19</title>
<g id="a_node19"><a xlink:href="queues_8hpp.html" target="_top" xlink:title="rstm/rstm&#45;dev/mesh\l/queues.hpp">
<polygon fill="none" stroke="black" points="708,-205 708,-235 812,-235 812,-205 708,-205"/>
<text text-anchor="start" x="716" y="-223" font-family="Helvetica,sans-Serif" font-size="10.00">rstm/rstm&#45;dev/mesh</text>
<text text-anchor="middle" x="760" y="-212" font-family="Helvetica,sans-Serif" font-size="10.00">/queues.hpp</text>
</a>
</g>
</g>
<!-- Node7&#45;&gt;Node19 -->
<g id="edge37" class="edge"><title>Node7&#45;&gt;Node19</title>
<path fill="none" stroke="midnightblue" d="M670.882,-268.055C690.75,-257.564 715.032,-244.743 733.229,-235.135"/>
<polygon fill="midnightblue" stroke="midnightblue" points="669.024,-265.077 661.816,-272.841 672.293,-271.267 669.024,-265.077"/>
</g>
<!-- Node7&#45;&gt;Node20 -->
<g id="edge42" class="edge"><title>Node7&#45;&gt;Node20</title>
<path fill="none" stroke="midnightblue" d="M697.325,-276.893C777.408,-263.907 914.994,-241.596 989.826,-229.461"/>
<polygon fill="midnightblue" stroke="midnightblue" points="696.686,-273.451 687.375,-278.507 697.806,-280.361 696.686,-273.451"/>
</g>
<!-- Node22 -->
<g id="node22" class="node"><title>Node22</title>
<g id="a_node22"><a xlink:href="tm__list__set_8hpp.html" target="_top" xlink:title="rstm/rstm&#45;dev/mesh\l/tm_list_set.hpp">
<polygon fill="none" stroke="black" points="282,-205 282,-235 386,-235 386,-205 282,-205"/>
<text text-anchor="start" x="290" y="-223" font-family="Helvetica,sans-Serif" font-size="10.00">rstm/rstm&#45;dev/mesh</text>
<text text-anchor="middle" x="334" y="-212" font-family="Helvetica,sans-Serif" font-size="10.00">/tm_list_set.hpp</text>
</a>
</g>
</g>
<!-- Node7&#45;&gt;Node22 -->
<g id="edge49" class="edge"><title>Node7&#45;&gt;Node22</title>
<path fill="none" stroke="midnightblue" d="M572.892,-273.694C525.496,-263.498 458.595,-249.016 400,-236 395.526,-235.006 390.884,-233.967 386.228,-232.92"/>
<polygon fill="midnightblue" stroke="midnightblue" points="572.187,-277.123 582.7,-275.803 573.659,-270.279 572.187,-277.123"/>
</g>
<!-- Node9&#45;&gt;Node3 -->
<g id="edge34" class="edge"><title>Node9&#45;&gt;Node3</title>
<path fill="none" stroke="midnightblue" d="M611.802,-197.047C631.911,-173.803 661.879,-139.917 669,-136 748.903,-92.0497 781.787,-118.898 871,-100 873.881,-99.3898 876.832,-98.7415 879.808,-98.0698"/>
<polygon fill="midnightblue" stroke="midnightblue" points="609.033,-194.899 605.154,-204.759 614.334,-199.47 609.033,-194.899"/>
</g>
<!-- Node9&#45;&gt;Node4 -->
<g id="edge33" class="edge"><title>Node9&#45;&gt;Node4</title>
<path fill="none" stroke="midnightblue" d="M655.441,-209.468C669.733,-207.48 684.874,-205.528 699,-204 752.173,-198.25 1142.62,-207.207 1179,-168 1222.34,-121.286 1134.53,-58.6565 1089.45,-31.0605"/>
<polygon fill="midnightblue" stroke="midnightblue" points="654.623,-206.049 645.212,-210.916 655.604,-212.98 654.623,-206.049"/>
</g>
<!-- Node9&#45;&gt;Node5 -->
<g id="edge36" class="edge"><title>Node9&#45;&gt;Node5</title>
<path fill="none" stroke="midnightblue" d="M590.361,-194.467C587.598,-164.525 584.267,-112.396 589,-68 590.344,-55.3906 593.508,-41.32 596.099,-31.1576"/>
<polygon fill="midnightblue" stroke="midnightblue" points="586.914,-195.183 591.374,-204.794 593.881,-194.5 586.914,-195.183"/>
</g>
<!-- Node9&#45;&gt;Node8 -->
<g id="edge10" class="edge"><title>Node9&#45;&gt;Node8</title>
<path fill="none" stroke="midnightblue" d="M530.521,-214.302C442.369,-206.964 286.487,-191.178 235,-168 192.448,-148.844 174.587,-142.355 155,-100 149.03,-87.0912 146.831,-79.642 155,-68 160.738,-59.8228 210.289,-43.1158 249.048,-31.048"/>
<polygon fill="midnightblue" stroke="midnightblue" points="530.41,-217.804 540.662,-215.134 530.982,-210.828 530.41,-217.804"/>
</g>
<!-- Node9&#45;&gt;Node10 -->
<g id="edge11" class="edge"><title>Node9&#45;&gt;Node10</title>
<path fill="none" stroke="midnightblue" d="M562.833,-198.888C547.4,-188.6 528.994,-176.329 515.099,-167.066"/>
<polygon fill="midnightblue" stroke="midnightblue" points="561.256,-202.044 571.518,-204.679 565.139,-196.22 561.256,-202.044"/>
</g>
<!-- Node9&#45;&gt;Node11 -->
<g id="edge27" class="edge"><title>Node9&#45;&gt;Node11</title>
<path fill="none" stroke="midnightblue" d="M535.346,-201.996C504.718,-192.618 466.566,-180.387 433,-168 398.617,-155.311 391.133,-149.348 357,-136 323.423,-122.869 284.907,-109.018 256.624,-99.0704"/>
<polygon fill="midnightblue" stroke="midnightblue" points="534.425,-205.374 545.011,-204.937 536.463,-198.677 534.425,-205.374"/>
</g>
<!-- Node9&#45;&gt;Node15 -->
<g id="edge32" class="edge"><title>Node9&#45;&gt;Node15</title>
<path fill="none" stroke="midnightblue" d="M530.812,-213.957C422.171,-204.772 206.419,-184.716 176,-168 116.84,-135.49 74.7266,-62.279 58.906,-31.2891"/>
<polygon fill="midnightblue" stroke="midnightblue" points="530.723,-217.462 540.981,-214.812 531.309,-210.487 530.723,-217.462"/>
</g>
<!-- Node17 -->
<g id="node17" class="node"><title>Node17</title>
<g id="a_node17"><a xlink:href="dwyer_8hpp.html" target="_top" xlink:title="rstm/rstm&#45;dev/mesh\l/dwyer.hpp">
<polygon fill="none" stroke="black" points="598,-69 598,-99 702,-99 702,-69 598,-69"/>
<text text-anchor="start" x="606" y="-87" font-family="Helvetica,sans-Serif" font-size="10.00">rstm/rstm&#45;dev/mesh</text>
<text text-anchor="middle" x="650" y="-76" font-family="Helvetica,sans-Serif" font-size="10.00">/dwyer.hpp</text>
</a>
</g>
</g>
<!-- Node9&#45;&gt;Node17 -->
<g id="edge28" class="edge"><title>Node9&#45;&gt;Node17</title>
<path fill="none" stroke="midnightblue" d="M603.098,-195.261C614.944,-167.412 634.201,-122.141 643.944,-99.2372"/>
<polygon fill="midnightblue" stroke="midnightblue" points="599.794,-194.088 599.1,-204.66 606.235,-196.828 599.794,-194.088"/>
</g>
<!-- Node9&#45;&gt;Node18 -->
<g id="edge35" class="edge"><title>Node9&#45;&gt;Node18</title>
<path fill="none" stroke="midnightblue" d="M631.442,-200.48C653.378,-189.913 680.444,-176.874 700.659,-167.135"/>
<polygon fill="midnightblue" stroke="midnightblue" points="629.88,-197.348 622.39,-204.841 632.918,-203.654 629.88,-197.348"/>
</g>
<!-- Node10&#45;&gt;Node3 -->
<g id="edge24" class="edge"><title>Node10&#45;&gt;Node3</title>
<path fill="none" stroke="midnightblue" d="M556.334,-144.629C631.363,-136.486 761,-120.903 871,-100 873.893,-99.4503 876.854,-98.8497 879.837,-98.215"/>
<polygon fill="midnightblue" stroke="midnightblue" points="555.686,-141.179 546.117,-145.728 556.435,-148.138 555.686,-141.179"/>
</g>
<!-- Node10&#45;&gt;Node4 -->
<g id="edge23" class="edge"><title>Node10&#45;&gt;Node4</title>
<path fill="none" stroke="midnightblue" d="M556.491,-144.198C601.346,-137.474 662.23,-124.49 711,-100 730.732,-90.0919 728.93,-77.2034 749,-68 835.63,-28.2745 948.009,-18.8864 1012.76,-17.017"/>
<polygon fill="midnightblue" stroke="midnightblue" points="555.716,-140.773 546.314,-145.658 556.71,-147.702 555.716,-140.773"/>
</g>
<!-- Node10&#45;&gt;Node5 -->
<g id="edge26" class="edge"><title>Node10&#45;&gt;Node5</title>
<path fill="none" stroke="midnightblue" d="M509.926,-128.805C522.212,-111.902 539.79,-88.1806 556,-68 566.252,-55.2361 578.45,-41.18 587.4,-31.0624"/>
<polygon fill="midnightblue" stroke="midnightblue" points="507.046,-126.815 504.019,-136.969 512.717,-130.919 507.046,-126.815"/>
</g>
<!-- Node10&#45;&gt;Node8 -->
<g id="edge12" class="edge"><title>Node10&#45;&gt;Node8</title>
<path fill="none" stroke="midnightblue" d="M431.78,-140.228C386.788,-131.196 331.18,-117.053 315,-100 297.194,-81.2336 294.854,-49.3385 295.155,-31.0336"/>
<polygon fill="midnightblue" stroke="midnightblue" points="431.298,-143.7 441.785,-142.189 432.645,-136.831 431.298,-143.7"/>
</g>
<!-- Node10&#45;&gt;Node11 -->
<g id="edge13" class="edge"><title>Node10&#45;&gt;Node11</title>
<path fill="none" stroke="midnightblue" d="M431.806,-136.235C382.53,-124.536 314.481,-108.38 268.055,-97.3584"/>
<polygon fill="midnightblue" stroke="midnightblue" points="431.172,-139.681 441.71,-138.586 432.789,-132.871 431.172,-139.681"/>
</g>
<!-- Node13 -->
<g id="node13" class="node"><title>Node13</title>
<g id="a_node13"><a xlink:href="edge_8cpp.html" target="_top" xlink:title="rstm/rstm&#45;dev/mesh\l/edge.cpp">
<polygon fill="none" stroke="black" points="411,-1 411,-31 515,-31 515,-1 411,-1"/>
<text text-anchor="start" x="419" y="-19" font-family="Helvetica,sans-Serif" font-size="10.00">rstm/rstm&#45;dev/mesh</text>
<text text-anchor="middle" x="463" y="-8" font-family="Helvetica,sans-Serif" font-size="10.00">/edge.cpp</text>
</a>
</g>
</g>
<!-- Node10&#45;&gt;Node13 -->
<g id="edge17" class="edge"><title>Node10&#45;&gt;Node13</title>
<path fill="none" stroke="midnightblue" d="M488.423,-126.894C481.974,-99.0151 471.569,-54.0401 466.294,-31.2372"/>
<polygon fill="midnightblue" stroke="midnightblue" points="485.019,-127.706 490.682,-136.66 491.838,-126.128 485.019,-127.706"/>
</g>
<!-- Node14 -->
<g id="node14" class="node"><title>Node14</title>
<g id="a_node14"><a xlink:href="edge__set_8hpp.html" target="_top" xlink:title="rstm/rstm&#45;dev/mesh\l/edge_set.hpp">
<polygon fill="none" stroke="black" points="324,-69 324,-99 428,-99 428,-69 324,-69"/>
<text text-anchor="start" x="332" y="-87" font-family="Helvetica,sans-Serif" font-size="10.00">rstm/rstm&#45;dev/mesh</text>
<text text-anchor="middle" x="376" y="-76" font-family="Helvetica,sans-Serif" font-size="10.00">/edge_set.hpp</text>
</a>
</g>
</g>
<!-- Node10&#45;&gt;Node14 -->
<g id="edge18" class="edge"><title>Node10&#45;&gt;Node14</title>
<path fill="none" stroke="midnightblue" d="M459.873,-131.912C441.165,-121.448 418.373,-108.7 401.272,-99.1352"/>
<polygon fill="midnightblue" stroke="midnightblue" points="458.25,-135.014 468.686,-136.841 461.667,-128.905 458.25,-135.014"/>
</g>
<!-- Node10&#45;&gt;Node16 -->
<g id="edge25" class="edge"><title>Node10&#45;&gt;Node16</title>
<path fill="none" stroke="midnightblue" d="M556.077,-138.735C606.712,-128.635 680.062,-113.785 744,-100 748.48,-99.0341 753.126,-98.0144 757.785,-96.9797"/>
<polygon fill="midnightblue" stroke="midnightblue" points="555.386,-135.304 546.262,-140.69 556.753,-142.169 555.386,-135.304"/>
</g>
<!-- Node11&#45;&gt;Node5 -->
<g id="edge16" class="edge"><title>Node11&#45;&gt;Node5</title>
<path fill="none" stroke="midnightblue" d="M278.184,-73.279C340.462,-63.4078 439.005,-47.4209 524,-32 531.675,-30.6075 539.774,-29.076 547.71,-27.54"/>
<polygon fill="midnightblue" stroke="midnightblue" points="277.459,-69.8501 268.128,-74.8696 278.552,-76.7641 277.459,-69.8501"/>
</g>
<!-- Node11&#45;&gt;Node8 -->
<g id="edge14" class="edge"><title>Node11&#45;&gt;Node8</title>
<path fill="none" stroke="midnightblue" d="M241.08,-62.3094C253.403,-52.1426 267.932,-40.1562 278.95,-31.0663"/>
<polygon fill="midnightblue" stroke="midnightblue" points="238.845,-59.6153 233.359,-68.679 243.3,-65.0149 238.845,-59.6153"/>
</g>
<!-- Node12 -->
<g id="node12" class="node"><title>Node12</title>
<g id="a_node12"><a xlink:href="side_8cpp.html" target="_top" xlink:title="rstm/rstm&#45;dev/mesh\l/side.cpp">
<polygon fill="none" stroke="black" points="122,-1 122,-31 226,-31 226,-1 122,-1"/>
<text text-anchor="start" x="130" y="-19" font-family="Helvetica,sans-Serif" font-size="10.00">rstm/rstm&#45;dev/mesh</text>
<text text-anchor="middle" x="174" y="-8" font-family="Helvetica,sans-Serif" font-size="10.00">/side.cpp</text>
</a>
</g>
</g>
<!-- Node11&#45;&gt;Node12 -->
<g id="edge15" class="edge"><title>Node11&#45;&gt;Node12</title>
<path fill="none" stroke="midnightblue" d="M201.376,-60.0187C195.297,-50.4665 188.431,-39.677 183.096,-31.2931"/>
<polygon fill="midnightblue" stroke="midnightblue" points="198.565,-62.1214 206.887,-68.679 204.471,-58.3633 198.565,-62.1214"/>
</g>
<!-- Node14&#45;&gt;Node4 -->
<g id="edge21" class="edge"><title>Node14&#45;&gt;Node4</title>
<path fill="none" stroke="midnightblue" d="M438.194,-77.0424C572.531,-64.1741 887.744,-33.9795 1012.67,-22.0128"/>
<polygon fill="midnightblue" stroke="midnightblue" points="437.69,-73.5745 428.069,-78.0122 438.358,-80.5426 437.69,-73.5745"/>
</g>
<!-- Node14&#45;&gt;Node5 -->
<g id="edge22" class="edge"><title>Node14&#45;&gt;Node5</title>
<path fill="none" stroke="midnightblue" d="M433.39,-66.0905C470.234,-55.2347 517.517,-41.303 552.295,-31.0561"/>
<polygon fill="midnightblue" stroke="midnightblue" points="432.382,-62.7386 423.779,-68.9223 434.36,-69.4532 432.382,-62.7386"/>
</g>
<!-- Node14&#45;&gt;Node13 -->
<g id="edge19" class="edge"><title>Node14&#45;&gt;Node13</title>
<path fill="none" stroke="midnightblue" d="M402.892,-62.5994C416.374,-52.3712 432.362,-40.2428 444.458,-31.0663"/>
<polygon fill="midnightblue" stroke="midnightblue" points="400.729,-59.8467 394.878,-68.679 404.96,-65.4235 400.729,-59.8467"/>
</g>
<!-- Node14&#45;&gt;Node15 -->
<g id="edge20" class="edge"><title>Node14&#45;&gt;Node15</title>
<path fill="none" stroke="midnightblue" d="M313.949,-71.8646C260.542,-62.0662 181.495,-47.0529 113,-32 110.124,-31.368 107.176,-30.7024 104.204,-30.0174"/>
<polygon fill="midnightblue" stroke="midnightblue" points="313.479,-75.3367 323.946,-73.6927 314.738,-68.4509 313.479,-75.3367"/>
</g>
<!-- Node17&#45;&gt;Node4 -->
<g id="edge30" class="edge"><title>Node17&#45;&gt;Node4</title>
<path fill="none" stroke="midnightblue" d="M712.164,-68.7294C713.453,-68.4797 714.733,-68.2362 716,-68 820.743,-48.4754 944.33,-31.9313 1012.76,-23.336"/>
<polygon fill="midnightblue" stroke="midnightblue" points="711.27,-65.3392 702.16,-70.7485 712.655,-72.2009 711.27,-65.3392"/>
</g>
<!-- Node17&#45;&gt;Node5 -->
<g id="edge31" class="edge"><title>Node17&#45;&gt;Node5</title>
<path fill="none" stroke="midnightblue" d="M633.036,-60.608C625.691,-50.9125 617.311,-39.8499 610.828,-31.2931"/>
<polygon fill="midnightblue" stroke="midnightblue" points="630.322,-62.8216 639.151,-68.679 635.902,-58.5945 630.322,-62.8216"/>
</g>
<!-- Node17&#45;&gt;Node8 -->
<g id="edge29" class="edge"><title>Node17&#45;&gt;Node8</title>
<path fill="none" stroke="midnightblue" d="M587.612,-71.3683C519.568,-58.6822 411.878,-38.6044 348.16,-26.7247"/>
<polygon fill="midnightblue" stroke="midnightblue" points="587.294,-74.8693 597.766,-73.2615 588.577,-67.9879 587.294,-74.8693"/>
</g>
<!-- Node19&#45;&gt;Node3 -->
<g id="edge39" class="edge"><title>Node19&#45;&gt;Node3</title>
<path fill="none" stroke="midnightblue" d="M786.014,-198.733C821.266,-171.27 883.309,-122.934 913.902,-99.0994"/>
<polygon fill="midnightblue" stroke="midnightblue" points="783.819,-196.006 778.082,-204.913 788.122,-201.528 783.819,-196.006"/>
</g>
<!-- Node19&#45;&gt;Node10 -->
<g id="edge38" class="edge"><title>Node19&#45;&gt;Node10</title>
<path fill="none" stroke="midnightblue" d="M697.89,-203.589C651.791,-192.151 589.638,-176.73 546.116,-165.931"/>
<polygon fill="midnightblue" stroke="midnightblue" points="697.216,-207.028 707.764,-206.039 698.902,-200.234 697.216,-207.028"/>
</g>
<!-- Node19&#45;&gt;Node16 -->
<g id="edge40" class="edge"><title>Node19&#45;&gt;Node16</title>
<path fill="none" stroke="midnightblue" d="M775.775,-196.575C781.249,-187.962 787.008,-177.833 791,-168 800.396,-144.852 805.667,-116.095 808.164,-99.2221"/>
<polygon fill="midnightblue" stroke="midnightblue" points="772.849,-194.654 770.259,-204.927 778.691,-198.511 772.849,-194.654"/>
</g>
<!-- Node20&#45;&gt;Node3 -->
<g id="edge45" class="edge"><title>Node20&#45;&gt;Node3</title>
<path fill="none" stroke="midnightblue" d="M1023.7,-196.711C1000.96,-169.007 962.818,-122.542 943.687,-99.2372"/>
<polygon fill="midnightblue" stroke="midnightblue" points="1021.18,-199.151 1030.23,-204.66 1026.59,-194.71 1021.18,-199.151"/>
</g>
<!-- Node20&#45;&gt;Node4 -->
<g id="edge44" class="edge"><title>Node20&#45;&gt;Node4</title>
<path fill="none" stroke="midnightblue" d="M1104.3,-217.392C1182.39,-213.909 1309.59,-202.885 1339,-168 1407,-87.3293 1214.05,-42.1428 1117,-25.0375"/>
<polygon fill="midnightblue" stroke="midnightblue" points="1103.94,-213.903 1094.09,-217.817 1104.23,-220.897 1103.94,-213.903"/>
</g>
<!-- Node20&#45;&gt;Node5 -->
<g id="edge47" class="edge"><title>Node20&#45;&gt;Node5</title>
<path fill="none" stroke="midnightblue" d="M1047.56,-195.165C1053.78,-161.806 1059.08,-101.53 1026,-68 1000.14,-41.7851 760.039,-25.6387 652.113,-19.648"/>
<polygon fill="midnightblue" stroke="midnightblue" points="1044.12,-194.483 1045.55,-204.981 1050.98,-195.884 1044.12,-194.483"/>
</g>
<!-- Node20&#45;&gt;Node10 -->
<g id="edge43" class="edge"><title>Node20&#45;&gt;Node10</title>
<path fill="none" stroke="midnightblue" d="M979.773,-211.505C870.819,-198.383 647.471,-171.484 546.101,-159.275"/>
<polygon fill="midnightblue" stroke="midnightblue" points="979.605,-215.01 989.951,-212.731 980.442,-208.061 979.605,-215.01"/>
</g>
<!-- Node21 -->
<g id="node21" class="node"><title>Node21</title>
<g id="a_node21"><a xlink:href="my__thread_8cpp.html" target="_top" xlink:title="rstm/rstm&#45;dev/mesh\l/my_thread.cpp">
<polygon fill="none" stroke="black" points="1226,-137 1226,-167 1330,-167 1330,-137 1226,-137"/>
<text text-anchor="start" x="1234" y="-155" font-family="Helvetica,sans-Serif" font-size="10.00">rstm/rstm&#45;dev/mesh</text>
<text text-anchor="middle" x="1278" y="-144" font-family="Helvetica,sans-Serif" font-size="10.00">/my_thread.cpp</text>
</a>
</g>
</g>
<!-- Node20&#45;&gt;Node21 -->
<g id="edge46" class="edge"><title>Node20&#45;&gt;Node21</title>
<path fill="none" stroke="midnightblue" d="M1101.97,-202.229C1140.86,-191.353 1190.94,-177.347 1227.74,-167.056"/>
<polygon fill="midnightblue" stroke="midnightblue" points="1101.03,-198.858 1092.34,-204.922 1102.91,-205.6 1101.03,-198.858"/>
</g>
<!-- Node23 -->
<g id="node23" class="node"><title>Node23</title>
<g id="a_node23"><a xlink:href="tm__hash__set_8hpp.html" target="_top" xlink:title="rstm/rstm&#45;dev/mesh\l/tm_hash_set.hpp">
<polygon fill="none" stroke="black" points="244,-137 244,-167 348,-167 348,-137 244,-137"/>
<text text-anchor="start" x="252" y="-155" font-family="Helvetica,sans-Serif" font-size="10.00">rstm/rstm&#45;dev/mesh</text>
<text text-anchor="middle" x="296" y="-144" font-family="Helvetica,sans-Serif" font-size="10.00">/tm_hash_set.hpp</text>
</a>
</g>
</g>
<!-- Node22&#45;&gt;Node23 -->
<g id="edge50" class="edge"><title>Node22&#45;&gt;Node23</title>
<path fill="none" stroke="midnightblue" d="M320.598,-195.723C315.141,-186.244 309.007,-175.591 304.229,-167.293"/>
<polygon fill="midnightblue" stroke="midnightblue" points="317.732,-197.759 325.755,-204.679 323.798,-194.266 317.732,-197.759"/>
</g>
<!-- Node23&#45;&gt;Node14 -->
<g id="edge51" class="edge"><title>Node23&#45;&gt;Node14</title>
<path fill="none" stroke="midnightblue" d="M321.08,-130.309C333.403,-120.143 347.932,-108.156 358.95,-99.0663"/>
<polygon fill="midnightblue" stroke="midnightblue" points="318.845,-127.615 313.359,-136.679 323.3,-133.015 318.845,-127.615"/>
</g>
</g>
</svg>
