<?xml version="1.0" encoding="UTF-8" standalone="no"?>
<!DOCTYPE svg PUBLIC "-//W3C//DTD SVG 1.1//EN"
 "http://www.w3.org/Graphics/SVG/1.1/DTD/svg11.dtd">
<!-- Generated by graphviz version 2.36.0 (20140111.2315)
 -->
<!-- Title: main Pages: 1 -->
<!--zoomable 399 -->
<svg id="main" version="1.1" xmlns="http://www.w3.org/2000/svg" xmlns:xlink="http://www.w3.org/1999/xlink" xml:space="preserve" onload="init(evt)">
<style type="text/css"><![CDATA[
.edge:hover path { stroke: red; }
.edge:hover polygon { stroke: red; fill: red; }
]]></style>
<script type="text/javascript"><![CDATA[
var edges = document.getElementsByTagName('g');
if (edges && edges.length) {
  for (var i=0;i<edges.length;i++) {
    if (edges[i].id.substr(0,4)=='edge') {
      edges[i].setAttribute('class','edge');
    }
  }
}
]]></script>
        <defs>
                <circle id="rim" cx="0" cy="0" r="7"/>
                <circle id="rim2" cx="0" cy="0" r="3.5"/>
                <g id="zoomPlus">
                        <use xlink:href="#rim" fill="#404040">
                                <set attributeName="fill" to="#808080" begin="zoomplus.mouseover" end="zoomplus.mouseout"/>
                        </use>
                        <path d="M-4,0h8M0,-4v8" fill="none" stroke="white" stroke-width="1.5" pointer-events="none"/>
                </g>
                <g id="zoomMin">
                        <use xlink:href="#rim" fill="#404040">
                                <set attributeName="fill" to="#808080" begin="zoomminus.mouseover" end="zoomminus.mouseout"/>
                        </use>
                        <path d="M-4,0h8" fill="none" stroke="white" stroke-width="1.5" pointer-events="none"/>
                </g>
                <g id="dirArrow">
                        <path fill="none" stroke="white" stroke-width="1.5" d="M0,-3.0v7 M-2.5,-0.5L0,-3.0L2.5,-0.5"/>
                </g>
               <g id="resetDef">
                       <use xlink:href="#rim2" fill="#404040">
                               <set attributeName="fill" to="#808080" begin="reset.mouseover" end="reset.mouseout"/>
                       </use>
               </g>
        </defs>

<script type="text/javascript">
var viewWidth = 910;
var viewHeight = 399;
var sectionId = 'dynsection-1';
</script>
<script xlink:href="svgpan.js"/>
<svg id="graph" class="graph">
<g id="viewport">
<title>main</title>
<!-- Node1 -->
<g id="node1" class="node"><title>Node1</title>
<polygon fill="#bfbfbf" stroke="black" points="0,-195.5 0,-214.5 38,-214.5 38,-195.5 0,-195.5"/>
<text text-anchor="middle" x="19" y="-202.5" font-family="Helvetica,sans-Serif" font-size="10.00">main</text>
</g>
<!-- Node2 -->
<g id="node2" class="node"><title>Node2</title>
<g id="a_node2"><a xlink:href="mesh_8cpp.html#a48a104c6721732cbc3da3080ffc0b4c9" target="_top" xlink:title="parse_args">
<polygon fill="none" stroke="black" points="102.5,-323.5 102.5,-342.5 167.5,-342.5 167.5,-323.5 102.5,-323.5"/>
<text text-anchor="middle" x="135" y="-330.5" font-family="Helvetica,sans-Serif" font-size="10.00">parse_args</text>
</a>
</g>
</g>
<!-- Node1&#45;&gt;Node2 -->
<g id="edge1" class="edge"><title>Node1&#45;&gt;Node2</title>
<path fill="none" stroke="midnightblue" d="M24.6259,-214.751C32.8801,-231.472 51.4168,-266.119 74,-290 84.0746,-300.654 97.1287,-310.373 108.487,-317.866"/>
<polygon fill="midnightblue" stroke="midnightblue" points="106.827,-320.958 117.143,-323.373 110.584,-315.052 106.827,-320.958"/>
</g>
<!-- Node4 -->
<g id="node4" class="node"><title>Node4</title>
<g id="a_node4"><a xlink:href="point_8cpp.html#aaff3532e0132a077bf3099417a9f2619" target="_top" xlink:title="create_points">
<polygon fill="none" stroke="black" points="97.5,-261.5 97.5,-280.5 172.5,-280.5 172.5,-261.5 97.5,-261.5"/>
<text text-anchor="middle" x="135" y="-268.5" font-family="Helvetica,sans-Serif" font-size="10.00">create_points</text>
</a>
</g>
</g>
<!-- Node1&#45;&gt;Node4 -->
<g id="edge3" class="edge"><title>Node1&#45;&gt;Node4</title>
<path fill="none" stroke="midnightblue" d="M28.6587,-214.598C38.6442,-225.138 56.0084,-241.902 74,-252 78.4128,-254.477 83.1927,-256.679 88.0623,-258.625"/>
<polygon fill="midnightblue" stroke="midnightblue" points="86.8709,-261.916 97.4648,-262.057 89.2711,-255.341 86.8709,-261.916"/>
</g>
<!-- Node5 -->
<g id="node5" class="node"><title>Node5</title>
<g id="a_node5"><a xlink:href="classedge__set.html#a7fad8e778b5c76c07472464eb95cba82" target="_top" xlink:title="edge_set::help_initialize">
<polygon fill="none" stroke="black" points="74.5,-223.5 74.5,-242.5 195.5,-242.5 195.5,-223.5 74.5,-223.5"/>
<text text-anchor="middle" x="135" y="-230.5" font-family="Helvetica,sans-Serif" font-size="10.00">edge_set::help_initialize</text>
</a>
</g>
</g>
<!-- Node1&#45;&gt;Node5 -->
<g id="edge4" class="edge"><title>Node1&#45;&gt;Node5</title>
<path fill="none" stroke="midnightblue" d="M38.0636,-209.437C50.8694,-212.582 68.6976,-216.961 85.5143,-221.091"/>
<polygon fill="midnightblue" stroke="midnightblue" points="84.707,-224.497 95.2532,-223.483 86.3767,-217.699 84.707,-224.497"/>
</g>
<!-- Node6 -->
<g id="node6" class="node"><title>Node6</title>
<g id="a_node6"><a xlink:href="dwyer_8cpp.html#af4c356bbffe9fd6572b438c3af338c89" target="_top" xlink:title="dwyer_solve">
<polygon fill="none" stroke="black" points="99.5,-167.5 99.5,-186.5 170.5,-186.5 170.5,-167.5 99.5,-167.5"/>
<text text-anchor="middle" x="135" y="-174.5" font-family="Helvetica,sans-Serif" font-size="10.00">dwyer_solve</text>
</a>
</g>
</g>
<!-- Node1&#45;&gt;Node6 -->
<g id="edge5" class="edge"><title>Node1&#45;&gt;Node6</title>
<path fill="none" stroke="midnightblue" d="M38.0636,-200.563C51.9426,-197.154 71.7211,-192.297 89.7174,-187.876"/>
<polygon fill="midnightblue" stroke="midnightblue" points="90.6067,-191.262 99.4832,-185.478 88.937,-184.464 90.6067,-191.262"/>
</g>
<!-- Node22 -->
<g id="node22" class="node"><title>Node22</title>
<g id="a_node22"><a xlink:href="bmharness_8hpp.html#a02b05a605f4bd514db3ba9879a5d3cd6" target="_top" xlink:title="barrier">
<polygon fill="none" stroke="black" points="113,-91.5 113,-110.5 157,-110.5 157,-91.5 113,-91.5"/>
<text text-anchor="middle" x="135" y="-98.5" font-family="Helvetica,sans-Serif" font-size="10.00">barrier</text>
</a>
</g>
</g>
<!-- Node1&#45;&gt;Node22 -->
<g id="edge31" class="edge"><title>Node1&#45;&gt;Node22</title>
<path fill="none" stroke="midnightblue" d="M24.2159,-195.252C31.8512,-178.652 49.48,-144.779 74,-125 82.514,-118.132 93.2459,-113.015 103.271,-109.31"/>
<polygon fill="midnightblue" stroke="midnightblue" points="104.584,-112.561 112.953,-106.064 102.359,-105.924 104.584,-112.561"/>
</g>
<!-- Node23 -->
<g id="node23" class="node"><title>Node23</title>
<g id="a_node23"><a xlink:href="classedge__set.html#aad055d2afc3506ec7b62e2a42414dc04" target="_top" xlink:title="edge_set::print_all">
<polygon fill="none" stroke="black" points="232,-60.5 232,-79.5 328,-79.5 328,-60.5 232,-60.5"/>
<text text-anchor="middle" x="280" y="-67.5" font-family="Helvetica,sans-Serif" font-size="10.00">edge_set::print_all</text>
</a>
</g>
</g>
<!-- Node1&#45;&gt;Node23 -->
<g id="edge32" class="edge"><title>Node1&#45;&gt;Node23</title>
<path fill="none" stroke="midnightblue" d="M28.6499,-195.386C38.6275,-184.832 55.9846,-168.055 74,-158 123.59,-130.321 144.192,-143.265 196,-120 217.753,-110.232 240.864,-95.9512 257.159,-85.1503"/>
<polygon fill="midnightblue" stroke="midnightblue" points="259.121,-88.0487 265.459,-79.5586 255.21,-82.2433 259.121,-88.0487"/>
</g>
<!-- Node3 -->
<g id="node3" class="node"><title>Node3</title>
<g id="a_node3"><a xlink:href="mesh_8cpp.html#a64a6014565bb3e03294ec4a952d5add0" target="_top" xlink:title="usage">
<polygon fill="none" stroke="black" points="258.5,-371.5 258.5,-390.5 301.5,-390.5 301.5,-371.5 258.5,-371.5"/>
<text text-anchor="middle" x="280" y="-378.5" font-family="Helvetica,sans-Serif" font-size="10.00">usage</text>
</a>
</g>
</g>
<!-- Node2&#45;&gt;Node3 -->
<g id="edge2" class="edge"><title>Node2&#45;&gt;Node3</title>
<path fill="none" stroke="midnightblue" d="M164.594,-342.598C188.951,-350.774 223.848,-362.487 248.684,-370.824"/>
<polygon fill="midnightblue" stroke="midnightblue" points="247.73,-374.195 258.324,-374.06 249.957,-367.559 247.73,-374.195"/>
</g>
<!-- Node6&#45;&gt;Node6 -->
<g id="edge7" class="edge"><title>Node6&#45;&gt;Node6</title>
<path fill="none" stroke="midnightblue" d="M117.121,-186.757C108.423,-195.565 114.383,-205 135,-205 147.886,-205 155.046,-201.315 156.48,-196.4"/>
<polygon fill="midnightblue" stroke="midnightblue" points="159.657,-194.9 152.879,-186.757 153.099,-197.35 159.657,-194.9"/>
</g>
<!-- Node7 -->
<g id="node7" class="node"><title>Node7</title>
<g id="a_node7"><a xlink:href="point_8cpp.html#ae77890a7cdbacaf1b115d396c571bfda" target="_top" xlink:title="extern_angle">
<polygon fill="none" stroke="black" points="643,-276.5 643,-295.5 715,-295.5 715,-276.5 643,-276.5"/>
<text text-anchor="middle" x="679" y="-283.5" font-family="Helvetica,sans-Serif" font-size="10.00">extern_angle</text>
</a>
</g>
</g>
<!-- Node6&#45;&gt;Node7 -->
<g id="edge6" class="edge"><title>Node6&#45;&gt;Node7</title>
<path fill="none" stroke="midnightblue" d="M154.076,-186.692C207.845,-214.9 372.239,-296.684 520,-324 554.963,-330.463 565.354,-331.991 600,-324 619.57,-319.487 639.912,-309.367 654.915,-300.705"/>
<polygon fill="midnightblue" stroke="midnightblue" points="656.725,-303.7 663.511,-295.563 653.132,-297.693 656.725,-303.7"/>
</g>
<!-- Node8 -->
<g id="node8" class="node"><title>Node8</title>
<g id="a_node8"><a xlink:href="dwyer_8cpp.html#ac5af40cdd517beac7515468404be6c72" target="_top" xlink:title="stitch">
<polygon fill="none" stroke="black" points="259.5,-155.5 259.5,-174.5 300.5,-174.5 300.5,-155.5 259.5,-155.5"/>
<text text-anchor="middle" x="280" y="-162.5" font-family="Helvetica,sans-Serif" font-size="10.00">stitch</text>
</a>
</g>
</g>
<!-- Node6&#45;&gt;Node8 -->
<g id="edge8" class="edge"><title>Node6&#45;&gt;Node8</title>
<path fill="none" stroke="midnightblue" d="M170.616,-174.095C194.592,-172.083 226.189,-169.432 249.075,-167.511"/>
<polygon fill="midnightblue" stroke="midnightblue" points="249.557,-170.983 259.229,-166.659 248.971,-164.008 249.557,-170.983"/>
</g>
<!-- Node9 -->
<g id="node9" class="node"><title>Node9</title>
<g id="a_node9"><a xlink:href="structpv__side.html#a163c81bef5a8989bb0f307e7ce72f555" target="_top" xlink:title="pv_side::initialize">
<polygon fill="none" stroke="black" points="378,-181.5 378,-200.5 470,-200.5 470,-181.5 378,-181.5"/>
<text text-anchor="middle" x="424" y="-188.5" font-family="Helvetica,sans-Serif" font-size="10.00">pv_side::initialize</text>
</a>
</g>
</g>
<!-- Node8&#45;&gt;Node9 -->
<g id="edge9" class="edge"><title>Node8&#45;&gt;Node9</title>
<path fill="none" stroke="midnightblue" d="M300.744,-168.615C318.081,-171.79 344.149,-176.562 367.766,-180.887"/>
<polygon fill="midnightblue" stroke="midnightblue" points="367.237,-184.348 377.704,-182.706 368.498,-177.463 367.237,-184.348"/>
</g>
<!-- Node11 -->
<g id="node11" class="node"><title>Node11</title>
<g id="a_node11"><a xlink:href="classedge.html#a528535c93e864fea104ca95de447b198" target="_top" xlink:title="edge::index_of">
<polygon fill="none" stroke="black" points="639,-162.5 639,-181.5 719,-181.5 719,-162.5 639,-162.5"/>
<text text-anchor="middle" x="679" y="-169.5" font-family="Helvetica,sans-Serif" font-size="10.00">edge::index_of</text>
</a>
</g>
</g>
<!-- Node8&#45;&gt;Node11 -->
<g id="edge30" class="edge"><title>Node8&#45;&gt;Node11</title>
<path fill="none" stroke="midnightblue" d="M300.687,-165.347C360.375,-166.4 540.591,-169.577 628.587,-171.129"/>
<polygon fill="midnightblue" stroke="midnightblue" points="628.786,-174.633 638.846,-171.31 628.909,-167.634 628.786,-174.633"/>
</g>
<!-- Node12 -->
<g id="node12" class="node"><title>Node12</title>
<g id="a_node12"><a xlink:href="structpv__side.html#a58d4b8e4888146331f3af5a3a6a0eaa6" target="_top" xlink:title="pv_side::move">
<polygon fill="none" stroke="black" points="520,-295.5 520,-314.5 600,-314.5 600,-295.5 520,-295.5"/>
<text text-anchor="middle" x="560" y="-302.5" font-family="Helvetica,sans-Serif" font-size="10.00">pv_side::move</text>
</a>
</g>
</g>
<!-- Node8&#45;&gt;Node12 -->
<g id="edge14" class="edge"><title>Node8&#45;&gt;Node12</title>
<path fill="none" stroke="midnightblue" d="M298.052,-174.527C314.751,-183.789 340.97,-198.154 364,-210 422.193,-239.932 491.233,-273.002 529.581,-291.157"/>
<polygon fill="midnightblue" stroke="midnightblue" points="528.107,-294.332 538.644,-295.441 531.099,-288.003 528.107,-294.332"/>
</g>
<!-- Node13 -->
<g id="node13" class="node"><title>Node13</title>
<g id="a_node13"><a xlink:href="structpv__side.html#ab6c6440d122035bd15a096d96350ce77" target="_top" xlink:title="pv_side::find_candidate">
<polygon fill="none" stroke="black" points="364.5,-105.5 364.5,-124.5 483.5,-124.5 483.5,-105.5 364.5,-105.5"/>
<text text-anchor="middle" x="424" y="-112.5" font-family="Helvetica,sans-Serif" font-size="10.00">pv_side::find_candidate</text>
</a>
</g>
</g>
<!-- Node8&#45;&gt;Node13 -->
<g id="edge17" class="edge"><title>Node8&#45;&gt;Node13</title>
<path fill="none" stroke="midnightblue" d="M300.744,-158.048C322.803,-150.281 358.994,-137.537 386.288,-127.927"/>
<polygon fill="midnightblue" stroke="midnightblue" points="387.629,-131.165 395.899,-124.543 385.304,-124.563 387.629,-131.165"/>
</g>
<!-- Node14 -->
<g id="node14" class="node"><title>Node14</title>
<g id="a_node14"><a xlink:href="point_8cpp.html#a015cc895b4407d06a8c9b1e9155359ae" target="_top" xlink:title="encircled">
<polygon fill="none" stroke="black" points="532,-29.5 532,-48.5 588,-48.5 588,-29.5 532,-29.5"/>
<text text-anchor="middle" x="560" y="-36.5" font-family="Helvetica,sans-Serif" font-size="10.00">encircled</text>
</a>
</g>
</g>
<!-- Node8&#45;&gt;Node14 -->
<g id="edge29" class="edge"><title>Node8&#45;&gt;Node14</title>
<path fill="none" stroke="midnightblue" d="M290.249,-155.052C304.643,-140.136 333.892,-112.019 364,-96 415.273,-68.7194 481.265,-52.9508 521.827,-45.1716"/>
<polygon fill="midnightblue" stroke="midnightblue" points="522.621,-48.5842 531.815,-43.3194 521.345,-41.7015 522.621,-48.5842"/>
</g>
<!-- Node10 -->
<g id="node10" class="node"><title>Node10</title>
<g id="a_node10"><a xlink:href="side_8cpp.html#aff00fd7e652791cd3d588bbd711d0327" target="_top" xlink:title="hull_edge">
<polygon fill="none" stroke="black" points="531,-257.5 531,-276.5 589,-276.5 589,-257.5 531,-257.5"/>
<text text-anchor="middle" x="560" y="-264.5" font-family="Helvetica,sans-Serif" font-size="10.00">hull_edge</text>
</a>
</g>
</g>
<!-- Node9&#45;&gt;Node10 -->
<g id="edge10" class="edge"><title>Node9&#45;&gt;Node10</title>
<path fill="none" stroke="midnightblue" d="M441.971,-200.625C465.028,-213.703 506.45,-237.196 533.322,-252.437"/>
<polygon fill="midnightblue" stroke="midnightblue" points="531.742,-255.564 542.167,-257.453 535.195,-249.475 531.742,-255.564"/>
</g>
<!-- Node9&#45;&gt;Node11 -->
<g id="edge13" class="edge"><title>Node9&#45;&gt;Node11</title>
<path fill="none" stroke="midnightblue" d="M470.231,-187.603C514.894,-184.249 582.996,-179.135 628.942,-175.684"/>
<polygon fill="midnightblue" stroke="midnightblue" points="629.257,-179.17 638.967,-174.931 628.733,-172.19 629.257,-179.17"/>
</g>
<!-- Node10&#45;&gt;Node7 -->
<g id="edge12" class="edge"><title>Node10&#45;&gt;Node7</title>
<path fill="none" stroke="midnightblue" d="M589.024,-271.551C602.097,-273.674 617.987,-276.254 632.702,-278.644"/>
<polygon fill="midnightblue" stroke="midnightblue" points="632.22,-282.111 642.652,-280.26 633.342,-275.202 632.22,-282.111"/>
</g>
<!-- Node10&#45;&gt;Node11 -->
<g id="edge11" class="edge"><title>Node10&#45;&gt;Node11</title>
<path fill="none" stroke="midnightblue" d="M573.08,-257.191C593.24,-240.822 633.927,-207.786 658.285,-188.008"/>
<polygon fill="midnightblue" stroke="midnightblue" points="660.603,-190.635 666.16,-181.614 656.19,-185.2 660.603,-190.635"/>
</g>
<!-- Node12&#45;&gt;Node7 -->
<g id="edge15" class="edge"><title>Node12&#45;&gt;Node7</title>
<path fill="none" stroke="midnightblue" d="M600.285,-298.62C610.749,-296.921 622.136,-295.072 632.885,-293.326"/>
<polygon fill="midnightblue" stroke="midnightblue" points="633.636,-296.75 642.946,-291.693 632.514,-289.841 633.636,-296.75"/>
</g>
<!-- Node12&#45;&gt;Node11 -->
<g id="edge16" class="edge"><title>Node12&#45;&gt;Node11</title>
<path fill="none" stroke="midnightblue" d="M585.71,-295.367C590.742,-292.765 595.781,-289.642 600,-286 631.752,-258.595 656.526,-215.424 669.036,-190.822"/>
<polygon fill="midnightblue" stroke="midnightblue" points="672.202,-192.316 673.494,-181.801 665.926,-189.215 672.202,-192.316"/>
</g>
<!-- Node13&#45;&gt;Node7 -->
<g id="edge18" class="edge"><title>Node13&#45;&gt;Node7</title>
<path fill="none" stroke="midnightblue" d="M439.327,-124.684C481.336,-153.077 604.439,-236.281 655.454,-270.761"/>
<polygon fill="midnightblue" stroke="midnightblue" points="653.585,-273.723 663.83,-276.423 657.505,-267.923 653.585,-273.723"/>
</g>
<!-- Node13&#45;&gt;Node11 -->
<g id="edge19" class="edge"><title>Node13&#45;&gt;Node11</title>
<path fill="none" stroke="midnightblue" d="M483.712,-119.157C518.059,-122.549 562.003,-128.555 600,-139 617.049,-143.687 635.291,-151.252 649.844,-157.957"/>
<polygon fill="midnightblue" stroke="midnightblue" points="648.734,-161.303 659.27,-162.416 651.727,-154.975 648.734,-161.303"/>
</g>
<!-- Node13&#45;&gt;Node14 -->
<g id="edge20" class="edge"><title>Node13&#45;&gt;Node14</title>
<path fill="none" stroke="midnightblue" d="M440.229,-105.301C458.795,-93.608 491.256,-73.5866 520,-58 523.072,-56.3339 526.313,-54.6475 529.559,-53.0029"/>
<polygon fill="midnightblue" stroke="midnightblue" points="531.181,-56.1054 538.588,-48.5303 528.073,-49.8328 531.181,-56.1054"/>
</g>
<!-- Node17 -->
<g id="node17" class="node"><title>Node17</title>
<g id="a_node17"><a xlink:href="classedge.html#a17a50641ad92dce62c3c8db8bf528ddc" target="_top" xlink:title="edge::destroy">
<polygon fill="none" stroke="black" points="522,-67.5 522,-86.5 598,-86.5 598,-67.5 522,-67.5"/>
<text text-anchor="middle" x="560" y="-74.5" font-family="Helvetica,sans-Serif" font-size="10.00">edge::destroy</text>
</a>
</g>
</g>
<!-- Node13&#45;&gt;Node17 -->
<g id="edge23" class="edge"><title>Node13&#45;&gt;Node17</title>
<path fill="none" stroke="midnightblue" d="M458.814,-105.411C476.033,-100.528 497.164,-94.5357 515.573,-89.315"/>
<polygon fill="midnightblue" stroke="midnightblue" points="516.531,-92.6815 525.197,-86.5859 514.621,-85.947 516.531,-92.6815"/>
</g>
<!-- Node15 -->
<g id="node15" class="node"><title>Node15</title>
<g id="a_node15"><a xlink:href="point_8cpp.html#a0586855a04f97999cb91cca634421222" target="_top" xlink:title="det4">
<polygon fill="none" stroke="black" points="661.5,-29.5 661.5,-48.5 696.5,-48.5 696.5,-29.5 661.5,-29.5"/>
<text text-anchor="middle" x="679" y="-36.5" font-family="Helvetica,sans-Serif" font-size="10.00">det4</text>
</a>
</g>
</g>
<!-- Node14&#45;&gt;Node15 -->
<g id="edge21" class="edge"><title>Node14&#45;&gt;Node15</title>
<path fill="none" stroke="midnightblue" d="M588.136,-39C607.186,-39 632.534,-39 651.452,-39"/>
<polygon fill="midnightblue" stroke="midnightblue" points="651.485,-42.5001 661.485,-39 651.485,-35.5001 651.485,-42.5001"/>
</g>
<!-- Node16 -->
<g id="node16" class="node"><title>Node16</title>
<g id="a_node16"><a xlink:href="point_8cpp.html#a0fdafd56f3e289d97c15611bdbee0fec" target="_top" xlink:title="det3">
<polygon fill="none" stroke="black" points="771.5,-10.5 771.5,-29.5 806.5,-29.5 806.5,-10.5 771.5,-10.5"/>
<text text-anchor="middle" x="789" y="-17.5" font-family="Helvetica,sans-Serif" font-size="10.00">det3</text>
</a>
</g>
</g>
<!-- Node15&#45;&gt;Node16 -->
<g id="edge22" class="edge"><title>Node15&#45;&gt;Node16</title>
<path fill="none" stroke="midnightblue" d="M696.875,-36.0312C714.074,-33.0056 741.01,-28.2667 761.143,-24.7248"/>
<polygon fill="midnightblue" stroke="midnightblue" points="762.001,-28.1277 771.243,-22.9479 760.788,-21.2336 762.001,-28.1277"/>
</g>
<!-- Node17&#45;&gt;Node11 -->
<g id="edge28" class="edge"><title>Node17&#45;&gt;Node11</title>
<path fill="none" stroke="midnightblue" d="M578.154,-86.6134C585.126,-90.7595 593.139,-95.8376 600,-101 622.428,-117.876 645.962,-139.997 661.237,-155.032"/>
<polygon fill="midnightblue" stroke="midnightblue" points="658.865,-157.609 668.422,-162.183 663.803,-152.648 658.865,-157.609"/>
</g>
<!-- Node18 -->
<g id="node18" class="node"><title>Node18</title>
<g id="a_node18"><a xlink:href="classedge__set.html#a4cd26bf920c05e300c6856848870aeb9" target="_top" xlink:title="edge_set::erase">
<polygon fill="none" stroke="black" points="636,-67.5 636,-86.5 722,-86.5 722,-67.5 636,-67.5"/>
<text text-anchor="middle" x="679" y="-74.5" font-family="Helvetica,sans-Serif" font-size="10.00">edge_set::erase</text>
</a>
</g>
</g>
<!-- Node17&#45;&gt;Node18 -->
<g id="edge24" class="edge"><title>Node17&#45;&gt;Node18</title>
<path fill="none" stroke="midnightblue" d="M598.02,-77C606.869,-77 616.48,-77 625.87,-77"/>
<polygon fill="midnightblue" stroke="midnightblue" points="625.926,-80.5001 635.926,-77 625.926,-73.5001 625.926,-80.5001"/>
</g>
<!-- Node19 -->
<g id="node19" class="node"><title>Node19</title>
<g id="a_node19"><a xlink:href="edge__set_8cpp.html#a04afedf3efb1930b4069d80cd6122ca9" target="_top" xlink:title="segment">
<polygon fill="none" stroke="black" points="762,-86.5 762,-105.5 816,-105.5 816,-86.5 762,-86.5"/>
<text text-anchor="middle" x="789" y="-93.5" font-family="Helvetica,sans-Serif" font-size="10.00">segment</text>
</a>
</g>
</g>
<!-- Node18&#45;&gt;Node19 -->
<g id="edge25" class="edge"><title>Node18&#45;&gt;Node19</title>
<path fill="none" stroke="midnightblue" d="M722.065,-84.4003C731.895,-86.1296 742.28,-87.9567 751.828,-89.6364"/>
<polygon fill="midnightblue" stroke="midnightblue" points="751.339,-93.104 761.794,-91.3896 752.551,-86.2098 751.339,-93.104"/>
</g>
<!-- Node21 -->
<g id="node21" class="node"><title>Node21</title>
<g id="a_node21"><a xlink:href="classedge.html#a67b4470d9fae58c63a3a63765880cf58" target="_top" xlink:title="edge::print">
<polygon fill="none" stroke="black" points="758,-48.5 758,-67.5 820,-67.5 820,-48.5 758,-48.5"/>
<text text-anchor="middle" x="789" y="-55.5" font-family="Helvetica,sans-Serif" font-size="10.00">edge::print</text>
</a>
</g>
</g>
<!-- Node18&#45;&gt;Node21 -->
<g id="edge27" class="edge"><title>Node18&#45;&gt;Node21</title>
<path fill="none" stroke="midnightblue" d="M722.065,-69.5997C730.571,-68.1033 739.492,-66.5338 747.927,-65.0499"/>
<polygon fill="midnightblue" stroke="midnightblue" points="748.671,-68.4727 757.914,-63.293 747.459,-61.5786 748.671,-68.4727"/>
</g>
<!-- Node20 -->
<g id="node20" class="node"><title>Node20</title>
<g id="a_node20"><a xlink:href="point_8hpp.html#ac3affcd51103a7fafe2143a933683b30" target="_top" xlink:title="bucket">
<polygon fill="none" stroke="black" points="856,-86.5 856,-105.5 902,-105.5 902,-86.5 856,-86.5"/>
<text text-anchor="middle" x="879" y="-93.5" font-family="Helvetica,sans-Serif" font-size="10.00">bucket</text>
</a>
</g>
</g>
<!-- Node19&#45;&gt;Node20 -->
<g id="edge26" class="edge"><title>Node19&#45;&gt;Node20</title>
<path fill="none" stroke="midnightblue" d="M816.403,-96C825.623,-96 836.078,-96 845.722,-96"/>
<polygon fill="midnightblue" stroke="midnightblue" points="845.773,-99.5001 855.773,-96 845.773,-92.5001 845.773,-99.5001"/>
</g>
<!-- Node24 -->
<g id="node24" class="node"><title>Node24</title>
<g id="a_node24"><a xlink:href="edge__set_8cpp.html#a8fc599e170cb66db2a6755b150fe9e5d" target="_top" xlink:title="print_edge">
<polygon fill="none" stroke="black" points="393,-0.5 393,-19.5 455,-19.5 455,-0.5 393,-0.5"/>
<text text-anchor="middle" x="424" y="-7.5" font-family="Helvetica,sans-Serif" font-size="10.00">print_edge</text>
</a>
</g>
</g>
<!-- Node23&#45;&gt;Node24 -->
<g id="edge33" class="edge"><title>Node23&#45;&gt;Node24</title>
<path fill="none" stroke="midnightblue" d="M303.5,-60.4928C327.042,-50.5456 364.21,-34.8407 390.844,-23.5871"/>
<polygon fill="midnightblue" stroke="midnightblue" points="392.286,-26.7776 400.135,-19.6614 389.561,-20.3296 392.286,-26.7776"/>
</g>
<!-- Node24&#45;&gt;Node21 -->
<g id="edge34" class="edge"><title>Node24&#45;&gt;Node21</title>
<path fill="none" stroke="midnightblue" d="M455.248,-6.2866C509.797,-0.619225 627.74,6.90396 722,-20 726.532,-21.2936 746.493,-32.9359 763.288,-42.9969"/>
<polygon fill="midnightblue" stroke="midnightblue" points="761.802,-46.1879 772.174,-48.3479 765.413,-40.1911 761.802,-46.1879"/>
</g>
</g>
</svg>
        <g id="navigator" transform="translate(0 0)" fill="#404254">
                <rect fill="#f2f5e9" fill-opacity="0.5" stroke="#606060" stroke-width=".5" x="0" y="0" width="60" height="60"/>
                <use id="zoomplus" xlink:href="#zoomPlus" x="17" y="9" onmousedown="handleZoom(evt,'in')"/>
                <use id="zoomminus" xlink:href="#zoomMin" x="42" y="9" onmousedown="handleZoom(evt,'out')"/>
                <use id="reset" xlink:href="#resetDef" x="30" y="36" onmousedown="handleReset()"/>
                <g id="arrowUp" xlink:href="#dirArrow" transform="translate(30 24)" onmousedown="handlePan(0,-1)">
                  <use xlink:href="#rim" fill="#404040">
                        <set attributeName="fill" to="#808080" begin="arrowUp.mouseover" end="arrowUp.mouseout"/>
                  </use>
                  <path fill="none" stroke="white" stroke-width="1.5" d="M0,-3.0v7 M-2.5,-0.5L0,-3.0L2.5,-0.5"/>
                </g>
                <g id="arrowRight" xlink:href="#dirArrow" transform="rotate(90) translate(36 -43)" onmousedown="handlePan(1,0)">
                  <use xlink:href="#rim" fill="#404040">
                        <set attributeName="fill" to="#808080" begin="arrowRight.mouseover" end="arrowRight.mouseout"/>
                  </use>
                  <path fill="none" stroke="white" stroke-width="1.5" d="M0,-3.0v7 M-2.5,-0.5L0,-3.0L2.5,-0.5"/>
                </g>
                <g id="arrowDown" xlink:href="#dirArrow" transform="rotate(180) translate(-30 -48)" onmousedown="handlePan(0,1)">
                  <use xlink:href="#rim" fill="#404040">
                        <set attributeName="fill" to="#808080" begin="arrowDown.mouseover" end="arrowDown.mouseout"/>
                  </use>
                  <path fill="none" stroke="white" stroke-width="1.5" d="M0,-3.0v7 M-2.5,-0.5L0,-3.0L2.5,-0.5"/>
                </g>
                <g id="arrowLeft" xlink:href="#dirArrow" transform="rotate(270) translate(-36 17)" onmousedown="handlePan(-1,0)">
                  <use xlink:href="#rim" fill="#404040">
                        <set attributeName="fill" to="#808080" begin="arrowLeft.mouseover" end="arrowLeft.mouseout"/>
                  </use>
                  <path fill="none" stroke="white" stroke-width="1.5" d="M0,-3.0v7 M-2.5,-0.5L0,-3.0L2.5,-0.5"/>
                </g>
        </g>
        <svg viewBox="0 0 15 15" width="100%" height="30px" preserveAspectRatio="xMaxYMin meet">
         <g id="arrow_out" transform="scale(0.3 0.3)">
          <a xlink:href="mesh_8cpp_a0ddf1224851353fc92bfbff6f499fa97_cgraph_org.svg" target="_base">
           <rect id="button" ry="5" rx="5" y="6" x="6" height="38" width="38"
                fill="#f2f5e9" fill-opacity="0.5" stroke="#606060" stroke-width="1.0"/>
           <path id="arrow"
             d="M 11.500037,31.436501 C 11.940474,20.09759 22.043105,11.32322 32.158766,21.979434 L 37.068811,17.246167 C 37.068811,17.246167 37.088388,32 37.088388,32 L 22.160133,31.978069 C 22.160133,31.978069 26.997745,27.140456 26.997745,27.140456 C 18.528582,18.264221 13.291696,25.230495 11.500037,31.436501 z"
             style="fill:#404040;"/>
          </a>
         </g>
        </svg>
</svg>
