<?xml version="1.0" encoding="UTF-8" standalone="no"?>
<!DOCTYPE svg PUBLIC "-//W3C//DTD SVG 1.1//EN"
 "http://www.w3.org/Graphics/SVG/1.1/DTD/svg11.dtd">
<!-- Generated by graphviz version 2.36.0 (20140111.2315)
 -->
<!-- Title: createElement Pages: 1 -->
<svg width="268pt" height="28pt"
 viewBox="0.00 0.00 268.00 28.00" xmlns="http://www.w3.org/2000/svg" xmlns:xlink="http://www.w3.org/1999/xlink">
<g id="graph0" class="graph" transform="scale(1 1) rotate(0) translate(4 24)">
<title>createElement</title>
<!-- Node1 -->
<g id="node1" class="node"><title>Node1</title>
<polygon fill="#bfbfbf" stroke="black" points="0,-0.5 0,-19.5 80,-19.5 80,-0.5 0,-0.5"/>
<text text-anchor="middle" x="40" y="-7.5" font-family="Helvetica,sans-Serif" font-size="10.00">createElement</text>
</g>
<!-- Node2 -->
<g id="node2" class="node"><title>Node2</title>
<g id="a_node2"><a xlink:href="mesh_8h.html#a0ee17a9bc1b62a498c98f8e0dc41d902" target="_top" xlink:title="mesh_read">
<polygon fill="none" stroke="black" points="116.5,-0.5 116.5,-19.5 181.5,-19.5 181.5,-0.5 116.5,-0.5"/>
<text text-anchor="middle" x="149" y="-7.5" font-family="Helvetica,sans-Serif" font-size="10.00">mesh_read</text>
</a>
</g>
</g>
<!-- Node1&#45;&gt;Node2 -->
<g id="edge1" class="edge"><title>Node1&#45;&gt;Node2</title>
<path fill="none" stroke="midnightblue" d="M90.4842,-10C99.3219,-10 108.307,-10 116.466,-10"/>
<polygon fill="midnightblue" stroke="midnightblue" points="90.2353,-6.5001 80.2353,-10 90.2352,-13.5001 90.2353,-6.5001"/>
</g>
<!-- Node3 -->
<g id="node3" class="node"><title>Node3</title>
<g id="a_node3"><a xlink:href="yada_8c.html#a40c5c0b0d4eb7b59a91108269f69dc89" target="_top" xlink:title="MAIN">
<polygon fill="none" stroke="black" points="218,-0.5 218,-19.5 260,-19.5 260,-0.5 218,-0.5"/>
<text text-anchor="middle" x="239" y="-7.5" font-family="Helvetica,sans-Serif" font-size="10.00">MAIN</text>
</a>
</g>
</g>
<!-- Node2&#45;&gt;Node3 -->
<g id="edge2" class="edge"><title>Node2&#45;&gt;Node3</title>
<path fill="none" stroke="midnightblue" d="M191.839,-10C200.875,-10 210.033,-10 217.783,-10"/>
<polygon fill="midnightblue" stroke="midnightblue" points="191.77,-6.5001 181.77,-10 191.77,-13.5001 191.77,-6.5001"/>
</g>
</g>
</svg>
