<?xml version="1.0" encoding="UTF-8" standalone="no"?>
<!DOCTYPE svg PUBLIC "-//W3C//DTD SVG 1.1//EN"
 "http://www.w3.org/Graphics/SVG/1.1/DTD/svg11.dtd">
<!-- Generated by graphviz version 2.36.0 (20140111.2315)
 -->
<!-- Title: rstm/rstm&#45;dev/stamp&#45;0.9.10/yada/mesh.h Pages: 1 -->
<svg width="448pt" height="432pt"
 viewBox="0.00 0.00 448.22 432.00" xmlns="http://www.w3.org/2000/svg" xmlns:xlink="http://www.w3.org/1999/xlink">
<g id="graph0" class="graph" transform="scale(1 1) rotate(0) translate(4 428)">
<title>rstm/rstm&#45;dev/stamp&#45;0.9.10/yada/mesh.h</title>
<!-- Node1 -->
<g id="node1" class="node"><title>Node1</title>
<polygon fill="#bfbfbf" stroke="black" points="259.5,-393 259.5,-423 366.5,-423 366.5,-393 259.5,-393"/>
<text text-anchor="start" x="267.5" y="-411" font-family="Helvetica,sans-Serif" font-size="10.00">rstm/rstm&#45;dev/stamp</text>
<text text-anchor="middle" x="313" y="-400" font-family="Helvetica,sans-Serif" font-size="10.00">&#45;0.9.10/yada/mesh.h</text>
</g>
<!-- Node2 -->
<g id="node2" class="node"><title>Node2</title>
<g id="a_node2"><a xlink:href="element_8h.html" target="_top" xlink:title="element.h">
<polygon fill="none" stroke="black" points="184.5,-336.5 184.5,-355.5 243.5,-355.5 243.5,-336.5 184.5,-336.5"/>
<text text-anchor="middle" x="214" y="-343.5" font-family="Helvetica,sans-Serif" font-size="10.00">element.h</text>
</a>
</g>
</g>
<!-- Node1&#45;&gt;Node2 -->
<g id="edge1" class="edge"><title>Node1&#45;&gt;Node2</title>
<path fill="none" stroke="midnightblue" d="M289.789,-392.933C273.832,-383.262 252.741,-370.479 236.86,-360.855"/>
<polygon fill="midnightblue" stroke="midnightblue" points="238.556,-357.79 228.19,-355.6 234.928,-363.776 238.556,-357.79"/>
</g>
<!-- Node4 -->
<g id="node4" class="node"><title>Node4</title>
<g id="a_node4"><a xlink:href="tm_8h.html" target="_top" xlink:title="tm.h">
<polygon fill="none" stroke="black" points="114,-112.5 114,-131.5 150,-131.5 150,-112.5 114,-112.5"/>
<text text-anchor="middle" x="132" y="-119.5" font-family="Helvetica,sans-Serif" font-size="10.00">tm.h</text>
</a>
</g>
</g>
<!-- Node1&#45;&gt;Node4 -->
<g id="edge21" class="edge"><title>Node1&#45;&gt;Node4</title>
<path fill="none" stroke="midnightblue" d="M259.193,-398.451C169.702,-382.696 0,-345.62 0,-291 0,-291 0,-291 0,-233 0,-179.191 65.5352,-146.598 104.252,-132.038"/>
<polygon fill="midnightblue" stroke="midnightblue" points="105.695,-135.239 113.923,-128.565 103.328,-128.651 105.695,-135.239"/>
</g>
<!-- Node12 -->
<g id="node12" class="node"><title>Node12</title>
<g id="a_node12"><a xlink:href="map_8h.html" target="_top" xlink:title="map.h">
<polygon fill="none" stroke="black" points="311,-280.5 311,-299.5 355,-299.5 355,-280.5 311,-280.5"/>
<text text-anchor="middle" x="333" y="-287.5" font-family="Helvetica,sans-Serif" font-size="10.00">map.h</text>
</a>
</g>
</g>
<!-- Node1&#45;&gt;Node12 -->
<g id="edge16" class="edge"><title>Node1&#45;&gt;Node12</title>
<path fill="none" stroke="midnightblue" d="M315.452,-392.776C319.056,-371.876 325.786,-332.844 329.782,-309.664"/>
<polygon fill="midnightblue" stroke="midnightblue" points="333.249,-310.156 331.499,-299.707 326.351,-308.967 333.249,-310.156"/>
</g>
<!-- Node14 -->
<g id="node14" class="node"><title>Node14</title>
<polygon fill="none" stroke="#bfbfbf" points="379.5,-336.5 379.5,-355.5 436.5,-355.5 436.5,-336.5 379.5,-336.5"/>
<text text-anchor="middle" x="408" y="-343.5" font-family="Helvetica,sans-Serif" font-size="10.00">random.h</text>
</g>
<!-- Node1&#45;&gt;Node14 -->
<g id="edge20" class="edge"><title>Node1&#45;&gt;Node14</title>
<path fill="none" stroke="midnightblue" d="M335.514,-392.781C350.69,-383.196 370.624,-370.606 385.745,-361.056"/>
<polygon fill="midnightblue" stroke="midnightblue" points="387.868,-363.855 394.453,-355.556 384.13,-357.936 387.868,-363.855"/>
</g>
<!-- Node15 -->
<g id="node15" class="node"><title>Node15</title>
<g id="a_node15"><a xlink:href="vector_8h.html" target="_top" xlink:title="vector.h">
<polygon fill="none" stroke="black" points="373,-280.5 373,-299.5 425,-299.5 425,-280.5 373,-280.5"/>
<text text-anchor="middle" x="399" y="-287.5" font-family="Helvetica,sans-Serif" font-size="10.00">vector.h</text>
</a>
</g>
</g>
<!-- Node1&#45;&gt;Node15 -->
<g id="edge22" class="edge"><title>Node1&#45;&gt;Node15</title>
<path fill="none" stroke="midnightblue" d="M323.545,-392.776C339.463,-371.306 369.566,-330.701 386.542,-307.803"/>
<polygon fill="midnightblue" stroke="midnightblue" points="389.401,-309.825 392.545,-299.707 383.778,-305.656 389.401,-309.825"/>
</g>
<!-- Node3 -->
<g id="node3" class="node"><title>Node3</title>
<g id="a_node3"><a xlink:href="yada_2coordinate_8h.html" target="_top" xlink:title="coordinate.h">
<polygon fill="none" stroke="black" points="66,-168.5 66,-187.5 136,-187.5 136,-168.5 66,-168.5"/>
<text text-anchor="middle" x="101" y="-175.5" font-family="Helvetica,sans-Serif" font-size="10.00">coordinate.h</text>
</a>
</g>
</g>
<!-- Node2&#45;&gt;Node3 -->
<g id="edge2" class="edge"><title>Node2&#45;&gt;Node3</title>
<path fill="none" stroke="midnightblue" d="M203.38,-336.497C193.209,-327.993 177.848,-314.174 167,-300 141.295,-266.413 119.623,-221.525 108.669,-196.952"/>
<polygon fill="midnightblue" stroke="midnightblue" points="111.862,-195.518 104.65,-187.757 105.448,-198.321 111.862,-195.518"/>
</g>
<!-- Node2&#45;&gt;Node4 -->
<g id="edge14" class="edge"><title>Node2&#45;&gt;Node4</title>
<path fill="none" stroke="midnightblue" d="M199.017,-336.465C165.092,-316.099 83.312,-260.875 57,-188 53.9813,-179.639 52.6205,-175.735 57,-168 67.1316,-150.106 87.5316,-138.551 104.501,-131.636"/>
<polygon fill="midnightblue" stroke="midnightblue" points="105.851,-134.868 113.992,-128.088 103.4,-128.311 105.851,-134.868"/>
</g>
<!-- Node8 -->
<g id="node8" class="node"><title>Node8</title>
<g id="a_node8"><a xlink:href="list_8h.html" target="_top" xlink:title="list.h">
<polygon fill="none" stroke="black" points="176,-280.5 176,-299.5 214,-299.5 214,-280.5 176,-280.5"/>
<text text-anchor="middle" x="195" y="-287.5" font-family="Helvetica,sans-Serif" font-size="10.00">list.h</text>
</a>
</g>
</g>
<!-- Node2&#45;&gt;Node8 -->
<g id="edge7" class="edge"><title>Node2&#45;&gt;Node8</title>
<path fill="none" stroke="midnightblue" d="M210.863,-336.083C208.317,-328.849 204.644,-318.409 201.473,-309.397"/>
<polygon fill="midnightblue" stroke="midnightblue" points="204.7,-308.023 198.079,-299.751 198.097,-310.346 204.7,-308.023"/>
</g>
<!-- Node9 -->
<g id="node9" class="node"><title>Node9</title>
<g id="a_node9"><a xlink:href="types_8h.html" target="_top" xlink:title="types.h">
<polygon fill="none" stroke="black" points="273.5,-224.5 273.5,-243.5 322.5,-243.5 322.5,-224.5 273.5,-224.5"/>
<text text-anchor="middle" x="298" y="-231.5" font-family="Helvetica,sans-Serif" font-size="10.00">types.h</text>
</a>
</g>
</g>
<!-- Node2&#45;&gt;Node9 -->
<g id="edge15" class="edge"><title>Node2&#45;&gt;Node9</title>
<path fill="none" stroke="midnightblue" d="M224.012,-336.314C233.633,-327.676 248.257,-313.759 259,-300 270.617,-285.121 281.459,-266.51 288.748,-253.019"/>
<polygon fill="midnightblue" stroke="midnightblue" points="292.016,-254.326 293.584,-243.848 285.824,-251.062 292.016,-254.326"/>
</g>
<!-- Node11 -->
<g id="node11" class="node"><title>Node11</title>
<g id="a_node11"><a xlink:href="pair_8h.html" target="_top" xlink:title="pair.h">
<polygon fill="none" stroke="black" points="208.5,-168.5 208.5,-187.5 249.5,-187.5 249.5,-168.5 208.5,-168.5"/>
<text text-anchor="middle" x="229" y="-175.5" font-family="Helvetica,sans-Serif" font-size="10.00">pair.h</text>
</a>
</g>
</g>
<!-- Node2&#45;&gt;Node11 -->
<g id="edge13" class="edge"><title>Node2&#45;&gt;Node11</title>
<path fill="none" stroke="midnightblue" d="M216.096,-336.434C218.21,-327.424 221.385,-312.805 223,-300 227.546,-263.955 228.689,-221.463 228.951,-197.635"/>
<polygon fill="midnightblue" stroke="midnightblue" points="232.452,-197.571 229.021,-187.547 225.452,-197.523 232.452,-197.571"/>
</g>
<!-- Node3&#45;&gt;Node4 -->
<g id="edge3" class="edge"><title>Node3&#45;&gt;Node4</title>
<path fill="none" stroke="midnightblue" d="M106.119,-168.083C110.408,-160.613 116.658,-149.724 121.942,-140.52"/>
<polygon fill="midnightblue" stroke="midnightblue" points="125.033,-142.166 126.976,-131.751 118.962,-138.681 125.033,-142.166"/>
</g>
<!-- Node5 -->
<g id="node5" class="node"><title>Node5</title>
<polygon fill="none" stroke="#bfbfbf" points="76,-56.5 76,-75.5 122,-75.5 122,-56.5 76,-56.5"/>
<text text-anchor="middle" x="99" y="-63.5" font-family="Helvetica,sans-Serif" font-size="10.00">stdio.h</text>
</g>
<!-- Node4&#45;&gt;Node5 -->
<g id="edge4" class="edge"><title>Node4&#45;&gt;Node5</title>
<path fill="none" stroke="midnightblue" d="M126.551,-112.083C121.986,-104.613 115.332,-93.7244 109.707,-84.5199"/>
<polygon fill="midnightblue" stroke="midnightblue" points="112.549,-82.4588 104.348,-75.7511 106.576,-86.109 112.549,-82.4588"/>
</g>
<!-- Node6 -->
<g id="node6" class="node"><title>Node6</title>
<g id="a_node6"><a xlink:href="assert_8h.html" target="_top" xlink:title="assert.h">
<polygon fill="none" stroke="black" points="140,-56.5 140,-75.5 192,-75.5 192,-56.5 140,-56.5"/>
<text text-anchor="middle" x="166" y="-63.5" font-family="Helvetica,sans-Serif" font-size="10.00">assert.h</text>
</a>
</g>
</g>
<!-- Node4&#45;&gt;Node6 -->
<g id="edge5" class="edge"><title>Node4&#45;&gt;Node6</title>
<path fill="none" stroke="midnightblue" d="M137.614,-112.083C142.367,-104.534 149.318,-93.4948 155.152,-84.2298"/>
<polygon fill="midnightblue" stroke="midnightblue" points="158.124,-86.0783 160.49,-75.7511 152.2,-82.3486 158.124,-86.0783"/>
</g>
<!-- Node7 -->
<g id="node7" class="node"><title>Node7</title>
<polygon fill="none" stroke="#bfbfbf" points="140.5,-0.5 140.5,-19.5 191.5,-19.5 191.5,-0.5 140.5,-0.5"/>
<text text-anchor="middle" x="166" y="-7.5" font-family="Helvetica,sans-Serif" font-size="10.00">config.h</text>
</g>
<!-- Node6&#45;&gt;Node7 -->
<g id="edge6" class="edge"><title>Node6&#45;&gt;Node7</title>
<path fill="none" stroke="midnightblue" d="M166,-56.083C166,-49.0059 166,-38.8611 166,-29.9865"/>
<polygon fill="midnightblue" stroke="midnightblue" points="169.5,-29.751 166,-19.7511 162.5,-29.7511 169.5,-29.751"/>
</g>
<!-- Node8&#45;&gt;Node4 -->
<g id="edge8" class="edge"><title>Node8&#45;&gt;Node4</title>
<path fill="none" stroke="midnightblue" d="M185.476,-280.334C176.864,-271.921 164.56,-258.35 158,-244 143.753,-212.834 152.656,-201.402 145,-168 142.953,-159.072 140.191,-149.288 137.739,-141.131"/>
<polygon fill="midnightblue" stroke="midnightblue" points="141.076,-140.074 134.781,-131.552 134.388,-142.14 141.076,-140.074"/>
</g>
<!-- Node8&#45;&gt;Node9 -->
<g id="edge9" class="edge"><title>Node8&#45;&gt;Node9</title>
<path fill="none" stroke="midnightblue" d="M211.549,-280.324C227.992,-271.703 253.435,-258.364 272.468,-248.386"/>
<polygon fill="midnightblue" stroke="midnightblue" points="274.261,-251.398 281.492,-243.655 271.011,-245.198 274.261,-251.398"/>
</g>
<!-- Node10 -->
<g id="node10" class="node"><title>Node10</title>
<g id="a_node10"><a xlink:href="lehigh_8h.html" target="_top" xlink:title="lehigh.h">
<polygon fill="none" stroke="black" points="167,-224.5 167,-243.5 217,-243.5 217,-224.5 167,-224.5"/>
<text text-anchor="middle" x="192" y="-231.5" font-family="Helvetica,sans-Serif" font-size="10.00">lehigh.h</text>
</a>
</g>
</g>
<!-- Node8&#45;&gt;Node10 -->
<g id="edge10" class="edge"><title>Node8&#45;&gt;Node10</title>
<path fill="none" stroke="midnightblue" d="M194.505,-280.083C194.111,-273.006 193.548,-262.861 193.055,-253.986"/>
<polygon fill="midnightblue" stroke="midnightblue" points="196.536,-253.542 192.486,-243.751 189.546,-253.93 196.536,-253.542"/>
</g>
<!-- Node10&#45;&gt;Node11 -->
<g id="edge11" class="edge"><title>Node10&#45;&gt;Node11</title>
<path fill="none" stroke="midnightblue" d="M198.11,-224.083C203.282,-216.534 210.846,-205.495 217.194,-196.23"/>
<polygon fill="midnightblue" stroke="midnightblue" points="220.239,-197.979 223.004,-187.751 214.464,-194.022 220.239,-197.979"/>
</g>
<!-- Node11&#45;&gt;Node4 -->
<g id="edge12" class="edge"><title>Node11&#45;&gt;Node4</title>
<path fill="none" stroke="midnightblue" d="M213.415,-168.324C198.001,-159.743 174.188,-146.486 156.29,-136.522"/>
<polygon fill="midnightblue" stroke="midnightblue" points="157.986,-133.461 147.546,-131.655 154.581,-139.577 157.986,-133.461"/>
</g>
<!-- Node12&#45;&gt;Node9 -->
<g id="edge19" class="edge"><title>Node12&#45;&gt;Node9</title>
<path fill="none" stroke="midnightblue" d="M327.22,-280.083C322.328,-272.534 315.173,-261.495 309.167,-252.23"/>
<polygon fill="midnightblue" stroke="midnightblue" points="312.048,-250.239 303.672,-243.751 306.174,-254.046 312.048,-250.239"/>
</g>
<!-- Node12&#45;&gt;Node11 -->
<g id="edge18" class="edge"><title>Node12&#45;&gt;Node11</title>
<path fill="none" stroke="midnightblue" d="M335.474,-280.118C338.65,-266.704 342.484,-241.039 331,-224 314.981,-200.232 283.364,-188.904 259.555,-183.577"/>
<polygon fill="midnightblue" stroke="midnightblue" points="260.065,-180.11 249.573,-181.585 258.695,-186.975 260.065,-180.11"/>
</g>
<!-- Node13 -->
<g id="node13" class="node"><title>Node13</title>
<polygon fill="none" stroke="#bfbfbf" points="379,-224.5 379,-243.5 427,-243.5 427,-224.5 379,-224.5"/>
<text text-anchor="middle" x="403" y="-231.5" font-family="Helvetica,sans-Serif" font-size="10.00">stdlib.h</text>
</g>
<!-- Node12&#45;&gt;Node13 -->
<g id="edge17" class="edge"><title>Node12&#45;&gt;Node13</title>
<path fill="none" stroke="midnightblue" d="M344.247,-280.324C354.797,-272.185 370.801,-259.839 383.442,-250.087"/>
<polygon fill="midnightblue" stroke="midnightblue" points="385.769,-252.713 391.549,-243.834 381.493,-247.171 385.769,-252.713"/>
</g>
<!-- Node15&#45;&gt;Node4 -->
<g id="edge23" class="edge"><title>Node15&#45;&gt;Node4</title>
<path fill="none" stroke="midnightblue" d="M410.207,-280.44C425.562,-267.661 449.752,-243.06 436,-224 371.075,-134.015 222.694,-122.944 160.381,-122.439"/>
<polygon fill="midnightblue" stroke="midnightblue" points="160.122,-118.939 150.125,-122.448 160.128,-125.939 160.122,-118.939"/>
</g>
<!-- Node15&#45;&gt;Node9 -->
<g id="edge24" class="edge"><title>Node15&#45;&gt;Node9</title>
<path fill="none" stroke="midnightblue" d="M382.773,-280.324C366.649,-271.703 341.7,-258.364 323.036,-248.386"/>
<polygon fill="midnightblue" stroke="midnightblue" points="324.656,-245.283 314.187,-243.655 321.356,-251.456 324.656,-245.283"/>
</g>
</g>
</svg>
