<?xml version="1.0" encoding="UTF-8" standalone="no"?>
<!DOCTYPE svg PUBLIC "-//W3C//DTD SVG 1.1//EN"
 "http://www.w3.org/Graphics/SVG/1.1/DTD/svg11.dtd">
<!-- Generated by graphviz version 2.36.0 (20140111.2315)
 -->
<!-- Title: itm2stm::block_write Pages: 1 -->
<svg width="422pt" height="185pt"
 viewBox="0.00 0.00 422.00 184.60" xmlns="http://www.w3.org/2000/svg" xmlns:xlink="http://www.w3.org/1999/xlink">
<g id="graph0" class="graph" transform="scale(1 1) rotate(0) translate(4 180.603)">
<title>itm2stm::block_write</title>
<!-- Node1 -->
<g id="node1" class="node"><title>Node1</title>
<polygon fill="#bfbfbf" stroke="black" points="0.5,-87.5 0.5,-106.5 107.5,-106.5 107.5,-87.5 0.5,-87.5"/>
<text text-anchor="middle" x="54" y="-94.5" font-family="Helvetica,sans-Serif" font-size="10.00">itm2stm::block_write</text>
</g>
<!-- Node2 -->
<g id="node2" class="node"><title>Node2</title>
<g id="a_node2"><a xlink:href="namespaceitm2stm.html#aa9908b113027ae21130750939980ee0b" target="_top" xlink:title="itm2stm::offset_of">
<polygon fill="none" stroke="black" points="310,-108.5 310,-127.5 406,-127.5 406,-108.5 310,-108.5"/>
<text text-anchor="middle" x="358" y="-115.5" font-family="Helvetica,sans-Serif" font-size="10.00">itm2stm::offset_of</text>
</a>
</g>
</g>
<!-- Node1&#45;&gt;Node2 -->
<g id="edge1" class="edge"><title>Node1&#45;&gt;Node2</title>
<path fill="none" stroke="midnightblue" d="M63.4045,-106.617C77.943,-122.435 109.555,-153.347 144,-165 195.363,-182.376 213.311,-177.803 266,-165 291.308,-158.85 317.445,-144.352 335.178,-133.072"/>
<polygon fill="midnightblue" stroke="midnightblue" points="337.191,-135.937 343.636,-127.528 333.354,-130.083 337.191,-135.937"/>
</g>
<!-- Node3 -->
<g id="node3" class="node"><title>Node3</title>
<g id="a_node3"><a xlink:href="namespaceitm2stm.html#a6c0f462e6a92340d0aaff5050c4a6ed6" target="_top" xlink:title="itm2stm::base_of">
<polygon fill="none" stroke="black" points="159,-136.5 159,-155.5 251,-155.5 251,-136.5 159,-136.5"/>
<text text-anchor="middle" x="205" y="-143.5" font-family="Helvetica,sans-Serif" font-size="10.00">itm2stm::base_of</text>
</a>
</g>
</g>
<!-- Node1&#45;&gt;Node3 -->
<g id="edge2" class="edge"><title>Node1&#45;&gt;Node3</title>
<path fill="none" stroke="midnightblue" d="M84.0824,-106.564C107.26,-114.186 139.921,-124.927 165.306,-133.275"/>
<polygon fill="midnightblue" stroke="midnightblue" points="164.398,-136.661 174.991,-136.46 166.585,-130.011 164.398,-136.661"/>
</g>
<!-- Node4 -->
<g id="node4" class="node"><title>Node4</title>
<g id="a_node4"><a xlink:href="namespaceanonymous__namespace_02BlockOperations_8cpp_03.html#a637c079bc9ac3e8e4b5d988b469703ae" target="_top" xlink:title="anonymous_namespace\l\{BlockOperations::cpp\}\l::write_subword">
<polygon fill="none" stroke="black" points="144,-76.5 144,-117.5 266,-117.5 266,-76.5 144,-76.5"/>
<text text-anchor="start" x="152" y="-105.5" font-family="Helvetica,sans-Serif" font-size="10.00">anonymous_namespace</text>
<text text-anchor="start" x="152" y="-94.5" font-family="Helvetica,sans-Serif" font-size="10.00">{BlockOperations::cpp}</text>
<text text-anchor="middle" x="205" y="-83.5" font-family="Helvetica,sans-Serif" font-size="10.00">::write_subword</text>
</a>
</g>
</g>
<!-- Node1&#45;&gt;Node4 -->
<g id="edge3" class="edge"><title>Node1&#45;&gt;Node4</title>
<path fill="none" stroke="midnightblue" d="M107.532,-97C115.963,-97 124.806,-97 133.573,-97"/>
<polygon fill="midnightblue" stroke="midnightblue" points="133.802,-100.5 143.802,-97 133.802,-93.5001 133.802,-100.5"/>
</g>
<!-- Node5 -->
<g id="node5" class="node"><title>Node5</title>
<g id="a_node5"><a xlink:href="namespaceitm2stm.html#a7bfcca557e548ad294de7fe74eb4cdf6" target="_top" xlink:title="itm2stm::make_mask">
<polygon fill="none" stroke="black" points="302.5,-65.5 302.5,-84.5 413.5,-84.5 413.5,-65.5 302.5,-65.5"/>
<text text-anchor="middle" x="358" y="-72.5" font-family="Helvetica,sans-Serif" font-size="10.00">itm2stm::make_mask</text>
</a>
</g>
</g>
<!-- Node1&#45;&gt;Node5 -->
<g id="edge7" class="edge"><title>Node1&#45;&gt;Node5</title>
<path fill="none" stroke="midnightblue" d="M76.8003,-87.4251C94.5121,-80.1953 120.347,-70.8793 144,-67 193.254,-58.922 249.735,-61.5769 292.154,-65.8973"/>
<polygon fill="midnightblue" stroke="midnightblue" points="292.031,-69.4042 302.348,-66.9949 292.78,-62.4444 292.031,-69.4042"/>
</g>
<!-- Node6 -->
<g id="node6" class="node"><title>Node6</title>
<g id="a_node6"><a xlink:href="namespaceitm2stm.html#a334b9615cac957b9ce7a4743beaaaf53" target="_top" xlink:title="itm2stm::add_bytes">
<polygon fill="none" stroke="black" points="153.5,-0.5 153.5,-19.5 256.5,-19.5 256.5,-0.5 153.5,-0.5"/>
<text text-anchor="middle" x="205" y="-7.5" font-family="Helvetica,sans-Serif" font-size="10.00">itm2stm::add_bytes</text>
</a>
</g>
</g>
<!-- Node1&#45;&gt;Node6 -->
<g id="edge6" class="edge"><title>Node1&#45;&gt;Node6</title>
<path fill="none" stroke="midnightblue" d="M66.7866,-87.279C83.2881,-73.9995 114.566,-50.0127 144,-34 151.137,-30.1171 159.038,-26.5104 166.699,-23.3344"/>
<polygon fill="midnightblue" stroke="midnightblue" points="168.203,-26.5031 176.2,-19.5534 165.615,-19.9992 168.203,-26.5031"/>
</g>
<!-- Node4&#45;&gt;Node2 -->
<g id="edge4" class="edge"><title>Node4&#45;&gt;Node2</title>
<path fill="none" stroke="midnightblue" d="M266.113,-105.36C277.195,-106.901 288.74,-108.507 299.735,-110.036"/>
<polygon fill="midnightblue" stroke="midnightblue" points="299.263,-113.504 309.65,-111.415 300.227,-106.571 299.263,-113.504"/>
</g>
<!-- Node4&#45;&gt;Node5 -->
<g id="edge5" class="edge"><title>Node4&#45;&gt;Node5</title>
<path fill="none" stroke="midnightblue" d="M266.113,-88.2418C274.744,-86.9844 283.654,-85.6861 292.368,-84.4166"/>
<polygon fill="midnightblue" stroke="midnightblue" points="293.086,-87.849 302.477,-82.9437 292.077,-80.9221 293.086,-87.849"/>
</g>
</g>
</svg>
