<?xml version="1.0" encoding="UTF-8" standalone="no"?>
<!DOCTYPE svg PUBLIC "-//W3C//DTD SVG 1.1//EN"
 "http://www.w3.org/Graphics/SVG/1.1/DTD/svg11.dtd">
<!-- Generated by graphviz version 2.36.0 (20140111.2315)
 -->
<!-- Title: itm2stm::block_set Pages: 1 -->
<svg width="414pt" height="145pt"
 viewBox="0.00 0.00 414.00 145.10" xmlns="http://www.w3.org/2000/svg" xmlns:xlink="http://www.w3.org/1999/xlink">
<g id="graph0" class="graph" transform="scale(1 1) rotate(0) translate(4 141.096)">
<title>itm2stm::block_set</title>
<!-- Node1 -->
<g id="node1" class="node"><title>Node1</title>
<polygon fill="#bfbfbf" stroke="black" points="0,-54.5957 0,-73.5957 100,-73.5957 100,-54.5957 0,-54.5957"/>
<text text-anchor="middle" x="50" y="-61.5957" font-family="Helvetica,sans-Serif" font-size="10.00">itm2stm::block_set</text>
</g>
<!-- Node2 -->
<g id="node2" class="node"><title>Node2</title>
<g id="a_node2"><a xlink:href="namespaceitm2stm.html#a6c0f462e6a92340d0aaff5050c4a6ed6" target="_top" xlink:title="itm2stm::base_of">
<polygon fill="none" stroke="black" points="151,-117.596 151,-136.596 243,-136.596 243,-117.596 151,-117.596"/>
<text text-anchor="middle" x="197" y="-124.596" font-family="Helvetica,sans-Serif" font-size="10.00">itm2stm::base_of</text>
</a>
</g>
</g>
<!-- Node1&#45;&gt;Node2 -->
<g id="edge1" class="edge"><title>Node1&#45;&gt;Node2</title>
<path fill="none" stroke="midnightblue" d="M71.1395,-73.6783C88.2835,-81.7532 113.619,-93.4922 136,-103.096 144.39,-106.696 153.508,-110.432 162.045,-113.854"/>
<polygon fill="midnightblue" stroke="midnightblue" points="160.78,-117.118 171.365,-117.561 163.366,-110.613 160.78,-117.118"/>
</g>
<!-- Node3 -->
<g id="node3" class="node"><title>Node3</title>
<g id="a_node3"><a xlink:href="namespaceitm2stm.html#aa9908b113027ae21130750939980ee0b" target="_top" xlink:title="itm2stm::offset_of">
<polygon fill="none" stroke="black" points="302,-51.5957 302,-70.5957 398,-70.5957 398,-51.5957 302,-51.5957"/>
<text text-anchor="middle" x="350" y="-58.5957" font-family="Helvetica,sans-Serif" font-size="10.00">itm2stm::offset_of</text>
</a>
</g>
</g>
<!-- Node1&#45;&gt;Node3 -->
<g id="edge2" class="edge"><title>Node1&#45;&gt;Node3</title>
<path fill="none" stroke="midnightblue" d="M100.42,-67.4948C112.082,-68.1605 124.475,-68.757 136,-69.0957 190.199,-70.6884 203.83,-71.4722 258,-69.0957 268.918,-68.6167 280.551,-67.816 291.724,-66.9014"/>
<polygon fill="midnightblue" stroke="midnightblue" points="292.157,-70.3772 301.821,-66.0355 291.559,-63.4028 292.157,-70.3772"/>
</g>
<!-- Node4 -->
<g id="node4" class="node"><title>Node4</title>
<g id="a_node4"><a xlink:href="namespaceanonymous__namespace_02BlockOperations_8cpp_03.html#a637c079bc9ac3e8e4b5d988b469703ae" target="_top" xlink:title="anonymous_namespace\l\{BlockOperations::cpp\}\l::write_subword">
<polygon fill="none" stroke="black" points="136,-19.5957 136,-60.5957 258,-60.5957 258,-19.5957 136,-19.5957"/>
<text text-anchor="start" x="144" y="-48.5957" font-family="Helvetica,sans-Serif" font-size="10.00">anonymous_namespace</text>
<text text-anchor="start" x="144" y="-37.5957" font-family="Helvetica,sans-Serif" font-size="10.00">{BlockOperations::cpp}</text>
<text text-anchor="middle" x="197" y="-26.5957" font-family="Helvetica,sans-Serif" font-size="10.00">::write_subword</text>
</a>
</g>
</g>
<!-- Node1&#45;&gt;Node4 -->
<g id="edge3" class="edge"><title>Node1&#45;&gt;Node4</title>
<path fill="none" stroke="midnightblue" d="M100.09,-55.9704C108.358,-54.602 117.08,-53.1583 125.759,-51.7218"/>
<polygon fill="midnightblue" stroke="midnightblue" points="126.603,-55.1297 135.898,-50.0437 125.46,-48.2237 126.603,-55.1297"/>
</g>
<!-- Node5 -->
<g id="node5" class="node"><title>Node5</title>
<g id="a_node5"><a xlink:href="namespaceitm2stm.html#a7bfcca557e548ad294de7fe74eb4cdf6" target="_top" xlink:title="itm2stm::make_mask">
<polygon fill="none" stroke="black" points="294.5,-8.5957 294.5,-27.5957 405.5,-27.5957 405.5,-8.5957 294.5,-8.5957"/>
<text text-anchor="middle" x="350" y="-15.5957" font-family="Helvetica,sans-Serif" font-size="10.00">itm2stm::make_mask</text>
</a>
</g>
</g>
<!-- Node1&#45;&gt;Node5 -->
<g id="edge6" class="edge"><title>Node1&#45;&gt;Node5</title>
<path fill="none" stroke="midnightblue" d="M61.542,-54.5314C76.6965,-41.4976 106.118,-18.7851 136,-10.0957 188.745,5.24187 251.935,0.103295 295.725,-6.9225"/>
<polygon fill="midnightblue" stroke="midnightblue" points="295.147,-10.3744 305.591,-8.58989 296.314,-3.47229 295.147,-10.3744"/>
</g>
<!-- Node4&#45;&gt;Node3 -->
<g id="edge4" class="edge"><title>Node4&#45;&gt;Node3</title>
<path fill="none" stroke="midnightblue" d="M258.113,-48.4558C269.195,-49.9971 280.74,-51.6026 291.735,-53.1317"/>
<polygon fill="midnightblue" stroke="midnightblue" points="291.263,-56.5997 301.65,-54.5106 292.227,-49.6664 291.263,-56.5997"/>
</g>
<!-- Node4&#45;&gt;Node5 -->
<g id="edge5" class="edge"><title>Node4&#45;&gt;Node5</title>
<path fill="none" stroke="midnightblue" d="M258.113,-31.3375C266.744,-30.0801 275.654,-28.7818 284.368,-27.5123"/>
<polygon fill="midnightblue" stroke="midnightblue" points="285.086,-30.9447 294.477,-26.0394 284.077,-24.0178 285.086,-30.9447"/>
</g>
</g>
</svg>
