<?xml version="1.0" encoding="UTF-8" standalone="no"?>
<!DOCTYPE svg PUBLIC "-//W3C//DTD SVG 1.1//EN"
 "http://www.w3.org/Graphics/SVG/1.1/DTD/svg11.dtd">
<!-- Generated by graphviz version 2.36.0 (20140111.2315)
 -->
<!-- Title: stm::pol_init Pages: 1 -->
<svg width="688pt" height="371pt"
 viewBox="0.00 0.00 688.00 371.00" xmlns="http://www.w3.org/2000/svg" xmlns:xlink="http://www.w3.org/1999/xlink">
<g id="graph0" class="graph" transform="scale(1 1) rotate(0) translate(4 367)">
<title>stm::pol_init</title>
<!-- Node1 -->
<g id="node1" class="node"><title>Node1</title>
<polygon fill="#bfbfbf" stroke="black" points="0,-103.5 0,-122.5 70,-122.5 70,-103.5 0,-103.5"/>
<text text-anchor="middle" x="35" y="-110.5" font-family="Helvetica,sans-Serif" font-size="10.00">stm::pol_init</text>
</g>
<!-- Node2 -->
<g id="node2" class="node"><title>Node2</title>
<g id="a_node2"><a xlink:href="namespacestm.html#ab5a1851d6381fc50697f662635db22ea" target="_top" xlink:title="stm::init_pol_static">
<polygon fill="none" stroke="black" points="117.5,-215.5 117.5,-234.5 216.5,-234.5 216.5,-215.5 117.5,-215.5"/>
<text text-anchor="middle" x="167" y="-222.5" font-family="Helvetica,sans-Serif" font-size="10.00">stm::init_pol_static</text>
</a>
</g>
</g>
<!-- Node1&#45;&gt;Node2 -->
<g id="edge1" class="edge"><title>Node1&#45;&gt;Node2</title>
<path fill="none" stroke="midnightblue" d="M47.0837,-122.549C69.3418,-141.725 119.692,-185.104 147.198,-208.801"/>
<polygon fill="midnightblue" stroke="midnightblue" points="145.084,-211.6 154.944,-215.475 149.653,-206.296 145.084,-211.6"/>
</g>
<!-- Node8 -->
<g id="node8" class="node"><title>Node8</title>
<g id="a_node8"><a xlink:href="namespacestm.html#aa0b1d39423394b3e447d37ac36e9fde3" target="_top" xlink:title="stm::init_pol_cbr">
<polygon fill="none" stroke="black" points="122.5,-103.5 122.5,-122.5 211.5,-122.5 211.5,-103.5 122.5,-103.5"/>
<text text-anchor="middle" x="167" y="-110.5" font-family="Helvetica,sans-Serif" font-size="10.00">stm::init_pol_cbr</text>
</a>
</g>
</g>
<!-- Node1&#45;&gt;Node8 -->
<g id="edge7" class="edge"><title>Node1&#45;&gt;Node8</title>
<path fill="none" stroke="midnightblue" d="M70.156,-113C82.9894,-113 97.9111,-113 112.105,-113"/>
<polygon fill="midnightblue" stroke="midnightblue" points="112.271,-116.5 122.271,-113 112.271,-109.5 112.271,-116.5"/>
</g>
<!-- Node15 -->
<g id="node15" class="node"><title>Node15</title>
<g id="a_node15"><a xlink:href="namespaceanonymous__namespace_02policies_8cpp_03.html#ae90b562c1daa7c02318148678f1ebea4" target="_top" xlink:title="anonymous_namespace\l\{policies::cpp\}::load\l_qtable">
<polygon fill="none" stroke="black" points="106,-16.5 106,-57.5 228,-57.5 228,-16.5 106,-16.5"/>
<text text-anchor="start" x="114" y="-45.5" font-family="Helvetica,sans-Serif" font-size="10.00">anonymous_namespace</text>
<text text-anchor="start" x="114" y="-34.5" font-family="Helvetica,sans-Serif" font-size="10.00">{policies::cpp}::load</text>
<text text-anchor="middle" x="167" y="-23.5" font-family="Helvetica,sans-Serif" font-size="10.00">_qtable</text>
</a>
</g>
</g>
<!-- Node1&#45;&gt;Node15 -->
<g id="edge15" class="edge"><title>Node1&#45;&gt;Node15</title>
<path fill="none" stroke="midnightblue" d="M52.4646,-103.375C69.8519,-93.2097 98.0042,-76.7514 121.924,-62.7673"/>
<polygon fill="midnightblue" stroke="midnightblue" points="123.987,-65.6157 130.854,-57.5471 120.454,-59.5726 123.987,-65.6157"/>
</g>
<!-- Node3 -->
<g id="node3" class="node"><title>Node3</title>
<g id="a_node3"><a xlink:href="namespacestm.html#a6aa5d9dc2e638d0df9771d39cd3b87ef" target="_top" xlink:title="stm::init_adapt_pol">
<polygon fill="none" stroke="black" points="276.5,-147.5 276.5,-166.5 375.5,-166.5 375.5,-147.5 276.5,-147.5"/>
<text text-anchor="middle" x="326" y="-154.5" font-family="Helvetica,sans-Serif" font-size="10.00">stm::init_adapt_pol</text>
</a>
</g>
</g>
<!-- Node2&#45;&gt;Node3 -->
<g id="edge2" class="edge"><title>Node2&#45;&gt;Node3</title>
<path fill="none" stroke="midnightblue" d="M185.334,-215.362C204.288,-205.055 235.738,-188.625 264,-177 270.233,-174.436 276.924,-171.968 283.51,-169.693"/>
<polygon fill="midnightblue" stroke="midnightblue" points="284.647,-173.003 293.018,-166.509 282.424,-166.365 284.647,-173.003"/>
</g>
<!-- Node4 -->
<g id="node4" class="node"><title>Node4</title>
<g id="a_node4"><a xlink:href="namespaceanonymous__namespace_02static_8cpp_03.html#ae9990f5d808082c67e85dd51b5679732" target="_top" xlink:title="anonymous_namespace\l\{static::cpp\}::pol_E">
<polygon fill="none" stroke="black" points="265,-333 265,-363 387,-363 387,-333 265,-333"/>
<text text-anchor="start" x="273" y="-351" font-family="Helvetica,sans-Serif" font-size="10.00">anonymous_namespace</text>
<text text-anchor="middle" x="326" y="-340" font-family="Helvetica,sans-Serif" font-size="10.00">{static::cpp}::pol_E</text>
</a>
</g>
</g>
<!-- Node2&#45;&gt;Node4 -->
<g id="edge3" class="edge"><title>Node2&#45;&gt;Node4</title>
<path fill="none" stroke="midnightblue" d="M175.191,-234.624C189.937,-253.782 225.469,-297.071 264,-323 266.754,-324.853 269.666,-326.607 272.666,-328.261"/>
<polygon fill="midnightblue" stroke="midnightblue" points="271.356,-331.52 281.858,-332.919 274.521,-325.277 271.356,-331.52"/>
</g>
<!-- Node5 -->
<g id="node5" class="node"><title>Node5</title>
<g id="a_node5"><a xlink:href="namespaceanonymous__namespace_02static_8cpp_03.html#a356adb65bf55070273b42e289177d08a" target="_top" xlink:title="anonymous_namespace\l\{static::cpp\}::pol_ER">
<polygon fill="none" stroke="black" points="265,-284 265,-314 387,-314 387,-284 265,-284"/>
<text text-anchor="start" x="273" y="-302" font-family="Helvetica,sans-Serif" font-size="10.00">anonymous_namespace</text>
<text text-anchor="middle" x="326" y="-291" font-family="Helvetica,sans-Serif" font-size="10.00">{static::cpp}::pol_ER</text>
</a>
</g>
</g>
<!-- Node2&#45;&gt;Node5 -->
<g id="edge4" class="edge"><title>Node2&#45;&gt;Node5</title>
<path fill="none" stroke="midnightblue" d="M185.829,-234.663C204.941,-244.888 236.282,-261.273 264,-274 268.323,-275.985 272.85,-277.984 277.401,-279.941"/>
<polygon fill="midnightblue" stroke="midnightblue" points="276.145,-283.21 286.719,-283.88 278.871,-276.762 276.145,-283.21"/>
</g>
<!-- Node6 -->
<g id="node6" class="node"><title>Node6</title>
<g id="a_node6"><a xlink:href="namespaceanonymous__namespace_02static_8cpp_03.html#ae7874d79d4bed12301c4b8cfa73510ab" target="_top" xlink:title="anonymous_namespace\l\{static::cpp\}::pol_X">
<polygon fill="none" stroke="black" points="265,-235 265,-265 387,-265 387,-235 265,-235"/>
<text text-anchor="start" x="273" y="-253" font-family="Helvetica,sans-Serif" font-size="10.00">anonymous_namespace</text>
<text text-anchor="middle" x="326" y="-242" font-family="Helvetica,sans-Serif" font-size="10.00">{static::cpp}::pol_X</text>
</a>
</g>
</g>
<!-- Node2&#45;&gt;Node6 -->
<g id="edge5" class="edge"><title>Node2&#45;&gt;Node6</title>
<path fill="none" stroke="midnightblue" d="M216.815,-232.773C228.819,-234.685 241.908,-236.769 254.704,-238.806"/>
<polygon fill="midnightblue" stroke="midnightblue" points="254.451,-242.31 264.877,-240.426 255.551,-235.397 254.451,-242.31"/>
</g>
<!-- Node7 -->
<g id="node7" class="node"><title>Node7</title>
<g id="a_node7"><a xlink:href="namespaceanonymous__namespace_02static_8cpp_03.html#aa824c84a6c1fe13a580dace00ad444c8" target="_top" xlink:title="anonymous_namespace\l\{static::cpp\}::pol_R">
<polygon fill="none" stroke="black" points="265,-186 265,-216 387,-216 387,-186 265,-186"/>
<text text-anchor="start" x="273" y="-204" font-family="Helvetica,sans-Serif" font-size="10.00">anonymous_namespace</text>
<text text-anchor="middle" x="326" y="-193" font-family="Helvetica,sans-Serif" font-size="10.00">{static::cpp}::pol_R</text>
</a>
</g>
</g>
<!-- Node2&#45;&gt;Node7 -->
<g id="edge6" class="edge"><title>Node2&#45;&gt;Node7</title>
<path fill="none" stroke="midnightblue" d="M216.815,-217.538C228.819,-215.703 241.908,-213.702 254.704,-211.746"/>
<polygon fill="midnightblue" stroke="midnightblue" points="255.52,-215.162 264.877,-210.191 254.463,-208.242 255.52,-215.162"/>
</g>
<!-- Node8&#45;&gt;Node3 -->
<g id="edge8" class="edge"><title>Node8&#45;&gt;Node3</title>
<path fill="none" stroke="midnightblue" d="M202.067,-122.547C225.315,-129.063 256.316,-137.751 281.369,-144.772"/>
<polygon fill="midnightblue" stroke="midnightblue" points="280.426,-148.143 291,-147.471 282.315,-141.402 280.426,-148.143"/>
</g>
<!-- Node9 -->
<g id="node9" class="node"><title>Node9</title>
<g id="a_node9"><a xlink:href="namespaceanonymous__namespace_02cbr_8cpp_03.html#a0566a8b94db9550484ad458e48c3d7f9" target="_top" xlink:title="anonymous_namespace\l\{cbr::cpp\}::pol_CBR_RO">
<polygon fill="none" stroke="black" points="264,-98 264,-128 388,-128 388,-98 264,-98"/>
<text text-anchor="start" x="272" y="-116" font-family="Helvetica,sans-Serif" font-size="10.00">anonymous_namespace</text>
<text text-anchor="middle" x="326" y="-105" font-family="Helvetica,sans-Serif" font-size="10.00">{cbr::cpp}::pol_CBR_RO</text>
</a>
</g>
</g>
<!-- Node8&#45;&gt;Node9 -->
<g id="edge9" class="edge"><title>Node8&#45;&gt;Node9</title>
<path fill="none" stroke="midnightblue" d="M211.733,-113C224.729,-113 239.318,-113 253.592,-113"/>
<polygon fill="midnightblue" stroke="midnightblue" points="253.903,-116.5 263.903,-113 253.903,-109.5 253.903,-116.5"/>
</g>
<!-- Node10 -->
<g id="node10" class="node"><title>Node10</title>
<g id="a_node10"><a xlink:href="namespaceanonymous__namespace_02cbr_8cpp_03.html#a24ec6eb1e0eca0a6b9866180e5e3ecb0" target="_top" xlink:title="anonymous_namespace\l\{cbr::cpp\}::profile\l_nochange">
<polygon fill="none" stroke="black" points="265,-38.5 265,-79.5 387,-79.5 387,-38.5 265,-38.5"/>
<text text-anchor="start" x="273" y="-67.5" font-family="Helvetica,sans-Serif" font-size="10.00">anonymous_namespace</text>
<text text-anchor="start" x="273" y="-56.5" font-family="Helvetica,sans-Serif" font-size="10.00">{cbr::cpp}::profile</text>
<text text-anchor="middle" x="326" y="-45.5" font-family="Helvetica,sans-Serif" font-size="10.00">_nochange</text>
</a>
</g>
</g>
<!-- Node8&#45;&gt;Node10 -->
<g id="edge10" class="edge"><title>Node8&#45;&gt;Node10</title>
<path fill="none" stroke="midnightblue" d="M195.707,-103.47C212.425,-97.72 234.53,-90.1171 255.725,-82.8271"/>
<polygon fill="midnightblue" stroke="midnightblue" points="257.059,-86.0697 265.377,-79.5074 254.782,-79.4503 257.059,-86.0697"/>
</g>
<!-- Node11 -->
<g id="node11" class="node"><title>Node11</title>
<g id="a_node11"><a xlink:href="structstm_1_1dynprof__t.html#a2b3bf61e8cd914963dc3ff653ec2f6bc" target="_top" xlink:title="stm::dynprof_t::doavg">
<polygon fill="none" stroke="black" points="424,-87.5 424,-106.5 536,-106.5 536,-87.5 424,-87.5"/>
<text text-anchor="middle" x="480" y="-94.5" font-family="Helvetica,sans-Serif" font-size="10.00">stm::dynprof_t::doavg</text>
</a>
</g>
</g>
<!-- Node10&#45;&gt;Node11 -->
<g id="edge11" class="edge"><title>Node10&#45;&gt;Node11</title>
<path fill="none" stroke="midnightblue" d="M387.074,-74.0186C401.631,-77.6578 417.004,-81.501 430.925,-84.9813"/>
<polygon fill="midnightblue" stroke="midnightblue" points="430.222,-88.4133 440.773,-87.4432 431.92,-81.6223 430.222,-88.4133"/>
</g>
<!-- Node13 -->
<g id="node13" class="node"><title>Node13</title>
<g id="a_node13"><a xlink:href="structstm_1_1dynprof__t.html#a16cfdcbd81c4528cd778b587d46c94e5" target="_top" xlink:title="stm::dynprof_t::dump">
<polygon fill="none" stroke="black" points="425,-49.5 425,-68.5 535,-68.5 535,-49.5 425,-49.5"/>
<text text-anchor="middle" x="480" y="-56.5" font-family="Helvetica,sans-Serif" font-size="10.00">stm::dynprof_t::dump</text>
</a>
</g>
</g>
<!-- Node10&#45;&gt;Node13 -->
<g id="edge13" class="edge"><title>Node10&#45;&gt;Node13</title>
<path fill="none" stroke="midnightblue" d="M387.074,-59C396.118,-59 405.477,-59 414.607,-59"/>
<polygon fill="midnightblue" stroke="midnightblue" points="414.788,-62.5001 424.788,-59 414.788,-55.5001 414.788,-62.5001"/>
</g>
<!-- Node14 -->
<g id="node14" class="node"><title>Node14</title>
<g id="a_node14"><a xlink:href="namespacestm.html#a18a81b01de87995b54cd855bb6eeaae7" target="_top" xlink:title="stm::get_nontxtime">
<polygon fill="none" stroke="black" points="429.5,-11.5 429.5,-30.5 530.5,-30.5 530.5,-11.5 429.5,-11.5"/>
<text text-anchor="middle" x="480" y="-18.5" font-family="Helvetica,sans-Serif" font-size="10.00">stm::get_nontxtime</text>
</a>
</g>
</g>
<!-- Node10&#45;&gt;Node14 -->
<g id="edge14" class="edge"><title>Node10&#45;&gt;Node14</title>
<path fill="none" stroke="midnightblue" d="M387.074,-43.9814C401.631,-40.3422 417.004,-36.499 430.925,-33.0187"/>
<polygon fill="midnightblue" stroke="midnightblue" points="431.92,-36.3777 440.773,-30.5568 430.222,-29.5867 431.92,-36.3777"/>
</g>
<!-- Node12 -->
<g id="node12" class="node"><title>Node12</title>
<g id="a_node12"><a xlink:href="structstm_1_1dynprof__t.html#a3a563bc6d70ae8791d4d940bdeed38fd" target="_top" xlink:title="stm::dynprof_t::clear">
<polygon fill="none" stroke="black" points="572.5,-87.5 572.5,-106.5 679.5,-106.5 679.5,-87.5 572.5,-87.5"/>
<text text-anchor="middle" x="626" y="-94.5" font-family="Helvetica,sans-Serif" font-size="10.00">stm::dynprof_t::clear</text>
</a>
</g>
</g>
<!-- Node11&#45;&gt;Node12 -->
<g id="edge12" class="edge"><title>Node11&#45;&gt;Node12</title>
<path fill="none" stroke="midnightblue" d="M536.262,-97C544.813,-97 553.698,-97 562.396,-97"/>
<polygon fill="midnightblue" stroke="midnightblue" points="562.491,-100.5 572.491,-97 562.491,-93.5001 562.491,-100.5"/>
</g>
<!-- Node16 -->
<g id="node16" class="node"><title>Node16</title>
<g id="a_node16"><a xlink:href="namespacestm.html#ab7e623982dc0a84b9d3d4b53a4e7962e" target="_top" xlink:title="stm::stm_name_map">
<polygon fill="none" stroke="black" points="271.5,-0.5 271.5,-19.5 380.5,-19.5 380.5,-0.5 271.5,-0.5"/>
<text text-anchor="middle" x="326" y="-7.5" font-family="Helvetica,sans-Serif" font-size="10.00">stm::stm_name_map</text>
</a>
</g>
</g>
<!-- Node15&#45;&gt;Node16 -->
<g id="edge16" class="edge"><title>Node15&#45;&gt;Node16</title>
<path fill="none" stroke="midnightblue" d="M228.251,-26.6383C239.109,-24.771 250.46,-22.8189 261.41,-20.9359"/>
<polygon fill="midnightblue" stroke="midnightblue" points="262.064,-24.3748 271.326,-19.2305 260.878,-17.4761 262.064,-24.3748"/>
</g>
</g>
</svg>
