<?xml version="1.0" encoding="UTF-8" standalone="no"?>
<!DOCTYPE svg PUBLIC "-//W3C//DTD SVG 1.1//EN"
 "http://www.w3.org/Graphics/SVG/1.1/DTD/svg11.dtd">
<!-- Generated by graphviz version 2.36.0 (20140111.2315)
 -->
<!-- Title: stm::OnReadWriteCommit Pages: 1 -->
<svg width="300pt" height="109pt"
 viewBox="0.00 0.00 300.00 109.00" xmlns="http://www.w3.org/2000/svg" xmlns:xlink="http://www.w3.org/1999/xlink">
<g id="graph0" class="graph" transform="scale(1 1) rotate(0) translate(4 105)">
<title>stm::OnReadWriteCommit</title>
<!-- Node1 -->
<g id="node1" class="node"><title>Node1</title>
<polygon fill="#bfbfbf" stroke="black" points="0.5,-40.5 0.5,-59.5 133.5,-59.5 133.5,-40.5 0.5,-40.5"/>
<text text-anchor="middle" x="67" y="-47.5" font-family="Helvetica,sans-Serif" font-size="10.00">stm::OnReadWriteCommit</text>
</g>
<!-- Node2 -->
<g id="node2" class="node"><title>Node2</title>
<g id="a_node2"><a xlink:href="structanonymous__namespace_02norec_8cpp_03_1_1NOrec__Generic.html#a83dc52e814ca00e9e7c6eab4109ddb2b" target="_top" xlink:title="anonymous_namespace\l\{norec::cpp\}::NOrec\l_Generic::commit">
<polygon fill="none" stroke="black" points="170,-59.5 170,-100.5 292,-100.5 292,-59.5 170,-59.5"/>
<text text-anchor="start" x="178" y="-88.5" font-family="Helvetica,sans-Serif" font-size="10.00">anonymous_namespace</text>
<text text-anchor="start" x="178" y="-77.5" font-family="Helvetica,sans-Serif" font-size="10.00">{norec::cpp}::NOrec</text>
<text text-anchor="middle" x="231" y="-66.5" font-family="Helvetica,sans-Serif" font-size="10.00">_Generic::commit</text>
</a>
</g>
</g>
<!-- Node1&#45;&gt;Node2 -->
<g id="edge1" class="edge"><title>Node1&#45;&gt;Node2</title>
<path fill="none" stroke="midnightblue" d="M129.6,-61.4074C142.759,-63.8443 156.645,-66.4157 169.753,-68.8431"/>
<polygon fill="midnightblue" stroke="midnightblue" points="130.173,-57.9542 119.703,-59.5747 128.899,-64.8371 130.173,-57.9542"/>
</g>
<!-- Node3 -->
<g id="node3" class="node"><title>Node3</title>
<g id="a_node3"><a xlink:href="structanonymous__namespace_02norec_8cpp_03_1_1NOrec__Generic.html#a89e410296c817d520b2a2293d05b7796" target="_top" xlink:title="anonymous_namespace\l\{norec::cpp\}::NOrec\l_Generic::commit_rw">
<polygon fill="none" stroke="black" points="170,0.5 170,-40.5 292,-40.5 292,0.5 170,0.5"/>
<text text-anchor="start" x="178" y="-28.5" font-family="Helvetica,sans-Serif" font-size="10.00">anonymous_namespace</text>
<text text-anchor="start" x="178" y="-17.5" font-family="Helvetica,sans-Serif" font-size="10.00">{norec::cpp}::NOrec</text>
<text text-anchor="middle" x="231" y="-6.5" font-family="Helvetica,sans-Serif" font-size="10.00">_Generic::commit_rw</text>
</a>
</g>
</g>
<!-- Node1&#45;&gt;Node3 -->
<g id="edge2" class="edge"><title>Node1&#45;&gt;Node3</title>
<path fill="none" stroke="midnightblue" d="M129.6,-38.5926C142.759,-36.1557 156.645,-33.5843 169.753,-31.1569"/>
<polygon fill="midnightblue" stroke="midnightblue" points="128.899,-35.1629 119.703,-40.4253 130.173,-42.0458 128.899,-35.1629"/>
</g>
</g>
</svg>
