<?xml version="1.0" encoding="UTF-8" standalone="no"?>
<!DOCTYPE svg PUBLIC "-//W3C//DTD SVG 1.1//EN"
 "http://www.w3.org/Graphics/SVG/1.1/DTD/svg11.dtd">
<!-- Generated by graphviz version 2.36.0 (20140111.2315)
 -->
<!-- Title: anonymous_namespace{norec::cpp}::irrevoc Pages: 1 -->
<svg width="320pt" height="1092pt"
 viewBox="0.00 0.00 320.00 1092.00" xmlns="http://www.w3.org/2000/svg" xmlns:xlink="http://www.w3.org/1999/xlink">
<g id="graph0" class="graph" transform="scale(1 1) rotate(0) translate(4 1088)">
<title>anonymous_namespace{norec::cpp}::irrevoc</title>
<!-- Node1 -->
<g id="node1" class="node"><title>Node1</title>
<polygon fill="#bfbfbf" stroke="black" points="0,-527 0,-557 122,-557 122,-527 0,-527"/>
<text text-anchor="start" x="8" y="-545" font-family="Helvetica,sans-Serif" font-size="10.00">anonymous_namespace</text>
<text text-anchor="middle" x="61" y="-534" font-family="Helvetica,sans-Serif" font-size="10.00">{norec::cpp}::irrevoc</text>
</g>
<!-- Node2 -->
<g id="node2" class="node"><title>Node2</title>
<g id="a_node2"><a xlink:href="namespacestm.html#a3481259fea7ebeebd977ce02fb4689a9" target="_top" xlink:title="stm::initTM\&lt; BitEager \&gt;">
<polygon fill="none" stroke="black" points="174,-1064.5 174,-1083.5 296,-1083.5 296,-1064.5 174,-1064.5"/>
<text text-anchor="middle" x="235" y="-1071.5" font-family="Helvetica,sans-Serif" font-size="10.00">stm::initTM&lt; BitEager &gt;</text>
</a>
</g>
</g>
<!-- Node1&#45;&gt;Node2 -->
<g id="edge1" class="edge"><title>Node1&#45;&gt;Node2</title>
<path fill="none" stroke="midnightblue" d="M63.2163,-567.322C68.208,-660.548 90.1735,-982.978 158,-1055 162.476,-1059.75 167.945,-1063.39 173.878,-1066.17"/>
<polygon fill="midnightblue" stroke="midnightblue" points="66.7007,-566.928 62.6897,-557.121 59.71,-567.288 66.7007,-566.928"/>
</g>
<!-- Node3 -->
<g id="node3" class="node"><title>Node3</title>
<g id="a_node3"><a xlink:href="namespacestm.html#af335dc712a8de275f9717b777ed3ca66" target="_top" xlink:title="stm::initTM\&lt; BitEagerRedo \&gt;">
<polygon fill="none" stroke="black" points="162.5,-1026.5 162.5,-1045.5 307.5,-1045.5 307.5,-1026.5 162.5,-1026.5"/>
<text text-anchor="middle" x="235" y="-1033.5" font-family="Helvetica,sans-Serif" font-size="10.00">stm::initTM&lt; BitEagerRedo &gt;</text>
</a>
</g>
</g>
<!-- Node1&#45;&gt;Node3 -->
<g id="edge2" class="edge"><title>Node1&#45;&gt;Node3</title>
<path fill="none" stroke="midnightblue" d="M63.6378,-567.449C69.8707,-656.326 95.0179,-951.081 158,-1017 161.664,-1020.84 165.976,-1023.94 170.653,-1026.46"/>
<polygon fill="midnightblue" stroke="midnightblue" points="67.1118,-566.948 62.9403,-557.209 60.128,-567.423 67.1118,-566.948"/>
</g>
<!-- Node4 -->
<g id="node4" class="node"><title>Node4</title>
<g id="a_node4"><a xlink:href="namespacestm.html#a5e270495fc7574dcdcc888b7d417f2ef" target="_top" xlink:title="stm::initTM\&lt; BitLazy \&gt;">
<polygon fill="none" stroke="black" points="176.5,-988.5 176.5,-1007.5 293.5,-1007.5 293.5,-988.5 176.5,-988.5"/>
<text text-anchor="middle" x="235" y="-995.5" font-family="Helvetica,sans-Serif" font-size="10.00">stm::initTM&lt; BitLazy &gt;</text>
</a>
</g>
</g>
<!-- Node1&#45;&gt;Node4 -->
<g id="edge3" class="edge"><title>Node1&#45;&gt;Node4</title>
<path fill="none" stroke="midnightblue" d="M64.113,-567.343C71.6292,-651.404 99.7892,-919.092 158,-979 163.118,-984.267 169.459,-988.158 176.278,-991.018"/>
<polygon fill="midnightblue" stroke="midnightblue" points="67.5998,-567.038 63.2429,-557.381 60.6264,-567.647 67.5998,-567.038"/>
</g>
<!-- Node5 -->
<g id="node5" class="node"><title>Node5</title>
<g id="a_node5"><a xlink:href="namespacestm.html#ae4cf55c68816202f94849ee8d185898c" target="_top" xlink:title="stm::initTM\&lt; ByEAR \&gt;">
<polygon fill="none" stroke="black" points="176.5,-950.5 176.5,-969.5 293.5,-969.5 293.5,-950.5 176.5,-950.5"/>
<text text-anchor="middle" x="235" y="-957.5" font-family="Helvetica,sans-Serif" font-size="10.00">stm::initTM&lt; ByEAR &gt;</text>
</a>
</g>
</g>
<!-- Node1&#45;&gt;Node5 -->
<g id="edge4" class="edge"><title>Node1&#45;&gt;Node5</title>
<path fill="none" stroke="midnightblue" d="M64.6966,-567.448C73.6022,-646.717 104.588,-887.113 158,-941 163.17,-946.216 169.541,-950.077 176.375,-952.923"/>
<polygon fill="midnightblue" stroke="midnightblue" points="68.1603,-566.925 63.5866,-557.368 61.2024,-567.691 68.1603,-566.925"/>
</g>
<!-- Node6 -->
<g id="node6" class="node"><title>Node6</title>
<g id="a_node6"><a xlink:href="namespacestm.html#a8eb056d129b487626f62873c35b1b1fb" target="_top" xlink:title="stm::initTM\&lt; ByteEager \&gt;">
<polygon fill="none" stroke="black" points="170,-912.5 170,-931.5 300,-931.5 300,-912.5 170,-912.5"/>
<text text-anchor="middle" x="235" y="-919.5" font-family="Helvetica,sans-Serif" font-size="10.00">stm::initTM&lt; ByteEager &gt;</text>
</a>
</g>
</g>
<!-- Node1&#45;&gt;Node6 -->
<g id="edge5" class="edge"><title>Node1&#45;&gt;Node6</title>
<path fill="none" stroke="midnightblue" d="M65.3845,-567.423C75.7493,-641.518 109.334,-855.055 158,-903 161.875,-906.818 166.395,-909.907 171.263,-912.401"/>
<polygon fill="midnightblue" stroke="midnightblue" points="68.8024,-566.586 63.9729,-557.156 61.8676,-567.539 68.8024,-566.586"/>
</g>
<!-- Node7 -->
<g id="node7" class="node"><title>Node7</title>
<g id="a_node7"><a xlink:href="namespacestm.html#a190221d732834ffba64bba1c53b1e4d0" target="_top" xlink:title="stm::initTM\&lt; ByteEagerRedo \&gt;">
<polygon fill="none" stroke="black" points="158.5,-874.5 158.5,-893.5 311.5,-893.5 311.5,-874.5 158.5,-874.5"/>
<text text-anchor="middle" x="235" y="-881.5" font-family="Helvetica,sans-Serif" font-size="10.00">stm::initTM&lt; ByteEagerRedo &gt;</text>
</a>
</g>
</g>
<!-- Node1&#45;&gt;Node7 -->
<g id="edge6" class="edge"><title>Node1&#45;&gt;Node7</title>
<path fill="none" stroke="midnightblue" d="M61.6091,-567.357C62.1225,-628.093 72.2564,-782.942 158,-865 162.029,-868.855 166.716,-871.963 171.748,-874.464"/>
<polygon fill="midnightblue" stroke="midnightblue" points="65.109,-567.15 61.6092,-557.15 58.109,-567.15 65.109,-567.15"/>
</g>
<!-- Node8 -->
<g id="node8" class="node"><title>Node8</title>
<g id="a_node8"><a xlink:href="namespacestm.html#a7e9eb77806c370789fa8eec66c6bfbd3" target="_top" xlink:title="stm::initTM\&lt; ByteLazy \&gt;">
<polygon fill="none" stroke="black" points="172.5,-836.5 172.5,-855.5 297.5,-855.5 297.5,-836.5 172.5,-836.5"/>
<text text-anchor="middle" x="235" y="-843.5" font-family="Helvetica,sans-Serif" font-size="10.00">stm::initTM&lt; ByteLazy &gt;</text>
</a>
</g>
</g>
<!-- Node1&#45;&gt;Node8 -->
<g id="edge7" class="edge"><title>Node1&#45;&gt;Node8</title>
<path fill="none" stroke="midnightblue" d="M62.7713,-567.039C65.886,-622.481 81.3917,-756.282 158,-827 162.197,-830.875 167.063,-833.989 172.265,-836.489"/>
<polygon fill="midnightblue" stroke="midnightblue" points="66.2669,-566.861 62.2992,-557.037 59.2747,-567.191 66.2669,-566.861"/>
</g>
<!-- Node9 -->
<g id="node9" class="node"><title>Node9</title>
<g id="a_node9"><a xlink:href="namespacestm.html#a976f5145078328564e9e05c97bce777e" target="_top" xlink:title="stm::initTM\&lt; CGL \&gt;">
<polygon fill="none" stroke="black" points="183,-798.5 183,-817.5 287,-817.5 287,-798.5 183,-798.5"/>
<text text-anchor="middle" x="235" y="-805.5" font-family="Helvetica,sans-Serif" font-size="10.00">stm::initTM&lt; CGL &gt;</text>
</a>
</g>
</g>
<!-- Node1&#45;&gt;Node9 -->
<g id="edge8" class="edge"><title>Node1&#45;&gt;Node9</title>
<path fill="none" stroke="midnightblue" d="M64.2753,-567.146C70.1907,-617.208 90.6416,-729.619 158,-789 165.039,-795.206 173.805,-799.447 182.856,-802.331"/>
<polygon fill="midnightblue" stroke="midnightblue" points="67.7522,-566.743 63.1951,-557.179 60.793,-567.498 67.7522,-566.743"/>
</g>
<!-- Node10 -->
<g id="node10" class="node"><title>Node10</title>
<g id="a_node10"><a xlink:href="namespacestm.html#a9d3bc686df5785ef565f8c670551db80" target="_top" xlink:title="stm::initTM\&lt; CToken \&gt;">
<polygon fill="none" stroke="black" points="175.5,-760.5 175.5,-779.5 294.5,-779.5 294.5,-760.5 175.5,-760.5"/>
<text text-anchor="middle" x="235" y="-767.5" font-family="Helvetica,sans-Serif" font-size="10.00">stm::initTM&lt; CToken &gt;</text>
</a>
</g>
</g>
<!-- Node1&#45;&gt;Node10 -->
<g id="edge9" class="edge"><title>Node1&#45;&gt;Node10</title>
<path fill="none" stroke="midnightblue" d="M66.2316,-566.959C75.0537,-611.043 99.6613,-702.596 158,-751 163.129,-755.255 169.079,-758.578 175.347,-761.169"/>
<polygon fill="midnightblue" stroke="midnightblue" points="69.6593,-566.249 64.3612,-557.074 62.7813,-567.55 69.6593,-566.249"/>
</g>
<!-- Node11 -->
<g id="node11" class="node"><title>Node11</title>
<g id="a_node11"><a xlink:href="namespacestm.html#ad516a34d475efb5484e27b3d3a6dbc98" target="_top" xlink:title="stm::initTM\&lt; CTokenTurbo \&gt;">
<polygon fill="none" stroke="black" points="163.5,-722.5 163.5,-741.5 306.5,-741.5 306.5,-722.5 163.5,-722.5"/>
<text text-anchor="middle" x="235" y="-729.5" font-family="Helvetica,sans-Serif" font-size="10.00">stm::initTM&lt; CTokenTurbo &gt;</text>
</a>
</g>
</g>
<!-- Node1&#45;&gt;Node11 -->
<g id="edge10" class="edge"><title>Node1&#45;&gt;Node11</title>
<path fill="none" stroke="midnightblue" d="M68.923,-566.676C80.7591,-604.201 108.531,-675.229 158,-713 163.081,-716.879 168.857,-719.974 174.903,-722.443"/>
<polygon fill="midnightblue" stroke="midnightblue" points="72.2516,-565.591 66.0023,-557.036 65.5523,-567.621 72.2516,-565.591"/>
</g>
<!-- Node12 -->
<g id="node12" class="node"><title>Node12</title>
<g id="a_node12"><a xlink:href="namespacestm.html#a5cc1979e19b1da973e23e167983fe46c" target="_top" xlink:title="stm::initTM\&lt; LLT \&gt;">
<polygon fill="none" stroke="black" points="184.5,-684.5 184.5,-703.5 285.5,-703.5 285.5,-684.5 184.5,-684.5"/>
<text text-anchor="middle" x="235" y="-691.5" font-family="Helvetica,sans-Serif" font-size="10.00">stm::initTM&lt; LLT &gt;</text>
</a>
</g>
</g>
<!-- Node1&#45;&gt;Node12 -->
<g id="edge11" class="edge"><title>Node1&#45;&gt;Node12</title>
<path fill="none" stroke="midnightblue" d="M72.9958,-566.427C87.8788,-596.643 117.327,-647.455 158,-675 165.883,-680.338 175.137,-684.178 184.423,-686.939"/>
<polygon fill="midnightblue" stroke="midnightblue" points="75.978,-564.55 68.5117,-557.033 69.6608,-567.565 75.978,-564.55"/>
</g>
<!-- Node13 -->
<g id="node13" class="node"><title>Node13</title>
<g id="a_node13"><a xlink:href="namespacestm.html#a6c7909b6fe245dbee6d5212415e2e4d3" target="_top" xlink:title="stm::initTM\&lt; MCS \&gt;">
<polygon fill="none" stroke="black" points="181.5,-646.5 181.5,-665.5 288.5,-665.5 288.5,-646.5 181.5,-646.5"/>
<text text-anchor="middle" x="235" y="-653.5" font-family="Helvetica,sans-Serif" font-size="10.00">stm::initTM&lt; MCS &gt;</text>
</a>
</g>
</g>
<!-- Node1&#45;&gt;Node13 -->
<g id="edge12" class="edge"><title>Node1&#45;&gt;Node13</title>
<path fill="none" stroke="midnightblue" d="M79.2319,-565.109C96.7038,-586.893 125.709,-618.829 158,-637 165.23,-641.069 173.33,-644.277 181.474,-646.804"/>
<polygon fill="midnightblue" stroke="midnightblue" points="81.8241,-562.742 72.9031,-557.027 76.3128,-567.058 81.8241,-562.742"/>
</g>
<!-- Node14 -->
<g id="node14" class="node"><title>Node14</title>
<g id="a_node14"><a xlink:href="namespacestm.html#a048c0cf84afefca94431bf35517d2d85" target="_top" xlink:title="stm::initTM\&lt; Nano \&gt;">
<polygon fill="none" stroke="black" points="181.5,-608.5 181.5,-627.5 288.5,-627.5 288.5,-608.5 181.5,-608.5"/>
<text text-anchor="middle" x="235" y="-615.5" font-family="Helvetica,sans-Serif" font-size="10.00">stm::initTM&lt; Nano &gt;</text>
</a>
</g>
</g>
<!-- Node1&#45;&gt;Node14 -->
<g id="edge13" class="edge"><title>Node1&#45;&gt;Node14</title>
<path fill="none" stroke="midnightblue" d="M91.6759,-562.69C110.072,-574.722 134.586,-589.365 158,-599 167.056,-602.727 177.029,-605.86 186.688,-608.439"/>
<polygon fill="midnightblue" stroke="midnightblue" points="93.4322,-559.655 83.1685,-557.027 89.5533,-565.482 93.4322,-559.655"/>
</g>
<!-- Node15 -->
<g id="node15" class="node"><title>Node15</title>
<g id="a_node15"><a xlink:href="namespacestm.html#a263b456462a520d1969be26c7cde1663" target="_top" xlink:title="stm::initTM\&lt; NOrecPrio \&gt;">
<polygon fill="none" stroke="black" points="170,-570.5 170,-589.5 300,-589.5 300,-570.5 170,-570.5"/>
<text text-anchor="middle" x="235" y="-577.5" font-family="Helvetica,sans-Serif" font-size="10.00">stm::initTM&lt; NOrecPrio &gt;</text>
</a>
</g>
</g>
<!-- Node1&#45;&gt;Node15 -->
<g id="edge14" class="edge"><title>Node1&#45;&gt;Node15</title>
<path fill="none" stroke="midnightblue" d="M132.13,-557.494C152.048,-561.894 173.142,-566.555 190.937,-570.486"/>
<polygon fill="midnightblue" stroke="midnightblue" points="132.677,-554.03 122.157,-555.291 131.167,-560.866 132.677,-554.03"/>
</g>
<!-- Node16 -->
<g id="node16" class="node"><title>Node16</title>
<g id="a_node16"><a xlink:href="namespacestm.html#a97bce9d90c3aabe3329b9315b2f8d812" target="_top" xlink:title="stm::initTM\&lt; OrecALA \&gt;">
<polygon fill="none" stroke="black" points="173,-532.5 173,-551.5 297,-551.5 297,-532.5 173,-532.5"/>
<text text-anchor="middle" x="235" y="-539.5" font-family="Helvetica,sans-Serif" font-size="10.00">stm::initTM&lt; OrecALA &gt;</text>
</a>
</g>
</g>
<!-- Node1&#45;&gt;Node16 -->
<g id="edge15" class="edge"><title>Node1&#45;&gt;Node16</title>
<path fill="none" stroke="midnightblue" d="M132.282,-542C145.685,-542 159.616,-542 172.712,-542"/>
<polygon fill="midnightblue" stroke="midnightblue" points="132.157,-538.5 122.157,-542 132.157,-545.5 132.157,-538.5"/>
</g>
<!-- Node17 -->
<g id="node17" class="node"><title>Node17</title>
<g id="a_node17"><a xlink:href="namespacestm.html#a821e79dd62d4436b681023ce4f4db81e" target="_top" xlink:title="stm::initTM\&lt; OrecEagerRedo \&gt;">
<polygon fill="none" stroke="black" points="158,-494.5 158,-513.5 312,-513.5 312,-494.5 158,-494.5"/>
<text text-anchor="middle" x="235" y="-501.5" font-family="Helvetica,sans-Serif" font-size="10.00">stm::initTM&lt; OrecEagerRedo &gt;</text>
</a>
</g>
</g>
<!-- Node1&#45;&gt;Node17 -->
<g id="edge16" class="edge"><title>Node1&#45;&gt;Node17</title>
<path fill="none" stroke="midnightblue" d="M132.13,-526.506C152.048,-522.106 173.142,-517.445 190.937,-513.514"/>
<polygon fill="midnightblue" stroke="midnightblue" points="131.167,-523.134 122.157,-528.709 132.677,-529.97 131.167,-523.134"/>
</g>
<!-- Node18 -->
<g id="node18" class="node"><title>Node18</title>
<g id="a_node18"><a xlink:href="namespacestm.html#afb07a46977fb63fefd7b7f3424468a2f" target="_top" xlink:title="stm::initTM\&lt; OrecELA \&gt;">
<polygon fill="none" stroke="black" points="173,-456.5 173,-475.5 297,-475.5 297,-456.5 173,-456.5"/>
<text text-anchor="middle" x="235" y="-463.5" font-family="Helvetica,sans-Serif" font-size="10.00">stm::initTM&lt; OrecELA &gt;</text>
</a>
</g>
</g>
<!-- Node1&#45;&gt;Node18 -->
<g id="edge17" class="edge"><title>Node1&#45;&gt;Node18</title>
<path fill="none" stroke="midnightblue" d="M91.6759,-521.31C110.072,-509.278 134.586,-494.635 158,-485 167.056,-481.273 177.029,-478.14 186.688,-475.561"/>
<polygon fill="midnightblue" stroke="midnightblue" points="89.5533,-518.518 83.1685,-526.973 93.4322,-524.345 89.5533,-518.518"/>
</g>
<!-- Node19 -->
<g id="node19" class="node"><title>Node19</title>
<g id="a_node19"><a xlink:href="namespacestm.html#a4adfe88a9d7c7a206f2b6d3e95c49956" target="_top" xlink:title="stm::initTM\&lt; OrecFair \&gt;">
<polygon fill="none" stroke="black" points="174,-418.5 174,-437.5 296,-437.5 296,-418.5 174,-418.5"/>
<text text-anchor="middle" x="235" y="-425.5" font-family="Helvetica,sans-Serif" font-size="10.00">stm::initTM&lt; OrecFair &gt;</text>
</a>
</g>
</g>
<!-- Node1&#45;&gt;Node19 -->
<g id="edge18" class="edge"><title>Node1&#45;&gt;Node19</title>
<path fill="none" stroke="midnightblue" d="M79.2319,-518.891C96.7038,-497.107 125.709,-465.171 158,-447 164.875,-443.131 172.535,-440.041 180.273,-437.573"/>
<polygon fill="midnightblue" stroke="midnightblue" points="76.3128,-516.942 72.9031,-526.973 81.8241,-521.258 76.3128,-516.942"/>
</g>
<!-- Node20 -->
<g id="node20" class="node"><title>Node20</title>
<g id="a_node20"><a xlink:href="namespacestm.html#a5f4cbdf79b26d6d7be483c3c769c2743" target="_top" xlink:title="stm::initTM\&lt; Pipeline \&gt;">
<polygon fill="none" stroke="black" points="175.5,-380.5 175.5,-399.5 294.5,-399.5 294.5,-380.5 175.5,-380.5"/>
<text text-anchor="middle" x="235" y="-387.5" font-family="Helvetica,sans-Serif" font-size="10.00">stm::initTM&lt; Pipeline &gt;</text>
</a>
</g>
</g>
<!-- Node1&#45;&gt;Node20 -->
<g id="edge19" class="edge"><title>Node1&#45;&gt;Node20</title>
<path fill="none" stroke="midnightblue" d="M72.9958,-517.573C87.8788,-487.357 117.327,-436.545 158,-409 163.743,-405.111 170.214,-402.017 176.895,-399.556"/>
<polygon fill="midnightblue" stroke="midnightblue" points="69.6608,-516.435 68.5117,-526.967 75.978,-519.45 69.6608,-516.435"/>
</g>
<!-- Node21 -->
<g id="node21" class="node"><title>Node21</title>
<g id="a_node21"><a xlink:href="namespacestm.html#abc9d9099f5a0e2f15e64773fe3b9469d" target="_top" xlink:title="stm::initTM\&lt; ProfileTM \&gt;">
<polygon fill="none" stroke="black" points="172,-342.5 172,-361.5 298,-361.5 298,-342.5 172,-342.5"/>
<text text-anchor="middle" x="235" y="-349.5" font-family="Helvetica,sans-Serif" font-size="10.00">stm::initTM&lt; ProfileTM &gt;</text>
</a>
</g>
</g>
<!-- Node1&#45;&gt;Node21 -->
<g id="edge20" class="edge"><title>Node1&#45;&gt;Node21</title>
<path fill="none" stroke="midnightblue" d="M68.923,-517.324C80.7591,-479.799 108.531,-408.771 158,-371 163.081,-367.121 168.857,-364.026 174.903,-361.557"/>
<polygon fill="midnightblue" stroke="midnightblue" points="65.5523,-516.379 66.0023,-526.964 72.2516,-518.409 65.5523,-516.379"/>
</g>
<!-- Node22 -->
<g id="node22" class="node"><title>Node22</title>
<g id="a_node22"><a xlink:href="namespacestm.html#add7df907bed3087f50e92a994637cb69" target="_top" xlink:title="stm::initTM\&lt; RingALA \&gt;">
<polygon fill="none" stroke="black" points="173.5,-304.5 173.5,-323.5 296.5,-323.5 296.5,-304.5 173.5,-304.5"/>
<text text-anchor="middle" x="235" y="-311.5" font-family="Helvetica,sans-Serif" font-size="10.00">stm::initTM&lt; RingALA &gt;</text>
</a>
</g>
</g>
<!-- Node1&#45;&gt;Node22 -->
<g id="edge21" class="edge"><title>Node1&#45;&gt;Node22</title>
<path fill="none" stroke="midnightblue" d="M66.2316,-517.041C75.0537,-472.957 99.6613,-381.404 158,-333 162.605,-329.179 167.873,-326.11 173.439,-323.648"/>
<polygon fill="midnightblue" stroke="midnightblue" points="62.7813,-516.45 64.3612,-526.926 69.6593,-517.751 62.7813,-516.45"/>
</g>
<!-- Node23 -->
<g id="node23" class="node"><title>Node23</title>
<g id="a_node23"><a xlink:href="namespacestm.html#a13421a95b8ec1225735c513f5bbef241" target="_top" xlink:title="stm::initTM\&lt; RingSW \&gt;">
<polygon fill="none" stroke="black" points="174.5,-266.5 174.5,-285.5 295.5,-285.5 295.5,-266.5 174.5,-266.5"/>
<text text-anchor="middle" x="235" y="-273.5" font-family="Helvetica,sans-Serif" font-size="10.00">stm::initTM&lt; RingSW &gt;</text>
</a>
</g>
</g>
<!-- Node1&#45;&gt;Node23 -->
<g id="edge22" class="edge"><title>Node1&#45;&gt;Node23</title>
<path fill="none" stroke="midnightblue" d="M64.2753,-516.854C70.1907,-466.792 90.6416,-354.381 158,-295 162.795,-290.773 168.391,-287.457 174.332,-284.861"/>
<polygon fill="midnightblue" stroke="midnightblue" points="60.793,-516.502 63.1951,-526.821 67.7522,-517.257 60.793,-516.502"/>
</g>
<!-- Node24 -->
<g id="node24" class="node"><title>Node24</title>
<g id="a_node24"><a xlink:href="namespacestm.html#a02782a7198a1edebbcd545924d2ca25f" target="_top" xlink:title="stm::initTM\&lt; Serial \&gt;">
<polygon fill="none" stroke="black" points="180.5,-228.5 180.5,-247.5 289.5,-247.5 289.5,-228.5 180.5,-228.5"/>
<text text-anchor="middle" x="235" y="-235.5" font-family="Helvetica,sans-Serif" font-size="10.00">stm::initTM&lt; Serial &gt;</text>
</a>
</g>
</g>
<!-- Node1&#45;&gt;Node24 -->
<g id="edge23" class="edge"><title>Node1&#45;&gt;Node24</title>
<path fill="none" stroke="midnightblue" d="M62.7713,-516.961C65.886,-461.519 81.3917,-327.718 158,-257 164.296,-251.188 172.096,-247.086 180.278,-244.204"/>
<polygon fill="midnightblue" stroke="midnightblue" points="59.2747,-516.809 62.2992,-526.963 66.2669,-517.139 59.2747,-516.809"/>
</g>
<!-- Node25 -->
<g id="node25" class="node"><title>Node25</title>
<g id="a_node25"><a xlink:href="namespacestm.html#a8efa5265650472f1904c9aa89da09e69" target="_top" xlink:title="stm::initTM\&lt; Swiss \&gt;">
<polygon fill="none" stroke="black" points="179.5,-190.5 179.5,-209.5 290.5,-209.5 290.5,-190.5 179.5,-190.5"/>
<text text-anchor="middle" x="235" y="-197.5" font-family="Helvetica,sans-Serif" font-size="10.00">stm::initTM&lt; Swiss &gt;</text>
</a>
</g>
</g>
<!-- Node1&#45;&gt;Node25 -->
<g id="edge24" class="edge"><title>Node1&#45;&gt;Node25</title>
<path fill="none" stroke="midnightblue" d="M61.6091,-516.643C62.1225,-455.907 72.2564,-301.058 158,-219 163.994,-213.264 171.446,-209.183 179.322,-206.293"/>
<polygon fill="midnightblue" stroke="midnightblue" points="58.109,-516.85 61.6092,-526.85 65.109,-516.85 58.109,-516.85"/>
</g>
<!-- Node26 -->
<g id="node26" class="node"><title>Node26</title>
<g id="a_node26"><a xlink:href="namespacestm.html#af9008f38389991f51f8a771deac32ff9" target="_top" xlink:title="stm::initTM\&lt; Ticket \&gt;">
<polygon fill="none" stroke="black" points="179.5,-152.5 179.5,-171.5 290.5,-171.5 290.5,-152.5 179.5,-152.5"/>
<text text-anchor="middle" x="235" y="-159.5" font-family="Helvetica,sans-Serif" font-size="10.00">stm::initTM&lt; Ticket &gt;</text>
</a>
</g>
</g>
<!-- Node1&#45;&gt;Node26 -->
<g id="edge25" class="edge"><title>Node1&#45;&gt;Node26</title>
<path fill="none" stroke="midnightblue" d="M65.3845,-516.577C75.7493,-442.482 109.334,-228.945 158,-181 163.91,-175.178 171.319,-171.051 179.176,-168.143"/>
<polygon fill="midnightblue" stroke="midnightblue" points="61.8676,-516.461 63.9729,-526.844 68.8024,-517.414 61.8676,-516.461"/>
</g>
<!-- Node27 -->
<g id="node27" class="node"><title>Node27</title>
<g id="a_node27"><a xlink:href="namespacestm.html#a5c87bab8661e45cc64df382969f3bd2b" target="_top" xlink:title="stm::initTM\&lt; TLI \&gt;">
<polygon fill="none" stroke="black" points="186,-114.5 186,-133.5 284,-133.5 284,-114.5 186,-114.5"/>
<text text-anchor="middle" x="235" y="-121.5" font-family="Helvetica,sans-Serif" font-size="10.00">stm::initTM&lt; TLI &gt;</text>
</a>
</g>
</g>
<!-- Node1&#45;&gt;Node27 -->
<g id="edge26" class="edge"><title>Node1&#45;&gt;Node27</title>
<path fill="none" stroke="midnightblue" d="M64.6966,-516.552C73.6022,-437.283 104.588,-196.887 158,-143 165.468,-135.466 175.441,-130.759 185.698,-127.855"/>
<polygon fill="midnightblue" stroke="midnightblue" points="61.2024,-516.309 63.5866,-526.632 68.1603,-517.075 61.2024,-516.309"/>
</g>
<!-- Node28 -->
<g id="node28" class="node"><title>Node28</title>
<g id="a_node28"><a xlink:href="namespacestm.html#a37f85872162e9d5fcc4708c29f302750" target="_top" xlink:title="stm::initTM\&lt; TML \&gt;">
<polygon fill="none" stroke="black" points="183,-76.5 183,-95.5 287,-95.5 287,-76.5 183,-76.5"/>
<text text-anchor="middle" x="235" y="-83.5" font-family="Helvetica,sans-Serif" font-size="10.00">stm::initTM&lt; TML &gt;</text>
</a>
</g>
</g>
<!-- Node1&#45;&gt;Node28 -->
<g id="edge27" class="edge"><title>Node1&#45;&gt;Node28</title>
<path fill="none" stroke="midnightblue" d="M64.113,-516.657C71.6292,-432.596 99.7892,-164.908 158,-105 164.729,-98.0745 173.572,-93.5291 182.838,-90.5761"/>
<polygon fill="midnightblue" stroke="midnightblue" points="60.6264,-516.353 63.2429,-526.619 67.5998,-516.962 60.6264,-516.353"/>
</g>
<!-- Node29 -->
<g id="node29" class="node"><title>Node29</title>
<g id="a_node29"><a xlink:href="namespacestm.html#a30d2c00ca20421fe4c6aa5bd73cc75b2" target="_top" xlink:title="stm::initTM\&lt; TMLLazy \&gt;">
<polygon fill="none" stroke="black" points="172.5,-38.5 172.5,-57.5 297.5,-57.5 297.5,-38.5 172.5,-38.5"/>
<text text-anchor="middle" x="235" y="-45.5" font-family="Helvetica,sans-Serif" font-size="10.00">stm::initTM&lt; TMLLazy &gt;</text>
</a>
</g>
</g>
<!-- Node1&#45;&gt;Node29 -->
<g id="edge28" class="edge"><title>Node1&#45;&gt;Node29</title>
<path fill="none" stroke="midnightblue" d="M63.6378,-516.551C69.8707,-427.674 95.0179,-132.919 158,-67 162.134,-62.6732 167.092,-59.2725 172.469,-56.6073"/>
<polygon fill="midnightblue" stroke="midnightblue" points="60.128,-516.577 62.9403,-526.791 67.1118,-517.052 60.128,-516.577"/>
</g>
<!-- Node30 -->
<g id="node30" class="node"><title>Node30</title>
<g id="a_node30"><a xlink:href="namespacestm.html#aa80b25b7fbf60cf912475203a5ba2d0c" target="_top" xlink:title="stm::become_irrevoc">
<polygon fill="none" stroke="black" points="181,-0.5 181,-19.5 289,-19.5 289,-0.5 181,-0.5"/>
<text text-anchor="middle" x="235" y="-7.5" font-family="Helvetica,sans-Serif" font-size="10.00">stm::become_irrevoc</text>
</a>
</g>
</g>
<!-- Node1&#45;&gt;Node30 -->
<g id="edge29" class="edge"><title>Node1&#45;&gt;Node30</title>
<path fill="none" stroke="midnightblue" d="M63.2163,-516.678C68.208,-423.452 90.1735,-101.022 158,-29 164.154,-22.4653 172.186,-18.0372 180.72,-15.0637"/>
<polygon fill="midnightblue" stroke="midnightblue" points="59.71,-516.712 62.6897,-526.879 66.7007,-517.072 59.71,-516.712"/>
</g>
</g>
</svg>
