<?xml version="1.0" encoding="UTF-8" standalone="no"?>
<!DOCTYPE svg PUBLIC "-//W3C//DTD SVG 1.1//EN"
 "http://www.w3.org/Graphics/SVG/1.1/DTD/svg11.dtd">
<!-- Generated by graphviz version 2.36.0 (20140111.2315)
 -->
<!-- Title: anonymous_namespace{cbr::cpp}::pol_CBR_RO Pages: 1 -->
<svg width="474pt" height="38pt"
 viewBox="0.00 0.00 474.00 38.00" xmlns="http://www.w3.org/2000/svg" xmlns:xlink="http://www.w3.org/1999/xlink">
<g id="graph0" class="graph" transform="scale(1 1) rotate(0) translate(4 34)">
<title>anonymous_namespace{cbr::cpp}::pol_CBR_RO</title>
<!-- Node1 -->
<g id="node1" class="node"><title>Node1</title>
<polygon fill="#bfbfbf" stroke="black" points="0,-0 0,-30 124,-30 124,-0 0,-0"/>
<text text-anchor="start" x="8" y="-18" font-family="Helvetica,sans-Serif" font-size="10.00">anonymous_namespace</text>
<text text-anchor="middle" x="62" y="-7" font-family="Helvetica,sans-Serif" font-size="10.00">{cbr::cpp}::pol_CBR_RO</text>
</g>
<!-- Node2 -->
<g id="node2" class="node"><title>Node2</title>
<g id="a_node2"><a xlink:href="namespacestm.html#aa0b1d39423394b3e447d37ac36e9fde3" target="_top" xlink:title="stm::init_pol_cbr">
<polygon fill="none" stroke="black" points="160.5,-5.5 160.5,-24.5 249.5,-24.5 249.5,-5.5 160.5,-5.5"/>
<text text-anchor="middle" x="205" y="-12.5" font-family="Helvetica,sans-Serif" font-size="10.00">stm::init_pol_cbr</text>
</a>
</g>
</g>
<!-- Node1&#45;&gt;Node2 -->
<g id="edge1" class="edge"><title>Node1&#45;&gt;Node2</title>
<path fill="none" stroke="midnightblue" d="M134.093,-15C143.034,-15 151.961,-15 160.301,-15"/>
<polygon fill="midnightblue" stroke="midnightblue" points="134.025,-11.5001 124.025,-15 134.025,-18.5001 134.025,-11.5001"/>
</g>
<!-- Node3 -->
<g id="node3" class="node"><title>Node3</title>
<g id="a_node3"><a xlink:href="namespacestm.html#a4d7a6395ef81ca8e19fa2168d69e219b" target="_top" xlink:title="stm::pol_init">
<polygon fill="none" stroke="black" points="286,-5.5 286,-24.5 356,-24.5 356,-5.5 286,-5.5"/>
<text text-anchor="middle" x="321" y="-12.5" font-family="Helvetica,sans-Serif" font-size="10.00">stm::pol_init</text>
</a>
</g>
</g>
<!-- Node2&#45;&gt;Node3 -->
<g id="edge2" class="edge"><title>Node2&#45;&gt;Node3</title>
<path fill="none" stroke="midnightblue" d="M259.96,-15C268.738,-15 277.613,-15 285.748,-15"/>
<polygon fill="midnightblue" stroke="midnightblue" points="259.749,-11.5001 249.749,-15 259.749,-18.5001 259.749,-11.5001"/>
</g>
<!-- Node4 -->
<g id="node4" class="node"><title>Node4</title>
<g id="a_node4"><a xlink:href="namespacestm.html#aac29e08fdc4a251a12088bd799e7a4f4" target="_top" xlink:title="stm::sys_init">
<polygon fill="none" stroke="black" points="392.5,-5.5 392.5,-24.5 465.5,-24.5 465.5,-5.5 392.5,-5.5"/>
<text text-anchor="middle" x="429" y="-12.5" font-family="Helvetica,sans-Serif" font-size="10.00">stm::sys_init</text>
</a>
</g>
</g>
<!-- Node3&#45;&gt;Node4 -->
<g id="edge3" class="edge"><title>Node3&#45;&gt;Node4</title>
<path fill="none" stroke="midnightblue" d="M366.198,-15C374.961,-15 384.054,-15 392.482,-15"/>
<polygon fill="midnightblue" stroke="midnightblue" points="366.123,-11.5001 356.123,-15 366.123,-18.5001 366.123,-11.5001"/>
</g>
</g>
</svg>
