<?xml version="1.0" encoding="UTF-8" standalone="no"?>
<!DOCTYPE svg PUBLIC "-//W3C//DTD SVG 1.1//EN"
 "http://www.w3.org/Graphics/SVG/1.1/DTD/svg11.dtd">
<!-- Generated by graphviz version 2.36.0 (20140111.2315)
 -->
<!-- Title: stm::initTM&lt; CTokenTurbo &gt; Pages: 1 -->
<svg width="314pt" height="126pt"
 viewBox="0.00 0.00 314.00 126.00" xmlns="http://www.w3.org/2000/svg" xmlns:xlink="http://www.w3.org/1999/xlink">
<g id="graph0" class="graph" transform="scale(1 1) rotate(0) translate(4 122)">
<title>stm::initTM&lt; CTokenTurbo &gt;</title>
<!-- Node1 -->
<g id="node1" class="node"><title>Node1</title>
<polygon fill="#bfbfbf" stroke="black" points="0.5,-54.5 0.5,-73.5 143.5,-73.5 143.5,-54.5 0.5,-54.5"/>
<text text-anchor="middle" x="72" y="-61.5" font-family="Helvetica,sans-Serif" font-size="10.00">stm::initTM&lt; CTokenTurbo &gt;</text>
</g>
<!-- Node2 -->
<g id="node2" class="node"><title>Node2</title>
<g id="a_node2"><a xlink:href="namespacestm.html#a5dc0e1df0fe411722145e01e8b09b4b8" target="_top" xlink:title="stm::begin">
<polygon fill="none" stroke="black" points="212,-98.5 212,-117.5 274,-117.5 274,-98.5 212,-98.5"/>
<text text-anchor="middle" x="243" y="-105.5" font-family="Helvetica,sans-Serif" font-size="10.00">stm::begin</text>
</a>
</g>
</g>
<!-- Node1&#45;&gt;Node2 -->
<g id="edge1" class="edge"><title>Node1&#45;&gt;Node2</title>
<path fill="none" stroke="midnightblue" d="M109.67,-73.5473C136.906,-80.6381 174.025,-90.3024 202.019,-97.5909"/>
<polygon fill="midnightblue" stroke="midnightblue" points="201.326,-101.027 211.885,-100.159 203.09,-94.2527 201.326,-101.027"/>
</g>
<!-- Node3 -->
<g id="node3" class="node"><title>Node3</title>
<g id="a_node3"><a xlink:href="namespaceanonymous__namespace_02norec_8cpp_03.html#a0a6ec6794c0677e7f91daf5cb3a57775" target="_top" xlink:title="anonymous_namespace\l\{norec::cpp\}::irrevoc">
<polygon fill="none" stroke="black" points="182,-49 182,-79 304,-79 304,-49 182,-49"/>
<text text-anchor="start" x="190" y="-67" font-family="Helvetica,sans-Serif" font-size="10.00">anonymous_namespace</text>
<text text-anchor="middle" x="243" y="-56" font-family="Helvetica,sans-Serif" font-size="10.00">{norec::cpp}::irrevoc</text>
</a>
</g>
</g>
<!-- Node1&#45;&gt;Node3 -->
<g id="edge2" class="edge"><title>Node1&#45;&gt;Node3</title>
<path fill="none" stroke="midnightblue" d="M143.692,-64C152.892,-64 162.317,-64 171.514,-64"/>
<polygon fill="midnightblue" stroke="midnightblue" points="171.777,-67.5001 181.777,-64 171.777,-60.5001 171.777,-67.5001"/>
</g>
<!-- Node4 -->
<g id="node4" class="node"><title>Node4</title>
<g id="a_node4"><a xlink:href="namespaceanonymous__namespace_02norec_8cpp_03.html#a964889786277f55bf219ecf6a8fbd4a1" target="_top" xlink:title="anonymous_namespace\l\{norec::cpp\}::onSwitchTo">
<polygon fill="none" stroke="black" points="180,-0 180,-30 306,-30 306,-0 180,-0"/>
<text text-anchor="start" x="188" y="-18" font-family="Helvetica,sans-Serif" font-size="10.00">anonymous_namespace</text>
<text text-anchor="middle" x="243" y="-7" font-family="Helvetica,sans-Serif" font-size="10.00">{norec::cpp}::onSwitchTo</text>
</a>
</g>
</g>
<!-- Node1&#45;&gt;Node4 -->
<g id="edge3" class="edge"><title>Node1&#45;&gt;Node4</title>
<path fill="none" stroke="midnightblue" d="M105.986,-54.436C127.102,-48.3137 155.157,-40.1792 180.302,-32.8889"/>
<polygon fill="midnightblue" stroke="midnightblue" points="181.508,-36.1833 190.138,-30.037 179.559,-29.4602 181.508,-36.1833"/>
</g>
</g>
</svg>
