<?xml version="1.0" encoding="UTF-8" standalone="no"?>
<!DOCTYPE svg PUBLIC "-//W3C//DTD SVG 1.1//EN"
 "http://www.w3.org/Graphics/SVG/1.1/DTD/svg11.dtd">
<!-- Generated by graphviz version 2.36.0 (20140111.2315)
 -->
<!-- Title: stm::begin_blocker Pages: 1 -->
<svg width="1310pt" height="210pt"
 viewBox="0.00 0.00 1310.00 210.00" xmlns="http://www.w3.org/2000/svg" xmlns:xlink="http://www.w3.org/1999/xlink">
<g id="graph0" class="graph" transform="scale(1 1) rotate(0) translate(4 206)">
<title>stm::begin_blocker</title>
<!-- Node1 -->
<g id="node1" class="node"><title>Node1</title>
<polygon fill="#bfbfbf" stroke="black" points="0.5,-46.5 0.5,-65.5 99.5,-65.5 99.5,-46.5 0.5,-46.5"/>
<text text-anchor="middle" x="50" y="-53.5" font-family="Helvetica,sans-Serif" font-size="10.00">stm::begin_blocker</text>
</g>
<!-- Node2 -->
<g id="node2" class="node"><title>Node2</title>
<g id="a_node2"><a xlink:href="namespaceanonymous__namespace_02irrevocability_8cpp_03.html#a5f2e3da55eda99c9e30b6314c36ed8b2" target="_top" xlink:title="anonymous_namespace\l\{irrevocability::cpp\}\l::set_irrevocable_barriers">
<polygon fill="none" stroke="black" points="136,-60.5 136,-101.5 262,-101.5 262,-60.5 136,-60.5"/>
<text text-anchor="start" x="144" y="-89.5" font-family="Helvetica,sans-Serif" font-size="10.00">anonymous_namespace</text>
<text text-anchor="start" x="144" y="-78.5" font-family="Helvetica,sans-Serif" font-size="10.00">{irrevocability::cpp}</text>
<text text-anchor="middle" x="199" y="-67.5" font-family="Helvetica,sans-Serif" font-size="10.00">::set_irrevocable_barriers</text>
</a>
</g>
</g>
<!-- Node1&#45;&gt;Node2 -->
<g id="edge1" class="edge"><title>Node1&#45;&gt;Node2</title>
<path fill="none" stroke="midnightblue" d="M99.5407,-64.2552C107.987,-65.6916 116.931,-67.2128 125.85,-68.7295"/>
<polygon fill="midnightblue" stroke="midnightblue" points="125.434,-72.209 135.879,-70.4353 126.608,-65.3081 125.434,-72.209"/>
</g>
<!-- Node17 -->
<g id="node17" class="node"><title>Node17</title>
<g id="a_node17"><a xlink:href="locks_8hpp.html#a67493dc021b0db009a9603ea55d18c59" target="_top" xlink:title="spin64">
<polygon fill="none" stroke="black" points="176.5,-22.5 176.5,-41.5 221.5,-41.5 221.5,-22.5 176.5,-22.5"/>
<text text-anchor="middle" x="199" y="-29.5" font-family="Helvetica,sans-Serif" font-size="10.00">spin64</text>
</a>
</g>
</g>
<!-- Node1&#45;&gt;Node17 -->
<g id="edge17" class="edge"><title>Node1&#45;&gt;Node17</title>
<path fill="none" stroke="midnightblue" d="M99.5407,-48.075C121.516,-44.4872 146.869,-40.3479 166.345,-37.1682"/>
<polygon fill="midnightblue" stroke="midnightblue" points="166.917,-40.6213 176.222,-35.5556 165.789,-33.7127 166.917,-40.6213"/>
</g>
<!-- Node3 -->
<g id="node3" class="node"><title>Node3</title>
<g id="a_node3"><a xlink:href="namespaceanonymous__namespace_02irrevocability_8cpp_03.html#af9e6aae425588bac29be16e10b91cd4c" target="_top" xlink:title="anonymous_namespace\l\{irrevocability::cpp\}\l::commit_irrevocable">
<polygon fill="none" stroke="black" points="298,-120.5 298,-161.5 420,-161.5 420,-120.5 298,-120.5"/>
<text text-anchor="start" x="306" y="-149.5" font-family="Helvetica,sans-Serif" font-size="10.00">anonymous_namespace</text>
<text text-anchor="start" x="306" y="-138.5" font-family="Helvetica,sans-Serif" font-size="10.00">{irrevocability::cpp}</text>
<text text-anchor="middle" x="359" y="-127.5" font-family="Helvetica,sans-Serif" font-size="10.00">::commit_irrevocable</text>
</a>
</g>
</g>
<!-- Node2&#45;&gt;Node3 -->
<g id="edge2" class="edge"><title>Node2&#45;&gt;Node3</title>
<path fill="none" stroke="midnightblue" d="M254.375,-101.649C267.232,-106.531 281.057,-111.781 294.287,-116.805"/>
<polygon fill="midnightblue" stroke="midnightblue" points="293.202,-120.137 303.793,-120.415 295.687,-113.593 293.202,-120.137"/>
</g>
<!-- Node14 -->
<g id="node14" class="node"><title>Node14</title>
<g id="a_node14"><a xlink:href="namespaceanonymous__namespace_02irrevocability_8cpp_03.html#adfdb44f5b204ddd367543d1e3a5465fc" target="_top" xlink:title="anonymous_namespace\l\{irrevocability::cpp\}\l::rollback_irrevocable">
<polygon fill="none" stroke="black" points="298,-60.5 298,-101.5 420,-101.5 420,-60.5 298,-60.5"/>
<text text-anchor="start" x="306" y="-89.5" font-family="Helvetica,sans-Serif" font-size="10.00">anonymous_namespace</text>
<text text-anchor="start" x="306" y="-78.5" font-family="Helvetica,sans-Serif" font-size="10.00">{irrevocability::cpp}</text>
<text text-anchor="middle" x="359" y="-67.5" font-family="Helvetica,sans-Serif" font-size="10.00">::rollback_irrevocable</text>
</a>
</g>
</g>
<!-- Node2&#45;&gt;Node14 -->
<g id="edge13" class="edge"><title>Node2&#45;&gt;Node14</title>
<path fill="none" stroke="midnightblue" d="M262.446,-81C270.724,-81 279.257,-81 287.658,-81"/>
<polygon fill="midnightblue" stroke="midnightblue" points="287.813,-84.5001 297.813,-81 287.813,-77.5001 287.813,-84.5001"/>
</g>
<!-- Node16 -->
<g id="node16" class="node"><title>Node16</title>
<g id="a_node16"><a xlink:href="namespaceanonymous__namespace_02irrevocability_8cpp_03.html#ac71fd4f2ae60b1814ccaedea40d424a2" target="_top" xlink:title="anonymous_namespace\l\{irrevocability::cpp\}\l::abort_irrevocable">
<polygon fill="none" stroke="black" points="298,-0.5 298,-41.5 420,-41.5 420,-0.5 298,-0.5"/>
<text text-anchor="start" x="306" y="-29.5" font-family="Helvetica,sans-Serif" font-size="10.00">anonymous_namespace</text>
<text text-anchor="start" x="306" y="-18.5" font-family="Helvetica,sans-Serif" font-size="10.00">{irrevocability::cpp}</text>
<text text-anchor="middle" x="359" y="-7.5" font-family="Helvetica,sans-Serif" font-size="10.00">::abort_irrevocable</text>
</a>
</g>
</g>
<!-- Node2&#45;&gt;Node16 -->
<g id="edge15" class="edge"><title>Node2&#45;&gt;Node16</title>
<path fill="none" stroke="midnightblue" d="M254.375,-60.3514C267.232,-55.4687 281.057,-50.2189 294.287,-45.1949"/>
<polygon fill="midnightblue" stroke="midnightblue" points="295.687,-48.4072 303.793,-41.585 293.202,-41.8631 295.687,-48.4072"/>
</g>
<!-- Node4 -->
<g id="node4" class="node"><title>Node4</title>
<g id="a_node4"><a xlink:href="namespaceanonymous__namespace_02irrevocability_8cpp_03.html#ab42770392de26e3b0bc1ffbe2f7932b8" target="_top" xlink:title="anonymous_namespace\l\{irrevocability::cpp\}\l::unset_irrevocable_barriers">
<polygon fill="none" stroke="black" points="456.5,-141.5 456.5,-182.5 593.5,-182.5 593.5,-141.5 456.5,-141.5"/>
<text text-anchor="start" x="464.5" y="-170.5" font-family="Helvetica,sans-Serif" font-size="10.00">anonymous_namespace</text>
<text text-anchor="start" x="464.5" y="-159.5" font-family="Helvetica,sans-Serif" font-size="10.00">{irrevocability::cpp}</text>
<text text-anchor="middle" x="525" y="-148.5" font-family="Helvetica,sans-Serif" font-size="10.00">::unset_irrevocable_barriers</text>
</a>
</g>
</g>
<!-- Node3&#45;&gt;Node4 -->
<g id="edge3" class="edge"><title>Node3&#45;&gt;Node4</title>
<path fill="none" stroke="midnightblue" d="M420.136,-148.7C428.705,-149.798 437.616,-150.939 446.459,-152.071"/>
<polygon fill="midnightblue" stroke="midnightblue" points="446.027,-155.544 456.391,-153.343 446.916,-148.601 446.027,-155.544"/>
</g>
<!-- Node5 -->
<g id="node5" class="node"><title>Node5</title>
<g id="a_node5"><a xlink:href="namespacestm.html#a00287c50a719dcda144cc1cbc9e9ae4b" target="_top" xlink:title="stm::OnReadOnlyCommit">
<polygon fill="none" stroke="black" points="460,-103.5 460,-122.5 590,-122.5 590,-103.5 460,-103.5"/>
<text text-anchor="middle" x="525" y="-110.5" font-family="Helvetica,sans-Serif" font-size="10.00">stm::OnReadOnlyCommit</text>
</a>
</g>
</g>
<!-- Node3&#45;&gt;Node5 -->
<g id="edge4" class="edge"><title>Node3&#45;&gt;Node5</title>
<path fill="none" stroke="midnightblue" d="M420.136,-130.733C432.543,-128.615 445.671,-126.373 458.265,-124.223"/>
<polygon fill="midnightblue" stroke="midnightblue" points="458.958,-127.655 468.227,-122.522 457.78,-120.755 458.958,-127.655"/>
</g>
<!-- Node6 -->
<g id="node6" class="node"><title>Node6</title>
<g id="a_node6"><a xlink:href="classstm_1_1WBMMPolicy.html#af174b70b9898c8d900a5a2604cfadc7c" target="_top" xlink:title="stm::WBMMPolicy::onTxCommit">
<polygon fill="none" stroke="black" points="630.5,-122.5 630.5,-141.5 791.5,-141.5 791.5,-122.5 630.5,-122.5"/>
<text text-anchor="middle" x="711" y="-129.5" font-family="Helvetica,sans-Serif" font-size="10.00">stm::WBMMPolicy::onTxCommit</text>
</a>
</g>
</g>
<!-- Node5&#45;&gt;Node6 -->
<g id="edge5" class="edge"><title>Node5&#45;&gt;Node6</title>
<path fill="none" stroke="midnightblue" d="M590.096,-119.619C599.819,-120.623 610.002,-121.674 620.15,-122.722"/>
<polygon fill="midnightblue" stroke="midnightblue" points="619.961,-126.221 630.267,-123.767 620.68,-119.258 619.961,-126.221"/>
</g>
<!-- Node13 -->
<g id="node13" class="node"><title>Node13</title>
<g id="a_node13"><a xlink:href="structstm_1_1toxic__nop__t.html#a1c92cb621137c523ad38b9c252b4da06" target="_top" xlink:title="stm::toxic_nop_t::onCommit">
<polygon fill="none" stroke="black" points="641,-84.5 641,-103.5 781,-103.5 781,-84.5 641,-84.5"/>
<text text-anchor="middle" x="711" y="-91.5" font-family="Helvetica,sans-Serif" font-size="10.00">stm::toxic_nop_t::onCommit</text>
</a>
</g>
</g>
<!-- Node5&#45;&gt;Node13 -->
<g id="edge12" class="edge"><title>Node5&#45;&gt;Node13</title>
<path fill="none" stroke="midnightblue" d="M590.096,-106.381C603.154,-105.033 617.041,-103.599 630.559,-102.203"/>
<polygon fill="midnightblue" stroke="midnightblue" points="631.218,-105.654 640.805,-101.145 630.498,-98.6909 631.218,-105.654"/>
</g>
<!-- Node7 -->
<g id="node7" class="node"><title>Node7</title>
<g id="a_node7"><a xlink:href="classstm_1_1MiniVector.html#a4d707e1115e162943b4709a2af92ed77" target="_top" xlink:title="stm::MiniVector::begin">
<polygon fill="none" stroke="black" points="843.5,-182.5 843.5,-201.5 958.5,-201.5 958.5,-182.5 843.5,-182.5"/>
<text text-anchor="middle" x="901" y="-189.5" font-family="Helvetica,sans-Serif" font-size="10.00">stm::MiniVector::begin</text>
</a>
</g>
</g>
<!-- Node6&#45;&gt;Node7 -->
<g id="edge6" class="edge"><title>Node6&#45;&gt;Node7</title>
<path fill="none" stroke="midnightblue" d="M737.146,-141.558C760.509,-150.278 796.36,-163.252 828,-173 835.558,-175.329 843.615,-177.629 851.501,-179.782"/>
<polygon fill="midnightblue" stroke="midnightblue" points="850.782,-183.213 861.348,-182.421 852.595,-176.452 850.782,-183.213"/>
</g>
<!-- Node8 -->
<g id="node8" class="node"><title>Node8</title>
<g id="a_node8"><a xlink:href="classstm_1_1MiniVector.html#ae2297c706ac2ebee161ef60ace9ae645" target="_top" xlink:title="stm::MiniVector::end">
<polygon fill="none" stroke="black" points="847.5,-144.5 847.5,-163.5 954.5,-163.5 954.5,-144.5 847.5,-144.5"/>
<text text-anchor="middle" x="901" y="-151.5" font-family="Helvetica,sans-Serif" font-size="10.00">stm::MiniVector::end</text>
</a>
</g>
</g>
<!-- Node6&#45;&gt;Node8 -->
<g id="edge7" class="edge"><title>Node6&#45;&gt;Node8</title>
<path fill="none" stroke="midnightblue" d="M791.729,-141.33C807.016,-143.119 822.818,-144.968 837.468,-146.682"/>
<polygon fill="midnightblue" stroke="midnightblue" points="837.066,-150.159 847.405,-147.845 837.88,-143.207 837.066,-150.159"/>
</g>
<!-- Node9 -->
<g id="node9" class="node"><title>Node9</title>
<g id="a_node9"><a xlink:href="classstm_1_1WBMMPolicy.html#aa2aa233946e7b6b1d35b184503b8c9f9" target="_top" xlink:title="stm::WBMMPolicy::schedFor\lReclaim">
<polygon fill="none" stroke="black" points="828,-95 828,-125 974,-125 974,-95 828,-95"/>
<text text-anchor="start" x="836" y="-113" font-family="Helvetica,sans-Serif" font-size="10.00">stm::WBMMPolicy::schedFor</text>
<text text-anchor="middle" x="901" y="-102" font-family="Helvetica,sans-Serif" font-size="10.00">Reclaim</text>
</a>
</g>
</g>
<!-- Node6&#45;&gt;Node9 -->
<g id="edge8" class="edge"><title>Node6&#45;&gt;Node9</title>
<path fill="none" stroke="midnightblue" d="M791.729,-122.67C800.361,-121.66 809.157,-120.631 817.817,-119.617"/>
<polygon fill="midnightblue" stroke="midnightblue" points="818.377,-123.076 827.902,-118.437 817.563,-116.123 818.377,-123.076"/>
</g>
<!-- Node12 -->
<g id="node12" class="node"><title>Node12</title>
<g id="a_node12"><a xlink:href="classstm_1_1MiniVector.html#ad17f9c76202d399264ba62812f0b5c41" target="_top" xlink:title="stm::MiniVector::reset">
<polygon fill="none" stroke="black" points="844.5,-56.5 844.5,-75.5 957.5,-75.5 957.5,-56.5 844.5,-56.5"/>
<text text-anchor="middle" x="901" y="-63.5" font-family="Helvetica,sans-Serif" font-size="10.00">stm::MiniVector::reset</text>
</a>
</g>
</g>
<!-- Node6&#45;&gt;Node12 -->
<g id="edge11" class="edge"><title>Node6&#45;&gt;Node12</title>
<path fill="none" stroke="midnightblue" d="M765.965,-122.394C774.877,-119.906 783.857,-116.817 792,-113 810.109,-104.511 810.054,-94.8292 828,-86 833.653,-83.2187 839.752,-80.773 845.925,-78.6355"/>
<polygon fill="midnightblue" stroke="midnightblue" points="847.176,-81.91 855.632,-75.5265 845.041,-75.2436 847.176,-81.91"/>
</g>
<!-- Node10 -->
<g id="node10" class="node"><title>Node10</title>
<g id="a_node10"><a xlink:href="classstm_1_1WBMMPolicy.html#a80a035e5b8f805d49606613b869ddd3c" target="_top" xlink:title="stm::WBMMPolicy::handle\l_full_prelimbo">
<polygon fill="none" stroke="black" points="1010,-95 1010,-125 1144,-125 1144,-95 1010,-95"/>
<text text-anchor="start" x="1018" y="-113" font-family="Helvetica,sans-Serif" font-size="10.00">stm::WBMMPolicy::handle</text>
<text text-anchor="middle" x="1077" y="-102" font-family="Helvetica,sans-Serif" font-size="10.00">_full_prelimbo</text>
</a>
</g>
</g>
<!-- Node9&#45;&gt;Node10 -->
<g id="edge9" class="edge"><title>Node9&#45;&gt;Node10</title>
<path fill="none" stroke="midnightblue" d="M974.028,-110C982.47,-110 991.105,-110 999.603,-110"/>
<polygon fill="midnightblue" stroke="midnightblue" points="999.879,-113.5 1009.88,-110 999.879,-106.5 999.879,-113.5"/>
</g>
<!-- Node11 -->
<g id="node11" class="node"><title>Node11</title>
<g id="a_node11"><a xlink:href="namespaceanonymous__namespace_02WBMMPolicy_8cpp_03.html#a030c6e9142fd49127ce70ad9b1af5e79" target="_top" xlink:title="anonymous_namespace\l\{WBMMPolicy::cpp\}::is\l_strictly_older">
<polygon fill="none" stroke="black" points="1180,-89.5 1180,-130.5 1302,-130.5 1302,-89.5 1180,-89.5"/>
<text text-anchor="start" x="1188" y="-118.5" font-family="Helvetica,sans-Serif" font-size="10.00">anonymous_namespace</text>
<text text-anchor="start" x="1188" y="-107.5" font-family="Helvetica,sans-Serif" font-size="10.00">{WBMMPolicy::cpp}::is</text>
<text text-anchor="middle" x="1241" y="-96.5" font-family="Helvetica,sans-Serif" font-size="10.00">_strictly_older</text>
</a>
</g>
</g>
<!-- Node10&#45;&gt;Node11 -->
<g id="edge10" class="edge"><title>Node10&#45;&gt;Node11</title>
<path fill="none" stroke="midnightblue" d="M1144.36,-110C1152.75,-110 1161.35,-110 1169.79,-110"/>
<polygon fill="midnightblue" stroke="midnightblue" points="1169.99,-113.5 1179.99,-110 1169.99,-106.5 1169.99,-113.5"/>
</g>
<!-- Node15 -->
<g id="node15" class="node"><title>Node15</title>
<g id="a_node15"><a xlink:href="namespacestm.html#a51b2c0958e7709b39500d037648c461b" target="_top" xlink:title="stm::UNRECOVERABLE">
<polygon fill="none" stroke="black" points="460,-49.5 460,-68.5 590,-68.5 590,-49.5 460,-49.5"/>
<text text-anchor="middle" x="525" y="-56.5" font-family="Helvetica,sans-Serif" font-size="10.00">stm::UNRECOVERABLE</text>
</a>
</g>
</g>
<!-- Node14&#45;&gt;Node15 -->
<g id="edge14" class="edge"><title>Node14&#45;&gt;Node15</title>
<path fill="none" stroke="midnightblue" d="M420.136,-72.9329C429.703,-71.6496 439.698,-70.3088 449.546,-68.9877"/>
<polygon fill="midnightblue" stroke="midnightblue" points="450.287,-72.4198 459.733,-67.6212 449.356,-65.482 450.287,-72.4198"/>
</g>
<!-- Node16&#45;&gt;Node15 -->
<g id="edge16" class="edge"><title>Node16&#45;&gt;Node15</title>
<path fill="none" stroke="midnightblue" d="M420.136,-34.934C437.397,-38.9334 456.052,-43.2559 472.726,-47.1193"/>
<polygon fill="midnightblue" stroke="midnightblue" points="472.289,-50.6108 482.821,-49.4585 473.869,-43.7915 472.289,-50.6108"/>
</g>
</g>
</svg>
