<?xml version="1.0" encoding="UTF-8" standalone="no"?>
<!DOCTYPE svg PUBLIC "-//W3C//DTD SVG 1.1//EN"
 "http://www.w3.org/Graphics/SVG/1.1/DTD/svg11.dtd">
<!-- Generated by graphviz version 2.36.0 (20140111.2315)
 -->
<!-- Title: anonymous_namespace{oreceager::cpp}::validate Pages: 1 -->
<svg width="470pt" height="87pt"
 viewBox="0.00 0.00 470.00 87.00" xmlns="http://www.w3.org/2000/svg" xmlns:xlink="http://www.w3.org/1999/xlink">
<g id="graph0" class="graph" transform="scale(1 1) rotate(0) translate(4 83)">
<title>anonymous_namespace{oreceager::cpp}::validate</title>
<!-- Node1 -->
<g id="node1" class="node"><title>Node1</title>
<polygon fill="#bfbfbf" stroke="black" points="0.5,-24 0.5,-54 127.5,-54 127.5,-24 0.5,-24"/>
<text text-anchor="start" x="8.5" y="-42" font-family="Helvetica,sans-Serif" font-size="10.00">anonymous_namespace</text>
<text text-anchor="middle" x="64" y="-31" font-family="Helvetica,sans-Serif" font-size="10.00">{oreceager::cpp}::validate</text>
</g>
<!-- Node2 -->
<g id="node2" class="node"><title>Node2</title>
<g id="a_node2"><a xlink:href="namespaceanonymous__namespace_02oreceager_8cpp_03.html#a2cc56c58ad02007cf0cfa008839f0001" target="_top" xlink:title="anonymous_namespace\l\{oreceager::cpp\}::read">
<polygon fill="none" stroke="black" points="164,-49 164,-79 286,-79 286,-49 164,-49"/>
<text text-anchor="start" x="172" y="-67" font-family="Helvetica,sans-Serif" font-size="10.00">anonymous_namespace</text>
<text text-anchor="middle" x="225" y="-56" font-family="Helvetica,sans-Serif" font-size="10.00">{oreceager::cpp}::read</text>
</a>
</g>
</g>
<!-- Node1&#45;&gt;Node2 -->
<g id="edge1" class="edge"><title>Node1&#45;&gt;Node2</title>
<path fill="none" stroke="midnightblue" d="M137.973,-50.4738C146.667,-51.8407 155.465,-53.2241 163.949,-54.558"/>
<polygon fill="midnightblue" stroke="midnightblue" points="138.263,-46.9765 127.841,-48.8807 137.176,-53.8915 138.263,-46.9765"/>
</g>
<!-- Node4 -->
<g id="node4" class="node"><title>Node4</title>
<g id="a_node4"><a xlink:href="namespaceanonymous__namespace_02oreceager_8cpp_03.html#a4412d636846d1de7149b2ef022d5bf83" target="_top" xlink:title="anonymous_namespace\l\{oreceager::cpp\}::write">
<polygon fill="none" stroke="black" points="164,-0 164,-30 286,-30 286,-0 164,-0"/>
<text text-anchor="start" x="172" y="-18" font-family="Helvetica,sans-Serif" font-size="10.00">anonymous_namespace</text>
<text text-anchor="middle" x="225" y="-7" font-family="Helvetica,sans-Serif" font-size="10.00">{oreceager::cpp}::write</text>
</a>
</g>
</g>
<!-- Node1&#45;&gt;Node4 -->
<g id="edge3" class="edge"><title>Node1&#45;&gt;Node4</title>
<path fill="none" stroke="midnightblue" d="M137.973,-27.9852C146.667,-26.6729 155.465,-25.3448 163.949,-24.0643"/>
<polygon fill="midnightblue" stroke="midnightblue" points="137.207,-24.5612 127.841,-29.5146 138.251,-31.4828 137.207,-24.5612"/>
</g>
<!-- Node3 -->
<g id="node3" class="node"><title>Node3</title>
<g id="a_node3"><a xlink:href="structanonymous__namespace_02oreceager_8cpp_03_1_1OrecEager__Generic.html#afb670857796dbe0c6aea9334e45365aa" target="_top" xlink:title="anonymous_namespace\l\{oreceager::cpp\}::OrecEager\l_Generic::initialize">
<polygon fill="none" stroke="black" points="322,-18.5 322,-59.5 462,-59.5 462,-18.5 322,-18.5"/>
<text text-anchor="start" x="330" y="-47.5" font-family="Helvetica,sans-Serif" font-size="10.00">anonymous_namespace</text>
<text text-anchor="start" x="330" y="-36.5" font-family="Helvetica,sans-Serif" font-size="10.00">{oreceager::cpp}::OrecEager</text>
<text text-anchor="middle" x="392" y="-25.5" font-family="Helvetica,sans-Serif" font-size="10.00">_Generic::initialize</text>
</a>
</g>
</g>
<!-- Node2&#45;&gt;Node3 -->
<g id="edge2" class="edge"><title>Node2&#45;&gt;Node3</title>
<path fill="none" stroke="midnightblue" d="M295.961,-53.3998C304.508,-52.1049 313.238,-50.7821 321.774,-49.4888"/>
<polygon fill="midnightblue" stroke="midnightblue" points="295.398,-49.9451 286.036,-54.9037 296.447,-56.8661 295.398,-49.9451"/>
</g>
<!-- Node4&#45;&gt;Node3 -->
<g id="edge4" class="edge"><title>Node4&#45;&gt;Node3</title>
<path fill="none" stroke="midnightblue" d="M295.961,-25.1762C304.508,-26.4193 313.238,-27.6892 321.774,-28.9308"/>
<polygon fill="midnightblue" stroke="midnightblue" points="296.435,-21.7084 286.036,-23.7324 295.428,-28.6355 296.435,-21.7084"/>
</g>
</g>
</svg>
