<?xml version="1.0" encoding="UTF-8" standalone="no"?>
<!DOCTYPE svg PUBLIC "-//W3C//DTD SVG 1.1//EN"
 "http://www.w3.org/Graphics/SVG/1.1/DTD/svg11.dtd">
<!-- Generated by graphviz version 2.36.0 (20140111.2315)
 -->
<!-- Title: stm::OnReadOnlyCommit Pages: 1 -->
<svg width="846pt" height="154pt"
 viewBox="0.00 0.00 846.00 154.00" xmlns="http://www.w3.org/2000/svg" xmlns:xlink="http://www.w3.org/1999/xlink">
<g id="graph0" class="graph" transform="scale(1 1) rotate(0) translate(4 150)">
<title>stm::OnReadOnlyCommit</title>
<!-- Node1 -->
<g id="node1" class="node"><title>Node1</title>
<polygon fill="#bfbfbf" stroke="black" points="0,-47.5 0,-66.5 130,-66.5 130,-47.5 0,-47.5"/>
<text text-anchor="middle" x="65" y="-54.5" font-family="Helvetica,sans-Serif" font-size="10.00">stm::OnReadOnlyCommit</text>
</g>
<!-- Node2 -->
<g id="node2" class="node"><title>Node2</title>
<g id="a_node2"><a xlink:href="classstm_1_1WBMMPolicy.html#af174b70b9898c8d900a5a2604cfadc7c" target="_top" xlink:title="stm::WBMMPolicy::onTxCommit">
<polygon fill="none" stroke="black" points="166.5,-66.5 166.5,-85.5 327.5,-85.5 327.5,-66.5 166.5,-66.5"/>
<text text-anchor="middle" x="247" y="-73.5" font-family="Helvetica,sans-Serif" font-size="10.00">stm::WBMMPolicy::onTxCommit</text>
</a>
</g>
</g>
<!-- Node1&#45;&gt;Node2 -->
<g id="edge1" class="edge"><title>Node1&#45;&gt;Node2</title>
<path fill="none" stroke="midnightblue" d="M130.222,-63.779C138.731,-64.6772 147.576,-65.6108 156.416,-66.5439"/>
<polygon fill="midnightblue" stroke="midnightblue" points="156.064,-70.0261 166.376,-67.5952 156.799,-63.0648 156.064,-70.0261"/>
</g>
<!-- Node9 -->
<g id="node9" class="node"><title>Node9</title>
<g id="a_node9"><a xlink:href="structstm_1_1toxic__nop__t.html#a1c92cb621137c523ad38b9c252b4da06" target="_top" xlink:title="stm::toxic_nop_t::onCommit">
<polygon fill="none" stroke="black" points="177,-28.5 177,-47.5 317,-47.5 317,-28.5 177,-28.5"/>
<text text-anchor="middle" x="247" y="-35.5" font-family="Helvetica,sans-Serif" font-size="10.00">stm::toxic_nop_t::onCommit</text>
</a>
</g>
</g>
<!-- Node1&#45;&gt;Node9 -->
<g id="edge8" class="edge"><title>Node1&#45;&gt;Node9</title>
<path fill="none" stroke="midnightblue" d="M130.222,-50.221C142.053,-48.9721 154.534,-47.6547 166.747,-46.3656"/>
<polygon fill="midnightblue" stroke="midnightblue" points="167.346,-49.8219 176.923,-45.2915 166.611,-42.8606 167.346,-49.8219"/>
</g>
<!-- Node3 -->
<g id="node3" class="node"><title>Node3</title>
<g id="a_node3"><a xlink:href="classstm_1_1MiniVector.html#a4d707e1115e162943b4709a2af92ed77" target="_top" xlink:title="stm::MiniVector::begin">
<polygon fill="none" stroke="black" points="379.5,-126.5 379.5,-145.5 494.5,-145.5 494.5,-126.5 379.5,-126.5"/>
<text text-anchor="middle" x="437" y="-133.5" font-family="Helvetica,sans-Serif" font-size="10.00">stm::MiniVector::begin</text>
</a>
</g>
</g>
<!-- Node2&#45;&gt;Node3 -->
<g id="edge2" class="edge"><title>Node2&#45;&gt;Node3</title>
<path fill="none" stroke="midnightblue" d="M273.146,-85.5577C296.509,-94.2776 332.36,-107.252 364,-117 371.558,-119.329 379.615,-121.629 387.501,-123.782"/>
<polygon fill="midnightblue" stroke="midnightblue" points="386.782,-127.213 397.348,-126.421 388.595,-120.452 386.782,-127.213"/>
</g>
<!-- Node4 -->
<g id="node4" class="node"><title>Node4</title>
<g id="a_node4"><a xlink:href="classstm_1_1MiniVector.html#ae2297c706ac2ebee161ef60ace9ae645" target="_top" xlink:title="stm::MiniVector::end">
<polygon fill="none" stroke="black" points="383.5,-88.5 383.5,-107.5 490.5,-107.5 490.5,-88.5 383.5,-88.5"/>
<text text-anchor="middle" x="437" y="-95.5" font-family="Helvetica,sans-Serif" font-size="10.00">stm::MiniVector::end</text>
</a>
</g>
</g>
<!-- Node2&#45;&gt;Node4 -->
<g id="edge3" class="edge"><title>Node2&#45;&gt;Node4</title>
<path fill="none" stroke="midnightblue" d="M327.729,-85.33C343.016,-87.1189 358.818,-88.9681 373.468,-90.6824"/>
<polygon fill="midnightblue" stroke="midnightblue" points="373.066,-94.1592 383.405,-91.8453 373.88,-87.2066 373.066,-94.1592"/>
</g>
<!-- Node5 -->
<g id="node5" class="node"><title>Node5</title>
<g id="a_node5"><a xlink:href="classstm_1_1WBMMPolicy.html#aa2aa233946e7b6b1d35b184503b8c9f9" target="_top" xlink:title="stm::WBMMPolicy::schedFor\lReclaim">
<polygon fill="none" stroke="black" points="364,-39 364,-69 510,-69 510,-39 364,-39"/>
<text text-anchor="start" x="372" y="-57" font-family="Helvetica,sans-Serif" font-size="10.00">stm::WBMMPolicy::schedFor</text>
<text text-anchor="middle" x="437" y="-46" font-family="Helvetica,sans-Serif" font-size="10.00">Reclaim</text>
</a>
</g>
</g>
<!-- Node2&#45;&gt;Node5 -->
<g id="edge4" class="edge"><title>Node2&#45;&gt;Node5</title>
<path fill="none" stroke="midnightblue" d="M327.729,-66.67C336.361,-65.6599 345.157,-64.6306 353.817,-63.6172"/>
<polygon fill="midnightblue" stroke="midnightblue" points="354.377,-67.0756 363.902,-62.437 353.563,-60.1231 354.377,-67.0756"/>
</g>
<!-- Node8 -->
<g id="node8" class="node"><title>Node8</title>
<g id="a_node8"><a xlink:href="classstm_1_1MiniVector.html#ad17f9c76202d399264ba62812f0b5c41" target="_top" xlink:title="stm::MiniVector::reset">
<polygon fill="none" stroke="black" points="380.5,-0.5 380.5,-19.5 493.5,-19.5 493.5,-0.5 380.5,-0.5"/>
<text text-anchor="middle" x="437" y="-7.5" font-family="Helvetica,sans-Serif" font-size="10.00">stm::MiniVector::reset</text>
</a>
</g>
</g>
<!-- Node2&#45;&gt;Node8 -->
<g id="edge7" class="edge"><title>Node2&#45;&gt;Node8</title>
<path fill="none" stroke="midnightblue" d="M301.965,-66.3944C310.877,-63.9062 319.857,-60.8171 328,-57 346.109,-48.5113 346.054,-38.8292 364,-30 369.653,-27.2187 375.752,-24.773 381.925,-22.6355"/>
<polygon fill="midnightblue" stroke="midnightblue" points="383.176,-25.91 391.632,-19.5265 381.041,-19.2436 383.176,-25.91"/>
</g>
<!-- Node6 -->
<g id="node6" class="node"><title>Node6</title>
<g id="a_node6"><a xlink:href="classstm_1_1WBMMPolicy.html#a80a035e5b8f805d49606613b869ddd3c" target="_top" xlink:title="stm::WBMMPolicy::handle\l_full_prelimbo">
<polygon fill="none" stroke="black" points="546,-39 546,-69 680,-69 680,-39 546,-39"/>
<text text-anchor="start" x="554" y="-57" font-family="Helvetica,sans-Serif" font-size="10.00">stm::WBMMPolicy::handle</text>
<text text-anchor="middle" x="613" y="-46" font-family="Helvetica,sans-Serif" font-size="10.00">_full_prelimbo</text>
</a>
</g>
</g>
<!-- Node5&#45;&gt;Node6 -->
<g id="edge5" class="edge"><title>Node5&#45;&gt;Node6</title>
<path fill="none" stroke="midnightblue" d="M510.028,-54C518.47,-54 527.105,-54 535.603,-54"/>
<polygon fill="midnightblue" stroke="midnightblue" points="535.879,-57.5001 545.879,-54 535.879,-50.5001 535.879,-57.5001"/>
</g>
<!-- Node7 -->
<g id="node7" class="node"><title>Node7</title>
<g id="a_node7"><a xlink:href="namespaceanonymous__namespace_02WBMMPolicy_8cpp_03.html#a030c6e9142fd49127ce70ad9b1af5e79" target="_top" xlink:title="anonymous_namespace\l\{WBMMPolicy::cpp\}::is\l_strictly_older">
<polygon fill="none" stroke="black" points="716,-33.5 716,-74.5 838,-74.5 838,-33.5 716,-33.5"/>
<text text-anchor="start" x="724" y="-62.5" font-family="Helvetica,sans-Serif" font-size="10.00">anonymous_namespace</text>
<text text-anchor="start" x="724" y="-51.5" font-family="Helvetica,sans-Serif" font-size="10.00">{WBMMPolicy::cpp}::is</text>
<text text-anchor="middle" x="777" y="-40.5" font-family="Helvetica,sans-Serif" font-size="10.00">_strictly_older</text>
</a>
</g>
</g>
<!-- Node6&#45;&gt;Node7 -->
<g id="edge6" class="edge"><title>Node6&#45;&gt;Node7</title>
<path fill="none" stroke="midnightblue" d="M680.359,-54C688.745,-54 697.348,-54 705.792,-54"/>
<polygon fill="midnightblue" stroke="midnightblue" points="705.987,-57.5001 715.987,-54 705.987,-50.5001 705.987,-57.5001"/>
</g>
</g>
</svg>
