<?xml version="1.0" encoding="UTF-8" standalone="no"?>
<!DOCTYPE svg PUBLIC "-//W3C//DTD SVG 1.1//EN"
 "http://www.w3.org/Graphics/SVG/1.1/DTD/svg11.dtd">
<!-- Generated by graphviz version 2.36.0 (20140111.2315)
 -->
<!-- Title: anonymous_namespace{policies::cpp}::load_qtable Pages: 1 -->
<svg width="346pt" height="48pt"
 viewBox="0.00 0.00 346.00 48.00" xmlns="http://www.w3.org/2000/svg" xmlns:xlink="http://www.w3.org/1999/xlink">
<g id="graph0" class="graph" transform="scale(1 1) rotate(0) translate(4 44)">
<title>anonymous_namespace{policies::cpp}::load_qtable</title>
<!-- Node1 -->
<g id="node1" class="node"><title>Node1</title>
<polygon fill="#bfbfbf" stroke="black" points="0,0.5 0,-40.5 122,-40.5 122,0.5 0,0.5"/>
<text text-anchor="start" x="8" y="-28.5" font-family="Helvetica,sans-Serif" font-size="10.00">anonymous_namespace</text>
<text text-anchor="start" x="8" y="-17.5" font-family="Helvetica,sans-Serif" font-size="10.00">{policies::cpp}::load</text>
<text text-anchor="middle" x="61" y="-6.5" font-family="Helvetica,sans-Serif" font-size="10.00">_qtable</text>
</g>
<!-- Node2 -->
<g id="node2" class="node"><title>Node2</title>
<g id="a_node2"><a xlink:href="namespacestm.html#a4d7a6395ef81ca8e19fa2168d69e219b" target="_top" xlink:title="stm::pol_init">
<polygon fill="none" stroke="black" points="158,-10.5 158,-29.5 228,-29.5 228,-10.5 158,-10.5"/>
<text text-anchor="middle" x="193" y="-17.5" font-family="Helvetica,sans-Serif" font-size="10.00">stm::pol_init</text>
</a>
</g>
</g>
<!-- Node1&#45;&gt;Node2 -->
<g id="edge1" class="edge"><title>Node1&#45;&gt;Node2</title>
<path fill="none" stroke="midnightblue" d="M132.112,-20C141.004,-20 149.768,-20 157.732,-20"/>
<polygon fill="midnightblue" stroke="midnightblue" points="132.053,-16.5001 122.053,-20 132.053,-23.5001 132.053,-16.5001"/>
</g>
<!-- Node3 -->
<g id="node3" class="node"><title>Node3</title>
<g id="a_node3"><a xlink:href="namespacestm.html#aac29e08fdc4a251a12088bd799e7a4f4" target="_top" xlink:title="stm::sys_init">
<polygon fill="none" stroke="black" points="264.5,-10.5 264.5,-29.5 337.5,-29.5 337.5,-10.5 264.5,-10.5"/>
<text text-anchor="middle" x="301" y="-17.5" font-family="Helvetica,sans-Serif" font-size="10.00">stm::sys_init</text>
</a>
</g>
</g>
<!-- Node2&#45;&gt;Node3 -->
<g id="edge2" class="edge"><title>Node2&#45;&gt;Node3</title>
<path fill="none" stroke="midnightblue" d="M238.198,-20C246.961,-20 256.054,-20 264.482,-20"/>
<polygon fill="midnightblue" stroke="midnightblue" points="238.123,-16.5001 228.123,-20 238.123,-23.5001 238.123,-16.5001"/>
</g>
</g>
</svg>
