<?xml version="1.0" encoding="UTF-8" standalone="no"?>
<!DOCTYPE svg PUBLIC "-//W3C//DTD SVG 1.1//EN"
 "http://www.w3.org/Graphics/SVG/1.1/DTD/svg11.dtd">
<!-- Generated by graphviz version 2.36.0 (20140111.2315)
 -->
<!-- Title: itm2stm::make_mask Pages: 1 -->
<svg width="604pt" height="583pt"
 viewBox="0.00 0.00 604.00 583.00" xmlns="http://www.w3.org/2000/svg" xmlns:xlink="http://www.w3.org/1999/xlink">
<g id="graph0" class="graph" transform="scale(1 1) rotate(0) translate(4 579)">
<title>itm2stm::make_mask</title>
<!-- Node1 -->
<g id="node1" class="node"><title>Node1</title>
<polygon fill="#bfbfbf" stroke="black" points="0.5,-310.5 0.5,-329.5 111.5,-329.5 111.5,-310.5 0.5,-310.5"/>
<text text-anchor="middle" x="56" y="-317.5" font-family="Helvetica,sans-Serif" font-size="10.00">itm2stm::make_mask</text>
</g>
<!-- Node2 -->
<g id="node2" class="node"><title>Node2</title>
<g id="a_node2"><a xlink:href="namespaceanonymous__namespace_02BlockOperations_8cpp_03.html#a5eb4b8a9624b717c32fe7722f6811dc3" target="_top" xlink:title="anonymous_namespace\l\{BlockOperations::cpp\}\l::read_subword">
<polygon fill="none" stroke="black" points="164,-533.5 164,-574.5 286,-574.5 286,-533.5 164,-533.5"/>
<text text-anchor="start" x="172" y="-562.5" font-family="Helvetica,sans-Serif" font-size="10.00">anonymous_namespace</text>
<text text-anchor="start" x="172" y="-551.5" font-family="Helvetica,sans-Serif" font-size="10.00">{BlockOperations::cpp}</text>
<text text-anchor="middle" x="225" y="-540.5" font-family="Helvetica,sans-Serif" font-size="10.00">::read_subword</text>
</a>
</g>
</g>
<!-- Node1&#45;&gt;Node2 -->
<g id="edge1" class="edge"><title>Node1&#45;&gt;Node2</title>
<path fill="none" stroke="midnightblue" d="M61.1595,-339.713C70.3296,-378.745 95.7488,-466.609 148,-519 153.539,-524.554 160.123,-529.322 167.065,-533.389"/>
<polygon fill="midnightblue" stroke="midnightblue" points="64.5096,-338.657 58.9087,-329.663 57.6788,-340.187 64.5096,-338.657"/>
</g>
<!-- Node3 -->
<g id="node3" class="node"><title>Node3</title>
<g id="a_node3"><a xlink:href="namespaceitm2stm.html#ab76a65e75d1318bd4c1e4dab11096446" target="_top" xlink:title="itm2stm::block_read">
<polygon fill="none" stroke="black" points="339.5,-500.5 339.5,-519.5 444.5,-519.5 444.5,-500.5 339.5,-500.5"/>
<text text-anchor="middle" x="392" y="-507.5" font-family="Helvetica,sans-Serif" font-size="10.00">itm2stm::block_read</text>
</a>
</g>
</g>
<!-- Node1&#45;&gt;Node3 -->
<g id="edge11" class="edge"><title>Node1&#45;&gt;Node3</title>
<path fill="none" stroke="midnightblue" d="M62.4836,-339.568C72.9983,-373.152 99.3814,-441.3 148,-474 205.152,-512.439 286.904,-516.706 339.473,-514.619"/>
<polygon fill="midnightblue" stroke="midnightblue" points="65.7253,-338.19 59.5169,-329.605 59.0164,-340.188 65.7253,-338.19"/>
</g>
<!-- Node5 -->
<g id="node5" class="node"><title>Node5</title>
<g id="a_node5"><a xlink:href="namespaceanonymous__namespace_02BlockOperations_8cpp_03.html#a637c079bc9ac3e8e4b5d988b469703ae" target="_top" xlink:title="anonymous_namespace\l\{BlockOperations::cpp\}\l::write_subword">
<polygon fill="none" stroke="black" points="164,-397.5 164,-438.5 286,-438.5 286,-397.5 164,-397.5"/>
<text text-anchor="start" x="172" y="-426.5" font-family="Helvetica,sans-Serif" font-size="10.00">anonymous_namespace</text>
<text text-anchor="start" x="172" y="-415.5" font-family="Helvetica,sans-Serif" font-size="10.00">{BlockOperations::cpp}</text>
<text text-anchor="middle" x="225" y="-404.5" font-family="Helvetica,sans-Serif" font-size="10.00">::write_subword</text>
</a>
</g>
</g>
<!-- Node1&#45;&gt;Node5 -->
<g id="edge4" class="edge"><title>Node1&#45;&gt;Node5</title>
<path fill="none" stroke="midnightblue" d="M77.5606,-335.777C95.5775,-349.221 122.758,-368.596 148,-383 156.832,-388.04 166.516,-392.94 175.926,-397.401"/>
<polygon fill="midnightblue" stroke="midnightblue" points="79.5929,-332.926 69.5006,-329.701 75.3793,-338.516 79.5929,-332.926"/>
</g>
<!-- Node6 -->
<g id="node6" class="node"><title>Node6</title>
<g id="a_node6"><a xlink:href="namespaceitm2stm.html#a60fadbf1779483f2446ab9e30aa1f713" target="_top" xlink:title="itm2stm::block_write">
<polygon fill="none" stroke="black" points="338.5,-449.5 338.5,-468.5 445.5,-468.5 445.5,-449.5 338.5,-449.5"/>
<text text-anchor="middle" x="392" y="-456.5" font-family="Helvetica,sans-Serif" font-size="10.00">itm2stm::block_write</text>
</a>
</g>
</g>
<!-- Node1&#45;&gt;Node6 -->
<g id="edge12" class="edge"><title>Node1&#45;&gt;Node6</title>
<path fill="none" stroke="midnightblue" d="M64.2534,-339.07C76.5023,-368.27 104.308,-423.176 148,-447 208.262,-479.859 289.931,-475.837 341.549,-468.517"/>
<polygon fill="midnightblue" stroke="midnightblue" points="67.4174,-337.557 60.4439,-329.58 60.9213,-340.164 67.4174,-337.557"/>
</g>
<!-- Node8 -->
<g id="node8" class="node"><title>Node8</title>
<g id="a_node8"><a xlink:href="namespaceitm2stm.html#ad658616dcf595ab736e02f0f4f274f67" target="_top" xlink:title="itm2stm::block_set">
<polygon fill="none" stroke="black" points="342,-362.5 342,-381.5 442,-381.5 442,-362.5 342,-362.5"/>
<text text-anchor="middle" x="392" y="-369.5" font-family="Helvetica,sans-Serif" font-size="10.00">itm2stm::block_set</text>
</a>
</g>
</g>
<!-- Node1&#45;&gt;Node8 -->
<g id="edge13" class="edge"><title>Node1&#45;&gt;Node8</title>
<path fill="none" stroke="midnightblue" d="M91.9982,-333.09C108.725,-338.843 129.165,-345.154 148,-349 214.223,-362.523 292.256,-368.124 341.675,-370.424"/>
<polygon fill="midnightblue" stroke="midnightblue" points="92.7052,-329.628 82.1104,-329.606 90.3791,-336.23 92.7052,-329.628"/>
</g>
<!-- Node12 -->
<g id="node12" class="node"><title>Node12</title>
<g id="a_node12"><a xlink:href="structanonymous__namespace_02libitm-5_812_8cpp_03_1_1INST_3_01T_00_01N_00_01false_01_4.html#a29d0eb26e3ee89f6089721cf49adc66b" target="_top" xlink:title="anonymous_namespace\l\{libitm&#45;5.12.cpp\}::INST\l\&lt; T, N, false \&gt;::ReadUnaligned">
<polygon fill="none" stroke="black" points="148,-299.5 148,-340.5 302,-340.5 302,-299.5 148,-299.5"/>
<text text-anchor="start" x="156" y="-328.5" font-family="Helvetica,sans-Serif" font-size="10.00">anonymous_namespace</text>
<text text-anchor="start" x="156" y="-317.5" font-family="Helvetica,sans-Serif" font-size="10.00">{libitm&#45;5.12.cpp}::INST</text>
<text text-anchor="middle" x="225" y="-306.5" font-family="Helvetica,sans-Serif" font-size="10.00">&lt; T, N, false &gt;::ReadUnaligned</text>
</a>
</g>
</g>
<!-- Node1&#45;&gt;Node12 -->
<g id="edge14" class="edge"><title>Node1&#45;&gt;Node12</title>
<path fill="none" stroke="midnightblue" d="M121.933,-320C130.468,-320 139.276,-320 147.975,-320"/>
<polygon fill="midnightblue" stroke="midnightblue" points="121.682,-316.5 111.682,-320 121.682,-323.5 121.682,-316.5"/>
</g>
<!-- Node13 -->
<g id="node13" class="node"><title>Node13</title>
<g id="a_node13"><a xlink:href="structanonymous__namespace_02libitm-5_812_8cpp_03_1_1INST_3_01T_00_01N_00_01false_01_4.html#a21991bb499faadba26398728a6aef3ef" target="_top" xlink:title="anonymous_namespace\l\{libitm&#45;5.12.cpp\}::INST\l\&lt; T, N, false \&gt;::WriteUnaligned">
<polygon fill="none" stroke="black" points="148,-239.5 148,-280.5 302,-280.5 302,-239.5 148,-239.5"/>
<text text-anchor="start" x="156" y="-268.5" font-family="Helvetica,sans-Serif" font-size="10.00">anonymous_namespace</text>
<text text-anchor="start" x="156" y="-257.5" font-family="Helvetica,sans-Serif" font-size="10.00">{libitm&#45;5.12.cpp}::INST</text>
<text text-anchor="middle" x="225" y="-246.5" font-family="Helvetica,sans-Serif" font-size="10.00">&lt; T, N, false &gt;::WriteUnaligned</text>
</a>
</g>
</g>
<!-- Node1&#45;&gt;Node13 -->
<g id="edge15" class="edge"><title>Node1&#45;&gt;Node13</title>
<path fill="none" stroke="midnightblue" d="M92.884,-307.108C114.442,-299.362 142.359,-289.332 166.89,-280.518"/>
<polygon fill="midnightblue" stroke="midnightblue" points="91.6892,-303.818 83.4616,-310.493 94.0561,-310.405 91.6892,-303.818"/>
</g>
<!-- Node14 -->
<g id="node14" class="node"><title>Node14</title>
<g id="a_node14"><a xlink:href="structanonymous__namespace_02libitm-5_812_8cpp_03_1_1INST_3_01T_00_01N_00_01true_01_4.html#a5a6f21bd0e9de35773b7de0d535c0d6f" target="_top" xlink:title="anonymous_namespace\l\{libitm&#45;5.12.cpp\}::INST\l\&lt; T, N, true \&gt;::Read">
<polygon fill="none" stroke="black" points="164,-179.5 164,-220.5 286,-220.5 286,-179.5 164,-179.5"/>
<text text-anchor="start" x="172" y="-208.5" font-family="Helvetica,sans-Serif" font-size="10.00">anonymous_namespace</text>
<text text-anchor="start" x="172" y="-197.5" font-family="Helvetica,sans-Serif" font-size="10.00">{libitm&#45;5.12.cpp}::INST</text>
<text text-anchor="middle" x="225" y="-186.5" font-family="Helvetica,sans-Serif" font-size="10.00">&lt; T, N, true &gt;::Read</text>
</a>
</g>
</g>
<!-- Node1&#45;&gt;Node14 -->
<g id="edge16" class="edge"><title>Node1&#45;&gt;Node14</title>
<path fill="none" stroke="midnightblue" d="M71.0042,-302.369C87.5758,-282.491 116.872,-250.302 148,-230 153.228,-226.59 158.904,-223.467 164.719,-220.631"/>
<polygon fill="midnightblue" stroke="midnightblue" points="68.1353,-300.349 64.5185,-310.307 73.5561,-304.778 68.1353,-300.349"/>
</g>
<!-- Node15 -->
<g id="node15" class="node"><title>Node15</title>
<g id="a_node15"><a xlink:href="structanonymous__namespace_02libitm-5_812_8cpp_03_1_1INST_3_01T_00_01N_00_01true_01_4.html#a6c2e185094dc71db3b7ed059edd9f252" target="_top" xlink:title="anonymous_namespace\l\{libitm&#45;5.12.cpp\}::INST\l\&lt; T, N, true \&gt;::Write">
<polygon fill="none" stroke="black" points="164,-119.5 164,-160.5 286,-160.5 286,-119.5 164,-119.5"/>
<text text-anchor="start" x="172" y="-148.5" font-family="Helvetica,sans-Serif" font-size="10.00">anonymous_namespace</text>
<text text-anchor="start" x="172" y="-137.5" font-family="Helvetica,sans-Serif" font-size="10.00">{libitm&#45;5.12.cpp}::INST</text>
<text text-anchor="middle" x="225" y="-126.5" font-family="Helvetica,sans-Serif" font-size="10.00">&lt; T, N, true &gt;::Write</text>
</a>
</g>
</g>
<!-- Node1&#45;&gt;Node15 -->
<g id="edge17" class="edge"><title>Node1&#45;&gt;Node15</title>
<path fill="none" stroke="midnightblue" d="M63.9649,-300.713C76.2602,-269.203 104.68,-206.541 148,-170 152.771,-165.976 158.147,-162.448 163.779,-159.366"/>
<polygon fill="midnightblue" stroke="midnightblue" points="60.541,-299.874 60.2904,-310.466 67.0915,-302.342 60.541,-299.874"/>
</g>
<!-- Node16 -->
<g id="node16" class="node"><title>Node16</title>
<g id="a_node16"><a xlink:href="structanonymous__namespace_02libitm-5_812_8cpp_03_1_1INST_3_01T_00_010u_00_01true_01_4.html#a87767be3160584aa7bad991191ee0680" target="_top" xlink:title="anonymous_namespace\l\{libitm&#45;5.12.cpp\}::INST\l\&lt; T, 0u, true \&gt;::Read">
<polygon fill="none" stroke="black" points="164,-59.5 164,-100.5 286,-100.5 286,-59.5 164,-59.5"/>
<text text-anchor="start" x="172" y="-88.5" font-family="Helvetica,sans-Serif" font-size="10.00">anonymous_namespace</text>
<text text-anchor="start" x="172" y="-77.5" font-family="Helvetica,sans-Serif" font-size="10.00">{libitm&#45;5.12.cpp}::INST</text>
<text text-anchor="middle" x="225" y="-66.5" font-family="Helvetica,sans-Serif" font-size="10.00">&lt; T, 0u, true &gt;::Read</text>
</a>
</g>
</g>
<!-- Node1&#45;&gt;Node16 -->
<g id="edge18" class="edge"><title>Node1&#45;&gt;Node16</title>
<path fill="none" stroke="midnightblue" d="M60.3661,-300.054C68.2964,-258.987 91.8821,-164.299 148,-110 152.689,-105.463 158.147,-101.587 163.946,-98.2824"/>
<polygon fill="midnightblue" stroke="midnightblue" points="56.8783,-299.672 58.5305,-310.137 63.7651,-300.926 56.8783,-299.672"/>
</g>
<!-- Node17 -->
<g id="node17" class="node"><title>Node17</title>
<g id="a_node17"><a xlink:href="structanonymous__namespace_02libitm-5_812_8cpp_03_1_1INST_3_01T_00_010u_00_01true_01_4.html#a35e8d273fefc1356f9886a762c67e78a" target="_top" xlink:title="anonymous_namespace\l\{libitm&#45;5.12.cpp\}::INST\l\&lt; T, 0u, true \&gt;::Write">
<polygon fill="none" stroke="black" points="164,0.5 164,-40.5 286,-40.5 286,0.5 164,0.5"/>
<text text-anchor="start" x="172" y="-28.5" font-family="Helvetica,sans-Serif" font-size="10.00">anonymous_namespace</text>
<text text-anchor="start" x="172" y="-17.5" font-family="Helvetica,sans-Serif" font-size="10.00">{libitm&#45;5.12.cpp}::INST</text>
<text text-anchor="middle" x="225" y="-6.5" font-family="Helvetica,sans-Serif" font-size="10.00">&lt; T, 0u, true &gt;::Write</text>
</a>
</g>
</g>
<!-- Node1&#45;&gt;Node17 -->
<g id="edge19" class="edge"><title>Node1&#45;&gt;Node17</title>
<path fill="none" stroke="midnightblue" d="M58.1263,-300.256C61.9514,-251.337 78.438,-123.195 148,-50 152.593,-45.1673 158.061,-41.0979 163.928,-37.6744"/>
<polygon fill="midnightblue" stroke="midnightblue" points="54.6215,-300.209 57.4297,-310.425 61.6051,-300.688 54.6215,-300.209"/>
</g>
<!-- Node2&#45;&gt;Node3 -->
<g id="edge2" class="edge"><title>Node2&#45;&gt;Node3</title>
<path fill="none" stroke="midnightblue" d="M295.961,-535.344C316.399,-529.894 337.887,-524.163 355.251,-519.533"/>
<polygon fill="midnightblue" stroke="midnightblue" points="294.796,-532.032 286.036,-537.991 296.6,-538.796 294.796,-532.032"/>
</g>
<!-- Node4 -->
<g id="node4" class="node"><title>Node4</title>
<g id="a_node4"><a xlink:href="structitm2stm_1_1BlockReader.html#a967b0c639adba84b3e30e4b47b332136" target="_top" xlink:title="itm2stm::BlockReader\l::operator()">
<polygon fill="none" stroke="black" points="482,-495 482,-525 596,-525 596,-495 482,-495"/>
<text text-anchor="start" x="490" y="-513" font-family="Helvetica,sans-Serif" font-size="10.00">itm2stm::BlockReader</text>
<text text-anchor="middle" x="539" y="-502" font-family="Helvetica,sans-Serif" font-size="10.00">::operator()</text>
</a>
</g>
</g>
<!-- Node3&#45;&gt;Node4 -->
<g id="edge3" class="edge"><title>Node3&#45;&gt;Node4</title>
<path fill="none" stroke="midnightblue" d="M454.571,-510C463.579,-510 472.817,-510 481.712,-510"/>
<polygon fill="midnightblue" stroke="midnightblue" points="454.53,-506.5 444.53,-510 454.53,-513.5 454.53,-506.5"/>
</g>
<!-- Node5&#45;&gt;Node6 -->
<g id="edge5" class="edge"><title>Node5&#45;&gt;Node6</title>
<path fill="none" stroke="midnightblue" d="M295.749,-435.332C315.118,-440.144 335.448,-445.196 352.328,-449.391"/>
<polygon fill="midnightblue" stroke="midnightblue" points="296.584,-431.933 286.036,-432.918 294.896,-438.726 296.584,-431.933"/>
</g>
<!-- Node5&#45;&gt;Node8 -->
<g id="edge7" class="edge"><title>Node5&#45;&gt;Node8</title>
<path fill="none" stroke="midnightblue" d="M295.915,-398.509C316.932,-392.649 339.066,-386.479 356.685,-381.567"/>
<polygon fill="midnightblue" stroke="midnightblue" points="294.728,-395.206 286.036,-401.263 296.608,-401.949 294.728,-395.206"/>
</g>
<!-- Node7 -->
<g id="node7" class="node"><title>Node7</title>
<g id="a_node7"><a xlink:href="structitm2stm_1_1BlockWriter.html#a0319dc33fb20ef4b25814997264e9248" target="_top" xlink:title="itm2stm::BlockWriter\l::operator()">
<polygon fill="none" stroke="black" points="484.5,-444 484.5,-474 593.5,-474 593.5,-444 484.5,-444"/>
<text text-anchor="start" x="492.5" y="-462" font-family="Helvetica,sans-Serif" font-size="10.00">itm2stm::BlockWriter</text>
<text text-anchor="middle" x="539" y="-451" font-family="Helvetica,sans-Serif" font-size="10.00">::operator()</text>
</a>
</g>
</g>
<!-- Node6&#45;&gt;Node7 -->
<g id="edge6" class="edge"><title>Node6&#45;&gt;Node7</title>
<path fill="none" stroke="midnightblue" d="M455.844,-459C465.246,-459 474.868,-459 484.064,-459"/>
<polygon fill="midnightblue" stroke="midnightblue" points="455.759,-455.5 445.759,-459 455.758,-462.5 455.759,-455.5"/>
</g>
<!-- Node9 -->
<g id="node9" class="node"><title>Node9</title>
<g id="a_node9"><a xlink:href="libitm_8h.html#aba72a525646578b583d88b836970ef3e" target="_top" xlink:title="_ITM_memsetW">
<polygon fill="none" stroke="black" points="494.5,-400.5 494.5,-419.5 583.5,-419.5 583.5,-400.5 494.5,-400.5"/>
<text text-anchor="middle" x="539" y="-407.5" font-family="Helvetica,sans-Serif" font-size="10.00">_ITM_memsetW</text>
</a>
</g>
</g>
<!-- Node8&#45;&gt;Node9 -->
<g id="edge8" class="edge"><title>Node8&#45;&gt;Node9</title>
<path fill="none" stroke="midnightblue" d="M439.493,-384.184C459.624,-389.46 482.838,-395.544 501.673,-400.48"/>
<polygon fill="midnightblue" stroke="midnightblue" points="440.15,-380.738 429.59,-381.589 438.376,-387.51 440.15,-380.738"/>
</g>
<!-- Node10 -->
<g id="node10" class="node"><title>Node10</title>
<g id="a_node10"><a xlink:href="libitm_8h.html#a09b91a78eb9499640214b6a85558ebee" target="_top" xlink:title="_ITM_memsetWaR">
<polygon fill="none" stroke="black" points="488,-362.5 488,-381.5 590,-381.5 590,-362.5 488,-362.5"/>
<text text-anchor="middle" x="539" y="-369.5" font-family="Helvetica,sans-Serif" font-size="10.00">_ITM_memsetWaR</text>
</a>
</g>
</g>
<!-- Node8&#45;&gt;Node10 -->
<g id="edge9" class="edge"><title>Node8&#45;&gt;Node10</title>
<path fill="none" stroke="midnightblue" d="M452.333,-372C464.168,-372 476.488,-372 487.972,-372"/>
<polygon fill="midnightblue" stroke="midnightblue" points="452.09,-368.5 442.09,-372 452.09,-375.5 452.09,-368.5"/>
</g>
<!-- Node11 -->
<g id="node11" class="node"><title>Node11</title>
<g id="a_node11"><a xlink:href="libitm_8h.html#a49b97152af59269d61b65201510acfbc" target="_top" xlink:title="_ITM_memsetWaW">
<polygon fill="none" stroke="black" points="487,-324.5 487,-343.5 591,-343.5 591,-324.5 487,-324.5"/>
<text text-anchor="middle" x="539" y="-331.5" font-family="Helvetica,sans-Serif" font-size="10.00">_ITM_memsetWaW</text>
</a>
</g>
</g>
<!-- Node8&#45;&gt;Node11 -->
<g id="edge10" class="edge"><title>Node8&#45;&gt;Node11</title>
<path fill="none" stroke="midnightblue" d="M439.493,-359.816C459.624,-354.54 482.838,-348.456 501.673,-343.52"/>
<polygon fill="midnightblue" stroke="midnightblue" points="438.376,-356.49 429.59,-362.411 440.15,-363.262 438.376,-356.49"/>
</g>
</g>
</svg>
