<?xml version="1.0" encoding="UTF-8" standalone="no"?>
<!DOCTYPE svg PUBLIC "-//W3C//DTD SVG 1.1//EN"
 "http://www.w3.org/Graphics/SVG/1.1/DTD/svg11.dtd">
<!-- Generated by graphviz version 2.36.0 (20140111.2315)
 -->
<!-- Title: stm::initTM&lt; Ticket &gt; Pages: 1 -->
<svg width="282pt" height="262pt"
 viewBox="0.00 0.00 282.00 262.00" xmlns="http://www.w3.org/2000/svg" xmlns:xlink="http://www.w3.org/1999/xlink">
<g id="graph0" class="graph" transform="scale(1 1) rotate(0) translate(4 258)">
<title>stm::initTM&lt; Ticket &gt;</title>
<!-- Node1 -->
<g id="node1" class="node"><title>Node1</title>
<polygon fill="#bfbfbf" stroke="black" points="0.5,-127.5 0.5,-146.5 111.5,-146.5 111.5,-127.5 0.5,-127.5"/>
<text text-anchor="middle" x="56" y="-134.5" font-family="Helvetica,sans-Serif" font-size="10.00">stm::initTM&lt; Ticket &gt;</text>
</g>
<!-- Node2 -->
<g id="node2" class="node"><title>Node2</title>
<g id="a_node2"><a xlink:href="namespacestm.html#a5dc0e1df0fe411722145e01e8b09b4b8" target="_top" xlink:title="stm::begin">
<polygon fill="none" stroke="black" points="180,-234.5 180,-253.5 242,-253.5 242,-234.5 180,-234.5"/>
<text text-anchor="middle" x="211" y="-241.5" font-family="Helvetica,sans-Serif" font-size="10.00">stm::begin</text>
</a>
</g>
</g>
<!-- Node1&#45;&gt;Node2 -->
<g id="edge1" class="edge"><title>Node1&#45;&gt;Node2</title>
<path fill="none" stroke="midnightblue" d="M64.4044,-146.73C78.6408,-164.779 111.657,-203.559 148,-225 154.818,-229.022 162.567,-232.268 170.223,-234.861"/>
<polygon fill="midnightblue" stroke="midnightblue" points="169.205,-238.21 179.792,-237.805 171.264,-231.519 169.205,-238.21"/>
</g>
<!-- Node3 -->
<g id="node3" class="node"><title>Node3</title>
<g id="a_node3"><a xlink:href="namespacestm.html#a94dbca4907e005c8c803e452b123903f" target="_top" xlink:title="stm::commit">
<polygon fill="none" stroke="black" points="175.5,-196.5 175.5,-215.5 246.5,-215.5 246.5,-196.5 175.5,-196.5"/>
<text text-anchor="middle" x="211" y="-203.5" font-family="Helvetica,sans-Serif" font-size="10.00">stm::commit</text>
</a>
</g>
</g>
<!-- Node1&#45;&gt;Node3 -->
<g id="edge2" class="edge"><title>Node1&#45;&gt;Node3</title>
<path fill="none" stroke="midnightblue" d="M72.674,-146.579C90.4716,-157.184 120.6,-174.319 148,-186 153.94,-188.532 160.314,-190.93 166.634,-193.127"/>
<polygon fill="midnightblue" stroke="midnightblue" points="165.855,-196.557 176.449,-196.405 168.073,-189.917 165.855,-196.557"/>
</g>
<!-- Node4 -->
<g id="node4" class="node"><title>Node4</title>
<g id="a_node4"><a xlink:href="namespaceanonymous__namespace_02oreceager_8cpp_03.html#a7a88c7a7453bbfaca53eeac03b80a5d6" target="_top" xlink:title="anonymous_namespace\l\{oreceager::cpp\}::read">
<polygon fill="none" stroke="black" points="150,-147 150,-177 272,-177 272,-147 150,-147"/>
<text text-anchor="start" x="158" y="-165" font-family="Helvetica,sans-Serif" font-size="10.00">anonymous_namespace</text>
<text text-anchor="middle" x="211" y="-154" font-family="Helvetica,sans-Serif" font-size="10.00">{oreceager::cpp}::read</text>
</a>
</g>
</g>
<!-- Node1&#45;&gt;Node4 -->
<g id="edge3" class="edge"><title>Node1&#45;&gt;Node4</title>
<path fill="none" stroke="midnightblue" d="M111.804,-145.955C120.872,-147.437 130.383,-148.991 139.767,-150.524"/>
<polygon fill="midnightblue" stroke="midnightblue" points="139.44,-154.017 149.873,-152.175 140.569,-147.109 139.44,-154.017"/>
</g>
<!-- Node5 -->
<g id="node5" class="node"><title>Node5</title>
<g id="a_node5"><a xlink:href="namespaceanonymous__namespace_02oreceager_8cpp_03.html#ac18758bd7e358cee7461af925e192062" target="_top" xlink:title="anonymous_namespace\l\{oreceager::cpp\}::write">
<polygon fill="none" stroke="black" points="150,-98 150,-128 272,-128 272,-98 150,-98"/>
<text text-anchor="start" x="158" y="-116" font-family="Helvetica,sans-Serif" font-size="10.00">anonymous_namespace</text>
<text text-anchor="middle" x="211" y="-105" font-family="Helvetica,sans-Serif" font-size="10.00">{oreceager::cpp}::write</text>
</a>
</g>
</g>
<!-- Node1&#45;&gt;Node5 -->
<g id="edge4" class="edge"><title>Node1&#45;&gt;Node5</title>
<path fill="none" stroke="midnightblue" d="M111.804,-128.403C120.872,-126.981 130.383,-125.489 139.767,-124.017"/>
<polygon fill="midnightblue" stroke="midnightblue" points="140.537,-127.439 149.873,-122.432 139.452,-120.524 140.537,-127.439"/>
</g>
<!-- Node6 -->
<g id="node6" class="node"><title>Node6</title>
<g id="a_node6"><a xlink:href="namespaceanonymous__namespace_02norec_8cpp_03.html#a0a6ec6794c0677e7f91daf5cb3a57775" target="_top" xlink:title="anonymous_namespace\l\{norec::cpp\}::irrevoc">
<polygon fill="none" stroke="black" points="150,-49 150,-79 272,-79 272,-49 150,-49"/>
<text text-anchor="start" x="158" y="-67" font-family="Helvetica,sans-Serif" font-size="10.00">anonymous_namespace</text>
<text text-anchor="middle" x="211" y="-56" font-family="Helvetica,sans-Serif" font-size="10.00">{norec::cpp}::irrevoc</text>
</a>
</g>
</g>
<!-- Node1&#45;&gt;Node6 -->
<g id="edge5" class="edge"><title>Node1&#45;&gt;Node6</title>
<path fill="none" stroke="midnightblue" d="M73.8462,-127.449C91.9182,-117.361 121.589,-101.252 148,-89 152.376,-86.9701 156.965,-84.9404 161.583,-82.9643"/>
<polygon fill="midnightblue" stroke="midnightblue" points="163.173,-86.0931 171.043,-79.0005 160.468,-79.6369 163.173,-86.0931"/>
</g>
<!-- Node7 -->
<g id="node7" class="node"><title>Node7</title>
<g id="a_node7"><a xlink:href="namespaceanonymous__namespace_02norec_8cpp_03.html#a964889786277f55bf219ecf6a8fbd4a1" target="_top" xlink:title="anonymous_namespace\l\{norec::cpp\}::onSwitchTo">
<polygon fill="none" stroke="black" points="148,-0 148,-30 274,-30 274,-0 148,-0"/>
<text text-anchor="start" x="156" y="-18" font-family="Helvetica,sans-Serif" font-size="10.00">anonymous_namespace</text>
<text text-anchor="middle" x="211" y="-7" font-family="Helvetica,sans-Serif" font-size="10.00">{norec::cpp}::onSwitchTo</text>
</a>
</g>
</g>
<!-- Node1&#45;&gt;Node7 -->
<g id="edge6" class="edge"><title>Node1&#45;&gt;Node7</title>
<path fill="none" stroke="midnightblue" d="M63.7093,-127.435C77.4936,-108.402 110.845,-65.4352 148,-40 150.729,-38.1315 153.62,-36.3692 156.601,-34.7126"/>
<polygon fill="midnightblue" stroke="midnightblue" points="158.422,-37.7131 165.748,-30.0594 155.248,-31.4739 158.422,-37.7131"/>
</g>
</g>
</svg>
