<?xml version="1.0" encoding="UTF-8" standalone="no"?>
<!DOCTYPE svg PUBLIC "-//W3C//DTD SVG 1.1//EN"
 "http://www.w3.org/Graphics/SVG/1.1/DTD/svg11.dtd">
<!-- Generated by graphviz version 2.36.0 (20140111.2315)
 -->
<!-- Title: stm::trigger_common Pages: 1 -->
<svg width="1636pt" height="265pt"
 viewBox="0.00 0.00 1636.00 265.00" xmlns="http://www.w3.org/2000/svg" xmlns:xlink="http://www.w3.org/1999/xlink">
<g id="graph0" class="graph" transform="scale(1 1) rotate(0) translate(4 261)">
<title>stm::trigger_common</title>
<!-- Node1 -->
<g id="node1" class="node"><title>Node1</title>
<polygon fill="#bfbfbf" stroke="black" points="0.5,-106.5 0.5,-125.5 109.5,-125.5 109.5,-106.5 0.5,-106.5"/>
<text text-anchor="middle" x="55" y="-113.5" font-family="Helvetica,sans-Serif" font-size="10.00">stm::trigger_common</text>
</g>
<!-- Node2 -->
<g id="node2" class="node"><title>Node2</title>
<g id="a_node2"><a xlink:href="namespaceanonymous__namespace_02profiling_8cpp_03.html#ad2de7e300bb6e53bf611aaf35c46d80b" target="_top" xlink:title="anonymous_namespace\l\{profiling::cpp\}::collect\l_profiles">
<polygon fill="none" stroke="black" points="146,-125.5 146,-166.5 268,-166.5 268,-125.5 146,-125.5"/>
<text text-anchor="start" x="154" y="-154.5" font-family="Helvetica,sans-Serif" font-size="10.00">anonymous_namespace</text>
<text text-anchor="start" x="154" y="-143.5" font-family="Helvetica,sans-Serif" font-size="10.00">{profiling::cpp}::collect</text>
<text text-anchor="middle" x="207" y="-132.5" font-family="Helvetica,sans-Serif" font-size="10.00">_profiles</text>
</a>
</g>
</g>
<!-- Node1&#45;&gt;Node2 -->
<g id="edge1" class="edge"><title>Node1&#45;&gt;Node2</title>
<path fill="none" stroke="midnightblue" d="M103.873,-125.575C114.114,-127.623 125.134,-129.827 136.013,-132.003"/>
<polygon fill="midnightblue" stroke="midnightblue" points="135.446,-135.458 145.938,-133.988 136.818,-128.594 135.446,-135.458"/>
</g>
<!-- Node21 -->
<g id="node21" class="node"><title>Node21</title>
<g id="a_node21"><a xlink:href="namespaceanonymous__namespace_02profiling_8cpp_03.html#ac7a6d6bebec6c014c2d09c19efb4390c" target="_top" xlink:title="anonymous_namespace\l\{profiling::cpp\}::change\l_algorithm">
<polygon fill="none" stroke="black" points="146,-65.5 146,-106.5 268,-106.5 268,-65.5 146,-65.5"/>
<text text-anchor="start" x="154" y="-94.5" font-family="Helvetica,sans-Serif" font-size="10.00">anonymous_namespace</text>
<text text-anchor="start" x="154" y="-83.5" font-family="Helvetica,sans-Serif" font-size="10.00">{profiling::cpp}::change</text>
<text text-anchor="middle" x="207" y="-72.5" font-family="Helvetica,sans-Serif" font-size="10.00">_algorithm</text>
</a>
</g>
</g>
<!-- Node1&#45;&gt;Node21 -->
<g id="edge22" class="edge"><title>Node1&#45;&gt;Node21</title>
<path fill="none" stroke="midnightblue" d="M103.873,-106.425C114.114,-104.377 125.134,-102.173 136.013,-99.9974"/>
<polygon fill="midnightblue" stroke="midnightblue" points="136.818,-103.406 145.938,-98.0124 135.446,-96.5416 136.818,-103.406"/>
</g>
<!-- Node3 -->
<g id="node3" class="node"><title>Node3</title>
<g id="a_node3"><a xlink:href="namespacestm.html#a347d5009be494e8595a8933c49a342b4" target="_top" xlink:title="stm::begin_blocker">
<polygon fill="none" stroke="black" points="315.5,-98.5 315.5,-117.5 414.5,-117.5 414.5,-98.5 315.5,-98.5"/>
<text text-anchor="middle" x="365" y="-105.5" font-family="Helvetica,sans-Serif" font-size="10.00">stm::begin_blocker</text>
</a>
</g>
</g>
<!-- Node2&#45;&gt;Node3 -->
<g id="edge2" class="edge"><title>Node2&#45;&gt;Node3</title>
<path fill="none" stroke="midnightblue" d="M268.314,-131.308C283.64,-127.575 299.927,-123.608 314.637,-120.024"/>
<polygon fill="midnightblue" stroke="midnightblue" points="315.649,-123.38 324.537,-117.613 313.993,-116.579 315.649,-123.38"/>
</g>
<!-- Node19 -->
<g id="node19" class="node"><title>Node19</title>
<g id="a_node19"><a xlink:href="locks_8hpp.html#a67493dc021b0db009a9603ea55d18c59" target="_top" xlink:title="spin64">
<polygon fill="none" stroke="black" points="502.5,-123.5 502.5,-142.5 547.5,-142.5 547.5,-123.5 502.5,-123.5"/>
<text text-anchor="middle" x="525" y="-130.5" font-family="Helvetica,sans-Serif" font-size="10.00">spin64</text>
</a>
</g>
</g>
<!-- Node2&#45;&gt;Node19 -->
<g id="edge20" class="edge"><title>Node2&#45;&gt;Node19</title>
<path fill="none" stroke="midnightblue" d="M268.161,-159.773C279.981,-161.949 292.333,-163.857 304,-165 357.964,-170.289 372.452,-173.521 426,-165 449.029,-161.335 474.002,-153.112 492.974,-145.92"/>
<polygon fill="midnightblue" stroke="midnightblue" points="494.26,-149.175 502.306,-142.282 491.718,-142.653 494.26,-149.175"/>
</g>
<!-- Node20 -->
<g id="node20" class="node"><title>Node20</title>
<g id="a_node20"><a xlink:href="namespacestm.html#a0af46d85108438d0b413d5c5d380d03f" target="_top" xlink:title="stm::install_algorithm">
<polygon fill="none" stroke="black" points="310,-136.5 310,-155.5 420,-155.5 420,-136.5 310,-136.5"/>
<text text-anchor="middle" x="365" y="-143.5" font-family="Helvetica,sans-Serif" font-size="10.00">stm::install_algorithm</text>
</a>
</g>
</g>
<!-- Node2&#45;&gt;Node20 -->
<g id="edge21" class="edge"><title>Node2&#45;&gt;Node20</title>
<path fill="none" stroke="midnightblue" d="M268.314,-146C278.602,-146 289.324,-146 299.712,-146"/>
<polygon fill="midnightblue" stroke="midnightblue" points="299.959,-149.5 309.959,-146 299.959,-142.5 299.959,-149.5"/>
</g>
<!-- Node4 -->
<g id="node4" class="node"><title>Node4</title>
<g id="a_node4"><a xlink:href="namespaceanonymous__namespace_02irrevocability_8cpp_03.html#a5f2e3da55eda99c9e30b6314c36ed8b2" target="_top" xlink:title="anonymous_namespace\l\{irrevocability::cpp\}\l::set_irrevocable_barriers">
<polygon fill="none" stroke="black" points="462,-63.5 462,-104.5 588,-104.5 588,-63.5 462,-63.5"/>
<text text-anchor="start" x="470" y="-92.5" font-family="Helvetica,sans-Serif" font-size="10.00">anonymous_namespace</text>
<text text-anchor="start" x="470" y="-81.5" font-family="Helvetica,sans-Serif" font-size="10.00">{irrevocability::cpp}</text>
<text text-anchor="middle" x="525" y="-70.5" font-family="Helvetica,sans-Serif" font-size="10.00">::set_irrevocable_barriers</text>
</a>
</g>
</g>
<!-- Node3&#45;&gt;Node4 -->
<g id="edge3" class="edge"><title>Node3&#45;&gt;Node4</title>
<path fill="none" stroke="midnightblue" d="M414.694,-100.603C426.428,-98.8211 439.213,-96.8791 451.768,-94.9719"/>
<polygon fill="midnightblue" stroke="midnightblue" points="452.402,-98.4158 461.763,-93.4537 451.351,-91.4952 452.402,-98.4158"/>
</g>
<!-- Node3&#45;&gt;Node19 -->
<g id="edge19" class="edge"><title>Node3&#45;&gt;Node19</title>
<path fill="none" stroke="midnightblue" d="M414.694,-115.705C440.056,-119.718 470.329,-124.508 492.578,-128.028"/>
<polygon fill="midnightblue" stroke="midnightblue" points="492.069,-131.491 502.494,-129.597 493.163,-124.577 492.069,-131.491"/>
</g>
<!-- Node5 -->
<g id="node5" class="node"><title>Node5</title>
<g id="a_node5"><a xlink:href="namespaceanonymous__namespace_02irrevocability_8cpp_03.html#af9e6aae425588bac29be16e10b91cd4c" target="_top" xlink:title="anonymous_namespace\l\{irrevocability::cpp\}\l::commit_irrevocable">
<polygon fill="none" stroke="black" points="624,-123.5 624,-164.5 746,-164.5 746,-123.5 624,-123.5"/>
<text text-anchor="start" x="632" y="-152.5" font-family="Helvetica,sans-Serif" font-size="10.00">anonymous_namespace</text>
<text text-anchor="start" x="632" y="-141.5" font-family="Helvetica,sans-Serif" font-size="10.00">{irrevocability::cpp}</text>
<text text-anchor="middle" x="685" y="-130.5" font-family="Helvetica,sans-Serif" font-size="10.00">::commit_irrevocable</text>
</a>
</g>
</g>
<!-- Node4&#45;&gt;Node5 -->
<g id="edge4" class="edge"><title>Node4&#45;&gt;Node5</title>
<path fill="none" stroke="midnightblue" d="M580.375,-104.649C593.232,-109.531 607.057,-114.781 620.287,-119.805"/>
<polygon fill="midnightblue" stroke="midnightblue" points="619.202,-123.137 629.793,-123.415 621.687,-116.593 619.202,-123.137"/>
</g>
<!-- Node16 -->
<g id="node16" class="node"><title>Node16</title>
<g id="a_node16"><a xlink:href="namespaceanonymous__namespace_02irrevocability_8cpp_03.html#adfdb44f5b204ddd367543d1e3a5465fc" target="_top" xlink:title="anonymous_namespace\l\{irrevocability::cpp\}\l::rollback_irrevocable">
<polygon fill="none" stroke="black" points="624,-3.5 624,-44.5 746,-44.5 746,-3.5 624,-3.5"/>
<text text-anchor="start" x="632" y="-32.5" font-family="Helvetica,sans-Serif" font-size="10.00">anonymous_namespace</text>
<text text-anchor="start" x="632" y="-21.5" font-family="Helvetica,sans-Serif" font-size="10.00">{irrevocability::cpp}</text>
<text text-anchor="middle" x="685" y="-10.5" font-family="Helvetica,sans-Serif" font-size="10.00">::rollback_irrevocable</text>
</a>
</g>
</g>
<!-- Node4&#45;&gt;Node16 -->
<g id="edge15" class="edge"><title>Node4&#45;&gt;Node16</title>
<path fill="none" stroke="midnightblue" d="M580.375,-63.3514C593.232,-58.4687 607.057,-53.2189 620.287,-48.1949"/>
<polygon fill="midnightblue" stroke="midnightblue" points="621.687,-51.4072 629.793,-44.585 619.202,-44.8631 621.687,-51.4072"/>
</g>
<!-- Node18 -->
<g id="node18" class="node"><title>Node18</title>
<g id="a_node18"><a xlink:href="namespaceanonymous__namespace_02irrevocability_8cpp_03.html#ac71fd4f2ae60b1814ccaedea40d424a2" target="_top" xlink:title="anonymous_namespace\l\{irrevocability::cpp\}\l::abort_irrevocable">
<polygon fill="none" stroke="black" points="624,-63.5 624,-104.5 746,-104.5 746,-63.5 624,-63.5"/>
<text text-anchor="start" x="632" y="-92.5" font-family="Helvetica,sans-Serif" font-size="10.00">anonymous_namespace</text>
<text text-anchor="start" x="632" y="-81.5" font-family="Helvetica,sans-Serif" font-size="10.00">{irrevocability::cpp}</text>
<text text-anchor="middle" x="685" y="-70.5" font-family="Helvetica,sans-Serif" font-size="10.00">::abort_irrevocable</text>
</a>
</g>
</g>
<!-- Node4&#45;&gt;Node18 -->
<g id="edge17" class="edge"><title>Node4&#45;&gt;Node18</title>
<path fill="none" stroke="midnightblue" d="M588.446,-84C596.724,-84 605.257,-84 613.658,-84"/>
<polygon fill="midnightblue" stroke="midnightblue" points="613.813,-87.5001 623.813,-84 613.813,-80.5001 613.813,-87.5001"/>
</g>
<!-- Node6 -->
<g id="node6" class="node"><title>Node6</title>
<g id="a_node6"><a xlink:href="namespaceanonymous__namespace_02irrevocability_8cpp_03.html#ab42770392de26e3b0bc1ffbe2f7932b8" target="_top" xlink:title="anonymous_namespace\l\{irrevocability::cpp\}\l::unset_irrevocable_barriers">
<polygon fill="none" stroke="black" points="782.5,-98.5 782.5,-139.5 919.5,-139.5 919.5,-98.5 782.5,-98.5"/>
<text text-anchor="start" x="790.5" y="-127.5" font-family="Helvetica,sans-Serif" font-size="10.00">anonymous_namespace</text>
<text text-anchor="start" x="790.5" y="-116.5" font-family="Helvetica,sans-Serif" font-size="10.00">{irrevocability::cpp}</text>
<text text-anchor="middle" x="851" y="-105.5" font-family="Helvetica,sans-Serif" font-size="10.00">::unset_irrevocable_barriers</text>
</a>
</g>
</g>
<!-- Node5&#45;&gt;Node6 -->
<g id="edge5" class="edge"><title>Node5&#45;&gt;Node6</title>
<path fill="none" stroke="midnightblue" d="M746.136,-134.833C754.705,-133.527 763.616,-132.168 772.459,-130.82"/>
<polygon fill="midnightblue" stroke="midnightblue" points="773.032,-134.273 782.391,-129.306 771.977,-127.353 773.032,-134.273"/>
</g>
<!-- Node7 -->
<g id="node7" class="node"><title>Node7</title>
<g id="a_node7"><a xlink:href="namespacestm.html#a00287c50a719dcda144cc1cbc9e9ae4b" target="_top" xlink:title="stm::OnReadOnlyCommit">
<polygon fill="none" stroke="black" points="786,-158.5 786,-177.5 916,-177.5 916,-158.5 786,-158.5"/>
<text text-anchor="middle" x="851" y="-165.5" font-family="Helvetica,sans-Serif" font-size="10.00">stm::OnReadOnlyCommit</text>
</a>
</g>
</g>
<!-- Node5&#45;&gt;Node7 -->
<g id="edge6" class="edge"><title>Node5&#45;&gt;Node7</title>
<path fill="none" stroke="midnightblue" d="M746.136,-152.8C755.703,-154.2 765.698,-155.663 775.546,-157.104"/>
<polygon fill="midnightblue" stroke="midnightblue" points="775.331,-160.61 785.733,-158.595 776.345,-153.684 775.331,-160.61"/>
</g>
<!-- Node8 -->
<g id="node8" class="node"><title>Node8</title>
<g id="a_node8"><a xlink:href="classstm_1_1WBMMPolicy.html#af174b70b9898c8d900a5a2604cfadc7c" target="_top" xlink:title="stm::WBMMPolicy::onTxCommit">
<polygon fill="none" stroke="black" points="956.5,-177.5 956.5,-196.5 1117.5,-196.5 1117.5,-177.5 956.5,-177.5"/>
<text text-anchor="middle" x="1037" y="-184.5" font-family="Helvetica,sans-Serif" font-size="10.00">stm::WBMMPolicy::onTxCommit</text>
</a>
</g>
</g>
<!-- Node7&#45;&gt;Node8 -->
<g id="edge7" class="edge"><title>Node7&#45;&gt;Node8</title>
<path fill="none" stroke="midnightblue" d="M916.096,-174.619C925.819,-175.623 936.002,-176.674 946.15,-177.722"/>
<polygon fill="midnightblue" stroke="midnightblue" points="945.961,-181.221 956.267,-178.767 946.68,-174.258 945.961,-181.221"/>
</g>
<!-- Node15 -->
<g id="node15" class="node"><title>Node15</title>
<g id="a_node15"><a xlink:href="structstm_1_1toxic__nop__t.html#a1c92cb621137c523ad38b9c252b4da06" target="_top" xlink:title="stm::toxic_nop_t::onCommit">
<polygon fill="none" stroke="black" points="967,-139.5 967,-158.5 1107,-158.5 1107,-139.5 967,-139.5"/>
<text text-anchor="middle" x="1037" y="-146.5" font-family="Helvetica,sans-Serif" font-size="10.00">stm::toxic_nop_t::onCommit</text>
</a>
</g>
</g>
<!-- Node7&#45;&gt;Node15 -->
<g id="edge14" class="edge"><title>Node7&#45;&gt;Node15</title>
<path fill="none" stroke="midnightblue" d="M916.096,-161.381C929.154,-160.033 943.041,-158.599 956.559,-157.203"/>
<polygon fill="midnightblue" stroke="midnightblue" points="957.218,-160.654 966.805,-156.145 956.498,-153.691 957.218,-160.654"/>
</g>
<!-- Node9 -->
<g id="node9" class="node"><title>Node9</title>
<g id="a_node9"><a xlink:href="classstm_1_1MiniVector.html#a4d707e1115e162943b4709a2af92ed77" target="_top" xlink:title="stm::MiniVector::begin">
<polygon fill="none" stroke="black" points="1169.5,-237.5 1169.5,-256.5 1284.5,-256.5 1284.5,-237.5 1169.5,-237.5"/>
<text text-anchor="middle" x="1227" y="-244.5" font-family="Helvetica,sans-Serif" font-size="10.00">stm::MiniVector::begin</text>
</a>
</g>
</g>
<!-- Node8&#45;&gt;Node9 -->
<g id="edge8" class="edge"><title>Node8&#45;&gt;Node9</title>
<path fill="none" stroke="midnightblue" d="M1063.15,-196.558C1086.51,-205.278 1122.36,-218.252 1154,-228 1161.56,-230.329 1169.61,-232.629 1177.5,-234.782"/>
<polygon fill="midnightblue" stroke="midnightblue" points="1176.78,-238.213 1187.35,-237.421 1178.59,-231.452 1176.78,-238.213"/>
</g>
<!-- Node10 -->
<g id="node10" class="node"><title>Node10</title>
<g id="a_node10"><a xlink:href="classstm_1_1MiniVector.html#ae2297c706ac2ebee161ef60ace9ae645" target="_top" xlink:title="stm::MiniVector::end">
<polygon fill="none" stroke="black" points="1173.5,-199.5 1173.5,-218.5 1280.5,-218.5 1280.5,-199.5 1173.5,-199.5"/>
<text text-anchor="middle" x="1227" y="-206.5" font-family="Helvetica,sans-Serif" font-size="10.00">stm::MiniVector::end</text>
</a>
</g>
</g>
<!-- Node8&#45;&gt;Node10 -->
<g id="edge9" class="edge"><title>Node8&#45;&gt;Node10</title>
<path fill="none" stroke="midnightblue" d="M1117.73,-196.33C1133.02,-198.119 1148.82,-199.968 1163.47,-201.682"/>
<polygon fill="midnightblue" stroke="midnightblue" points="1163.07,-205.159 1173.4,-202.845 1163.88,-198.207 1163.07,-205.159"/>
</g>
<!-- Node11 -->
<g id="node11" class="node"><title>Node11</title>
<g id="a_node11"><a xlink:href="classstm_1_1WBMMPolicy.html#aa2aa233946e7b6b1d35b184503b8c9f9" target="_top" xlink:title="stm::WBMMPolicy::schedFor\lReclaim">
<polygon fill="none" stroke="black" points="1154,-150 1154,-180 1300,-180 1300,-150 1154,-150"/>
<text text-anchor="start" x="1162" y="-168" font-family="Helvetica,sans-Serif" font-size="10.00">stm::WBMMPolicy::schedFor</text>
<text text-anchor="middle" x="1227" y="-157" font-family="Helvetica,sans-Serif" font-size="10.00">Reclaim</text>
</a>
</g>
</g>
<!-- Node8&#45;&gt;Node11 -->
<g id="edge10" class="edge"><title>Node8&#45;&gt;Node11</title>
<path fill="none" stroke="midnightblue" d="M1117.73,-177.67C1126.36,-176.66 1135.16,-175.631 1143.82,-174.617"/>
<polygon fill="midnightblue" stroke="midnightblue" points="1144.38,-178.076 1153.9,-173.437 1143.56,-171.123 1144.38,-178.076"/>
</g>
<!-- Node14 -->
<g id="node14" class="node"><title>Node14</title>
<g id="a_node14"><a xlink:href="classstm_1_1MiniVector.html#ad17f9c76202d399264ba62812f0b5c41" target="_top" xlink:title="stm::MiniVector::reset">
<polygon fill="none" stroke="black" points="1170.5,-111.5 1170.5,-130.5 1283.5,-130.5 1283.5,-111.5 1170.5,-111.5"/>
<text text-anchor="middle" x="1227" y="-118.5" font-family="Helvetica,sans-Serif" font-size="10.00">stm::MiniVector::reset</text>
</a>
</g>
</g>
<!-- Node8&#45;&gt;Node14 -->
<g id="edge13" class="edge"><title>Node8&#45;&gt;Node14</title>
<path fill="none" stroke="midnightblue" d="M1092.45,-177.396C1101.21,-174.914 1110.02,-171.827 1118,-168 1136.28,-159.236 1135.83,-148.99 1154,-140 1158.66,-137.694 1163.63,-135.643 1168.71,-133.825"/>
<polygon fill="midnightblue" stroke="midnightblue" points="1170.11,-137.047 1178.53,-130.609 1167.93,-130.395 1170.11,-137.047"/>
</g>
<!-- Node12 -->
<g id="node12" class="node"><title>Node12</title>
<g id="a_node12"><a xlink:href="classstm_1_1WBMMPolicy.html#a80a035e5b8f805d49606613b869ddd3c" target="_top" xlink:title="stm::WBMMPolicy::handle\l_full_prelimbo">
<polygon fill="none" stroke="black" points="1336,-150 1336,-180 1470,-180 1470,-150 1336,-150"/>
<text text-anchor="start" x="1344" y="-168" font-family="Helvetica,sans-Serif" font-size="10.00">stm::WBMMPolicy::handle</text>
<text text-anchor="middle" x="1403" y="-157" font-family="Helvetica,sans-Serif" font-size="10.00">_full_prelimbo</text>
</a>
</g>
</g>
<!-- Node11&#45;&gt;Node12 -->
<g id="edge11" class="edge"><title>Node11&#45;&gt;Node12</title>
<path fill="none" stroke="midnightblue" d="M1300.03,-165C1308.47,-165 1317.11,-165 1325.6,-165"/>
<polygon fill="midnightblue" stroke="midnightblue" points="1325.88,-168.5 1335.88,-165 1325.88,-161.5 1325.88,-168.5"/>
</g>
<!-- Node13 -->
<g id="node13" class="node"><title>Node13</title>
<g id="a_node13"><a xlink:href="namespaceanonymous__namespace_02WBMMPolicy_8cpp_03.html#a030c6e9142fd49127ce70ad9b1af5e79" target="_top" xlink:title="anonymous_namespace\l\{WBMMPolicy::cpp\}::is\l_strictly_older">
<polygon fill="none" stroke="black" points="1506,-144.5 1506,-185.5 1628,-185.5 1628,-144.5 1506,-144.5"/>
<text text-anchor="start" x="1514" y="-173.5" font-family="Helvetica,sans-Serif" font-size="10.00">anonymous_namespace</text>
<text text-anchor="start" x="1514" y="-162.5" font-family="Helvetica,sans-Serif" font-size="10.00">{WBMMPolicy::cpp}::is</text>
<text text-anchor="middle" x="1567" y="-151.5" font-family="Helvetica,sans-Serif" font-size="10.00">_strictly_older</text>
</a>
</g>
</g>
<!-- Node12&#45;&gt;Node13 -->
<g id="edge12" class="edge"><title>Node12&#45;&gt;Node13</title>
<path fill="none" stroke="midnightblue" d="M1470.36,-165C1478.75,-165 1487.35,-165 1495.79,-165"/>
<polygon fill="midnightblue" stroke="midnightblue" points="1495.99,-168.5 1505.99,-165 1495.99,-161.5 1495.99,-168.5"/>
</g>
<!-- Node17 -->
<g id="node17" class="node"><title>Node17</title>
<g id="a_node17"><a xlink:href="namespacestm.html#a51b2c0958e7709b39500d037648c461b" target="_top" xlink:title="stm::UNRECOVERABLE">
<polygon fill="none" stroke="black" points="786,-49.5 786,-68.5 916,-68.5 916,-49.5 786,-49.5"/>
<text text-anchor="middle" x="851" y="-56.5" font-family="Helvetica,sans-Serif" font-size="10.00">stm::UNRECOVERABLE</text>
</a>
</g>
</g>
<!-- Node16&#45;&gt;Node17 -->
<g id="edge16" class="edge"><title>Node16&#45;&gt;Node17</title>
<path fill="none" stroke="midnightblue" d="M746.136,-36.834C762.184,-40.2588 779.438,-43.9409 795.183,-47.3012"/>
<polygon fill="midnightblue" stroke="midnightblue" points="794.774,-50.7927 805.284,-49.4571 796.235,-43.9469 794.774,-50.7927"/>
</g>
<!-- Node18&#45;&gt;Node17 -->
<g id="edge18" class="edge"><title>Node18&#45;&gt;Node17</title>
<path fill="none" stroke="midnightblue" d="M746.136,-74.8329C756.389,-73.2699 767.134,-71.632 777.664,-70.0269"/>
<polygon fill="midnightblue" stroke="midnightblue" points="778.311,-73.4687 787.67,-68.5016 777.256,-66.5486 778.311,-73.4687"/>
</g>
<!-- Node21&#45;&gt;Node3 -->
<g id="edge23" class="edge"><title>Node21&#45;&gt;Node3</title>
<path fill="none" stroke="midnightblue" d="M268.314,-94.5058C280.505,-96.225 293.304,-98.0301 305.434,-99.7407"/>
<polygon fill="midnightblue" stroke="midnightblue" points="305.047,-103.221 315.437,-101.151 306.024,-96.2892 305.047,-103.221"/>
</g>
<!-- Node21&#45;&gt;Node19 -->
<g id="edge24" class="edge"><title>Node21&#45;&gt;Node19</title>
<path fill="none" stroke="midnightblue" d="M268.18,-77.8198C312.774,-73.8962 374.486,-73.015 426,-89 444.366,-94.6989 444.685,-104.635 462,-113 471.7,-117.686 482.765,-121.654 492.836,-124.789"/>
<polygon fill="midnightblue" stroke="midnightblue" points="491.907,-128.164 502.489,-127.642 493.892,-121.451 491.907,-128.164"/>
</g>
<!-- Node21&#45;&gt;Node20 -->
<g id="edge26" class="edge"><title>Node21&#45;&gt;Node20</title>
<path fill="none" stroke="midnightblue" d="M253.537,-106.517C269.377,-113.368 287.348,-120.824 304,-127 309.71,-129.118 315.777,-131.214 321.776,-133.197"/>
<polygon fill="midnightblue" stroke="midnightblue" points="321.14,-136.67 331.732,-136.413 323.292,-130.009 321.14,-136.67"/>
</g>
<!-- Node22 -->
<g id="node22" class="node"><title>Node22</title>
<g id="a_node22"><a xlink:href="namespaceanonymous__namespace_02profiling_8cpp_03.html#a00942ad1d38b82f3a2e0f66b704bef44" target="_top" xlink:title="anonymous_namespace\l\{profiling::cpp\}::adjust\l_thresholds">
<polygon fill="none" stroke="black" points="304,-0.5 304,-41.5 426,-41.5 426,-0.5 304,-0.5"/>
<text text-anchor="start" x="312" y="-29.5" font-family="Helvetica,sans-Serif" font-size="10.00">anonymous_namespace</text>
<text text-anchor="start" x="312" y="-18.5" font-family="Helvetica,sans-Serif" font-size="10.00">{profiling::cpp}::adjust</text>
<text text-anchor="middle" x="365" y="-7.5" font-family="Helvetica,sans-Serif" font-size="10.00">_thresholds</text>
</a>
</g>
</g>
<!-- Node21&#45;&gt;Node22 -->
<g id="edge25" class="edge"><title>Node21&#45;&gt;Node22</title>
<path fill="none" stroke="midnightblue" d="M257.359,-65.4336C272.513,-59.1195 289.342,-52.1074 305.069,-45.5545"/>
<polygon fill="midnightblue" stroke="midnightblue" points="306.81,-48.6211 314.694,-41.5441 304.117,-42.1595 306.81,-48.6211"/>
</g>
</g>
</svg>
