<?xml version="1.0" encoding="UTF-8" standalone="no"?>
<!DOCTYPE svg PUBLIC "-//W3C//DTD SVG 1.1//EN"
 "http://www.w3.org/Graphics/SVG/1.1/DTD/svg11.dtd">
<!-- Generated by graphviz version 2.36.0 (20140111.2315)
 -->
<!-- Title: stm::commit Pages: 1 -->
<svg width="228pt" height="218pt"
 viewBox="0.00 0.00 228.00 218.00" xmlns="http://www.w3.org/2000/svg" xmlns:xlink="http://www.w3.org/1999/xlink">
<g id="graph0" class="graph" transform="scale(1 1) rotate(0) translate(4 214)">
<title>stm::commit</title>
<!-- Node1 -->
<g id="node1" class="node"><title>Node1</title>
<polygon fill="#bfbfbf" stroke="black" points="0.5,-95.5 0.5,-114.5 71.5,-114.5 71.5,-95.5 0.5,-95.5"/>
<text text-anchor="middle" x="36" y="-102.5" font-family="Helvetica,sans-Serif" font-size="10.00">stm::commit</text>
</g>
<!-- Node2 -->
<g id="node2" class="node"><title>Node2</title>
<g id="a_node2"><a xlink:href="namespacestm.html#a976f5145078328564e9e05c97bce777e" target="_top" xlink:title="stm::initTM\&lt; CGL \&gt;">
<polygon fill="none" stroke="black" points="112,-190.5 112,-209.5 216,-209.5 216,-190.5 112,-190.5"/>
<text text-anchor="middle" x="164" y="-197.5" font-family="Helvetica,sans-Serif" font-size="10.00">stm::initTM&lt; CGL &gt;</text>
</a>
</g>
</g>
<!-- Node1&#45;&gt;Node2 -->
<g id="edge1" class="edge"><title>Node1&#45;&gt;Node2</title>
<path fill="none" stroke="midnightblue" d="M49.4266,-122.652C62.2996,-139.754 83.8862,-165.339 108,-181 113.846,-184.797 120.536,-187.927 127.191,-190.474"/>
<polygon fill="midnightblue" stroke="midnightblue" points="52.2506,-120.584 43.5219,-114.579 46.6006,-124.717 52.2506,-120.584"/>
</g>
<!-- Node3 -->
<g id="node3" class="node"><title>Node3</title>
<g id="a_node3"><a xlink:href="namespacestm.html#a6c7909b6fe245dbee6d5212415e2e4d3" target="_top" xlink:title="stm::initTM\&lt; MCS \&gt;">
<polygon fill="none" stroke="black" points="110.5,-152.5 110.5,-171.5 217.5,-171.5 217.5,-152.5 110.5,-152.5"/>
<text text-anchor="middle" x="164" y="-159.5" font-family="Helvetica,sans-Serif" font-size="10.00">stm::initTM&lt; MCS &gt;</text>
</a>
</g>
</g>
<!-- Node1&#45;&gt;Node3 -->
<g id="edge2" class="edge"><title>Node1&#45;&gt;Node3</title>
<path fill="none" stroke="midnightblue" d="M62.045,-119.663C75.4269,-127.173 92.3308,-136.152 108,-143 115.868,-146.439 124.575,-149.689 132.696,-152.496"/>
<polygon fill="midnightblue" stroke="midnightblue" points="63.413,-116.414 52.9915,-114.505 59.948,-122.496 63.413,-116.414"/>
</g>
<!-- Node4 -->
<g id="node4" class="node"><title>Node4</title>
<g id="a_node4"><a xlink:href="namespacestm.html#a02782a7198a1edebbcd545924d2ca25f" target="_top" xlink:title="stm::initTM\&lt; Serial \&gt;">
<polygon fill="none" stroke="black" points="109.5,-114.5 109.5,-133.5 218.5,-133.5 218.5,-114.5 109.5,-114.5"/>
<text text-anchor="middle" x="164" y="-121.5" font-family="Helvetica,sans-Serif" font-size="10.00">stm::initTM&lt; Serial &gt;</text>
</a>
</g>
</g>
<!-- Node1&#45;&gt;Node4 -->
<g id="edge3" class="edge"><title>Node1&#45;&gt;Node4</title>
<path fill="none" stroke="midnightblue" d="M81.9351,-111.776C90.8467,-113.12 100.285,-114.543 109.45,-115.925"/>
<polygon fill="midnightblue" stroke="midnightblue" points="82.1737,-108.272 71.7636,-110.242 81.1299,-115.194 82.1737,-108.272"/>
</g>
<!-- Node5 -->
<g id="node5" class="node"><title>Node5</title>
<g id="a_node5"><a xlink:href="namespacestm.html#a8efa5265650472f1904c9aa89da09e69" target="_top" xlink:title="stm::initTM\&lt; Swiss \&gt;">
<polygon fill="none" stroke="black" points="108.5,-76.5 108.5,-95.5 219.5,-95.5 219.5,-76.5 108.5,-76.5"/>
<text text-anchor="middle" x="164" y="-83.5" font-family="Helvetica,sans-Serif" font-size="10.00">stm::initTM&lt; Swiss &gt;</text>
</a>
</g>
</g>
<!-- Node1&#45;&gt;Node5 -->
<g id="edge4" class="edge"><title>Node1&#45;&gt;Node5</title>
<path fill="none" stroke="midnightblue" d="M81.6738,-98.2635C90.3524,-96.9548 99.5394,-95.5695 108.493,-94.2193"/>
<polygon fill="midnightblue" stroke="midnightblue" points="81.1299,-94.8058 71.7636,-99.7579 82.1737,-101.728 81.1299,-94.8058"/>
</g>
<!-- Node6 -->
<g id="node6" class="node"><title>Node6</title>
<g id="a_node6"><a xlink:href="namespacestm.html#af9008f38389991f51f8a771deac32ff9" target="_top" xlink:title="stm::initTM\&lt; Ticket \&gt;">
<polygon fill="none" stroke="black" points="108.5,-38.5 108.5,-57.5 219.5,-57.5 219.5,-38.5 108.5,-38.5"/>
<text text-anchor="middle" x="164" y="-45.5" font-family="Helvetica,sans-Serif" font-size="10.00">stm::initTM&lt; Ticket &gt;</text>
</a>
</g>
</g>
<!-- Node1&#45;&gt;Node6 -->
<g id="edge5" class="edge"><title>Node1&#45;&gt;Node6</title>
<path fill="none" stroke="midnightblue" d="M62.045,-90.337C75.4269,-82.8268 92.3308,-73.848 108,-67 115.868,-63.5613 124.575,-60.3114 132.696,-57.5041"/>
<polygon fill="midnightblue" stroke="midnightblue" points="59.948,-87.5035 52.9915,-95.4946 63.413,-93.5858 59.948,-87.5035"/>
</g>
<!-- Node7 -->
<g id="node7" class="node"><title>Node7</title>
<g id="a_node7"><a xlink:href="namespacestm.html#a37f85872162e9d5fcc4708c29f302750" target="_top" xlink:title="stm::initTM\&lt; TML \&gt;">
<polygon fill="none" stroke="black" points="112,-0.5 112,-19.5 216,-19.5 216,-0.5 112,-0.5"/>
<text text-anchor="middle" x="164" y="-7.5" font-family="Helvetica,sans-Serif" font-size="10.00">stm::initTM&lt; TML &gt;</text>
</a>
</g>
</g>
<!-- Node1&#45;&gt;Node7 -->
<g id="edge6" class="edge"><title>Node1&#45;&gt;Node7</title>
<path fill="none" stroke="midnightblue" d="M49.4266,-87.3482C62.2996,-70.2457 83.8862,-44.6614 108,-29 113.846,-25.2032 120.536,-22.0729 127.191,-19.5255"/>
<polygon fill="midnightblue" stroke="midnightblue" points="46.6006,-85.2833 43.5219,-95.421 52.2506,-89.4159 46.6006,-85.2833"/>
</g>
</g>
</svg>
