<?xml version="1.0" encoding="UTF-8" standalone="no"?>
<!DOCTYPE svg PUBLIC "-//W3C//DTD SVG 1.1//EN"
 "http://www.w3.org/Graphics/SVG/1.1/DTD/svg11.dtd">
<!-- Generated by graphviz version 2.36.0 (20140111.2315)
 -->
<!-- Title: stm::initTM&lt; TML &gt; Pages: 1 -->
<svg width="274pt" height="262pt"
 viewBox="0.00 0.00 274.00 262.00" xmlns="http://www.w3.org/2000/svg" xmlns:xlink="http://www.w3.org/1999/xlink">
<g id="graph0" class="graph" transform="scale(1 1) rotate(0) translate(4 258)">
<title>stm::initTM&lt; TML &gt;</title>
<!-- Node1 -->
<g id="node1" class="node"><title>Node1</title>
<polygon fill="#bfbfbf" stroke="black" points="0,-127.5 0,-146.5 104,-146.5 104,-127.5 0,-127.5"/>
<text text-anchor="middle" x="52" y="-134.5" font-family="Helvetica,sans-Serif" font-size="10.00">stm::initTM&lt; TML &gt;</text>
</g>
<!-- Node2 -->
<g id="node2" class="node"><title>Node2</title>
<g id="a_node2"><a xlink:href="namespacestm.html#a5dc0e1df0fe411722145e01e8b09b4b8" target="_top" xlink:title="stm::begin">
<polygon fill="none" stroke="black" points="172,-234.5 172,-253.5 234,-253.5 234,-234.5 172,-234.5"/>
<text text-anchor="middle" x="203" y="-241.5" font-family="Helvetica,sans-Serif" font-size="10.00">stm::begin</text>
</a>
</g>
</g>
<!-- Node1&#45;&gt;Node2 -->
<g id="edge1" class="edge"><title>Node1&#45;&gt;Node2</title>
<path fill="none" stroke="midnightblue" d="M59.9771,-146.746C73.418,-164.821 104.711,-203.643 140,-225 146.772,-229.099 154.501,-232.379 162.151,-234.982"/>
<polygon fill="midnightblue" stroke="midnightblue" points="161.133,-238.33 171.72,-237.926 163.192,-231.64 161.133,-238.33"/>
</g>
<!-- Node3 -->
<g id="node3" class="node"><title>Node3</title>
<g id="a_node3"><a xlink:href="namespacestm.html#a94dbca4907e005c8c803e452b123903f" target="_top" xlink:title="stm::commit">
<polygon fill="none" stroke="black" points="167.5,-196.5 167.5,-215.5 238.5,-215.5 238.5,-196.5 167.5,-196.5"/>
<text text-anchor="middle" x="203" y="-203.5" font-family="Helvetica,sans-Serif" font-size="10.00">stm::commit</text>
</a>
</g>
</g>
<!-- Node1&#45;&gt;Node3 -->
<g id="edge2" class="edge"><title>Node1&#45;&gt;Node3</title>
<path fill="none" stroke="midnightblue" d="M67.923,-146.633C84.8828,-157.286 113.637,-174.464 140,-186 145.848,-188.559 152.13,-190.962 158.372,-193.153"/>
<polygon fill="midnightblue" stroke="midnightblue" points="157.484,-196.547 168.078,-196.413 159.713,-189.911 157.484,-196.547"/>
</g>
<!-- Node4 -->
<g id="node4" class="node"><title>Node4</title>
<g id="a_node4"><a xlink:href="namespaceanonymous__namespace_02oreceager_8cpp_03.html#a7a88c7a7453bbfaca53eeac03b80a5d6" target="_top" xlink:title="anonymous_namespace\l\{oreceager::cpp\}::read">
<polygon fill="none" stroke="black" points="142,-147 142,-177 264,-177 264,-147 142,-147"/>
<text text-anchor="start" x="150" y="-165" font-family="Helvetica,sans-Serif" font-size="10.00">anonymous_namespace</text>
<text text-anchor="middle" x="203" y="-154" font-family="Helvetica,sans-Serif" font-size="10.00">{oreceager::cpp}::read</text>
</a>
</g>
</g>
<!-- Node1&#45;&gt;Node4 -->
<g id="edge3" class="edge"><title>Node1&#45;&gt;Node4</title>
<path fill="none" stroke="midnightblue" d="M104.277,-145.604C113.179,-147.097 122.573,-148.673 131.875,-150.234"/>
<polygon fill="midnightblue" stroke="midnightblue" points="131.465,-153.714 141.906,-151.917 132.623,-146.811 131.465,-153.714"/>
</g>
<!-- Node5 -->
<g id="node5" class="node"><title>Node5</title>
<g id="a_node5"><a xlink:href="namespaceanonymous__namespace_02oreceager_8cpp_03.html#ac18758bd7e358cee7461af925e192062" target="_top" xlink:title="anonymous_namespace\l\{oreceager::cpp\}::write">
<polygon fill="none" stroke="black" points="142,-98 142,-128 264,-128 264,-98 142,-98"/>
<text text-anchor="start" x="150" y="-116" font-family="Helvetica,sans-Serif" font-size="10.00">anonymous_namespace</text>
<text text-anchor="middle" x="203" y="-105" font-family="Helvetica,sans-Serif" font-size="10.00">{oreceager::cpp}::write</text>
</a>
</g>
</g>
<!-- Node1&#45;&gt;Node5 -->
<g id="edge4" class="edge"><title>Node1&#45;&gt;Node5</title>
<path fill="none" stroke="midnightblue" d="M104.277,-128.741C113.179,-127.307 122.573,-125.794 131.875,-124.295"/>
<polygon fill="midnightblue" stroke="midnightblue" points="132.59,-127.725 141.906,-122.68 131.477,-120.814 132.59,-127.725"/>
</g>
<!-- Node6 -->
<g id="node6" class="node"><title>Node6</title>
<g id="a_node6"><a xlink:href="namespaceanonymous__namespace_02norec_8cpp_03.html#a0a6ec6794c0677e7f91daf5cb3a57775" target="_top" xlink:title="anonymous_namespace\l\{norec::cpp\}::irrevoc">
<polygon fill="none" stroke="black" points="142,-49 142,-79 264,-79 264,-49 142,-49"/>
<text text-anchor="start" x="150" y="-67" font-family="Helvetica,sans-Serif" font-size="10.00">anonymous_namespace</text>
<text text-anchor="middle" x="203" y="-56" font-family="Helvetica,sans-Serif" font-size="10.00">{norec::cpp}::irrevoc</text>
</a>
</g>
</g>
<!-- Node1&#45;&gt;Node6 -->
<g id="edge5" class="edge"><title>Node1&#45;&gt;Node6</title>
<path fill="none" stroke="midnightblue" d="M69.0484,-127.378C86.278,-117.23 114.605,-101.071 140,-89 144.294,-86.9587 148.802,-84.9305 153.345,-82.9635"/>
<polygon fill="midnightblue" stroke="midnightblue" points="154.813,-86.1431 162.662,-79.0272 152.088,-79.6949 154.813,-86.1431"/>
</g>
<!-- Node7 -->
<g id="node7" class="node"><title>Node7</title>
<g id="a_node7"><a xlink:href="namespaceanonymous__namespace_02norec_8cpp_03.html#a964889786277f55bf219ecf6a8fbd4a1" target="_top" xlink:title="anonymous_namespace\l\{norec::cpp\}::onSwitchTo">
<polygon fill="none" stroke="black" points="140,-0 140,-30 266,-30 266,-0 140,-0"/>
<text text-anchor="start" x="148" y="-18" font-family="Helvetica,sans-Serif" font-size="10.00">anonymous_namespace</text>
<text text-anchor="middle" x="203" y="-7" font-family="Helvetica,sans-Serif" font-size="10.00">{norec::cpp}::onSwitchTo</text>
</a>
</g>
</g>
<!-- Node1&#45;&gt;Node7 -->
<g id="edge6" class="edge"><title>Node1&#45;&gt;Node7</title>
<path fill="none" stroke="midnightblue" d="M59.3128,-127.416C72.3085,-108.349 103.881,-65.324 140,-40 142.661,-38.1344 145.481,-36.3778 148.395,-34.7288"/>
<polygon fill="midnightblue" stroke="midnightblue" points="150.07,-37.8029 157.347,-30.1025 146.856,-31.5842 150.07,-37.8029"/>
</g>
</g>
</svg>
