<?xml version="1.0" encoding="UTF-8" standalone="no"?>
<!DOCTYPE svg PUBLIC "-//W3C//DTD SVG 1.1//EN"
 "http://www.w3.org/Graphics/SVG/1.1/DTD/svg11.dtd">
<!-- Generated by graphviz version 2.36.0 (20140111.2315)
 -->
<!-- Title: anonymous_namespace{BlockOperations::cpp}::write_subword Pages: 1 -->
<svg width="420pt" height="153pt"
 viewBox="0.00 0.00 420.00 153.00" xmlns="http://www.w3.org/2000/svg" xmlns:xlink="http://www.w3.org/1999/xlink">
<g id="graph0" class="graph" transform="scale(1 1) rotate(0) translate(4 149)">
<title>anonymous_namespace{BlockOperations::cpp}::write_subword</title>
<!-- Node1 -->
<g id="node1" class="node"><title>Node1</title>
<polygon fill="#bfbfbf" stroke="black" points="0,-68.5 0,-109.5 122,-109.5 122,-68.5 0,-68.5"/>
<text text-anchor="start" x="8" y="-97.5" font-family="Helvetica,sans-Serif" font-size="10.00">anonymous_namespace</text>
<text text-anchor="start" x="8" y="-86.5" font-family="Helvetica,sans-Serif" font-size="10.00">{BlockOperations::cpp}</text>
<text text-anchor="middle" x="61" y="-75.5" font-family="Helvetica,sans-Serif" font-size="10.00">::write_subword</text>
</g>
<!-- Node2 -->
<g id="node2" class="node"><title>Node2</title>
<g id="a_node2"><a xlink:href="namespaceitm2stm.html#a60fadbf1779483f2446ab9e30aa1f713" target="_top" xlink:title="itm2stm::block_write">
<polygon fill="none" stroke="black" points="158.5,-109.5 158.5,-128.5 265.5,-128.5 265.5,-109.5 158.5,-109.5"/>
<text text-anchor="middle" x="212" y="-116.5" font-family="Helvetica,sans-Serif" font-size="10.00">itm2stm::block_write</text>
</a>
</g>
</g>
<!-- Node1&#45;&gt;Node2 -->
<g id="edge1" class="edge"><title>Node1&#45;&gt;Node2</title>
<path fill="none" stroke="midnightblue" d="M132.241,-103.143C142.807,-105.27 153.487,-107.42 163.428,-109.422"/>
<polygon fill="midnightblue" stroke="midnightblue" points="132.669,-99.6584 122.175,-101.116 131.287,-106.521 132.669,-99.6584"/>
</g>
<!-- Node4 -->
<g id="node4" class="node"><title>Node4</title>
<g id="a_node4"><a xlink:href="namespaceitm2stm.html#ad658616dcf595ab736e02f0f4f274f67" target="_top" xlink:title="itm2stm::block_set">
<polygon fill="none" stroke="black" points="162,-49.5 162,-68.5 262,-68.5 262,-49.5 162,-49.5"/>
<text text-anchor="middle" x="212" y="-56.5" font-family="Helvetica,sans-Serif" font-size="10.00">itm2stm::block_set</text>
</a>
</g>
</g>
<!-- Node1&#45;&gt;Node4 -->
<g id="edge3" class="edge"><title>Node1&#45;&gt;Node4</title>
<path fill="none" stroke="midnightblue" d="M132.241,-74.8574C142.807,-72.7301 153.487,-70.5798 163.428,-68.5782"/>
<polygon fill="midnightblue" stroke="midnightblue" points="131.287,-71.4793 122.175,-76.8843 132.669,-78.3416 131.287,-71.4793"/>
</g>
<!-- Node3 -->
<g id="node3" class="node"><title>Node3</title>
<g id="a_node3"><a xlink:href="structitm2stm_1_1BlockWriter.html#a0319dc33fb20ef4b25814997264e9248" target="_top" xlink:title="itm2stm::BlockWriter\l::operator()">
<polygon fill="none" stroke="black" points="302.5,-115 302.5,-145 411.5,-145 411.5,-115 302.5,-115"/>
<text text-anchor="start" x="310.5" y="-133" font-family="Helvetica,sans-Serif" font-size="10.00">itm2stm::BlockWriter</text>
<text text-anchor="middle" x="357" y="-122" font-family="Helvetica,sans-Serif" font-size="10.00">::operator()</text>
</a>
</g>
</g>
<!-- Node2&#45;&gt;Node3 -->
<g id="edge2" class="edge"><title>Node2&#45;&gt;Node3</title>
<path fill="none" stroke="midnightblue" d="M276.056,-123.85C284.852,-124.527 293.821,-125.217 302.42,-125.878"/>
<polygon fill="midnightblue" stroke="midnightblue" points="276.081,-120.342 265.842,-123.065 275.544,-127.321 276.081,-120.342"/>
</g>
<!-- Node5 -->
<g id="node5" class="node"><title>Node5</title>
<g id="a_node5"><a xlink:href="libitm_8h.html#aba72a525646578b583d88b836970ef3e" target="_top" xlink:title="_ITM_memsetW">
<polygon fill="none" stroke="black" points="312.5,-76.5 312.5,-95.5 401.5,-95.5 401.5,-76.5 312.5,-76.5"/>
<text text-anchor="middle" x="357" y="-83.5" font-family="Helvetica,sans-Serif" font-size="10.00">_ITM_memsetW</text>
</a>
</g>
</g>
<!-- Node4&#45;&gt;Node5 -->
<g id="edge4" class="edge"><title>Node4&#45;&gt;Node5</title>
<path fill="none" stroke="midnightblue" d="M272.338,-70.2036C285.771,-72.7401 299.795,-75.388 312.437,-77.7748"/>
<polygon fill="midnightblue" stroke="midnightblue" points="272.688,-66.708 262.212,-68.2919 271.389,-73.5865 272.688,-66.708"/>
</g>
<!-- Node6 -->
<g id="node6" class="node"><title>Node6</title>
<g id="a_node6"><a xlink:href="libitm_8h.html#a09b91a78eb9499640214b6a85558ebee" target="_top" xlink:title="_ITM_memsetWaR">
<polygon fill="none" stroke="black" points="306,-38.5 306,-57.5 408,-57.5 408,-38.5 306,-38.5"/>
<text text-anchor="middle" x="357" y="-45.5" font-family="Helvetica,sans-Serif" font-size="10.00">_ITM_memsetWaR</text>
</a>
</g>
</g>
<!-- Node4&#45;&gt;Node6 -->
<g id="edge5" class="edge"><title>Node4&#45;&gt;Node6</title>
<path fill="none" stroke="midnightblue" d="M272.275,-54.4404C283.391,-53.5853 294.914,-52.6989 305.725,-51.8673"/>
<polygon fill="midnightblue" stroke="midnightblue" points="271.915,-50.9577 262.212,-55.2144 272.452,-57.9371 271.915,-50.9577"/>
</g>
<!-- Node7 -->
<g id="node7" class="node"><title>Node7</title>
<g id="a_node7"><a xlink:href="libitm_8h.html#a49b97152af59269d61b65201510acfbc" target="_top" xlink:title="_ITM_memsetWaW">
<polygon fill="none" stroke="black" points="305,-0.5 305,-19.5 409,-19.5 409,-0.5 305,-0.5"/>
<text text-anchor="middle" x="357" y="-7.5" font-family="Helvetica,sans-Serif" font-size="10.00">_ITM_memsetWaW</text>
</a>
</g>
</g>
<!-- Node4&#45;&gt;Node7 -->
<g id="edge6" class="edge"><title>Node4&#45;&gt;Node7</title>
<path fill="none" stroke="midnightblue" d="M250.537,-46.1376C274.868,-37.8006 306.032,-27.1217 328.159,-19.5399"/>
<polygon fill="midnightblue" stroke="midnightblue" points="249.237,-42.8834 240.911,-49.436 251.506,-49.5054 249.237,-42.8834"/>
</g>
</g>
</svg>
