<?xml version="1.0" encoding="UTF-8" standalone="no"?>
<!DOCTYPE svg PUBLIC "-//W3C//DTD SVG 1.1//EN"
 "http://www.w3.org/Graphics/SVG/1.1/DTD/svg11.dtd">
<!-- Generated by graphviz version 2.36.0 (20140111.2315)
 -->
<!-- Title: stm::sys_init Pages: 1 -->
<svg width="234pt" height="66pt"
 viewBox="0.00 0.00 234.00 66.00" xmlns="http://www.w3.org/2000/svg" xmlns:xlink="http://www.w3.org/1999/xlink">
<g id="graph0" class="graph" transform="scale(1 1) rotate(0) translate(4 62)">
<title>stm::sys_init</title>
<!-- Node1 -->
<g id="node1" class="node"><title>Node1</title>
<polygon fill="#bfbfbf" stroke="black" points="0.5,-19.5 0.5,-38.5 73.5,-38.5 73.5,-19.5 0.5,-19.5"/>
<text text-anchor="middle" x="37" y="-26.5" font-family="Helvetica,sans-Serif" font-size="10.00">stm::sys_init</text>
</g>
<!-- Node2 -->
<g id="node2" class="node"><title>Node2</title>
<g id="a_node2"><a xlink:href="stamp_8hpp.html#a7672bd41fd85f42a21e565c37108b09a" target="_top" xlink:title="tm_main_startup">
<polygon fill="none" stroke="black" points="123.5,-38.5 123.5,-57.5 212.5,-57.5 212.5,-38.5 123.5,-38.5"/>
<text text-anchor="middle" x="168" y="-45.5" font-family="Helvetica,sans-Serif" font-size="10.00">tm_main_startup</text>
</a>
</g>
</g>
<!-- Node1&#45;&gt;Node2 -->
<g id="edge1" class="edge"><title>Node1&#45;&gt;Node2</title>
<path fill="none" stroke="midnightblue" d="M83.6371,-35.7217C96.5124,-37.6181 110.487,-39.6764 123.249,-41.5561"/>
<polygon fill="midnightblue" stroke="midnightblue" points="83.9946,-32.2367 73.5913,-34.2421 82.9745,-39.162 83.9946,-32.2367"/>
</g>
<!-- Node3 -->
<g id="node3" class="node"><title>Node3</title>
<g id="a_node3"><a xlink:href="libitm-5_81_005_8cpp.html#ae97451d0a7481e2ad0e2b0c4196d5117" target="_top" xlink:title="_ITM_initializeProcess">
<polygon fill="none" stroke="black" points="110,-0.5 110,-19.5 226,-19.5 226,-0.5 110,-0.5"/>
<text text-anchor="middle" x="168" y="-7.5" font-family="Helvetica,sans-Serif" font-size="10.00">_ITM_initializeProcess</text>
</a>
</g>
</g>
<!-- Node1&#45;&gt;Node3 -->
<g id="edge2" class="edge"><title>Node1&#45;&gt;Node3</title>
<path fill="none" stroke="midnightblue" d="M83.6149,-22.2815C92.061,-21.0375 100.981,-19.7237 109.722,-18.4363"/>
<polygon fill="midnightblue" stroke="midnightblue" points="82.9745,-18.838 73.5913,-23.7579 83.9946,-25.7633 82.9745,-18.838"/>
</g>
</g>
</svg>
