<?xml version="1.0" encoding="UTF-8" standalone="no"?>
<!DOCTYPE svg PUBLIC "-//W3C//DTD SVG 1.1//EN"
 "http://www.w3.org/Graphics/SVG/1.1/DTD/svg11.dtd">
<!-- Generated by graphviz version 2.36.0 (20140111.2315)
 -->
<!-- Title: itm2stm::block_set Pages: 1 -->
<svg width="248pt" height="104pt"
 viewBox="0.00 0.00 248.00 104.00" xmlns="http://www.w3.org/2000/svg" xmlns:xlink="http://www.w3.org/1999/xlink">
<g id="graph0" class="graph" transform="scale(1 1) rotate(0) translate(4 100)">
<title>itm2stm::block_set</title>
<!-- Node1 -->
<g id="node1" class="node"><title>Node1</title>
<polygon fill="#bfbfbf" stroke="black" points="0,-38.5 0,-57.5 100,-57.5 100,-38.5 0,-38.5"/>
<text text-anchor="middle" x="50" y="-45.5" font-family="Helvetica,sans-Serif" font-size="10.00">itm2stm::block_set</text>
</g>
<!-- Node2 -->
<g id="node2" class="node"><title>Node2</title>
<g id="a_node2"><a xlink:href="libitm_8h.html#aba72a525646578b583d88b836970ef3e" target="_top" xlink:title="_ITM_memsetW">
<polygon fill="none" stroke="black" points="143.5,-76.5 143.5,-95.5 232.5,-95.5 232.5,-76.5 143.5,-76.5"/>
<text text-anchor="middle" x="188" y="-83.5" font-family="Helvetica,sans-Serif" font-size="10.00">_ITM_memsetW</text>
</a>
</g>
</g>
<!-- Node1&#45;&gt;Node2 -->
<g id="edge1" class="edge"><title>Node1&#45;&gt;Node2</title>
<path fill="none" stroke="midnightblue" d="M95.0866,-60.3183C113.772,-65.5393 135.218,-71.5316 152.692,-76.4141"/>
<polygon fill="midnightblue" stroke="midnightblue" points="95.8915,-56.9092 85.3185,-57.589 94.0078,-63.651 95.8915,-56.9092"/>
</g>
<!-- Node3 -->
<g id="node3" class="node"><title>Node3</title>
<g id="a_node3"><a xlink:href="libitm_8h.html#a09b91a78eb9499640214b6a85558ebee" target="_top" xlink:title="_ITM_memsetWaR">
<polygon fill="none" stroke="black" points="137,-38.5 137,-57.5 239,-57.5 239,-38.5 137,-38.5"/>
<text text-anchor="middle" x="188" y="-45.5" font-family="Helvetica,sans-Serif" font-size="10.00">_ITM_memsetWaR</text>
</a>
</g>
</g>
<!-- Node1&#45;&gt;Node3 -->
<g id="edge2" class="edge"><title>Node1&#45;&gt;Node3</title>
<path fill="none" stroke="midnightblue" d="M110.276,-48C119.053,-48 128.027,-48 136.6,-48"/>
<polygon fill="midnightblue" stroke="midnightblue" points="110.099,-44.5001 100.099,-48 110.099,-51.5001 110.099,-44.5001"/>
</g>
<!-- Node4 -->
<g id="node4" class="node"><title>Node4</title>
<g id="a_node4"><a xlink:href="libitm_8h.html#a49b97152af59269d61b65201510acfbc" target="_top" xlink:title="_ITM_memsetWaW">
<polygon fill="none" stroke="black" points="136,-0.5 136,-19.5 240,-19.5 240,-0.5 136,-0.5"/>
<text text-anchor="middle" x="188" y="-7.5" font-family="Helvetica,sans-Serif" font-size="10.00">_ITM_memsetWaW</text>
</a>
</g>
</g>
<!-- Node1&#45;&gt;Node4 -->
<g id="edge3" class="edge"><title>Node1&#45;&gt;Node4</title>
<path fill="none" stroke="midnightblue" d="M95.0866,-35.6817C113.772,-30.4607 135.218,-24.4684 152.692,-19.5859"/>
<polygon fill="midnightblue" stroke="midnightblue" points="94.0078,-32.349 85.3185,-38.411 95.8915,-39.0908 94.0078,-32.349"/>
</g>
</g>
</svg>
