<?xml version="1.0" encoding="UTF-8" standalone="no"?>
<!DOCTYPE svg PUBLIC "-//W3C//DTD SVG 1.1//EN"
 "http://www.w3.org/Graphics/SVG/1.1/DTD/svg11.dtd">
<!-- Generated by graphviz version 2.36.0 (20140111.2315)
 -->
<!-- Title: stm::begin_blocker Pages: 1 -->
<!--zoomable 399 -->
<svg id="main" version="1.1" xmlns="http://www.w3.org/2000/svg" xmlns:xlink="http://www.w3.org/1999/xlink" xml:space="preserve" onload="init(evt)">
<style type="text/css"><![CDATA[
.edge:hover path { stroke: red; }
.edge:hover polygon { stroke: red; fill: red; }
]]></style>
<script type="text/javascript"><![CDATA[
var edges = document.getElementsByTagName('g');
if (edges && edges.length) {
  for (var i=0;i<edges.length;i++) {
    if (edges[i].id.substr(0,4)=='edge') {
      edges[i].setAttribute('class','edge');
    }
  }
}
]]></script>
        <defs>
                <circle id="rim" cx="0" cy="0" r="7"/>
                <circle id="rim2" cx="0" cy="0" r="3.5"/>
                <g id="zoomPlus">
                        <use xlink:href="#rim" fill="#404040">
                                <set attributeName="fill" to="#808080" begin="zoomplus.mouseover" end="zoomplus.mouseout"/>
                        </use>
                        <path d="M-4,0h8M0,-4v8" fill="none" stroke="white" stroke-width="1.5" pointer-events="none"/>
                </g>
                <g id="zoomMin">
                        <use xlink:href="#rim" fill="#404040">
                                <set attributeName="fill" to="#808080" begin="zoomminus.mouseover" end="zoomminus.mouseout"/>
                        </use>
                        <path d="M-4,0h8" fill="none" stroke="white" stroke-width="1.5" pointer-events="none"/>
                </g>
                <g id="dirArrow">
                        <path fill="none" stroke="white" stroke-width="1.5" d="M0,-3.0v7 M-2.5,-0.5L0,-3.0L2.5,-0.5"/>
                </g>
               <g id="resetDef">
                       <use xlink:href="#rim2" fill="#404040">
                               <set attributeName="fill" to="#808080" begin="reset.mouseover" end="reset.mouseout"/>
                       </use>
               </g>
        </defs>

<script type="text/javascript">
var viewWidth = 900;
var viewHeight = 399;
var sectionId = 'dynsection-5';
</script>
<script xlink:href="svgpan.js"/>
<svg id="graph" class="graph">
<g id="viewport">
<title>stm::begin_blocker</title>
<!-- Node1 -->
<g id="node1" class="node"><title>Node1</title>
<polygon fill="#bfbfbf" stroke="black" points="0.5,-185.5 0.5,-204.5 99.5,-204.5 99.5,-185.5 0.5,-185.5"/>
<text text-anchor="middle" x="50" y="-192.5" font-family="Helvetica,sans-Serif" font-size="10.00">stm::begin_blocker</text>
</g>
<!-- Node2 -->
<g id="node2" class="node"><title>Node2</title>
<g id="a_node2"><a xlink:href="structstm_1_1StrongHourglassCM.html#a558fad680abe604244a1c247b0667af8" target="_top" xlink:title="stm::StrongHourglassCM\l::onBegin">
<polygon fill="none" stroke="black" points="142,-361 142,-391 270,-391 270,-361 142,-361"/>
<text text-anchor="start" x="150" y="-379" font-family="Helvetica,sans-Serif" font-size="10.00">stm::StrongHourglassCM</text>
<text text-anchor="middle" x="206" y="-368" font-family="Helvetica,sans-Serif" font-size="10.00">::onBegin</text>
</a>
</g>
</g>
<!-- Node1&#45;&gt;Node2 -->
<g id="edge1" class="edge"><title>Node1&#45;&gt;Node2</title>
<path fill="none" stroke="midnightblue" d="M56.5334,-214.293C66.8541,-246.955 92.0705,-313.26 136,-351 140.446,-354.819 145.522,-358.073 150.858,-360.842"/>
<polygon fill="midnightblue" stroke="midnightblue" points="59.8454,-213.154 53.5989,-204.596 53.1455,-215.181 59.8454,-213.154"/>
</g>
<!-- Node3 -->
<g id="node3" class="node"><title>Node3</title>
<g id="a_node3"><a xlink:href="structstm_1_1HourglassCM.html#a0e93052d8f3cffebfc3cf74c7fd155ae" target="_top" xlink:title="stm::HourglassCM::onBegin">
<polygon fill="none" stroke="black" points="136,-322.5 136,-341.5 276,-341.5 276,-322.5 136,-322.5"/>
<text text-anchor="middle" x="206" y="-329.5" font-family="Helvetica,sans-Serif" font-size="10.00">stm::HourglassCM::onBegin</text>
</a>
</g>
</g>
<!-- Node1&#45;&gt;Node3 -->
<g id="edge2" class="edge"><title>Node1&#45;&gt;Node3</title>
<path fill="none" stroke="midnightblue" d="M59.6076,-213.669C72.5216,-239.611 99.3614,-286.266 136,-312 142.226,-316.373 149.402,-319.797 156.723,-322.477"/>
<polygon fill="midnightblue" stroke="midnightblue" points="62.7004,-212.024 55.2107,-204.53 56.3925,-215.059 62.7004,-212.024"/>
</g>
<!-- Node4 -->
<g id="node4" class="node"><title>Node4</title>
<g id="a_node4"><a xlink:href="structstm_1_1HourglassBackoffCM.html#a92de4e5a4cb98e10206f885550f72086" target="_top" xlink:title="stm::HourglassBackoffCM\l::onBegin">
<polygon fill="none" stroke="black" points="139.5,-273 139.5,-303 272.5,-303 272.5,-273 139.5,-273"/>
<text text-anchor="start" x="147.5" y="-291" font-family="Helvetica,sans-Serif" font-size="10.00">stm::HourglassBackoffCM</text>
<text text-anchor="middle" x="206" y="-280" font-family="Helvetica,sans-Serif" font-size="10.00">::onBegin</text>
</a>
</g>
</g>
<!-- Node1&#45;&gt;Node4 -->
<g id="edge3" class="edge"><title>Node1&#45;&gt;Node4</title>
<path fill="none" stroke="midnightblue" d="M68.3273,-211.715C84.6861,-226.769 110.455,-248.672 136,-263 142.556,-266.677 149.756,-269.988 156.953,-272.905"/>
<polygon fill="midnightblue" stroke="midnightblue" points="70.3695,-208.832 60.6814,-204.543 65.5805,-213.937 70.3695,-208.832"/>
</g>
<!-- Node5 -->
<g id="node5" class="node"><title>Node5</title>
<g id="a_node5"><a xlink:href="namespacestm.html#aa80b25b7fbf60cf912475203a5ba2d0c" target="_top" xlink:title="stm::become_irrevoc">
<polygon fill="none" stroke="black" points="152,-234.5 152,-253.5 260,-253.5 260,-234.5 152,-234.5"/>
<text text-anchor="middle" x="206" y="-241.5" font-family="Helvetica,sans-Serif" font-size="10.00">stm::become_irrevoc</text>
</a>
</g>
</g>
<!-- Node1&#45;&gt;Node5 -->
<g id="edge4" class="edge"><title>Node1&#45;&gt;Node5</title>
<path fill="none" stroke="midnightblue" d="M87.9305,-208.019C102.812,-213.155 120.172,-219.009 136,-224 147.3,-227.563 159.715,-231.236 170.862,-234.447"/>
<polygon fill="midnightblue" stroke="midnightblue" points="88.6676,-204.57 78.0728,-204.597 86.372,-211.183 88.6676,-204.57"/>
</g>
<!-- Node6 -->
<g id="node6" class="node"><title>Node6</title>
<g id="a_node6"><a xlink:href="namespaceanonymous__namespace_02profiling_8cpp_03.html#ad2de7e300bb6e53bf611aaf35c46d80b" target="_top" xlink:title="anonymous_namespace\l\{profiling::cpp\}::collect\l_profiles">
<polygon fill="none" stroke="black" points="145,-174.5 145,-215.5 267,-215.5 267,-174.5 145,-174.5"/>
<text text-anchor="start" x="153" y="-203.5" font-family="Helvetica,sans-Serif" font-size="10.00">anonymous_namespace</text>
<text text-anchor="start" x="153" y="-192.5" font-family="Helvetica,sans-Serif" font-size="10.00">{profiling::cpp}::collect</text>
<text text-anchor="middle" x="206" y="-181.5" font-family="Helvetica,sans-Serif" font-size="10.00">_profiles</text>
</a>
</g>
</g>
<!-- Node1&#45;&gt;Node6 -->
<g id="edge5" class="edge"><title>Node1&#45;&gt;Node6</title>
<path fill="none" stroke="midnightblue" d="M110.046,-195C121.488,-195 133.49,-195 144.963,-195"/>
<polygon fill="midnightblue" stroke="midnightblue" points="109.727,-191.5 99.7266,-195 109.727,-198.5 109.727,-191.5"/>
</g>
<!-- Node13 -->
<g id="node13" class="node"><title>Node13</title>
<g id="a_node13"><a xlink:href="namespaceanonymous__namespace_02profiling_8cpp_03.html#ac7a6d6bebec6c014c2d09c19efb4390c" target="_top" xlink:title="anonymous_namespace\l\{profiling::cpp\}::change\l_algorithm">
<polygon fill="none" stroke="black" points="145,-114.5 145,-155.5 267,-155.5 267,-114.5 145,-114.5"/>
<text text-anchor="start" x="153" y="-143.5" font-family="Helvetica,sans-Serif" font-size="10.00">anonymous_namespace</text>
<text text-anchor="start" x="153" y="-132.5" font-family="Helvetica,sans-Serif" font-size="10.00">{profiling::cpp}::change</text>
<text text-anchor="middle" x="206" y="-121.5" font-family="Helvetica,sans-Serif" font-size="10.00">_algorithm</text>
</a>
</g>
</g>
<!-- Node1&#45;&gt;Node13 -->
<g id="edge12" class="edge"><title>Node1&#45;&gt;Node13</title>
<path fill="none" stroke="midnightblue" d="M84.8997,-181.792C104.665,-174.091 130.02,-164.213 152.336,-155.518"/>
<polygon fill="midnightblue" stroke="midnightblue" points="83.4489,-178.601 75.4018,-185.493 85.9902,-185.124 83.4489,-178.601"/>
</g>
<!-- Node14 -->
<g id="node14" class="node"><title>Node14</title>
<g id="a_node14"><a xlink:href="namespacestm.html#ad9c526edd45fa3fe417fc3b8ee75467a" target="_top" xlink:title="stm::profile_oncomplete">
<polygon fill="none" stroke="black" points="145.5,-76.5 145.5,-95.5 266.5,-95.5 266.5,-76.5 145.5,-76.5"/>
<text text-anchor="middle" x="206" y="-83.5" font-family="Helvetica,sans-Serif" font-size="10.00">stm::profile_oncomplete</text>
</a>
</g>
</g>
<!-- Node1&#45;&gt;Node14 -->
<g id="edge14" class="edge"><title>Node1&#45;&gt;Node14</title>
<path fill="none" stroke="midnightblue" d="M63.225,-177.047C78.0806,-156.598 105.033,-123.618 136,-105 142.389,-101.159 149.574,-98.0741 156.83,-95.6028"/>
<polygon fill="midnightblue" stroke="midnightblue" points="60.3657,-175.028 57.4509,-185.214 66.0816,-179.069 60.3657,-175.028"/>
</g>
<!-- Node15 -->
<g id="node15" class="node"><title>Node15</title>
<g id="a_node15"><a xlink:href="structstm_1_1TxThread.html#a27aa264d621bb5d008571c6aab47a9ba" target="_top" xlink:title="stm::TxThread::TxThread">
<polygon fill="none" stroke="black" points="142,-38.5 142,-57.5 270,-57.5 270,-38.5 142,-38.5"/>
<text text-anchor="middle" x="206" y="-45.5" font-family="Helvetica,sans-Serif" font-size="10.00">stm::TxThread::TxThread</text>
</a>
</g>
</g>
<!-- Node1&#45;&gt;Node15 -->
<g id="edge15" class="edge"><title>Node1&#45;&gt;Node15</title>
<path fill="none" stroke="midnightblue" d="M58.5636,-175.718C70.6254,-147.514 96.9145,-95.2978 136,-67 141.334,-63.1382 147.417,-60.061 153.71,-57.6091"/>
<polygon fill="midnightblue" stroke="midnightblue" points="55.2092,-174.672 54.6405,-185.252 61.6826,-177.336 55.2092,-174.672"/>
</g>
<!-- Node23 -->
<g id="node23" class="node"><title>Node23</title>
<g id="a_node23"><a xlink:href="namespacestm.html#a945573c8ffc100f3908f1373d12ebffd" target="_top" xlink:title="stm::set_policy">
<polygon fill="none" stroke="black" points="164.5,-0.5 164.5,-19.5 247.5,-19.5 247.5,-0.5 164.5,-0.5"/>
<text text-anchor="middle" x="206" y="-7.5" font-family="Helvetica,sans-Serif" font-size="10.00">stm::set_policy</text>
</a>
</g>
</g>
<!-- Node1&#45;&gt;Node23 -->
<g id="edge23" class="edge"><title>Node1&#45;&gt;Node23</title>
<path fill="none" stroke="midnightblue" d="M55.4657,-175.548C64.4778,-140.764 88.1875,-67.9122 136,-29 144.095,-22.4119 154.307,-18.1016 164.374,-15.2836"/>
<polygon fill="midnightblue" stroke="midnightblue" points="52.0291,-174.867 53.0442,-185.413 58.8273,-176.536 52.0291,-174.867"/>
</g>
<!-- Node7 -->
<g id="node7" class="node"><title>Node7</title>
<g id="a_node7"><a xlink:href="namespacestm.html#a7691058d97dd9bb3444ab2200a90e54b" target="_top" xlink:title="stm::trigger_common">
<polygon fill="none" stroke="black" points="323.5,-177.5 323.5,-196.5 432.5,-196.5 432.5,-177.5 323.5,-177.5"/>
<text text-anchor="middle" x="378" y="-184.5" font-family="Helvetica,sans-Serif" font-size="10.00">stm::trigger_common</text>
</a>
</g>
</g>
<!-- Node6&#45;&gt;Node7 -->
<g id="edge6" class="edge"><title>Node6&#45;&gt;Node7</title>
<path fill="none" stroke="midnightblue" d="M277.817,-191.667C293.022,-190.952 308.851,-190.207 323.282,-189.528"/>
<polygon fill="midnightblue" stroke="midnightblue" points="277.239,-188.191 267.414,-192.157 277.568,-195.183 277.239,-188.191"/>
</g>
<!-- Node8 -->
<g id="node8" class="node"><title>Node8</title>
<g id="a_node8"><a xlink:href="structstm_1_1AbortWaitTrigger.html#a569a71f4008818dba88b07dd6757e33f" target="_top" xlink:title="stm::AbortWaitTrigger\l::onCommitLock">
<polygon fill="none" stroke="black" points="480.5,-221 480.5,-251 593.5,-251 593.5,-221 480.5,-221"/>
<text text-anchor="start" x="488.5" y="-239" font-family="Helvetica,sans-Serif" font-size="10.00">stm::AbortWaitTrigger</text>
<text text-anchor="middle" x="537" y="-228" font-family="Helvetica,sans-Serif" font-size="10.00">::onCommitLock</text>
</a>
</g>
</g>
<!-- Node7&#45;&gt;Node8 -->
<g id="edge7" class="edge"><title>Node7&#45;&gt;Node8</title>
<path fill="none" stroke="midnightblue" d="M419.472,-199.631C440.341,-206.145 465.938,-214.133 487.82,-220.963"/>
<polygon fill="midnightblue" stroke="midnightblue" points="420.233,-196.202 409.644,-196.564 418.147,-202.884 420.233,-196.202"/>
</g>
<!-- Node9 -->
<g id="node9" class="node"><title>Node9</title>
<g id="a_node9"><a xlink:href="structstm_1_1AbortWaitTrigger.html#afb8db71071daad0585654b95ff8edd04" target="_top" xlink:title="stm::AbortWaitTrigger\l::onAbort">
<polygon fill="none" stroke="black" points="480.5,-172 480.5,-202 593.5,-202 593.5,-172 480.5,-172"/>
<text text-anchor="start" x="488.5" y="-190" font-family="Helvetica,sans-Serif" font-size="10.00">stm::AbortWaitTrigger</text>
<text text-anchor="middle" x="537" y="-179" font-family="Helvetica,sans-Serif" font-size="10.00">::onAbort</text>
</a>
</g>
</g>
<!-- Node7&#45;&gt;Node9 -->
<g id="edge8" class="edge"><title>Node7&#45;&gt;Node9</title>
<path fill="none" stroke="midnightblue" d="M442.852,-187C455.242,-187 468.137,-187 480.243,-187"/>
<polygon fill="midnightblue" stroke="midnightblue" points="442.591,-183.5 432.591,-187 442.591,-190.5 442.591,-183.5"/>
</g>
<!-- Node11 -->
<g id="node11" class="node"><title>Node11</title>
<g id="a_node11"><a xlink:href="structstm_1_1CommitTrigger.html#acdf3280966d01d057c2efc8ff1792aab" target="_top" xlink:title="stm::CommitTrigger\l::onCommitSTM">
<polygon fill="none" stroke="black" points="485,-123 485,-153 589,-153 589,-123 485,-123"/>
<text text-anchor="start" x="493" y="-141" font-family="Helvetica,sans-Serif" font-size="10.00">stm::CommitTrigger</text>
<text text-anchor="middle" x="537" y="-130" font-family="Helvetica,sans-Serif" font-size="10.00">::onCommitSTM</text>
</a>
</g>
</g>
<!-- Node7&#45;&gt;Node11 -->
<g id="edge10" class="edge"><title>Node7&#45;&gt;Node11</title>
<path fill="none" stroke="midnightblue" d="M419.472,-174.369C440.341,-167.855 465.938,-159.867 487.82,-153.037"/>
<polygon fill="midnightblue" stroke="midnightblue" points="418.147,-171.116 409.644,-177.436 420.233,-177.798 418.147,-171.116"/>
</g>
<!-- Node10 -->
<g id="node10" class="node"><title>Node10</title>
<g id="a_node10"><a xlink:href="structstm_1_1CommitTrigger.html#aee144a92ac151fa1aae6942b04f68685" target="_top" xlink:title="stm::CommitTrigger\l::onAbort">
<polygon fill="none" stroke="black" points="633,-172 633,-202 737,-202 737,-172 633,-172"/>
<text text-anchor="start" x="641" y="-190" font-family="Helvetica,sans-Serif" font-size="10.00">stm::CommitTrigger</text>
<text text-anchor="middle" x="685" y="-179" font-family="Helvetica,sans-Serif" font-size="10.00">::onAbort</text>
</a>
</g>
</g>
<!-- Node9&#45;&gt;Node10 -->
<g id="edge9" class="edge"><title>Node9&#45;&gt;Node10</title>
<path fill="none" stroke="midnightblue" d="M603.709,-187C613.486,-187 623.44,-187 632.859,-187"/>
<polygon fill="midnightblue" stroke="midnightblue" points="603.613,-183.5 593.613,-187 603.613,-190.5 603.613,-183.5"/>
</g>
<!-- Node12 -->
<g id="node12" class="node"><title>Node12</title>
<g id="a_node12"><a xlink:href="structstm_1_1CommitTrigger.html#a4d706454d226b9100a972d36bb3be88e" target="_top" xlink:title="stm::CommitTrigger\l::onCommitLock">
<polygon fill="none" stroke="black" points="633,-123 633,-153 737,-153 737,-123 633,-123"/>
<text text-anchor="start" x="641" y="-141" font-family="Helvetica,sans-Serif" font-size="10.00">stm::CommitTrigger</text>
<text text-anchor="middle" x="685" y="-130" font-family="Helvetica,sans-Serif" font-size="10.00">::onCommitLock</text>
</a>
</g>
</g>
<!-- Node11&#45;&gt;Node12 -->
<g id="edge11" class="edge"><title>Node11&#45;&gt;Node12</title>
<path fill="none" stroke="midnightblue" d="M599.177,-138C610.339,-138 621.88,-138 632.718,-138"/>
<polygon fill="midnightblue" stroke="midnightblue" points="599.064,-134.5 589.064,-138 599.064,-141.5 599.064,-134.5"/>
</g>
<!-- Node13&#45;&gt;Node7 -->
<g id="edge13" class="edge"><title>Node13&#45;&gt;Node7</title>
<path fill="none" stroke="midnightblue" d="M277.186,-156.469C301.099,-163.783 326.625,-171.591 345.878,-177.48"/>
<polygon fill="midnightblue" stroke="midnightblue" points="278.001,-153.058 267.414,-153.48 275.953,-159.752 278.001,-153.058"/>
</g>
<!-- Node16 -->
<g id="node16" class="node"><title>Node16</title>
<g id="a_node16"><a xlink:href="structstm_1_1TxThread.html#a4e78a4f0dcb5010456aa031d3fda70ac" target="_top" xlink:title="stm::TxThread::thread_init">
<polygon fill="none" stroke="black" points="312.5,-38.5 312.5,-57.5 443.5,-57.5 443.5,-38.5 312.5,-38.5"/>
<text text-anchor="middle" x="378" y="-45.5" font-family="Helvetica,sans-Serif" font-size="10.00">stm::TxThread::thread_init</text>
</a>
</g>
</g>
<!-- Node15&#45;&gt;Node16 -->
<g id="edge16" class="edge"><title>Node15&#45;&gt;Node16</title>
<path fill="none" stroke="midnightblue" d="M280.367,-48C290.966,-48 301.811,-48 312.226,-48"/>
<polygon fill="midnightblue" stroke="midnightblue" points="280.302,-44.5001 270.302,-48 280.302,-51.5001 280.302,-44.5001"/>
</g>
<!-- Node17 -->
<g id="node17" class="node"><title>Node17</title>
<g id="a_node17"><a xlink:href="namespacestm.html#a3de69c665250e84ef5238477ae8524b0" target="_top" xlink:title="stm::thread_init">
<polygon fill="none" stroke="black" points="495,-42.5 495,-61.5 579,-61.5 579,-42.5 495,-42.5"/>
<text text-anchor="middle" x="537" y="-49.5" font-family="Helvetica,sans-Serif" font-size="10.00">stm::thread_init</text>
</a>
</g>
</g>
<!-- Node16&#45;&gt;Node17 -->
<g id="edge17" class="edge"><title>Node16&#45;&gt;Node17</title>
<path fill="none" stroke="midnightblue" d="M453.939,-49.9093C467.985,-50.2671 482.184,-50.6289 494.731,-50.9486"/>
<polygon fill="midnightblue" stroke="midnightblue" points="453.85,-46.406 443.764,-49.65 453.672,-53.4037 453.85,-46.406"/>
</g>
<!-- Node20 -->
<g id="node20" class="node"><title>Node20</title>
<g id="a_node20"><a xlink:href="libitm_8h.html#a5edce724a00eff63931f07466901ef7d" target="_top" xlink:title="_ITM_getTransaction">
<polygon fill="none" stroke="black" points="482.5,-4.5 482.5,-23.5 591.5,-23.5 591.5,-4.5 482.5,-4.5"/>
<text text-anchor="middle" x="537" y="-11.5" font-family="Helvetica,sans-Serif" font-size="10.00">_ITM_getTransaction</text>
</a>
</g>
</g>
<!-- Node16&#45;&gt;Node20 -->
<g id="edge20" class="edge"><title>Node16&#45;&gt;Node20</title>
<path fill="none" stroke="midnightblue" d="M432.978,-36.3105C452.204,-32.147 473.611,-27.511 491.909,-23.5485"/>
<polygon fill="midnightblue" stroke="midnightblue" points="432.184,-32.9013 423.151,-38.4386 433.665,-39.7427 432.184,-32.9013"/>
</g>
<!-- Node18 -->
<g id="node18" class="node"><title>Node18</title>
<g id="a_node18"><a xlink:href="stamp_8hpp.html#a7672bd41fd85f42a21e565c37108b09a" target="_top" xlink:title="tm_main_startup">
<polygon fill="none" stroke="black" points="640.5,-80.5 640.5,-99.5 729.5,-99.5 729.5,-80.5 640.5,-80.5"/>
<text text-anchor="middle" x="685" y="-87.5" font-family="Helvetica,sans-Serif" font-size="10.00">tm_main_startup</text>
</a>
</g>
</g>
<!-- Node17&#45;&gt;Node18 -->
<g id="edge18" class="edge"><title>Node17&#45;&gt;Node18</title>
<path fill="none" stroke="midnightblue" d="M584.536,-64.1121C604.87,-69.4044 628.371,-75.5213 647.423,-80.4799"/>
<polygon fill="midnightblue" stroke="midnightblue" points="585.401,-60.7207 574.842,-61.589 583.638,-67.4951 585.401,-60.7207"/>
</g>
<!-- Node19 -->
<g id="node19" class="node"><title>Node19</title>
<g id="a_node19"><a xlink:href="stamp_8hpp.html#a4f805a0e1a5d6f581e1d4dafbc83fdf0" target="_top" xlink:title="tm_start">
<polygon fill="none" stroke="black" points="658.5,-42.5 658.5,-61.5 711.5,-61.5 711.5,-42.5 658.5,-42.5"/>
<text text-anchor="middle" x="685" y="-49.5" font-family="Helvetica,sans-Serif" font-size="10.00">tm_start</text>
</a>
</g>
</g>
<!-- Node17&#45;&gt;Node19 -->
<g id="edge19" class="edge"><title>Node17&#45;&gt;Node19</title>
<path fill="none" stroke="midnightblue" d="M589.195,-52C612.595,-52 639.288,-52 658.374,-52"/>
<polygon fill="midnightblue" stroke="midnightblue" points="589.058,-48.5001 579.058,-52 589.058,-55.5001 589.058,-48.5001"/>
</g>
<!-- Node21 -->
<g id="node21" class="node"><title>Node21</title>
<g id="a_node21"><a xlink:href="libitm-5_81_005_8cpp.html#a5cde4a3f0f8e98db7d17e4a6ed3859ca" target="_top" xlink:title="_ITM_initializeThread">
<polygon fill="none" stroke="black" points="630,-4.5 630,-23.5 740,-23.5 740,-4.5 630,-4.5"/>
<text text-anchor="middle" x="685" y="-11.5" font-family="Helvetica,sans-Serif" font-size="10.00">_ITM_initializeThread</text>
</a>
</g>
</g>
<!-- Node20&#45;&gt;Node21 -->
<g id="edge21" class="edge"><title>Node20&#45;&gt;Node21</title>
<path fill="none" stroke="midnightblue" d="M601.667,-14C611.109,-14 620.762,-14 629.982,-14"/>
<polygon fill="midnightblue" stroke="midnightblue" points="601.536,-10.5001 591.536,-14 601.536,-17.5001 601.536,-10.5001"/>
</g>
<!-- Node22 -->
<g id="node22" class="node"><title>Node22</title>
<g id="a_node22"><a xlink:href="libitm-5_81_005_8cpp.html#ae97451d0a7481e2ad0e2b0c4196d5117" target="_top" xlink:title="_ITM_initializeProcess">
<polygon fill="none" stroke="black" points="776,-4.5 776,-23.5 892,-23.5 892,-4.5 776,-4.5"/>
<text text-anchor="middle" x="834" y="-11.5" font-family="Helvetica,sans-Serif" font-size="10.00">_ITM_initializeProcess</text>
</a>
</g>
</g>
<!-- Node21&#45;&gt;Node22 -->
<g id="edge22" class="edge"><title>Node21&#45;&gt;Node22</title>
<path fill="none" stroke="midnightblue" d="M750.532,-14C758.996,-14 767.62,-14 775.947,-14"/>
<polygon fill="midnightblue" stroke="midnightblue" points="750.32,-10.5001 740.32,-14 750.32,-17.5001 750.32,-10.5001"/>
</g>
<!-- Node24 -->
<g id="node24" class="node"><title>Node24</title>
<g id="a_node24"><a xlink:href="namespacestm.html#aac29e08fdc4a251a12088bd799e7a4f4" target="_top" xlink:title="stm::sys_init">
<polygon fill="none" stroke="black" points="341.5,-0.5 341.5,-19.5 414.5,-19.5 414.5,-0.5 341.5,-0.5"/>
<text text-anchor="middle" x="378" y="-7.5" font-family="Helvetica,sans-Serif" font-size="10.00">stm::sys_init</text>
</a>
</g>
</g>
<!-- Node23&#45;&gt;Node24 -->
<g id="edge24" class="edge"><title>Node23&#45;&gt;Node24</title>
<path fill="none" stroke="midnightblue" d="M257.726,-10C284.612,-10 316.994,-10 341.228,-10"/>
<polygon fill="midnightblue" stroke="midnightblue" points="257.719,-6.5001 247.719,-10 257.719,-13.5001 257.719,-6.5001"/>
</g>
</g>
</svg>
        <g id="navigator" transform="translate(0 0)" fill="#404254">
                <rect fill="#f2f5e9" fill-opacity="0.5" stroke="#606060" stroke-width=".5" x="0" y="0" width="60" height="60"/>
                <use id="zoomplus" xlink:href="#zoomPlus" x="17" y="9" onmousedown="handleZoom(evt,'in')"/>
                <use id="zoomminus" xlink:href="#zoomMin" x="42" y="9" onmousedown="handleZoom(evt,'out')"/>
                <use id="reset" xlink:href="#resetDef" x="30" y="36" onmousedown="handleReset()"/>
                <g id="arrowUp" xlink:href="#dirArrow" transform="translate(30 24)" onmousedown="handlePan(0,-1)">
                  <use xlink:href="#rim" fill="#404040">
                        <set attributeName="fill" to="#808080" begin="arrowUp.mouseover" end="arrowUp.mouseout"/>
                  </use>
                  <path fill="none" stroke="white" stroke-width="1.5" d="M0,-3.0v7 M-2.5,-0.5L0,-3.0L2.5,-0.5"/>
                </g>
                <g id="arrowRight" xlink:href="#dirArrow" transform="rotate(90) translate(36 -43)" onmousedown="handlePan(1,0)">
                  <use xlink:href="#rim" fill="#404040">
                        <set attributeName="fill" to="#808080" begin="arrowRight.mouseover" end="arrowRight.mouseout"/>
                  </use>
                  <path fill="none" stroke="white" stroke-width="1.5" d="M0,-3.0v7 M-2.5,-0.5L0,-3.0L2.5,-0.5"/>
                </g>
                <g id="arrowDown" xlink:href="#dirArrow" transform="rotate(180) translate(-30 -48)" onmousedown="handlePan(0,1)">
                  <use xlink:href="#rim" fill="#404040">
                        <set attributeName="fill" to="#808080" begin="arrowDown.mouseover" end="arrowDown.mouseout"/>
                  </use>
                  <path fill="none" stroke="white" stroke-width="1.5" d="M0,-3.0v7 M-2.5,-0.5L0,-3.0L2.5,-0.5"/>
                </g>
                <g id="arrowLeft" xlink:href="#dirArrow" transform="rotate(270) translate(-36 17)" onmousedown="handlePan(-1,0)">
                  <use xlink:href="#rim" fill="#404040">
                        <set attributeName="fill" to="#808080" begin="arrowLeft.mouseover" end="arrowLeft.mouseout"/>
                  </use>
                  <path fill="none" stroke="white" stroke-width="1.5" d="M0,-3.0v7 M-2.5,-0.5L0,-3.0L2.5,-0.5"/>
                </g>
        </g>
        <svg viewBox="0 0 15 15" width="100%" height="30px" preserveAspectRatio="xMaxYMin meet">
         <g id="arrow_out" transform="scale(0.3 0.3)">
          <a xlink:href="namespacestm_a347d5009be494e8595a8933c49a342b4_icgraph_org.svg" target="_base">
           <rect id="button" ry="5" rx="5" y="6" x="6" height="38" width="38"
                fill="#f2f5e9" fill-opacity="0.5" stroke="#606060" stroke-width="1.0"/>
           <path id="arrow"
             d="M 11.500037,31.436501 C 11.940474,20.09759 22.043105,11.32322 32.158766,21.979434 L 37.068811,17.246167 C 37.068811,17.246167 37.088388,32 37.088388,32 L 22.160133,31.978069 C 22.160133,31.978069 26.997745,27.140456 26.997745,27.140456 C 18.528582,18.264221 13.291696,25.230495 11.500037,31.436501 z"
             style="fill:#404040;"/>
          </a>
         </g>
        </svg>
</svg>
