<?xml version="1.0" encoding="UTF-8" standalone="no"?>
<!DOCTYPE svg PUBLIC "-//W3C//DTD SVG 1.1//EN"
 "http://www.w3.org/Graphics/SVG/1.1/DTD/svg11.dtd">
<!-- Generated by graphviz version 2.36.0 (20140111.2315)
 -->
<!-- Title: stm::begin_CGL Pages: 1 -->
<svg width="526pt" height="66pt"
 viewBox="0.00 0.00 526.00 66.00" xmlns="http://www.w3.org/2000/svg" xmlns:xlink="http://www.w3.org/1999/xlink">
<g id="graph0" class="graph" transform="scale(1 1) rotate(0) translate(4 62)">
<title>stm::begin_CGL</title>
<!-- Node1 -->
<g id="node1" class="node"><title>Node1</title>
<polygon fill="#bfbfbf" stroke="black" points="0,-19.5 0,-38.5 88,-38.5 88,-19.5 0,-19.5"/>
<text text-anchor="middle" x="44" y="-26.5" font-family="Helvetica,sans-Serif" font-size="10.00">stm::begin_CGL</text>
</g>
<!-- Node2 -->
<g id="node2" class="node"><title>Node2</title>
<g id="a_node2"><a xlink:href="locks_8hpp.html#a0947d93866d35f8a9febdc3928bf7276" target="_top" xlink:title="tatas_acquire">
<polygon fill="none" stroke="black" points="162.5,-38.5 162.5,-57.5 237.5,-57.5 237.5,-38.5 162.5,-38.5"/>
<text text-anchor="middle" x="200" y="-45.5" font-family="Helvetica,sans-Serif" font-size="10.00">tatas_acquire</text>
</a>
</g>
</g>
<!-- Node1&#45;&gt;Node2 -->
<g id="edge1" class="edge"><title>Node1&#45;&gt;Node2</title>
<path fill="none" stroke="midnightblue" d="M88.3074,-34.3431C108.247,-36.8032 131.942,-39.7266 152.282,-42.2361"/>
<polygon fill="midnightblue" stroke="midnightblue" points="151.917,-45.7175 162.271,-43.4685 152.774,-38.7702 151.917,-45.7175"/>
</g>
<!-- Node5 -->
<g id="node5" class="node"><title>Node5</title>
<g id="a_node5"><a xlink:href="classstm_1_1WBMMPolicy.html#a66451953ff2a0179699108a0e0b1cba3" target="_top" xlink:title="stm::WBMMPolicy::onTxBegin">
<polygon fill="none" stroke="black" points="124,-0.5 124,-19.5 276,-19.5 276,-0.5 124,-0.5"/>
<text text-anchor="middle" x="200" y="-7.5" font-family="Helvetica,sans-Serif" font-size="10.00">stm::WBMMPolicy::onTxBegin</text>
</a>
</g>
</g>
<!-- Node1&#45;&gt;Node5 -->
<g id="edge4" class="edge"><title>Node1&#45;&gt;Node5</title>
<path fill="none" stroke="midnightblue" d="M88.3074,-23.6569C96.3871,-22.66 105.083,-21.5871 113.923,-20.4965"/>
<polygon fill="midnightblue" stroke="midnightblue" points="114.443,-23.959 123.939,-19.2607 113.586,-17.0116 114.443,-23.959"/>
</g>
<!-- Node3 -->
<g id="node3" class="node"><title>Node3</title>
<g id="a_node3"><a xlink:href="locks_8hpp.html#a61d1a83c5eb0a8300dce2fbb225b078c" target="_top" xlink:title="tatas_acquire_slowpath">
<polygon fill="none" stroke="black" points="312.5,-38.5 312.5,-57.5 431.5,-57.5 431.5,-38.5 312.5,-38.5"/>
<text text-anchor="middle" x="372" y="-45.5" font-family="Helvetica,sans-Serif" font-size="10.00">tatas_acquire_slowpath</text>
</a>
</g>
</g>
<!-- Node2&#45;&gt;Node3 -->
<g id="edge2" class="edge"><title>Node2&#45;&gt;Node3</title>
<path fill="none" stroke="midnightblue" d="M237.887,-48C256.772,-48 280.381,-48 302.451,-48"/>
<polygon fill="midnightblue" stroke="midnightblue" points="302.46,-51.5001 312.46,-48 302.46,-44.5001 302.46,-51.5001"/>
</g>
<!-- Node4 -->
<g id="node4" class="node"><title>Node4</title>
<g id="a_node4"><a xlink:href="locks_8hpp.html#af5ba9b667099d9a2ff30ad4439e502a5" target="_top" xlink:title="backoff">
<polygon fill="none" stroke="black" points="468.5,-38.5 468.5,-57.5 517.5,-57.5 517.5,-38.5 468.5,-38.5"/>
<text text-anchor="middle" x="493" y="-45.5" font-family="Helvetica,sans-Serif" font-size="10.00">backoff</text>
</a>
</g>
</g>
<!-- Node3&#45;&gt;Node4 -->
<g id="edge3" class="edge"><title>Node3&#45;&gt;Node4</title>
<path fill="none" stroke="midnightblue" d="M431.803,-48C440.943,-48 450.105,-48 458.426,-48"/>
<polygon fill="midnightblue" stroke="midnightblue" points="458.452,-51.5001 468.452,-48 458.452,-44.5001 458.452,-51.5001"/>
</g>
</g>
</svg>
