<?xml version="1.0" encoding="UTF-8" standalone="no"?>
<!DOCTYPE svg PUBLIC "-//W3C//DTD SVG 1.1//EN"
 "http://www.w3.org/Graphics/SVG/1.1/DTD/svg11.dtd">
<!-- Generated by graphviz version 2.36.0 (20140111.2315)
 -->
<!-- Title: stm::exp_backoff Pages: 1 -->
<svg width="270pt" height="137pt"
 viewBox="0.00 0.00 270.00 137.00" xmlns="http://www.w3.org/2000/svg" xmlns:xlink="http://www.w3.org/1999/xlink">
<g id="graph0" class="graph" transform="scale(1 1) rotate(0) translate(4 133)">
<title>stm::exp_backoff</title>
<!-- Node1 -->
<g id="node1" class="node"><title>Node1</title>
<polygon fill="#bfbfbf" stroke="black" points="0,-49.5 0,-68.5 92,-68.5 92,-49.5 0,-49.5"/>
<text text-anchor="middle" x="46" y="-56.5" font-family="Helvetica,sans-Serif" font-size="10.00">stm::exp_backoff</text>
</g>
<!-- Node2 -->
<g id="node2" class="node"><title>Node2</title>
<g id="a_node2"><a xlink:href="structanonymous__namespace_02swiss_8cpp_03_1_1Swiss.html#a911d79b2c722b891f4bc66b87d9351f3" target="_top" xlink:title="anonymous_namespace\l\{swiss::cpp\}::Swiss\l::cm_on_rollback">
<polygon fill="none" stroke="black" points="134,-87.5 134,-128.5 256,-128.5 256,-87.5 134,-87.5"/>
<text text-anchor="start" x="142" y="-116.5" font-family="Helvetica,sans-Serif" font-size="10.00">anonymous_namespace</text>
<text text-anchor="start" x="142" y="-105.5" font-family="Helvetica,sans-Serif" font-size="10.00">{swiss::cpp}::Swiss</text>
<text text-anchor="middle" x="195" y="-94.5" font-family="Helvetica,sans-Serif" font-size="10.00">::cm_on_rollback</text>
</a>
</g>
</g>
<!-- Node1&#45;&gt;Node2 -->
<g id="edge1" class="edge"><title>Node1&#45;&gt;Node2</title>
<path fill="none" stroke="midnightblue" d="M85.4731,-71.8244C100.228,-76.7428 117.441,-82.4805 133.754,-87.9179"/>
<polygon fill="midnightblue" stroke="midnightblue" points="86.2857,-68.406 75.692,-68.564 84.0721,-75.0468 86.2857,-68.406"/>
</g>
<!-- Node3 -->
<g id="node3" class="node"><title>Node3</title>
<g id="a_node3"><a xlink:href="structstm_1_1BackoffCM.html#af553f755ae5d32b484866638953af24f" target="_top" xlink:title="stm::BackoffCM::onAbort">
<polygon fill="none" stroke="black" points="131,-49.5 131,-68.5 259,-68.5 259,-49.5 131,-49.5"/>
<text text-anchor="middle" x="195" y="-56.5" font-family="Helvetica,sans-Serif" font-size="10.00">stm::BackoffCM::onAbort</text>
</a>
</g>
</g>
<!-- Node1&#45;&gt;Node3 -->
<g id="edge2" class="edge"><title>Node1&#45;&gt;Node3</title>
<path fill="none" stroke="midnightblue" d="M102.507,-59C111.726,-59 121.346,-59 130.739,-59"/>
<polygon fill="midnightblue" stroke="midnightblue" points="102.304,-55.5001 92.3043,-59 102.304,-62.5001 102.304,-55.5001"/>
</g>
<!-- Node4 -->
<g id="node4" class="node"><title>Node4</title>
<g id="a_node4"><a xlink:href="structstm_1_1HourglassBackoffCM.html#a1a879f779ff65d8d3d2d0ae3a15088b7" target="_top" xlink:title="stm::HourglassBackoffCM\l::onAbort">
<polygon fill="none" stroke="black" points="128.5,-0 128.5,-30 261.5,-30 261.5,-0 128.5,-0"/>
<text text-anchor="start" x="136.5" y="-18" font-family="Helvetica,sans-Serif" font-size="10.00">stm::HourglassBackoffCM</text>
<text text-anchor="middle" x="195" y="-7" font-family="Helvetica,sans-Serif" font-size="10.00">::onAbort</text>
</a>
</g>
</g>
<!-- Node1&#45;&gt;Node4 -->
<g id="edge3" class="edge"><title>Node1&#45;&gt;Node4</title>
<path fill="none" stroke="midnightblue" d="M88.6119,-46.5447C105.738,-41.4187 125.728,-35.4351 143.668,-30.0654"/>
<polygon fill="midnightblue" stroke="midnightblue" points="87.4732,-43.2321 78.8968,-49.4527 89.4805,-49.9381 87.4732,-43.2321"/>
</g>
</g>
</svg>
