<?xml version="1.0" encoding="UTF-8" standalone="no"?>
<!DOCTYPE svg PUBLIC "-//W3C//DTD SVG 1.1//EN"
 "http://www.w3.org/Graphics/SVG/1.1/DTD/svg11.dtd">
<!-- Generated by graphviz version 2.36.0 (20140111.2315)
 -->
<!-- Title: anonymous_namespace{bmharness::cpp}::run_wrapper Pages: 1 -->
<svg width="618pt" height="788pt"
 viewBox="0.00 0.00 618.00 788.00" xmlns="http://www.w3.org/2000/svg" xmlns:xlink="http://www.w3.org/1999/xlink">
<g id="graph0" class="graph" transform="scale(1 1) rotate(0) translate(4 784)">
<title>anonymous_namespace{bmharness::cpp}::run_wrapper</title>
<!-- Node1 -->
<g id="node1" class="node"><title>Node1</title>
<polygon fill="#bfbfbf" stroke="black" points="0,-388.5 0,-429.5 122,-429.5 122,-388.5 0,-388.5"/>
<text text-anchor="start" x="8" y="-417.5" font-family="Helvetica,sans-Serif" font-size="10.00">anonymous_namespace</text>
<text text-anchor="start" x="8" y="-406.5" font-family="Helvetica,sans-Serif" font-size="10.00">{bmharness::cpp}::run</text>
<text text-anchor="middle" x="61" y="-395.5" font-family="Helvetica,sans-Serif" font-size="10.00">_wrapper</text>
</g>
<!-- Node2 -->
<g id="node2" class="node"><title>Node2</title>
<g id="a_node2"><a xlink:href="bmharness_8hpp.html#a77dcb24f238716e611145fc73d32456b" target="_top" xlink:title="run">
<polygon fill="none" stroke="black" points="158,-399.5 158,-418.5 188,-418.5 188,-399.5 158,-399.5"/>
<text text-anchor="middle" x="173" y="-406.5" font-family="Helvetica,sans-Serif" font-size="10.00">run</text>
</a>
</g>
</g>
<!-- Node1&#45;&gt;Node2 -->
<g id="edge1" class="edge"><title>Node1&#45;&gt;Node2</title>
<path fill="none" stroke="midnightblue" d="M122.15,-409C131.286,-409 140.231,-409 147.965,-409"/>
<polygon fill="midnightblue" stroke="midnightblue" points="147.985,-412.5 157.985,-409 147.985,-405.5 147.985,-412.5"/>
</g>
<!-- Node3 -->
<g id="node3" class="node"><title>Node3</title>
<g id="a_node3"><a xlink:href="bmharness_8hpp.html#a02b05a605f4bd514db3ba9879a5d3cd6" target="_top" xlink:title="barrier">
<polygon fill="none" stroke="black" points="248,-456.5 248,-475.5 292,-475.5 292,-456.5 248,-456.5"/>
<text text-anchor="middle" x="270" y="-463.5" font-family="Helvetica,sans-Serif" font-size="10.00">barrier</text>
</a>
</g>
</g>
<!-- Node2&#45;&gt;Node3 -->
<g id="edge2" class="edge"><title>Node2&#45;&gt;Node3</title>
<path fill="none" stroke="midnightblue" d="M184.95,-418.608C194.719,-426.858 209.657,-438.698 224,-447 228.562,-449.641 233.561,-452.119 238.517,-454.358"/>
<polygon fill="midnightblue" stroke="midnightblue" points="237.295,-457.642 247.866,-458.349 240.044,-451.204 237.295,-457.642"/>
</g>
<!-- Node4 -->
<g id="node4" class="node"><title>Node4</title>
<g id="a_node4"><a xlink:href="bmharness_8hpp.html#ae6106f619996ed036c23b6bccc798f33" target="_top" xlink:title="catch_SIGALRM">
<polygon fill="none" stroke="black" points="224.5,-418.5 224.5,-437.5 315.5,-437.5 315.5,-418.5 224.5,-418.5"/>
<text text-anchor="middle" x="270" y="-425.5" font-family="Helvetica,sans-Serif" font-size="10.00">catch_SIGALRM</text>
</a>
</g>
</g>
<!-- Node2&#45;&gt;Node4 -->
<g id="edge3" class="edge"><title>Node2&#45;&gt;Node4</title>
<path fill="none" stroke="midnightblue" d="M188.018,-411.804C195.295,-413.259 204.706,-415.141 214.523,-417.105"/>
<polygon fill="midnightblue" stroke="midnightblue" points="213.92,-420.553 224.412,-419.082 215.293,-413.689 213.92,-420.553"/>
</g>
<!-- Node5 -->
<g id="node5" class="node"><title>Node5</title>
<g id="a_node5"><a xlink:href="bmconfig_8hpp.html#aedada04ef88f522227f8f6fca993e08c" target="_top" xlink:title="bench_test">
<polygon fill="none" stroke="black" points="237.5,-380.5 237.5,-399.5 302.5,-399.5 302.5,-380.5 237.5,-380.5"/>
<text text-anchor="middle" x="270" y="-387.5" font-family="Helvetica,sans-Serif" font-size="10.00">bench_test</text>
</a>
</g>
</g>
<!-- Node2&#45;&gt;Node5 -->
<g id="edge4" class="edge"><title>Node2&#45;&gt;Node5</title>
<path fill="none" stroke="midnightblue" d="M188.018,-406.196C198.401,-404.12 213.127,-401.175 227.18,-398.364"/>
<polygon fill="midnightblue" stroke="midnightblue" points="228.103,-401.749 237.222,-396.356 226.73,-394.885 228.103,-401.749"/>
</g>
<!-- Node26 -->
<g id="node26" class="node"><title>Node26</title>
<g id="a_node26"><a xlink:href="bmharness_8hpp.html#a38d101d612bbe49f2c6a7d0ef71fd77a" target="_top" xlink:title="nontxnwork">
<polygon fill="none" stroke="black" points="236.5,-171.5 236.5,-190.5 303.5,-190.5 303.5,-171.5 236.5,-171.5"/>
<text text-anchor="middle" x="270" y="-178.5" font-family="Helvetica,sans-Serif" font-size="10.00">nontxnwork</text>
</a>
</g>
</g>
<!-- Node2&#45;&gt;Node26 -->
<g id="edge30" class="edge"><title>Node2&#45;&gt;Node26</title>
<path fill="none" stroke="midnightblue" d="M177.961,-399.493C192.296,-365.091 241.641,-246.661 261.06,-200.057"/>
<polygon fill="midnightblue" stroke="midnightblue" points="264.407,-201.124 265.022,-190.547 257.945,-198.432 264.407,-201.124"/>
</g>
<!-- Node6 -->
<g id="node6" class="node"><title>Node6</title>
<g id="a_node6"><a xlink:href="rand__r__32_8h.html#afaaf1d013ccb194d66735f6e59dcc930" target="_top" xlink:title="rand_r_32">
<polygon fill="none" stroke="black" points="390.5,-722.5 390.5,-741.5 449.5,-741.5 449.5,-722.5 390.5,-722.5"/>
<text text-anchor="middle" x="420" y="-729.5" font-family="Helvetica,sans-Serif" font-size="10.00">rand_r_32</text>
</a>
</g>
</g>
<!-- Node5&#45;&gt;Node6 -->
<g id="edge5" class="edge"><title>Node5&#45;&gt;Node6</title>
<path fill="none" stroke="midnightblue" d="M302.556,-398.233C307.736,-400.889 312.535,-404.39 316,-409 397.75,-517.756 263.71,-609.482 352,-713 359.135,-721.365 369.655,-726.185 380.255,-728.923"/>
<polygon fill="midnightblue" stroke="midnightblue" points="379.84,-732.409 390.335,-730.957 381.225,-725.548 379.84,-732.409"/>
</g>
<!-- Node7 -->
<g id="node7" class="node"><title>Node7</title>
<g id="a_node7"><a xlink:href="avltree_8c.html#aef0786e63ba14dfdb6d8632333208422" target="_top" xlink:title="start">
<polygon fill="none" stroke="black" points="402,-684.5 402,-703.5 438,-703.5 438,-684.5 402,-684.5"/>
<text text-anchor="middle" x="420" y="-691.5" font-family="Helvetica,sans-Serif" font-size="10.00">start</text>
</a>
</g>
</g>
<!-- Node5&#45;&gt;Node7 -->
<g id="edge6" class="edge"><title>Node5&#45;&gt;Node7</title>
<path fill="none" stroke="midnightblue" d="M302.95,-398.516C307.962,-401.138 312.6,-404.554 316,-409 388.474,-503.763 273.83,-584.878 352,-675 361.848,-686.354 377.931,-691.161 391.871,-693.103"/>
<polygon fill="midnightblue" stroke="midnightblue" points="391.681,-696.601 401.974,-694.09 392.362,-689.634 391.681,-696.601"/>
</g>
<!-- Node8 -->
<g id="node8" class="node"><title>Node8</title>
<g id="a_node8"><a xlink:href="structDisjoint.html#ac740b0c2eb2b55099ce7614a0d69f4ff" target="_top" xlink:title="Disjoint::ro_transaction">
<polygon fill="none" stroke="black" points="361.5,-646.5 361.5,-665.5 478.5,-665.5 478.5,-646.5 361.5,-646.5"/>
<text text-anchor="middle" x="420" y="-653.5" font-family="Helvetica,sans-Serif" font-size="10.00">Disjoint::ro_transaction</text>
</a>
</g>
</g>
<!-- Node5&#45;&gt;Node8 -->
<g id="edge7" class="edge"><title>Node5&#45;&gt;Node8</title>
<path fill="none" stroke="midnightblue" d="M302.87,-398.578C307.889,-401.194 312.551,-404.592 316,-409 379.218,-489.796 283.929,-560.249 352,-637 353.053,-638.187 354.174,-639.303 355.354,-640.351"/>
<polygon fill="midnightblue" stroke="midnightblue" points="353.685,-643.455 363.882,-646.331 357.704,-637.724 353.685,-643.455"/>
</g>
<!-- Node9 -->
<g id="node9" class="node"><title>Node9</title>
<g id="a_node9"><a xlink:href="structDisjoint.html#ae4cb8cb741e2927d1d51bcfcbc9ee269" target="_top" xlink:title="Disjoint::r_rw_transaction">
<polygon fill="none" stroke="black" points="356,-608.5 356,-627.5 484,-627.5 484,-608.5 356,-608.5"/>
<text text-anchor="middle" x="420" y="-615.5" font-family="Helvetica,sans-Serif" font-size="10.00">Disjoint::r_rw_transaction</text>
</a>
</g>
</g>
<!-- Node5&#45;&gt;Node9 -->
<g id="edge8" class="edge"><title>Node5&#45;&gt;Node9</title>
<path fill="none" stroke="midnightblue" d="M302.759,-398.666C307.79,-401.273 312.484,-404.645 316,-409 369.994,-475.87 293.992,-535.581 352,-599 353.206,-600.319 354.496,-601.548 355.857,-602.695"/>
<polygon fill="midnightblue" stroke="midnightblue" points="354.073,-605.714 364.323,-608.395 357.983,-599.907 354.073,-605.714"/>
</g>
<!-- Node10 -->
<g id="node10" class="node"><title>Node10</title>
<g id="a_node10"><a xlink:href="classDList.html#a1bbdbfa44979c867da332f3a97c9942d" target="_top" xlink:title="DList::lookup">
<polygon fill="none" stroke="black" points="383,-570.5 383,-589.5 457,-589.5 457,-570.5 383,-570.5"/>
<text text-anchor="middle" x="420" y="-577.5" font-family="Helvetica,sans-Serif" font-size="10.00">DList::lookup</text>
</a>
</g>
</g>
<!-- Node5&#45;&gt;Node10 -->
<g id="edge9" class="edge"><title>Node5&#45;&gt;Node10</title>
<path fill="none" stroke="midnightblue" d="M302.597,-398.8C307.645,-401.393 312.386,-404.726 316,-409 360.826,-462.013 303.996,-510.847 352,-561 357.765,-567.023 365.286,-571.18 373.199,-574.039"/>
<polygon fill="midnightblue" stroke="midnightblue" points="372.371,-577.444 382.953,-576.921 374.354,-570.731 372.371,-577.444"/>
</g>
<!-- Node11 -->
<g id="node11" class="node"><title>Node11</title>
<g id="a_node11"><a xlink:href="classDList.html#aee38e39d36c976cbde2c74a2a845f1dd" target="_top" xlink:title="DList::insert">
<polygon fill="none" stroke="black" points="385,-532.5 385,-551.5 455,-551.5 455,-532.5 385,-532.5"/>
<text text-anchor="middle" x="420" y="-539.5" font-family="Helvetica,sans-Serif" font-size="10.00">DList::insert</text>
</a>
</g>
</g>
<!-- Node5&#45;&gt;Node11 -->
<g id="edge10" class="edge"><title>Node5&#45;&gt;Node11</title>
<path fill="none" stroke="midnightblue" d="M302.803,-399.259C307.707,-401.793 312.346,-404.987 316,-409 351.771,-448.288 313.878,-485.989 352,-523 358.297,-529.114 366.411,-533.288 374.804,-536.131"/>
<polygon fill="midnightblue" stroke="midnightblue" points="374.12,-539.574 384.693,-538.894 376.004,-532.832 374.12,-539.574"/>
</g>
<!-- Node12 -->
<g id="node12" class="node"><title>Node12</title>
<g id="a_node12"><a xlink:href="classDList.html#ac998269d8b5bd4ac9ee393e3a3f20ec3" target="_top" xlink:title="DList::remove">
<polygon fill="none" stroke="black" points="381,-494.5 381,-513.5 459,-513.5 459,-494.5 381,-494.5"/>
<text text-anchor="middle" x="420" y="-501.5" font-family="Helvetica,sans-Serif" font-size="10.00">DList::remove</text>
</a>
</g>
</g>
<!-- Node5&#45;&gt;Node12 -->
<g id="edge11" class="edge"><title>Node5&#45;&gt;Node12</title>
<path fill="none" stroke="midnightblue" d="M301.805,-399.554C306.933,-402.071 311.907,-405.183 316,-409 341.875,-433.13 325.465,-456.598 352,-480 357.606,-484.944 364.305,-488.892 371.266,-492.038"/>
<polygon fill="midnightblue" stroke="midnightblue" points="370.258,-495.404 380.844,-495.85 372.847,-488.9 370.258,-495.404"/>
</g>
<!-- Node13 -->
<g id="node13" class="node"><title>Node13</title>
<g id="a_node13"><a xlink:href="classRBTree.html#ac08a215acdc2f4ccecebaafbbe1dce41" target="_top" xlink:title="RBTree::lookup">
<polygon fill="none" stroke="black" points="524.5,-437.5 524.5,-456.5 609.5,-456.5 609.5,-437.5 524.5,-437.5"/>
<text text-anchor="middle" x="567" y="-444.5" font-family="Helvetica,sans-Serif" font-size="10.00">RBTree::lookup</text>
</a>
</g>
</g>
<!-- Node5&#45;&gt;Node13 -->
<g id="edge12" class="edge"><title>Node5&#45;&gt;Node13</title>
<path fill="none" stroke="midnightblue" d="M298.6,-399.526C304.584,-402.163 310.702,-405.329 316,-409 335.122,-422.25 330.629,-437.808 352,-447 403.769,-469.268 469.321,-465.147 514.147,-458.092"/>
<polygon fill="midnightblue" stroke="midnightblue" points="514.945,-461.507 524.228,-456.401 513.787,-454.604 514.945,-461.507"/>
</g>
<!-- Node14 -->
<g id="node14" class="node"><title>Node14</title>
<g id="a_node14"><a xlink:href="classRBTree.html#abbb72e04b9cc677051094c3839ca09ab" target="_top" xlink:title="RBTree::insert">
<polygon fill="none" stroke="black" points="527,-370.5 527,-389.5 607,-389.5 607,-370.5 527,-370.5"/>
<text text-anchor="middle" x="567" y="-377.5" font-family="Helvetica,sans-Serif" font-size="10.00">RBTree::insert</text>
</a>
</g>
</g>
<!-- Node5&#45;&gt;Node14 -->
<g id="edge13" class="edge"><title>Node5&#45;&gt;Node14</title>
<path fill="none" stroke="midnightblue" d="M302.632,-380.795C317.478,-376.937 335.499,-372.909 352,-371 408.255,-364.491 473.312,-368.911 516.79,-373.561"/>
<polygon fill="midnightblue" stroke="midnightblue" points="516.489,-377.049 526.815,-374.678 517.264,-370.092 516.489,-377.049"/>
</g>
<!-- Node15 -->
<g id="node15" class="node"><title>Node15</title>
<g id="a_node15"><a xlink:href="classRBTree.html#a98d0db9e5d36729c5b35b2a40e959856" target="_top" xlink:title="RBTree::remove">
<polygon fill="none" stroke="black" points="375.5,-380.5 375.5,-399.5 464.5,-399.5 464.5,-380.5 375.5,-380.5"/>
<text text-anchor="middle" x="420" y="-387.5" font-family="Helvetica,sans-Serif" font-size="10.00">RBTree::remove</text>
</a>
</g>
</g>
<!-- Node5&#45;&gt;Node15 -->
<g id="edge14" class="edge"><title>Node5&#45;&gt;Node15</title>
<path fill="none" stroke="midnightblue" d="M302.75,-390C320.925,-390 344.213,-390 365.167,-390"/>
<polygon fill="midnightblue" stroke="midnightblue" points="365.233,-393.5 375.233,-390 365.232,-386.5 365.233,-393.5"/>
</g>
<!-- Node16 -->
<g id="node16" class="node"><title>Node16</title>
<g id="a_node16"><a xlink:href="classHashTable.html#afc24322b6018e44c24b55d4fe60917dc" target="_top" xlink:title="HashTable::lookup">
<polygon fill="none" stroke="black" points="371,-266.5 371,-285.5 469,-285.5 469,-266.5 371,-266.5"/>
<text text-anchor="middle" x="420" y="-273.5" font-family="Helvetica,sans-Serif" font-size="10.00">HashTable::lookup</text>
</a>
</g>
</g>
<!-- Node5&#45;&gt;Node16 -->
<g id="edge15" class="edge"><title>Node5&#45;&gt;Node16</title>
<path fill="none" stroke="midnightblue" d="M277.181,-380.438C289.38,-362.28 318.31,-322.605 352,-300 358.207,-295.835 365.223,-292.298 372.318,-289.325"/>
<polygon fill="midnightblue" stroke="midnightblue" points="373.894,-292.469 381.973,-285.615 371.383,-285.935 373.894,-292.469"/>
</g>
<!-- Node17 -->
<g id="node17" class="node"><title>Node17</title>
<g id="a_node17"><a xlink:href="classList.html#a90ad13d3e3bb04ca8ade206e2169808d" target="_top" xlink:title="List::lookup">
<polygon fill="none" stroke="black" points="533.5,-285.5 533.5,-304.5 600.5,-304.5 600.5,-285.5 533.5,-285.5"/>
<text text-anchor="middle" x="567" y="-292.5" font-family="Helvetica,sans-Serif" font-size="10.00">List::lookup</text>
</a>
</g>
</g>
<!-- Node5&#45;&gt;Node17 -->
<g id="edge21" class="edge"><title>Node5&#45;&gt;Node17</title>
<path fill="none" stroke="midnightblue" d="M299.457,-380.405C314.972,-375.202 334.522,-368.69 352,-363 412.526,-343.297 482.901,-321.065 525.938,-307.545"/>
<polygon fill="midnightblue" stroke="midnightblue" points="526.987,-310.884 535.48,-304.549 524.891,-304.205 526.987,-310.884"/>
</g>
<!-- Node18 -->
<g id="node18" class="node"><title>Node18</title>
<g id="a_node18"><a xlink:href="classHashTable.html#a438d8bd36dbc6e946c92ff31655fa4e0" target="_top" xlink:title="HashTable::insert">
<polygon fill="none" stroke="black" points="373,-190.5 373,-209.5 467,-209.5 467,-190.5 373,-190.5"/>
<text text-anchor="middle" x="420" y="-197.5" font-family="Helvetica,sans-Serif" font-size="10.00">HashTable::insert</text>
</a>
</g>
</g>
<!-- Node5&#45;&gt;Node18 -->
<g id="edge17" class="edge"><title>Node5&#45;&gt;Node18</title>
<path fill="none" stroke="midnightblue" d="M273.047,-380.199C279.467,-351.85 301.837,-268.928 352,-224 356.481,-219.987 361.681,-216.632 367.165,-213.83"/>
<polygon fill="midnightblue" stroke="midnightblue" points="368.883,-216.895 376.584,-209.618 366.026,-210.505 368.883,-216.895"/>
</g>
<!-- Node19 -->
<g id="node19" class="node"><title>Node19</title>
<g id="a_node19"><a xlink:href="classList.html#a40fadae377879ab1219603a6138d5a54" target="_top" xlink:title="List::insert">
<polygon fill="none" stroke="black" points="536,-199.5 536,-218.5 598,-218.5 598,-199.5 536,-199.5"/>
<text text-anchor="middle" x="567" y="-206.5" font-family="Helvetica,sans-Serif" font-size="10.00">List::insert</text>
</a>
</g>
</g>
<!-- Node5&#45;&gt;Node19 -->
<g id="edge22" class="edge"><title>Node5&#45;&gt;Node19</title>
<path fill="none" stroke="midnightblue" d="M273.884,-380.476C281.873,-355.8 306.744,-289.46 352,-257 379.468,-237.298 471.779,-221.836 525.772,-214.209"/>
<polygon fill="midnightblue" stroke="midnightblue" points="526.281,-217.672 535.706,-212.833 525.32,-210.738 526.281,-217.672"/>
</g>
<!-- Node20 -->
<g id="node20" class="node"><title>Node20</title>
<g id="a_node20"><a xlink:href="classHashTable.html#a15759896e8e9960cd44fa70673bec921" target="_top" xlink:title="HashTable::remove">
<polygon fill="none" stroke="black" points="369,-114.5 369,-133.5 471,-133.5 471,-114.5 369,-114.5"/>
<text text-anchor="middle" x="420" y="-121.5" font-family="Helvetica,sans-Serif" font-size="10.00">HashTable::remove</text>
</a>
</g>
</g>
<!-- Node5&#45;&gt;Node20 -->
<g id="edge19" class="edge"><title>Node5&#45;&gt;Node20</title>
<path fill="none" stroke="midnightblue" d="M273.027,-380.462C281.787,-340.025 317.515,-183.216 352,-148 355.89,-144.027 360.483,-140.71 365.411,-137.94"/>
<polygon fill="midnightblue" stroke="midnightblue" points="367.08,-141.021 374.565,-133.522 364.037,-134.717 367.08,-141.021"/>
</g>
<!-- Node21 -->
<g id="node21" class="node"><title>Node21</title>
<g id="a_node21"><a xlink:href="classList.html#a32e2c5d870d4cfb2fb38d3a446173148" target="_top" xlink:title="List::remove">
<polygon fill="none" stroke="black" points="531.5,-142.5 531.5,-161.5 602.5,-161.5 602.5,-142.5 531.5,-142.5"/>
<text text-anchor="middle" x="567" y="-149.5" font-family="Helvetica,sans-Serif" font-size="10.00">List::remove</text>
</a>
</g>
</g>
<!-- Node5&#45;&gt;Node21 -->
<g id="edge23" class="edge"><title>Node5&#45;&gt;Node21</title>
<path fill="none" stroke="midnightblue" d="M271.481,-380.1C273.712,-346.058 286.005,-233.057 352,-181 400.029,-143.115 473.764,-141.741 520.929,-145.728"/>
<polygon fill="midnightblue" stroke="midnightblue" points="520.862,-149.237 531.151,-146.711 521.532,-142.27 520.862,-149.237"/>
</g>
<!-- Node22 -->
<g id="node22" class="node"><title>Node22</title>
<g id="a_node22"><a xlink:href="classRBTree.html#afbd6f00d7eab72aaaf6d2a0a6074ba36" target="_top" xlink:title="RBTree::modify">
<polygon fill="none" stroke="black" points="377,-418.5 377,-437.5 463,-437.5 463,-418.5 377,-418.5"/>
<text text-anchor="middle" x="420" y="-425.5" font-family="Helvetica,sans-Serif" font-size="10.00">RBTree::modify</text>
</a>
</g>
</g>
<!-- Node5&#45;&gt;Node22 -->
<g id="edge24" class="edge"><title>Node5&#45;&gt;Node22</title>
<path fill="none" stroke="midnightblue" d="M302.75,-398.152C322.948,-403.338 349.462,-410.146 372.068,-415.95"/>
<polygon fill="midnightblue" stroke="midnightblue" points="371.258,-419.355 381.814,-418.452 372.998,-412.575 371.258,-419.355"/>
</g>
<!-- Node23 -->
<g id="node23" class="node"><title>Node23</title>
<g id="a_node23"><a xlink:href="TypeTest_8cpp.html#a532b74f3b8f3bf9ab294e47303c574c2" target="_top" xlink:title="DataTypeTest">
<polygon fill="none" stroke="black" points="380.5,-76.5 380.5,-95.5 459.5,-95.5 459.5,-76.5 380.5,-76.5"/>
<text text-anchor="middle" x="420" y="-83.5" font-family="Helvetica,sans-Serif" font-size="10.00">DataTypeTest</text>
</a>
</g>
</g>
<!-- Node5&#45;&gt;Node23 -->
<g id="edge27" class="edge"><title>Node5&#45;&gt;Node23</title>
<path fill="none" stroke="midnightblue" d="M273.158,-380.339C283.844,-332.846 331.398,-125.59 352,-105 357.233,-99.7704 363.792,-95.9552 370.744,-93.1772"/>
<polygon fill="midnightblue" stroke="midnightblue" points="371.981,-96.4545 380.38,-89.9963 369.787,-89.8073 371.981,-96.4545"/>
</g>
<!-- Node24 -->
<g id="node24" class="node"><title>Node24</title>
<g id="a_node24"><a xlink:href="classDList.html#a4f2f83d67c2fab2f23ecf5e31f376494" target="_top" xlink:title="DList::increment_forward">
<polygon fill="none" stroke="black" points="357,-38.5 357,-57.5 483,-57.5 483,-38.5 357,-38.5"/>
<text text-anchor="middle" x="420" y="-45.5" font-family="Helvetica,sans-Serif" font-size="10.00">DList::increment_forward</text>
</a>
</g>
</g>
<!-- Node5&#45;&gt;Node24 -->
<g id="edge28" class="edge"><title>Node5&#45;&gt;Node24</title>
<path fill="none" stroke="midnightblue" d="M273.321,-380.177C285.97,-326.713 346.239,-72.9398 352,-67 353.273,-65.6873 354.63,-64.4633 356.055,-63.3223"/>
<polygon fill="midnightblue" stroke="midnightblue" points="358.357,-66.0034 364.877,-57.6523 354.573,-60.1148 358.357,-66.0034"/>
</g>
<!-- Node25 -->
<g id="node25" class="node"><title>Node25</title>
<g id="a_node25"><a xlink:href="classDList.html#a7268e5953aacd61a7ac839f7886cb1a5" target="_top" xlink:title="DList::increment_backward">
<polygon fill="none" stroke="black" points="352,-760.5 352,-779.5 488,-779.5 488,-760.5 352,-760.5"/>
<text text-anchor="middle" x="420" y="-767.5" font-family="Helvetica,sans-Serif" font-size="10.00">DList::increment_backward</text>
</a>
</g>
</g>
<!-- Node5&#45;&gt;Node25 -->
<g id="edge29" class="edge"><title>Node5&#45;&gt;Node25</title>
<path fill="none" stroke="midnightblue" d="M302.604,-398.196C307.78,-400.856 312.565,-404.368 316,-409 407.04,-531.767 253.576,-634.069 352,-751 352.998,-752.185 354.063,-753.299 355.187,-754.346"/>
<polygon fill="midnightblue" stroke="midnightblue" points="353.224,-757.247 363.36,-760.331 357.36,-751.599 353.224,-757.247"/>
</g>
<!-- Node16&#45;&gt;Node17 -->
<g id="edge16" class="edge"><title>Node16&#45;&gt;Node17</title>
<path fill="none" stroke="midnightblue" d="M469.283,-282.327C486.748,-284.615 506.332,-287.181 523.286,-289.403"/>
<polygon fill="midnightblue" stroke="midnightblue" points="523.089,-292.907 533.459,-290.736 523.999,-285.966 523.089,-292.907"/>
</g>
<!-- Node18&#45;&gt;Node19 -->
<g id="edge18" class="edge"><title>Node18&#45;&gt;Node19</title>
<path fill="none" stroke="midnightblue" d="M467.278,-202.872C485.984,-204.033 507.383,-205.362 525.464,-206.484"/>
<polygon fill="midnightblue" stroke="midnightblue" points="525.484,-209.992 535.682,-207.118 525.918,-203.005 525.484,-209.992"/>
</g>
<!-- Node20&#45;&gt;Node21 -->
<g id="edge20" class="edge"><title>Node20&#45;&gt;Node21</title>
<path fill="none" stroke="midnightblue" d="M470.495,-133.558C486.916,-136.729 505.094,-140.239 521.146,-143.338"/>
<polygon fill="midnightblue" stroke="midnightblue" points="520.864,-146.849 531.347,-145.308 522.192,-139.976 520.864,-146.849"/>
</g>
<!-- Node22&#45;&gt;Node13 -->
<g id="edge25" class="edge"><title>Node22&#45;&gt;Node13</title>
<path fill="none" stroke="midnightblue" d="M463.33,-433.547C479.251,-435.633 497.536,-438.029 514.221,-440.215"/>
<polygon fill="midnightblue" stroke="midnightblue" points="513.998,-443.716 524.368,-441.545 514.908,-436.775 513.998,-443.716"/>
</g>
<!-- Node22&#45;&gt;Node14 -->
<g id="edge26" class="edge"><title>Node22&#45;&gt;Node14</title>
<path fill="none" stroke="midnightblue" d="M456.627,-418.466C466.81,-415.587 477.888,-412.308 488,-409 502.696,-404.193 518.736,-398.337 532.429,-393.149"/>
<polygon fill="midnightblue" stroke="midnightblue" points="533.842,-396.355 541.932,-389.514 531.341,-389.817 533.842,-396.355"/>
</g>
<!-- Node27 -->
<g id="node27" class="node"><title>Node27</title>
<g id="a_node27"><a xlink:href="locks_8hpp.html#a67493dc021b0db009a9603ea55d18c59" target="_top" xlink:title="spin64">
<polygon fill="none" stroke="black" points="397.5,-0.5 397.5,-19.5 442.5,-19.5 442.5,-0.5 397.5,-0.5"/>
<text text-anchor="middle" x="420" y="-7.5" font-family="Helvetica,sans-Serif" font-size="10.00">spin64</text>
</a>
</g>
</g>
<!-- Node26&#45;&gt;Node27 -->
<g id="edge31" class="edge"><title>Node26&#45;&gt;Node27</title>
<path fill="none" stroke="midnightblue" d="M273.269,-171.479C280.151,-144.718 303.357,-68.2359 352,-29 361.972,-20.9567 375.167,-16.3167 387.209,-13.6407"/>
<polygon fill="midnightblue" stroke="midnightblue" points="388.188,-17.0191 397.385,-11.7584 386.915,-10.1358 388.188,-17.0191"/>
</g>
</g>
</svg>
