<?xml version="1.0" encoding="UTF-8" standalone="no"?>
<!DOCTYPE svg PUBLIC "-//W3C//DTD SVG 1.1//EN"
 "http://www.w3.org/Graphics/SVG/1.1/DTD/svg11.dtd">
<!-- Generated by graphviz version 2.36.0 (20140111.2315)
 -->
<!-- Title: anonymous_namespace{oreceager::cpp}::write Pages: 1 -->
<svg width="278pt" height="256pt"
 viewBox="0.00 0.00 278.00 256.00" xmlns="http://www.w3.org/2000/svg" xmlns:xlink="http://www.w3.org/1999/xlink">
<g id="graph0" class="graph" transform="scale(1 1) rotate(0) translate(4 252)">
<title>anonymous_namespace{oreceager::cpp}::write</title>
<!-- Node1 -->
<g id="node1" class="node"><title>Node1</title>
<polygon fill="#bfbfbf" stroke="black" points="0,-109 0,-139 122,-139 122,-109 0,-109"/>
<text text-anchor="start" x="8" y="-127" font-family="Helvetica,sans-Serif" font-size="10.00">anonymous_namespace</text>
<text text-anchor="middle" x="61" y="-116" font-family="Helvetica,sans-Serif" font-size="10.00">{oreceager::cpp}::write</text>
</g>
<!-- Node2 -->
<g id="node2" class="node"><title>Node2</title>
<g id="a_node2"><a xlink:href="DisjointBench_8cpp.html#a3adf213f254e3746cbce57cc95dfb687" target="_top" xlink:title="bench_init">
<polygon fill="none" stroke="black" points="183.5,-228.5 183.5,-247.5 244.5,-247.5 244.5,-228.5 183.5,-228.5"/>
<text text-anchor="middle" x="214" y="-235.5" font-family="Helvetica,sans-Serif" font-size="10.00">bench_init</text>
</a>
</g>
</g>
<!-- Node1&#45;&gt;Node2 -->
<g id="edge1" class="edge"><title>Node1&#45;&gt;Node2</title>
<path fill="none" stroke="midnightblue" d="M80.1943,-147.214C97.9896,-168.528 126.887,-199.65 158,-219 165.721,-223.802 174.811,-227.576 183.353,-230.451"/>
<polygon fill="midnightblue" stroke="midnightblue" points="82.7566,-144.818 73.7154,-139.295 77.3388,-149.251 82.7566,-144.818"/>
</g>
<!-- Node3 -->
<g id="node3" class="node"><title>Node3</title>
<g id="a_node3"><a xlink:href="namespacestm.html#a976f5145078328564e9e05c97bce777e" target="_top" xlink:title="stm::initTM\&lt; CGL \&gt;">
<polygon fill="none" stroke="black" points="162,-190.5 162,-209.5 266,-209.5 266,-190.5 162,-190.5"/>
<text text-anchor="middle" x="214" y="-197.5" font-family="Helvetica,sans-Serif" font-size="10.00">stm::initTM&lt; CGL &gt;</text>
</a>
</g>
</g>
<!-- Node1&#45;&gt;Node3 -->
<g id="edge2" class="edge"><title>Node1&#45;&gt;Node3</title>
<path fill="none" stroke="midnightblue" d="M93.0988,-144.659C111.474,-156.302 135.484,-170.558 158,-181 165.515,-184.485 173.859,-187.687 181.729,-190.429"/>
<polygon fill="midnightblue" stroke="midnightblue" points="94.8685,-141.636 84.5619,-139.181 91.0883,-147.527 94.8685,-141.636"/>
</g>
<!-- Node4 -->
<g id="node4" class="node"><title>Node4</title>
<g id="a_node4"><a xlink:href="namespacestm.html#a6c7909b6fe245dbee6d5212415e2e4d3" target="_top" xlink:title="stm::initTM\&lt; MCS \&gt;">
<polygon fill="none" stroke="black" points="160.5,-152.5 160.5,-171.5 267.5,-171.5 267.5,-152.5 160.5,-152.5"/>
<text text-anchor="middle" x="214" y="-159.5" font-family="Helvetica,sans-Serif" font-size="10.00">stm::initTM&lt; MCS &gt;</text>
</a>
</g>
</g>
<!-- Node1&#45;&gt;Node4 -->
<g id="edge3" class="edge"><title>Node1&#45;&gt;Node4</title>
<path fill="none" stroke="midnightblue" d="M131.463,-141.481C146.459,-145.255 161.775,-149.109 175.024,-152.443"/>
<polygon fill="midnightblue" stroke="midnightblue" points="132.231,-138.065 121.679,-139.019 130.523,-144.853 132.231,-138.065"/>
</g>
<!-- Node5 -->
<g id="node5" class="node"><title>Node5</title>
<g id="a_node5"><a xlink:href="namespacestm.html#a02782a7198a1edebbcd545924d2ca25f" target="_top" xlink:title="stm::initTM\&lt; Serial \&gt;">
<polygon fill="none" stroke="black" points="159.5,-114.5 159.5,-133.5 268.5,-133.5 268.5,-114.5 159.5,-114.5"/>
<text text-anchor="middle" x="214" y="-121.5" font-family="Helvetica,sans-Serif" font-size="10.00">stm::initTM&lt; Serial &gt;</text>
</a>
</g>
</g>
<!-- Node1&#45;&gt;Node5 -->
<g id="edge4" class="edge"><title>Node1&#45;&gt;Node5</title>
<path fill="none" stroke="midnightblue" d="M132.333,-124C141.448,-124 150.664,-124 159.446,-124"/>
<polygon fill="midnightblue" stroke="midnightblue" points="132.113,-120.5 122.113,-124 132.113,-127.5 132.113,-120.5"/>
</g>
<!-- Node6 -->
<g id="node6" class="node"><title>Node6</title>
<g id="a_node6"><a xlink:href="namespacestm.html#a8efa5265650472f1904c9aa89da09e69" target="_top" xlink:title="stm::initTM\&lt; Swiss \&gt;">
<polygon fill="none" stroke="black" points="158.5,-76.5 158.5,-95.5 269.5,-95.5 269.5,-76.5 158.5,-76.5"/>
<text text-anchor="middle" x="214" y="-83.5" font-family="Helvetica,sans-Serif" font-size="10.00">stm::initTM&lt; Swiss &gt;</text>
</a>
</g>
</g>
<!-- Node1&#45;&gt;Node6 -->
<g id="edge5" class="edge"><title>Node1&#45;&gt;Node6</title>
<path fill="none" stroke="midnightblue" d="M131.463,-106.519C146.459,-102.745 161.775,-98.891 175.024,-95.5568"/>
<polygon fill="midnightblue" stroke="midnightblue" points="130.523,-103.147 121.679,-108.981 132.231,-109.935 130.523,-103.147"/>
</g>
<!-- Node7 -->
<g id="node7" class="node"><title>Node7</title>
<g id="a_node7"><a xlink:href="namespacestm.html#af9008f38389991f51f8a771deac32ff9" target="_top" xlink:title="stm::initTM\&lt; Ticket \&gt;">
<polygon fill="none" stroke="black" points="158.5,-38.5 158.5,-57.5 269.5,-57.5 269.5,-38.5 158.5,-38.5"/>
<text text-anchor="middle" x="214" y="-45.5" font-family="Helvetica,sans-Serif" font-size="10.00">stm::initTM&lt; Ticket &gt;</text>
</a>
</g>
</g>
<!-- Node1&#45;&gt;Node7 -->
<g id="edge6" class="edge"><title>Node1&#45;&gt;Node7</title>
<path fill="none" stroke="midnightblue" d="M93.0988,-103.341C111.474,-91.6981 135.484,-77.4415 158,-67 165.515,-63.515 173.859,-60.3131 181.729,-57.5706"/>
<polygon fill="midnightblue" stroke="midnightblue" points="91.0883,-100.473 84.5619,-108.819 94.8685,-106.364 91.0883,-100.473"/>
</g>
<!-- Node8 -->
<g id="node8" class="node"><title>Node8</title>
<g id="a_node8"><a xlink:href="namespacestm.html#a37f85872162e9d5fcc4708c29f302750" target="_top" xlink:title="stm::initTM\&lt; TML \&gt;">
<polygon fill="none" stroke="black" points="162,-0.5 162,-19.5 266,-19.5 266,-0.5 162,-0.5"/>
<text text-anchor="middle" x="214" y="-7.5" font-family="Helvetica,sans-Serif" font-size="10.00">stm::initTM&lt; TML &gt;</text>
</a>
</g>
</g>
<!-- Node1&#45;&gt;Node8 -->
<g id="edge7" class="edge"><title>Node1&#45;&gt;Node8</title>
<path fill="none" stroke="midnightblue" d="M80.1943,-100.786C97.9896,-79.472 126.887,-48.35 158,-29 164.005,-25.2653 170.838,-22.1524 177.598,-19.6005"/>
<polygon fill="midnightblue" stroke="midnightblue" points="77.3388,-98.7489 73.7154,-108.705 82.7566,-103.182 77.3388,-98.7489"/>
</g>
</g>
</svg>
