<?xml version="1.0" encoding="UTF-8" standalone="no"?>
<!DOCTYPE svg PUBLIC "-//W3C//DTD SVG 1.1//EN"
 "http://www.w3.org/Graphics/SVG/1.1/DTD/svg11.dtd">
<!-- Generated by graphviz version 2.36.0 (20140111.2315)
 -->
<!-- Title: allocNode Pages: 1 -->
<svg width="344pt" height="66pt"
 viewBox="0.00 0.00 344.00 66.00" xmlns="http://www.w3.org/2000/svg" xmlns:xlink="http://www.w3.org/1999/xlink">
<g id="graph0" class="graph" transform="scale(1 1) rotate(0) translate(4 62)">
<title>allocNode</title>
<!-- Node1 -->
<g id="node1" class="node"><title>Node1</title>
<polygon fill="#bfbfbf" stroke="black" points="0,-19.5 0,-38.5 60,-38.5 60,-19.5 0,-19.5"/>
<text text-anchor="middle" x="30" y="-26.5" font-family="Helvetica,sans-Serif" font-size="10.00">allocNode</text>
</g>
<!-- Node2 -->
<g id="node2" class="node"><title>Node2</title>
<g id="a_node2"><a xlink:href="list_8c.html#acff01c26015a0263b94839e622c17d66" target="_top" xlink:title="Plist_alloc">
<polygon fill="none" stroke="black" points="96,-38.5 96,-57.5 158,-57.5 158,-38.5 96,-38.5"/>
<text text-anchor="middle" x="127" y="-45.5" font-family="Helvetica,sans-Serif" font-size="10.00">Plist_alloc</text>
</a>
</g>
</g>
<!-- Node1&#45;&gt;Node2 -->
<g id="edge1" class="edge"><title>Node1&#45;&gt;Node2</title>
<path fill="none" stroke="midnightblue" d="M60.0193,-34.8039C68.1769,-36.4354 77.1961,-38.2392 85.8782,-39.9756"/>
<polygon fill="midnightblue" stroke="midnightblue" points="85.3513,-43.4395 95.8435,-41.9687 86.7241,-36.5754 85.3513,-43.4395"/>
</g>
<!-- Node3 -->
<g id="node3" class="node"><title>Node3</title>
<g id="a_node3"><a xlink:href="list_8c.html#a4fb22eb8e01180e8150cd15c8257e57a" target="_top" xlink:title="list_free">
<polygon fill="none" stroke="black" points="101.5,-0.5 101.5,-19.5 152.5,-19.5 152.5,-0.5 101.5,-0.5"/>
<text text-anchor="middle" x="127" y="-7.5" font-family="Helvetica,sans-Serif" font-size="10.00">list_free</text>
</a>
</g>
</g>
<!-- Node1&#45;&gt;Node3 -->
<g id="edge2" class="edge"><title>Node1&#45;&gt;Node3</title>
<path fill="none" stroke="midnightblue" d="M60.0193,-23.1961C69.923,-21.2154 81.0966,-18.9807 91.3952,-16.921"/>
<polygon fill="midnightblue" stroke="midnightblue" points="92.2033,-20.3287 101.323,-14.9355 90.8304,-13.4647 92.2033,-20.3287"/>
</g>
<!-- Node4 -->
<g id="node4" class="node"><title>Node4</title>
<g id="a_node4"><a xlink:href="list_8c.html#a475696d1a0aedfdbac6a0c6516fc78da" target="_top" xlink:title="freeList">
<polygon fill="none" stroke="black" points="194.5,-0.5 194.5,-19.5 243.5,-19.5 243.5,-0.5 194.5,-0.5"/>
<text text-anchor="middle" x="219" y="-7.5" font-family="Helvetica,sans-Serif" font-size="10.00">freeList</text>
</a>
</g>
</g>
<!-- Node3&#45;&gt;Node4 -->
<g id="edge3" class="edge"><title>Node3&#45;&gt;Node4</title>
<path fill="none" stroke="midnightblue" d="M152.593,-10C162.351,-10 173.734,-10 184.243,-10"/>
<polygon fill="midnightblue" stroke="midnightblue" points="184.368,-13.5001 194.368,-10 184.368,-6.5001 184.368,-13.5001"/>
</g>
<!-- Node5 -->
<g id="node5" class="node"><title>Node5</title>
<g id="a_node5"><a xlink:href="list_8c.html#ac485202058cce61a3db7ad23eea4c658" target="_top" xlink:title="freeNode">
<polygon fill="none" stroke="black" points="280,-0.5 280,-19.5 336,-19.5 336,-0.5 280,-0.5"/>
<text text-anchor="middle" x="308" y="-7.5" font-family="Helvetica,sans-Serif" font-size="10.00">freeNode</text>
</a>
</g>
</g>
<!-- Node4&#45;&gt;Node5 -->
<g id="edge4" class="edge"><title>Node4&#45;&gt;Node5</title>
<path fill="none" stroke="midnightblue" d="M243.773,-10C251.801,-10 260.966,-10 269.779,-10"/>
<polygon fill="midnightblue" stroke="midnightblue" points="269.875,-13.5001 279.875,-10 269.875,-6.5001 269.875,-13.5001"/>
</g>
</g>
</svg>
