<?xml version="1.0" encoding="UTF-8" standalone="no"?>
<!DOCTYPE svg PUBLIC "-//W3C//DTD SVG 1.1//EN"
 "http://www.w3.org/Graphics/SVG/1.1/DTD/svg11.dtd">
<!-- Generated by graphviz version 2.36.0 (20140111.2315)
 -->
<!-- Title: net_alloc Pages: 1 -->
<svg width="584pt" height="180pt"
 viewBox="0.00 0.00 584.00 180.00" xmlns="http://www.w3.org/2000/svg" xmlns:xlink="http://www.w3.org/1999/xlink">
<g id="graph0" class="graph" transform="scale(1 1) rotate(0) translate(4 176)">
<title>net_alloc</title>
<!-- Node1 -->
<g id="node1" class="node"><title>Node1</title>
<polygon fill="#bfbfbf" stroke="black" points="0,-133.5 0,-152.5 56,-152.5 56,-133.5 0,-133.5"/>
<text text-anchor="middle" x="28" y="-140.5" font-family="Helvetica,sans-Serif" font-size="10.00">net_alloc</text>
</g>
<!-- Node2 -->
<g id="node2" class="node"><title>Node2</title>
<g id="a_node2"><a xlink:href="data_8h.html#a0f45b98c6cac17904d9daf25fbdc1dc9" target="_top" xlink:title="data_generate">
<polygon fill="none" stroke="black" points="200,-152.5 200,-171.5 278,-171.5 278,-152.5 200,-152.5"/>
<text text-anchor="middle" x="239" y="-159.5" font-family="Helvetica,sans-Serif" font-size="10.00">data_generate</text>
</a>
</g>
</g>
<!-- Node1&#45;&gt;Node2 -->
<g id="edge1" class="edge"><title>Node1&#45;&gt;Node2</title>
<path fill="none" stroke="midnightblue" d="M66.3653,-146.397C103.979,-149.816 161.717,-155.065 199.67,-158.515"/>
<polygon fill="midnightblue" stroke="midnightblue" points="66.5989,-142.904 56.3231,-145.484 65.9651,-149.875 66.5989,-142.904"/>
</g>
<!-- Node4 -->
<g id="node4" class="node"><title>Node4</title>
<g id="a_node4"><a xlink:href="learner_8h.html#aea1955f8471f02d66c6a39136d621f5b" target="_top" xlink:title="learner_alloc">
<polygon fill="none" stroke="black" points="92.5,-114.5 92.5,-133.5 163.5,-133.5 163.5,-114.5 92.5,-114.5"/>
<text text-anchor="middle" x="128" y="-121.5" font-family="Helvetica,sans-Serif" font-size="10.00">learner_alloc</text>
</a>
</g>
</g>
<!-- Node1&#45;&gt;Node4 -->
<g id="edge3" class="edge"><title>Node1&#45;&gt;Node4</title>
<path fill="none" stroke="midnightblue" d="M65.8921,-135.847C74.5571,-134.167 83.7611,-132.383 92.325,-130.723"/>
<polygon fill="midnightblue" stroke="midnightblue" points="65.1894,-132.418 56.0384,-137.758 66.5217,-139.29 65.1894,-132.418"/>
</g>
<!-- Node3 -->
<g id="node3" class="node"><title>Node3</title>
<g id="a_node3"><a xlink:href="bayes_8c.html#a40c5c0b0d4eb7b59a91108269f69dc89" target="_top" xlink:title="MAIN">
<polygon fill="none" stroke="black" points="534,-76.5 534,-95.5 576,-95.5 576,-76.5 534,-76.5"/>
<text text-anchor="middle" x="555" y="-83.5" font-family="Helvetica,sans-Serif" font-size="10.00">MAIN</text>
</a>
</g>
</g>
<!-- Node2&#45;&gt;Node3 -->
<g id="edge2" class="edge"><title>Node2&#45;&gt;Node3</title>
<path fill="none" stroke="midnightblue" d="M288.482,-166.52C342.153,-169.521 430.05,-168.391 498,-138 519.073,-128.575 537.371,-107.939 546.93,-95.6867"/>
<polygon fill="midnightblue" stroke="midnightblue" points="288.421,-163.01 278.221,-165.873 287.98,-169.996 288.421,-163.01"/>
</g>
<!-- Node4&#45;&gt;Node3 -->
<g id="edge12" class="edge"><title>Node4&#45;&gt;Node3</title>
<path fill="none" stroke="midnightblue" d="M173.878,-122.058C243.489,-118.716 381.603,-110.77 498,-96 509.953,-94.4832 523.231,-92.141 533.857,-90.1046"/>
<polygon fill="midnightblue" stroke="midnightblue" points="173.536,-118.57 163.711,-122.537 173.865,-125.562 173.536,-118.57"/>
</g>
<!-- Node5 -->
<g id="node5" class="node"><title>Node5</title>
<g id="a_node5"><a xlink:href="bayes_8c.html#aa39a74293929705f5dfd47a76641d12a" target="_top" xlink:title="score">
<polygon fill="none" stroke="black" points="218.5,-38.5 218.5,-57.5 259.5,-57.5 259.5,-38.5 218.5,-38.5"/>
<text text-anchor="middle" x="239" y="-45.5" font-family="Helvetica,sans-Serif" font-size="10.00">score</text>
</a>
</g>
</g>
<!-- Node4&#45;&gt;Node5 -->
<g id="edge4" class="edge"><title>Node4&#45;&gt;Node5</title>
<path fill="none" stroke="midnightblue" d="M151.177,-108.537C173.096,-93.2541 205.938,-70.3551 224.307,-57.5473"/>
<polygon fill="midnightblue" stroke="midnightblue" points="149.006,-105.784 142.805,-114.375 153.01,-111.526 149.006,-105.784"/>
</g>
<!-- Node5&#45;&gt;Node3 -->
<g id="edge5" class="edge"><title>Node5&#45;&gt;Node3</title>
<path fill="none" stroke="midnightblue" d="M269.296,-56.7622C282.793,-60.4775 299.091,-64.5149 314,-67 394.807,-80.4692 492.562,-84.4512 533.946,-85.5778"/>
<polygon fill="midnightblue" stroke="midnightblue" points="270.165,-53.3709 259.59,-54.0149 268.259,-60.1063 270.165,-53.3709"/>
</g>
<!-- Node6 -->
<g id="node6" class="node"><title>Node6</title>
<g id="a_node6"><a xlink:href="learner_8c.html#a5a45fbc491ab273140631145a6e82e54" target="_top" xlink:title="createTaskList">
<polygon fill="none" stroke="black" points="314.5,-38.5 314.5,-57.5 395.5,-57.5 395.5,-38.5 314.5,-38.5"/>
<text text-anchor="middle" x="355" y="-45.5" font-family="Helvetica,sans-Serif" font-size="10.00">createTaskList</text>
</a>
</g>
</g>
<!-- Node5&#45;&gt;Node6 -->
<g id="edge6" class="edge"><title>Node5&#45;&gt;Node6</title>
<path fill="none" stroke="midnightblue" d="M269.849,-48C283.458,-48 299.759,-48 314.376,-48"/>
<polygon fill="midnightblue" stroke="midnightblue" points="269.597,-44.5001 259.597,-48 269.597,-51.5001 269.597,-44.5001"/>
</g>
<!-- Node8 -->
<g id="node8" class="node"><title>Node8</title>
<g id="a_node8"><a xlink:href="learner_8h.html#a643517a90c64064dfb94cb9cb8d6eddf" target="_top" xlink:title="learner_score">
<polygon fill="none" stroke="black" points="317.5,-0.5 317.5,-19.5 392.5,-19.5 392.5,-0.5 317.5,-0.5"/>
<text text-anchor="middle" x="355" y="-7.5" font-family="Helvetica,sans-Serif" font-size="10.00">learner_score</text>
</a>
</g>
</g>
<!-- Node5&#45;&gt;Node8 -->
<g id="edge9" class="edge"><title>Node5&#45;&gt;Node8</title>
<path fill="none" stroke="midnightblue" d="M264.214,-34.2899C279.555,-27.9995 299.698,-21.043 317.017,-15.9621"/>
<polygon fill="midnightblue" stroke="midnightblue" points="262.703,-31.1299 254.904,-38.3009 265.472,-37.5586 262.703,-31.1299"/>
</g>
<!-- Node7 -->
<g id="node7" class="node"><title>Node7</title>
<g id="a_node7"><a xlink:href="learner_8h.html#a23d451d4d355a14fa7c9735304ba4d95" target="_top" xlink:title="learner_run">
<polygon fill="none" stroke="black" points="432.5,-38.5 432.5,-57.5 497.5,-57.5 497.5,-38.5 432.5,-38.5"/>
<text text-anchor="middle" x="465" y="-45.5" font-family="Helvetica,sans-Serif" font-size="10.00">learner_run</text>
</a>
</g>
</g>
<!-- Node6&#45;&gt;Node7 -->
<g id="edge7" class="edge"><title>Node6&#45;&gt;Node7</title>
<path fill="none" stroke="midnightblue" d="M405.656,-48C414.67,-48 423.846,-48 432.171,-48"/>
<polygon fill="midnightblue" stroke="midnightblue" points="405.602,-44.5001 395.602,-48 405.602,-51.5001 405.602,-44.5001"/>
</g>
<!-- Node7&#45;&gt;Node3 -->
<g id="edge8" class="edge"><title>Node7&#45;&gt;Node3</title>
<path fill="none" stroke="midnightblue" d="M497.55,-61.624C509.666,-66.8559 523.155,-72.6804 533.908,-77.3237"/>
<polygon fill="midnightblue" stroke="midnightblue" points="498.774,-58.3402 488.206,-57.589 495.999,-64.7666 498.774,-58.3402"/>
</g>
<!-- Node8&#45;&gt;Node3 -->
<g id="edge11" class="edge"><title>Node8&#45;&gt;Node3</title>
<path fill="none" stroke="midnightblue" d="M402.835,-8.71477C431.655,-9.70715 468.577,-14.2891 498,-29 520.086,-40.0428 538.533,-63.2864 547.723,-76.4253"/>
<polygon fill="midnightblue" stroke="midnightblue" points="402.684,-5.21092 392.613,-8.49946 402.537,-12.2094 402.684,-5.21092"/>
</g>
<!-- Node8&#45;&gt;Node5 -->
<g id="edge10" class="edge"><title>Node8&#45;&gt;Node5</title>
<path fill="none" stroke="midnightblue" d="M329.899,-23.6639C308.981,-32.2495 279.073,-42.0892 259.597,-46.7096"/>
<polygon fill="midnightblue" stroke="midnightblue" points="331.568,-26.7558 339.361,-19.5782 328.793,-20.3293 331.568,-26.7558"/>
</g>
</g>
</svg>
