<?xml version="1.0" encoding="UTF-8" standalone="no"?>
<!DOCTYPE svg PUBLIC "-//W3C//DTD SVG 1.1//EN"
 "http://www.w3.org/Graphics/SVG/1.1/DTD/svg11.dtd">
<!-- Generated by graphviz version 2.36.0 (20140111.2315)
 -->
<!-- Title: net_getParentIdListPtr Pages: 1 -->
<svg width="1000pt" height="186pt"
 viewBox="0.00 0.00 1000.00 186.34" xmlns="http://www.w3.org/2000/svg" xmlns:xlink="http://www.w3.org/1999/xlink">
<g id="graph0" class="graph" transform="scale(1 1) rotate(0) translate(4 182.337)">
<title>net_getParentIdListPtr</title>
<!-- Node1 -->
<g id="node1" class="node"><title>Node1</title>
<polygon fill="#bfbfbf" stroke="black" points="0,-76.5 0,-95.5 114,-95.5 114,-76.5 0,-76.5"/>
<text text-anchor="middle" x="57" y="-83.5" font-family="Helvetica,sans-Serif" font-size="10.00">net_getParentIdListPtr</text>
</g>
<!-- Node2 -->
<g id="node2" class="node"><title>Node2</title>
<g id="a_node2"><a xlink:href="data_8h.html#a0f45b98c6cac17904d9daf25fbdc1dc9" target="_top" xlink:title="data_generate">
<polygon fill="none" stroke="black" points="616,-152.5 616,-171.5 694,-171.5 694,-152.5 616,-152.5"/>
<text text-anchor="middle" x="655" y="-159.5" font-family="Helvetica,sans-Serif" font-size="10.00">data_generate</text>
</a>
</g>
</g>
<!-- Node1&#45;&gt;Node2 -->
<g id="edge1" class="edge"><title>Node1&#45;&gt;Node2</title>
<path fill="none" stroke="midnightblue" d="M77.0555,-101.96C94.715,-115.685 122.355,-134.564 150,-143 317.29,-194.05 530.365,-177.002 615.924,-167.045"/>
<polygon fill="midnightblue" stroke="midnightblue" points="79.2279,-99.2153 69.2318,-95.7039 74.8564,-104.683 79.2279,-99.2153"/>
</g>
<!-- Node4 -->
<g id="node4" class="node"><title>Node4</title>
<g id="a_node4"><a xlink:href="learner_8c.html#a923c66a4bc105d43d93146cddc7795cf" target="_top" xlink:title="populateParentQueryVector">
<polygon fill="none" stroke="black" points="157.5,-114.5 157.5,-133.5 294.5,-133.5 294.5,-114.5 157.5,-114.5"/>
<text text-anchor="middle" x="226" y="-121.5" font-family="Helvetica,sans-Serif" font-size="10.00">populateParentQueryVector</text>
</a>
</g>
</g>
<!-- Node1&#45;&gt;Node4 -->
<g id="edge3" class="edge"><title>Node1&#45;&gt;Node4</title>
<path fill="none" stroke="midnightblue" d="M109.965,-97.8243C133.509,-103.182 160.974,-109.431 183.162,-114.48"/>
<polygon fill="midnightblue" stroke="midnightblue" points="110.668,-94.3951 100.141,-95.589 109.115,-101.221 110.668,-94.3951"/>
</g>
<!-- Node6 -->
<g id="node6" class="node"><title>Node6</title>
<g id="a_node6"><a xlink:href="learner_8h.html#a643517a90c64064dfb94cb9cb8d6eddf" target="_top" xlink:title="learner_score">
<polygon fill="none" stroke="black" points="503.5,-76.5 503.5,-95.5 578.5,-95.5 578.5,-76.5 503.5,-76.5"/>
<text text-anchor="middle" x="541" y="-83.5" font-family="Helvetica,sans-Serif" font-size="10.00">learner_score</text>
</a>
</g>
</g>
<!-- Node1&#45;&gt;Node6 -->
<g id="edge20" class="edge"><title>Node1&#45;&gt;Node6</title>
<path fill="none" stroke="midnightblue" d="M124.52,-86C227.579,-86 422.381,-86 503.311,-86"/>
<polygon fill="midnightblue" stroke="midnightblue" points="124.235,-82.5001 114.235,-86 124.235,-89.5001 124.235,-82.5001"/>
</g>
<!-- Node10 -->
<g id="node10" class="node"><title>Node10</title>
<g id="a_node10"><a xlink:href="learner_8c.html#a6ead24509867bb6bb068620ad2d9da93" target="_top" xlink:title="TMpopulateParentQueryVector">
<polygon fill="none" stroke="black" points="150.5,-38.5 150.5,-57.5 301.5,-57.5 301.5,-38.5 150.5,-38.5"/>
<text text-anchor="middle" x="226" y="-45.5" font-family="Helvetica,sans-Serif" font-size="10.00">TMpopulateParentQueryVector</text>
</a>
</g>
</g>
<!-- Node1&#45;&gt;Node10 -->
<g id="edge13" class="edge"><title>Node1&#45;&gt;Node10</title>
<path fill="none" stroke="midnightblue" d="M109.965,-74.1757C133.509,-68.8184 160.974,-62.5689 183.162,-57.5201"/>
<polygon fill="midnightblue" stroke="midnightblue" points="109.115,-70.7794 100.141,-76.411 110.668,-77.6049 109.115,-70.7794"/>
</g>
<!-- Node13 -->
<g id="node13" class="node"><title>Node13</title>
<g id="a_node13"><a xlink:href="learner_8c.html#af4655d41f33380b11243cae071a4ce37" target="_top" xlink:title="TMfindBestInsertTask">
<polygon fill="none" stroke="black" points="345.5,-0.5 345.5,-19.5 458.5,-19.5 458.5,-0.5 345.5,-0.5"/>
<text text-anchor="middle" x="402" y="-7.5" font-family="Helvetica,sans-Serif" font-size="10.00">TMfindBestInsertTask</text>
</a>
</g>
</g>
<!-- Node1&#45;&gt;Node13 -->
<g id="edge19" class="edge"><title>Node1&#45;&gt;Node13</title>
<path fill="none" stroke="midnightblue" d="M77.6198,-69.9187C95.3496,-56.3909 122.77,-37.8765 150,-29 214.713,-7.90493 293.591,-5.44545 345.444,-6.75415"/>
<polygon fill="midnightblue" stroke="midnightblue" points="74.9896,-67.5337 69.2839,-76.4609 79.3113,-73.0403 74.9896,-67.5337"/>
</g>
<!-- Node3 -->
<g id="node3" class="node"><title>Node3</title>
<g id="a_node3"><a xlink:href="bayes_8c.html#a40c5c0b0d4eb7b59a91108269f69dc89" target="_top" xlink:title="MAIN">
<polygon fill="none" stroke="black" points="950,-95.5 950,-114.5 992,-114.5 992,-95.5 950,-95.5"/>
<text text-anchor="middle" x="971" y="-102.5" font-family="Helvetica,sans-Serif" font-size="10.00">MAIN</text>
</a>
</g>
</g>
<!-- Node2&#45;&gt;Node3 -->
<g id="edge2" class="edge"><title>Node2&#45;&gt;Node3</title>
<path fill="none" stroke="midnightblue" d="M704.302,-163.716C757.103,-164.181 843.573,-160.764 914,-138 930.107,-132.794 946.564,-122.359 957.432,-114.61"/>
<polygon fill="midnightblue" stroke="midnightblue" points="704.253,-160.215 694.205,-163.576 704.156,-167.215 704.253,-160.215"/>
</g>
<!-- Node5 -->
<g id="node5" class="node"><title>Node5</title>
<g id="a_node5"><a xlink:href="learner_8c.html#a02c8bbd9e58f6b76caafe97e1265357d" target="_top" xlink:title="populateQueryVectors">
<polygon fill="none" stroke="black" points="345.5,-114.5 345.5,-133.5 458.5,-133.5 458.5,-114.5 345.5,-114.5"/>
<text text-anchor="middle" x="402" y="-121.5" font-family="Helvetica,sans-Serif" font-size="10.00">populateQueryVectors</text>
</a>
</g>
</g>
<!-- Node4&#45;&gt;Node5 -->
<g id="edge4" class="edge"><title>Node4&#45;&gt;Node5</title>
<path fill="none" stroke="midnightblue" d="M305.107,-124C318.728,-124 332.643,-124 345.497,-124"/>
<polygon fill="midnightblue" stroke="midnightblue" points="304.771,-120.5 294.771,-124 304.771,-127.5 304.771,-120.5"/>
</g>
<!-- Node5&#45;&gt;Node6 -->
<g id="edge5" class="edge"><title>Node5&#45;&gt;Node6</title>
<path fill="none" stroke="midnightblue" d="M447.411,-111.682C466.234,-106.461 487.838,-100.468 505.44,-95.5859"/>
<polygon fill="midnightblue" stroke="midnightblue" points="446.272,-108.365 437.571,-114.411 448.143,-115.111 446.272,-108.365"/>
</g>
<!-- Node6&#45;&gt;Node3 -->
<g id="edge12" class="edge"><title>Node6&#45;&gt;Node3</title>
<path fill="none" stroke="midnightblue" d="M582.626,-98.2164C593.38,-100.957 605.046,-103.496 616,-105 747.232,-123.017 781.668,-115.896 914,-110 925.896,-109.47 939.172,-108.31 949.811,-107.24"/>
<polygon fill="midnightblue" stroke="midnightblue" points="583.213,-94.7507 572.649,-95.5543 581.408,-101.514 583.213,-94.7507"/>
</g>
<!-- Node7 -->
<g id="node7" class="node"><title>Node7</title>
<g id="a_node7"><a xlink:href="bayes_8c.html#aa39a74293929705f5dfd47a76641d12a" target="_top" xlink:title="score">
<polygon fill="none" stroke="black" points="634.5,-76.5 634.5,-95.5 675.5,-95.5 675.5,-76.5 634.5,-76.5"/>
<text text-anchor="middle" x="655" y="-83.5" font-family="Helvetica,sans-Serif" font-size="10.00">score</text>
</a>
</g>
</g>
<!-- Node6&#45;&gt;Node7 -->
<g id="edge6" class="edge"><title>Node6&#45;&gt;Node7</title>
<path fill="none" stroke="midnightblue" d="M588.901,-79.3298C604.77,-79.0492 621.641,-79.5086 634.23,-80.7082"/>
<polygon fill="midnightblue" stroke="midnightblue" points="588.569,-75.8378 578.673,-79.6208 588.769,-82.8349 588.569,-75.8378"/>
</g>
<!-- Node7&#45;&gt;Node3 -->
<g id="edge7" class="edge"><title>Node7&#45;&gt;Node3</title>
<path fill="none" stroke="midnightblue" d="M685.78,-87.802C749.229,-91.6413 896.317,-100.541 949.961,-103.787"/>
<polygon fill="midnightblue" stroke="midnightblue" points="685.835,-84.299 675.642,-87.1885 685.412,-91.2862 685.835,-84.299"/>
</g>
<!-- Node7&#45;&gt;Node6 -->
<g id="edge11" class="edge"><title>Node7&#45;&gt;Node6</title>
<path fill="none" stroke="midnightblue" d="M624.171,-92.0468C610.196,-92.856 593.416,-92.9668 578.673,-92.3792"/>
<polygon fill="midnightblue" stroke="midnightblue" points="624.52,-95.5305 634.23,-91.2918 623.997,-88.5501 624.52,-95.5305"/>
</g>
<!-- Node8 -->
<g id="node8" class="node"><title>Node8</title>
<g id="a_node8"><a xlink:href="learner_8c.html#a5a45fbc491ab273140631145a6e82e54" target="_top" xlink:title="createTaskList">
<polygon fill="none" stroke="black" points="730.5,-38.5 730.5,-57.5 811.5,-57.5 811.5,-38.5 730.5,-38.5"/>
<text text-anchor="middle" x="771" y="-45.5" font-family="Helvetica,sans-Serif" font-size="10.00">createTaskList</text>
</a>
</g>
</g>
<!-- Node7&#45;&gt;Node8 -->
<g id="edge8" class="edge"><title>Node7&#45;&gt;Node8</title>
<path fill="none" stroke="midnightblue" d="M685.153,-76.2823C702.383,-70.5392 724.112,-63.296 741.267,-57.5775"/>
<polygon fill="midnightblue" stroke="midnightblue" points="683.977,-72.9848 675.597,-79.4676 686.191,-79.6256 683.977,-72.9848"/>
</g>
<!-- Node9 -->
<g id="node9" class="node"><title>Node9</title>
<g id="a_node9"><a xlink:href="learner_8h.html#a23d451d4d355a14fa7c9735304ba4d95" target="_top" xlink:title="learner_run">
<polygon fill="none" stroke="black" points="848.5,-38.5 848.5,-57.5 913.5,-57.5 913.5,-38.5 848.5,-38.5"/>
<text text-anchor="middle" x="881" y="-45.5" font-family="Helvetica,sans-Serif" font-size="10.00">learner_run</text>
</a>
</g>
</g>
<!-- Node8&#45;&gt;Node9 -->
<g id="edge9" class="edge"><title>Node8&#45;&gt;Node9</title>
<path fill="none" stroke="midnightblue" d="M821.656,-48C830.67,-48 839.846,-48 848.171,-48"/>
<polygon fill="midnightblue" stroke="midnightblue" points="821.602,-44.5001 811.602,-48 821.602,-51.5001 821.602,-44.5001"/>
</g>
<!-- Node9&#45;&gt;Node3 -->
<g id="edge10" class="edge"><title>Node9&#45;&gt;Node3</title>
<path fill="none" stroke="midnightblue" d="M905.632,-63.3069C921.443,-73.5482 941.756,-86.7058 955.292,-95.4735"/>
<polygon fill="midnightblue" stroke="midnightblue" points="907.224,-60.1682 896.928,-57.6693 903.418,-66.0434 907.224,-60.1682"/>
</g>
<!-- Node11 -->
<g id="node11" class="node"><title>Node11</title>
<g id="a_node11"><a xlink:href="learner_8c.html#ad1501982eb48921ad41de7de9457db4b" target="_top" xlink:title="TMpopulateQueryVectors">
<polygon fill="none" stroke="black" points="338,-38.5 338,-57.5 466,-57.5 466,-38.5 338,-38.5"/>
<text text-anchor="middle" x="402" y="-45.5" font-family="Helvetica,sans-Serif" font-size="10.00">TMpopulateQueryVectors</text>
</a>
</g>
</g>
<!-- Node10&#45;&gt;Node11 -->
<g id="edge14" class="edge"><title>Node10&#45;&gt;Node11</title>
<path fill="none" stroke="midnightblue" d="M311.801,-48C320.563,-48 329.356,-48 337.822,-48"/>
<polygon fill="midnightblue" stroke="midnightblue" points="311.549,-44.5001 301.549,-48 311.549,-51.5001 311.549,-44.5001"/>
</g>
<!-- Node10&#45;&gt;Node13 -->
<g id="edge17" class="edge"><title>Node10&#45;&gt;Node13</title>
<path fill="none" stroke="midnightblue" d="M280.814,-36.2474C305.418,-30.8742 334.187,-24.5914 357.408,-19.5201"/>
<polygon fill="midnightblue" stroke="midnightblue" points="279.93,-32.8579 270.908,-38.411 281.424,-39.6967 279.93,-32.8579"/>
</g>
<!-- Node12 -->
<g id="node12" class="node"><title>Node12</title>
<g id="a_node12"><a xlink:href="learner_8c.html#a992842224f9ab3030136c9cadb79bd44" target="_top" xlink:title="learnStructure">
<polygon fill="none" stroke="black" points="502.5,-0.5 502.5,-19.5 579.5,-19.5 579.5,-0.5 502.5,-0.5"/>
<text text-anchor="middle" x="541" y="-7.5" font-family="Helvetica,sans-Serif" font-size="10.00">learnStructure</text>
</a>
</g>
</g>
<!-- Node11&#45;&gt;Node12 -->
<g id="edge15" class="edge"><title>Node11&#45;&gt;Node12</title>
<path fill="none" stroke="midnightblue" d="M447.411,-35.6817C466.234,-30.4607 487.838,-24.4684 505.44,-19.5859"/>
<polygon fill="midnightblue" stroke="midnightblue" points="446.272,-32.3654 437.571,-38.411 448.143,-39.1108 446.272,-32.3654"/>
</g>
<!-- Node12&#45;&gt;Node9 -->
<g id="edge16" class="edge"><title>Node12&#45;&gt;Node9</title>
<path fill="none" stroke="midnightblue" d="M589.872,-10.4557C644.119,-11.6447 735.006,-15.6758 812,-29 824.924,-31.2365 838.923,-34.9227 850.842,-38.456"/>
<polygon fill="midnightblue" stroke="midnightblue" points="589.92,-6.95603 579.853,-10.2595 589.783,-13.9547 589.92,-6.95603"/>
</g>
<!-- Node13&#45;&gt;Node12 -->
<g id="edge18" class="edge"><title>Node13&#45;&gt;Node12</title>
<path fill="none" stroke="midnightblue" d="M468.785,-10C480.301,-10 491.921,-10 502.338,-10"/>
<polygon fill="midnightblue" stroke="midnightblue" points="468.723,-6.5001 458.723,-10 468.723,-13.5001 468.723,-6.5001"/>
</g>
</g>
</svg>
