<?xml version="1.0" encoding="UTF-8" standalone="no"?>
<!DOCTYPE svg PUBLIC "-//W3C//DTD SVG 1.1//EN"
 "http://www.w3.org/Graphics/SVG/1.1/DTD/svg11.dtd">
<!-- Generated by graphviz version 2.36.0 (20140111.2315)
 -->
<!-- Title: allocNode Pages: 1 -->
<svg width="680pt" height="180pt"
 viewBox="0.00 0.00 680.00 180.00" xmlns="http://www.w3.org/2000/svg" xmlns:xlink="http://www.w3.org/1999/xlink">
<g id="graph0" class="graph" transform="scale(1 1) rotate(0) translate(4 176)">
<title>allocNode</title>
<!-- Node1 -->
<g id="node1" class="node"><title>Node1</title>
<polygon fill="#bfbfbf" stroke="black" points="0,-133.5 0,-152.5 60,-152.5 60,-133.5 0,-133.5"/>
<text text-anchor="middle" x="30" y="-140.5" font-family="Helvetica,sans-Serif" font-size="10.00">allocNode</text>
</g>
<!-- Node2 -->
<g id="node2" class="node"><title>Node2</title>
<g id="a_node2"><a xlink:href="net_8h.html#a0e1584818d0f7bb3619e74222bc3f918" target="_top" xlink:title="net_alloc">
<polygon fill="none" stroke="black" points="96,-133.5 96,-152.5 152,-152.5 152,-133.5 96,-133.5"/>
<text text-anchor="middle" x="124" y="-140.5" font-family="Helvetica,sans-Serif" font-size="10.00">net_alloc</text>
</a>
</g>
</g>
<!-- Node1&#45;&gt;Node2 -->
<g id="edge1" class="edge"><title>Node1&#45;&gt;Node2</title>
<path fill="none" stroke="midnightblue" d="M70.3859,-143C79.0081,-143 87.947,-143 95.9566,-143"/>
<polygon fill="midnightblue" stroke="midnightblue" points="70.1094,-139.5 60.1094,-143 70.1093,-146.5 70.1094,-139.5"/>
</g>
<!-- Node3 -->
<g id="node3" class="node"><title>Node3</title>
<g id="a_node3"><a xlink:href="data_8h.html#a0f45b98c6cac17904d9daf25fbdc1dc9" target="_top" xlink:title="data_generate">
<polygon fill="none" stroke="black" points="296,-152.5 296,-171.5 374,-171.5 374,-152.5 296,-152.5"/>
<text text-anchor="middle" x="335" y="-159.5" font-family="Helvetica,sans-Serif" font-size="10.00">data_generate</text>
</a>
</g>
</g>
<!-- Node2&#45;&gt;Node3 -->
<g id="edge2" class="edge"><title>Node2&#45;&gt;Node3</title>
<path fill="none" stroke="midnightblue" d="M162.365,-146.397C199.979,-149.816 257.717,-155.065 295.67,-158.515"/>
<polygon fill="midnightblue" stroke="midnightblue" points="162.599,-142.904 152.323,-145.484 161.965,-149.875 162.599,-142.904"/>
</g>
<!-- Node5 -->
<g id="node5" class="node"><title>Node5</title>
<g id="a_node5"><a xlink:href="learner_8h.html#aea1955f8471f02d66c6a39136d621f5b" target="_top" xlink:title="learner_alloc">
<polygon fill="none" stroke="black" points="188.5,-114.5 188.5,-133.5 259.5,-133.5 259.5,-114.5 188.5,-114.5"/>
<text text-anchor="middle" x="224" y="-121.5" font-family="Helvetica,sans-Serif" font-size="10.00">learner_alloc</text>
</a>
</g>
</g>
<!-- Node2&#45;&gt;Node5 -->
<g id="edge4" class="edge"><title>Node2&#45;&gt;Node5</title>
<path fill="none" stroke="midnightblue" d="M161.892,-135.847C170.557,-134.167 179.761,-132.383 188.325,-130.723"/>
<polygon fill="midnightblue" stroke="midnightblue" points="161.189,-132.418 152.038,-137.758 162.522,-139.29 161.189,-132.418"/>
</g>
<!-- Node4 -->
<g id="node4" class="node"><title>Node4</title>
<g id="a_node4"><a xlink:href="bayes_8c.html#a40c5c0b0d4eb7b59a91108269f69dc89" target="_top" xlink:title="MAIN">
<polygon fill="none" stroke="black" points="630,-76.5 630,-95.5 672,-95.5 672,-76.5 630,-76.5"/>
<text text-anchor="middle" x="651" y="-83.5" font-family="Helvetica,sans-Serif" font-size="10.00">MAIN</text>
</a>
</g>
</g>
<!-- Node3&#45;&gt;Node4 -->
<g id="edge3" class="edge"><title>Node3&#45;&gt;Node4</title>
<path fill="none" stroke="midnightblue" d="M384.482,-166.52C438.153,-169.521 526.05,-168.391 594,-138 615.073,-128.575 633.371,-107.939 642.93,-95.6867"/>
<polygon fill="midnightblue" stroke="midnightblue" points="384.421,-163.01 374.221,-165.873 383.98,-169.996 384.421,-163.01"/>
</g>
<!-- Node5&#45;&gt;Node4 -->
<g id="edge13" class="edge"><title>Node5&#45;&gt;Node4</title>
<path fill="none" stroke="midnightblue" d="M269.878,-122.058C339.489,-118.716 477.603,-110.77 594,-96 605.953,-94.4832 619.231,-92.141 629.857,-90.1046"/>
<polygon fill="midnightblue" stroke="midnightblue" points="269.536,-118.57 259.711,-122.537 269.865,-125.562 269.536,-118.57"/>
</g>
<!-- Node6 -->
<g id="node6" class="node"><title>Node6</title>
<g id="a_node6"><a xlink:href="bayes_8c.html#aa39a74293929705f5dfd47a76641d12a" target="_top" xlink:title="score">
<polygon fill="none" stroke="black" points="314.5,-38.5 314.5,-57.5 355.5,-57.5 355.5,-38.5 314.5,-38.5"/>
<text text-anchor="middle" x="335" y="-45.5" font-family="Helvetica,sans-Serif" font-size="10.00">score</text>
</a>
</g>
</g>
<!-- Node5&#45;&gt;Node6 -->
<g id="edge5" class="edge"><title>Node5&#45;&gt;Node6</title>
<path fill="none" stroke="midnightblue" d="M247.177,-108.537C269.096,-93.2541 301.938,-70.3551 320.307,-57.5473"/>
<polygon fill="midnightblue" stroke="midnightblue" points="245.006,-105.784 238.805,-114.375 249.01,-111.526 245.006,-105.784"/>
</g>
<!-- Node6&#45;&gt;Node4 -->
<g id="edge6" class="edge"><title>Node6&#45;&gt;Node4</title>
<path fill="none" stroke="midnightblue" d="M365.296,-56.7622C378.793,-60.4775 395.091,-64.5149 410,-67 490.807,-80.4692 588.562,-84.4512 629.946,-85.5778"/>
<polygon fill="midnightblue" stroke="midnightblue" points="366.165,-53.3709 355.59,-54.0149 364.259,-60.1063 366.165,-53.3709"/>
</g>
<!-- Node7 -->
<g id="node7" class="node"><title>Node7</title>
<g id="a_node7"><a xlink:href="learner_8c.html#a5a45fbc491ab273140631145a6e82e54" target="_top" xlink:title="createTaskList">
<polygon fill="none" stroke="black" points="410.5,-38.5 410.5,-57.5 491.5,-57.5 491.5,-38.5 410.5,-38.5"/>
<text text-anchor="middle" x="451" y="-45.5" font-family="Helvetica,sans-Serif" font-size="10.00">createTaskList</text>
</a>
</g>
</g>
<!-- Node6&#45;&gt;Node7 -->
<g id="edge7" class="edge"><title>Node6&#45;&gt;Node7</title>
<path fill="none" stroke="midnightblue" d="M365.849,-48C379.458,-48 395.759,-48 410.376,-48"/>
<polygon fill="midnightblue" stroke="midnightblue" points="365.597,-44.5001 355.597,-48 365.597,-51.5001 365.597,-44.5001"/>
</g>
<!-- Node9 -->
<g id="node9" class="node"><title>Node9</title>
<g id="a_node9"><a xlink:href="learner_8h.html#a643517a90c64064dfb94cb9cb8d6eddf" target="_top" xlink:title="learner_score">
<polygon fill="none" stroke="black" points="413.5,-0.5 413.5,-19.5 488.5,-19.5 488.5,-0.5 413.5,-0.5"/>
<text text-anchor="middle" x="451" y="-7.5" font-family="Helvetica,sans-Serif" font-size="10.00">learner_score</text>
</a>
</g>
</g>
<!-- Node6&#45;&gt;Node9 -->
<g id="edge10" class="edge"><title>Node6&#45;&gt;Node9</title>
<path fill="none" stroke="midnightblue" d="M360.214,-34.2899C375.555,-27.9995 395.698,-21.043 413.017,-15.9621"/>
<polygon fill="midnightblue" stroke="midnightblue" points="358.703,-31.1299 350.904,-38.3009 361.472,-37.5586 358.703,-31.1299"/>
</g>
<!-- Node8 -->
<g id="node8" class="node"><title>Node8</title>
<g id="a_node8"><a xlink:href="learner_8h.html#a23d451d4d355a14fa7c9735304ba4d95" target="_top" xlink:title="learner_run">
<polygon fill="none" stroke="black" points="528.5,-38.5 528.5,-57.5 593.5,-57.5 593.5,-38.5 528.5,-38.5"/>
<text text-anchor="middle" x="561" y="-45.5" font-family="Helvetica,sans-Serif" font-size="10.00">learner_run</text>
</a>
</g>
</g>
<!-- Node7&#45;&gt;Node8 -->
<g id="edge8" class="edge"><title>Node7&#45;&gt;Node8</title>
<path fill="none" stroke="midnightblue" d="M501.656,-48C510.67,-48 519.846,-48 528.171,-48"/>
<polygon fill="midnightblue" stroke="midnightblue" points="501.602,-44.5001 491.602,-48 501.602,-51.5001 501.602,-44.5001"/>
</g>
<!-- Node8&#45;&gt;Node4 -->
<g id="edge9" class="edge"><title>Node8&#45;&gt;Node4</title>
<path fill="none" stroke="midnightblue" d="M593.55,-61.624C605.666,-66.8559 619.155,-72.6804 629.908,-77.3237"/>
<polygon fill="midnightblue" stroke="midnightblue" points="594.774,-58.3402 584.206,-57.589 591.999,-64.7666 594.774,-58.3402"/>
</g>
<!-- Node9&#45;&gt;Node4 -->
<g id="edge12" class="edge"><title>Node9&#45;&gt;Node4</title>
<path fill="none" stroke="midnightblue" d="M498.835,-8.71477C527.655,-9.70715 564.577,-14.2891 594,-29 616.086,-40.0428 634.533,-63.2864 643.723,-76.4253"/>
<polygon fill="midnightblue" stroke="midnightblue" points="498.684,-5.21092 488.613,-8.49946 498.537,-12.2094 498.684,-5.21092"/>
</g>
<!-- Node9&#45;&gt;Node6 -->
<g id="edge11" class="edge"><title>Node9&#45;&gt;Node6</title>
<path fill="none" stroke="midnightblue" d="M425.899,-23.6639C404.981,-32.2495 375.073,-42.0892 355.597,-46.7096"/>
<polygon fill="midnightblue" stroke="midnightblue" points="427.568,-26.7558 435.361,-19.5782 424.793,-20.3293 427.568,-26.7558"/>
</g>
</g>
</svg>
