<?xml version="1.0" encoding="UTF-8" standalone="no"?>
<!DOCTYPE svg PUBLIC "-//W3C//DTD SVG 1.1//EN"
 "http://www.w3.org/Graphics/SVG/1.1/DTD/svg11.dtd">
<!-- Generated by graphviz version 2.36.0 (20140111.2315)
 -->
<!-- Title: insertEdge Pages: 1 -->
<svg width="1990pt" height="435pt"
 viewBox="0.00 0.00 1990.00 434.89" xmlns="http://www.w3.org/2000/svg" xmlns:xlink="http://www.w3.org/1999/xlink">
<g id="graph0" class="graph" transform="scale(1 1) rotate(0) translate(4 430.886)">
<title>insertEdge</title>
<!-- Node1 -->
<g id="node1" class="node"><title>Node1</title>
<polygon fill="#bfbfbf" stroke="black" points="0.5,-182.5 0.5,-201.5 63.5,-201.5 63.5,-182.5 0.5,-182.5"/>
<text text-anchor="middle" x="32" y="-189.5" font-family="Helvetica,sans-Serif" font-size="10.00">insertEdge</text>
</g>
<!-- Node2 -->
<g id="node2" class="node"><title>Node2</title>
<g id="a_node2"><a xlink:href="vector_8c.html#a043c4e94efce1c5a44095eb9388ba5e7" target="_top" xlink:title="vector_at">
<polygon fill="none" stroke="black" points="101.5,-201.5 101.5,-220.5 158.5,-220.5 158.5,-201.5 101.5,-201.5"/>
<text text-anchor="middle" x="130" y="-208.5" font-family="Helvetica,sans-Serif" font-size="10.00">vector_at</text>
</a>
</g>
</g>
<!-- Node1&#45;&gt;Node2 -->
<g id="edge1" class="edge"><title>Node1&#45;&gt;Node2</title>
<path fill="none" stroke="midnightblue" d="M63.6389,-198.064C72.4101,-199.8 82.0751,-201.713 91.2209,-203.523"/>
<polygon fill="midnightblue" stroke="midnightblue" points="90.7617,-207 101.251,-205.508 92.1208,-200.133 90.7617,-207"/>
</g>
<!-- Node3 -->
<g id="node3" class="node"><title>Node3</title>
<g id="a_node3"><a xlink:href="list_8c.html#a06249cb6bbda6b10f5777b96a6c122f9" target="_top" xlink:title="list_insert">
<polygon fill="none" stroke="black" points="100.5,-163.5 100.5,-182.5 159.5,-182.5 159.5,-163.5 100.5,-163.5"/>
<text text-anchor="middle" x="130" y="-170.5" font-family="Helvetica,sans-Serif" font-size="10.00">list_insert</text>
</a>
</g>
</g>
<!-- Node1&#45;&gt;Node3 -->
<g id="edge2" class="edge"><title>Node1&#45;&gt;Node3</title>
<path fill="none" stroke="midnightblue" d="M63.6389,-185.936C72.1709,-184.247 81.5485,-182.391 90.4715,-180.625"/>
<polygon fill="midnightblue" stroke="midnightblue" points="91.153,-184.059 100.283,-178.684 89.7939,-177.192 91.153,-184.059"/>
</g>
<!-- Node4 -->
<g id="node4" class="node"><title>Node4</title>
<g id="a_node4"><a xlink:href="list_8c.html#a3ed9de59a6e4cd353dee80f797da7a19" target="_top" xlink:title="findPrevious">
<polygon fill="none" stroke="black" points="196.5,-182.5 196.5,-201.5 267.5,-201.5 267.5,-182.5 196.5,-182.5"/>
<text text-anchor="middle" x="232" y="-189.5" font-family="Helvetica,sans-Serif" font-size="10.00">findPrevious</text>
</a>
</g>
</g>
<!-- Node3&#45;&gt;Node4 -->
<g id="edge3" class="edge"><title>Node3&#45;&gt;Node4</title>
<path fill="none" stroke="midnightblue" d="M159.656,-178.445C167.959,-180.022 177.228,-181.783 186.266,-183.5"/>
<polygon fill="midnightblue" stroke="midnightblue" points="185.829,-186.98 196.307,-185.408 187.136,-180.103 185.829,-186.98"/>
</g>
<!-- Node39 -->
<g id="node39" class="node"><title>Node39</title>
<g id="a_node39"><a xlink:href="list_8c.html#a83f50b1d8e5fda2432265d6ec526558e" target="_top" xlink:title="allocNode">
<polygon fill="none" stroke="black" points="202,-144.5 202,-163.5 262,-163.5 262,-144.5 202,-144.5"/>
<text text-anchor="middle" x="232" y="-151.5" font-family="Helvetica,sans-Serif" font-size="10.00">allocNode</text>
</a>
</g>
</g>
<!-- Node3&#45;&gt;Node39 -->
<g id="edge55" class="edge"><title>Node3&#45;&gt;Node39</title>
<path fill="none" stroke="midnightblue" d="M159.656,-167.555C169.715,-165.644 181.194,-163.463 191.959,-161.418"/>
<polygon fill="midnightblue" stroke="midnightblue" points="192.822,-164.817 201.993,-159.511 191.515,-157.94 192.822,-164.817"/>
</g>
<!-- Node5 -->
<g id="node5" class="node"><title>Node5</title>
<g id="a_node5"><a xlink:href="stmskip_8cc.html#a9ab04b9e875013b4d2dd249d0c97dce5" target="_top" xlink:title="for">
<polygon fill="none" stroke="black" points="304.5,-182.5 304.5,-201.5 333.5,-201.5 333.5,-182.5 304.5,-182.5"/>
<text text-anchor="middle" x="319" y="-189.5" font-family="Helvetica,sans-Serif" font-size="10.00">for</text>
</a>
</g>
</g>
<!-- Node4&#45;&gt;Node5 -->
<g id="edge4" class="edge"><title>Node4&#45;&gt;Node5</title>
<path fill="none" stroke="midnightblue" d="M267.573,-192C276.521,-192 285.955,-192 294.212,-192"/>
<polygon fill="midnightblue" stroke="midnightblue" points="294.249,-195.5 304.249,-192 294.249,-188.5 294.249,-195.5"/>
</g>
<!-- Node6 -->
<g id="node6" class="node"><title>Node6</title>
<g id="a_node6"><a xlink:href="stmskip_8cc.html#a09de30bf6124d9640899b27c93b49471" target="_top" xlink:title="stmskip_lookup">
<polygon fill="none" stroke="black" points="372.5,-239.5 372.5,-258.5 457.5,-258.5 457.5,-239.5 372.5,-239.5"/>
<text text-anchor="middle" x="415" y="-246.5" font-family="Helvetica,sans-Serif" font-size="10.00">stmskip_lookup</text>
</a>
</g>
</g>
<!-- Node5&#45;&gt;Node6 -->
<g id="edge5" class="edge"><title>Node5&#45;&gt;Node6</title>
<path fill="none" stroke="midnightblue" d="M330.966,-201.58C340.747,-209.811 355.691,-221.64 370,-230 373.038,-231.775 376.272,-233.481 379.556,-235.094"/>
<polygon fill="midnightblue" stroke="midnightblue" points="378.27,-238.356 388.816,-239.37 381.204,-232 378.27,-238.356"/>
</g>
<!-- Node24 -->
<g id="node24" class="node"><title>Node24</title>
<g id="a_node24"><a xlink:href="stmskip_8cc.html#ad17c6ea2fd390c2dd637a34fdeb0b3df" target="_top" xlink:title="stmskip_update">
<polygon fill="none" stroke="black" points="372,-144.5 372,-163.5 458,-163.5 458,-144.5 372,-144.5"/>
<text text-anchor="middle" x="415" y="-151.5" font-family="Helvetica,sans-Serif" font-size="10.00">stmskip_update</text>
</a>
</g>
</g>
<!-- Node5&#45;&gt;Node24 -->
<g id="edge28" class="edge"><title>Node5&#45;&gt;Node24</title>
<path fill="none" stroke="midnightblue" d="M333.87,-186.393C346.135,-181.435 364.523,-174.001 380.593,-167.505"/>
<polygon fill="midnightblue" stroke="midnightblue" points="382.264,-170.605 390.223,-163.612 379.64,-164.115 382.264,-170.605"/>
</g>
<!-- Node37 -->
<g id="node37" class="node"><title>Node37</title>
<g id="a_node37"><a xlink:href="stmskip_8cc.html#a3925aa5d2590fc57854aa9d670f58e4d" target="_top" xlink:title="stmskip_remove">
<polygon fill="none" stroke="black" points="370.5,-201.5 370.5,-220.5 459.5,-220.5 459.5,-201.5 370.5,-201.5"/>
<text text-anchor="middle" x="415" y="-208.5" font-family="Helvetica,sans-Serif" font-size="10.00">stmskip_remove</text>
</a>
</g>
</g>
<!-- Node5&#45;&gt;Node37 -->
<g id="edge51" class="edge"><title>Node5&#45;&gt;Node37</title>
<path fill="none" stroke="midnightblue" d="M333.87,-194.804C341.147,-196.274 350.581,-198.181 360.407,-200.167"/>
<polygon fill="midnightblue" stroke="midnightblue" points="359.803,-203.616 370.298,-202.167 361.19,-196.755 359.803,-203.616"/>
</g>
<!-- Node38 -->
<g id="node38" class="node"><title>Node38</title>
<g id="a_node38"><a xlink:href="stm_8h.html#ad6e1404788ef0e710c991c3e00fd5c39" target="_top" xlink:title="abort_stm_tx">
<polygon fill="none" stroke="black" points="378,-106.5 378,-125.5 452,-125.5 452,-106.5 378,-106.5"/>
<text text-anchor="middle" x="415" y="-113.5" font-family="Helvetica,sans-Serif" font-size="10.00">abort_stm_tx</text>
</a>
</g>
</g>
<!-- Node5&#45;&gt;Node38 -->
<g id="edge54" class="edge"><title>Node5&#45;&gt;Node38</title>
<path fill="none" stroke="midnightblue" d="M326.404,-182.351C335.038,-169.968 351.481,-148.479 370,-135 372.334,-133.302 374.843,-131.714 377.437,-130.24"/>
<polygon fill="midnightblue" stroke="midnightblue" points="379.121,-133.31 386.453,-125.661 375.952,-127.069 379.121,-133.31"/>
</g>
<!-- Node7 -->
<g id="node7" class="node"><title>Node7</title>
<g id="a_node7"><a xlink:href="stmskip_8cc.html#aa82848b11e972b9339ceadb6816cdb6a" target="_top" xlink:title="search_predecessors">
<polygon fill="none" stroke="black" points="496,-239.5 496,-258.5 606,-258.5 606,-239.5 496,-239.5"/>
<text text-anchor="middle" x="551" y="-246.5" font-family="Helvetica,sans-Serif" font-size="10.00">search_predecessors</text>
</a>
</g>
</g>
<!-- Node6&#45;&gt;Node7 -->
<g id="edge6" class="edge"><title>Node6&#45;&gt;Node7</title>
<path fill="none" stroke="midnightblue" d="M457.664,-249C466.466,-249 475.951,-249 485.374,-249"/>
<polygon fill="midnightblue" stroke="midnightblue" points="485.539,-252.5 495.539,-249 485.539,-245.5 485.539,-252.5"/>
</g>
<!-- Node8 -->
<g id="node8" class="node"><title>Node8</title>
<g id="a_node8"><a xlink:href="stm_8h.html#a5594d7fca67459d7d9738436af589c5c" target="_top" xlink:title="read_stm_blk">
<polygon fill="none" stroke="black" points="643.5,-345.5 643.5,-364.5 718.5,-364.5 718.5,-345.5 643.5,-345.5"/>
<text text-anchor="middle" x="681" y="-352.5" font-family="Helvetica,sans-Serif" font-size="10.00">read_stm_blk</text>
</a>
</g>
</g>
<!-- Node7&#45;&gt;Node8 -->
<g id="edge7" class="edge"><title>Node7&#45;&gt;Node8</title>
<path fill="none" stroke="midnightblue" d="M563.812,-258.782C585.816,-277.004 633.283,-316.313 660.242,-338.638"/>
<polygon fill="midnightblue" stroke="midnightblue" points="658.282,-341.559 668.216,-345.241 662.746,-336.168 658.282,-341.559"/>
</g>
<!-- Node9 -->
<g id="node9" class="node"><title>Node9</title>
<g id="a_node9"><a xlink:href="stm__fraser_8c.html#aca0d40200c3502bdabeb44b27dfd4105" target="_top" xlink:title="search_stm_tx_entry">
<polygon fill="none" stroke="black" points="1072,-359.5 1072,-378.5 1180,-378.5 1180,-359.5 1072,-359.5"/>
<text text-anchor="middle" x="1126" y="-366.5" font-family="Helvetica,sans-Serif" font-size="10.00">search_stm_tx_entry</text>
</a>
</g>
</g>
<!-- Node8&#45;&gt;Node9 -->
<g id="edge8" class="edge"><title>Node8&#45;&gt;Node9</title>
<path fill="none" stroke="midnightblue" d="M690.889,-364.713C703.74,-377.955 728.95,-401.048 756,-410 874.508,-449.217 913.064,-409.652 1036,-388 1048.16,-385.859 1061.18,-383.255 1073.41,-380.671"/>
<polygon fill="midnightblue" stroke="midnightblue" points="1074.42,-384.034 1083.47,-378.514 1072.95,-377.19 1074.42,-384.034"/>
</g>
<!-- Node10 -->
<g id="node10" class="node"><title>Node10</title>
<g id="a_node10"><a xlink:href="stm__fraser_8c.html#a75177d9fa0335bd50b6fae9a68341443" target="_top" xlink:title="alloc_stm_tx_entry">
<polygon fill="none" stroke="black" points="767.5,-326.5 767.5,-345.5 866.5,-345.5 866.5,-326.5 767.5,-326.5"/>
<text text-anchor="middle" x="817" y="-333.5" font-family="Helvetica,sans-Serif" font-size="10.00">alloc_stm_tx_entry</text>
</a>
</g>
</g>
<!-- Node8&#45;&gt;Node10 -->
<g id="edge9" class="edge"><title>Node8&#45;&gt;Node10</title>
<path fill="none" stroke="midnightblue" d="M718.616,-349.808C730.596,-348.11 744.219,-346.178 757.402,-344.309"/>
<polygon fill="midnightblue" stroke="midnightblue" points="757.953,-347.766 767.362,-342.896 756.97,-340.835 757.953,-347.766"/>
</g>
<!-- Node11 -->
<g id="node11" class="node"><title>Node11</title>
<g id="a_node11"><a xlink:href="stm__fraser_8c.html#a4e016a575dac2ee3931ef9ec94550d33" target="_top" xlink:title="read_blk_data">
<polygon fill="none" stroke="black" points="778.5,-364.5 778.5,-383.5 855.5,-383.5 855.5,-364.5 778.5,-364.5"/>
<text text-anchor="middle" x="817" y="-371.5" font-family="Helvetica,sans-Serif" font-size="10.00">read_blk_data</text>
</a>
</g>
</g>
<!-- Node8&#45;&gt;Node11 -->
<g id="edge10" class="edge"><title>Node8&#45;&gt;Node11</title>
<path fill="none" stroke="midnightblue" d="M718.616,-360.192C734.017,-362.376 752.136,-364.945 768.542,-367.271"/>
<polygon fill="midnightblue" stroke="midnightblue" points="768.103,-370.744 778.495,-368.682 769.086,-363.813 768.103,-370.744"/>
</g>
<!-- Node22 -->
<g id="node22" class="node"><title>Node22</title>
<g id="a_node22"><a xlink:href="stm__fraser_8c.html#a31ea9d61a84d817aac10ffbc4ba9f296" target="_top" xlink:title="commit_stm_tx">
<polygon fill="none" stroke="black" points="933,-359.5 933,-378.5 1017,-378.5 1017,-359.5 933,-359.5"/>
<text text-anchor="middle" x="975" y="-366.5" font-family="Helvetica,sans-Serif" font-size="10.00">commit_stm_tx</text>
</a>
</g>
</g>
<!-- Node8&#45;&gt;Node22 -->
<g id="edge27" class="edge"><title>Node8&#45;&gt;Node22</title>
<path fill="none" stroke="midnightblue" d="M695.671,-364.558C709.957,-373.915 733.399,-387.536 756,-393 817.46,-407.858 890.917,-393.34 934.944,-381.306"/>
<polygon fill="midnightblue" stroke="midnightblue" points="936.007,-384.643 944.677,-378.554 934.102,-377.907 936.007,-384.643"/>
</g>
<!-- Node23 -->
<g id="node23" class="node"><title>Node23</title>
<g id="a_node23"><a xlink:href="stm__fraser_8c.html#ad6e1404788ef0e710c991c3e00fd5c39" target="_top" xlink:title="abort_stm_tx">
<polygon fill="none" stroke="black" points="780,-288.5 780,-307.5 854,-307.5 854,-288.5 780,-288.5"/>
<text text-anchor="middle" x="817" y="-295.5" font-family="Helvetica,sans-Serif" font-size="10.00">abort_stm_tx</text>
</a>
</g>
</g>
<!-- Node8&#45;&gt;Node23 -->
<g id="edge26" class="edge"><title>Node8&#45;&gt;Node23</title>
<path fill="none" stroke="midnightblue" d="M698.665,-345.419C713.419,-337.186 735.701,-325.357 756,-317 761.372,-314.788 767.101,-312.676 772.807,-310.716"/>
<polygon fill="midnightblue" stroke="midnightblue" points="773.923,-314.034 782.321,-307.573 771.728,-307.387 773.923,-314.034"/>
</g>
<!-- Node12 -->
<g id="node12" class="node"><title>Node12</title>
<g id="a_node12"><a xlink:href="stm__fraser_8c.html#a3baf54f8c2c6bdb79109865e5500cbd9" target="_top" xlink:title="rc_up_descriptor">
<polygon fill="none" stroke="black" points="1081.5,-321.5 1081.5,-340.5 1170.5,-340.5 1170.5,-321.5 1081.5,-321.5"/>
<text text-anchor="middle" x="1126" y="-328.5" font-family="Helvetica,sans-Serif" font-size="10.00">rc_up_descriptor</text>
</a>
</g>
</g>
<!-- Node11&#45;&gt;Node12 -->
<g id="edge11" class="edge"><title>Node11&#45;&gt;Node12</title>
<path fill="none" stroke="midnightblue" d="M851.053,-364.389C869.441,-359.384 892.826,-353.578 914,-350 966.936,-341.055 1028.1,-336.134 1070.9,-333.556"/>
<polygon fill="midnightblue" stroke="midnightblue" points="1071.32,-337.037 1081.1,-332.965 1070.92,-330.049 1071.32,-337.037"/>
</g>
<!-- Node14 -->
<g id="node14" class="node"><title>Node14</title>
<g id="a_node14"><a xlink:href="stm__fraser_8c.html#ad41e28910c7dbe8cfd98c9e0c168c9dc" target="_top" xlink:title="rc_down_descriptor">
<polygon fill="none" stroke="black" points="1075.5,-397.5 1075.5,-416.5 1176.5,-416.5 1176.5,-397.5 1075.5,-397.5"/>
<text text-anchor="middle" x="1126" y="-404.5" font-family="Helvetica,sans-Serif" font-size="10.00">rc_down_descriptor</text>
</a>
</g>
</g>
<!-- Node11&#45;&gt;Node14 -->
<g id="edge13" class="edge"><title>Node11&#45;&gt;Node14</title>
<path fill="none" stroke="midnightblue" d="M855.781,-380C873.437,-382.678 894.764,-385.733 914,-388 964.955,-394.005 1023.03,-399.107 1065.34,-402.508"/>
<polygon fill="midnightblue" stroke="midnightblue" points="1065.22,-406.009 1075.47,-403.314 1065.78,-399.031 1065.22,-406.009"/>
</g>
<!-- Node11&#45;&gt;Node22 -->
<g id="edge22" class="edge"><title>Node11&#45;&gt;Node22</title>
<path fill="none" stroke="midnightblue" d="M855.763,-372.79C875.847,-372.146 900.832,-371.345 922.654,-370.646"/>
<polygon fill="midnightblue" stroke="midnightblue" points="922.869,-374.141 932.751,-370.322 922.644,-367.144 922.869,-374.141"/>
</g>
<!-- Node13 -->
<g id="node13" class="node"><title>Node13</title>
<g id="a_node13"><a xlink:href="stm__fraser_8c.html#a1a59f05201730ec9ba9a348070073e57" target="_top" xlink:title="rc_delta_descriptor">
<polygon fill="none" stroke="black" points="1216.5,-321.5 1216.5,-340.5 1315.5,-340.5 1315.5,-321.5 1216.5,-321.5"/>
<text text-anchor="middle" x="1266" y="-328.5" font-family="Helvetica,sans-Serif" font-size="10.00">rc_delta_descriptor</text>
</a>
</g>
</g>
<!-- Node12&#45;&gt;Node13 -->
<g id="edge12" class="edge"><title>Node12&#45;&gt;Node13</title>
<path fill="none" stroke="midnightblue" d="M1170.66,-331C1181.9,-331 1194.18,-331 1206.05,-331"/>
<polygon fill="midnightblue" stroke="midnightblue" points="1206.35,-334.5 1216.35,-331 1206.35,-327.5 1206.35,-334.5"/>
</g>
<!-- Node15 -->
<g id="node15" class="node"><title>Node15</title>
<g id="a_node15"><a xlink:href="stm__fraser_8c.html#afd1a951db8c0f79e6bf20624e7dca338" target="_top" xlink:title="release_descriptor">
<polygon fill="none" stroke="black" points="1218,-378.5 1218,-397.5 1314,-397.5 1314,-378.5 1218,-378.5"/>
<text text-anchor="middle" x="1266" y="-385.5" font-family="Helvetica,sans-Serif" font-size="10.00">release_descriptor</text>
</a>
</g>
</g>
<!-- Node14&#45;&gt;Node15 -->
<g id="edge14" class="edge"><title>Node14&#45;&gt;Node15</title>
<path fill="none" stroke="midnightblue" d="M1176.82,-400.141C1186.78,-398.769 1197.32,-397.318 1207.51,-395.915"/>
<polygon fill="midnightblue" stroke="midnightblue" points="1208.13,-399.363 1217.56,-394.532 1207.17,-392.429 1208.13,-399.363"/>
</g>
<!-- Node16 -->
<g id="node16" class="node"><title>Node16</title>
<g id="a_node16"><a xlink:href="gc_8c.html#a80f4a5c119aa70ab0452a73dfac21bbd" target="_top" xlink:title="fr_gc_free">
<polygon fill="none" stroke="black" points="1498,-340.5 1498,-359.5 1558,-359.5 1558,-340.5 1498,-340.5"/>
<text text-anchor="middle" x="1528" y="-347.5" font-family="Helvetica,sans-Serif" font-size="10.00">fr_gc_free</text>
</a>
</g>
</g>
<!-- Node15&#45;&gt;Node16 -->
<g id="edge15" class="edge"><title>Node15&#45;&gt;Node16</title>
<path fill="none" stroke="midnightblue" d="M1314.11,-384.761C1350.78,-381.829 1402.85,-376.765 1448,-369 1461.16,-366.736 1475.4,-363.548 1488.11,-360.428"/>
<polygon fill="midnightblue" stroke="midnightblue" points="1489.08,-363.793 1497.93,-357.96 1487.38,-357.004 1489.08,-363.793"/>
</g>
<!-- Node21 -->
<g id="node21" class="node"><title>Node21</title>
<g id="a_node21"><a xlink:href="gc_8c.html#a1e1a80c2d04496b5b70bd86b59510355" target="_top" xlink:title="fr_gc_unsafe_free">
<polygon fill="none" stroke="black" points="1352.5,-340.5 1352.5,-359.5 1447.5,-359.5 1447.5,-340.5 1352.5,-340.5"/>
<text text-anchor="middle" x="1400" y="-347.5" font-family="Helvetica,sans-Serif" font-size="10.00">fr_gc_unsafe_free</text>
</a>
</g>
</g>
<!-- Node15&#45;&gt;Node21 -->
<g id="edge20" class="edge"><title>Node15&#45;&gt;Node21</title>
<path fill="none" stroke="midnightblue" d="M1300.31,-378.411C1317.19,-373.551 1337.89,-367.591 1355.97,-362.387"/>
<polygon fill="midnightblue" stroke="midnightblue" points="1357.06,-365.716 1365.7,-359.586 1355.12,-358.989 1357.06,-365.716"/>
</g>
<!-- Node17 -->
<g id="node17" class="node"><title>Node17</title>
<g id="a_node17"><a xlink:href="gc_8c.html#afb494e950c8c6b5661974748ae89b61e" target="_top" xlink:title="chunk_from_cache">
<polygon fill="none" stroke="black" points="1608.5,-284.5 1608.5,-303.5 1707.5,-303.5 1707.5,-284.5 1608.5,-284.5"/>
<text text-anchor="middle" x="1658" y="-291.5" font-family="Helvetica,sans-Serif" font-size="10.00">chunk_from_cache</text>
</a>
</g>
</g>
<!-- Node16&#45;&gt;Node17 -->
<g id="edge16" class="edge"><title>Node16&#45;&gt;Node17</title>
<path fill="none" stroke="midnightblue" d="M1551,-340.373C1571.64,-331.343 1602.72,-317.749 1625.89,-307.611"/>
<polygon fill="midnightblue" stroke="midnightblue" points="1627.52,-310.716 1635.28,-303.501 1624.72,-304.303 1627.52,-310.716"/>
</g>
<!-- Node18 -->
<g id="node18" class="node"><title>Node18</title>
<g id="a_node18"><a xlink:href="gc_8c.html#a2a6f41199ed37925df4cc7b9909dc0ed" target="_top" xlink:title="get_empty_chunks">
<polygon fill="none" stroke="black" points="1744.5,-190.5 1744.5,-209.5 1843.5,-209.5 1843.5,-190.5 1744.5,-190.5"/>
<text text-anchor="middle" x="1794" y="-197.5" font-family="Helvetica,sans-Serif" font-size="10.00">get_empty_chunks</text>
</a>
</g>
</g>
<!-- Node17&#45;&gt;Node18 -->
<g id="edge17" class="edge"><title>Node17&#45;&gt;Node18</title>
<path fill="none" stroke="midnightblue" d="M1672.84,-284.294C1696.13,-267.956 1743.34,-234.837 1771.15,-215.33"/>
<polygon fill="midnightblue" stroke="midnightblue" points="1773.26,-218.121 1779.44,-209.513 1769.24,-212.39 1773.26,-218.121"/>
</g>
<!-- Node19 -->
<g id="node19" class="node"><title>Node19</title>
<g id="a_node19"><a xlink:href="gc_8c.html#ac360b80b93ad00f0fba18a1993e1d6a0" target="_top" xlink:title="add_chunks_to_list">
<polygon fill="none" stroke="black" points="1880.5,-152.5 1880.5,-171.5 1981.5,-171.5 1981.5,-152.5 1880.5,-152.5"/>
<text text-anchor="middle" x="1931" y="-159.5" font-family="Helvetica,sans-Serif" font-size="10.00">add_chunks_to_list</text>
</a>
</g>
</g>
<!-- Node18&#45;&gt;Node19 -->
<g id="edge18" class="edge"><title>Node18&#45;&gt;Node19</title>
<path fill="none" stroke="midnightblue" d="M1829.07,-190.411C1846.41,-185.528 1867.7,-179.536 1886.25,-174.315"/>
<polygon fill="midnightblue" stroke="midnightblue" points="1887.27,-177.665 1895.94,-171.586 1885.37,-170.926 1887.27,-177.665"/>
</g>
<!-- Node20 -->
<g id="node20" class="node"><title>Node20</title>
<g id="a_node20"><a xlink:href="gc_8c.html#ade31863985bdaa481ade142bdfb6d99f" target="_top" xlink:title="alloc_more_chunks">
<polygon fill="none" stroke="black" points="1880.5,-190.5 1880.5,-209.5 1981.5,-209.5 1981.5,-190.5 1880.5,-190.5"/>
<text text-anchor="middle" x="1931" y="-197.5" font-family="Helvetica,sans-Serif" font-size="10.00">alloc_more_chunks</text>
</a>
</g>
</g>
<!-- Node18&#45;&gt;Node20 -->
<g id="edge19" class="edge"><title>Node18&#45;&gt;Node20</title>
<path fill="none" stroke="midnightblue" d="M1843.74,-200C1852.31,-200 1861.33,-200 1870.17,-200"/>
<polygon fill="midnightblue" stroke="midnightblue" points="1870.43,-203.5 1880.43,-200 1870.43,-196.5 1870.43,-203.5"/>
</g>
<!-- Node21&#45;&gt;Node16 -->
<g id="edge21" class="edge"><title>Node21&#45;&gt;Node16</title>
<path fill="none" stroke="midnightblue" d="M1447.56,-350C1460.7,-350 1474.87,-350 1487.56,-350"/>
<polygon fill="midnightblue" stroke="midnightblue" points="1487.81,-353.5 1497.81,-350 1487.81,-346.5 1487.81,-353.5"/>
</g>
<!-- Node22&#45;&gt;Node9 -->
<g id="edge25" class="edge"><title>Node22&#45;&gt;Node9</title>
<path fill="none" stroke="midnightblue" d="M1017.11,-369C1030.83,-369 1046.45,-369 1061.46,-369"/>
<polygon fill="midnightblue" stroke="midnightblue" points="1061.73,-372.5 1071.73,-369 1061.73,-365.5 1061.73,-372.5"/>
</g>
<!-- Node22&#45;&gt;Node12 -->
<g id="edge23" class="edge"><title>Node22&#45;&gt;Node12</title>
<path fill="none" stroke="midnightblue" d="M1013.6,-359.411C1033.08,-354.442 1057.07,-348.323 1077.8,-343.039"/>
<polygon fill="midnightblue" stroke="midnightblue" points="1078.85,-346.383 1087.67,-340.52 1077.12,-339.6 1078.85,-346.383"/>
</g>
<!-- Node22&#45;&gt;Node14 -->
<g id="edge24" class="edge"><title>Node22&#45;&gt;Node14</title>
<path fill="none" stroke="midnightblue" d="M1013.6,-378.589C1033.08,-383.558 1057.07,-389.677 1077.8,-394.961"/>
<polygon fill="midnightblue" stroke="midnightblue" points="1077.12,-398.4 1087.67,-397.48 1078.85,-391.617 1077.12,-398.4"/>
</g>
<!-- Node24&#45;&gt;Node7 -->
<g id="edge30" class="edge"><title>Node24&#45;&gt;Node7</title>
<path fill="none" stroke="midnightblue" d="M429.836,-163.809C453.126,-180.321 500.339,-213.792 528.147,-233.507"/>
<polygon fill="midnightblue" stroke="midnightblue" points="526.257,-236.458 536.439,-239.386 530.306,-230.747 526.257,-236.458"/>
</g>
<!-- Node25 -->
<g id="node25" class="node"><title>Node25</title>
<g id="a_node25"><a xlink:href="avltree_8c.html#a645f38498ce0006cd109919b893e21f4" target="_top" xlink:title="new_node">
<polygon fill="none" stroke="black" points="520.5,-38.5 520.5,-57.5 581.5,-57.5 581.5,-38.5 520.5,-38.5"/>
<text text-anchor="middle" x="551" y="-45.5" font-family="Helvetica,sans-Serif" font-size="10.00">new_node</text>
</a>
</g>
</g>
<!-- Node24&#45;&gt;Node25 -->
<g id="edge29" class="edge"><title>Node24&#45;&gt;Node25</title>
<path fill="none" stroke="midnightblue" d="M445.512,-144.412C450.701,-141.88 455.782,-138.772 460,-135 484.039,-113.503 472.075,-93.6243 496,-72 500.437,-67.9896 505.653,-64.5612 511.064,-61.6576"/>
<polygon fill="midnightblue" stroke="midnightblue" points="512.745,-64.7336 520.251,-57.2565 509.72,-58.4207 512.745,-64.7336"/>
</g>
<!-- Node26 -->
<g id="node26" class="node"><title>Node26</title>
<g id="a_node26"><a xlink:href="stm_8h.html#a7f41614dded09613f4ccd7578ef188ba" target="_top" xlink:title="new_stm_blk">
<polygon fill="none" stroke="black" points="1229,-76.5 1229,-95.5 1303,-95.5 1303,-76.5 1229,-76.5"/>
<text text-anchor="middle" x="1266" y="-83.5" font-family="Helvetica,sans-Serif" font-size="10.00">new_stm_blk</text>
</a>
</g>
</g>
<!-- Node24&#45;&gt;Node26 -->
<g id="edge31" class="edge"><title>Node24&#45;&gt;Node26</title>
<path fill="none" stroke="midnightblue" d="M437.761,-144.401C482.302,-125.657 587.471,-86 680,-86 680,-86 680,-86 976,-86 1061.73,-86 1161.76,-86 1218.82,-86"/>
<polygon fill="midnightblue" stroke="midnightblue" points="1218.96,-89.5001 1228.96,-86 1218.96,-82.5001 1218.96,-89.5001"/>
</g>
<!-- Node30 -->
<g id="node30" class="node"><title>Node30</title>
<g id="a_node30"><a xlink:href="stm_8h.html#a2c77806bb0511fb17494d226b5ea20d8" target="_top" xlink:title="init_stm_blk">
<polygon fill="none" stroke="black" points="516.5,-0.5 516.5,-19.5 585.5,-19.5 585.5,-0.5 516.5,-0.5"/>
<text text-anchor="middle" x="551" y="-7.5" font-family="Helvetica,sans-Serif" font-size="10.00">init_stm_blk</text>
</a>
</g>
</g>
<!-- Node24&#45;&gt;Node30 -->
<g id="edge38" class="edge"><title>Node24&#45;&gt;Node30</title>
<path fill="none" stroke="midnightblue" d="M447.48,-144.335C452.117,-141.86 456.501,-138.791 460,-135 493.742,-98.436 461.011,-64.373 496,-29 499.232,-25.7321 503.059,-23.0248 507.161,-20.7822"/>
<polygon fill="midnightblue" stroke="midnightblue" points="508.785,-23.8891 516.453,-16.578 505.899,-17.5116 508.785,-23.8891"/>
</g>
<!-- Node31 -->
<g id="node31" class="node"><title>Node31</title>
<g id="a_node31"><a xlink:href="stmskip_8cc.html#ab6919257456cff4d47684cdfd3bc5a3c" target="_top" xlink:title="get_level">
<polygon fill="none" stroke="black" points="523,-163.5 523,-182.5 579,-182.5 579,-163.5 523,-163.5"/>
<text text-anchor="middle" x="551" y="-170.5" font-family="Helvetica,sans-Serif" font-size="10.00">get_level</text>
</a>
</g>
</g>
<!-- Node24&#45;&gt;Node31 -->
<g id="edge39" class="edge"><title>Node24&#45;&gt;Node31</title>
<path fill="none" stroke="midnightblue" d="M458.031,-159.96C475.574,-162.447 495.782,-165.312 512.78,-167.722"/>
<polygon fill="midnightblue" stroke="midnightblue" points="512.503,-171.218 522.896,-169.157 513.486,-164.288 512.503,-171.218"/>
</g>
<!-- Node32 -->
<g id="node32" class="node"><title>Node32</title>
<g id="a_node32"><a xlink:href="stm_8h.html#a00de1ad150378181157510e2e5982f75" target="_top" xlink:title="write_stm_blk">
<polygon fill="none" stroke="black" points="642.5,-212.5 642.5,-231.5 719.5,-231.5 719.5,-212.5 642.5,-212.5"/>
<text text-anchor="middle" x="681" y="-219.5" font-family="Helvetica,sans-Serif" font-size="10.00">write_stm_blk</text>
</a>
</g>
</g>
<!-- Node24&#45;&gt;Node32 -->
<g id="edge40" class="edge"><title>Node24&#45;&gt;Node32</title>
<path fill="none" stroke="midnightblue" d="M458.377,-145.447C497.988,-139.403 558.054,-135.316 606,-154 631.65,-163.996 653.793,-187.501 667.007,-204.066"/>
<polygon fill="midnightblue" stroke="midnightblue" points="664.543,-206.605 673.396,-212.425 670.104,-202.354 664.543,-206.605"/>
</g>
<!-- Node27 -->
<g id="node27" class="node"><title>Node27</title>
<g id="a_node27"><a xlink:href="gc_8c.html#a5c5981457deeeefd60df569f6265f59c" target="_top" xlink:title="fr_gc_alloc">
<polygon fill="none" stroke="black" points="1368,-114.5 1368,-133.5 1432,-133.5 1432,-114.5 1368,-114.5"/>
<text text-anchor="middle" x="1400" y="-121.5" font-family="Helvetica,sans-Serif" font-size="10.00">fr_gc_alloc</text>
</a>
</g>
</g>
<!-- Node26&#45;&gt;Node27 -->
<g id="edge32" class="edge"><title>Node26&#45;&gt;Node27</title>
<path fill="none" stroke="midnightblue" d="M1300.31,-95.589C1317.92,-100.658 1339.68,-106.923 1358.29,-112.279"/>
<polygon fill="midnightblue" stroke="midnightblue" points="1357.39,-115.664 1367.97,-115.067 1359.33,-108.937 1357.39,-115.664"/>
</g>
<!-- Node27&#45;&gt;Node19 -->
<g id="edge33" class="edge"><title>Node27&#45;&gt;Node19</title>
<path fill="none" stroke="midnightblue" d="M1432.12,-126.235C1517.7,-132.383 1757.72,-149.624 1870.3,-157.711"/>
<polygon fill="midnightblue" stroke="midnightblue" points="1870.23,-161.216 1880.46,-158.441 1870.73,-154.234 1870.23,-161.216"/>
</g>
<!-- Node28 -->
<g id="node28" class="node"><title>Node28</title>
<g id="a_node28"><a xlink:href="gc_8c.html#a6dffa65320ddab40d01f198433b3aeb6" target="_top" xlink:title="get_alloc_chunk">
<polygon fill="none" stroke="black" points="1484.5,-152.5 1484.5,-171.5 1571.5,-171.5 1571.5,-152.5 1484.5,-152.5"/>
<text text-anchor="middle" x="1528" y="-159.5" font-family="Helvetica,sans-Serif" font-size="10.00">get_alloc_chunk</text>
</a>
</g>
</g>
<!-- Node27&#45;&gt;Node28 -->
<g id="edge34" class="edge"><title>Node27&#45;&gt;Node28</title>
<path fill="none" stroke="midnightblue" d="M1432.15,-133.393C1448.23,-138.244 1468.07,-144.227 1485.44,-149.466"/>
<polygon fill="midnightblue" stroke="midnightblue" points="1484.75,-152.914 1495.34,-152.451 1486.77,-146.212 1484.75,-152.914"/>
</g>
<!-- Node28&#45;&gt;Node19 -->
<g id="edge37" class="edge"><title>Node28&#45;&gt;Node19</title>
<path fill="none" stroke="midnightblue" d="M1571.53,-162C1643.25,-162 1788.39,-162 1870.28,-162"/>
<polygon fill="midnightblue" stroke="midnightblue" points="1870.43,-165.5 1880.43,-162 1870.43,-158.5 1870.43,-165.5"/>
</g>
<!-- Node29 -->
<g id="node29" class="node"><title>Node29</title>
<g id="a_node29"><a xlink:href="gc_8c.html#ae47e099483bed50da4e41b906c300b99" target="_top" xlink:title="get_filled_chunks">
<polygon fill="none" stroke="black" points="1612,-190.5 1612,-209.5 1704,-209.5 1704,-190.5 1612,-190.5"/>
<text text-anchor="middle" x="1658" y="-197.5" font-family="Helvetica,sans-Serif" font-size="10.00">get_filled_chunks</text>
</a>
</g>
</g>
<!-- Node28&#45;&gt;Node29 -->
<g id="edge35" class="edge"><title>Node28&#45;&gt;Node29</title>
<path fill="none" stroke="midnightblue" d="M1561.3,-171.589C1577.52,-176.404 1597.38,-182.299 1614.79,-187.468"/>
<polygon fill="midnightblue" stroke="midnightblue" points="1614.13,-190.923 1624.71,-190.414 1616.12,-184.213 1614.13,-190.923"/>
</g>
<!-- Node29&#45;&gt;Node18 -->
<g id="edge36" class="edge"><title>Node29&#45;&gt;Node18</title>
<path fill="none" stroke="midnightblue" d="M1704.37,-200C1713.95,-200 1724.19,-200 1734.18,-200"/>
<polygon fill="midnightblue" stroke="midnightblue" points="1734.47,-203.5 1744.47,-200 1734.47,-196.5 1734.47,-203.5"/>
</g>
<!-- Node32&#45;&gt;Node9 -->
<g id="edge41" class="edge"><title>Node32&#45;&gt;Node9</title>
<path fill="none" stroke="midnightblue" d="M719.837,-217.551C760.628,-214.35 826.614,-213.872 878,-236 897.935,-244.585 896.183,-256.604 914,-269 978.778,-314.066 999.595,-318.619 1072,-350 1076.7,-352.037 1081.7,-354.036 1086.67,-355.928"/>
<polygon fill="midnightblue" stroke="midnightblue" points="1085.54,-359.239 1096.13,-359.414 1087.96,-352.671 1085.54,-359.239"/>
</g>
<!-- Node32&#45;&gt;Node10 -->
<g id="edge42" class="edge"><title>Node32&#45;&gt;Node10</title>
<path fill="none" stroke="midnightblue" d="M686.902,-231.645C697.116,-250.784 722.535,-293.718 756,-317 758.867,-318.995 761.954,-320.788 765.161,-322.398"/>
<polygon fill="midnightblue" stroke="midnightblue" points="763.87,-325.654 774.434,-326.469 766.684,-319.244 763.87,-325.654"/>
</g>
<!-- Node32&#45;&gt;Node11 -->
<g id="edge43" class="edge"><title>Node32&#45;&gt;Node11</title>
<path fill="none" stroke="midnightblue" d="M684.645,-231.653C691.832,-256.061 714.046,-320.735 756,-355 759.819,-358.119 764.155,-360.729 768.709,-362.912"/>
<polygon fill="midnightblue" stroke="midnightblue" points="767.683,-366.273 778.263,-366.82 770.333,-359.795 767.683,-366.273"/>
</g>
<!-- Node32&#45;&gt;Node22 -->
<g id="edge50" class="edge"><title>Node32&#45;&gt;Node22</title>
<path fill="none" stroke="midnightblue" d="M719.522,-230.696C768.426,-242.407 850.907,-263.557 878,-279 911.518,-298.106 942.59,-331.169 959.857,-351.461"/>
<polygon fill="midnightblue" stroke="midnightblue" points="957.292,-353.851 966.379,-359.298 962.673,-349.373 957.292,-353.851"/>
</g>
<!-- Node32&#45;&gt;Node23 -->
<g id="edge49" class="edge"><title>Node32&#45;&gt;Node23</title>
<path fill="none" stroke="midnightblue" d="M693.999,-231.755C708.185,-242.966 732.806,-261.434 756,-274 763.144,-277.871 771.048,-281.472 778.71,-284.647"/>
<polygon fill="midnightblue" stroke="midnightblue" points="777.625,-287.982 788.21,-288.428 780.213,-281.478 777.625,-287.982"/>
</g>
<!-- Node32&#45;&gt;Node27 -->
<g id="edge44" class="edge"><title>Node32&#45;&gt;Node27</title>
<path fill="none" stroke="midnightblue" d="M687.646,-212.342C698.415,-194.945 723.719,-158.693 756,-143 843.468,-100.478 876.744,-124 974,-124 974,-124 974,-124 1127,-124 1208.9,-124 1304.67,-124 1357.93,-124"/>
<polygon fill="midnightblue" stroke="midnightblue" points="1358,-127.5 1368,-124 1358,-120.5 1358,-127.5"/>
</g>
<!-- Node33 -->
<g id="node33" class="node"><title>Node33</title>
<g id="a_node33"><a xlink:href="namespaceanonymous__namespace_02libitm-5_813_0014_8cpp_03.html#a8b7be7cf3afef27c0623b844ce9116d8" target="_top" xlink:title="anonymous_namespace\l\{libitm&#45;5::13,14::cpp\}\l::memcpy">
<polygon fill="none" stroke="black" points="756,-152.5 756,-193.5 878,-193.5 878,-152.5 756,-152.5"/>
<text text-anchor="start" x="764" y="-181.5" font-family="Helvetica,sans-Serif" font-size="10.00">anonymous_namespace</text>
<text text-anchor="start" x="764" y="-170.5" font-family="Helvetica,sans-Serif" font-size="10.00">{libitm&#45;5::13,14::cpp}</text>
<text text-anchor="middle" x="817" y="-159.5" font-family="Helvetica,sans-Serif" font-size="10.00">::memcpy</text>
</a>
</g>
</g>
<!-- Node32&#45;&gt;Node33 -->
<g id="edge45" class="edge"><title>Node32&#45;&gt;Node33</title>
<path fill="none" stroke="midnightblue" d="M708.155,-212.436C720.213,-208.027 735.126,-202.573 749.975,-197.143"/>
<polygon fill="midnightblue" stroke="midnightblue" points="751.503,-200.311 759.693,-193.59 749.099,-193.737 751.503,-200.311"/>
</g>
<!-- Node34 -->
<g id="node34" class="node"><title>Node34</title>
<g id="a_node34"><a xlink:href="namespaceanonymous__namespace_02oreceager_8cpp_03.html#a7a88c7a7453bbfaca53eeac03b80a5d6" target="_top" xlink:title="anonymous_namespace\l\{oreceager::cpp\}::read">
<polygon fill="none" stroke="black" points="914,-191 914,-221 1036,-221 1036,-191 914,-191"/>
<text text-anchor="start" x="922" y="-209" font-family="Helvetica,sans-Serif" font-size="10.00">anonymous_namespace</text>
<text text-anchor="middle" x="975" y="-198" font-family="Helvetica,sans-Serif" font-size="10.00">{oreceager::cpp}::read</text>
</a>
</g>
</g>
<!-- Node33&#45;&gt;Node34 -->
<g id="edge46" class="edge"><title>Node33&#45;&gt;Node34</title>
<path fill="none" stroke="midnightblue" d="M878.314,-185.759C886.695,-187.532 895.363,-189.365 903.904,-191.172"/>
<polygon fill="midnightblue" stroke="midnightblue" points="903.339,-194.63 913.847,-193.275 904.788,-187.781 903.339,-194.63"/>
</g>
<!-- Node35 -->
<g id="node35" class="node"><title>Node35</title>
<g id="a_node35"><a xlink:href="namespaceitm2stm.html#a334b9615cac957b9ce7a4743beaaaf53" target="_top" xlink:title="itm2stm::add_bytes">
<polygon fill="none" stroke="black" points="923.5,-152.5 923.5,-171.5 1026.5,-171.5 1026.5,-152.5 923.5,-152.5"/>
<text text-anchor="middle" x="975" y="-159.5" font-family="Helvetica,sans-Serif" font-size="10.00">itm2stm::add_bytes</text>
</a>
</g>
</g>
<!-- Node33&#45;&gt;Node35 -->
<g id="edge47" class="edge"><title>Node33&#45;&gt;Node35</title>
<path fill="none" stroke="midnightblue" d="M878.314,-168.747C889.852,-167.933 901.936,-167.081 913.481,-166.267"/>
<polygon fill="midnightblue" stroke="midnightblue" points="913.732,-169.758 923.461,-165.564 913.239,-162.776 913.732,-169.758"/>
</g>
<!-- Node36 -->
<g id="node36" class="node"><title>Node36</title>
<g id="a_node36"><a xlink:href="namespaceitm2stm.html#aa9908b113027ae21130750939980ee0b" target="_top" xlink:title="itm2stm::offset_of">
<polygon fill="none" stroke="black" points="927,-240.5 927,-259.5 1023,-259.5 1023,-240.5 927,-240.5"/>
<text text-anchor="middle" x="975" y="-247.5" font-family="Helvetica,sans-Serif" font-size="10.00">itm2stm::offset_of</text>
</a>
</g>
</g>
<!-- Node33&#45;&gt;Node36 -->
<g id="edge48" class="edge"><title>Node33&#45;&gt;Node36</title>
<path fill="none" stroke="midnightblue" d="M853.605,-193.608C861.646,-198.308 870.131,-203.301 878,-208 894.099,-217.613 896.996,-222.096 914,-230 919.422,-232.52 925.252,-234.874 931.071,-237.016"/>
<polygon fill="midnightblue" stroke="midnightblue" points="930.185,-240.415 940.78,-240.417 932.499,-233.808 930.185,-240.415"/>
</g>
<!-- Node37&#45;&gt;Node7 -->
<g id="edge52" class="edge"><title>Node37&#45;&gt;Node7</title>
<path fill="none" stroke="midnightblue" d="M449.814,-220.589C467.033,-225.472 488.164,-231.464 506.573,-236.685"/>
<polygon fill="midnightblue" stroke="midnightblue" points="505.621,-240.053 516.197,-239.414 507.531,-233.319 505.621,-240.053"/>
</g>
<!-- Node37&#45;&gt;Node32 -->
<g id="edge53" class="edge"><title>Node37&#45;&gt;Node32</title>
<path fill="none" stroke="midnightblue" d="M459.594,-212.816C507.175,-214.799 583.119,-217.963 632.271,-220.011"/>
<polygon fill="midnightblue" stroke="midnightblue" points="632.196,-223.511 642.333,-220.431 632.487,-216.517 632.196,-223.511"/>
</g>
</g>
</svg>
