<?xml version="1.0" encoding="UTF-8" standalone="no"?>
<!DOCTYPE svg PUBLIC "-//W3C//DTD SVG 1.1//EN"
 "http://www.w3.org/Graphics/SVG/1.1/DTD/svg11.dtd">
<!-- Generated by graphviz version 2.36.0 (20140111.2315)
 -->
<!-- Title: freeNode Pages: 1 -->
<svg width="350pt" height="28pt"
 viewBox="0.00 0.00 350.00 28.00" xmlns="http://www.w3.org/2000/svg" xmlns:xlink="http://www.w3.org/1999/xlink">
<g id="graph0" class="graph" transform="scale(1 1) rotate(0) translate(4 24)">
<title>freeNode</title>
<!-- Node1 -->
<g id="node1" class="node"><title>Node1</title>
<polygon fill="#bfbfbf" stroke="black" points="0,-0.5 0,-19.5 56,-19.5 56,-0.5 0,-0.5"/>
<text text-anchor="middle" x="28" y="-7.5" font-family="Helvetica,sans-Serif" font-size="10.00">freeNode</text>
</g>
<!-- Node2 -->
<g id="node2" class="node"><title>Node2</title>
<g id="a_node2"><a xlink:href="list_8c.html#aeeb44928a75497916888d4f858d43e14" target="_top" xlink:title="Plist_free">
<polygon fill="none" stroke="black" points="92,-0.5 92,-19.5 150,-19.5 150,-0.5 92,-0.5"/>
<text text-anchor="middle" x="121" y="-7.5" font-family="Helvetica,sans-Serif" font-size="10.00">Plist_free</text>
</a>
</g>
</g>
<!-- Node1&#45;&gt;Node2 -->
<g id="edge1" class="edge"><title>Node1&#45;&gt;Node2</title>
<path fill="none" stroke="midnightblue" d="M56.303,-10C64.268,-10 73.1237,-10 81.6375,-10"/>
<polygon fill="midnightblue" stroke="midnightblue" points="81.77,-13.5001 91.77,-10 81.77,-6.5001 81.77,-13.5001"/>
</g>
<!-- Node3 -->
<g id="node3" class="node"><title>Node3</title>
<g id="a_node3"><a xlink:href="list_8c.html#a6b1a80c1e3dd7162630ac048d37c4c2c" target="_top" xlink:title="PfreeList">
<polygon fill="none" stroke="black" points="186,-0.5 186,-19.5 242,-19.5 242,-0.5 186,-0.5"/>
<text text-anchor="middle" x="214" y="-7.5" font-family="Helvetica,sans-Serif" font-size="10.00">PfreeList</text>
</a>
</g>
</g>
<!-- Node2&#45;&gt;Node3 -->
<g id="edge2" class="edge"><title>Node2&#45;&gt;Node3</title>
<path fill="none" stroke="midnightblue" d="M150.294,-10C158.38,-10 167.317,-10 175.848,-10"/>
<polygon fill="midnightblue" stroke="midnightblue" points="175.968,-13.5001 185.968,-10 175.968,-6.5001 175.968,-13.5001"/>
</g>
<!-- Node4 -->
<g id="node4" class="node"><title>Node4</title>
<g id="a_node4"><a xlink:href="list_8c.html#aa0d20e134da87470791d0621d655d31e" target="_top" xlink:title="PfreeNode">
<polygon fill="none" stroke="black" points="278.5,-0.5 278.5,-19.5 341.5,-19.5 341.5,-0.5 278.5,-0.5"/>
<text text-anchor="middle" x="310" y="-7.5" font-family="Helvetica,sans-Serif" font-size="10.00">PfreeNode</text>
</a>
</g>
</g>
<!-- Node3&#45;&gt;Node4 -->
<g id="edge3" class="edge"><title>Node3&#45;&gt;Node4</title>
<path fill="none" stroke="midnightblue" d="M242.189,-10C250.295,-10 259.364,-10 268.141,-10"/>
<polygon fill="midnightblue" stroke="midnightblue" points="268.237,-13.5001 278.237,-10 268.237,-6.5001 268.237,-13.5001"/>
</g>
</g>
</svg>
