<?xml version="1.0" encoding="UTF-8" standalone="no"?>
<!DOCTYPE svg PUBLIC "-//W3C//DTD SVG 1.1//EN"
 "http://www.w3.org/Graphics/SVG/1.1/DTD/svg11.dtd">
<!-- Generated by graphviz version 2.36.0 (20140111.2315)
 -->
<!-- Title: net_isPath Pages: 1 -->
<svg width="198pt" height="446pt"
 viewBox="0.00 0.00 198.00 446.00" xmlns="http://www.w3.org/2000/svg" xmlns:xlink="http://www.w3.org/1999/xlink">
<g id="graph0" class="graph" transform="scale(1 1) rotate(0) translate(4 442)">
<title>net_isPath</title>
<!-- Node1 -->
<g id="node1" class="node"><title>Node1</title>
<polygon fill="#bfbfbf" stroke="black" points="0.5,-209.5 0.5,-228.5 63.5,-228.5 63.5,-209.5 0.5,-209.5"/>
<text text-anchor="middle" x="32" y="-216.5" font-family="Helvetica,sans-Serif" font-size="10.00">net_isPath</text>
</g>
<!-- Node2 -->
<g id="node2" class="node"><title>Node2</title>
<g id="a_node2"><a xlink:href="vector_8c.html#a158656a347e208114bcd945b91cfd87a" target="_top" xlink:title="vector_getSize">
<polygon fill="none" stroke="black" points="104,-418.5 104,-437.5 186,-437.5 186,-418.5 104,-418.5"/>
<text text-anchor="middle" x="145" y="-425.5" font-family="Helvetica,sans-Serif" font-size="10.00">vector_getSize</text>
</a>
</g>
</g>
<!-- Node1&#45;&gt;Node2 -->
<g id="edge1" class="edge"><title>Node1&#45;&gt;Node2</title>
<path fill="none" stroke="midnightblue" d="M33.7326,-228.672C36.5377,-259.174 49.1579,-354.544 100,-409 101.21,-410.296 102.524,-411.508 103.915,-412.641"/>
<polygon fill="midnightblue" stroke="midnightblue" points="102.274,-415.75 112.558,-418.3 106.109,-409.894 102.274,-415.75"/>
</g>
<!-- Node3 -->
<g id="node3" class="node"><title>Node3</title>
<g id="a_node3"><a xlink:href="bitmap_8c.html#a88b6163f7036234de1a8139872a0970f" target="_top" xlink:title="bitmap_clearAll">
<polygon fill="none" stroke="black" points="103.5,-380.5 103.5,-399.5 186.5,-399.5 186.5,-380.5 103.5,-380.5"/>
<text text-anchor="middle" x="145" y="-387.5" font-family="Helvetica,sans-Serif" font-size="10.00">bitmap_clearAll</text>
</a>
</g>
</g>
<!-- Node1&#45;&gt;Node3 -->
<g id="edge2" class="edge"><title>Node1&#45;&gt;Node3</title>
<path fill="none" stroke="midnightblue" d="M34.6928,-228.571C39.8039,-254.81 57.4249,-328.745 100,-371 101.417,-372.407 102.956,-373.717 104.58,-374.936"/>
<polygon fill="midnightblue" stroke="midnightblue" points="102.907,-378.016 113.253,-380.299 106.589,-372.063 102.907,-378.016"/>
</g>
<!-- Node4 -->
<g id="node4" class="node"><title>Node4</title>
<g id="a_node4"><a xlink:href="queue_8c.html#a93767784c0293bb49b6abb40780cfa57" target="_top" xlink:title="queue_clear">
<polygon fill="none" stroke="black" points="110.5,-342.5 110.5,-361.5 179.5,-361.5 179.5,-342.5 110.5,-342.5"/>
<text text-anchor="middle" x="145" y="-349.5" font-family="Helvetica,sans-Serif" font-size="10.00">queue_clear</text>
</a>
</g>
</g>
<!-- Node1&#45;&gt;Node4 -->
<g id="edge3" class="edge"><title>Node1&#45;&gt;Node4</title>
<path fill="none" stroke="midnightblue" d="M36.2757,-228.615C44.0518,-250.121 65.5895,-302.603 100,-333 101.723,-334.522 103.586,-335.936 105.539,-337.249"/>
<polygon fill="midnightblue" stroke="midnightblue" points="104.104,-340.459 114.525,-342.37 107.57,-334.378 104.104,-340.459"/>
</g>
<!-- Node5 -->
<g id="node5" class="node"><title>Node5</title>
<g id="a_node5"><a xlink:href="queue_8c.html#a98d6f21bc723987400a7ea6f24cf3e52" target="_top" xlink:title="queue_push">
<polygon fill="none" stroke="black" points="110.5,-304.5 110.5,-323.5 179.5,-323.5 179.5,-304.5 110.5,-304.5"/>
<text text-anchor="middle" x="145" y="-311.5" font-family="Helvetica,sans-Serif" font-size="10.00">queue_push</text>
</a>
</g>
</g>
<!-- Node1&#45;&gt;Node5 -->
<g id="edge4" class="edge"><title>Node1&#45;&gt;Node5</title>
<path fill="none" stroke="midnightblue" d="M39.3502,-228.628C50.1523,-244.369 73.5244,-275.78 100,-295 102.336,-296.696 104.846,-298.281 107.441,-299.754"/>
<polygon fill="midnightblue" stroke="midnightblue" points="105.958,-302.926 116.459,-304.33 109.126,-296.683 105.958,-302.926"/>
</g>
<!-- Node6 -->
<g id="node6" class="node"><title>Node6</title>
<g id="a_node6"><a xlink:href="queue_8c.html#aa98578d30aae87cf86214e5a718f2154" target="_top" xlink:title="queue_isEmpty">
<polygon fill="none" stroke="black" points="103,-266.5 103,-285.5 187,-285.5 187,-266.5 103,-266.5"/>
<text text-anchor="middle" x="145" y="-273.5" font-family="Helvetica,sans-Serif" font-size="10.00">queue_isEmpty</text>
</a>
</g>
</g>
<!-- Node1&#45;&gt;Node6 -->
<g id="edge5" class="edge"><title>Node1&#45;&gt;Node6</title>
<path fill="none" stroke="midnightblue" d="M48.7118,-228.553C62.126,-236.553 82.0421,-248.063 100,-257 103.585,-258.784 107.377,-260.569 111.171,-262.291"/>
<polygon fill="midnightblue" stroke="midnightblue" points="109.931,-265.569 120.493,-266.407 112.758,-259.166 109.931,-265.569"/>
</g>
<!-- Node7 -->
<g id="node7" class="node"><title>Node7</title>
<g id="a_node7"><a xlink:href="queue_8c.html#a0e389fd79bf9b6266a5d759cb84201fd" target="_top" xlink:title="queue_pop">
<polygon fill="none" stroke="black" points="113,-228.5 113,-247.5 177,-247.5 177,-228.5 113,-228.5"/>
<text text-anchor="middle" x="145" y="-235.5" font-family="Helvetica,sans-Serif" font-size="10.00">queue_pop</text>
</a>
</g>
</g>
<!-- Node1&#45;&gt;Node7 -->
<g id="edge6" class="edge"><title>Node1&#45;&gt;Node7</title>
<path fill="none" stroke="midnightblue" d="M63.6251,-224.242C75.6761,-226.305 89.7,-228.705 102.628,-230.918"/>
<polygon fill="midnightblue" stroke="midnightblue" points="102.256,-234.405 112.703,-232.643 103.437,-227.506 102.256,-234.405"/>
</g>
<!-- Node8 -->
<g id="node8" class="node"><title>Node8</title>
<g id="a_node8"><a xlink:href="bitmap_8c.html#a2383729dfcc0f66dc0e7e150cf372fe7" target="_top" xlink:title="bitmap_set">
<polygon fill="none" stroke="black" points="112.5,-190.5 112.5,-209.5 177.5,-209.5 177.5,-190.5 112.5,-190.5"/>
<text text-anchor="middle" x="145" y="-197.5" font-family="Helvetica,sans-Serif" font-size="10.00">bitmap_set</text>
</a>
</g>
</g>
<!-- Node1&#45;&gt;Node8 -->
<g id="edge7" class="edge"><title>Node1&#45;&gt;Node8</title>
<path fill="none" stroke="midnightblue" d="M63.6251,-213.758C75.5748,-211.712 89.4644,-209.335 102.302,-207.137"/>
<polygon fill="midnightblue" stroke="midnightblue" points="103.049,-210.561 112.315,-205.424 101.868,-203.661 103.049,-210.561"/>
</g>
<!-- Node9 -->
<g id="node9" class="node"><title>Node9</title>
<g id="a_node9"><a xlink:href="vector_8c.html#a043c4e94efce1c5a44095eb9388ba5e7" target="_top" xlink:title="vector_at">
<polygon fill="none" stroke="black" points="116.5,-152.5 116.5,-171.5 173.5,-171.5 173.5,-152.5 116.5,-152.5"/>
<text text-anchor="middle" x="145" y="-159.5" font-family="Helvetica,sans-Serif" font-size="10.00">vector_at</text>
</a>
</g>
</g>
<!-- Node1&#45;&gt;Node9 -->
<g id="edge8" class="edge"><title>Node1&#45;&gt;Node9</title>
<path fill="none" stroke="midnightblue" d="M48.7118,-209.447C62.126,-201.447 82.0421,-189.937 100,-181 103.585,-179.216 107.377,-177.431 111.171,-175.709"/>
<polygon fill="midnightblue" stroke="midnightblue" points="112.758,-178.834 120.493,-171.593 109.931,-172.431 112.758,-178.834"/>
</g>
<!-- Node10 -->
<g id="node10" class="node"><title>Node10</title>
<g id="a_node10"><a xlink:href="list_8c.html#af9a0fb76faf3f2c75d3454dc7f7d9b6a" target="_top" xlink:title="list_iter_reset">
<polygon fill="none" stroke="black" points="107.5,-114.5 107.5,-133.5 182.5,-133.5 182.5,-114.5 107.5,-114.5"/>
<text text-anchor="middle" x="145" y="-121.5" font-family="Helvetica,sans-Serif" font-size="10.00">list_iter_reset</text>
</a>
</g>
</g>
<!-- Node1&#45;&gt;Node10 -->
<g id="edge9" class="edge"><title>Node1&#45;&gt;Node10</title>
<path fill="none" stroke="midnightblue" d="M39.3502,-209.372C50.1523,-193.631 73.5244,-162.22 100,-143 102.336,-141.304 104.846,-139.719 107.441,-138.246"/>
<polygon fill="midnightblue" stroke="midnightblue" points="109.126,-141.317 116.459,-133.67 105.958,-135.074 109.126,-141.317"/>
</g>
<!-- Node11 -->
<g id="node11" class="node"><title>Node11</title>
<g id="a_node11"><a xlink:href="list_8c.html#af8d7b94e84661c7b1da55a7c87619911" target="_top" xlink:title="list_iter_hasNext">
<polygon fill="none" stroke="black" points="100,-76.5 100,-95.5 190,-95.5 190,-76.5 100,-76.5"/>
<text text-anchor="middle" x="145" y="-83.5" font-family="Helvetica,sans-Serif" font-size="10.00">list_iter_hasNext</text>
</a>
</g>
</g>
<!-- Node1&#45;&gt;Node11 -->
<g id="edge10" class="edge"><title>Node1&#45;&gt;Node11</title>
<path fill="none" stroke="midnightblue" d="M36.2757,-209.385C44.0518,-187.879 65.5895,-135.397 100,-105 101.723,-103.478 103.586,-102.064 105.539,-100.751"/>
<polygon fill="midnightblue" stroke="midnightblue" points="107.57,-103.622 114.525,-95.6299 104.104,-97.5405 107.57,-103.622"/>
</g>
<!-- Node12 -->
<g id="node12" class="node"><title>Node12</title>
<g id="a_node12"><a xlink:href="list_8c.html#a3dce8c731efc2b63a61958b2503f4c5d" target="_top" xlink:title="list_iter_next">
<polygon fill="none" stroke="black" points="109,-38.5 109,-57.5 181,-57.5 181,-38.5 109,-38.5"/>
<text text-anchor="middle" x="145" y="-45.5" font-family="Helvetica,sans-Serif" font-size="10.00">list_iter_next</text>
</a>
</g>
</g>
<!-- Node1&#45;&gt;Node12 -->
<g id="edge11" class="edge"><title>Node1&#45;&gt;Node12</title>
<path fill="none" stroke="midnightblue" d="M34.6928,-209.429C39.8039,-183.19 57.4249,-109.255 100,-67 101.417,-65.5933 102.956,-64.2833 104.58,-63.0643"/>
<polygon fill="midnightblue" stroke="midnightblue" points="106.589,-65.9372 113.253,-57.701 102.907,-59.9836 106.589,-65.9372"/>
</g>
<!-- Node13 -->
<g id="node13" class="node"><title>Node13</title>
<g id="a_node13"><a xlink:href="bitmap_8c.html#a9ea3dd55ec9b66d62c7ca619fd4b6eb6" target="_top" xlink:title="bitmap_isSet">
<polygon fill="none" stroke="black" points="108,-0.5 108,-19.5 182,-19.5 182,-0.5 108,-0.5"/>
<text text-anchor="middle" x="145" y="-7.5" font-family="Helvetica,sans-Serif" font-size="10.00">bitmap_isSet</text>
</a>
</g>
</g>
<!-- Node1&#45;&gt;Node13 -->
<g id="edge12" class="edge"><title>Node1&#45;&gt;Node13</title>
<path fill="none" stroke="midnightblue" d="M33.7326,-209.328C36.5377,-178.826 49.1579,-83.456 100,-29 101.21,-27.7038 102.524,-26.4917 103.915,-25.3587"/>
<polygon fill="midnightblue" stroke="midnightblue" points="106.109,-28.1061 112.558,-19.7 102.274,-22.2498 106.109,-28.1061"/>
</g>
</g>
</svg>
