<?xml version="1.0" encoding="UTF-8" standalone="no"?>
<!DOCTYPE svg PUBLIC "-//W3C//DTD SVG 1.1//EN"
 "http://www.w3.org/Graphics/SVG/1.1/DTD/svg11.dtd">
<!-- Generated by graphviz version 2.36.0 (20140111.2315)
 -->
<!-- Title: reverseEdge Pages: 1 -->
<svg width="2114pt" height="435pt"
 viewBox="0.00 0.00 2114.00 434.89" xmlns="http://www.w3.org/2000/svg" xmlns:xlink="http://www.w3.org/1999/xlink">
<g id="graph0" class="graph" transform="scale(1 1) rotate(0) translate(4 430.886)">
<title>reverseEdge</title>
<!-- Node1 -->
<g id="node1" class="node"><title>Node1</title>
<polygon fill="#bfbfbf" stroke="black" points="0.5,-182.5 0.5,-201.5 71.5,-201.5 71.5,-182.5 0.5,-182.5"/>
<text text-anchor="middle" x="36" y="-189.5" font-family="Helvetica,sans-Serif" font-size="10.00">reverseEdge</text>
</g>
<!-- Node2 -->
<g id="node2" class="node"><title>Node2</title>
<g id="a_node2"><a xlink:href="net_8c.html#a2110916d842d0952f1542e4e96ba98bb" target="_top" xlink:title="removeEdge">
<polygon fill="none" stroke="black" points="108.5,-201.5 108.5,-220.5 179.5,-220.5 179.5,-201.5 108.5,-201.5"/>
<text text-anchor="middle" x="144" y="-208.5" font-family="Helvetica,sans-Serif" font-size="10.00">removeEdge</text>
</a>
</g>
</g>
<!-- Node1&#45;&gt;Node2 -->
<g id="edge1" class="edge"><title>Node1&#45;&gt;Node2</title>
<path fill="none" stroke="midnightblue" d="M71.7084,-198.221C80.219,-199.747 89.4468,-201.401 98.352,-202.997"/>
<polygon fill="midnightblue" stroke="midnightblue" points="97.753,-206.445 108.214,-204.765 98.9881,-199.555 97.753,-206.445"/>
</g>
<!-- Node41 -->
<g id="node41" class="node"><title>Node41</title>
<g id="a_node41"><a xlink:href="net_8c.html#ad4f5f991dfc5667c5d75c5b353dbe974" target="_top" xlink:title="insertEdge">
<polygon fill="none" stroke="black" points="112.5,-163.5 112.5,-182.5 175.5,-182.5 175.5,-163.5 112.5,-163.5"/>
<text text-anchor="middle" x="144" y="-170.5" font-family="Helvetica,sans-Serif" font-size="10.00">insertEdge</text>
</a>
</g>
</g>
<!-- Node1&#45;&gt;Node41 -->
<g id="edge57" class="edge"><title>Node1&#45;&gt;Node41</title>
<path fill="none" stroke="midnightblue" d="M71.7084,-185.779C81.5803,-184.009 92.4174,-182.067 102.596,-180.242"/>
<polygon fill="midnightblue" stroke="midnightblue" points="103.27,-183.677 112.496,-178.468 102.035,-176.787 103.27,-183.677"/>
</g>
<!-- Node3 -->
<g id="node3" class="node"><title>Node3</title>
<g id="a_node3"><a xlink:href="vector_8c.html#a043c4e94efce1c5a44095eb9388ba5e7" target="_top" xlink:title="vector_at">
<polygon fill="none" stroke="black" points="221.5,-182.5 221.5,-201.5 278.5,-201.5 278.5,-182.5 221.5,-182.5"/>
<text text-anchor="middle" x="250" y="-189.5" font-family="Helvetica,sans-Serif" font-size="10.00">vector_at</text>
</a>
</g>
</g>
<!-- Node2&#45;&gt;Node3 -->
<g id="edge2" class="edge"><title>Node2&#45;&gt;Node3</title>
<path fill="none" stroke="midnightblue" d="M179.63,-204.673C189.823,-202.811 201.022,-200.765 211.392,-198.871"/>
<polygon fill="midnightblue" stroke="midnightblue" points="212.21,-202.279 221.418,-197.039 210.952,-195.393 212.21,-202.279"/>
</g>
<!-- Node4 -->
<g id="node4" class="node"><title>Node4</title>
<g id="a_node4"><a xlink:href="list_8c.html#af5a09f2dc4e901d1c8052e282d4d87d3" target="_top" xlink:title="list_remove">
<polygon fill="none" stroke="black" points="216.5,-220.5 216.5,-239.5 283.5,-239.5 283.5,-220.5 216.5,-220.5"/>
<text text-anchor="middle" x="250" y="-227.5" font-family="Helvetica,sans-Serif" font-size="10.00">list_remove</text>
</a>
</g>
</g>
<!-- Node2&#45;&gt;Node4 -->
<g id="edge3" class="edge"><title>Node2&#45;&gt;Node4</title>
<path fill="none" stroke="midnightblue" d="M179.63,-217.327C188.217,-218.895 197.517,-220.594 206.434,-222.224"/>
<polygon fill="midnightblue" stroke="midnightblue" points="205.815,-225.668 216.281,-224.023 207.073,-218.782 205.815,-225.668"/>
</g>
<!-- Node5 -->
<g id="node5" class="node"><title>Node5</title>
<g id="a_node5"><a xlink:href="list_8c.html#a3ed9de59a6e4cd353dee80f797da7a19" target="_top" xlink:title="findPrevious">
<polygon fill="none" stroke="black" points="320.5,-182.5 320.5,-201.5 391.5,-201.5 391.5,-182.5 320.5,-182.5"/>
<text text-anchor="middle" x="356" y="-189.5" font-family="Helvetica,sans-Serif" font-size="10.00">findPrevious</text>
</a>
</g>
</g>
<!-- Node4&#45;&gt;Node5 -->
<g id="edge4" class="edge"><title>Node4&#45;&gt;Node5</title>
<path fill="none" stroke="midnightblue" d="M277.244,-220.411C289.93,-215.776 305.353,-210.14 319.107,-205.115"/>
<polygon fill="midnightblue" stroke="midnightblue" points="320.573,-208.305 328.765,-201.586 318.171,-201.731 320.573,-208.305"/>
</g>
<!-- Node40 -->
<g id="node40" class="node"><title>Node40</title>
<g id="a_node40"><a xlink:href="list_8c.html#ac485202058cce61a3db7ad23eea4c658" target="_top" xlink:title="freeNode">
<polygon fill="none" stroke="black" points="328,-220.5 328,-239.5 384,-239.5 384,-220.5 328,-220.5"/>
<text text-anchor="middle" x="356" y="-227.5" font-family="Helvetica,sans-Serif" font-size="10.00">freeNode</text>
</a>
</g>
</g>
<!-- Node4&#45;&gt;Node40 -->
<g id="edge56" class="edge"><title>Node4&#45;&gt;Node40</title>
<path fill="none" stroke="midnightblue" d="M283.621,-230C294.365,-230 306.397,-230 317.476,-230"/>
<polygon fill="midnightblue" stroke="midnightblue" points="317.734,-233.5 327.734,-230 317.734,-226.5 317.734,-233.5"/>
</g>
<!-- Node6 -->
<g id="node6" class="node"><title>Node6</title>
<g id="a_node6"><a xlink:href="stmskip_8cc.html#a9ab04b9e875013b4d2dd249d0c97dce5" target="_top" xlink:title="for">
<polygon fill="none" stroke="black" points="428.5,-182.5 428.5,-201.5 457.5,-201.5 457.5,-182.5 428.5,-182.5"/>
<text text-anchor="middle" x="443" y="-189.5" font-family="Helvetica,sans-Serif" font-size="10.00">for</text>
</a>
</g>
</g>
<!-- Node5&#45;&gt;Node6 -->
<g id="edge5" class="edge"><title>Node5&#45;&gt;Node6</title>
<path fill="none" stroke="midnightblue" d="M391.573,-192C400.521,-192 409.955,-192 418.212,-192"/>
<polygon fill="midnightblue" stroke="midnightblue" points="418.249,-195.5 428.249,-192 418.249,-188.5 418.249,-195.5"/>
</g>
<!-- Node7 -->
<g id="node7" class="node"><title>Node7</title>
<g id="a_node7"><a xlink:href="stmskip_8cc.html#a09de30bf6124d9640899b27c93b49471" target="_top" xlink:title="stmskip_lookup">
<polygon fill="none" stroke="black" points="496.5,-239.5 496.5,-258.5 581.5,-258.5 581.5,-239.5 496.5,-239.5"/>
<text text-anchor="middle" x="539" y="-246.5" font-family="Helvetica,sans-Serif" font-size="10.00">stmskip_lookup</text>
</a>
</g>
</g>
<!-- Node6&#45;&gt;Node7 -->
<g id="edge6" class="edge"><title>Node6&#45;&gt;Node7</title>
<path fill="none" stroke="midnightblue" d="M454.966,-201.58C464.747,-209.811 479.691,-221.64 494,-230 497.038,-231.775 500.272,-233.481 503.556,-235.094"/>
<polygon fill="midnightblue" stroke="midnightblue" points="502.27,-238.356 512.816,-239.37 505.204,-232 502.27,-238.356"/>
</g>
<!-- Node25 -->
<g id="node25" class="node"><title>Node25</title>
<g id="a_node25"><a xlink:href="stmskip_8cc.html#ad17c6ea2fd390c2dd637a34fdeb0b3df" target="_top" xlink:title="stmskip_update">
<polygon fill="none" stroke="black" points="496,-144.5 496,-163.5 582,-163.5 582,-144.5 496,-144.5"/>
<text text-anchor="middle" x="539" y="-151.5" font-family="Helvetica,sans-Serif" font-size="10.00">stmskip_update</text>
</a>
</g>
</g>
<!-- Node6&#45;&gt;Node25 -->
<g id="edge29" class="edge"><title>Node6&#45;&gt;Node25</title>
<path fill="none" stroke="midnightblue" d="M457.87,-186.393C470.135,-181.435 488.523,-174.001 504.593,-167.505"/>
<polygon fill="midnightblue" stroke="midnightblue" points="506.264,-170.605 514.223,-163.612 503.64,-164.115 506.264,-170.605"/>
</g>
<!-- Node38 -->
<g id="node38" class="node"><title>Node38</title>
<g id="a_node38"><a xlink:href="stmskip_8cc.html#a3925aa5d2590fc57854aa9d670f58e4d" target="_top" xlink:title="stmskip_remove">
<polygon fill="none" stroke="black" points="494.5,-201.5 494.5,-220.5 583.5,-220.5 583.5,-201.5 494.5,-201.5"/>
<text text-anchor="middle" x="539" y="-208.5" font-family="Helvetica,sans-Serif" font-size="10.00">stmskip_remove</text>
</a>
</g>
</g>
<!-- Node6&#45;&gt;Node38 -->
<g id="edge52" class="edge"><title>Node6&#45;&gt;Node38</title>
<path fill="none" stroke="midnightblue" d="M457.87,-194.804C465.147,-196.274 474.581,-198.181 484.407,-200.167"/>
<polygon fill="midnightblue" stroke="midnightblue" points="483.803,-203.616 494.298,-202.167 485.19,-196.755 483.803,-203.616"/>
</g>
<!-- Node39 -->
<g id="node39" class="node"><title>Node39</title>
<g id="a_node39"><a xlink:href="stm_8h.html#ad6e1404788ef0e710c991c3e00fd5c39" target="_top" xlink:title="abort_stm_tx">
<polygon fill="none" stroke="black" points="502,-106.5 502,-125.5 576,-125.5 576,-106.5 502,-106.5"/>
<text text-anchor="middle" x="539" y="-113.5" font-family="Helvetica,sans-Serif" font-size="10.00">abort_stm_tx</text>
</a>
</g>
</g>
<!-- Node6&#45;&gt;Node39 -->
<g id="edge55" class="edge"><title>Node6&#45;&gt;Node39</title>
<path fill="none" stroke="midnightblue" d="M450.404,-182.351C459.038,-169.968 475.481,-148.479 494,-135 496.334,-133.302 498.843,-131.714 501.437,-130.24"/>
<polygon fill="midnightblue" stroke="midnightblue" points="503.121,-133.31 510.453,-125.661 499.952,-127.069 503.121,-133.31"/>
</g>
<!-- Node8 -->
<g id="node8" class="node"><title>Node8</title>
<g id="a_node8"><a xlink:href="stmskip_8cc.html#aa82848b11e972b9339ceadb6816cdb6a" target="_top" xlink:title="search_predecessors">
<polygon fill="none" stroke="black" points="620,-239.5 620,-258.5 730,-258.5 730,-239.5 620,-239.5"/>
<text text-anchor="middle" x="675" y="-246.5" font-family="Helvetica,sans-Serif" font-size="10.00">search_predecessors</text>
</a>
</g>
</g>
<!-- Node7&#45;&gt;Node8 -->
<g id="edge7" class="edge"><title>Node7&#45;&gt;Node8</title>
<path fill="none" stroke="midnightblue" d="M581.664,-249C590.466,-249 599.951,-249 609.374,-249"/>
<polygon fill="midnightblue" stroke="midnightblue" points="609.539,-252.5 619.539,-249 609.539,-245.5 609.539,-252.5"/>
</g>
<!-- Node9 -->
<g id="node9" class="node"><title>Node9</title>
<g id="a_node9"><a xlink:href="stm_8h.html#a5594d7fca67459d7d9738436af589c5c" target="_top" xlink:title="read_stm_blk">
<polygon fill="none" stroke="black" points="767.5,-345.5 767.5,-364.5 842.5,-364.5 842.5,-345.5 767.5,-345.5"/>
<text text-anchor="middle" x="805" y="-352.5" font-family="Helvetica,sans-Serif" font-size="10.00">read_stm_blk</text>
</a>
</g>
</g>
<!-- Node8&#45;&gt;Node9 -->
<g id="edge8" class="edge"><title>Node8&#45;&gt;Node9</title>
<path fill="none" stroke="midnightblue" d="M687.812,-258.782C709.816,-277.004 757.283,-316.313 784.242,-338.638"/>
<polygon fill="midnightblue" stroke="midnightblue" points="782.282,-341.559 792.216,-345.241 786.746,-336.168 782.282,-341.559"/>
</g>
<!-- Node10 -->
<g id="node10" class="node"><title>Node10</title>
<g id="a_node10"><a xlink:href="stm__fraser_8c.html#aca0d40200c3502bdabeb44b27dfd4105" target="_top" xlink:title="search_stm_tx_entry">
<polygon fill="none" stroke="black" points="1196,-359.5 1196,-378.5 1304,-378.5 1304,-359.5 1196,-359.5"/>
<text text-anchor="middle" x="1250" y="-366.5" font-family="Helvetica,sans-Serif" font-size="10.00">search_stm_tx_entry</text>
</a>
</g>
</g>
<!-- Node9&#45;&gt;Node10 -->
<g id="edge9" class="edge"><title>Node9&#45;&gt;Node10</title>
<path fill="none" stroke="midnightblue" d="M814.889,-364.713C827.74,-377.955 852.95,-401.048 880,-410 998.508,-449.217 1037.06,-409.652 1160,-388 1172.16,-385.859 1185.18,-383.255 1197.41,-380.671"/>
<polygon fill="midnightblue" stroke="midnightblue" points="1198.42,-384.034 1207.47,-378.514 1196.95,-377.19 1198.42,-384.034"/>
</g>
<!-- Node11 -->
<g id="node11" class="node"><title>Node11</title>
<g id="a_node11"><a xlink:href="stm__fraser_8c.html#a75177d9fa0335bd50b6fae9a68341443" target="_top" xlink:title="alloc_stm_tx_entry">
<polygon fill="none" stroke="black" points="891.5,-326.5 891.5,-345.5 990.5,-345.5 990.5,-326.5 891.5,-326.5"/>
<text text-anchor="middle" x="941" y="-333.5" font-family="Helvetica,sans-Serif" font-size="10.00">alloc_stm_tx_entry</text>
</a>
</g>
</g>
<!-- Node9&#45;&gt;Node11 -->
<g id="edge10" class="edge"><title>Node9&#45;&gt;Node11</title>
<path fill="none" stroke="midnightblue" d="M842.616,-349.808C854.596,-348.11 868.219,-346.178 881.402,-344.309"/>
<polygon fill="midnightblue" stroke="midnightblue" points="881.953,-347.766 891.362,-342.896 880.97,-340.835 881.953,-347.766"/>
</g>
<!-- Node12 -->
<g id="node12" class="node"><title>Node12</title>
<g id="a_node12"><a xlink:href="stm__fraser_8c.html#a4e016a575dac2ee3931ef9ec94550d33" target="_top" xlink:title="read_blk_data">
<polygon fill="none" stroke="black" points="902.5,-364.5 902.5,-383.5 979.5,-383.5 979.5,-364.5 902.5,-364.5"/>
<text text-anchor="middle" x="941" y="-371.5" font-family="Helvetica,sans-Serif" font-size="10.00">read_blk_data</text>
</a>
</g>
</g>
<!-- Node9&#45;&gt;Node12 -->
<g id="edge11" class="edge"><title>Node9&#45;&gt;Node12</title>
<path fill="none" stroke="midnightblue" d="M842.616,-360.192C858.017,-362.376 876.136,-364.945 892.542,-367.271"/>
<polygon fill="midnightblue" stroke="midnightblue" points="892.103,-370.744 902.495,-368.682 893.086,-363.813 892.103,-370.744"/>
</g>
<!-- Node23 -->
<g id="node23" class="node"><title>Node23</title>
<g id="a_node23"><a xlink:href="stm__fraser_8c.html#a31ea9d61a84d817aac10ffbc4ba9f296" target="_top" xlink:title="commit_stm_tx">
<polygon fill="none" stroke="black" points="1057,-359.5 1057,-378.5 1141,-378.5 1141,-359.5 1057,-359.5"/>
<text text-anchor="middle" x="1099" y="-366.5" font-family="Helvetica,sans-Serif" font-size="10.00">commit_stm_tx</text>
</a>
</g>
</g>
<!-- Node9&#45;&gt;Node23 -->
<g id="edge28" class="edge"><title>Node9&#45;&gt;Node23</title>
<path fill="none" stroke="midnightblue" d="M819.671,-364.558C833.957,-373.915 857.399,-387.536 880,-393 941.46,-407.858 1014.92,-393.34 1058.94,-381.306"/>
<polygon fill="midnightblue" stroke="midnightblue" points="1060.01,-384.643 1068.68,-378.554 1058.1,-377.907 1060.01,-384.643"/>
</g>
<!-- Node24 -->
<g id="node24" class="node"><title>Node24</title>
<g id="a_node24"><a xlink:href="stm__fraser_8c.html#ad6e1404788ef0e710c991c3e00fd5c39" target="_top" xlink:title="abort_stm_tx">
<polygon fill="none" stroke="black" points="904,-288.5 904,-307.5 978,-307.5 978,-288.5 904,-288.5"/>
<text text-anchor="middle" x="941" y="-295.5" font-family="Helvetica,sans-Serif" font-size="10.00">abort_stm_tx</text>
</a>
</g>
</g>
<!-- Node9&#45;&gt;Node24 -->
<g id="edge27" class="edge"><title>Node9&#45;&gt;Node24</title>
<path fill="none" stroke="midnightblue" d="M822.665,-345.419C837.419,-337.186 859.701,-325.357 880,-317 885.372,-314.788 891.101,-312.676 896.807,-310.716"/>
<polygon fill="midnightblue" stroke="midnightblue" points="897.923,-314.034 906.321,-307.573 895.728,-307.387 897.923,-314.034"/>
</g>
<!-- Node13 -->
<g id="node13" class="node"><title>Node13</title>
<g id="a_node13"><a xlink:href="stm__fraser_8c.html#a3baf54f8c2c6bdb79109865e5500cbd9" target="_top" xlink:title="rc_up_descriptor">
<polygon fill="none" stroke="black" points="1205.5,-321.5 1205.5,-340.5 1294.5,-340.5 1294.5,-321.5 1205.5,-321.5"/>
<text text-anchor="middle" x="1250" y="-328.5" font-family="Helvetica,sans-Serif" font-size="10.00">rc_up_descriptor</text>
</a>
</g>
</g>
<!-- Node12&#45;&gt;Node13 -->
<g id="edge12" class="edge"><title>Node12&#45;&gt;Node13</title>
<path fill="none" stroke="midnightblue" d="M975.053,-364.389C993.441,-359.384 1016.83,-353.578 1038,-350 1090.94,-341.055 1152.1,-336.134 1194.9,-333.556"/>
<polygon fill="midnightblue" stroke="midnightblue" points="1195.32,-337.037 1205.1,-332.965 1194.92,-330.049 1195.32,-337.037"/>
</g>
<!-- Node15 -->
<g id="node15" class="node"><title>Node15</title>
<g id="a_node15"><a xlink:href="stm__fraser_8c.html#ad41e28910c7dbe8cfd98c9e0c168c9dc" target="_top" xlink:title="rc_down_descriptor">
<polygon fill="none" stroke="black" points="1199.5,-397.5 1199.5,-416.5 1300.5,-416.5 1300.5,-397.5 1199.5,-397.5"/>
<text text-anchor="middle" x="1250" y="-404.5" font-family="Helvetica,sans-Serif" font-size="10.00">rc_down_descriptor</text>
</a>
</g>
</g>
<!-- Node12&#45;&gt;Node15 -->
<g id="edge14" class="edge"><title>Node12&#45;&gt;Node15</title>
<path fill="none" stroke="midnightblue" d="M979.781,-380C997.437,-382.678 1018.76,-385.733 1038,-388 1088.95,-394.005 1147.03,-399.107 1189.34,-402.508"/>
<polygon fill="midnightblue" stroke="midnightblue" points="1189.22,-406.009 1199.47,-403.314 1189.78,-399.031 1189.22,-406.009"/>
</g>
<!-- Node12&#45;&gt;Node23 -->
<g id="edge23" class="edge"><title>Node12&#45;&gt;Node23</title>
<path fill="none" stroke="midnightblue" d="M979.763,-372.79C999.847,-372.146 1024.83,-371.345 1046.65,-370.646"/>
<polygon fill="midnightblue" stroke="midnightblue" points="1046.87,-374.141 1056.75,-370.322 1046.64,-367.144 1046.87,-374.141"/>
</g>
<!-- Node14 -->
<g id="node14" class="node"><title>Node14</title>
<g id="a_node14"><a xlink:href="stm__fraser_8c.html#a1a59f05201730ec9ba9a348070073e57" target="_top" xlink:title="rc_delta_descriptor">
<polygon fill="none" stroke="black" points="1340.5,-321.5 1340.5,-340.5 1439.5,-340.5 1439.5,-321.5 1340.5,-321.5"/>
<text text-anchor="middle" x="1390" y="-328.5" font-family="Helvetica,sans-Serif" font-size="10.00">rc_delta_descriptor</text>
</a>
</g>
</g>
<!-- Node13&#45;&gt;Node14 -->
<g id="edge13" class="edge"><title>Node13&#45;&gt;Node14</title>
<path fill="none" stroke="midnightblue" d="M1294.66,-331C1305.9,-331 1318.18,-331 1330.05,-331"/>
<polygon fill="midnightblue" stroke="midnightblue" points="1330.35,-334.5 1340.35,-331 1330.35,-327.5 1330.35,-334.5"/>
</g>
<!-- Node16 -->
<g id="node16" class="node"><title>Node16</title>
<g id="a_node16"><a xlink:href="stm__fraser_8c.html#afd1a951db8c0f79e6bf20624e7dca338" target="_top" xlink:title="release_descriptor">
<polygon fill="none" stroke="black" points="1342,-378.5 1342,-397.5 1438,-397.5 1438,-378.5 1342,-378.5"/>
<text text-anchor="middle" x="1390" y="-385.5" font-family="Helvetica,sans-Serif" font-size="10.00">release_descriptor</text>
</a>
</g>
</g>
<!-- Node15&#45;&gt;Node16 -->
<g id="edge15" class="edge"><title>Node15&#45;&gt;Node16</title>
<path fill="none" stroke="midnightblue" d="M1300.82,-400.141C1310.78,-398.769 1321.32,-397.318 1331.51,-395.915"/>
<polygon fill="midnightblue" stroke="midnightblue" points="1332.13,-399.363 1341.56,-394.532 1331.17,-392.429 1332.13,-399.363"/>
</g>
<!-- Node17 -->
<g id="node17" class="node"><title>Node17</title>
<g id="a_node17"><a xlink:href="gc_8c.html#a80f4a5c119aa70ab0452a73dfac21bbd" target="_top" xlink:title="fr_gc_free">
<polygon fill="none" stroke="black" points="1622,-340.5 1622,-359.5 1682,-359.5 1682,-340.5 1622,-340.5"/>
<text text-anchor="middle" x="1652" y="-347.5" font-family="Helvetica,sans-Serif" font-size="10.00">fr_gc_free</text>
</a>
</g>
</g>
<!-- Node16&#45;&gt;Node17 -->
<g id="edge16" class="edge"><title>Node16&#45;&gt;Node17</title>
<path fill="none" stroke="midnightblue" d="M1438.11,-384.761C1474.78,-381.829 1526.85,-376.765 1572,-369 1585.16,-366.736 1599.4,-363.548 1612.11,-360.428"/>
<polygon fill="midnightblue" stroke="midnightblue" points="1613.08,-363.793 1621.93,-357.96 1611.38,-357.004 1613.08,-363.793"/>
</g>
<!-- Node22 -->
<g id="node22" class="node"><title>Node22</title>
<g id="a_node22"><a xlink:href="gc_8c.html#a1e1a80c2d04496b5b70bd86b59510355" target="_top" xlink:title="fr_gc_unsafe_free">
<polygon fill="none" stroke="black" points="1476.5,-340.5 1476.5,-359.5 1571.5,-359.5 1571.5,-340.5 1476.5,-340.5"/>
<text text-anchor="middle" x="1524" y="-347.5" font-family="Helvetica,sans-Serif" font-size="10.00">fr_gc_unsafe_free</text>
</a>
</g>
</g>
<!-- Node16&#45;&gt;Node22 -->
<g id="edge21" class="edge"><title>Node16&#45;&gt;Node22</title>
<path fill="none" stroke="midnightblue" d="M1424.31,-378.411C1441.19,-373.551 1461.89,-367.591 1479.97,-362.387"/>
<polygon fill="midnightblue" stroke="midnightblue" points="1481.06,-365.716 1489.7,-359.586 1479.12,-358.989 1481.06,-365.716"/>
</g>
<!-- Node18 -->
<g id="node18" class="node"><title>Node18</title>
<g id="a_node18"><a xlink:href="gc_8c.html#afb494e950c8c6b5661974748ae89b61e" target="_top" xlink:title="chunk_from_cache">
<polygon fill="none" stroke="black" points="1732.5,-284.5 1732.5,-303.5 1831.5,-303.5 1831.5,-284.5 1732.5,-284.5"/>
<text text-anchor="middle" x="1782" y="-291.5" font-family="Helvetica,sans-Serif" font-size="10.00">chunk_from_cache</text>
</a>
</g>
</g>
<!-- Node17&#45;&gt;Node18 -->
<g id="edge17" class="edge"><title>Node17&#45;&gt;Node18</title>
<path fill="none" stroke="midnightblue" d="M1675,-340.373C1695.64,-331.343 1726.72,-317.749 1749.89,-307.611"/>
<polygon fill="midnightblue" stroke="midnightblue" points="1751.52,-310.716 1759.28,-303.501 1748.72,-304.303 1751.52,-310.716"/>
</g>
<!-- Node19 -->
<g id="node19" class="node"><title>Node19</title>
<g id="a_node19"><a xlink:href="gc_8c.html#a2a6f41199ed37925df4cc7b9909dc0ed" target="_top" xlink:title="get_empty_chunks">
<polygon fill="none" stroke="black" points="1868.5,-190.5 1868.5,-209.5 1967.5,-209.5 1967.5,-190.5 1868.5,-190.5"/>
<text text-anchor="middle" x="1918" y="-197.5" font-family="Helvetica,sans-Serif" font-size="10.00">get_empty_chunks</text>
</a>
</g>
</g>
<!-- Node18&#45;&gt;Node19 -->
<g id="edge18" class="edge"><title>Node18&#45;&gt;Node19</title>
<path fill="none" stroke="midnightblue" d="M1796.84,-284.294C1820.13,-267.956 1867.34,-234.837 1895.15,-215.33"/>
<polygon fill="midnightblue" stroke="midnightblue" points="1897.26,-218.121 1903.44,-209.513 1893.24,-212.39 1897.26,-218.121"/>
</g>
<!-- Node20 -->
<g id="node20" class="node"><title>Node20</title>
<g id="a_node20"><a xlink:href="gc_8c.html#ac360b80b93ad00f0fba18a1993e1d6a0" target="_top" xlink:title="add_chunks_to_list">
<polygon fill="none" stroke="black" points="2004.5,-152.5 2004.5,-171.5 2105.5,-171.5 2105.5,-152.5 2004.5,-152.5"/>
<text text-anchor="middle" x="2055" y="-159.5" font-family="Helvetica,sans-Serif" font-size="10.00">add_chunks_to_list</text>
</a>
</g>
</g>
<!-- Node19&#45;&gt;Node20 -->
<g id="edge19" class="edge"><title>Node19&#45;&gt;Node20</title>
<path fill="none" stroke="midnightblue" d="M1953.07,-190.411C1970.41,-185.528 1991.7,-179.536 2010.25,-174.315"/>
<polygon fill="midnightblue" stroke="midnightblue" points="2011.27,-177.665 2019.94,-171.586 2009.37,-170.926 2011.27,-177.665"/>
</g>
<!-- Node21 -->
<g id="node21" class="node"><title>Node21</title>
<g id="a_node21"><a xlink:href="gc_8c.html#ade31863985bdaa481ade142bdfb6d99f" target="_top" xlink:title="alloc_more_chunks">
<polygon fill="none" stroke="black" points="2004.5,-190.5 2004.5,-209.5 2105.5,-209.5 2105.5,-190.5 2004.5,-190.5"/>
<text text-anchor="middle" x="2055" y="-197.5" font-family="Helvetica,sans-Serif" font-size="10.00">alloc_more_chunks</text>
</a>
</g>
</g>
<!-- Node19&#45;&gt;Node21 -->
<g id="edge20" class="edge"><title>Node19&#45;&gt;Node21</title>
<path fill="none" stroke="midnightblue" d="M1967.74,-200C1976.31,-200 1985.33,-200 1994.17,-200"/>
<polygon fill="midnightblue" stroke="midnightblue" points="1994.43,-203.5 2004.43,-200 1994.43,-196.5 1994.43,-203.5"/>
</g>
<!-- Node22&#45;&gt;Node17 -->
<g id="edge22" class="edge"><title>Node22&#45;&gt;Node17</title>
<path fill="none" stroke="midnightblue" d="M1571.56,-350C1584.7,-350 1598.87,-350 1611.56,-350"/>
<polygon fill="midnightblue" stroke="midnightblue" points="1611.81,-353.5 1621.81,-350 1611.81,-346.5 1611.81,-353.5"/>
</g>
<!-- Node23&#45;&gt;Node10 -->
<g id="edge26" class="edge"><title>Node23&#45;&gt;Node10</title>
<path fill="none" stroke="midnightblue" d="M1141.11,-369C1154.83,-369 1170.45,-369 1185.46,-369"/>
<polygon fill="midnightblue" stroke="midnightblue" points="1185.73,-372.5 1195.73,-369 1185.73,-365.5 1185.73,-372.5"/>
</g>
<!-- Node23&#45;&gt;Node13 -->
<g id="edge24" class="edge"><title>Node23&#45;&gt;Node13</title>
<path fill="none" stroke="midnightblue" d="M1137.6,-359.411C1157.08,-354.442 1181.07,-348.323 1201.8,-343.039"/>
<polygon fill="midnightblue" stroke="midnightblue" points="1202.85,-346.383 1211.67,-340.52 1201.12,-339.6 1202.85,-346.383"/>
</g>
<!-- Node23&#45;&gt;Node15 -->
<g id="edge25" class="edge"><title>Node23&#45;&gt;Node15</title>
<path fill="none" stroke="midnightblue" d="M1137.6,-378.589C1157.08,-383.558 1181.07,-389.677 1201.8,-394.961"/>
<polygon fill="midnightblue" stroke="midnightblue" points="1201.12,-398.4 1211.67,-397.48 1202.85,-391.617 1201.12,-398.4"/>
</g>
<!-- Node25&#45;&gt;Node8 -->
<g id="edge31" class="edge"><title>Node25&#45;&gt;Node8</title>
<path fill="none" stroke="midnightblue" d="M553.836,-163.809C577.126,-180.321 624.339,-213.792 652.147,-233.507"/>
<polygon fill="midnightblue" stroke="midnightblue" points="650.257,-236.458 660.439,-239.386 654.306,-230.747 650.257,-236.458"/>
</g>
<!-- Node26 -->
<g id="node26" class="node"><title>Node26</title>
<g id="a_node26"><a xlink:href="avltree_8c.html#a645f38498ce0006cd109919b893e21f4" target="_top" xlink:title="new_node">
<polygon fill="none" stroke="black" points="644.5,-38.5 644.5,-57.5 705.5,-57.5 705.5,-38.5 644.5,-38.5"/>
<text text-anchor="middle" x="675" y="-45.5" font-family="Helvetica,sans-Serif" font-size="10.00">new_node</text>
</a>
</g>
</g>
<!-- Node25&#45;&gt;Node26 -->
<g id="edge30" class="edge"><title>Node25&#45;&gt;Node26</title>
<path fill="none" stroke="midnightblue" d="M569.512,-144.412C574.701,-141.88 579.782,-138.772 584,-135 608.039,-113.503 596.075,-93.6243 620,-72 624.437,-67.9896 629.653,-64.5612 635.064,-61.6576"/>
<polygon fill="midnightblue" stroke="midnightblue" points="636.745,-64.7336 644.251,-57.2565 633.72,-58.4207 636.745,-64.7336"/>
</g>
<!-- Node27 -->
<g id="node27" class="node"><title>Node27</title>
<g id="a_node27"><a xlink:href="stm_8h.html#a7f41614dded09613f4ccd7578ef188ba" target="_top" xlink:title="new_stm_blk">
<polygon fill="none" stroke="black" points="1353,-76.5 1353,-95.5 1427,-95.5 1427,-76.5 1353,-76.5"/>
<text text-anchor="middle" x="1390" y="-83.5" font-family="Helvetica,sans-Serif" font-size="10.00">new_stm_blk</text>
</a>
</g>
</g>
<!-- Node25&#45;&gt;Node27 -->
<g id="edge32" class="edge"><title>Node25&#45;&gt;Node27</title>
<path fill="none" stroke="midnightblue" d="M561.761,-144.401C606.302,-125.657 711.471,-86 804,-86 804,-86 804,-86 1100,-86 1185.73,-86 1285.76,-86 1342.82,-86"/>
<polygon fill="midnightblue" stroke="midnightblue" points="1342.96,-89.5001 1352.96,-86 1342.96,-82.5001 1342.96,-89.5001"/>
</g>
<!-- Node31 -->
<g id="node31" class="node"><title>Node31</title>
<g id="a_node31"><a xlink:href="stm_8h.html#a2c77806bb0511fb17494d226b5ea20d8" target="_top" xlink:title="init_stm_blk">
<polygon fill="none" stroke="black" points="640.5,-0.5 640.5,-19.5 709.5,-19.5 709.5,-0.5 640.5,-0.5"/>
<text text-anchor="middle" x="675" y="-7.5" font-family="Helvetica,sans-Serif" font-size="10.00">init_stm_blk</text>
</a>
</g>
</g>
<!-- Node25&#45;&gt;Node31 -->
<g id="edge39" class="edge"><title>Node25&#45;&gt;Node31</title>
<path fill="none" stroke="midnightblue" d="M571.48,-144.335C576.117,-141.86 580.501,-138.791 584,-135 617.742,-98.436 585.011,-64.373 620,-29 623.232,-25.7321 627.059,-23.0248 631.161,-20.7822"/>
<polygon fill="midnightblue" stroke="midnightblue" points="632.785,-23.8891 640.453,-16.578 629.899,-17.5116 632.785,-23.8891"/>
</g>
<!-- Node32 -->
<g id="node32" class="node"><title>Node32</title>
<g id="a_node32"><a xlink:href="stmskip_8cc.html#ab6919257456cff4d47684cdfd3bc5a3c" target="_top" xlink:title="get_level">
<polygon fill="none" stroke="black" points="647,-163.5 647,-182.5 703,-182.5 703,-163.5 647,-163.5"/>
<text text-anchor="middle" x="675" y="-170.5" font-family="Helvetica,sans-Serif" font-size="10.00">get_level</text>
</a>
</g>
</g>
<!-- Node25&#45;&gt;Node32 -->
<g id="edge40" class="edge"><title>Node25&#45;&gt;Node32</title>
<path fill="none" stroke="midnightblue" d="M582.031,-159.96C599.574,-162.447 619.782,-165.312 636.78,-167.722"/>
<polygon fill="midnightblue" stroke="midnightblue" points="636.503,-171.218 646.896,-169.157 637.486,-164.288 636.503,-171.218"/>
</g>
<!-- Node33 -->
<g id="node33" class="node"><title>Node33</title>
<g id="a_node33"><a xlink:href="stm_8h.html#a00de1ad150378181157510e2e5982f75" target="_top" xlink:title="write_stm_blk">
<polygon fill="none" stroke="black" points="766.5,-212.5 766.5,-231.5 843.5,-231.5 843.5,-212.5 766.5,-212.5"/>
<text text-anchor="middle" x="805" y="-219.5" font-family="Helvetica,sans-Serif" font-size="10.00">write_stm_blk</text>
</a>
</g>
</g>
<!-- Node25&#45;&gt;Node33 -->
<g id="edge41" class="edge"><title>Node25&#45;&gt;Node33</title>
<path fill="none" stroke="midnightblue" d="M582.377,-145.447C621.988,-139.403 682.054,-135.316 730,-154 755.65,-163.996 777.793,-187.501 791.007,-204.066"/>
<polygon fill="midnightblue" stroke="midnightblue" points="788.543,-206.605 797.396,-212.425 794.104,-202.354 788.543,-206.605"/>
</g>
<!-- Node28 -->
<g id="node28" class="node"><title>Node28</title>
<g id="a_node28"><a xlink:href="gc_8c.html#a5c5981457deeeefd60df569f6265f59c" target="_top" xlink:title="fr_gc_alloc">
<polygon fill="none" stroke="black" points="1492,-114.5 1492,-133.5 1556,-133.5 1556,-114.5 1492,-114.5"/>
<text text-anchor="middle" x="1524" y="-121.5" font-family="Helvetica,sans-Serif" font-size="10.00">fr_gc_alloc</text>
</a>
</g>
</g>
<!-- Node27&#45;&gt;Node28 -->
<g id="edge33" class="edge"><title>Node27&#45;&gt;Node28</title>
<path fill="none" stroke="midnightblue" d="M1424.31,-95.589C1441.92,-100.658 1463.68,-106.923 1482.29,-112.279"/>
<polygon fill="midnightblue" stroke="midnightblue" points="1481.39,-115.664 1491.97,-115.067 1483.33,-108.937 1481.39,-115.664"/>
</g>
<!-- Node28&#45;&gt;Node20 -->
<g id="edge34" class="edge"><title>Node28&#45;&gt;Node20</title>
<path fill="none" stroke="midnightblue" d="M1556.12,-126.235C1641.7,-132.383 1881.72,-149.624 1994.3,-157.711"/>
<polygon fill="midnightblue" stroke="midnightblue" points="1994.23,-161.216 2004.46,-158.441 1994.73,-154.234 1994.23,-161.216"/>
</g>
<!-- Node29 -->
<g id="node29" class="node"><title>Node29</title>
<g id="a_node29"><a xlink:href="gc_8c.html#a6dffa65320ddab40d01f198433b3aeb6" target="_top" xlink:title="get_alloc_chunk">
<polygon fill="none" stroke="black" points="1608.5,-152.5 1608.5,-171.5 1695.5,-171.5 1695.5,-152.5 1608.5,-152.5"/>
<text text-anchor="middle" x="1652" y="-159.5" font-family="Helvetica,sans-Serif" font-size="10.00">get_alloc_chunk</text>
</a>
</g>
</g>
<!-- Node28&#45;&gt;Node29 -->
<g id="edge35" class="edge"><title>Node28&#45;&gt;Node29</title>
<path fill="none" stroke="midnightblue" d="M1556.15,-133.393C1572.23,-138.244 1592.07,-144.227 1609.44,-149.466"/>
<polygon fill="midnightblue" stroke="midnightblue" points="1608.75,-152.914 1619.34,-152.451 1610.77,-146.212 1608.75,-152.914"/>
</g>
<!-- Node29&#45;&gt;Node20 -->
<g id="edge38" class="edge"><title>Node29&#45;&gt;Node20</title>
<path fill="none" stroke="midnightblue" d="M1695.53,-162C1767.25,-162 1912.39,-162 1994.28,-162"/>
<polygon fill="midnightblue" stroke="midnightblue" points="1994.43,-165.5 2004.43,-162 1994.43,-158.5 1994.43,-165.5"/>
</g>
<!-- Node30 -->
<g id="node30" class="node"><title>Node30</title>
<g id="a_node30"><a xlink:href="gc_8c.html#ae47e099483bed50da4e41b906c300b99" target="_top" xlink:title="get_filled_chunks">
<polygon fill="none" stroke="black" points="1736,-190.5 1736,-209.5 1828,-209.5 1828,-190.5 1736,-190.5"/>
<text text-anchor="middle" x="1782" y="-197.5" font-family="Helvetica,sans-Serif" font-size="10.00">get_filled_chunks</text>
</a>
</g>
</g>
<!-- Node29&#45;&gt;Node30 -->
<g id="edge36" class="edge"><title>Node29&#45;&gt;Node30</title>
<path fill="none" stroke="midnightblue" d="M1685.3,-171.589C1701.52,-176.404 1721.38,-182.299 1738.79,-187.468"/>
<polygon fill="midnightblue" stroke="midnightblue" points="1738.13,-190.923 1748.71,-190.414 1740.12,-184.213 1738.13,-190.923"/>
</g>
<!-- Node30&#45;&gt;Node19 -->
<g id="edge37" class="edge"><title>Node30&#45;&gt;Node19</title>
<path fill="none" stroke="midnightblue" d="M1828.37,-200C1837.95,-200 1848.19,-200 1858.18,-200"/>
<polygon fill="midnightblue" stroke="midnightblue" points="1858.47,-203.5 1868.47,-200 1858.47,-196.5 1858.47,-203.5"/>
</g>
<!-- Node33&#45;&gt;Node10 -->
<g id="edge42" class="edge"><title>Node33&#45;&gt;Node10</title>
<path fill="none" stroke="midnightblue" d="M843.837,-217.551C884.628,-214.35 950.614,-213.872 1002,-236 1021.94,-244.585 1020.18,-256.604 1038,-269 1102.78,-314.066 1123.6,-318.619 1196,-350 1200.7,-352.037 1205.7,-354.036 1210.67,-355.928"/>
<polygon fill="midnightblue" stroke="midnightblue" points="1209.54,-359.239 1220.13,-359.414 1211.96,-352.671 1209.54,-359.239"/>
</g>
<!-- Node33&#45;&gt;Node11 -->
<g id="edge43" class="edge"><title>Node33&#45;&gt;Node11</title>
<path fill="none" stroke="midnightblue" d="M810.902,-231.645C821.116,-250.784 846.535,-293.718 880,-317 882.867,-318.995 885.954,-320.788 889.161,-322.398"/>
<polygon fill="midnightblue" stroke="midnightblue" points="887.87,-325.654 898.434,-326.469 890.684,-319.244 887.87,-325.654"/>
</g>
<!-- Node33&#45;&gt;Node12 -->
<g id="edge44" class="edge"><title>Node33&#45;&gt;Node12</title>
<path fill="none" stroke="midnightblue" d="M808.645,-231.653C815.832,-256.061 838.046,-320.735 880,-355 883.819,-358.119 888.155,-360.729 892.709,-362.912"/>
<polygon fill="midnightblue" stroke="midnightblue" points="891.683,-366.273 902.263,-366.82 894.333,-359.795 891.683,-366.273"/>
</g>
<!-- Node33&#45;&gt;Node23 -->
<g id="edge51" class="edge"><title>Node33&#45;&gt;Node23</title>
<path fill="none" stroke="midnightblue" d="M843.522,-230.696C892.426,-242.407 974.907,-263.557 1002,-279 1035.52,-298.106 1066.59,-331.169 1083.86,-351.461"/>
<polygon fill="midnightblue" stroke="midnightblue" points="1081.29,-353.851 1090.38,-359.298 1086.67,-349.373 1081.29,-353.851"/>
</g>
<!-- Node33&#45;&gt;Node24 -->
<g id="edge50" class="edge"><title>Node33&#45;&gt;Node24</title>
<path fill="none" stroke="midnightblue" d="M817.999,-231.755C832.185,-242.966 856.806,-261.434 880,-274 887.144,-277.871 895.048,-281.472 902.71,-284.647"/>
<polygon fill="midnightblue" stroke="midnightblue" points="901.625,-287.982 912.21,-288.428 904.213,-281.478 901.625,-287.982"/>
</g>
<!-- Node33&#45;&gt;Node28 -->
<g id="edge45" class="edge"><title>Node33&#45;&gt;Node28</title>
<path fill="none" stroke="midnightblue" d="M811.646,-212.342C822.415,-194.945 847.719,-158.693 880,-143 967.468,-100.478 1000.74,-124 1098,-124 1098,-124 1098,-124 1251,-124 1332.9,-124 1428.67,-124 1481.93,-124"/>
<polygon fill="midnightblue" stroke="midnightblue" points="1482,-127.5 1492,-124 1482,-120.5 1482,-127.5"/>
</g>
<!-- Node34 -->
<g id="node34" class="node"><title>Node34</title>
<g id="a_node34"><a xlink:href="namespaceanonymous__namespace_02libitm-5_813_0014_8cpp_03.html#a8b7be7cf3afef27c0623b844ce9116d8" target="_top" xlink:title="anonymous_namespace\l\{libitm&#45;5::13,14::cpp\}\l::memcpy">
<polygon fill="none" stroke="black" points="880,-152.5 880,-193.5 1002,-193.5 1002,-152.5 880,-152.5"/>
<text text-anchor="start" x="888" y="-181.5" font-family="Helvetica,sans-Serif" font-size="10.00">anonymous_namespace</text>
<text text-anchor="start" x="888" y="-170.5" font-family="Helvetica,sans-Serif" font-size="10.00">{libitm&#45;5::13,14::cpp}</text>
<text text-anchor="middle" x="941" y="-159.5" font-family="Helvetica,sans-Serif" font-size="10.00">::memcpy</text>
</a>
</g>
</g>
<!-- Node33&#45;&gt;Node34 -->
<g id="edge46" class="edge"><title>Node33&#45;&gt;Node34</title>
<path fill="none" stroke="midnightblue" d="M832.155,-212.436C844.213,-208.027 859.126,-202.573 873.975,-197.143"/>
<polygon fill="midnightblue" stroke="midnightblue" points="875.503,-200.311 883.693,-193.59 873.099,-193.737 875.503,-200.311"/>
</g>
<!-- Node35 -->
<g id="node35" class="node"><title>Node35</title>
<g id="a_node35"><a xlink:href="namespaceanonymous__namespace_02oreceager_8cpp_03.html#a7a88c7a7453bbfaca53eeac03b80a5d6" target="_top" xlink:title="anonymous_namespace\l\{oreceager::cpp\}::read">
<polygon fill="none" stroke="black" points="1038,-191 1038,-221 1160,-221 1160,-191 1038,-191"/>
<text text-anchor="start" x="1046" y="-209" font-family="Helvetica,sans-Serif" font-size="10.00">anonymous_namespace</text>
<text text-anchor="middle" x="1099" y="-198" font-family="Helvetica,sans-Serif" font-size="10.00">{oreceager::cpp}::read</text>
</a>
</g>
</g>
<!-- Node34&#45;&gt;Node35 -->
<g id="edge47" class="edge"><title>Node34&#45;&gt;Node35</title>
<path fill="none" stroke="midnightblue" d="M1002.31,-185.759C1010.69,-187.532 1019.36,-189.365 1027.9,-191.172"/>
<polygon fill="midnightblue" stroke="midnightblue" points="1027.34,-194.63 1037.85,-193.275 1028.79,-187.781 1027.34,-194.63"/>
</g>
<!-- Node36 -->
<g id="node36" class="node"><title>Node36</title>
<g id="a_node36"><a xlink:href="namespaceitm2stm.html#a334b9615cac957b9ce7a4743beaaaf53" target="_top" xlink:title="itm2stm::add_bytes">
<polygon fill="none" stroke="black" points="1047.5,-152.5 1047.5,-171.5 1150.5,-171.5 1150.5,-152.5 1047.5,-152.5"/>
<text text-anchor="middle" x="1099" y="-159.5" font-family="Helvetica,sans-Serif" font-size="10.00">itm2stm::add_bytes</text>
</a>
</g>
</g>
<!-- Node34&#45;&gt;Node36 -->
<g id="edge48" class="edge"><title>Node34&#45;&gt;Node36</title>
<path fill="none" stroke="midnightblue" d="M1002.31,-168.747C1013.85,-167.933 1025.94,-167.081 1037.48,-166.267"/>
<polygon fill="midnightblue" stroke="midnightblue" points="1037.73,-169.758 1047.46,-165.564 1037.24,-162.776 1037.73,-169.758"/>
</g>
<!-- Node37 -->
<g id="node37" class="node"><title>Node37</title>
<g id="a_node37"><a xlink:href="namespaceitm2stm.html#aa9908b113027ae21130750939980ee0b" target="_top" xlink:title="itm2stm::offset_of">
<polygon fill="none" stroke="black" points="1051,-240.5 1051,-259.5 1147,-259.5 1147,-240.5 1051,-240.5"/>
<text text-anchor="middle" x="1099" y="-247.5" font-family="Helvetica,sans-Serif" font-size="10.00">itm2stm::offset_of</text>
</a>
</g>
</g>
<!-- Node34&#45;&gt;Node37 -->
<g id="edge49" class="edge"><title>Node34&#45;&gt;Node37</title>
<path fill="none" stroke="midnightblue" d="M977.605,-193.608C985.646,-198.308 994.131,-203.301 1002,-208 1018.1,-217.613 1021,-222.096 1038,-230 1043.42,-232.52 1049.25,-234.874 1055.07,-237.016"/>
<polygon fill="midnightblue" stroke="midnightblue" points="1054.19,-240.415 1064.78,-240.417 1056.5,-233.808 1054.19,-240.415"/>
</g>
<!-- Node38&#45;&gt;Node8 -->
<g id="edge53" class="edge"><title>Node38&#45;&gt;Node8</title>
<path fill="none" stroke="midnightblue" d="M573.814,-220.589C591.033,-225.472 612.164,-231.464 630.573,-236.685"/>
<polygon fill="midnightblue" stroke="midnightblue" points="629.621,-240.053 640.197,-239.414 631.531,-233.319 629.621,-240.053"/>
</g>
<!-- Node38&#45;&gt;Node33 -->
<g id="edge54" class="edge"><title>Node38&#45;&gt;Node33</title>
<path fill="none" stroke="midnightblue" d="M583.594,-212.816C631.175,-214.799 707.119,-217.963 756.271,-220.011"/>
<polygon fill="midnightblue" stroke="midnightblue" points="756.196,-223.511 766.333,-220.431 756.487,-216.517 756.196,-223.511"/>
</g>
<!-- Node41&#45;&gt;Node3 -->
<g id="edge58" class="edge"><title>Node41&#45;&gt;Node3</title>
<path fill="none" stroke="midnightblue" d="M175.641,-178.598C186.856,-180.647 199.675,-182.989 211.426,-185.136"/>
<polygon fill="midnightblue" stroke="midnightblue" points="210.945,-188.606 221.411,-186.96 212.203,-181.72 210.945,-188.606"/>
</g>
<!-- Node42 -->
<g id="node42" class="node"><title>Node42</title>
<g id="a_node42"><a xlink:href="list_8c.html#a06249cb6bbda6b10f5777b96a6c122f9" target="_top" xlink:title="list_insert">
<polygon fill="none" stroke="black" points="220.5,-144.5 220.5,-163.5 279.5,-163.5 279.5,-144.5 220.5,-144.5"/>
<text text-anchor="middle" x="250" y="-151.5" font-family="Helvetica,sans-Serif" font-size="10.00">list_insert</text>
</a>
</g>
</g>
<!-- Node41&#45;&gt;Node42 -->
<g id="edge59" class="edge"><title>Node41&#45;&gt;Node42</title>
<path fill="none" stroke="midnightblue" d="M175.641,-167.402C186.467,-165.424 198.788,-163.173 210.201,-161.088"/>
<polygon fill="midnightblue" stroke="midnightblue" points="211.15,-164.473 220.358,-159.233 209.892,-157.587 211.15,-164.473"/>
</g>
<!-- Node42&#45;&gt;Node5 -->
<g id="edge60" class="edge"><title>Node42&#45;&gt;Node5</title>
<path fill="none" stroke="midnightblue" d="M277.244,-163.589C289.93,-168.224 305.353,-173.86 319.107,-178.885"/>
<polygon fill="midnightblue" stroke="midnightblue" points="318.171,-182.269 328.765,-182.414 320.573,-175.695 318.171,-182.269"/>
</g>
<!-- Node43 -->
<g id="node43" class="node"><title>Node43</title>
<g id="a_node43"><a xlink:href="list_8c.html#a83f50b1d8e5fda2432265d6ec526558e" target="_top" xlink:title="allocNode">
<polygon fill="none" stroke="black" points="326,-144.5 326,-163.5 386,-163.5 386,-144.5 326,-144.5"/>
<text text-anchor="middle" x="356" y="-151.5" font-family="Helvetica,sans-Serif" font-size="10.00">allocNode</text>
</a>
</g>
</g>
<!-- Node42&#45;&gt;Node43 -->
<g id="edge61" class="edge"><title>Node42&#45;&gt;Node43</title>
<path fill="none" stroke="midnightblue" d="M279.694,-154C290.761,-154 303.605,-154 315.516,-154"/>
<polygon fill="midnightblue" stroke="midnightblue" points="315.677,-157.5 325.677,-154 315.677,-150.5 315.677,-157.5"/>
</g>
</g>
</svg>
