<?xml version="1.0" encoding="UTF-8" standalone="no"?>
<!DOCTYPE svg PUBLIC "-//W3C//DTD SVG 1.1//EN"
 "http://www.w3.org/Graphics/SVG/1.1/DTD/svg11.dtd">
<!-- Generated by graphviz version 2.36.0 (20140111.2315)
 -->
<!-- Title: net_applyOperation Pages: 1 -->
<!--zoomable 436 -->
<svg id="main" version="1.1" xmlns="http://www.w3.org/2000/svg" xmlns:xlink="http://www.w3.org/1999/xlink" xml:space="preserve" onload="init(evt)">
<style type="text/css"><![CDATA[
.edge:hover path { stroke: red; }
.edge:hover polygon { stroke: red; fill: red; }
]]></style>
<script type="text/javascript"><![CDATA[
var edges = document.getElementsByTagName('g');
if (edges && edges.length) {
  for (var i=0;i<edges.length;i++) {
    if (edges[i].id.substr(0,4)=='edge') {
      edges[i].setAttribute('class','edge');
    }
  }
}
]]></script>
        <defs>
                <circle id="rim" cx="0" cy="0" r="7"/>
                <circle id="rim2" cx="0" cy="0" r="3.5"/>
                <g id="zoomPlus">
                        <use xlink:href="#rim" fill="#404040">
                                <set attributeName="fill" to="#808080" begin="zoomplus.mouseover" end="zoomplus.mouseout"/>
                        </use>
                        <path d="M-4,0h8M0,-4v8" fill="none" stroke="white" stroke-width="1.5" pointer-events="none"/>
                </g>
                <g id="zoomMin">
                        <use xlink:href="#rim" fill="#404040">
                                <set attributeName="fill" to="#808080" begin="zoomminus.mouseover" end="zoomminus.mouseout"/>
                        </use>
                        <path d="M-4,0h8" fill="none" stroke="white" stroke-width="1.5" pointer-events="none"/>
                </g>
                <g id="dirArrow">
                        <path fill="none" stroke="white" stroke-width="1.5" d="M0,-3.0v7 M-2.5,-0.5L0,-3.0L2.5,-0.5"/>
                </g>
               <g id="resetDef">
                       <use xlink:href="#rim2" fill="#404040">
                               <set attributeName="fill" to="#808080" begin="reset.mouseover" end="reset.mouseout"/>
                       </use>
               </g>
        </defs>

<script type="text/javascript">
var viewWidth = 2252;
var viewHeight = 436;
var sectionId = 'dynsection-4';
</script>
<script xlink:href="svgpan.js"/>
<svg id="graph" class="graph">
<g id="viewport">
<title>net_applyOperation</title>
<!-- Node1 -->
<g id="node1" class="node"><title>Node1</title>
<polygon fill="#bfbfbf" stroke="black" points="0.5,-182.5 0.5,-201.5 101.5,-201.5 101.5,-182.5 0.5,-182.5"/>
<text text-anchor="middle" x="51" y="-189.5" font-family="Helvetica,sans-Serif" font-size="10.00">net_applyOperation</text>
</g>
<!-- Node2 -->
<g id="node2" class="node"><title>Node2</title>
<g id="a_node2"><a xlink:href="net_8c.html#ad4f5f991dfc5667c5d75c5b353dbe974" target="_top" xlink:title="insertEdge">
<polygon fill="none" stroke="black" points="250.5,-201.5 250.5,-220.5 313.5,-220.5 313.5,-201.5 250.5,-201.5"/>
<text text-anchor="middle" x="282" y="-208.5" font-family="Helvetica,sans-Serif" font-size="10.00">insertEdge</text>
</a>
</g>
</g>
<!-- Node1&#45;&gt;Node2 -->
<g id="edge1" class="edge"><title>Node1&#45;&gt;Node2</title>
<path fill="none" stroke="midnightblue" d="M86.8607,-201.508C102.387,-205.273 120.976,-209.142 138,-211 172.399,-214.755 211.731,-214.421 240.427,-213.337"/>
<polygon fill="midnightblue" stroke="midnightblue" points="240.647,-216.831 250.49,-212.911 240.35,-209.838 240.647,-216.831"/>
</g>
<!-- Node41 -->
<g id="node41" class="node"><title>Node41</title>
<g id="a_node41"><a xlink:href="net_8c.html#a2110916d842d0952f1542e4e96ba98bb" target="_top" xlink:title="removeEdge">
<polygon fill="none" stroke="black" points="246.5,-163.5 246.5,-182.5 317.5,-182.5 317.5,-163.5 246.5,-163.5"/>
<text text-anchor="middle" x="282" y="-170.5" font-family="Helvetica,sans-Serif" font-size="10.00">removeEdge</text>
</a>
</g>
</g>
<!-- Node1&#45;&gt;Node41 -->
<g id="edge57" class="edge"><title>Node1&#45;&gt;Node41</title>
<path fill="none" stroke="midnightblue" d="M86.8607,-182.492C102.387,-178.727 120.976,-174.858 138,-173 170.607,-169.441 207.646,-169.556 235.858,-170.5"/>
<polygon fill="midnightblue" stroke="midnightblue" points="236.084,-174.011 246.21,-170.896 236.352,-167.016 236.084,-174.011"/>
</g>
<!-- Node44 -->
<g id="node44" class="node"><title>Node44</title>
<g id="a_node44"><a xlink:href="net_8c.html#a456ce4308d1d5e4f0a816165f0d1b9ac" target="_top" xlink:title="reverseEdge">
<polygon fill="none" stroke="black" points="138.5,-182.5 138.5,-201.5 209.5,-201.5 209.5,-182.5 138.5,-182.5"/>
<text text-anchor="middle" x="174" y="-189.5" font-family="Helvetica,sans-Serif" font-size="10.00">reverseEdge</text>
</a>
</g>
</g>
<!-- Node1&#45;&gt;Node44 -->
<g id="edge62" class="edge"><title>Node1&#45;&gt;Node44</title>
<path fill="none" stroke="midnightblue" d="M101.564,-192C110.477,-192 119.718,-192 128.477,-192"/>
<polygon fill="midnightblue" stroke="midnightblue" points="128.489,-195.5 138.489,-192 128.489,-188.5 128.489,-195.5"/>
</g>
<!-- Node3 -->
<g id="node3" class="node"><title>Node3</title>
<g id="a_node3"><a xlink:href="vector_8c.html#a043c4e94efce1c5a44095eb9388ba5e7" target="_top" xlink:title="vector_at">
<polygon fill="none" stroke="black" points="359.5,-182.5 359.5,-201.5 416.5,-201.5 416.5,-182.5 359.5,-182.5"/>
<text text-anchor="middle" x="388" y="-189.5" font-family="Helvetica,sans-Serif" font-size="10.00">vector_at</text>
</a>
</g>
</g>
<!-- Node2&#45;&gt;Node3 -->
<g id="edge2" class="edge"><title>Node2&#45;&gt;Node3</title>
<path fill="none" stroke="midnightblue" d="M313.641,-205.402C324.856,-203.353 337.675,-201.011 349.426,-198.864"/>
<polygon fill="midnightblue" stroke="midnightblue" points="350.203,-202.28 359.411,-197.04 348.945,-195.394 350.203,-202.28"/>
</g>
<!-- Node4 -->
<g id="node4" class="node"><title>Node4</title>
<g id="a_node4"><a xlink:href="list_8c.html#a06249cb6bbda6b10f5777b96a6c122f9" target="_top" xlink:title="list_insert">
<polygon fill="none" stroke="black" points="358.5,-220.5 358.5,-239.5 417.5,-239.5 417.5,-220.5 358.5,-220.5"/>
<text text-anchor="middle" x="388" y="-227.5" font-family="Helvetica,sans-Serif" font-size="10.00">list_insert</text>
</a>
</g>
</g>
<!-- Node2&#45;&gt;Node4 -->
<g id="edge3" class="edge"><title>Node2&#45;&gt;Node4</title>
<path fill="none" stroke="midnightblue" d="M313.641,-216.598C324.467,-218.576 336.788,-220.827 348.201,-222.912"/>
<polygon fill="midnightblue" stroke="midnightblue" points="347.892,-226.413 358.358,-224.767 349.15,-219.527 347.892,-226.413"/>
</g>
<!-- Node5 -->
<g id="node5" class="node"><title>Node5</title>
<g id="a_node5"><a xlink:href="list_8c.html#a3ed9de59a6e4cd353dee80f797da7a19" target="_top" xlink:title="findPrevious">
<polygon fill="none" stroke="black" points="458.5,-182.5 458.5,-201.5 529.5,-201.5 529.5,-182.5 458.5,-182.5"/>
<text text-anchor="middle" x="494" y="-189.5" font-family="Helvetica,sans-Serif" font-size="10.00">findPrevious</text>
</a>
</g>
</g>
<!-- Node4&#45;&gt;Node5 -->
<g id="edge4" class="edge"><title>Node4&#45;&gt;Node5</title>
<path fill="none" stroke="midnightblue" d="M415.244,-220.411C427.93,-215.776 443.353,-210.14 457.107,-205.115"/>
<polygon fill="midnightblue" stroke="midnightblue" points="458.573,-208.305 466.765,-201.586 456.171,-201.731 458.573,-208.305"/>
</g>
<!-- Node40 -->
<g id="node40" class="node"><title>Node40</title>
<g id="a_node40"><a xlink:href="list_8c.html#a83f50b1d8e5fda2432265d6ec526558e" target="_top" xlink:title="allocNode">
<polygon fill="none" stroke="black" points="464,-220.5 464,-239.5 524,-239.5 524,-220.5 464,-220.5"/>
<text text-anchor="middle" x="494" y="-227.5" font-family="Helvetica,sans-Serif" font-size="10.00">allocNode</text>
</a>
</g>
</g>
<!-- Node4&#45;&gt;Node40 -->
<g id="edge56" class="edge"><title>Node4&#45;&gt;Node40</title>
<path fill="none" stroke="midnightblue" d="M417.694,-230C428.761,-230 441.605,-230 453.516,-230"/>
<polygon fill="midnightblue" stroke="midnightblue" points="453.677,-233.5 463.677,-230 453.677,-226.5 453.677,-233.5"/>
</g>
<!-- Node6 -->
<g id="node6" class="node"><title>Node6</title>
<g id="a_node6"><a xlink:href="stmskip_8cc.html#a9ab04b9e875013b4d2dd249d0c97dce5" target="_top" xlink:title="for">
<polygon fill="none" stroke="black" points="566.5,-182.5 566.5,-201.5 595.5,-201.5 595.5,-182.5 566.5,-182.5"/>
<text text-anchor="middle" x="581" y="-189.5" font-family="Helvetica,sans-Serif" font-size="10.00">for</text>
</a>
</g>
</g>
<!-- Node5&#45;&gt;Node6 -->
<g id="edge5" class="edge"><title>Node5&#45;&gt;Node6</title>
<path fill="none" stroke="midnightblue" d="M529.573,-192C538.521,-192 547.955,-192 556.212,-192"/>
<polygon fill="midnightblue" stroke="midnightblue" points="556.249,-195.5 566.249,-192 556.249,-188.5 556.249,-195.5"/>
</g>
<!-- Node7 -->
<g id="node7" class="node"><title>Node7</title>
<g id="a_node7"><a xlink:href="stmskip_8cc.html#a09de30bf6124d9640899b27c93b49471" target="_top" xlink:title="stmskip_lookup">
<polygon fill="none" stroke="black" points="634.5,-239.5 634.5,-258.5 719.5,-258.5 719.5,-239.5 634.5,-239.5"/>
<text text-anchor="middle" x="677" y="-246.5" font-family="Helvetica,sans-Serif" font-size="10.00">stmskip_lookup</text>
</a>
</g>
</g>
<!-- Node6&#45;&gt;Node7 -->
<g id="edge6" class="edge"><title>Node6&#45;&gt;Node7</title>
<path fill="none" stroke="midnightblue" d="M592.966,-201.58C602.747,-209.811 617.691,-221.64 632,-230 635.038,-231.775 638.272,-233.481 641.556,-235.094"/>
<polygon fill="midnightblue" stroke="midnightblue" points="640.27,-238.356 650.816,-239.37 643.204,-232 640.27,-238.356"/>
</g>
<!-- Node25 -->
<g id="node25" class="node"><title>Node25</title>
<g id="a_node25"><a xlink:href="stmskip_8cc.html#ad17c6ea2fd390c2dd637a34fdeb0b3df" target="_top" xlink:title="stmskip_update">
<polygon fill="none" stroke="black" points="634,-144.5 634,-163.5 720,-163.5 720,-144.5 634,-144.5"/>
<text text-anchor="middle" x="677" y="-151.5" font-family="Helvetica,sans-Serif" font-size="10.00">stmskip_update</text>
</a>
</g>
</g>
<!-- Node6&#45;&gt;Node25 -->
<g id="edge29" class="edge"><title>Node6&#45;&gt;Node25</title>
<path fill="none" stroke="midnightblue" d="M595.87,-186.393C608.135,-181.435 626.523,-174.001 642.593,-167.505"/>
<polygon fill="midnightblue" stroke="midnightblue" points="644.264,-170.605 652.223,-163.612 641.64,-164.115 644.264,-170.605"/>
</g>
<!-- Node38 -->
<g id="node38" class="node"><title>Node38</title>
<g id="a_node38"><a xlink:href="stmskip_8cc.html#a3925aa5d2590fc57854aa9d670f58e4d" target="_top" xlink:title="stmskip_remove">
<polygon fill="none" stroke="black" points="632.5,-201.5 632.5,-220.5 721.5,-220.5 721.5,-201.5 632.5,-201.5"/>
<text text-anchor="middle" x="677" y="-208.5" font-family="Helvetica,sans-Serif" font-size="10.00">stmskip_remove</text>
</a>
</g>
</g>
<!-- Node6&#45;&gt;Node38 -->
<g id="edge52" class="edge"><title>Node6&#45;&gt;Node38</title>
<path fill="none" stroke="midnightblue" d="M595.87,-194.804C603.147,-196.274 612.581,-198.181 622.407,-200.167"/>
<polygon fill="midnightblue" stroke="midnightblue" points="621.803,-203.616 632.298,-202.167 623.19,-196.755 621.803,-203.616"/>
</g>
<!-- Node39 -->
<g id="node39" class="node"><title>Node39</title>
<g id="a_node39"><a xlink:href="stm_8h.html#ad6e1404788ef0e710c991c3e00fd5c39" target="_top" xlink:title="abort_stm_tx">
<polygon fill="none" stroke="black" points="640,-106.5 640,-125.5 714,-125.5 714,-106.5 640,-106.5"/>
<text text-anchor="middle" x="677" y="-113.5" font-family="Helvetica,sans-Serif" font-size="10.00">abort_stm_tx</text>
</a>
</g>
</g>
<!-- Node6&#45;&gt;Node39 -->
<g id="edge55" class="edge"><title>Node6&#45;&gt;Node39</title>
<path fill="none" stroke="midnightblue" d="M588.404,-182.351C597.038,-169.968 613.481,-148.479 632,-135 634.334,-133.302 636.843,-131.714 639.437,-130.24"/>
<polygon fill="midnightblue" stroke="midnightblue" points="641.121,-133.31 648.453,-125.661 637.952,-127.069 641.121,-133.31"/>
</g>
<!-- Node8 -->
<g id="node8" class="node"><title>Node8</title>
<g id="a_node8"><a xlink:href="stmskip_8cc.html#aa82848b11e972b9339ceadb6816cdb6a" target="_top" xlink:title="search_predecessors">
<polygon fill="none" stroke="black" points="758,-239.5 758,-258.5 868,-258.5 868,-239.5 758,-239.5"/>
<text text-anchor="middle" x="813" y="-246.5" font-family="Helvetica,sans-Serif" font-size="10.00">search_predecessors</text>
</a>
</g>
</g>
<!-- Node7&#45;&gt;Node8 -->
<g id="edge7" class="edge"><title>Node7&#45;&gt;Node8</title>
<path fill="none" stroke="midnightblue" d="M719.664,-249C728.466,-249 737.951,-249 747.374,-249"/>
<polygon fill="midnightblue" stroke="midnightblue" points="747.539,-252.5 757.539,-249 747.539,-245.5 747.539,-252.5"/>
</g>
<!-- Node9 -->
<g id="node9" class="node"><title>Node9</title>
<g id="a_node9"><a xlink:href="stm_8h.html#a5594d7fca67459d7d9738436af589c5c" target="_top" xlink:title="read_stm_blk">
<polygon fill="none" stroke="black" points="905.5,-345.5 905.5,-364.5 980.5,-364.5 980.5,-345.5 905.5,-345.5"/>
<text text-anchor="middle" x="943" y="-352.5" font-family="Helvetica,sans-Serif" font-size="10.00">read_stm_blk</text>
</a>
</g>
</g>
<!-- Node8&#45;&gt;Node9 -->
<g id="edge8" class="edge"><title>Node8&#45;&gt;Node9</title>
<path fill="none" stroke="midnightblue" d="M825.812,-258.782C847.816,-277.004 895.283,-316.313 922.242,-338.638"/>
<polygon fill="midnightblue" stroke="midnightblue" points="920.282,-341.559 930.216,-345.241 924.746,-336.168 920.282,-341.559"/>
</g>
<!-- Node10 -->
<g id="node10" class="node"><title>Node10</title>
<g id="a_node10"><a xlink:href="stm__fraser_8c.html#aca0d40200c3502bdabeb44b27dfd4105" target="_top" xlink:title="search_stm_tx_entry">
<polygon fill="none" stroke="black" points="1334,-359.5 1334,-378.5 1442,-378.5 1442,-359.5 1334,-359.5"/>
<text text-anchor="middle" x="1388" y="-366.5" font-family="Helvetica,sans-Serif" font-size="10.00">search_stm_tx_entry</text>
</a>
</g>
</g>
<!-- Node9&#45;&gt;Node10 -->
<g id="edge9" class="edge"><title>Node9&#45;&gt;Node10</title>
<path fill="none" stroke="midnightblue" d="M952.851,-364.886C965.657,-378.364 990.813,-401.873 1018,-411 1136.37,-450.741 1175.1,-410.04 1298,-388 1310.03,-385.843 1322.91,-383.255 1335.04,-380.694"/>
<polygon fill="midnightblue" stroke="midnightblue" points="1335.96,-384.075 1345.01,-378.558 1334.5,-377.23 1335.96,-384.075"/>
</g>
<!-- Node11 -->
<g id="node11" class="node"><title>Node11</title>
<g id="a_node11"><a xlink:href="stm__fraser_8c.html#a75177d9fa0335bd50b6fae9a68341443" target="_top" xlink:title="alloc_stm_tx_entry">
<polygon fill="none" stroke="black" points="1029.5,-326.5 1029.5,-345.5 1128.5,-345.5 1128.5,-326.5 1029.5,-326.5"/>
<text text-anchor="middle" x="1079" y="-333.5" font-family="Helvetica,sans-Serif" font-size="10.00">alloc_stm_tx_entry</text>
</a>
</g>
</g>
<!-- Node9&#45;&gt;Node11 -->
<g id="edge10" class="edge"><title>Node9&#45;&gt;Node11</title>
<path fill="none" stroke="midnightblue" d="M980.616,-349.808C992.596,-348.11 1006.22,-346.178 1019.4,-344.309"/>
<polygon fill="midnightblue" stroke="midnightblue" points="1019.95,-347.766 1029.36,-342.896 1018.97,-340.835 1019.95,-347.766"/>
</g>
<!-- Node12 -->
<g id="node12" class="node"><title>Node12</title>
<g id="a_node12"><a xlink:href="stm__fraser_8c.html#a4e016a575dac2ee3931ef9ec94550d33" target="_top" xlink:title="read_blk_data">
<polygon fill="none" stroke="black" points="1040.5,-364.5 1040.5,-383.5 1117.5,-383.5 1117.5,-364.5 1040.5,-364.5"/>
<text text-anchor="middle" x="1079" y="-371.5" font-family="Helvetica,sans-Serif" font-size="10.00">read_blk_data</text>
</a>
</g>
</g>
<!-- Node9&#45;&gt;Node12 -->
<g id="edge11" class="edge"><title>Node9&#45;&gt;Node12</title>
<path fill="none" stroke="midnightblue" d="M980.616,-360.192C996.017,-362.376 1014.14,-364.945 1030.54,-367.271"/>
<polygon fill="midnightblue" stroke="midnightblue" points="1030.1,-370.744 1040.5,-368.682 1031.09,-363.813 1030.1,-370.744"/>
</g>
<!-- Node23 -->
<g id="node23" class="node"><title>Node23</title>
<g id="a_node23"><a xlink:href="stm__fraser_8c.html#a31ea9d61a84d817aac10ffbc4ba9f296" target="_top" xlink:title="commit_stm_tx">
<polygon fill="none" stroke="black" points="1195,-359.5 1195,-378.5 1279,-378.5 1279,-359.5 1195,-359.5"/>
<text text-anchor="middle" x="1237" y="-366.5" font-family="Helvetica,sans-Serif" font-size="10.00">commit_stm_tx</text>
</a>
</g>
</g>
<!-- Node9&#45;&gt;Node23 -->
<g id="edge28" class="edge"><title>Node9&#45;&gt;Node23</title>
<path fill="none" stroke="midnightblue" d="M957.671,-364.558C971.957,-373.915 995.399,-387.536 1018,-393 1079.46,-407.858 1152.92,-393.34 1196.94,-381.306"/>
<polygon fill="midnightblue" stroke="midnightblue" points="1198.01,-384.643 1206.68,-378.554 1196.1,-377.907 1198.01,-384.643"/>
</g>
<!-- Node24 -->
<g id="node24" class="node"><title>Node24</title>
<g id="a_node24"><a xlink:href="stm__fraser_8c.html#ad6e1404788ef0e710c991c3e00fd5c39" target="_top" xlink:title="abort_stm_tx">
<polygon fill="none" stroke="black" points="1042,-288.5 1042,-307.5 1116,-307.5 1116,-288.5 1042,-288.5"/>
<text text-anchor="middle" x="1079" y="-295.5" font-family="Helvetica,sans-Serif" font-size="10.00">abort_stm_tx</text>
</a>
</g>
</g>
<!-- Node9&#45;&gt;Node24 -->
<g id="edge27" class="edge"><title>Node9&#45;&gt;Node24</title>
<path fill="none" stroke="midnightblue" d="M960.665,-345.419C975.419,-337.186 997.701,-325.357 1018,-317 1023.37,-314.788 1029.1,-312.676 1034.81,-310.716"/>
<polygon fill="midnightblue" stroke="midnightblue" points="1035.92,-314.034 1044.32,-307.573 1033.73,-307.387 1035.92,-314.034"/>
</g>
<!-- Node13 -->
<g id="node13" class="node"><title>Node13</title>
<g id="a_node13"><a xlink:href="stm__fraser_8c.html#a3baf54f8c2c6bdb79109865e5500cbd9" target="_top" xlink:title="rc_up_descriptor">
<polygon fill="none" stroke="black" points="1343.5,-321.5 1343.5,-340.5 1432.5,-340.5 1432.5,-321.5 1343.5,-321.5"/>
<text text-anchor="middle" x="1388" y="-328.5" font-family="Helvetica,sans-Serif" font-size="10.00">rc_up_descriptor</text>
</a>
</g>
</g>
<!-- Node12&#45;&gt;Node13 -->
<g id="edge12" class="edge"><title>Node12&#45;&gt;Node13</title>
<path fill="none" stroke="midnightblue" d="M1113.05,-364.389C1131.44,-359.384 1154.83,-353.578 1176,-350 1228.94,-341.055 1290.1,-336.134 1332.9,-333.556"/>
<polygon fill="midnightblue" stroke="midnightblue" points="1333.32,-337.037 1343.1,-332.965 1332.92,-330.049 1333.32,-337.037"/>
</g>
<!-- Node15 -->
<g id="node15" class="node"><title>Node15</title>
<g id="a_node15"><a xlink:href="stm__fraser_8c.html#ad41e28910c7dbe8cfd98c9e0c168c9dc" target="_top" xlink:title="rc_down_descriptor">
<polygon fill="none" stroke="black" points="1337.5,-397.5 1337.5,-416.5 1438.5,-416.5 1438.5,-397.5 1337.5,-397.5"/>
<text text-anchor="middle" x="1388" y="-404.5" font-family="Helvetica,sans-Serif" font-size="10.00">rc_down_descriptor</text>
</a>
</g>
</g>
<!-- Node12&#45;&gt;Node15 -->
<g id="edge14" class="edge"><title>Node12&#45;&gt;Node15</title>
<path fill="none" stroke="midnightblue" d="M1117.78,-380C1135.44,-382.678 1156.76,-385.733 1176,-388 1226.95,-394.005 1285.03,-399.107 1327.34,-402.508"/>
<polygon fill="midnightblue" stroke="midnightblue" points="1327.22,-406.009 1337.47,-403.314 1327.78,-399.031 1327.22,-406.009"/>
</g>
<!-- Node12&#45;&gt;Node23 -->
<g id="edge23" class="edge"><title>Node12&#45;&gt;Node23</title>
<path fill="none" stroke="midnightblue" d="M1117.76,-372.79C1137.85,-372.146 1162.83,-371.345 1184.65,-370.646"/>
<polygon fill="midnightblue" stroke="midnightblue" points="1184.87,-374.141 1194.75,-370.322 1184.64,-367.144 1184.87,-374.141"/>
</g>
<!-- Node14 -->
<g id="node14" class="node"><title>Node14</title>
<g id="a_node14"><a xlink:href="stm__fraser_8c.html#a1a59f05201730ec9ba9a348070073e57" target="_top" xlink:title="rc_delta_descriptor">
<polygon fill="none" stroke="black" points="1478.5,-321.5 1478.5,-340.5 1577.5,-340.5 1577.5,-321.5 1478.5,-321.5"/>
<text text-anchor="middle" x="1528" y="-328.5" font-family="Helvetica,sans-Serif" font-size="10.00">rc_delta_descriptor</text>
</a>
</g>
</g>
<!-- Node13&#45;&gt;Node14 -->
<g id="edge13" class="edge"><title>Node13&#45;&gt;Node14</title>
<path fill="none" stroke="midnightblue" d="M1432.66,-331C1443.9,-331 1456.18,-331 1468.05,-331"/>
<polygon fill="midnightblue" stroke="midnightblue" points="1468.35,-334.5 1478.35,-331 1468.35,-327.5 1468.35,-334.5"/>
</g>
<!-- Node16 -->
<g id="node16" class="node"><title>Node16</title>
<g id="a_node16"><a xlink:href="stm__fraser_8c.html#afd1a951db8c0f79e6bf20624e7dca338" target="_top" xlink:title="release_descriptor">
<polygon fill="none" stroke="black" points="1480,-378.5 1480,-397.5 1576,-397.5 1576,-378.5 1480,-378.5"/>
<text text-anchor="middle" x="1528" y="-385.5" font-family="Helvetica,sans-Serif" font-size="10.00">release_descriptor</text>
</a>
</g>
</g>
<!-- Node15&#45;&gt;Node16 -->
<g id="edge15" class="edge"><title>Node15&#45;&gt;Node16</title>
<path fill="none" stroke="midnightblue" d="M1438.82,-400.141C1448.78,-398.769 1459.32,-397.318 1469.51,-395.915"/>
<polygon fill="midnightblue" stroke="midnightblue" points="1470.13,-399.363 1479.56,-394.532 1469.17,-392.429 1470.13,-399.363"/>
</g>
<!-- Node17 -->
<g id="node17" class="node"><title>Node17</title>
<g id="a_node17"><a xlink:href="gc_8c.html#a80f4a5c119aa70ab0452a73dfac21bbd" target="_top" xlink:title="fr_gc_free">
<polygon fill="none" stroke="black" points="1760,-340.5 1760,-359.5 1820,-359.5 1820,-340.5 1760,-340.5"/>
<text text-anchor="middle" x="1790" y="-347.5" font-family="Helvetica,sans-Serif" font-size="10.00">fr_gc_free</text>
</a>
</g>
</g>
<!-- Node16&#45;&gt;Node17 -->
<g id="edge16" class="edge"><title>Node16&#45;&gt;Node17</title>
<path fill="none" stroke="midnightblue" d="M1576.11,-384.761C1612.78,-381.829 1664.85,-376.765 1710,-369 1723.16,-366.736 1737.4,-363.548 1750.11,-360.428"/>
<polygon fill="midnightblue" stroke="midnightblue" points="1751.08,-363.793 1759.93,-357.96 1749.38,-357.004 1751.08,-363.793"/>
</g>
<!-- Node22 -->
<g id="node22" class="node"><title>Node22</title>
<g id="a_node22"><a xlink:href="gc_8c.html#a1e1a80c2d04496b5b70bd86b59510355" target="_top" xlink:title="fr_gc_unsafe_free">
<polygon fill="none" stroke="black" points="1614.5,-340.5 1614.5,-359.5 1709.5,-359.5 1709.5,-340.5 1614.5,-340.5"/>
<text text-anchor="middle" x="1662" y="-347.5" font-family="Helvetica,sans-Serif" font-size="10.00">fr_gc_unsafe_free</text>
</a>
</g>
</g>
<!-- Node16&#45;&gt;Node22 -->
<g id="edge21" class="edge"><title>Node16&#45;&gt;Node22</title>
<path fill="none" stroke="midnightblue" d="M1562.31,-378.411C1579.19,-373.551 1599.89,-367.591 1617.97,-362.387"/>
<polygon fill="midnightblue" stroke="midnightblue" points="1619.06,-365.716 1627.7,-359.586 1617.12,-358.989 1619.06,-365.716"/>
</g>
<!-- Node18 -->
<g id="node18" class="node"><title>Node18</title>
<g id="a_node18"><a xlink:href="gc_8c.html#afb494e950c8c6b5661974748ae89b61e" target="_top" xlink:title="chunk_from_cache">
<polygon fill="none" stroke="black" points="1870.5,-284.5 1870.5,-303.5 1969.5,-303.5 1969.5,-284.5 1870.5,-284.5"/>
<text text-anchor="middle" x="1920" y="-291.5" font-family="Helvetica,sans-Serif" font-size="10.00">chunk_from_cache</text>
</a>
</g>
</g>
<!-- Node17&#45;&gt;Node18 -->
<g id="edge17" class="edge"><title>Node17&#45;&gt;Node18</title>
<path fill="none" stroke="midnightblue" d="M1813,-340.373C1833.64,-331.343 1864.72,-317.749 1887.89,-307.611"/>
<polygon fill="midnightblue" stroke="midnightblue" points="1889.52,-310.716 1897.28,-303.501 1886.72,-304.303 1889.52,-310.716"/>
</g>
<!-- Node19 -->
<g id="node19" class="node"><title>Node19</title>
<g id="a_node19"><a xlink:href="gc_8c.html#a2a6f41199ed37925df4cc7b9909dc0ed" target="_top" xlink:title="get_empty_chunks">
<polygon fill="none" stroke="black" points="2006.5,-190.5 2006.5,-209.5 2105.5,-209.5 2105.5,-190.5 2006.5,-190.5"/>
<text text-anchor="middle" x="2056" y="-197.5" font-family="Helvetica,sans-Serif" font-size="10.00">get_empty_chunks</text>
</a>
</g>
</g>
<!-- Node18&#45;&gt;Node19 -->
<g id="edge18" class="edge"><title>Node18&#45;&gt;Node19</title>
<path fill="none" stroke="midnightblue" d="M1934.84,-284.294C1958.13,-267.956 2005.34,-234.837 2033.15,-215.33"/>
<polygon fill="midnightblue" stroke="midnightblue" points="2035.26,-218.121 2041.44,-209.513 2031.24,-212.39 2035.26,-218.121"/>
</g>
<!-- Node20 -->
<g id="node20" class="node"><title>Node20</title>
<g id="a_node20"><a xlink:href="gc_8c.html#ac360b80b93ad00f0fba18a1993e1d6a0" target="_top" xlink:title="add_chunks_to_list">
<polygon fill="none" stroke="black" points="2142.5,-152.5 2142.5,-171.5 2243.5,-171.5 2243.5,-152.5 2142.5,-152.5"/>
<text text-anchor="middle" x="2193" y="-159.5" font-family="Helvetica,sans-Serif" font-size="10.00">add_chunks_to_list</text>
</a>
</g>
</g>
<!-- Node19&#45;&gt;Node20 -->
<g id="edge19" class="edge"><title>Node19&#45;&gt;Node20</title>
<path fill="none" stroke="midnightblue" d="M2091.07,-190.411C2108.41,-185.528 2129.7,-179.536 2148.25,-174.315"/>
<polygon fill="midnightblue" stroke="midnightblue" points="2149.27,-177.665 2157.94,-171.586 2147.37,-170.926 2149.27,-177.665"/>
</g>
<!-- Node21 -->
<g id="node21" class="node"><title>Node21</title>
<g id="a_node21"><a xlink:href="gc_8c.html#ade31863985bdaa481ade142bdfb6d99f" target="_top" xlink:title="alloc_more_chunks">
<polygon fill="none" stroke="black" points="2142.5,-190.5 2142.5,-209.5 2243.5,-209.5 2243.5,-190.5 2142.5,-190.5"/>
<text text-anchor="middle" x="2193" y="-197.5" font-family="Helvetica,sans-Serif" font-size="10.00">alloc_more_chunks</text>
</a>
</g>
</g>
<!-- Node19&#45;&gt;Node21 -->
<g id="edge20" class="edge"><title>Node19&#45;&gt;Node21</title>
<path fill="none" stroke="midnightblue" d="M2105.74,-200C2114.31,-200 2123.33,-200 2132.17,-200"/>
<polygon fill="midnightblue" stroke="midnightblue" points="2132.43,-203.5 2142.43,-200 2132.43,-196.5 2132.43,-203.5"/>
</g>
<!-- Node22&#45;&gt;Node17 -->
<g id="edge22" class="edge"><title>Node22&#45;&gt;Node17</title>
<path fill="none" stroke="midnightblue" d="M1709.56,-350C1722.7,-350 1736.87,-350 1749.56,-350"/>
<polygon fill="midnightblue" stroke="midnightblue" points="1749.81,-353.5 1759.81,-350 1749.81,-346.5 1749.81,-353.5"/>
</g>
<!-- Node23&#45;&gt;Node10 -->
<g id="edge26" class="edge"><title>Node23&#45;&gt;Node10</title>
<path fill="none" stroke="midnightblue" d="M1279.11,-369C1292.83,-369 1308.45,-369 1323.46,-369"/>
<polygon fill="midnightblue" stroke="midnightblue" points="1323.73,-372.5 1333.73,-369 1323.73,-365.5 1323.73,-372.5"/>
</g>
<!-- Node23&#45;&gt;Node13 -->
<g id="edge24" class="edge"><title>Node23&#45;&gt;Node13</title>
<path fill="none" stroke="midnightblue" d="M1275.6,-359.411C1295.08,-354.442 1319.07,-348.323 1339.8,-343.039"/>
<polygon fill="midnightblue" stroke="midnightblue" points="1340.85,-346.383 1349.67,-340.52 1339.12,-339.6 1340.85,-346.383"/>
</g>
<!-- Node23&#45;&gt;Node15 -->
<g id="edge25" class="edge"><title>Node23&#45;&gt;Node15</title>
<path fill="none" stroke="midnightblue" d="M1275.6,-378.589C1295.08,-383.558 1319.07,-389.677 1339.8,-394.961"/>
<polygon fill="midnightblue" stroke="midnightblue" points="1339.12,-398.4 1349.67,-397.48 1340.85,-391.617 1339.12,-398.4"/>
</g>
<!-- Node25&#45;&gt;Node8 -->
<g id="edge31" class="edge"><title>Node25&#45;&gt;Node8</title>
<path fill="none" stroke="midnightblue" d="M691.836,-163.809C715.126,-180.321 762.339,-213.792 790.147,-233.507"/>
<polygon fill="midnightblue" stroke="midnightblue" points="788.257,-236.458 798.439,-239.386 792.306,-230.747 788.257,-236.458"/>
</g>
<!-- Node26 -->
<g id="node26" class="node"><title>Node26</title>
<g id="a_node26"><a xlink:href="avltree_8c.html#a645f38498ce0006cd109919b893e21f4" target="_top" xlink:title="new_node">
<polygon fill="none" stroke="black" points="782.5,-38.5 782.5,-57.5 843.5,-57.5 843.5,-38.5 782.5,-38.5"/>
<text text-anchor="middle" x="813" y="-45.5" font-family="Helvetica,sans-Serif" font-size="10.00">new_node</text>
</a>
</g>
</g>
<!-- Node25&#45;&gt;Node26 -->
<g id="edge30" class="edge"><title>Node25&#45;&gt;Node26</title>
<path fill="none" stroke="midnightblue" d="M707.512,-144.412C712.701,-141.88 717.782,-138.772 722,-135 746.039,-113.503 734.075,-93.6243 758,-72 762.437,-67.9896 767.653,-64.5612 773.064,-61.6576"/>
<polygon fill="midnightblue" stroke="midnightblue" points="774.745,-64.7336 782.251,-57.2565 771.72,-58.4207 774.745,-64.7336"/>
</g>
<!-- Node27 -->
<g id="node27" class="node"><title>Node27</title>
<g id="a_node27"><a xlink:href="stm_8h.html#a7f41614dded09613f4ccd7578ef188ba" target="_top" xlink:title="new_stm_blk">
<polygon fill="none" stroke="black" points="1491,-76.5 1491,-95.5 1565,-95.5 1565,-76.5 1491,-76.5"/>
<text text-anchor="middle" x="1528" y="-83.5" font-family="Helvetica,sans-Serif" font-size="10.00">new_stm_blk</text>
</a>
</g>
</g>
<!-- Node25&#45;&gt;Node27 -->
<g id="edge32" class="edge"><title>Node25&#45;&gt;Node27</title>
<path fill="none" stroke="midnightblue" d="M699.761,-144.401C744.302,-125.657 849.471,-86 942,-86 942,-86 942,-86 1238,-86 1323.73,-86 1423.76,-86 1480.82,-86"/>
<polygon fill="midnightblue" stroke="midnightblue" points="1480.96,-89.5001 1490.96,-86 1480.96,-82.5001 1480.96,-89.5001"/>
</g>
<!-- Node31 -->
<g id="node31" class="node"><title>Node31</title>
<g id="a_node31"><a xlink:href="stm_8h.html#a2c77806bb0511fb17494d226b5ea20d8" target="_top" xlink:title="init_stm_blk">
<polygon fill="none" stroke="black" points="778.5,-0.5 778.5,-19.5 847.5,-19.5 847.5,-0.5 778.5,-0.5"/>
<text text-anchor="middle" x="813" y="-7.5" font-family="Helvetica,sans-Serif" font-size="10.00">init_stm_blk</text>
</a>
</g>
</g>
<!-- Node25&#45;&gt;Node31 -->
<g id="edge39" class="edge"><title>Node25&#45;&gt;Node31</title>
<path fill="none" stroke="midnightblue" d="M709.48,-144.335C714.117,-141.86 718.501,-138.791 722,-135 755.742,-98.436 723.011,-64.373 758,-29 761.232,-25.7321 765.059,-23.0248 769.161,-20.7822"/>
<polygon fill="midnightblue" stroke="midnightblue" points="770.785,-23.8891 778.453,-16.578 767.899,-17.5116 770.785,-23.8891"/>
</g>
<!-- Node32 -->
<g id="node32" class="node"><title>Node32</title>
<g id="a_node32"><a xlink:href="stmskip_8cc.html#ab6919257456cff4d47684cdfd3bc5a3c" target="_top" xlink:title="get_level">
<polygon fill="none" stroke="black" points="785,-163.5 785,-182.5 841,-182.5 841,-163.5 785,-163.5"/>
<text text-anchor="middle" x="813" y="-170.5" font-family="Helvetica,sans-Serif" font-size="10.00">get_level</text>
</a>
</g>
</g>
<!-- Node25&#45;&gt;Node32 -->
<g id="edge40" class="edge"><title>Node25&#45;&gt;Node32</title>
<path fill="none" stroke="midnightblue" d="M720.031,-159.96C737.574,-162.447 757.782,-165.312 774.78,-167.722"/>
<polygon fill="midnightblue" stroke="midnightblue" points="774.503,-171.218 784.896,-169.157 775.486,-164.288 774.503,-171.218"/>
</g>
<!-- Node33 -->
<g id="node33" class="node"><title>Node33</title>
<g id="a_node33"><a xlink:href="stm_8h.html#a00de1ad150378181157510e2e5982f75" target="_top" xlink:title="write_stm_blk">
<polygon fill="none" stroke="black" points="904.5,-212.5 904.5,-231.5 981.5,-231.5 981.5,-212.5 904.5,-212.5"/>
<text text-anchor="middle" x="943" y="-219.5" font-family="Helvetica,sans-Serif" font-size="10.00">write_stm_blk</text>
</a>
</g>
</g>
<!-- Node25&#45;&gt;Node33 -->
<g id="edge41" class="edge"><title>Node25&#45;&gt;Node33</title>
<path fill="none" stroke="midnightblue" d="M720.377,-145.447C759.988,-139.403 820.054,-135.316 868,-154 893.65,-163.996 915.793,-187.501 929.007,-204.066"/>
<polygon fill="midnightblue" stroke="midnightblue" points="926.543,-206.605 935.396,-212.425 932.104,-202.354 926.543,-206.605"/>
</g>
<!-- Node28 -->
<g id="node28" class="node"><title>Node28</title>
<g id="a_node28"><a xlink:href="gc_8c.html#a5c5981457deeeefd60df569f6265f59c" target="_top" xlink:title="fr_gc_alloc">
<polygon fill="none" stroke="black" points="1630,-114.5 1630,-133.5 1694,-133.5 1694,-114.5 1630,-114.5"/>
<text text-anchor="middle" x="1662" y="-121.5" font-family="Helvetica,sans-Serif" font-size="10.00">fr_gc_alloc</text>
</a>
</g>
</g>
<!-- Node27&#45;&gt;Node28 -->
<g id="edge33" class="edge"><title>Node27&#45;&gt;Node28</title>
<path fill="none" stroke="midnightblue" d="M1562.31,-95.589C1579.92,-100.658 1601.68,-106.923 1620.29,-112.279"/>
<polygon fill="midnightblue" stroke="midnightblue" points="1619.39,-115.664 1629.97,-115.067 1621.33,-108.937 1619.39,-115.664"/>
</g>
<!-- Node28&#45;&gt;Node20 -->
<g id="edge34" class="edge"><title>Node28&#45;&gt;Node20</title>
<path fill="none" stroke="midnightblue" d="M1694.12,-126.235C1779.7,-132.383 2019.72,-149.624 2132.3,-157.711"/>
<polygon fill="midnightblue" stroke="midnightblue" points="2132.23,-161.216 2142.46,-158.441 2132.73,-154.234 2132.23,-161.216"/>
</g>
<!-- Node29 -->
<g id="node29" class="node"><title>Node29</title>
<g id="a_node29"><a xlink:href="gc_8c.html#a6dffa65320ddab40d01f198433b3aeb6" target="_top" xlink:title="get_alloc_chunk">
<polygon fill="none" stroke="black" points="1746.5,-152.5 1746.5,-171.5 1833.5,-171.5 1833.5,-152.5 1746.5,-152.5"/>
<text text-anchor="middle" x="1790" y="-159.5" font-family="Helvetica,sans-Serif" font-size="10.00">get_alloc_chunk</text>
</a>
</g>
</g>
<!-- Node28&#45;&gt;Node29 -->
<g id="edge35" class="edge"><title>Node28&#45;&gt;Node29</title>
<path fill="none" stroke="midnightblue" d="M1694.15,-133.393C1710.23,-138.244 1730.07,-144.227 1747.44,-149.466"/>
<polygon fill="midnightblue" stroke="midnightblue" points="1746.75,-152.914 1757.34,-152.451 1748.77,-146.212 1746.75,-152.914"/>
</g>
<!-- Node29&#45;&gt;Node20 -->
<g id="edge38" class="edge"><title>Node29&#45;&gt;Node20</title>
<path fill="none" stroke="midnightblue" d="M1833.53,-162C1905.25,-162 2050.39,-162 2132.28,-162"/>
<polygon fill="midnightblue" stroke="midnightblue" points="2132.43,-165.5 2142.43,-162 2132.43,-158.5 2132.43,-165.5"/>
</g>
<!-- Node30 -->
<g id="node30" class="node"><title>Node30</title>
<g id="a_node30"><a xlink:href="gc_8c.html#ae47e099483bed50da4e41b906c300b99" target="_top" xlink:title="get_filled_chunks">
<polygon fill="none" stroke="black" points="1874,-190.5 1874,-209.5 1966,-209.5 1966,-190.5 1874,-190.5"/>
<text text-anchor="middle" x="1920" y="-197.5" font-family="Helvetica,sans-Serif" font-size="10.00">get_filled_chunks</text>
</a>
</g>
</g>
<!-- Node29&#45;&gt;Node30 -->
<g id="edge36" class="edge"><title>Node29&#45;&gt;Node30</title>
<path fill="none" stroke="midnightblue" d="M1823.3,-171.589C1839.52,-176.404 1859.38,-182.299 1876.79,-187.468"/>
<polygon fill="midnightblue" stroke="midnightblue" points="1876.13,-190.923 1886.71,-190.414 1878.12,-184.213 1876.13,-190.923"/>
</g>
<!-- Node30&#45;&gt;Node19 -->
<g id="edge37" class="edge"><title>Node30&#45;&gt;Node19</title>
<path fill="none" stroke="midnightblue" d="M1966.37,-200C1975.95,-200 1986.19,-200 1996.18,-200"/>
<polygon fill="midnightblue" stroke="midnightblue" points="1996.47,-203.5 2006.47,-200 1996.47,-196.5 1996.47,-203.5"/>
</g>
<!-- Node33&#45;&gt;Node10 -->
<g id="edge42" class="edge"><title>Node33&#45;&gt;Node10</title>
<path fill="none" stroke="midnightblue" d="M981.786,-217.945C1022.53,-215.123 1088.48,-215.127 1140,-237 1159.7,-245.366 1158.33,-256.909 1176,-269 1241.12,-313.569 1261.6,-318.619 1334,-350 1338.7,-352.037 1343.7,-354.036 1348.67,-355.928"/>
<polygon fill="midnightblue" stroke="midnightblue" points="1347.54,-359.239 1358.13,-359.414 1349.96,-352.671 1347.54,-359.239"/>
</g>
<!-- Node33&#45;&gt;Node11 -->
<g id="edge43" class="edge"><title>Node33&#45;&gt;Node11</title>
<path fill="none" stroke="midnightblue" d="M948.902,-231.645C959.116,-250.784 984.535,-293.718 1018,-317 1020.87,-318.995 1023.95,-320.788 1027.16,-322.398"/>
<polygon fill="midnightblue" stroke="midnightblue" points="1025.87,-325.654 1036.43,-326.469 1028.68,-319.244 1025.87,-325.654"/>
</g>
<!-- Node33&#45;&gt;Node12 -->
<g id="edge44" class="edge"><title>Node33&#45;&gt;Node12</title>
<path fill="none" stroke="midnightblue" d="M946.645,-231.653C953.832,-256.061 976.046,-320.735 1018,-355 1021.82,-358.119 1026.16,-360.729 1030.71,-362.912"/>
<polygon fill="midnightblue" stroke="midnightblue" points="1029.68,-366.273 1040.26,-366.82 1032.33,-359.795 1029.68,-366.273"/>
</g>
<!-- Node33&#45;&gt;Node23 -->
<g id="edge51" class="edge"><title>Node33&#45;&gt;Node23</title>
<path fill="none" stroke="midnightblue" d="M981.522,-230.696C1030.43,-242.407 1112.91,-263.557 1140,-279 1173.52,-298.106 1204.59,-331.169 1221.86,-351.461"/>
<polygon fill="midnightblue" stroke="midnightblue" points="1219.29,-353.851 1228.38,-359.298 1224.67,-349.373 1219.29,-353.851"/>
</g>
<!-- Node33&#45;&gt;Node24 -->
<g id="edge50" class="edge"><title>Node33&#45;&gt;Node24</title>
<path fill="none" stroke="midnightblue" d="M955.999,-231.755C970.185,-242.966 994.806,-261.434 1018,-274 1025.14,-277.871 1033.05,-281.472 1040.71,-284.647"/>
<polygon fill="midnightblue" stroke="midnightblue" points="1039.62,-287.982 1050.21,-288.428 1042.21,-281.478 1039.62,-287.982"/>
</g>
<!-- Node33&#45;&gt;Node28 -->
<g id="edge45" class="edge"><title>Node33&#45;&gt;Node28</title>
<path fill="none" stroke="midnightblue" d="M949.646,-212.342C960.415,-194.945 985.719,-158.693 1018,-143 1105.47,-100.478 1138.74,-124 1236,-124 1236,-124 1236,-124 1389,-124 1470.9,-124 1566.67,-124 1619.93,-124"/>
<polygon fill="midnightblue" stroke="midnightblue" points="1620,-127.5 1630,-124 1620,-120.5 1620,-127.5"/>
</g>
<!-- Node34 -->
<g id="node34" class="node"><title>Node34</title>
<g id="a_node34"><a xlink:href="namespaceanonymous__namespace_02libitm-5_813_0014_8cpp_03.html#a8b7be7cf3afef27c0623b844ce9116d8" target="_top" xlink:title="anonymous_namespace\l\{libitm&#45;5::13,14::cpp\}\l::memcpy">
<polygon fill="none" stroke="black" points="1018,-152.5 1018,-193.5 1140,-193.5 1140,-152.5 1018,-152.5"/>
<text text-anchor="start" x="1026" y="-181.5" font-family="Helvetica,sans-Serif" font-size="10.00">anonymous_namespace</text>
<text text-anchor="start" x="1026" y="-170.5" font-family="Helvetica,sans-Serif" font-size="10.00">{libitm&#45;5::13,14::cpp}</text>
<text text-anchor="middle" x="1079" y="-159.5" font-family="Helvetica,sans-Serif" font-size="10.00">::memcpy</text>
</a>
</g>
</g>
<!-- Node33&#45;&gt;Node34 -->
<g id="edge46" class="edge"><title>Node33&#45;&gt;Node34</title>
<path fill="none" stroke="midnightblue" d="M970.155,-212.436C982.213,-208.027 997.126,-202.573 1011.97,-197.143"/>
<polygon fill="midnightblue" stroke="midnightblue" points="1013.5,-200.311 1021.69,-193.59 1011.1,-193.737 1013.5,-200.311"/>
</g>
<!-- Node35 -->
<g id="node35" class="node"><title>Node35</title>
<g id="a_node35"><a xlink:href="namespaceanonymous__namespace_02oreceager_8cpp_03.html#a7a88c7a7453bbfaca53eeac03b80a5d6" target="_top" xlink:title="anonymous_namespace\l\{oreceager::cpp\}::read">
<polygon fill="none" stroke="black" points="1176,-191 1176,-221 1298,-221 1298,-191 1176,-191"/>
<text text-anchor="start" x="1184" y="-209" font-family="Helvetica,sans-Serif" font-size="10.00">anonymous_namespace</text>
<text text-anchor="middle" x="1237" y="-198" font-family="Helvetica,sans-Serif" font-size="10.00">{oreceager::cpp}::read</text>
</a>
</g>
</g>
<!-- Node34&#45;&gt;Node35 -->
<g id="edge47" class="edge"><title>Node34&#45;&gt;Node35</title>
<path fill="none" stroke="midnightblue" d="M1140.31,-185.759C1148.69,-187.532 1157.36,-189.365 1165.9,-191.172"/>
<polygon fill="midnightblue" stroke="midnightblue" points="1165.34,-194.63 1175.85,-193.275 1166.79,-187.781 1165.34,-194.63"/>
</g>
<!-- Node36 -->
<g id="node36" class="node"><title>Node36</title>
<g id="a_node36"><a xlink:href="namespaceitm2stm.html#a334b9615cac957b9ce7a4743beaaaf53" target="_top" xlink:title="itm2stm::add_bytes">
<polygon fill="none" stroke="black" points="1185.5,-152.5 1185.5,-171.5 1288.5,-171.5 1288.5,-152.5 1185.5,-152.5"/>
<text text-anchor="middle" x="1237" y="-159.5" font-family="Helvetica,sans-Serif" font-size="10.00">itm2stm::add_bytes</text>
</a>
</g>
</g>
<!-- Node34&#45;&gt;Node36 -->
<g id="edge48" class="edge"><title>Node34&#45;&gt;Node36</title>
<path fill="none" stroke="midnightblue" d="M1140.31,-168.747C1151.85,-167.933 1163.94,-167.081 1175.48,-166.267"/>
<polygon fill="midnightblue" stroke="midnightblue" points="1175.73,-169.758 1185.46,-165.564 1175.24,-162.776 1175.73,-169.758"/>
</g>
<!-- Node37 -->
<g id="node37" class="node"><title>Node37</title>
<g id="a_node37"><a xlink:href="namespaceitm2stm.html#aa9908b113027ae21130750939980ee0b" target="_top" xlink:title="itm2stm::offset_of">
<polygon fill="none" stroke="black" points="1189,-240.5 1189,-259.5 1285,-259.5 1285,-240.5 1189,-240.5"/>
<text text-anchor="middle" x="1237" y="-247.5" font-family="Helvetica,sans-Serif" font-size="10.00">itm2stm::offset_of</text>
</a>
</g>
</g>
<!-- Node34&#45;&gt;Node37 -->
<g id="edge49" class="edge"><title>Node34&#45;&gt;Node37</title>
<path fill="none" stroke="midnightblue" d="M1115.6,-193.608C1123.65,-198.308 1132.13,-203.301 1140,-208 1156.1,-217.613 1159,-222.096 1176,-230 1181.42,-232.52 1187.25,-234.874 1193.07,-237.016"/>
<polygon fill="midnightblue" stroke="midnightblue" points="1192.19,-240.415 1202.78,-240.417 1194.5,-233.808 1192.19,-240.415"/>
</g>
<!-- Node38&#45;&gt;Node8 -->
<g id="edge53" class="edge"><title>Node38&#45;&gt;Node8</title>
<path fill="none" stroke="midnightblue" d="M711.814,-220.589C729.033,-225.472 750.164,-231.464 768.573,-236.685"/>
<polygon fill="midnightblue" stroke="midnightblue" points="767.621,-240.053 778.197,-239.414 769.531,-233.319 767.621,-240.053"/>
</g>
<!-- Node38&#45;&gt;Node33 -->
<g id="edge54" class="edge"><title>Node38&#45;&gt;Node33</title>
<path fill="none" stroke="midnightblue" d="M721.594,-212.816C769.175,-214.799 845.119,-217.963 894.271,-220.011"/>
<polygon fill="midnightblue" stroke="midnightblue" points="894.196,-223.511 904.333,-220.431 894.487,-216.517 894.196,-223.511"/>
</g>
<!-- Node41&#45;&gt;Node3 -->
<g id="edge58" class="edge"><title>Node41&#45;&gt;Node3</title>
<path fill="none" stroke="midnightblue" d="M317.63,-179.327C327.823,-181.189 339.022,-183.235 349.392,-185.129"/>
<polygon fill="midnightblue" stroke="midnightblue" points="348.952,-188.607 359.418,-186.961 350.21,-181.721 348.952,-188.607"/>
</g>
<!-- Node42 -->
<g id="node42" class="node"><title>Node42</title>
<g id="a_node42"><a xlink:href="list_8c.html#af5a09f2dc4e901d1c8052e282d4d87d3" target="_top" xlink:title="list_remove">
<polygon fill="none" stroke="black" points="354.5,-144.5 354.5,-163.5 421.5,-163.5 421.5,-144.5 354.5,-144.5"/>
<text text-anchor="middle" x="388" y="-151.5" font-family="Helvetica,sans-Serif" font-size="10.00">list_remove</text>
</a>
</g>
</g>
<!-- Node41&#45;&gt;Node42 -->
<g id="edge59" class="edge"><title>Node41&#45;&gt;Node42</title>
<path fill="none" stroke="midnightblue" d="M317.63,-166.673C326.217,-165.105 335.517,-163.406 344.434,-161.776"/>
<polygon fill="midnightblue" stroke="midnightblue" points="345.073,-165.218 354.281,-159.977 343.815,-158.332 345.073,-165.218"/>
</g>
<!-- Node42&#45;&gt;Node5 -->
<g id="edge60" class="edge"><title>Node42&#45;&gt;Node5</title>
<path fill="none" stroke="midnightblue" d="M415.244,-163.589C427.93,-168.224 443.353,-173.86 457.107,-178.885"/>
<polygon fill="midnightblue" stroke="midnightblue" points="456.171,-182.269 466.765,-182.414 458.573,-175.695 456.171,-182.269"/>
</g>
<!-- Node43 -->
<g id="node43" class="node"><title>Node43</title>
<g id="a_node43"><a xlink:href="list_8c.html#ac485202058cce61a3db7ad23eea4c658" target="_top" xlink:title="freeNode">
<polygon fill="none" stroke="black" points="466,-144.5 466,-163.5 522,-163.5 522,-144.5 466,-144.5"/>
<text text-anchor="middle" x="494" y="-151.5" font-family="Helvetica,sans-Serif" font-size="10.00">freeNode</text>
</a>
</g>
</g>
<!-- Node42&#45;&gt;Node43 -->
<g id="edge61" class="edge"><title>Node42&#45;&gt;Node43</title>
<path fill="none" stroke="midnightblue" d="M421.621,-154C432.365,-154 444.397,-154 455.476,-154"/>
<polygon fill="midnightblue" stroke="midnightblue" points="455.734,-157.5 465.734,-154 455.734,-150.5 455.734,-157.5"/>
</g>
<!-- Node44&#45;&gt;Node2 -->
<g id="edge64" class="edge"><title>Node44&#45;&gt;Node2</title>
<path fill="none" stroke="midnightblue" d="M209.708,-198.221C219.58,-199.991 230.417,-201.933 240.596,-203.758"/>
<polygon fill="midnightblue" stroke="midnightblue" points="240.035,-207.213 250.496,-205.532 241.27,-200.323 240.035,-207.213"/>
</g>
<!-- Node44&#45;&gt;Node41 -->
<g id="edge63" class="edge"><title>Node44&#45;&gt;Node41</title>
<path fill="none" stroke="midnightblue" d="M209.708,-185.779C218.219,-184.253 227.447,-182.599 236.352,-181.003"/>
<polygon fill="midnightblue" stroke="midnightblue" points="236.988,-184.445 246.214,-179.235 235.753,-177.555 236.988,-184.445"/>
</g>
</g>
</svg>
        <g id="navigator" transform="translate(0 0)" fill="#404254">
                <rect fill="#f2f5e9" fill-opacity="0.5" stroke="#606060" stroke-width=".5" x="0" y="0" width="60" height="60"/>
                <use id="zoomplus" xlink:href="#zoomPlus" x="17" y="9" onmousedown="handleZoom(evt,'in')"/>
                <use id="zoomminus" xlink:href="#zoomMin" x="42" y="9" onmousedown="handleZoom(evt,'out')"/>
                <use id="reset" xlink:href="#resetDef" x="30" y="36" onmousedown="handleReset()"/>
                <g id="arrowUp" xlink:href="#dirArrow" transform="translate(30 24)" onmousedown="handlePan(0,-1)">
                  <use xlink:href="#rim" fill="#404040">
                        <set attributeName="fill" to="#808080" begin="arrowUp.mouseover" end="arrowUp.mouseout"/>
                  </use>
                  <path fill="none" stroke="white" stroke-width="1.5" d="M0,-3.0v7 M-2.5,-0.5L0,-3.0L2.5,-0.5"/>
                </g>
                <g id="arrowRight" xlink:href="#dirArrow" transform="rotate(90) translate(36 -43)" onmousedown="handlePan(1,0)">
                  <use xlink:href="#rim" fill="#404040">
                        <set attributeName="fill" to="#808080" begin="arrowRight.mouseover" end="arrowRight.mouseout"/>
                  </use>
                  <path fill="none" stroke="white" stroke-width="1.5" d="M0,-3.0v7 M-2.5,-0.5L0,-3.0L2.5,-0.5"/>
                </g>
                <g id="arrowDown" xlink:href="#dirArrow" transform="rotate(180) translate(-30 -48)" onmousedown="handlePan(0,1)">
                  <use xlink:href="#rim" fill="#404040">
                        <set attributeName="fill" to="#808080" begin="arrowDown.mouseover" end="arrowDown.mouseout"/>
                  </use>
                  <path fill="none" stroke="white" stroke-width="1.5" d="M0,-3.0v7 M-2.5,-0.5L0,-3.0L2.5,-0.5"/>
                </g>
                <g id="arrowLeft" xlink:href="#dirArrow" transform="rotate(270) translate(-36 17)" onmousedown="handlePan(-1,0)">
                  <use xlink:href="#rim" fill="#404040">
                        <set attributeName="fill" to="#808080" begin="arrowLeft.mouseover" end="arrowLeft.mouseout"/>
                  </use>
                  <path fill="none" stroke="white" stroke-width="1.5" d="M0,-3.0v7 M-2.5,-0.5L0,-3.0L2.5,-0.5"/>
                </g>
        </g>
        <svg viewBox="0 0 15 15" width="100%" height="30px" preserveAspectRatio="xMaxYMin meet">
         <g id="arrow_out" transform="scale(0.3 0.3)">
          <a xlink:href="net_8h_a7a2e0647373945c39b0efcdf78618993_cgraph_org.svg" target="_base">
           <rect id="button" ry="5" rx="5" y="6" x="6" height="38" width="38"
                fill="#f2f5e9" fill-opacity="0.5" stroke="#606060" stroke-width="1.0"/>
           <path id="arrow"
             d="M 11.500037,31.436501 C 11.940474,20.09759 22.043105,11.32322 32.158766,21.979434 L 37.068811,17.246167 C 37.068811,17.246167 37.088388,32 37.088388,32 L 22.160133,31.978069 C 22.160133,31.978069 26.997745,27.140456 26.997745,27.140456 C 18.528582,18.264221 13.291696,25.230495 11.500037,31.436501 z"
             style="fill:#404040;"/>
          </a>
         </g>
        </svg>
</svg>
