<?xml version="1.0" encoding="UTF-8" standalone="no"?>
<!DOCTYPE svg PUBLIC "-//W3C//DTD SVG 1.1//EN"
 "http://www.w3.org/Graphics/SVG/1.1/DTD/svg11.dtd">
<!-- Generated by graphviz version 2.36.0 (20140111.2315)
 -->
<!-- Title: net_free Pages: 1 -->
<svg width="464pt" height="142pt"
 viewBox="0.00 0.00 464.00 142.00" xmlns="http://www.w3.org/2000/svg" xmlns:xlink="http://www.w3.org/1999/xlink">
<g id="graph0" class="graph" transform="scale(1 1) rotate(0) translate(4 138)">
<title>net_free</title>
<!-- Node1 -->
<g id="node1" class="node"><title>Node1</title>
<polygon fill="#bfbfbf" stroke="black" points="0,-57.5 0,-76.5 52,-76.5 52,-57.5 0,-57.5"/>
<text text-anchor="middle" x="26" y="-64.5" font-family="Helvetica,sans-Serif" font-size="10.00">net_free</text>
</g>
<!-- Node2 -->
<g id="node2" class="node"><title>Node2</title>
<g id="a_node2"><a xlink:href="vector_8c.html#a158656a347e208114bcd945b91cfd87a" target="_top" xlink:title="vector_getSize">
<polygon fill="none" stroke="black" points="88,-114.5 88,-133.5 170,-133.5 170,-114.5 88,-114.5"/>
<text text-anchor="middle" x="129" y="-121.5" font-family="Helvetica,sans-Serif" font-size="10.00">vector_getSize</text>
</a>
</g>
</g>
<!-- Node1&#45;&gt;Node2 -->
<g id="edge1" class="edge"><title>Node1&#45;&gt;Node2</title>
<path fill="none" stroke="midnightblue" d="M41.2676,-76.5323C53.4579,-84.5193 71.5781,-96.0226 88,-105 91.0609,-106.673 94.2934,-108.35 97.5405,-109.977"/>
<polygon fill="midnightblue" stroke="midnightblue" points="96.0764,-113.157 106.6,-114.385 99.1388,-106.863 96.0764,-113.157"/>
</g>
<!-- Node3 -->
<g id="node3" class="node"><title>Node3</title>
<g id="a_node3"><a xlink:href="vector_8c.html#a043c4e94efce1c5a44095eb9388ba5e7" target="_top" xlink:title="vector_at">
<polygon fill="none" stroke="black" points="100.5,-76.5 100.5,-95.5 157.5,-95.5 157.5,-76.5 100.5,-76.5"/>
<text text-anchor="middle" x="129" y="-83.5" font-family="Helvetica,sans-Serif" font-size="10.00">vector_at</text>
</a>
</g>
</g>
<!-- Node1&#45;&gt;Node3 -->
<g id="edge2" class="edge"><title>Node1&#45;&gt;Node3</title>
<path fill="none" stroke="midnightblue" d="M52.226,-71.7455C63.752,-73.9137 77.6446,-76.5272 90.3693,-78.9209"/>
<polygon fill="midnightblue" stroke="midnightblue" points="89.7815,-82.3717 100.256,-80.7809 91.0757,-75.4924 89.7815,-82.3717"/>
</g>
<!-- Node4 -->
<g id="node4" class="node"><title>Node4</title>
<g id="a_node4"><a xlink:href="net_8c.html#a9b09a09bba447345436e63f1ecc582f6" target="_top" xlink:title="freeNode">
<polygon fill="none" stroke="black" points="101,-38.5 101,-57.5 157,-57.5 157,-38.5 101,-38.5"/>
<text text-anchor="middle" x="129" y="-45.5" font-family="Helvetica,sans-Serif" font-size="10.00">freeNode</text>
</a>
</g>
</g>
<!-- Node1&#45;&gt;Node4 -->
<g id="edge3" class="edge"><title>Node1&#45;&gt;Node4</title>
<path fill="none" stroke="midnightblue" d="M52.226,-62.2545C63.9364,-60.0516 78.0898,-57.389 90.9791,-54.9643"/>
<polygon fill="midnightblue" stroke="midnightblue" points="91.7938,-58.3726 100.974,-53.084 90.4996,-51.4932 91.7938,-58.3726"/>
</g>
<!-- Node8 -->
<g id="node8" class="node"><title>Node8</title>
<g id="a_node8"><a xlink:href="vector_8c.html#aed7f3fe585748794ca18f6c957733e40" target="_top" xlink:title="vector_free">
<polygon fill="none" stroke="black" points="96.5,-0.5 96.5,-19.5 161.5,-19.5 161.5,-0.5 96.5,-0.5"/>
<text text-anchor="middle" x="129" y="-7.5" font-family="Helvetica,sans-Serif" font-size="10.00">vector_free</text>
</a>
</g>
</g>
<!-- Node1&#45;&gt;Node8 -->
<g id="edge7" class="edge"><title>Node1&#45;&gt;Node8</title>
<path fill="none" stroke="midnightblue" d="M41.2676,-57.4677C53.4579,-49.4807 71.5781,-37.9774 88,-29 91.0609,-27.3267 94.2934,-25.6496 97.5405,-24.0227"/>
<polygon fill="midnightblue" stroke="midnightblue" points="99.1388,-27.1375 106.6,-19.6153 96.0764,-20.8428 99.1388,-27.1375"/>
</g>
<!-- Node5 -->
<g id="node5" class="node"><title>Node5</title>
<g id="a_node5"><a xlink:href="list_8c.html#aeeb44928a75497916888d4f858d43e14" target="_top" xlink:title="Plist_free">
<polygon fill="none" stroke="black" points="206,-38.5 206,-57.5 264,-57.5 264,-38.5 206,-38.5"/>
<text text-anchor="middle" x="235" y="-45.5" font-family="Helvetica,sans-Serif" font-size="10.00">Plist_free</text>
</a>
</g>
</g>
<!-- Node4&#45;&gt;Node5 -->
<g id="edge4" class="edge"><title>Node4&#45;&gt;Node5</title>
<path fill="none" stroke="midnightblue" d="M157.053,-48C168.926,-48 183.072,-48 195.977,-48"/>
<polygon fill="midnightblue" stroke="midnightblue" points="195.994,-51.5001 205.994,-48 195.994,-44.5001 195.994,-51.5001"/>
</g>
<!-- Node6 -->
<g id="node6" class="node"><title>Node6</title>
<g id="a_node6"><a xlink:href="list_8c.html#a6b1a80c1e3dd7162630ac048d37c4c2c" target="_top" xlink:title="PfreeList">
<polygon fill="none" stroke="black" points="300,-38.5 300,-57.5 356,-57.5 356,-38.5 300,-38.5"/>
<text text-anchor="middle" x="328" y="-45.5" font-family="Helvetica,sans-Serif" font-size="10.00">PfreeList</text>
</a>
</g>
</g>
<!-- Node5&#45;&gt;Node6 -->
<g id="edge5" class="edge"><title>Node5&#45;&gt;Node6</title>
<path fill="none" stroke="midnightblue" d="M264.294,-48C272.38,-48 281.317,-48 289.848,-48"/>
<polygon fill="midnightblue" stroke="midnightblue" points="289.968,-51.5001 299.968,-48 289.968,-44.5001 289.968,-51.5001"/>
</g>
<!-- Node7 -->
<g id="node7" class="node"><title>Node7</title>
<g id="a_node7"><a xlink:href="list_8c.html#aa0d20e134da87470791d0621d655d31e" target="_top" xlink:title="PfreeNode">
<polygon fill="none" stroke="black" points="392.5,-38.5 392.5,-57.5 455.5,-57.5 455.5,-38.5 392.5,-38.5"/>
<text text-anchor="middle" x="424" y="-45.5" font-family="Helvetica,sans-Serif" font-size="10.00">PfreeNode</text>
</a>
</g>
</g>
<!-- Node6&#45;&gt;Node7 -->
<g id="edge6" class="edge"><title>Node6&#45;&gt;Node7</title>
<path fill="none" stroke="midnightblue" d="M356.189,-48C364.295,-48 373.364,-48 382.141,-48"/>
<polygon fill="midnightblue" stroke="midnightblue" points="382.237,-51.5001 392.237,-48 382.237,-44.5001 382.237,-51.5001"/>
</g>
</g>
</svg>
