<?xml version="1.0" encoding="UTF-8" standalone="no"?>
<!DOCTYPE svg PUBLIC "-//W3C//DTD SVG 1.1//EN"
 "http://www.w3.org/Graphics/SVG/1.1/DTD/svg11.dtd">
<!-- Generated by graphviz version 2.36.0 (20140111.2315)
 -->
<!-- Title: work Pages: 1 -->
<svg width="358pt" height="104pt"
 viewBox="0.00 0.00 358.00 104.00" xmlns="http://www.w3.org/2000/svg" xmlns:xlink="http://www.w3.org/1999/xlink">
<g id="graph0" class="graph" transform="scale(1 1) rotate(0) translate(4 100)">
<title>work</title>
<!-- Node1 -->
<g id="node1" class="node"><title>Node1</title>
<polygon fill="#bfbfbf" stroke="black" points="0,-38.5 0,-57.5 38,-57.5 38,-38.5 0,-38.5"/>
<text text-anchor="middle" x="19" y="-45.5" font-family="Helvetica,sans-Serif" font-size="10.00">work</text>
</g>
<!-- Node2 -->
<g id="node2" class="node"><title>Node2</title>
<g id="a_node2"><a xlink:href="avltree_8c.html#aef0786e63ba14dfdb6d8632333208422" target="_top" xlink:title="start">
<polygon fill="none" stroke="black" points="122,-76.5 122,-95.5 158,-95.5 158,-76.5 122,-76.5"/>
<text text-anchor="middle" x="140" y="-83.5" font-family="Helvetica,sans-Serif" font-size="10.00">start</text>
</a>
</g>
</g>
<!-- Node1&#45;&gt;Node2 -->
<g id="edge1" class="edge"><title>Node1&#45;&gt;Node2</title>
<path fill="none" stroke="midnightblue" d="M38.411,-54.7549C48.812,-58.5011 62.0797,-63.1638 74,-67 86.4647,-71.0114 100.387,-75.1287 112.138,-78.5004"/>
<polygon fill="midnightblue" stroke="midnightblue" points="111.24,-81.8837 121.816,-81.2501 113.153,-75.1502 111.24,-81.8837"/>
</g>
<!-- Node3 -->
<g id="node3" class="node"><title>Node3</title>
<g id="a_node3"><a xlink:href="thread_8c.html#abec126223ac40629f70a1bdcfa1aa088" target="_top" xlink:title="thread_getId">
<polygon fill="none" stroke="black" points="104.5,-38.5 104.5,-57.5 175.5,-57.5 175.5,-38.5 104.5,-38.5"/>
<text text-anchor="middle" x="140" y="-45.5" font-family="Helvetica,sans-Serif" font-size="10.00">thread_getId</text>
</a>
</g>
</g>
<!-- Node1&#45;&gt;Node3 -->
<g id="edge2" class="edge"><title>Node1&#45;&gt;Node3</title>
<path fill="none" stroke="midnightblue" d="M38.0735,-48C52.9543,-48 74.6981,-48 94.1958,-48"/>
<polygon fill="midnightblue" stroke="midnightblue" points="94.4379,-51.5001 104.438,-48 94.4379,-44.5001 94.4379,-51.5001"/>
</g>
<!-- Node4 -->
<g id="node4" class="node"><title>Node4</title>
<g id="a_node4"><a xlink:href="common_8c.html#ad6ea568f35026465feabbf0512323704" target="_top" xlink:title="common_findNearestPoint">
<polygon fill="none" stroke="black" points="74,-0.5 74,-19.5 206,-19.5 206,-0.5 74,-0.5"/>
<text text-anchor="middle" x="140" y="-7.5" font-family="Helvetica,sans-Serif" font-size="10.00">common_findNearestPoint</text>
</a>
</g>
</g>
<!-- Node1&#45;&gt;Node4 -->
<g id="edge3" class="edge"><title>Node1&#45;&gt;Node4</title>
<path fill="none" stroke="midnightblue" d="M38.411,-41.2451C48.812,-37.4989 62.0797,-32.8362 74,-29 80.9248,-26.7714 88.2994,-24.5102 95.5018,-22.3623"/>
<polygon fill="midnightblue" stroke="midnightblue" points="96.555,-25.7008 105.158,-19.5173 94.5766,-18.9862 96.555,-25.7008"/>
</g>
<!-- Node5 -->
<g id="node5" class="node"><title>Node5</title>
<g id="a_node5"><a xlink:href="common_8c.html#a0a10c667c9a1be1376b896b5775baa03" target="_top" xlink:title="common_euclidDist2">
<polygon fill="none" stroke="black" points="242,-0.5 242,-19.5 350,-19.5 350,-0.5 242,-0.5"/>
<text text-anchor="middle" x="296" y="-7.5" font-family="Helvetica,sans-Serif" font-size="10.00">common_euclidDist2</text>
</a>
</g>
</g>
<!-- Node4&#45;&gt;Node5 -->
<g id="edge4" class="edge"><title>Node4&#45;&gt;Node5</title>
<path fill="none" stroke="midnightblue" d="M206.31,-10C214.702,-10 223.285,-10 231.645,-10"/>
<polygon fill="midnightblue" stroke="midnightblue" points="231.705,-13.5001 241.705,-10 231.705,-6.5001 231.705,-13.5001"/>
</g>
</g>
</svg>
