<?xml version="1.0" encoding="UTF-8" standalone="no"?>
<!DOCTYPE svg PUBLIC "-//W3C//DTD SVG 1.1//EN"
 "http://www.w3.org/Graphics/SVG/1.1/DTD/svg11.dtd">
<!-- Generated by graphviz version 2.36.0 (20140111.2315)
 -->
<!-- Title: rstm/rstm&#45;dev/libstm/algs/orecfair.cpp Pages: 1 -->
<!--zoomable 544 -->
<svg id="main" version="1.1" xmlns="http://www.w3.org/2000/svg" xmlns:xlink="http://www.w3.org/1999/xlink" xml:space="preserve" onload="init(evt)">
<style type="text/css"><![CDATA[
.edge:hover path { stroke: red; }
.edge:hover polygon { stroke: red; fill: red; }
]]></style>
<script type="text/javascript"><![CDATA[
var edges = document.getElementsByTagName('g');
if (edges && edges.length) {
  for (var i=0;i<edges.length;i++) {
    if (edges[i].id.substr(0,4)=='edge') {
      edges[i].setAttribute('class','edge');
    }
  }
}
]]></script>
        <defs>
                <circle id="rim" cx="0" cy="0" r="7"/>
                <circle id="rim2" cx="0" cy="0" r="3.5"/>
                <g id="zoomPlus">
                        <use xlink:href="#rim" fill="#404040">
                                <set attributeName="fill" to="#808080" begin="zoomplus.mouseover" end="zoomplus.mouseout"/>
                        </use>
                        <path d="M-4,0h8M0,-4v8" fill="none" stroke="white" stroke-width="1.5" pointer-events="none"/>
                </g>
                <g id="zoomMin">
                        <use xlink:href="#rim" fill="#404040">
                                <set attributeName="fill" to="#808080" begin="zoomminus.mouseover" end="zoomminus.mouseout"/>
                        </use>
                        <path d="M-4,0h8" fill="none" stroke="white" stroke-width="1.5" pointer-events="none"/>
                </g>
                <g id="dirArrow">
                        <path fill="none" stroke="white" stroke-width="1.5" d="M0,-3.0v7 M-2.5,-0.5L0,-3.0L2.5,-0.5"/>
                </g>
               <g id="resetDef">
                       <use xlink:href="#rim2" fill="#404040">
                               <set attributeName="fill" to="#808080" begin="reset.mouseover" end="reset.mouseout"/>
                       </use>
               </g>
        </defs>

<script type="text/javascript">
var viewWidth = 1042;
var viewHeight = 544;
var sectionId = 'dynsection-0';
</script>
<script xlink:href="svgpan.js"/>
<svg id="graph" class="graph">
<g id="viewport">
<title>rstm/rstm&#45;dev/libstm/algs/orecfair.cpp</title>
<!-- Node1 -->
<g id="node1" class="node"><title>Node1</title>
<polygon fill="#bfbfbf" stroke="black" points="613.5,-505 613.5,-535 720.5,-535 720.5,-505 613.5,-505"/>
<text text-anchor="start" x="621.5" y="-523" font-family="Helvetica,sans-Serif" font-size="10.00">rstm/rstm&#45;dev/libstm</text>
<text text-anchor="middle" x="667" y="-512" font-family="Helvetica,sans-Serif" font-size="10.00">/algs/orecfair.cpp</text>
</g>
<!-- Node2 -->
<g id="node2" class="node"><title>Node2</title>
<g id="a_node2"><a xlink:href="rand__r__32_8h.html" target="_top" xlink:title="alt&#45;license/rand_r_32.h">
<polygon fill="none" stroke="black" points="166.5,-224.5 166.5,-243.5 281.5,-243.5 281.5,-224.5 166.5,-224.5"/>
<text text-anchor="middle" x="224" y="-231.5" font-family="Helvetica,sans-Serif" font-size="10.00">alt&#45;license/rand_r_32.h</text>
</a>
</g>
</g>
<!-- Node1&#45;&gt;Node2 -->
<g id="edge1" class="edge"><title>Node1&#45;&gt;Node2</title>
<path fill="none" stroke="midnightblue" d="M613.122,-516.218C495.062,-508.648 224,-482.602 224,-403 224,-403 224,-403 224,-345 224,-312.948 224,-275.643 224,-253.749"/>
<polygon fill="midnightblue" stroke="midnightblue" points="227.5,-253.558 224,-243.558 220.5,-253.558 227.5,-253.558"/>
</g>
<!-- Node5 -->
<g id="node5" class="node"><title>Node5</title>
<g id="a_node5"><a xlink:href="profiling_8hpp.html" target="_top" xlink:title="../profiling.hpp">
<polygon fill="none" stroke="black" points="760,-392.5 760,-411.5 838,-411.5 838,-392.5 760,-392.5"/>
<text text-anchor="middle" x="799" y="-399.5" font-family="Helvetica,sans-Serif" font-size="10.00">../profiling.hpp</text>
</a>
</g>
</g>
<!-- Node1&#45;&gt;Node5 -->
<g id="edge4" class="edge"><title>Node1&#45;&gt;Node5</title>
<path fill="none" stroke="midnightblue" d="M683.186,-504.776C708.158,-482.831 755.878,-440.895 781.578,-418.31"/>
<polygon fill="midnightblue" stroke="midnightblue" points="783.891,-420.937 789.092,-411.707 779.27,-415.679 783.891,-420.937"/>
</g>
<!-- Node29 -->
<g id="node29" class="node"><title>Node29</title>
<g id="a_node29"><a xlink:href="algs_8hpp.html" target="_top" xlink:title="algs.hpp">
<polygon fill="none" stroke="black" points="593.5,-448.5 593.5,-467.5 646.5,-467.5 646.5,-448.5 593.5,-448.5"/>
<text text-anchor="middle" x="620" y="-455.5" font-family="Helvetica,sans-Serif" font-size="10.00">algs.hpp</text>
</a>
</g>
</g>
<!-- Node1&#45;&gt;Node29 -->
<g id="edge55" class="edge"><title>Node1&#45;&gt;Node29</title>
<path fill="none" stroke="midnightblue" d="M655.862,-504.781C649.032,-496.062 640.255,-484.857 633.094,-475.715"/>
<polygon fill="midnightblue" stroke="midnightblue" points="635.761,-473.445 626.839,-467.731 630.25,-477.761 635.761,-473.445"/>
</g>
<!-- Node30 -->
<g id="node30" class="node"><title>Node30</title>
<g id="a_node30"><a xlink:href="RedoRAWUtils_8hpp.html" target="_top" xlink:title="RedoRAWUtils.hpp">
<polygon fill="none" stroke="black" points="919.5,-392.5 919.5,-411.5 1022.5,-411.5 1022.5,-392.5 919.5,-392.5"/>
<text text-anchor="middle" x="971" y="-399.5" font-family="Helvetica,sans-Serif" font-size="10.00">RedoRAWUtils.hpp</text>
</a>
</g>
</g>
<!-- Node1&#45;&gt;Node30 -->
<g id="edge61" class="edge"><title>Node1&#45;&gt;Node30</title>
<path fill="none" stroke="midnightblue" d="M703.972,-504.892C764.129,-481.937 882.175,-436.894 938.974,-415.221"/>
<polygon fill="midnightblue" stroke="midnightblue" points="940.421,-418.414 948.516,-411.579 937.926,-411.874 940.421,-418.414"/>
</g>
<!-- Node3 -->
<g id="node3" class="node"><title>Node3</title>
<polygon fill="none" stroke="#bfbfbf" points="214,-168.5 214,-187.5 262,-187.5 262,-168.5 214,-168.5"/>
<text text-anchor="middle" x="238" y="-175.5" font-family="Helvetica,sans-Serif" font-size="10.00">stdlib.h</text>
</g>
<!-- Node2&#45;&gt;Node3 -->
<g id="edge2" class="edge"><title>Node2&#45;&gt;Node3</title>
<path fill="none" stroke="midnightblue" d="M226.312,-224.083C228.167,-216.927 230.835,-206.635 233.154,-197.691"/>
<polygon fill="midnightblue" stroke="midnightblue" points="236.609,-198.309 235.731,-187.751 229.834,-196.553 236.609,-198.309"/>
</g>
<!-- Node4 -->
<g id="node4" class="node"><title>Node4</title>
<polygon fill="none" stroke="#bfbfbf" points="681.5,-0.5 681.5,-19.5 752.5,-19.5 752.5,-0.5 681.5,-0.5"/>
<text text-anchor="middle" x="717" y="-7.5" font-family="Helvetica,sans-Serif" font-size="10.00">stm/config.h</text>
</g>
<!-- Node2&#45;&gt;Node4 -->
<g id="edge3" class="edge"><title>Node2&#45;&gt;Node4</title>
<path fill="none" stroke="midnightblue" d="M218.005,-224.125C210.294,-211.569 198.613,-187.929 205,-168 223.668,-109.746 232.133,-86.775 285,-56 349.685,-18.3455 573.824,-12.0299 671.222,-11.0921"/>
<polygon fill="midnightblue" stroke="midnightblue" points="671.378,-14.5911 681.349,-11.0098 671.321,-7.59132 671.378,-14.5911"/>
</g>
<!-- Node5&#45;&gt;Node4 -->
<g id="edge6" class="edge"><title>Node5&#45;&gt;Node4</title>
<path fill="none" stroke="midnightblue" d="M838.392,-396.683C895.882,-387.954 996,-362.489 996,-291 996,-291 996,-291 996,-121 996,-84.8221 977.671,-75.1873 947,-56 890.322,-20.5429 811.649,-12.0633 762.565,-10.5375"/>
<polygon fill="midnightblue" stroke="midnightblue" points="762.636,-7.03833 752.559,-10.3103 762.477,-14.0365 762.636,-7.03833"/>
</g>
<!-- Node6 -->
<g id="node6" class="node"><title>Node6</title>
<polygon fill="none" stroke="#bfbfbf" points="506.5,-56.5 506.5,-75.5 551.5,-75.5 551.5,-56.5 506.5,-56.5"/>
<text text-anchor="middle" x="529" y="-63.5" font-family="Helvetica,sans-Serif" font-size="10.00">cstdlib</text>
</g>
<!-- Node5&#45;&gt;Node6 -->
<g id="edge5" class="edge"><title>Node5&#45;&gt;Node6</title>
<path fill="none" stroke="midnightblue" d="M821.414,-392.373C837.529,-385.047 858.534,-372.998 871,-356 906.522,-307.564 928.046,-277.116 900,-224 879.394,-184.974 857.393,-187.896 818,-168 771.504,-144.516 626.78,-97.7819 561.509,-77.1696"/>
<polygon fill="midnightblue" stroke="midnightblue" points="562.332,-73.7595 551.743,-74.0933 560.229,-80.4361 562.332,-73.7595"/>
</g>
<!-- Node7 -->
<g id="node7" class="node"><title>Node7</title>
<g id="a_node7"><a xlink:href="txthread_8hpp.html" target="_top" xlink:title="stm/txthread.hpp">
<polygon fill="none" stroke="black" points="455,-280.5 455,-299.5 545,-299.5 545,-280.5 455,-280.5"/>
<text text-anchor="middle" x="500" y="-287.5" font-family="Helvetica,sans-Serif" font-size="10.00">stm/txthread.hpp</text>
</a>
</g>
</g>
<!-- Node5&#45;&gt;Node7 -->
<g id="edge7" class="edge"><title>Node5&#45;&gt;Node7</title>
<path fill="none" stroke="midnightblue" d="M775.538,-392.368C722.592,-372.89 593.72,-325.479 532.86,-303.089"/>
<polygon fill="midnightblue" stroke="midnightblue" points="533.947,-299.759 523.353,-299.591 531.53,-306.329 533.947,-299.759"/>
</g>
<!-- Node25 -->
<g id="node25" class="node"><title>Node25</title>
<g id="a_node25"><a xlink:href="policies_8hpp.html" target="_top" xlink:title="./policies/policies.hpp">
<polygon fill="none" stroke="black" points="752,-336.5 752,-355.5 862,-355.5 862,-336.5 752,-336.5"/>
<text text-anchor="middle" x="807" y="-343.5" font-family="Helvetica,sans-Serif" font-size="10.00">./policies/policies.hpp</text>
</a>
</g>
</g>
<!-- Node5&#45;&gt;Node25 -->
<g id="edge45" class="edge"><title>Node5&#45;&gt;Node25</title>
<path fill="none" stroke="midnightblue" d="M800.321,-392.083C801.381,-384.927 802.906,-374.635 804.231,-365.691"/>
<polygon fill="midnightblue" stroke="midnightblue" points="807.7,-366.156 805.704,-355.751 800.776,-365.13 807.7,-366.156"/>
</g>
<!-- Node7&#45;&gt;Node2 -->
<g id="edge8" class="edge"><title>Node7&#45;&gt;Node2</title>
<path fill="none" stroke="midnightblue" d="M456.267,-280.444C407.817,-270.964 329.671,-255.675 277.582,-245.483"/>
<polygon fill="midnightblue" stroke="midnightblue" points="278.014,-242.002 267.528,-243.516 276.67,-248.871 278.014,-242.002"/>
</g>
<!-- Node8 -->
<g id="node8" class="node"><title>Node8</title>
<g id="a_node8"><a xlink:href="locks_8hpp.html" target="_top" xlink:title="common/locks.hpp">
<polygon fill="none" stroke="black" points="89.5,-112.5 89.5,-131.5 188.5,-131.5 188.5,-112.5 89.5,-112.5"/>
<text text-anchor="middle" x="139" y="-119.5" font-family="Helvetica,sans-Serif" font-size="10.00">common/locks.hpp</text>
</a>
</g>
</g>
<!-- Node7&#45;&gt;Node8 -->
<g id="edge9" class="edge"><title>Node7&#45;&gt;Node8</title>
<path fill="none" stroke="midnightblue" d="M454.753,-286.072C366.447,-279.93 177.908,-264.55 157,-244 129.699,-217.165 131.919,-168.132 135.624,-141.464"/>
<polygon fill="midnightblue" stroke="midnightblue" points="139.089,-141.963 137.221,-131.535 132.178,-140.852 139.089,-141.963"/>
</g>
<!-- Node13 -->
<g id="node13" class="node"><title>Node13</title>
<g id="a_node13"><a xlink:href="ThreadLocal_8hpp.html" target="_top" xlink:title="common/ThreadLocal.hpp">
<polygon fill="none" stroke="black" points="528.5,-224.5 528.5,-243.5 657.5,-243.5 657.5,-224.5 528.5,-224.5"/>
<text text-anchor="middle" x="593" y="-231.5" font-family="Helvetica,sans-Serif" font-size="10.00">common/ThreadLocal.hpp</text>
</a>
</g>
</g>
<!-- Node7&#45;&gt;Node13 -->
<g id="edge15" class="edge"><title>Node7&#45;&gt;Node13</title>
<path fill="none" stroke="midnightblue" d="M514.942,-280.324C529.585,-271.822 552.134,-258.729 569.238,-248.797"/>
<polygon fill="midnightblue" stroke="midnightblue" points="571.205,-251.703 578.095,-243.655 567.69,-245.649 571.205,-251.703"/>
</g>
<!-- Node14 -->
<g id="node14" class="node"><title>Node14</title>
<g id="a_node14"><a xlink:href="metadata_8hpp.html" target="_top" xlink:title="stm/metadata.hpp">
<polygon fill="none" stroke="black" points="714.5,-168.5 714.5,-187.5 809.5,-187.5 809.5,-168.5 714.5,-168.5"/>
<text text-anchor="middle" x="762" y="-175.5" font-family="Helvetica,sans-Serif" font-size="10.00">stm/metadata.hpp</text>
</a>
</g>
</g>
<!-- Node7&#45;&gt;Node14 -->
<g id="edge17" class="edge"><title>Node7&#45;&gt;Node14</title>
<path fill="none" stroke="midnightblue" d="M545.076,-280.988C579.278,-273.921 626.916,-261.923 666,-244 695.22,-230.601 725.344,-208.622 743.873,-193.984"/>
<polygon fill="midnightblue" stroke="midnightblue" points="746.155,-196.639 751.754,-187.644 741.768,-191.185 746.155,-196.639"/>
</g>
<!-- Node19 -->
<g id="node19" class="node"><title>Node19</title>
<g id="a_node19"><a xlink:href="WriteSet_8hpp.html" target="_top" xlink:title="stm/WriteSet.hpp">
<polygon fill="none" stroke="black" points="546.5,-112.5 546.5,-131.5 639.5,-131.5 639.5,-112.5 546.5,-112.5"/>
<text text-anchor="middle" x="593" y="-119.5" font-family="Helvetica,sans-Serif" font-size="10.00">stm/WriteSet.hpp</text>
</a>
</g>
</g>
<!-- Node7&#45;&gt;Node19 -->
<g id="edge27" class="edge"><title>Node7&#45;&gt;Node19</title>
<path fill="none" stroke="midnightblue" d="M501.554,-280.233C504.047,-267.403 509.636,-242.978 519,-224 535.098,-191.374 561.776,-158.238 578.32,-139.205"/>
<polygon fill="midnightblue" stroke="midnightblue" points="581.128,-141.313 585.134,-131.504 575.886,-136.674 581.128,-141.313"/>
</g>
<!-- Node21 -->
<g id="node21" class="node"><title>Node21</title>
<g id="a_node21"><a xlink:href="UndoLog_8hpp.html" target="_top" xlink:title="stm/UndoLog.hpp">
<polygon fill="none" stroke="black" points="280,-168.5 280,-187.5 374,-187.5 374,-168.5 280,-168.5"/>
<text text-anchor="middle" x="327" y="-175.5" font-family="Helvetica,sans-Serif" font-size="10.00">stm/UndoLog.hpp</text>
</a>
</g>
</g>
<!-- Node7&#45;&gt;Node21 -->
<g id="edge32" class="edge"><title>Node7&#45;&gt;Node21</title>
<path fill="none" stroke="midnightblue" d="M454.869,-283.883C424.74,-278.413 385.865,-267.144 359,-244 345.027,-231.963 336.563,-212.391 331.881,-197.865"/>
<polygon fill="midnightblue" stroke="midnightblue" points="335.153,-196.58 329.009,-187.948 328.429,-198.527 335.153,-196.58"/>
</g>
<!-- Node23 -->
<g id="node23" class="node"><title>Node23</title>
<g id="a_node23"><a xlink:href="ValueList_8hpp.html" target="_top" xlink:title="stm/ValueList.hpp">
<polygon fill="none" stroke="black" points="392.5,-168.5 392.5,-187.5 487.5,-187.5 487.5,-168.5 392.5,-168.5"/>
<text text-anchor="middle" x="440" y="-175.5" font-family="Helvetica,sans-Serif" font-size="10.00">stm/ValueList.hpp</text>
</a>
</g>
</g>
<!-- Node7&#45;&gt;Node23 -->
<g id="edge37" class="edge"><title>Node7&#45;&gt;Node23</title>
<path fill="none" stroke="midnightblue" d="M454.752,-286.691C424.533,-282.511 386.821,-271.631 367,-244 351.76,-222.755 381.309,-203.537 407.253,-191.603"/>
<polygon fill="midnightblue" stroke="midnightblue" points="408.791,-194.75 416.559,-187.545 405.993,-188.334 408.791,-194.75"/>
</g>
<!-- Node24 -->
<g id="node24" class="node"><title>Node24</title>
<g id="a_node24"><a xlink:href="WBMMPolicy_8hpp.html" target="_top" xlink:title="WBMMPolicy.hpp">
<polygon fill="none" stroke="black" points="376.5,-224.5 376.5,-243.5 471.5,-243.5 471.5,-224.5 376.5,-224.5"/>
<text text-anchor="middle" x="424" y="-231.5" font-family="Helvetica,sans-Serif" font-size="10.00">WBMMPolicy.hpp</text>
</a>
</g>
</g>
<!-- Node7&#45;&gt;Node24 -->
<g id="edge40" class="edge"><title>Node7&#45;&gt;Node24</title>
<path fill="none" stroke="midnightblue" d="M487.789,-280.324C476.224,-272.107 458.625,-259.602 444.839,-249.807"/>
<polygon fill="midnightblue" stroke="midnightblue" points="446.612,-246.773 436.433,-243.834 442.557,-252.479 446.612,-246.773"/>
</g>
<!-- Node9 -->
<g id="node9" class="node"><title>Node9</title>
<g id="a_node9"><a xlink:href="platform_8hpp.html" target="_top" xlink:title="common/platform.hpp">
<polygon fill="none" stroke="black" points="3.5,-56.5 3.5,-75.5 114.5,-75.5 114.5,-56.5 3.5,-56.5"/>
<text text-anchor="middle" x="59" y="-63.5" font-family="Helvetica,sans-Serif" font-size="10.00">common/platform.hpp</text>
</a>
</g>
</g>
<!-- Node8&#45;&gt;Node9 -->
<g id="edge10" class="edge"><title>Node8&#45;&gt;Node9</title>
<path fill="none" stroke="midnightblue" d="M126.147,-112.324C113.784,-103.979 94.8699,-91.2122 80.2628,-81.3524"/>
<polygon fill="midnightblue" stroke="midnightblue" points="82.0682,-78.3483 71.8215,-75.6545 78.1518,-84.1503 82.0682,-78.3483"/>
</g>
<!-- Node9&#45;&gt;Node4 -->
<g id="edge11" class="edge"><title>Node9&#45;&gt;Node4</title>
<path fill="none" stroke="midnightblue" d="M114.754,-57.5687C119.569,-57.0067 124.368,-56.4747 129,-56 330.695,-35.3299 572.205,-19.7108 671.234,-13.6974"/>
<polygon fill="midnightblue" stroke="midnightblue" points="671.712,-17.175 681.483,-13.0785 671.29,-10.1877 671.712,-17.175"/>
</g>
<!-- Node10 -->
<g id="node10" class="node"><title>Node10</title>
<polygon fill="none" stroke="#bfbfbf" points="375.5,-0.5 375.5,-19.5 424.5,-19.5 424.5,-0.5 375.5,-0.5"/>
<text text-anchor="middle" x="400" y="-7.5" font-family="Helvetica,sans-Serif" font-size="10.00">stdint.h</text>
</g>
<!-- Node9&#45;&gt;Node10 -->
<g id="edge12" class="edge"><title>Node9&#45;&gt;Node10</title>
<path fill="none" stroke="midnightblue" d="M113.032,-56.4435C183.72,-45.2496 305.568,-25.9541 365.151,-16.5186"/>
<polygon fill="midnightblue" stroke="midnightblue" points="365.856,-19.9507 375.185,-14.9296 364.761,-13.0368 365.856,-19.9507"/>
</g>
<!-- Node11 -->
<g id="node11" class="node"><title>Node11</title>
<polygon fill="none" stroke="#bfbfbf" points="69,-0.5 69,-19.5 117,-19.5 117,-0.5 69,-0.5"/>
<text text-anchor="middle" x="93" y="-7.5" font-family="Helvetica,sans-Serif" font-size="10.00">limits.h</text>
</g>
<!-- Node9&#45;&gt;Node11 -->
<g id="edge13" class="edge"><title>Node9&#45;&gt;Node11</title>
<path fill="none" stroke="midnightblue" d="M64.6144,-56.083C69.3674,-48.5341 76.3181,-37.4948 82.1516,-28.2298"/>
<polygon fill="midnightblue" stroke="midnightblue" points="85.1237,-30.0783 87.4901,-19.7511 79.2001,-26.3486 85.1237,-30.0783"/>
</g>
<!-- Node12 -->
<g id="node12" class="node"><title>Node12</title>
<polygon fill="none" stroke="#bfbfbf" points="-0.5,-0.5 -0.5,-19.5 50.5,-19.5 50.5,-0.5 -0.5,-0.5"/>
<text text-anchor="middle" x="25" y="-7.5" font-family="Helvetica,sans-Serif" font-size="10.00">unistd.h</text>
</g>
<!-- Node9&#45;&gt;Node12 -->
<g id="edge14" class="edge"><title>Node9&#45;&gt;Node12</title>
<path fill="none" stroke="midnightblue" d="M53.3856,-56.083C48.6326,-48.5341 41.6819,-37.4948 35.8484,-28.2298"/>
<polygon fill="midnightblue" stroke="midnightblue" points="38.7999,-26.3486 30.5099,-19.7511 32.8763,-30.0783 38.7999,-26.3486"/>
</g>
<!-- Node13&#45;&gt;Node4 -->
<g id="edge16" class="edge"><title>Node13&#45;&gt;Node4</title>
<path fill="none" stroke="midnightblue" d="M607.945,-224.329C652.444,-198.162 782.324,-119.147 804,-76 816.379,-51.3593 786.217,-33.6578 758.082,-23.0093"/>
<polygon fill="midnightblue" stroke="midnightblue" points="758.882,-19.5798 748.287,-19.5371 756.543,-26.1774 758.882,-19.5798"/>
</g>
<!-- Node14&#45;&gt;Node4 -->
<g id="edge18" class="edge"><title>Node14&#45;&gt;Node4</title>
<path fill="none" stroke="midnightblue" d="M775.522,-168.379C805.189,-148.388 871.106,-97.413 842,-56 824.164,-30.6223 790.571,-19.4893 762.699,-14.638"/>
<polygon fill="midnightblue" stroke="midnightblue" points="763.141,-11.1652 752.729,-13.1202 762.088,-18.0855 763.141,-11.1652"/>
</g>
<!-- Node15 -->
<g id="node15" class="node"><title>Node15</title>
<g id="a_node15"><a xlink:href="MiniVector_8hpp.html" target="_top" xlink:title="stm/MiniVector.hpp">
<polygon fill="none" stroke="black" points="427.5,-112.5 427.5,-131.5 528.5,-131.5 528.5,-112.5 427.5,-112.5"/>
<text text-anchor="middle" x="478" y="-119.5" font-family="Helvetica,sans-Serif" font-size="10.00">stm/MiniVector.hpp</text>
</a>
</g>
</g>
<!-- Node14&#45;&gt;Node15 -->
<g id="edge19" class="edge"><title>Node14&#45;&gt;Node15</title>
<path fill="none" stroke="midnightblue" d="M716.999,-168.444C667.041,-158.944 586.399,-143.611 532.801,-133.42"/>
<polygon fill="midnightblue" stroke="midnightblue" points="533.268,-129.946 522.79,-131.516 531.96,-136.823 533.268,-129.946"/>
</g>
<!-- Node18 -->
<g id="node18" class="node"><title>Node18</title>
<g id="a_node18"><a xlink:href="BitFilter_8hpp.html" target="_top" xlink:title="stm/BitFilter.hpp">
<polygon fill="none" stroke="black" points="672.5,-56.5 672.5,-75.5 761.5,-75.5 761.5,-56.5 672.5,-56.5"/>
<text text-anchor="middle" x="717" y="-63.5" font-family="Helvetica,sans-Serif" font-size="10.00">stm/BitFilter.hpp</text>
</a>
</g>
</g>
<!-- Node14&#45;&gt;Node18 -->
<g id="edge24" class="edge"><title>Node14&#45;&gt;Node18</title>
<path fill="none" stroke="midnightblue" d="M758.469,-168.368C751.141,-150.456 734.15,-108.923 724.342,-84.9482"/>
<polygon fill="midnightblue" stroke="midnightblue" points="727.54,-83.5217 720.515,-75.5914 721.062,-86.1721 727.54,-83.5217"/>
</g>
<!-- Node15&#45;&gt;Node6 -->
<g id="edge21" class="edge"><title>Node15&#45;&gt;Node6</title>
<path fill="none" stroke="midnightblue" d="M486.422,-112.083C493.848,-104.22 504.852,-92.5688 513.812,-83.0813"/>
<polygon fill="midnightblue" stroke="midnightblue" points="516.413,-85.4244 520.735,-75.7511 511.324,-80.618 516.413,-85.4244"/>
</g>
<!-- Node15&#45;&gt;Node9 -->
<g id="edge23" class="edge"><title>Node15&#45;&gt;Node9</title>
<path fill="none" stroke="midnightblue" d="M427.459,-114.486C351.717,-104.725 208.727,-86.2966 124.889,-75.4917"/>
<polygon fill="midnightblue" stroke="midnightblue" points="125.082,-71.9877 114.717,-74.1807 124.187,-78.9303 125.082,-71.9877"/>
</g>
<!-- Node16 -->
<g id="node16" class="node"><title>Node16</title>
<polygon fill="none" stroke="#bfbfbf" points="439.5,-56.5 439.5,-75.5 488.5,-75.5 488.5,-56.5 439.5,-56.5"/>
<text text-anchor="middle" x="464" y="-63.5" font-family="Helvetica,sans-Serif" font-size="10.00">cassert</text>
</g>
<!-- Node15&#45;&gt;Node16 -->
<g id="edge20" class="edge"><title>Node15&#45;&gt;Node16</title>
<path fill="none" stroke="midnightblue" d="M475.688,-112.083C473.833,-104.927 471.165,-94.6353 468.846,-85.6911"/>
<polygon fill="midnightblue" stroke="midnightblue" points="472.166,-84.5527 466.269,-75.7511 465.391,-86.3094 472.166,-84.5527"/>
</g>
<!-- Node17 -->
<g id="node17" class="node"><title>Node17</title>
<polygon fill="none" stroke="#bfbfbf" points="372.5,-56.5 372.5,-75.5 421.5,-75.5 421.5,-56.5 372.5,-56.5"/>
<text text-anchor="middle" x="397" y="-63.5" font-family="Helvetica,sans-Serif" font-size="10.00">string.h</text>
</g>
<!-- Node15&#45;&gt;Node17 -->
<g id="edge22" class="edge"><title>Node15&#45;&gt;Node17</title>
<path fill="none" stroke="midnightblue" d="M464.986,-112.324C452.468,-103.979 433.318,-91.2122 418.529,-81.3524"/>
<polygon fill="midnightblue" stroke="midnightblue" points="420.244,-78.2894 409.982,-75.6545 416.361,-84.1137 420.244,-78.2894"/>
</g>
<!-- Node18&#45;&gt;Node4 -->
<g id="edge25" class="edge"><title>Node18&#45;&gt;Node4</title>
<path fill="none" stroke="midnightblue" d="M717,-56.083C717,-49.0059 717,-38.8611 717,-29.9865"/>
<polygon fill="midnightblue" stroke="midnightblue" points="720.5,-29.751 717,-19.7511 713.5,-29.7511 720.5,-29.751"/>
</g>
<!-- Node18&#45;&gt;Node10 -->
<g id="edge26" class="edge"><title>Node18&#45;&gt;Node10</title>
<path fill="none" stroke="midnightblue" d="M672.254,-57.3776C608.469,-46.5121 492.738,-26.7976 434.884,-16.9424"/>
<polygon fill="midnightblue" stroke="midnightblue" points="435.226,-13.4504 424.781,-15.2213 434.051,-20.351 435.226,-13.4504"/>
</g>
<!-- Node19&#45;&gt;Node4 -->
<g id="edge28" class="edge"><title>Node19&#45;&gt;Node4</title>
<path fill="none" stroke="midnightblue" d="M601.919,-112.429C615.086,-99.8429 640.588,-75.7186 663,-56 674.453,-45.9236 687.596,-34.9586 698.048,-26.3752"/>
<polygon fill="midnightblue" stroke="midnightblue" points="700.569,-28.8347 706.098,-19.797 696.14,-23.4141 700.569,-28.8347"/>
</g>
<!-- Node19&#45;&gt;Node6 -->
<g id="edge29" class="edge"><title>Node19&#45;&gt;Node6</title>
<path fill="none" stroke="midnightblue" d="M582.717,-112.324C573.164,-104.263 558.72,-92.0765 547.216,-82.3695"/>
<polygon fill="midnightblue" stroke="midnightblue" points="549.37,-79.6076 539.47,-75.8339 544.856,-84.9577 549.37,-79.6076"/>
</g>
<!-- Node19&#45;&gt;Node16 -->
<g id="edge31" class="edge"><title>Node19&#45;&gt;Node16</title>
<path fill="none" stroke="midnightblue" d="M572.56,-112.444C551.33,-103.557 517.901,-89.5632 493.745,-79.4514"/>
<polygon fill="midnightblue" stroke="midnightblue" points="494.921,-76.1493 484.345,-75.5164 492.218,-82.6064 494.921,-76.1493"/>
</g>
<!-- Node20 -->
<g id="node20" class="node"><title>Node20</title>
<polygon fill="none" stroke="#bfbfbf" points="570,-56.5 570,-75.5 616,-75.5 616,-56.5 570,-56.5"/>
<text text-anchor="middle" x="593" y="-63.5" font-family="Helvetica,sans-Serif" font-size="10.00">cstring</text>
</g>
<!-- Node19&#45;&gt;Node20 -->
<g id="edge30" class="edge"><title>Node19&#45;&gt;Node20</title>
<path fill="none" stroke="midnightblue" d="M593,-112.083C593,-105.006 593,-94.8611 593,-85.9865"/>
<polygon fill="midnightblue" stroke="midnightblue" points="596.5,-85.751 593,-75.7511 589.5,-85.7511 596.5,-85.751"/>
</g>
<!-- Node21&#45;&gt;Node4 -->
<g id="edge33" class="edge"><title>Node21&#45;&gt;Node4</title>
<path fill="none" stroke="midnightblue" d="M310.666,-168.387C298.045,-160.72 281.503,-148.213 274,-132 257.608,-96.5788 283.909,-75.0048 318,-56 377.654,-22.744 579.75,-14.0336 671.282,-11.777"/>
<polygon fill="midnightblue" stroke="midnightblue" points="671.441,-15.2743 681.357,-11.5438 671.279,-8.2762 671.441,-15.2743"/>
</g>
<!-- Node21&#45;&gt;Node15 -->
<g id="edge34" class="edge"><title>Node21&#45;&gt;Node15</title>
<path fill="none" stroke="midnightblue" d="M350.926,-168.444C376.219,-159.399 416.302,-145.064 444.68,-134.916"/>
<polygon fill="midnightblue" stroke="midnightblue" points="445.948,-138.179 454.186,-131.516 443.591,-131.588 445.948,-138.179"/>
</g>
<!-- Node22 -->
<g id="node22" class="node"><title>Node22</title>
<g id="a_node22"><a xlink:href="include_2stm_2macros_8hpp.html" target="_top" xlink:title="stm/macros.hpp">
<polygon fill="none" stroke="black" points="283.5,-112.5 283.5,-131.5 370.5,-131.5 370.5,-112.5 283.5,-112.5"/>
<text text-anchor="middle" x="327" y="-119.5" font-family="Helvetica,sans-Serif" font-size="10.00">stm/macros.hpp</text>
</a>
</g>
</g>
<!-- Node21&#45;&gt;Node22 -->
<g id="edge35" class="edge"><title>Node21&#45;&gt;Node22</title>
<path fill="none" stroke="midnightblue" d="M327,-168.083C327,-161.006 327,-150.861 327,-141.986"/>
<polygon fill="midnightblue" stroke="midnightblue" points="330.5,-141.751 327,-131.751 323.5,-141.751 330.5,-141.751"/>
</g>
<!-- Node22&#45;&gt;Node4 -->
<g id="edge36" class="edge"><title>Node22&#45;&gt;Node4</title>
<path fill="none" stroke="midnightblue" d="M324.214,-112.075C320.475,-98.1295 315.823,-71.2007 330,-56 352.924,-31.4212 573.533,-17.8825 671.044,-13.0569"/>
<polygon fill="midnightblue" stroke="midnightblue" points="671.379,-16.5448 681.197,-12.564 671.039,-9.55308 671.379,-16.5448"/>
</g>
<!-- Node23&#45;&gt;Node4 -->
<g id="edge38" class="edge"><title>Node23&#45;&gt;Node4</title>
<path fill="none" stroke="midnightblue" d="M431.428,-168.236C408.006,-143.818 345.8,-75.5247 363,-56 383.086,-33.1992 580.294,-18.9167 671.348,-13.4875"/>
<polygon fill="midnightblue" stroke="midnightblue" points="671.608,-16.9784 681.386,-12.8993 671.199,-9.99034 671.608,-16.9784"/>
</g>
<!-- Node23&#45;&gt;Node15 -->
<g id="edge39" class="edge"><title>Node23&#45;&gt;Node15</title>
<path fill="none" stroke="midnightblue" d="M446.275,-168.083C451.642,-160.455 459.518,-149.264 466.079,-139.941"/>
<polygon fill="midnightblue" stroke="midnightblue" points="468.949,-141.943 471.842,-131.751 463.225,-137.915 468.949,-141.943"/>
</g>
<!-- Node24&#45;&gt;Node3 -->
<g id="edge41" class="edge"><title>Node24&#45;&gt;Node3</title>
<path fill="none" stroke="midnightblue" d="M394.528,-224.444C361.151,-214.753 306.862,-198.992 271.795,-188.811"/>
<polygon fill="midnightblue" stroke="midnightblue" points="272.59,-185.398 262.011,-185.971 270.639,-192.12 272.59,-185.398"/>
</g>
<!-- Node24&#45;&gt;Node4 -->
<g id="edge42" class="edge"><title>Node24&#45;&gt;Node4</title>
<path fill="none" stroke="midnightblue" d="M471.659,-227.514C549.895,-215.65 703.499,-179.697 770,-76 782.065,-57.1869 760.609,-37.5665 741.491,-24.8701"/>
<polygon fill="midnightblue" stroke="midnightblue" points="743.334,-21.8942 733.001,-19.5516 739.618,-27.8264 743.334,-21.8942"/>
</g>
<!-- Node24&#45;&gt;Node14 -->
<g id="edge44" class="edge"><title>Node24&#45;&gt;Node14</title>
<path fill="none" stroke="midnightblue" d="M471.71,-225.378C532.771,-215.622 638.479,-198.734 704.087,-188.252"/>
<polygon fill="midnightblue" stroke="midnightblue" points="704.937,-191.661 714.26,-186.627 703.833,-184.749 704.937,-191.661"/>
</g>
<!-- Node24&#45;&gt;Node15 -->
<g id="edge43" class="edge"><title>Node24&#45;&gt;Node15</title>
<path fill="none" stroke="midnightblue" d="M449.504,-224.472C465.987,-217.478 486.139,-205.792 496,-188 504.222,-173.166 497.378,-154.31 489.884,-140.732"/>
<polygon fill="midnightblue" stroke="midnightblue" points="492.706,-138.636 484.519,-131.911 486.725,-142.273 492.706,-138.636"/>
</g>
<!-- Node25&#45;&gt;Node4 -->
<g id="edge46" class="edge"><title>Node25&#45;&gt;Node4</title>
<path fill="none" stroke="midnightblue" d="M824.322,-336.462C863.984,-315.555 958,-257.697 958,-179 958,-179 958,-179 958,-121 958,-36.1312 832.784,-16.4586 762.866,-12.0891"/>
<polygon fill="midnightblue" stroke="midnightblue" points="762.735,-8.5769 752.56,-11.5304 762.356,-15.5666 762.735,-8.5769"/>
</g>
<!-- Node25&#45;&gt;Node7 -->
<g id="edge51" class="edge"><title>Node25&#45;&gt;Node7</title>
<path fill="none" stroke="midnightblue" d="M758.355,-336.444C703.169,-326.737 613.347,-310.937 555.479,-300.758"/>
<polygon fill="midnightblue" stroke="midnightblue" points="555.87,-297.274 545.415,-298.988 554.657,-304.168 555.87,-297.274"/>
</g>
<!-- Node25&#45;&gt;Node9 -->
<g id="edge49" class="edge"><title>Node25&#45;&gt;Node9</title>
<path fill="none" stroke="midnightblue" d="M751.821,-339.111C680.89,-331.314 553.996,-316.599 446,-300 411.837,-294.749 167.929,-264.363 140,-244 86.7948,-205.208 67.6573,-122.932 61.5501,-85.836"/>
<polygon fill="midnightblue" stroke="midnightblue" points="64.9998,-85.2394 60.0498,-75.8721 58.0778,-86.2817 64.9998,-85.2394"/>
</g>
<!-- Node25&#45;&gt;Node14 -->
<g id="edge50" class="edge"><title>Node25&#45;&gt;Node14</title>
<path fill="none" stroke="midnightblue" d="M800.576,-336.174C794.542,-327.432 785.752,-313.441 781,-300 768.756,-265.37 764.385,-222.384 762.837,-198.085"/>
<polygon fill="midnightblue" stroke="midnightblue" points="766.314,-197.573 762.281,-187.775 759.324,-197.949 766.314,-197.573"/>
</g>
<!-- Node26 -->
<g id="node26" class="node"><title>Node26</title>
<polygon fill="none" stroke="#bfbfbf" points="252.5,-280.5 252.5,-299.5 295.5,-299.5 295.5,-280.5 252.5,-280.5"/>
<text text-anchor="middle" x="274" y="-287.5" font-family="Helvetica,sans-Serif" font-size="10.00">cstdio</text>
</g>
<!-- Node25&#45;&gt;Node26 -->
<g id="edge47" class="edge"><title>Node25&#45;&gt;Node26</title>
<path fill="none" stroke="midnightblue" d="M751.853,-342.795C659.766,-338.491 469.101,-326.924 310,-300 308.531,-299.751 307.034,-299.474 305.525,-299.176"/>
<polygon fill="midnightblue" stroke="midnightblue" points="306.108,-295.72 295.587,-296.973 304.593,-302.554 306.108,-295.72"/>
</g>
<!-- Node27 -->
<g id="node27" class="node"><title>Node27</title>
<polygon fill="none" stroke="#bfbfbf" points="790.5,-280.5 790.5,-299.5 849.5,-299.5 849.5,-280.5 790.5,-280.5"/>
<text text-anchor="middle" x="820" y="-287.5" font-family="Helvetica,sans-Serif" font-size="10.00">inttypes.h</text>
</g>
<!-- Node25&#45;&gt;Node27 -->
<g id="edge48" class="edge"><title>Node25&#45;&gt;Node27</title>
<path fill="none" stroke="midnightblue" d="M809.147,-336.083C810.869,-328.927 813.347,-318.635 815.5,-309.691"/>
<polygon fill="midnightblue" stroke="midnightblue" points="818.955,-310.293 817.893,-299.751 812.15,-308.654 818.955,-310.293"/>
</g>
<!-- Node28 -->
<g id="node28" class="node"><title>Node28</title>
<g id="a_node28"><a xlink:href="lib__globals_8hpp.html" target="_top" xlink:title="stm/lib_globals.hpp">
<polygon fill="none" stroke="black" points="790.5,-224.5 790.5,-243.5 891.5,-243.5 891.5,-224.5 790.5,-224.5"/>
<text text-anchor="middle" x="841" y="-231.5" font-family="Helvetica,sans-Serif" font-size="10.00">stm/lib_globals.hpp</text>
</a>
</g>
</g>
<!-- Node25&#45;&gt;Node28 -->
<g id="edge52" class="edge"><title>Node25&#45;&gt;Node28</title>
<path fill="none" stroke="midnightblue" d="M822.734,-336.236C834.889,-328.481 850.812,-315.929 858,-300 864.882,-284.75 858.715,-266.183 851.961,-252.804"/>
<polygon fill="midnightblue" stroke="midnightblue" points="854.822,-250.748 846.889,-243.725 848.711,-254.162 854.822,-250.748"/>
</g>
<!-- Node28&#45;&gt;Node4 -->
<g id="edge53" class="edge"><title>Node28&#45;&gt;Node4</title>
<path fill="none" stroke="midnightblue" d="M845.724,-224.189C859.928,-196.363 898.94,-109.077 860,-56 837.981,-25.9873 795.932,-15.464 763.106,-12.0212"/>
<polygon fill="midnightblue" stroke="midnightblue" points="763.072,-8.50545 752.809,-11.1364 762.473,-15.4797 763.072,-8.50545"/>
</g>
<!-- Node28&#45;&gt;Node14 -->
<g id="edge54" class="edge"><title>Node28&#45;&gt;Node14</title>
<path fill="none" stroke="midnightblue" d="M828.307,-224.324C816.099,-215.979 797.422,-203.212 782.997,-193.352"/>
<polygon fill="midnightblue" stroke="midnightblue" points="784.892,-190.408 774.661,-187.655 780.942,-196.187 784.892,-190.408"/>
</g>
<!-- Node29&#45;&gt;Node4 -->
<g id="edge56" class="edge"><title>Node29&#45;&gt;Node4</title>
<path fill="none" stroke="midnightblue" d="M593.414,-457.5C482.323,-458.889 61,-456.913 61,-347 61,-347 61,-347 61,-177 61,-146.902 59.0433,-133.603 80,-112 161.982,-27.4899 539.157,-13.6688 671.195,-11.4274"/>
<polygon fill="midnightblue" stroke="midnightblue" points="671.427,-14.9243 681.372,-11.2696 671.319,-7.92511 671.427,-14.9243"/>
</g>
<!-- Node29&#45;&gt;Node5 -->
<g id="edge60" class="edge"><title>Node29&#45;&gt;Node5</title>
<path fill="none" stroke="midnightblue" d="M646.798,-448.916C677.068,-439.784 726.567,-424.851 760.859,-414.506"/>
<polygon fill="midnightblue" stroke="midnightblue" points="761.974,-417.826 770.537,-411.587 759.953,-411.124 761.974,-417.826"/>
</g>
<!-- Node29&#45;&gt;Node7 -->
<g id="edge59" class="edge"><title>Node29&#45;&gt;Node7</title>
<path fill="none" stroke="midnightblue" d="M613.548,-448.075C594.332,-421.493 537.256,-342.538 512.118,-307.763"/>
<polygon fill="midnightblue" stroke="midnightblue" points="514.889,-305.622 506.194,-299.568 509.216,-309.723 514.889,-305.622"/>
</g>
<!-- Node29&#45;&gt;Node14 -->
<g id="edge58" class="edge"><title>Node29&#45;&gt;Node14</title>
<path fill="none" stroke="midnightblue" d="M638.115,-448.298C667.912,-432.572 724,-396.409 724,-347 724,-347 724,-347 724,-289 724,-254.813 740.6,-217.764 751.857,-196.571"/>
<polygon fill="midnightblue" stroke="midnightblue" points="754.947,-198.215 756.716,-187.769 748.819,-194.832 754.947,-198.215"/>
</g>
<!-- Node29&#45;&gt;Node26 -->
<g id="edge57" class="edge"><title>Node29&#45;&gt;Node26</title>
<path fill="none" stroke="midnightblue" d="M601.885,-448.309C544.897,-420.968 369.048,-336.601 301.144,-304.023"/>
<polygon fill="midnightblue" stroke="midnightblue" points="302.466,-300.775 291.936,-299.605 299.438,-307.086 302.466,-300.775"/>
</g>
<!-- Node30&#45;&gt;Node4 -->
<g id="edge62" class="edge"><title>Node30&#45;&gt;Node4</title>
<path fill="none" stroke="midnightblue" d="M980.296,-392.282C997.82,-374.851 1034,-333.695 1034,-291 1034,-291 1034,-291 1034,-121 1034,-82.2823 1009.84,-74.8043 976,-56 940.193,-36.1055 827.257,-21.9854 762.963,-15.3234"/>
<polygon fill="midnightblue" stroke="midnightblue" points="763.001,-11.8094 752.699,-14.2804 762.294,-18.7736 763.001,-11.8094"/>
</g>
</g>
</svg>
        <g id="navigator" transform="translate(0 0)" fill="#404254">
                <rect fill="#f2f5e9" fill-opacity="0.5" stroke="#606060" stroke-width=".5" x="0" y="0" width="60" height="60"/>
                <use id="zoomplus" xlink:href="#zoomPlus" x="17" y="9" onmousedown="handleZoom(evt,'in')"/>
                <use id="zoomminus" xlink:href="#zoomMin" x="42" y="9" onmousedown="handleZoom(evt,'out')"/>
                <use id="reset" xlink:href="#resetDef" x="30" y="36" onmousedown="handleReset()"/>
                <g id="arrowUp" xlink:href="#dirArrow" transform="translate(30 24)" onmousedown="handlePan(0,-1)">
                  <use xlink:href="#rim" fill="#404040">
                        <set attributeName="fill" to="#808080" begin="arrowUp.mouseover" end="arrowUp.mouseout"/>
                  </use>
                  <path fill="none" stroke="white" stroke-width="1.5" d="M0,-3.0v7 M-2.5,-0.5L0,-3.0L2.5,-0.5"/>
                </g>
                <g id="arrowRight" xlink:href="#dirArrow" transform="rotate(90) translate(36 -43)" onmousedown="handlePan(1,0)">
                  <use xlink:href="#rim" fill="#404040">
                        <set attributeName="fill" to="#808080" begin="arrowRight.mouseover" end="arrowRight.mouseout"/>
                  </use>
                  <path fill="none" stroke="white" stroke-width="1.5" d="M0,-3.0v7 M-2.5,-0.5L0,-3.0L2.5,-0.5"/>
                </g>
                <g id="arrowDown" xlink:href="#dirArrow" transform="rotate(180) translate(-30 -48)" onmousedown="handlePan(0,1)">
                  <use xlink:href="#rim" fill="#404040">
                        <set attributeName="fill" to="#808080" begin="arrowDown.mouseover" end="arrowDown.mouseout"/>
                  </use>
                  <path fill="none" stroke="white" stroke-width="1.5" d="M0,-3.0v7 M-2.5,-0.5L0,-3.0L2.5,-0.5"/>
                </g>
                <g id="arrowLeft" xlink:href="#dirArrow" transform="rotate(270) translate(-36 17)" onmousedown="handlePan(-1,0)">
                  <use xlink:href="#rim" fill="#404040">
                        <set attributeName="fill" to="#808080" begin="arrowLeft.mouseover" end="arrowLeft.mouseout"/>
                  </use>
                  <path fill="none" stroke="white" stroke-width="1.5" d="M0,-3.0v7 M-2.5,-0.5L0,-3.0L2.5,-0.5"/>
                </g>
        </g>
        <svg viewBox="0 0 15 15" width="100%" height="30px" preserveAspectRatio="xMaxYMin meet">
         <g id="arrow_out" transform="scale(0.3 0.3)">
          <a xlink:href="orecfair_8cpp__incl_org.svg" target="_base">
           <rect id="button" ry="5" rx="5" y="6" x="6" height="38" width="38"
                fill="#f2f5e9" fill-opacity="0.5" stroke="#606060" stroke-width="1.0"/>
           <path id="arrow"
             d="M 11.500037,31.436501 C 11.940474,20.09759 22.043105,11.32322 32.158766,21.979434 L 37.068811,17.246167 C 37.068811,17.246167 37.088388,32 37.088388,32 L 22.160133,31.978069 C 22.160133,31.978069 26.997745,27.140456 26.997745,27.140456 C 18.528582,18.264221 13.291696,25.230495 11.500037,31.436501 z"
             style="fill:#404040;"/>
          </a>
         </g>
        </svg>
</svg>
