<?xml version="1.0" encoding="UTF-8" standalone="no"?>
<!DOCTYPE svg PUBLIC "-//W3C//DTD SVG 1.1//EN"
 "http://www.w3.org/Graphics/SVG/1.1/DTD/svg11.dtd">
<!-- Generated by graphviz version 2.36.0 (20140111.2315)
 -->
<!-- Title: rstm/rstm&#45;dev/libstm/algs/oreceagerredo.cpp Pages: 1 -->
<!--zoomable 544 -->
<svg id="main" version="1.1" xmlns="http://www.w3.org/2000/svg" xmlns:xlink="http://www.w3.org/1999/xlink" xml:space="preserve" onload="init(evt)">
<style type="text/css"><![CDATA[
.edge:hover path { stroke: red; }
.edge:hover polygon { stroke: red; fill: red; }
]]></style>
<script type="text/javascript"><![CDATA[
var edges = document.getElementsByTagName('g');
if (edges && edges.length) {
  for (var i=0;i<edges.length;i++) {
    if (edges[i].id.substr(0,4)=='edge') {
      edges[i].setAttribute('class','edge');
    }
  }
}
]]></script>
        <defs>
                <circle id="rim" cx="0" cy="0" r="7"/>
                <circle id="rim2" cx="0" cy="0" r="3.5"/>
                <g id="zoomPlus">
                        <use xlink:href="#rim" fill="#404040">
                                <set attributeName="fill" to="#808080" begin="zoomplus.mouseover" end="zoomplus.mouseout"/>
                        </use>
                        <path d="M-4,0h8M0,-4v8" fill="none" stroke="white" stroke-width="1.5" pointer-events="none"/>
                </g>
                <g id="zoomMin">
                        <use xlink:href="#rim" fill="#404040">
                                <set attributeName="fill" to="#808080" begin="zoomminus.mouseover" end="zoomminus.mouseout"/>
                        </use>
                        <path d="M-4,0h8" fill="none" stroke="white" stroke-width="1.5" pointer-events="none"/>
                </g>
                <g id="dirArrow">
                        <path fill="none" stroke="white" stroke-width="1.5" d="M0,-3.0v7 M-2.5,-0.5L0,-3.0L2.5,-0.5"/>
                </g>
               <g id="resetDef">
                       <use xlink:href="#rim2" fill="#404040">
                               <set attributeName="fill" to="#808080" begin="reset.mouseover" end="reset.mouseout"/>
                       </use>
               </g>
        </defs>

<script type="text/javascript">
var viewWidth = 1155;
var viewHeight = 544;
var sectionId = 'dynsection-0';
</script>
<script xlink:href="svgpan.js"/>
<svg id="graph" class="graph">
<g id="viewport">
<title>rstm/rstm&#45;dev/libstm/algs/oreceagerredo.cpp</title>
<!-- Node1 -->
<g id="node1" class="node"><title>Node1</title>
<polygon fill="#bfbfbf" stroke="black" points="479.5,-505 479.5,-535 600.5,-535 600.5,-505 479.5,-505"/>
<text text-anchor="start" x="487.5" y="-523" font-family="Helvetica,sans-Serif" font-size="10.00">rstm/rstm&#45;dev/libstm</text>
<text text-anchor="middle" x="540" y="-512" font-family="Helvetica,sans-Serif" font-size="10.00">/algs/oreceagerredo.cpp</text>
</g>
<!-- Node2 -->
<g id="node2" class="node"><title>Node2</title>
<g id="a_node2"><a xlink:href="profiling_8hpp.html" target="_top" xlink:title="../profiling.hpp">
<polygon fill="none" stroke="black" points="392,-392.5 392,-411.5 470,-411.5 470,-392.5 392,-392.5"/>
<text text-anchor="middle" x="431" y="-399.5" font-family="Helvetica,sans-Serif" font-size="10.00">../profiling.hpp</text>
</a>
</g>
</g>
<!-- Node1&#45;&gt;Node2 -->
<g id="edge1" class="edge"><title>Node1&#45;&gt;Node2</title>
<path fill="none" stroke="midnightblue" d="M526.634,-504.776C506.281,-483.116 467.629,-441.981 446.222,-419.2"/>
<polygon fill="midnightblue" stroke="midnightblue" points="448.58,-416.598 439.182,-411.707 443.479,-421.391 448.58,-416.598"/>
</g>
<!-- Node29 -->
<g id="node29" class="node"><title>Node29</title>
<g id="a_node29"><a xlink:href="algs_8hpp.html" target="_top" xlink:title="algs.hpp">
<polygon fill="none" stroke="black" points="513.5,-448.5 513.5,-467.5 566.5,-467.5 566.5,-448.5 513.5,-448.5"/>
<text text-anchor="middle" x="540" y="-455.5" font-family="Helvetica,sans-Serif" font-size="10.00">algs.hpp</text>
</a>
</g>
</g>
<!-- Node1&#45;&gt;Node29 -->
<g id="edge54" class="edge"><title>Node1&#45;&gt;Node29</title>
<path fill="none" stroke="midnightblue" d="M540,-504.781C540,-496.781 540,-486.689 540,-478.017"/>
<polygon fill="midnightblue" stroke="midnightblue" points="543.5,-477.73 540,-467.731 536.5,-477.731 543.5,-477.73"/>
</g>
<!-- Node30 -->
<g id="node30" class="node"><title>Node30</title>
<g id="a_node30"><a xlink:href="RedoRAWUtils_8hpp.html" target="_top" xlink:title="RedoRAWUtils.hpp">
<polygon fill="none" stroke="black" points="1043.5,-392.5 1043.5,-411.5 1146.5,-411.5 1146.5,-392.5 1043.5,-392.5"/>
<text text-anchor="middle" x="1095" y="-399.5" font-family="Helvetica,sans-Serif" font-size="10.00">RedoRAWUtils.hpp</text>
</a>
</g>
</g>
<!-- Node1&#45;&gt;Node30 -->
<g id="edge60" class="edge"><title>Node1&#45;&gt;Node30</title>
<path fill="none" stroke="midnightblue" d="M600.717,-506.31C710.848,-483.291 941.612,-435.059 1044.09,-413.64"/>
<polygon fill="midnightblue" stroke="midnightblue" points="1045.11,-417.003 1054.19,-411.531 1043.68,-410.151 1045.11,-417.003"/>
</g>
<!-- Node3 -->
<g id="node3" class="node"><title>Node3</title>
<polygon fill="none" stroke="#bfbfbf" points="552.5,-56.5 552.5,-75.5 597.5,-75.5 597.5,-56.5 552.5,-56.5"/>
<text text-anchor="middle" x="575" y="-63.5" font-family="Helvetica,sans-Serif" font-size="10.00">cstdlib</text>
</g>
<!-- Node2&#45;&gt;Node3 -->
<g id="edge2" class="edge"><title>Node2&#45;&gt;Node3</title>
<path fill="none" stroke="midnightblue" d="M435.099,-392.478C446.173,-370.371 478.924,-310.774 524,-280 571.395,-247.643 613.54,-289.888 648,-244 653.338,-236.892 649.919,-232.679 648,-224 644.782,-209.446 602.726,-123.193 583.949,-85.0847"/>
<polygon fill="midnightblue" stroke="midnightblue" points="586.887,-83.1296 579.321,-75.7124 580.61,-86.2286 586.887,-83.1296"/>
</g>
<!-- Node4 -->
<g id="node4" class="node"><title>Node4</title>
<polygon fill="none" stroke="#bfbfbf" points="421.5,-0.5 421.5,-19.5 492.5,-19.5 492.5,-0.5 421.5,-0.5"/>
<text text-anchor="middle" x="457" y="-7.5" font-family="Helvetica,sans-Serif" font-size="10.00">stm/config.h</text>
</g>
<!-- Node2&#45;&gt;Node4 -->
<g id="edge3" class="edge"><title>Node2&#45;&gt;Node4</title>
<path fill="none" stroke="midnightblue" d="M391.897,-398.693C348.635,-394.775 277.917,-384.241 224,-356 160.2,-322.582 116.598,-294.764 130,-224 144.927,-145.179 133.804,-106.667 196,-56 228.232,-29.7431 345.151,-18.1274 411.038,-13.5697"/>
<polygon fill="midnightblue" stroke="midnightblue" points="411.408,-17.053 421.154,-12.8977 410.944,-10.0684 411.408,-17.053"/>
</g>
<!-- Node5 -->
<g id="node5" class="node"><title>Node5</title>
<g id="a_node5"><a xlink:href="txthread_8hpp.html" target="_top" xlink:title="stm/txthread.hpp">
<polygon fill="none" stroke="black" points="533,-280.5 533,-299.5 623,-299.5 623,-280.5 533,-280.5"/>
<text text-anchor="middle" x="578" y="-287.5" font-family="Helvetica,sans-Serif" font-size="10.00">stm/txthread.hpp</text>
</a>
</g>
</g>
<!-- Node2&#45;&gt;Node5 -->
<g id="edge4" class="edge"><title>Node2&#45;&gt;Node5</title>
<path fill="none" stroke="midnightblue" d="M442.535,-392.368C467.545,-373.653 527.017,-329.151 558.178,-305.832"/>
<polygon fill="midnightblue" stroke="midnightblue" points="560.609,-308.385 566.519,-299.591 556.415,-302.78 560.609,-308.385"/>
</g>
<!-- Node25 -->
<g id="node25" class="node"><title>Node25</title>
<g id="a_node25"><a xlink:href="policies_8hpp.html" target="_top" xlink:title="./policies/policies.hpp">
<polygon fill="none" stroke="black" points="233,-336.5 233,-355.5 343,-355.5 343,-336.5 233,-336.5"/>
<text text-anchor="middle" x="288" y="-343.5" font-family="Helvetica,sans-Serif" font-size="10.00">./policies/policies.hpp</text>
</a>
</g>
</g>
<!-- Node2&#45;&gt;Node25 -->
<g id="edge44" class="edge"><title>Node2&#45;&gt;Node25</title>
<path fill="none" stroke="midnightblue" d="M408.341,-392.444C384.598,-383.478 347.091,-369.314 320.262,-359.183"/>
<polygon fill="midnightblue" stroke="midnightblue" points="321.144,-355.775 310.553,-355.516 318.671,-362.324 321.144,-355.775"/>
</g>
<!-- Node6 -->
<g id="node6" class="node"><title>Node6</title>
<g id="a_node6"><a xlink:href="rand__r__32_8h.html" target="_top" xlink:title="alt&#45;license/rand_r_32.h">
<polygon fill="none" stroke="black" points="524.5,-224.5 524.5,-243.5 639.5,-243.5 639.5,-224.5 524.5,-224.5"/>
<text text-anchor="middle" x="582" y="-231.5" font-family="Helvetica,sans-Serif" font-size="10.00">alt&#45;license/rand_r_32.h</text>
</a>
</g>
</g>
<!-- Node5&#45;&gt;Node6 -->
<g id="edge5" class="edge"><title>Node5&#45;&gt;Node6</title>
<path fill="none" stroke="midnightblue" d="M578.661,-280.083C579.185,-273.006 579.936,-262.861 580.594,-253.986"/>
<polygon fill="midnightblue" stroke="midnightblue" points="584.103,-253.982 581.352,-243.751 577.123,-253.465 584.103,-253.982"/>
</g>
<!-- Node8 -->
<g id="node8" class="node"><title>Node8</title>
<g id="a_node8"><a xlink:href="locks_8hpp.html" target="_top" xlink:title="common/locks.hpp">
<polygon fill="none" stroke="black" points="28.5,-112.5 28.5,-131.5 127.5,-131.5 127.5,-112.5 28.5,-112.5"/>
<text text-anchor="middle" x="78" y="-119.5" font-family="Helvetica,sans-Serif" font-size="10.00">common/locks.hpp</text>
</a>
</g>
</g>
<!-- Node5&#45;&gt;Node8 -->
<g id="edge8" class="edge"><title>Node5&#45;&gt;Node8</title>
<path fill="none" stroke="midnightblue" d="M532.855,-287.046C425.599,-282.042 162.036,-267.481 130,-244 96.598,-219.518 84.4308,-169.108 80.1708,-141.715"/>
<polygon fill="midnightblue" stroke="midnightblue" points="83.6014,-140.966 78.7903,-131.527 76.6648,-141.906 83.6014,-140.966"/>
</g>
<!-- Node13 -->
<g id="node13" class="node"><title>Node13</title>
<g id="a_node13"><a xlink:href="ThreadLocal_8hpp.html" target="_top" xlink:title="common/ThreadLocal.hpp">
<polygon fill="none" stroke="black" points="772.5,-224.5 772.5,-243.5 901.5,-243.5 901.5,-224.5 772.5,-224.5"/>
<text text-anchor="middle" x="837" y="-231.5" font-family="Helvetica,sans-Serif" font-size="10.00">common/ThreadLocal.hpp</text>
</a>
</g>
</g>
<!-- Node5&#45;&gt;Node13 -->
<g id="edge14" class="edge"><title>Node5&#45;&gt;Node13</title>
<path fill="none" stroke="midnightblue" d="M619.039,-280.444C664.316,-271.004 737.227,-255.802 786.106,-245.611"/>
<polygon fill="midnightblue" stroke="midnightblue" points="787.078,-248.984 796.153,-243.516 785.649,-242.131 787.078,-248.984"/>
</g>
<!-- Node14 -->
<g id="node14" class="node"><title>Node14</title>
<g id="a_node14"><a xlink:href="metadata_8hpp.html" target="_top" xlink:title="stm/metadata.hpp">
<polygon fill="none" stroke="black" points="297.5,-168.5 297.5,-187.5 392.5,-187.5 392.5,-168.5 297.5,-168.5"/>
<text text-anchor="middle" x="345" y="-175.5" font-family="Helvetica,sans-Serif" font-size="10.00">stm/metadata.hpp</text>
</a>
</g>
</g>
<!-- Node5&#45;&gt;Node14 -->
<g id="edge16" class="edge"><title>Node5&#45;&gt;Node14</title>
<path fill="none" stroke="midnightblue" d="M532.63,-280.578C488.068,-271.746 423.704,-257.324 402,-244 382.484,-232.018 365.983,-211.229 355.837,-196.388"/>
<polygon fill="midnightblue" stroke="midnightblue" points="358.521,-194.099 350.118,-187.646 352.663,-197.93 358.521,-194.099"/>
</g>
<!-- Node19 -->
<g id="node19" class="node"><title>Node19</title>
<g id="a_node19"><a xlink:href="WriteSet_8hpp.html" target="_top" xlink:title="stm/WriteSet.hpp">
<polygon fill="none" stroke="black" points="646.5,-112.5 646.5,-131.5 739.5,-131.5 739.5,-112.5 646.5,-112.5"/>
<text text-anchor="middle" x="693" y="-119.5" font-family="Helvetica,sans-Serif" font-size="10.00">stm/WriteSet.hpp</text>
</a>
</g>
</g>
<!-- Node5&#45;&gt;Node19 -->
<g id="edge26" class="edge"><title>Node5&#45;&gt;Node19</title>
<path fill="none" stroke="midnightblue" d="M616.834,-280.476C642.395,-273.558 675.684,-261.956 701,-244 727.272,-225.366 736.142,-218.324 747,-188 749.996,-179.631 750.77,-176.05 747,-168 740.955,-155.094 729.188,-144.599 718.177,-137"/>
<polygon fill="midnightblue" stroke="midnightblue" points="719.943,-133.975 709.633,-131.536 716.172,-139.872 719.943,-133.975"/>
</g>
<!-- Node21 -->
<g id="node21" class="node"><title>Node21</title>
<g id="a_node21"><a xlink:href="UndoLog_8hpp.html" target="_top" xlink:title="stm/UndoLog.hpp">
<polygon fill="none" stroke="black" points="869,-168.5 869,-187.5 963,-187.5 963,-168.5 869,-168.5"/>
<text text-anchor="middle" x="916" y="-175.5" font-family="Helvetica,sans-Serif" font-size="10.00">stm/UndoLog.hpp</text>
</a>
</g>
</g>
<!-- Node5&#45;&gt;Node21 -->
<g id="edge31" class="edge"><title>Node5&#45;&gt;Node21</title>
<path fill="none" stroke="midnightblue" d="M623.268,-289.528C704.805,-289.444 871.468,-284.213 910,-244 921.621,-231.872 921.797,-211.999 919.885,-197.414"/>
<polygon fill="midnightblue" stroke="midnightblue" points="923.325,-196.765 918.171,-187.508 916.427,-197.959 923.325,-196.765"/>
</g>
<!-- Node23 -->
<g id="node23" class="node"><title>Node23</title>
<g id="a_node23"><a xlink:href="ValueList_8hpp.html" target="_top" xlink:title="stm/ValueList.hpp">
<polygon fill="none" stroke="black" points="643.5,-168.5 643.5,-187.5 738.5,-187.5 738.5,-168.5 643.5,-168.5"/>
<text text-anchor="middle" x="691" y="-175.5" font-family="Helvetica,sans-Serif" font-size="10.00">stm/ValueList.hpp</text>
</a>
</g>
</g>
<!-- Node5&#45;&gt;Node23 -->
<g id="edge36" class="edge"><title>Node5&#45;&gt;Node23</title>
<path fill="none" stroke="midnightblue" d="M622.242,-280.466C643.572,-274.04 667.594,-262.95 682,-244 692.01,-230.833 693.561,-211.694 693.028,-197.592"/>
<polygon fill="midnightblue" stroke="midnightblue" points="696.514,-197.282 692.275,-187.573 689.534,-197.807 696.514,-197.282"/>
</g>
<!-- Node24 -->
<g id="node24" class="node"><title>Node24</title>
<g id="a_node24"><a xlink:href="WBMMPolicy_8hpp.html" target="_top" xlink:title="WBMMPolicy.hpp">
<polygon fill="none" stroke="black" points="411.5,-224.5 411.5,-243.5 506.5,-243.5 506.5,-224.5 411.5,-224.5"/>
<text text-anchor="middle" x="459" y="-231.5" font-family="Helvetica,sans-Serif" font-size="10.00">WBMMPolicy.hpp</text>
</a>
</g>
</g>
<!-- Node5&#45;&gt;Node24 -->
<g id="edge39" class="edge"><title>Node5&#45;&gt;Node24</title>
<path fill="none" stroke="midnightblue" d="M559.144,-280.444C539.734,-271.636 509.27,-257.812 487.035,-247.722"/>
<polygon fill="midnightblue" stroke="midnightblue" points="488.32,-244.462 477.768,-243.516 485.428,-250.836 488.32,-244.462"/>
</g>
<!-- Node6&#45;&gt;Node4 -->
<g id="edge7" class="edge"><title>Node6&#45;&gt;Node4</title>
<path fill="none" stroke="midnightblue" d="M578.793,-224.417C573.397,-210.942 561.362,-184.645 544,-168 519.316,-144.334 495.864,-159.835 476,-132 454.148,-101.38 453.424,-55.2972 455.063,-29.7448"/>
<polygon fill="midnightblue" stroke="midnightblue" points="458.567,-29.8358 455.914,-19.5785 451.592,-29.2514 458.567,-29.8358"/>
</g>
<!-- Node7 -->
<g id="node7" class="node"><title>Node7</title>
<polygon fill="none" stroke="#bfbfbf" points="487,-168.5 487,-187.5 535,-187.5 535,-168.5 487,-168.5"/>
<text text-anchor="middle" x="511" y="-175.5" font-family="Helvetica,sans-Serif" font-size="10.00">stdlib.h</text>
</g>
<!-- Node6&#45;&gt;Node7 -->
<g id="edge6" class="edge"><title>Node6&#45;&gt;Node7</title>
<path fill="none" stroke="midnightblue" d="M570.593,-224.324C559.891,-216.185 543.659,-203.839 530.837,-194.087"/>
<polygon fill="midnightblue" stroke="midnightblue" points="532.693,-191.102 522.615,-187.834 528.456,-196.673 532.693,-191.102"/>
</g>
<!-- Node9 -->
<g id="node9" class="node"><title>Node9</title>
<g id="a_node9"><a xlink:href="platform_8hpp.html" target="_top" xlink:title="common/platform.hpp">
<polygon fill="none" stroke="black" points="16.5,-56.5 16.5,-75.5 127.5,-75.5 127.5,-56.5 16.5,-56.5"/>
<text text-anchor="middle" x="72" y="-63.5" font-family="Helvetica,sans-Serif" font-size="10.00">common/platform.hpp</text>
</a>
</g>
</g>
<!-- Node8&#45;&gt;Node9 -->
<g id="edge9" class="edge"><title>Node8&#45;&gt;Node9</title>
<path fill="none" stroke="midnightblue" d="M77.0092,-112.083C76.2141,-104.927 75.0706,-94.6353 74.0768,-85.6911"/>
<polygon fill="midnightblue" stroke="midnightblue" points="77.5553,-85.3034 72.9723,-75.7511 70.5982,-86.0765 77.5553,-85.3034"/>
</g>
<!-- Node9&#45;&gt;Node4 -->
<g id="edge10" class="edge"><title>Node9&#45;&gt;Node4</title>
<path fill="none" stroke="midnightblue" d="M127.571,-57.2056C204.084,-46.4739 340.437,-27.3491 411.338,-17.4045"/>
<polygon fill="midnightblue" stroke="midnightblue" points="411.892,-20.8611 421.309,-16.006 410.92,-13.929 411.892,-20.8611"/>
</g>
<!-- Node10 -->
<g id="node10" class="node"><title>Node10</title>
<polygon fill="none" stroke="#bfbfbf" points="196.5,-0.5 196.5,-19.5 245.5,-19.5 245.5,-0.5 196.5,-0.5"/>
<text text-anchor="middle" x="221" y="-7.5" font-family="Helvetica,sans-Serif" font-size="10.00">stdint.h</text>
</g>
<!-- Node9&#45;&gt;Node10 -->
<g id="edge11" class="edge"><title>Node9&#45;&gt;Node10</title>
<path fill="none" stroke="midnightblue" d="M95.6095,-56.4435C120.458,-47.4381 159.774,-33.1891 187.754,-23.049"/>
<polygon fill="midnightblue" stroke="midnightblue" points="189.292,-26.2144 197.501,-19.5164 186.907,-19.6332 189.292,-26.2144"/>
</g>
<!-- Node11 -->
<g id="node11" class="node"><title>Node11</title>
<polygon fill="none" stroke="#bfbfbf" points="14,-0.5 14,-19.5 62,-19.5 62,-0.5 14,-0.5"/>
<text text-anchor="middle" x="38" y="-7.5" font-family="Helvetica,sans-Serif" font-size="10.00">limits.h</text>
</g>
<!-- Node9&#45;&gt;Node11 -->
<g id="edge12" class="edge"><title>Node9&#45;&gt;Node11</title>
<path fill="none" stroke="midnightblue" d="M66.3856,-56.083C61.6326,-48.5341 54.6819,-37.4948 48.8484,-28.2298"/>
<polygon fill="midnightblue" stroke="midnightblue" points="51.7999,-26.3486 43.5099,-19.7511 45.8763,-30.0783 51.7999,-26.3486"/>
</g>
<!-- Node12 -->
<g id="node12" class="node"><title>Node12</title>
<polygon fill="none" stroke="#bfbfbf" points="80.5,-0.5 80.5,-19.5 131.5,-19.5 131.5,-0.5 80.5,-0.5"/>
<text text-anchor="middle" x="106" y="-7.5" font-family="Helvetica,sans-Serif" font-size="10.00">unistd.h</text>
</g>
<!-- Node9&#45;&gt;Node12 -->
<g id="edge13" class="edge"><title>Node9&#45;&gt;Node12</title>
<path fill="none" stroke="midnightblue" d="M77.6144,-56.083C82.3674,-48.5341 89.3181,-37.4948 95.1516,-28.2298"/>
<polygon fill="midnightblue" stroke="midnightblue" points="98.1237,-30.0783 100.49,-19.7511 92.2001,-26.3486 98.1237,-30.0783"/>
</g>
<!-- Node13&#45;&gt;Node4 -->
<g id="edge15" class="edge"><title>Node13&#45;&gt;Node4</title>
<path fill="none" stroke="midnightblue" d="M837.989,-224.338C840.758,-195.431 845.368,-101.539 795,-56 752.995,-18.0221 584.998,-11.6757 502.785,-10.8931"/>
<polygon fill="midnightblue" stroke="midnightblue" points="502.749,-7.3929 492.724,-10.8212 502.698,-14.3927 502.749,-7.3929"/>
</g>
<!-- Node14&#45;&gt;Node4 -->
<g id="edge17" class="edge"><title>Node14&#45;&gt;Node4</title>
<path fill="none" stroke="midnightblue" d="M347.903,-168.428C355.205,-147.668 375.858,-93.6353 405,-56 413.794,-44.6428 425.808,-34.0215 436.072,-25.9528"/>
<polygon fill="midnightblue" stroke="midnightblue" points="438.316,-28.6437 444.174,-19.8154 434.089,-23.0639 438.316,-28.6437"/>
</g>
<!-- Node15 -->
<g id="node15" class="node"><title>Node15</title>
<g id="a_node15"><a xlink:href="MiniVector_8hpp.html" target="_top" xlink:title="stm/MiniVector.hpp">
<polygon fill="none" stroke="black" points="485.5,-112.5 485.5,-131.5 586.5,-131.5 586.5,-112.5 485.5,-112.5"/>
<text text-anchor="middle" x="536" y="-119.5" font-family="Helvetica,sans-Serif" font-size="10.00">stm/MiniVector.hpp</text>
</a>
</g>
</g>
<!-- Node14&#45;&gt;Node15 -->
<g id="edge18" class="edge"><title>Node14&#45;&gt;Node15</title>
<path fill="none" stroke="midnightblue" d="M375.265,-168.444C407.955,-159.201 460.182,-144.436 496.183,-134.257"/>
<polygon fill="midnightblue" stroke="midnightblue" points="497.206,-137.605 505.877,-131.516 495.302,-130.869 497.206,-137.605"/>
</g>
<!-- Node18 -->
<g id="node18" class="node"><title>Node18</title>
<g id="a_node18"><a xlink:href="BitFilter_8hpp.html" target="_top" xlink:title="stm/BitFilter.hpp">
<polygon fill="none" stroke="black" points="222.5,-56.5 222.5,-75.5 311.5,-75.5 311.5,-56.5 222.5,-56.5"/>
<text text-anchor="middle" x="267" y="-63.5" font-family="Helvetica,sans-Serif" font-size="10.00">stm/BitFilter.hpp</text>
</a>
</g>
</g>
<!-- Node14&#45;&gt;Node18 -->
<g id="edge23" class="edge"><title>Node14&#45;&gt;Node18</title>
<path fill="none" stroke="midnightblue" d="M338.879,-168.368C326.007,-150.215 295.932,-107.802 279.048,-83.9902"/>
<polygon fill="midnightblue" stroke="midnightblue" points="281.731,-81.7243 273.092,-75.5914 276.021,-85.7733 281.731,-81.7243"/>
</g>
<!-- Node15&#45;&gt;Node3 -->
<g id="edge20" class="edge"><title>Node15&#45;&gt;Node3</title>
<path fill="none" stroke="midnightblue" d="M542.44,-112.083C547.949,-104.455 556.031,-93.2645 562.765,-83.9408"/>
<polygon fill="midnightblue" stroke="midnightblue" points="565.662,-85.9071 568.68,-75.7511 559.987,-81.8087 565.662,-85.9071"/>
</g>
<!-- Node15&#45;&gt;Node9 -->
<g id="edge22" class="edge"><title>Node15&#45;&gt;Node9</title>
<path fill="none" stroke="midnightblue" d="M485.461,-115.118C401.016,-105.291 231.297,-85.5389 137.7,-74.6461"/>
<polygon fill="midnightblue" stroke="midnightblue" points="137.841,-71.1389 127.503,-73.4594 137.031,-78.092 137.841,-71.1389"/>
</g>
<!-- Node16 -->
<g id="node16" class="node"><title>Node16</title>
<polygon fill="none" stroke="#bfbfbf" points="615.5,-56.5 615.5,-75.5 664.5,-75.5 664.5,-56.5 615.5,-56.5"/>
<text text-anchor="middle" x="640" y="-63.5" font-family="Helvetica,sans-Serif" font-size="10.00">cassert</text>
</g>
<!-- Node15&#45;&gt;Node16 -->
<g id="edge19" class="edge"><title>Node15&#45;&gt;Node16</title>
<path fill="none" stroke="midnightblue" d="M552.709,-112.324C569.312,-103.703 595.002,-90.3643 614.22,-80.3855"/>
<polygon fill="midnightblue" stroke="midnightblue" points="616.07,-83.3689 623.332,-75.6545 612.844,-77.1565 616.07,-83.3689"/>
</g>
<!-- Node17 -->
<g id="node17" class="node"><title>Node17</title>
<polygon fill="none" stroke="#bfbfbf" points="485.5,-56.5 485.5,-75.5 534.5,-75.5 534.5,-56.5 485.5,-56.5"/>
<text text-anchor="middle" x="510" y="-63.5" font-family="Helvetica,sans-Serif" font-size="10.00">string.h</text>
</g>
<!-- Node15&#45;&gt;Node17 -->
<g id="edge21" class="edge"><title>Node15&#45;&gt;Node17</title>
<path fill="none" stroke="midnightblue" d="M531.707,-112.083C528.148,-104.691 522.978,-93.9533 518.576,-84.8111"/>
<polygon fill="midnightblue" stroke="midnightblue" points="521.705,-83.2427 514.213,-75.7511 515.398,-86.2795 521.705,-83.2427"/>
</g>
<!-- Node18&#45;&gt;Node4 -->
<g id="edge24" class="edge"><title>Node18&#45;&gt;Node4</title>
<path fill="none" stroke="midnightblue" d="M297.106,-56.4435C329.626,-47.2011 381.579,-32.4356 417.391,-22.2572"/>
<polygon fill="midnightblue" stroke="midnightblue" points="418.373,-25.617 427.035,-19.5164 416.459,-18.8837 418.373,-25.617"/>
</g>
<!-- Node18&#45;&gt;Node10 -->
<g id="edge25" class="edge"><title>Node18&#45;&gt;Node10</title>
<path fill="none" stroke="midnightblue" d="M259.404,-56.083C252.773,-48.2982 242.979,-36.8015 234.942,-27.3665"/>
<polygon fill="midnightblue" stroke="midnightblue" points="237.604,-25.0939 228.455,-19.7511 232.275,-29.6332 237.604,-25.0939"/>
</g>
<!-- Node19&#45;&gt;Node3 -->
<g id="edge28" class="edge"><title>Node19&#45;&gt;Node3</title>
<path fill="none" stroke="midnightblue" d="M674.303,-112.444C655.056,-103.636 624.848,-89.8116 602.8,-79.722"/>
<polygon fill="midnightblue" stroke="midnightblue" points="604.16,-76.4951 593.61,-75.5164 601.247,-82.8603 604.16,-76.4951"/>
</g>
<!-- Node19&#45;&gt;Node4 -->
<g id="edge27" class="edge"><title>Node19&#45;&gt;Node4</title>
<path fill="none" stroke="midnightblue" d="M692.973,-112.395C692.436,-98.4009 689.234,-70.7891 673,-56 648.542,-33.7189 558.736,-21.0174 502.913,-15.1127"/>
<polygon fill="midnightblue" stroke="midnightblue" points="503.213,-11.6252 492.908,-14.0885 502.5,-18.5888 503.213,-11.6252"/>
</g>
<!-- Node19&#45;&gt;Node16 -->
<g id="edge30" class="edge"><title>Node19&#45;&gt;Node16</title>
<path fill="none" stroke="midnightblue" d="M684.248,-112.083C676.53,-104.22 665.095,-92.5688 655.783,-83.0813"/>
<polygon fill="midnightblue" stroke="midnightblue" points="658.092,-80.4363 648.589,-75.7511 653.096,-85.3396 658.092,-80.4363"/>
</g>
<!-- Node20 -->
<g id="node20" class="node"><title>Node20</title>
<polygon fill="none" stroke="#bfbfbf" points="721,-56.5 721,-75.5 767,-75.5 767,-56.5 721,-56.5"/>
<text text-anchor="middle" x="744" y="-63.5" font-family="Helvetica,sans-Serif" font-size="10.00">cstring</text>
</g>
<!-- Node19&#45;&gt;Node20 -->
<g id="edge29" class="edge"><title>Node19&#45;&gt;Node20</title>
<path fill="none" stroke="midnightblue" d="M701.422,-112.083C708.848,-104.22 719.852,-92.5688 728.812,-83.0813"/>
<polygon fill="midnightblue" stroke="midnightblue" points="731.413,-85.4244 735.735,-75.7511 726.324,-80.618 731.413,-85.4244"/>
</g>
<!-- Node21&#45;&gt;Node4 -->
<g id="edge32" class="edge"><title>Node21&#45;&gt;Node4</title>
<path fill="none" stroke="midnightblue" d="M910.992,-168.387C905.74,-159.339 897.255,-144.689 890,-132 870.737,-98.3089 879.347,-77.4433 847,-56 791.535,-19.232 593.776,-12.3732 503.068,-11.1883"/>
<polygon fill="midnightblue" stroke="midnightblue" points="502.851,-7.68568 492.813,-11.0727 502.772,-14.6852 502.851,-7.68568"/>
</g>
<!-- Node21&#45;&gt;Node15 -->
<g id="edge33" class="edge"><title>Node21&#45;&gt;Node15</title>
<path fill="none" stroke="midnightblue" d="M868.641,-170.27C799.949,-160.509 672.638,-142.417 597.002,-131.669"/>
<polygon fill="midnightblue" stroke="midnightblue" points="597.077,-128.144 586.684,-130.203 596.092,-135.075 597.077,-128.144"/>
</g>
<!-- Node22 -->
<g id="node22" class="node"><title>Node22</title>
<g id="a_node22"><a xlink:href="include_2stm_2macros_8hpp.html" target="_top" xlink:title="stm/macros.hpp">
<polygon fill="none" stroke="black" points="899.5,-112.5 899.5,-131.5 986.5,-131.5 986.5,-112.5 899.5,-112.5"/>
<text text-anchor="middle" x="943" y="-119.5" font-family="Helvetica,sans-Serif" font-size="10.00">stm/macros.hpp</text>
</a>
</g>
</g>
<!-- Node21&#45;&gt;Node22 -->
<g id="edge34" class="edge"><title>Node21&#45;&gt;Node22</title>
<path fill="none" stroke="midnightblue" d="M920.459,-168.083C924.154,-160.691 929.523,-149.953 934.094,-140.811"/>
<polygon fill="midnightblue" stroke="midnightblue" points="937.283,-142.261 938.624,-131.751 931.022,-139.13 937.283,-142.261"/>
</g>
<!-- Node22&#45;&gt;Node4 -->
<g id="edge35" class="edge"><title>Node22&#45;&gt;Node4</title>
<path fill="none" stroke="midnightblue" d="M938.253,-112.422C929.723,-97.943 910.305,-68.9657 885,-56 819.159,-22.2644 599.063,-13.794 502.766,-11.6878"/>
<polygon fill="midnightblue" stroke="midnightblue" points="502.816,-8.18815 492.747,-11.482 502.673,-15.1867 502.816,-8.18815"/>
</g>
<!-- Node23&#45;&gt;Node4 -->
<g id="edge37" class="edge"><title>Node23&#45;&gt;Node4</title>
<path fill="none" stroke="midnightblue" d="M705.291,-168.345C737.426,-147.852 810.012,-95.1463 776,-56 741.157,-15.8967 582.362,-10.5323 502.764,-10.433"/>
<polygon fill="midnightblue" stroke="midnightblue" points="502.535,-6.93322 492.54,-10.4488 502.546,-13.9332 502.535,-6.93322"/>
</g>
<!-- Node23&#45;&gt;Node15 -->
<g id="edge38" class="edge"><title>Node23&#45;&gt;Node15</title>
<path fill="none" stroke="midnightblue" d="M666.44,-168.444C640.477,-159.399 599.332,-145.064 570.203,-134.916"/>
<polygon fill="midnightblue" stroke="midnightblue" points="571.04,-131.501 560.445,-131.516 568.737,-138.112 571.04,-131.501"/>
</g>
<!-- Node24&#45;&gt;Node4 -->
<g id="edge41" class="edge"><title>Node24&#45;&gt;Node4</title>
<path fill="none" stroke="midnightblue" d="M456.784,-224.482C450.431,-198.871 433.219,-120.364 443,-56 444.368,-47.001 447.19,-37.3251 449.945,-29.2601"/>
<polygon fill="midnightblue" stroke="midnightblue" points="453.265,-30.3722 453.4,-19.7782 446.688,-27.9759 453.265,-30.3722"/>
</g>
<!-- Node24&#45;&gt;Node7 -->
<g id="edge40" class="edge"><title>Node24&#45;&gt;Node7</title>
<path fill="none" stroke="midnightblue" d="M467.587,-224.083C475.159,-216.22 486.378,-204.569 495.514,-195.081"/>
<polygon fill="midnightblue" stroke="midnightblue" points="498.158,-197.382 502.573,-187.751 493.115,-192.527 498.158,-197.382"/>
</g>
<!-- Node24&#45;&gt;Node14 -->
<g id="edge43" class="edge"><title>Node24&#45;&gt;Node14</title>
<path fill="none" stroke="midnightblue" d="M440.936,-224.444C422.425,-215.675 393.419,-201.935 372.145,-191.858"/>
<polygon fill="midnightblue" stroke="midnightblue" points="373.515,-188.634 362.979,-187.516 370.518,-194.96 373.515,-188.634"/>
</g>
<!-- Node24&#45;&gt;Node15 -->
<g id="edge42" class="edge"><title>Node24&#45;&gt;Node15</title>
<path fill="none" stroke="midnightblue" d="M459.827,-224.28C461.436,-211.079 465.959,-185.688 478,-168 486.572,-155.407 499.784,-144.763 511.434,-136.994"/>
<polygon fill="midnightblue" stroke="midnightblue" points="513.347,-139.925 519.936,-131.628 509.611,-134.005 513.347,-139.925"/>
</g>
<!-- Node25&#45;&gt;Node4 -->
<g id="edge45" class="edge"><title>Node25&#45;&gt;Node4</title>
<path fill="none" stroke="midnightblue" d="M285.858,-336.131C279.876,-309.54 264.891,-228.58 288,-168 314.428,-98.7194 391.033,-47.5265 431.408,-24.4985"/>
<polygon fill="midnightblue" stroke="midnightblue" points="433.339,-27.4294 440.375,-19.5084 429.935,-21.3127 433.339,-27.4294"/>
</g>
<!-- Node25&#45;&gt;Node5 -->
<g id="edge50" class="edge"><title>Node25&#45;&gt;Node5</title>
<path fill="none" stroke="midnightblue" d="M333.951,-336.444C385.222,-326.897 468.14,-311.457 522.865,-301.267"/>
<polygon fill="midnightblue" stroke="midnightblue" points="523.551,-304.699 532.741,-299.428 522.269,-297.817 523.551,-304.699"/>
</g>
<!-- Node25&#45;&gt;Node9 -->
<g id="edge48" class="edge"><title>Node25&#45;&gt;Node9</title>
<path fill="none" stroke="midnightblue" d="M237.834,-336.489C155.32,-321.052 0,-285.312 0,-235 0,-235 0,-235 0,-177 0,-146.902 2.61619,-137.248 19,-112 26.8027,-99.9759 38.7707,-89.4242 49.3608,-81.5662"/>
<polygon fill="midnightblue" stroke="midnightblue" points="51.6429,-84.2402 57.8107,-75.6258 47.6171,-78.5137 51.6429,-84.2402"/>
</g>
<!-- Node25&#45;&gt;Node14 -->
<g id="edge49" class="edge"><title>Node25&#45;&gt;Node14</title>
<path fill="none" stroke="midnightblue" d="M291.065,-336.075C300.076,-309.832 326.614,-232.545 338.779,-197.117"/>
<polygon fill="midnightblue" stroke="midnightblue" points="342.121,-198.163 342.058,-187.568 335.5,-195.889 342.121,-198.163"/>
</g>
<!-- Node26 -->
<g id="node26" class="node"><title>Node26</title>
<polygon fill="none" stroke="#bfbfbf" points="339.5,-280.5 339.5,-299.5 382.5,-299.5 382.5,-280.5 339.5,-280.5"/>
<text text-anchor="middle" x="361" y="-287.5" font-family="Helvetica,sans-Serif" font-size="10.00">cstdio</text>
</g>
<!-- Node25&#45;&gt;Node26 -->
<g id="edge46" class="edge"><title>Node25&#45;&gt;Node26</title>
<path fill="none" stroke="midnightblue" d="M299.729,-336.324C310.837,-328.107 327.742,-315.602 340.983,-305.807"/>
<polygon fill="midnightblue" stroke="midnightblue" points="343.1,-308.595 349.058,-299.834 338.937,-302.967 343.1,-308.595"/>
</g>
<!-- Node27 -->
<g id="node27" class="node"><title>Node27</title>
<polygon fill="none" stroke="#bfbfbf" points="181.5,-280.5 181.5,-299.5 240.5,-299.5 240.5,-280.5 181.5,-280.5"/>
<text text-anchor="middle" x="211" y="-287.5" font-family="Helvetica,sans-Serif" font-size="10.00">inttypes.h</text>
</g>
<!-- Node25&#45;&gt;Node27 -->
<g id="edge47" class="edge"><title>Node25&#45;&gt;Node27</title>
<path fill="none" stroke="midnightblue" d="M275.629,-336.324C263.842,-328.058 245.868,-315.453 231.864,-305.632"/>
<polygon fill="midnightblue" stroke="midnightblue" points="233.538,-302.531 223.341,-299.655 229.518,-308.262 233.538,-302.531"/>
</g>
<!-- Node28 -->
<g id="node28" class="node"><title>Node28</title>
<g id="a_node28"><a xlink:href="lib__globals_8hpp.html" target="_top" xlink:title="stm/lib_globals.hpp">
<polygon fill="none" stroke="black" points="139.5,-224.5 139.5,-243.5 240.5,-243.5 240.5,-224.5 139.5,-224.5"/>
<text text-anchor="middle" x="190" y="-231.5" font-family="Helvetica,sans-Serif" font-size="10.00">stm/lib_globals.hpp</text>
</a>
</g>
</g>
<!-- Node25&#45;&gt;Node28 -->
<g id="edge51" class="edge"><title>Node25&#45;&gt;Node28</title>
<path fill="none" stroke="midnightblue" d="M232.76,-337.416C210.007,-331.269 185.79,-320.141 172,-300 162.218,-285.713 169.743,-266.243 177.844,-252.345"/>
<polygon fill="midnightblue" stroke="midnightblue" points="180.904,-254.057 183.339,-243.746 175.005,-250.288 180.904,-254.057"/>
</g>
<!-- Node28&#45;&gt;Node4 -->
<g id="edge52" class="edge"><title>Node28&#45;&gt;Node4</title>
<path fill="none" stroke="midnightblue" d="M187.97,-224.156C181.956,-195.476 167.372,-104.12 213,-56 239.532,-28.0192 348.291,-17.1661 411.29,-13.1693"/>
<polygon fill="midnightblue" stroke="midnightblue" points="411.592,-16.6576 421.364,-12.5638 411.172,-9.67016 411.592,-16.6576"/>
</g>
<!-- Node28&#45;&gt;Node14 -->
<g id="edge53" class="edge"><title>Node28&#45;&gt;Node14</title>
<path fill="none" stroke="midnightblue" d="M214.56,-224.444C240.523,-215.399 281.668,-201.064 310.797,-190.916"/>
<polygon fill="midnightblue" stroke="midnightblue" points="312.263,-194.112 320.555,-187.516 309.96,-187.501 312.263,-194.112"/>
</g>
<!-- Node29&#45;&gt;Node2 -->
<g id="edge59" class="edge"><title>Node29&#45;&gt;Node2</title>
<path fill="none" stroke="midnightblue" d="M522.487,-448.324C504.928,-439.625 477.669,-426.12 457.469,-416.113"/>
<polygon fill="midnightblue" stroke="midnightblue" points="458.984,-412.958 448.469,-411.655 455.876,-419.23 458.984,-412.958"/>
</g>
<!-- Node29&#45;&gt;Node4 -->
<g id="edge55" class="edge"><title>Node29&#45;&gt;Node4</title>
<path fill="none" stroke="midnightblue" d="M566.556,-456.587C666.588,-454.327 1015,-439.795 1015,-347 1015,-347 1015,-347 1015,-121 1015,-16.9329 636.679,-9.66497 503.059,-10.3435"/>
<polygon fill="midnightblue" stroke="midnightblue" points="502.73,-6.84554 492.754,-10.4143 502.778,-13.8454 502.73,-6.84554"/>
</g>
<!-- Node29&#45;&gt;Node5 -->
<g id="edge58" class="edge"><title>Node29&#45;&gt;Node5</title>
<path fill="none" stroke="midnightblue" d="M542.957,-448.45C545.998,-439.455 550.737,-424.847 554,-412 563.106,-376.145 570.85,-333.587 574.925,-309.696"/>
<polygon fill="midnightblue" stroke="midnightblue" points="578.419,-310.019 576.62,-299.578 571.516,-308.862 578.419,-310.019"/>
</g>
<!-- Node29&#45;&gt;Node14 -->
<g id="edge57" class="edge"><title>Node29&#45;&gt;Node14</title>
<path fill="none" stroke="midnightblue" d="M535.72,-448.262C529.302,-435.468 516.49,-411.087 503,-392 452.805,-320.982 422.13,-317.088 375,-244 365.433,-229.164 357.248,-210.783 351.855,-197.356"/>
<polygon fill="midnightblue" stroke="midnightblue" points="355.034,-195.873 348.157,-187.814 348.507,-198.403 355.034,-195.873"/>
</g>
<!-- Node29&#45;&gt;Node26 -->
<g id="edge56" class="edge"><title>Node29&#45;&gt;Node26</title>
<path fill="none" stroke="midnightblue" d="M532.389,-448.303C521.117,-435.56 499.143,-411.242 479,-392 445.31,-359.817 403.345,-325.068 379.621,-305.877"/>
<polygon fill="midnightblue" stroke="midnightblue" points="381.739,-303.089 371.755,-299.544 377.349,-308.542 381.739,-303.089"/>
</g>
<!-- Node30&#45;&gt;Node4 -->
<g id="edge61" class="edge"><title>Node30&#45;&gt;Node4</title>
<path fill="none" stroke="midnightblue" d="M1092.17,-392.268C1086.44,-373.794 1074,-329.301 1074,-291 1074,-291 1074,-291 1074,-121 1074,-85.8636 1059.46,-73.5159 1029,-56 983.855,-30.0387 630.775,-16.4638 502.977,-12.3626"/>
<polygon fill="midnightblue" stroke="midnightblue" points="502.85,-8.85697 492.744,-12.0391 502.629,-15.8535 502.85,-8.85697"/>
</g>
</g>
</svg>
        <g id="navigator" transform="translate(0 0)" fill="#404254">
                <rect fill="#f2f5e9" fill-opacity="0.5" stroke="#606060" stroke-width=".5" x="0" y="0" width="60" height="60"/>
                <use id="zoomplus" xlink:href="#zoomPlus" x="17" y="9" onmousedown="handleZoom(evt,'in')"/>
                <use id="zoomminus" xlink:href="#zoomMin" x="42" y="9" onmousedown="handleZoom(evt,'out')"/>
                <use id="reset" xlink:href="#resetDef" x="30" y="36" onmousedown="handleReset()"/>
                <g id="arrowUp" xlink:href="#dirArrow" transform="translate(30 24)" onmousedown="handlePan(0,-1)">
                  <use xlink:href="#rim" fill="#404040">
                        <set attributeName="fill" to="#808080" begin="arrowUp.mouseover" end="arrowUp.mouseout"/>
                  </use>
                  <path fill="none" stroke="white" stroke-width="1.5" d="M0,-3.0v7 M-2.5,-0.5L0,-3.0L2.5,-0.5"/>
                </g>
                <g id="arrowRight" xlink:href="#dirArrow" transform="rotate(90) translate(36 -43)" onmousedown="handlePan(1,0)">
                  <use xlink:href="#rim" fill="#404040">
                        <set attributeName="fill" to="#808080" begin="arrowRight.mouseover" end="arrowRight.mouseout"/>
                  </use>
                  <path fill="none" stroke="white" stroke-width="1.5" d="M0,-3.0v7 M-2.5,-0.5L0,-3.0L2.5,-0.5"/>
                </g>
                <g id="arrowDown" xlink:href="#dirArrow" transform="rotate(180) translate(-30 -48)" onmousedown="handlePan(0,1)">
                  <use xlink:href="#rim" fill="#404040">
                        <set attributeName="fill" to="#808080" begin="arrowDown.mouseover" end="arrowDown.mouseout"/>
                  </use>
                  <path fill="none" stroke="white" stroke-width="1.5" d="M0,-3.0v7 M-2.5,-0.5L0,-3.0L2.5,-0.5"/>
                </g>
                <g id="arrowLeft" xlink:href="#dirArrow" transform="rotate(270) translate(-36 17)" onmousedown="handlePan(-1,0)">
                  <use xlink:href="#rim" fill="#404040">
                        <set attributeName="fill" to="#808080" begin="arrowLeft.mouseover" end="arrowLeft.mouseout"/>
                  </use>
                  <path fill="none" stroke="white" stroke-width="1.5" d="M0,-3.0v7 M-2.5,-0.5L0,-3.0L2.5,-0.5"/>
                </g>
        </g>
        <svg viewBox="0 0 15 15" width="100%" height="30px" preserveAspectRatio="xMaxYMin meet">
         <g id="arrow_out" transform="scale(0.3 0.3)">
          <a xlink:href="oreceagerredo_8cpp__incl_org.svg" target="_base">
           <rect id="button" ry="5" rx="5" y="6" x="6" height="38" width="38"
                fill="#f2f5e9" fill-opacity="0.5" stroke="#606060" stroke-width="1.0"/>
           <path id="arrow"
             d="M 11.500037,31.436501 C 11.940474,20.09759 22.043105,11.32322 32.158766,21.979434 L 37.068811,17.246167 C 37.068811,17.246167 37.088388,32 37.088388,32 L 22.160133,31.978069 C 22.160133,31.978069 26.997745,27.140456 26.997745,27.140456 C 18.528582,18.264221 13.291696,25.230495 11.500037,31.436501 z"
             style="fill:#404040;"/>
          </a>
         </g>
        </svg>
</svg>
