<?xml version="1.0" encoding="UTF-8" standalone="no"?>
<!DOCTYPE svg PUBLIC "-//W3C//DTD SVG 1.1//EN"
 "http://www.w3.org/Graphics/SVG/1.1/DTD/svg11.dtd">
<!-- Generated by graphviz version 2.36.0 (20140111.2315)
 -->
<!-- Title: rstm/rstm&#45;dev/include/common/platform.hpp Pages: 1 -->
<svg width="281pt" height="96pt"
 viewBox="0.00 0.00 281.00 96.00" xmlns="http://www.w3.org/2000/svg" xmlns:xlink="http://www.w3.org/1999/xlink">
<g id="graph0" class="graph" transform="scale(1 1) rotate(0) translate(4 92)">
<title>rstm/rstm&#45;dev/include/common/platform.hpp</title>
<!-- Node1 -->
<g id="node1" class="node"><title>Node1</title>
<polygon fill="#bfbfbf" stroke="black" points="89,-57 89,-87 203,-87 203,-57 89,-57"/>
<text text-anchor="start" x="97" y="-75" font-family="Helvetica,sans-Serif" font-size="10.00">rstm/rstm&#45;dev/include</text>
<text text-anchor="middle" x="146" y="-64" font-family="Helvetica,sans-Serif" font-size="10.00">/common/platform.hpp</text>
</g>
<!-- Node2 -->
<g id="node2" class="node"><title>Node2</title>
<polygon fill="none" stroke="#bfbfbf" points="-0.5,-0.5 -0.5,-19.5 70.5,-19.5 70.5,-0.5 -0.5,-0.5"/>
<text text-anchor="middle" x="35" y="-7.5" font-family="Helvetica,sans-Serif" font-size="10.00">stm/config.h</text>
</g>
<!-- Node1&#45;&gt;Node2 -->
<g id="edge1" class="edge"><title>Node1&#45;&gt;Node2</title>
<path fill="none" stroke="midnightblue" d="M119.975,-56.9327C101.917,-47.1715 77.9942,-34.2401 60.1333,-24.5856"/>
<polygon fill="midnightblue" stroke="midnightblue" points="61.3715,-21.2763 50.91,-19.6 58.0428,-27.4342 61.3715,-21.2763"/>
</g>
<!-- Node3 -->
<g id="node3" class="node"><title>Node3</title>
<polygon fill="none" stroke="#bfbfbf" points="88.5,-0.5 88.5,-19.5 137.5,-19.5 137.5,-0.5 88.5,-0.5"/>
<text text-anchor="middle" x="113" y="-7.5" font-family="Helvetica,sans-Serif" font-size="10.00">stdint.h</text>
</g>
<!-- Node1&#45;&gt;Node3 -->
<g id="edge2" class="edge"><title>Node1&#45;&gt;Node3</title>
<path fill="none" stroke="midnightblue" d="M138.179,-56.7808C133.532,-48.3318 127.601,-37.5481 122.663,-28.5693"/>
<polygon fill="midnightblue" stroke="midnightblue" points="125.688,-26.806 117.802,-19.7305 119.554,-30.1794 125.688,-26.806"/>
</g>
<!-- Node4 -->
<g id="node4" class="node"><title>Node4</title>
<polygon fill="none" stroke="#bfbfbf" points="156,-0.5 156,-19.5 204,-19.5 204,-0.5 156,-0.5"/>
<text text-anchor="middle" x="180" y="-7.5" font-family="Helvetica,sans-Serif" font-size="10.00">limits.h</text>
</g>
<!-- Node1&#45;&gt;Node4 -->
<g id="edge3" class="edge"><title>Node1&#45;&gt;Node4</title>
<path fill="none" stroke="midnightblue" d="M154.058,-56.7808C158.845,-48.3318 164.956,-37.5481 170.044,-28.5693"/>
<polygon fill="midnightblue" stroke="midnightblue" points="173.168,-30.1563 175.053,-19.7305 167.077,-26.7052 173.168,-30.1563"/>
</g>
<!-- Node5 -->
<g id="node5" class="node"><title>Node5</title>
<polygon fill="none" stroke="#bfbfbf" points="222.5,-0.5 222.5,-19.5 273.5,-19.5 273.5,-0.5 222.5,-0.5"/>
<text text-anchor="middle" x="248" y="-7.5" font-family="Helvetica,sans-Serif" font-size="10.00">unistd.h</text>
</g>
<!-- Node1&#45;&gt;Node5 -->
<g id="edge4" class="edge"><title>Node1&#45;&gt;Node5</title>
<path fill="none" stroke="midnightblue" d="M169.914,-56.9327C186.355,-47.2619 208.085,-34.4793 224.447,-24.8546"/>
<polygon fill="midnightblue" stroke="midnightblue" points="226.535,-27.6871 233.38,-19.6 222.986,-21.6535 226.535,-27.6871"/>
</g>
</g>
</svg>
