<?xml version="1.0" encoding="UTF-8" standalone="no"?>
<!DOCTYPE svg PUBLIC "-//W3C//DTD SVG 1.1//EN"
 "http://www.w3.org/Graphics/SVG/1.1/DTD/svg11.dtd">
<!-- Generated by graphviz version 2.36.0 (20140111.2315)
 -->
<!-- Title: encircled Pages: 1 -->
<svg width="690pt" height="122pt"
 viewBox="0.00 0.00 690.00 122.00" xmlns="http://www.w3.org/2000/svg" xmlns:xlink="http://www.w3.org/1999/xlink">
<g id="graph0" class="graph" transform="scale(1 1) rotate(0) translate(4 118)">
<title>encircled</title>
<!-- Node1 -->
<g id="node1" class="node"><title>Node1</title>
<polygon fill="#bfbfbf" stroke="black" points="0,-57.5 0,-76.5 56,-76.5 56,-57.5 0,-57.5"/>
<text text-anchor="middle" x="28" y="-64.5" font-family="Helvetica,sans-Serif" font-size="10.00">encircled</text>
</g>
<!-- Node2 -->
<g id="node2" class="node"><title>Node2</title>
<g id="a_node2"><a xlink:href="dwyer_8cpp.html#ac5af40cdd517beac7515468404be6c72" target="_top" xlink:title="stitch">
<polygon fill="none" stroke="black" points="272.5,-76.5 272.5,-95.5 313.5,-95.5 313.5,-76.5 272.5,-76.5"/>
<text text-anchor="middle" x="293" y="-83.5" font-family="Helvetica,sans-Serif" font-size="10.00">stitch</text>
</a>
</g>
</g>
<!-- Node1&#45;&gt;Node2 -->
<g id="edge1" class="edge"><title>Node1&#45;&gt;Node2</title>
<path fill="none" stroke="midnightblue" d="M64.3527,-79.6386C73.261,-82.2724 82.8853,-84.6555 92,-86 157.438,-95.6529 236.235,-90.9396 272.273,-87.8957"/>
<polygon fill="midnightblue" stroke="midnightblue" points="65.2537,-76.2532 54.6646,-76.6004 63.1591,-82.9324 65.2537,-76.2532"/>
</g>
<!-- Node7 -->
<g id="node7" class="node"><title>Node7</title>
<g id="a_node7"><a xlink:href="classedge.html#aad0f6a205dbe62d5f1bc564cb66cd9e8" target="_top" xlink:title="edge::reconsider">
<polygon fill="none" stroke="black" points="248.5,-19.5 248.5,-38.5 337.5,-38.5 337.5,-19.5 248.5,-19.5"/>
<text text-anchor="middle" x="293" y="-26.5" font-family="Helvetica,sans-Serif" font-size="10.00">edge::reconsider</text>
</a>
</g>
</g>
<!-- Node1&#45;&gt;Node7 -->
<g id="edge7" class="edge"><title>Node1&#45;&gt;Node7</title>
<path fill="none" stroke="midnightblue" d="M65.9406,-54.528C74.4221,-52.0378 83.4592,-49.6764 92,-48 145.221,-37.554 207.579,-32.788 248.337,-30.6558"/>
<polygon fill="midnightblue" stroke="midnightblue" points="64.8405,-51.2043 56.3022,-57.4771 66.8887,-57.898 64.8405,-51.2043"/>
</g>
<!-- Node9 -->
<g id="node9" class="node"><title>Node9</title>
<g id="a_node9"><a xlink:href="structpv__side.html#ab6c6440d122035bd15a096d96350ce77" target="_top" xlink:title="pv_side::find_candidate">
<polygon fill="none" stroke="black" points="92.5,-57.5 92.5,-76.5 211.5,-76.5 211.5,-57.5 92.5,-57.5"/>
<text text-anchor="middle" x="152" y="-64.5" font-family="Helvetica,sans-Serif" font-size="10.00">pv_side::find_candidate</text>
</a>
</g>
</g>
<!-- Node1&#45;&gt;Node9 -->
<g id="edge11" class="edge"><title>Node1&#45;&gt;Node9</title>
<path fill="none" stroke="midnightblue" d="M66.3339,-67C74.475,-67 83.2817,-67 92.0325,-67"/>
<polygon fill="midnightblue" stroke="midnightblue" points="66.0758,-63.5001 56.0758,-67 66.0757,-70.5001 66.0758,-63.5001"/>
</g>
<!-- Node3 -->
<g id="node3" class="node"><title>Node3</title>
<g id="a_node3"><a xlink:href="dwyer_8hpp.html#af02e2aa3c0f40c330c2d1bc03ad9438a" target="_top" xlink:title="dwyer_solve">
<polygon fill="none" stroke="black" points="382.5,-76.5 382.5,-95.5 453.5,-95.5 453.5,-76.5 382.5,-76.5"/>
<text text-anchor="middle" x="418" y="-83.5" font-family="Helvetica,sans-Serif" font-size="10.00">dwyer_solve</text>
</a>
</g>
</g>
<!-- Node2&#45;&gt;Node3 -->
<g id="edge2" class="edge"><title>Node2&#45;&gt;Node3</title>
<path fill="none" stroke="midnightblue" d="M324.051,-86C341.681,-86 364.027,-86 382.39,-86"/>
<polygon fill="midnightblue" stroke="midnightblue" points="323.762,-82.5001 313.762,-86 323.762,-89.5001 323.762,-82.5001"/>
</g>
<!-- Node3&#45;&gt;Node3 -->
<g id="edge3" class="edge"><title>Node3&#45;&gt;Node3</title>
<path fill="none" stroke="midnightblue" d="M398.371,-105.4C399.682,-110.315 406.225,-114 418,-114 436.84,-114 442.286,-104.565 434.338,-95.7571"/>
<polygon fill="midnightblue" stroke="midnightblue" points="401.745,-106.352 401.662,-95.7571 395.12,-104.091 401.745,-106.352"/>
</g>
<!-- Node4 -->
<g id="node4" class="node"><title>Node4</title>
<g id="a_node4"><a xlink:href="mesh_8cpp.html#a0ddf1224851353fc92bfbff6f499fa97" target="_top" xlink:title="main">
<polygon fill="none" stroke="black" points="506,-76.5 506,-95.5 544,-95.5 544,-76.5 506,-76.5"/>
<text text-anchor="middle" x="525" y="-83.5" font-family="Helvetica,sans-Serif" font-size="10.00">main</text>
</a>
</g>
</g>
<!-- Node3&#45;&gt;Node4 -->
<g id="edge4" class="edge"><title>Node3&#45;&gt;Node4</title>
<path fill="none" stroke="midnightblue" d="M463.738,-86C478.558,-86 494.223,-86 505.866,-86"/>
<polygon fill="midnightblue" stroke="midnightblue" points="463.672,-82.5001 453.672,-86 463.672,-89.5001 463.672,-82.5001"/>
</g>
<!-- Node5 -->
<g id="node5" class="node"><title>Node5</title>
<g id="a_node5"><a xlink:href="worker_8cpp.html#a4d3d5d6b1446463eca81bdd1106ef943" target="_top" xlink:title="do_work">
<polygon fill="none" stroke="black" points="498.5,-38.5 498.5,-57.5 551.5,-57.5 551.5,-38.5 498.5,-38.5"/>
<text text-anchor="middle" x="525" y="-45.5" font-family="Helvetica,sans-Serif" font-size="10.00">do_work</text>
</a>
</g>
</g>
<!-- Node3&#45;&gt;Node5 -->
<g id="edge5" class="edge"><title>Node3&#45;&gt;Node5</title>
<path fill="none" stroke="midnightblue" d="M454.991,-72.9747C469.206,-67.8302 485.219,-62.0351 498.238,-57.3232"/>
<polygon fill="midnightblue" stroke="midnightblue" points="453.708,-69.7168 445.496,-76.411 456.09,-76.299 453.708,-69.7168"/>
</g>
<!-- Node6 -->
<g id="node6" class="node"><title>Node6</title>
<g id="a_node6"><a xlink:href="classworker.html#a7b7d6866de64fc583693899b65cb12bc" target="_top" xlink:title="worker::operator()">
<polygon fill="none" stroke="black" points="588.5,-38.5 588.5,-57.5 681.5,-57.5 681.5,-38.5 588.5,-38.5"/>
<text text-anchor="middle" x="635" y="-45.5" font-family="Helvetica,sans-Serif" font-size="10.00">worker::operator()</text>
</a>
</g>
</g>
<!-- Node5&#45;&gt;Node6 -->
<g id="edge6" class="edge"><title>Node5&#45;&gt;Node6</title>
<path fill="none" stroke="midnightblue" d="M561.596,-48C570.134,-48 579.37,-48 588.296,-48"/>
<polygon fill="midnightblue" stroke="midnightblue" points="561.595,-44.5001 551.594,-48 561.594,-51.5001 561.595,-44.5001"/>
</g>
<!-- Node7&#45;&gt;Node5 -->
<g id="edge10" class="edge"><title>Node7&#45;&gt;Node5</title>
<path fill="none" stroke="midnightblue" d="M347.638,-33.431C395.089,-37.3509 462.25,-42.8989 498.469,-45.8909"/>
<polygon fill="midnightblue" stroke="midnightblue" points="347.786,-29.9313 337.532,-32.5961 347.21,-36.9076 347.786,-29.9313"/>
</g>
<!-- Node8 -->
<g id="node8" class="node"><title>Node8</title>
<g id="a_node8"><a xlink:href="worker_8cpp.html#aaaf358d95d261241cf6073eaf7de2a94" target="_top" xlink:title="reconsider_edge">
<polygon fill="none" stroke="black" points="374,-0.5 374,-19.5 462,-19.5 462,-0.5 374,-0.5"/>
<text text-anchor="middle" x="418" y="-7.5" font-family="Helvetica,sans-Serif" font-size="10.00">reconsider_edge</text>
</a>
</g>
</g>
<!-- Node7&#45;&gt;Node8 -->
<g id="edge8" class="edge"><title>Node7&#45;&gt;Node8</title>
<path fill="none" stroke="midnightblue" d="M347.798,-20.6898C356.508,-19.3443 365.428,-17.9665 373.843,-16.6665"/>
<polygon fill="midnightblue" stroke="midnightblue" points="347.06,-17.2621 337.712,-22.2478 348.129,-24.1801 347.06,-17.2621"/>
</g>
<!-- Node8&#45;&gt;Node5 -->
<g id="edge9" class="edge"><title>Node8&#45;&gt;Node5</title>
<path fill="none" stroke="midnightblue" d="M454.991,-23.0253C469.206,-28.1698 485.219,-33.9649 498.238,-38.6768"/>
<polygon fill="midnightblue" stroke="midnightblue" points="456.09,-19.701 445.496,-19.589 453.708,-26.2832 456.09,-19.701"/>
</g>
<!-- Node9&#45;&gt;Node2 -->
<g id="edge12" class="edge"><title>Node9&#45;&gt;Node2</title>
<path fill="none" stroke="midnightblue" d="M221.518,-76.3657C240.087,-78.904 258.75,-81.455 272.202,-83.2938"/>
<polygon fill="midnightblue" stroke="midnightblue" points="221.928,-72.8893 211.546,-75.0026 220.979,-79.8248 221.928,-72.8893"/>
</g>
</g>
</svg>
