<?xml version="1.0" encoding="UTF-8" standalone="no"?>
<!DOCTYPE svg PUBLIC "-//W3C//DTD SVG 1.1//EN"
 "http://www.w3.org/Graphics/SVG/1.1/DTD/svg11.dtd">
<!-- Generated by graphviz version 2.36.0 (20140111.2315)
 -->
<!-- Title: rstm/rstm&#45;dev/mesh/point.hpp Pages: 1 -->
<!--zoomable 244 -->
<svg id="main" version="1.1" xmlns="http://www.w3.org/2000/svg" xmlns:xlink="http://www.w3.org/1999/xlink" xml:space="preserve" onload="init(evt)">
<style type="text/css"><![CDATA[
.edge:hover path { stroke: red; }
.edge:hover polygon { stroke: red; fill: red; }
]]></style>
<script type="text/javascript"><![CDATA[
var edges = document.getElementsByTagName('g');
if (edges && edges.length) {
  for (var i=0;i<edges.length;i++) {
    if (edges[i].id.substr(0,4)=='edge') {
      edges[i].setAttribute('class','edge');
    }
  }
}
]]></script>
        <defs>
                <circle id="rim" cx="0" cy="0" r="7"/>
                <circle id="rim2" cx="0" cy="0" r="3.5"/>
                <g id="zoomPlus">
                        <use xlink:href="#rim" fill="#404040">
                                <set attributeName="fill" to="#808080" begin="zoomplus.mouseover" end="zoomplus.mouseout"/>
                        </use>
                        <path d="M-4,0h8M0,-4v8" fill="none" stroke="white" stroke-width="1.5" pointer-events="none"/>
                </g>
                <g id="zoomMin">
                        <use xlink:href="#rim" fill="#404040">
                                <set attributeName="fill" to="#808080" begin="zoomminus.mouseover" end="zoomminus.mouseout"/>
                        </use>
                        <path d="M-4,0h8" fill="none" stroke="white" stroke-width="1.5" pointer-events="none"/>
                </g>
                <g id="dirArrow">
                        <path fill="none" stroke="white" stroke-width="1.5" d="M0,-3.0v7 M-2.5,-0.5L0,-3.0L2.5,-0.5"/>
                </g>
               <g id="resetDef">
                       <use xlink:href="#rim2" fill="#404040">
                               <set attributeName="fill" to="#808080" begin="reset.mouseover" end="reset.mouseout"/>
                       </use>
               </g>
        </defs>

<script type="text/javascript">
var viewWidth = 1003;
var viewHeight = 244;
var sectionId = 'dynsection-1';
</script>
<script xlink:href="svgpan.js"/>
<svg id="graph" class="graph">
<g id="viewport">
<title>rstm/rstm&#45;dev/mesh/point.hpp</title>
<!-- Node1 -->
<g id="node1" class="node"><title>Node1</title>
<polygon fill="#bfbfbf" stroke="black" points="423.708,-205 423.708,-235 527.708,-235 527.708,-205 423.708,-205"/>
<text text-anchor="start" x="431.708" y="-223" font-family="Helvetica,sans-Serif" font-size="10.00">rstm/rstm&#45;dev/mesh</text>
<text text-anchor="middle" x="475.708" y="-212" font-family="Helvetica,sans-Serif" font-size="10.00">/point.hpp</text>
</g>
<!-- Node2 -->
<g id="node2" class="node"><title>Node2</title>
<g id="a_node2"><a xlink:href="dwyer_8cpp.html" target="_top" xlink:title="rstm/rstm&#45;dev/mesh\l/dwyer.cpp">
<polygon fill="none" stroke="black" points="132.708,-1 132.708,-31 236.708,-31 236.708,-1 132.708,-1"/>
<text text-anchor="start" x="140.708" y="-19" font-family="Helvetica,sans-Serif" font-size="10.00">rstm/rstm&#45;dev/mesh</text>
<text text-anchor="middle" x="184.708" y="-8" font-family="Helvetica,sans-Serif" font-size="10.00">/dwyer.cpp</text>
</a>
</g>
</g>
<!-- Node1&#45;&gt;Node2 -->
<g id="edge1" class="edge"><title>Node1&#45;&gt;Node2</title>
<path fill="none" stroke="midnightblue" d="M413.49,-214.634C320.485,-207.446 150.1,-191.531 93.7078,-168 48.0924,-148.966 27.4938,-144.367 5.7078,-100 -0.560902,-87.2338 -2.86095,-79.3511 5.7078,-68 9.67447,-62.7453 81.1584,-43.5062 132.572,-30.2212"/>
<polygon fill="midnightblue" stroke="midnightblue" points="413.376,-218.136 423.613,-215.406 413.908,-211.156 413.376,-218.136"/>
</g>
<!-- Node3 -->
<g id="node3" class="node"><title>Node3</title>
<g id="a_node3"><a xlink:href="edge_8hpp.html" target="_top" xlink:title="rstm/rstm&#45;dev/mesh\l/edge.hpp">
<polygon fill="none" stroke="black" points="423.708,-137 423.708,-167 527.708,-167 527.708,-137 423.708,-137"/>
<text text-anchor="start" x="431.708" y="-155" font-family="Helvetica,sans-Serif" font-size="10.00">rstm/rstm&#45;dev/mesh</text>
<text text-anchor="middle" x="475.708" y="-144" font-family="Helvetica,sans-Serif" font-size="10.00">/edge.hpp</text>
</a>
</g>
</g>
<!-- Node1&#45;&gt;Node3 -->
<g id="edge2" class="edge"><title>Node1&#45;&gt;Node3</title>
<path fill="none" stroke="midnightblue" d="M475.708,-194.532C475.708,-185.361 475.708,-175.245 475.708,-167.293"/>
<polygon fill="midnightblue" stroke="midnightblue" points="472.208,-194.679 475.708,-204.679 479.208,-194.679 472.208,-194.679"/>
</g>
<!-- Node4 -->
<g id="node4" class="node"><title>Node4</title>
<g id="a_node4"><a xlink:href="side_8hpp.html" target="_top" xlink:title="rstm/rstm&#45;dev/mesh\l/side.hpp">
<polygon fill="none" stroke="black" points="14.7078,-69 14.7078,-99 118.708,-99 118.708,-69 14.7078,-69"/>
<text text-anchor="start" x="22.7078" y="-87" font-family="Helvetica,sans-Serif" font-size="10.00">rstm/rstm&#45;dev/mesh</text>
<text text-anchor="middle" x="66.7078" y="-76" font-family="Helvetica,sans-Serif" font-size="10.00">/side.hpp</text>
</a>
</g>
</g>
<!-- Node1&#45;&gt;Node4 -->
<g id="edge20" class="edge"><title>Node1&#45;&gt;Node4</title>
<path fill="none" stroke="midnightblue" d="M413.568,-215.215C328.036,-209.09 179.31,-194.887 132.708,-168 104.483,-151.715 83.7368,-118.272 73.6206,-99.1816"/>
<polygon fill="midnightblue" stroke="midnightblue" points="413.454,-218.715 423.674,-215.922 413.943,-211.732 413.454,-218.715"/>
</g>
<!-- Node6 -->
<g id="node6" class="node"><title>Node6</title>
<g id="a_node6"><a xlink:href="worker_8cpp.html" target="_top" xlink:title="rstm/rstm&#45;dev/mesh\l/worker.cpp">
<polygon fill="none" stroke="black" points="312.708,-1 312.708,-31 416.708,-31 416.708,-1 312.708,-1"/>
<text text-anchor="start" x="320.708" y="-19" font-family="Helvetica,sans-Serif" font-size="10.00">rstm/rstm&#45;dev/mesh</text>
<text text-anchor="middle" x="364.708" y="-8" font-family="Helvetica,sans-Serif" font-size="10.00">/worker.cpp</text>
</a>
</g>
</g>
<!-- Node1&#45;&gt;Node6 -->
<g id="edge29" class="edge"><title>Node1&#45;&gt;Node6</title>
<path fill="none" stroke="midnightblue" d="M413.37,-211.868C347.901,-200.632 248.377,-172.04 203.708,-100 175.577,-54.6321 255.542,-32.9361 312.617,-23.4666"/>
<polygon fill="midnightblue" stroke="midnightblue" points="413.14,-215.376 423.572,-213.526 414.263,-208.467 413.14,-215.376"/>
</g>
<!-- Node9 -->
<g id="node9" class="node"><title>Node9</title>
<g id="a_node9"><a xlink:href="edge__set_8cpp.html" target="_top" xlink:title="rstm/rstm&#45;dev/mesh\l/edge_set.cpp">
<polygon fill="none" stroke="black" points="793.708,-1 793.708,-31 897.708,-31 897.708,-1 793.708,-1"/>
<text text-anchor="start" x="801.708" y="-19" font-family="Helvetica,sans-Serif" font-size="10.00">rstm/rstm&#45;dev/mesh</text>
<text text-anchor="middle" x="845.708" y="-8" font-family="Helvetica,sans-Serif" font-size="10.00">/edge_set.cpp</text>
</a>
</g>
</g>
<!-- Node1&#45;&gt;Node9 -->
<g id="edge25" class="edge"><title>Node1&#45;&gt;Node9</title>
<path fill="none" stroke="midnightblue" d="M538.033,-218.75C594.95,-215.936 679.591,-205.062 742.708,-168 797.163,-136.024 829.196,-62.5169 840.762,-31.3685"/>
<polygon fill="midnightblue" stroke="midnightblue" points="537.582,-215.266 527.739,-219.186 537.878,-222.259 537.582,-215.266"/>
</g>
<!-- Node10 -->
<g id="node10" class="node"><title>Node10</title>
<g id="a_node10"><a xlink:href="mesh_8cpp.html" target="_top" xlink:title="rstm/rstm&#45;dev/mesh\l/mesh.cpp">
<polygon fill="none" stroke="black" points="654.708,-1 654.708,-31 758.708,-31 758.708,-1 654.708,-1"/>
<text text-anchor="start" x="662.708" y="-19" font-family="Helvetica,sans-Serif" font-size="10.00">rstm/rstm&#45;dev/mesh</text>
<text text-anchor="middle" x="706.708" y="-8" font-family="Helvetica,sans-Serif" font-size="10.00">/mesh.cpp</text>
</a>
</g>
</g>
<!-- Node1&#45;&gt;Node10 -->
<g id="edge26" class="edge"><title>Node1&#45;&gt;Node10</title>
<path fill="none" stroke="midnightblue" d="M537.968,-214.946C610.854,-206.478 728.597,-180.374 783.708,-100 791.751,-88.2703 790.437,-80.5293 783.708,-68 774.831,-51.4729 757.984,-39.3998 742.307,-31.1617"/>
<polygon fill="midnightblue" stroke="midnightblue" points="537.557,-211.47 527.992,-216.027 538.311,-218.429 537.557,-211.47"/>
</g>
<!-- Node11 -->
<g id="node11" class="node"><title>Node11</title>
<g id="a_node11"><a xlink:href="worker_8hpp.html" target="_top" xlink:title="rstm/rstm&#45;dev/mesh\l/worker.hpp">
<polygon fill="none" stroke="black" points="532.708,-69 532.708,-99 636.708,-99 636.708,-69 532.708,-69"/>
<text text-anchor="start" x="540.708" y="-87" font-family="Helvetica,sans-Serif" font-size="10.00">rstm/rstm&#45;dev/mesh</text>
<text text-anchor="middle" x="584.708" y="-76" font-family="Helvetica,sans-Serif" font-size="10.00">/worker.hpp</text>
</a>
</g>
</g>
<!-- Node1&#45;&gt;Node11 -->
<g id="edge27" class="edge"><title>Node1&#45;&gt;Node11</title>
<path fill="none" stroke="midnightblue" d="M504.051,-198.714C515.033,-190.023 527.219,-179.28 536.708,-168 555.032,-146.218 570.293,-116.502 578.407,-99.1705"/>
<polygon fill="midnightblue" stroke="midnightblue" points="501.75,-196.068 495.952,-204.936 506.014,-201.619 501.75,-196.068"/>
</g>
<!-- Node13 -->
<g id="node13" class="node"><title>Node13</title>
<g id="a_node13"><a xlink:href="dwyer_8hpp.html" target="_top" xlink:title="rstm/rstm&#45;dev/mesh\l/dwyer.hpp">
<polygon fill="none" stroke="black" points="212.708,-69 212.708,-99 316.708,-99 316.708,-69 212.708,-69"/>
<text text-anchor="start" x="220.708" y="-87" font-family="Helvetica,sans-Serif" font-size="10.00">rstm/rstm&#45;dev/mesh</text>
<text text-anchor="middle" x="264.708" y="-76" font-family="Helvetica,sans-Serif" font-size="10.00">/dwyer.hpp</text>
</a>
</g>
</g>
<!-- Node1&#45;&gt;Node13 -->
<g id="edge21" class="edge"><title>Node1&#45;&gt;Node13</title>
<path fill="none" stroke="midnightblue" d="M444.883,-199.424C401.838,-172.087 324.756,-123.135 286.909,-99.0994"/>
<polygon fill="midnightblue" stroke="midnightblue" points="443.208,-202.506 453.526,-204.913 446.961,-196.597 443.208,-202.506"/>
</g>
<!-- Node14 -->
<g id="node14" class="node"><title>Node14</title>
<g id="a_node14"><a xlink:href="point_8cpp.html" target="_top" xlink:title="rstm/rstm&#45;dev/mesh\l/point.cpp">
<polygon fill="none" stroke="black" points="890.708,-137 890.708,-167 994.708,-167 994.708,-137 890.708,-137"/>
<text text-anchor="start" x="898.708" y="-155" font-family="Helvetica,sans-Serif" font-size="10.00">rstm/rstm&#45;dev/mesh</text>
<text text-anchor="middle" x="942.708" y="-144" font-family="Helvetica,sans-Serif" font-size="10.00">/point.cpp</text>
</a>
</g>
</g>
<!-- Node1&#45;&gt;Node14 -->
<g id="edge28" class="edge"><title>Node1&#45;&gt;Node14</title>
<path fill="none" stroke="midnightblue" d="M538.138,-212.956C617.252,-204.862 757.66,-189.047 876.708,-168 881.221,-167.202 885.89,-166.299 890.564,-165.342"/>
<polygon fill="midnightblue" stroke="midnightblue" points="537.455,-209.507 527.86,-213.999 538.162,-216.471 537.455,-209.507"/>
</g>
<!-- Node3&#45;&gt;Node2 -->
<g id="edge3" class="edge"><title>Node3&#45;&gt;Node2</title>
<path fill="none" stroke="midnightblue" d="M413.483,-147.123C342.683,-141.412 233.051,-128.201 203.708,-100 185.056,-82.0742 183.026,-49.8704 183.609,-31.286"/>
<polygon fill="midnightblue" stroke="midnightblue" points="413.392,-150.626 423.634,-147.911 413.935,-143.647 413.392,-150.626"/>
</g>
<!-- Node3&#45;&gt;Node4 -->
<g id="edge4" class="edge"><title>Node3&#45;&gt;Node4</title>
<path fill="none" stroke="midnightblue" d="M413.494,-140.961C333.008,-127.973 194.219,-105.576 118.935,-93.4279"/>
<polygon fill="midnightblue" stroke="midnightblue" points="413.062,-144.436 423.492,-142.574 414.178,-137.526 413.062,-144.436"/>
</g>
<!-- Node3&#45;&gt;Node6 -->
<g id="edge19" class="edge"><title>Node3&#45;&gt;Node6</title>
<path fill="none" stroke="midnightblue" d="M472.149,-127.055C468.499,-109.23 461.346,-85.1226 447.708,-68 434.853,-51.8603 415.4,-39.5211 398.557,-31.0255"/>
<polygon fill="midnightblue" stroke="midnightblue" points="468.72,-127.762 473.955,-136.973 475.607,-126.508 468.72,-127.762"/>
</g>
<!-- Node7 -->
<g id="node7" class="node"><title>Node7</title>
<g id="a_node7"><a xlink:href="edge_8cpp.html" target="_top" xlink:title="rstm/rstm&#45;dev/mesh\l/edge.cpp">
<polygon fill="none" stroke="black" points="492.708,-1 492.708,-31 596.708,-31 596.708,-1 492.708,-1"/>
<text text-anchor="start" x="500.708" y="-19" font-family="Helvetica,sans-Serif" font-size="10.00">rstm/rstm&#45;dev/mesh</text>
<text text-anchor="middle" x="544.708" y="-8" font-family="Helvetica,sans-Serif" font-size="10.00">/edge.cpp</text>
</a>
</g>
</g>
<!-- Node3&#45;&gt;Node7 -->
<g id="edge8" class="edge"><title>Node3&#45;&gt;Node7</title>
<path fill="none" stroke="midnightblue" d="M487.743,-127.627C502.067,-99.8094 525.531,-54.2411 537.377,-31.2372"/>
<polygon fill="midnightblue" stroke="midnightblue" points="484.558,-126.167 483.092,-136.66 490.782,-129.371 484.558,-126.167"/>
</g>
<!-- Node8 -->
<g id="node8" class="node"><title>Node8</title>
<g id="a_node8"><a xlink:href="edge__set_8hpp.html" target="_top" xlink:title="rstm/rstm&#45;dev/mesh\l/edge_set.hpp">
<polygon fill="none" stroke="black" points="654.708,-69 654.708,-99 758.708,-99 758.708,-69 654.708,-69"/>
<text text-anchor="start" x="662.708" y="-87" font-family="Helvetica,sans-Serif" font-size="10.00">rstm/rstm&#45;dev/mesh</text>
<text text-anchor="middle" x="706.708" y="-76" font-family="Helvetica,sans-Serif" font-size="10.00">/edge_set.hpp</text>
</a>
</g>
</g>
<!-- Node3&#45;&gt;Node8 -->
<g id="edge9" class="edge"><title>Node3&#45;&gt;Node8</title>
<path fill="none" stroke="midnightblue" d="M534.891,-134.091C572.886,-123.235 621.647,-109.303 657.512,-99.0561"/>
<polygon fill="midnightblue" stroke="midnightblue" points="533.633,-130.81 524.98,-136.922 535.557,-137.54 533.633,-130.81"/>
</g>
<!-- Node3&#45;&gt;Node10 -->
<g id="edge14" class="edge"><title>Node3&#45;&gt;Node10</title>
<path fill="none" stroke="midnightblue" d="M537.922,-149.185C614.784,-145.479 738.951,-134.215 767.708,-100 787.153,-76.8644 754.34,-48.1031 729.792,-31.2264"/>
<polygon fill="midnightblue" stroke="midnightblue" points="537.7,-145.691 527.869,-149.64 538.017,-152.684 537.7,-145.691"/>
</g>
<!-- Node3&#45;&gt;Node11 -->
<g id="edge15" class="edge"><title>Node3&#45;&gt;Node11</title>
<path fill="none" stroke="midnightblue" d="M507.704,-131.626C524.896,-121.217 545.711,-108.613 561.363,-99.1352"/>
<polygon fill="midnightblue" stroke="midnightblue" points="505.832,-128.668 499.091,-136.841 509.458,-134.656 505.832,-128.668"/>
</g>
<!-- Node12 -->
<g id="node12" class="node"><title>Node12</title>
<g id="a_node12"><a xlink:href="queues_8cpp.html" target="_top" xlink:title="rstm/rstm&#45;dev/mesh\l/queues.cpp">
<polygon fill="none" stroke="black" points="334.708,-69 334.708,-99 438.708,-99 438.708,-69 334.708,-69"/>
<text text-anchor="start" x="342.708" y="-87" font-family="Helvetica,sans-Serif" font-size="10.00">rstm/rstm&#45;dev/mesh</text>
<text text-anchor="middle" x="386.708" y="-76" font-family="Helvetica,sans-Serif" font-size="10.00">/queues.cpp</text>
</a>
</g>
</g>
<!-- Node3&#45;&gt;Node12 -->
<g id="edge18" class="edge"><title>Node3&#45;&gt;Node12</title>
<path fill="none" stroke="midnightblue" d="M448.198,-130.599C434.405,-120.371 418.05,-108.243 405.676,-99.0663"/>
<polygon fill="midnightblue" stroke="midnightblue" points="446.279,-133.534 456.396,-136.679 450.449,-127.911 446.279,-133.534"/>
</g>
<!-- Node4&#45;&gt;Node2 -->
<g id="edge5" class="edge"><title>Node4&#45;&gt;Node2</title>
<path fill="none" stroke="midnightblue" d="M100.835,-63.912C119.543,-53.4481 142.335,-40.6999 159.436,-31.1352"/>
<polygon fill="midnightblue" stroke="midnightblue" points="99.0408,-60.9051 92.0218,-68.8413 102.458,-67.0144 99.0408,-60.9051"/>
</g>
<!-- Node5 -->
<g id="node5" class="node"><title>Node5</title>
<g id="a_node5"><a xlink:href="side_8cpp.html" target="_top" xlink:title="rstm/rstm&#45;dev/mesh\l/side.cpp">
<polygon fill="none" stroke="black" points="10.7078,-1 10.7078,-31 114.708,-31 114.708,-1 10.7078,-1"/>
<text text-anchor="start" x="18.7078" y="-19" font-family="Helvetica,sans-Serif" font-size="10.00">rstm/rstm&#45;dev/mesh</text>
<text text-anchor="middle" x="62.7078" y="-8" font-family="Helvetica,sans-Serif" font-size="10.00">/side.cpp</text>
</a>
</g>
</g>
<!-- Node4&#45;&gt;Node5 -->
<g id="edge6" class="edge"><title>Node4&#45;&gt;Node5</title>
<path fill="none" stroke="midnightblue" d="M65.2249,-58.5322C64.669,-49.3606 64.056,-39.2449 63.574,-31.2931"/>
<polygon fill="midnightblue" stroke="midnightblue" points="61.7412,-58.9091 65.8399,-68.679 68.7284,-58.4855 61.7412,-58.9091"/>
</g>
<!-- Node4&#45;&gt;Node6 -->
<g id="edge7" class="edge"><title>Node4&#45;&gt;Node6</title>
<path fill="none" stroke="midnightblue" d="M128.898,-68.8531C130.179,-68.5658 131.45,-68.2812 132.708,-68 194.486,-54.1897 265.59,-38.6049 312.625,-28.3388"/>
<polygon fill="midnightblue" stroke="midnightblue" points="127.927,-65.4839 118.939,-71.0934 129.463,-72.3132 127.927,-65.4839"/>
</g>
<!-- Node8&#45;&gt;Node6 -->
<g id="edge13" class="edge"><title>Node8&#45;&gt;Node6</title>
<path fill="none" stroke="midnightblue" d="M644.676,-67.8495C559.47,-49.8609 471.413,-34.5669 416.945,-25.4913"/>
<polygon fill="midnightblue" stroke="midnightblue" points="644.004,-71.2847 654.513,-69.9412 645.46,-64.4378 644.004,-71.2847"/>
</g>
<!-- Node8&#45;&gt;Node7 -->
<g id="edge10" class="edge"><title>Node8&#45;&gt;Node7</title>
<path fill="none" stroke="midnightblue" d="M662.602,-65.0308C636.33,-54.3276 603.474,-40.9417 579.125,-31.0218"/>
<polygon fill="midnightblue" stroke="midnightblue" points="661.373,-68.3096 671.955,-68.8413 664.014,-61.827 661.373,-68.3096"/>
</g>
<!-- Node8&#45;&gt;Node9 -->
<g id="edge11" class="edge"><title>Node8&#45;&gt;Node9</title>
<path fill="none" stroke="midnightblue" d="M745.711,-64.4805C767.967,-53.9128 795.428,-40.8738 815.938,-31.1352"/>
<polygon fill="midnightblue" stroke="midnightblue" points="744.059,-61.3904 736.527,-68.8413 747.061,-67.7137 744.059,-61.3904"/>
</g>
<!-- Node8&#45;&gt;Node10 -->
<g id="edge12" class="edge"><title>Node8&#45;&gt;Node10</title>
<path fill="none" stroke="midnightblue" d="M706.708,-58.5322C706.708,-49.3606 706.708,-39.2449 706.708,-31.2931"/>
<polygon fill="midnightblue" stroke="midnightblue" points="703.208,-58.6789 706.708,-68.679 710.208,-58.679 703.208,-58.6789"/>
</g>
<!-- Node11&#45;&gt;Node6 -->
<g id="edge17" class="edge"><title>Node11&#45;&gt;Node6</title>
<path fill="none" stroke="midnightblue" d="M527.88,-65.9518C491.762,-55.1162 445.572,-41.2594 411.561,-31.0561"/>
<polygon fill="midnightblue" stroke="midnightblue" points="527.198,-69.4011 537.782,-68.9223 529.21,-62.6964 527.198,-69.4011"/>
</g>
<!-- Node11&#45;&gt;Node10 -->
<g id="edge16" class="edge"><title>Node11&#45;&gt;Node10</title>
<path fill="none" stroke="midnightblue" d="M619.728,-64.0545C639.12,-53.5641 662.819,-40.7434 680.579,-31.1352"/>
<polygon fill="midnightblue" stroke="midnightblue" points="618.01,-61.0047 610.88,-68.8413 621.341,-67.1615 618.01,-61.0047"/>
</g>
<!-- Node13&#45;&gt;Node2 -->
<g id="edge22" class="edge"><title>Node13&#45;&gt;Node2</title>
<path fill="none" stroke="midnightblue" d="M239.628,-62.3094C227.305,-52.1426 212.776,-40.1562 201.758,-31.0663"/>
<polygon fill="midnightblue" stroke="midnightblue" points="237.408,-65.0149 247.349,-68.679 241.863,-59.6153 237.408,-65.0149"/>
</g>
<!-- Node13&#45;&gt;Node6 -->
<g id="edge24" class="edge"><title>Node13&#45;&gt;Node6</title>
<path fill="none" stroke="midnightblue" d="M295.18,-62.8884C310.768,-52.6003 329.36,-40.3293 343.395,-31.0663"/>
<polygon fill="midnightblue" stroke="midnightblue" points="292.824,-60.2494 286.406,-68.679 296.68,-66.0917 292.824,-60.2494"/>
</g>
<!-- Node13&#45;&gt;Node10 -->
<g id="edge23" class="edge"><title>Node13&#45;&gt;Node10</title>
<path fill="none" stroke="midnightblue" d="M326.745,-67.9299C450.751,-45.1841 484.581,-48.7796 605.708,-32 621.599,-29.7986 638.877,-27.2791 654.575,-24.9414"/>
<polygon fill="midnightblue" stroke="midnightblue" points="326.061,-64.4971 316.867,-69.7621 327.337,-71.3797 326.061,-64.4971"/>
</g>
</g>
</svg>
        <g id="navigator" transform="translate(0 0)" fill="#404254">
                <rect fill="#f2f5e9" fill-opacity="0.5" stroke="#606060" stroke-width=".5" x="0" y="0" width="60" height="60"/>
                <use id="zoomplus" xlink:href="#zoomPlus" x="17" y="9" onmousedown="handleZoom(evt,'in')"/>
                <use id="zoomminus" xlink:href="#zoomMin" x="42" y="9" onmousedown="handleZoom(evt,'out')"/>
                <use id="reset" xlink:href="#resetDef" x="30" y="36" onmousedown="handleReset()"/>
                <g id="arrowUp" xlink:href="#dirArrow" transform="translate(30 24)" onmousedown="handlePan(0,-1)">
                  <use xlink:href="#rim" fill="#404040">
                        <set attributeName="fill" to="#808080" begin="arrowUp.mouseover" end="arrowUp.mouseout"/>
                  </use>
                  <path fill="none" stroke="white" stroke-width="1.5" d="M0,-3.0v7 M-2.5,-0.5L0,-3.0L2.5,-0.5"/>
                </g>
                <g id="arrowRight" xlink:href="#dirArrow" transform="rotate(90) translate(36 -43)" onmousedown="handlePan(1,0)">
                  <use xlink:href="#rim" fill="#404040">
                        <set attributeName="fill" to="#808080" begin="arrowRight.mouseover" end="arrowRight.mouseout"/>
                  </use>
                  <path fill="none" stroke="white" stroke-width="1.5" d="M0,-3.0v7 M-2.5,-0.5L0,-3.0L2.5,-0.5"/>
                </g>
                <g id="arrowDown" xlink:href="#dirArrow" transform="rotate(180) translate(-30 -48)" onmousedown="handlePan(0,1)">
                  <use xlink:href="#rim" fill="#404040">
                        <set attributeName="fill" to="#808080" begin="arrowDown.mouseover" end="arrowDown.mouseout"/>
                  </use>
                  <path fill="none" stroke="white" stroke-width="1.5" d="M0,-3.0v7 M-2.5,-0.5L0,-3.0L2.5,-0.5"/>
                </g>
                <g id="arrowLeft" xlink:href="#dirArrow" transform="rotate(270) translate(-36 17)" onmousedown="handlePan(-1,0)">
                  <use xlink:href="#rim" fill="#404040">
                        <set attributeName="fill" to="#808080" begin="arrowLeft.mouseover" end="arrowLeft.mouseout"/>
                  </use>
                  <path fill="none" stroke="white" stroke-width="1.5" d="M0,-3.0v7 M-2.5,-0.5L0,-3.0L2.5,-0.5"/>
                </g>
        </g>
        <svg viewBox="0 0 15 15" width="100%" height="30px" preserveAspectRatio="xMaxYMin meet">
         <g id="arrow_out" transform="scale(0.3 0.3)">
          <a xlink:href="point_8hpp__dep__incl_org.svg" target="_base">
           <rect id="button" ry="5" rx="5" y="6" x="6" height="38" width="38"
                fill="#f2f5e9" fill-opacity="0.5" stroke="#606060" stroke-width="1.0"/>
           <path id="arrow"
             d="M 11.500037,31.436501 C 11.940474,20.09759 22.043105,11.32322 32.158766,21.979434 L 37.068811,17.246167 C 37.068811,17.246167 37.088388,32 37.088388,32 L 22.160133,31.978069 C 22.160133,31.978069 26.997745,27.140456 26.997745,27.140456 C 18.528582,18.264221 13.291696,25.230495 11.500037,31.436501 z"
             style="fill:#404040;"/>
          </a>
         </g>
        </svg>
</svg>
