<?xml version="1.0" encoding="UTF-8" standalone="no"?>
<!DOCTYPE svg PUBLIC "-//W3C//DTD SVG 1.1//EN"
 "http://www.w3.org/Graphics/SVG/1.1/DTD/svg11.dtd">
<!-- Generated by graphviz version 2.36.0 (20140111.2315)
 -->
<!-- Title: common/fraser/portable_defns.h Pages: 1 -->
<!--zoomable 108 -->
<svg id="main" version="1.1" xmlns="http://www.w3.org/2000/svg" xmlns:xlink="http://www.w3.org/1999/xlink" xml:space="preserve" onload="init(evt)">
<style type="text/css"><![CDATA[
.edge:hover path { stroke: red; }
.edge:hover polygon { stroke: red; fill: red; }
]]></style>
<script type="text/javascript"><![CDATA[
var edges = document.getElementsByTagName('g');
if (edges && edges.length) {
  for (var i=0;i<edges.length;i++) {
    if (edges[i].id.substr(0,4)=='edge') {
      edges[i].setAttribute('class','edge');
    }
  }
}
]]></script>
        <defs>
                <circle id="rim" cx="0" cy="0" r="7"/>
                <circle id="rim2" cx="0" cy="0" r="3.5"/>
                <g id="zoomPlus">
                        <use xlink:href="#rim" fill="#404040">
                                <set attributeName="fill" to="#808080" begin="zoomplus.mouseover" end="zoomplus.mouseout"/>
                        </use>
                        <path d="M-4,0h8M0,-4v8" fill="none" stroke="white" stroke-width="1.5" pointer-events="none"/>
                </g>
                <g id="zoomMin">
                        <use xlink:href="#rim" fill="#404040">
                                <set attributeName="fill" to="#808080" begin="zoomminus.mouseover" end="zoomminus.mouseout"/>
                        </use>
                        <path d="M-4,0h8" fill="none" stroke="white" stroke-width="1.5" pointer-events="none"/>
                </g>
                <g id="dirArrow">
                        <path fill="none" stroke="white" stroke-width="1.5" d="M0,-3.0v7 M-2.5,-0.5L0,-3.0L2.5,-0.5"/>
                </g>
               <g id="resetDef">
                       <use xlink:href="#rim2" fill="#404040">
                               <set attributeName="fill" to="#808080" begin="reset.mouseover" end="reset.mouseout"/>
                       </use>
               </g>
        </defs>

<script type="text/javascript">
var viewWidth = 813;
var viewHeight = 108;
var sectionId = 'dynsection-1';
</script>
<script xlink:href="svgpan.js"/>
<svg id="graph" class="graph">
<g id="viewport">
<title>common/fraser/portable_defns.h</title>
<!-- Node1 -->
<g id="node1" class="node"><title>Node1</title>
<polygon fill="#bfbfbf" stroke="black" points="357.5,-69 357.5,-99 476.5,-99 476.5,-69 357.5,-69"/>
<text text-anchor="start" x="365.5" y="-87" font-family="Helvetica,sans-Serif" font-size="10.00">common/fraser/portable</text>
<text text-anchor="middle" x="417" y="-76" font-family="Helvetica,sans-Serif" font-size="10.00">_defns.h</text>
</g>
<!-- Node2 -->
<g id="node2" class="node"><title>Node2</title>
<g id="a_node2"><a xlink:href="lockfreeskip_8c.html" target="_top" xlink:title="boosting/skiplist/lockfreeskip.c">
<polygon fill="none" stroke="black" points="-0.5,-6.5 -0.5,-25.5 150.5,-25.5 150.5,-6.5 -0.5,-6.5"/>
<text text-anchor="middle" x="75" y="-13.5" font-family="Helvetica,sans-Serif" font-size="10.00">boosting/skiplist/lockfreeskip.c</text>
</a>
</g>
</g>
<!-- Node1&#45;&gt;Node2 -->
<g id="edge1" class="edge"><title>Node1&#45;&gt;Node2</title>
<path fill="none" stroke="midnightblue" d="M347.189,-69.5278C278.912,-56.3514 177.019,-36.6878 119.218,-25.5333"/>
<polygon fill="midnightblue" stroke="midnightblue" points="346.946,-73.0453 357.428,-71.5037 348.273,-66.1721 346.946,-73.0453"/>
</g>
<!-- Node3 -->
<g id="node3" class="node"><title>Node3</title>
<g id="a_node3"><a xlink:href="gc_8c.html" target="_top" xlink:title="common/fraser/gc.c">
<polygon fill="none" stroke="black" points="169,-6.5 169,-25.5 273,-25.5 273,-6.5 169,-6.5"/>
<text text-anchor="middle" x="221" y="-13.5" font-family="Helvetica,sans-Serif" font-size="10.00">common/fraser/gc.c</text>
</a>
</g>
</g>
<!-- Node1&#45;&gt;Node3 -->
<g id="edge2" class="edge"><title>Node1&#45;&gt;Node3</title>
<path fill="none" stroke="midnightblue" d="M365.011,-65.4936C326.759,-52.6129 276.409,-35.6581 246.5,-25.5868"/>
<polygon fill="midnightblue" stroke="midnightblue" points="364.359,-68.967 374.953,-68.8413 366.593,-62.333 364.359,-68.967"/>
</g>
<!-- Node4 -->
<g id="node4" class="node"><title>Node4</title>
<g id="a_node4"><a xlink:href="ptst_8c.html" target="_top" xlink:title="common/fraser/ptst.c">
<polygon fill="none" stroke="black" points="291,-6.5 291,-25.5 401,-25.5 401,-6.5 291,-6.5"/>
<text text-anchor="middle" x="346" y="-13.5" font-family="Helvetica,sans-Serif" font-size="10.00">common/fraser/ptst.c</text>
</a>
</g>
</g>
<!-- Node1&#45;&gt;Node4 -->
<g id="edge3" class="edge"><title>Node1&#45;&gt;Node4</title>
<path fill="none" stroke="midnightblue" d="M394.25,-61.8517C381.14,-49.6656 365.356,-34.9929 355.497,-25.8283"/>
<polygon fill="midnightblue" stroke="midnightblue" points="391.887,-64.434 401.594,-68.679 396.653,-59.307 391.887,-64.434"/>
</g>
<!-- Node5 -->
<g id="node5" class="node"><title>Node5</title>
<g id="a_node5"><a xlink:href="stm__fraser_8c.html" target="_top" xlink:title="common/fraser/stm_fraser.c">
<polygon fill="none" stroke="black" points="419,-6.5 419,-25.5 559,-25.5 559,-6.5 419,-6.5"/>
<text text-anchor="middle" x="489" y="-13.5" font-family="Helvetica,sans-Serif" font-size="10.00">common/fraser/stm_fraser.c</text>
</a>
</g>
</g>
<!-- Node1&#45;&gt;Node5 -->
<g id="edge4" class="edge"><title>Node1&#45;&gt;Node5</title>
<path fill="none" stroke="midnightblue" d="M440.071,-61.8517C453.365,-49.6656 469.371,-34.9929 479.369,-25.8283"/>
<polygon fill="midnightblue" stroke="midnightblue" points="437.629,-59.3417 432.623,-68.679 442.36,-64.5018 437.629,-59.3417"/>
</g>
<!-- Node6 -->
<g id="node6" class="node"><title>Node6</title>
<g id="a_node6"><a xlink:href="stmskip_8cc.html" target="_top" xlink:title="ostm/skiplist/stmskip.cc">
<polygon fill="none" stroke="black" points="577.5,-6.5 577.5,-25.5 700.5,-25.5 700.5,-6.5 577.5,-6.5"/>
<text text-anchor="middle" x="639" y="-13.5" font-family="Helvetica,sans-Serif" font-size="10.00">ostm/skiplist/stmskip.cc</text>
</a>
</g>
</g>
<!-- Node1&#45;&gt;Node6 -->
<g id="edge5" class="edge"><title>Node1&#45;&gt;Node6</title>
<path fill="none" stroke="midnightblue" d="M473.986,-66.0581C517.636,-53.0811 576.022,-35.7233 610.363,-25.5138"/>
<polygon fill="midnightblue" stroke="midnightblue" points="472.94,-62.7176 464.352,-68.9223 474.935,-69.4274 472.94,-62.7176"/>
</g>
<!-- Node7 -->
<g id="node7" class="node"><title>Node7</title>
<g id="a_node7"><a xlink:href="transskip_8cc.html" target="_top" xlink:title="translink/skiplist\l/transskip.cc">
<polygon fill="none" stroke="black" points="718.5,-1 718.5,-31 805.5,-31 805.5,-1 718.5,-1"/>
<text text-anchor="start" x="726.5" y="-19" font-family="Helvetica,sans-Serif" font-size="10.00">translink/skiplist</text>
<text text-anchor="middle" x="762" y="-8" font-family="Helvetica,sans-Serif" font-size="10.00">/transskip.cc</text>
</a>
</g>
</g>
<!-- Node1&#45;&gt;Node7 -->
<g id="edge6" class="edge"><title>Node1&#45;&gt;Node7</title>
<path fill="none" stroke="midnightblue" d="M486.66,-72.8983C546.072,-63.7908 633.589,-49.2089 709,-32 712.077,-31.2979 715.241,-30.5276 718.419,-29.7183"/>
<polygon fill="midnightblue" stroke="midnightblue" points="485.998,-69.4586 476.639,-74.4234 487.051,-76.3789 485.998,-69.4586"/>
</g>
</g>
</svg>
        <g id="navigator" transform="translate(0 0)" fill="#404254">
                <rect fill="#f2f5e9" fill-opacity="0.5" stroke="#606060" stroke-width=".5" x="0" y="0" width="60" height="60"/>
                <use id="zoomplus" xlink:href="#zoomPlus" x="17" y="9" onmousedown="handleZoom(evt,'in')"/>
                <use id="zoomminus" xlink:href="#zoomMin" x="42" y="9" onmousedown="handleZoom(evt,'out')"/>
                <use id="reset" xlink:href="#resetDef" x="30" y="36" onmousedown="handleReset()"/>
                <g id="arrowUp" xlink:href="#dirArrow" transform="translate(30 24)" onmousedown="handlePan(0,-1)">
                  <use xlink:href="#rim" fill="#404040">
                        <set attributeName="fill" to="#808080" begin="arrowUp.mouseover" end="arrowUp.mouseout"/>
                  </use>
                  <path fill="none" stroke="white" stroke-width="1.5" d="M0,-3.0v7 M-2.5,-0.5L0,-3.0L2.5,-0.5"/>
                </g>
                <g id="arrowRight" xlink:href="#dirArrow" transform="rotate(90) translate(36 -43)" onmousedown="handlePan(1,0)">
                  <use xlink:href="#rim" fill="#404040">
                        <set attributeName="fill" to="#808080" begin="arrowRight.mouseover" end="arrowRight.mouseout"/>
                  </use>
                  <path fill="none" stroke="white" stroke-width="1.5" d="M0,-3.0v7 M-2.5,-0.5L0,-3.0L2.5,-0.5"/>
                </g>
                <g id="arrowDown" xlink:href="#dirArrow" transform="rotate(180) translate(-30 -48)" onmousedown="handlePan(0,1)">
                  <use xlink:href="#rim" fill="#404040">
                        <set attributeName="fill" to="#808080" begin="arrowDown.mouseover" end="arrowDown.mouseout"/>
                  </use>
                  <path fill="none" stroke="white" stroke-width="1.5" d="M0,-3.0v7 M-2.5,-0.5L0,-3.0L2.5,-0.5"/>
                </g>
                <g id="arrowLeft" xlink:href="#dirArrow" transform="rotate(270) translate(-36 17)" onmousedown="handlePan(-1,0)">
                  <use xlink:href="#rim" fill="#404040">
                        <set attributeName="fill" to="#808080" begin="arrowLeft.mouseover" end="arrowLeft.mouseout"/>
                  </use>
                  <path fill="none" stroke="white" stroke-width="1.5" d="M0,-3.0v7 M-2.5,-0.5L0,-3.0L2.5,-0.5"/>
                </g>
        </g>
        <svg viewBox="0 0 15 15" width="100%" height="30px" preserveAspectRatio="xMaxYMin meet">
         <g id="arrow_out" transform="scale(0.3 0.3)">
          <a xlink:href="portable__defns_8h__dep__incl_org.svg" target="_base">
           <rect id="button" ry="5" rx="5" y="6" x="6" height="38" width="38"
                fill="#f2f5e9" fill-opacity="0.5" stroke="#606060" stroke-width="1.0"/>
           <path id="arrow"
             d="M 11.500037,31.436501 C 11.940474,20.09759 22.043105,11.32322 32.158766,21.979434 L 37.068811,17.246167 C 37.068811,17.246167 37.088388,32 37.088388,32 L 22.160133,31.978069 C 22.160133,31.978069 26.997745,27.140456 26.997745,27.140456 C 18.528582,18.264221 13.291696,25.230495 11.500037,31.436501 z"
             style="fill:#404040;"/>
          </a>
         </g>
        </svg>
</svg>
