<?xml version="1.0" encoding="UTF-8" standalone="no"?>
<!DOCTYPE svg PUBLIC "-//W3C//DTD SVG 1.1//EN"
 "http://www.w3.org/Graphics/SVG/1.1/DTD/svg11.dtd">
<!-- Generated by graphviz version 2.36.0 (20140111.2315)
 -->
<!-- Title: rstm/rstm&#45;dev/stamp&#45;0.9.10/intruder/preprocessor.c Pages: 1 -->
<svg width="358pt" height="152pt"
 viewBox="0.00 0.00 358.00 152.00" xmlns="http://www.w3.org/2000/svg" xmlns:xlink="http://www.w3.org/1999/xlink">
<g id="graph0" class="graph" transform="scale(1 1) rotate(0) translate(4 148)">
<title>rstm/rstm&#45;dev/stamp&#45;0.9.10/intruder/preprocessor.c</title>
<!-- Node1 -->
<g id="node1" class="node"><title>Node1</title>
<polygon fill="#bfbfbf" stroke="black" points="86.5,-113 86.5,-143 235.5,-143 235.5,-113 86.5,-113"/>
<text text-anchor="start" x="94.5" y="-131" font-family="Helvetica,sans-Serif" font-size="10.00">rstm/rstm&#45;dev/stamp</text>
<text text-anchor="middle" x="161" y="-120" font-family="Helvetica,sans-Serif" font-size="10.00">&#45;0.9.10/intruder/preprocessor.c</text>
</g>
<!-- Node2 -->
<g id="node2" class="node"><title>Node2</title>
<g id="a_node2"><a xlink:href="assert_8h.html" target="_top" xlink:title="assert.h">
<polygon fill="none" stroke="black" points="0,-56.5 0,-75.5 52,-75.5 52,-56.5 0,-56.5"/>
<text text-anchor="middle" x="26" y="-63.5" font-family="Helvetica,sans-Serif" font-size="10.00">assert.h</text>
</a>
</g>
</g>
<!-- Node1&#45;&gt;Node2 -->
<g id="edge1" class="edge"><title>Node1&#45;&gt;Node2</title>
<path fill="none" stroke="midnightblue" d="M129.348,-112.933C106.776,-102.9 76.6683,-89.5193 54.7747,-79.7888"/>
<polygon fill="midnightblue" stroke="midnightblue" points="55.9097,-76.4631 45.3501,-75.6 53.0667,-82.8598 55.9097,-76.4631"/>
</g>
<!-- Node4 -->
<g id="node4" class="node"><title>Node4</title>
<polygon fill="none" stroke="#bfbfbf" points="70.5,-56.5 70.5,-75.5 119.5,-75.5 119.5,-56.5 70.5,-56.5"/>
<text text-anchor="middle" x="95" y="-63.5" font-family="Helvetica,sans-Serif" font-size="10.00">ctype.h</text>
</g>
<!-- Node1&#45;&gt;Node4 -->
<g id="edge3" class="edge"><title>Node1&#45;&gt;Node4</title>
<path fill="none" stroke="midnightblue" d="M145.359,-112.781C135.373,-103.703 122.422,-91.9291 112.155,-82.5951"/>
<polygon fill="midnightblue" stroke="midnightblue" points="114.357,-79.8675 104.604,-75.7305 109.649,-85.0471 114.357,-79.8675"/>
</g>
<!-- Node5 -->
<g id="node5" class="node"><title>Node5</title>
<polygon fill="none" stroke="#bfbfbf" points="138,-56.5 138,-75.5 184,-75.5 184,-56.5 138,-56.5"/>
<text text-anchor="middle" x="161" y="-63.5" font-family="Helvetica,sans-Serif" font-size="10.00">stdio.h</text>
</g>
<!-- Node1&#45;&gt;Node5 -->
<g id="edge4" class="edge"><title>Node1&#45;&gt;Node5</title>
<path fill="none" stroke="midnightblue" d="M161,-112.781C161,-104.781 161,-94.6887 161,-86.0168"/>
<polygon fill="midnightblue" stroke="midnightblue" points="164.5,-85.7305 161,-75.7305 157.5,-85.7306 164.5,-85.7305"/>
</g>
<!-- Node6 -->
<g id="node6" class="node"><title>Node6</title>
<polygon fill="none" stroke="#bfbfbf" points="202.5,-56.5 202.5,-75.5 251.5,-75.5 251.5,-56.5 202.5,-56.5"/>
<text text-anchor="middle" x="227" y="-63.5" font-family="Helvetica,sans-Serif" font-size="10.00">string.h</text>
</g>
<!-- Node1&#45;&gt;Node6 -->
<g id="edge5" class="edge"><title>Node1&#45;&gt;Node6</title>
<path fill="none" stroke="midnightblue" d="M176.641,-112.781C186.627,-103.703 199.578,-91.9291 209.845,-82.5951"/>
<polygon fill="midnightblue" stroke="midnightblue" points="212.351,-85.0471 217.396,-75.7305 207.643,-79.8675 212.351,-85.0471"/>
</g>
<!-- Node7 -->
<g id="node7" class="node"><title>Node7</title>
<g id="a_node7"><a xlink:href="preprocessor_8h.html" target="_top" xlink:title="preprocessor.h">
<polygon fill="none" stroke="black" points="269.5,-56.5 269.5,-75.5 350.5,-75.5 350.5,-56.5 269.5,-56.5"/>
<text text-anchor="middle" x="310" y="-63.5" font-family="Helvetica,sans-Serif" font-size="10.00">preprocessor.h</text>
</a>
</g>
</g>
<!-- Node1&#45;&gt;Node7 -->
<g id="edge6" class="edge"><title>Node1&#45;&gt;Node7</title>
<path fill="none" stroke="midnightblue" d="M195.934,-112.933C221.184,-102.765 254.977,-89.157 279.216,-79.3963"/>
<polygon fill="midnightblue" stroke="midnightblue" points="280.675,-82.5821 288.643,-75.6 278.06,-76.0888 280.675,-82.5821"/>
</g>
<!-- Node3 -->
<g id="node3" class="node"><title>Node3</title>
<polygon fill="none" stroke="#bfbfbf" points="0.5,-0.5 0.5,-19.5 51.5,-19.5 51.5,-0.5 0.5,-0.5"/>
<text text-anchor="middle" x="26" y="-7.5" font-family="Helvetica,sans-Serif" font-size="10.00">config.h</text>
</g>
<!-- Node2&#45;&gt;Node3 -->
<g id="edge2" class="edge"><title>Node2&#45;&gt;Node3</title>
<path fill="none" stroke="midnightblue" d="M26,-56.083C26,-49.0059 26,-38.8611 26,-29.9865"/>
<polygon fill="midnightblue" stroke="midnightblue" points="29.5001,-29.751 26,-19.7511 22.5001,-29.7511 29.5001,-29.751"/>
</g>
</g>
</svg>
