<?xml version="1.0" encoding="UTF-8" standalone="no"?>
<!DOCTYPE svg PUBLIC "-//W3C//DTD SVG 1.1//EN"
 "http://www.w3.org/Graphics/SVG/1.1/DTD/svg11.dtd">
<!-- Generated by graphviz version 2.36.0 (20140111.2315)
 -->
<!-- Title: preprocessor_toLower Pages: 1 -->
<svg width="326pt" height="66pt"
 viewBox="0.00 0.00 326.00 66.00" xmlns="http://www.w3.org/2000/svg" xmlns:xlink="http://www.w3.org/1999/xlink">
<g id="graph0" class="graph" transform="scale(1 1) rotate(0) translate(4 62)">
<title>preprocessor_toLower</title>
<!-- Node1 -->
<g id="node1" class="node"><title>Node1</title>
<polygon fill="#bfbfbf" stroke="black" points="0.5,-19.5 0.5,-38.5 113.5,-38.5 113.5,-19.5 0.5,-19.5"/>
<text text-anchor="middle" x="57" y="-26.5" font-family="Helvetica,sans-Serif" font-size="10.00">preprocessor_toLower</text>
</g>
<!-- Node2 -->
<g id="node2" class="node"><title>Node2</title>
<g id="a_node2"><a xlink:href="intruder_8c.html#a29777965e936317880a0b15f669826b4" target="_top" xlink:title="processPackets">
<polygon fill="none" stroke="black" points="151.5,-38.5 151.5,-57.5 238.5,-57.5 238.5,-38.5 151.5,-38.5"/>
<text text-anchor="middle" x="195" y="-45.5" font-family="Helvetica,sans-Serif" font-size="10.00">processPackets</text>
</a>
</g>
</g>
<!-- Node1&#45;&gt;Node2 -->
<g id="edge1" class="edge"><title>Node1&#45;&gt;Node2</title>
<path fill="none" stroke="midnightblue" d="M123.853,-38.2C133.252,-39.5132 142.706,-40.834 151.496,-42.062"/>
<polygon fill="midnightblue" stroke="midnightblue" points="124.097,-34.7002 113.709,-36.7828 123.128,-41.6329 124.097,-34.7002"/>
</g>
<!-- Node4 -->
<g id="node4" class="node"><title>Node4</title>
<g id="a_node4"><a xlink:href="stream_8h.html#a1edfb122c99ded84c9f8239b62ed56c8" target="_top" xlink:title="stream_generate">
<polygon fill="none" stroke="black" points="150.5,-0.5 150.5,-19.5 239.5,-19.5 239.5,-0.5 150.5,-0.5"/>
<text text-anchor="middle" x="195" y="-7.5" font-family="Helvetica,sans-Serif" font-size="10.00">stream_generate</text>
</a>
</g>
</g>
<!-- Node1&#45;&gt;Node4 -->
<g id="edge3" class="edge"><title>Node1&#45;&gt;Node4</title>
<path fill="none" stroke="midnightblue" d="M123.786,-19.8092C132.761,-18.5554 141.788,-17.2944 150.239,-16.1136"/>
<polygon fill="midnightblue" stroke="midnightblue" points="123.128,-16.3671 113.709,-21.2172 124.097,-23.2998 123.128,-16.3671"/>
</g>
<!-- Node3 -->
<g id="node3" class="node"><title>Node3</title>
<g id="a_node3"><a xlink:href="intruder_8c.html#a40c5c0b0d4eb7b59a91108269f69dc89" target="_top" xlink:title="MAIN">
<polygon fill="none" stroke="black" points="276,-19.5 276,-38.5 318,-38.5 318,-19.5 276,-19.5"/>
<text text-anchor="middle" x="297" y="-26.5" font-family="Helvetica,sans-Serif" font-size="10.00">MAIN</text>
</a>
</g>
</g>
<!-- Node2&#45;&gt;Node3 -->
<g id="edge2" class="edge"><title>Node2&#45;&gt;Node3</title>
<path fill="none" stroke="midnightblue" d="M248.789,-37.9701C258.482,-36.1285 268.034,-34.3135 275.983,-32.8032"/>
<polygon fill="midnightblue" stroke="midnightblue" points="247.87,-34.582 238.699,-39.8872 249.177,-41.459 247.87,-34.582"/>
</g>
<!-- Node4&#45;&gt;Node3 -->
<g id="edge4" class="edge"><title>Node4&#45;&gt;Node3</title>
<path fill="none" stroke="midnightblue" d="M249.395,-20.145C258.821,-21.9359 268.085,-23.6961 275.839,-25.1694"/>
<polygon fill="midnightblue" stroke="midnightblue" points="250.048,-16.7066 239.571,-18.2784 248.741,-23.5836 250.048,-16.7066"/>
</g>
</g>
</svg>
