<?xml version="1.0" encoding="UTF-8" standalone="no"?>
<!DOCTYPE svg PUBLIC "-//W3C//DTD SVG 1.1//EN"
 "http://www.w3.org/Graphics/SVG/1.1/DTD/svg11.dtd">
<!-- Generated by graphviz version 2.36.0 (20140111.2315)
 -->
<!-- Title: fr_init_ptst_subsystem Pages: 1 -->
<svg width="464pt" height="126pt"
 viewBox="0.00 0.00 464.00 126.00" xmlns="http://www.w3.org/2000/svg" xmlns:xlink="http://www.w3.org/1999/xlink">
<g id="graph0" class="graph" transform="scale(1 1) rotate(0) translate(4 122)">
<title>fr_init_ptst_subsystem</title>
<!-- Node1 -->
<g id="node1" class="node"><title>Node1</title>
<polygon fill="#bfbfbf" stroke="black" points="0,-54.5 0,-73.5 116,-73.5 116,-54.5 0,-54.5"/>
<text text-anchor="middle" x="58" y="-61.5" font-family="Helvetica,sans-Serif" font-size="10.00">fr_init_ptst_subsystem</text>
</g>
<!-- Node2 -->
<g id="node2" class="node"><title>Node2</title>
<g id="a_node2"><a xlink:href="lockfreeskip_8h.html#a843161a44f973a3538e402c608c23671" target="_top" xlink:title="init_boostskip_subsystem">
<polygon fill="none" stroke="black" points="152,-95.5 152,-114.5 282,-114.5 282,-95.5 152,-95.5"/>
<text text-anchor="middle" x="217" y="-102.5" font-family="Helvetica,sans-Serif" font-size="10.00">init_boostskip_subsystem</text>
</a>
</g>
</g>
<!-- Node1&#45;&gt;Node2 -->
<g id="edge1" class="edge"><title>Node1&#45;&gt;Node2</title>
<path fill="none" stroke="midnightblue" d="M105.246,-76.077C128.942,-82.2651 157.384,-89.6927 179.512,-95.4714"/>
<polygon fill="midnightblue" stroke="midnightblue" points="105.973,-72.6496 95.4136,-73.5093 104.205,-79.4225 105.973,-72.6496"/>
</g>
<!-- Node4 -->
<g id="node4" class="node"><title>Node4</title>
<g id="a_node4"><a xlink:href="stmskip_8h.html#aedbfc8f18bee8e611ee20d17feb55f98" target="_top" xlink:title="init_stmskip_subsystem">
<polygon fill="none" stroke="black" points="156,-54.5 156,-73.5 278,-73.5 278,-54.5 156,-54.5"/>
<text text-anchor="middle" x="217" y="-61.5" font-family="Helvetica,sans-Serif" font-size="10.00">init_stmskip_subsystem</text>
</a>
</g>
</g>
<!-- Node1&#45;&gt;Node4 -->
<g id="edge3" class="edge"><title>Node1&#45;&gt;Node4</title>
<path fill="none" stroke="midnightblue" d="M126.233,-64C136.041,-64 146.088,-64 155.746,-64"/>
<polygon fill="midnightblue" stroke="midnightblue" points="126.125,-60.5001 116.125,-64 126.125,-67.5001 126.125,-60.5001"/>
</g>
<!-- Node6 -->
<g id="node6" class="node"><title>Node6</title>
<g id="a_node6"><a xlink:href="transskip_8h.html#a45613be712b23cdba5b2f588f2c2e244" target="_top" xlink:title="init_transskip_subsystem">
<polygon fill="none" stroke="black" points="153,-11.5 153,-30.5 281,-30.5 281,-11.5 153,-11.5"/>
<text text-anchor="middle" x="217" y="-18.5" font-family="Helvetica,sans-Serif" font-size="10.00">init_transskip_subsystem</text>
</a>
</g>
</g>
<!-- Node1&#45;&gt;Node6 -->
<g id="edge5" class="edge"><title>Node1&#45;&gt;Node6</title>
<path fill="none" stroke="midnightblue" d="M103.674,-51.7643C128.296,-45.0208 158.408,-36.7737 181.254,-30.5164"/>
<polygon fill="midnightblue" stroke="midnightblue" points="102.564,-48.4396 93.8434,-54.4569 104.413,-55.1909 102.564,-48.4396"/>
</g>
<!-- Node3 -->
<g id="node3" class="node"><title>Node3</title>
<g id="a_node3"><a xlink:href="classBoostingSkip.html#a72c8865501cc633f3a3476379246f4e1" target="_top" xlink:title="BoostingSkip::BoostingSkip">
<polygon fill="none" stroke="black" points="318,-98.5 318,-117.5 456,-117.5 456,-98.5 318,-98.5"/>
<text text-anchor="middle" x="387" y="-105.5" font-family="Helvetica,sans-Serif" font-size="10.00">BoostingSkip::BoostingSkip</text>
</a>
</g>
</g>
<!-- Node2&#45;&gt;Node3 -->
<g id="edge2" class="edge"><title>Node2&#45;&gt;Node3</title>
<path fill="none" stroke="midnightblue" d="M292.611,-106.332C300.993,-106.482 309.502,-106.634 317.797,-106.782"/>
<polygon fill="midnightblue" stroke="midnightblue" points="292.534,-102.83 282.473,-106.151 292.409,-109.829 292.534,-102.83"/>
</g>
<!-- Node5 -->
<g id="node5" class="node"><title>Node5</title>
<g id="a_node5"><a xlink:href="classSetAdaptor_3_01stm__skip_01_4.html#acfb0c3f8dd7da801bdafb4ff1de8ba3e" target="_top" xlink:title="SetAdaptor\&lt; stm_skip\l \&gt;::SetAdaptor">
<polygon fill="none" stroke="black" points="330,-49 330,-79 444,-79 444,-49 330,-49"/>
<text text-anchor="start" x="338" y="-67" font-family="Helvetica,sans-Serif" font-size="10.00">SetAdaptor&lt; stm_skip</text>
<text text-anchor="middle" x="387" y="-56" font-family="Helvetica,sans-Serif" font-size="10.00"> &gt;::SetAdaptor</text>
</a>
</g>
</g>
<!-- Node4&#45;&gt;Node5 -->
<g id="edge4" class="edge"><title>Node4&#45;&gt;Node5</title>
<path fill="none" stroke="midnightblue" d="M288.189,-64C302.096,-64 316.522,-64 329.886,-64"/>
<polygon fill="midnightblue" stroke="midnightblue" points="288.177,-60.5001 278.177,-64 288.177,-67.5001 288.177,-60.5001"/>
</g>
<!-- Node7 -->
<g id="node7" class="node"><title>Node7</title>
<g id="a_node7"><a xlink:href="classSetAdaptor_3_01trans__skip_01_4.html#a70793ce56d0b35ad32b8fdf9723e3fed" target="_top" xlink:title="SetAdaptor\&lt; trans_skip\l \&gt;::SetAdaptor">
<polygon fill="none" stroke="black" points="327.5,-0 327.5,-30 446.5,-30 446.5,-0 327.5,-0"/>
<text text-anchor="start" x="335.5" y="-18" font-family="Helvetica,sans-Serif" font-size="10.00">SetAdaptor&lt; trans_skip</text>
<text text-anchor="middle" x="387" y="-7" font-family="Helvetica,sans-Serif" font-size="10.00"> &gt;::SetAdaptor</text>
</a>
</g>
</g>
<!-- Node6&#45;&gt;Node7 -->
<g id="edge6" class="edge"><title>Node6&#45;&gt;Node7</title>
<path fill="none" stroke="midnightblue" d="M291.112,-18.3889C303.221,-17.9564 315.637,-17.5129 327.331,-17.0953"/>
<polygon fill="midnightblue" stroke="midnightblue" points="290.904,-14.894 281.035,-18.7488 291.154,-21.8895 290.904,-14.894"/>
</g>
</g>
</svg>
