<?xml version="1.0" encoding="UTF-8" standalone="no"?>
<!DOCTYPE svg PUBLIC "-//W3C//DTD SVG 1.1//EN"
 "http://www.w3.org/Graphics/SVG/1.1/DTD/svg11.dtd">
<!-- Generated by graphviz version 2.36.0 (20140111.2315)
 -->
<!-- Title: common/fraser/ptst.c Pages: 1 -->
<svg width="396pt" height="140pt"
 viewBox="0.00 0.00 396.00 140.00" xmlns="http://www.w3.org/2000/svg" xmlns:xlink="http://www.w3.org/1999/xlink">
<g id="graph0" class="graph" transform="scale(1 1) rotate(0) translate(4 136)">
<title>common/fraser/ptst.c</title>
<!-- Node1 -->
<g id="node1" class="node"><title>Node1</title>
<polygon fill="#bfbfbf" stroke="black" points="85,-112.5 85,-131.5 195,-131.5 195,-112.5 85,-112.5"/>
<text text-anchor="middle" x="140" y="-119.5" font-family="Helvetica,sans-Serif" font-size="10.00">common/fraser/ptst.c</text>
</g>
<!-- Node2 -->
<g id="node2" class="node"><title>Node2</title>
<polygon fill="none" stroke="#bfbfbf" points="0,-56.5 0,-75.5 46,-75.5 46,-56.5 0,-56.5"/>
<text text-anchor="middle" x="23" y="-63.5" font-family="Helvetica,sans-Serif" font-size="10.00">stdio.h</text>
</g>
<!-- Node1&#45;&gt;Node2 -->
<g id="edge1" class="edge"><title>Node1&#45;&gt;Node2</title>
<path fill="none" stroke="midnightblue" d="M121.461,-112.444C102.377,-103.636 72.4251,-89.8116 50.5643,-79.722"/>
<polygon fill="midnightblue" stroke="midnightblue" points="51.9986,-76.5292 41.4523,-75.5164 49.0651,-82.8849 51.9986,-76.5292"/>
</g>
<!-- Node3 -->
<g id="node3" class="node"><title>Node3</title>
<polygon fill="none" stroke="#bfbfbf" points="64,-56.5 64,-75.5 112,-75.5 112,-56.5 64,-56.5"/>
<text text-anchor="middle" x="88" y="-63.5" font-family="Helvetica,sans-Serif" font-size="10.00">stdlib.h</text>
</g>
<!-- Node1&#45;&gt;Node3 -->
<g id="edge2" class="edge"><title>Node1&#45;&gt;Node3</title>
<path fill="none" stroke="midnightblue" d="M131.413,-112.083C123.841,-104.22 112.622,-92.5688 103.486,-83.0813"/>
<polygon fill="midnightblue" stroke="midnightblue" points="105.885,-80.5266 96.427,-75.7511 100.842,-85.3821 105.885,-80.5266"/>
</g>
<!-- Node4 -->
<g id="node4" class="node"><title>Node4</title>
<polygon fill="none" stroke="#bfbfbf" points="151.5,-0.5 151.5,-19.5 200.5,-19.5 200.5,-0.5 151.5,-0.5"/>
<text text-anchor="middle" x="176" y="-7.5" font-family="Helvetica,sans-Serif" font-size="10.00">string.h</text>
</g>
<!-- Node1&#45;&gt;Node4 -->
<g id="edge3" class="edge"><title>Node1&#45;&gt;Node4</title>
<path fill="none" stroke="midnightblue" d="M142.597,-112.13C146.302,-99.5812 153.388,-75.9489 160,-56 162.938,-47.1345 166.389,-37.3586 169.331,-29.1899"/>
<polygon fill="midnightblue" stroke="midnightblue" points="172.695,-30.1828 172.822,-19.5888 166.116,-27.7911 172.695,-30.1828"/>
</g>
<!-- Node5 -->
<g id="node5" class="node"><title>Node5</title>
<g id="a_node5"><a xlink:href="portable__defns_8h.html" target="_top" xlink:title="portable_defns.h">
<polygon fill="none" stroke="black" points="168.5,-56.5 168.5,-75.5 257.5,-75.5 257.5,-56.5 168.5,-56.5"/>
<text text-anchor="middle" x="213" y="-63.5" font-family="Helvetica,sans-Serif" font-size="10.00">portable_defns.h</text>
</a>
</g>
</g>
<!-- Node1&#45;&gt;Node5 -->
<g id="edge4" class="edge"><title>Node1&#45;&gt;Node5</title>
<path fill="none" stroke="midnightblue" d="M151.729,-112.324C162.837,-104.107 179.742,-91.6017 192.983,-81.8069"/>
<polygon fill="midnightblue" stroke="midnightblue" points="195.1,-84.5948 201.058,-75.8339 190.937,-78.9671 195.1,-84.5948"/>
</g>
<!-- Node6 -->
<g id="node6" class="node"><title>Node6</title>
<g id="a_node6"><a xlink:href="ptst_8h.html" target="_top" xlink:title="ptst.h">
<polygon fill="none" stroke="black" points="275.5,-56.5 275.5,-75.5 316.5,-75.5 316.5,-56.5 275.5,-56.5"/>
<text text-anchor="middle" x="296" y="-63.5" font-family="Helvetica,sans-Serif" font-size="10.00">ptst.h</text>
</a>
</g>
</g>
<!-- Node1&#45;&gt;Node6 -->
<g id="edge6" class="edge"><title>Node1&#45;&gt;Node6</title>
<path fill="none" stroke="midnightblue" d="M164.719,-112.444C192.078,-102.973 236.191,-87.7032 265.632,-77.512"/>
<polygon fill="midnightblue" stroke="midnightblue" points="267.078,-80.7154 275.383,-74.1368 264.788,-74.1005 267.078,-80.7154"/>
</g>
<!-- Node5&#45;&gt;Node4 -->
<g id="edge5" class="edge"><title>Node5&#45;&gt;Node4</title>
<path fill="none" stroke="midnightblue" d="M206.89,-56.083C201.718,-48.5341 194.154,-37.4948 187.806,-28.2298"/>
<polygon fill="midnightblue" stroke="midnightblue" points="190.536,-26.0221 181.996,-19.7511 184.761,-29.9787 190.536,-26.0221"/>
</g>
<!-- Node7 -->
<g id="node7" class="node"><title>Node7</title>
<g id="a_node7"><a xlink:href="gc_8h.html" target="_top" xlink:title="gc.h">
<polygon fill="none" stroke="black" points="278.5,-0.5 278.5,-19.5 313.5,-19.5 313.5,-0.5 278.5,-0.5"/>
<text text-anchor="middle" x="296" y="-7.5" font-family="Helvetica,sans-Serif" font-size="10.00">gc.h</text>
</a>
</g>
</g>
<!-- Node6&#45;&gt;Node7 -->
<g id="edge7" class="edge"><title>Node6&#45;&gt;Node7</title>
<path fill="none" stroke="midnightblue" d="M290.834,-56.083C289.324,-48.9272 288.894,-38.6353 289.542,-29.6911"/>
<polygon fill="midnightblue" stroke="midnightblue" points="293.015,-30.1262 290.869,-19.7511 286.077,-29.2002 293.015,-30.1262"/>
</g>
<!-- Node8 -->
<g id="node8" class="node"><title>Node8</title>
<g id="a_node8"><a xlink:href="common_2fraser_2random_8h.html" target="_top" xlink:title="random.h">
<polygon fill="none" stroke="black" points="331.5,-0.5 331.5,-19.5 388.5,-19.5 388.5,-0.5 331.5,-0.5"/>
<text text-anchor="middle" x="360" y="-7.5" font-family="Helvetica,sans-Serif" font-size="10.00">random.h</text>
</a>
</g>
</g>
<!-- Node6&#45;&gt;Node8 -->
<g id="edge9" class="edge"><title>Node6&#45;&gt;Node8</title>
<path fill="none" stroke="midnightblue" d="M306.283,-56.324C315.836,-48.2631 330.28,-36.0765 341.784,-26.3695"/>
<polygon fill="midnightblue" stroke="midnightblue" points="344.144,-28.9577 349.53,-19.8339 339.63,-23.6076 344.144,-28.9577"/>
</g>
<!-- Node7&#45;&gt;Node6 -->
<g id="edge8" class="edge"><title>Node7&#45;&gt;Node6</title>
<path fill="none" stroke="midnightblue" d="M301.131,-19.7511C302.657,-26.8579 303.104,-37.1357 302.472,-46.1005"/>
<polygon fill="midnightblue" stroke="midnightblue" points="298.993,-45.7134 301.166,-56.083 305.934,-46.6216 298.993,-45.7134"/>
</g>
</g>
</svg>
