<?xml version="1.0" encoding="UTF-8" standalone="no"?>
<!DOCTYPE svg PUBLIC "-//W3C//DTD SVG 1.1//EN"
 "http://www.w3.org/Graphics/SVG/1.1/DTD/svg11.dtd">
<!-- Generated by graphviz version 2.36.0 (20140111.2315)
 -->
<!-- Title: queue_shuffle Pages: 1 -->
<svg width="434pt" height="28pt"
 viewBox="0.00 0.00 434.00 28.00" xmlns="http://www.w3.org/2000/svg" xmlns:xlink="http://www.w3.org/1999/xlink">
<g id="graph0" class="graph" transform="scale(1 1) rotate(0) translate(4 24)">
<title>queue_shuffle</title>
<!-- Node1 -->
<g id="node1" class="node"><title>Node1</title>
<polygon fill="#bfbfbf" stroke="black" points="0.5,-0.5 0.5,-19.5 77.5,-19.5 77.5,-0.5 0.5,-0.5"/>
<text text-anchor="middle" x="39" y="-7.5" font-family="Helvetica,sans-Serif" font-size="10.00">queue_shuffle</text>
</g>
<!-- Node2 -->
<g id="node2" class="node"><title>Node2</title>
<g id="a_node2"><a xlink:href="random_8c.html#a733bbcfd7d850fa4596d834489b83178" target="_top" xlink:title="random_generate">
<polygon fill="none" stroke="black" points="114,-0.5 114,-19.5 206,-19.5 206,-0.5 114,-0.5"/>
<text text-anchor="middle" x="160" y="-7.5" font-family="Helvetica,sans-Serif" font-size="10.00">random_generate</text>
</a>
</g>
</g>
<!-- Node1&#45;&gt;Node2 -->
<g id="edge1" class="edge"><title>Node1&#45;&gt;Node2</title>
<path fill="none" stroke="midnightblue" d="M77.6523,-10C85.8745,-10 94.743,-10 103.496,-10"/>
<polygon fill="midnightblue" stroke="midnightblue" points="103.672,-13.5001 113.672,-10 103.672,-6.5001 103.672,-13.5001"/>
</g>
<!-- Node3 -->
<g id="node3" class="node"><title>Node3</title>
<g id="a_node3"><a xlink:href="mt19937ar_8c.html#a8056efdcc7cbf6ff8f46ce36509c506e" target="_top" xlink:title="genrand_int32">
<polygon fill="none" stroke="black" points="242.5,-0.5 242.5,-19.5 319.5,-19.5 319.5,-0.5 242.5,-0.5"/>
<text text-anchor="middle" x="281" y="-7.5" font-family="Helvetica,sans-Serif" font-size="10.00">genrand_int32</text>
</a>
</g>
</g>
<!-- Node2&#45;&gt;Node3 -->
<g id="edge2" class="edge"><title>Node2&#45;&gt;Node3</title>
<path fill="none" stroke="midnightblue" d="M206.328,-10C214.734,-10 223.539,-10 232.021,-10"/>
<polygon fill="midnightblue" stroke="midnightblue" points="232.156,-13.5001 242.156,-10 232.156,-6.5001 232.156,-13.5001"/>
</g>
<!-- Node4 -->
<g id="node4" class="node"><title>Node4</title>
<g id="a_node4"><a xlink:href="mt19937ar_8c.html#aba3fcf9d2e0c0d1db5b8b63af90eb51c" target="_top" xlink:title="init_genrand">
<polygon fill="none" stroke="black" points="356.5,-0.5 356.5,-19.5 425.5,-19.5 425.5,-0.5 356.5,-0.5"/>
<text text-anchor="middle" x="391" y="-7.5" font-family="Helvetica,sans-Serif" font-size="10.00">init_genrand</text>
</a>
</g>
</g>
<!-- Node3&#45;&gt;Node4 -->
<g id="edge3" class="edge"><title>Node3&#45;&gt;Node4</title>
<path fill="none" stroke="midnightblue" d="M319.773,-10C328.342,-10 337.513,-10 346.304,-10"/>
<polygon fill="midnightblue" stroke="midnightblue" points="346.392,-13.5001 356.392,-10 346.392,-6.5001 346.392,-13.5001"/>
</g>
</g>
</svg>
