<?xml version="1.0" encoding="UTF-8" standalone="no"?>
<!DOCTYPE svg PUBLIC "-//W3C//DTD SVG 1.1//EN"
 "http://www.w3.org/Graphics/SVG/1.1/DTD/svg11.dtd">
<!-- Generated by graphviz version 2.36.0 (20140111.2315)
 -->
<!-- Title: rstm/rstm&#45;dev/mesh/queues.cpp Pages: 1 -->
<svg width="962pt" height="376pt"
 viewBox="0.00 0.00 962.00 376.00" xmlns="http://www.w3.org/2000/svg" xmlns:xlink="http://www.w3.org/1999/xlink">
<g id="graph0" class="graph" transform="scale(1 1) rotate(0) translate(4 372)">
<title>rstm/rstm&#45;dev/mesh/queues.cpp</title>
<!-- Node1 -->
<g id="node1" class="node"><title>Node1</title>
<polygon fill="#bfbfbf" stroke="black" points="420,-337 420,-367 524,-367 524,-337 420,-337"/>
<text text-anchor="start" x="428" y="-355" font-family="Helvetica,sans-Serif" font-size="10.00">rstm/rstm&#45;dev/mesh</text>
<text text-anchor="middle" x="472" y="-344" font-family="Helvetica,sans-Serif" font-size="10.00">/queues.cpp</text>
</g>
<!-- Node2 -->
<g id="node2" class="node"><title>Node2</title>
<polygon fill="none" stroke="#bfbfbf" points="306,-280.5 306,-299.5 354,-299.5 354,-280.5 306,-280.5"/>
<text text-anchor="middle" x="330" y="-287.5" font-family="Helvetica,sans-Serif" font-size="10.00">stdlib.h</text>
</g>
<!-- Node1&#45;&gt;Node2 -->
<g id="edge1" class="edge"><title>Node1&#45;&gt;Node2</title>
<path fill="none" stroke="midnightblue" d="M438.707,-336.933C414.75,-326.81 382.724,-313.278 359.646,-303.527"/>
<polygon fill="midnightblue" stroke="midnightblue" points="360.927,-300.268 350.353,-299.6 358.203,-306.716 360.927,-300.268"/>
</g>
<!-- Node3 -->
<g id="node3" class="node"><title>Node3</title>
<polygon fill="none" stroke="#bfbfbf" points="372.5,-280.5 372.5,-299.5 443.5,-299.5 443.5,-280.5 372.5,-280.5"/>
<text text-anchor="middle" x="408" y="-287.5" font-family="Helvetica,sans-Serif" font-size="10.00">sys/mman.h</text>
</g>
<!-- Node1&#45;&gt;Node3 -->
<g id="edge2" class="edge"><title>Node1&#45;&gt;Node3</title>
<path fill="none" stroke="midnightblue" d="M456.833,-336.781C447.149,-327.703 434.591,-315.929 424.635,-306.595"/>
<polygon fill="midnightblue" stroke="midnightblue" points="427.002,-304.017 417.313,-299.731 422.214,-309.123 427.002,-304.017"/>
</g>
<!-- Node4 -->
<g id="node4" class="node"><title>Node4</title>
<g id="a_node4"><a xlink:href="common_8hpp.html" target="_top" xlink:title="common.hpp">
<polygon fill="none" stroke="black" points="485.5,-168.5 485.5,-187.5 558.5,-187.5 558.5,-168.5 485.5,-168.5"/>
<text text-anchor="middle" x="522" y="-175.5" font-family="Helvetica,sans-Serif" font-size="10.00">common.hpp</text>
</a>
</g>
</g>
<!-- Node1&#45;&gt;Node4 -->
<g id="edge3" class="edge"><title>Node1&#45;&gt;Node4</title>
<path fill="none" stroke="midnightblue" d="M476.092,-336.925C485.099,-305.939 506.639,-231.844 516.679,-197.304"/>
<polygon fill="midnightblue" stroke="midnightblue" points="520.074,-198.164 519.504,-187.585 513.352,-196.21 520.074,-198.164"/>
</g>
<!-- Node18 -->
<g id="node18" class="node"><title>Node18</title>
<g id="a_node18"><a xlink:href="edge_8hpp.html" target="_top" xlink:title="edge.hpp">
<polygon fill="none" stroke="black" points="673,-280.5 673,-299.5 729,-299.5 729,-280.5 673,-280.5"/>
<text text-anchor="middle" x="701" y="-287.5" font-family="Helvetica,sans-Serif" font-size="10.00">edge.hpp</text>
</a>
</g>
</g>
<!-- Node1&#45;&gt;Node18 -->
<g id="edge20" class="edge"><title>Node1&#45;&gt;Node18</title>
<path fill="none" stroke="midnightblue" d="M524.25,-337.31C566.482,-326.245 624.946,-310.927 662.868,-300.991"/>
<polygon fill="midnightblue" stroke="midnightblue" points="664.203,-304.259 672.989,-298.339 662.428,-297.488 664.203,-304.259"/>
</g>
<!-- Node21 -->
<g id="node21" class="node"><title>Node21</title>
<g id="a_node21"><a xlink:href="queues_8hpp.html" target="_top" xlink:title="queues.hpp">
<polygon fill="none" stroke="black" points="281.5,-224.5 281.5,-243.5 348.5,-243.5 348.5,-224.5 281.5,-224.5"/>
<text text-anchor="middle" x="315" y="-231.5" font-family="Helvetica,sans-Serif" font-size="10.00">queues.hpp</text>
</a>
</g>
</g>
<!-- Node1&#45;&gt;Node21 -->
<g id="edge44" class="edge"><title>Node1&#45;&gt;Node21</title>
<path fill="none" stroke="midnightblue" d="M471.794,-336.822C470.798,-320.951 466.795,-295.442 452,-280 427.754,-254.693 389.056,-243.607 358.964,-238.757"/>
<polygon fill="midnightblue" stroke="midnightblue" points="359.112,-235.243 348.716,-237.288 358.118,-242.172 359.112,-235.243"/>
</g>
<!-- Node5 -->
<g id="node5" class="node"><title>Node5</title>
<polygon fill="none" stroke="#bfbfbf" points="801,-0.5 801,-19.5 855,-19.5 855,-0.5 801,-0.5"/>
<text text-anchor="middle" x="828" y="-7.5" font-family="Helvetica,sans-Serif" font-size="10.00">iostream</text>
</g>
<!-- Node4&#45;&gt;Node5 -->
<g id="edge4" class="edge"><title>Node4&#45;&gt;Node5</title>
<path fill="none" stroke="midnightblue" d="M528.285,-168.415C545.055,-146.159 593.324,-86.2303 648,-56 651.18,-54.242 739.33,-32.5993 791.069,-19.9812"/>
<polygon fill="midnightblue" stroke="midnightblue" points="792.009,-23.3548 800.896,-17.5865 790.351,-16.5538 792.009,-23.3548"/>
</g>
<!-- Node6 -->
<g id="node6" class="node"><title>Node6</title>
<polygon fill="none" stroke="#bfbfbf" points="546.5,-0.5 546.5,-19.5 595.5,-19.5 595.5,-0.5 546.5,-0.5"/>
<text text-anchor="middle" x="571" y="-7.5" font-family="Helvetica,sans-Serif" font-size="10.00">cassert</text>
</g>
<!-- Node4&#45;&gt;Node6 -->
<g id="edge5" class="edge"><title>Node4&#45;&gt;Node6</title>
<path fill="none" stroke="midnightblue" d="M525.524,-168.466C529.163,-159.483 534.874,-144.885 539,-132 550.497,-96.0915 561.11,-53.2706 566.756,-29.4053"/>
<polygon fill="midnightblue" stroke="midnightblue" points="570.181,-30.1297 569.048,-19.5956 563.364,-28.5369 570.181,-30.1297"/>
</g>
<!-- Node7 -->
<g id="node7" class="node"><title>Node7</title>
<g id="a_node7"><a xlink:href="platform_8hpp.html" target="_top" xlink:title="common/platform.hpp">
<polygon fill="none" stroke="black" points="90.5,-112.5 90.5,-131.5 201.5,-131.5 201.5,-112.5 90.5,-112.5"/>
<text text-anchor="middle" x="146" y="-119.5" font-family="Helvetica,sans-Serif" font-size="10.00">common/platform.hpp</text>
</a>
</g>
</g>
<!-- Node4&#45;&gt;Node7 -->
<g id="edge6" class="edge"><title>Node4&#45;&gt;Node7</title>
<path fill="none" stroke="midnightblue" d="M485.263,-171.724C421.951,-162.631 291.453,-143.89 212.037,-132.484"/>
<polygon fill="midnightblue" stroke="midnightblue" points="212.056,-128.951 201.66,-130.994 211.061,-135.88 212.056,-128.951"/>
</g>
<!-- Node12 -->
<g id="node12" class="node"><title>Node12</title>
<g id="a_node12"><a xlink:href="ThreadLocal_8hpp.html" target="_top" xlink:title="common/ThreadLocal.hpp">
<polygon fill="none" stroke="black" points="401.5,-112.5 401.5,-131.5 530.5,-131.5 530.5,-112.5 401.5,-112.5"/>
<text text-anchor="middle" x="466" y="-119.5" font-family="Helvetica,sans-Serif" font-size="10.00">common/ThreadLocal.hpp</text>
</a>
</g>
</g>
<!-- Node4&#45;&gt;Node12 -->
<g id="edge11" class="edge"><title>Node4&#45;&gt;Node12</title>
<path fill="none" stroke="midnightblue" d="M513.003,-168.324C504.806,-160.42 492.494,-148.548 482.528,-138.938"/>
<polygon fill="midnightblue" stroke="midnightblue" points="484.789,-136.256 475.161,-131.834 479.93,-141.295 484.789,-136.256"/>
</g>
<!-- Node13 -->
<g id="node13" class="node"><title>Node13</title>
<g id="a_node13"><a xlink:href="lock_8hpp.html" target="_top" xlink:title="lock.hpp">
<polygon fill="none" stroke="black" points="701.5,-112.5 701.5,-131.5 754.5,-131.5 754.5,-112.5 701.5,-112.5"/>
<text text-anchor="middle" x="728" y="-119.5" font-family="Helvetica,sans-Serif" font-size="10.00">lock.hpp</text>
</a>
</g>
</g>
<!-- Node4&#45;&gt;Node13 -->
<g id="edge13" class="edge"><title>Node4&#45;&gt;Node13</title>
<path fill="none" stroke="midnightblue" d="M554.641,-168.444C591.925,-158.67 652.768,-142.721 691.566,-132.551"/>
<polygon fill="midnightblue" stroke="midnightblue" points="692.621,-135.892 701.407,-129.971 690.846,-129.121 692.621,-135.892"/>
</g>
<!-- Node17 -->
<g id="node17" class="node"><title>Node17</title>
<polygon fill="none" stroke="#bfbfbf" points="330.5,-112.5 330.5,-131.5 383.5,-131.5 383.5,-112.5 330.5,-112.5"/>
<text text-anchor="middle" x="357" y="-119.5" font-family="Helvetica,sans-Serif" font-size="10.00">malloc.h</text>
</g>
<!-- Node4&#45;&gt;Node17 -->
<g id="edge19" class="edge"><title>Node4&#45;&gt;Node17</title>
<path fill="none" stroke="midnightblue" d="M495.855,-168.444C467.977,-159.32 423.652,-144.813 392.6,-134.651"/>
<polygon fill="midnightblue" stroke="midnightblue" points="393.615,-131.3 383.022,-131.516 391.438,-137.953 393.615,-131.3"/>
</g>
<!-- Node8 -->
<g id="node8" class="node"><title>Node8</title>
<polygon fill="none" stroke="#bfbfbf" points="202.5,-56.5 202.5,-75.5 273.5,-75.5 273.5,-56.5 202.5,-56.5"/>
<text text-anchor="middle" x="238" y="-63.5" font-family="Helvetica,sans-Serif" font-size="10.00">stm/config.h</text>
</g>
<!-- Node7&#45;&gt;Node8 -->
<g id="edge7" class="edge"><title>Node7&#45;&gt;Node8</title>
<path fill="none" stroke="midnightblue" d="M160.781,-112.324C175.267,-103.822 197.573,-90.7288 214.493,-80.7975"/>
<polygon fill="midnightblue" stroke="midnightblue" points="216.403,-83.735 223.255,-75.6545 212.859,-77.6981 216.403,-83.735"/>
</g>
<!-- Node9 -->
<g id="node9" class="node"><title>Node9</title>
<polygon fill="none" stroke="#bfbfbf" points="68.5,-56.5 68.5,-75.5 117.5,-75.5 117.5,-56.5 68.5,-56.5"/>
<text text-anchor="middle" x="93" y="-63.5" font-family="Helvetica,sans-Serif" font-size="10.00">stdint.h</text>
</g>
<!-- Node7&#45;&gt;Node9 -->
<g id="edge8" class="edge"><title>Node7&#45;&gt;Node9</title>
<path fill="none" stroke="midnightblue" d="M137.248,-112.083C129.53,-104.22 118.095,-92.5688 108.783,-83.0813"/>
<polygon fill="midnightblue" stroke="midnightblue" points="111.092,-80.4363 101.589,-75.7511 106.096,-85.3396 111.092,-80.4363"/>
</g>
<!-- Node10 -->
<g id="node10" class="node"><title>Node10</title>
<polygon fill="none" stroke="#bfbfbf" points="136,-56.5 136,-75.5 184,-75.5 184,-56.5 136,-56.5"/>
<text text-anchor="middle" x="160" y="-63.5" font-family="Helvetica,sans-Serif" font-size="10.00">limits.h</text>
</g>
<!-- Node7&#45;&gt;Node10 -->
<g id="edge9" class="edge"><title>Node7&#45;&gt;Node10</title>
<path fill="none" stroke="midnightblue" d="M148.312,-112.083C150.167,-104.927 152.835,-94.6353 155.154,-85.6911"/>
<polygon fill="midnightblue" stroke="midnightblue" points="158.609,-86.3094 157.731,-75.7511 151.834,-84.5527 158.609,-86.3094"/>
</g>
<!-- Node11 -->
<g id="node11" class="node"><title>Node11</title>
<polygon fill="none" stroke="#bfbfbf" points="-0.5,-56.5 -0.5,-75.5 50.5,-75.5 50.5,-56.5 -0.5,-56.5"/>
<text text-anchor="middle" x="25" y="-63.5" font-family="Helvetica,sans-Serif" font-size="10.00">unistd.h</text>
</g>
<!-- Node7&#45;&gt;Node11 -->
<g id="edge10" class="edge"><title>Node7&#45;&gt;Node11</title>
<path fill="none" stroke="midnightblue" d="M126.827,-112.444C107.091,-103.636 76.1148,-89.8116 53.5066,-79.722"/>
<polygon fill="midnightblue" stroke="midnightblue" points="54.6414,-76.3957 44.0831,-75.5164 51.7886,-82.788 54.6414,-76.3957"/>
</g>
<!-- Node12&#45;&gt;Node8 -->
<g id="edge12" class="edge"><title>Node12&#45;&gt;Node8</title>
<path fill="none" stroke="midnightblue" d="M429.873,-112.444C390.233,-103.055 326.53,-87.9676 283.508,-77.7782"/>
<polygon fill="midnightblue" stroke="midnightblue" points="284.12,-74.3265 273.583,-75.4275 282.507,-81.1381 284.12,-74.3265"/>
</g>
<!-- Node14 -->
<g id="node14" class="node"><title>Node14</title>
<polygon fill="none" stroke="#bfbfbf" points="656.5,-56.5 656.5,-75.5 713.5,-75.5 713.5,-56.5 656.5,-56.5"/>
<text text-anchor="middle" x="685" y="-63.5" font-family="Helvetica,sans-Serif" font-size="10.00">pthread.h</text>
</g>
<!-- Node13&#45;&gt;Node14 -->
<g id="edge14" class="edge"><title>Node13&#45;&gt;Node14</title>
<path fill="none" stroke="midnightblue" d="M720.899,-112.083C714.763,-104.377 705.73,-93.0333 698.261,-83.6531"/>
<polygon fill="midnightblue" stroke="midnightblue" points="700.936,-81.3936 691.968,-75.7511 695.46,-85.7542 700.936,-81.3936"/>
</g>
<!-- Node15 -->
<g id="node15" class="node"><title>Node15</title>
<g id="a_node15"><a xlink:href="mesh_2macros_8hpp.html" target="_top" xlink:title="macros.hpp">
<polygon fill="none" stroke="black" points="732,-56.5 732,-75.5 800,-75.5 800,-56.5 732,-56.5"/>
<text text-anchor="middle" x="766" y="-63.5" font-family="Helvetica,sans-Serif" font-size="10.00">macros.hpp</text>
</a>
</g>
</g>
<!-- Node13&#45;&gt;Node15 -->
<g id="edge15" class="edge"><title>Node13&#45;&gt;Node15</title>
<path fill="none" stroke="midnightblue" d="M734.275,-112.083C739.642,-104.455 747.518,-93.2645 754.079,-83.9408"/>
<polygon fill="midnightblue" stroke="midnightblue" points="756.949,-85.9434 759.842,-75.7511 751.225,-81.9149 756.949,-85.9434"/>
</g>
<!-- Node15&#45;&gt;Node5 -->
<g id="edge16" class="edge"><title>Node15&#45;&gt;Node5</title>
<path fill="none" stroke="midnightblue" d="M775.961,-56.324C785.127,-48.3414 798.937,-36.3128 810.028,-26.6529"/>
<polygon fill="midnightblue" stroke="midnightblue" points="812.615,-29.041 817.857,-19.8339 808.018,-23.7624 812.615,-29.041"/>
</g>
<!-- Node15&#45;&gt;Node6 -->
<g id="edge18" class="edge"><title>Node15&#45;&gt;Node6</title>
<path fill="none" stroke="midnightblue" d="M735.102,-56.4435C699.763,-46.6574 642.064,-30.6793 605.344,-20.5107"/>
<polygon fill="midnightblue" stroke="midnightblue" points="606.151,-17.1025 595.58,-17.8067 604.283,-23.8486 606.151,-17.1025"/>
</g>
<!-- Node16 -->
<g id="node16" class="node"><title>Node16</title>
<polygon fill="none" stroke="#bfbfbf" points="733.5,-0.5 733.5,-19.5 782.5,-19.5 782.5,-0.5 733.5,-0.5"/>
<text text-anchor="middle" x="758" y="-7.5" font-family="Helvetica,sans-Serif" font-size="10.00">string.h</text>
</g>
<!-- Node15&#45;&gt;Node16 -->
<g id="edge17" class="edge"><title>Node15&#45;&gt;Node16</title>
<path fill="none" stroke="midnightblue" d="M764.679,-56.083C763.619,-48.9272 762.094,-38.6353 760.769,-29.6911"/>
<polygon fill="midnightblue" stroke="midnightblue" points="764.224,-29.1302 759.296,-19.7511 757.3,-30.1561 764.224,-29.1302"/>
</g>
<!-- Node18&#45;&gt;Node4 -->
<g id="edge31" class="edge"><title>Node18&#45;&gt;Node4</title>
<path fill="none" stroke="midnightblue" d="M672.921,-284.917C643.997,-279.564 598.778,-267.889 567,-244 550.598,-231.67 538.007,-211.574 530.369,-196.987"/>
<polygon fill="midnightblue" stroke="midnightblue" points="533.459,-195.341 525.886,-187.932 527.186,-198.446 533.459,-195.341"/>
</g>
<!-- Node18&#45;&gt;Node5 -->
<g id="edge21" class="edge"><title>Node18&#45;&gt;Node5</title>
<path fill="none" stroke="midnightblue" d="M729.042,-289.31C794.914,-288.426 954,-276.228 954,-179 954,-179 954,-179 954,-121 954,-71.9526 899.149,-39.7416 861.828,-23.5016"/>
<polygon fill="midnightblue" stroke="midnightblue" points="862.871,-20.1446 852.294,-19.5298 860.179,-26.6064 862.871,-20.1446"/>
</g>
<!-- Node18&#45;&gt;Node13 -->
<g id="edge43" class="edge"><title>Node18&#45;&gt;Node13</title>
<path fill="none" stroke="midnightblue" d="M729.02,-285.784C776.848,-278.501 871.553,-255.726 897,-188 917.411,-133.677 820.507,-123.9 764.867,-122.671"/>
<polygon fill="midnightblue" stroke="midnightblue" points="764.713,-119.169 754.665,-122.531 764.616,-126.168 764.713,-119.169"/>
</g>
<!-- Node19 -->
<g id="node19" class="node"><title>Node19</title>
<polygon fill="none" stroke="#bfbfbf" points="836,-168.5 836,-187.5 888,-187.5 888,-168.5 836,-168.5"/>
<text text-anchor="middle" x="862" y="-175.5" font-family="Helvetica,sans-Serif" font-size="10.00">sstream</text>
</g>
<!-- Node18&#45;&gt;Node19 -->
<g id="edge22" class="edge"><title>Node18&#45;&gt;Node19</title>
<path fill="none" stroke="midnightblue" d="M712.332,-280.317C729.062,-267.592 761.473,-243.295 790,-224 806.025,-213.161 824.544,-201.607 838.787,-192.921"/>
<polygon fill="midnightblue" stroke="midnightblue" points="840.723,-195.841 847.46,-187.664 837.095,-189.855 840.723,-195.841"/>
</g>
<!-- Node20 -->
<g id="node20" class="node"><title>Node20</title>
<polygon fill="none" stroke="#bfbfbf" points="798.5,-224.5 798.5,-243.5 839.5,-243.5 839.5,-224.5 798.5,-224.5"/>
<text text-anchor="middle" x="819" y="-231.5" font-family="Helvetica,sans-Serif" font-size="10.00">string</text>
</g>
<!-- Node18&#45;&gt;Node20 -->
<g id="edge23" class="edge"><title>Node18&#45;&gt;Node20</title>
<path fill="none" stroke="midnightblue" d="M719.697,-280.444C738.944,-271.636 769.152,-257.812 791.2,-247.722"/>
<polygon fill="midnightblue" stroke="midnightblue" points="792.753,-250.86 800.39,-243.516 789.84,-244.495 792.753,-250.86"/>
</g>
<!-- Node18&#45;&gt;Node21 -->
<g id="edge24" class="edge"><title>Node18&#45;&gt;Node21</title>
<path fill="none" stroke="midnightblue" d="M672.929,-285.073C606.433,-275.77 438.905,-252.334 358.879,-241.138"/>
<polygon fill="midnightblue" stroke="midnightblue" points="359.034,-237.626 348.646,-239.707 358.064,-244.559 359.034,-237.626"/>
</g>
<!-- Node25 -->
<g id="node25" class="node"><title>Node25</title>
<g id="a_node25"><a xlink:href="point_8hpp.html" target="_top" xlink:title="point.hpp">
<polygon fill="none" stroke="black" points="576,-224.5 576,-243.5 632,-243.5 632,-224.5 576,-224.5"/>
<text text-anchor="middle" x="604" y="-231.5" font-family="Helvetica,sans-Serif" font-size="10.00">point.hpp</text>
</a>
</g>
</g>
<!-- Node18&#45;&gt;Node25 -->
<g id="edge32" class="edge"><title>Node18&#45;&gt;Node25</title>
<path fill="none" stroke="midnightblue" d="M685.415,-280.324C670.001,-271.743 646.188,-258.486 628.29,-248.522"/>
<polygon fill="midnightblue" stroke="midnightblue" points="629.986,-245.461 619.546,-243.655 626.581,-251.577 629.986,-245.461"/>
</g>
<!-- Node27 -->
<g id="node27" class="node"><title>Node27</title>
<g id="a_node27"><a xlink:href="my__thread_8hpp.html" target="_top" xlink:title="my_thread.hpp">
<polygon fill="none" stroke="black" points="660.5,-224.5 660.5,-243.5 741.5,-243.5 741.5,-224.5 660.5,-224.5"/>
<text text-anchor="middle" x="701" y="-231.5" font-family="Helvetica,sans-Serif" font-size="10.00">my_thread.hpp</text>
</a>
</g>
</g>
<!-- Node18&#45;&gt;Node27 -->
<g id="edge35" class="edge"><title>Node18&#45;&gt;Node27</title>
<path fill="none" stroke="midnightblue" d="M701,-280.083C701,-273.006 701,-262.861 701,-253.986"/>
<polygon fill="midnightblue" stroke="midnightblue" points="704.5,-253.751 701,-243.751 697.5,-253.751 704.5,-253.751"/>
</g>
<!-- Node21&#45;&gt;Node4 -->
<g id="edge28" class="edge"><title>Node21&#45;&gt;Node4</title>
<path fill="none" stroke="midnightblue" d="M347.8,-224.444C383.38,-215.162 440.314,-200.309 479.347,-190.127"/>
<polygon fill="midnightblue" stroke="midnightblue" points="480.561,-193.427 489.354,-187.516 478.794,-186.654 480.561,-193.427"/>
</g>
<!-- Node21&#45;&gt;Node6 -->
<g id="edge26" class="edge"><title>Node21&#45;&gt;Node6</title>
<path fill="none" stroke="midnightblue" d="M312.564,-224.379C307.088,-203.041 296.133,-146.966 321,-112 371.338,-41.2205 480.033,-19.9842 536.051,-13.6562"/>
<polygon fill="midnightblue" stroke="midnightblue" points="536.608,-17.1174 546.196,-12.6092 535.889,-10.1544 536.608,-17.1174"/>
</g>
<!-- Node22 -->
<g id="node22" class="node"><title>Node22</title>
<polygon fill="none" stroke="#bfbfbf" points="180.5,-168.5 180.5,-187.5 225.5,-187.5 225.5,-168.5 180.5,-168.5"/>
<text text-anchor="middle" x="203" y="-175.5" font-family="Helvetica,sans-Serif" font-size="10.00">cstdlib</text>
</g>
<!-- Node21&#45;&gt;Node22 -->
<g id="edge25" class="edge"><title>Node21&#45;&gt;Node22</title>
<path fill="none" stroke="midnightblue" d="M297.005,-224.324C278.962,-215.625 250.953,-202.12 230.197,-192.113"/>
<polygon fill="midnightblue" stroke="midnightblue" points="231.478,-188.845 220.95,-187.655 228.438,-195.15 231.478,-188.845"/>
</g>
<!-- Node23 -->
<g id="node23" class="node"><title>Node23</title>
<polygon fill="none" stroke="#bfbfbf" points="243.5,-168.5 243.5,-187.5 286.5,-187.5 286.5,-168.5 243.5,-168.5"/>
<text text-anchor="middle" x="265" y="-175.5" font-family="Helvetica,sans-Serif" font-size="10.00">queue</text>
</g>
<!-- Node21&#45;&gt;Node23 -->
<g id="edge27" class="edge"><title>Node21&#45;&gt;Node23</title>
<path fill="none" stroke="midnightblue" d="M306.744,-224.083C299.535,-216.298 288.89,-204.801 280.154,-195.367"/>
<polygon fill="midnightblue" stroke="midnightblue" points="282.465,-192.711 273.103,-187.751 277.329,-197.467 282.465,-192.711"/>
</g>
<!-- Node24 -->
<g id="node24" class="node"><title>Node24</title>
<g id="a_node24"><a xlink:href="counted__ptr_8hpp.html" target="_top" xlink:title="counted_ptr.hpp">
<polygon fill="none" stroke="black" points="76,-168.5 76,-187.5 162,-187.5 162,-168.5 76,-168.5"/>
<text text-anchor="middle" x="119" y="-175.5" font-family="Helvetica,sans-Serif" font-size="10.00">counted_ptr.hpp</text>
</a>
</g>
</g>
<!-- Node21&#45;&gt;Node24 -->
<g id="edge29" class="edge"><title>Node21&#45;&gt;Node24</title>
<path fill="none" stroke="midnightblue" d="M283.943,-224.444C250.397,-215.201 196.803,-200.436 159.859,-190.257"/>
<polygon fill="midnightblue" stroke="midnightblue" points="160.482,-186.798 149.911,-187.516 158.623,-193.547 160.482,-186.798"/>
</g>
<!-- Node24&#45;&gt;Node7 -->
<g id="edge30" class="edge"><title>Node24&#45;&gt;Node7</title>
<path fill="none" stroke="midnightblue" d="M123.459,-168.083C127.154,-160.691 132.523,-149.953 137.094,-140.811"/>
<polygon fill="midnightblue" stroke="midnightblue" points="140.283,-142.261 141.624,-131.751 134.022,-139.13 140.283,-142.261"/>
</g>
<!-- Node25&#45;&gt;Node4 -->
<g id="edge34" class="edge"><title>Node25&#45;&gt;Node4</title>
<path fill="none" stroke="midnightblue" d="M590.825,-224.324C578.153,-215.979 558.767,-203.212 543.794,-193.352"/>
<polygon fill="midnightblue" stroke="midnightblue" points="545.419,-190.231 535.142,-187.655 541.569,-196.078 545.419,-190.231"/>
</g>
<!-- Node26 -->
<g id="node26" class="node"><title>Node26</title>
<polygon fill="none" stroke="#bfbfbf" points="577,-168.5 577,-187.5 607,-187.5 607,-168.5 577,-168.5"/>
<text text-anchor="middle" x="592" y="-175.5" font-family="Helvetica,sans-Serif" font-size="10.00">set</text>
</g>
<!-- Node25&#45;&gt;Node26 -->
<g id="edge33" class="edge"><title>Node25&#45;&gt;Node26</title>
<path fill="none" stroke="midnightblue" d="M602.018,-224.083C600.428,-216.927 598.141,-206.635 596.154,-197.691"/>
<polygon fill="midnightblue" stroke="midnightblue" points="599.531,-196.754 593.945,-187.751 592.697,-198.272 599.531,-196.754"/>
</g>
<!-- Node27&#45;&gt;Node4 -->
<g id="edge40" class="edge"><title>Node27&#45;&gt;Node4</title>
<path fill="none" stroke="midnightblue" d="M672.637,-224.444C642.262,-215.28 593.89,-200.688 560.184,-190.519"/>
<polygon fill="midnightblue" stroke="midnightblue" points="560.815,-187.054 550.23,-187.516 558.793,-193.756 560.815,-187.054"/>
</g>
<!-- Node27&#45;&gt;Node5 -->
<g id="edge37" class="edge"><title>Node27&#45;&gt;Node5</title>
<path fill="none" stroke="midnightblue" d="M714.38,-224.317C726.245,-216.091 743.438,-202.816 755,-188 794.134,-137.852 815.553,-63.7708 823.874,-29.5605"/>
<polygon fill="midnightblue" stroke="midnightblue" points="827.339,-30.1129 826.2,-19.5794 820.521,-28.5239 827.339,-30.1129"/>
</g>
<!-- Node27&#45;&gt;Node6 -->
<g id="edge39" class="edge"><title>Node27&#45;&gt;Node6</title>
<path fill="none" stroke="midnightblue" d="M695.904,-224.297C676.573,-191.286 607.543,-73.4041 581.261,-28.522"/>
<polygon fill="midnightblue" stroke="midnightblue" points="584.276,-26.7444 576.202,-19.8837 578.235,-30.2817 584.276,-26.7444"/>
</g>
<!-- Node27&#45;&gt;Node13 -->
<g id="edge42" class="edge"><title>Node27&#45;&gt;Node13</title>
<path fill="none" stroke="midnightblue" d="M703.119,-224.368C707.476,-206.617 717.527,-165.666 723.435,-141.597"/>
<polygon fill="midnightblue" stroke="midnightblue" points="726.906,-142.137 725.891,-131.591 720.108,-140.469 726.906,-142.137"/>
</g>
<!-- Node27&#45;&gt;Node14 -->
<g id="edge36" class="edge"><title>Node27&#45;&gt;Node14</title>
<path fill="none" stroke="midnightblue" d="M700.14,-224.075C697.621,-197.945 690.225,-121.211 686.791,-85.577"/>
<polygon fill="midnightblue" stroke="midnightblue" points="690.269,-85.1862 685.826,-75.5681 683.301,-85.8578 690.269,-85.1862"/>
</g>
<!-- Node27&#45;&gt;Node15 -->
<g id="edge41" class="edge"><title>Node27&#45;&gt;Node15</title>
<path fill="none" stroke="midnightblue" d="M708.51,-224.299C722.319,-207.692 751.389,-169.759 763,-132 767.623,-116.968 768.105,-99.0617 767.583,-85.8535"/>
<polygon fill="midnightblue" stroke="midnightblue" points="771.062,-85.4078 766.944,-75.6459 764.075,-85.8449 771.062,-85.4078"/>
</g>
<!-- Node27&#45;&gt;Node19 -->
<g id="edge38" class="edge"><title>Node27&#45;&gt;Node19</title>
<path fill="none" stroke="midnightblue" d="M726.511,-224.444C753.596,-215.359 796.59,-200.939 826.869,-190.783"/>
<polygon fill="midnightblue" stroke="midnightblue" points="828.24,-194.015 836.608,-187.516 826.014,-187.378 828.24,-194.015"/>
</g>
</g>
</svg>
