<?xml version="1.0" encoding="UTF-8" standalone="no"?>
<!DOCTYPE svg PUBLIC "-//W3C//DTD SVG 1.1//EN"
 "http://www.w3.org/Graphics/SVG/1.1/DTD/svg11.dtd">
<!-- Generated by graphviz version 2.36.0 (20140111.2315)
 -->
<!-- Title: rstm/rstm&#45;dev/stamp&#45;0.9.10/lib/queue.h Pages: 1 -->
<svg width="193pt" height="208pt"
 viewBox="0.00 0.00 193.00 208.00" xmlns="http://www.w3.org/2000/svg" xmlns:xlink="http://www.w3.org/1999/xlink">
<g id="graph0" class="graph" transform="scale(1 1) rotate(0) translate(4 204)">
<title>rstm/rstm&#45;dev/stamp&#45;0.9.10/lib/queue.h</title>
<!-- Node1 -->
<g id="node1" class="node"><title>Node1</title>
<polygon fill="#bfbfbf" stroke="black" points="46.5,-169 46.5,-199 153.5,-199 153.5,-169 46.5,-169"/>
<text text-anchor="start" x="54.5" y="-187" font-family="Helvetica,sans-Serif" font-size="10.00">rstm/rstm&#45;dev/stamp</text>
<text text-anchor="middle" x="100" y="-176" font-family="Helvetica,sans-Serif" font-size="10.00">&#45;0.9.10/lib/queue.h</text>
</g>
<!-- Node2 -->
<g id="node2" class="node"><title>Node2</title>
<g id="a_node2"><a xlink:href="rstm_2rstm-dev_2stamp-0_89_810_2lib_2random_8h.html" target="_top" xlink:title="random.h">
<polygon fill="none" stroke="black" points="6.5,-112.5 6.5,-131.5 63.5,-131.5 63.5,-112.5 6.5,-112.5"/>
<text text-anchor="middle" x="35" y="-119.5" font-family="Helvetica,sans-Serif" font-size="10.00">random.h</text>
</a>
</g>
</g>
<!-- Node1&#45;&gt;Node2 -->
<g id="edge1" class="edge"><title>Node1&#45;&gt;Node2</title>
<path fill="none" stroke="midnightblue" d="M84.5959,-168.781C74.7611,-159.703 62.0065,-147.929 51.8947,-138.595"/>
<polygon fill="midnightblue" stroke="midnightblue" points="54.1801,-135.942 44.4581,-131.731 49.4321,-141.085 54.1801,-135.942"/>
</g>
<!-- Node5 -->
<g id="node5" class="node"><title>Node5</title>
<g id="a_node5"><a xlink:href="tm_8h.html" target="_top" xlink:title="tm.h">
<polygon fill="none" stroke="black" points="82,-112.5 82,-131.5 118,-131.5 118,-112.5 82,-112.5"/>
<text text-anchor="middle" x="100" y="-119.5" font-family="Helvetica,sans-Serif" font-size="10.00">tm.h</text>
</a>
</g>
</g>
<!-- Node1&#45;&gt;Node5 -->
<g id="edge4" class="edge"><title>Node1&#45;&gt;Node5</title>
<path fill="none" stroke="midnightblue" d="M100,-168.781C100,-160.781 100,-150.689 100,-142.017"/>
<polygon fill="midnightblue" stroke="midnightblue" points="103.5,-141.73 100,-131.731 96.5001,-141.731 103.5,-141.73"/>
</g>
<!-- Node8 -->
<g id="node8" class="node"><title>Node8</title>
<g id="a_node8"><a xlink:href="types_8h.html" target="_top" xlink:title="types.h">
<polygon fill="none" stroke="black" points="136.5,-112.5 136.5,-131.5 185.5,-131.5 185.5,-112.5 136.5,-112.5"/>
<text text-anchor="middle" x="161" y="-119.5" font-family="Helvetica,sans-Serif" font-size="10.00">types.h</text>
</a>
</g>
</g>
<!-- Node1&#45;&gt;Node8 -->
<g id="edge8" class="edge"><title>Node1&#45;&gt;Node8</title>
<path fill="none" stroke="midnightblue" d="M114.456,-168.781C123.594,-159.792 135.419,-148.162 144.862,-138.873"/>
<polygon fill="midnightblue" stroke="midnightblue" points="147.449,-141.238 152.124,-131.731 142.54,-136.248 147.449,-141.238"/>
</g>
<!-- Node3 -->
<g id="node3" class="node"><title>Node3</title>
<g id="a_node3"><a xlink:href="mt19937ar_8h.html" target="_top" xlink:title="mt19937ar.h">
<polygon fill="none" stroke="black" points="-0.5,-56.5 -0.5,-75.5 70.5,-75.5 70.5,-56.5 -0.5,-56.5"/>
<text text-anchor="middle" x="35" y="-63.5" font-family="Helvetica,sans-Serif" font-size="10.00">mt19937ar.h</text>
</a>
</g>
</g>
<!-- Node2&#45;&gt;Node3 -->
<g id="edge2" class="edge"><title>Node2&#45;&gt;Node3</title>
<path fill="none" stroke="midnightblue" d="M35,-112.083C35,-105.006 35,-94.8611 35,-85.9865"/>
<polygon fill="midnightblue" stroke="midnightblue" points="38.5001,-85.751 35,-75.7511 31.5001,-85.7511 38.5001,-85.751"/>
</g>
<!-- Node4 -->
<g id="node4" class="node"><title>Node4</title>
<polygon fill="none" stroke="#bfbfbf" points="37,-0.5 37,-19.5 83,-19.5 83,-0.5 37,-0.5"/>
<text text-anchor="middle" x="60" y="-7.5" font-family="Helvetica,sans-Serif" font-size="10.00">stdio.h</text>
</g>
<!-- Node3&#45;&gt;Node4 -->
<g id="edge3" class="edge"><title>Node3&#45;&gt;Node4</title>
<path fill="none" stroke="midnightblue" d="M39.1282,-56.083C42.5139,-48.77 47.416,-38.1814 51.6188,-29.1034"/>
<polygon fill="midnightblue" stroke="midnightblue" points="54.9234,-30.2962 55.9486,-19.7511 48.5711,-27.3553 54.9234,-30.2962"/>
</g>
<!-- Node5&#45;&gt;Node4 -->
<g id="edge5" class="edge"><title>Node5&#45;&gt;Node4</title>
<path fill="none" stroke="midnightblue" d="M97.3884,-112.085C93.6359,-99.4817 86.3572,-75.7855 79,-56 75.6333,-46.9461 71.5011,-37.0402 67.951,-28.833"/>
<polygon fill="midnightblue" stroke="midnightblue" points="71.094,-27.2851 63.8671,-19.5376 64.6852,-30.1008 71.094,-27.2851"/>
</g>
<!-- Node6 -->
<g id="node6" class="node"><title>Node6</title>
<g id="a_node6"><a xlink:href="assert_8h.html" target="_top" xlink:title="assert.h">
<polygon fill="none" stroke="black" points="127,-56.5 127,-75.5 179,-75.5 179,-56.5 127,-56.5"/>
<text text-anchor="middle" x="153" y="-63.5" font-family="Helvetica,sans-Serif" font-size="10.00">assert.h</text>
</a>
</g>
</g>
<!-- Node5&#45;&gt;Node6 -->
<g id="edge6" class="edge"><title>Node5&#45;&gt;Node6</title>
<path fill="none" stroke="midnightblue" d="M108.752,-112.083C116.47,-104.22 127.905,-92.5688 137.217,-83.0813"/>
<polygon fill="midnightblue" stroke="midnightblue" points="139.904,-85.3396 144.411,-75.7511 134.908,-80.4363 139.904,-85.3396"/>
</g>
<!-- Node7 -->
<g id="node7" class="node"><title>Node7</title>
<polygon fill="none" stroke="#bfbfbf" points="127.5,-0.5 127.5,-19.5 178.5,-19.5 178.5,-0.5 127.5,-0.5"/>
<text text-anchor="middle" x="153" y="-7.5" font-family="Helvetica,sans-Serif" font-size="10.00">config.h</text>
</g>
<!-- Node6&#45;&gt;Node7 -->
<g id="edge7" class="edge"><title>Node6&#45;&gt;Node7</title>
<path fill="none" stroke="midnightblue" d="M153,-56.083C153,-49.0059 153,-38.8611 153,-29.9865"/>
<polygon fill="midnightblue" stroke="midnightblue" points="156.5,-29.751 153,-19.7511 149.5,-29.7511 156.5,-29.751"/>
</g>
</g>
</svg>
