<?xml version="1.0" encoding="UTF-8" standalone="no"?>
<!DOCTYPE svg PUBLIC "-//W3C//DTD SVG 1.1//EN"
 "http://www.w3.org/Graphics/SVG/1.1/DTD/svg11.dtd">
<!-- Generated by graphviz version 2.36.0 (20140111.2315)
 -->
<!-- Title: rstm/rstm&#45;dev/stamp&#45;0.9.10/lib/random.c Pages: 1 -->
<svg width="258pt" height="208pt"
 viewBox="0.00 0.00 258.00 208.00" xmlns="http://www.w3.org/2000/svg" xmlns:xlink="http://www.w3.org/1999/xlink">
<g id="graph0" class="graph" transform="scale(1 1) rotate(0) translate(4 204)">
<title>rstm/rstm&#45;dev/stamp&#45;0.9.10/lib/random.c</title>
<!-- Node1 -->
<g id="node1" class="node"><title>Node1</title>
<polygon fill="#bfbfbf" stroke="black" points="50.5,-169 50.5,-199 157.5,-199 157.5,-169 50.5,-169"/>
<text text-anchor="start" x="58.5" y="-187" font-family="Helvetica,sans-Serif" font-size="10.00">rstm/rstm&#45;dev/stamp</text>
<text text-anchor="middle" x="104" y="-176" font-family="Helvetica,sans-Serif" font-size="10.00">&#45;0.9.10/lib/random.c</text>
</g>
<!-- Node2 -->
<g id="node2" class="node"><title>Node2</title>
<polygon fill="none" stroke="#bfbfbf" points="0,-112.5 0,-131.5 48,-131.5 48,-112.5 0,-112.5"/>
<text text-anchor="middle" x="24" y="-119.5" font-family="Helvetica,sans-Serif" font-size="10.00">stdlib.h</text>
</g>
<!-- Node1&#45;&gt;Node2 -->
<g id="edge1" class="edge"><title>Node1&#45;&gt;Node2</title>
<path fill="none" stroke="midnightblue" d="M85.0411,-168.781C72.5773,-159.433 56.3031,-147.227 43.6933,-137.77"/>
<polygon fill="midnightblue" stroke="midnightblue" points="45.7407,-134.931 35.6407,-131.731 41.5407,-140.531 45.7407,-134.931"/>
</g>
<!-- Node3 -->
<g id="node3" class="node"><title>Node3</title>
<g id="a_node3"><a xlink:href="mt19937ar_8h.html" target="_top" xlink:title="mt19937ar.h">
<polygon fill="none" stroke="black" points="70.5,-56.5 70.5,-75.5 141.5,-75.5 141.5,-56.5 70.5,-56.5"/>
<text text-anchor="middle" x="106" y="-63.5" font-family="Helvetica,sans-Serif" font-size="10.00">mt19937ar.h</text>
</a>
</g>
</g>
<!-- Node1&#45;&gt;Node3 -->
<g id="edge2" class="edge"><title>Node1&#45;&gt;Node3</title>
<path fill="none" stroke="midnightblue" d="M100.149,-168.862C96.7326,-154.537 92.6227,-131.737 95,-112 96.0712,-103.107 98.2923,-93.4344 100.46,-85.344"/>
<polygon fill="midnightblue" stroke="midnightblue" points="103.887,-86.0908 103.27,-75.5139 97.1563,-84.1668 103.887,-86.0908"/>
</g>
<!-- Node5 -->
<g id="node5" class="node"><title>Node5</title>
<g id="a_node5"><a xlink:href="rstm_2rstm-dev_2stamp-0_89_810_2lib_2random_8h.html" target="_top" xlink:title="random.h">
<polygon fill="none" stroke="black" points="104.5,-112.5 104.5,-131.5 161.5,-131.5 161.5,-112.5 104.5,-112.5"/>
<text text-anchor="middle" x="133" y="-119.5" font-family="Helvetica,sans-Serif" font-size="10.00">random.h</text>
</a>
</g>
</g>
<!-- Node1&#45;&gt;Node5 -->
<g id="edge4" class="edge"><title>Node1&#45;&gt;Node5</title>
<path fill="none" stroke="midnightblue" d="M110.873,-168.781C114.913,-160.422 120.058,-149.777 124.369,-140.856"/>
<polygon fill="midnightblue" stroke="midnightblue" points="127.58,-142.257 128.78,-131.731 121.277,-139.211 127.58,-142.257"/>
</g>
<!-- Node6 -->
<g id="node6" class="node"><title>Node6</title>
<g id="a_node6"><a xlink:href="tm_8h.html" target="_top" xlink:title="tm.h">
<polygon fill="none" stroke="black" points="180,-112.5 180,-131.5 216,-131.5 216,-112.5 180,-112.5"/>
<text text-anchor="middle" x="198" y="-119.5" font-family="Helvetica,sans-Serif" font-size="10.00">tm.h</text>
</a>
</g>
</g>
<!-- Node1&#45;&gt;Node6 -->
<g id="edge6" class="edge"><title>Node1&#45;&gt;Node6</title>
<path fill="none" stroke="midnightblue" d="M126.277,-168.781C141.293,-159.196 161.017,-146.606 175.98,-137.056"/>
<polygon fill="midnightblue" stroke="midnightblue" points="178.05,-139.886 184.596,-131.556 174.284,-133.986 178.05,-139.886"/>
</g>
<!-- Node4 -->
<g id="node4" class="node"><title>Node4</title>
<polygon fill="none" stroke="#bfbfbf" points="109,-0.5 109,-19.5 155,-19.5 155,-0.5 109,-0.5"/>
<text text-anchor="middle" x="132" y="-7.5" font-family="Helvetica,sans-Serif" font-size="10.00">stdio.h</text>
</g>
<!-- Node3&#45;&gt;Node4 -->
<g id="edge3" class="edge"><title>Node3&#45;&gt;Node4</title>
<path fill="none" stroke="midnightblue" d="M110.293,-56.083C113.852,-48.6913 119.022,-37.9533 123.424,-28.8111"/>
<polygon fill="midnightblue" stroke="midnightblue" points="126.602,-30.2795 127.787,-19.7511 120.295,-27.2427 126.602,-30.2795"/>
</g>
<!-- Node5&#45;&gt;Node3 -->
<g id="edge5" class="edge"><title>Node5&#45;&gt;Node3</title>
<path fill="none" stroke="midnightblue" d="M128.541,-112.083C124.846,-104.691 119.477,-93.9533 114.906,-84.8111"/>
<polygon fill="midnightblue" stroke="midnightblue" points="117.978,-83.1301 110.376,-75.7511 111.717,-86.2606 117.978,-83.1301"/>
</g>
<!-- Node6&#45;&gt;Node4 -->
<g id="edge7" class="edge"><title>Node6&#45;&gt;Node4</title>
<path fill="none" stroke="midnightblue" d="M192.821,-112.368C181.977,-94.2957 156.706,-52.1764 142.384,-28.3074"/>
<polygon fill="midnightblue" stroke="midnightblue" points="145.301,-26.3656 137.155,-19.5914 139.299,-29.9671 145.301,-26.3656"/>
</g>
<!-- Node7 -->
<g id="node7" class="node"><title>Node7</title>
<g id="a_node7"><a xlink:href="assert_8h.html" target="_top" xlink:title="assert.h">
<polygon fill="none" stroke="black" points="198,-56.5 198,-75.5 250,-75.5 250,-56.5 198,-56.5"/>
<text text-anchor="middle" x="224" y="-63.5" font-family="Helvetica,sans-Serif" font-size="10.00">assert.h</text>
</a>
</g>
</g>
<!-- Node6&#45;&gt;Node7 -->
<g id="edge8" class="edge"><title>Node6&#45;&gt;Node7</title>
<path fill="none" stroke="midnightblue" d="M202.293,-112.083C205.852,-104.691 211.022,-93.9533 215.424,-84.8111"/>
<polygon fill="midnightblue" stroke="midnightblue" points="218.602,-86.2795 219.787,-75.7511 212.295,-83.2427 218.602,-86.2795"/>
</g>
<!-- Node8 -->
<g id="node8" class="node"><title>Node8</title>
<polygon fill="none" stroke="#bfbfbf" points="198.5,-0.5 198.5,-19.5 249.5,-19.5 249.5,-0.5 198.5,-0.5"/>
<text text-anchor="middle" x="224" y="-7.5" font-family="Helvetica,sans-Serif" font-size="10.00">config.h</text>
</g>
<!-- Node7&#45;&gt;Node8 -->
<g id="edge9" class="edge"><title>Node7&#45;&gt;Node8</title>
<path fill="none" stroke="midnightblue" d="M224,-56.083C224,-49.0059 224,-38.8611 224,-29.9865"/>
<polygon fill="midnightblue" stroke="midnightblue" points="227.5,-29.751 224,-19.7511 220.5,-29.7511 227.5,-29.751"/>
</g>
</g>
</svg>
