<?xml version="1.0" encoding="UTF-8" standalone="no"?>
<!DOCTYPE svg PUBLIC "-//W3C//DTD SVG 1.1//EN"
 "http://www.w3.org/Graphics/SVG/1.1/DTD/svg11.dtd">
<!-- Generated by graphviz version 2.36.0 (20140111.2315)
 -->
<!-- Title: insert Pages: 1 -->
<!--zoomable 435 -->
<svg id="main" version="1.1" xmlns="http://www.w3.org/2000/svg" xmlns:xlink="http://www.w3.org/1999/xlink" xml:space="preserve" onload="init(evt)">
<style type="text/css"><![CDATA[
.edge:hover path { stroke: red; }
.edge:hover polygon { stroke: red; fill: red; }
]]></style>
<script type="text/javascript"><![CDATA[
var edges = document.getElementsByTagName('g');
if (edges && edges.length) {
  for (var i=0;i<edges.length;i++) {
    if (edges[i].id.substr(0,4)=='edge') {
      edges[i].setAttribute('class','edge');
    }
  }
}
]]></script>
        <defs>
                <circle id="rim" cx="0" cy="0" r="7"/>
                <circle id="rim2" cx="0" cy="0" r="3.5"/>
                <g id="zoomPlus">
                        <use xlink:href="#rim" fill="#404040">
                                <set attributeName="fill" to="#808080" begin="zoomplus.mouseover" end="zoomplus.mouseout"/>
                        </use>
                        <path d="M-4,0h8M0,-4v8" fill="none" stroke="white" stroke-width="1.5" pointer-events="none"/>
                </g>
                <g id="zoomMin">
                        <use xlink:href="#rim" fill="#404040">
                                <set attributeName="fill" to="#808080" begin="zoomminus.mouseover" end="zoomminus.mouseout"/>
                        </use>
                        <path d="M-4,0h8" fill="none" stroke="white" stroke-width="1.5" pointer-events="none"/>
                </g>
                <g id="dirArrow">
                        <path fill="none" stroke="white" stroke-width="1.5" d="M0,-3.0v7 M-2.5,-0.5L0,-3.0L2.5,-0.5"/>
                </g>
               <g id="resetDef">
                       <use xlink:href="#rim2" fill="#404040">
                               <set attributeName="fill" to="#808080" begin="reset.mouseover" end="reset.mouseout"/>
                       </use>
               </g>
        </defs>

<script type="text/javascript">
var viewWidth = 1764;
var viewHeight = 435;
var sectionId = 'dynsection-5';
</script>
<script xlink:href="svgpan.js"/>
<svg id="graph" class="graph">
<g id="viewport">
<title>insert</title>
<!-- Node1 -->
<g id="node1" class="node"><title>Node1</title>
<polygon fill="#bfbfbf" stroke="black" points="0.5,-182.5 0.5,-201.5 41.5,-201.5 41.5,-182.5 0.5,-182.5"/>
<text text-anchor="middle" x="21" y="-189.5" font-family="Helvetica,sans-Serif" font-size="10.00">insert</text>
</g>
<!-- Node2 -->
<g id="node2" class="node"><title>Node2</title>
<g id="a_node2"><a xlink:href="stmskip_8cc.html#a9ab04b9e875013b4d2dd249d0c97dce5" target="_top" xlink:title="for">
<polygon fill="none" stroke="black" points="78.5,-182.5 78.5,-201.5 107.5,-201.5 107.5,-182.5 78.5,-182.5"/>
<text text-anchor="middle" x="93" y="-189.5" font-family="Helvetica,sans-Serif" font-size="10.00">for</text>
</a>
</g>
</g>
<!-- Node1&#45;&gt;Node2 -->
<g id="edge1" class="edge"><title>Node1&#45;&gt;Node2</title>
<path fill="none" stroke="midnightblue" d="M41.872,-192C50.057,-192 59.6089,-192 68.1661,-192"/>
<polygon fill="midnightblue" stroke="midnightblue" points="68.2955,-195.5 78.2955,-192 68.2954,-188.5 68.2955,-195.5"/>
</g>
<!-- Node3 -->
<g id="node3" class="node"><title>Node3</title>
<g id="a_node3"><a xlink:href="stmskip_8cc.html#a09de30bf6124d9640899b27c93b49471" target="_top" xlink:title="stmskip_lookup">
<polygon fill="none" stroke="black" points="146.5,-239.5 146.5,-258.5 231.5,-258.5 231.5,-239.5 146.5,-239.5"/>
<text text-anchor="middle" x="189" y="-246.5" font-family="Helvetica,sans-Serif" font-size="10.00">stmskip_lookup</text>
</a>
</g>
</g>
<!-- Node2&#45;&gt;Node3 -->
<g id="edge2" class="edge"><title>Node2&#45;&gt;Node3</title>
<path fill="none" stroke="midnightblue" d="M104.966,-201.58C114.747,-209.811 129.691,-221.64 144,-230 147.038,-231.775 150.272,-233.481 153.556,-235.094"/>
<polygon fill="midnightblue" stroke="midnightblue" points="152.27,-238.356 162.816,-239.37 155.204,-232 152.27,-238.356"/>
</g>
<!-- Node21 -->
<g id="node21" class="node"><title>Node21</title>
<g id="a_node21"><a xlink:href="stmskip_8cc.html#ad17c6ea2fd390c2dd637a34fdeb0b3df" target="_top" xlink:title="stmskip_update">
<polygon fill="none" stroke="black" points="146,-144.5 146,-163.5 232,-163.5 232,-144.5 146,-144.5"/>
<text text-anchor="middle" x="189" y="-151.5" font-family="Helvetica,sans-Serif" font-size="10.00">stmskip_update</text>
</a>
</g>
</g>
<!-- Node2&#45;&gt;Node21 -->
<g id="edge25" class="edge"><title>Node2&#45;&gt;Node21</title>
<path fill="none" stroke="midnightblue" d="M107.87,-186.393C120.135,-181.435 138.523,-174.001 154.593,-167.505"/>
<polygon fill="midnightblue" stroke="midnightblue" points="156.264,-170.605 164.223,-163.612 153.64,-164.115 156.264,-170.605"/>
</g>
<!-- Node34 -->
<g id="node34" class="node"><title>Node34</title>
<g id="a_node34"><a xlink:href="stmskip_8cc.html#a3925aa5d2590fc57854aa9d670f58e4d" target="_top" xlink:title="stmskip_remove">
<polygon fill="none" stroke="black" points="144.5,-201.5 144.5,-220.5 233.5,-220.5 233.5,-201.5 144.5,-201.5"/>
<text text-anchor="middle" x="189" y="-208.5" font-family="Helvetica,sans-Serif" font-size="10.00">stmskip_remove</text>
</a>
</g>
</g>
<!-- Node2&#45;&gt;Node34 -->
<g id="edge48" class="edge"><title>Node2&#45;&gt;Node34</title>
<path fill="none" stroke="midnightblue" d="M107.87,-194.804C115.147,-196.274 124.581,-198.181 134.407,-200.167"/>
<polygon fill="midnightblue" stroke="midnightblue" points="133.803,-203.616 144.298,-202.167 135.19,-196.755 133.803,-203.616"/>
</g>
<!-- Node35 -->
<g id="node35" class="node"><title>Node35</title>
<g id="a_node35"><a xlink:href="stm_8h.html#ad6e1404788ef0e710c991c3e00fd5c39" target="_top" xlink:title="abort_stm_tx">
<polygon fill="none" stroke="black" points="152,-106.5 152,-125.5 226,-125.5 226,-106.5 152,-106.5"/>
<text text-anchor="middle" x="189" y="-113.5" font-family="Helvetica,sans-Serif" font-size="10.00">abort_stm_tx</text>
</a>
</g>
</g>
<!-- Node2&#45;&gt;Node35 -->
<g id="edge51" class="edge"><title>Node2&#45;&gt;Node35</title>
<path fill="none" stroke="midnightblue" d="M100.404,-182.351C109.038,-169.968 125.481,-148.479 144,-135 146.334,-133.302 148.843,-131.714 151.437,-130.24"/>
<polygon fill="midnightblue" stroke="midnightblue" points="153.121,-133.31 160.453,-125.661 149.952,-127.069 153.121,-133.31"/>
</g>
<!-- Node4 -->
<g id="node4" class="node"><title>Node4</title>
<g id="a_node4"><a xlink:href="stmskip_8cc.html#aa82848b11e972b9339ceadb6816cdb6a" target="_top" xlink:title="search_predecessors">
<polygon fill="none" stroke="black" points="270,-239.5 270,-258.5 380,-258.5 380,-239.5 270,-239.5"/>
<text text-anchor="middle" x="325" y="-246.5" font-family="Helvetica,sans-Serif" font-size="10.00">search_predecessors</text>
</a>
</g>
</g>
<!-- Node3&#45;&gt;Node4 -->
<g id="edge3" class="edge"><title>Node3&#45;&gt;Node4</title>
<path fill="none" stroke="midnightblue" d="M231.664,-249C240.466,-249 249.951,-249 259.374,-249"/>
<polygon fill="midnightblue" stroke="midnightblue" points="259.539,-252.5 269.539,-249 259.539,-245.5 259.539,-252.5"/>
</g>
<!-- Node5 -->
<g id="node5" class="node"><title>Node5</title>
<g id="a_node5"><a xlink:href="stm_8h.html#a5594d7fca67459d7d9738436af589c5c" target="_top" xlink:title="read_stm_blk">
<polygon fill="none" stroke="black" points="417.5,-345.5 417.5,-364.5 492.5,-364.5 492.5,-345.5 417.5,-345.5"/>
<text text-anchor="middle" x="455" y="-352.5" font-family="Helvetica,sans-Serif" font-size="10.00">read_stm_blk</text>
</a>
</g>
</g>
<!-- Node4&#45;&gt;Node5 -->
<g id="edge4" class="edge"><title>Node4&#45;&gt;Node5</title>
<path fill="none" stroke="midnightblue" d="M337.812,-258.782C359.816,-277.004 407.283,-316.313 434.242,-338.638"/>
<polygon fill="midnightblue" stroke="midnightblue" points="432.282,-341.559 442.216,-345.241 436.746,-336.168 432.282,-341.559"/>
</g>
<!-- Node6 -->
<g id="node6" class="node"><title>Node6</title>
<g id="a_node6"><a xlink:href="stm__fraser_8c.html#aca0d40200c3502bdabeb44b27dfd4105" target="_top" xlink:title="search_stm_tx_entry">
<polygon fill="none" stroke="black" points="846,-359.5 846,-378.5 954,-378.5 954,-359.5 846,-359.5"/>
<text text-anchor="middle" x="900" y="-366.5" font-family="Helvetica,sans-Serif" font-size="10.00">search_stm_tx_entry</text>
</a>
</g>
</g>
<!-- Node5&#45;&gt;Node6 -->
<g id="edge5" class="edge"><title>Node5&#45;&gt;Node6</title>
<path fill="none" stroke="midnightblue" d="M464.889,-364.713C477.74,-377.955 502.95,-401.048 530,-410 648.508,-449.217 687.064,-409.652 810,-388 822.156,-385.859 835.182,-383.255 847.414,-380.671"/>
<polygon fill="midnightblue" stroke="midnightblue" points="848.422,-384.034 857.465,-378.514 846.954,-377.19 848.422,-384.034"/>
</g>
<!-- Node7 -->
<g id="node7" class="node"><title>Node7</title>
<g id="a_node7"><a xlink:href="stm__fraser_8c.html#a75177d9fa0335bd50b6fae9a68341443" target="_top" xlink:title="alloc_stm_tx_entry">
<polygon fill="none" stroke="black" points="541.5,-326.5 541.5,-345.5 640.5,-345.5 640.5,-326.5 541.5,-326.5"/>
<text text-anchor="middle" x="591" y="-333.5" font-family="Helvetica,sans-Serif" font-size="10.00">alloc_stm_tx_entry</text>
</a>
</g>
</g>
<!-- Node5&#45;&gt;Node7 -->
<g id="edge6" class="edge"><title>Node5&#45;&gt;Node7</title>
<path fill="none" stroke="midnightblue" d="M492.616,-349.808C504.596,-348.11 518.219,-346.178 531.402,-344.309"/>
<polygon fill="midnightblue" stroke="midnightblue" points="531.953,-347.766 541.362,-342.896 530.97,-340.835 531.953,-347.766"/>
</g>
<!-- Node8 -->
<g id="node8" class="node"><title>Node8</title>
<g id="a_node8"><a xlink:href="stm__fraser_8c.html#a4e016a575dac2ee3931ef9ec94550d33" target="_top" xlink:title="read_blk_data">
<polygon fill="none" stroke="black" points="552.5,-364.5 552.5,-383.5 629.5,-383.5 629.5,-364.5 552.5,-364.5"/>
<text text-anchor="middle" x="591" y="-371.5" font-family="Helvetica,sans-Serif" font-size="10.00">read_blk_data</text>
</a>
</g>
</g>
<!-- Node5&#45;&gt;Node8 -->
<g id="edge7" class="edge"><title>Node5&#45;&gt;Node8</title>
<path fill="none" stroke="midnightblue" d="M492.616,-360.192C508.017,-362.376 526.136,-364.945 542.542,-367.271"/>
<polygon fill="midnightblue" stroke="midnightblue" points="542.103,-370.744 552.495,-368.682 543.086,-363.813 542.103,-370.744"/>
</g>
<!-- Node19 -->
<g id="node19" class="node"><title>Node19</title>
<g id="a_node19"><a xlink:href="stm__fraser_8c.html#a31ea9d61a84d817aac10ffbc4ba9f296" target="_top" xlink:title="commit_stm_tx">
<polygon fill="none" stroke="black" points="707,-359.5 707,-378.5 791,-378.5 791,-359.5 707,-359.5"/>
<text text-anchor="middle" x="749" y="-366.5" font-family="Helvetica,sans-Serif" font-size="10.00">commit_stm_tx</text>
</a>
</g>
</g>
<!-- Node5&#45;&gt;Node19 -->
<g id="edge24" class="edge"><title>Node5&#45;&gt;Node19</title>
<path fill="none" stroke="midnightblue" d="M469.671,-364.558C483.957,-373.915 507.399,-387.536 530,-393 591.46,-407.858 664.917,-393.34 708.944,-381.306"/>
<polygon fill="midnightblue" stroke="midnightblue" points="710.007,-384.643 718.677,-378.554 708.102,-377.907 710.007,-384.643"/>
</g>
<!-- Node20 -->
<g id="node20" class="node"><title>Node20</title>
<g id="a_node20"><a xlink:href="stm__fraser_8c.html#ad6e1404788ef0e710c991c3e00fd5c39" target="_top" xlink:title="abort_stm_tx">
<polygon fill="none" stroke="black" points="554,-288.5 554,-307.5 628,-307.5 628,-288.5 554,-288.5"/>
<text text-anchor="middle" x="591" y="-295.5" font-family="Helvetica,sans-Serif" font-size="10.00">abort_stm_tx</text>
</a>
</g>
</g>
<!-- Node5&#45;&gt;Node20 -->
<g id="edge23" class="edge"><title>Node5&#45;&gt;Node20</title>
<path fill="none" stroke="midnightblue" d="M472.665,-345.419C487.419,-337.186 509.701,-325.357 530,-317 535.372,-314.788 541.101,-312.676 546.807,-310.716"/>
<polygon fill="midnightblue" stroke="midnightblue" points="547.923,-314.034 556.321,-307.573 545.728,-307.387 547.923,-314.034"/>
</g>
<!-- Node9 -->
<g id="node9" class="node"><title>Node9</title>
<g id="a_node9"><a xlink:href="stm__fraser_8c.html#a3baf54f8c2c6bdb79109865e5500cbd9" target="_top" xlink:title="rc_up_descriptor">
<polygon fill="none" stroke="black" points="855.5,-321.5 855.5,-340.5 944.5,-340.5 944.5,-321.5 855.5,-321.5"/>
<text text-anchor="middle" x="900" y="-328.5" font-family="Helvetica,sans-Serif" font-size="10.00">rc_up_descriptor</text>
</a>
</g>
</g>
<!-- Node8&#45;&gt;Node9 -->
<g id="edge8" class="edge"><title>Node8&#45;&gt;Node9</title>
<path fill="none" stroke="midnightblue" d="M625.053,-364.389C643.441,-359.384 666.826,-353.578 688,-350 740.936,-341.055 802.102,-336.134 844.904,-333.556"/>
<polygon fill="midnightblue" stroke="midnightblue" points="845.321,-337.037 855.102,-332.965 844.916,-330.049 845.321,-337.037"/>
</g>
<!-- Node11 -->
<g id="node11" class="node"><title>Node11</title>
<g id="a_node11"><a xlink:href="stm__fraser_8c.html#ad41e28910c7dbe8cfd98c9e0c168c9dc" target="_top" xlink:title="rc_down_descriptor">
<polygon fill="none" stroke="black" points="849.5,-397.5 849.5,-416.5 950.5,-416.5 950.5,-397.5 849.5,-397.5"/>
<text text-anchor="middle" x="900" y="-404.5" font-family="Helvetica,sans-Serif" font-size="10.00">rc_down_descriptor</text>
</a>
</g>
</g>
<!-- Node8&#45;&gt;Node11 -->
<g id="edge10" class="edge"><title>Node8&#45;&gt;Node11</title>
<path fill="none" stroke="midnightblue" d="M629.781,-380C647.437,-382.678 668.764,-385.733 688,-388 738.955,-394.005 797.03,-399.107 839.336,-402.508"/>
<polygon fill="midnightblue" stroke="midnightblue" points="839.22,-406.009 849.466,-403.314 839.775,-399.031 839.22,-406.009"/>
</g>
<!-- Node8&#45;&gt;Node19 -->
<g id="edge19" class="edge"><title>Node8&#45;&gt;Node19</title>
<path fill="none" stroke="midnightblue" d="M629.763,-372.79C649.847,-372.146 674.832,-371.345 696.654,-370.646"/>
<polygon fill="midnightblue" stroke="midnightblue" points="696.869,-374.141 706.751,-370.322 696.644,-367.144 696.869,-374.141"/>
</g>
<!-- Node10 -->
<g id="node10" class="node"><title>Node10</title>
<g id="a_node10"><a xlink:href="stm__fraser_8c.html#a1a59f05201730ec9ba9a348070073e57" target="_top" xlink:title="rc_delta_descriptor">
<polygon fill="none" stroke="black" points="990.5,-321.5 990.5,-340.5 1089.5,-340.5 1089.5,-321.5 990.5,-321.5"/>
<text text-anchor="middle" x="1040" y="-328.5" font-family="Helvetica,sans-Serif" font-size="10.00">rc_delta_descriptor</text>
</a>
</g>
</g>
<!-- Node9&#45;&gt;Node10 -->
<g id="edge9" class="edge"><title>Node9&#45;&gt;Node10</title>
<path fill="none" stroke="midnightblue" d="M944.664,-331C955.902,-331 968.18,-331 980.053,-331"/>
<polygon fill="midnightblue" stroke="midnightblue" points="980.346,-334.5 990.346,-331 980.346,-327.5 980.346,-334.5"/>
</g>
<!-- Node12 -->
<g id="node12" class="node"><title>Node12</title>
<g id="a_node12"><a xlink:href="stm__fraser_8c.html#afd1a951db8c0f79e6bf20624e7dca338" target="_top" xlink:title="release_descriptor">
<polygon fill="none" stroke="black" points="992,-378.5 992,-397.5 1088,-397.5 1088,-378.5 992,-378.5"/>
<text text-anchor="middle" x="1040" y="-385.5" font-family="Helvetica,sans-Serif" font-size="10.00">release_descriptor</text>
</a>
</g>
</g>
<!-- Node11&#45;&gt;Node12 -->
<g id="edge11" class="edge"><title>Node11&#45;&gt;Node12</title>
<path fill="none" stroke="midnightblue" d="M950.821,-400.141C960.78,-398.769 971.319,-397.318 981.512,-395.915"/>
<polygon fill="midnightblue" stroke="midnightblue" points="982.127,-399.363 991.557,-394.532 981.173,-392.429 982.127,-399.363"/>
</g>
<!-- Node13 -->
<g id="node13" class="node"><title>Node13</title>
<g id="a_node13"><a xlink:href="gc_8c.html#a80f4a5c119aa70ab0452a73dfac21bbd" target="_top" xlink:title="fr_gc_free">
<polygon fill="none" stroke="black" points="1272,-340.5 1272,-359.5 1332,-359.5 1332,-340.5 1272,-340.5"/>
<text text-anchor="middle" x="1302" y="-347.5" font-family="Helvetica,sans-Serif" font-size="10.00">fr_gc_free</text>
</a>
</g>
</g>
<!-- Node12&#45;&gt;Node13 -->
<g id="edge12" class="edge"><title>Node12&#45;&gt;Node13</title>
<path fill="none" stroke="midnightblue" d="M1088.11,-384.761C1124.78,-381.829 1176.85,-376.765 1222,-369 1235.16,-366.736 1249.4,-363.548 1262.11,-360.428"/>
<polygon fill="midnightblue" stroke="midnightblue" points="1263.08,-363.793 1271.93,-357.96 1261.38,-357.004 1263.08,-363.793"/>
</g>
<!-- Node18 -->
<g id="node18" class="node"><title>Node18</title>
<g id="a_node18"><a xlink:href="gc_8c.html#a1e1a80c2d04496b5b70bd86b59510355" target="_top" xlink:title="fr_gc_unsafe_free">
<polygon fill="none" stroke="black" points="1126.5,-340.5 1126.5,-359.5 1221.5,-359.5 1221.5,-340.5 1126.5,-340.5"/>
<text text-anchor="middle" x="1174" y="-347.5" font-family="Helvetica,sans-Serif" font-size="10.00">fr_gc_unsafe_free</text>
</a>
</g>
</g>
<!-- Node12&#45;&gt;Node18 -->
<g id="edge17" class="edge"><title>Node12&#45;&gt;Node18</title>
<path fill="none" stroke="midnightblue" d="M1074.31,-378.411C1091.19,-373.551 1111.89,-367.591 1129.97,-362.387"/>
<polygon fill="midnightblue" stroke="midnightblue" points="1131.06,-365.716 1139.7,-359.586 1129.12,-358.989 1131.06,-365.716"/>
</g>
<!-- Node14 -->
<g id="node14" class="node"><title>Node14</title>
<g id="a_node14"><a xlink:href="gc_8c.html#afb494e950c8c6b5661974748ae89b61e" target="_top" xlink:title="chunk_from_cache">
<polygon fill="none" stroke="black" points="1382.5,-284.5 1382.5,-303.5 1481.5,-303.5 1481.5,-284.5 1382.5,-284.5"/>
<text text-anchor="middle" x="1432" y="-291.5" font-family="Helvetica,sans-Serif" font-size="10.00">chunk_from_cache</text>
</a>
</g>
</g>
<!-- Node13&#45;&gt;Node14 -->
<g id="edge13" class="edge"><title>Node13&#45;&gt;Node14</title>
<path fill="none" stroke="midnightblue" d="M1325,-340.373C1345.64,-331.343 1376.72,-317.749 1399.89,-307.611"/>
<polygon fill="midnightblue" stroke="midnightblue" points="1401.52,-310.716 1409.28,-303.501 1398.72,-304.303 1401.52,-310.716"/>
</g>
<!-- Node15 -->
<g id="node15" class="node"><title>Node15</title>
<g id="a_node15"><a xlink:href="gc_8c.html#a2a6f41199ed37925df4cc7b9909dc0ed" target="_top" xlink:title="get_empty_chunks">
<polygon fill="none" stroke="black" points="1518.5,-190.5 1518.5,-209.5 1617.5,-209.5 1617.5,-190.5 1518.5,-190.5"/>
<text text-anchor="middle" x="1568" y="-197.5" font-family="Helvetica,sans-Serif" font-size="10.00">get_empty_chunks</text>
</a>
</g>
</g>
<!-- Node14&#45;&gt;Node15 -->
<g id="edge14" class="edge"><title>Node14&#45;&gt;Node15</title>
<path fill="none" stroke="midnightblue" d="M1446.84,-284.294C1470.13,-267.956 1517.34,-234.837 1545.15,-215.33"/>
<polygon fill="midnightblue" stroke="midnightblue" points="1547.26,-218.121 1553.44,-209.513 1543.24,-212.39 1547.26,-218.121"/>
</g>
<!-- Node16 -->
<g id="node16" class="node"><title>Node16</title>
<g id="a_node16"><a xlink:href="gc_8c.html#ac360b80b93ad00f0fba18a1993e1d6a0" target="_top" xlink:title="add_chunks_to_list">
<polygon fill="none" stroke="black" points="1654.5,-152.5 1654.5,-171.5 1755.5,-171.5 1755.5,-152.5 1654.5,-152.5"/>
<text text-anchor="middle" x="1705" y="-159.5" font-family="Helvetica,sans-Serif" font-size="10.00">add_chunks_to_list</text>
</a>
</g>
</g>
<!-- Node15&#45;&gt;Node16 -->
<g id="edge15" class="edge"><title>Node15&#45;&gt;Node16</title>
<path fill="none" stroke="midnightblue" d="M1603.07,-190.411C1620.41,-185.528 1641.7,-179.536 1660.25,-174.315"/>
<polygon fill="midnightblue" stroke="midnightblue" points="1661.27,-177.665 1669.94,-171.586 1659.37,-170.926 1661.27,-177.665"/>
</g>
<!-- Node17 -->
<g id="node17" class="node"><title>Node17</title>
<g id="a_node17"><a xlink:href="gc_8c.html#ade31863985bdaa481ade142bdfb6d99f" target="_top" xlink:title="alloc_more_chunks">
<polygon fill="none" stroke="black" points="1654.5,-190.5 1654.5,-209.5 1755.5,-209.5 1755.5,-190.5 1654.5,-190.5"/>
<text text-anchor="middle" x="1705" y="-197.5" font-family="Helvetica,sans-Serif" font-size="10.00">alloc_more_chunks</text>
</a>
</g>
</g>
<!-- Node15&#45;&gt;Node17 -->
<g id="edge16" class="edge"><title>Node15&#45;&gt;Node17</title>
<path fill="none" stroke="midnightblue" d="M1617.74,-200C1626.31,-200 1635.33,-200 1644.17,-200"/>
<polygon fill="midnightblue" stroke="midnightblue" points="1644.43,-203.5 1654.43,-200 1644.43,-196.5 1644.43,-203.5"/>
</g>
<!-- Node18&#45;&gt;Node13 -->
<g id="edge18" class="edge"><title>Node18&#45;&gt;Node13</title>
<path fill="none" stroke="midnightblue" d="M1221.56,-350C1234.7,-350 1248.87,-350 1261.56,-350"/>
<polygon fill="midnightblue" stroke="midnightblue" points="1261.81,-353.5 1271.81,-350 1261.81,-346.5 1261.81,-353.5"/>
</g>
<!-- Node19&#45;&gt;Node6 -->
<g id="edge22" class="edge"><title>Node19&#45;&gt;Node6</title>
<path fill="none" stroke="midnightblue" d="M791.109,-369C804.827,-369 820.449,-369 835.463,-369"/>
<polygon fill="midnightblue" stroke="midnightblue" points="835.73,-372.5 845.73,-369 835.73,-365.5 835.73,-372.5"/>
</g>
<!-- Node19&#45;&gt;Node9 -->
<g id="edge20" class="edge"><title>Node19&#45;&gt;Node9</title>
<path fill="none" stroke="midnightblue" d="M787.599,-359.411C807.084,-354.442 831.075,-348.323 851.796,-343.039"/>
<polygon fill="midnightblue" stroke="midnightblue" points="852.846,-346.383 861.671,-340.52 851.117,-339.6 852.846,-346.383"/>
</g>
<!-- Node19&#45;&gt;Node11 -->
<g id="edge21" class="edge"><title>Node19&#45;&gt;Node11</title>
<path fill="none" stroke="midnightblue" d="M787.599,-378.589C807.084,-383.558 831.075,-389.677 851.796,-394.961"/>
<polygon fill="midnightblue" stroke="midnightblue" points="851.117,-398.4 861.671,-397.48 852.846,-391.617 851.117,-398.4"/>
</g>
<!-- Node21&#45;&gt;Node4 -->
<g id="edge27" class="edge"><title>Node21&#45;&gt;Node4</title>
<path fill="none" stroke="midnightblue" d="M203.836,-163.809C227.126,-180.321 274.339,-213.792 302.147,-233.507"/>
<polygon fill="midnightblue" stroke="midnightblue" points="300.257,-236.458 310.439,-239.386 304.306,-230.747 300.257,-236.458"/>
</g>
<!-- Node22 -->
<g id="node22" class="node"><title>Node22</title>
<g id="a_node22"><a xlink:href="avltree_8c.html#a645f38498ce0006cd109919b893e21f4" target="_top" xlink:title="new_node">
<polygon fill="none" stroke="black" points="294.5,-38.5 294.5,-57.5 355.5,-57.5 355.5,-38.5 294.5,-38.5"/>
<text text-anchor="middle" x="325" y="-45.5" font-family="Helvetica,sans-Serif" font-size="10.00">new_node</text>
</a>
</g>
</g>
<!-- Node21&#45;&gt;Node22 -->
<g id="edge26" class="edge"><title>Node21&#45;&gt;Node22</title>
<path fill="none" stroke="midnightblue" d="M219.512,-144.412C224.701,-141.88 229.782,-138.772 234,-135 258.039,-113.503 246.075,-93.6243 270,-72 274.437,-67.9896 279.653,-64.5612 285.064,-61.6576"/>
<polygon fill="midnightblue" stroke="midnightblue" points="286.745,-64.7336 294.251,-57.2565 283.72,-58.4207 286.745,-64.7336"/>
</g>
<!-- Node23 -->
<g id="node23" class="node"><title>Node23</title>
<g id="a_node23"><a xlink:href="stm_8h.html#a7f41614dded09613f4ccd7578ef188ba" target="_top" xlink:title="new_stm_blk">
<polygon fill="none" stroke="black" points="1003,-76.5 1003,-95.5 1077,-95.5 1077,-76.5 1003,-76.5"/>
<text text-anchor="middle" x="1040" y="-83.5" font-family="Helvetica,sans-Serif" font-size="10.00">new_stm_blk</text>
</a>
</g>
</g>
<!-- Node21&#45;&gt;Node23 -->
<g id="edge28" class="edge"><title>Node21&#45;&gt;Node23</title>
<path fill="none" stroke="midnightblue" d="M211.761,-144.401C256.302,-125.657 361.471,-86 454,-86 454,-86 454,-86 750,-86 835.729,-86 935.763,-86 992.816,-86"/>
<polygon fill="midnightblue" stroke="midnightblue" points="992.956,-89.5001 1002.96,-86 992.956,-82.5001 992.956,-89.5001"/>
</g>
<!-- Node27 -->
<g id="node27" class="node"><title>Node27</title>
<g id="a_node27"><a xlink:href="stm_8h.html#a2c77806bb0511fb17494d226b5ea20d8" target="_top" xlink:title="init_stm_blk">
<polygon fill="none" stroke="black" points="290.5,-0.5 290.5,-19.5 359.5,-19.5 359.5,-0.5 290.5,-0.5"/>
<text text-anchor="middle" x="325" y="-7.5" font-family="Helvetica,sans-Serif" font-size="10.00">init_stm_blk</text>
</a>
</g>
</g>
<!-- Node21&#45;&gt;Node27 -->
<g id="edge35" class="edge"><title>Node21&#45;&gt;Node27</title>
<path fill="none" stroke="midnightblue" d="M221.48,-144.335C226.117,-141.86 230.501,-138.791 234,-135 267.742,-98.436 235.011,-64.373 270,-29 273.232,-25.7321 277.059,-23.0248 281.161,-20.7822"/>
<polygon fill="midnightblue" stroke="midnightblue" points="282.785,-23.8891 290.453,-16.578 279.899,-17.5116 282.785,-23.8891"/>
</g>
<!-- Node28 -->
<g id="node28" class="node"><title>Node28</title>
<g id="a_node28"><a xlink:href="stmskip_8cc.html#ab6919257456cff4d47684cdfd3bc5a3c" target="_top" xlink:title="get_level">
<polygon fill="none" stroke="black" points="297,-163.5 297,-182.5 353,-182.5 353,-163.5 297,-163.5"/>
<text text-anchor="middle" x="325" y="-170.5" font-family="Helvetica,sans-Serif" font-size="10.00">get_level</text>
</a>
</g>
</g>
<!-- Node21&#45;&gt;Node28 -->
<g id="edge36" class="edge"><title>Node21&#45;&gt;Node28</title>
<path fill="none" stroke="midnightblue" d="M232.031,-159.96C249.574,-162.447 269.782,-165.312 286.78,-167.722"/>
<polygon fill="midnightblue" stroke="midnightblue" points="286.503,-171.218 296.896,-169.157 287.486,-164.288 286.503,-171.218"/>
</g>
<!-- Node29 -->
<g id="node29" class="node"><title>Node29</title>
<g id="a_node29"><a xlink:href="stm_8h.html#a00de1ad150378181157510e2e5982f75" target="_top" xlink:title="write_stm_blk">
<polygon fill="none" stroke="black" points="416.5,-212.5 416.5,-231.5 493.5,-231.5 493.5,-212.5 416.5,-212.5"/>
<text text-anchor="middle" x="455" y="-219.5" font-family="Helvetica,sans-Serif" font-size="10.00">write_stm_blk</text>
</a>
</g>
</g>
<!-- Node21&#45;&gt;Node29 -->
<g id="edge37" class="edge"><title>Node21&#45;&gt;Node29</title>
<path fill="none" stroke="midnightblue" d="M232.377,-145.447C271.988,-139.403 332.054,-135.316 380,-154 405.65,-163.996 427.793,-187.501 441.007,-204.066"/>
<polygon fill="midnightblue" stroke="midnightblue" points="438.543,-206.605 447.396,-212.425 444.104,-202.354 438.543,-206.605"/>
</g>
<!-- Node24 -->
<g id="node24" class="node"><title>Node24</title>
<g id="a_node24"><a xlink:href="gc_8c.html#a5c5981457deeeefd60df569f6265f59c" target="_top" xlink:title="fr_gc_alloc">
<polygon fill="none" stroke="black" points="1142,-114.5 1142,-133.5 1206,-133.5 1206,-114.5 1142,-114.5"/>
<text text-anchor="middle" x="1174" y="-121.5" font-family="Helvetica,sans-Serif" font-size="10.00">fr_gc_alloc</text>
</a>
</g>
</g>
<!-- Node23&#45;&gt;Node24 -->
<g id="edge29" class="edge"><title>Node23&#45;&gt;Node24</title>
<path fill="none" stroke="midnightblue" d="M1074.31,-95.589C1091.92,-100.658 1113.68,-106.923 1132.29,-112.279"/>
<polygon fill="midnightblue" stroke="midnightblue" points="1131.39,-115.664 1141.97,-115.067 1133.33,-108.937 1131.39,-115.664"/>
</g>
<!-- Node24&#45;&gt;Node16 -->
<g id="edge30" class="edge"><title>Node24&#45;&gt;Node16</title>
<path fill="none" stroke="midnightblue" d="M1206.12,-126.235C1291.7,-132.383 1531.72,-149.624 1644.3,-157.711"/>
<polygon fill="midnightblue" stroke="midnightblue" points="1644.23,-161.216 1654.46,-158.441 1644.73,-154.234 1644.23,-161.216"/>
</g>
<!-- Node25 -->
<g id="node25" class="node"><title>Node25</title>
<g id="a_node25"><a xlink:href="gc_8c.html#a6dffa65320ddab40d01f198433b3aeb6" target="_top" xlink:title="get_alloc_chunk">
<polygon fill="none" stroke="black" points="1258.5,-152.5 1258.5,-171.5 1345.5,-171.5 1345.5,-152.5 1258.5,-152.5"/>
<text text-anchor="middle" x="1302" y="-159.5" font-family="Helvetica,sans-Serif" font-size="10.00">get_alloc_chunk</text>
</a>
</g>
</g>
<!-- Node24&#45;&gt;Node25 -->
<g id="edge31" class="edge"><title>Node24&#45;&gt;Node25</title>
<path fill="none" stroke="midnightblue" d="M1206.15,-133.393C1222.23,-138.244 1242.07,-144.227 1259.44,-149.466"/>
<polygon fill="midnightblue" stroke="midnightblue" points="1258.75,-152.914 1269.34,-152.451 1260.77,-146.212 1258.75,-152.914"/>
</g>
<!-- Node25&#45;&gt;Node16 -->
<g id="edge34" class="edge"><title>Node25&#45;&gt;Node16</title>
<path fill="none" stroke="midnightblue" d="M1345.53,-162C1417.25,-162 1562.39,-162 1644.28,-162"/>
<polygon fill="midnightblue" stroke="midnightblue" points="1644.43,-165.5 1654.43,-162 1644.43,-158.5 1644.43,-165.5"/>
</g>
<!-- Node26 -->
<g id="node26" class="node"><title>Node26</title>
<g id="a_node26"><a xlink:href="gc_8c.html#ae47e099483bed50da4e41b906c300b99" target="_top" xlink:title="get_filled_chunks">
<polygon fill="none" stroke="black" points="1386,-190.5 1386,-209.5 1478,-209.5 1478,-190.5 1386,-190.5"/>
<text text-anchor="middle" x="1432" y="-197.5" font-family="Helvetica,sans-Serif" font-size="10.00">get_filled_chunks</text>
</a>
</g>
</g>
<!-- Node25&#45;&gt;Node26 -->
<g id="edge32" class="edge"><title>Node25&#45;&gt;Node26</title>
<path fill="none" stroke="midnightblue" d="M1335.3,-171.589C1351.52,-176.404 1371.38,-182.299 1388.79,-187.468"/>
<polygon fill="midnightblue" stroke="midnightblue" points="1388.13,-190.923 1398.71,-190.414 1390.12,-184.213 1388.13,-190.923"/>
</g>
<!-- Node26&#45;&gt;Node15 -->
<g id="edge33" class="edge"><title>Node26&#45;&gt;Node15</title>
<path fill="none" stroke="midnightblue" d="M1478.37,-200C1487.95,-200 1498.19,-200 1508.18,-200"/>
<polygon fill="midnightblue" stroke="midnightblue" points="1508.47,-203.5 1518.47,-200 1508.47,-196.5 1508.47,-203.5"/>
</g>
<!-- Node29&#45;&gt;Node6 -->
<g id="edge38" class="edge"><title>Node29&#45;&gt;Node6</title>
<path fill="none" stroke="midnightblue" d="M493.837,-217.551C534.628,-214.35 600.614,-213.872 652,-236 671.935,-244.585 670.183,-256.604 688,-269 752.778,-314.066 773.595,-318.619 846,-350 850.7,-352.037 855.697,-354.036 860.672,-355.928"/>
<polygon fill="midnightblue" stroke="midnightblue" points="859.536,-359.239 870.129,-359.414 861.957,-352.671 859.536,-359.239"/>
</g>
<!-- Node29&#45;&gt;Node7 -->
<g id="edge39" class="edge"><title>Node29&#45;&gt;Node7</title>
<path fill="none" stroke="midnightblue" d="M460.902,-231.645C471.116,-250.784 496.535,-293.718 530,-317 532.867,-318.995 535.954,-320.788 539.161,-322.398"/>
<polygon fill="midnightblue" stroke="midnightblue" points="537.87,-325.654 548.434,-326.469 540.684,-319.244 537.87,-325.654"/>
</g>
<!-- Node29&#45;&gt;Node8 -->
<g id="edge40" class="edge"><title>Node29&#45;&gt;Node8</title>
<path fill="none" stroke="midnightblue" d="M458.645,-231.653C465.832,-256.061 488.046,-320.735 530,-355 533.819,-358.119 538.155,-360.729 542.709,-362.912"/>
<polygon fill="midnightblue" stroke="midnightblue" points="541.683,-366.273 552.263,-366.82 544.333,-359.795 541.683,-366.273"/>
</g>
<!-- Node29&#45;&gt;Node19 -->
<g id="edge47" class="edge"><title>Node29&#45;&gt;Node19</title>
<path fill="none" stroke="midnightblue" d="M493.522,-230.696C542.426,-242.407 624.907,-263.557 652,-279 685.518,-298.106 716.59,-331.169 733.857,-351.461"/>
<polygon fill="midnightblue" stroke="midnightblue" points="731.292,-353.851 740.379,-359.298 736.673,-349.373 731.292,-353.851"/>
</g>
<!-- Node29&#45;&gt;Node20 -->
<g id="edge46" class="edge"><title>Node29&#45;&gt;Node20</title>
<path fill="none" stroke="midnightblue" d="M467.999,-231.755C482.185,-242.966 506.806,-261.434 530,-274 537.144,-277.871 545.048,-281.472 552.71,-284.647"/>
<polygon fill="midnightblue" stroke="midnightblue" points="551.625,-287.982 562.21,-288.428 554.213,-281.478 551.625,-287.982"/>
</g>
<!-- Node29&#45;&gt;Node24 -->
<g id="edge41" class="edge"><title>Node29&#45;&gt;Node24</title>
<path fill="none" stroke="midnightblue" d="M461.646,-212.342C472.415,-194.945 497.719,-158.693 530,-143 617.468,-100.478 650.744,-124 748,-124 748,-124 748,-124 901,-124 982.901,-124 1078.67,-124 1131.93,-124"/>
<polygon fill="midnightblue" stroke="midnightblue" points="1132,-127.5 1142,-124 1132,-120.5 1132,-127.5"/>
</g>
<!-- Node30 -->
<g id="node30" class="node"><title>Node30</title>
<g id="a_node30"><a xlink:href="namespaceanonymous__namespace_02libitm-5_813_0014_8cpp_03.html#a8b7be7cf3afef27c0623b844ce9116d8" target="_top" xlink:title="anonymous_namespace\l\{libitm&#45;5::13,14::cpp\}\l::memcpy">
<polygon fill="none" stroke="black" points="530,-152.5 530,-193.5 652,-193.5 652,-152.5 530,-152.5"/>
<text text-anchor="start" x="538" y="-181.5" font-family="Helvetica,sans-Serif" font-size="10.00">anonymous_namespace</text>
<text text-anchor="start" x="538" y="-170.5" font-family="Helvetica,sans-Serif" font-size="10.00">{libitm&#45;5::13,14::cpp}</text>
<text text-anchor="middle" x="591" y="-159.5" font-family="Helvetica,sans-Serif" font-size="10.00">::memcpy</text>
</a>
</g>
</g>
<!-- Node29&#45;&gt;Node30 -->
<g id="edge42" class="edge"><title>Node29&#45;&gt;Node30</title>
<path fill="none" stroke="midnightblue" d="M482.155,-212.436C494.213,-208.027 509.126,-202.573 523.975,-197.143"/>
<polygon fill="midnightblue" stroke="midnightblue" points="525.503,-200.311 533.693,-193.59 523.099,-193.737 525.503,-200.311"/>
</g>
<!-- Node31 -->
<g id="node31" class="node"><title>Node31</title>
<g id="a_node31"><a xlink:href="namespaceanonymous__namespace_02oreceager_8cpp_03.html#a7a88c7a7453bbfaca53eeac03b80a5d6" target="_top" xlink:title="anonymous_namespace\l\{oreceager::cpp\}::read">
<polygon fill="none" stroke="black" points="688,-191 688,-221 810,-221 810,-191 688,-191"/>
<text text-anchor="start" x="696" y="-209" font-family="Helvetica,sans-Serif" font-size="10.00">anonymous_namespace</text>
<text text-anchor="middle" x="749" y="-198" font-family="Helvetica,sans-Serif" font-size="10.00">{oreceager::cpp}::read</text>
</a>
</g>
</g>
<!-- Node30&#45;&gt;Node31 -->
<g id="edge43" class="edge"><title>Node30&#45;&gt;Node31</title>
<path fill="none" stroke="midnightblue" d="M652.314,-185.759C660.695,-187.532 669.363,-189.365 677.904,-191.172"/>
<polygon fill="midnightblue" stroke="midnightblue" points="677.339,-194.63 687.847,-193.275 678.788,-187.781 677.339,-194.63"/>
</g>
<!-- Node32 -->
<g id="node32" class="node"><title>Node32</title>
<g id="a_node32"><a xlink:href="namespaceitm2stm.html#a334b9615cac957b9ce7a4743beaaaf53" target="_top" xlink:title="itm2stm::add_bytes">
<polygon fill="none" stroke="black" points="697.5,-152.5 697.5,-171.5 800.5,-171.5 800.5,-152.5 697.5,-152.5"/>
<text text-anchor="middle" x="749" y="-159.5" font-family="Helvetica,sans-Serif" font-size="10.00">itm2stm::add_bytes</text>
</a>
</g>
</g>
<!-- Node30&#45;&gt;Node32 -->
<g id="edge44" class="edge"><title>Node30&#45;&gt;Node32</title>
<path fill="none" stroke="midnightblue" d="M652.314,-168.747C663.852,-167.933 675.936,-167.081 687.481,-166.267"/>
<polygon fill="midnightblue" stroke="midnightblue" points="687.732,-169.758 697.461,-165.564 687.239,-162.776 687.732,-169.758"/>
</g>
<!-- Node33 -->
<g id="node33" class="node"><title>Node33</title>
<g id="a_node33"><a xlink:href="namespaceitm2stm.html#aa9908b113027ae21130750939980ee0b" target="_top" xlink:title="itm2stm::offset_of">
<polygon fill="none" stroke="black" points="701,-240.5 701,-259.5 797,-259.5 797,-240.5 701,-240.5"/>
<text text-anchor="middle" x="749" y="-247.5" font-family="Helvetica,sans-Serif" font-size="10.00">itm2stm::offset_of</text>
</a>
</g>
</g>
<!-- Node30&#45;&gt;Node33 -->
<g id="edge45" class="edge"><title>Node30&#45;&gt;Node33</title>
<path fill="none" stroke="midnightblue" d="M627.605,-193.608C635.646,-198.308 644.131,-203.301 652,-208 668.099,-217.613 670.996,-222.096 688,-230 693.422,-232.52 699.252,-234.874 705.071,-237.016"/>
<polygon fill="midnightblue" stroke="midnightblue" points="704.185,-240.415 714.78,-240.417 706.499,-233.808 704.185,-240.415"/>
</g>
<!-- Node34&#45;&gt;Node4 -->
<g id="edge49" class="edge"><title>Node34&#45;&gt;Node4</title>
<path fill="none" stroke="midnightblue" d="M223.814,-220.589C241.033,-225.472 262.164,-231.464 280.573,-236.685"/>
<polygon fill="midnightblue" stroke="midnightblue" points="279.621,-240.053 290.197,-239.414 281.531,-233.319 279.621,-240.053"/>
</g>
<!-- Node34&#45;&gt;Node29 -->
<g id="edge50" class="edge"><title>Node34&#45;&gt;Node29</title>
<path fill="none" stroke="midnightblue" d="M233.594,-212.816C281.175,-214.799 357.119,-217.963 406.271,-220.011"/>
<polygon fill="midnightblue" stroke="midnightblue" points="406.196,-223.511 416.333,-220.431 406.487,-216.517 406.196,-223.511"/>
</g>
</g>
</svg>
        <g id="navigator" transform="translate(0 0)" fill="#404254">
                <rect fill="#f2f5e9" fill-opacity="0.5" stroke="#606060" stroke-width=".5" x="0" y="0" width="60" height="60"/>
                <use id="zoomplus" xlink:href="#zoomPlus" x="17" y="9" onmousedown="handleZoom(evt,'in')"/>
                <use id="zoomminus" xlink:href="#zoomMin" x="42" y="9" onmousedown="handleZoom(evt,'out')"/>
                <use id="reset" xlink:href="#resetDef" x="30" y="36" onmousedown="handleReset()"/>
                <g id="arrowUp" xlink:href="#dirArrow" transform="translate(30 24)" onmousedown="handlePan(0,-1)">
                  <use xlink:href="#rim" fill="#404040">
                        <set attributeName="fill" to="#808080" begin="arrowUp.mouseover" end="arrowUp.mouseout"/>
                  </use>
                  <path fill="none" stroke="white" stroke-width="1.5" d="M0,-3.0v7 M-2.5,-0.5L0,-3.0L2.5,-0.5"/>
                </g>
                <g id="arrowRight" xlink:href="#dirArrow" transform="rotate(90) translate(36 -43)" onmousedown="handlePan(1,0)">
                  <use xlink:href="#rim" fill="#404040">
                        <set attributeName="fill" to="#808080" begin="arrowRight.mouseover" end="arrowRight.mouseout"/>
                  </use>
                  <path fill="none" stroke="white" stroke-width="1.5" d="M0,-3.0v7 M-2.5,-0.5L0,-3.0L2.5,-0.5"/>
                </g>
                <g id="arrowDown" xlink:href="#dirArrow" transform="rotate(180) translate(-30 -48)" onmousedown="handlePan(0,1)">
                  <use xlink:href="#rim" fill="#404040">
                        <set attributeName="fill" to="#808080" begin="arrowDown.mouseover" end="arrowDown.mouseout"/>
                  </use>
                  <path fill="none" stroke="white" stroke-width="1.5" d="M0,-3.0v7 M-2.5,-0.5L0,-3.0L2.5,-0.5"/>
                </g>
                <g id="arrowLeft" xlink:href="#dirArrow" transform="rotate(270) translate(-36 17)" onmousedown="handlePan(-1,0)">
                  <use xlink:href="#rim" fill="#404040">
                        <set attributeName="fill" to="#808080" begin="arrowLeft.mouseover" end="arrowLeft.mouseout"/>
                  </use>
                  <path fill="none" stroke="white" stroke-width="1.5" d="M0,-3.0v7 M-2.5,-0.5L0,-3.0L2.5,-0.5"/>
                </g>
        </g>
        <svg viewBox="0 0 15 15" width="100%" height="30px" preserveAspectRatio="xMaxYMin meet">
         <g id="arrow_out" transform="scale(0.3 0.3)">
          <a xlink:href="rbtree_8c_a14bd83586612336b5eb09f902e95b02f_cgraph_org.svg" target="_base">
           <rect id="button" ry="5" rx="5" y="6" x="6" height="38" width="38"
                fill="#f2f5e9" fill-opacity="0.5" stroke="#606060" stroke-width="1.0"/>
           <path id="arrow"
             d="M 11.500037,31.436501 C 11.940474,20.09759 22.043105,11.32322 32.158766,21.979434 L 37.068811,17.246167 C 37.068811,17.246167 37.088388,32 37.088388,32 L 22.160133,31.978069 C 22.160133,31.978069 26.997745,27.140456 26.997745,27.140456 C 18.528582,18.264221 13.291696,25.230495 11.500037,31.436501 z"
             style="fill:#404040;"/>
          </a>
         </g>
        </svg>
</svg>
