<?xml version="1.0" encoding="UTF-8" standalone="no"?>
<!DOCTYPE svg PUBLIC "-//W3C//DTD SVG 1.1//EN"
 "http://www.w3.org/Graphics/SVG/1.1/DTD/svg11.dtd">
<!-- Generated by graphviz version 2.36.0 (20140111.2315)
 -->
<!-- Title: TMretriangulate Pages: 1 -->
<svg width="512pt" height="294pt"
 viewBox="0.00 0.00 512.00 294.00" xmlns="http://www.w3.org/2000/svg" xmlns:xlink="http://www.w3.org/1999/xlink">
<g id="graph0" class="graph" transform="scale(1 1) rotate(0) translate(4 290)">
<title>TMretriangulate</title>
<!-- Node1 -->
<g id="node1" class="node"><title>Node1</title>
<polygon fill="#bfbfbf" stroke="black" points="0,-133.5 0,-152.5 84,-152.5 84,-133.5 0,-133.5"/>
<text text-anchor="middle" x="42" y="-140.5" font-family="Helvetica,sans-Serif" font-size="10.00">TMretriangulate</text>
</g>
<!-- Node2 -->
<g id="node2" class="node"><title>Node2</title>
<g id="a_node2"><a xlink:href="element_8c.html#a57d3912e33cfd693159936a127754cd6" target="_top" xlink:title="element_getNewPoint">
<polygon fill="none" stroke="black" points="120.5,-266.5 120.5,-285.5 233.5,-285.5 233.5,-266.5 120.5,-266.5"/>
<text text-anchor="middle" x="177" y="-273.5" font-family="Helvetica,sans-Serif" font-size="10.00">element_getNewPoint</text>
</a>
</g>
</g>
<!-- Node1&#45;&gt;Node2 -->
<g id="edge1" class="edge"><title>Node1&#45;&gt;Node2</title>
<path fill="none" stroke="midnightblue" d="M46.9908,-152.818C56.3908,-174.741 82.0293,-228.019 120,-257 122.451,-258.871 125.097,-260.564 127.86,-262.095"/>
<polygon fill="midnightblue" stroke="midnightblue" points="126.449,-265.3 136.98,-266.457 129.469,-258.985 126.449,-265.3"/>
</g>
<!-- Node5 -->
<g id="node5" class="node"><title>Node5</title>
<g id="a_node5"><a xlink:href="element_8c.html#a0f0cca691c2897332a5bc0b124dc7926" target="_top" xlink:title="element_getNumEdge">
<polygon fill="none" stroke="black" points="120.5,-228.5 120.5,-247.5 233.5,-247.5 233.5,-228.5 120.5,-228.5"/>
<text text-anchor="middle" x="177" y="-235.5" font-family="Helvetica,sans-Serif" font-size="10.00">element_getNumEdge</text>
</a>
</g>
</g>
<!-- Node1&#45;&gt;Node5 -->
<g id="edge4" class="edge"><title>Node1&#45;&gt;Node5</title>
<path fill="none" stroke="midnightblue" d="M50.2519,-152.567C62.8018,-168.503 90.1107,-200.552 120,-219 123.344,-221.064 126.941,-222.936 130.639,-224.627"/>
<polygon fill="midnightblue" stroke="midnightblue" points="129.377,-227.892 139.956,-228.463 132.042,-221.419 129.377,-227.892"/>
</g>
<!-- Node6 -->
<g id="node6" class="node"><title>Node6</title>
<g id="a_node6"><a xlink:href="element_8c.html#a77a04a4bb653ba14e6ff94cacde1555b" target="_top" xlink:title="element_getEdge">
<polygon fill="none" stroke="black" points="131,-190.5 131,-209.5 223,-209.5 223,-190.5 131,-190.5"/>
<text text-anchor="middle" x="177" y="-197.5" font-family="Helvetica,sans-Serif" font-size="10.00">element_getEdge</text>
</a>
</g>
</g>
<!-- Node1&#45;&gt;Node6 -->
<g id="edge5" class="edge"><title>Node1&#45;&gt;Node6</title>
<path fill="none" stroke="midnightblue" d="M60.7393,-152.586C76.1513,-160.712 99.204,-172.384 120,-181 125.098,-183.112 130.524,-185.175 135.915,-187.116"/>
<polygon fill="midnightblue" stroke="midnightblue" points="134.91,-190.472 145.504,-190.463 137.216,-183.863 134.91,-190.472"/>
</g>
<!-- Node7 -->
<g id="node7" class="node"><title>Node7</title>
<g id="a_node7"><a xlink:href="list_8c.html#af9a0fb76faf3f2c75d3454dc7f7d9b6a" target="_top" xlink:title="list_iter_reset">
<polygon fill="none" stroke="black" points="139.5,-152.5 139.5,-171.5 214.5,-171.5 214.5,-152.5 139.5,-152.5"/>
<text text-anchor="middle" x="177" y="-159.5" font-family="Helvetica,sans-Serif" font-size="10.00">list_iter_reset</text>
</a>
</g>
</g>
<!-- Node1&#45;&gt;Node7 -->
<g id="edge6" class="edge"><title>Node1&#45;&gt;Node7</title>
<path fill="none" stroke="midnightblue" d="M84.353,-148.908C98.4661,-150.924 114.351,-153.193 128.883,-155.269"/>
<polygon fill="midnightblue" stroke="midnightblue" points="128.787,-158.791 139.181,-156.74 129.777,-151.861 128.787,-158.791"/>
</g>
<!-- Node8 -->
<g id="node8" class="node"><title>Node8</title>
<g id="a_node8"><a xlink:href="list_8c.html#af8d7b94e84661c7b1da55a7c87619911" target="_top" xlink:title="list_iter_hasNext">
<polygon fill="none" stroke="black" points="132,-114.5 132,-133.5 222,-133.5 222,-114.5 132,-114.5"/>
<text text-anchor="middle" x="177" y="-121.5" font-family="Helvetica,sans-Serif" font-size="10.00">list_iter_hasNext</text>
</a>
</g>
</g>
<!-- Node1&#45;&gt;Node8 -->
<g id="edge7" class="edge"><title>Node1&#45;&gt;Node8</title>
<path fill="none" stroke="midnightblue" d="M84.353,-137.092C96.2666,-135.39 109.443,-133.508 122.002,-131.714"/>
<polygon fill="midnightblue" stroke="midnightblue" points="122.502,-135.178 131.906,-130.299 121.512,-128.249 122.502,-135.178"/>
</g>
<!-- Node9 -->
<g id="node9" class="node"><title>Node9</title>
<g id="a_node9"><a xlink:href="list_8c.html#a3dce8c731efc2b63a61958b2503f4c5d" target="_top" xlink:title="list_iter_next">
<polygon fill="none" stroke="black" points="141,-76.5 141,-95.5 213,-95.5 213,-76.5 141,-76.5"/>
<text text-anchor="middle" x="177" y="-83.5" font-family="Helvetica,sans-Serif" font-size="10.00">list_iter_next</text>
</a>
</g>
</g>
<!-- Node1&#45;&gt;Node9 -->
<g id="edge8" class="edge"><title>Node1&#45;&gt;Node9</title>
<path fill="none" stroke="midnightblue" d="M60.7393,-133.414C76.1513,-125.288 99.204,-113.616 120,-105 125.098,-102.888 130.524,-100.825 135.915,-98.8841"/>
<polygon fill="midnightblue" stroke="midnightblue" points="137.216,-102.137 145.504,-95.5373 134.91,-95.5281 137.216,-102.137"/>
</g>
<!-- Node10 -->
<g id="node10" class="node"><title>Node10</title>
<g id="a_node10"><a xlink:href="element_8c.html#a7730fb459ce6279e0bb3d5d8c487bf51" target="_top" xlink:title="element_isBad">
<polygon fill="none" stroke="black" points="136.5,-38.5 136.5,-57.5 217.5,-57.5 217.5,-38.5 136.5,-38.5"/>
<text text-anchor="middle" x="177" y="-45.5" font-family="Helvetica,sans-Serif" font-size="10.00">element_isBad</text>
</a>
</g>
</g>
<!-- Node1&#45;&gt;Node10 -->
<g id="edge9" class="edge"><title>Node1&#45;&gt;Node10</title>
<path fill="none" stroke="midnightblue" d="M50.2519,-133.433C62.8018,-117.497 90.1107,-85.4481 120,-67 123.344,-64.9358 126.941,-63.064 130.639,-61.3734"/>
<polygon fill="midnightblue" stroke="midnightblue" points="132.042,-64.581 139.956,-57.5374 129.377,-58.1081 132.042,-64.581"/>
</g>
<!-- Node13 -->
<g id="node13" class="node"><title>Node13</title>
<g id="a_node13"><a xlink:href="region_8c.html#a73cd7aece427be74d4262efdfd7329e1" target="_top" xlink:title="TMaddToBadVector">
<polygon fill="none" stroke="black" points="125,-0.5 125,-19.5 229,-19.5 229,-0.5 125,-0.5"/>
<text text-anchor="middle" x="177" y="-7.5" font-family="Helvetica,sans-Serif" font-size="10.00">TMaddToBadVector</text>
</a>
</g>
</g>
<!-- Node1&#45;&gt;Node13 -->
<g id="edge12" class="edge"><title>Node1&#45;&gt;Node13</title>
<path fill="none" stroke="midnightblue" d="M46.9908,-133.182C56.3908,-111.259 82.0293,-57.9808 120,-29 122.451,-27.1294 125.097,-25.4362 127.86,-23.9045"/>
<polygon fill="midnightblue" stroke="midnightblue" points="129.469,-27.0148 136.98,-19.543 126.449,-20.6997 129.469,-27.0148"/>
</g>
<!-- Node3 -->
<g id="node3" class="node"><title>Node3</title>
<g id="a_node3"><a xlink:href="element_8c.html#a21515ada340745fee3b5d1646303f545" target="_top" xlink:title="compareEdge">
<polygon fill="none" stroke="black" points="278.5,-266.5 278.5,-285.5 355.5,-285.5 355.5,-266.5 278.5,-266.5"/>
<text text-anchor="middle" x="317" y="-273.5" font-family="Helvetica,sans-Serif" font-size="10.00">compareEdge</text>
</a>
</g>
</g>
<!-- Node2&#45;&gt;Node3 -->
<g id="edge2" class="edge"><title>Node2&#45;&gt;Node3</title>
<path fill="none" stroke="midnightblue" d="M233.732,-276C245.07,-276 256.904,-276 267.947,-276"/>
<polygon fill="midnightblue" stroke="midnightblue" points="268.251,-279.5 278.251,-276 268.251,-272.5 268.251,-279.5"/>
</g>
<!-- Node4 -->
<g id="node4" class="node"><title>Node4</title>
<g id="a_node4"><a xlink:href="yada_2coordinate_8c.html#a6ab38f14cde3ffe89a1496fbdf628549" target="_top" xlink:title="coordinate_compare">
<polygon fill="none" stroke="black" points="400,-266.5 400,-285.5 504,-285.5 504,-266.5 400,-266.5"/>
<text text-anchor="middle" x="452" y="-273.5" font-family="Helvetica,sans-Serif" font-size="10.00">coordinate_compare</text>
</a>
</g>
</g>
<!-- Node3&#45;&gt;Node4 -->
<g id="edge3" class="edge"><title>Node3&#45;&gt;Node4</title>
<path fill="none" stroke="midnightblue" d="M355.757,-276C366.33,-276 378.103,-276 389.667,-276"/>
<polygon fill="midnightblue" stroke="midnightblue" points="389.739,-279.5 399.739,-276 389.739,-272.5 389.739,-279.5"/>
</g>
<!-- Node11 -->
<g id="node11" class="node"><title>Node11</title>
<g id="a_node11"><a xlink:href="element_8c.html#a33bde13d4c3aee5e930595a5c334043c" target="_top" xlink:title="isEncroached">
<polygon fill="none" stroke="black" points="279,-57.5 279,-76.5 355,-76.5 355,-57.5 279,-57.5"/>
<text text-anchor="middle" x="317" y="-64.5" font-family="Helvetica,sans-Serif" font-size="10.00">isEncroached</text>
</a>
</g>
</g>
<!-- Node10&#45;&gt;Node11 -->
<g id="edge10" class="edge"><title>Node10&#45;&gt;Node11</title>
<path fill="none" stroke="midnightblue" d="M217.545,-53.4446C233.507,-55.6422 252.057,-58.1963 268.724,-60.491"/>
<polygon fill="midnightblue" stroke="midnightblue" points="268.435,-63.9841 278.819,-61.8808 269.389,-57.0495 268.435,-63.9841"/>
</g>
<!-- Node12 -->
<g id="node12" class="node"><title>Node12</title>
<g id="a_node12"><a xlink:href="element_8c.html#a57e0d1ec7ccec3df56a9695db8361541" target="_top" xlink:title="element_isSkinny">
<polygon fill="none" stroke="black" points="270,-19.5 270,-38.5 364,-38.5 364,-19.5 270,-19.5"/>
<text text-anchor="middle" x="317" y="-26.5" font-family="Helvetica,sans-Serif" font-size="10.00">element_isSkinny</text>
</a>
</g>
</g>
<!-- Node10&#45;&gt;Node12 -->
<g id="edge11" class="edge"><title>Node10&#45;&gt;Node12</title>
<path fill="none" stroke="midnightblue" d="M217.545,-42.5554C230.62,-40.7553 245.431,-38.716 259.522,-36.776"/>
<polygon fill="midnightblue" stroke="midnightblue" points="260.19,-40.2171 269.619,-35.3858 259.235,-33.2825 260.19,-40.2171"/>
</g>
</g>
</svg>
