<?xml version="1.0" encoding="UTF-8" standalone="no"?>
<!DOCTYPE svg PUBLIC "-//W3C//DTD SVG 1.1//EN"
 "http://www.w3.org/Graphics/SVG/1.1/DTD/svg11.dtd">
<!-- Generated by graphviz version 2.36.0 (20140111.2315)
 -->
<!-- Title: rstm/rstm&#45;dev/stamp&#45;0.9.10/yada/region.h Pages: 1 -->
<!--zoomable 488 -->
<svg id="main" version="1.1" xmlns="http://www.w3.org/2000/svg" xmlns:xlink="http://www.w3.org/1999/xlink" xml:space="preserve" onload="init(evt)">
<style type="text/css"><![CDATA[
.edge:hover path { stroke: red; }
.edge:hover polygon { stroke: red; fill: red; }
]]></style>
<script type="text/javascript"><![CDATA[
var edges = document.getElementsByTagName('g');
if (edges && edges.length) {
  for (var i=0;i<edges.length;i++) {
    if (edges[i].id.substr(0,4)=='edge') {
      edges[i].setAttribute('class','edge');
    }
  }
}
]]></script>
        <defs>
                <circle id="rim" cx="0" cy="0" r="7"/>
                <circle id="rim2" cx="0" cy="0" r="3.5"/>
                <g id="zoomPlus">
                        <use xlink:href="#rim" fill="#404040">
                                <set attributeName="fill" to="#808080" begin="zoomplus.mouseover" end="zoomplus.mouseout"/>
                        </use>
                        <path d="M-4,0h8M0,-4v8" fill="none" stroke="white" stroke-width="1.5" pointer-events="none"/>
                </g>
                <g id="zoomMin">
                        <use xlink:href="#rim" fill="#404040">
                                <set attributeName="fill" to="#808080" begin="zoomminus.mouseover" end="zoomminus.mouseout"/>
                        </use>
                        <path d="M-4,0h8" fill="none" stroke="white" stroke-width="1.5" pointer-events="none"/>
                </g>
                <g id="dirArrow">
                        <path fill="none" stroke="white" stroke-width="1.5" d="M0,-3.0v7 M-2.5,-0.5L0,-3.0L2.5,-0.5"/>
                </g>
               <g id="resetDef">
                       <use xlink:href="#rim2" fill="#404040">
                               <set attributeName="fill" to="#808080" begin="reset.mouseover" end="reset.mouseout"/>
                       </use>
               </g>
        </defs>

<script type="text/javascript">
var viewWidth = 522;
var viewHeight = 488;
var sectionId = 'dynsection-0';
</script>
<script xlink:href="svgpan.js"/>
<svg id="graph" class="graph">
<g id="viewport">
<title>rstm/rstm&#45;dev/stamp&#45;0.9.10/yada/region.h</title>
<!-- Node1 -->
<g id="node1" class="node"><title>Node1</title>
<polygon fill="#bfbfbf" stroke="black" points="188,-449 188,-479 296,-479 296,-449 188,-449"/>
<text text-anchor="start" x="196" y="-467" font-family="Helvetica,sans-Serif" font-size="10.00">rstm/rstm&#45;dev/stamp</text>
<text text-anchor="middle" x="242" y="-456" font-family="Helvetica,sans-Serif" font-size="10.00">&#45;0.9.10/yada/region.h</text>
</g>
<!-- Node2 -->
<g id="node2" class="node"><title>Node2</title>
<g id="a_node2"><a xlink:href="element_8h.html" target="_top" xlink:title="element.h">
<polygon fill="none" stroke="black" points="173.5,-336.5 173.5,-355.5 232.5,-355.5 232.5,-336.5 173.5,-336.5"/>
<text text-anchor="middle" x="203" y="-343.5" font-family="Helvetica,sans-Serif" font-size="10.00">element.h</text>
</a>
</g>
</g>
<!-- Node1&#45;&gt;Node2 -->
<g id="edge1" class="edge"><title>Node1&#45;&gt;Node2</title>
<path fill="none" stroke="midnightblue" d="M237.218,-448.776C230.159,-427.781 216.949,-388.488 209.169,-365.349"/>
<polygon fill="midnightblue" stroke="midnightblue" points="212.432,-364.07 205.927,-355.707 205.797,-366.301 212.432,-364.07"/>
</g>
<!-- Node4 -->
<g id="node4" class="node"><title>Node4</title>
<g id="a_node4"><a xlink:href="tm_8h.html" target="_top" xlink:title="tm.h">
<polygon fill="none" stroke="black" points="170,-112.5 170,-131.5 206,-131.5 206,-112.5 170,-112.5"/>
<text text-anchor="middle" x="188" y="-119.5" font-family="Helvetica,sans-Serif" font-size="10.00">tm.h</text>
</a>
</g>
</g>
<!-- Node1&#45;&gt;Node4 -->
<g id="edge31" class="edge"><title>Node1&#45;&gt;Node4</title>
<path fill="none" stroke="midnightblue" d="M187.992,-460.324C116.669,-453.552 0,-429.816 0,-347 0,-347 0,-347 0,-233 0,-159.767 107.585,-134.384 159.983,-126.364"/>
<polygon fill="midnightblue" stroke="midnightblue" points="160.566,-129.817 169.974,-124.944 159.581,-122.886 160.566,-129.817"/>
</g>
<!-- Node12 -->
<g id="node12" class="node"><title>Node12</title>
<g id="a_node12"><a xlink:href="heap_8h.html" target="_top" xlink:title="heap.h">
<polygon fill="none" stroke="black" points="242,-280.5 242,-299.5 288,-299.5 288,-280.5 242,-280.5"/>
<text text-anchor="middle" x="265" y="-287.5" font-family="Helvetica,sans-Serif" font-size="10.00">heap.h</text>
</a>
</g>
</g>
<!-- Node1&#45;&gt;Node12 -->
<g id="edge16" class="edge"><title>Node1&#45;&gt;Node12</title>
<path fill="none" stroke="midnightblue" d="M243.882,-448.925C248.008,-418.073 257.848,-344.484 262.492,-309.755"/>
<polygon fill="midnightblue" stroke="midnightblue" points="265.996,-309.96 263.852,-299.585 259.057,-309.033 265.996,-309.96"/>
</g>
<!-- Node13 -->
<g id="node13" class="node"><title>Node13</title>
<g id="a_node13"><a xlink:href="mesh_8h.html" target="_top" xlink:title="mesh.h">
<polygon fill="none" stroke="black" points="321.5,-392.5 321.5,-411.5 370.5,-411.5 370.5,-392.5 321.5,-392.5"/>
<text text-anchor="middle" x="346" y="-399.5" font-family="Helvetica,sans-Serif" font-size="10.00">mesh.h</text>
</a>
</g>
</g>
<!-- Node1&#45;&gt;Node13 -->
<g id="edge20" class="edge"><title>Node1&#45;&gt;Node13</title>
<path fill="none" stroke="midnightblue" d="M266.383,-448.933C283.146,-439.262 305.303,-426.479 321.985,-416.855"/>
<polygon fill="midnightblue" stroke="midnightblue" points="324.18,-419.629 331.093,-411.6 320.682,-413.566 324.18,-419.629"/>
</g>
<!-- Node3 -->
<g id="node3" class="node"><title>Node3</title>
<g id="a_node3"><a xlink:href="yada_2coordinate_8h.html" target="_top" xlink:title="coordinate.h">
<polygon fill="none" stroke="black" points="66,-168.5 66,-187.5 136,-187.5 136,-168.5 66,-168.5"/>
<text text-anchor="middle" x="101" y="-175.5" font-family="Helvetica,sans-Serif" font-size="10.00">coordinate.h</text>
</a>
</g>
</g>
<!-- Node2&#45;&gt;Node3 -->
<g id="edge2" class="edge"><title>Node2&#45;&gt;Node3</title>
<path fill="none" stroke="midnightblue" d="M196.118,-336.248C189.218,-327.331 178.436,-313.004 170,-300 146.852,-264.32 122.943,-220.555 110.244,-196.654"/>
<polygon fill="midnightblue" stroke="midnightblue" points="113.286,-194.919 105.523,-187.709 107.095,-198.186 113.286,-194.919"/>
</g>
<!-- Node2&#45;&gt;Node4 -->
<g id="edge14" class="edge"><title>Node2&#45;&gt;Node4</title>
<path fill="none" stroke="midnightblue" d="M189.782,-336.385C159.059,-315.444 83.4453,-258.383 57,-188 40.4531,-143.961 116.492,-129.62 159.756,-125.058"/>
<polygon fill="midnightblue" stroke="midnightblue" points="160.345,-128.518 169.973,-124.097 159.689,-121.549 160.345,-128.518"/>
</g>
<!-- Node8 -->
<g id="node8" class="node"><title>Node8</title>
<g id="a_node8"><a xlink:href="list_8h.html" target="_top" xlink:title="list.h">
<polygon fill="none" stroke="black" points="185,-280.5 185,-299.5 223,-299.5 223,-280.5 185,-280.5"/>
<text text-anchor="middle" x="204" y="-287.5" font-family="Helvetica,sans-Serif" font-size="10.00">list.h</text>
</a>
</g>
</g>
<!-- Node2&#45;&gt;Node8 -->
<g id="edge7" class="edge"><title>Node2&#45;&gt;Node8</title>
<path fill="none" stroke="midnightblue" d="M203.165,-336.083C203.296,-329.006 203.484,-318.861 203.648,-309.986"/>
<polygon fill="midnightblue" stroke="midnightblue" points="207.152,-309.814 203.838,-299.751 200.153,-309.685 207.152,-309.814"/>
</g>
<!-- Node9 -->
<g id="node9" class="node"><title>Node9</title>
<g id="a_node9"><a xlink:href="types_8h.html" target="_top" xlink:title="types.h">
<polygon fill="none" stroke="black" points="294.5,-224.5 294.5,-243.5 343.5,-243.5 343.5,-224.5 294.5,-224.5"/>
<text text-anchor="middle" x="319" y="-231.5" font-family="Helvetica,sans-Serif" font-size="10.00">types.h</text>
</a>
</g>
</g>
<!-- Node2&#45;&gt;Node9 -->
<g id="edge15" class="edge"><title>Node2&#45;&gt;Node9</title>
<path fill="none" stroke="midnightblue" d="M232.619,-337.473C253.279,-330.802 280.076,-319.089 297,-300 308.475,-287.057 314.01,-267.888 316.652,-253.718"/>
<polygon fill="midnightblue" stroke="midnightblue" points="320.141,-254.057 318.209,-243.64 313.223,-252.989 320.141,-254.057"/>
</g>
<!-- Node11 -->
<g id="node11" class="node"><title>Node11</title>
<g id="a_node11"><a xlink:href="pair_8h.html" target="_top" xlink:title="pair.h">
<polygon fill="none" stroke="black" points="192.5,-168.5 192.5,-187.5 233.5,-187.5 233.5,-168.5 192.5,-168.5"/>
<text text-anchor="middle" x="213" y="-175.5" font-family="Helvetica,sans-Serif" font-size="10.00">pair.h</text>
</a>
</g>
</g>
<!-- Node2&#45;&gt;Node11 -->
<g id="edge13" class="edge"><title>Node2&#45;&gt;Node11</title>
<path fill="none" stroke="midnightblue" d="M195.849,-336.364C189.227,-327.763 179.843,-313.873 176,-300 171.878,-285.117 171.917,-243.388 179,-224 182.89,-213.351 190.216,-203.13 197.075,-195.128"/>
<polygon fill="midnightblue" stroke="midnightblue" points="199.729,-197.411 203.889,-187.667 194.561,-192.691 199.729,-197.411"/>
</g>
<!-- Node3&#45;&gt;Node4 -->
<g id="edge3" class="edge"><title>Node3&#45;&gt;Node4</title>
<path fill="none" stroke="midnightblue" d="M114.978,-168.324C128.55,-159.9 149.38,-146.971 165.325,-137.074"/>
<polygon fill="midnightblue" stroke="midnightblue" points="167.406,-139.902 174.057,-131.655 163.714,-133.954 167.406,-139.902"/>
</g>
<!-- Node5 -->
<g id="node5" class="node"><title>Node5</title>
<polygon fill="none" stroke="#bfbfbf" points="132,-56.5 132,-75.5 178,-75.5 178,-56.5 132,-56.5"/>
<text text-anchor="middle" x="155" y="-63.5" font-family="Helvetica,sans-Serif" font-size="10.00">stdio.h</text>
</g>
<!-- Node4&#45;&gt;Node5 -->
<g id="edge4" class="edge"><title>Node4&#45;&gt;Node5</title>
<path fill="none" stroke="midnightblue" d="M182.551,-112.083C177.986,-104.613 171.332,-93.7244 165.707,-84.5199"/>
<polygon fill="midnightblue" stroke="midnightblue" points="168.549,-82.4588 160.348,-75.7511 162.576,-86.109 168.549,-82.4588"/>
</g>
<!-- Node6 -->
<g id="node6" class="node"><title>Node6</title>
<g id="a_node6"><a xlink:href="assert_8h.html" target="_top" xlink:title="assert.h">
<polygon fill="none" stroke="black" points="196,-56.5 196,-75.5 248,-75.5 248,-56.5 196,-56.5"/>
<text text-anchor="middle" x="222" y="-63.5" font-family="Helvetica,sans-Serif" font-size="10.00">assert.h</text>
</a>
</g>
</g>
<!-- Node4&#45;&gt;Node6 -->
<g id="edge5" class="edge"><title>Node4&#45;&gt;Node6</title>
<path fill="none" stroke="midnightblue" d="M193.614,-112.083C198.367,-104.534 205.318,-93.4948 211.152,-84.2298"/>
<polygon fill="midnightblue" stroke="midnightblue" points="214.124,-86.0783 216.49,-75.7511 208.2,-82.3486 214.124,-86.0783"/>
</g>
<!-- Node7 -->
<g id="node7" class="node"><title>Node7</title>
<polygon fill="none" stroke="#bfbfbf" points="196.5,-0.5 196.5,-19.5 247.5,-19.5 247.5,-0.5 196.5,-0.5"/>
<text text-anchor="middle" x="222" y="-7.5" font-family="Helvetica,sans-Serif" font-size="10.00">config.h</text>
</g>
<!-- Node6&#45;&gt;Node7 -->
<g id="edge6" class="edge"><title>Node6&#45;&gt;Node7</title>
<path fill="none" stroke="midnightblue" d="M222,-56.083C222,-49.0059 222,-38.8611 222,-29.9865"/>
<polygon fill="midnightblue" stroke="midnightblue" points="225.5,-29.751 222,-19.7511 218.5,-29.7511 225.5,-29.751"/>
</g>
<!-- Node8&#45;&gt;Node4 -->
<g id="edge8" class="edge"><title>Node8&#45;&gt;Node4</title>
<path fill="none" stroke="midnightblue" d="M197.371,-280.275C191.235,-271.607 182.542,-257.669 179,-244 169.831,-208.617 177.227,-165.609 182.944,-141.569"/>
<polygon fill="midnightblue" stroke="midnightblue" points="186.386,-142.234 185.462,-131.68 179.603,-140.507 186.386,-142.234"/>
</g>
<!-- Node8&#45;&gt;Node9 -->
<g id="edge9" class="edge"><title>Node8&#45;&gt;Node9</title>
<path fill="none" stroke="midnightblue" d="M222.222,-280.444C240.896,-271.675 270.156,-257.935 291.617,-247.858"/>
<polygon fill="midnightblue" stroke="midnightblue" points="293.299,-250.935 300.863,-243.516 290.324,-244.599 293.299,-250.935"/>
</g>
<!-- Node10 -->
<g id="node10" class="node"><title>Node10</title>
<g id="a_node10"><a xlink:href="lehigh_8h.html" target="_top" xlink:title="lehigh.h">
<polygon fill="none" stroke="black" points="188,-224.5 188,-243.5 238,-243.5 238,-224.5 188,-224.5"/>
<text text-anchor="middle" x="213" y="-231.5" font-family="Helvetica,sans-Serif" font-size="10.00">lehigh.h</text>
</a>
</g>
</g>
<!-- Node8&#45;&gt;Node10 -->
<g id="edge10" class="edge"><title>Node8&#45;&gt;Node10</title>
<path fill="none" stroke="midnightblue" d="M205.486,-280.083C206.679,-272.927 208.394,-262.635 209.885,-253.691"/>
<polygon fill="midnightblue" stroke="midnightblue" points="213.35,-254.19 211.541,-243.751 206.445,-253.04 213.35,-254.19"/>
</g>
<!-- Node10&#45;&gt;Node11 -->
<g id="edge11" class="edge"><title>Node10&#45;&gt;Node11</title>
<path fill="none" stroke="midnightblue" d="M213,-224.083C213,-217.006 213,-206.861 213,-197.986"/>
<polygon fill="midnightblue" stroke="midnightblue" points="216.5,-197.751 213,-187.751 209.5,-197.751 216.5,-197.751"/>
</g>
<!-- Node11&#45;&gt;Node4 -->
<g id="edge12" class="edge"><title>Node11&#45;&gt;Node4</title>
<path fill="none" stroke="midnightblue" d="M208.872,-168.083C205.486,-160.77 200.584,-150.181 196.381,-141.103"/>
<polygon fill="midnightblue" stroke="midnightblue" points="199.429,-139.355 192.051,-131.751 193.077,-142.296 199.429,-139.355"/>
</g>
<!-- Node12&#45;&gt;Node4 -->
<g id="edge17" class="edge"><title>Node12&#45;&gt;Node4</title>
<path fill="none" stroke="midnightblue" d="M265.282,-280.399C265.579,-259.575 264.017,-205.41 242,-168 234.674,-155.552 222.579,-144.995 211.691,-137.242"/>
<polygon fill="midnightblue" stroke="midnightblue" points="213.588,-134.3 203.332,-131.642 209.692,-140.116 213.588,-134.3"/>
</g>
<!-- Node12&#45;&gt;Node9 -->
<g id="edge18" class="edge"><title>Node12&#45;&gt;Node9</title>
<path fill="none" stroke="midnightblue" d="M273.917,-280.083C281.78,-272.22 293.431,-260.569 302.919,-251.081"/>
<polygon fill="midnightblue" stroke="midnightblue" points="305.653,-253.297 310.249,-243.751 300.703,-248.347 305.653,-253.297"/>
</g>
<!-- Node12&#45;&gt;Node10 -->
<g id="edge19" class="edge"><title>Node12&#45;&gt;Node10</title>
<path fill="none" stroke="midnightblue" d="M256.413,-280.083C248.841,-272.22 237.622,-260.569 228.486,-251.081"/>
<polygon fill="midnightblue" stroke="midnightblue" points="230.885,-248.527 221.427,-243.751 225.842,-253.382 230.885,-248.527"/>
</g>
<!-- Node13&#45;&gt;Node2 -->
<g id="edge21" class="edge"><title>Node13&#45;&gt;Node2</title>
<path fill="none" stroke="midnightblue" d="M323.341,-392.444C299.598,-383.478 262.091,-369.314 235.262,-359.183"/>
<polygon fill="midnightblue" stroke="midnightblue" points="236.144,-355.775 225.553,-355.516 233.671,-362.324 236.144,-355.775"/>
</g>
<!-- Node13&#45;&gt;Node4 -->
<g id="edge27" class="edge"><title>Node13&#45;&gt;Node4</title>
<path fill="none" stroke="midnightblue" d="M370.789,-396.67C417.521,-386.931 514,-358.633 514,-291 514,-291 514,-291 514,-233 514,-182.935 468.063,-187.613 422,-168 351.849,-138.13 261.422,-127.945 216.274,-124.583"/>
<polygon fill="midnightblue" stroke="midnightblue" points="216.283,-121.076 206.067,-123.884 215.804,-128.059 216.283,-121.076"/>
</g>
<!-- Node14 -->
<g id="node14" class="node"><title>Node14</title>
<g id="a_node14"><a xlink:href="map_8h.html" target="_top" xlink:title="map.h">
<polygon fill="none" stroke="black" points="350,-280.5 350,-299.5 394,-299.5 394,-280.5 350,-280.5"/>
<text text-anchor="middle" x="372" y="-287.5" font-family="Helvetica,sans-Serif" font-size="10.00">map.h</text>
</a>
</g>
</g>
<!-- Node13&#45;&gt;Node14 -->
<g id="edge22" class="edge"><title>Node13&#45;&gt;Node14</title>
<path fill="none" stroke="midnightblue" d="M348.04,-392.368C352.236,-374.617 361.915,-333.666 367.604,-309.597"/>
<polygon fill="midnightblue" stroke="midnightblue" points="371.075,-310.128 369.969,-299.591 364.263,-308.518 371.075,-310.128"/>
</g>
<!-- Node16 -->
<g id="node16" class="node"><title>Node16</title>
<polygon fill="none" stroke="#bfbfbf" points="289.5,-336.5 289.5,-355.5 346.5,-355.5 346.5,-336.5 289.5,-336.5"/>
<text text-anchor="middle" x="318" y="-343.5" font-family="Helvetica,sans-Serif" font-size="10.00">random.h</text>
</g>
<!-- Node13&#45;&gt;Node16 -->
<g id="edge26" class="edge"><title>Node13&#45;&gt;Node16</title>
<path fill="none" stroke="midnightblue" d="M341.376,-392.083C337.544,-384.691 331.976,-373.953 327.235,-364.811"/>
<polygon fill="midnightblue" stroke="midnightblue" points="330.248,-363.018 322.538,-355.751 324.034,-366.24 330.248,-363.018"/>
</g>
<!-- Node17 -->
<g id="node17" class="node"><title>Node17</title>
<g id="a_node17"><a xlink:href="vector_8h.html" target="_top" xlink:title="vector.h">
<polygon fill="none" stroke="black" points="412,-280.5 412,-299.5 464,-299.5 464,-280.5 412,-280.5"/>
<text text-anchor="middle" x="438" y="-287.5" font-family="Helvetica,sans-Serif" font-size="10.00">vector.h</text>
</a>
</g>
</g>
<!-- Node13&#45;&gt;Node17 -->
<g id="edge28" class="edge"><title>Node13&#45;&gt;Node17</title>
<path fill="none" stroke="midnightblue" d="M353.219,-392.368C368.536,-374.055 404.505,-331.049 424.315,-307.362"/>
<polygon fill="midnightblue" stroke="midnightblue" points="427.084,-309.508 430.814,-299.591 421.714,-305.017 427.084,-309.508"/>
</g>
<!-- Node14&#45;&gt;Node9 -->
<g id="edge25" class="edge"><title>Node14&#45;&gt;Node9</title>
<path fill="none" stroke="midnightblue" d="M363.248,-280.083C355.53,-272.22 344.095,-260.569 334.783,-251.081"/>
<polygon fill="midnightblue" stroke="midnightblue" points="337.092,-248.436 327.589,-243.751 332.096,-253.34 337.092,-248.436"/>
</g>
<!-- Node14&#45;&gt;Node11 -->
<g id="edge24" class="edge"><title>Node14&#45;&gt;Node11</title>
<path fill="none" stroke="midnightblue" d="M371.762,-280.139C370.91,-266.283 367.249,-239.473 352,-224 323.173,-194.749 275.209,-184.498 243.846,-180.914"/>
<polygon fill="midnightblue" stroke="midnightblue" points="243.796,-177.393 233.503,-179.904 243.115,-184.359 243.796,-177.393"/>
</g>
<!-- Node15 -->
<g id="node15" class="node"><title>Node15</title>
<polygon fill="none" stroke="#bfbfbf" points="400,-224.5 400,-243.5 448,-243.5 448,-224.5 400,-224.5"/>
<text text-anchor="middle" x="424" y="-231.5" font-family="Helvetica,sans-Serif" font-size="10.00">stdlib.h</text>
</g>
<!-- Node14&#45;&gt;Node15 -->
<g id="edge23" class="edge"><title>Node14&#45;&gt;Node15</title>
<path fill="none" stroke="midnightblue" d="M380.587,-280.083C388.159,-272.22 399.378,-260.569 408.514,-251.081"/>
<polygon fill="midnightblue" stroke="midnightblue" points="411.158,-253.382 415.573,-243.751 406.115,-248.527 411.158,-253.382"/>
</g>
<!-- Node17&#45;&gt;Node4 -->
<g id="edge29" class="edge"><title>Node17&#45;&gt;Node4</title>
<path fill="none" stroke="midnightblue" d="M444.899,-280.256C454.441,-267.022 469.184,-241.59 457,-224 401.36,-143.677 273.381,-127.141 216.337,-123.805"/>
<polygon fill="midnightblue" stroke="midnightblue" points="216.388,-120.303 206.229,-123.31 216.046,-127.295 216.388,-120.303"/>
</g>
<!-- Node17&#45;&gt;Node9 -->
<g id="edge30" class="edge"><title>Node17&#45;&gt;Node9</title>
<path fill="none" stroke="midnightblue" d="M419.144,-280.444C399.734,-271.636 369.27,-257.812 347.035,-247.722"/>
<polygon fill="midnightblue" stroke="midnightblue" points="348.32,-244.462 337.768,-243.516 345.428,-250.836 348.32,-244.462"/>
</g>
</g>
</svg>
        <g id="navigator" transform="translate(0 0)" fill="#404254">
                <rect fill="#f2f5e9" fill-opacity="0.5" stroke="#606060" stroke-width=".5" x="0" y="0" width="60" height="60"/>
                <use id="zoomplus" xlink:href="#zoomPlus" x="17" y="9" onmousedown="handleZoom(evt,'in')"/>
                <use id="zoomminus" xlink:href="#zoomMin" x="42" y="9" onmousedown="handleZoom(evt,'out')"/>
                <use id="reset" xlink:href="#resetDef" x="30" y="36" onmousedown="handleReset()"/>
                <g id="arrowUp" xlink:href="#dirArrow" transform="translate(30 24)" onmousedown="handlePan(0,-1)">
                  <use xlink:href="#rim" fill="#404040">
                        <set attributeName="fill" to="#808080" begin="arrowUp.mouseover" end="arrowUp.mouseout"/>
                  </use>
                  <path fill="none" stroke="white" stroke-width="1.5" d="M0,-3.0v7 M-2.5,-0.5L0,-3.0L2.5,-0.5"/>
                </g>
                <g id="arrowRight" xlink:href="#dirArrow" transform="rotate(90) translate(36 -43)" onmousedown="handlePan(1,0)">
                  <use xlink:href="#rim" fill="#404040">
                        <set attributeName="fill" to="#808080" begin="arrowRight.mouseover" end="arrowRight.mouseout"/>
                  </use>
                  <path fill="none" stroke="white" stroke-width="1.5" d="M0,-3.0v7 M-2.5,-0.5L0,-3.0L2.5,-0.5"/>
                </g>
                <g id="arrowDown" xlink:href="#dirArrow" transform="rotate(180) translate(-30 -48)" onmousedown="handlePan(0,1)">
                  <use xlink:href="#rim" fill="#404040">
                        <set attributeName="fill" to="#808080" begin="arrowDown.mouseover" end="arrowDown.mouseout"/>
                  </use>
                  <path fill="none" stroke="white" stroke-width="1.5" d="M0,-3.0v7 M-2.5,-0.5L0,-3.0L2.5,-0.5"/>
                </g>
                <g id="arrowLeft" xlink:href="#dirArrow" transform="rotate(270) translate(-36 17)" onmousedown="handlePan(-1,0)">
                  <use xlink:href="#rim" fill="#404040">
                        <set attributeName="fill" to="#808080" begin="arrowLeft.mouseover" end="arrowLeft.mouseout"/>
                  </use>
                  <path fill="none" stroke="white" stroke-width="1.5" d="M0,-3.0v7 M-2.5,-0.5L0,-3.0L2.5,-0.5"/>
                </g>
        </g>
        <svg viewBox="0 0 15 15" width="100%" height="30px" preserveAspectRatio="xMaxYMin meet">
         <g id="arrow_out" transform="scale(0.3 0.3)">
          <a xlink:href="region_8h__incl_org.svg" target="_base">
           <rect id="button" ry="5" rx="5" y="6" x="6" height="38" width="38"
                fill="#f2f5e9" fill-opacity="0.5" stroke="#606060" stroke-width="1.0"/>
           <path id="arrow"
             d="M 11.500037,31.436501 C 11.940474,20.09759 22.043105,11.32322 32.158766,21.979434 L 37.068811,17.246167 C 37.068811,17.246167 37.088388,32 37.088388,32 L 22.160133,31.978069 C 22.160133,31.978069 26.997745,27.140456 26.997745,27.140456 C 18.528582,18.264221 13.291696,25.230495 11.500037,31.436501 z"
             style="fill:#404040;"/>
          </a>
         </g>
        </svg>
</svg>
