<?xml version="1.0" encoding="UTF-8" standalone="no"?>
<!DOCTYPE svg PUBLIC "-//W3C//DTD SVG 1.1//EN"
 "http://www.w3.org/Graphics/SVG/1.1/DTD/svg11.dtd">
<!-- Generated by graphviz version 2.36.0 (20140111.2315)
 -->
<!-- Title: reservation_addToTotal_seq Pages: 1 -->
<svg width="652pt" height="104pt"
 viewBox="0.00 0.00 652.00 104.00" xmlns="http://www.w3.org/2000/svg" xmlns:xlink="http://www.w3.org/1999/xlink">
<g id="graph0" class="graph" transform="scale(1 1) rotate(0) translate(4 100)">
<title>reservation_addToTotal_seq</title>
<!-- Node1 -->
<g id="node1" class="node"><title>Node1</title>
<polygon fill="#bfbfbf" stroke="black" points="0,-38.5 0,-57.5 140,-57.5 140,-38.5 0,-38.5"/>
<text text-anchor="middle" x="70" y="-45.5" font-family="Helvetica,sans-Serif" font-size="10.00">reservation_addToTotal_seq</text>
</g>
<!-- Node2 -->
<g id="node2" class="node"><title>Node2</title>
<g id="a_node2"><a xlink:href="manager_8c.html#a5f407c87365596a5d4085c9d53982a91" target="_top" xlink:title="addReservation_seq">
<polygon fill="none" stroke="black" points="176,-38.5 176,-57.5 282,-57.5 282,-38.5 176,-38.5"/>
<text text-anchor="middle" x="229" y="-45.5" font-family="Helvetica,sans-Serif" font-size="10.00">addReservation_seq</text>
</a>
</g>
</g>
<!-- Node1&#45;&gt;Node2 -->
<g id="edge1" class="edge"><title>Node1&#45;&gt;Node2</title>
<path fill="none" stroke="midnightblue" d="M150.343,-48C158.896,-48 167.437,-48 175.558,-48"/>
<polygon fill="midnightblue" stroke="midnightblue" points="150.32,-44.5001 140.319,-48 150.319,-51.5001 150.32,-44.5001"/>
</g>
<!-- Node3 -->
<g id="node3" class="node"><title>Node3</title>
<g id="a_node3"><a xlink:href="manager_8h.html#a94381eb4ecbd2f329b82a81ce41a6660" target="_top" xlink:title="manager_addCar_seq">
<polygon fill="none" stroke="black" points="323,-76.5 323,-95.5 435,-95.5 435,-76.5 323,-76.5"/>
<text text-anchor="middle" x="379" y="-83.5" font-family="Helvetica,sans-Serif" font-size="10.00">manager_addCar_seq</text>
</a>
</g>
</g>
<!-- Node2&#45;&gt;Node3 -->
<g id="edge2" class="edge"><title>Node2&#45;&gt;Node3</title>
<path fill="none" stroke="midnightblue" d="M277.173,-60.1121C297.786,-65.4044 321.609,-71.5213 340.922,-76.4799"/>
<polygon fill="midnightblue" stroke="midnightblue" points="277.903,-56.6859 267.347,-57.589 276.162,-63.466 277.903,-56.6859"/>
</g>
<!-- Node7 -->
<g id="node7" class="node"><title>Node7</title>
<g id="a_node7"><a xlink:href="manager_8h.html#ab0cf9fc86c671a8ffb79a52c010d1a22" target="_top" xlink:title="manager_addRoom_seq">
<polygon fill="none" stroke="black" points="318,-38.5 318,-57.5 440,-57.5 440,-38.5 318,-38.5"/>
<text text-anchor="middle" x="379" y="-45.5" font-family="Helvetica,sans-Serif" font-size="10.00">manager_addRoom_seq</text>
</a>
</g>
</g>
<!-- Node2&#45;&gt;Node7 -->
<g id="edge7" class="edge"><title>Node2&#45;&gt;Node7</title>
<path fill="none" stroke="midnightblue" d="M292.376,-48C300.845,-48 309.523,-48 317.95,-48"/>
<polygon fill="midnightblue" stroke="midnightblue" points="292.179,-44.5001 282.179,-48 292.179,-51.5001 292.179,-44.5001"/>
</g>
<!-- Node8 -->
<g id="node8" class="node"><title>Node8</title>
<g id="a_node8"><a xlink:href="manager_8h.html#a321dab2c4cf363c833a84aeeb51f3b0c" target="_top" xlink:title="manager_addFlight_seq">
<polygon fill="none" stroke="black" points="319,-0.5 319,-19.5 439,-19.5 439,-0.5 319,-0.5"/>
<text text-anchor="middle" x="379" y="-7.5" font-family="Helvetica,sans-Serif" font-size="10.00">manager_addFlight_seq</text>
</a>
</g>
</g>
<!-- Node2&#45;&gt;Node8 -->
<g id="edge10" class="edge"><title>Node2&#45;&gt;Node8</title>
<path fill="none" stroke="midnightblue" d="M277.173,-35.8879C297.786,-30.5956 321.609,-24.4787 340.922,-19.5201"/>
<polygon fill="midnightblue" stroke="midnightblue" points="276.162,-32.534 267.347,-38.411 277.903,-39.3141 276.162,-32.534"/>
</g>
<!-- Node4 -->
<g id="node4" class="node"><title>Node4</title>
<g id="a_node4"><a xlink:href="vacation_8c.html#a50cbd725eec0f7508965d533f2dadf44" target="_top" xlink:title="initializeManager">
<polygon fill="none" stroke="black" points="476.5,-57.5 476.5,-76.5 565.5,-76.5 565.5,-57.5 476.5,-57.5"/>
<text text-anchor="middle" x="521" y="-64.5" font-family="Helvetica,sans-Serif" font-size="10.00">initializeManager</text>
</a>
</g>
</g>
<!-- Node3&#45;&gt;Node4 -->
<g id="edge3" class="edge"><title>Node3&#45;&gt;Node4</title>
<path fill="none" stroke="midnightblue" d="M445.322,-77.1349C455.818,-75.7104 466.456,-74.2667 476.285,-72.9328"/>
<polygon fill="midnightblue" stroke="midnightblue" points="444.77,-73.6776 435.332,-78.4907 445.712,-80.614 444.77,-73.6776"/>
</g>
<!-- Node6 -->
<g id="node6" class="node"><title>Node6</title>
<g id="a_node6"><a xlink:href="vacation_8c.html#a788803b8aaa6ed92eb1ca5cb47cad275" target="_top" xlink:title="checkTables">
<polygon fill="none" stroke="black" points="485,-19.5 485,-38.5 557,-38.5 557,-19.5 485,-19.5"/>
<text text-anchor="middle" x="521" y="-26.5" font-family="Helvetica,sans-Serif" font-size="10.00">checkTables</text>
</a>
</g>
</g>
<!-- Node3&#45;&gt;Node6 -->
<g id="edge5" class="edge"><title>Node3&#45;&gt;Node6</title>
<path fill="none" stroke="midnightblue" d="M423.216,-73.3403C428.918,-71.372 434.64,-69.2418 440,-67 456.691,-60.019 459.683,-55.8143 476,-48 482.754,-44.7655 490.197,-41.4569 497.011,-38.5261"/>
<polygon fill="midnightblue" stroke="midnightblue" points="422.098,-70.0237 413.706,-76.491 424.299,-76.6685 422.098,-70.0237"/>
</g>
<!-- Node5 -->
<g id="node5" class="node"><title>Node5</title>
<g id="a_node5"><a xlink:href="vacation_8c.html#a40c5c0b0d4eb7b59a91108269f69dc89" target="_top" xlink:title="MAIN">
<polygon fill="none" stroke="black" points="602,-38.5 602,-57.5 644,-57.5 644,-38.5 602,-38.5"/>
<text text-anchor="middle" x="623" y="-45.5" font-family="Helvetica,sans-Serif" font-size="10.00">MAIN</text>
</a>
</g>
</g>
<!-- Node4&#45;&gt;Node5 -->
<g id="edge4" class="edge"><title>Node4&#45;&gt;Node5</title>
<path fill="none" stroke="midnightblue" d="M575.395,-56.855C584.821,-55.0641 594.085,-53.3039 601.839,-51.8306"/>
<polygon fill="midnightblue" stroke="midnightblue" points="574.741,-53.4164 565.571,-58.7216 576.048,-60.2934 574.741,-53.4164"/>
</g>
<!-- Node6&#45;&gt;Node5 -->
<g id="edge6" class="edge"><title>Node6&#45;&gt;Node5</title>
<path fill="none" stroke="midnightblue" d="M567.286,-37.6044C579.407,-39.9073 591.9,-42.281 601.883,-44.1777"/>
<polygon fill="midnightblue" stroke="midnightblue" points="567.734,-34.1269 557.256,-35.6987 566.427,-41.0039 567.734,-34.1269"/>
</g>
<!-- Node7&#45;&gt;Node4 -->
<g id="edge8" class="edge"><title>Node7&#45;&gt;Node4</title>
<path fill="none" stroke="midnightblue" d="M450.215,-57.5292C459.124,-58.7382 468.028,-59.9467 476.351,-61.0762"/>
<polygon fill="midnightblue" stroke="midnightblue" points="450.565,-54.0447 440.185,-56.168 449.624,-60.9811 450.565,-54.0447"/>
</g>
<!-- Node7&#45;&gt;Node6 -->
<g id="edge9" class="edge"><title>Node7&#45;&gt;Node6</title>
<path fill="none" stroke="midnightblue" d="M450.264,-38.4642C462.297,-36.8311 474.319,-35.1995 484.909,-33.7623"/>
<polygon fill="midnightblue" stroke="midnightblue" points="449.624,-35.0189 440.185,-39.832 450.565,-41.9553 449.624,-35.0189"/>
</g>
<!-- Node8&#45;&gt;Node4 -->
<g id="edge11" class="edge"><title>Node8&#45;&gt;Node4</title>
<path fill="none" stroke="midnightblue" d="M423.216,-22.6597C428.918,-24.628 434.64,-26.7582 440,-29 456.691,-35.981 459.683,-40.1857 476,-48 482.754,-51.2345 490.197,-54.5431 497.011,-57.4739"/>
<polygon fill="midnightblue" stroke="midnightblue" points="424.299,-19.3315 413.706,-19.509 422.098,-25.9763 424.299,-19.3315"/>
</g>
<!-- Node8&#45;&gt;Node6 -->
<g id="edge12" class="edge"><title>Node8&#45;&gt;Node6</title>
<path fill="none" stroke="midnightblue" d="M449.615,-19.4477C461.851,-21.1084 474.103,-22.7712 484.875,-24.2331"/>
<polygon fill="midnightblue" stroke="midnightblue" points="449.752,-15.9344 439.373,-18.0577 448.811,-22.8708 449.752,-15.9344"/>
</g>
</g>
</svg>
