<?xml version="1.0" encoding="UTF-8" standalone="no"?>
<!DOCTYPE svg PUBLIC "-//W3C//DTD SVG 1.1//EN"
 "http://www.w3.org/Graphics/SVG/1.1/DTD/svg11.dtd">
<!-- Generated by graphviz version 2.36.0 (20140111.2315)
 -->
<!-- Title: rstm/rstm&#45;dev/stamp&#45;0.9.10/vacation/reservation.h Pages: 1 -->
<svg width="563pt" height="176pt"
 viewBox="0.00 0.00 563.00 176.00" xmlns="http://www.w3.org/2000/svg" xmlns:xlink="http://www.w3.org/1999/xlink">
<g id="graph0" class="graph" transform="scale(1 1) rotate(0) translate(4 172)">
<title>rstm/rstm&#45;dev/stamp&#45;0.9.10/vacation/reservation.h</title>
<!-- Node1 -->
<g id="node1" class="node"><title>Node1</title>
<polygon fill="#bfbfbf" stroke="black" points="221,-137 221,-167 367,-167 367,-137 221,-137"/>
<text text-anchor="start" x="229" y="-155" font-family="Helvetica,sans-Serif" font-size="10.00">rstm/rstm&#45;dev/stamp</text>
<text text-anchor="middle" x="294" y="-144" font-family="Helvetica,sans-Serif" font-size="10.00">&#45;0.9.10/vacation/reservation.h</text>
</g>
<!-- Node2 -->
<g id="node2" class="node"><title>Node2</title>
<g id="a_node2"><a xlink:href="client_8c.html" target="_top" xlink:title="rstm/rstm&#45;dev/stamp\l&#45;0.9.10/vacation/client.c">
<polygon fill="none" stroke="black" points="-0.5,-69 -0.5,-99 120.5,-99 120.5,-69 -0.5,-69"/>
<text text-anchor="start" x="7.5" y="-87" font-family="Helvetica,sans-Serif" font-size="10.00">rstm/rstm&#45;dev/stamp</text>
<text text-anchor="middle" x="60" y="-76" font-family="Helvetica,sans-Serif" font-size="10.00">&#45;0.9.10/vacation/client.c</text>
</a>
</g>
</g>
<!-- Node1&#45;&gt;Node2 -->
<g id="edge1" class="edge"><title>Node1&#45;&gt;Node2</title>
<path fill="none" stroke="midnightblue" d="M234.048,-134.091C195.559,-123.235 146.165,-109.303 109.835,-99.0561"/>
<polygon fill="midnightblue" stroke="midnightblue" points="233.514,-137.576 244.088,-136.922 235.414,-130.839 233.514,-137.576"/>
</g>
<!-- Node3 -->
<g id="node3" class="node"><title>Node3</title>
<g id="a_node3"><a xlink:href="customer_8h.html" target="_top" xlink:title="rstm/rstm&#45;dev/stamp\l&#45;0.9.10/vacation/customer.h">
<polygon fill="none" stroke="black" points="177,-69 177,-99 315,-99 315,-69 177,-69"/>
<text text-anchor="start" x="185" y="-87" font-family="Helvetica,sans-Serif" font-size="10.00">rstm/rstm&#45;dev/stamp</text>
<text text-anchor="middle" x="246" y="-76" font-family="Helvetica,sans-Serif" font-size="10.00">&#45;0.9.10/vacation/customer.h</text>
</a>
</g>
</g>
<!-- Node1&#45;&gt;Node3 -->
<g id="edge2" class="edge"><title>Node1&#45;&gt;Node3</title>
<path fill="none" stroke="midnightblue" d="M277.501,-128.314C270.501,-118.689 262.555,-107.763 256.395,-99.2931"/>
<polygon fill="midnightblue" stroke="midnightblue" points="274.872,-130.65 283.585,-136.679 280.534,-126.533 274.872,-130.65"/>
</g>
<!-- Node4 -->
<g id="node4" class="node"><title>Node4</title>
<g id="a_node4"><a xlink:href="customer_8c.html" target="_top" xlink:title="rstm/rstm&#45;dev/stamp\l&#45;0.9.10/vacation/customer.c">
<polygon fill="none" stroke="black" points="51,-1 51,-31 189,-31 189,-1 51,-1"/>
<text text-anchor="start" x="59" y="-19" font-family="Helvetica,sans-Serif" font-size="10.00">rstm/rstm&#45;dev/stamp</text>
<text text-anchor="middle" x="120" y="-8" font-family="Helvetica,sans-Serif" font-size="10.00">&#45;0.9.10/vacation/customer.c</text>
</a>
</g>
</g>
<!-- Node1&#45;&gt;Node4 -->
<g id="edge6" class="edge"><title>Node1&#45;&gt;Node4</title>
<path fill="none" stroke="midnightblue" d="M228.072,-133.616C207.21,-125.808 185.145,-114.902 168,-100 146.14,-80.999 131.821,-49.4836 124.891,-31.2435"/>
<polygon fill="midnightblue" stroke="midnightblue" points="226.956,-136.934 237.551,-136.989 229.303,-130.339 226.956,-136.934"/>
</g>
<!-- Node5 -->
<g id="node5" class="node"><title>Node5</title>
<g id="a_node5"><a xlink:href="manager_8c.html" target="_top" xlink:title="rstm/rstm&#45;dev/stamp\l&#45;0.9.10/vacation/manager.c">
<polygon fill="none" stroke="black" points="207.5,-1 207.5,-31 342.5,-31 342.5,-1 207.5,-1"/>
<text text-anchor="start" x="215.5" y="-19" font-family="Helvetica,sans-Serif" font-size="10.00">rstm/rstm&#45;dev/stamp</text>
<text text-anchor="middle" x="275" y="-8" font-family="Helvetica,sans-Serif" font-size="10.00">&#45;0.9.10/vacation/manager.c</text>
</a>
</g>
</g>
<!-- Node1&#45;&gt;Node5 -->
<g id="edge7" class="edge"><title>Node1&#45;&gt;Node5</title>
<path fill="none" stroke="midnightblue" d="M311.438,-128.2C322.041,-111.431 332.11,-88.1479 324,-68 318.039,-53.1925 305.497,-40.2723 294.594,-31.1411"/>
<polygon fill="midnightblue" stroke="midnightblue" points="308.331,-126.547 305.605,-136.785 314.12,-130.481 308.331,-126.547"/>
</g>
<!-- Node6 -->
<g id="node6" class="node"><title>Node6</title>
<g id="a_node6"><a xlink:href="vacation_8c.html" target="_top" xlink:title="rstm/rstm&#45;dev/stamp\l&#45;0.9.10/vacation/vacation.c">
<polygon fill="none" stroke="black" points="361,-1 361,-31 495,-31 495,-1 361,-1"/>
<text text-anchor="start" x="369" y="-19" font-family="Helvetica,sans-Serif" font-size="10.00">rstm/rstm&#45;dev/stamp</text>
<text text-anchor="middle" x="428" y="-8" font-family="Helvetica,sans-Serif" font-size="10.00">&#45;0.9.10/vacation/vacation.c</text>
</a>
</g>
</g>
<!-- Node1&#45;&gt;Node6 -->
<g id="edge9" class="edge"><title>Node1&#45;&gt;Node6</title>
<path fill="none" stroke="midnightblue" d="M315.577,-129.423C343.19,-101.81 390.257,-54.7433 413.763,-31.2372"/>
<polygon fill="midnightblue" stroke="midnightblue" points="312.937,-127.114 308.34,-136.66 317.886,-132.063 312.937,-127.114"/>
</g>
<!-- Node7 -->
<g id="node7" class="node"><title>Node7</title>
<g id="a_node7"><a xlink:href="reservation_8c.html" target="_top" xlink:title="rstm/rstm&#45;dev/stamp\l&#45;0.9.10/vacation/reservation.c">
<polygon fill="none" stroke="black" points="409,-69 409,-99 555,-99 555,-69 409,-69"/>
<text text-anchor="start" x="417" y="-87" font-family="Helvetica,sans-Serif" font-size="10.00">rstm/rstm&#45;dev/stamp</text>
<text text-anchor="middle" x="482" y="-76" font-family="Helvetica,sans-Serif" font-size="10.00">&#45;0.9.10/vacation/reservation.c</text>
</a>
</g>
</g>
<!-- Node1&#45;&gt;Node7 -->
<g id="edge8" class="edge"><title>Node1&#45;&gt;Node7</title>
<path fill="none" stroke="midnightblue" d="M343.985,-133.452C374.668,-122.68 413.431,-109.072 442.059,-99.0218"/>
<polygon fill="midnightblue" stroke="midnightblue" points="342.607,-130.226 334.331,-136.841 344.926,-136.831 342.607,-130.226"/>
</g>
<!-- Node3&#45;&gt;Node4 -->
<g id="edge3" class="edge"><title>Node3&#45;&gt;Node4</title>
<path fill="none" stroke="midnightblue" d="M210.103,-64.1968C190.026,-53.6802 165.411,-40.7868 146.985,-31.1352"/>
<polygon fill="midnightblue" stroke="midnightblue" points="208.487,-67.3016 218.97,-68.8413 211.736,-61.1008 208.487,-67.3016"/>
</g>
<!-- Node3&#45;&gt;Node5 -->
<g id="edge4" class="edge"><title>Node3&#45;&gt;Node5</title>
<path fill="none" stroke="midnightblue" d="M256.358,-59.4263C260.49,-50.0226 265.112,-39.5042 268.72,-31.2931"/>
<polygon fill="midnightblue" stroke="midnightblue" points="253.111,-58.1158 252.293,-68.679 259.52,-60.9318 253.111,-58.1158"/>
</g>
<!-- Node3&#45;&gt;Node6 -->
<g id="edge5" class="edge"><title>Node3&#45;&gt;Node6</title>
<path fill="none" stroke="midnightblue" d="M294.776,-65.3119C324.418,-54.5627 361.739,-41.0287 389.334,-31.0218"/>
<polygon fill="midnightblue" stroke="midnightblue" points="293.251,-62.1418 285.044,-68.8413 295.638,-68.7225 293.251,-62.1418"/>
</g>
</g>
</svg>
