<?xml version="1.0" encoding="UTF-8" standalone="no"?>
<!DOCTYPE svg PUBLIC "-//W3C//DTD SVG 1.1//EN"
 "http://www.w3.org/Graphics/SVG/1.1/DTD/svg11.dtd">
<!-- Generated by graphviz version 2.36.0 (20140111.2315)
 -->
<!-- Title: segments_create Pages: 1 -->
<!--zoomable 202 -->
<svg id="main" version="1.1" xmlns="http://www.w3.org/2000/svg" xmlns:xlink="http://www.w3.org/1999/xlink" xml:space="preserve" onload="init(evt)">
<style type="text/css"><![CDATA[
.edge:hover path { stroke: red; }
.edge:hover polygon { stroke: red; fill: red; }
]]></style>
<script type="text/javascript"><![CDATA[
var edges = document.getElementsByTagName('g');
if (edges && edges.length) {
  for (var i=0;i<edges.length;i++) {
    if (edges[i].id.substr(0,4)=='edge') {
      edges[i].setAttribute('class','edge');
    }
  }
}
]]></script>
        <defs>
                <circle id="rim" cx="0" cy="0" r="7"/>
                <circle id="rim2" cx="0" cy="0" r="3.5"/>
                <g id="zoomPlus">
                        <use xlink:href="#rim" fill="#404040">
                                <set attributeName="fill" to="#808080" begin="zoomplus.mouseover" end="zoomplus.mouseout"/>
                        </use>
                        <path d="M-4,0h8M0,-4v8" fill="none" stroke="white" stroke-width="1.5" pointer-events="none"/>
                </g>
                <g id="zoomMin">
                        <use xlink:href="#rim" fill="#404040">
                                <set attributeName="fill" to="#808080" begin="zoomminus.mouseover" end="zoomminus.mouseout"/>
                        </use>
                        <path d="M-4,0h8" fill="none" stroke="white" stroke-width="1.5" pointer-events="none"/>
                </g>
                <g id="dirArrow">
                        <path fill="none" stroke="white" stroke-width="1.5" d="M0,-3.0v7 M-2.5,-0.5L0,-3.0L2.5,-0.5"/>
                </g>
               <g id="resetDef">
                       <use xlink:href="#rim2" fill="#404040">
                               <set attributeName="fill" to="#808080" begin="reset.mouseover" end="reset.mouseout"/>
                       </use>
               </g>
        </defs>

<script type="text/javascript">
var viewWidth = 522;
var viewHeight = 202;
var sectionId = 'dynsection-3';
</script>
<script xlink:href="svgpan.js"/>
<svg id="graph" class="graph">
<g id="viewport">
<title>segments_create</title>
<!-- Node1 -->
<g id="node1" class="node"><title>Node1</title>
<polygon fill="#bfbfbf" stroke="black" points="0,-87.5 0,-106.5 92,-106.5 92,-87.5 0,-87.5"/>
<text text-anchor="middle" x="46" y="-94.5" font-family="Helvetica,sans-Serif" font-size="10.00">segments_create</text>
</g>
<!-- Node2 -->
<g id="node2" class="node"><title>Node2</title>
<g id="a_node2"><a xlink:href="random_8c.html#a733bbcfd7d850fa4596d834489b83178" target="_top" xlink:title="random_generate">
<polygon fill="none" stroke="black" points="143,-174.5 143,-193.5 235,-193.5 235,-174.5 143,-174.5"/>
<text text-anchor="middle" x="189" y="-181.5" font-family="Helvetica,sans-Serif" font-size="10.00">random_generate</text>
</a>
</g>
</g>
<!-- Node1&#45;&gt;Node2 -->
<g id="edge1" class="edge"><title>Node1&#45;&gt;Node2</title>
<path fill="none" stroke="midnightblue" d="M56.0505,-106.726C70.1292,-121.326 98.7144,-148.905 128,-165 131.93,-167.16 136.143,-169.116 140.446,-170.878"/>
<polygon fill="midnightblue" stroke="midnightblue" points="139.345,-174.202 149.937,-174.428 141.797,-167.646 139.345,-174.202"/>
</g>
<!-- Node5 -->
<g id="node5" class="node"><title>Node5</title>
<g id="a_node5"><a xlink:href="bitmap_8c.html#a2383729dfcc0f66dc0e7e150cf372fe7" target="_top" xlink:title="bitmap_set">
<polygon fill="none" stroke="black" points="156.5,-136.5 156.5,-155.5 221.5,-155.5 221.5,-136.5 156.5,-136.5"/>
<text text-anchor="middle" x="189" y="-143.5" font-family="Helvetica,sans-Serif" font-size="10.00">bitmap_set</text>
</a>
</g>
</g>
<!-- Node1&#45;&gt;Node5 -->
<g id="edge4" class="edge"><title>Node1&#45;&gt;Node5</title>
<path fill="none" stroke="midnightblue" d="M73.2134,-106.55C89.0467,-112.278 109.648,-119.657 128,-126 134.921,-128.392 142.307,-130.895 149.447,-133.289"/>
<polygon fill="midnightblue" stroke="midnightblue" points="148.371,-136.619 158.964,-136.465 150.586,-129.979 148.371,-136.619"/>
</g>
<!-- Node6 -->
<g id="node6" class="node"><title>Node6</title>
<g id="a_node6"><a xlink:href="namespaceanonymous__namespace_02libitm-5_813_0014_8cpp_03.html#a8b7be7cf3afef27c0623b844ce9116d8" target="_top" xlink:title="anonymous_namespace\l\{libitm&#45;5::13,14::cpp\}\l::memcpy">
<polygon fill="none" stroke="black" points="128,-76.5 128,-117.5 250,-117.5 250,-76.5 128,-76.5"/>
<text text-anchor="start" x="136" y="-105.5" font-family="Helvetica,sans-Serif" font-size="10.00">anonymous_namespace</text>
<text text-anchor="start" x="136" y="-94.5" font-family="Helvetica,sans-Serif" font-size="10.00">{libitm&#45;5::13,14::cpp}</text>
<text text-anchor="middle" x="189" y="-83.5" font-family="Helvetica,sans-Serif" font-size="10.00">::memcpy</text>
</a>
</g>
</g>
<!-- Node1&#45;&gt;Node6 -->
<g id="edge5" class="edge"><title>Node1&#45;&gt;Node6</title>
<path fill="none" stroke="midnightblue" d="M92.001,-97C100.227,-97 108.988,-97 117.744,-97"/>
<polygon fill="midnightblue" stroke="midnightblue" points="117.988,-100.5 127.988,-97 117.988,-93.5001 117.988,-100.5"/>
</g>
<!-- Node10 -->
<g id="node10" class="node"><title>Node10</title>
<g id="a_node10"><a xlink:href="vector_8c.html#a644473da71660c373cbfb134d83b37bf" target="_top" xlink:title="vector_pushBack">
<polygon fill="none" stroke="black" points="143,-38.5 143,-57.5 235,-57.5 235,-38.5 143,-38.5"/>
<text text-anchor="middle" x="189" y="-45.5" font-family="Helvetica,sans-Serif" font-size="10.00">vector_pushBack</text>
</a>
</g>
</g>
<!-- Node1&#45;&gt;Node10 -->
<g id="edge9" class="edge"><title>Node1&#45;&gt;Node10</title>
<path fill="none" stroke="midnightblue" d="M71.705,-87.4994C87.6921,-81.4384 108.994,-73.5247 128,-67 134.104,-64.9046 140.585,-62.7647 146.944,-60.7124"/>
<polygon fill="midnightblue" stroke="midnightblue" points="148.303,-63.9528 156.766,-57.5785 146.175,-57.2841 148.303,-63.9528"/>
</g>
<!-- Node11 -->
<g id="node11" class="node"><title>Node11</title>
<g id="a_node11"><a xlink:href="bitmap_8c.html#a9ea3dd55ec9b66d62c7ca619fd4b6eb6" target="_top" xlink:title="bitmap_isSet">
<polygon fill="none" stroke="black" points="152,-0.5 152,-19.5 226,-19.5 226,-0.5 152,-0.5"/>
<text text-anchor="middle" x="189" y="-7.5" font-family="Helvetica,sans-Serif" font-size="10.00">bitmap_isSet</text>
</a>
</g>
</g>
<!-- Node1&#45;&gt;Node11 -->
<g id="edge10" class="edge"><title>Node1&#45;&gt;Node11</title>
<path fill="none" stroke="midnightblue" d="M56.0505,-87.2737C70.1292,-72.6742 98.7144,-45.0949 128,-29 132.493,-26.5307 137.355,-24.3283 142.299,-22.3779"/>
<polygon fill="midnightblue" stroke="midnightblue" points="143.617,-25.623 151.834,-18.9338 141.239,-19.0394 143.617,-25.623"/>
</g>
<!-- Node3 -->
<g id="node3" class="node"><title>Node3</title>
<g id="a_node3"><a xlink:href="mt19937ar_8c.html#a8056efdcc7cbf6ff8f46ce36509c506e" target="_top" xlink:title="genrand_int32">
<polygon fill="none" stroke="black" points="308.5,-174.5 308.5,-193.5 385.5,-193.5 385.5,-174.5 308.5,-174.5"/>
<text text-anchor="middle" x="347" y="-181.5" font-family="Helvetica,sans-Serif" font-size="10.00">genrand_int32</text>
</a>
</g>
</g>
<!-- Node2&#45;&gt;Node3 -->
<g id="edge2" class="edge"><title>Node2&#45;&gt;Node3</title>
<path fill="none" stroke="midnightblue" d="M235.122,-184C254.892,-184 278.111,-184 298.18,-184"/>
<polygon fill="midnightblue" stroke="midnightblue" points="298.352,-187.5 308.352,-184 298.352,-180.5 298.352,-187.5"/>
</g>
<!-- Node4 -->
<g id="node4" class="node"><title>Node4</title>
<g id="a_node4"><a xlink:href="mt19937ar_8c.html#aba3fcf9d2e0c0d1db5b8b63af90eb51c" target="_top" xlink:title="init_genrand">
<polygon fill="none" stroke="black" points="444.5,-174.5 444.5,-193.5 513.5,-193.5 513.5,-174.5 444.5,-174.5"/>
<text text-anchor="middle" x="479" y="-181.5" font-family="Helvetica,sans-Serif" font-size="10.00">init_genrand</text>
</a>
</g>
</g>
<!-- Node3&#45;&gt;Node4 -->
<g id="edge3" class="edge"><title>Node3&#45;&gt;Node4</title>
<path fill="none" stroke="midnightblue" d="M385.601,-184C400.857,-184 418.577,-184 434.394,-184"/>
<polygon fill="midnightblue" stroke="midnightblue" points="434.469,-187.5 444.469,-184 434.469,-180.5 434.469,-187.5"/>
</g>
<!-- Node7 -->
<g id="node7" class="node"><title>Node7</title>
<g id="a_node7"><a xlink:href="namespaceanonymous__namespace_02oreceager_8cpp_03.html#a7a88c7a7453bbfaca53eeac03b80a5d6" target="_top" xlink:title="anonymous_namespace\l\{oreceager::cpp\}::read">
<polygon fill="none" stroke="black" points="286,-125 286,-155 408,-155 408,-125 286,-125"/>
<text text-anchor="start" x="294" y="-143" font-family="Helvetica,sans-Serif" font-size="10.00">anonymous_namespace</text>
<text text-anchor="middle" x="347" y="-132" font-family="Helvetica,sans-Serif" font-size="10.00">{oreceager::cpp}::read</text>
</a>
</g>
</g>
<!-- Node6&#45;&gt;Node7 -->
<g id="edge6" class="edge"><title>Node6&#45;&gt;Node7</title>
<path fill="none" stroke="midnightblue" d="M250.314,-113.625C260.58,-116.455 271.277,-119.403 281.643,-122.26"/>
<polygon fill="midnightblue" stroke="midnightblue" points="280.884,-125.682 291.454,-124.965 282.744,-118.933 280.884,-125.682"/>
</g>
<!-- Node8 -->
<g id="node8" class="node"><title>Node8</title>
<g id="a_node8"><a xlink:href="namespaceitm2stm.html#a334b9615cac957b9ce7a4743beaaaf53" target="_top" xlink:title="itm2stm::add_bytes">
<polygon fill="none" stroke="black" points="295.5,-86.5 295.5,-105.5 398.5,-105.5 398.5,-86.5 295.5,-86.5"/>
<text text-anchor="middle" x="347" y="-93.5" font-family="Helvetica,sans-Serif" font-size="10.00">itm2stm::add_bytes</text>
</a>
</g>
</g>
<!-- Node6&#45;&gt;Node8 -->
<g id="edge7" class="edge"><title>Node6&#45;&gt;Node8</title>
<path fill="none" stroke="midnightblue" d="M250.314,-96.6134C261.736,-96.5402 273.692,-96.4635 285.131,-96.3902"/>
<polygon fill="midnightblue" stroke="midnightblue" points="285.483,-99.8881 295.461,-96.324 285.438,-92.8882 285.483,-99.8881"/>
</g>
<!-- Node9 -->
<g id="node9" class="node"><title>Node9</title>
<g id="a_node9"><a xlink:href="namespaceitm2stm.html#aa9908b113027ae21130750939980ee0b" target="_top" xlink:title="itm2stm::offset_of">
<polygon fill="none" stroke="black" points="299,-48.5 299,-67.5 395,-67.5 395,-48.5 299,-48.5"/>
<text text-anchor="middle" x="347" y="-55.5" font-family="Helvetica,sans-Serif" font-size="10.00">itm2stm::offset_of</text>
</a>
</g>
</g>
<!-- Node6&#45;&gt;Node9 -->
<g id="edge8" class="edge"><title>Node6&#45;&gt;Node9</title>
<path fill="none" stroke="midnightblue" d="M250.314,-81.9216C266.058,-77.9856 282.816,-73.796 297.837,-70.0409"/>
<polygon fill="midnightblue" stroke="midnightblue" points="299.071,-73.34 307.924,-67.519 297.374,-66.549 299.071,-73.34"/>
</g>
</g>
</svg>
        <g id="navigator" transform="translate(0 0)" fill="#404254">
                <rect fill="#f2f5e9" fill-opacity="0.5" stroke="#606060" stroke-width=".5" x="0" y="0" width="60" height="60"/>
                <use id="zoomplus" xlink:href="#zoomPlus" x="17" y="9" onmousedown="handleZoom(evt,'in')"/>
                <use id="zoomminus" xlink:href="#zoomMin" x="42" y="9" onmousedown="handleZoom(evt,'out')"/>
                <use id="reset" xlink:href="#resetDef" x="30" y="36" onmousedown="handleReset()"/>
                <g id="arrowUp" xlink:href="#dirArrow" transform="translate(30 24)" onmousedown="handlePan(0,-1)">
                  <use xlink:href="#rim" fill="#404040">
                        <set attributeName="fill" to="#808080" begin="arrowUp.mouseover" end="arrowUp.mouseout"/>
                  </use>
                  <path fill="none" stroke="white" stroke-width="1.5" d="M0,-3.0v7 M-2.5,-0.5L0,-3.0L2.5,-0.5"/>
                </g>
                <g id="arrowRight" xlink:href="#dirArrow" transform="rotate(90) translate(36 -43)" onmousedown="handlePan(1,0)">
                  <use xlink:href="#rim" fill="#404040">
                        <set attributeName="fill" to="#808080" begin="arrowRight.mouseover" end="arrowRight.mouseout"/>
                  </use>
                  <path fill="none" stroke="white" stroke-width="1.5" d="M0,-3.0v7 M-2.5,-0.5L0,-3.0L2.5,-0.5"/>
                </g>
                <g id="arrowDown" xlink:href="#dirArrow" transform="rotate(180) translate(-30 -48)" onmousedown="handlePan(0,1)">
                  <use xlink:href="#rim" fill="#404040">
                        <set attributeName="fill" to="#808080" begin="arrowDown.mouseover" end="arrowDown.mouseout"/>
                  </use>
                  <path fill="none" stroke="white" stroke-width="1.5" d="M0,-3.0v7 M-2.5,-0.5L0,-3.0L2.5,-0.5"/>
                </g>
                <g id="arrowLeft" xlink:href="#dirArrow" transform="rotate(270) translate(-36 17)" onmousedown="handlePan(-1,0)">
                  <use xlink:href="#rim" fill="#404040">
                        <set attributeName="fill" to="#808080" begin="arrowLeft.mouseover" end="arrowLeft.mouseout"/>
                  </use>
                  <path fill="none" stroke="white" stroke-width="1.5" d="M0,-3.0v7 M-2.5,-0.5L0,-3.0L2.5,-0.5"/>
                </g>
        </g>
        <svg viewBox="0 0 15 15" width="100%" height="30px" preserveAspectRatio="xMaxYMin meet">
         <g id="arrow_out" transform="scale(0.3 0.3)">
          <a xlink:href="segments_8c_a447ba041737a6059920bc67b6006e33f_cgraph_org.svg" target="_base">
           <rect id="button" ry="5" rx="5" y="6" x="6" height="38" width="38"
                fill="#f2f5e9" fill-opacity="0.5" stroke="#606060" stroke-width="1.0"/>
           <path id="arrow"
             d="M 11.500037,31.436501 C 11.940474,20.09759 22.043105,11.32322 32.158766,21.979434 L 37.068811,17.246167 C 37.068811,17.246167 37.088388,32 37.088388,32 L 22.160133,31.978069 C 22.160133,31.978069 26.997745,27.140456 26.997745,27.140456 C 18.528582,18.264221 13.291696,25.230495 11.500037,31.436501 z"
             style="fill:#404040;"/>
          </a>
         </g>
        </svg>
</svg>
