<?xml version="1.0" encoding="UTF-8" standalone="no"?>
<!DOCTYPE svg PUBLIC "-//W3C//DTD SVG 1.1//EN"
 "http://www.w3.org/Graphics/SVG/1.1/DTD/svg11.dtd">
<!-- Generated by graphviz version 2.36.0 (20140111.2315)
 -->
<!-- Title: rstm/rstm&#45;dev/stamp&#45;0.9.10/genome/sequencer.h Pages: 1 -->
<svg width="296pt" height="108pt"
 viewBox="0.00 0.00 296.00 108.00" xmlns="http://www.w3.org/2000/svg" xmlns:xlink="http://www.w3.org/1999/xlink">
<g id="graph0" class="graph" transform="scale(1 1) rotate(0) translate(4 104)">
<title>rstm/rstm&#45;dev/stamp&#45;0.9.10/genome/sequencer.h</title>
<!-- Node1 -->
<g id="node1" class="node"><title>Node1</title>
<polygon fill="#bfbfbf" stroke="black" points="71,-69 71,-99 211,-99 211,-69 71,-69"/>
<text text-anchor="start" x="79" y="-87" font-family="Helvetica,sans-Serif" font-size="10.00">rstm/rstm&#45;dev/stamp</text>
<text text-anchor="middle" x="141" y="-76" font-family="Helvetica,sans-Serif" font-size="10.00">&#45;0.9.10/genome/sequencer.h</text>
</g>
<!-- Node2 -->
<g id="node2" class="node"><title>Node2</title>
<g id="a_node2"><a xlink:href="genome_8c.html" target="_top" xlink:title="rstm/rstm&#45;dev/stamp\l&#45;0.9.10/genome/genome.c">
<polygon fill="none" stroke="black" points="0,-1 0,-31 130,-31 130,-1 0,-1"/>
<text text-anchor="start" x="8" y="-19" font-family="Helvetica,sans-Serif" font-size="10.00">rstm/rstm&#45;dev/stamp</text>
<text text-anchor="middle" x="65" y="-8" font-family="Helvetica,sans-Serif" font-size="10.00">&#45;0.9.10/genome/genome.c</text>
</a>
</g>
</g>
<!-- Node1&#45;&gt;Node2 -->
<g id="edge1" class="edge"><title>Node1&#45;&gt;Node2</title>
<path fill="none" stroke="midnightblue" d="M116.839,-62.0184C105.205,-51.9145 91.565,-40.0696 81.1976,-31.0663"/>
<polygon fill="midnightblue" stroke="midnightblue" points="114.664,-64.7647 124.509,-68.679 119.254,-59.4795 114.664,-64.7647"/>
</g>
<!-- Node3 -->
<g id="node3" class="node"><title>Node3</title>
<g id="a_node3"><a xlink:href="sequencer_8c.html" target="_top" xlink:title="rstm/rstm&#45;dev/stamp\l&#45;0.9.10/genome/sequencer.c">
<polygon fill="none" stroke="black" points="148,-1 148,-31 288,-31 288,-1 148,-1"/>
<text text-anchor="start" x="156" y="-19" font-family="Helvetica,sans-Serif" font-size="10.00">rstm/rstm&#45;dev/stamp</text>
<text text-anchor="middle" x="218" y="-8" font-family="Helvetica,sans-Serif" font-size="10.00">&#45;0.9.10/genome/sequencer.c</text>
</a>
</g>
</g>
<!-- Node1&#45;&gt;Node3 -->
<g id="edge2" class="edge"><title>Node1&#45;&gt;Node3</title>
<path fill="none" stroke="midnightblue" d="M165.478,-62.0184C177.266,-51.9145 191.085,-40.0696 201.589,-31.0663"/>
<polygon fill="midnightblue" stroke="midnightblue" points="163.023,-59.5136 157.708,-68.679 167.578,-64.8284 163.023,-59.5136"/>
</g>
</g>
</svg>
