<?xml version="1.0" encoding="UTF-8" standalone="no"?>
<!DOCTYPE svg PUBLIC "-//W3C//DTD SVG 1.1//EN"
 "http://www.w3.org/Graphics/SVG/1.1/DTD/svg11.dtd">
<!-- Generated by graphviz version 2.36.0 (20140111.2315)
 -->
<!-- Title: rstm/rstm&#45;dev/libstm/algs/serial.cpp Pages: 1 -->
<svg width="1124pt" height="544pt"
 viewBox="0.00 0.00 1124.00 544.00" xmlns="http://www.w3.org/2000/svg" xmlns:xlink="http://www.w3.org/1999/xlink">
<g id="graph0" class="graph" transform="scale(1 1) rotate(0) translate(4 540)">
<title>rstm/rstm&#45;dev/libstm/algs/serial.cpp</title>
<!-- Node1 -->
<g id="node1" class="node"><title>Node1</title>
<polygon fill="#bfbfbf" stroke="black" points="815.5,-505 815.5,-535 922.5,-535 922.5,-505 815.5,-505"/>
<text text-anchor="start" x="823.5" y="-523" font-family="Helvetica,sans-Serif" font-size="10.00">rstm/rstm&#45;dev/libstm</text>
<text text-anchor="middle" x="869" y="-512" font-family="Helvetica,sans-Serif" font-size="10.00">/algs/serial.cpp</text>
</g>
<!-- Node2 -->
<g id="node2" class="node"><title>Node2</title>
<g id="a_node2"><a xlink:href="profiling_8hpp.html" target="_top" xlink:title="../profiling.hpp">
<polygon fill="none" stroke="black" points="674,-392.5 674,-411.5 752,-411.5 752,-392.5 674,-392.5"/>
<text text-anchor="middle" x="713" y="-399.5" font-family="Helvetica,sans-Serif" font-size="10.00">../profiling.hpp</text>
</a>
</g>
</g>
<!-- Node1&#45;&gt;Node2 -->
<g id="edge1" class="edge"><title>Node1&#45;&gt;Node2</title>
<path fill="none" stroke="midnightblue" d="M849.871,-504.776C820.103,-482.641 762.984,-440.167 732.806,-417.728"/>
<polygon fill="midnightblue" stroke="midnightblue" points="734.823,-414.865 724.709,-411.707 730.646,-420.483 734.823,-414.865"/>
</g>
<!-- Node29 -->
<g id="node29" class="node"><title>Node29</title>
<g id="a_node29"><a xlink:href="algs_8hpp.html" target="_top" xlink:title="algs.hpp">
<polygon fill="none" stroke="black" points="873.5,-448.5 873.5,-467.5 926.5,-467.5 926.5,-448.5 873.5,-448.5"/>
<text text-anchor="middle" x="900" y="-455.5" font-family="Helvetica,sans-Serif" font-size="10.00">algs.hpp</text>
</a>
</g>
</g>
<!-- Node1&#45;&gt;Node29 -->
<g id="edge54" class="edge"><title>Node1&#45;&gt;Node29</title>
<path fill="none" stroke="midnightblue" d="M876.347,-504.781C880.665,-496.422 886.165,-485.777 890.774,-476.856"/>
<polygon fill="midnightblue" stroke="midnightblue" points="894.008,-478.221 895.489,-467.731 887.789,-475.008 894.008,-478.221"/>
</g>
<!-- Node3 -->
<g id="node3" class="node"><title>Node3</title>
<polygon fill="none" stroke="#bfbfbf" points="234.5,-56.5 234.5,-75.5 279.5,-75.5 279.5,-56.5 234.5,-56.5"/>
<text text-anchor="middle" x="257" y="-63.5" font-family="Helvetica,sans-Serif" font-size="10.00">cstdlib</text>
</g>
<!-- Node2&#45;&gt;Node3 -->
<g id="edge2" class="edge"><title>Node2&#45;&gt;Node3</title>
<path fill="none" stroke="midnightblue" d="M673.77,-398.042C539.706,-387.415 108,-348.715 108,-291 108,-291 108,-291 108,-233 108,-160.273 188.183,-104.917 230.908,-80.5832"/>
<polygon fill="midnightblue" stroke="midnightblue" points="232.854,-83.506 239.908,-75.6003 229.464,-77.382 232.854,-83.506"/>
</g>
<!-- Node4 -->
<g id="node4" class="node"><title>Node4</title>
<polygon fill="none" stroke="#bfbfbf" points="647.5,-0.5 647.5,-19.5 718.5,-19.5 718.5,-0.5 647.5,-0.5"/>
<text text-anchor="middle" x="683" y="-7.5" font-family="Helvetica,sans-Serif" font-size="10.00">stm/config.h</text>
</g>
<!-- Node2&#45;&gt;Node4 -->
<g id="edge3" class="edge"><title>Node2&#45;&gt;Node4</title>
<path fill="none" stroke="midnightblue" d="M752.12,-398.025C796.316,-393.493 869.564,-382.398 927,-356 1020.96,-312.817 1078,-282.404 1078,-179 1078,-179 1078,-179 1078,-121 1078,-49.2528 833.094,-22.2929 728.965,-14.0727"/>
<polygon fill="midnightblue" stroke="midnightblue" points="728.988,-10.5643 718.75,-13.291 728.454,-17.5439 728.988,-10.5643"/>
</g>
<!-- Node5 -->
<g id="node5" class="node"><title>Node5</title>
<g id="a_node5"><a xlink:href="txthread_8hpp.html" target="_top" xlink:title="stm/txthread.hpp">
<polygon fill="none" stroke="black" points="538,-280.5 538,-299.5 628,-299.5 628,-280.5 538,-280.5"/>
<text text-anchor="middle" x="583" y="-287.5" font-family="Helvetica,sans-Serif" font-size="10.00">stm/txthread.hpp</text>
</a>
</g>
</g>
<!-- Node2&#45;&gt;Node5 -->
<g id="edge4" class="edge"><title>Node2&#45;&gt;Node5</title>
<path fill="none" stroke="midnightblue" d="M702.799,-392.368C680.776,-373.733 628.538,-329.532 600.885,-306.134"/>
<polygon fill="midnightblue" stroke="midnightblue" points="603.048,-303.379 593.153,-299.591 598.527,-308.723 603.048,-303.379"/>
</g>
<!-- Node25 -->
<g id="node25" class="node"><title>Node25</title>
<g id="a_node25"><a xlink:href="policies_8hpp.html" target="_top" xlink:title="./policies/policies.hpp">
<polygon fill="none" stroke="black" points="808,-336.5 808,-355.5 918,-355.5 918,-336.5 808,-336.5"/>
<text text-anchor="middle" x="863" y="-343.5" font-family="Helvetica,sans-Serif" font-size="10.00">./policies/policies.hpp</text>
</a>
</g>
</g>
<!-- Node2&#45;&gt;Node25 -->
<g id="edge44" class="edge"><title>Node2&#45;&gt;Node25</title>
<path fill="none" stroke="midnightblue" d="M736.768,-392.444C761.893,-383.399 801.711,-369.064 829.9,-358.916"/>
<polygon fill="midnightblue" stroke="midnightblue" points="831.12,-362.197 839.343,-355.516 828.749,-355.611 831.12,-362.197"/>
</g>
<!-- Node6 -->
<g id="node6" class="node"><title>Node6</title>
<g id="a_node6"><a xlink:href="rand__r__32_8h.html" target="_top" xlink:title="alt&#45;license/rand_r_32.h">
<polygon fill="none" stroke="black" points="402.5,-224.5 402.5,-243.5 517.5,-243.5 517.5,-224.5 402.5,-224.5"/>
<text text-anchor="middle" x="460" y="-231.5" font-family="Helvetica,sans-Serif" font-size="10.00">alt&#45;license/rand_r_32.h</text>
</a>
</g>
</g>
<!-- Node5&#45;&gt;Node6 -->
<g id="edge5" class="edge"><title>Node5&#45;&gt;Node6</title>
<path fill="none" stroke="midnightblue" d="M563.51,-280.444C543.358,-271.596 511.677,-257.687 488.669,-247.586"/>
<polygon fill="midnightblue" stroke="midnightblue" points="489.962,-244.332 479.399,-243.516 487.148,-250.741 489.962,-244.332"/>
</g>
<!-- Node8 -->
<g id="node8" class="node"><title>Node8</title>
<g id="a_node8"><a xlink:href="locks_8hpp.html" target="_top" xlink:title="common/locks.hpp">
<polygon fill="none" stroke="black" points="14.5,-112.5 14.5,-131.5 113.5,-131.5 113.5,-112.5 14.5,-112.5"/>
<text text-anchor="middle" x="64" y="-119.5" font-family="Helvetica,sans-Serif" font-size="10.00">common/locks.hpp</text>
</a>
</g>
</g>
<!-- Node5&#45;&gt;Node8 -->
<g id="edge8" class="edge"><title>Node5&#45;&gt;Node8</title>
<path fill="none" stroke="midnightblue" d="M537.803,-287.071C479.684,-283.455 376.319,-273.149 293,-244 228.738,-221.518 220.427,-199.362 160,-168 137.638,-156.394 111.745,-144.334 92.4895,-135.624"/>
<polygon fill="midnightblue" stroke="midnightblue" points="93.9031,-132.422 83.3472,-131.515 91.0331,-138.807 93.9031,-132.422"/>
</g>
<!-- Node13 -->
<g id="node13" class="node"><title>Node13</title>
<g id="a_node13"><a xlink:href="ThreadLocal_8hpp.html" target="_top" xlink:title="common/ThreadLocal.hpp">
<polygon fill="none" stroke="black" points="648.5,-224.5 648.5,-243.5 777.5,-243.5 777.5,-224.5 648.5,-224.5"/>
<text text-anchor="middle" x="713" y="-231.5" font-family="Helvetica,sans-Serif" font-size="10.00">common/ThreadLocal.hpp</text>
</a>
</g>
</g>
<!-- Node5&#45;&gt;Node13 -->
<g id="edge14" class="edge"><title>Node5&#45;&gt;Node13</title>
<path fill="none" stroke="midnightblue" d="M603.599,-280.444C624.993,-271.557 658.681,-257.563 683.024,-247.451"/>
<polygon fill="midnightblue" stroke="midnightblue" points="684.605,-250.585 692.497,-243.516 681.92,-244.12 684.605,-250.585"/>
</g>
<!-- Node14 -->
<g id="node14" class="node"><title>Node14</title>
<g id="a_node14"><a xlink:href="metadata_8hpp.html" target="_top" xlink:title="stm/metadata.hpp">
<polygon fill="none" stroke="black" points="796.5,-168.5 796.5,-187.5 891.5,-187.5 891.5,-168.5 796.5,-168.5"/>
<text text-anchor="middle" x="844" y="-175.5" font-family="Helvetica,sans-Serif" font-size="10.00">stm/metadata.hpp</text>
</a>
</g>
</g>
<!-- Node5&#45;&gt;Node14 -->
<g id="edge16" class="edge"><title>Node5&#45;&gt;Node14</title>
<path fill="none" stroke="midnightblue" d="M628.248,-286.91C671.417,-283.159 736.951,-272.752 786,-244 806.098,-232.219 823.008,-211.083 833.29,-196.115"/>
<polygon fill="midnightblue" stroke="midnightblue" points="836.234,-198.009 838.805,-187.731 830.386,-194.162 836.234,-198.009"/>
</g>
<!-- Node19 -->
<g id="node19" class="node"><title>Node19</title>
<g id="a_node19"><a xlink:href="WriteSet_8hpp.html" target="_top" xlink:title="stm/WriteSet.hpp">
<polygon fill="none" stroke="black" points="261.5,-112.5 261.5,-131.5 354.5,-131.5 354.5,-112.5 261.5,-112.5"/>
<text text-anchor="middle" x="308" y="-119.5" font-family="Helvetica,sans-Serif" font-size="10.00">stm/WriteSet.hpp</text>
</a>
</g>
</g>
<!-- Node5&#45;&gt;Node19 -->
<g id="edge26" class="edge"><title>Node5&#45;&gt;Node19</title>
<path fill="none" stroke="midnightblue" d="M537.777,-288.343C494.873,-285.641 430.388,-275.978 385,-244 348.146,-218.035 324.907,-168.273 314.458,-141.363"/>
<polygon fill="midnightblue" stroke="midnightblue" points="317.621,-139.825 310.866,-131.663 311.057,-142.257 317.621,-139.825"/>
</g>
<!-- Node21 -->
<g id="node21" class="node"><title>Node21</title>
<g id="a_node21"><a xlink:href="UndoLog_8hpp.html" target="_top" xlink:title="stm/UndoLog.hpp">
<polygon fill="none" stroke="black" points="398,-168.5 398,-187.5 492,-187.5 492,-168.5 398,-168.5"/>
<text text-anchor="middle" x="445" y="-175.5" font-family="Helvetica,sans-Serif" font-size="10.00">stm/UndoLog.hpp</text>
</a>
</g>
</g>
<!-- Node5&#45;&gt;Node21 -->
<g id="edge31" class="edge"><title>Node5&#45;&gt;Node21</title>
<path fill="none" stroke="midnightblue" d="M537.792,-284.673C487.424,-278.809 410.715,-266.401 393,-244 379.085,-226.405 401.164,-206.249 420.702,-193.107"/>
<polygon fill="midnightblue" stroke="midnightblue" points="422.804,-195.918 429.362,-187.597 419.046,-190.013 422.804,-195.918"/>
</g>
<!-- Node23 -->
<g id="node23" class="node"><title>Node23</title>
<g id="a_node23"><a xlink:href="ValueList_8hpp.html" target="_top" xlink:title="stm/ValueList.hpp">
<polygon fill="none" stroke="black" points="212.5,-168.5 212.5,-187.5 307.5,-187.5 307.5,-168.5 212.5,-168.5"/>
<text text-anchor="middle" x="260" y="-175.5" font-family="Helvetica,sans-Serif" font-size="10.00">stm/ValueList.hpp</text>
</a>
</g>
</g>
<!-- Node5&#45;&gt;Node23 -->
<g id="edge36" class="edge"><title>Node5&#45;&gt;Node23</title>
<path fill="none" stroke="midnightblue" d="M537.778,-289.629C483.438,-288.555 390.975,-280.779 322,-244 300.804,-232.698 282.669,-211.465 271.585,-196.343"/>
<polygon fill="midnightblue" stroke="midnightblue" points="274.241,-194.034 265.631,-187.861 268.512,-198.056 274.241,-194.034"/>
</g>
<!-- Node24 -->
<g id="node24" class="node"><title>Node24</title>
<g id="a_node24"><a xlink:href="WBMMPolicy_8hpp.html" target="_top" xlink:title="WBMMPolicy.hpp">
<polygon fill="none" stroke="black" points="535.5,-224.5 535.5,-243.5 630.5,-243.5 630.5,-224.5 535.5,-224.5"/>
<text text-anchor="middle" x="583" y="-231.5" font-family="Helvetica,sans-Serif" font-size="10.00">WBMMPolicy.hpp</text>
</a>
</g>
</g>
<!-- Node5&#45;&gt;Node24 -->
<g id="edge39" class="edge"><title>Node5&#45;&gt;Node24</title>
<path fill="none" stroke="midnightblue" d="M583,-280.083C583,-273.006 583,-262.861 583,-253.986"/>
<polygon fill="midnightblue" stroke="midnightblue" points="586.5,-253.751 583,-243.751 579.5,-253.751 586.5,-253.751"/>
</g>
<!-- Node6&#45;&gt;Node4 -->
<g id="edge7" class="edge"><title>Node6&#45;&gt;Node4</title>
<path fill="none" stroke="midnightblue" d="M470.692,-224.402C487.165,-211.359 519.995,-186.172 550,-168 580.602,-149.466 596.66,-157.256 622,-132 651.742,-102.356 669.665,-55.2235 677.791,-29.4034"/>
<polygon fill="midnightblue" stroke="midnightblue" points="681.164,-30.3393 680.679,-19.7556 674.458,-28.3315 681.164,-30.3393"/>
</g>
<!-- Node7 -->
<g id="node7" class="node"><title>Node7</title>
<polygon fill="none" stroke="#bfbfbf" points="559,-168.5 559,-187.5 607,-187.5 607,-168.5 559,-168.5"/>
<text text-anchor="middle" x="583" y="-175.5" font-family="Helvetica,sans-Serif" font-size="10.00">stdlib.h</text>
</g>
<!-- Node6&#45;&gt;Node7 -->
<g id="edge6" class="edge"><title>Node6&#45;&gt;Node7</title>
<path fill="none" stroke="midnightblue" d="M479.49,-224.444C499.642,-215.596 531.323,-201.687 554.331,-191.586"/>
<polygon fill="midnightblue" stroke="midnightblue" points="555.852,-194.741 563.601,-187.516 553.038,-188.332 555.852,-194.741"/>
</g>
<!-- Node9 -->
<g id="node9" class="node"><title>Node9</title>
<g id="a_node9"><a xlink:href="platform_8hpp.html" target="_top" xlink:title="common/platform.hpp">
<polygon fill="none" stroke="black" points="2.5,-56.5 2.5,-75.5 113.5,-75.5 113.5,-56.5 2.5,-56.5"/>
<text text-anchor="middle" x="58" y="-63.5" font-family="Helvetica,sans-Serif" font-size="10.00">common/platform.hpp</text>
</a>
</g>
</g>
<!-- Node8&#45;&gt;Node9 -->
<g id="edge9" class="edge"><title>Node8&#45;&gt;Node9</title>
<path fill="none" stroke="midnightblue" d="M63.0092,-112.083C62.2141,-104.927 61.0706,-94.6353 60.0768,-85.6911"/>
<polygon fill="midnightblue" stroke="midnightblue" points="63.5553,-85.3034 58.9723,-75.7511 56.5982,-86.0765 63.5553,-85.3034"/>
</g>
<!-- Node9&#45;&gt;Node4 -->
<g id="edge10" class="edge"><title>Node9&#45;&gt;Node4</title>
<path fill="none" stroke="midnightblue" d="M113.757,-57.5915C118.571,-57.0246 123.369,-56.4852 128,-56 316.584,-36.2425 542.001,-20.3436 637.098,-13.9893"/>
<polygon fill="midnightblue" stroke="midnightblue" points="637.489,-17.4711 647.235,-13.3152 637.024,-10.4865 637.489,-17.4711"/>
</g>
<!-- Node10 -->
<g id="node10" class="node"><title>Node10</title>
<polygon fill="none" stroke="#bfbfbf" points="313.5,-0.5 313.5,-19.5 362.5,-19.5 362.5,-0.5 313.5,-0.5"/>
<text text-anchor="middle" x="338" y="-7.5" font-family="Helvetica,sans-Serif" font-size="10.00">stdint.h</text>
</g>
<!-- Node9&#45;&gt;Node10 -->
<g id="edge11" class="edge"><title>Node9&#45;&gt;Node10</title>
<path fill="none" stroke="midnightblue" d="M102.367,-56.4435C158.197,-45.6762 252.896,-27.4129 303.574,-17.6393"/>
<polygon fill="midnightblue" stroke="midnightblue" points="304.238,-21.0758 313.394,-15.7454 302.913,-14.2025 304.238,-21.0758"/>
</g>
<!-- Node11 -->
<g id="node11" class="node"><title>Node11</title>
<polygon fill="none" stroke="#bfbfbf" points="0,-0.5 0,-19.5 48,-19.5 48,-0.5 0,-0.5"/>
<text text-anchor="middle" x="24" y="-7.5" font-family="Helvetica,sans-Serif" font-size="10.00">limits.h</text>
</g>
<!-- Node9&#45;&gt;Node11 -->
<g id="edge12" class="edge"><title>Node9&#45;&gt;Node11</title>
<path fill="none" stroke="midnightblue" d="M52.3856,-56.083C47.6326,-48.5341 40.6819,-37.4948 34.8484,-28.2298"/>
<polygon fill="midnightblue" stroke="midnightblue" points="37.7999,-26.3486 29.5099,-19.7511 31.8763,-30.0783 37.7999,-26.3486"/>
</g>
<!-- Node12 -->
<g id="node12" class="node"><title>Node12</title>
<polygon fill="none" stroke="#bfbfbf" points="66.5,-0.5 66.5,-19.5 117.5,-19.5 117.5,-0.5 66.5,-0.5"/>
<text text-anchor="middle" x="92" y="-7.5" font-family="Helvetica,sans-Serif" font-size="10.00">unistd.h</text>
</g>
<!-- Node9&#45;&gt;Node12 -->
<g id="edge13" class="edge"><title>Node9&#45;&gt;Node12</title>
<path fill="none" stroke="midnightblue" d="M63.6144,-56.083C68.3674,-48.5341 75.3181,-37.4948 81.1516,-28.2298"/>
<polygon fill="midnightblue" stroke="midnightblue" points="84.1237,-30.0783 86.4901,-19.7511 78.2001,-26.3486 84.1237,-30.0783"/>
</g>
<!-- Node13&#45;&gt;Node4 -->
<g id="edge15" class="edge"><title>Node13&#45;&gt;Node4</title>
<path fill="none" stroke="midnightblue" d="M715.116,-224.228C721.055,-197.909 736.176,-117.629 716,-56 712.51,-45.3397 705.427,-35.1174 698.714,-27.1175"/>
<polygon fill="midnightblue" stroke="midnightblue" points="701.305,-24.7633 692.02,-19.66 696.096,-29.4395 701.305,-24.7633"/>
</g>
<!-- Node14&#45;&gt;Node4 -->
<g id="edge17" class="edge"><title>Node14&#45;&gt;Node4</title>
<path fill="none" stroke="midnightblue" d="M842.605,-168.424C838.645,-146.702 825.381,-88.9051 792,-56 774.615,-38.8628 749.778,-27.9272 728.202,-21.1339"/>
<polygon fill="midnightblue" stroke="midnightblue" points="729.138,-17.7611 718.557,-18.2968 727.163,-24.4766 729.138,-17.7611"/>
</g>
<!-- Node15 -->
<g id="node15" class="node"><title>Node15</title>
<g id="a_node15"><a xlink:href="MiniVector_8hpp.html" target="_top" xlink:title="stm/MiniVector.hpp">
<polygon fill="none" stroke="black" points="374.5,-112.5 374.5,-131.5 475.5,-131.5 475.5,-112.5 374.5,-112.5"/>
<text text-anchor="middle" x="425" y="-119.5" font-family="Helvetica,sans-Serif" font-size="10.00">stm/MiniVector.hpp</text>
</a>
</g>
</g>
<!-- Node14&#45;&gt;Node15 -->
<g id="edge18" class="edge"><title>Node14&#45;&gt;Node15</title>
<path fill="none" stroke="midnightblue" d="M796.447,-171.019C728.796,-162.487 600.886,-146.273 492,-132 489.954,-131.732 487.874,-131.458 485.773,-131.181"/>
<polygon fill="midnightblue" stroke="midnightblue" points="486.218,-127.709 475.845,-129.865 485.298,-134.649 486.218,-127.709"/>
</g>
<!-- Node18 -->
<g id="node18" class="node"><title>Node18</title>
<g id="a_node18"><a xlink:href="BitFilter_8hpp.html" target="_top" xlink:title="stm/BitFilter.hpp">
<polygon fill="none" stroke="black" points="470.5,-56.5 470.5,-75.5 559.5,-75.5 559.5,-56.5 470.5,-56.5"/>
<text text-anchor="middle" x="515" y="-63.5" font-family="Helvetica,sans-Serif" font-size="10.00">stm/BitFilter.hpp</text>
</a>
</g>
</g>
<!-- Node14&#45;&gt;Node18 -->
<g id="edge23" class="edge"><title>Node14&#45;&gt;Node18</title>
<path fill="none" stroke="midnightblue" d="M818.458,-168.46C760.154,-148.966 617.167,-101.159 550.409,-78.839"/>
<polygon fill="midnightblue" stroke="midnightblue" points="551.347,-75.462 540.753,-75.6104 549.127,-82.1008 551.347,-75.462"/>
</g>
<!-- Node15&#45;&gt;Node3 -->
<g id="edge20" class="edge"><title>Node15&#45;&gt;Node3</title>
<path fill="none" stroke="midnightblue" d="M398.38,-112.444C368.826,-102.944 321.118,-87.6095 289.413,-77.4183"/>
<polygon fill="midnightblue" stroke="midnightblue" points="290.315,-74.0322 279.724,-74.3042 288.173,-80.6964 290.315,-74.0322"/>
</g>
<!-- Node15&#45;&gt;Node9 -->
<g id="edge22" class="edge"><title>Node15&#45;&gt;Node9</title>
<path fill="none" stroke="midnightblue" d="M374.356,-113.548C309.134,-103.952 195.649,-87.2535 123.805,-76.6825"/>
<polygon fill="midnightblue" stroke="midnightblue" points="123.921,-73.162 113.518,-75.1689 122.902,-80.0874 123.921,-73.162"/>
</g>
<!-- Node16 -->
<g id="node16" class="node"><title>Node16</title>
<polygon fill="none" stroke="#bfbfbf" points="336.5,-56.5 336.5,-75.5 385.5,-75.5 385.5,-56.5 336.5,-56.5"/>
<text text-anchor="middle" x="361" y="-63.5" font-family="Helvetica,sans-Serif" font-size="10.00">cassert</text>
</g>
<!-- Node15&#45;&gt;Node16 -->
<g id="edge19" class="edge"><title>Node15&#45;&gt;Node16</title>
<path fill="none" stroke="midnightblue" d="M414.717,-112.324C405.164,-104.263 390.72,-92.0765 379.216,-82.3695"/>
<polygon fill="midnightblue" stroke="midnightblue" points="381.37,-79.6076 371.47,-75.8339 376.856,-84.9577 381.37,-79.6076"/>
</g>
<!-- Node17 -->
<g id="node17" class="node"><title>Node17</title>
<polygon fill="none" stroke="#bfbfbf" points="403.5,-56.5 403.5,-75.5 452.5,-75.5 452.5,-56.5 403.5,-56.5"/>
<text text-anchor="middle" x="428" y="-63.5" font-family="Helvetica,sans-Serif" font-size="10.00">string.h</text>
</g>
<!-- Node15&#45;&gt;Node17 -->
<g id="edge21" class="edge"><title>Node15&#45;&gt;Node17</title>
<path fill="none" stroke="midnightblue" d="M425.495,-112.083C425.889,-105.006 426.452,-94.8611 426.945,-85.9865"/>
<polygon fill="midnightblue" stroke="midnightblue" points="430.454,-85.9299 427.514,-75.7511 423.464,-85.5415 430.454,-85.9299"/>
</g>
<!-- Node18&#45;&gt;Node4 -->
<g id="edge24" class="edge"><title>Node18&#45;&gt;Node4</title>
<path fill="none" stroke="midnightblue" d="M541.62,-56.4435C570.006,-47.3196 615.137,-32.8133 646.753,-22.6509"/>
<polygon fill="midnightblue" stroke="midnightblue" points="648.055,-25.9087 656.504,-19.5164 645.913,-19.2445 648.055,-25.9087"/>
</g>
<!-- Node18&#45;&gt;Node10 -->
<g id="edge25" class="edge"><title>Node18&#45;&gt;Node10</title>
<path fill="none" stroke="midnightblue" d="M486.954,-56.4435C455.946,-46.9836 405.973,-31.7377 372.569,-21.5465"/>
<polygon fill="midnightblue" stroke="midnightblue" points="373.36,-18.1285 362.773,-18.558 371.317,-24.8238 373.36,-18.1285"/>
</g>
<!-- Node19&#45;&gt;Node3 -->
<g id="edge28" class="edge"><title>Node19&#45;&gt;Node3</title>
<path fill="none" stroke="midnightblue" d="M299.578,-112.083C292.152,-104.22 281.148,-92.5688 272.188,-83.0813"/>
<polygon fill="midnightblue" stroke="midnightblue" points="274.676,-80.618 265.265,-75.7511 269.587,-85.4244 274.676,-80.618"/>
</g>
<!-- Node19&#45;&gt;Node4 -->
<g id="edge27" class="edge"><title>Node19&#45;&gt;Node4</title>
<path fill="none" stroke="midnightblue" d="M307.753,-112.261C307.87,-98.0727 310.36,-70.189 327,-56 372.733,-17.0027 551.767,-11.2272 637.179,-10.7478"/>
<polygon fill="midnightblue" stroke="midnightblue" points="637.373,-14.2473 647.361,-10.7135 637.349,-7.24735 637.373,-14.2473"/>
</g>
<!-- Node19&#45;&gt;Node16 -->
<g id="edge30" class="edge"><title>Node19&#45;&gt;Node16</title>
<path fill="none" stroke="midnightblue" d="M316.752,-112.083C324.47,-104.22 335.905,-92.5688 345.217,-83.0813"/>
<polygon fill="midnightblue" stroke="midnightblue" points="347.904,-85.3396 352.411,-75.7511 342.908,-80.4363 347.904,-85.3396"/>
</g>
<!-- Node20 -->
<g id="node20" class="node"><title>Node20</title>
<polygon fill="none" stroke="#bfbfbf" points="170,-56.5 170,-75.5 216,-75.5 216,-56.5 170,-56.5"/>
<text text-anchor="middle" x="193" y="-63.5" font-family="Helvetica,sans-Serif" font-size="10.00">cstring</text>
</g>
<!-- Node19&#45;&gt;Node20 -->
<g id="edge29" class="edge"><title>Node19&#45;&gt;Node20</title>
<path fill="none" stroke="midnightblue" d="M289.778,-112.444C271.104,-103.675 241.844,-89.9355 220.383,-79.8579"/>
<polygon fill="midnightblue" stroke="midnightblue" points="221.676,-76.5988 211.137,-75.5164 218.701,-82.935 221.676,-76.5988"/>
</g>
<!-- Node21&#45;&gt;Node4 -->
<g id="edge32" class="edge"><title>Node21&#45;&gt;Node4</title>
<path fill="none" stroke="midnightblue" d="M492.131,-171.354C524.131,-165.639 566.085,-154.297 597,-132 630.4,-107.911 626.044,-89.4952 650,-56 656.705,-46.6251 664.305,-36.2452 670.52,-27.819"/>
<polygon fill="midnightblue" stroke="midnightblue" points="673.479,-29.7035 676.613,-19.5825 667.852,-25.5406 673.479,-29.7035"/>
</g>
<!-- Node21&#45;&gt;Node15 -->
<g id="edge33" class="edge"><title>Node21&#45;&gt;Node15</title>
<path fill="none" stroke="midnightblue" d="M441.697,-168.083C439.018,-160.849 435.151,-150.409 431.814,-141.397"/>
<polygon fill="midnightblue" stroke="midnightblue" points="434.996,-139.913 428.241,-131.751 428.432,-142.344 434.996,-139.913"/>
</g>
<!-- Node22 -->
<g id="node22" class="node"><title>Node22</title>
<g id="a_node22"><a xlink:href="include_2stm_2macros_8hpp.html" target="_top" xlink:title="stm/macros.hpp">
<polygon fill="none" stroke="black" points="501.5,-112.5 501.5,-131.5 588.5,-131.5 588.5,-112.5 501.5,-112.5"/>
<text text-anchor="middle" x="545" y="-119.5" font-family="Helvetica,sans-Serif" font-size="10.00">stm/macros.hpp</text>
</a>
</g>
</g>
<!-- Node21&#45;&gt;Node22 -->
<g id="edge34" class="edge"><title>Node21&#45;&gt;Node22</title>
<path fill="none" stroke="midnightblue" d="M461.067,-168.324C476.958,-159.743 501.507,-146.486 519.958,-136.522"/>
<polygon fill="midnightblue" stroke="midnightblue" points="521.837,-139.486 528.973,-131.655 518.511,-133.326 521.837,-139.486"/>
</g>
<!-- Node22&#45;&gt;Node4 -->
<g id="edge35" class="edge"><title>Node22&#45;&gt;Node4</title>
<path fill="none" stroke="midnightblue" d="M552.752,-112.424C564.745,-99.4098 588.836,-74.2603 612,-56 626.76,-44.3643 644.639,-33.0469 658.762,-24.6724"/>
<polygon fill="midnightblue" stroke="midnightblue" points="660.553,-27.6797 667.431,-19.6204 657.029,-21.6318 660.553,-27.6797"/>
</g>
<!-- Node23&#45;&gt;Node4 -->
<g id="edge37" class="edge"><title>Node23&#45;&gt;Node4</title>
<path fill="none" stroke="midnightblue" d="M243.422,-168.362C206.591,-148.123 124.025,-96.2994 161,-56 192.893,-21.2388 515.89,-13.265 637.245,-11.4908"/>
<polygon fill="midnightblue" stroke="midnightblue" points="637.38,-14.9894 647.33,-11.351 637.282,-7.99009 637.38,-14.9894"/>
</g>
<!-- Node23&#45;&gt;Node15 -->
<g id="edge38" class="edge"><title>Node23&#45;&gt;Node15</title>
<path fill="none" stroke="midnightblue" d="M286.145,-168.444C314.023,-159.32 358.348,-144.813 389.4,-134.651"/>
<polygon fill="midnightblue" stroke="midnightblue" points="390.562,-137.953 398.978,-131.516 388.385,-131.3 390.562,-137.953"/>
</g>
<!-- Node24&#45;&gt;Node4 -->
<g id="edge41" class="edge"><title>Node24&#45;&gt;Node4</title>
<path fill="none" stroke="midnightblue" d="M596.181,-224.375C618.316,-208.979 662.095,-174.37 678,-132 690.885,-97.675 688.536,-53.968 685.728,-29.5878"/>
<polygon fill="midnightblue" stroke="midnightblue" points="689.186,-29.0345 684.419,-19.5728 682.245,-29.9422 689.186,-29.0345"/>
</g>
<!-- Node24&#45;&gt;Node7 -->
<g id="edge40" class="edge"><title>Node24&#45;&gt;Node7</title>
<path fill="none" stroke="midnightblue" d="M583,-224.083C583,-217.006 583,-206.861 583,-197.986"/>
<polygon fill="midnightblue" stroke="midnightblue" points="586.5,-197.751 583,-187.751 579.5,-197.751 586.5,-197.751"/>
</g>
<!-- Node24&#45;&gt;Node14 -->
<g id="edge43" class="edge"><title>Node24&#45;&gt;Node14</title>
<path fill="none" stroke="midnightblue" d="M624.356,-224.444C670.078,-214.984 743.764,-199.738 793.022,-189.547"/>
<polygon fill="midnightblue" stroke="midnightblue" points="793.754,-192.97 802.837,-187.516 792.336,-186.115 793.754,-192.97"/>
</g>
<!-- Node24&#45;&gt;Node15 -->
<g id="edge42" class="edge"><title>Node24&#45;&gt;Node15</title>
<path fill="none" stroke="midnightblue" d="M593.262,-224.373C607.587,-211.293 630.298,-186.058 616,-168 607.73,-157.555 538.259,-143.074 485.464,-133.389"/>
<polygon fill="midnightblue" stroke="midnightblue" points="485.949,-129.92 475.485,-131.578 484.699,-136.807 485.949,-129.92"/>
</g>
<!-- Node25&#45;&gt;Node4 -->
<g id="edge45" class="edge"><title>Node25&#45;&gt;Node4</title>
<path fill="none" stroke="midnightblue" d="M873.45,-336.198C901.55,-312.521 976.957,-248.92 982,-244 1009.71,-216.964 1040,-217.718 1040,-179 1040,-179 1040,-179 1040,-121 1040,-56.5482 824.803,-25.8696 728.566,-15.3724"/>
<polygon fill="midnightblue" stroke="midnightblue" points="728.85,-11.883 718.536,-14.3047 728.109,-18.8437 728.85,-11.883"/>
</g>
<!-- Node25&#45;&gt;Node5 -->
<g id="edge50" class="edge"><title>Node25&#45;&gt;Node5</title>
<path fill="none" stroke="midnightblue" d="M818.633,-336.444C769.378,-326.944 689.872,-311.611 637.029,-301.42"/>
<polygon fill="midnightblue" stroke="midnightblue" points="637.641,-297.974 627.159,-299.516 636.316,-304.847 637.641,-297.974"/>
</g>
<!-- Node25&#45;&gt;Node9 -->
<g id="edge48" class="edge"><title>Node25&#45;&gt;Node9</title>
<path fill="none" stroke="midnightblue" d="M807.88,-338.626C741.536,-330.712 626.833,-316.254 529,-300 287.742,-259.916 136.539,-338.179 5,-132 -7.02051,-113.159 14.4267,-93.5438 33.5298,-80.8565"/>
<polygon fill="midnightblue" stroke="midnightblue" points="35.3968,-83.817 42.0134,-75.5423 31.6807,-77.8848 35.3968,-83.817"/>
</g>
<!-- Node25&#45;&gt;Node14 -->
<g id="edge49" class="edge"><title>Node25&#45;&gt;Node14</title>
<path fill="none" stroke="midnightblue" d="M861.978,-336.075C858.988,-309.945 850.205,-233.211 846.126,-197.577"/>
<polygon fill="midnightblue" stroke="midnightblue" points="849.595,-197.105 844.981,-187.568 842.641,-197.901 849.595,-197.105"/>
</g>
<!-- Node26 -->
<g id="node26" class="node"><title>Node26</title>
<polygon fill="none" stroke="#bfbfbf" points="948.5,-280.5 948.5,-299.5 991.5,-299.5 991.5,-280.5 948.5,-280.5"/>
<text text-anchor="middle" x="970" y="-287.5" font-family="Helvetica,sans-Serif" font-size="10.00">cstdio</text>
</g>
<!-- Node25&#45;&gt;Node26 -->
<g id="edge46" class="edge"><title>Node25&#45;&gt;Node26</title>
<path fill="none" stroke="midnightblue" d="M880.191,-336.324C897.351,-327.664 923.946,-314.242 943.747,-304.249"/>
<polygon fill="midnightblue" stroke="midnightblue" points="945.501,-307.285 952.851,-299.655 942.347,-301.035 945.501,-307.285"/>
</g>
<!-- Node27 -->
<g id="node27" class="node"><title>Node27</title>
<polygon fill="none" stroke="#bfbfbf" points="756.5,-280.5 756.5,-299.5 815.5,-299.5 815.5,-280.5 756.5,-280.5"/>
<text text-anchor="middle" x="786" y="-287.5" font-family="Helvetica,sans-Serif" font-size="10.00">inttypes.h</text>
</g>
<!-- Node25&#45;&gt;Node27 -->
<g id="edge47" class="edge"><title>Node25&#45;&gt;Node27</title>
<path fill="none" stroke="midnightblue" d="M850.629,-336.324C838.842,-328.058 820.868,-315.453 806.864,-305.632"/>
<polygon fill="midnightblue" stroke="midnightblue" points="808.538,-302.531 798.341,-299.655 804.518,-308.262 808.538,-302.531"/>
</g>
<!-- Node28 -->
<g id="node28" class="node"><title>Node28</title>
<g id="a_node28"><a xlink:href="lib__globals_8hpp.html" target="_top" xlink:title="stm/lib_globals.hpp">
<polygon fill="none" stroke="black" points="872.5,-224.5 872.5,-243.5 973.5,-243.5 973.5,-224.5 872.5,-224.5"/>
<text text-anchor="middle" x="923" y="-231.5" font-family="Helvetica,sans-Serif" font-size="10.00">stm/lib_globals.hpp</text>
</a>
</g>
</g>
<!-- Node25&#45;&gt;Node28 -->
<g id="edge51" class="edge"><title>Node25&#45;&gt;Node28</title>
<path fill="none" stroke="midnightblue" d="M867.708,-336.368C877.522,-318.376 900.336,-276.55 913.385,-252.627"/>
<polygon fill="midnightblue" stroke="midnightblue" points="916.598,-254.046 918.314,-243.591 910.453,-250.694 916.598,-254.046"/>
</g>
<!-- Node28&#45;&gt;Node4 -->
<g id="edge52" class="edge"><title>Node28&#45;&gt;Node4</title>
<path fill="none" stroke="midnightblue" d="M920.827,-224.229C917.444,-211.395 910.229,-186.964 900,-168 870.335,-113 865.674,-92.5667 815,-56 789.408,-37.5326 755.656,-26.2049 728.688,-19.5339"/>
<polygon fill="midnightblue" stroke="midnightblue" points="729.25,-16.071 718.716,-17.2001 727.655,-22.8868 729.25,-16.071"/>
</g>
<!-- Node28&#45;&gt;Node14 -->
<g id="edge53" class="edge"><title>Node28&#45;&gt;Node14</title>
<path fill="none" stroke="midnightblue" d="M910.307,-224.324C898.099,-215.979 879.422,-203.212 864.997,-193.352"/>
<polygon fill="midnightblue" stroke="midnightblue" points="866.892,-190.408 856.661,-187.655 862.942,-196.187 866.892,-190.408"/>
</g>
<!-- Node29&#45;&gt;Node2 -->
<g id="edge59" class="edge"><title>Node29&#45;&gt;Node2</title>
<path fill="none" stroke="midnightblue" d="M873.207,-449.263C841.545,-440.12 788.586,-424.827 752.285,-414.344"/>
<polygon fill="midnightblue" stroke="midnightblue" points="753.098,-410.936 742.519,-411.524 751.156,-417.661 753.098,-410.936"/>
</g>
<!-- Node29&#45;&gt;Node4 -->
<g id="edge55" class="edge"><title>Node29&#45;&gt;Node4</title>
<path fill="none" stroke="midnightblue" d="M926.92,-455.559C984.822,-450.862 1116,-430.955 1116,-347 1116,-347 1116,-347 1116,-121 1116,-41.8237 840.598,-18.9726 729.069,-12.9649"/>
<polygon fill="midnightblue" stroke="midnightblue" points="728.97,-9.45519 718.803,-12.4348 728.609,-16.4459 728.97,-9.45519"/>
</g>
<!-- Node29&#45;&gt;Node5 -->
<g id="edge58" class="edge"><title>Node29&#45;&gt;Node5</title>
<path fill="none" stroke="midnightblue" d="M883.403,-448.309C831.406,-421.08 671.4,-337.292 608.639,-304.426"/>
<polygon fill="midnightblue" stroke="midnightblue" points="609.915,-301.144 599.433,-299.605 606.668,-307.345 609.915,-301.144"/>
</g>
<!-- Node29&#45;&gt;Node14 -->
<g id="edge57" class="edge"><title>Node29&#45;&gt;Node14</title>
<path fill="none" stroke="midnightblue" d="M910.428,-448.315C938.248,-424.045 1011.37,-352.526 1000,-280 995.951,-254.172 1000.45,-242.525 982,-224 960.7,-202.61 929.118,-191.385 901.54,-185.495"/>
<polygon fill="midnightblue" stroke="midnightblue" points="902.072,-182.033 891.587,-183.558 900.734,-188.904 902.072,-182.033"/>
</g>
<!-- Node29&#45;&gt;Node26 -->
<g id="edge56" class="edge"><title>Node29&#45;&gt;Node26</title>
<path fill="none" stroke="midnightblue" d="M903.764,-448.075C914.83,-421.832 947.421,-344.545 962.36,-309.117"/>
<polygon fill="midnightblue" stroke="midnightblue" points="965.726,-310.142 966.387,-299.568 959.276,-307.422 965.726,-310.142"/>
</g>
</g>
</svg>
