<?xml version="1.0" encoding="UTF-8" standalone="no"?>
<!DOCTYPE svg PUBLIC "-//W3C//DTD SVG 1.1//EN"
 "http://www.w3.org/Graphics/SVG/1.1/DTD/svg11.dtd">
<!-- Generated by graphviz version 2.36.0 (20140111.2315)
 -->
<!-- Title: rstm/rstm&#45;dev/stamp&#45;0.9.10/lib/set.h Pages: 1 -->
<svg width="177pt" height="208pt"
 viewBox="0.00 0.00 177.00 208.00" xmlns="http://www.w3.org/2000/svg" xmlns:xlink="http://www.w3.org/1999/xlink">
<g id="graph0" class="graph" transform="scale(1 1) rotate(0) translate(4 204)">
<title>rstm/rstm&#45;dev/stamp&#45;0.9.10/lib/set.h</title>
<!-- Node1 -->
<g id="node1" class="node"><title>Node1</title>
<polygon fill="#bfbfbf" stroke="black" points="30.5,-169 30.5,-199 137.5,-199 137.5,-169 30.5,-169"/>
<text text-anchor="start" x="38.5" y="-187" font-family="Helvetica,sans-Serif" font-size="10.00">rstm/rstm&#45;dev/stamp</text>
<text text-anchor="middle" x="84" y="-176" font-family="Helvetica,sans-Serif" font-size="10.00">&#45;0.9.10/lib/set.h</text>
</g>
<!-- Node2 -->
<g id="node2" class="node"><title>Node2</title>
<polygon fill="none" stroke="#bfbfbf" points="0,-112.5 0,-131.5 48,-131.5 48,-112.5 0,-112.5"/>
<text text-anchor="middle" x="24" y="-119.5" font-family="Helvetica,sans-Serif" font-size="10.00">stdlib.h</text>
</g>
<!-- Node1&#45;&gt;Node2 -->
<g id="edge1" class="edge"><title>Node1&#45;&gt;Node2</title>
<path fill="none" stroke="midnightblue" d="M69.7808,-168.781C60.7925,-159.792 49.162,-148.162 39.8731,-138.873"/>
<polygon fill="midnightblue" stroke="midnightblue" points="42.2765,-136.327 32.7305,-131.731 37.3267,-141.277 42.2765,-136.327"/>
</g>
<!-- Node3 -->
<g id="node3" class="node"><title>Node3</title>
<g id="a_node3"><a xlink:href="tm_8h.html" target="_top" xlink:title="tm.h">
<polygon fill="none" stroke="black" points="66,-112.5 66,-131.5 102,-131.5 102,-112.5 66,-112.5"/>
<text text-anchor="middle" x="84" y="-119.5" font-family="Helvetica,sans-Serif" font-size="10.00">tm.h</text>
</a>
</g>
</g>
<!-- Node1&#45;&gt;Node3 -->
<g id="edge2" class="edge"><title>Node1&#45;&gt;Node3</title>
<path fill="none" stroke="midnightblue" d="M84,-168.781C84,-160.781 84,-150.689 84,-142.017"/>
<polygon fill="midnightblue" stroke="midnightblue" points="87.5001,-141.73 84,-131.731 80.5001,-141.731 87.5001,-141.73"/>
</g>
<!-- Node7 -->
<g id="node7" class="node"><title>Node7</title>
<g id="a_node7"><a xlink:href="types_8h.html" target="_top" xlink:title="types.h">
<polygon fill="none" stroke="black" points="120.5,-112.5 120.5,-131.5 169.5,-131.5 169.5,-112.5 120.5,-112.5"/>
<text text-anchor="middle" x="145" y="-119.5" font-family="Helvetica,sans-Serif" font-size="10.00">types.h</text>
</a>
</g>
</g>
<!-- Node1&#45;&gt;Node7 -->
<g id="edge6" class="edge"><title>Node1&#45;&gt;Node7</title>
<path fill="none" stroke="midnightblue" d="M98.4561,-168.781C107.594,-159.792 119.419,-148.162 128.862,-138.873"/>
<polygon fill="midnightblue" stroke="midnightblue" points="131.449,-141.238 136.124,-131.731 126.54,-136.248 131.449,-141.238"/>
</g>
<!-- Node4 -->
<g id="node4" class="node"><title>Node4</title>
<polygon fill="none" stroke="#bfbfbf" points="28,-56.5 28,-75.5 74,-75.5 74,-56.5 28,-56.5"/>
<text text-anchor="middle" x="51" y="-63.5" font-family="Helvetica,sans-Serif" font-size="10.00">stdio.h</text>
</g>
<!-- Node3&#45;&gt;Node4 -->
<g id="edge3" class="edge"><title>Node3&#45;&gt;Node4</title>
<path fill="none" stroke="midnightblue" d="M78.5507,-112.083C73.9855,-104.613 67.3316,-93.7244 61.7066,-84.5199"/>
<polygon fill="midnightblue" stroke="midnightblue" points="64.5489,-82.4588 56.3479,-75.7511 58.5759,-86.109 64.5489,-82.4588"/>
</g>
<!-- Node5 -->
<g id="node5" class="node"><title>Node5</title>
<g id="a_node5"><a xlink:href="assert_8h.html" target="_top" xlink:title="assert.h">
<polygon fill="none" stroke="black" points="92,-56.5 92,-75.5 144,-75.5 144,-56.5 92,-56.5"/>
<text text-anchor="middle" x="118" y="-63.5" font-family="Helvetica,sans-Serif" font-size="10.00">assert.h</text>
</a>
</g>
</g>
<!-- Node3&#45;&gt;Node5 -->
<g id="edge4" class="edge"><title>Node3&#45;&gt;Node5</title>
<path fill="none" stroke="midnightblue" d="M89.6144,-112.083C94.3674,-104.534 101.318,-93.4948 107.152,-84.2298"/>
<polygon fill="midnightblue" stroke="midnightblue" points="110.124,-86.0783 112.49,-75.7511 104.2,-82.3486 110.124,-86.0783"/>
</g>
<!-- Node6 -->
<g id="node6" class="node"><title>Node6</title>
<polygon fill="none" stroke="#bfbfbf" points="92.5,-0.5 92.5,-19.5 143.5,-19.5 143.5,-0.5 92.5,-0.5"/>
<text text-anchor="middle" x="118" y="-7.5" font-family="Helvetica,sans-Serif" font-size="10.00">config.h</text>
</g>
<!-- Node5&#45;&gt;Node6 -->
<g id="edge5" class="edge"><title>Node5&#45;&gt;Node6</title>
<path fill="none" stroke="midnightblue" d="M118,-56.083C118,-49.0059 118,-38.8611 118,-29.9865"/>
<polygon fill="midnightblue" stroke="midnightblue" points="121.5,-29.751 118,-19.7511 114.5,-29.7511 121.5,-29.751"/>
</g>
</g>
</svg>
