<?xml version="1.0" encoding="UTF-8" standalone="no"?>
<!DOCTYPE svg PUBLIC "-//W3C//DTD SVG 1.1//EN"
 "http://www.w3.org/Graphics/SVG/1.1/DTD/svg11.dtd">
<!-- Generated by graphviz version 2.36.0 (20140111.2315)
 -->
<!-- Title: hull_edge Pages: 1 -->
<svg width="600pt" height="84pt"
 viewBox="0.00 0.00 600.00 84.00" xmlns="http://www.w3.org/2000/svg" xmlns:xlink="http://www.w3.org/1999/xlink">
<g id="graph0" class="graph" transform="scale(1 1) rotate(0) translate(4 80)">
<title>hull_edge</title>
<!-- Node1 -->
<g id="node1" class="node"><title>Node1</title>
<polygon fill="#bfbfbf" stroke="black" points="0,-19.5 0,-38.5 58,-38.5 58,-19.5 0,-19.5"/>
<text text-anchor="middle" x="29" y="-26.5" font-family="Helvetica,sans-Serif" font-size="10.00">hull_edge</text>
</g>
<!-- Node2 -->
<g id="node2" class="node"><title>Node2</title>
<g id="a_node2"><a xlink:href="structpv__side.html#a163c81bef5a8989bb0f307e7ce72f555" target="_top" xlink:title="pv_side::initialize">
<polygon fill="none" stroke="black" points="94,-38.5 94,-57.5 186,-57.5 186,-38.5 94,-38.5"/>
<text text-anchor="middle" x="140" y="-45.5" font-family="Helvetica,sans-Serif" font-size="10.00">pv_side::initialize</text>
</a>
</g>
</g>
<!-- Node1&#45;&gt;Node2 -->
<g id="edge1" class="edge"><title>Node1&#45;&gt;Node2</title>
<path fill="none" stroke="midnightblue" d="M68.156,-35.6511C76.4016,-37.0884 85.1972,-38.6215 93.6866,-40.1013"/>
<polygon fill="midnightblue" stroke="midnightblue" points="68.5227,-32.1623 58.0702,-33.893 67.3206,-39.0583 68.5227,-32.1623"/>
</g>
<!-- Node6 -->
<g id="node6" class="node"><title>Node6</title>
<g id="a_node6"><a xlink:href="worker_8cpp.html#a4d3d5d6b1446463eca81bdd1106ef943" target="_top" xlink:title="do_work">
<polygon fill="none" stroke="black" points="408.5,-0.5 408.5,-19.5 461.5,-19.5 461.5,-0.5 408.5,-0.5"/>
<text text-anchor="middle" x="435" y="-7.5" font-family="Helvetica,sans-Serif" font-size="10.00">do_work</text>
</a>
</g>
</g>
<!-- Node1&#45;&gt;Node6 -->
<g id="edge8" class="edge"><title>Node1&#45;&gt;Node6</title>
<path fill="none" stroke="midnightblue" d="M68.4335,-27.1925C150.23,-23.3456 339.68,-14.4359 408.462,-11.201"/>
<polygon fill="midnightblue" stroke="midnightblue" points="67.9122,-23.713 58.0877,-27.679 68.2412,-30.7053 67.9122,-23.713"/>
</g>
<!-- Node3 -->
<g id="node3" class="node"><title>Node3</title>
<g id="a_node3"><a xlink:href="dwyer_8cpp.html#ac5af40cdd517beac7515468404be6c72" target="_top" xlink:title="stitch">
<polygon fill="none" stroke="black" points="222.5,-38.5 222.5,-57.5 263.5,-57.5 263.5,-38.5 222.5,-38.5"/>
<text text-anchor="middle" x="243" y="-45.5" font-family="Helvetica,sans-Serif" font-size="10.00">stitch</text>
</a>
</g>
</g>
<!-- Node2&#45;&gt;Node3 -->
<g id="edge2" class="edge"><title>Node2&#45;&gt;Node3</title>
<path fill="none" stroke="midnightblue" d="M196.346,-48C205.688,-48 214.807,-48 222.408,-48"/>
<polygon fill="midnightblue" stroke="midnightblue" points="196.183,-44.5001 186.183,-48 196.183,-51.5001 196.183,-44.5001"/>
</g>
<!-- Node4 -->
<g id="node4" class="node"><title>Node4</title>
<g id="a_node4"><a xlink:href="dwyer_8hpp.html#af02e2aa3c0f40c330c2d1bc03ad9438a" target="_top" xlink:title="dwyer_solve">
<polygon fill="none" stroke="black" points="300.5,-38.5 300.5,-57.5 371.5,-57.5 371.5,-38.5 300.5,-38.5"/>
<text text-anchor="middle" x="336" y="-45.5" font-family="Helvetica,sans-Serif" font-size="10.00">dwyer_solve</text>
</a>
</g>
</g>
<!-- Node3&#45;&gt;Node4 -->
<g id="edge3" class="edge"><title>Node3&#45;&gt;Node4</title>
<path fill="none" stroke="midnightblue" d="M273.884,-48C282.313,-48 291.556,-48 300.244,-48"/>
<polygon fill="midnightblue" stroke="midnightblue" points="273.746,-44.5001 263.746,-48 273.746,-51.5001 273.746,-44.5001"/>
</g>
<!-- Node4&#45;&gt;Node4 -->
<g id="edge4" class="edge"><title>Node4&#45;&gt;Node4</title>
<path fill="none" stroke="midnightblue" d="M318.964,-67.4C320.102,-72.3146 325.78,-76 336,-76 352.352,-76 357.078,-66.5653 350.18,-57.7571"/>
<polygon fill="midnightblue" stroke="midnightblue" points="322.336,-68.3393 321.82,-57.7571 315.624,-66.3512 322.336,-68.3393"/>
</g>
<!-- Node5 -->
<g id="node5" class="node"><title>Node5</title>
<g id="a_node5"><a xlink:href="mesh_8cpp.html#a0ddf1224851353fc92bfbff6f499fa97" target="_top" xlink:title="main">
<polygon fill="none" stroke="black" points="416,-38.5 416,-57.5 454,-57.5 454,-38.5 416,-38.5"/>
<text text-anchor="middle" x="435" y="-45.5" font-family="Helvetica,sans-Serif" font-size="10.00">main</text>
</a>
</g>
</g>
<!-- Node4&#45;&gt;Node5 -->
<g id="edge5" class="edge"><title>Node4&#45;&gt;Node5</title>
<path fill="none" stroke="midnightblue" d="M382.087,-48C394.019,-48 406.228,-48 415.806,-48"/>
<polygon fill="midnightblue" stroke="midnightblue" points="381.745,-44.5001 371.745,-48 381.745,-51.5001 381.745,-44.5001"/>
</g>
<!-- Node4&#45;&gt;Node6 -->
<g id="edge6" class="edge"><title>Node4&#45;&gt;Node6</title>
<path fill="none" stroke="midnightblue" d="M370.86,-34.7354C383.594,-29.7467 397.814,-24.1759 409.531,-19.5859"/>
<polygon fill="midnightblue" stroke="midnightblue" points="369.512,-31.5045 361.477,-38.411 372.065,-38.0222 369.512,-31.5045"/>
</g>
<!-- Node7 -->
<g id="node7" class="node"><title>Node7</title>
<g id="a_node7"><a xlink:href="classworker.html#a7b7d6866de64fc583693899b65cb12bc" target="_top" xlink:title="worker::operator()">
<polygon fill="none" stroke="black" points="498.5,-0.5 498.5,-19.5 591.5,-19.5 591.5,-0.5 498.5,-0.5"/>
<text text-anchor="middle" x="545" y="-7.5" font-family="Helvetica,sans-Serif" font-size="10.00">worker::operator()</text>
</a>
</g>
</g>
<!-- Node6&#45;&gt;Node7 -->
<g id="edge7" class="edge"><title>Node6&#45;&gt;Node7</title>
<path fill="none" stroke="midnightblue" d="M471.596,-10C480.134,-10 489.37,-10 498.296,-10"/>
<polygon fill="midnightblue" stroke="midnightblue" points="471.595,-6.5001 461.594,-10 471.594,-13.5001 471.595,-6.5001"/>
</g>
</g>
</svg>
