<?xml version="1.0" encoding="UTF-8" standalone="no"?>
<!DOCTYPE svg PUBLIC "-//W3C//DTD SVG 1.1//EN"
 "http://www.w3.org/Graphics/SVG/1.1/DTD/svg11.dtd">
<!-- Generated by graphviz version 2.36.0 (20140111.2315)
 -->
<!-- Title: read_stm_blk Pages: 1 -->
<svg width="1308pt" height="484pt"
 viewBox="0.00 0.00 1308.00 484.00" xmlns="http://www.w3.org/2000/svg" xmlns:xlink="http://www.w3.org/1999/xlink">
<g id="graph0" class="graph" transform="scale(1 1) rotate(0) translate(4 480)">
<title>read_stm_blk</title>
<!-- Node1 -->
<g id="node1" class="node"><title>Node1</title>
<polygon fill="#bfbfbf" stroke="black" points="0.5,-76.5 0.5,-95.5 75.5,-95.5 75.5,-76.5 0.5,-76.5"/>
<text text-anchor="middle" x="38" y="-83.5" font-family="Helvetica,sans-Serif" font-size="10.00">read_stm_blk</text>
</g>
<!-- Node2 -->
<g id="node2" class="node"><title>Node2</title>
<g id="a_node2"><a xlink:href="stmskip_8cc.html#aa82848b11e972b9339ceadb6816cdb6a" target="_top" xlink:title="search_predecessors">
<polygon fill="none" stroke="black" points="112,-76.5 112,-95.5 222,-95.5 222,-76.5 112,-76.5"/>
<text text-anchor="middle" x="167" y="-83.5" font-family="Helvetica,sans-Serif" font-size="10.00">search_predecessors</text>
</a>
</g>
</g>
<!-- Node1&#45;&gt;Node2 -->
<g id="edge1" class="edge"><title>Node1&#45;&gt;Node2</title>
<path fill="none" stroke="midnightblue" d="M85.8181,-86C94.2959,-86 103.201,-86 111.867,-86"/>
<polygon fill="midnightblue" stroke="midnightblue" points="85.7337,-82.5001 75.7337,-86 85.7336,-89.5001 85.7337,-82.5001"/>
</g>
<!-- Node3 -->
<g id="node3" class="node"><title>Node3</title>
<g id="a_node3"><a xlink:href="stmskip_8cc.html#ad17c6ea2fd390c2dd637a34fdeb0b3df" target="_top" xlink:title="stmskip_update">
<polygon fill="none" stroke="black" points="260,-114.5 260,-133.5 346,-133.5 346,-114.5 260,-114.5"/>
<text text-anchor="middle" x="303" y="-121.5" font-family="Helvetica,sans-Serif" font-size="10.00">stmskip_update</text>
</a>
</g>
</g>
<!-- Node2&#45;&gt;Node3 -->
<g id="edge2" class="edge"><title>Node2&#45;&gt;Node3</title>
<path fill="none" stroke="midnightblue" d="M211.438,-98.3183C229.849,-103.539 250.98,-109.532 268.197,-114.414"/>
<polygon fill="midnightblue" stroke="midnightblue" points="212.389,-94.9501 201.814,-95.589 210.48,-101.685 212.389,-94.9501"/>
</g>
<!-- Node41 -->
<g id="node41" class="node"><title>Node41</title>
<g id="a_node41"><a xlink:href="stmskip_8cc.html#a3925aa5d2590fc57854aa9d670f58e4d" target="_top" xlink:title="stmskip_remove">
<polygon fill="none" stroke="black" points="258.5,-76.5 258.5,-95.5 347.5,-95.5 347.5,-76.5 258.5,-76.5"/>
<text text-anchor="middle" x="303" y="-83.5" font-family="Helvetica,sans-Serif" font-size="10.00">stmskip_remove</text>
</a>
</g>
</g>
<!-- Node2&#45;&gt;Node41 -->
<g id="edge46" class="edge"><title>Node2&#45;&gt;Node41</title>
<path fill="none" stroke="midnightblue" d="M232.391,-86C241.198,-86 250.065,-86 258.383,-86"/>
<polygon fill="midnightblue" stroke="midnightblue" points="232.117,-82.5001 222.117,-86 232.117,-89.5001 232.117,-82.5001"/>
</g>
<!-- Node42 -->
<g id="node42" class="node"><title>Node42</title>
<g id="a_node42"><a xlink:href="stmskip_8cc.html#a09de30bf6124d9640899b27c93b49471" target="_top" xlink:title="stmskip_lookup">
<polygon fill="none" stroke="black" points="260.5,-38.5 260.5,-57.5 345.5,-57.5 345.5,-38.5 260.5,-38.5"/>
<text text-anchor="middle" x="303" y="-45.5" font-family="Helvetica,sans-Serif" font-size="10.00">stmskip_lookup</text>
</a>
</g>
</g>
<!-- Node2&#45;&gt;Node42 -->
<g id="edge48" class="edge"><title>Node2&#45;&gt;Node42</title>
<path fill="none" stroke="midnightblue" d="M211.438,-73.6817C229.849,-68.4607 250.98,-62.4684 268.197,-57.5859"/>
<polygon fill="midnightblue" stroke="midnightblue" points="210.48,-70.3155 201.814,-76.411 212.389,-77.0499 210.48,-70.3155"/>
</g>
<!-- Node4 -->
<g id="node4" class="node"><title>Node4</title>
<g id="a_node4"><a xlink:href="stmskip_8cc.html#a9ab04b9e875013b4d2dd249d0c97dce5" target="_top" xlink:title="for">
<polygon fill="none" stroke="black" points="384.5,-76.5 384.5,-95.5 413.5,-95.5 413.5,-76.5 384.5,-76.5"/>
<text text-anchor="middle" x="399" y="-83.5" font-family="Helvetica,sans-Serif" font-size="10.00">for</text>
</a>
</g>
</g>
<!-- Node3&#45;&gt;Node4 -->
<g id="edge3" class="edge"><title>Node3&#45;&gt;Node4</title>
<path fill="none" stroke="midnightblue" d="M337.434,-110.484C353.649,-103.929 372.22,-96.4219 384.476,-91.4672"/>
<polygon fill="midnightblue" stroke="midnightblue" points="335.679,-107.418 327.72,-114.411 338.303,-113.908 335.679,-107.418"/>
</g>
<!-- Node5 -->
<g id="node5" class="node"><title>Node5</title>
<g id="a_node5"><a xlink:href="heap_8h.html#a9c77dbc94ac2daa5b202375477e26188" target="_top" xlink:title="heap_isValid">
<polygon fill="none" stroke="black" points="457,-190.5 457,-209.5 529,-209.5 529,-190.5 457,-190.5"/>
<text text-anchor="middle" x="493" y="-197.5" font-family="Helvetica,sans-Serif" font-size="10.00">heap_isValid</text>
</a>
</g>
</g>
<!-- Node4&#45;&gt;Node5 -->
<g id="edge4" class="edge"><title>Node4&#45;&gt;Node5</title>
<path fill="none" stroke="midnightblue" d="M405.95,-105.407C413.28,-126.461 427.588,-159.887 450,-181 453.961,-184.732 458.781,-187.821 463.725,-190.347"/>
<polygon fill="midnightblue" stroke="midnightblue" points="409.193,-104.063 402.747,-95.6548 402.542,-106.248 409.193,-104.063"/>
</g>
<!-- Node6 -->
<g id="node6" class="node"><title>Node6</title>
<g id="a_node6"><a xlink:href="list_8c.html#a3ed9de59a6e4cd353dee80f797da7a19" target="_top" xlink:title="findPrevious">
<polygon fill="none" stroke="black" points="457.5,-152.5 457.5,-171.5 528.5,-171.5 528.5,-152.5 457.5,-152.5"/>
<text text-anchor="middle" x="493" y="-159.5" font-family="Helvetica,sans-Serif" font-size="10.00">findPrevious</text>
</a>
</g>
</g>
<!-- Node4&#45;&gt;Node6 -->
<g id="edge5" class="edge"><title>Node4&#45;&gt;Node6</title>
<path fill="none" stroke="midnightblue" d="M419.463,-102.078C437.956,-117.355 465.145,-139.816 480.443,-152.453"/>
<polygon fill="midnightblue" stroke="midnightblue" points="421.591,-99.2959 411.652,-95.6255 417.132,-104.693 421.591,-99.2959"/>
</g>
<!-- Node35 -->
<g id="node35" class="node"><title>Node35</title>
<g id="a_node35"><a xlink:href="list_8c.html#abae8c22f79c73d231c8ddd9b795e47d9" target="_top" xlink:title="TMfindPrevious">
<polygon fill="none" stroke="black" points="450.5,-76.5 450.5,-95.5 535.5,-95.5 535.5,-76.5 450.5,-76.5"/>
<text text-anchor="middle" x="493" y="-83.5" font-family="Helvetica,sans-Serif" font-size="10.00">TMfindPrevious</text>
</a>
</g>
</g>
<!-- Node4&#45;&gt;Node35 -->
<g id="edge40" class="edge"><title>Node4&#45;&gt;Node35</title>
<path fill="none" stroke="midnightblue" d="M423.792,-86C431.941,-86 441.313,-86 450.449,-86"/>
<polygon fill="midnightblue" stroke="midnightblue" points="423.575,-82.5001 413.575,-86 423.575,-89.5001 423.575,-82.5001"/>
</g>
<!-- Node39 -->
<g id="node39" class="node"><title>Node39</title>
<g id="a_node39"><a xlink:href="rbtree_8c.html#a14bd83586612336b5eb09f902e95b02f" target="_top" xlink:title="insert">
<polygon fill="none" stroke="black" points="472.5,-38.5 472.5,-57.5 513.5,-57.5 513.5,-38.5 472.5,-38.5"/>
<text text-anchor="middle" x="493" y="-45.5" font-family="Helvetica,sans-Serif" font-size="10.00">insert</text>
</a>
</g>
</g>
<!-- Node4&#45;&gt;Node39 -->
<g id="edge44" class="edge"><title>Node4&#45;&gt;Node39</title>
<path fill="none" stroke="midnightblue" d="M423.227,-76.4063C438.352,-70.1592 457.869,-62.0976 472.246,-56.1592"/>
<polygon fill="midnightblue" stroke="midnightblue" points="421.481,-73.3404 413.575,-80.393 424.154,-79.8102 421.481,-73.3404"/>
</g>
<!-- Node40 -->
<g id="node40" class="node"><title>Node40</title>
<g id="a_node40"><a xlink:href="rbtree_8c.html#a47dc2cb2c9de9c39f968f120e1fe9ed4" target="_top" xlink:title="TMinsert">
<polygon fill="none" stroke="black" points="465.5,-0.5 465.5,-19.5 520.5,-19.5 520.5,-0.5 465.5,-0.5"/>
<text text-anchor="middle" x="493" y="-7.5" font-family="Helvetica,sans-Serif" font-size="10.00">TMinsert</text>
</a>
</g>
</g>
<!-- Node4&#45;&gt;Node40 -->
<g id="edge45" class="edge"><title>Node4&#45;&gt;Node40</title>
<path fill="none" stroke="midnightblue" d="M412.371,-68.2591C421.625,-55.9948 435.192,-39.9741 450,-29 454.887,-25.3785 460.574,-22.2327 466.155,-19.5993"/>
<polygon fill="midnightblue" stroke="midnightblue" points="409.5,-66.2564 406.439,-76.3996 415.157,-70.3789 409.5,-66.2564"/>
</g>
<!-- Node7 -->
<g id="node7" class="node"><title>Node7</title>
<g id="a_node7"><a xlink:href="list_8h.html#a1379a3cf001369bd5979fe53160640f5" target="_top" xlink:title="list_find">
<polygon fill="none" stroke="black" points="588,-152.5 588,-171.5 638,-171.5 638,-152.5 588,-152.5"/>
<text text-anchor="middle" x="613" y="-159.5" font-family="Helvetica,sans-Serif" font-size="10.00">list_find</text>
</a>
</g>
</g>
<!-- Node6&#45;&gt;Node7 -->
<g id="edge6" class="edge"><title>Node6&#45;&gt;Node7</title>
<path fill="none" stroke="midnightblue" d="M538.89,-162C555.565,-162 573.837,-162 587.943,-162"/>
<polygon fill="midnightblue" stroke="midnightblue" points="538.766,-158.5 528.766,-162 538.766,-165.5 538.766,-158.5"/>
</g>
<!-- Node14 -->
<g id="node14" class="node"><title>Node14</title>
<g id="a_node14"><a xlink:href="list_8h.html#a06249cb6bbda6b10f5777b96a6c122f9" target="_top" xlink:title="list_insert">
<polygon fill="none" stroke="black" points="583.5,-342.5 583.5,-361.5 642.5,-361.5 642.5,-342.5 583.5,-342.5"/>
<text text-anchor="middle" x="613" y="-349.5" font-family="Helvetica,sans-Serif" font-size="10.00">list_insert</text>
</a>
</g>
</g>
<!-- Node6&#45;&gt;Node14 -->
<g id="edge14" class="edge"><title>Node6&#45;&gt;Node14</title>
<path fill="none" stroke="midnightblue" d="M531.481,-177.062C533.085,-178.284 534.604,-179.595 536,-181 542.239,-187.281 592.964,-306.867 607.886,-342.23"/>
<polygon fill="midnightblue" stroke="midnightblue" points="533.241,-174.034 522.913,-171.67 529.513,-179.958 533.241,-174.034"/>
</g>
<!-- Node30 -->
<g id="node30" class="node"><title>Node30</title>
<g id="a_node30"><a xlink:href="list_8h.html#a857fdaea81fb44b5918c9d446707f23e" target="_top" xlink:title="Plist_insert">
<polygon fill="none" stroke="black" points="580.5,-228.5 580.5,-247.5 645.5,-247.5 645.5,-228.5 580.5,-228.5"/>
<text text-anchor="middle" x="613" y="-235.5" font-family="Helvetica,sans-Serif" font-size="10.00">Plist_insert</text>
</a>
</g>
</g>
<!-- Node6&#45;&gt;Node30 -->
<g id="edge32" class="edge"><title>Node6&#45;&gt;Node30</title>
<path fill="none" stroke="midnightblue" d="M528.42,-176.208C531.057,-177.703 533.616,-179.303 536,-181 554.953,-194.491 553.173,-205.333 572,-219 576.853,-222.523 582.462,-225.663 587.916,-228.326"/>
<polygon fill="midnightblue" stroke="midnightblue" points="529.798,-172.981 519.303,-171.533 526.604,-179.21 529.798,-172.981"/>
</g>
<!-- Node31 -->
<g id="node31" class="node"><title>Node31</title>
<g id="a_node31"><a xlink:href="list_8h.html#af5a09f2dc4e901d1c8052e282d4d87d3" target="_top" xlink:title="list_remove">
<polygon fill="none" stroke="black" points="579.5,-114.5 579.5,-133.5 646.5,-133.5 646.5,-114.5 579.5,-114.5"/>
<text text-anchor="middle" x="613" y="-121.5" font-family="Helvetica,sans-Serif" font-size="10.00">list_remove</text>
</a>
</g>
</g>
<!-- Node6&#45;&gt;Node31 -->
<g id="edge33" class="edge"><title>Node6&#45;&gt;Node31</title>
<path fill="none" stroke="midnightblue" d="M533.376,-149.32C549.32,-144.185 567.421,-138.356 582.233,-133.586"/>
<polygon fill="midnightblue" stroke="midnightblue" points="532.222,-146.014 523.776,-152.411 534.368,-152.677 532.222,-146.014"/>
</g>
<!-- Node34 -->
<g id="node34" class="node"><title>Node34</title>
<g id="a_node34"><a xlink:href="list_8h.html#a1fa145871fd1d110f892094bbc153cbf" target="_top" xlink:title="Plist_remove">
<polygon fill="none" stroke="black" points="576,-190.5 576,-209.5 650,-209.5 650,-190.5 576,-190.5"/>
<text text-anchor="middle" x="613" y="-197.5" font-family="Helvetica,sans-Serif" font-size="10.00">Plist_remove</text>
</a>
</g>
</g>
<!-- Node6&#45;&gt;Node34 -->
<g id="edge39" class="edge"><title>Node6&#45;&gt;Node34</title>
<path fill="none" stroke="midnightblue" d="M533.376,-174.68C549.32,-179.815 567.421,-185.644 582.233,-190.414"/>
<polygon fill="midnightblue" stroke="midnightblue" points="534.368,-171.323 523.776,-171.589 532.222,-177.986 534.368,-171.323"/>
</g>
<!-- Node8 -->
<g id="node8" class="node"><title>Node8</title>
<g id="a_node8"><a xlink:href="hashtable_8h.html#ac641ace1e3d79ee78d271d999df92db9" target="_top" xlink:title="hashtable_containsKey">
<polygon fill="none" stroke="black" points="690,-228.5 690,-247.5 808,-247.5 808,-228.5 690,-228.5"/>
<text text-anchor="middle" x="749" y="-235.5" font-family="Helvetica,sans-Serif" font-size="10.00">hashtable_containsKey</text>
</a>
</g>
</g>
<!-- Node7&#45;&gt;Node8 -->
<g id="edge7" class="edge"><title>Node7&#45;&gt;Node8</title>
<path fill="none" stroke="midnightblue" d="M647.022,-176.456C649.447,-177.886 651.801,-179.404 654,-181 672.827,-194.667 670.345,-206.554 690,-219 695.998,-222.798 702.829,-225.909 709.647,-228.434"/>
<polygon fill="midnightblue" stroke="midnightblue" points="648.553,-173.305 638.084,-171.674 645.251,-179.477 648.553,-173.305"/>
</g>
<!-- Node9 -->
<g id="node9" class="node"><title>Node9</title>
<g id="a_node9"><a xlink:href="hashtable_8h.html#a686d66befe855b80c215e27cb2e9343e" target="_top" xlink:title="hashtable_find">
<polygon fill="none" stroke="black" points="709,-190.5 709,-209.5 789,-209.5 789,-190.5 709,-190.5"/>
<text text-anchor="middle" x="749" y="-197.5" font-family="Helvetica,sans-Serif" font-size="10.00">hashtable_find</text>
</a>
</g>
</g>
<!-- Node7&#45;&gt;Node9 -->
<g id="edge8" class="edge"><title>Node7&#45;&gt;Node9</title>
<path fill="none" stroke="midnightblue" d="M648.054,-171.657C668.377,-177.42 694.085,-184.711 714.339,-190.454"/>
<polygon fill="midnightblue" stroke="midnightblue" points="648.842,-168.243 638.266,-168.882 646.932,-174.977 648.842,-168.243"/>
</g>
<!-- Node10 -->
<g id="node10" class="node"><title>Node10</title>
<g id="a_node10"><a xlink:href="hashtable_8h.html#a76f7704c9b87a69d6a94a01f06a65185" target="_top" xlink:title="hashtable_insert">
<polygon fill="none" stroke="black" points="705,-266.5 705,-285.5 793,-285.5 793,-266.5 705,-266.5"/>
<text text-anchor="middle" x="749" y="-273.5" font-family="Helvetica,sans-Serif" font-size="10.00">hashtable_insert</text>
</a>
</g>
</g>
<!-- Node7&#45;&gt;Node10 -->
<g id="edge9" class="edge"><title>Node7&#45;&gt;Node10</title>
<path fill="none" stroke="midnightblue" d="M647.04,-175.314C649.548,-177.018 651.912,-178.909 654,-181 680.414,-207.443 661.962,-232.285 690,-257 694.372,-260.854 699.542,-263.928 704.966,-266.381"/>
<polygon fill="midnightblue" stroke="midnightblue" points="648.56,-172.15 638.142,-170.219 645.082,-178.225 648.56,-172.15"/>
</g>
<!-- Node11 -->
<g id="node11" class="node"><title>Node11</title>
<g id="a_node11"><a xlink:href="hashtable_8h.html#a1097b4c3a3d33b866a55e103f49dee7b" target="_top" xlink:title="hashtable_remove">
<polygon fill="none" stroke="black" points="701,-114.5 701,-133.5 797,-133.5 797,-114.5 701,-114.5"/>
<text text-anchor="middle" x="749" y="-121.5" font-family="Helvetica,sans-Serif" font-size="10.00">hashtable_remove</text>
</a>
</g>
</g>
<!-- Node7&#45;&gt;Node11 -->
<g id="edge10" class="edge"><title>Node7&#45;&gt;Node11</title>
<path fill="none" stroke="midnightblue" d="M648.054,-152.343C668.377,-146.58 694.085,-139.289 714.339,-133.546"/>
<polygon fill="midnightblue" stroke="midnightblue" points="646.932,-149.023 638.266,-155.118 648.842,-155.757 646.932,-149.023"/>
</g>
<!-- Node12 -->
<g id="node12" class="node"><title>Node12</title>
<g id="a_node12"><a xlink:href="region_8c.html#afd9637f04d120aec5464b6304cfa0c99" target="_top" xlink:title="TMgrowRegion">
<polygon fill="none" stroke="black" points="707.5,-152.5 707.5,-171.5 790.5,-171.5 790.5,-152.5 707.5,-152.5"/>
<text text-anchor="middle" x="749" y="-159.5" font-family="Helvetica,sans-Serif" font-size="10.00">TMgrowRegion</text>
</a>
</g>
</g>
<!-- Node7&#45;&gt;Node12 -->
<g id="edge11" class="edge"><title>Node7&#45;&gt;Node12</title>
<path fill="none" stroke="midnightblue" d="M648.327,-162C666.327,-162 688.494,-162 707.349,-162"/>
<polygon fill="midnightblue" stroke="midnightblue" points="648.266,-158.5 638.266,-162 648.266,-165.5 648.266,-158.5"/>
</g>
<!-- Node13 -->
<g id="node13" class="node"><title>Node13</title>
<g id="a_node13"><a xlink:href="region_8h.html#a74d9ac41436518894e8e1bd6564ebf42" target="_top" xlink:title="TMregion_refine">
<polygon fill="none" stroke="black" points="870,-152.5 870,-171.5 956,-171.5 956,-152.5 870,-152.5"/>
<text text-anchor="middle" x="913" y="-159.5" font-family="Helvetica,sans-Serif" font-size="10.00">TMregion_refine</text>
</a>
</g>
</g>
<!-- Node12&#45;&gt;Node13 -->
<g id="edge12" class="edge"><title>Node12&#45;&gt;Node13</title>
<path fill="none" stroke="midnightblue" d="M801.083,-162C823.174,-162 848.718,-162 869.721,-162"/>
<polygon fill="midnightblue" stroke="midnightblue" points="800.879,-158.5 790.879,-162 800.879,-165.5 800.879,-158.5"/>
</g>
<!-- Node13&#45;&gt;Node13 -->
<g id="edge13" class="edge"><title>Node13&#45;&gt;Node13</title>
<path fill="none" stroke="midnightblue" d="M883.881,-180.654C885.098,-185.937 894.804,-190 913,-190 940.727,-190 948.741,-180.565 937.044,-171.757"/>
<polygon fill="midnightblue" stroke="midnightblue" points="887.041,-182.177 888.956,-171.757 880.961,-178.709 887.041,-182.177"/>
</g>
<!-- Node14&#45;&gt;Node10 -->
<g id="edge26" class="edge"><title>Node14&#45;&gt;Node10</title>
<path fill="none" stroke="midnightblue" d="M632.373,-335.491C647.088,-322.969 668.722,-306.079 690,-295 697.049,-291.33 704.946,-288.18 712.589,-285.559"/>
<polygon fill="midnightblue" stroke="midnightblue" points="629.813,-333.078 624.563,-342.281 634.406,-338.361 629.813,-333.078"/>
</g>
<!-- Node15 -->
<g id="node15" class="node"><title>Node15</title>
<g id="a_node15"><a xlink:href="net_8c.html#ad4f5f991dfc5667c5d75c5b353dbe974" target="_top" xlink:title="insertEdge">
<polygon fill="none" stroke="black" points="717.5,-380.5 717.5,-399.5 780.5,-399.5 780.5,-380.5 717.5,-380.5"/>
<text text-anchor="middle" x="749" y="-387.5" font-family="Helvetica,sans-Serif" font-size="10.00">insertEdge</text>
</a>
</g>
</g>
<!-- Node14&#45;&gt;Node15 -->
<g id="edge15" class="edge"><title>Node14&#45;&gt;Node15</title>
<path fill="none" stroke="midnightblue" d="M652.471,-362.91C673.097,-368.759 698.159,-375.866 717.437,-381.333"/>
<polygon fill="midnightblue" stroke="midnightblue" points="653.322,-359.513 642.746,-360.152 651.412,-366.247 653.322,-359.513"/>
</g>
<!-- Node21 -->
<g id="node21" class="node"><title>Node21</title>
<g id="a_node21"><a xlink:href="table_8h.html#a0cbbed1b3290a9074b455925972f670d" target="_top" xlink:title="table_insert">
<polygon fill="none" stroke="black" points="715.5,-342.5 715.5,-361.5 782.5,-361.5 782.5,-342.5 715.5,-342.5"/>
<text text-anchor="middle" x="749" y="-349.5" font-family="Helvetica,sans-Serif" font-size="10.00">table_insert</text>
</a>
</g>
</g>
<!-- Node14&#45;&gt;Node21 -->
<g id="edge22" class="edge"><title>Node14&#45;&gt;Node21</title>
<path fill="none" stroke="midnightblue" d="M652.932,-352C672.628,-352 696.274,-352 715.056,-352"/>
<polygon fill="midnightblue" stroke="midnightblue" points="652.746,-348.5 642.746,-352 652.746,-355.5 652.746,-348.5"/>
</g>
<!-- Node22 -->
<g id="node22" class="node"><title>Node22</title>
<g id="a_node22"><a xlink:href="decoder_8h.html#a92136c16eda5a24a0eb6c60b9f96244a" target="_top" xlink:title="decoder_process">
<polygon fill="none" stroke="black" points="703.5,-304.5 703.5,-323.5 794.5,-323.5 794.5,-304.5 703.5,-304.5"/>
<text text-anchor="middle" x="749" y="-311.5" font-family="Helvetica,sans-Serif" font-size="10.00">decoder_process</text>
</a>
</g>
</g>
<!-- Node14&#45;&gt;Node22 -->
<g id="edge23" class="edge"><title>Node14&#45;&gt;Node22</title>
<path fill="none" stroke="midnightblue" d="M652.51,-341.079C671.954,-335.565 695.331,-328.936 714.089,-323.617"/>
<polygon fill="midnightblue" stroke="midnightblue" points="651.412,-337.753 642.746,-343.848 653.322,-344.487 651.412,-337.753"/>
</g>
<!-- Node23 -->
<g id="node23" class="node"><title>Node23</title>
<g id="a_node23"><a xlink:href="maze_8h.html#a2135cee3a633084c9456873cb7746e0e" target="_top" xlink:title="maze_read">
<polygon fill="none" stroke="black" points="716.5,-456.5 716.5,-475.5 781.5,-475.5 781.5,-456.5 716.5,-456.5"/>
<text text-anchor="middle" x="749" y="-463.5" font-family="Helvetica,sans-Serif" font-size="10.00">maze_read</text>
</a>
</g>
</g>
<!-- Node14&#45;&gt;Node23 -->
<g id="edge24" class="edge"><title>Node14&#45;&gt;Node23</title>
<path fill="none" stroke="midnightblue" d="M624.18,-370.372C636.913,-391.731 660.65,-426.647 690,-447 697.837,-452.434 707.332,-456.396 716.35,-459.249"/>
<polygon fill="midnightblue" stroke="midnightblue" points="627.155,-368.524 619.124,-361.613 621.093,-372.024 627.155,-368.524"/>
</g>
<!-- Node25 -->
<g id="node25" class="node"><title>Node25</title>
<g id="a_node25"><a xlink:href="element_8h.html#af31cf5d6a12660d258214d8483df8c1d" target="_top" xlink:title="element_addNeighbor">
<polygon fill="none" stroke="black" points="693.5,-418.5 693.5,-437.5 804.5,-437.5 804.5,-418.5 693.5,-418.5"/>
<text text-anchor="middle" x="749" y="-425.5" font-family="Helvetica,sans-Serif" font-size="10.00">element_addNeighbor</text>
</a>
</g>
</g>
<!-- Node14&#45;&gt;Node25 -->
<g id="edge27" class="edge"><title>Node14&#45;&gt;Node25</title>
<path fill="none" stroke="midnightblue" d="M632.373,-368.509C647.088,-381.031 668.722,-397.921 690,-409 697.049,-412.67 704.946,-415.82 712.589,-418.441"/>
<polygon fill="midnightblue" stroke="midnightblue" points="634.406,-365.639 624.563,-361.719 629.813,-370.922 634.406,-365.639"/>
</g>
<!-- Node16 -->
<g id="node16" class="node"><title>Node16</title>
<g id="a_node16"><a xlink:href="net_8c.html#a456ce4308d1d5e4f0a816165f0d1b9ac" target="_top" xlink:title="reverseEdge">
<polygon fill="none" stroke="black" points="877.5,-232.5 877.5,-251.5 948.5,-251.5 948.5,-232.5 877.5,-232.5"/>
<text text-anchor="middle" x="913" y="-239.5" font-family="Helvetica,sans-Serif" font-size="10.00">reverseEdge</text>
</a>
</g>
</g>
<!-- Node15&#45;&gt;Node16 -->
<g id="edge16" class="edge"><title>Node15&#45;&gt;Node16</title>
<path fill="none" stroke="midnightblue" d="M790.411,-380.803C796.677,-378.271 802.79,-375.061 808,-371 831.633,-352.581 825.627,-337.669 844,-314 862.555,-290.096 887.738,-265.029 901.665,-251.696"/>
<polygon fill="midnightblue" stroke="midnightblue" points="788.831,-377.647 780.545,-384.25 791.14,-384.256 788.831,-377.647"/>
</g>
<!-- Node17 -->
<g id="node17" class="node"><title>Node17</title>
<g id="a_node17"><a xlink:href="net_8h.html#a7a2e0647373945c39b0efcdf78618993" target="_top" xlink:title="net_applyOperation">
<polygon fill="none" stroke="black" points="1018.5,-232.5 1018.5,-251.5 1119.5,-251.5 1119.5,-232.5 1018.5,-232.5"/>
<text text-anchor="middle" x="1069" y="-239.5" font-family="Helvetica,sans-Serif" font-size="10.00">net_applyOperation</text>
</a>
</g>
</g>
<!-- Node15&#45;&gt;Node17 -->
<g id="edge18" class="edge"><title>Node15&#45;&gt;Node17</title>
<path fill="none" stroke="midnightblue" d="M790.517,-377.556C796.431,-375.501 802.409,-373.289 808,-371 902.199,-332.437 1009.62,-274.413 1050.75,-251.65"/>
<polygon fill="midnightblue" stroke="midnightblue" points="789.066,-374.351 780.702,-380.854 791.296,-380.987 789.066,-374.351"/>
</g>
<!-- Node18 -->
<g id="node18" class="node"><title>Node18</title>
<g id="a_node18"><a xlink:href="net_8h.html#a7ac0b179e1d386a853aba9b4fffa369a" target="_top" xlink:title="net_generateRandomEdges">
<polygon fill="none" stroke="black" points="844.5,-380.5 844.5,-399.5 981.5,-399.5 981.5,-380.5 844.5,-380.5"/>
<text text-anchor="middle" x="913" y="-387.5" font-family="Helvetica,sans-Serif" font-size="10.00">net_generateRandomEdges</text>
</a>
</g>
</g>
<!-- Node15&#45;&gt;Node18 -->
<g id="edge19" class="edge"><title>Node15&#45;&gt;Node18</title>
<path fill="none" stroke="midnightblue" d="M791.04,-390C807.224,-390 826.248,-390 844.357,-390"/>
<polygon fill="midnightblue" stroke="midnightblue" points="790.852,-386.5 780.852,-390 790.852,-393.5 790.852,-386.5"/>
</g>
<!-- Node16&#45;&gt;Node17 -->
<g id="edge17" class="edge"><title>Node16&#45;&gt;Node17</title>
<path fill="none" stroke="midnightblue" d="M958.599,-242C977.311,-242 999.146,-242 1018.37,-242"/>
<polygon fill="midnightblue" stroke="midnightblue" points="958.561,-238.5 948.561,-242 958.561,-245.5 958.561,-238.5"/>
</g>
<!-- Node19 -->
<g id="node19" class="node"><title>Node19</title>
<g id="a_node19"><a xlink:href="data_8h.html#a0f45b98c6cac17904d9daf25fbdc1dc9" target="_top" xlink:title="data_generate">
<polygon fill="none" stroke="black" points="1030,-380.5 1030,-399.5 1108,-399.5 1108,-380.5 1030,-380.5"/>
<text text-anchor="middle" x="1069" y="-387.5" font-family="Helvetica,sans-Serif" font-size="10.00">data_generate</text>
</a>
</g>
</g>
<!-- Node18&#45;&gt;Node19 -->
<g id="edge20" class="edge"><title>Node18&#45;&gt;Node19</title>
<path fill="none" stroke="midnightblue" d="M991.64,-390C1004.87,-390 1018.07,-390 1029.68,-390"/>
<polygon fill="midnightblue" stroke="midnightblue" points="991.547,-386.5 981.547,-390 991.547,-393.5 991.547,-386.5"/>
</g>
<!-- Node20 -->
<g id="node20" class="node"><title>Node20</title>
<g id="a_node20"><a xlink:href="bayes_8c.html#a40c5c0b0d4eb7b59a91108269f69dc89" target="_top" xlink:title="MAIN">
<polygon fill="none" stroke="black" points="1168,-380.5 1168,-399.5 1210,-399.5 1210,-380.5 1168,-380.5"/>
<text text-anchor="middle" x="1189" y="-387.5" font-family="Helvetica,sans-Serif" font-size="10.00">MAIN</text>
</a>
</g>
</g>
<!-- Node19&#45;&gt;Node20 -->
<g id="edge21" class="edge"><title>Node19&#45;&gt;Node20</title>
<path fill="none" stroke="midnightblue" d="M1118.77,-390C1135.91,-390 1154.23,-390 1167.72,-390"/>
<polygon fill="midnightblue" stroke="midnightblue" points="1118.31,-386.5 1108.31,-390 1118.31,-393.5 1118.31,-386.5"/>
</g>
<!-- Node24 -->
<g id="node24" class="node"><title>Node24</title>
<g id="a_node24"><a xlink:href="labyrinth_8c.html#a40c5c0b0d4eb7b59a91108269f69dc89" target="_top" xlink:title="MAIN">
<polygon fill="none" stroke="black" points="892,-456.5 892,-475.5 934,-475.5 934,-456.5 892,-456.5"/>
<text text-anchor="middle" x="913" y="-463.5" font-family="Helvetica,sans-Serif" font-size="10.00">MAIN</text>
</a>
</g>
</g>
<!-- Node23&#45;&gt;Node24 -->
<g id="edge25" class="edge"><title>Node23&#45;&gt;Node24</title>
<path fill="none" stroke="midnightblue" d="M791.626,-466C823.741,-466 866.767,-466 891.727,-466"/>
<polygon fill="midnightblue" stroke="midnightblue" points="791.62,-462.5 781.62,-466 791.62,-469.5 791.62,-462.5"/>
</g>
<!-- Node26 -->
<g id="node26" class="node"><title>Node26</title>
<g id="a_node26"><a xlink:href="mesh_8h.html#aad7f19da2c7732d977e683849a724e5f" target="_top" xlink:title="mesh_insert">
<polygon fill="none" stroke="black" points="878,-418.5 878,-437.5 948,-437.5 948,-418.5 878,-418.5"/>
<text text-anchor="middle" x="913" y="-425.5" font-family="Helvetica,sans-Serif" font-size="10.00">mesh_insert</text>
</a>
</g>
</g>
<!-- Node25&#45;&gt;Node26 -->
<g id="edge28" class="edge"><title>Node25&#45;&gt;Node26</title>
<path fill="none" stroke="midnightblue" d="M814.956,-428C836.539,-428 859.706,-428 877.99,-428"/>
<polygon fill="midnightblue" stroke="midnightblue" points="814.846,-424.5 804.846,-428 814.846,-431.5 814.846,-424.5"/>
</g>
<!-- Node27 -->
<g id="node27" class="node"><title>Node27</title>
<g id="a_node27"><a xlink:href="mesh_8c.html#a0351e3ec738e05a319ead0e2e44353d0" target="_top" xlink:title="createElement">
<polygon fill="none" stroke="black" points="1029,-418.5 1029,-437.5 1109,-437.5 1109,-418.5 1029,-418.5"/>
<text text-anchor="middle" x="1069" y="-425.5" font-family="Helvetica,sans-Serif" font-size="10.00">createElement</text>
</a>
</g>
</g>
<!-- Node26&#45;&gt;Node27 -->
<g id="edge29" class="edge"><title>Node26&#45;&gt;Node27</title>
<path fill="none" stroke="midnightblue" d="M958.366,-428C980.597,-428 1007.28,-428 1028.76,-428"/>
<polygon fill="midnightblue" stroke="midnightblue" points="958.178,-424.5 948.178,-428 958.178,-431.5 958.178,-424.5"/>
</g>
<!-- Node28 -->
<g id="node28" class="node"><title>Node28</title>
<g id="a_node28"><a xlink:href="mesh_8h.html#a0ee17a9bc1b62a498c98f8e0dc41d902" target="_top" xlink:title="mesh_read">
<polygon fill="none" stroke="black" points="1156.5,-418.5 1156.5,-437.5 1221.5,-437.5 1221.5,-418.5 1156.5,-418.5"/>
<text text-anchor="middle" x="1189" y="-425.5" font-family="Helvetica,sans-Serif" font-size="10.00">mesh_read</text>
</a>
</g>
</g>
<!-- Node27&#45;&gt;Node28 -->
<g id="edge30" class="edge"><title>Node27&#45;&gt;Node28</title>
<path fill="none" stroke="midnightblue" d="M1119.56,-428C1132,-428 1145.02,-428 1156.32,-428"/>
<polygon fill="midnightblue" stroke="midnightblue" points="1119.29,-424.5 1109.29,-428 1119.29,-431.5 1119.29,-424.5"/>
</g>
<!-- Node29 -->
<g id="node29" class="node"><title>Node29</title>
<g id="a_node29"><a xlink:href="yada_8c.html#a40c5c0b0d4eb7b59a91108269f69dc89" target="_top" xlink:title="MAIN">
<polygon fill="none" stroke="black" points="1258,-418.5 1258,-437.5 1300,-437.5 1300,-418.5 1258,-418.5"/>
<text text-anchor="middle" x="1279" y="-425.5" font-family="Helvetica,sans-Serif" font-size="10.00">MAIN</text>
</a>
</g>
</g>
<!-- Node28&#45;&gt;Node29 -->
<g id="edge31" class="edge"><title>Node28&#45;&gt;Node29</title>
<path fill="none" stroke="midnightblue" d="M1231.84,-428C1240.87,-428 1250.03,-428 1257.78,-428"/>
<polygon fill="midnightblue" stroke="midnightblue" points="1231.77,-424.5 1221.77,-428 1231.77,-431.5 1231.77,-424.5"/>
</g>
<!-- Node31&#45;&gt;Node11 -->
<g id="edge38" class="edge"><title>Node31&#45;&gt;Node11</title>
<path fill="none" stroke="midnightblue" d="M657.103,-124C671.071,-124 686.634,-124 700.879,-124"/>
<polygon fill="midnightblue" stroke="midnightblue" points="656.78,-120.5 646.78,-124 656.78,-127.5 656.78,-120.5"/>
</g>
<!-- Node32 -->
<g id="node32" class="node"><title>Node32</title>
<g id="a_node32"><a xlink:href="net_8c.html#a2110916d842d0952f1542e4e96ba98bb" target="_top" xlink:title="removeEdge">
<polygon fill="none" stroke="black" points="713.5,-76.5 713.5,-95.5 784.5,-95.5 784.5,-76.5 713.5,-76.5"/>
<text text-anchor="middle" x="749" y="-83.5" font-family="Helvetica,sans-Serif" font-size="10.00">removeEdge</text>
</a>
</g>
</g>
<!-- Node31&#45;&gt;Node32 -->
<g id="edge34" class="edge"><title>Node31&#45;&gt;Node32</title>
<path fill="none" stroke="midnightblue" d="M656.493,-111.95C675.11,-106.67 696.653,-100.561 714.159,-95.5967"/>
<polygon fill="midnightblue" stroke="midnightblue" points="655.446,-108.609 646.78,-114.704 657.356,-115.343 655.446,-108.609"/>
</g>
<!-- Node33 -->
<g id="node33" class="node"><title>Node33</title>
<g id="a_node33"><a xlink:href="table_8h.html#a107c408953d09606276157cef79af7d4" target="_top" xlink:title="table_remove">
<polygon fill="none" stroke="black" points="711.5,-38.5 711.5,-57.5 786.5,-57.5 786.5,-38.5 711.5,-38.5"/>
<text text-anchor="middle" x="749" y="-45.5" font-family="Helvetica,sans-Serif" font-size="10.00">table_remove</text>
</a>
</g>
</g>
<!-- Node31&#45;&gt;Node33 -->
<g id="edge37" class="edge"><title>Node31&#45;&gt;Node33</title>
<path fill="none" stroke="midnightblue" d="M647.022,-109.544C649.447,-108.114 651.801,-106.596 654,-105 672.827,-91.3327 670.345,-79.4462 690,-67 696.535,-62.8618 704.059,-59.5387 711.477,-56.9024"/>
<polygon fill="midnightblue" stroke="midnightblue" points="645.251,-106.523 638.084,-114.326 648.553,-112.695 645.251,-106.523"/>
</g>
<!-- Node32&#45;&gt;Node16 -->
<g id="edge35" class="edge"><title>Node32&#45;&gt;Node16</title>
<path fill="none" stroke="midnightblue" d="M794.045,-95.6592C799.155,-98.1028 803.971,-101.164 808,-105 840.402,-135.846 815.65,-164.393 844,-199 856.127,-213.803 874.749,-225.077 889.441,-232.36"/>
<polygon fill="midnightblue" stroke="midnightblue" points="795.219,-92.3593 784.634,-91.8944 792.618,-98.8585 795.219,-92.3593"/>
</g>
<!-- Node32&#45;&gt;Node17 -->
<g id="edge36" class="edge"><title>Node32&#45;&gt;Node17</title>
<path fill="none" stroke="midnightblue" d="M794.744,-88.944C843.863,-93.9242 923.508,-107.28 982,-143 1020.28,-166.375 1050.57,-212.4 1062.5,-232.373"/>
<polygon fill="midnightblue" stroke="midnightblue" points="795.029,-85.4554 784.745,-88.0034 794.373,-92.4247 795.029,-85.4554"/>
</g>
<!-- Node36 -->
<g id="node36" class="node"><title>Node36</title>
<g id="a_node36"><a xlink:href="list_8h.html#a0df36bca5d3d52f49147ca6fca13a375" target="_top" xlink:title="TMlist_find">
<polygon fill="none" stroke="black" points="580.5,-0.5 580.5,-19.5 645.5,-19.5 645.5,-0.5 580.5,-0.5"/>
<text text-anchor="middle" x="613" y="-7.5" font-family="Helvetica,sans-Serif" font-size="10.00">TMlist_find</text>
</a>
</g>
</g>
<!-- Node35&#45;&gt;Node36 -->
<g id="edge41" class="edge"><title>Node35&#45;&gt;Node36</title>
<path fill="none" stroke="midnightblue" d="M528.42,-71.7924C531.057,-70.2967 533.616,-68.6969 536,-67 554.953,-53.5086 553.173,-42.6673 572,-29 576.853,-25.4771 582.462,-22.3371 587.916,-19.6738"/>
<polygon fill="midnightblue" stroke="midnightblue" points="526.604,-68.79 519.303,-76.4672 529.798,-75.0189 526.604,-68.79"/>
</g>
<!-- Node37 -->
<g id="node37" class="node"><title>Node37</title>
<g id="a_node37"><a xlink:href="list_8h.html#a7679cbef6358f1266bd7aff211c8cf19" target="_top" xlink:title="TMlist_insert">
<polygon fill="none" stroke="black" points="576.5,-76.5 576.5,-95.5 649.5,-95.5 649.5,-76.5 576.5,-76.5"/>
<text text-anchor="middle" x="613" y="-83.5" font-family="Helvetica,sans-Serif" font-size="10.00">TMlist_insert</text>
</a>
</g>
</g>
<!-- Node35&#45;&gt;Node37 -->
<g id="edge42" class="edge"><title>Node35&#45;&gt;Node37</title>
<path fill="none" stroke="midnightblue" d="M545.75,-86C556.044,-86 566.638,-86 576.251,-86"/>
<polygon fill="midnightblue" stroke="midnightblue" points="545.602,-82.5001 535.602,-86 545.602,-89.5001 545.602,-82.5001"/>
</g>
<!-- Node38 -->
<g id="node38" class="node"><title>Node38</title>
<g id="a_node38"><a xlink:href="list_8h.html#ad902641bf9d9dc19901fb99fdc0ac0a6" target="_top" xlink:title="TMlist_remove">
<polygon fill="none" stroke="black" points="572.5,-38.5 572.5,-57.5 653.5,-57.5 653.5,-38.5 572.5,-38.5"/>
<text text-anchor="middle" x="613" y="-45.5" font-family="Helvetica,sans-Serif" font-size="10.00">TMlist_remove</text>
</a>
</g>
</g>
<!-- Node35&#45;&gt;Node38 -->
<g id="edge43" class="edge"><title>Node35&#45;&gt;Node38</title>
<path fill="none" stroke="midnightblue" d="M533.376,-73.3196C549.32,-68.1852 567.421,-62.3559 582.233,-57.5859"/>
<polygon fill="midnightblue" stroke="midnightblue" points="532.222,-70.0141 523.776,-76.411 534.368,-76.6771 532.222,-70.0141"/>
</g>
<!-- Node41&#45;&gt;Node4 -->
<g id="edge47" class="edge"><title>Node41&#45;&gt;Node4</title>
<path fill="none" stroke="midnightblue" d="M357.93,-86C367.677,-86 377.017,-86 384.225,-86"/>
<polygon fill="midnightblue" stroke="midnightblue" points="357.698,-82.5001 347.698,-86 357.698,-89.5001 357.698,-82.5001"/>
</g>
<!-- Node42&#45;&gt;Node4 -->
<g id="edge49" class="edge"><title>Node42&#45;&gt;Node4</title>
<path fill="none" stroke="midnightblue" d="M337.434,-61.5159C353.649,-68.0708 372.22,-75.5781 384.476,-80.5328"/>
<polygon fill="midnightblue" stroke="midnightblue" points="338.303,-58.0921 327.72,-57.589 335.679,-64.5818 338.303,-58.0921"/>
</g>
</g>
</svg>
