<?xml version="1.0" encoding="UTF-8" standalone="no"?>
<!DOCTYPE svg PUBLIC "-//W3C//DTD SVG 1.1//EN"
 "http://www.w3.org/Graphics/SVG/1.1/DTD/svg11.dtd">
<!-- Generated by graphviz version 2.36.0 (20140111.2315)
 -->
<!-- Title: new_stm_blk Pages: 1 -->
<svg width="708pt" height="85pt"
 viewBox="0.00 0.00 708.00 85.00" xmlns="http://www.w3.org/2000/svg" xmlns:xlink="http://www.w3.org/1999/xlink">
<g id="graph0" class="graph" transform="scale(1 1) rotate(0) translate(4 81)">
<title>new_stm_blk</title>
<!-- Node1 -->
<g id="node1" class="node"><title>Node1</title>
<polygon fill="#bfbfbf" stroke="black" points="0,-57.5 0,-76.5 74,-76.5 74,-57.5 0,-57.5"/>
<text text-anchor="middle" x="37" y="-64.5" font-family="Helvetica,sans-Serif" font-size="10.00">new_stm_blk</text>
</g>
<!-- Node2 -->
<g id="node2" class="node"><title>Node2</title>
<g id="a_node2"><a xlink:href="gc_8c.html#a5c5981457deeeefd60df569f6265f59c" target="_top" xlink:title="fr_gc_alloc">
<polygon fill="none" stroke="black" points="110,-57.5 110,-76.5 174,-76.5 174,-57.5 110,-57.5"/>
<text text-anchor="middle" x="142" y="-64.5" font-family="Helvetica,sans-Serif" font-size="10.00">fr_gc_alloc</text>
</a>
</g>
</g>
<!-- Node1&#45;&gt;Node2 -->
<g id="edge1" class="edge"><title>Node1&#45;&gt;Node2</title>
<path fill="none" stroke="midnightblue" d="M74.0244,-67C82.3555,-67 91.2822,-67 99.815,-67"/>
<polygon fill="midnightblue" stroke="midnightblue" points="99.9613,-70.5001 109.961,-67 99.9613,-63.5001 99.9613,-70.5001"/>
</g>
<!-- Node3 -->
<g id="node3" class="node"><title>Node3</title>
<g id="a_node3"><a xlink:href="gc_8c.html#ac360b80b93ad00f0fba18a1993e1d6a0" target="_top" xlink:title="add_chunks_to_list">
<polygon fill="none" stroke="black" points="598.5,-38.5 598.5,-57.5 699.5,-57.5 699.5,-38.5 598.5,-38.5"/>
<text text-anchor="middle" x="649" y="-45.5" font-family="Helvetica,sans-Serif" font-size="10.00">add_chunks_to_list</text>
</a>
</g>
</g>
<!-- Node2&#45;&gt;Node3 -->
<g id="edge2" class="edge"><title>Node2&#45;&gt;Node3</title>
<path fill="none" stroke="midnightblue" d="M174.097,-68.2863C243.737,-70.8043 417.457,-75.0669 562,-62 570.446,-61.2365 579.317,-60.1359 588.023,-58.8826"/>
<polygon fill="midnightblue" stroke="midnightblue" points="588.767,-62.3099 598.13,-57.3522 587.719,-55.3888 588.767,-62.3099"/>
</g>
<!-- Node4 -->
<g id="node4" class="node"><title>Node4</title>
<g id="a_node4"><a xlink:href="gc_8c.html#a6dffa65320ddab40d01f198433b3aeb6" target="_top" xlink:title="get_alloc_chunk">
<polygon fill="none" stroke="black" points="210.5,-38.5 210.5,-57.5 297.5,-57.5 297.5,-38.5 210.5,-38.5"/>
<text text-anchor="middle" x="254" y="-45.5" font-family="Helvetica,sans-Serif" font-size="10.00">get_alloc_chunk</text>
</a>
</g>
</g>
<!-- Node2&#45;&gt;Node4 -->
<g id="edge3" class="edge"><title>Node2&#45;&gt;Node4</title>
<path fill="none" stroke="midnightblue" d="M174.227,-61.6062C182.35,-60.2032 191.328,-58.6524 200.229,-57.115"/>
<polygon fill="midnightblue" stroke="midnightblue" points="200.937,-60.5446 210.196,-55.3935 199.746,-53.6467 200.937,-60.5446"/>
</g>
<!-- Node4&#45;&gt;Node3 -->
<g id="edge8" class="edge"><title>Node4&#45;&gt;Node3</title>
<path fill="none" stroke="midnightblue" d="M297.806,-48C368.06,-48 508,-48 588.074,-48"/>
<polygon fill="midnightblue" stroke="midnightblue" points="588.486,-51.5001 598.486,-48 588.486,-44.5001 588.486,-51.5001"/>
</g>
<!-- Node5 -->
<g id="node5" class="node"><title>Node5</title>
<g id="a_node5"><a xlink:href="gc_8c.html#ae47e099483bed50da4e41b906c300b99" target="_top" xlink:title="get_filled_chunks">
<polygon fill="none" stroke="black" points="334,-0.5 334,-19.5 426,-19.5 426,-0.5 334,-0.5"/>
<text text-anchor="middle" x="380" y="-7.5" font-family="Helvetica,sans-Serif" font-size="10.00">get_filled_chunks</text>
</a>
</g>
</g>
<!-- Node4&#45;&gt;Node5 -->
<g id="edge4" class="edge"><title>Node4&#45;&gt;Node5</title>
<path fill="none" stroke="midnightblue" d="M286.29,-38.411C302.004,-33.5956 321.238,-27.7012 338.106,-22.532"/>
<polygon fill="midnightblue" stroke="midnightblue" points="339.184,-25.8624 347.72,-19.5859 337.133,-19.1696 339.184,-25.8624"/>
</g>
<!-- Node6 -->
<g id="node6" class="node"><title>Node6</title>
<g id="a_node6"><a xlink:href="gc_8c.html#a2a6f41199ed37925df4cc7b9909dc0ed" target="_top" xlink:title="get_empty_chunks">
<polygon fill="none" stroke="black" points="462.5,-0.5 462.5,-19.5 561.5,-19.5 561.5,-0.5 462.5,-0.5"/>
<text text-anchor="middle" x="512" y="-7.5" font-family="Helvetica,sans-Serif" font-size="10.00">get_empty_chunks</text>
</a>
</g>
</g>
<!-- Node5&#45;&gt;Node6 -->
<g id="edge5" class="edge"><title>Node5&#45;&gt;Node6</title>
<path fill="none" stroke="midnightblue" d="M426.103,-10C434.536,-10 443.464,-10 452.239,-10"/>
<polygon fill="midnightblue" stroke="midnightblue" points="452.431,-13.5001 462.431,-10 452.431,-6.5001 452.431,-13.5001"/>
</g>
<!-- Node6&#45;&gt;Node3 -->
<g id="edge6" class="edge"><title>Node6&#45;&gt;Node3</title>
<path fill="none" stroke="midnightblue" d="M547.066,-19.589C564.413,-24.4719 585.702,-30.4643 604.249,-35.685"/>
<polygon fill="midnightblue" stroke="midnightblue" points="603.37,-39.0735 613.945,-38.4141 605.267,-32.3354 603.37,-39.0735"/>
</g>
<!-- Node7 -->
<g id="node7" class="node"><title>Node7</title>
<g id="a_node7"><a xlink:href="gc_8c.html#ade31863985bdaa481ade142bdfb6d99f" target="_top" xlink:title="alloc_more_chunks">
<polygon fill="none" stroke="black" points="598.5,-0.5 598.5,-19.5 699.5,-19.5 699.5,-0.5 598.5,-0.5"/>
<text text-anchor="middle" x="649" y="-7.5" font-family="Helvetica,sans-Serif" font-size="10.00">alloc_more_chunks</text>
</a>
</g>
</g>
<!-- Node6&#45;&gt;Node7 -->
<g id="edge7" class="edge"><title>Node6&#45;&gt;Node7</title>
<path fill="none" stroke="midnightblue" d="M561.738,-10C570.315,-10 579.331,-10 588.169,-10"/>
<polygon fill="midnightblue" stroke="midnightblue" points="588.426,-13.5001 598.426,-10 588.426,-6.5001 588.426,-13.5001"/>
</g>
</g>
</svg>
