<?xml version="1.0" encoding="UTF-8" standalone="no"?>
<!DOCTYPE svg PUBLIC "-//W3C//DTD SVG 1.1//EN"
 "http://www.w3.org/Graphics/SVG/1.1/DTD/svg11.dtd">
<!-- Generated by graphviz version 2.36.0 (20140111.2315)
 -->
<!-- Title: common/fraser/stm.h Pages: 1 -->
<svg width="123pt" height="140pt"
 viewBox="0.00 0.00 123.00 140.00" xmlns="http://www.w3.org/2000/svg" xmlns:xlink="http://www.w3.org/1999/xlink">
<g id="graph0" class="graph" transform="scale(1 1) rotate(0) translate(4 136)">
<title>common/fraser/stm.h</title>
<!-- Node1 -->
<g id="node1" class="node"><title>Node1</title>
<polygon fill="#bfbfbf" stroke="black" points="0,-112.5 0,-131.5 110,-131.5 110,-112.5 0,-112.5"/>
<text text-anchor="middle" x="55" y="-119.5" font-family="Helvetica,sans-Serif" font-size="10.00">common/fraser/stm.h</text>
</g>
<!-- Node2 -->
<g id="node2" class="node"><title>Node2</title>
<g id="a_node2"><a xlink:href="ptst_8h.html" target="_top" xlink:title="ptst.h">
<polygon fill="none" stroke="black" points="1.5,-56.5 1.5,-75.5 42.5,-75.5 42.5,-56.5 1.5,-56.5"/>
<text text-anchor="middle" x="22" y="-63.5" font-family="Helvetica,sans-Serif" font-size="10.00">ptst.h</text>
</a>
</g>
</g>
<!-- Node1&#45;&gt;Node2 -->
<g id="edge1" class="edge"><title>Node1&#45;&gt;Node2</title>
<path fill="none" stroke="midnightblue" d="M49.5507,-112.083C44.9855,-104.613 38.3316,-93.7244 32.7066,-84.5199"/>
<polygon fill="midnightblue" stroke="midnightblue" points="35.5489,-82.4588 27.3479,-75.7511 29.5759,-86.109 35.5489,-82.4588"/>
</g>
<!-- Node5 -->
<g id="node5" class="node"><title>Node5</title>
<polygon fill="none" stroke="#bfbfbf" points="61,-56.5 61,-75.5 115,-75.5 115,-56.5 61,-56.5"/>
<text text-anchor="middle" x="88" y="-63.5" font-family="Helvetica,sans-Serif" font-size="10.00">setjmp.h</text>
</g>
<!-- Node1&#45;&gt;Node5 -->
<g id="edge5" class="edge"><title>Node1&#45;&gt;Node5</title>
<path fill="none" stroke="midnightblue" d="M60.4493,-112.083C65.0145,-104.613 71.6684,-93.7244 77.2934,-84.5199"/>
<polygon fill="midnightblue" stroke="midnightblue" points="80.4241,-86.109 82.6521,-75.7511 74.4511,-82.4588 80.4241,-86.109"/>
</g>
<!-- Node3 -->
<g id="node3" class="node"><title>Node3</title>
<g id="a_node3"><a xlink:href="gc_8h.html" target="_top" xlink:title="gc.h">
<polygon fill="none" stroke="black" points="4.5,-0.5 4.5,-19.5 39.5,-19.5 39.5,-0.5 4.5,-0.5"/>
<text text-anchor="middle" x="22" y="-7.5" font-family="Helvetica,sans-Serif" font-size="10.00">gc.h</text>
</a>
</g>
</g>
<!-- Node2&#45;&gt;Node3 -->
<g id="edge2" class="edge"><title>Node2&#45;&gt;Node3</title>
<path fill="none" stroke="midnightblue" d="M16.8337,-56.083C15.3242,-48.9272 14.8938,-38.6353 15.5425,-29.6911"/>
<polygon fill="midnightblue" stroke="midnightblue" points="19.0154,-30.1262 16.869,-19.7511 12.0769,-29.2002 19.0154,-30.1262"/>
</g>
<!-- Node4 -->
<g id="node4" class="node"><title>Node4</title>
<g id="a_node4"><a xlink:href="common_2fraser_2random_8h.html" target="_top" xlink:title="random.h">
<polygon fill="none" stroke="black" points="57.5,-0.5 57.5,-19.5 114.5,-19.5 114.5,-0.5 57.5,-0.5"/>
<text text-anchor="middle" x="86" y="-7.5" font-family="Helvetica,sans-Serif" font-size="10.00">random.h</text>
</a>
</g>
</g>
<!-- Node2&#45;&gt;Node4 -->
<g id="edge4" class="edge"><title>Node2&#45;&gt;Node4</title>
<path fill="none" stroke="midnightblue" d="M32.2827,-56.324C41.8363,-48.2631 56.2797,-36.0765 67.7843,-26.3695"/>
<polygon fill="midnightblue" stroke="midnightblue" points="70.1443,-28.9577 75.5302,-19.8339 65.6302,-23.6076 70.1443,-28.9577"/>
</g>
<!-- Node3&#45;&gt;Node2 -->
<g id="edge3" class="edge"><title>Node3&#45;&gt;Node2</title>
<path fill="none" stroke="midnightblue" d="M27.131,-19.7511C28.6573,-26.8579 29.1044,-37.1357 28.4724,-46.1005"/>
<polygon fill="midnightblue" stroke="midnightblue" points="24.9933,-45.7134 27.1663,-56.083 31.9342,-46.6216 24.9933,-45.7134"/>
</g>
</g>
</svg>
