<?xml version="1.0" encoding="UTF-8" standalone="no"?>
<!DOCTYPE svg PUBLIC "-//W3C//DTD SVG 1.1//EN"
 "http://www.w3.org/Graphics/SVG/1.1/DTD/svg11.dtd">
<!-- Generated by graphviz version 2.36.0 (20140111.2315)
 -->
<!-- Title: read_blk_data Pages: 1 -->
<!--zoomable 484 -->
<svg id="main" version="1.1" xmlns="http://www.w3.org/2000/svg" xmlns:xlink="http://www.w3.org/1999/xlink" xml:space="preserve" onload="init(evt)">
<style type="text/css"><![CDATA[
.edge:hover path { stroke: red; }
.edge:hover polygon { stroke: red; fill: red; }
]]></style>
<script type="text/javascript"><![CDATA[
var edges = document.getElementsByTagName('g');
if (edges && edges.length) {
  for (var i=0;i<edges.length;i++) {
    if (edges[i].id.substr(0,4)=='edge') {
      edges[i].setAttribute('class','edge');
    }
  }
}
]]></script>
        <defs>
                <circle id="rim" cx="0" cy="0" r="7"/>
                <circle id="rim2" cx="0" cy="0" r="3.5"/>
                <g id="zoomPlus">
                        <use xlink:href="#rim" fill="#404040">
                                <set attributeName="fill" to="#808080" begin="zoomplus.mouseover" end="zoomplus.mouseout"/>
                        </use>
                        <path d="M-4,0h8M0,-4v8" fill="none" stroke="white" stroke-width="1.5" pointer-events="none"/>
                </g>
                <g id="zoomMin">
                        <use xlink:href="#rim" fill="#404040">
                                <set attributeName="fill" to="#808080" begin="zoomminus.mouseover" end="zoomminus.mouseout"/>
                        </use>
                        <path d="M-4,0h8" fill="none" stroke="white" stroke-width="1.5" pointer-events="none"/>
                </g>
                <g id="dirArrow">
                        <path fill="none" stroke="white" stroke-width="1.5" d="M0,-3.0v7 M-2.5,-0.5L0,-3.0L2.5,-0.5"/>
                </g>
               <g id="resetDef">
                       <use xlink:href="#rim2" fill="#404040">
                               <set attributeName="fill" to="#808080" begin="reset.mouseover" end="reset.mouseout"/>
                       </use>
               </g>
        </defs>

<script type="text/javascript">
var viewWidth = 1572;
var viewHeight = 484;
var sectionId = 'dynsection-27';
</script>
<script xlink:href="svgpan.js"/>
<svg id="graph" class="graph">
<g id="viewport">
<title>read_blk_data</title>
<!-- Node1 -->
<g id="node1" class="node"><title>Node1</title>
<polygon fill="#bfbfbf" stroke="black" points="0.5,-203.5 0.5,-222.5 77.5,-222.5 77.5,-203.5 0.5,-203.5"/>
<text text-anchor="middle" x="39" y="-210.5" font-family="Helvetica,sans-Serif" font-size="10.00">read_blk_data</text>
</g>
<!-- Node2 -->
<g id="node2" class="node"><title>Node2</title>
<g id="a_node2"><a xlink:href="stm__fraser_8c.html#a61731e38dec59f7f2995842fed69719f" target="_top" xlink:title="free_stm_blk">
<polygon fill="none" stroke="black" points="120.5,-260.5 120.5,-279.5 193.5,-279.5 193.5,-260.5 120.5,-260.5"/>
<text text-anchor="middle" x="157" y="-267.5" font-family="Helvetica,sans-Serif" font-size="10.00">free_stm_blk</text>
</a>
</g>
</g>
<!-- Node1&#45;&gt;Node2 -->
<g id="edge1" class="edge"><title>Node1&#45;&gt;Node2</title>
<path fill="none" stroke="midnightblue" d="M67.1623,-227.356C81.0848,-234.611 98.3594,-243.452 114,-251 120.487,-254.13 127.604,-257.408 134.106,-260.343"/>
<polygon fill="midnightblue" stroke="midnightblue" points="68.6032,-224.16 58.1204,-222.623 65.3567,-230.362 68.6032,-224.16"/>
</g>
<!-- Node3 -->
<g id="node3" class="node"><title>Node3</title>
<g id="a_node3"><a xlink:href="stm__fraser_8c.html#acd69585b95bbcac8c69333f4aaee4335" target="_top" xlink:title="validate_stm_tx">
<polygon fill="none" stroke="black" points="114,-222.5 114,-241.5 200,-241.5 200,-222.5 114,-222.5"/>
<text text-anchor="middle" x="157" y="-229.5" font-family="Helvetica,sans-Serif" font-size="10.00">validate_stm_tx</text>
</a>
</g>
</g>
<!-- Node1&#45;&gt;Node3 -->
<g id="edge2" class="edge"><title>Node1&#45;&gt;Node3</title>
<path fill="none" stroke="midnightblue" d="M87.6165,-220.799C96.2619,-222.215 105.225,-223.683 113.705,-225.072"/>
<polygon fill="midnightblue" stroke="midnightblue" points="88.0961,-217.331 77.6619,-219.169 86.9646,-224.239 88.0961,-217.331"/>
</g>
<!-- Node8 -->
<g id="node8" class="node"><title>Node8</title>
<g id="a_node8"><a xlink:href="stm__fraser_8c.html#a5594d7fca67459d7d9738436af589c5c" target="_top" xlink:title="read_stm_blk">
<polygon fill="none" stroke="black" points="119.5,-184.5 119.5,-203.5 194.5,-203.5 194.5,-184.5 119.5,-184.5"/>
<text text-anchor="middle" x="157" y="-191.5" font-family="Helvetica,sans-Serif" font-size="10.00">read_stm_blk</text>
</a>
</g>
</g>
<!-- Node1&#45;&gt;Node8 -->
<g id="edge7" class="edge"><title>Node1&#45;&gt;Node8</title>
<path fill="none" stroke="midnightblue" d="M87.6133,-205.201C98.1952,-203.468 109.254,-201.657 119.318,-200.008"/>
<polygon fill="midnightblue" stroke="midnightblue" points="86.9646,-201.761 77.6619,-206.831 88.0961,-208.669 86.9646,-201.761"/>
</g>
<!-- Node50 -->
<g id="node50" class="node"><title>Node50</title>
<g id="a_node50"><a xlink:href="stm__fraser_8c.html#a00de1ad150378181157510e2e5982f75" target="_top" xlink:title="write_stm_blk">
<polygon fill="none" stroke="black" points="252.5,-146.5 252.5,-165.5 329.5,-165.5 329.5,-146.5 252.5,-146.5"/>
<text text-anchor="middle" x="291" y="-153.5" font-family="Helvetica,sans-Serif" font-size="10.00">write_stm_blk</text>
</a>
</g>
</g>
<!-- Node1&#45;&gt;Node50 -->
<g id="edge57" class="edge"><title>Node1&#45;&gt;Node50</title>
<path fill="none" stroke="midnightblue" d="M63.5948,-198.049C77.6827,-189.859 96.2393,-180.319 114,-175 160.37,-161.114 216.302,-157.122 252.478,-156.107"/>
<polygon fill="midnightblue" stroke="midnightblue" points="61.3935,-195.288 54.6202,-203.435 64.9957,-201.29 61.3935,-195.288"/>
</g>
<!-- Node4 -->
<g id="node4" class="node"><title>Node4</title>
<g id="a_node4"><a xlink:href="stm__fraser_8c.html#aa57c521c9ca8d9bfc271c7077c3ea3a0" target="_top" xlink:title="handle_fault">
<polygon fill="none" stroke="black" points="256.5,-246.5 256.5,-265.5 325.5,-265.5 325.5,-246.5 256.5,-246.5"/>
<text text-anchor="middle" x="291" y="-253.5" font-family="Helvetica,sans-Serif" font-size="10.00">handle_fault</text>
</a>
</g>
</g>
<!-- Node3&#45;&gt;Node4 -->
<g id="edge3" class="edge"><title>Node3&#45;&gt;Node4</title>
<path fill="none" stroke="midnightblue" d="M210.12,-241.476C225.617,-244.294 242.183,-247.306 256.189,-249.853"/>
<polygon fill="midnightblue" stroke="midnightblue" points="210.593,-238.005 200.129,-239.66 209.341,-244.892 210.593,-238.005"/>
</g>
<!-- Node5 -->
<g id="node5" class="node"><title>Node5</title>
<g id="a_node5"><a xlink:href="stm__fraser_8c.html#a7b76b85023f5a028abad5e822391f95a" target="_top" xlink:title="_init_stm_subsystem">
<polygon fill="none" stroke="black" points="382,-258.5 382,-277.5 492,-277.5 492,-258.5 382,-258.5"/>
<text text-anchor="middle" x="437" y="-265.5" font-family="Helvetica,sans-Serif" font-size="10.00">_init_stm_subsystem</text>
</a>
</g>
</g>
<!-- Node4&#45;&gt;Node5 -->
<g id="edge4" class="edge"><title>Node4&#45;&gt;Node5</title>
<path fill="none" stroke="midnightblue" d="M335.953,-259.663C350.443,-260.87 366.729,-262.227 381.886,-263.49"/>
<polygon fill="midnightblue" stroke="midnightblue" points="336.018,-256.156 325.762,-258.813 335.436,-263.132 336.018,-256.156"/>
</g>
<!-- Node6 -->
<g id="node6" class="node"><title>Node6</title>
<g id="a_node6"><a xlink:href="stmskip_8h.html#aedbfc8f18bee8e611ee20d17feb55f98" target="_top" xlink:title="init_stmskip_subsystem">
<polygon fill="none" stroke="black" points="528,-261.5 528,-280.5 650,-280.5 650,-261.5 528,-261.5"/>
<text text-anchor="middle" x="589" y="-268.5" font-family="Helvetica,sans-Serif" font-size="10.00">init_stmskip_subsystem</text>
</a>
</g>
</g>
<!-- Node5&#45;&gt;Node6 -->
<g id="edge5" class="edge"><title>Node5&#45;&gt;Node6</title>
<path fill="none" stroke="midnightblue" d="M502.347,-269.287C510.803,-269.456 519.443,-269.629 527.827,-269.797"/>
<polygon fill="midnightblue" stroke="midnightblue" points="502.221,-265.784 492.153,-269.083 502.081,-272.782 502.221,-265.784"/>
</g>
<!-- Node7 -->
<g id="node7" class="node"><title>Node7</title>
<g id="a_node7"><a xlink:href="classSetAdaptor_3_01stm__skip_01_4.html#acfb0c3f8dd7da801bdafb4ff1de8ba3e" target="_top" xlink:title="SetAdaptor\&lt; stm_skip\l \&gt;::SetAdaptor">
<polygon fill="none" stroke="black" points="686,-267 686,-297 800,-297 800,-267 686,-267"/>
<text text-anchor="start" x="694" y="-285" font-family="Helvetica,sans-Serif" font-size="10.00">SetAdaptor&lt; stm_skip</text>
<text text-anchor="middle" x="743" y="-274" font-family="Helvetica,sans-Serif" font-size="10.00"> &gt;::SetAdaptor</text>
</a>
</g>
</g>
<!-- Node6&#45;&gt;Node7 -->
<g id="edge6" class="edge"><title>Node6&#45;&gt;Node7</title>
<path fill="none" stroke="midnightblue" d="M660.117,-276.074C668.734,-276.698 677.453,-277.329 685.826,-277.935"/>
<polygon fill="midnightblue" stroke="midnightblue" points="660.301,-272.579 650.074,-275.347 659.796,-279.56 660.301,-272.579"/>
</g>
<!-- Node9 -->
<g id="node9" class="node"><title>Node9</title>
<g id="a_node9"><a xlink:href="stmskip_8cc.html#aa82848b11e972b9339ceadb6816cdb6a" target="_top" xlink:title="search_predecessors">
<polygon fill="none" stroke="black" points="236,-184.5 236,-203.5 346,-203.5 346,-184.5 236,-184.5"/>
<text text-anchor="middle" x="291" y="-191.5" font-family="Helvetica,sans-Serif" font-size="10.00">search_predecessors</text>
</a>
</g>
</g>
<!-- Node8&#45;&gt;Node9 -->
<g id="edge8" class="edge"><title>Node8&#45;&gt;Node9</title>
<path fill="none" stroke="midnightblue" d="M204.88,-194C214.843,-194 225.443,-194 235.659,-194"/>
<polygon fill="midnightblue" stroke="midnightblue" points="204.769,-190.5 194.769,-194 204.769,-197.5 204.769,-190.5"/>
</g>
<!-- Node10 -->
<g id="node10" class="node"><title>Node10</title>
<g id="a_node10"><a xlink:href="stmskip_8cc.html#ad17c6ea2fd390c2dd637a34fdeb0b3df" target="_top" xlink:title="stmskip_update">
<polygon fill="none" stroke="black" points="394,-172.5 394,-191.5 480,-191.5 480,-172.5 394,-172.5"/>
<text text-anchor="middle" x="437" y="-179.5" font-family="Helvetica,sans-Serif" font-size="10.00">stmskip_update</text>
</a>
</g>
</g>
<!-- Node9&#45;&gt;Node10 -->
<g id="edge9" class="edge"><title>Node9&#45;&gt;Node10</title>
<path fill="none" stroke="midnightblue" d="M356.163,-188.653C368.926,-187.59 382.021,-186.498 393.818,-185.515"/>
<polygon fill="midnightblue" stroke="midnightblue" points="355.705,-185.179 346.03,-189.498 356.286,-192.155 355.705,-185.179"/>
</g>
<!-- Node48 -->
<g id="node48" class="node"><title>Node48</title>
<g id="a_node48"><a xlink:href="stmskip_8cc.html#a3925aa5d2590fc57854aa9d670f58e4d" target="_top" xlink:title="stmskip_remove">
<polygon fill="none" stroke="black" points="392.5,-134.5 392.5,-153.5 481.5,-153.5 481.5,-134.5 392.5,-134.5"/>
<text text-anchor="middle" x="437" y="-141.5" font-family="Helvetica,sans-Serif" font-size="10.00">stmskip_remove</text>
</a>
</g>
</g>
<!-- Node9&#45;&gt;Node48 -->
<g id="edge53" class="edge"><title>Node9&#45;&gt;Node48</title>
<path fill="none" stroke="midnightblue" d="M329.169,-181.094C353.841,-172.527 385.702,-161.465 408.187,-153.657"/>
<polygon fill="midnightblue" stroke="midnightblue" points="327.723,-177.891 319.424,-184.478 330.019,-184.504 327.723,-177.891"/>
</g>
<!-- Node49 -->
<g id="node49" class="node"><title>Node49</title>
<g id="a_node49"><a xlink:href="stmskip_8cc.html#a09de30bf6124d9640899b27c93b49471" target="_top" xlink:title="stmskip_lookup">
<polygon fill="none" stroke="black" points="394.5,-210.5 394.5,-229.5 479.5,-229.5 479.5,-210.5 394.5,-210.5"/>
<text text-anchor="middle" x="437" y="-217.5" font-family="Helvetica,sans-Serif" font-size="10.00">stmskip_lookup</text>
</a>
</g>
</g>
<!-- Node9&#45;&gt;Node49 -->
<g id="edge55" class="edge"><title>Node9&#45;&gt;Node49</title>
<path fill="none" stroke="midnightblue" d="M354.927,-205.362C368.315,-207.779 382.129,-210.273 394.476,-212.503"/>
<polygon fill="midnightblue" stroke="midnightblue" points="355.265,-201.866 344.803,-203.534 354.022,-208.755 355.265,-201.866"/>
</g>
<!-- Node11 -->
<g id="node11" class="node"><title>Node11</title>
<g id="a_node11"><a xlink:href="stmskip_8cc.html#a9ab04b9e875013b4d2dd249d0c97dce5" target="_top" xlink:title="for">
<polygon fill="none" stroke="black" points="574.5,-153.5 574.5,-172.5 603.5,-172.5 603.5,-153.5 574.5,-153.5"/>
<text text-anchor="middle" x="589" y="-160.5" font-family="Helvetica,sans-Serif" font-size="10.00">for</text>
</a>
</g>
</g>
<!-- Node10&#45;&gt;Node11 -->
<g id="edge10" class="edge"><title>Node10&#45;&gt;Node11</title>
<path fill="none" stroke="midnightblue" d="M490.116,-175.399C520.11,-171.599 555.505,-167.116 574.435,-164.718"/>
<polygon fill="midnightblue" stroke="midnightblue" points="489.663,-171.928 480.183,-176.657 490.543,-178.872 489.663,-171.928"/>
</g>
<!-- Node12 -->
<g id="node12" class="node"><title>Node12</title>
<g id="a_node12"><a xlink:href="heap_8h.html#a9c77dbc94ac2daa5b202375477e26188" target="_top" xlink:title="heap_isValid">
<polygon fill="none" stroke="black" points="707,-190.5 707,-209.5 779,-209.5 779,-190.5 707,-190.5"/>
<text text-anchor="middle" x="743" y="-197.5" font-family="Helvetica,sans-Serif" font-size="10.00">heap_isValid</text>
</a>
</g>
</g>
<!-- Node11&#45;&gt;Node12 -->
<g id="edge11" class="edge"><title>Node11&#45;&gt;Node12</title>
<path fill="none" stroke="midnightblue" d="M613.474,-168.714C638.436,-174.79 678.196,-184.469 706.887,-191.453"/>
<polygon fill="midnightblue" stroke="midnightblue" points="614.301,-165.313 603.757,-166.349 612.646,-172.115 614.301,-165.313"/>
</g>
<!-- Node13 -->
<g id="node13" class="node"><title>Node13</title>
<g id="a_node13"><a xlink:href="list_8c.html#a3ed9de59a6e4cd353dee80f797da7a19" target="_top" xlink:title="findPrevious">
<polygon fill="none" stroke="black" points="707.5,-152.5 707.5,-171.5 778.5,-171.5 778.5,-152.5 707.5,-152.5"/>
<text text-anchor="middle" x="743" y="-159.5" font-family="Helvetica,sans-Serif" font-size="10.00">findPrevious</text>
</a>
</g>
</g>
<!-- Node11&#45;&gt;Node13 -->
<g id="edge12" class="edge"><title>Node11&#45;&gt;Node13</title>
<path fill="none" stroke="midnightblue" d="M613.844,-162.843C638.918,-162.678 678.625,-162.417 707.197,-162.229"/>
<polygon fill="midnightblue" stroke="midnightblue" points="613.734,-159.344 603.757,-162.909 613.78,-166.344 613.734,-159.344"/>
</g>
<!-- Node42 -->
<g id="node42" class="node"><title>Node42</title>
<g id="a_node42"><a xlink:href="list_8c.html#abae8c22f79c73d231c8ddd9b795e47d9" target="_top" xlink:title="TMfindPrevious">
<polygon fill="none" stroke="black" points="700.5,-76.5 700.5,-95.5 785.5,-95.5 785.5,-76.5 700.5,-76.5"/>
<text text-anchor="middle" x="743" y="-83.5" font-family="Helvetica,sans-Serif" font-size="10.00">TMfindPrevious</text>
</a>
</g>
</g>
<!-- Node11&#45;&gt;Node42 -->
<g id="edge47" class="edge"><title>Node11&#45;&gt;Node42</title>
<path fill="none" stroke="midnightblue" d="M613.065,-151.316C643.202,-136.049 695.402,-109.606 723.242,-95.5026"/>
<polygon fill="midnightblue" stroke="midnightblue" points="611.096,-148.39 603.757,-156.031 614.259,-154.634 611.096,-148.39"/>
</g>
<!-- Node46 -->
<g id="node46" class="node"><title>Node46</title>
<g id="a_node46"><a xlink:href="rbtree_8c.html#a14bd83586612336b5eb09f902e95b02f" target="_top" xlink:title="insert">
<polygon fill="none" stroke="black" points="722.5,-38.5 722.5,-57.5 763.5,-57.5 763.5,-38.5 722.5,-38.5"/>
<text text-anchor="middle" x="743" y="-45.5" font-family="Helvetica,sans-Serif" font-size="10.00">insert</text>
</a>
</g>
</g>
<!-- Node11&#45;&gt;Node46 -->
<g id="edge51" class="edge"><title>Node11&#45;&gt;Node46</title>
<path fill="none" stroke="midnightblue" d="M603.286,-145.461C620.295,-124.127 651.694,-88.3294 686,-67 697.16,-60.0614 711.16,-55.3114 722.37,-52.296"/>
<polygon fill="midnightblue" stroke="midnightblue" points="600.5,-143.343 597.106,-153.379 606.018,-147.65 600.5,-143.343"/>
</g>
<!-- Node47 -->
<g id="node47" class="node"><title>Node47</title>
<g id="a_node47"><a xlink:href="rbtree_8c.html#a47dc2cb2c9de9c39f968f120e1fe9ed4" target="_top" xlink:title="TMinsert">
<polygon fill="none" stroke="black" points="715.5,-228.5 715.5,-247.5 770.5,-247.5 770.5,-228.5 715.5,-228.5"/>
<text text-anchor="middle" x="743" y="-235.5" font-family="Helvetica,sans-Serif" font-size="10.00">TMinsert</text>
</a>
</g>
</g>
<!-- Node11&#45;&gt;Node47 -->
<g id="edge52" class="edge"><title>Node11&#45;&gt;Node47</title>
<path fill="none" stroke="midnightblue" d="M612.052,-177.584C631.083,-189.746 659.595,-206.967 686,-219 695.342,-223.257 705.931,-227.088 715.366,-230.175"/>
<polygon fill="midnightblue" stroke="midnightblue" points="613.82,-174.559 603.522,-172.066 610.017,-180.437 613.82,-174.559"/>
</g>
<!-- Node14 -->
<g id="node14" class="node"><title>Node14</title>
<g id="a_node14"><a xlink:href="list_8h.html#a1379a3cf001369bd5979fe53160640f5" target="_top" xlink:title="list_find">
<polygon fill="none" stroke="black" points="852,-152.5 852,-171.5 902,-171.5 902,-152.5 852,-152.5"/>
<text text-anchor="middle" x="877" y="-159.5" font-family="Helvetica,sans-Serif" font-size="10.00">list_find</text>
</a>
</g>
</g>
<!-- Node13&#45;&gt;Node14 -->
<g id="edge13" class="edge"><title>Node13&#45;&gt;Node14</title>
<path fill="none" stroke="midnightblue" d="M788.764,-162C809.924,-162 834.345,-162 851.957,-162"/>
<polygon fill="midnightblue" stroke="midnightblue" points="788.681,-158.5 778.681,-162 788.681,-165.5 788.681,-158.5"/>
</g>
<!-- Node21 -->
<g id="node21" class="node"><title>Node21</title>
<g id="a_node21"><a xlink:href="list_8h.html#a06249cb6bbda6b10f5777b96a6c122f9" target="_top" xlink:title="list_insert">
<polygon fill="none" stroke="black" points="847.5,-342.5 847.5,-361.5 906.5,-361.5 906.5,-342.5 847.5,-342.5"/>
<text text-anchor="middle" x="877" y="-349.5" font-family="Helvetica,sans-Serif" font-size="10.00">list_insert</text>
</a>
</g>
</g>
<!-- Node13&#45;&gt;Node21 -->
<g id="edge21" class="edge"><title>Node13&#45;&gt;Node21</title>
<path fill="none" stroke="midnightblue" d="M787.93,-172.823C792.31,-175.059 796.443,-177.753 800,-181 806.539,-186.968 857.053,-306.774 871.906,-342.21"/>
<polygon fill="midnightblue" stroke="midnightblue" points="789.271,-169.589 778.702,-168.847 786.501,-176.018 789.271,-169.589"/>
</g>
<!-- Node37 -->
<g id="node37" class="node"><title>Node37</title>
<g id="a_node37"><a xlink:href="list_8h.html#a857fdaea81fb44b5918c9d446707f23e" target="_top" xlink:title="Plist_insert">
<polygon fill="none" stroke="black" points="844.5,-228.5 844.5,-247.5 909.5,-247.5 909.5,-228.5 844.5,-228.5"/>
<text text-anchor="middle" x="877" y="-235.5" font-family="Helvetica,sans-Serif" font-size="10.00">Plist_insert</text>
</a>
</g>
</g>
<!-- Node13&#45;&gt;Node37 -->
<g id="edge39" class="edge"><title>Node13&#45;&gt;Node37</title>
<path fill="none" stroke="midnightblue" d="M787.966,-174.579C792.167,-176.466 796.252,-178.599 800,-181 819.589,-193.55 817.173,-205.333 836,-219 840.853,-222.523 846.462,-225.663 851.916,-228.326"/>
<polygon fill="midnightblue" stroke="midnightblue" points="789.257,-171.326 778.673,-170.834 786.64,-177.818 789.257,-171.326"/>
</g>
<!-- Node38 -->
<g id="node38" class="node"><title>Node38</title>
<g id="a_node38"><a xlink:href="list_8h.html#af5a09f2dc4e901d1c8052e282d4d87d3" target="_top" xlink:title="list_remove">
<polygon fill="none" stroke="black" points="843.5,-114.5 843.5,-133.5 910.5,-133.5 910.5,-114.5 843.5,-114.5"/>
<text text-anchor="middle" x="877" y="-121.5" font-family="Helvetica,sans-Serif" font-size="10.00">list_remove</text>
</a>
</g>
</g>
<!-- Node13&#45;&gt;Node38 -->
<g id="edge40" class="edge"><title>Node13&#45;&gt;Node38</title>
<path fill="none" stroke="midnightblue" d="M787.118,-149.587C805.34,-144.342 826.218,-138.331 843.159,-133.454"/>
<polygon fill="midnightblue" stroke="midnightblue" points="785.951,-146.281 777.309,-152.411 787.887,-153.008 785.951,-146.281"/>
</g>
<!-- Node41 -->
<g id="node41" class="node"><title>Node41</title>
<g id="a_node41"><a xlink:href="list_8h.html#a1fa145871fd1d110f892094bbc153cbf" target="_top" xlink:title="Plist_remove">
<polygon fill="none" stroke="black" points="840,-190.5 840,-209.5 914,-209.5 914,-190.5 840,-190.5"/>
<text text-anchor="middle" x="877" y="-197.5" font-family="Helvetica,sans-Serif" font-size="10.00">Plist_remove</text>
</a>
</g>
</g>
<!-- Node13&#45;&gt;Node41 -->
<g id="edge46" class="edge"><title>Node13&#45;&gt;Node41</title>
<path fill="none" stroke="midnightblue" d="M787.041,-174.391C805.118,-179.594 825.819,-185.554 842.701,-190.414"/>
<polygon fill="midnightblue" stroke="midnightblue" points="787.887,-170.992 777.309,-171.589 785.951,-177.719 787.887,-170.992"/>
</g>
<!-- Node15 -->
<g id="node15" class="node"><title>Node15</title>
<g id="a_node15"><a xlink:href="hashtable_8h.html#ac641ace1e3d79ee78d271d999df92db9" target="_top" xlink:title="hashtable_containsKey">
<polygon fill="none" stroke="black" points="954,-228.5 954,-247.5 1072,-247.5 1072,-228.5 954,-228.5"/>
<text text-anchor="middle" x="1013" y="-235.5" font-family="Helvetica,sans-Serif" font-size="10.00">hashtable_containsKey</text>
</a>
</g>
</g>
<!-- Node14&#45;&gt;Node15 -->
<g id="edge14" class="edge"><title>Node14&#45;&gt;Node15</title>
<path fill="none" stroke="midnightblue" d="M911.022,-176.456C913.447,-177.886 915.801,-179.404 918,-181 936.827,-194.667 934.345,-206.554 954,-219 959.998,-222.798 966.829,-225.909 973.647,-228.434"/>
<polygon fill="midnightblue" stroke="midnightblue" points="912.553,-173.305 902.084,-171.674 909.251,-179.477 912.553,-173.305"/>
</g>
<!-- Node16 -->
<g id="node16" class="node"><title>Node16</title>
<g id="a_node16"><a xlink:href="hashtable_8h.html#a686d66befe855b80c215e27cb2e9343e" target="_top" xlink:title="hashtable_find">
<polygon fill="none" stroke="black" points="973,-190.5 973,-209.5 1053,-209.5 1053,-190.5 973,-190.5"/>
<text text-anchor="middle" x="1013" y="-197.5" font-family="Helvetica,sans-Serif" font-size="10.00">hashtable_find</text>
</a>
</g>
</g>
<!-- Node14&#45;&gt;Node16 -->
<g id="edge15" class="edge"><title>Node14&#45;&gt;Node16</title>
<path fill="none" stroke="midnightblue" d="M912.054,-171.657C932.377,-177.42 958.085,-184.711 978.339,-190.454"/>
<polygon fill="midnightblue" stroke="midnightblue" points="912.842,-168.243 902.266,-168.882 910.932,-174.977 912.842,-168.243"/>
</g>
<!-- Node17 -->
<g id="node17" class="node"><title>Node17</title>
<g id="a_node17"><a xlink:href="hashtable_8h.html#a76f7704c9b87a69d6a94a01f06a65185" target="_top" xlink:title="hashtable_insert">
<polygon fill="none" stroke="black" points="969,-266.5 969,-285.5 1057,-285.5 1057,-266.5 969,-266.5"/>
<text text-anchor="middle" x="1013" y="-273.5" font-family="Helvetica,sans-Serif" font-size="10.00">hashtable_insert</text>
</a>
</g>
</g>
<!-- Node14&#45;&gt;Node17 -->
<g id="edge16" class="edge"><title>Node14&#45;&gt;Node17</title>
<path fill="none" stroke="midnightblue" d="M911.04,-175.314C913.548,-177.018 915.912,-178.909 918,-181 944.414,-207.443 925.962,-232.285 954,-257 958.372,-260.854 963.542,-263.928 968.966,-266.381"/>
<polygon fill="midnightblue" stroke="midnightblue" points="912.56,-172.15 902.142,-170.219 909.082,-178.225 912.56,-172.15"/>
</g>
<!-- Node18 -->
<g id="node18" class="node"><title>Node18</title>
<g id="a_node18"><a xlink:href="hashtable_8h.html#a1097b4c3a3d33b866a55e103f49dee7b" target="_top" xlink:title="hashtable_remove">
<polygon fill="none" stroke="black" points="965,-114.5 965,-133.5 1061,-133.5 1061,-114.5 965,-114.5"/>
<text text-anchor="middle" x="1013" y="-121.5" font-family="Helvetica,sans-Serif" font-size="10.00">hashtable_remove</text>
</a>
</g>
</g>
<!-- Node14&#45;&gt;Node18 -->
<g id="edge17" class="edge"><title>Node14&#45;&gt;Node18</title>
<path fill="none" stroke="midnightblue" d="M912.054,-152.343C932.377,-146.58 958.085,-139.289 978.339,-133.546"/>
<polygon fill="midnightblue" stroke="midnightblue" points="910.932,-149.023 902.266,-155.118 912.842,-155.757 910.932,-149.023"/>
</g>
<!-- Node19 -->
<g id="node19" class="node"><title>Node19</title>
<g id="a_node19"><a xlink:href="region_8c.html#afd9637f04d120aec5464b6304cfa0c99" target="_top" xlink:title="TMgrowRegion">
<polygon fill="none" stroke="black" points="971.5,-152.5 971.5,-171.5 1054.5,-171.5 1054.5,-152.5 971.5,-152.5"/>
<text text-anchor="middle" x="1013" y="-159.5" font-family="Helvetica,sans-Serif" font-size="10.00">TMgrowRegion</text>
</a>
</g>
</g>
<!-- Node14&#45;&gt;Node19 -->
<g id="edge18" class="edge"><title>Node14&#45;&gt;Node19</title>
<path fill="none" stroke="midnightblue" d="M912.327,-162C930.327,-162 952.494,-162 971.349,-162"/>
<polygon fill="midnightblue" stroke="midnightblue" points="912.266,-158.5 902.266,-162 912.266,-165.5 912.266,-158.5"/>
</g>
<!-- Node20 -->
<g id="node20" class="node"><title>Node20</title>
<g id="a_node20"><a xlink:href="region_8h.html#a74d9ac41436518894e8e1bd6564ebf42" target="_top" xlink:title="TMregion_refine">
<polygon fill="none" stroke="black" points="1134,-152.5 1134,-171.5 1220,-171.5 1220,-152.5 1134,-152.5"/>
<text text-anchor="middle" x="1177" y="-159.5" font-family="Helvetica,sans-Serif" font-size="10.00">TMregion_refine</text>
</a>
</g>
</g>
<!-- Node19&#45;&gt;Node20 -->
<g id="edge19" class="edge"><title>Node19&#45;&gt;Node20</title>
<path fill="none" stroke="midnightblue" d="M1065.08,-162C1087.17,-162 1112.72,-162 1133.72,-162"/>
<polygon fill="midnightblue" stroke="midnightblue" points="1064.88,-158.5 1054.88,-162 1064.88,-165.5 1064.88,-158.5"/>
</g>
<!-- Node20&#45;&gt;Node20 -->
<g id="edge20" class="edge"><title>Node20&#45;&gt;Node20</title>
<path fill="none" stroke="midnightblue" d="M1147.88,-180.654C1149.1,-185.937 1158.8,-190 1177,-190 1204.73,-190 1212.74,-180.565 1201.04,-171.757"/>
<polygon fill="midnightblue" stroke="midnightblue" points="1151.04,-182.177 1152.96,-171.757 1144.96,-178.709 1151.04,-182.177"/>
</g>
<!-- Node21&#45;&gt;Node17 -->
<g id="edge33" class="edge"><title>Node21&#45;&gt;Node17</title>
<path fill="none" stroke="midnightblue" d="M896.373,-335.491C911.088,-322.969 932.722,-306.079 954,-295 961.049,-291.33 968.946,-288.18 976.589,-285.559"/>
<polygon fill="midnightblue" stroke="midnightblue" points="893.813,-333.078 888.563,-342.281 898.406,-338.361 893.813,-333.078"/>
</g>
<!-- Node22 -->
<g id="node22" class="node"><title>Node22</title>
<g id="a_node22"><a xlink:href="net_8c.html#ad4f5f991dfc5667c5d75c5b353dbe974" target="_top" xlink:title="insertEdge">
<polygon fill="none" stroke="black" points="981.5,-380.5 981.5,-399.5 1044.5,-399.5 1044.5,-380.5 981.5,-380.5"/>
<text text-anchor="middle" x="1013" y="-387.5" font-family="Helvetica,sans-Serif" font-size="10.00">insertEdge</text>
</a>
</g>
</g>
<!-- Node21&#45;&gt;Node22 -->
<g id="edge22" class="edge"><title>Node21&#45;&gt;Node22</title>
<path fill="none" stroke="midnightblue" d="M916.471,-362.91C937.097,-368.759 962.159,-375.866 981.437,-381.333"/>
<polygon fill="midnightblue" stroke="midnightblue" points="917.322,-359.513 906.746,-360.152 915.412,-366.247 917.322,-359.513"/>
</g>
<!-- Node28 -->
<g id="node28" class="node"><title>Node28</title>
<g id="a_node28"><a xlink:href="table_8h.html#a0cbbed1b3290a9074b455925972f670d" target="_top" xlink:title="table_insert">
<polygon fill="none" stroke="black" points="979.5,-342.5 979.5,-361.5 1046.5,-361.5 1046.5,-342.5 979.5,-342.5"/>
<text text-anchor="middle" x="1013" y="-349.5" font-family="Helvetica,sans-Serif" font-size="10.00">table_insert</text>
</a>
</g>
</g>
<!-- Node21&#45;&gt;Node28 -->
<g id="edge29" class="edge"><title>Node21&#45;&gt;Node28</title>
<path fill="none" stroke="midnightblue" d="M916.932,-352C936.628,-352 960.274,-352 979.056,-352"/>
<polygon fill="midnightblue" stroke="midnightblue" points="916.746,-348.5 906.746,-352 916.746,-355.5 916.746,-348.5"/>
</g>
<!-- Node29 -->
<g id="node29" class="node"><title>Node29</title>
<g id="a_node29"><a xlink:href="decoder_8h.html#a92136c16eda5a24a0eb6c60b9f96244a" target="_top" xlink:title="decoder_process">
<polygon fill="none" stroke="black" points="967.5,-304.5 967.5,-323.5 1058.5,-323.5 1058.5,-304.5 967.5,-304.5"/>
<text text-anchor="middle" x="1013" y="-311.5" font-family="Helvetica,sans-Serif" font-size="10.00">decoder_process</text>
</a>
</g>
</g>
<!-- Node21&#45;&gt;Node29 -->
<g id="edge30" class="edge"><title>Node21&#45;&gt;Node29</title>
<path fill="none" stroke="midnightblue" d="M916.51,-341.079C935.954,-335.565 959.331,-328.936 978.089,-323.617"/>
<polygon fill="midnightblue" stroke="midnightblue" points="915.412,-337.753 906.746,-343.848 917.322,-344.487 915.412,-337.753"/>
</g>
<!-- Node30 -->
<g id="node30" class="node"><title>Node30</title>
<g id="a_node30"><a xlink:href="maze_8h.html#a2135cee3a633084c9456873cb7746e0e" target="_top" xlink:title="maze_read">
<polygon fill="none" stroke="black" points="980.5,-456.5 980.5,-475.5 1045.5,-475.5 1045.5,-456.5 980.5,-456.5"/>
<text text-anchor="middle" x="1013" y="-463.5" font-family="Helvetica,sans-Serif" font-size="10.00">maze_read</text>
</a>
</g>
</g>
<!-- Node21&#45;&gt;Node30 -->
<g id="edge31" class="edge"><title>Node21&#45;&gt;Node30</title>
<path fill="none" stroke="midnightblue" d="M888.18,-370.372C900.913,-391.731 924.65,-426.647 954,-447 961.837,-452.434 971.332,-456.396 980.35,-459.249"/>
<polygon fill="midnightblue" stroke="midnightblue" points="891.155,-368.524 883.124,-361.613 885.093,-372.024 891.155,-368.524"/>
</g>
<!-- Node32 -->
<g id="node32" class="node"><title>Node32</title>
<g id="a_node32"><a xlink:href="element_8h.html#af31cf5d6a12660d258214d8483df8c1d" target="_top" xlink:title="element_addNeighbor">
<polygon fill="none" stroke="black" points="957.5,-418.5 957.5,-437.5 1068.5,-437.5 1068.5,-418.5 957.5,-418.5"/>
<text text-anchor="middle" x="1013" y="-425.5" font-family="Helvetica,sans-Serif" font-size="10.00">element_addNeighbor</text>
</a>
</g>
</g>
<!-- Node21&#45;&gt;Node32 -->
<g id="edge34" class="edge"><title>Node21&#45;&gt;Node32</title>
<path fill="none" stroke="midnightblue" d="M896.373,-368.509C911.088,-381.031 932.722,-397.921 954,-409 961.049,-412.67 968.946,-415.82 976.589,-418.441"/>
<polygon fill="midnightblue" stroke="midnightblue" points="898.406,-365.639 888.563,-361.719 893.813,-370.922 898.406,-365.639"/>
</g>
<!-- Node23 -->
<g id="node23" class="node"><title>Node23</title>
<g id="a_node23"><a xlink:href="net_8c.html#a456ce4308d1d5e4f0a816165f0d1b9ac" target="_top" xlink:title="reverseEdge">
<polygon fill="none" stroke="black" points="1141.5,-232.5 1141.5,-251.5 1212.5,-251.5 1212.5,-232.5 1141.5,-232.5"/>
<text text-anchor="middle" x="1177" y="-239.5" font-family="Helvetica,sans-Serif" font-size="10.00">reverseEdge</text>
</a>
</g>
</g>
<!-- Node22&#45;&gt;Node23 -->
<g id="edge23" class="edge"><title>Node22&#45;&gt;Node23</title>
<path fill="none" stroke="midnightblue" d="M1054.41,-380.803C1060.68,-378.271 1066.79,-375.061 1072,-371 1095.63,-352.581 1089.63,-337.669 1108,-314 1126.56,-290.096 1151.74,-265.029 1165.66,-251.696"/>
<polygon fill="midnightblue" stroke="midnightblue" points="1052.83,-377.647 1044.55,-384.25 1055.14,-384.256 1052.83,-377.647"/>
</g>
<!-- Node24 -->
<g id="node24" class="node"><title>Node24</title>
<g id="a_node24"><a xlink:href="net_8h.html#a7a2e0647373945c39b0efcdf78618993" target="_top" xlink:title="net_applyOperation">
<polygon fill="none" stroke="black" points="1282.5,-232.5 1282.5,-251.5 1383.5,-251.5 1383.5,-232.5 1282.5,-232.5"/>
<text text-anchor="middle" x="1333" y="-239.5" font-family="Helvetica,sans-Serif" font-size="10.00">net_applyOperation</text>
</a>
</g>
</g>
<!-- Node22&#45;&gt;Node24 -->
<g id="edge25" class="edge"><title>Node22&#45;&gt;Node24</title>
<path fill="none" stroke="midnightblue" d="M1054.52,-377.556C1060.43,-375.501 1066.41,-373.289 1072,-371 1166.2,-332.437 1273.62,-274.413 1314.75,-251.65"/>
<polygon fill="midnightblue" stroke="midnightblue" points="1053.07,-374.351 1044.7,-380.854 1055.3,-380.987 1053.07,-374.351"/>
</g>
<!-- Node25 -->
<g id="node25" class="node"><title>Node25</title>
<g id="a_node25"><a xlink:href="net_8h.html#a7ac0b179e1d386a853aba9b4fffa369a" target="_top" xlink:title="net_generateRandomEdges">
<polygon fill="none" stroke="black" points="1108.5,-380.5 1108.5,-399.5 1245.5,-399.5 1245.5,-380.5 1108.5,-380.5"/>
<text text-anchor="middle" x="1177" y="-387.5" font-family="Helvetica,sans-Serif" font-size="10.00">net_generateRandomEdges</text>
</a>
</g>
</g>
<!-- Node22&#45;&gt;Node25 -->
<g id="edge26" class="edge"><title>Node22&#45;&gt;Node25</title>
<path fill="none" stroke="midnightblue" d="M1055.04,-390C1071.22,-390 1090.25,-390 1108.36,-390"/>
<polygon fill="midnightblue" stroke="midnightblue" points="1054.85,-386.5 1044.85,-390 1054.85,-393.5 1054.85,-386.5"/>
</g>
<!-- Node23&#45;&gt;Node24 -->
<g id="edge24" class="edge"><title>Node23&#45;&gt;Node24</title>
<path fill="none" stroke="midnightblue" d="M1222.6,-242C1241.31,-242 1263.15,-242 1282.37,-242"/>
<polygon fill="midnightblue" stroke="midnightblue" points="1222.56,-238.5 1212.56,-242 1222.56,-245.5 1222.56,-238.5"/>
</g>
<!-- Node26 -->
<g id="node26" class="node"><title>Node26</title>
<g id="a_node26"><a xlink:href="data_8h.html#a0f45b98c6cac17904d9daf25fbdc1dc9" target="_top" xlink:title="data_generate">
<polygon fill="none" stroke="black" points="1294,-380.5 1294,-399.5 1372,-399.5 1372,-380.5 1294,-380.5"/>
<text text-anchor="middle" x="1333" y="-387.5" font-family="Helvetica,sans-Serif" font-size="10.00">data_generate</text>
</a>
</g>
</g>
<!-- Node25&#45;&gt;Node26 -->
<g id="edge27" class="edge"><title>Node25&#45;&gt;Node26</title>
<path fill="none" stroke="midnightblue" d="M1255.64,-390C1268.87,-390 1282.07,-390 1293.68,-390"/>
<polygon fill="midnightblue" stroke="midnightblue" points="1255.55,-386.5 1245.55,-390 1255.55,-393.5 1255.55,-386.5"/>
</g>
<!-- Node27 -->
<g id="node27" class="node"><title>Node27</title>
<g id="a_node27"><a xlink:href="bayes_8c.html#a40c5c0b0d4eb7b59a91108269f69dc89" target="_top" xlink:title="MAIN">
<polygon fill="none" stroke="black" points="1432,-380.5 1432,-399.5 1474,-399.5 1474,-380.5 1432,-380.5"/>
<text text-anchor="middle" x="1453" y="-387.5" font-family="Helvetica,sans-Serif" font-size="10.00">MAIN</text>
</a>
</g>
</g>
<!-- Node26&#45;&gt;Node27 -->
<g id="edge28" class="edge"><title>Node26&#45;&gt;Node27</title>
<path fill="none" stroke="midnightblue" d="M1382.77,-390C1399.91,-390 1418.23,-390 1431.72,-390"/>
<polygon fill="midnightblue" stroke="midnightblue" points="1382.31,-386.5 1372.31,-390 1382.31,-393.5 1382.31,-386.5"/>
</g>
<!-- Node31 -->
<g id="node31" class="node"><title>Node31</title>
<g id="a_node31"><a xlink:href="labyrinth_8c.html#a40c5c0b0d4eb7b59a91108269f69dc89" target="_top" xlink:title="MAIN">
<polygon fill="none" stroke="black" points="1156,-456.5 1156,-475.5 1198,-475.5 1198,-456.5 1156,-456.5"/>
<text text-anchor="middle" x="1177" y="-463.5" font-family="Helvetica,sans-Serif" font-size="10.00">MAIN</text>
</a>
</g>
</g>
<!-- Node30&#45;&gt;Node31 -->
<g id="edge32" class="edge"><title>Node30&#45;&gt;Node31</title>
<path fill="none" stroke="midnightblue" d="M1055.63,-466C1087.74,-466 1130.77,-466 1155.73,-466"/>
<polygon fill="midnightblue" stroke="midnightblue" points="1055.62,-462.5 1045.62,-466 1055.62,-469.5 1055.62,-462.5"/>
</g>
<!-- Node33 -->
<g id="node33" class="node"><title>Node33</title>
<g id="a_node33"><a xlink:href="mesh_8h.html#aad7f19da2c7732d977e683849a724e5f" target="_top" xlink:title="mesh_insert">
<polygon fill="none" stroke="black" points="1142,-418.5 1142,-437.5 1212,-437.5 1212,-418.5 1142,-418.5"/>
<text text-anchor="middle" x="1177" y="-425.5" font-family="Helvetica,sans-Serif" font-size="10.00">mesh_insert</text>
</a>
</g>
</g>
<!-- Node32&#45;&gt;Node33 -->
<g id="edge35" class="edge"><title>Node32&#45;&gt;Node33</title>
<path fill="none" stroke="midnightblue" d="M1078.96,-428C1100.54,-428 1123.71,-428 1141.99,-428"/>
<polygon fill="midnightblue" stroke="midnightblue" points="1078.85,-424.5 1068.85,-428 1078.85,-431.5 1078.85,-424.5"/>
</g>
<!-- Node34 -->
<g id="node34" class="node"><title>Node34</title>
<g id="a_node34"><a xlink:href="mesh_8c.html#a0351e3ec738e05a319ead0e2e44353d0" target="_top" xlink:title="createElement">
<polygon fill="none" stroke="black" points="1293,-418.5 1293,-437.5 1373,-437.5 1373,-418.5 1293,-418.5"/>
<text text-anchor="middle" x="1333" y="-425.5" font-family="Helvetica,sans-Serif" font-size="10.00">createElement</text>
</a>
</g>
</g>
<!-- Node33&#45;&gt;Node34 -->
<g id="edge36" class="edge"><title>Node33&#45;&gt;Node34</title>
<path fill="none" stroke="midnightblue" d="M1222.37,-428C1244.6,-428 1271.28,-428 1292.76,-428"/>
<polygon fill="midnightblue" stroke="midnightblue" points="1222.18,-424.5 1212.18,-428 1222.18,-431.5 1222.18,-424.5"/>
</g>
<!-- Node35 -->
<g id="node35" class="node"><title>Node35</title>
<g id="a_node35"><a xlink:href="mesh_8h.html#a0ee17a9bc1b62a498c98f8e0dc41d902" target="_top" xlink:title="mesh_read">
<polygon fill="none" stroke="black" points="1420.5,-418.5 1420.5,-437.5 1485.5,-437.5 1485.5,-418.5 1420.5,-418.5"/>
<text text-anchor="middle" x="1453" y="-425.5" font-family="Helvetica,sans-Serif" font-size="10.00">mesh_read</text>
</a>
</g>
</g>
<!-- Node34&#45;&gt;Node35 -->
<g id="edge37" class="edge"><title>Node34&#45;&gt;Node35</title>
<path fill="none" stroke="midnightblue" d="M1383.56,-428C1396,-428 1409.02,-428 1420.32,-428"/>
<polygon fill="midnightblue" stroke="midnightblue" points="1383.29,-424.5 1373.29,-428 1383.29,-431.5 1383.29,-424.5"/>
</g>
<!-- Node36 -->
<g id="node36" class="node"><title>Node36</title>
<g id="a_node36"><a xlink:href="yada_8c.html#a40c5c0b0d4eb7b59a91108269f69dc89" target="_top" xlink:title="MAIN">
<polygon fill="none" stroke="black" points="1522,-418.5 1522,-437.5 1564,-437.5 1564,-418.5 1522,-418.5"/>
<text text-anchor="middle" x="1543" y="-425.5" font-family="Helvetica,sans-Serif" font-size="10.00">MAIN</text>
</a>
</g>
</g>
<!-- Node35&#45;&gt;Node36 -->
<g id="edge38" class="edge"><title>Node35&#45;&gt;Node36</title>
<path fill="none" stroke="midnightblue" d="M1495.84,-428C1504.87,-428 1514.03,-428 1521.78,-428"/>
<polygon fill="midnightblue" stroke="midnightblue" points="1495.77,-424.5 1485.77,-428 1495.77,-431.5 1495.77,-424.5"/>
</g>
<!-- Node38&#45;&gt;Node18 -->
<g id="edge45" class="edge"><title>Node38&#45;&gt;Node18</title>
<path fill="none" stroke="midnightblue" d="M921.103,-124C935.071,-124 950.634,-124 964.879,-124"/>
<polygon fill="midnightblue" stroke="midnightblue" points="920.78,-120.5 910.78,-124 920.78,-127.5 920.78,-120.5"/>
</g>
<!-- Node39 -->
<g id="node39" class="node"><title>Node39</title>
<g id="a_node39"><a xlink:href="net_8c.html#a2110916d842d0952f1542e4e96ba98bb" target="_top" xlink:title="removeEdge">
<polygon fill="none" stroke="black" points="977.5,-76.5 977.5,-95.5 1048.5,-95.5 1048.5,-76.5 977.5,-76.5"/>
<text text-anchor="middle" x="1013" y="-83.5" font-family="Helvetica,sans-Serif" font-size="10.00">removeEdge</text>
</a>
</g>
</g>
<!-- Node38&#45;&gt;Node39 -->
<g id="edge41" class="edge"><title>Node38&#45;&gt;Node39</title>
<path fill="none" stroke="midnightblue" d="M920.493,-111.95C939.11,-106.67 960.653,-100.561 978.159,-95.5967"/>
<polygon fill="midnightblue" stroke="midnightblue" points="919.446,-108.609 910.78,-114.704 921.356,-115.343 919.446,-108.609"/>
</g>
<!-- Node40 -->
<g id="node40" class="node"><title>Node40</title>
<g id="a_node40"><a xlink:href="table_8h.html#a107c408953d09606276157cef79af7d4" target="_top" xlink:title="table_remove">
<polygon fill="none" stroke="black" points="975.5,-38.5 975.5,-57.5 1050.5,-57.5 1050.5,-38.5 975.5,-38.5"/>
<text text-anchor="middle" x="1013" y="-45.5" font-family="Helvetica,sans-Serif" font-size="10.00">table_remove</text>
</a>
</g>
</g>
<!-- Node38&#45;&gt;Node40 -->
<g id="edge44" class="edge"><title>Node38&#45;&gt;Node40</title>
<path fill="none" stroke="midnightblue" d="M911.022,-109.544C913.447,-108.114 915.801,-106.596 918,-105 936.827,-91.3327 934.345,-79.4462 954,-67 960.535,-62.8618 968.059,-59.5387 975.477,-56.9024"/>
<polygon fill="midnightblue" stroke="midnightblue" points="909.251,-106.523 902.084,-114.326 912.553,-112.695 909.251,-106.523"/>
</g>
<!-- Node39&#45;&gt;Node23 -->
<g id="edge42" class="edge"><title>Node39&#45;&gt;Node23</title>
<path fill="none" stroke="midnightblue" d="M1058.04,-95.6592C1063.16,-98.1028 1067.97,-101.164 1072,-105 1104.4,-135.846 1079.65,-164.393 1108,-199 1120.13,-213.803 1138.75,-225.077 1153.44,-232.36"/>
<polygon fill="midnightblue" stroke="midnightblue" points="1059.22,-92.3593 1048.63,-91.8944 1056.62,-98.8585 1059.22,-92.3593"/>
</g>
<!-- Node39&#45;&gt;Node24 -->
<g id="edge43" class="edge"><title>Node39&#45;&gt;Node24</title>
<path fill="none" stroke="midnightblue" d="M1058.74,-88.944C1107.86,-93.9242 1187.51,-107.28 1246,-143 1284.28,-166.375 1314.57,-212.4 1326.5,-232.373"/>
<polygon fill="midnightblue" stroke="midnightblue" points="1059.03,-85.4554 1048.75,-88.0034 1058.37,-92.4247 1059.03,-85.4554"/>
</g>
<!-- Node43 -->
<g id="node43" class="node"><title>Node43</title>
<g id="a_node43"><a xlink:href="list_8h.html#a0df36bca5d3d52f49147ca6fca13a375" target="_top" xlink:title="TMlist_find">
<polygon fill="none" stroke="black" points="844.5,-0.5 844.5,-19.5 909.5,-19.5 909.5,-0.5 844.5,-0.5"/>
<text text-anchor="middle" x="877" y="-7.5" font-family="Helvetica,sans-Serif" font-size="10.00">TMlist_find</text>
</a>
</g>
</g>
<!-- Node42&#45;&gt;Node43 -->
<g id="edge48" class="edge"><title>Node42&#45;&gt;Node43</title>
<path fill="none" stroke="midnightblue" d="M790.058,-72.4558C793.52,-70.815 796.877,-69.0006 800,-67 819.589,-54.4505 817.173,-42.6673 836,-29 840.853,-25.4771 846.462,-22.3371 851.916,-19.6738"/>
<polygon fill="midnightblue" stroke="midnightblue" points="788.579,-69.2811 780.735,-76.4025 791.308,-75.7273 788.579,-69.2811"/>
</g>
<!-- Node44 -->
<g id="node44" class="node"><title>Node44</title>
<g id="a_node44"><a xlink:href="list_8h.html#a7679cbef6358f1266bd7aff211c8cf19" target="_top" xlink:title="TMlist_insert">
<polygon fill="none" stroke="black" points="840.5,-76.5 840.5,-95.5 913.5,-95.5 913.5,-76.5 840.5,-76.5"/>
<text text-anchor="middle" x="877" y="-83.5" font-family="Helvetica,sans-Serif" font-size="10.00">TMlist_insert</text>
</a>
</g>
</g>
<!-- Node42&#45;&gt;Node44 -->
<g id="edge49" class="edge"><title>Node42&#45;&gt;Node44</title>
<path fill="none" stroke="midnightblue" d="M795.862,-86C810.735,-86 826.613,-86 840.279,-86"/>
<polygon fill="midnightblue" stroke="midnightblue" points="795.766,-82.5001 785.766,-86 795.766,-89.5001 795.766,-82.5001"/>
</g>
<!-- Node45 -->
<g id="node45" class="node"><title>Node45</title>
<g id="a_node45"><a xlink:href="list_8h.html#ad902641bf9d9dc19901fb99fdc0ac0a6" target="_top" xlink:title="TMlist_remove">
<polygon fill="none" stroke="black" points="836.5,-38.5 836.5,-57.5 917.5,-57.5 917.5,-38.5 836.5,-38.5"/>
<text text-anchor="middle" x="877" y="-45.5" font-family="Helvetica,sans-Serif" font-size="10.00">TMlist_remove</text>
</a>
</g>
</g>
<!-- Node42&#45;&gt;Node45 -->
<g id="edge50" class="edge"><title>Node42&#45;&gt;Node45</title>
<path fill="none" stroke="midnightblue" d="M787.041,-73.6094C805.118,-68.4055 825.819,-62.4459 842.701,-57.5859"/>
<polygon fill="midnightblue" stroke="midnightblue" points="785.951,-70.2811 777.309,-76.411 787.887,-77.0079 785.951,-70.2811"/>
</g>
<!-- Node48&#45;&gt;Node11 -->
<g id="edge54" class="edge"><title>Node48&#45;&gt;Node11</title>
<path fill="none" stroke="midnightblue" d="M492.013,-150.842C521.57,-154.585 555.855,-158.928 574.397,-161.277"/>
<polygon fill="midnightblue" stroke="midnightblue" points="492.15,-147.331 481.789,-149.547 491.27,-154.276 492.15,-147.331"/>
</g>
<!-- Node49&#45;&gt;Node11 -->
<g id="edge56" class="edge"><title>Node49&#45;&gt;Node11</title>
<path fill="none" stroke="midnightblue" d="M475.578,-206.988C481.098,-205.016 486.705,-202.979 492,-201 521.552,-189.957 555.845,-176.137 574.392,-168.578"/>
<polygon fill="midnightblue" stroke="midnightblue" points="474.082,-203.805 465.823,-210.441 476.418,-210.403 474.082,-203.805"/>
</g>
<!-- Node50&#45;&gt;Node10 -->
<g id="edge58" class="edge"><title>Node50&#45;&gt;Node10</title>
<path fill="none" stroke="midnightblue" d="M339.835,-164.637C357.302,-167.791 376.917,-171.332 393.853,-174.39"/>
<polygon fill="midnightblue" stroke="midnightblue" points="340.297,-161.164 329.834,-162.831 339.053,-168.052 340.297,-161.164"/>
</g>
<!-- Node50&#45;&gt;Node48 -->
<g id="edge59" class="edge"><title>Node50&#45;&gt;Node48</title>
<path fill="none" stroke="midnightblue" d="M340.05,-151.996C356.932,-150.589 375.796,-149.017 392.301,-147.642"/>
<polygon fill="midnightblue" stroke="midnightblue" points="339.509,-148.529 329.834,-152.847 340.09,-155.505 339.509,-148.529"/>
</g>
</g>
</svg>
        <g id="navigator" transform="translate(0 0)" fill="#404254">
                <rect fill="#f2f5e9" fill-opacity="0.5" stroke="#606060" stroke-width=".5" x="0" y="0" width="60" height="60"/>
                <use id="zoomplus" xlink:href="#zoomPlus" x="17" y="9" onmousedown="handleZoom(evt,'in')"/>
                <use id="zoomminus" xlink:href="#zoomMin" x="42" y="9" onmousedown="handleZoom(evt,'out')"/>
                <use id="reset" xlink:href="#resetDef" x="30" y="36" onmousedown="handleReset()"/>
                <g id="arrowUp" xlink:href="#dirArrow" transform="translate(30 24)" onmousedown="handlePan(0,-1)">
                  <use xlink:href="#rim" fill="#404040">
                        <set attributeName="fill" to="#808080" begin="arrowUp.mouseover" end="arrowUp.mouseout"/>
                  </use>
                  <path fill="none" stroke="white" stroke-width="1.5" d="M0,-3.0v7 M-2.5,-0.5L0,-3.0L2.5,-0.5"/>
                </g>
                <g id="arrowRight" xlink:href="#dirArrow" transform="rotate(90) translate(36 -43)" onmousedown="handlePan(1,0)">
                  <use xlink:href="#rim" fill="#404040">
                        <set attributeName="fill" to="#808080" begin="arrowRight.mouseover" end="arrowRight.mouseout"/>
                  </use>
                  <path fill="none" stroke="white" stroke-width="1.5" d="M0,-3.0v7 M-2.5,-0.5L0,-3.0L2.5,-0.5"/>
                </g>
                <g id="arrowDown" xlink:href="#dirArrow" transform="rotate(180) translate(-30 -48)" onmousedown="handlePan(0,1)">
                  <use xlink:href="#rim" fill="#404040">
                        <set attributeName="fill" to="#808080" begin="arrowDown.mouseover" end="arrowDown.mouseout"/>
                  </use>
                  <path fill="none" stroke="white" stroke-width="1.5" d="M0,-3.0v7 M-2.5,-0.5L0,-3.0L2.5,-0.5"/>
                </g>
                <g id="arrowLeft" xlink:href="#dirArrow" transform="rotate(270) translate(-36 17)" onmousedown="handlePan(-1,0)">
                  <use xlink:href="#rim" fill="#404040">
                        <set attributeName="fill" to="#808080" begin="arrowLeft.mouseover" end="arrowLeft.mouseout"/>
                  </use>
                  <path fill="none" stroke="white" stroke-width="1.5" d="M0,-3.0v7 M-2.5,-0.5L0,-3.0L2.5,-0.5"/>
                </g>
        </g>
        <svg viewBox="0 0 15 15" width="100%" height="30px" preserveAspectRatio="xMaxYMin meet">
         <g id="arrow_out" transform="scale(0.3 0.3)">
          <a xlink:href="stm__fraser_8c_a4e016a575dac2ee3931ef9ec94550d33_icgraph_org.svg" target="_base">
           <rect id="button" ry="5" rx="5" y="6" x="6" height="38" width="38"
                fill="#f2f5e9" fill-opacity="0.5" stroke="#606060" stroke-width="1.0"/>
           <path id="arrow"
             d="M 11.500037,31.436501 C 11.940474,20.09759 22.043105,11.32322 32.158766,21.979434 L 37.068811,17.246167 C 37.068811,17.246167 37.088388,32 37.088388,32 L 22.160133,31.978069 C 22.160133,31.978069 26.997745,27.140456 26.997745,27.140456 C 18.528582,18.264221 13.291696,25.230495 11.500037,31.436501 z"
             style="fill:#404040;"/>
          </a>
         </g>
        </svg>
</svg>
