<?xml version="1.0" encoding="UTF-8" standalone="no"?>
<!DOCTYPE svg PUBLIC "-//W3C//DTD SVG 1.1//EN"
 "http://www.w3.org/Graphics/SVG/1.1/DTD/svg11.dtd">
<!-- Generated by graphviz version 2.36.0 (20140111.2315)
 -->
<!-- Title: _init_stm_subsystem Pages: 1 -->
<!--zoomable 284 -->
<svg id="main" version="1.1" xmlns="http://www.w3.org/2000/svg" xmlns:xlink="http://www.w3.org/1999/xlink" xml:space="preserve" onload="init(evt)">
<style type="text/css"><![CDATA[
.edge:hover path { stroke: red; }
.edge:hover polygon { stroke: red; fill: red; }
]]></style>
<script type="text/javascript"><![CDATA[
var edges = document.getElementsByTagName('g');
if (edges && edges.length) {
  for (var i=0;i<edges.length;i++) {
    if (edges[i].id.substr(0,4)=='edge') {
      edges[i].setAttribute('class','edge');
    }
  }
}
]]></script>
        <defs>
                <circle id="rim" cx="0" cy="0" r="7"/>
                <circle id="rim2" cx="0" cy="0" r="3.5"/>
                <g id="zoomPlus">
                        <use xlink:href="#rim" fill="#404040">
                                <set attributeName="fill" to="#808080" begin="zoomplus.mouseover" end="zoomplus.mouseout"/>
                        </use>
                        <path d="M-4,0h8M0,-4v8" fill="none" stroke="white" stroke-width="1.5" pointer-events="none"/>
                </g>
                <g id="zoomMin">
                        <use xlink:href="#rim" fill="#404040">
                                <set attributeName="fill" to="#808080" begin="zoomminus.mouseover" end="zoomminus.mouseout"/>
                        </use>
                        <path d="M-4,0h8" fill="none" stroke="white" stroke-width="1.5" pointer-events="none"/>
                </g>
                <g id="dirArrow">
                        <path fill="none" stroke="white" stroke-width="1.5" d="M0,-3.0v7 M-2.5,-0.5L0,-3.0L2.5,-0.5"/>
                </g>
               <g id="resetDef">
                       <use xlink:href="#rim2" fill="#404040">
                               <set attributeName="fill" to="#808080" begin="reset.mouseover" end="reset.mouseout"/>
                       </use>
               </g>
        </defs>

<script type="text/javascript">
var viewWidth = 1550;
var viewHeight = 284;
var sectionId = 'dynsection-1';
</script>
<script xlink:href="svgpan.js"/>
<svg id="graph" class="graph">
<g id="viewport">
<title>_init_stm_subsystem</title>
<!-- Node1 -->
<g id="node1" class="node"><title>Node1</title>
<polygon fill="#bfbfbf" stroke="black" points="0,-132.5 0,-151.5 110,-151.5 110,-132.5 0,-132.5"/>
<text text-anchor="middle" x="55" y="-139.5" font-family="Helvetica,sans-Serif" font-size="10.00">_init_stm_subsystem</text>
</g>
<!-- Node2 -->
<g id="node2" class="node"><title>Node2</title>
<g id="a_node2"><a xlink:href="gc_8c.html#a28811cf9cf00d0ff764ddab38590e9ef" target="_top" xlink:title="fr_gc_add_allocator">
<polygon fill="none" stroke="black" points="374.5,-237.5 374.5,-256.5 475.5,-256.5 475.5,-237.5 374.5,-237.5"/>
<text text-anchor="middle" x="425" y="-244.5" font-family="Helvetica,sans-Serif" font-size="10.00">fr_gc_add_allocator</text>
</a>
</g>
</g>
<!-- Node1&#45;&gt;Node2 -->
<g id="edge1" class="edge"><title>Node1&#45;&gt;Node2</title>
<path fill="none" stroke="midnightblue" d="M89.3066,-151.503C156.053,-170.548 306.148,-213.374 380.527,-234.596"/>
<polygon fill="midnightblue" stroke="midnightblue" points="379.927,-238.064 390.504,-237.443 381.848,-231.333 379.927,-238.064"/>
</g>
<!-- Node7 -->
<g id="node7" class="node"><title>Node7</title>
<g id="a_node7"><a xlink:href="stm__fraser_8c.html#aa57c521c9ca8d9bfc271c7077c3ea3a0" target="_top" xlink:title="handle_fault">
<polygon fill="none" stroke="black" points="146.5,-85.5 146.5,-104.5 215.5,-104.5 215.5,-85.5 146.5,-85.5"/>
<text text-anchor="middle" x="181" y="-92.5" font-family="Helvetica,sans-Serif" font-size="10.00">handle_fault</text>
</a>
</g>
</g>
<!-- Node1&#45;&gt;Node7 -->
<g id="edge6" class="edge"><title>Node1&#45;&gt;Node7</title>
<path fill="none" stroke="midnightblue" d="M81.0933,-132.489C99.4597,-125.527 124.62,-115.991 144.967,-108.279"/>
<polygon fill="midnightblue" stroke="midnightblue" points="146.408,-111.475 154.518,-104.658 143.927,-104.93 146.408,-111.475"/>
</g>
<!-- Node3 -->
<g id="node3" class="node"><title>Node3</title>
<g id="a_node3"><a xlink:href="gc_8c.html#ae47e099483bed50da4e41b906c300b99" target="_top" xlink:title="get_filled_chunks">
<polygon fill="none" stroke="black" points="1172,-190.5 1172,-209.5 1264,-209.5 1264,-190.5 1172,-190.5"/>
<text text-anchor="middle" x="1218" y="-197.5" font-family="Helvetica,sans-Serif" font-size="10.00">get_filled_chunks</text>
</a>
</g>
</g>
<!-- Node2&#45;&gt;Node3 -->
<g id="edge2" class="edge"><title>Node2&#45;&gt;Node3</title>
<path fill="none" stroke="midnightblue" d="M475.95,-255.938C527.974,-264.458 611.927,-276 685,-276 685,-276 685,-276 961,-276 1047.13,-276 1143.08,-235.973 1189.23,-214.016"/>
<polygon fill="midnightblue" stroke="midnightblue" points="1190.82,-217.132 1198.3,-209.625 1187.77,-210.832 1190.82,-217.132"/>
</g>
<!-- Node4 -->
<g id="node4" class="node"><title>Node4</title>
<g id="a_node4"><a xlink:href="gc_8c.html#a2a6f41199ed37925df4cc7b9909dc0ed" target="_top" xlink:title="get_empty_chunks">
<polygon fill="none" stroke="black" points="1304.5,-114.5 1304.5,-133.5 1403.5,-133.5 1403.5,-114.5 1304.5,-114.5"/>
<text text-anchor="middle" x="1354" y="-121.5" font-family="Helvetica,sans-Serif" font-size="10.00">get_empty_chunks</text>
</a>
</g>
</g>
<!-- Node3&#45;&gt;Node4 -->
<g id="edge3" class="edge"><title>Node3&#45;&gt;Node4</title>
<path fill="none" stroke="midnightblue" d="M1235.97,-190.375C1259.03,-177.297 1300.45,-153.804 1327.32,-138.563"/>
<polygon fill="midnightblue" stroke="midnightblue" points="1329.19,-141.525 1336.17,-133.547 1325.74,-135.436 1329.19,-141.525"/>
</g>
<!-- Node5 -->
<g id="node5" class="node"><title>Node5</title>
<g id="a_node5"><a xlink:href="gc_8c.html#ac360b80b93ad00f0fba18a1993e1d6a0" target="_top" xlink:title="add_chunks_to_list">
<polygon fill="none" stroke="black" points="1440.5,-152.5 1440.5,-171.5 1541.5,-171.5 1541.5,-152.5 1440.5,-152.5"/>
<text text-anchor="middle" x="1491" y="-159.5" font-family="Helvetica,sans-Serif" font-size="10.00">add_chunks_to_list</text>
</a>
</g>
</g>
<!-- Node4&#45;&gt;Node5 -->
<g id="edge4" class="edge"><title>Node4&#45;&gt;Node5</title>
<path fill="none" stroke="midnightblue" d="M1389.07,-133.589C1406.41,-138.472 1427.7,-144.464 1446.25,-149.685"/>
<polygon fill="midnightblue" stroke="midnightblue" points="1445.37,-153.074 1455.94,-152.414 1447.27,-146.335 1445.37,-153.074"/>
</g>
<!-- Node6 -->
<g id="node6" class="node"><title>Node6</title>
<g id="a_node6"><a xlink:href="gc_8c.html#ade31863985bdaa481ade142bdfb6d99f" target="_top" xlink:title="alloc_more_chunks">
<polygon fill="none" stroke="black" points="1440.5,-114.5 1440.5,-133.5 1541.5,-133.5 1541.5,-114.5 1440.5,-114.5"/>
<text text-anchor="middle" x="1491" y="-121.5" font-family="Helvetica,sans-Serif" font-size="10.00">alloc_more_chunks</text>
</a>
</g>
</g>
<!-- Node4&#45;&gt;Node6 -->
<g id="edge5" class="edge"><title>Node4&#45;&gt;Node6</title>
<path fill="none" stroke="midnightblue" d="M1403.74,-124C1412.31,-124 1421.33,-124 1430.17,-124"/>
<polygon fill="midnightblue" stroke="midnightblue" points="1430.43,-127.5 1440.43,-124 1430.43,-120.5 1430.43,-127.5"/>
</g>
<!-- Node8 -->
<g id="node8" class="node"><title>Node8</title>
<g id="a_node8"><a xlink:href="ptst_8c.html#a9f490f3eb71074b856eb2206f97c6cb1" target="_top" xlink:title="fr_critical_enter">
<polygon fill="none" stroke="black" points="784.5,-142.5 784.5,-161.5 867.5,-161.5 867.5,-142.5 784.5,-142.5"/>
<text text-anchor="middle" x="826" y="-149.5" font-family="Helvetica,sans-Serif" font-size="10.00">fr_critical_enter</text>
</a>
</g>
</g>
<!-- Node7&#45;&gt;Node8 -->
<g id="edge7" class="edge"><title>Node7&#45;&gt;Node8</title>
<path fill="none" stroke="midnightblue" d="M205.947,-104.541C248.902,-120.767 342.205,-152 424,-152 424,-152 424,-152 555,-152 631.404,-152 719.97,-152 774.237,-152"/>
<polygon fill="midnightblue" stroke="midnightblue" points="774.29,-155.5 784.29,-152 774.29,-148.5 774.29,-155.5"/>
</g>
<!-- Node14 -->
<g id="node14" class="node"><title>Node14</title>
<g id="a_node14"><a xlink:href="stm__fraser_8c.html#acd69585b95bbcac8c69333f4aaee4335" target="_top" xlink:title="validate_stm_tx">
<polygon fill="none" stroke="black" points="252,-85.5 252,-104.5 338,-104.5 338,-85.5 252,-85.5"/>
<text text-anchor="middle" x="295" y="-92.5" font-family="Helvetica,sans-Serif" font-size="10.00">validate_stm_tx</text>
</a>
</g>
</g>
<!-- Node7&#45;&gt;Node14 -->
<g id="edge18" class="edge"><title>Node7&#45;&gt;Node14</title>
<path fill="none" stroke="midnightblue" d="M215.604,-95C223.755,-95 232.663,-95 241.458,-95"/>
<polygon fill="midnightblue" stroke="midnightblue" points="241.678,-98.5001 251.678,-95 241.678,-91.5001 241.678,-98.5001"/>
</g>
<!-- Node22 -->
<g id="node22" class="node"><title>Node22</title>
<g id="a_node22"><a xlink:href="stm__fraser_8c.html#a31ea9d61a84d817aac10ffbc4ba9f296" target="_top" xlink:title="commit_stm_tx">
<polygon fill="none" stroke="black" points="512,-28.5 512,-47.5 596,-47.5 596,-28.5 512,-28.5"/>
<text text-anchor="middle" x="554" y="-35.5" font-family="Helvetica,sans-Serif" font-size="10.00">commit_stm_tx</text>
</a>
</g>
</g>
<!-- Node7&#45;&gt;Node22 -->
<g id="edge32" class="edge"><title>Node7&#45;&gt;Node22</title>
<path fill="none" stroke="midnightblue" d="M213.489,-85.4495C225.46,-82.0845 239.276,-78.5172 252,-76 338.943,-58.7996 441.633,-47.7934 501.808,-42.2697"/>
<polygon fill="midnightblue" stroke="midnightblue" points="502.169,-45.7514 511.813,-41.3659 501.539,-38.7798 502.169,-45.7514"/>
</g>
<!-- Node24 -->
<g id="node24" class="node"><title>Node24</title>
<g id="a_node24"><a xlink:href="stmskip_8cc.html#a5db6833ad98c08797c5dffd75d264833" target="_top" xlink:title="fr_critical_exit">
<polygon fill="none" stroke="black" points="256.5,-9.5 256.5,-28.5 333.5,-28.5 333.5,-9.5 256.5,-9.5"/>
<text text-anchor="middle" x="295" y="-16.5" font-family="Helvetica,sans-Serif" font-size="10.00">fr_critical_exit</text>
</a>
</g>
</g>
<!-- Node7&#45;&gt;Node24 -->
<g id="edge33" class="edge"><title>Node7&#45;&gt;Node24</title>
<path fill="none" stroke="midnightblue" d="M194.073,-85.337C207.777,-74.5338 230.966,-56.7519 252,-43 256.833,-39.8405 262.099,-36.6471 267.217,-33.6659"/>
<polygon fill="midnightblue" stroke="midnightblue" points="269.187,-36.572 276.144,-28.5819 265.723,-30.4891 269.187,-36.572"/>
</g>
<!-- Node9 -->
<g id="node9" class="node"><title>Node9</title>
<g id="a_node9"><a xlink:href="gc_8c.html#aa06f5acb271ed4c9afcc728f3ceae52f" target="_top" xlink:title="fr_gc_init">
<polygon fill="none" stroke="black" points="932,-123.5 932,-142.5 988,-142.5 988,-123.5 932,-123.5"/>
<text text-anchor="middle" x="960" y="-130.5" font-family="Helvetica,sans-Serif" font-size="10.00">fr_gc_init</text>
</a>
</g>
</g>
<!-- Node8&#45;&gt;Node9 -->
<g id="edge8" class="edge"><title>Node8&#45;&gt;Node9</title>
<path fill="none" stroke="midnightblue" d="M867.681,-146.144C884.87,-143.67 904.759,-140.807 921.579,-138.386"/>
<polygon fill="midnightblue" stroke="midnightblue" points="922.204,-141.833 931.603,-136.943 921.207,-134.904 922.204,-141.833"/>
</g>
<!-- Node12 -->
<g id="node12" class="node"><title>Node12</title>
<g id="a_node12"><a xlink:href="gc_8c.html#a1b011e952f943e62b80e39768305d3fb" target="_top" xlink:title="fr_gc_enter">
<polygon fill="none" stroke="black" points="927.5,-190.5 927.5,-209.5 992.5,-209.5 992.5,-190.5 927.5,-190.5"/>
<text text-anchor="middle" x="960" y="-197.5" font-family="Helvetica,sans-Serif" font-size="10.00">fr_gc_enter</text>
</a>
</g>
</g>
<!-- Node8&#45;&gt;Node12 -->
<g id="edge15" class="edge"><title>Node8&#45;&gt;Node12</title>
<path fill="none" stroke="midnightblue" d="M853.395,-161.598C873.36,-168.858 900.997,-178.908 922.99,-186.906"/>
<polygon fill="midnightblue" stroke="midnightblue" points="922.057,-190.29 932.651,-190.418 924.449,-183.712 922.057,-190.29"/>
</g>
<!-- Node9&#45;&gt;Node4 -->
<g id="edge9" class="edge"><title>Node9&#45;&gt;Node4</title>
<path fill="none" stroke="midnightblue" d="M988.253,-132.374C1051.24,-130.928 1208.07,-127.328 1294.15,-125.351"/>
<polygon fill="midnightblue" stroke="midnightblue" points="1294.36,-128.847 1304.28,-125.119 1294.2,-121.849 1294.36,-128.847"/>
</g>
<!-- Node10 -->
<g id="node10" class="node"><title>Node10</title>
<g id="a_node10"><a xlink:href="gc_8c.html#a6dffa65320ddab40d01f198433b3aeb6" target="_top" xlink:title="get_alloc_chunk">
<polygon fill="none" stroke="black" points="1044.5,-152.5 1044.5,-171.5 1131.5,-171.5 1131.5,-152.5 1044.5,-152.5"/>
<text text-anchor="middle" x="1088" y="-159.5" font-family="Helvetica,sans-Serif" font-size="10.00">get_alloc_chunk</text>
</a>
</g>
</g>
<!-- Node9&#45;&gt;Node10 -->
<g id="edge10" class="edge"><title>Node9&#45;&gt;Node10</title>
<path fill="none" stroke="midnightblue" d="M988.03,-139.221C1001.92,-142.419 1019.32,-146.424 1035.65,-150.181"/>
<polygon fill="midnightblue" stroke="midnightblue" points="1035.1,-153.646 1045.63,-152.478 1036.67,-146.824 1035.1,-153.646"/>
</g>
<!-- Node11 -->
<g id="node11" class="node"><title>Node11</title>
<g id="a_node11"><a xlink:href="gc_8c.html#afb494e950c8c6b5661974748ae89b61e" target="_top" xlink:title="chunk_from_cache">
<polygon fill="none" stroke="black" points="1168.5,-76.5 1168.5,-95.5 1267.5,-95.5 1267.5,-76.5 1168.5,-76.5"/>
<text text-anchor="middle" x="1218" y="-83.5" font-family="Helvetica,sans-Serif" font-size="10.00">chunk_from_cache</text>
</a>
</g>
</g>
<!-- Node9&#45;&gt;Node11 -->
<g id="edge13" class="edge"><title>Node9&#45;&gt;Node11</title>
<path fill="none" stroke="midnightblue" d="M988.068,-124.521C1004.18,-119.719 1025.11,-113.909 1044,-110 1081.67,-102.203 1124.5,-96.2393 1158.11,-92.2071"/>
<polygon fill="midnightblue" stroke="midnightblue" points="1158.71,-95.661 1168.23,-91.0178 1157.89,-88.7088 1158.71,-95.661"/>
</g>
<!-- Node10&#45;&gt;Node3 -->
<g id="edge11" class="edge"><title>Node10&#45;&gt;Node3</title>
<path fill="none" stroke="midnightblue" d="M1121.3,-171.589C1137.52,-176.404 1157.38,-182.299 1174.79,-187.468"/>
<polygon fill="midnightblue" stroke="midnightblue" points="1174.13,-190.923 1184.71,-190.414 1176.12,-184.213 1174.13,-190.923"/>
</g>
<!-- Node10&#45;&gt;Node5 -->
<g id="edge12" class="edge"><title>Node10&#45;&gt;Node5</title>
<path fill="none" stroke="midnightblue" d="M1131.53,-162C1203.25,-162 1348.39,-162 1430.28,-162"/>
<polygon fill="midnightblue" stroke="midnightblue" points="1430.43,-165.5 1440.43,-162 1430.43,-158.5 1430.43,-165.5"/>
</g>
<!-- Node11&#45;&gt;Node4 -->
<g id="edge14" class="edge"><title>Node11&#45;&gt;Node4</title>
<path fill="none" stroke="midnightblue" d="M1252.81,-95.589C1270.03,-100.472 1291.16,-106.464 1309.57,-111.685"/>
<polygon fill="midnightblue" stroke="midnightblue" points="1308.62,-115.053 1319.2,-114.414 1310.53,-108.319 1308.62,-115.053"/>
</g>
<!-- Node13 -->
<g id="node13" class="node"><title>Node13</title>
<g id="a_node13"><a xlink:href="gc_8c.html#a8c8094a35212fa8ed75ed9a4a38c7b9c" target="_top" xlink:title="gc_reclaim">
<polygon fill="none" stroke="black" points="1322,-209.5 1322,-228.5 1386,-228.5 1386,-209.5 1322,-209.5"/>
<text text-anchor="middle" x="1354" y="-216.5" font-family="Helvetica,sans-Serif" font-size="10.00">gc_reclaim</text>
</a>
</g>
</g>
<!-- Node12&#45;&gt;Node13 -->
<g id="edge16" class="edge"><title>Node12&#45;&gt;Node13</title>
<path fill="none" stroke="midnightblue" d="M992.501,-203.796C1033.03,-208.471 1105.63,-216.144 1168,-219 1217.42,-221.263 1274.34,-220.803 1311.84,-220.077"/>
<polygon fill="midnightblue" stroke="midnightblue" points="1311.96,-223.576 1321.88,-219.868 1311.81,-216.577 1311.96,-223.576"/>
</g>
<!-- Node13&#45;&gt;Node5 -->
<g id="edge17" class="edge"><title>Node13&#45;&gt;Node5</title>
<path fill="none" stroke="midnightblue" d="M1377.6,-209.459C1399.6,-200.171 1433.24,-185.964 1457.99,-175.514"/>
<polygon fill="midnightblue" stroke="midnightblue" points="1459.48,-178.686 1467.33,-171.572 1456.76,-172.237 1459.48,-178.686"/>
</g>
<!-- Node15 -->
<g id="node15" class="node"><title>Node15</title>
<g id="a_node15"><a xlink:href="stm__fraser_8c.html#a4e016a575dac2ee3931ef9ec94550d33" target="_top" xlink:title="read_blk_data">
<polygon fill="none" stroke="black" points="386.5,-85.5 386.5,-104.5 463.5,-104.5 463.5,-85.5 386.5,-85.5"/>
<text text-anchor="middle" x="425" y="-92.5" font-family="Helvetica,sans-Serif" font-size="10.00">read_blk_data</text>
</a>
</g>
</g>
<!-- Node14&#45;&gt;Node15 -->
<g id="edge19" class="edge"><title>Node14&#45;&gt;Node15</title>
<path fill="none" stroke="midnightblue" d="M338.267,-95C350.327,-95 363.557,-95 375.936,-95"/>
<polygon fill="midnightblue" stroke="midnightblue" points="376.091,-98.5001 386.091,-95 376.091,-91.5001 376.091,-98.5001"/>
</g>
<!-- Node16 -->
<g id="node16" class="node"><title>Node16</title>
<g id="a_node16"><a xlink:href="stm__fraser_8c.html#a3baf54f8c2c6bdb79109865e5500cbd9" target="_top" xlink:title="rc_up_descriptor">
<polygon fill="none" stroke="black" points="641.5,-38.5 641.5,-57.5 730.5,-57.5 730.5,-38.5 641.5,-38.5"/>
<text text-anchor="middle" x="686" y="-45.5" font-family="Helvetica,sans-Serif" font-size="10.00">rc_up_descriptor</text>
</a>
</g>
</g>
<!-- Node15&#45;&gt;Node16 -->
<g id="edge20" class="edge"><title>Node15&#45;&gt;Node16</title>
<path fill="none" stroke="midnightblue" d="M463.661,-88.1658C507.763,-80.1627 581.143,-66.8467 631.227,-57.7581"/>
<polygon fill="midnightblue" stroke="midnightblue" points="632.015,-61.1723 641.229,-55.943 630.765,-54.2848 632.015,-61.1723"/>
</g>
<!-- Node18 -->
<g id="node18" class="node"><title>Node18</title>
<g id="a_node18"><a xlink:href="stm__fraser_8c.html#ad41e28910c7dbe8cfd98c9e0c168c9dc" target="_top" xlink:title="rc_down_descriptor">
<polygon fill="none" stroke="black" points="635.5,-76.5 635.5,-95.5 736.5,-95.5 736.5,-76.5 635.5,-76.5"/>
<text text-anchor="middle" x="686" y="-83.5" font-family="Helvetica,sans-Serif" font-size="10.00">rc_down_descriptor</text>
</a>
</g>
</g>
<!-- Node15&#45;&gt;Node18 -->
<g id="edge22" class="edge"><title>Node15&#45;&gt;Node18</title>
<path fill="none" stroke="midnightblue" d="M463.817,-94.0558C498.271,-93.1555 550.56,-91.6892 596,-90 605.407,-89.6503 615.371,-89.2408 625.096,-88.8197"/>
<polygon fill="midnightblue" stroke="midnightblue" points="625.274,-92.3154 635.11,-88.3787 624.966,-85.3221 625.274,-92.3154"/>
</g>
<!-- Node15&#45;&gt;Node22 -->
<g id="edge28" class="edge"><title>Node15&#45;&gt;Node22</title>
<path fill="none" stroke="midnightblue" d="M447.257,-85.4595C467.77,-76.2528 499.047,-62.2153 522.269,-51.7926"/>
<polygon fill="midnightblue" stroke="midnightblue" points="523.984,-54.8595 531.674,-47.5716 521.117,-48.4732 523.984,-54.8595"/>
</g>
<!-- Node17 -->
<g id="node17" class="node"><title>Node17</title>
<g id="a_node17"><a xlink:href="stm__fraser_8c.html#a1a59f05201730ec9ba9a348070073e57" target="_top" xlink:title="rc_delta_descriptor">
<polygon fill="none" stroke="black" points="776.5,-38.5 776.5,-57.5 875.5,-57.5 875.5,-38.5 776.5,-38.5"/>
<text text-anchor="middle" x="826" y="-45.5" font-family="Helvetica,sans-Serif" font-size="10.00">rc_delta_descriptor</text>
</a>
</g>
</g>
<!-- Node16&#45;&gt;Node17 -->
<g id="edge21" class="edge"><title>Node16&#45;&gt;Node17</title>
<path fill="none" stroke="midnightblue" d="M730.664,-48C741.902,-48 754.18,-48 766.053,-48"/>
<polygon fill="midnightblue" stroke="midnightblue" points="766.346,-51.5001 776.346,-48 766.346,-44.5001 766.346,-51.5001"/>
</g>
<!-- Node19 -->
<g id="node19" class="node"><title>Node19</title>
<g id="a_node19"><a xlink:href="stm__fraser_8c.html#afd1a951db8c0f79e6bf20624e7dca338" target="_top" xlink:title="release_descriptor">
<polygon fill="none" stroke="black" points="778,-76.5 778,-95.5 874,-95.5 874,-76.5 778,-76.5"/>
<text text-anchor="middle" x="826" y="-83.5" font-family="Helvetica,sans-Serif" font-size="10.00">release_descriptor</text>
</a>
</g>
</g>
<!-- Node18&#45;&gt;Node19 -->
<g id="edge23" class="edge"><title>Node18&#45;&gt;Node19</title>
<path fill="none" stroke="midnightblue" d="M736.821,-86C746.78,-86 757.319,-86 767.512,-86"/>
<polygon fill="midnightblue" stroke="midnightblue" points="767.557,-89.5001 777.557,-86 767.556,-82.5001 767.557,-89.5001"/>
</g>
<!-- Node20 -->
<g id="node20" class="node"><title>Node20</title>
<g id="a_node20"><a xlink:href="gc_8c.html#a80f4a5c119aa70ab0452a73dfac21bbd" target="_top" xlink:title="fr_gc_free">
<polygon fill="none" stroke="black" points="1058,-38.5 1058,-57.5 1118,-57.5 1118,-38.5 1058,-38.5"/>
<text text-anchor="middle" x="1088" y="-45.5" font-family="Helvetica,sans-Serif" font-size="10.00">fr_gc_free</text>
</a>
</g>
</g>
<!-- Node19&#45;&gt;Node20 -->
<g id="edge24" class="edge"><title>Node19&#45;&gt;Node20</title>
<path fill="none" stroke="midnightblue" d="M874.111,-82.7609C910.777,-79.8291 962.848,-74.7649 1008,-67 1021.16,-64.7362 1035.4,-61.5477 1048.11,-58.4283"/>
<polygon fill="midnightblue" stroke="midnightblue" points="1049.08,-61.7926 1057.93,-55.9604 1047.38,-55.0038 1049.08,-61.7926"/>
</g>
<!-- Node21 -->
<g id="node21" class="node"><title>Node21</title>
<g id="a_node21"><a xlink:href="gc_8c.html#a1e1a80c2d04496b5b70bd86b59510355" target="_top" xlink:title="fr_gc_unsafe_free">
<polygon fill="none" stroke="black" points="912.5,-38.5 912.5,-57.5 1007.5,-57.5 1007.5,-38.5 912.5,-38.5"/>
<text text-anchor="middle" x="960" y="-45.5" font-family="Helvetica,sans-Serif" font-size="10.00">fr_gc_unsafe_free</text>
</a>
</g>
</g>
<!-- Node19&#45;&gt;Node21 -->
<g id="edge26" class="edge"><title>Node19&#45;&gt;Node21</title>
<path fill="none" stroke="midnightblue" d="M860.309,-76.411C877.193,-71.5506 897.895,-65.5909 915.971,-60.3873"/>
<polygon fill="midnightblue" stroke="midnightblue" points="917.06,-63.7158 925.701,-57.5859 915.123,-56.989 917.06,-63.7158"/>
</g>
<!-- Node20&#45;&gt;Node11 -->
<g id="edge25" class="edge"><title>Node20&#45;&gt;Node11</title>
<path fill="none" stroke="midnightblue" d="M1118.05,-56.6228C1134.93,-61.6344 1156.49,-68.0356 1175.17,-73.5826"/>
<polygon fill="midnightblue" stroke="midnightblue" points="1174.34,-76.9869 1184.92,-76.4777 1176.33,-70.2763 1174.34,-76.9869"/>
</g>
<!-- Node21&#45;&gt;Node20 -->
<g id="edge27" class="edge"><title>Node21&#45;&gt;Node20</title>
<path fill="none" stroke="midnightblue" d="M1007.56,-48C1020.7,-48 1034.87,-48 1047.56,-48"/>
<polygon fill="midnightblue" stroke="midnightblue" points="1047.81,-51.5001 1057.81,-48 1047.81,-44.5001 1047.81,-51.5001"/>
</g>
<!-- Node22&#45;&gt;Node16 -->
<g id="edge29" class="edge"><title>Node22&#45;&gt;Node16</title>
<path fill="none" stroke="midnightblue" d="M596.133,-41.1641C607.294,-42.0226 619.546,-42.9651 631.291,-43.8685"/>
<polygon fill="midnightblue" stroke="midnightblue" points="631.202,-47.3719 641.441,-44.6493 631.739,-40.3925 631.202,-47.3719"/>
</g>
<!-- Node22&#45;&gt;Node18 -->
<g id="edge30" class="edge"><title>Node22&#45;&gt;Node18</title>
<path fill="none" stroke="midnightblue" d="M579.93,-47.5046C594.986,-53.2156 614.57,-60.5939 632,-67 637.275,-68.9389 642.855,-70.9653 648.336,-72.9422"/>
<polygon fill="midnightblue" stroke="midnightblue" points="647.413,-76.3297 658.007,-76.4173 649.78,-69.742 647.413,-76.3297"/>
</g>
<!-- Node23 -->
<g id="node23" class="node"><title>Node23</title>
<g id="a_node23"><a xlink:href="stm__fraser_8c.html#aca0d40200c3502bdabeb44b27dfd4105" target="_top" xlink:title="search_stm_tx_entry">
<polygon fill="none" stroke="black" points="632,-0.5 632,-19.5 740,-19.5 740,-0.5 632,-0.5"/>
<text text-anchor="middle" x="686" y="-7.5" font-family="Helvetica,sans-Serif" font-size="10.00">search_stm_tx_entry</text>
</a>
</g>
</g>
<!-- Node22&#45;&gt;Node23 -->
<g id="edge31" class="edge"><title>Node22&#45;&gt;Node23</title>
<path fill="none" stroke="midnightblue" d="M596.133,-29.1406C607.064,-26.7862 619.041,-24.2065 630.563,-21.7248"/>
<polygon fill="midnightblue" stroke="midnightblue" points="631.495,-25.1044 640.534,-19.5773 630.021,-18.2614 631.495,-25.1044"/>
</g>
</g>
</svg>
        <g id="navigator" transform="translate(0 0)" fill="#404254">
                <rect fill="#f2f5e9" fill-opacity="0.5" stroke="#606060" stroke-width=".5" x="0" y="0" width="60" height="60"/>
                <use id="zoomplus" xlink:href="#zoomPlus" x="17" y="9" onmousedown="handleZoom(evt,'in')"/>
                <use id="zoomminus" xlink:href="#zoomMin" x="42" y="9" onmousedown="handleZoom(evt,'out')"/>
                <use id="reset" xlink:href="#resetDef" x="30" y="36" onmousedown="handleReset()"/>
                <g id="arrowUp" xlink:href="#dirArrow" transform="translate(30 24)" onmousedown="handlePan(0,-1)">
                  <use xlink:href="#rim" fill="#404040">
                        <set attributeName="fill" to="#808080" begin="arrowUp.mouseover" end="arrowUp.mouseout"/>
                  </use>
                  <path fill="none" stroke="white" stroke-width="1.5" d="M0,-3.0v7 M-2.5,-0.5L0,-3.0L2.5,-0.5"/>
                </g>
                <g id="arrowRight" xlink:href="#dirArrow" transform="rotate(90) translate(36 -43)" onmousedown="handlePan(1,0)">
                  <use xlink:href="#rim" fill="#404040">
                        <set attributeName="fill" to="#808080" begin="arrowRight.mouseover" end="arrowRight.mouseout"/>
                  </use>
                  <path fill="none" stroke="white" stroke-width="1.5" d="M0,-3.0v7 M-2.5,-0.5L0,-3.0L2.5,-0.5"/>
                </g>
                <g id="arrowDown" xlink:href="#dirArrow" transform="rotate(180) translate(-30 -48)" onmousedown="handlePan(0,1)">
                  <use xlink:href="#rim" fill="#404040">
                        <set attributeName="fill" to="#808080" begin="arrowDown.mouseover" end="arrowDown.mouseout"/>
                  </use>
                  <path fill="none" stroke="white" stroke-width="1.5" d="M0,-3.0v7 M-2.5,-0.5L0,-3.0L2.5,-0.5"/>
                </g>
                <g id="arrowLeft" xlink:href="#dirArrow" transform="rotate(270) translate(-36 17)" onmousedown="handlePan(-1,0)">
                  <use xlink:href="#rim" fill="#404040">
                        <set attributeName="fill" to="#808080" begin="arrowLeft.mouseover" end="arrowLeft.mouseout"/>
                  </use>
                  <path fill="none" stroke="white" stroke-width="1.5" d="M0,-3.0v7 M-2.5,-0.5L0,-3.0L2.5,-0.5"/>
                </g>
        </g>
        <svg viewBox="0 0 15 15" width="100%" height="30px" preserveAspectRatio="xMaxYMin meet">
         <g id="arrow_out" transform="scale(0.3 0.3)">
          <a xlink:href="stm__fraser_8c_a7b76b85023f5a028abad5e822391f95a_cgraph_org.svg" target="_base">
           <rect id="button" ry="5" rx="5" y="6" x="6" height="38" width="38"
                fill="#f2f5e9" fill-opacity="0.5" stroke="#606060" stroke-width="1.0"/>
           <path id="arrow"
             d="M 11.500037,31.436501 C 11.940474,20.09759 22.043105,11.32322 32.158766,21.979434 L 37.068811,17.246167 C 37.068811,17.246167 37.088388,32 37.088388,32 L 22.160133,31.978069 C 22.160133,31.978069 26.997745,27.140456 26.997745,27.140456 C 18.528582,18.264221 13.291696,25.230495 11.500037,31.436501 z"
             style="fill:#404040;"/>
          </a>
         </g>
        </svg>
</svg>
