<?xml version="1.0" encoding="UTF-8" standalone="no"?>
<!DOCTYPE svg PUBLIC "-//W3C//DTD SVG 1.1//EN"
 "http://www.w3.org/Graphics/SVG/1.1/DTD/svg11.dtd">
<!-- Generated by graphviz version 2.36.0 (20140111.2315)
 -->
<!-- Title: rc_up_descriptor Pages: 1 -->
<svg width="1818pt" height="484pt"
 viewBox="0.00 0.00 1818.00 484.00" xmlns="http://www.w3.org/2000/svg" xmlns:xlink="http://www.w3.org/1999/xlink">
<g id="graph0" class="graph" transform="scale(1 1) rotate(0) translate(4 480)">
<title>rc_up_descriptor</title>
<!-- Node1 -->
<g id="node1" class="node"><title>Node1</title>
<polygon fill="#bfbfbf" stroke="black" points="0.5,-247.5 0.5,-266.5 89.5,-266.5 89.5,-247.5 0.5,-247.5"/>
<text text-anchor="middle" x="45" y="-254.5" font-family="Helvetica,sans-Serif" font-size="10.00">rc_up_descriptor</text>
</g>
<!-- Node2 -->
<g id="node2" class="node"><title>Node2</title>
<g id="a_node2"><a xlink:href="stm__fraser_8c.html#a4e016a575dac2ee3931ef9ec94550d33" target="_top" xlink:title="read_blk_data">
<polygon fill="none" stroke="black" points="246.5,-266.5 246.5,-285.5 323.5,-285.5 323.5,-266.5 246.5,-266.5"/>
<text text-anchor="middle" x="285" y="-273.5" font-family="Helvetica,sans-Serif" font-size="10.00">read_blk_data</text>
</a>
</g>
</g>
<!-- Node1&#45;&gt;Node2 -->
<g id="edge1" class="edge"><title>Node1&#45;&gt;Node2</title>
<path fill="none" stroke="midnightblue" d="M99.7617,-261.292C144.489,-264.863 207.012,-269.854 246.497,-273.006"/>
<polygon fill="midnightblue" stroke="midnightblue" points="99.8997,-257.792 89.6529,-260.485 99.3426,-264.77 99.8997,-257.792"/>
</g>
<!-- Node52 -->
<g id="node52" class="node"><title>Node52</title>
<g id="a_node52"><a xlink:href="stm__fraser_8c.html#a31ea9d61a84d817aac10ffbc4ba9f296" target="_top" xlink:title="commit_stm_tx">
<polygon fill="none" stroke="black" points="126,-228.5 126,-247.5 210,-247.5 210,-228.5 126,-228.5"/>
<text text-anchor="middle" x="168" y="-235.5" font-family="Helvetica,sans-Serif" font-size="10.00">commit_stm_tx</text>
</a>
</g>
</g>
<!-- Node1&#45;&gt;Node52 -->
<g id="edge61" class="edge"><title>Node1&#45;&gt;Node52</title>
<path fill="none" stroke="midnightblue" d="M99.797,-248.553C108.523,-247.182 117.438,-245.782 125.803,-244.469"/>
<polygon fill="midnightblue" stroke="midnightblue" points="99.0198,-245.132 89.6838,-250.141 100.106,-252.047 99.0198,-245.132"/>
</g>
<!-- Node3 -->
<g id="node3" class="node"><title>Node3</title>
<g id="a_node3"><a xlink:href="stm__fraser_8c.html#a61731e38dec59f7f2995842fed69719f" target="_top" xlink:title="free_stm_blk">
<polygon fill="none" stroke="black" points="366.5,-342.5 366.5,-361.5 439.5,-361.5 439.5,-342.5 366.5,-342.5"/>
<text text-anchor="middle" x="403" y="-349.5" font-family="Helvetica,sans-Serif" font-size="10.00">free_stm_blk</text>
</a>
</g>
</g>
<!-- Node2&#45;&gt;Node3 -->
<g id="edge2" class="edge"><title>Node2&#45;&gt;Node3</title>
<path fill="none" stroke="midnightblue" d="M304.668,-292.339C319.13,-304.499 340.008,-321 360,-333 365.764,-336.46 372.267,-339.695 378.404,-342.48"/>
<polygon fill="midnightblue" stroke="midnightblue" points="306.826,-289.579 296.949,-285.747 302.28,-294.903 306.826,-289.579"/>
</g>
<!-- Node4 -->
<g id="node4" class="node"><title>Node4</title>
<g id="a_node4"><a xlink:href="stm__fraser_8c.html#acd69585b95bbcac8c69333f4aaee4335" target="_top" xlink:title="validate_stm_tx">
<polygon fill="none" stroke="black" points="360,-304.5 360,-323.5 446,-323.5 446,-304.5 360,-304.5"/>
<text text-anchor="middle" x="403" y="-311.5" font-family="Helvetica,sans-Serif" font-size="10.00">validate_stm_tx</text>
</a>
</g>
</g>
<!-- Node2&#45;&gt;Node4 -->
<g id="edge3" class="edge"><title>Node2&#45;&gt;Node4</title>
<path fill="none" stroke="midnightblue" d="M325.153,-288.826C340.718,-293.925 358.314,-299.689 372.738,-304.414"/>
<polygon fill="midnightblue" stroke="midnightblue" points="325.864,-285.376 315.272,-285.589 323.685,-292.028 325.864,-285.376"/>
</g>
<!-- Node9 -->
<g id="node9" class="node"><title>Node9</title>
<g id="a_node9"><a xlink:href="stm__fraser_8c.html#a5594d7fca67459d7d9738436af589c5c" target="_top" xlink:title="read_stm_blk">
<polygon fill="none" stroke="black" points="365.5,-152.5 365.5,-171.5 440.5,-171.5 440.5,-152.5 365.5,-152.5"/>
<text text-anchor="middle" x="403" y="-159.5" font-family="Helvetica,sans-Serif" font-size="10.00">read_stm_blk</text>
</a>
</g>
</g>
<!-- Node2&#45;&gt;Node9 -->
<g id="edge8" class="edge"><title>Node2&#45;&gt;Node9</title>
<path fill="none" stroke="midnightblue" d="M303.127,-259.168C327.756,-234.964 372.38,-191.109 392.135,-171.695"/>
<polygon fill="midnightblue" stroke="midnightblue" points="300.569,-256.775 295.89,-266.28 305.476,-261.767 300.569,-256.775"/>
</g>
<!-- Node51 -->
<g id="node51" class="node"><title>Node51</title>
<g id="a_node51"><a xlink:href="stm__fraser_8c.html#a00de1ad150378181157510e2e5982f75" target="_top" xlink:title="write_stm_blk">
<polygon fill="none" stroke="black" points="498.5,-190.5 498.5,-209.5 575.5,-209.5 575.5,-190.5 498.5,-190.5"/>
<text text-anchor="middle" x="537" y="-197.5" font-family="Helvetica,sans-Serif" font-size="10.00">write_stm_blk</text>
</a>
</g>
</g>
<!-- Node2&#45;&gt;Node51 -->
<g id="edge58" class="edge"><title>Node2&#45;&gt;Node51</title>
<path fill="none" stroke="midnightblue" d="M327.204,-263.474C376.969,-248.345 459.58,-223.232 504.522,-209.569"/>
<polygon fill="midnightblue" stroke="midnightblue" points="325.959,-260.194 317.41,-266.452 327.995,-266.892 325.959,-260.194"/>
</g>
<!-- Node5 -->
<g id="node5" class="node"><title>Node5</title>
<g id="a_node5"><a xlink:href="stm__fraser_8c.html#aa57c521c9ca8d9bfc271c7077c3ea3a0" target="_top" xlink:title="handle_fault">
<polygon fill="none" stroke="black" points="502.5,-288.5 502.5,-307.5 571.5,-307.5 571.5,-288.5 502.5,-288.5"/>
<text text-anchor="middle" x="537" y="-295.5" font-family="Helvetica,sans-Serif" font-size="10.00">handle_fault</text>
</a>
</g>
</g>
<!-- Node4&#45;&gt;Node5 -->
<g id="edge4" class="edge"><title>Node4&#45;&gt;Node5</title>
<path fill="none" stroke="midnightblue" d="M456.12,-307.682C471.617,-305.804 488.183,-303.796 502.189,-302.098"/>
<polygon fill="midnightblue" stroke="midnightblue" points="455.635,-304.216 446.129,-308.894 456.477,-311.165 455.635,-304.216"/>
</g>
<!-- Node6 -->
<g id="node6" class="node"><title>Node6</title>
<g id="a_node6"><a xlink:href="stm__fraser_8c.html#a7b76b85023f5a028abad5e822391f95a" target="_top" xlink:title="_init_stm_subsystem">
<polygon fill="none" stroke="black" points="628,-288.5 628,-307.5 738,-307.5 738,-288.5 628,-288.5"/>
<text text-anchor="middle" x="683" y="-295.5" font-family="Helvetica,sans-Serif" font-size="10.00">_init_stm_subsystem</text>
</a>
</g>
</g>
<!-- Node5&#45;&gt;Node6 -->
<g id="edge5" class="edge"><title>Node5&#45;&gt;Node6</title>
<path fill="none" stroke="midnightblue" d="M581.953,-298C596.443,-298 612.729,-298 627.886,-298"/>
<polygon fill="midnightblue" stroke="midnightblue" points="581.762,-294.5 571.762,-298 581.762,-301.5 581.762,-294.5"/>
</g>
<!-- Node7 -->
<g id="node7" class="node"><title>Node7</title>
<g id="a_node7"><a xlink:href="stmskip_8h.html#aedbfc8f18bee8e611ee20d17feb55f98" target="_top" xlink:title="init_stmskip_subsystem">
<polygon fill="none" stroke="black" points="774,-288.5 774,-307.5 896,-307.5 896,-288.5 774,-288.5"/>
<text text-anchor="middle" x="835" y="-295.5" font-family="Helvetica,sans-Serif" font-size="10.00">init_stmskip_subsystem</text>
</a>
</g>
</g>
<!-- Node6&#45;&gt;Node7 -->
<g id="edge6" class="edge"><title>Node6&#45;&gt;Node7</title>
<path fill="none" stroke="midnightblue" d="M748.347,-298C756.803,-298 765.443,-298 773.827,-298"/>
<polygon fill="midnightblue" stroke="midnightblue" points="748.153,-294.5 738.153,-298 748.153,-301.5 748.153,-294.5"/>
</g>
<!-- Node8 -->
<g id="node8" class="node"><title>Node8</title>
<g id="a_node8"><a xlink:href="classSetAdaptor_3_01stm__skip_01_4.html#acfb0c3f8dd7da801bdafb4ff1de8ba3e" target="_top" xlink:title="SetAdaptor\&lt; stm_skip\l \&gt;::SetAdaptor">
<polygon fill="none" stroke="black" points="932,-283 932,-313 1046,-313 1046,-283 932,-283"/>
<text text-anchor="start" x="940" y="-301" font-family="Helvetica,sans-Serif" font-size="10.00">SetAdaptor&lt; stm_skip</text>
<text text-anchor="middle" x="989" y="-290" font-family="Helvetica,sans-Serif" font-size="10.00"> &gt;::SetAdaptor</text>
</a>
</g>
</g>
<!-- Node7&#45;&gt;Node8 -->
<g id="edge7" class="edge"><title>Node7&#45;&gt;Node8</title>
<path fill="none" stroke="midnightblue" d="M906.117,-298C914.734,-298 923.453,-298 931.826,-298"/>
<polygon fill="midnightblue" stroke="midnightblue" points="906.074,-294.5 896.074,-298 906.074,-301.5 906.074,-294.5"/>
</g>
<!-- Node10 -->
<g id="node10" class="node"><title>Node10</title>
<g id="a_node10"><a xlink:href="stmskip_8cc.html#aa82848b11e972b9339ceadb6816cdb6a" target="_top" xlink:title="search_predecessors">
<polygon fill="none" stroke="black" points="482,-152.5 482,-171.5 592,-171.5 592,-152.5 482,-152.5"/>
<text text-anchor="middle" x="537" y="-159.5" font-family="Helvetica,sans-Serif" font-size="10.00">search_predecessors</text>
</a>
</g>
</g>
<!-- Node9&#45;&gt;Node10 -->
<g id="edge9" class="edge"><title>Node9&#45;&gt;Node10</title>
<path fill="none" stroke="midnightblue" d="M450.88,-162C460.843,-162 471.443,-162 481.659,-162"/>
<polygon fill="midnightblue" stroke="midnightblue" points="450.769,-158.5 440.769,-162 450.769,-165.5 450.769,-158.5"/>
</g>
<!-- Node11 -->
<g id="node11" class="node"><title>Node11</title>
<g id="a_node11"><a xlink:href="stmskip_8cc.html#ad17c6ea2fd390c2dd637a34fdeb0b3df" target="_top" xlink:title="stmskip_update">
<polygon fill="none" stroke="black" points="640,-152.5 640,-171.5 726,-171.5 726,-152.5 640,-152.5"/>
<text text-anchor="middle" x="683" y="-159.5" font-family="Helvetica,sans-Serif" font-size="10.00">stmskip_update</text>
</a>
</g>
</g>
<!-- Node10&#45;&gt;Node11 -->
<g id="edge10" class="edge"><title>Node10&#45;&gt;Node11</title>
<path fill="none" stroke="midnightblue" d="M602.163,-162C614.926,-162 628.021,-162 639.818,-162"/>
<polygon fill="midnightblue" stroke="midnightblue" points="602.03,-158.5 592.03,-162 602.03,-165.5 602.03,-158.5"/>
</g>
<!-- Node49 -->
<g id="node49" class="node"><title>Node49</title>
<g id="a_node49"><a xlink:href="stmskip_8cc.html#a3925aa5d2590fc57854aa9d670f58e4d" target="_top" xlink:title="stmskip_remove">
<polygon fill="none" stroke="black" points="638.5,-190.5 638.5,-209.5 727.5,-209.5 727.5,-190.5 638.5,-190.5"/>
<text text-anchor="middle" x="683" y="-197.5" font-family="Helvetica,sans-Serif" font-size="10.00">stmskip_remove</text>
</a>
</g>
</g>
<!-- Node10&#45;&gt;Node49 -->
<g id="edge54" class="edge"><title>Node10&#45;&gt;Node49</title>
<path fill="none" stroke="midnightblue" d="M584.172,-174.184C604.164,-179.46 627.219,-185.544 645.924,-190.48"/>
<polygon fill="midnightblue" stroke="midnightblue" points="584.899,-170.756 574.337,-171.589 583.113,-177.525 584.899,-170.756"/>
</g>
<!-- Node50 -->
<g id="node50" class="node"><title>Node50</title>
<g id="a_node50"><a xlink:href="stmskip_8cc.html#a09de30bf6124d9640899b27c93b49471" target="_top" xlink:title="stmskip_lookup">
<polygon fill="none" stroke="black" points="640.5,-114.5 640.5,-133.5 725.5,-133.5 725.5,-114.5 640.5,-114.5"/>
<text text-anchor="middle" x="683" y="-121.5" font-family="Helvetica,sans-Serif" font-size="10.00">stmskip_lookup</text>
</a>
</g>
</g>
<!-- Node10&#45;&gt;Node50 -->
<g id="edge56" class="edge"><title>Node10&#45;&gt;Node50</title>
<path fill="none" stroke="midnightblue" d="M584.172,-149.816C604.164,-144.54 627.219,-138.456 645.924,-133.52"/>
<polygon fill="midnightblue" stroke="midnightblue" points="583.113,-146.475 574.337,-152.411 584.899,-153.244 583.113,-146.475"/>
</g>
<!-- Node12 -->
<g id="node12" class="node"><title>Node12</title>
<g id="a_node12"><a xlink:href="stmskip_8cc.html#a9ab04b9e875013b4d2dd249d0c97dce5" target="_top" xlink:title="for">
<polygon fill="none" stroke="black" points="820.5,-152.5 820.5,-171.5 849.5,-171.5 849.5,-152.5 820.5,-152.5"/>
<text text-anchor="middle" x="835" y="-159.5" font-family="Helvetica,sans-Serif" font-size="10.00">for</text>
</a>
</g>
</g>
<!-- Node11&#45;&gt;Node12 -->
<g id="edge11" class="edge"><title>Node11&#45;&gt;Node12</title>
<path fill="none" stroke="midnightblue" d="M736.507,-162C766.418,-162 801.587,-162 820.435,-162"/>
<polygon fill="midnightblue" stroke="midnightblue" points="736.183,-158.5 726.183,-162 736.183,-165.5 736.183,-158.5"/>
</g>
<!-- Node13 -->
<g id="node13" class="node"><title>Node13</title>
<g id="a_node13"><a xlink:href="heap_8h.html#a9c77dbc94ac2daa5b202375477e26188" target="_top" xlink:title="heap_isValid">
<polygon fill="none" stroke="black" points="953,-190.5 953,-209.5 1025,-209.5 1025,-190.5 953,-190.5"/>
<text text-anchor="middle" x="989" y="-197.5" font-family="Helvetica,sans-Serif" font-size="10.00">heap_isValid</text>
</a>
</g>
</g>
<!-- Node12&#45;&gt;Node13 -->
<g id="edge12" class="edge"><title>Node12&#45;&gt;Node13</title>
<path fill="none" stroke="midnightblue" d="M859.474,-167.868C884.436,-174.109 924.196,-184.049 952.887,-191.222"/>
<polygon fill="midnightblue" stroke="midnightblue" points="860.307,-164.469 849.757,-165.439 858.61,-171.26 860.307,-164.469"/>
</g>
<!-- Node14 -->
<g id="node14" class="node"><title>Node14</title>
<g id="a_node14"><a xlink:href="list_8c.html#a3ed9de59a6e4cd353dee80f797da7a19" target="_top" xlink:title="findPrevious">
<polygon fill="none" stroke="black" points="953.5,-152.5 953.5,-171.5 1024.5,-171.5 1024.5,-152.5 953.5,-152.5"/>
<text text-anchor="middle" x="989" y="-159.5" font-family="Helvetica,sans-Serif" font-size="10.00">findPrevious</text>
</a>
</g>
</g>
<!-- Node12&#45;&gt;Node14 -->
<g id="edge13" class="edge"><title>Node12&#45;&gt;Node14</title>
<path fill="none" stroke="midnightblue" d="M859.844,-162C884.918,-162 924.625,-162 953.197,-162"/>
<polygon fill="midnightblue" stroke="midnightblue" points="859.757,-158.5 849.757,-162 859.757,-165.5 859.757,-158.5"/>
</g>
<!-- Node43 -->
<g id="node43" class="node"><title>Node43</title>
<g id="a_node43"><a xlink:href="list_8c.html#abae8c22f79c73d231c8ddd9b795e47d9" target="_top" xlink:title="TMfindPrevious">
<polygon fill="none" stroke="black" points="946.5,-76.5 946.5,-95.5 1031.5,-95.5 1031.5,-76.5 946.5,-76.5"/>
<text text-anchor="middle" x="989" y="-83.5" font-family="Helvetica,sans-Serif" font-size="10.00">TMfindPrevious</text>
</a>
</g>
</g>
<!-- Node12&#45;&gt;Node43 -->
<g id="edge48" class="edge"><title>Node12&#45;&gt;Node43</title>
<path fill="none" stroke="midnightblue" d="M859.01,-150.495C888.959,-135.52 940.764,-109.618 968.742,-95.6291"/>
<polygon fill="midnightblue" stroke="midnightblue" points="857.136,-147.519 849.757,-155.121 860.267,-153.78 857.136,-147.519"/>
</g>
<!-- Node47 -->
<g id="node47" class="node"><title>Node47</title>
<g id="a_node47"><a xlink:href="rbtree_8c.html#a14bd83586612336b5eb09f902e95b02f" target="_top" xlink:title="insert">
<polygon fill="none" stroke="black" points="968.5,-38.5 968.5,-57.5 1009.5,-57.5 1009.5,-38.5 968.5,-38.5"/>
<text text-anchor="middle" x="989" y="-45.5" font-family="Helvetica,sans-Serif" font-size="10.00">insert</text>
</a>
</g>
</g>
<!-- Node12&#45;&gt;Node47 -->
<g id="edge52" class="edge"><title>Node12&#45;&gt;Node47</title>
<path fill="none" stroke="midnightblue" d="M849.555,-144.368C866.655,-123.232 897.969,-88.0352 932,-67 943.178,-60.0906 957.178,-55.3406 968.384,-52.318"/>
<polygon fill="midnightblue" stroke="midnightblue" points="846.593,-142.471 843.13,-152.484 852.081,-146.816 846.593,-142.471"/>
</g>
<!-- Node48 -->
<g id="node48" class="node"><title>Node48</title>
<g id="a_node48"><a xlink:href="rbtree_8c.html#a47dc2cb2c9de9c39f968f120e1fe9ed4" target="_top" xlink:title="TMinsert">
<polygon fill="none" stroke="black" points="961.5,-228.5 961.5,-247.5 1016.5,-247.5 1016.5,-228.5 961.5,-228.5"/>
<text text-anchor="middle" x="989" y="-235.5" font-family="Helvetica,sans-Serif" font-size="10.00">TMinsert</text>
</a>
</g>
</g>
<!-- Node12&#45;&gt;Node48 -->
<g id="edge53" class="edge"><title>Node12&#45;&gt;Node48</title>
<path fill="none" stroke="midnightblue" d="M858.341,-177.087C877.348,-189.471 905.672,-206.879 932,-219 941.326,-223.293 951.911,-227.132 961.348,-230.215"/>
<polygon fill="midnightblue" stroke="midnightblue" points="860.083,-174.043 849.809,-171.457 856.228,-179.886 860.083,-174.043"/>
</g>
<!-- Node15 -->
<g id="node15" class="node"><title>Node15</title>
<g id="a_node15"><a xlink:href="list_8h.html#a1379a3cf001369bd5979fe53160640f5" target="_top" xlink:title="list_find">
<polygon fill="none" stroke="black" points="1098,-152.5 1098,-171.5 1148,-171.5 1148,-152.5 1098,-152.5"/>
<text text-anchor="middle" x="1123" y="-159.5" font-family="Helvetica,sans-Serif" font-size="10.00">list_find</text>
</a>
</g>
</g>
<!-- Node14&#45;&gt;Node15 -->
<g id="edge14" class="edge"><title>Node14&#45;&gt;Node15</title>
<path fill="none" stroke="midnightblue" d="M1034.76,-162C1055.92,-162 1080.35,-162 1097.96,-162"/>
<polygon fill="midnightblue" stroke="midnightblue" points="1034.68,-158.5 1024.68,-162 1034.68,-165.5 1034.68,-158.5"/>
</g>
<!-- Node22 -->
<g id="node22" class="node"><title>Node22</title>
<g id="a_node22"><a xlink:href="list_8h.html#a06249cb6bbda6b10f5777b96a6c122f9" target="_top" xlink:title="list_insert">
<polygon fill="none" stroke="black" points="1093.5,-342.5 1093.5,-361.5 1152.5,-361.5 1152.5,-342.5 1093.5,-342.5"/>
<text text-anchor="middle" x="1123" y="-349.5" font-family="Helvetica,sans-Serif" font-size="10.00">list_insert</text>
</a>
</g>
</g>
<!-- Node14&#45;&gt;Node22 -->
<g id="edge22" class="edge"><title>Node14&#45;&gt;Node22</title>
<path fill="none" stroke="midnightblue" d="M1033.93,-172.823C1038.31,-175.059 1042.44,-177.753 1046,-181 1052.54,-186.968 1103.05,-306.774 1117.91,-342.21"/>
<polygon fill="midnightblue" stroke="midnightblue" points="1035.27,-169.589 1024.7,-168.847 1032.5,-176.018 1035.27,-169.589"/>
</g>
<!-- Node38 -->
<g id="node38" class="node"><title>Node38</title>
<g id="a_node38"><a xlink:href="list_8h.html#a857fdaea81fb44b5918c9d446707f23e" target="_top" xlink:title="Plist_insert">
<polygon fill="none" stroke="black" points="1090.5,-228.5 1090.5,-247.5 1155.5,-247.5 1155.5,-228.5 1090.5,-228.5"/>
<text text-anchor="middle" x="1123" y="-235.5" font-family="Helvetica,sans-Serif" font-size="10.00">Plist_insert</text>
</a>
</g>
</g>
<!-- Node14&#45;&gt;Node38 -->
<g id="edge40" class="edge"><title>Node14&#45;&gt;Node38</title>
<path fill="none" stroke="midnightblue" d="M1033.97,-174.579C1038.17,-176.466 1042.25,-178.599 1046,-181 1065.59,-193.55 1063.17,-205.333 1082,-219 1086.85,-222.523 1092.46,-225.663 1097.92,-228.326"/>
<polygon fill="midnightblue" stroke="midnightblue" points="1035.26,-171.326 1024.67,-170.834 1032.64,-177.818 1035.26,-171.326"/>
</g>
<!-- Node39 -->
<g id="node39" class="node"><title>Node39</title>
<g id="a_node39"><a xlink:href="list_8h.html#af5a09f2dc4e901d1c8052e282d4d87d3" target="_top" xlink:title="list_remove">
<polygon fill="none" stroke="black" points="1089.5,-114.5 1089.5,-133.5 1156.5,-133.5 1156.5,-114.5 1089.5,-114.5"/>
<text text-anchor="middle" x="1123" y="-121.5" font-family="Helvetica,sans-Serif" font-size="10.00">list_remove</text>
</a>
</g>
</g>
<!-- Node14&#45;&gt;Node39 -->
<g id="edge41" class="edge"><title>Node14&#45;&gt;Node39</title>
<path fill="none" stroke="midnightblue" d="M1033.12,-149.587C1051.34,-144.342 1072.22,-138.331 1089.16,-133.454"/>
<polygon fill="midnightblue" stroke="midnightblue" points="1031.95,-146.281 1023.31,-152.411 1033.89,-153.008 1031.95,-146.281"/>
</g>
<!-- Node42 -->
<g id="node42" class="node"><title>Node42</title>
<g id="a_node42"><a xlink:href="list_8h.html#a1fa145871fd1d110f892094bbc153cbf" target="_top" xlink:title="Plist_remove">
<polygon fill="none" stroke="black" points="1086,-190.5 1086,-209.5 1160,-209.5 1160,-190.5 1086,-190.5"/>
<text text-anchor="middle" x="1123" y="-197.5" font-family="Helvetica,sans-Serif" font-size="10.00">Plist_remove</text>
</a>
</g>
</g>
<!-- Node14&#45;&gt;Node42 -->
<g id="edge47" class="edge"><title>Node14&#45;&gt;Node42</title>
<path fill="none" stroke="midnightblue" d="M1033.04,-174.391C1051.12,-179.594 1071.82,-185.554 1088.7,-190.414"/>
<polygon fill="midnightblue" stroke="midnightblue" points="1033.89,-170.992 1023.31,-171.589 1031.95,-177.719 1033.89,-170.992"/>
</g>
<!-- Node16 -->
<g id="node16" class="node"><title>Node16</title>
<g id="a_node16"><a xlink:href="hashtable_8h.html#ac641ace1e3d79ee78d271d999df92db9" target="_top" xlink:title="hashtable_containsKey">
<polygon fill="none" stroke="black" points="1200,-228.5 1200,-247.5 1318,-247.5 1318,-228.5 1200,-228.5"/>
<text text-anchor="middle" x="1259" y="-235.5" font-family="Helvetica,sans-Serif" font-size="10.00">hashtable_containsKey</text>
</a>
</g>
</g>
<!-- Node15&#45;&gt;Node16 -->
<g id="edge15" class="edge"><title>Node15&#45;&gt;Node16</title>
<path fill="none" stroke="midnightblue" d="M1157.02,-176.456C1159.45,-177.886 1161.8,-179.404 1164,-181 1182.83,-194.667 1180.34,-206.554 1200,-219 1206,-222.798 1212.83,-225.909 1219.65,-228.434"/>
<polygon fill="midnightblue" stroke="midnightblue" points="1158.55,-173.305 1148.08,-171.674 1155.25,-179.477 1158.55,-173.305"/>
</g>
<!-- Node17 -->
<g id="node17" class="node"><title>Node17</title>
<g id="a_node17"><a xlink:href="hashtable_8h.html#a686d66befe855b80c215e27cb2e9343e" target="_top" xlink:title="hashtable_find">
<polygon fill="none" stroke="black" points="1219,-190.5 1219,-209.5 1299,-209.5 1299,-190.5 1219,-190.5"/>
<text text-anchor="middle" x="1259" y="-197.5" font-family="Helvetica,sans-Serif" font-size="10.00">hashtable_find</text>
</a>
</g>
</g>
<!-- Node15&#45;&gt;Node17 -->
<g id="edge16" class="edge"><title>Node15&#45;&gt;Node17</title>
<path fill="none" stroke="midnightblue" d="M1158.05,-171.657C1178.38,-177.42 1204.09,-184.711 1224.34,-190.454"/>
<polygon fill="midnightblue" stroke="midnightblue" points="1158.84,-168.243 1148.27,-168.882 1156.93,-174.977 1158.84,-168.243"/>
</g>
<!-- Node18 -->
<g id="node18" class="node"><title>Node18</title>
<g id="a_node18"><a xlink:href="hashtable_8h.html#a76f7704c9b87a69d6a94a01f06a65185" target="_top" xlink:title="hashtable_insert">
<polygon fill="none" stroke="black" points="1215,-266.5 1215,-285.5 1303,-285.5 1303,-266.5 1215,-266.5"/>
<text text-anchor="middle" x="1259" y="-273.5" font-family="Helvetica,sans-Serif" font-size="10.00">hashtable_insert</text>
</a>
</g>
</g>
<!-- Node15&#45;&gt;Node18 -->
<g id="edge17" class="edge"><title>Node15&#45;&gt;Node18</title>
<path fill="none" stroke="midnightblue" d="M1157.04,-175.314C1159.55,-177.018 1161.91,-178.909 1164,-181 1190.41,-207.443 1171.96,-232.285 1200,-257 1204.37,-260.854 1209.54,-263.928 1214.97,-266.381"/>
<polygon fill="midnightblue" stroke="midnightblue" points="1158.56,-172.15 1148.14,-170.219 1155.08,-178.225 1158.56,-172.15"/>
</g>
<!-- Node19 -->
<g id="node19" class="node"><title>Node19</title>
<g id="a_node19"><a xlink:href="hashtable_8h.html#a1097b4c3a3d33b866a55e103f49dee7b" target="_top" xlink:title="hashtable_remove">
<polygon fill="none" stroke="black" points="1211,-114.5 1211,-133.5 1307,-133.5 1307,-114.5 1211,-114.5"/>
<text text-anchor="middle" x="1259" y="-121.5" font-family="Helvetica,sans-Serif" font-size="10.00">hashtable_remove</text>
</a>
</g>
</g>
<!-- Node15&#45;&gt;Node19 -->
<g id="edge18" class="edge"><title>Node15&#45;&gt;Node19</title>
<path fill="none" stroke="midnightblue" d="M1158.05,-152.343C1178.38,-146.58 1204.09,-139.289 1224.34,-133.546"/>
<polygon fill="midnightblue" stroke="midnightblue" points="1156.93,-149.023 1148.27,-155.118 1158.84,-155.757 1156.93,-149.023"/>
</g>
<!-- Node20 -->
<g id="node20" class="node"><title>Node20</title>
<g id="a_node20"><a xlink:href="region_8c.html#afd9637f04d120aec5464b6304cfa0c99" target="_top" xlink:title="TMgrowRegion">
<polygon fill="none" stroke="black" points="1217.5,-152.5 1217.5,-171.5 1300.5,-171.5 1300.5,-152.5 1217.5,-152.5"/>
<text text-anchor="middle" x="1259" y="-159.5" font-family="Helvetica,sans-Serif" font-size="10.00">TMgrowRegion</text>
</a>
</g>
</g>
<!-- Node15&#45;&gt;Node20 -->
<g id="edge19" class="edge"><title>Node15&#45;&gt;Node20</title>
<path fill="none" stroke="midnightblue" d="M1158.33,-162C1176.33,-162 1198.49,-162 1217.35,-162"/>
<polygon fill="midnightblue" stroke="midnightblue" points="1158.27,-158.5 1148.27,-162 1158.27,-165.5 1158.27,-158.5"/>
</g>
<!-- Node21 -->
<g id="node21" class="node"><title>Node21</title>
<g id="a_node21"><a xlink:href="region_8h.html#a74d9ac41436518894e8e1bd6564ebf42" target="_top" xlink:title="TMregion_refine">
<polygon fill="none" stroke="black" points="1380,-152.5 1380,-171.5 1466,-171.5 1466,-152.5 1380,-152.5"/>
<text text-anchor="middle" x="1423" y="-159.5" font-family="Helvetica,sans-Serif" font-size="10.00">TMregion_refine</text>
</a>
</g>
</g>
<!-- Node20&#45;&gt;Node21 -->
<g id="edge20" class="edge"><title>Node20&#45;&gt;Node21</title>
<path fill="none" stroke="midnightblue" d="M1311.08,-162C1333.17,-162 1358.72,-162 1379.72,-162"/>
<polygon fill="midnightblue" stroke="midnightblue" points="1310.88,-158.5 1300.88,-162 1310.88,-165.5 1310.88,-158.5"/>
</g>
<!-- Node21&#45;&gt;Node21 -->
<g id="edge21" class="edge"><title>Node21&#45;&gt;Node21</title>
<path fill="none" stroke="midnightblue" d="M1393.88,-180.654C1395.1,-185.937 1404.8,-190 1423,-190 1450.73,-190 1458.74,-180.565 1447.04,-171.757"/>
<polygon fill="midnightblue" stroke="midnightblue" points="1397.04,-182.177 1398.96,-171.757 1390.96,-178.709 1397.04,-182.177"/>
</g>
<!-- Node22&#45;&gt;Node18 -->
<g id="edge34" class="edge"><title>Node22&#45;&gt;Node18</title>
<path fill="none" stroke="midnightblue" d="M1142.37,-335.491C1157.09,-322.969 1178.72,-306.079 1200,-295 1207.05,-291.33 1214.95,-288.18 1222.59,-285.559"/>
<polygon fill="midnightblue" stroke="midnightblue" points="1139.81,-333.078 1134.56,-342.281 1144.41,-338.361 1139.81,-333.078"/>
</g>
<!-- Node23 -->
<g id="node23" class="node"><title>Node23</title>
<g id="a_node23"><a xlink:href="net_8c.html#ad4f5f991dfc5667c5d75c5b353dbe974" target="_top" xlink:title="insertEdge">
<polygon fill="none" stroke="black" points="1227.5,-380.5 1227.5,-399.5 1290.5,-399.5 1290.5,-380.5 1227.5,-380.5"/>
<text text-anchor="middle" x="1259" y="-387.5" font-family="Helvetica,sans-Serif" font-size="10.00">insertEdge</text>
</a>
</g>
</g>
<!-- Node22&#45;&gt;Node23 -->
<g id="edge23" class="edge"><title>Node22&#45;&gt;Node23</title>
<path fill="none" stroke="midnightblue" d="M1162.47,-362.91C1183.1,-368.759 1208.16,-375.866 1227.44,-381.333"/>
<polygon fill="midnightblue" stroke="midnightblue" points="1163.32,-359.513 1152.75,-360.152 1161.41,-366.247 1163.32,-359.513"/>
</g>
<!-- Node29 -->
<g id="node29" class="node"><title>Node29</title>
<g id="a_node29"><a xlink:href="table_8h.html#a0cbbed1b3290a9074b455925972f670d" target="_top" xlink:title="table_insert">
<polygon fill="none" stroke="black" points="1225.5,-342.5 1225.5,-361.5 1292.5,-361.5 1292.5,-342.5 1225.5,-342.5"/>
<text text-anchor="middle" x="1259" y="-349.5" font-family="Helvetica,sans-Serif" font-size="10.00">table_insert</text>
</a>
</g>
</g>
<!-- Node22&#45;&gt;Node29 -->
<g id="edge30" class="edge"><title>Node22&#45;&gt;Node29</title>
<path fill="none" stroke="midnightblue" d="M1162.93,-352C1182.63,-352 1206.27,-352 1225.06,-352"/>
<polygon fill="midnightblue" stroke="midnightblue" points="1162.75,-348.5 1152.75,-352 1162.75,-355.5 1162.75,-348.5"/>
</g>
<!-- Node30 -->
<g id="node30" class="node"><title>Node30</title>
<g id="a_node30"><a xlink:href="decoder_8h.html#a92136c16eda5a24a0eb6c60b9f96244a" target="_top" xlink:title="decoder_process">
<polygon fill="none" stroke="black" points="1213.5,-304.5 1213.5,-323.5 1304.5,-323.5 1304.5,-304.5 1213.5,-304.5"/>
<text text-anchor="middle" x="1259" y="-311.5" font-family="Helvetica,sans-Serif" font-size="10.00">decoder_process</text>
</a>
</g>
</g>
<!-- Node22&#45;&gt;Node30 -->
<g id="edge31" class="edge"><title>Node22&#45;&gt;Node30</title>
<path fill="none" stroke="midnightblue" d="M1162.51,-341.079C1181.95,-335.565 1205.33,-328.936 1224.09,-323.617"/>
<polygon fill="midnightblue" stroke="midnightblue" points="1161.41,-337.753 1152.75,-343.848 1163.32,-344.487 1161.41,-337.753"/>
</g>
<!-- Node31 -->
<g id="node31" class="node"><title>Node31</title>
<g id="a_node31"><a xlink:href="maze_8h.html#a2135cee3a633084c9456873cb7746e0e" target="_top" xlink:title="maze_read">
<polygon fill="none" stroke="black" points="1226.5,-456.5 1226.5,-475.5 1291.5,-475.5 1291.5,-456.5 1226.5,-456.5"/>
<text text-anchor="middle" x="1259" y="-463.5" font-family="Helvetica,sans-Serif" font-size="10.00">maze_read</text>
</a>
</g>
</g>
<!-- Node22&#45;&gt;Node31 -->
<g id="edge32" class="edge"><title>Node22&#45;&gt;Node31</title>
<path fill="none" stroke="midnightblue" d="M1134.18,-370.372C1146.91,-391.731 1170.65,-426.647 1200,-447 1207.84,-452.434 1217.33,-456.396 1226.35,-459.249"/>
<polygon fill="midnightblue" stroke="midnightblue" points="1137.15,-368.524 1129.12,-361.613 1131.09,-372.024 1137.15,-368.524"/>
</g>
<!-- Node33 -->
<g id="node33" class="node"><title>Node33</title>
<g id="a_node33"><a xlink:href="element_8h.html#af31cf5d6a12660d258214d8483df8c1d" target="_top" xlink:title="element_addNeighbor">
<polygon fill="none" stroke="black" points="1203.5,-418.5 1203.5,-437.5 1314.5,-437.5 1314.5,-418.5 1203.5,-418.5"/>
<text text-anchor="middle" x="1259" y="-425.5" font-family="Helvetica,sans-Serif" font-size="10.00">element_addNeighbor</text>
</a>
</g>
</g>
<!-- Node22&#45;&gt;Node33 -->
<g id="edge35" class="edge"><title>Node22&#45;&gt;Node33</title>
<path fill="none" stroke="midnightblue" d="M1142.37,-368.509C1157.09,-381.031 1178.72,-397.921 1200,-409 1207.05,-412.67 1214.95,-415.82 1222.59,-418.441"/>
<polygon fill="midnightblue" stroke="midnightblue" points="1144.41,-365.639 1134.56,-361.719 1139.81,-370.922 1144.41,-365.639"/>
</g>
<!-- Node24 -->
<g id="node24" class="node"><title>Node24</title>
<g id="a_node24"><a xlink:href="net_8c.html#a456ce4308d1d5e4f0a816165f0d1b9ac" target="_top" xlink:title="reverseEdge">
<polygon fill="none" stroke="black" points="1387.5,-232.5 1387.5,-251.5 1458.5,-251.5 1458.5,-232.5 1387.5,-232.5"/>
<text text-anchor="middle" x="1423" y="-239.5" font-family="Helvetica,sans-Serif" font-size="10.00">reverseEdge</text>
</a>
</g>
</g>
<!-- Node23&#45;&gt;Node24 -->
<g id="edge24" class="edge"><title>Node23&#45;&gt;Node24</title>
<path fill="none" stroke="midnightblue" d="M1300.41,-380.803C1306.68,-378.271 1312.79,-375.061 1318,-371 1341.63,-352.581 1335.63,-337.669 1354,-314 1372.56,-290.096 1397.74,-265.029 1411.66,-251.696"/>
<polygon fill="midnightblue" stroke="midnightblue" points="1298.83,-377.647 1290.55,-384.25 1301.14,-384.256 1298.83,-377.647"/>
</g>
<!-- Node25 -->
<g id="node25" class="node"><title>Node25</title>
<g id="a_node25"><a xlink:href="net_8h.html#a7a2e0647373945c39b0efcdf78618993" target="_top" xlink:title="net_applyOperation">
<polygon fill="none" stroke="black" points="1528.5,-232.5 1528.5,-251.5 1629.5,-251.5 1629.5,-232.5 1528.5,-232.5"/>
<text text-anchor="middle" x="1579" y="-239.5" font-family="Helvetica,sans-Serif" font-size="10.00">net_applyOperation</text>
</a>
</g>
</g>
<!-- Node23&#45;&gt;Node25 -->
<g id="edge26" class="edge"><title>Node23&#45;&gt;Node25</title>
<path fill="none" stroke="midnightblue" d="M1300.52,-377.556C1306.43,-375.501 1312.41,-373.289 1318,-371 1412.2,-332.437 1519.62,-274.413 1560.75,-251.65"/>
<polygon fill="midnightblue" stroke="midnightblue" points="1299.07,-374.351 1290.7,-380.854 1301.3,-380.987 1299.07,-374.351"/>
</g>
<!-- Node26 -->
<g id="node26" class="node"><title>Node26</title>
<g id="a_node26"><a xlink:href="net_8h.html#a7ac0b179e1d386a853aba9b4fffa369a" target="_top" xlink:title="net_generateRandomEdges">
<polygon fill="none" stroke="black" points="1354.5,-380.5 1354.5,-399.5 1491.5,-399.5 1491.5,-380.5 1354.5,-380.5"/>
<text text-anchor="middle" x="1423" y="-387.5" font-family="Helvetica,sans-Serif" font-size="10.00">net_generateRandomEdges</text>
</a>
</g>
</g>
<!-- Node23&#45;&gt;Node26 -->
<g id="edge27" class="edge"><title>Node23&#45;&gt;Node26</title>
<path fill="none" stroke="midnightblue" d="M1301.04,-390C1317.22,-390 1336.25,-390 1354.36,-390"/>
<polygon fill="midnightblue" stroke="midnightblue" points="1300.85,-386.5 1290.85,-390 1300.85,-393.5 1300.85,-386.5"/>
</g>
<!-- Node24&#45;&gt;Node25 -->
<g id="edge25" class="edge"><title>Node24&#45;&gt;Node25</title>
<path fill="none" stroke="midnightblue" d="M1468.6,-242C1487.31,-242 1509.15,-242 1528.37,-242"/>
<polygon fill="midnightblue" stroke="midnightblue" points="1468.56,-238.5 1458.56,-242 1468.56,-245.5 1468.56,-238.5"/>
</g>
<!-- Node27 -->
<g id="node27" class="node"><title>Node27</title>
<g id="a_node27"><a xlink:href="data_8h.html#a0f45b98c6cac17904d9daf25fbdc1dc9" target="_top" xlink:title="data_generate">
<polygon fill="none" stroke="black" points="1540,-380.5 1540,-399.5 1618,-399.5 1618,-380.5 1540,-380.5"/>
<text text-anchor="middle" x="1579" y="-387.5" font-family="Helvetica,sans-Serif" font-size="10.00">data_generate</text>
</a>
</g>
</g>
<!-- Node26&#45;&gt;Node27 -->
<g id="edge28" class="edge"><title>Node26&#45;&gt;Node27</title>
<path fill="none" stroke="midnightblue" d="M1501.64,-390C1514.87,-390 1528.07,-390 1539.68,-390"/>
<polygon fill="midnightblue" stroke="midnightblue" points="1501.55,-386.5 1491.55,-390 1501.55,-393.5 1501.55,-386.5"/>
</g>
<!-- Node28 -->
<g id="node28" class="node"><title>Node28</title>
<g id="a_node28"><a xlink:href="bayes_8c.html#a40c5c0b0d4eb7b59a91108269f69dc89" target="_top" xlink:title="MAIN">
<polygon fill="none" stroke="black" points="1678,-380.5 1678,-399.5 1720,-399.5 1720,-380.5 1678,-380.5"/>
<text text-anchor="middle" x="1699" y="-387.5" font-family="Helvetica,sans-Serif" font-size="10.00">MAIN</text>
</a>
</g>
</g>
<!-- Node27&#45;&gt;Node28 -->
<g id="edge29" class="edge"><title>Node27&#45;&gt;Node28</title>
<path fill="none" stroke="midnightblue" d="M1628.77,-390C1645.91,-390 1664.23,-390 1677.72,-390"/>
<polygon fill="midnightblue" stroke="midnightblue" points="1628.31,-386.5 1618.31,-390 1628.31,-393.5 1628.31,-386.5"/>
</g>
<!-- Node32 -->
<g id="node32" class="node"><title>Node32</title>
<g id="a_node32"><a xlink:href="labyrinth_8c.html#a40c5c0b0d4eb7b59a91108269f69dc89" target="_top" xlink:title="MAIN">
<polygon fill="none" stroke="black" points="1402,-456.5 1402,-475.5 1444,-475.5 1444,-456.5 1402,-456.5"/>
<text text-anchor="middle" x="1423" y="-463.5" font-family="Helvetica,sans-Serif" font-size="10.00">MAIN</text>
</a>
</g>
</g>
<!-- Node31&#45;&gt;Node32 -->
<g id="edge33" class="edge"><title>Node31&#45;&gt;Node32</title>
<path fill="none" stroke="midnightblue" d="M1301.63,-466C1333.74,-466 1376.77,-466 1401.73,-466"/>
<polygon fill="midnightblue" stroke="midnightblue" points="1301.62,-462.5 1291.62,-466 1301.62,-469.5 1301.62,-462.5"/>
</g>
<!-- Node34 -->
<g id="node34" class="node"><title>Node34</title>
<g id="a_node34"><a xlink:href="mesh_8h.html#aad7f19da2c7732d977e683849a724e5f" target="_top" xlink:title="mesh_insert">
<polygon fill="none" stroke="black" points="1388,-418.5 1388,-437.5 1458,-437.5 1458,-418.5 1388,-418.5"/>
<text text-anchor="middle" x="1423" y="-425.5" font-family="Helvetica,sans-Serif" font-size="10.00">mesh_insert</text>
</a>
</g>
</g>
<!-- Node33&#45;&gt;Node34 -->
<g id="edge36" class="edge"><title>Node33&#45;&gt;Node34</title>
<path fill="none" stroke="midnightblue" d="M1324.96,-428C1346.54,-428 1369.71,-428 1387.99,-428"/>
<polygon fill="midnightblue" stroke="midnightblue" points="1324.85,-424.5 1314.85,-428 1324.85,-431.5 1324.85,-424.5"/>
</g>
<!-- Node35 -->
<g id="node35" class="node"><title>Node35</title>
<g id="a_node35"><a xlink:href="mesh_8c.html#a0351e3ec738e05a319ead0e2e44353d0" target="_top" xlink:title="createElement">
<polygon fill="none" stroke="black" points="1539,-418.5 1539,-437.5 1619,-437.5 1619,-418.5 1539,-418.5"/>
<text text-anchor="middle" x="1579" y="-425.5" font-family="Helvetica,sans-Serif" font-size="10.00">createElement</text>
</a>
</g>
</g>
<!-- Node34&#45;&gt;Node35 -->
<g id="edge37" class="edge"><title>Node34&#45;&gt;Node35</title>
<path fill="none" stroke="midnightblue" d="M1468.37,-428C1490.6,-428 1517.28,-428 1538.76,-428"/>
<polygon fill="midnightblue" stroke="midnightblue" points="1468.18,-424.5 1458.18,-428 1468.18,-431.5 1468.18,-424.5"/>
</g>
<!-- Node36 -->
<g id="node36" class="node"><title>Node36</title>
<g id="a_node36"><a xlink:href="mesh_8h.html#a0ee17a9bc1b62a498c98f8e0dc41d902" target="_top" xlink:title="mesh_read">
<polygon fill="none" stroke="black" points="1666.5,-418.5 1666.5,-437.5 1731.5,-437.5 1731.5,-418.5 1666.5,-418.5"/>
<text text-anchor="middle" x="1699" y="-425.5" font-family="Helvetica,sans-Serif" font-size="10.00">mesh_read</text>
</a>
</g>
</g>
<!-- Node35&#45;&gt;Node36 -->
<g id="edge38" class="edge"><title>Node35&#45;&gt;Node36</title>
<path fill="none" stroke="midnightblue" d="M1629.56,-428C1642,-428 1655.02,-428 1666.32,-428"/>
<polygon fill="midnightblue" stroke="midnightblue" points="1629.29,-424.5 1619.29,-428 1629.29,-431.5 1629.29,-424.5"/>
</g>
<!-- Node37 -->
<g id="node37" class="node"><title>Node37</title>
<g id="a_node37"><a xlink:href="yada_8c.html#a40c5c0b0d4eb7b59a91108269f69dc89" target="_top" xlink:title="MAIN">
<polygon fill="none" stroke="black" points="1768,-418.5 1768,-437.5 1810,-437.5 1810,-418.5 1768,-418.5"/>
<text text-anchor="middle" x="1789" y="-425.5" font-family="Helvetica,sans-Serif" font-size="10.00">MAIN</text>
</a>
</g>
</g>
<!-- Node36&#45;&gt;Node37 -->
<g id="edge39" class="edge"><title>Node36&#45;&gt;Node37</title>
<path fill="none" stroke="midnightblue" d="M1741.84,-428C1750.87,-428 1760.03,-428 1767.78,-428"/>
<polygon fill="midnightblue" stroke="midnightblue" points="1741.77,-424.5 1731.77,-428 1741.77,-431.5 1741.77,-424.5"/>
</g>
<!-- Node39&#45;&gt;Node19 -->
<g id="edge46" class="edge"><title>Node39&#45;&gt;Node19</title>
<path fill="none" stroke="midnightblue" d="M1167.1,-124C1181.07,-124 1196.63,-124 1210.88,-124"/>
<polygon fill="midnightblue" stroke="midnightblue" points="1166.78,-120.5 1156.78,-124 1166.78,-127.5 1166.78,-120.5"/>
</g>
<!-- Node40 -->
<g id="node40" class="node"><title>Node40</title>
<g id="a_node40"><a xlink:href="net_8c.html#a2110916d842d0952f1542e4e96ba98bb" target="_top" xlink:title="removeEdge">
<polygon fill="none" stroke="black" points="1223.5,-76.5 1223.5,-95.5 1294.5,-95.5 1294.5,-76.5 1223.5,-76.5"/>
<text text-anchor="middle" x="1259" y="-83.5" font-family="Helvetica,sans-Serif" font-size="10.00">removeEdge</text>
</a>
</g>
</g>
<!-- Node39&#45;&gt;Node40 -->
<g id="edge42" class="edge"><title>Node39&#45;&gt;Node40</title>
<path fill="none" stroke="midnightblue" d="M1166.49,-111.95C1185.11,-106.67 1206.65,-100.561 1224.16,-95.5967"/>
<polygon fill="midnightblue" stroke="midnightblue" points="1165.45,-108.609 1156.78,-114.704 1167.36,-115.343 1165.45,-108.609"/>
</g>
<!-- Node41 -->
<g id="node41" class="node"><title>Node41</title>
<g id="a_node41"><a xlink:href="table_8h.html#a107c408953d09606276157cef79af7d4" target="_top" xlink:title="table_remove">
<polygon fill="none" stroke="black" points="1221.5,-38.5 1221.5,-57.5 1296.5,-57.5 1296.5,-38.5 1221.5,-38.5"/>
<text text-anchor="middle" x="1259" y="-45.5" font-family="Helvetica,sans-Serif" font-size="10.00">table_remove</text>
</a>
</g>
</g>
<!-- Node39&#45;&gt;Node41 -->
<g id="edge45" class="edge"><title>Node39&#45;&gt;Node41</title>
<path fill="none" stroke="midnightblue" d="M1157.02,-109.544C1159.45,-108.114 1161.8,-106.596 1164,-105 1182.83,-91.3327 1180.34,-79.4462 1200,-67 1206.54,-62.8618 1214.06,-59.5387 1221.48,-56.9024"/>
<polygon fill="midnightblue" stroke="midnightblue" points="1155.25,-106.523 1148.08,-114.326 1158.55,-112.695 1155.25,-106.523"/>
</g>
<!-- Node40&#45;&gt;Node24 -->
<g id="edge43" class="edge"><title>Node40&#45;&gt;Node24</title>
<path fill="none" stroke="midnightblue" d="M1304.04,-95.6592C1309.16,-98.1028 1313.97,-101.164 1318,-105 1350.4,-135.846 1325.65,-164.393 1354,-199 1366.13,-213.803 1384.75,-225.077 1399.44,-232.36"/>
<polygon fill="midnightblue" stroke="midnightblue" points="1305.22,-92.3593 1294.63,-91.8944 1302.62,-98.8585 1305.22,-92.3593"/>
</g>
<!-- Node40&#45;&gt;Node25 -->
<g id="edge44" class="edge"><title>Node40&#45;&gt;Node25</title>
<path fill="none" stroke="midnightblue" d="M1304.74,-88.944C1353.86,-93.9242 1433.51,-107.28 1492,-143 1530.28,-166.375 1560.57,-212.4 1572.5,-232.373"/>
<polygon fill="midnightblue" stroke="midnightblue" points="1305.03,-85.4554 1294.75,-88.0034 1304.37,-92.4247 1305.03,-85.4554"/>
</g>
<!-- Node44 -->
<g id="node44" class="node"><title>Node44</title>
<g id="a_node44"><a xlink:href="list_8h.html#a0df36bca5d3d52f49147ca6fca13a375" target="_top" xlink:title="TMlist_find">
<polygon fill="none" stroke="black" points="1090.5,-0.5 1090.5,-19.5 1155.5,-19.5 1155.5,-0.5 1090.5,-0.5"/>
<text text-anchor="middle" x="1123" y="-7.5" font-family="Helvetica,sans-Serif" font-size="10.00">TMlist_find</text>
</a>
</g>
</g>
<!-- Node43&#45;&gt;Node44 -->
<g id="edge49" class="edge"><title>Node43&#45;&gt;Node44</title>
<path fill="none" stroke="midnightblue" d="M1036.06,-72.4558C1039.52,-70.815 1042.88,-69.0006 1046,-67 1065.59,-54.4505 1063.17,-42.6673 1082,-29 1086.85,-25.4771 1092.46,-22.3371 1097.92,-19.6738"/>
<polygon fill="midnightblue" stroke="midnightblue" points="1034.58,-69.2811 1026.73,-76.4025 1037.31,-75.7273 1034.58,-69.2811"/>
</g>
<!-- Node45 -->
<g id="node45" class="node"><title>Node45</title>
<g id="a_node45"><a xlink:href="list_8h.html#a7679cbef6358f1266bd7aff211c8cf19" target="_top" xlink:title="TMlist_insert">
<polygon fill="none" stroke="black" points="1086.5,-76.5 1086.5,-95.5 1159.5,-95.5 1159.5,-76.5 1086.5,-76.5"/>
<text text-anchor="middle" x="1123" y="-83.5" font-family="Helvetica,sans-Serif" font-size="10.00">TMlist_insert</text>
</a>
</g>
</g>
<!-- Node43&#45;&gt;Node45 -->
<g id="edge50" class="edge"><title>Node43&#45;&gt;Node45</title>
<path fill="none" stroke="midnightblue" d="M1041.86,-86C1056.73,-86 1072.61,-86 1086.28,-86"/>
<polygon fill="midnightblue" stroke="midnightblue" points="1041.77,-82.5001 1031.77,-86 1041.77,-89.5001 1041.77,-82.5001"/>
</g>
<!-- Node46 -->
<g id="node46" class="node"><title>Node46</title>
<g id="a_node46"><a xlink:href="list_8h.html#ad902641bf9d9dc19901fb99fdc0ac0a6" target="_top" xlink:title="TMlist_remove">
<polygon fill="none" stroke="black" points="1082.5,-38.5 1082.5,-57.5 1163.5,-57.5 1163.5,-38.5 1082.5,-38.5"/>
<text text-anchor="middle" x="1123" y="-45.5" font-family="Helvetica,sans-Serif" font-size="10.00">TMlist_remove</text>
</a>
</g>
</g>
<!-- Node43&#45;&gt;Node46 -->
<g id="edge51" class="edge"><title>Node43&#45;&gt;Node46</title>
<path fill="none" stroke="midnightblue" d="M1033.04,-73.6094C1051.12,-68.4055 1071.82,-62.4459 1088.7,-57.5859"/>
<polygon fill="midnightblue" stroke="midnightblue" points="1031.95,-70.2811 1023.31,-76.411 1033.89,-77.0079 1031.95,-70.2811"/>
</g>
<!-- Node49&#45;&gt;Node12 -->
<g id="edge55" class="edge"><title>Node49&#45;&gt;Node12</title>
<path fill="none" stroke="midnightblue" d="M731.575,-187.948C762.398,-180.139 800.388,-170.515 820.316,-165.467"/>
<polygon fill="midnightblue" stroke="midnightblue" points="730.686,-184.562 721.851,-190.411 732.405,-191.348 730.686,-184.562"/>
</g>
<!-- Node50&#45;&gt;Node12 -->
<g id="edge57" class="edge"><title>Node50&#45;&gt;Node12</title>
<path fill="none" stroke="midnightblue" d="M731.575,-136.052C762.398,-143.861 800.388,-153.485 820.316,-158.533"/>
<polygon fill="midnightblue" stroke="midnightblue" points="732.405,-132.652 721.851,-133.589 730.686,-139.438 732.405,-132.652"/>
</g>
<!-- Node51&#45;&gt;Node11 -->
<g id="edge59" class="edge"><title>Node51&#45;&gt;Node11</title>
<path fill="none" stroke="midnightblue" d="M584.172,-187.816C604.164,-182.54 627.219,-176.456 645.924,-171.52"/>
<polygon fill="midnightblue" stroke="midnightblue" points="583.113,-184.475 574.337,-190.411 584.899,-191.244 583.113,-184.475"/>
</g>
<!-- Node51&#45;&gt;Node49 -->
<g id="edge60" class="edge"><title>Node51&#45;&gt;Node49</title>
<path fill="none" stroke="midnightblue" d="M586.05,-200C602.932,-200 621.796,-200 638.301,-200"/>
<polygon fill="midnightblue" stroke="midnightblue" points="585.834,-196.5 575.834,-200 585.834,-203.5 585.834,-196.5"/>
</g>
<!-- Node52&#45;&gt;Node2 -->
<g id="edge62" class="edge"><title>Node52&#45;&gt;Node2</title>
<path fill="none" stroke="midnightblue" d="M207.815,-250.826C223.246,-255.925 240.691,-261.689 254.99,-266.414"/>
<polygon fill="midnightblue" stroke="midnightblue" points="208.613,-247.403 198.019,-247.589 206.416,-254.05 208.613,-247.403"/>
</g>
<!-- Node52&#45;&gt;Node5 -->
<g id="edge65" class="edge"><title>Node52&#45;&gt;Node5</title>
<path fill="none" stroke="midnightblue" d="M220.533,-243.414C250.751,-246.814 289.624,-251.576 324,-257 387.32,-266.992 460.639,-281.929 502.347,-290.746"/>
<polygon fill="midnightblue" stroke="midnightblue" points="220.553,-239.895 210.228,-242.27 219.78,-246.852 220.553,-239.895"/>
</g>
<!-- Node52&#45;&gt;Node9 -->
<g id="edge63" class="edge"><title>Node52&#45;&gt;Node9</title>
<path fill="none" stroke="midnightblue" d="M187.967,-221.66C202.777,-209.819 224.404,-194.459 246,-186 284.91,-170.76 332.821,-165.16 365.201,-163.124"/>
<polygon fill="midnightblue" stroke="midnightblue" points="185.583,-219.089 180.086,-228.147 190.031,-224.494 185.583,-219.089"/>
</g>
<!-- Node52&#45;&gt;Node51 -->
<g id="edge64" class="edge"><title>Node52&#45;&gt;Node51</title>
<path fill="none" stroke="midnightblue" d="M220.029,-228.002C228.674,-226.515 237.577,-225.112 246,-224 336.153,-212.102 442.9,-205.071 498.335,-201.944"/>
<polygon fill="midnightblue" stroke="midnightblue" points="219.278,-224.581 210.043,-229.774 220.501,-231.473 219.278,-224.581"/>
</g>
</g>
</svg>
