<?xml version="1.0" encoding="UTF-8" standalone="no"?>
<!DOCTYPE svg PUBLIC "-//W3C//DTD SVG 1.1//EN"
 "http://www.w3.org/Graphics/SVG/1.1/DTD/svg11.dtd">
<!-- Generated by graphviz version 2.36.0 (20140111.2315)
 -->
<!-- Title: init_stm_blk Pages: 1 -->
<!--zoomable 484 -->
<svg id="main" version="1.1" xmlns="http://www.w3.org/2000/svg" xmlns:xlink="http://www.w3.org/1999/xlink" xml:space="preserve" onload="init(evt)">
<style type="text/css"><![CDATA[
.edge:hover path { stroke: red; }
.edge:hover polygon { stroke: red; fill: red; }
]]></style>
<script type="text/javascript"><![CDATA[
var edges = document.getElementsByTagName('g');
if (edges && edges.length) {
  for (var i=0;i<edges.length;i++) {
    if (edges[i].id.substr(0,4)=='edge') {
      edges[i].setAttribute('class','edge');
    }
  }
}
]]></script>
        <defs>
                <circle id="rim" cx="0" cy="0" r="7"/>
                <circle id="rim2" cx="0" cy="0" r="3.5"/>
                <g id="zoomPlus">
                        <use xlink:href="#rim" fill="#404040">
                                <set attributeName="fill" to="#808080" begin="zoomplus.mouseover" end="zoomplus.mouseout"/>
                        </use>
                        <path d="M-4,0h8M0,-4v8" fill="none" stroke="white" stroke-width="1.5" pointer-events="none"/>
                </g>
                <g id="zoomMin">
                        <use xlink:href="#rim" fill="#404040">
                                <set attributeName="fill" to="#808080" begin="zoomminus.mouseover" end="zoomminus.mouseout"/>
                        </use>
                        <path d="M-4,0h8" fill="none" stroke="white" stroke-width="1.5" pointer-events="none"/>
                </g>
                <g id="dirArrow">
                        <path fill="none" stroke="white" stroke-width="1.5" d="M0,-3.0v7 M-2.5,-0.5L0,-3.0L2.5,-0.5"/>
                </g>
               <g id="resetDef">
                       <use xlink:href="#rim2" fill="#404040">
                               <set attributeName="fill" to="#808080" begin="reset.mouseover" end="reset.mouseout"/>
                       </use>
               </g>
        </defs>

<script type="text/javascript">
var viewWidth = 1236;
var viewHeight = 484;
var sectionId = 'dynsection-10';
</script>
<script xlink:href="svgpan.js"/>
<svg id="graph" class="graph">
<g id="viewport">
<title>init_stm_blk</title>
<!-- Node1 -->
<g id="node1" class="node"><title>Node1</title>
<polygon fill="#bfbfbf" stroke="black" points="0.5,-98.5 0.5,-117.5 69.5,-117.5 69.5,-98.5 0.5,-98.5"/>
<text text-anchor="middle" x="35" y="-105.5" font-family="Helvetica,sans-Serif" font-size="10.00">init_stm_blk</text>
</g>
<!-- Node2 -->
<g id="node2" class="node"><title>Node2</title>
<g id="a_node2"><a xlink:href="stmskip_8h.html#a010792935ce773352fdab0ac90c520d6" target="_top" xlink:title="stmskip_alloc">
<polygon fill="none" stroke="black" points="110.5,-118.5 110.5,-137.5 187.5,-137.5 187.5,-118.5 110.5,-118.5"/>
<text text-anchor="middle" x="149" y="-125.5" font-family="Helvetica,sans-Serif" font-size="10.00">stmskip_alloc</text>
</a>
</g>
</g>
<!-- Node1&#45;&gt;Node2 -->
<g id="edge1" class="edge"><title>Node1&#45;&gt;Node2</title>
<path fill="none" stroke="midnightblue" d="M79.4681,-115.762C89.5761,-117.567 100.258,-119.475 110.104,-121.233"/>
<polygon fill="midnightblue" stroke="midnightblue" points="80.0633,-112.313 69.6037,-114.001 78.8327,-119.204 80.0633,-112.313"/>
</g>
<!-- Node4 -->
<g id="node4" class="node"><title>Node4</title>
<g id="a_node4"><a xlink:href="stmskip_8cc.html#ad17c6ea2fd390c2dd637a34fdeb0b3df" target="_top" xlink:title="stmskip_update">
<polygon fill="none" stroke="black" points="106,-79.5 106,-98.5 192,-98.5 192,-79.5 106,-79.5"/>
<text text-anchor="middle" x="149" y="-86.5" font-family="Helvetica,sans-Serif" font-size="10.00">stmskip_update</text>
</a>
</g>
</g>
<!-- Node1&#45;&gt;Node4 -->
<g id="edge3" class="edge"><title>Node1&#45;&gt;Node4</title>
<path fill="none" stroke="midnightblue" d="M79.4681,-100.626C88.0786,-99.1652 97.1058,-97.6338 105.678,-96.1797"/>
<polygon fill="midnightblue" stroke="midnightblue" points="78.8774,-97.1761 69.6037,-102.299 80.0482,-104.077 78.8774,-97.1761"/>
</g>
<!-- Node3 -->
<g id="node3" class="node"><title>Node3</title>
<g id="a_node3"><a xlink:href="classSetAdaptor_3_01stm__skip_01_4.html#acfb0c3f8dd7da801bdafb4ff1de8ba3e" target="_top" xlink:title="SetAdaptor\&lt; stm_skip\l \&gt;::SetAdaptor">
<polygon fill="none" stroke="black" points="228,-115 228,-145 342,-145 342,-115 228,-115"/>
<text text-anchor="start" x="236" y="-133" font-family="Helvetica,sans-Serif" font-size="10.00">SetAdaptor&lt; stm_skip</text>
<text text-anchor="middle" x="285" y="-122" font-family="Helvetica,sans-Serif" font-size="10.00"> &gt;::SetAdaptor</text>
</a>
</g>
</g>
<!-- Node2&#45;&gt;Node3 -->
<g id="edge2" class="edge"><title>Node2&#45;&gt;Node3</title>
<path fill="none" stroke="midnightblue" d="M197.928,-128.715C207.62,-128.86 217.892,-129.013 227.837,-129.162"/>
<polygon fill="midnightblue" stroke="midnightblue" points="197.734,-125.212 187.683,-128.562 197.63,-132.211 197.734,-125.212"/>
</g>
<!-- Node5 -->
<g id="node5" class="node"><title>Node5</title>
<g id="a_node5"><a xlink:href="stmskip_8cc.html#a9ab04b9e875013b4d2dd249d0c97dce5" target="_top" xlink:title="for">
<polygon fill="none" stroke="black" points="270.5,-76.5 270.5,-95.5 299.5,-95.5 299.5,-76.5 270.5,-76.5"/>
<text text-anchor="middle" x="285" y="-83.5" font-family="Helvetica,sans-Serif" font-size="10.00">for</text>
</a>
</g>
</g>
<!-- Node4&#45;&gt;Node5 -->
<g id="edge4" class="edge"><title>Node4&#45;&gt;Node5</title>
<path fill="none" stroke="midnightblue" d="M202.356,-87.8278C226.941,-87.2774 254.291,-86.6651 270.273,-86.3073"/>
<polygon fill="midnightblue" stroke="midnightblue" points="201.95,-84.336 192.031,-88.059 202.107,-91.3342 201.95,-84.336"/>
</g>
<!-- Node6 -->
<g id="node6" class="node"><title>Node6</title>
<g id="a_node6"><a xlink:href="heap_8h.html#a9c77dbc94ac2daa5b202375477e26188" target="_top" xlink:title="heap_isValid">
<polygon fill="none" stroke="black" points="385,-190.5 385,-209.5 457,-209.5 457,-190.5 385,-190.5"/>
<text text-anchor="middle" x="421" y="-197.5" font-family="Helvetica,sans-Serif" font-size="10.00">heap_isValid</text>
</a>
</g>
</g>
<!-- Node5&#45;&gt;Node6 -->
<g id="edge5" class="edge"><title>Node5&#45;&gt;Node6</title>
<path fill="none" stroke="midnightblue" d="M310.088,-89.7594C320.882,-92.4743 333.146,-97.1121 342,-105 369.907,-129.862 351.341,-154.804 378,-181 381.882,-184.814 386.665,-187.943 391.596,-190.481"/>
<polygon fill="midnightblue" stroke="midnightblue" points="310.469,-86.2634 299.964,-87.6364 309.033,-93.1143 310.469,-86.2634"/>
</g>
<!-- Node7 -->
<g id="node7" class="node"><title>Node7</title>
<g id="a_node7"><a xlink:href="list_8c.html#a3ed9de59a6e4cd353dee80f797da7a19" target="_top" xlink:title="findPrevious">
<polygon fill="none" stroke="black" points="385.5,-152.5 385.5,-171.5 456.5,-171.5 456.5,-152.5 385.5,-152.5"/>
<text text-anchor="middle" x="421" y="-159.5" font-family="Helvetica,sans-Serif" font-size="10.00">findPrevious</text>
</a>
</g>
</g>
<!-- Node5&#45;&gt;Node7 -->
<g id="edge6" class="edge"><title>Node5&#45;&gt;Node7</title>
<path fill="none" stroke="midnightblue" d="M309.722,-92.2976C319.946,-95.4518 331.857,-99.7313 342,-105 367.898,-118.453 394.625,-139.951 409.09,-152.343"/>
<polygon fill="midnightblue" stroke="midnightblue" points="310.403,-88.8508 299.823,-89.4236 308.451,-95.5732 310.403,-88.8508"/>
</g>
<!-- Node36 -->
<g id="node36" class="node"><title>Node36</title>
<g id="a_node36"><a xlink:href="list_8c.html#abae8c22f79c73d231c8ddd9b795e47d9" target="_top" xlink:title="TMfindPrevious">
<polygon fill="none" stroke="black" points="378.5,-76.5 378.5,-95.5 463.5,-95.5 463.5,-76.5 378.5,-76.5"/>
<text text-anchor="middle" x="421" y="-83.5" font-family="Helvetica,sans-Serif" font-size="10.00">TMfindPrevious</text>
</a>
</g>
</g>
<!-- Node5&#45;&gt;Node36 -->
<g id="edge41" class="edge"><title>Node5&#45;&gt;Node36</title>
<path fill="none" stroke="midnightblue" d="M309.996,-86C328.979,-86 355.937,-86 378.415,-86"/>
<polygon fill="midnightblue" stroke="midnightblue" points="309.836,-82.5001 299.836,-86 309.836,-89.5001 309.836,-82.5001"/>
</g>
<!-- Node40 -->
<g id="node40" class="node"><title>Node40</title>
<g id="a_node40"><a xlink:href="rbtree_8c.html#a14bd83586612336b5eb09f902e95b02f" target="_top" xlink:title="insert">
<polygon fill="none" stroke="black" points="400.5,-38.5 400.5,-57.5 441.5,-57.5 441.5,-38.5 400.5,-38.5"/>
<text text-anchor="middle" x="421" y="-45.5" font-family="Helvetica,sans-Serif" font-size="10.00">insert</text>
</a>
</g>
</g>
<!-- Node5&#45;&gt;Node40 -->
<g id="edge45" class="edge"><title>Node5&#45;&gt;Node40</title>
<path fill="none" stroke="midnightblue" d="M309.56,-79.3187C335.374,-71.9985 376.308,-60.3902 400.423,-53.5516"/>
<polygon fill="midnightblue" stroke="midnightblue" points="308.501,-75.9809 299.836,-82.0765 310.411,-82.7154 308.501,-75.9809"/>
</g>
<!-- Node41 -->
<g id="node41" class="node"><title>Node41</title>
<g id="a_node41"><a xlink:href="rbtree_8c.html#a47dc2cb2c9de9c39f968f120e1fe9ed4" target="_top" xlink:title="TMinsert">
<polygon fill="none" stroke="black" points="393.5,-0.5 393.5,-19.5 448.5,-19.5 448.5,-0.5 393.5,-0.5"/>
<text text-anchor="middle" x="421" y="-7.5" font-family="Helvetica,sans-Serif" font-size="10.00">TMinsert</text>
</a>
</g>
</g>
<!-- Node5&#45;&gt;Node41 -->
<g id="edge46" class="edge"><title>Node5&#45;&gt;Node41</title>
<path fill="none" stroke="midnightblue" d="M308.206,-71.109C326.547,-59.0875 353.461,-42.081 378,-29 384.215,-25.687 391.12,-22.4066 397.506,-19.5278"/>
<polygon fill="midnightblue" stroke="midnightblue" points="306.109,-68.299 299.696,-76.7322 309.968,-74.1391 306.109,-68.299"/>
</g>
<!-- Node8 -->
<g id="node8" class="node"><title>Node8</title>
<g id="a_node8"><a xlink:href="list_8h.html#a1379a3cf001369bd5979fe53160640f5" target="_top" xlink:title="list_find">
<polygon fill="none" stroke="black" points="516,-152.5 516,-171.5 566,-171.5 566,-152.5 516,-152.5"/>
<text text-anchor="middle" x="541" y="-159.5" font-family="Helvetica,sans-Serif" font-size="10.00">list_find</text>
</a>
</g>
</g>
<!-- Node7&#45;&gt;Node8 -->
<g id="edge7" class="edge"><title>Node7&#45;&gt;Node8</title>
<path fill="none" stroke="midnightblue" d="M466.89,-162C483.565,-162 501.837,-162 515.943,-162"/>
<polygon fill="midnightblue" stroke="midnightblue" points="466.766,-158.5 456.766,-162 466.766,-165.5 466.766,-158.5"/>
</g>
<!-- Node15 -->
<g id="node15" class="node"><title>Node15</title>
<g id="a_node15"><a xlink:href="list_8h.html#a06249cb6bbda6b10f5777b96a6c122f9" target="_top" xlink:title="list_insert">
<polygon fill="none" stroke="black" points="511.5,-342.5 511.5,-361.5 570.5,-361.5 570.5,-342.5 511.5,-342.5"/>
<text text-anchor="middle" x="541" y="-349.5" font-family="Helvetica,sans-Serif" font-size="10.00">list_insert</text>
</a>
</g>
</g>
<!-- Node7&#45;&gt;Node15 -->
<g id="edge15" class="edge"><title>Node7&#45;&gt;Node15</title>
<path fill="none" stroke="midnightblue" d="M459.481,-177.062C461.085,-178.284 462.604,-179.595 464,-181 470.239,-187.281 520.964,-306.867 535.886,-342.23"/>
<polygon fill="midnightblue" stroke="midnightblue" points="461.241,-174.034 450.913,-171.67 457.513,-179.958 461.241,-174.034"/>
</g>
<!-- Node31 -->
<g id="node31" class="node"><title>Node31</title>
<g id="a_node31"><a xlink:href="list_8h.html#a857fdaea81fb44b5918c9d446707f23e" target="_top" xlink:title="Plist_insert">
<polygon fill="none" stroke="black" points="508.5,-228.5 508.5,-247.5 573.5,-247.5 573.5,-228.5 508.5,-228.5"/>
<text text-anchor="middle" x="541" y="-235.5" font-family="Helvetica,sans-Serif" font-size="10.00">Plist_insert</text>
</a>
</g>
</g>
<!-- Node7&#45;&gt;Node31 -->
<g id="edge33" class="edge"><title>Node7&#45;&gt;Node31</title>
<path fill="none" stroke="midnightblue" d="M456.42,-176.208C459.057,-177.703 461.616,-179.303 464,-181 482.953,-194.491 481.173,-205.333 500,-219 504.853,-222.523 510.462,-225.663 515.916,-228.326"/>
<polygon fill="midnightblue" stroke="midnightblue" points="457.798,-172.981 447.303,-171.533 454.604,-179.21 457.798,-172.981"/>
</g>
<!-- Node32 -->
<g id="node32" class="node"><title>Node32</title>
<g id="a_node32"><a xlink:href="list_8h.html#af5a09f2dc4e901d1c8052e282d4d87d3" target="_top" xlink:title="list_remove">
<polygon fill="none" stroke="black" points="507.5,-114.5 507.5,-133.5 574.5,-133.5 574.5,-114.5 507.5,-114.5"/>
<text text-anchor="middle" x="541" y="-121.5" font-family="Helvetica,sans-Serif" font-size="10.00">list_remove</text>
</a>
</g>
</g>
<!-- Node7&#45;&gt;Node32 -->
<g id="edge34" class="edge"><title>Node7&#45;&gt;Node32</title>
<path fill="none" stroke="midnightblue" d="M461.376,-149.32C477.32,-144.185 495.421,-138.356 510.233,-133.586"/>
<polygon fill="midnightblue" stroke="midnightblue" points="460.222,-146.014 451.776,-152.411 462.368,-152.677 460.222,-146.014"/>
</g>
<!-- Node35 -->
<g id="node35" class="node"><title>Node35</title>
<g id="a_node35"><a xlink:href="list_8h.html#a1fa145871fd1d110f892094bbc153cbf" target="_top" xlink:title="Plist_remove">
<polygon fill="none" stroke="black" points="504,-190.5 504,-209.5 578,-209.5 578,-190.5 504,-190.5"/>
<text text-anchor="middle" x="541" y="-197.5" font-family="Helvetica,sans-Serif" font-size="10.00">Plist_remove</text>
</a>
</g>
</g>
<!-- Node7&#45;&gt;Node35 -->
<g id="edge40" class="edge"><title>Node7&#45;&gt;Node35</title>
<path fill="none" stroke="midnightblue" d="M461.376,-174.68C477.32,-179.815 495.421,-185.644 510.233,-190.414"/>
<polygon fill="midnightblue" stroke="midnightblue" points="462.368,-171.323 451.776,-171.589 460.222,-177.986 462.368,-171.323"/>
</g>
<!-- Node9 -->
<g id="node9" class="node"><title>Node9</title>
<g id="a_node9"><a xlink:href="hashtable_8h.html#ac641ace1e3d79ee78d271d999df92db9" target="_top" xlink:title="hashtable_containsKey">
<polygon fill="none" stroke="black" points="618,-228.5 618,-247.5 736,-247.5 736,-228.5 618,-228.5"/>
<text text-anchor="middle" x="677" y="-235.5" font-family="Helvetica,sans-Serif" font-size="10.00">hashtable_containsKey</text>
</a>
</g>
</g>
<!-- Node8&#45;&gt;Node9 -->
<g id="edge8" class="edge"><title>Node8&#45;&gt;Node9</title>
<path fill="none" stroke="midnightblue" d="M575.022,-176.456C577.447,-177.886 579.801,-179.404 582,-181 600.827,-194.667 598.345,-206.554 618,-219 623.998,-222.798 630.829,-225.909 637.647,-228.434"/>
<polygon fill="midnightblue" stroke="midnightblue" points="576.553,-173.305 566.084,-171.674 573.251,-179.477 576.553,-173.305"/>
</g>
<!-- Node10 -->
<g id="node10" class="node"><title>Node10</title>
<g id="a_node10"><a xlink:href="hashtable_8h.html#a686d66befe855b80c215e27cb2e9343e" target="_top" xlink:title="hashtable_find">
<polygon fill="none" stroke="black" points="637,-190.5 637,-209.5 717,-209.5 717,-190.5 637,-190.5"/>
<text text-anchor="middle" x="677" y="-197.5" font-family="Helvetica,sans-Serif" font-size="10.00">hashtable_find</text>
</a>
</g>
</g>
<!-- Node8&#45;&gt;Node10 -->
<g id="edge9" class="edge"><title>Node8&#45;&gt;Node10</title>
<path fill="none" stroke="midnightblue" d="M576.054,-171.657C596.377,-177.42 622.085,-184.711 642.339,-190.454"/>
<polygon fill="midnightblue" stroke="midnightblue" points="576.842,-168.243 566.266,-168.882 574.932,-174.977 576.842,-168.243"/>
</g>
<!-- Node11 -->
<g id="node11" class="node"><title>Node11</title>
<g id="a_node11"><a xlink:href="hashtable_8h.html#a76f7704c9b87a69d6a94a01f06a65185" target="_top" xlink:title="hashtable_insert">
<polygon fill="none" stroke="black" points="633,-266.5 633,-285.5 721,-285.5 721,-266.5 633,-266.5"/>
<text text-anchor="middle" x="677" y="-273.5" font-family="Helvetica,sans-Serif" font-size="10.00">hashtable_insert</text>
</a>
</g>
</g>
<!-- Node8&#45;&gt;Node11 -->
<g id="edge10" class="edge"><title>Node8&#45;&gt;Node11</title>
<path fill="none" stroke="midnightblue" d="M575.04,-175.314C577.548,-177.018 579.912,-178.909 582,-181 608.414,-207.443 589.962,-232.285 618,-257 622.372,-260.854 627.542,-263.928 632.966,-266.381"/>
<polygon fill="midnightblue" stroke="midnightblue" points="576.56,-172.15 566.142,-170.219 573.082,-178.225 576.56,-172.15"/>
</g>
<!-- Node12 -->
<g id="node12" class="node"><title>Node12</title>
<g id="a_node12"><a xlink:href="hashtable_8h.html#a1097b4c3a3d33b866a55e103f49dee7b" target="_top" xlink:title="hashtable_remove">
<polygon fill="none" stroke="black" points="629,-114.5 629,-133.5 725,-133.5 725,-114.5 629,-114.5"/>
<text text-anchor="middle" x="677" y="-121.5" font-family="Helvetica,sans-Serif" font-size="10.00">hashtable_remove</text>
</a>
</g>
</g>
<!-- Node8&#45;&gt;Node12 -->
<g id="edge11" class="edge"><title>Node8&#45;&gt;Node12</title>
<path fill="none" stroke="midnightblue" d="M576.054,-152.343C596.377,-146.58 622.085,-139.289 642.339,-133.546"/>
<polygon fill="midnightblue" stroke="midnightblue" points="574.932,-149.023 566.266,-155.118 576.842,-155.757 574.932,-149.023"/>
</g>
<!-- Node13 -->
<g id="node13" class="node"><title>Node13</title>
<g id="a_node13"><a xlink:href="region_8c.html#afd9637f04d120aec5464b6304cfa0c99" target="_top" xlink:title="TMgrowRegion">
<polygon fill="none" stroke="black" points="635.5,-152.5 635.5,-171.5 718.5,-171.5 718.5,-152.5 635.5,-152.5"/>
<text text-anchor="middle" x="677" y="-159.5" font-family="Helvetica,sans-Serif" font-size="10.00">TMgrowRegion</text>
</a>
</g>
</g>
<!-- Node8&#45;&gt;Node13 -->
<g id="edge12" class="edge"><title>Node8&#45;&gt;Node13</title>
<path fill="none" stroke="midnightblue" d="M576.327,-162C594.327,-162 616.494,-162 635.349,-162"/>
<polygon fill="midnightblue" stroke="midnightblue" points="576.266,-158.5 566.266,-162 576.266,-165.5 576.266,-158.5"/>
</g>
<!-- Node14 -->
<g id="node14" class="node"><title>Node14</title>
<g id="a_node14"><a xlink:href="region_8h.html#a74d9ac41436518894e8e1bd6564ebf42" target="_top" xlink:title="TMregion_refine">
<polygon fill="none" stroke="black" points="798,-152.5 798,-171.5 884,-171.5 884,-152.5 798,-152.5"/>
<text text-anchor="middle" x="841" y="-159.5" font-family="Helvetica,sans-Serif" font-size="10.00">TMregion_refine</text>
</a>
</g>
</g>
<!-- Node13&#45;&gt;Node14 -->
<g id="edge13" class="edge"><title>Node13&#45;&gt;Node14</title>
<path fill="none" stroke="midnightblue" d="M729.083,-162C751.174,-162 776.718,-162 797.721,-162"/>
<polygon fill="midnightblue" stroke="midnightblue" points="728.879,-158.5 718.879,-162 728.879,-165.5 728.879,-158.5"/>
</g>
<!-- Node14&#45;&gt;Node14 -->
<g id="edge14" class="edge"><title>Node14&#45;&gt;Node14</title>
<path fill="none" stroke="midnightblue" d="M811.881,-180.654C813.098,-185.937 822.804,-190 841,-190 868.727,-190 876.741,-180.565 865.044,-171.757"/>
<polygon fill="midnightblue" stroke="midnightblue" points="815.041,-182.177 816.956,-171.757 808.961,-178.709 815.041,-182.177"/>
</g>
<!-- Node15&#45;&gt;Node11 -->
<g id="edge27" class="edge"><title>Node15&#45;&gt;Node11</title>
<path fill="none" stroke="midnightblue" d="M560.373,-335.491C575.088,-322.969 596.722,-306.079 618,-295 625.049,-291.33 632.946,-288.18 640.589,-285.559"/>
<polygon fill="midnightblue" stroke="midnightblue" points="557.813,-333.078 552.563,-342.281 562.406,-338.361 557.813,-333.078"/>
</g>
<!-- Node16 -->
<g id="node16" class="node"><title>Node16</title>
<g id="a_node16"><a xlink:href="net_8c.html#ad4f5f991dfc5667c5d75c5b353dbe974" target="_top" xlink:title="insertEdge">
<polygon fill="none" stroke="black" points="645.5,-380.5 645.5,-399.5 708.5,-399.5 708.5,-380.5 645.5,-380.5"/>
<text text-anchor="middle" x="677" y="-387.5" font-family="Helvetica,sans-Serif" font-size="10.00">insertEdge</text>
</a>
</g>
</g>
<!-- Node15&#45;&gt;Node16 -->
<g id="edge16" class="edge"><title>Node15&#45;&gt;Node16</title>
<path fill="none" stroke="midnightblue" d="M580.471,-362.91C601.097,-368.759 626.159,-375.866 645.437,-381.333"/>
<polygon fill="midnightblue" stroke="midnightblue" points="581.322,-359.513 570.746,-360.152 579.412,-366.247 581.322,-359.513"/>
</g>
<!-- Node22 -->
<g id="node22" class="node"><title>Node22</title>
<g id="a_node22"><a xlink:href="table_8h.html#a0cbbed1b3290a9074b455925972f670d" target="_top" xlink:title="table_insert">
<polygon fill="none" stroke="black" points="643.5,-342.5 643.5,-361.5 710.5,-361.5 710.5,-342.5 643.5,-342.5"/>
<text text-anchor="middle" x="677" y="-349.5" font-family="Helvetica,sans-Serif" font-size="10.00">table_insert</text>
</a>
</g>
</g>
<!-- Node15&#45;&gt;Node22 -->
<g id="edge23" class="edge"><title>Node15&#45;&gt;Node22</title>
<path fill="none" stroke="midnightblue" d="M580.932,-352C600.628,-352 624.274,-352 643.056,-352"/>
<polygon fill="midnightblue" stroke="midnightblue" points="580.746,-348.5 570.746,-352 580.746,-355.5 580.746,-348.5"/>
</g>
<!-- Node23 -->
<g id="node23" class="node"><title>Node23</title>
<g id="a_node23"><a xlink:href="decoder_8h.html#a92136c16eda5a24a0eb6c60b9f96244a" target="_top" xlink:title="decoder_process">
<polygon fill="none" stroke="black" points="631.5,-304.5 631.5,-323.5 722.5,-323.5 722.5,-304.5 631.5,-304.5"/>
<text text-anchor="middle" x="677" y="-311.5" font-family="Helvetica,sans-Serif" font-size="10.00">decoder_process</text>
</a>
</g>
</g>
<!-- Node15&#45;&gt;Node23 -->
<g id="edge24" class="edge"><title>Node15&#45;&gt;Node23</title>
<path fill="none" stroke="midnightblue" d="M580.51,-341.079C599.954,-335.565 623.331,-328.936 642.089,-323.617"/>
<polygon fill="midnightblue" stroke="midnightblue" points="579.412,-337.753 570.746,-343.848 581.322,-344.487 579.412,-337.753"/>
</g>
<!-- Node24 -->
<g id="node24" class="node"><title>Node24</title>
<g id="a_node24"><a xlink:href="maze_8h.html#a2135cee3a633084c9456873cb7746e0e" target="_top" xlink:title="maze_read">
<polygon fill="none" stroke="black" points="644.5,-456.5 644.5,-475.5 709.5,-475.5 709.5,-456.5 644.5,-456.5"/>
<text text-anchor="middle" x="677" y="-463.5" font-family="Helvetica,sans-Serif" font-size="10.00">maze_read</text>
</a>
</g>
</g>
<!-- Node15&#45;&gt;Node24 -->
<g id="edge25" class="edge"><title>Node15&#45;&gt;Node24</title>
<path fill="none" stroke="midnightblue" d="M552.18,-370.372C564.913,-391.731 588.65,-426.647 618,-447 625.837,-452.434 635.332,-456.396 644.35,-459.249"/>
<polygon fill="midnightblue" stroke="midnightblue" points="555.155,-368.524 547.124,-361.613 549.093,-372.024 555.155,-368.524"/>
</g>
<!-- Node26 -->
<g id="node26" class="node"><title>Node26</title>
<g id="a_node26"><a xlink:href="element_8h.html#af31cf5d6a12660d258214d8483df8c1d" target="_top" xlink:title="element_addNeighbor">
<polygon fill="none" stroke="black" points="621.5,-418.5 621.5,-437.5 732.5,-437.5 732.5,-418.5 621.5,-418.5"/>
<text text-anchor="middle" x="677" y="-425.5" font-family="Helvetica,sans-Serif" font-size="10.00">element_addNeighbor</text>
</a>
</g>
</g>
<!-- Node15&#45;&gt;Node26 -->
<g id="edge28" class="edge"><title>Node15&#45;&gt;Node26</title>
<path fill="none" stroke="midnightblue" d="M560.373,-368.509C575.088,-381.031 596.722,-397.921 618,-409 625.049,-412.67 632.946,-415.82 640.589,-418.441"/>
<polygon fill="midnightblue" stroke="midnightblue" points="562.406,-365.639 552.563,-361.719 557.813,-370.922 562.406,-365.639"/>
</g>
<!-- Node17 -->
<g id="node17" class="node"><title>Node17</title>
<g id="a_node17"><a xlink:href="net_8c.html#a456ce4308d1d5e4f0a816165f0d1b9ac" target="_top" xlink:title="reverseEdge">
<polygon fill="none" stroke="black" points="805.5,-232.5 805.5,-251.5 876.5,-251.5 876.5,-232.5 805.5,-232.5"/>
<text text-anchor="middle" x="841" y="-239.5" font-family="Helvetica,sans-Serif" font-size="10.00">reverseEdge</text>
</a>
</g>
</g>
<!-- Node16&#45;&gt;Node17 -->
<g id="edge17" class="edge"><title>Node16&#45;&gt;Node17</title>
<path fill="none" stroke="midnightblue" d="M718.411,-380.803C724.677,-378.271 730.79,-375.061 736,-371 759.633,-352.581 753.627,-337.669 772,-314 790.555,-290.096 815.738,-265.029 829.665,-251.696"/>
<polygon fill="midnightblue" stroke="midnightblue" points="716.831,-377.647 708.545,-384.25 719.14,-384.256 716.831,-377.647"/>
</g>
<!-- Node18 -->
<g id="node18" class="node"><title>Node18</title>
<g id="a_node18"><a xlink:href="net_8h.html#a7a2e0647373945c39b0efcdf78618993" target="_top" xlink:title="net_applyOperation">
<polygon fill="none" stroke="black" points="946.5,-232.5 946.5,-251.5 1047.5,-251.5 1047.5,-232.5 946.5,-232.5"/>
<text text-anchor="middle" x="997" y="-239.5" font-family="Helvetica,sans-Serif" font-size="10.00">net_applyOperation</text>
</a>
</g>
</g>
<!-- Node16&#45;&gt;Node18 -->
<g id="edge19" class="edge"><title>Node16&#45;&gt;Node18</title>
<path fill="none" stroke="midnightblue" d="M718.517,-377.556C724.431,-375.501 730.409,-373.289 736,-371 830.199,-332.437 937.621,-274.413 978.749,-251.65"/>
<polygon fill="midnightblue" stroke="midnightblue" points="717.066,-374.351 708.702,-380.854 719.296,-380.987 717.066,-374.351"/>
</g>
<!-- Node19 -->
<g id="node19" class="node"><title>Node19</title>
<g id="a_node19"><a xlink:href="net_8h.html#a7ac0b179e1d386a853aba9b4fffa369a" target="_top" xlink:title="net_generateRandomEdges">
<polygon fill="none" stroke="black" points="772.5,-380.5 772.5,-399.5 909.5,-399.5 909.5,-380.5 772.5,-380.5"/>
<text text-anchor="middle" x="841" y="-387.5" font-family="Helvetica,sans-Serif" font-size="10.00">net_generateRandomEdges</text>
</a>
</g>
</g>
<!-- Node16&#45;&gt;Node19 -->
<g id="edge20" class="edge"><title>Node16&#45;&gt;Node19</title>
<path fill="none" stroke="midnightblue" d="M719.04,-390C735.224,-390 754.248,-390 772.357,-390"/>
<polygon fill="midnightblue" stroke="midnightblue" points="718.852,-386.5 708.852,-390 718.852,-393.5 718.852,-386.5"/>
</g>
<!-- Node17&#45;&gt;Node18 -->
<g id="edge18" class="edge"><title>Node17&#45;&gt;Node18</title>
<path fill="none" stroke="midnightblue" d="M886.599,-242C905.311,-242 927.146,-242 946.366,-242"/>
<polygon fill="midnightblue" stroke="midnightblue" points="886.561,-238.5 876.561,-242 886.561,-245.5 886.561,-238.5"/>
</g>
<!-- Node20 -->
<g id="node20" class="node"><title>Node20</title>
<g id="a_node20"><a xlink:href="data_8h.html#a0f45b98c6cac17904d9daf25fbdc1dc9" target="_top" xlink:title="data_generate">
<polygon fill="none" stroke="black" points="958,-380.5 958,-399.5 1036,-399.5 1036,-380.5 958,-380.5"/>
<text text-anchor="middle" x="997" y="-387.5" font-family="Helvetica,sans-Serif" font-size="10.00">data_generate</text>
</a>
</g>
</g>
<!-- Node19&#45;&gt;Node20 -->
<g id="edge21" class="edge"><title>Node19&#45;&gt;Node20</title>
<path fill="none" stroke="midnightblue" d="M919.64,-390C932.866,-390 946.067,-390 957.682,-390"/>
<polygon fill="midnightblue" stroke="midnightblue" points="919.547,-386.5 909.547,-390 919.547,-393.5 919.547,-386.5"/>
</g>
<!-- Node21 -->
<g id="node21" class="node"><title>Node21</title>
<g id="a_node21"><a xlink:href="bayes_8c.html#a40c5c0b0d4eb7b59a91108269f69dc89" target="_top" xlink:title="MAIN">
<polygon fill="none" stroke="black" points="1096,-380.5 1096,-399.5 1138,-399.5 1138,-380.5 1096,-380.5"/>
<text text-anchor="middle" x="1117" y="-387.5" font-family="Helvetica,sans-Serif" font-size="10.00">MAIN</text>
</a>
</g>
</g>
<!-- Node20&#45;&gt;Node21 -->
<g id="edge22" class="edge"><title>Node20&#45;&gt;Node21</title>
<path fill="none" stroke="midnightblue" d="M1046.77,-390C1063.91,-390 1082.23,-390 1095.72,-390"/>
<polygon fill="midnightblue" stroke="midnightblue" points="1046.31,-386.5 1036.31,-390 1046.31,-393.5 1046.31,-386.5"/>
</g>
<!-- Node25 -->
<g id="node25" class="node"><title>Node25</title>
<g id="a_node25"><a xlink:href="labyrinth_8c.html#a40c5c0b0d4eb7b59a91108269f69dc89" target="_top" xlink:title="MAIN">
<polygon fill="none" stroke="black" points="820,-456.5 820,-475.5 862,-475.5 862,-456.5 820,-456.5"/>
<text text-anchor="middle" x="841" y="-463.5" font-family="Helvetica,sans-Serif" font-size="10.00">MAIN</text>
</a>
</g>
</g>
<!-- Node24&#45;&gt;Node25 -->
<g id="edge26" class="edge"><title>Node24&#45;&gt;Node25</title>
<path fill="none" stroke="midnightblue" d="M719.626,-466C751.741,-466 794.767,-466 819.727,-466"/>
<polygon fill="midnightblue" stroke="midnightblue" points="719.62,-462.5 709.62,-466 719.62,-469.5 719.62,-462.5"/>
</g>
<!-- Node27 -->
<g id="node27" class="node"><title>Node27</title>
<g id="a_node27"><a xlink:href="mesh_8h.html#aad7f19da2c7732d977e683849a724e5f" target="_top" xlink:title="mesh_insert">
<polygon fill="none" stroke="black" points="806,-418.5 806,-437.5 876,-437.5 876,-418.5 806,-418.5"/>
<text text-anchor="middle" x="841" y="-425.5" font-family="Helvetica,sans-Serif" font-size="10.00">mesh_insert</text>
</a>
</g>
</g>
<!-- Node26&#45;&gt;Node27 -->
<g id="edge29" class="edge"><title>Node26&#45;&gt;Node27</title>
<path fill="none" stroke="midnightblue" d="M742.956,-428C764.539,-428 787.706,-428 805.99,-428"/>
<polygon fill="midnightblue" stroke="midnightblue" points="742.846,-424.5 732.846,-428 742.846,-431.5 742.846,-424.5"/>
</g>
<!-- Node28 -->
<g id="node28" class="node"><title>Node28</title>
<g id="a_node28"><a xlink:href="mesh_8c.html#a0351e3ec738e05a319ead0e2e44353d0" target="_top" xlink:title="createElement">
<polygon fill="none" stroke="black" points="957,-418.5 957,-437.5 1037,-437.5 1037,-418.5 957,-418.5"/>
<text text-anchor="middle" x="997" y="-425.5" font-family="Helvetica,sans-Serif" font-size="10.00">createElement</text>
</a>
</g>
</g>
<!-- Node27&#45;&gt;Node28 -->
<g id="edge30" class="edge"><title>Node27&#45;&gt;Node28</title>
<path fill="none" stroke="midnightblue" d="M886.366,-428C908.597,-428 935.28,-428 956.756,-428"/>
<polygon fill="midnightblue" stroke="midnightblue" points="886.178,-424.5 876.178,-428 886.178,-431.5 886.178,-424.5"/>
</g>
<!-- Node29 -->
<g id="node29" class="node"><title>Node29</title>
<g id="a_node29"><a xlink:href="mesh_8h.html#a0ee17a9bc1b62a498c98f8e0dc41d902" target="_top" xlink:title="mesh_read">
<polygon fill="none" stroke="black" points="1084.5,-418.5 1084.5,-437.5 1149.5,-437.5 1149.5,-418.5 1084.5,-418.5"/>
<text text-anchor="middle" x="1117" y="-425.5" font-family="Helvetica,sans-Serif" font-size="10.00">mesh_read</text>
</a>
</g>
</g>
<!-- Node28&#45;&gt;Node29 -->
<g id="edge31" class="edge"><title>Node28&#45;&gt;Node29</title>
<path fill="none" stroke="midnightblue" d="M1047.56,-428C1060,-428 1073.02,-428 1084.32,-428"/>
<polygon fill="midnightblue" stroke="midnightblue" points="1047.29,-424.5 1037.29,-428 1047.29,-431.5 1047.29,-424.5"/>
</g>
<!-- Node30 -->
<g id="node30" class="node"><title>Node30</title>
<g id="a_node30"><a xlink:href="yada_8c.html#a40c5c0b0d4eb7b59a91108269f69dc89" target="_top" xlink:title="MAIN">
<polygon fill="none" stroke="black" points="1186,-418.5 1186,-437.5 1228,-437.5 1228,-418.5 1186,-418.5"/>
<text text-anchor="middle" x="1207" y="-425.5" font-family="Helvetica,sans-Serif" font-size="10.00">MAIN</text>
</a>
</g>
</g>
<!-- Node29&#45;&gt;Node30 -->
<g id="edge32" class="edge"><title>Node29&#45;&gt;Node30</title>
<path fill="none" stroke="midnightblue" d="M1159.84,-428C1168.87,-428 1178.03,-428 1185.78,-428"/>
<polygon fill="midnightblue" stroke="midnightblue" points="1159.77,-424.5 1149.77,-428 1159.77,-431.5 1159.77,-424.5"/>
</g>
<!-- Node32&#45;&gt;Node12 -->
<g id="edge39" class="edge"><title>Node32&#45;&gt;Node12</title>
<path fill="none" stroke="midnightblue" d="M585.103,-124C599.071,-124 614.634,-124 628.879,-124"/>
<polygon fill="midnightblue" stroke="midnightblue" points="584.78,-120.5 574.78,-124 584.78,-127.5 584.78,-120.5"/>
</g>
<!-- Node33 -->
<g id="node33" class="node"><title>Node33</title>
<g id="a_node33"><a xlink:href="net_8c.html#a2110916d842d0952f1542e4e96ba98bb" target="_top" xlink:title="removeEdge">
<polygon fill="none" stroke="black" points="641.5,-76.5 641.5,-95.5 712.5,-95.5 712.5,-76.5 641.5,-76.5"/>
<text text-anchor="middle" x="677" y="-83.5" font-family="Helvetica,sans-Serif" font-size="10.00">removeEdge</text>
</a>
</g>
</g>
<!-- Node32&#45;&gt;Node33 -->
<g id="edge35" class="edge"><title>Node32&#45;&gt;Node33</title>
<path fill="none" stroke="midnightblue" d="M584.493,-111.95C603.11,-106.67 624.653,-100.561 642.159,-95.5967"/>
<polygon fill="midnightblue" stroke="midnightblue" points="583.446,-108.609 574.78,-114.704 585.356,-115.343 583.446,-108.609"/>
</g>
<!-- Node34 -->
<g id="node34" class="node"><title>Node34</title>
<g id="a_node34"><a xlink:href="table_8h.html#a107c408953d09606276157cef79af7d4" target="_top" xlink:title="table_remove">
<polygon fill="none" stroke="black" points="639.5,-38.5 639.5,-57.5 714.5,-57.5 714.5,-38.5 639.5,-38.5"/>
<text text-anchor="middle" x="677" y="-45.5" font-family="Helvetica,sans-Serif" font-size="10.00">table_remove</text>
</a>
</g>
</g>
<!-- Node32&#45;&gt;Node34 -->
<g id="edge38" class="edge"><title>Node32&#45;&gt;Node34</title>
<path fill="none" stroke="midnightblue" d="M575.022,-109.544C577.447,-108.114 579.801,-106.596 582,-105 600.827,-91.3327 598.345,-79.4462 618,-67 624.535,-62.8618 632.059,-59.5387 639.477,-56.9024"/>
<polygon fill="midnightblue" stroke="midnightblue" points="573.251,-106.523 566.084,-114.326 576.553,-112.695 573.251,-106.523"/>
</g>
<!-- Node33&#45;&gt;Node17 -->
<g id="edge36" class="edge"><title>Node33&#45;&gt;Node17</title>
<path fill="none" stroke="midnightblue" d="M722.045,-95.6592C727.155,-98.1028 731.971,-101.164 736,-105 768.402,-135.846 743.65,-164.393 772,-199 784.127,-213.803 802.749,-225.077 817.441,-232.36"/>
<polygon fill="midnightblue" stroke="midnightblue" points="723.219,-92.3593 712.634,-91.8944 720.618,-98.8585 723.219,-92.3593"/>
</g>
<!-- Node33&#45;&gt;Node18 -->
<g id="edge37" class="edge"><title>Node33&#45;&gt;Node18</title>
<path fill="none" stroke="midnightblue" d="M722.744,-88.944C771.863,-93.9242 851.508,-107.28 910,-143 948.278,-166.375 978.571,-212.4 990.501,-232.373"/>
<polygon fill="midnightblue" stroke="midnightblue" points="723.029,-85.4554 712.745,-88.0034 722.373,-92.4247 723.029,-85.4554"/>
</g>
<!-- Node37 -->
<g id="node37" class="node"><title>Node37</title>
<g id="a_node37"><a xlink:href="list_8h.html#a0df36bca5d3d52f49147ca6fca13a375" target="_top" xlink:title="TMlist_find">
<polygon fill="none" stroke="black" points="508.5,-0.5 508.5,-19.5 573.5,-19.5 573.5,-0.5 508.5,-0.5"/>
<text text-anchor="middle" x="541" y="-7.5" font-family="Helvetica,sans-Serif" font-size="10.00">TMlist_find</text>
</a>
</g>
</g>
<!-- Node36&#45;&gt;Node37 -->
<g id="edge42" class="edge"><title>Node36&#45;&gt;Node37</title>
<path fill="none" stroke="midnightblue" d="M456.42,-71.7924C459.057,-70.2967 461.616,-68.6969 464,-67 482.953,-53.5086 481.173,-42.6673 500,-29 504.853,-25.4771 510.462,-22.3371 515.916,-19.6738"/>
<polygon fill="midnightblue" stroke="midnightblue" points="454.604,-68.79 447.303,-76.4672 457.798,-75.0189 454.604,-68.79"/>
</g>
<!-- Node38 -->
<g id="node38" class="node"><title>Node38</title>
<g id="a_node38"><a xlink:href="list_8h.html#a7679cbef6358f1266bd7aff211c8cf19" target="_top" xlink:title="TMlist_insert">
<polygon fill="none" stroke="black" points="504.5,-76.5 504.5,-95.5 577.5,-95.5 577.5,-76.5 504.5,-76.5"/>
<text text-anchor="middle" x="541" y="-83.5" font-family="Helvetica,sans-Serif" font-size="10.00">TMlist_insert</text>
</a>
</g>
</g>
<!-- Node36&#45;&gt;Node38 -->
<g id="edge43" class="edge"><title>Node36&#45;&gt;Node38</title>
<path fill="none" stroke="midnightblue" d="M473.75,-86C484.044,-86 494.638,-86 504.251,-86"/>
<polygon fill="midnightblue" stroke="midnightblue" points="473.602,-82.5001 463.602,-86 473.602,-89.5001 473.602,-82.5001"/>
</g>
<!-- Node39 -->
<g id="node39" class="node"><title>Node39</title>
<g id="a_node39"><a xlink:href="list_8h.html#ad902641bf9d9dc19901fb99fdc0ac0a6" target="_top" xlink:title="TMlist_remove">
<polygon fill="none" stroke="black" points="500.5,-38.5 500.5,-57.5 581.5,-57.5 581.5,-38.5 500.5,-38.5"/>
<text text-anchor="middle" x="541" y="-45.5" font-family="Helvetica,sans-Serif" font-size="10.00">TMlist_remove</text>
</a>
</g>
</g>
<!-- Node36&#45;&gt;Node39 -->
<g id="edge44" class="edge"><title>Node36&#45;&gt;Node39</title>
<path fill="none" stroke="midnightblue" d="M461.376,-73.3196C477.32,-68.1852 495.421,-62.3559 510.233,-57.5859"/>
<polygon fill="midnightblue" stroke="midnightblue" points="460.222,-70.0141 451.776,-76.411 462.368,-76.6771 460.222,-70.0141"/>
</g>
</g>
</svg>
        <g id="navigator" transform="translate(0 0)" fill="#404254">
                <rect fill="#f2f5e9" fill-opacity="0.5" stroke="#606060" stroke-width=".5" x="0" y="0" width="60" height="60"/>
                <use id="zoomplus" xlink:href="#zoomPlus" x="17" y="9" onmousedown="handleZoom(evt,'in')"/>
                <use id="zoomminus" xlink:href="#zoomMin" x="42" y="9" onmousedown="handleZoom(evt,'out')"/>
                <use id="reset" xlink:href="#resetDef" x="30" y="36" onmousedown="handleReset()"/>
                <g id="arrowUp" xlink:href="#dirArrow" transform="translate(30 24)" onmousedown="handlePan(0,-1)">
                  <use xlink:href="#rim" fill="#404040">
                        <set attributeName="fill" to="#808080" begin="arrowUp.mouseover" end="arrowUp.mouseout"/>
                  </use>
                  <path fill="none" stroke="white" stroke-width="1.5" d="M0,-3.0v7 M-2.5,-0.5L0,-3.0L2.5,-0.5"/>
                </g>
                <g id="arrowRight" xlink:href="#dirArrow" transform="rotate(90) translate(36 -43)" onmousedown="handlePan(1,0)">
                  <use xlink:href="#rim" fill="#404040">
                        <set attributeName="fill" to="#808080" begin="arrowRight.mouseover" end="arrowRight.mouseout"/>
                  </use>
                  <path fill="none" stroke="white" stroke-width="1.5" d="M0,-3.0v7 M-2.5,-0.5L0,-3.0L2.5,-0.5"/>
                </g>
                <g id="arrowDown" xlink:href="#dirArrow" transform="rotate(180) translate(-30 -48)" onmousedown="handlePan(0,1)">
                  <use xlink:href="#rim" fill="#404040">
                        <set attributeName="fill" to="#808080" begin="arrowDown.mouseover" end="arrowDown.mouseout"/>
                  </use>
                  <path fill="none" stroke="white" stroke-width="1.5" d="M0,-3.0v7 M-2.5,-0.5L0,-3.0L2.5,-0.5"/>
                </g>
                <g id="arrowLeft" xlink:href="#dirArrow" transform="rotate(270) translate(-36 17)" onmousedown="handlePan(-1,0)">
                  <use xlink:href="#rim" fill="#404040">
                        <set attributeName="fill" to="#808080" begin="arrowLeft.mouseover" end="arrowLeft.mouseout"/>
                  </use>
                  <path fill="none" stroke="white" stroke-width="1.5" d="M0,-3.0v7 M-2.5,-0.5L0,-3.0L2.5,-0.5"/>
                </g>
        </g>
        <svg viewBox="0 0 15 15" width="100%" height="30px" preserveAspectRatio="xMaxYMin meet">
         <g id="arrow_out" transform="scale(0.3 0.3)">
          <a xlink:href="stm_8h_a2c77806bb0511fb17494d226b5ea20d8_icgraph_org.svg" target="_base">
           <rect id="button" ry="5" rx="5" y="6" x="6" height="38" width="38"
                fill="#f2f5e9" fill-opacity="0.5" stroke="#606060" stroke-width="1.0"/>
           <path id="arrow"
             d="M 11.500037,31.436501 C 11.940474,20.09759 22.043105,11.32322 32.158766,21.979434 L 37.068811,17.246167 C 37.068811,17.246167 37.088388,32 37.088388,32 L 22.160133,31.978069 C 22.160133,31.978069 26.997745,27.140456 26.997745,27.140456 C 18.528582,18.264221 13.291696,25.230495 11.500037,31.436501 z"
             style="fill:#404040;"/>
          </a>
         </g>
        </svg>
</svg>
