<?xml version="1.0" encoding="UTF-8" standalone="no"?>
<!DOCTYPE svg PUBLIC "-//W3C//DTD SVG 1.1//EN"
 "http://www.w3.org/Graphics/SVG/1.1/DTD/svg11.dtd">
<!-- Generated by graphviz version 2.36.0 (20140111.2315)
 -->
<!-- Title: get_level Pages: 1 -->
<svg width="1138pt" height="484pt"
 viewBox="0.00 0.00 1138.00 484.00" xmlns="http://www.w3.org/2000/svg" xmlns:xlink="http://www.w3.org/1999/xlink">
<g id="graph0" class="graph" transform="scale(1 1) rotate(0) translate(4 480)">
<title>get_level</title>
<!-- Node1 -->
<g id="node1" class="node"><title>Node1</title>
<polygon fill="#bfbfbf" stroke="black" points="0,-76.5 0,-95.5 56,-95.5 56,-76.5 0,-76.5"/>
<text text-anchor="middle" x="28" y="-83.5" font-family="Helvetica,sans-Serif" font-size="10.00">get_level</text>
</g>
<!-- Node2 -->
<g id="node2" class="node"><title>Node2</title>
<g id="a_node2"><a xlink:href="stmskip_8cc.html#ad17c6ea2fd390c2dd637a34fdeb0b3df" target="_top" xlink:title="stmskip_update">
<polygon fill="none" stroke="black" points="92,-76.5 92,-95.5 178,-95.5 178,-76.5 92,-76.5"/>
<text text-anchor="middle" x="135" y="-83.5" font-family="Helvetica,sans-Serif" font-size="10.00">stmskip_update</text>
</a>
</g>
</g>
<!-- Node1&#45;&gt;Node2 -->
<g id="edge1" class="edge"><title>Node1&#45;&gt;Node2</title>
<path fill="none" stroke="midnightblue" d="M66.2244,-86C74.5583,-86 83.4547,-86 91.9683,-86"/>
<polygon fill="midnightblue" stroke="midnightblue" points="66.0401,-82.5001 56.0401,-86 66.0401,-89.5001 66.0401,-82.5001"/>
</g>
<!-- Node3 -->
<g id="node3" class="node"><title>Node3</title>
<g id="a_node3"><a xlink:href="stmskip_8cc.html#a9ab04b9e875013b4d2dd249d0c97dce5" target="_top" xlink:title="for">
<polygon fill="none" stroke="black" points="214.5,-76.5 214.5,-95.5 243.5,-95.5 243.5,-76.5 214.5,-76.5"/>
<text text-anchor="middle" x="229" y="-83.5" font-family="Helvetica,sans-Serif" font-size="10.00">for</text>
</a>
</g>
</g>
<!-- Node2&#45;&gt;Node3 -->
<g id="edge2" class="edge"><title>Node2&#45;&gt;Node3</title>
<path fill="none" stroke="midnightblue" d="M188.323,-86C197.946,-86 207.193,-86 214.335,-86"/>
<polygon fill="midnightblue" stroke="midnightblue" points="188.23,-82.5001 178.23,-86 188.23,-89.5001 188.23,-82.5001"/>
</g>
<!-- Node4 -->
<g id="node4" class="node"><title>Node4</title>
<g id="a_node4"><a xlink:href="heap_8h.html#a9c77dbc94ac2daa5b202375477e26188" target="_top" xlink:title="heap_isValid">
<polygon fill="none" stroke="black" points="287,-190.5 287,-209.5 359,-209.5 359,-190.5 287,-190.5"/>
<text text-anchor="middle" x="323" y="-197.5" font-family="Helvetica,sans-Serif" font-size="10.00">heap_isValid</text>
</a>
</g>
</g>
<!-- Node3&#45;&gt;Node4 -->
<g id="edge3" class="edge"><title>Node3&#45;&gt;Node4</title>
<path fill="none" stroke="midnightblue" d="M235.95,-105.407C243.28,-126.461 257.588,-159.887 280,-181 283.961,-184.732 288.781,-187.821 293.725,-190.347"/>
<polygon fill="midnightblue" stroke="midnightblue" points="239.193,-104.063 232.747,-95.6548 232.542,-106.248 239.193,-104.063"/>
</g>
<!-- Node5 -->
<g id="node5" class="node"><title>Node5</title>
<g id="a_node5"><a xlink:href="list_8c.html#a3ed9de59a6e4cd353dee80f797da7a19" target="_top" xlink:title="findPrevious">
<polygon fill="none" stroke="black" points="287.5,-152.5 287.5,-171.5 358.5,-171.5 358.5,-152.5 287.5,-152.5"/>
<text text-anchor="middle" x="323" y="-159.5" font-family="Helvetica,sans-Serif" font-size="10.00">findPrevious</text>
</a>
</g>
</g>
<!-- Node3&#45;&gt;Node5 -->
<g id="edge4" class="edge"><title>Node3&#45;&gt;Node5</title>
<path fill="none" stroke="midnightblue" d="M249.463,-102.078C267.956,-117.355 295.145,-139.816 310.443,-152.453"/>
<polygon fill="midnightblue" stroke="midnightblue" points="251.591,-99.2959 241.652,-95.6255 247.132,-104.693 251.591,-99.2959"/>
</g>
<!-- Node34 -->
<g id="node34" class="node"><title>Node34</title>
<g id="a_node34"><a xlink:href="list_8c.html#abae8c22f79c73d231c8ddd9b795e47d9" target="_top" xlink:title="TMfindPrevious">
<polygon fill="none" stroke="black" points="280.5,-76.5 280.5,-95.5 365.5,-95.5 365.5,-76.5 280.5,-76.5"/>
<text text-anchor="middle" x="323" y="-83.5" font-family="Helvetica,sans-Serif" font-size="10.00">TMfindPrevious</text>
</a>
</g>
</g>
<!-- Node3&#45;&gt;Node34 -->
<g id="edge39" class="edge"><title>Node3&#45;&gt;Node34</title>
<path fill="none" stroke="midnightblue" d="M253.792,-86C261.941,-86 271.313,-86 280.449,-86"/>
<polygon fill="midnightblue" stroke="midnightblue" points="253.575,-82.5001 243.575,-86 253.575,-89.5001 253.575,-82.5001"/>
</g>
<!-- Node38 -->
<g id="node38" class="node"><title>Node38</title>
<g id="a_node38"><a xlink:href="rbtree_8c.html#a14bd83586612336b5eb09f902e95b02f" target="_top" xlink:title="insert">
<polygon fill="none" stroke="black" points="302.5,-38.5 302.5,-57.5 343.5,-57.5 343.5,-38.5 302.5,-38.5"/>
<text text-anchor="middle" x="323" y="-45.5" font-family="Helvetica,sans-Serif" font-size="10.00">insert</text>
</a>
</g>
</g>
<!-- Node3&#45;&gt;Node38 -->
<g id="edge43" class="edge"><title>Node3&#45;&gt;Node38</title>
<path fill="none" stroke="midnightblue" d="M253.227,-76.4063C268.352,-70.1592 287.869,-62.0976 302.246,-56.1592"/>
<polygon fill="midnightblue" stroke="midnightblue" points="251.481,-73.3404 243.575,-80.393 254.154,-79.8102 251.481,-73.3404"/>
</g>
<!-- Node39 -->
<g id="node39" class="node"><title>Node39</title>
<g id="a_node39"><a xlink:href="rbtree_8c.html#a47dc2cb2c9de9c39f968f120e1fe9ed4" target="_top" xlink:title="TMinsert">
<polygon fill="none" stroke="black" points="295.5,-0.5 295.5,-19.5 350.5,-19.5 350.5,-0.5 295.5,-0.5"/>
<text text-anchor="middle" x="323" y="-7.5" font-family="Helvetica,sans-Serif" font-size="10.00">TMinsert</text>
</a>
</g>
</g>
<!-- Node3&#45;&gt;Node39 -->
<g id="edge44" class="edge"><title>Node3&#45;&gt;Node39</title>
<path fill="none" stroke="midnightblue" d="M242.371,-68.2591C251.625,-55.9948 265.192,-39.9741 280,-29 284.887,-25.3785 290.574,-22.2327 296.155,-19.5993"/>
<polygon fill="midnightblue" stroke="midnightblue" points="239.5,-66.2564 236.439,-76.3996 245.157,-70.3789 239.5,-66.2564"/>
</g>
<!-- Node6 -->
<g id="node6" class="node"><title>Node6</title>
<g id="a_node6"><a xlink:href="list_8h.html#a1379a3cf001369bd5979fe53160640f5" target="_top" xlink:title="list_find">
<polygon fill="none" stroke="black" points="418,-152.5 418,-171.5 468,-171.5 468,-152.5 418,-152.5"/>
<text text-anchor="middle" x="443" y="-159.5" font-family="Helvetica,sans-Serif" font-size="10.00">list_find</text>
</a>
</g>
</g>
<!-- Node5&#45;&gt;Node6 -->
<g id="edge5" class="edge"><title>Node5&#45;&gt;Node6</title>
<path fill="none" stroke="midnightblue" d="M368.89,-162C385.565,-162 403.837,-162 417.943,-162"/>
<polygon fill="midnightblue" stroke="midnightblue" points="368.766,-158.5 358.766,-162 368.766,-165.5 368.766,-158.5"/>
</g>
<!-- Node13 -->
<g id="node13" class="node"><title>Node13</title>
<g id="a_node13"><a xlink:href="list_8h.html#a06249cb6bbda6b10f5777b96a6c122f9" target="_top" xlink:title="list_insert">
<polygon fill="none" stroke="black" points="413.5,-342.5 413.5,-361.5 472.5,-361.5 472.5,-342.5 413.5,-342.5"/>
<text text-anchor="middle" x="443" y="-349.5" font-family="Helvetica,sans-Serif" font-size="10.00">list_insert</text>
</a>
</g>
</g>
<!-- Node5&#45;&gt;Node13 -->
<g id="edge13" class="edge"><title>Node5&#45;&gt;Node13</title>
<path fill="none" stroke="midnightblue" d="M361.481,-177.062C363.085,-178.284 364.604,-179.595 366,-181 372.239,-187.281 422.964,-306.867 437.886,-342.23"/>
<polygon fill="midnightblue" stroke="midnightblue" points="363.241,-174.034 352.913,-171.67 359.513,-179.958 363.241,-174.034"/>
</g>
<!-- Node29 -->
<g id="node29" class="node"><title>Node29</title>
<g id="a_node29"><a xlink:href="list_8h.html#a857fdaea81fb44b5918c9d446707f23e" target="_top" xlink:title="Plist_insert">
<polygon fill="none" stroke="black" points="410.5,-228.5 410.5,-247.5 475.5,-247.5 475.5,-228.5 410.5,-228.5"/>
<text text-anchor="middle" x="443" y="-235.5" font-family="Helvetica,sans-Serif" font-size="10.00">Plist_insert</text>
</a>
</g>
</g>
<!-- Node5&#45;&gt;Node29 -->
<g id="edge31" class="edge"><title>Node5&#45;&gt;Node29</title>
<path fill="none" stroke="midnightblue" d="M358.42,-176.208C361.057,-177.703 363.616,-179.303 366,-181 384.953,-194.491 383.173,-205.333 402,-219 406.853,-222.523 412.462,-225.663 417.916,-228.326"/>
<polygon fill="midnightblue" stroke="midnightblue" points="359.798,-172.981 349.303,-171.533 356.604,-179.21 359.798,-172.981"/>
</g>
<!-- Node30 -->
<g id="node30" class="node"><title>Node30</title>
<g id="a_node30"><a xlink:href="list_8h.html#af5a09f2dc4e901d1c8052e282d4d87d3" target="_top" xlink:title="list_remove">
<polygon fill="none" stroke="black" points="409.5,-114.5 409.5,-133.5 476.5,-133.5 476.5,-114.5 409.5,-114.5"/>
<text text-anchor="middle" x="443" y="-121.5" font-family="Helvetica,sans-Serif" font-size="10.00">list_remove</text>
</a>
</g>
</g>
<!-- Node5&#45;&gt;Node30 -->
<g id="edge32" class="edge"><title>Node5&#45;&gt;Node30</title>
<path fill="none" stroke="midnightblue" d="M363.376,-149.32C379.32,-144.185 397.421,-138.356 412.233,-133.586"/>
<polygon fill="midnightblue" stroke="midnightblue" points="362.222,-146.014 353.776,-152.411 364.368,-152.677 362.222,-146.014"/>
</g>
<!-- Node33 -->
<g id="node33" class="node"><title>Node33</title>
<g id="a_node33"><a xlink:href="list_8h.html#a1fa145871fd1d110f892094bbc153cbf" target="_top" xlink:title="Plist_remove">
<polygon fill="none" stroke="black" points="406,-190.5 406,-209.5 480,-209.5 480,-190.5 406,-190.5"/>
<text text-anchor="middle" x="443" y="-197.5" font-family="Helvetica,sans-Serif" font-size="10.00">Plist_remove</text>
</a>
</g>
</g>
<!-- Node5&#45;&gt;Node33 -->
<g id="edge38" class="edge"><title>Node5&#45;&gt;Node33</title>
<path fill="none" stroke="midnightblue" d="M363.376,-174.68C379.32,-179.815 397.421,-185.644 412.233,-190.414"/>
<polygon fill="midnightblue" stroke="midnightblue" points="364.368,-171.323 353.776,-171.589 362.222,-177.986 364.368,-171.323"/>
</g>
<!-- Node7 -->
<g id="node7" class="node"><title>Node7</title>
<g id="a_node7"><a xlink:href="hashtable_8h.html#ac641ace1e3d79ee78d271d999df92db9" target="_top" xlink:title="hashtable_containsKey">
<polygon fill="none" stroke="black" points="520,-228.5 520,-247.5 638,-247.5 638,-228.5 520,-228.5"/>
<text text-anchor="middle" x="579" y="-235.5" font-family="Helvetica,sans-Serif" font-size="10.00">hashtable_containsKey</text>
</a>
</g>
</g>
<!-- Node6&#45;&gt;Node7 -->
<g id="edge6" class="edge"><title>Node6&#45;&gt;Node7</title>
<path fill="none" stroke="midnightblue" d="M477.022,-176.456C479.447,-177.886 481.801,-179.404 484,-181 502.827,-194.667 500.345,-206.554 520,-219 525.998,-222.798 532.829,-225.909 539.647,-228.434"/>
<polygon fill="midnightblue" stroke="midnightblue" points="478.553,-173.305 468.084,-171.674 475.251,-179.477 478.553,-173.305"/>
</g>
<!-- Node8 -->
<g id="node8" class="node"><title>Node8</title>
<g id="a_node8"><a xlink:href="hashtable_8h.html#a686d66befe855b80c215e27cb2e9343e" target="_top" xlink:title="hashtable_find">
<polygon fill="none" stroke="black" points="539,-190.5 539,-209.5 619,-209.5 619,-190.5 539,-190.5"/>
<text text-anchor="middle" x="579" y="-197.5" font-family="Helvetica,sans-Serif" font-size="10.00">hashtable_find</text>
</a>
</g>
</g>
<!-- Node6&#45;&gt;Node8 -->
<g id="edge7" class="edge"><title>Node6&#45;&gt;Node8</title>
<path fill="none" stroke="midnightblue" d="M478.054,-171.657C498.377,-177.42 524.085,-184.711 544.339,-190.454"/>
<polygon fill="midnightblue" stroke="midnightblue" points="478.842,-168.243 468.266,-168.882 476.932,-174.977 478.842,-168.243"/>
</g>
<!-- Node9 -->
<g id="node9" class="node"><title>Node9</title>
<g id="a_node9"><a xlink:href="hashtable_8h.html#a76f7704c9b87a69d6a94a01f06a65185" target="_top" xlink:title="hashtable_insert">
<polygon fill="none" stroke="black" points="535,-266.5 535,-285.5 623,-285.5 623,-266.5 535,-266.5"/>
<text text-anchor="middle" x="579" y="-273.5" font-family="Helvetica,sans-Serif" font-size="10.00">hashtable_insert</text>
</a>
</g>
</g>
<!-- Node6&#45;&gt;Node9 -->
<g id="edge8" class="edge"><title>Node6&#45;&gt;Node9</title>
<path fill="none" stroke="midnightblue" d="M477.04,-175.314C479.548,-177.018 481.912,-178.909 484,-181 510.414,-207.443 491.962,-232.285 520,-257 524.372,-260.854 529.542,-263.928 534.966,-266.381"/>
<polygon fill="midnightblue" stroke="midnightblue" points="478.56,-172.15 468.142,-170.219 475.082,-178.225 478.56,-172.15"/>
</g>
<!-- Node10 -->
<g id="node10" class="node"><title>Node10</title>
<g id="a_node10"><a xlink:href="hashtable_8h.html#a1097b4c3a3d33b866a55e103f49dee7b" target="_top" xlink:title="hashtable_remove">
<polygon fill="none" stroke="black" points="531,-114.5 531,-133.5 627,-133.5 627,-114.5 531,-114.5"/>
<text text-anchor="middle" x="579" y="-121.5" font-family="Helvetica,sans-Serif" font-size="10.00">hashtable_remove</text>
</a>
</g>
</g>
<!-- Node6&#45;&gt;Node10 -->
<g id="edge9" class="edge"><title>Node6&#45;&gt;Node10</title>
<path fill="none" stroke="midnightblue" d="M478.054,-152.343C498.377,-146.58 524.085,-139.289 544.339,-133.546"/>
<polygon fill="midnightblue" stroke="midnightblue" points="476.932,-149.023 468.266,-155.118 478.842,-155.757 476.932,-149.023"/>
</g>
<!-- Node11 -->
<g id="node11" class="node"><title>Node11</title>
<g id="a_node11"><a xlink:href="region_8c.html#afd9637f04d120aec5464b6304cfa0c99" target="_top" xlink:title="TMgrowRegion">
<polygon fill="none" stroke="black" points="537.5,-152.5 537.5,-171.5 620.5,-171.5 620.5,-152.5 537.5,-152.5"/>
<text text-anchor="middle" x="579" y="-159.5" font-family="Helvetica,sans-Serif" font-size="10.00">TMgrowRegion</text>
</a>
</g>
</g>
<!-- Node6&#45;&gt;Node11 -->
<g id="edge10" class="edge"><title>Node6&#45;&gt;Node11</title>
<path fill="none" stroke="midnightblue" d="M478.327,-162C496.327,-162 518.494,-162 537.349,-162"/>
<polygon fill="midnightblue" stroke="midnightblue" points="478.266,-158.5 468.266,-162 478.266,-165.5 478.266,-158.5"/>
</g>
<!-- Node12 -->
<g id="node12" class="node"><title>Node12</title>
<g id="a_node12"><a xlink:href="region_8h.html#a74d9ac41436518894e8e1bd6564ebf42" target="_top" xlink:title="TMregion_refine">
<polygon fill="none" stroke="black" points="700,-152.5 700,-171.5 786,-171.5 786,-152.5 700,-152.5"/>
<text text-anchor="middle" x="743" y="-159.5" font-family="Helvetica,sans-Serif" font-size="10.00">TMregion_refine</text>
</a>
</g>
</g>
<!-- Node11&#45;&gt;Node12 -->
<g id="edge11" class="edge"><title>Node11&#45;&gt;Node12</title>
<path fill="none" stroke="midnightblue" d="M631.083,-162C653.174,-162 678.718,-162 699.721,-162"/>
<polygon fill="midnightblue" stroke="midnightblue" points="630.879,-158.5 620.879,-162 630.879,-165.5 630.879,-158.5"/>
</g>
<!-- Node12&#45;&gt;Node12 -->
<g id="edge12" class="edge"><title>Node12&#45;&gt;Node12</title>
<path fill="none" stroke="midnightblue" d="M713.881,-180.654C715.098,-185.937 724.804,-190 743,-190 770.727,-190 778.741,-180.565 767.044,-171.757"/>
<polygon fill="midnightblue" stroke="midnightblue" points="717.041,-182.177 718.956,-171.757 710.961,-178.709 717.041,-182.177"/>
</g>
<!-- Node13&#45;&gt;Node9 -->
<g id="edge25" class="edge"><title>Node13&#45;&gt;Node9</title>
<path fill="none" stroke="midnightblue" d="M462.373,-335.491C477.088,-322.969 498.722,-306.079 520,-295 527.049,-291.33 534.946,-288.18 542.589,-285.559"/>
<polygon fill="midnightblue" stroke="midnightblue" points="459.813,-333.078 454.563,-342.281 464.406,-338.361 459.813,-333.078"/>
</g>
<!-- Node14 -->
<g id="node14" class="node"><title>Node14</title>
<g id="a_node14"><a xlink:href="net_8c.html#ad4f5f991dfc5667c5d75c5b353dbe974" target="_top" xlink:title="insertEdge">
<polygon fill="none" stroke="black" points="547.5,-380.5 547.5,-399.5 610.5,-399.5 610.5,-380.5 547.5,-380.5"/>
<text text-anchor="middle" x="579" y="-387.5" font-family="Helvetica,sans-Serif" font-size="10.00">insertEdge</text>
</a>
</g>
</g>
<!-- Node13&#45;&gt;Node14 -->
<g id="edge14" class="edge"><title>Node13&#45;&gt;Node14</title>
<path fill="none" stroke="midnightblue" d="M482.471,-362.91C503.097,-368.759 528.159,-375.866 547.437,-381.333"/>
<polygon fill="midnightblue" stroke="midnightblue" points="483.322,-359.513 472.746,-360.152 481.412,-366.247 483.322,-359.513"/>
</g>
<!-- Node20 -->
<g id="node20" class="node"><title>Node20</title>
<g id="a_node20"><a xlink:href="table_8h.html#a0cbbed1b3290a9074b455925972f670d" target="_top" xlink:title="table_insert">
<polygon fill="none" stroke="black" points="545.5,-342.5 545.5,-361.5 612.5,-361.5 612.5,-342.5 545.5,-342.5"/>
<text text-anchor="middle" x="579" y="-349.5" font-family="Helvetica,sans-Serif" font-size="10.00">table_insert</text>
</a>
</g>
</g>
<!-- Node13&#45;&gt;Node20 -->
<g id="edge21" class="edge"><title>Node13&#45;&gt;Node20</title>
<path fill="none" stroke="midnightblue" d="M482.932,-352C502.628,-352 526.274,-352 545.056,-352"/>
<polygon fill="midnightblue" stroke="midnightblue" points="482.746,-348.5 472.746,-352 482.746,-355.5 482.746,-348.5"/>
</g>
<!-- Node21 -->
<g id="node21" class="node"><title>Node21</title>
<g id="a_node21"><a xlink:href="decoder_8h.html#a92136c16eda5a24a0eb6c60b9f96244a" target="_top" xlink:title="decoder_process">
<polygon fill="none" stroke="black" points="533.5,-304.5 533.5,-323.5 624.5,-323.5 624.5,-304.5 533.5,-304.5"/>
<text text-anchor="middle" x="579" y="-311.5" font-family="Helvetica,sans-Serif" font-size="10.00">decoder_process</text>
</a>
</g>
</g>
<!-- Node13&#45;&gt;Node21 -->
<g id="edge22" class="edge"><title>Node13&#45;&gt;Node21</title>
<path fill="none" stroke="midnightblue" d="M482.51,-341.079C501.954,-335.565 525.331,-328.936 544.089,-323.617"/>
<polygon fill="midnightblue" stroke="midnightblue" points="481.412,-337.753 472.746,-343.848 483.322,-344.487 481.412,-337.753"/>
</g>
<!-- Node22 -->
<g id="node22" class="node"><title>Node22</title>
<g id="a_node22"><a xlink:href="maze_8h.html#a2135cee3a633084c9456873cb7746e0e" target="_top" xlink:title="maze_read">
<polygon fill="none" stroke="black" points="546.5,-456.5 546.5,-475.5 611.5,-475.5 611.5,-456.5 546.5,-456.5"/>
<text text-anchor="middle" x="579" y="-463.5" font-family="Helvetica,sans-Serif" font-size="10.00">maze_read</text>
</a>
</g>
</g>
<!-- Node13&#45;&gt;Node22 -->
<g id="edge23" class="edge"><title>Node13&#45;&gt;Node22</title>
<path fill="none" stroke="midnightblue" d="M454.18,-370.372C466.913,-391.731 490.65,-426.647 520,-447 527.837,-452.434 537.332,-456.396 546.35,-459.249"/>
<polygon fill="midnightblue" stroke="midnightblue" points="457.155,-368.524 449.124,-361.613 451.093,-372.024 457.155,-368.524"/>
</g>
<!-- Node24 -->
<g id="node24" class="node"><title>Node24</title>
<g id="a_node24"><a xlink:href="element_8h.html#af31cf5d6a12660d258214d8483df8c1d" target="_top" xlink:title="element_addNeighbor">
<polygon fill="none" stroke="black" points="523.5,-418.5 523.5,-437.5 634.5,-437.5 634.5,-418.5 523.5,-418.5"/>
<text text-anchor="middle" x="579" y="-425.5" font-family="Helvetica,sans-Serif" font-size="10.00">element_addNeighbor</text>
</a>
</g>
</g>
<!-- Node13&#45;&gt;Node24 -->
<g id="edge26" class="edge"><title>Node13&#45;&gt;Node24</title>
<path fill="none" stroke="midnightblue" d="M462.373,-368.509C477.088,-381.031 498.722,-397.921 520,-409 527.049,-412.67 534.946,-415.82 542.589,-418.441"/>
<polygon fill="midnightblue" stroke="midnightblue" points="464.406,-365.639 454.563,-361.719 459.813,-370.922 464.406,-365.639"/>
</g>
<!-- Node15 -->
<g id="node15" class="node"><title>Node15</title>
<g id="a_node15"><a xlink:href="net_8c.html#a456ce4308d1d5e4f0a816165f0d1b9ac" target="_top" xlink:title="reverseEdge">
<polygon fill="none" stroke="black" points="707.5,-232.5 707.5,-251.5 778.5,-251.5 778.5,-232.5 707.5,-232.5"/>
<text text-anchor="middle" x="743" y="-239.5" font-family="Helvetica,sans-Serif" font-size="10.00">reverseEdge</text>
</a>
</g>
</g>
<!-- Node14&#45;&gt;Node15 -->
<g id="edge15" class="edge"><title>Node14&#45;&gt;Node15</title>
<path fill="none" stroke="midnightblue" d="M620.411,-380.803C626.677,-378.271 632.79,-375.061 638,-371 661.633,-352.581 655.627,-337.669 674,-314 692.555,-290.096 717.738,-265.029 731.665,-251.696"/>
<polygon fill="midnightblue" stroke="midnightblue" points="618.831,-377.647 610.545,-384.25 621.14,-384.256 618.831,-377.647"/>
</g>
<!-- Node16 -->
<g id="node16" class="node"><title>Node16</title>
<g id="a_node16"><a xlink:href="net_8h.html#a7a2e0647373945c39b0efcdf78618993" target="_top" xlink:title="net_applyOperation">
<polygon fill="none" stroke="black" points="848.5,-232.5 848.5,-251.5 949.5,-251.5 949.5,-232.5 848.5,-232.5"/>
<text text-anchor="middle" x="899" y="-239.5" font-family="Helvetica,sans-Serif" font-size="10.00">net_applyOperation</text>
</a>
</g>
</g>
<!-- Node14&#45;&gt;Node16 -->
<g id="edge17" class="edge"><title>Node14&#45;&gt;Node16</title>
<path fill="none" stroke="midnightblue" d="M620.517,-377.556C626.431,-375.501 632.409,-373.289 638,-371 732.199,-332.437 839.621,-274.413 880.749,-251.65"/>
<polygon fill="midnightblue" stroke="midnightblue" points="619.066,-374.351 610.702,-380.854 621.296,-380.987 619.066,-374.351"/>
</g>
<!-- Node17 -->
<g id="node17" class="node"><title>Node17</title>
<g id="a_node17"><a xlink:href="net_8h.html#a7ac0b179e1d386a853aba9b4fffa369a" target="_top" xlink:title="net_generateRandomEdges">
<polygon fill="none" stroke="black" points="674.5,-380.5 674.5,-399.5 811.5,-399.5 811.5,-380.5 674.5,-380.5"/>
<text text-anchor="middle" x="743" y="-387.5" font-family="Helvetica,sans-Serif" font-size="10.00">net_generateRandomEdges</text>
</a>
</g>
</g>
<!-- Node14&#45;&gt;Node17 -->
<g id="edge18" class="edge"><title>Node14&#45;&gt;Node17</title>
<path fill="none" stroke="midnightblue" d="M621.04,-390C637.224,-390 656.248,-390 674.357,-390"/>
<polygon fill="midnightblue" stroke="midnightblue" points="620.852,-386.5 610.852,-390 620.852,-393.5 620.852,-386.5"/>
</g>
<!-- Node15&#45;&gt;Node16 -->
<g id="edge16" class="edge"><title>Node15&#45;&gt;Node16</title>
<path fill="none" stroke="midnightblue" d="M788.599,-242C807.311,-242 829.146,-242 848.366,-242"/>
<polygon fill="midnightblue" stroke="midnightblue" points="788.561,-238.5 778.561,-242 788.561,-245.5 788.561,-238.5"/>
</g>
<!-- Node18 -->
<g id="node18" class="node"><title>Node18</title>
<g id="a_node18"><a xlink:href="data_8h.html#a0f45b98c6cac17904d9daf25fbdc1dc9" target="_top" xlink:title="data_generate">
<polygon fill="none" stroke="black" points="860,-380.5 860,-399.5 938,-399.5 938,-380.5 860,-380.5"/>
<text text-anchor="middle" x="899" y="-387.5" font-family="Helvetica,sans-Serif" font-size="10.00">data_generate</text>
</a>
</g>
</g>
<!-- Node17&#45;&gt;Node18 -->
<g id="edge19" class="edge"><title>Node17&#45;&gt;Node18</title>
<path fill="none" stroke="midnightblue" d="M821.64,-390C834.866,-390 848.067,-390 859.682,-390"/>
<polygon fill="midnightblue" stroke="midnightblue" points="821.547,-386.5 811.547,-390 821.547,-393.5 821.547,-386.5"/>
</g>
<!-- Node19 -->
<g id="node19" class="node"><title>Node19</title>
<g id="a_node19"><a xlink:href="bayes_8c.html#a40c5c0b0d4eb7b59a91108269f69dc89" target="_top" xlink:title="MAIN">
<polygon fill="none" stroke="black" points="998,-380.5 998,-399.5 1040,-399.5 1040,-380.5 998,-380.5"/>
<text text-anchor="middle" x="1019" y="-387.5" font-family="Helvetica,sans-Serif" font-size="10.00">MAIN</text>
</a>
</g>
</g>
<!-- Node18&#45;&gt;Node19 -->
<g id="edge20" class="edge"><title>Node18&#45;&gt;Node19</title>
<path fill="none" stroke="midnightblue" d="M948.774,-390C965.91,-390 984.234,-390 997.722,-390"/>
<polygon fill="midnightblue" stroke="midnightblue" points="948.311,-386.5 938.311,-390 948.311,-393.5 948.311,-386.5"/>
</g>
<!-- Node23 -->
<g id="node23" class="node"><title>Node23</title>
<g id="a_node23"><a xlink:href="labyrinth_8c.html#a40c5c0b0d4eb7b59a91108269f69dc89" target="_top" xlink:title="MAIN">
<polygon fill="none" stroke="black" points="722,-456.5 722,-475.5 764,-475.5 764,-456.5 722,-456.5"/>
<text text-anchor="middle" x="743" y="-463.5" font-family="Helvetica,sans-Serif" font-size="10.00">MAIN</text>
</a>
</g>
</g>
<!-- Node22&#45;&gt;Node23 -->
<g id="edge24" class="edge"><title>Node22&#45;&gt;Node23</title>
<path fill="none" stroke="midnightblue" d="M621.626,-466C653.741,-466 696.767,-466 721.727,-466"/>
<polygon fill="midnightblue" stroke="midnightblue" points="621.62,-462.5 611.62,-466 621.62,-469.5 621.62,-462.5"/>
</g>
<!-- Node25 -->
<g id="node25" class="node"><title>Node25</title>
<g id="a_node25"><a xlink:href="mesh_8h.html#aad7f19da2c7732d977e683849a724e5f" target="_top" xlink:title="mesh_insert">
<polygon fill="none" stroke="black" points="708,-418.5 708,-437.5 778,-437.5 778,-418.5 708,-418.5"/>
<text text-anchor="middle" x="743" y="-425.5" font-family="Helvetica,sans-Serif" font-size="10.00">mesh_insert</text>
</a>
</g>
</g>
<!-- Node24&#45;&gt;Node25 -->
<g id="edge27" class="edge"><title>Node24&#45;&gt;Node25</title>
<path fill="none" stroke="midnightblue" d="M644.956,-428C666.539,-428 689.706,-428 707.99,-428"/>
<polygon fill="midnightblue" stroke="midnightblue" points="644.846,-424.5 634.846,-428 644.846,-431.5 644.846,-424.5"/>
</g>
<!-- Node26 -->
<g id="node26" class="node"><title>Node26</title>
<g id="a_node26"><a xlink:href="mesh_8c.html#a0351e3ec738e05a319ead0e2e44353d0" target="_top" xlink:title="createElement">
<polygon fill="none" stroke="black" points="859,-418.5 859,-437.5 939,-437.5 939,-418.5 859,-418.5"/>
<text text-anchor="middle" x="899" y="-425.5" font-family="Helvetica,sans-Serif" font-size="10.00">createElement</text>
</a>
</g>
</g>
<!-- Node25&#45;&gt;Node26 -->
<g id="edge28" class="edge"><title>Node25&#45;&gt;Node26</title>
<path fill="none" stroke="midnightblue" d="M788.366,-428C810.597,-428 837.28,-428 858.756,-428"/>
<polygon fill="midnightblue" stroke="midnightblue" points="788.178,-424.5 778.178,-428 788.178,-431.5 788.178,-424.5"/>
</g>
<!-- Node27 -->
<g id="node27" class="node"><title>Node27</title>
<g id="a_node27"><a xlink:href="mesh_8h.html#a0ee17a9bc1b62a498c98f8e0dc41d902" target="_top" xlink:title="mesh_read">
<polygon fill="none" stroke="black" points="986.5,-418.5 986.5,-437.5 1051.5,-437.5 1051.5,-418.5 986.5,-418.5"/>
<text text-anchor="middle" x="1019" y="-425.5" font-family="Helvetica,sans-Serif" font-size="10.00">mesh_read</text>
</a>
</g>
</g>
<!-- Node26&#45;&gt;Node27 -->
<g id="edge29" class="edge"><title>Node26&#45;&gt;Node27</title>
<path fill="none" stroke="midnightblue" d="M949.56,-428C962.004,-428 975.023,-428 986.325,-428"/>
<polygon fill="midnightblue" stroke="midnightblue" points="949.292,-424.5 939.292,-428 949.292,-431.5 949.292,-424.5"/>
</g>
<!-- Node28 -->
<g id="node28" class="node"><title>Node28</title>
<g id="a_node28"><a xlink:href="yada_8c.html#a40c5c0b0d4eb7b59a91108269f69dc89" target="_top" xlink:title="MAIN">
<polygon fill="none" stroke="black" points="1088,-418.5 1088,-437.5 1130,-437.5 1130,-418.5 1088,-418.5"/>
<text text-anchor="middle" x="1109" y="-425.5" font-family="Helvetica,sans-Serif" font-size="10.00">MAIN</text>
</a>
</g>
</g>
<!-- Node27&#45;&gt;Node28 -->
<g id="edge30" class="edge"><title>Node27&#45;&gt;Node28</title>
<path fill="none" stroke="midnightblue" d="M1061.84,-428C1070.87,-428 1080.03,-428 1087.78,-428"/>
<polygon fill="midnightblue" stroke="midnightblue" points="1061.77,-424.5 1051.77,-428 1061.77,-431.5 1061.77,-424.5"/>
</g>
<!-- Node30&#45;&gt;Node10 -->
<g id="edge37" class="edge"><title>Node30&#45;&gt;Node10</title>
<path fill="none" stroke="midnightblue" d="M487.103,-124C501.071,-124 516.634,-124 530.879,-124"/>
<polygon fill="midnightblue" stroke="midnightblue" points="486.78,-120.5 476.78,-124 486.78,-127.5 486.78,-120.5"/>
</g>
<!-- Node31 -->
<g id="node31" class="node"><title>Node31</title>
<g id="a_node31"><a xlink:href="net_8c.html#a2110916d842d0952f1542e4e96ba98bb" target="_top" xlink:title="removeEdge">
<polygon fill="none" stroke="black" points="543.5,-76.5 543.5,-95.5 614.5,-95.5 614.5,-76.5 543.5,-76.5"/>
<text text-anchor="middle" x="579" y="-83.5" font-family="Helvetica,sans-Serif" font-size="10.00">removeEdge</text>
</a>
</g>
</g>
<!-- Node30&#45;&gt;Node31 -->
<g id="edge33" class="edge"><title>Node30&#45;&gt;Node31</title>
<path fill="none" stroke="midnightblue" d="M486.493,-111.95C505.11,-106.67 526.653,-100.561 544.159,-95.5967"/>
<polygon fill="midnightblue" stroke="midnightblue" points="485.446,-108.609 476.78,-114.704 487.356,-115.343 485.446,-108.609"/>
</g>
<!-- Node32 -->
<g id="node32" class="node"><title>Node32</title>
<g id="a_node32"><a xlink:href="table_8h.html#a107c408953d09606276157cef79af7d4" target="_top" xlink:title="table_remove">
<polygon fill="none" stroke="black" points="541.5,-38.5 541.5,-57.5 616.5,-57.5 616.5,-38.5 541.5,-38.5"/>
<text text-anchor="middle" x="579" y="-45.5" font-family="Helvetica,sans-Serif" font-size="10.00">table_remove</text>
</a>
</g>
</g>
<!-- Node30&#45;&gt;Node32 -->
<g id="edge36" class="edge"><title>Node30&#45;&gt;Node32</title>
<path fill="none" stroke="midnightblue" d="M477.022,-109.544C479.447,-108.114 481.801,-106.596 484,-105 502.827,-91.3327 500.345,-79.4462 520,-67 526.535,-62.8618 534.059,-59.5387 541.477,-56.9024"/>
<polygon fill="midnightblue" stroke="midnightblue" points="475.251,-106.523 468.084,-114.326 478.553,-112.695 475.251,-106.523"/>
</g>
<!-- Node31&#45;&gt;Node15 -->
<g id="edge34" class="edge"><title>Node31&#45;&gt;Node15</title>
<path fill="none" stroke="midnightblue" d="M624.045,-95.6592C629.155,-98.1028 633.971,-101.164 638,-105 670.402,-135.846 645.65,-164.393 674,-199 686.127,-213.803 704.749,-225.077 719.441,-232.36"/>
<polygon fill="midnightblue" stroke="midnightblue" points="625.219,-92.3593 614.634,-91.8944 622.618,-98.8585 625.219,-92.3593"/>
</g>
<!-- Node31&#45;&gt;Node16 -->
<g id="edge35" class="edge"><title>Node31&#45;&gt;Node16</title>
<path fill="none" stroke="midnightblue" d="M624.744,-88.944C673.863,-93.9242 753.508,-107.28 812,-143 850.278,-166.375 880.571,-212.4 892.501,-232.373"/>
<polygon fill="midnightblue" stroke="midnightblue" points="625.029,-85.4554 614.745,-88.0034 624.373,-92.4247 625.029,-85.4554"/>
</g>
<!-- Node35 -->
<g id="node35" class="node"><title>Node35</title>
<g id="a_node35"><a xlink:href="list_8h.html#a0df36bca5d3d52f49147ca6fca13a375" target="_top" xlink:title="TMlist_find">
<polygon fill="none" stroke="black" points="410.5,-0.5 410.5,-19.5 475.5,-19.5 475.5,-0.5 410.5,-0.5"/>
<text text-anchor="middle" x="443" y="-7.5" font-family="Helvetica,sans-Serif" font-size="10.00">TMlist_find</text>
</a>
</g>
</g>
<!-- Node34&#45;&gt;Node35 -->
<g id="edge40" class="edge"><title>Node34&#45;&gt;Node35</title>
<path fill="none" stroke="midnightblue" d="M358.42,-71.7924C361.057,-70.2967 363.616,-68.6969 366,-67 384.953,-53.5086 383.173,-42.6673 402,-29 406.853,-25.4771 412.462,-22.3371 417.916,-19.6738"/>
<polygon fill="midnightblue" stroke="midnightblue" points="356.604,-68.79 349.303,-76.4672 359.798,-75.0189 356.604,-68.79"/>
</g>
<!-- Node36 -->
<g id="node36" class="node"><title>Node36</title>
<g id="a_node36"><a xlink:href="list_8h.html#a7679cbef6358f1266bd7aff211c8cf19" target="_top" xlink:title="TMlist_insert">
<polygon fill="none" stroke="black" points="406.5,-76.5 406.5,-95.5 479.5,-95.5 479.5,-76.5 406.5,-76.5"/>
<text text-anchor="middle" x="443" y="-83.5" font-family="Helvetica,sans-Serif" font-size="10.00">TMlist_insert</text>
</a>
</g>
</g>
<!-- Node34&#45;&gt;Node36 -->
<g id="edge41" class="edge"><title>Node34&#45;&gt;Node36</title>
<path fill="none" stroke="midnightblue" d="M375.75,-86C386.044,-86 396.638,-86 406.251,-86"/>
<polygon fill="midnightblue" stroke="midnightblue" points="375.602,-82.5001 365.602,-86 375.602,-89.5001 375.602,-82.5001"/>
</g>
<!-- Node37 -->
<g id="node37" class="node"><title>Node37</title>
<g id="a_node37"><a xlink:href="list_8h.html#ad902641bf9d9dc19901fb99fdc0ac0a6" target="_top" xlink:title="TMlist_remove">
<polygon fill="none" stroke="black" points="402.5,-38.5 402.5,-57.5 483.5,-57.5 483.5,-38.5 402.5,-38.5"/>
<text text-anchor="middle" x="443" y="-45.5" font-family="Helvetica,sans-Serif" font-size="10.00">TMlist_remove</text>
</a>
</g>
</g>
<!-- Node34&#45;&gt;Node37 -->
<g id="edge42" class="edge"><title>Node34&#45;&gt;Node37</title>
<path fill="none" stroke="midnightblue" d="M363.376,-73.3196C379.32,-68.1852 397.421,-62.3559 412.233,-57.5859"/>
<polygon fill="midnightblue" stroke="midnightblue" points="362.222,-70.0141 353.776,-76.411 364.368,-76.6771 362.222,-70.0141"/>
</g>
</g>
</svg>
