<?xml version="1.0" encoding="UTF-8" standalone="no"?>
<!DOCTYPE svg PUBLIC "-//W3C//DTD SVG 1.1//EN"
 "http://www.w3.org/Graphics/SVG/1.1/DTD/svg11.dtd">
<!-- Generated by graphviz version 2.36.0 (20140111.2315)
 -->
<!-- Title: search_predecessors Pages: 1 -->
<!--zoomable 170 -->
<svg id="main" version="1.1" xmlns="http://www.w3.org/2000/svg" xmlns:xlink="http://www.w3.org/1999/xlink" xml:space="preserve" onload="init(evt)">
<style type="text/css"><![CDATA[
.edge:hover path { stroke: red; }
.edge:hover polygon { stroke: red; fill: red; }
]]></style>
<script type="text/javascript"><![CDATA[
var edges = document.getElementsByTagName('g');
if (edges && edges.length) {
  for (var i=0;i<edges.length;i++) {
    if (edges[i].id.substr(0,4)=='edge') {
      edges[i].setAttribute('class','edge');
    }
  }
}
]]></script>
        <defs>
                <circle id="rim" cx="0" cy="0" r="7"/>
                <circle id="rim2" cx="0" cy="0" r="3.5"/>
                <g id="zoomPlus">
                        <use xlink:href="#rim" fill="#404040">
                                <set attributeName="fill" to="#808080" begin="zoomplus.mouseover" end="zoomplus.mouseout"/>
                        </use>
                        <path d="M-4,0h8M0,-4v8" fill="none" stroke="white" stroke-width="1.5" pointer-events="none"/>
                </g>
                <g id="zoomMin">
                        <use xlink:href="#rim" fill="#404040">
                                <set attributeName="fill" to="#808080" begin="zoomminus.mouseover" end="zoomminus.mouseout"/>
                        </use>
                        <path d="M-4,0h8" fill="none" stroke="white" stroke-width="1.5" pointer-events="none"/>
                </g>
                <g id="dirArrow">
                        <path fill="none" stroke="white" stroke-width="1.5" d="M0,-3.0v7 M-2.5,-0.5L0,-3.0L2.5,-0.5"/>
                </g>
               <g id="resetDef">
                       <use xlink:href="#rim2" fill="#404040">
                               <set attributeName="fill" to="#808080" begin="reset.mouseover" end="reset.mouseout"/>
                       </use>
               </g>
        </defs>

<script type="text/javascript">
var viewWidth = 1404;
var viewHeight = 170;
var sectionId = 'dynsection-10';
</script>
<script xlink:href="svgpan.js"/>
<svg id="graph" class="graph">
<g id="viewport">
<title>search_predecessors</title>
<!-- Node1 -->
<g id="node1" class="node"><title>Node1</title>
<polygon fill="#bfbfbf" stroke="black" points="0,-76.5 0,-95.5 110,-95.5 110,-76.5 0,-76.5"/>
<text text-anchor="middle" x="55" y="-83.5" font-family="Helvetica,sans-Serif" font-size="10.00">search_predecessors</text>
</g>
<!-- Node2 -->
<g id="node2" class="node"><title>Node2</title>
<g id="a_node2"><a xlink:href="stm_8h.html#a5594d7fca67459d7d9738436af589c5c" target="_top" xlink:title="read_stm_blk">
<polygon fill="none" stroke="black" points="146.5,-76.5 146.5,-95.5 221.5,-95.5 221.5,-76.5 146.5,-76.5"/>
<text text-anchor="middle" x="184" y="-83.5" font-family="Helvetica,sans-Serif" font-size="10.00">read_stm_blk</text>
</a>
</g>
</g>
<!-- Node1&#45;&gt;Node2 -->
<g id="edge1" class="edge"><title>Node1&#45;&gt;Node2</title>
<path fill="none" stroke="midnightblue" d="M110.228,-86C118.855,-86 127.716,-86 136.155,-86"/>
<polygon fill="midnightblue" stroke="midnightblue" points="136.194,-89.5001 146.194,-86 136.194,-82.5001 136.194,-89.5001"/>
</g>
<!-- Node3 -->
<g id="node3" class="node"><title>Node3</title>
<g id="a_node3"><a xlink:href="stm__fraser_8c.html#aca0d40200c3502bdabeb44b27dfd4105" target="_top" xlink:title="search_stm_tx_entry">
<polygon fill="none" stroke="black" points="514,-142.5 514,-161.5 622,-161.5 622,-142.5 514,-142.5"/>
<text text-anchor="middle" x="568" y="-149.5" font-family="Helvetica,sans-Serif" font-size="10.00">search_stm_tx_entry</text>
</a>
</g>
</g>
<!-- Node2&#45;&gt;Node3 -->
<g id="edge2" class="edge"><title>Node2&#45;&gt;Node3</title>
<path fill="none" stroke="midnightblue" d="M199.132,-95.5421C213.358,-104.655 236.25,-118.006 258,-125 339.947,-151.352 440.034,-155.322 503.656,-154.587"/>
<polygon fill="midnightblue" stroke="midnightblue" points="503.991,-158.082 513.934,-154.423 503.879,-151.083 503.991,-158.082"/>
</g>
<!-- Node4 -->
<g id="node4" class="node"><title>Node4</title>
<g id="a_node4"><a xlink:href="stm__fraser_8c.html#a75177d9fa0335bd50b6fae9a68341443" target="_top" xlink:title="alloc_stm_tx_entry">
<polygon fill="none" stroke="black" points="258.5,-38.5 258.5,-57.5 357.5,-57.5 357.5,-38.5 258.5,-38.5"/>
<text text-anchor="middle" x="308" y="-45.5" font-family="Helvetica,sans-Serif" font-size="10.00">alloc_stm_tx_entry</text>
</a>
</g>
</g>
<!-- Node2&#45;&gt;Node4 -->
<g id="edge3" class="edge"><title>Node2&#45;&gt;Node4</title>
<path fill="none" stroke="midnightblue" d="M215.786,-76.411C231.101,-71.6406 249.817,-65.8112 266.3,-60.6771"/>
<polygon fill="midnightblue" stroke="midnightblue" points="267.717,-63.9015 276.224,-57.5859 265.636,-57.2182 267.717,-63.9015"/>
</g>
<!-- Node5 -->
<g id="node5" class="node"><title>Node5</title>
<g id="a_node5"><a xlink:href="stm__fraser_8c.html#a4e016a575dac2ee3931ef9ec94550d33" target="_top" xlink:title="read_blk_data">
<polygon fill="none" stroke="black" points="269.5,-76.5 269.5,-95.5 346.5,-95.5 346.5,-76.5 269.5,-76.5"/>
<text text-anchor="middle" x="308" y="-83.5" font-family="Helvetica,sans-Serif" font-size="10.00">read_blk_data</text>
</a>
</g>
</g>
<!-- Node2&#45;&gt;Node5 -->
<g id="edge4" class="edge"><title>Node2&#45;&gt;Node5</title>
<path fill="none" stroke="midnightblue" d="M221.604,-86C233.338,-86 246.515,-86 258.94,-86"/>
<polygon fill="midnightblue" stroke="midnightblue" points="259.153,-89.5001 269.153,-86 259.153,-82.5001 259.153,-89.5001"/>
</g>
<!-- Node16 -->
<g id="node16" class="node"><title>Node16</title>
<g id="a_node16"><a xlink:href="stm__fraser_8c.html#a31ea9d61a84d817aac10ffbc4ba9f296" target="_top" xlink:title="commit_stm_tx">
<polygon fill="none" stroke="black" points="394,-114.5 394,-133.5 478,-133.5 478,-114.5 394,-114.5"/>
<text text-anchor="middle" x="436" y="-121.5" font-family="Helvetica,sans-Serif" font-size="10.00">commit_stm_tx</text>
</a>
</g>
</g>
<!-- Node2&#45;&gt;Node16 -->
<g id="edge21" class="edge"><title>Node2&#45;&gt;Node16</title>
<path fill="none" stroke="midnightblue" d="M217.476,-95.5507C230.042,-98.9563 244.602,-102.551 258,-105 300.059,-112.687 348.351,-117.615 383.856,-120.52"/>
<polygon fill="midnightblue" stroke="midnightblue" points="383.734,-124.022 393.979,-121.322 384.287,-117.043 383.734,-124.022"/>
</g>
<!-- Node17 -->
<g id="node17" class="node"><title>Node17</title>
<g id="a_node17"><a xlink:href="stm__fraser_8c.html#ad6e1404788ef0e710c991c3e00fd5c39" target="_top" xlink:title="abort_stm_tx">
<polygon fill="none" stroke="black" points="271,-0.5 271,-19.5 345,-19.5 345,-0.5 271,-0.5"/>
<text text-anchor="middle" x="308" y="-7.5" font-family="Helvetica,sans-Serif" font-size="10.00">abort_stm_tx</text>
</a>
</g>
</g>
<!-- Node2&#45;&gt;Node17 -->
<g id="edge20" class="edge"><title>Node2&#45;&gt;Node17</title>
<path fill="none" stroke="midnightblue" d="M195.183,-76.4541C208.69,-64.1827 233.67,-42.8148 258,-29 261.428,-27.0536 265.094,-25.223 268.821,-23.5246"/>
<polygon fill="midnightblue" stroke="midnightblue" points="270.269,-26.7122 278.108,-19.5844 267.535,-20.2682 270.269,-26.7122"/>
</g>
<!-- Node6 -->
<g id="node6" class="node"><title>Node6</title>
<g id="a_node6"><a xlink:href="stm__fraser_8c.html#a3baf54f8c2c6bdb79109865e5500cbd9" target="_top" xlink:title="rc_up_descriptor">
<polygon fill="none" stroke="black" points="523.5,-85.5 523.5,-104.5 612.5,-104.5 612.5,-85.5 523.5,-85.5"/>
<text text-anchor="middle" x="568" y="-92.5" font-family="Helvetica,sans-Serif" font-size="10.00">rc_up_descriptor</text>
</a>
</g>
</g>
<!-- Node5&#45;&gt;Node6 -->
<g id="edge5" class="edge"><title>Node5&#45;&gt;Node6</title>
<path fill="none" stroke="midnightblue" d="M346.515,-87.3087C390.355,-88.838 463.239,-91.3804 513.121,-93.1205"/>
<polygon fill="midnightblue" stroke="midnightblue" points="513.282,-96.6282 523.398,-93.479 513.526,-89.6324 513.282,-96.6282"/>
</g>
<!-- Node8 -->
<g id="node8" class="node"><title>Node8</title>
<g id="a_node8"><a xlink:href="stm__fraser_8c.html#ad41e28910c7dbe8cfd98c9e0c168c9dc" target="_top" xlink:title="rc_down_descriptor">
<polygon fill="none" stroke="black" points="517.5,-47.5 517.5,-66.5 618.5,-66.5 618.5,-47.5 517.5,-47.5"/>
<text text-anchor="middle" x="568" y="-54.5" font-family="Helvetica,sans-Serif" font-size="10.00">rc_down_descriptor</text>
</a>
</g>
</g>
<!-- Node5&#45;&gt;Node8 -->
<g id="edge7" class="edge"><title>Node5&#45;&gt;Node8</title>
<path fill="none" stroke="midnightblue" d="M346.515,-81.7832C388.617,-77.0508 457.503,-69.3078 507.081,-63.7351"/>
<polygon fill="midnightblue" stroke="midnightblue" points="507.491,-67.2111 517.038,-62.6159 506.709,-60.2549 507.491,-67.2111"/>
</g>
<!-- Node5&#45;&gt;Node16 -->
<g id="edge16" class="edge"><title>Node5&#45;&gt;Node16</title>
<path fill="none" stroke="midnightblue" d="M340.795,-95.589C356.762,-100.404 376.307,-106.299 393.447,-111.468"/>
<polygon fill="midnightblue" stroke="midnightblue" points="392.63,-114.878 403.215,-114.414 394.652,-108.176 392.63,-114.878"/>
</g>
<!-- Node7 -->
<g id="node7" class="node"><title>Node7</title>
<g id="a_node7"><a xlink:href="stm__fraser_8c.html#a1a59f05201730ec9ba9a348070073e57" target="_top" xlink:title="rc_delta_descriptor">
<polygon fill="none" stroke="black" points="658.5,-85.5 658.5,-104.5 757.5,-104.5 757.5,-85.5 658.5,-85.5"/>
<text text-anchor="middle" x="708" y="-92.5" font-family="Helvetica,sans-Serif" font-size="10.00">rc_delta_descriptor</text>
</a>
</g>
</g>
<!-- Node6&#45;&gt;Node7 -->
<g id="edge6" class="edge"><title>Node6&#45;&gt;Node7</title>
<path fill="none" stroke="midnightblue" d="M612.664,-95C623.902,-95 636.18,-95 648.053,-95"/>
<polygon fill="midnightblue" stroke="midnightblue" points="648.346,-98.5001 658.346,-95 648.346,-91.5001 648.346,-98.5001"/>
</g>
<!-- Node9 -->
<g id="node9" class="node"><title>Node9</title>
<g id="a_node9"><a xlink:href="stm__fraser_8c.html#afd1a951db8c0f79e6bf20624e7dca338" target="_top" xlink:title="release_descriptor">
<polygon fill="none" stroke="black" points="660,-47.5 660,-66.5 756,-66.5 756,-47.5 660,-47.5"/>
<text text-anchor="middle" x="708" y="-54.5" font-family="Helvetica,sans-Serif" font-size="10.00">release_descriptor</text>
</a>
</g>
</g>
<!-- Node8&#45;&gt;Node9 -->
<g id="edge8" class="edge"><title>Node8&#45;&gt;Node9</title>
<path fill="none" stroke="midnightblue" d="M618.821,-57C628.78,-57 639.319,-57 649.512,-57"/>
<polygon fill="midnightblue" stroke="midnightblue" points="649.557,-60.5001 659.557,-57 649.556,-53.5001 649.557,-60.5001"/>
</g>
<!-- Node10 -->
<g id="node10" class="node"><title>Node10</title>
<g id="a_node10"><a xlink:href="gc_8c.html#a80f4a5c119aa70ab0452a73dfac21bbd" target="_top" xlink:title="fr_gc_free">
<polygon fill="none" stroke="black" points="926,-47.5 926,-66.5 986,-66.5 986,-47.5 926,-47.5"/>
<text text-anchor="middle" x="956" y="-54.5" font-family="Helvetica,sans-Serif" font-size="10.00">fr_gc_free</text>
</a>
</g>
</g>
<!-- Node9&#45;&gt;Node10 -->
<g id="edge9" class="edge"><title>Node9&#45;&gt;Node10</title>
<path fill="none" stroke="midnightblue" d="M756.14,-57C802.41,-57 872.177,-57 915.585,-57"/>
<polygon fill="midnightblue" stroke="midnightblue" points="915.757,-60.5001 925.757,-57 915.757,-53.5001 915.757,-60.5001"/>
</g>
<!-- Node15 -->
<g id="node15" class="node"><title>Node15</title>
<g id="a_node15"><a xlink:href="gc_8c.html#a1e1a80c2d04496b5b70bd86b59510355" target="_top" xlink:title="fr_gc_unsafe_free">
<polygon fill="none" stroke="black" points="794.5,-28.5 794.5,-47.5 889.5,-47.5 889.5,-28.5 794.5,-28.5"/>
<text text-anchor="middle" x="842" y="-35.5" font-family="Helvetica,sans-Serif" font-size="10.00">fr_gc_unsafe_free</text>
</a>
</g>
</g>
<!-- Node9&#45;&gt;Node15 -->
<g id="edge14" class="edge"><title>Node9&#45;&gt;Node15</title>
<path fill="none" stroke="midnightblue" d="M756.282,-50.1942C765.409,-48.8805 775.057,-47.4919 784.444,-46.1407"/>
<polygon fill="midnightblue" stroke="midnightblue" points="785.091,-49.5836 794.491,-44.6945 784.094,-42.655 785.091,-49.5836"/>
</g>
<!-- Node11 -->
<g id="node11" class="node"><title>Node11</title>
<g id="a_node11"><a xlink:href="gc_8c.html#afb494e950c8c6b5661974748ae89b61e" target="_top" xlink:title="chunk_from_cache">
<polygon fill="none" stroke="black" points="1022.5,-47.5 1022.5,-66.5 1121.5,-66.5 1121.5,-47.5 1022.5,-47.5"/>
<text text-anchor="middle" x="1072" y="-54.5" font-family="Helvetica,sans-Serif" font-size="10.00">chunk_from_cache</text>
</a>
</g>
</g>
<!-- Node10&#45;&gt;Node11 -->
<g id="edge10" class="edge"><title>Node10&#45;&gt;Node11</title>
<path fill="none" stroke="midnightblue" d="M986.062,-57C994.018,-57 1002.94,-57 1011.93,-57"/>
<polygon fill="midnightblue" stroke="midnightblue" points="1012.06,-60.5001 1022.06,-57 1012.06,-53.5001 1012.06,-60.5001"/>
</g>
<!-- Node12 -->
<g id="node12" class="node"><title>Node12</title>
<g id="a_node12"><a xlink:href="gc_8c.html#a2a6f41199ed37925df4cc7b9909dc0ed" target="_top" xlink:title="get_empty_chunks">
<polygon fill="none" stroke="black" points="1158.5,-47.5 1158.5,-66.5 1257.5,-66.5 1257.5,-47.5 1158.5,-47.5"/>
<text text-anchor="middle" x="1208" y="-54.5" font-family="Helvetica,sans-Serif" font-size="10.00">get_empty_chunks</text>
</a>
</g>
</g>
<!-- Node11&#45;&gt;Node12 -->
<g id="edge11" class="edge"><title>Node11&#45;&gt;Node12</title>
<path fill="none" stroke="midnightblue" d="M1121.76,-57C1130.25,-57 1139.18,-57 1147.92,-57"/>
<polygon fill="midnightblue" stroke="midnightblue" points="1148.06,-60.5001 1158.06,-57 1148.06,-53.5001 1148.06,-60.5001"/>
</g>
<!-- Node13 -->
<g id="node13" class="node"><title>Node13</title>
<g id="a_node13"><a xlink:href="gc_8c.html#ac360b80b93ad00f0fba18a1993e1d6a0" target="_top" xlink:title="add_chunks_to_list">
<polygon fill="none" stroke="black" points="1294.5,-66.5 1294.5,-85.5 1395.5,-85.5 1395.5,-66.5 1294.5,-66.5"/>
<text text-anchor="middle" x="1345" y="-73.5" font-family="Helvetica,sans-Serif" font-size="10.00">add_chunks_to_list</text>
</a>
</g>
</g>
<!-- Node12&#45;&gt;Node13 -->
<g id="edge12" class="edge"><title>Node12&#45;&gt;Node13</title>
<path fill="none" stroke="midnightblue" d="M1257.74,-63.8594C1266.41,-65.0797 1275.53,-66.363 1284.46,-67.6199"/>
<polygon fill="midnightblue" stroke="midnightblue" points="1284.04,-71.095 1294.43,-69.0229 1285.01,-64.1633 1284.04,-71.095"/>
</g>
<!-- Node14 -->
<g id="node14" class="node"><title>Node14</title>
<g id="a_node14"><a xlink:href="gc_8c.html#ade31863985bdaa481ade142bdfb6d99f" target="_top" xlink:title="alloc_more_chunks">
<polygon fill="none" stroke="black" points="1294.5,-28.5 1294.5,-47.5 1395.5,-47.5 1395.5,-28.5 1294.5,-28.5"/>
<text text-anchor="middle" x="1345" y="-35.5" font-family="Helvetica,sans-Serif" font-size="10.00">alloc_more_chunks</text>
</a>
</g>
</g>
<!-- Node12&#45;&gt;Node14 -->
<g id="edge13" class="edge"><title>Node12&#45;&gt;Node14</title>
<path fill="none" stroke="midnightblue" d="M1257.74,-50.1406C1266.41,-48.9203 1275.53,-47.637 1284.46,-46.3801"/>
<polygon fill="midnightblue" stroke="midnightblue" points="1285.01,-49.8367 1294.43,-44.9771 1284.04,-42.905 1285.01,-49.8367"/>
</g>
<!-- Node15&#45;&gt;Node10 -->
<g id="edge15" class="edge"><title>Node15&#45;&gt;Node10</title>
<path fill="none" stroke="midnightblue" d="M889.525,-45.8926C898.242,-47.3714 907.274,-48.9036 915.743,-50.3403"/>
<polygon fill="midnightblue" stroke="midnightblue" points="915.291,-53.8136 925.736,-52.0355 916.462,-46.9122 915.291,-53.8136"/>
</g>
<!-- Node16&#45;&gt;Node3 -->
<g id="edge19" class="edge"><title>Node16&#45;&gt;Node3</title>
<path fill="none" stroke="midnightblue" d="M478.133,-132.859C489.064,-135.214 501.041,-137.794 512.563,-140.275"/>
<polygon fill="midnightblue" stroke="midnightblue" points="512.021,-143.739 522.534,-142.423 513.495,-136.896 512.021,-143.739"/>
</g>
<!-- Node16&#45;&gt;Node6 -->
<g id="edge17" class="edge"><title>Node16&#45;&gt;Node6</title>
<path fill="none" stroke="midnightblue" d="M478.133,-114.824C489.639,-112.257 502.305,-109.432 514.379,-106.739"/>
<polygon fill="midnightblue" stroke="midnightblue" points="515.345,-110.109 524.343,-104.516 513.821,-103.277 515.345,-110.109"/>
</g>
<!-- Node16&#45;&gt;Node8 -->
<g id="edge18" class="edge"><title>Node16&#45;&gt;Node8</title>
<path fill="none" stroke="midnightblue" d="M450.403,-114.409C465.38,-103.992 490.605,-87.3249 514,-76 518.284,-73.9264 522.855,-71.9543 527.449,-70.1201"/>
<polygon fill="midnightblue" stroke="midnightblue" points="528.721,-73.3812 536.829,-66.5605 526.237,-66.8366 528.721,-73.3812"/>
</g>
</g>
</svg>
        <g id="navigator" transform="translate(0 0)" fill="#404254">
                <rect fill="#f2f5e9" fill-opacity="0.5" stroke="#606060" stroke-width=".5" x="0" y="0" width="60" height="60"/>
                <use id="zoomplus" xlink:href="#zoomPlus" x="17" y="9" onmousedown="handleZoom(evt,'in')"/>
                <use id="zoomminus" xlink:href="#zoomMin" x="42" y="9" onmousedown="handleZoom(evt,'out')"/>
                <use id="reset" xlink:href="#resetDef" x="30" y="36" onmousedown="handleReset()"/>
                <g id="arrowUp" xlink:href="#dirArrow" transform="translate(30 24)" onmousedown="handlePan(0,-1)">
                  <use xlink:href="#rim" fill="#404040">
                        <set attributeName="fill" to="#808080" begin="arrowUp.mouseover" end="arrowUp.mouseout"/>
                  </use>
                  <path fill="none" stroke="white" stroke-width="1.5" d="M0,-3.0v7 M-2.5,-0.5L0,-3.0L2.5,-0.5"/>
                </g>
                <g id="arrowRight" xlink:href="#dirArrow" transform="rotate(90) translate(36 -43)" onmousedown="handlePan(1,0)">
                  <use xlink:href="#rim" fill="#404040">
                        <set attributeName="fill" to="#808080" begin="arrowRight.mouseover" end="arrowRight.mouseout"/>
                  </use>
                  <path fill="none" stroke="white" stroke-width="1.5" d="M0,-3.0v7 M-2.5,-0.5L0,-3.0L2.5,-0.5"/>
                </g>
                <g id="arrowDown" xlink:href="#dirArrow" transform="rotate(180) translate(-30 -48)" onmousedown="handlePan(0,1)">
                  <use xlink:href="#rim" fill="#404040">
                        <set attributeName="fill" to="#808080" begin="arrowDown.mouseover" end="arrowDown.mouseout"/>
                  </use>
                  <path fill="none" stroke="white" stroke-width="1.5" d="M0,-3.0v7 M-2.5,-0.5L0,-3.0L2.5,-0.5"/>
                </g>
                <g id="arrowLeft" xlink:href="#dirArrow" transform="rotate(270) translate(-36 17)" onmousedown="handlePan(-1,0)">
                  <use xlink:href="#rim" fill="#404040">
                        <set attributeName="fill" to="#808080" begin="arrowLeft.mouseover" end="arrowLeft.mouseout"/>
                  </use>
                  <path fill="none" stroke="white" stroke-width="1.5" d="M0,-3.0v7 M-2.5,-0.5L0,-3.0L2.5,-0.5"/>
                </g>
        </g>
        <svg viewBox="0 0 15 15" width="100%" height="30px" preserveAspectRatio="xMaxYMin meet">
         <g id="arrow_out" transform="scale(0.3 0.3)">
          <a xlink:href="stmskip_8cc_aa82848b11e972b9339ceadb6816cdb6a_cgraph_org.svg" target="_base">
           <rect id="button" ry="5" rx="5" y="6" x="6" height="38" width="38"
                fill="#f2f5e9" fill-opacity="0.5" stroke="#606060" stroke-width="1.0"/>
           <path id="arrow"
             d="M 11.500037,31.436501 C 11.940474,20.09759 22.043105,11.32322 32.158766,21.979434 L 37.068811,17.246167 C 37.068811,17.246167 37.088388,32 37.088388,32 L 22.160133,31.978069 C 22.160133,31.978069 26.997745,27.140456 26.997745,27.140456 C 18.528582,18.264221 13.291696,25.230495 11.500037,31.436501 z"
             style="fill:#404040;"/>
          </a>
         </g>
        </svg>
</svg>
