<?xml version="1.0" encoding="UTF-8" standalone="no"?>
<!DOCTYPE svg PUBLIC "-//W3C//DTD SVG 1.1//EN"
 "http://www.w3.org/Graphics/SVG/1.1/DTD/svg11.dtd">
<!-- Generated by graphviz version 2.36.0 (20140111.2315)
 -->
<!-- Title: ostm/skiplist/stmskip.h Pages: 1 -->
<svg width="249pt" height="140pt"
 viewBox="0.00 0.00 249.00 140.00" xmlns="http://www.w3.org/2000/svg" xmlns:xlink="http://www.w3.org/1999/xlink">
<g id="graph0" class="graph" transform="scale(1 1) rotate(0) translate(4 136)">
<title>ostm/skiplist/stmskip.h</title>
<!-- Node1 -->
<g id="node1" class="node"><title>Node1</title>
<polygon fill="#bfbfbf" stroke="black" points="56,-112.5 56,-131.5 174,-131.5 174,-112.5 56,-112.5"/>
<text text-anchor="middle" x="115" y="-119.5" font-family="Helvetica,sans-Serif" font-size="10.00">ostm/skiplist/stmskip.h</text>
</g>
<!-- Node2 -->
<g id="node2" class="node"><title>Node2</title>
<g id="a_node2"><a xlink:href="setadaptor_8h.html" target="_top" xlink:title="bench/setadaptor.h">
<polygon fill="none" stroke="black" points="0,-56.5 0,-75.5 100,-75.5 100,-56.5 0,-56.5"/>
<text text-anchor="middle" x="50" y="-63.5" font-family="Helvetica,sans-Serif" font-size="10.00">bench/setadaptor.h</text>
</a>
</g>
</g>
<!-- Node1&#45;&gt;Node2 -->
<g id="edge1" class="edge"><title>Node1&#45;&gt;Node2</title>
<path fill="none" stroke="midnightblue" d="M96.7274,-105.82C85.0822,-96.1452 70.4005,-83.9481 60.6334,-75.8339"/>
<polygon fill="midnightblue" stroke="midnightblue" points="94.6281,-108.626 104.557,-112.324 99.1013,-103.242 94.6281,-108.626"/>
</g>
<!-- Node4 -->
<g id="node4" class="node"><title>Node4</title>
<g id="a_node4"><a xlink:href="stmskip_8cc.html" target="_top" xlink:title="ostm/skiplist/stmskip.cc">
<polygon fill="none" stroke="black" points="118.5,-56.5 118.5,-75.5 241.5,-75.5 241.5,-56.5 118.5,-56.5"/>
<text text-anchor="middle" x="180" y="-63.5" font-family="Helvetica,sans-Serif" font-size="10.00">ostm/skiplist/stmskip.cc</text>
</a>
</g>
</g>
<!-- Node1&#45;&gt;Node4 -->
<g id="edge3" class="edge"><title>Node1&#45;&gt;Node4</title>
<path fill="none" stroke="midnightblue" d="M133.273,-105.82C144.918,-96.1452 159.599,-83.9481 169.367,-75.8339"/>
<polygon fill="midnightblue" stroke="midnightblue" points="130.899,-103.242 125.443,-112.324 135.372,-108.626 130.899,-103.242"/>
</g>
<!-- Node3 -->
<g id="node3" class="node"><title>Node3</title>
<g id="a_node3"><a xlink:href="main_8cc.html" target="_top" xlink:title="bench/main.cc">
<polygon fill="none" stroke="black" points="10,-0.5 10,-19.5 90,-19.5 90,-0.5 10,-0.5"/>
<text text-anchor="middle" x="50" y="-7.5" font-family="Helvetica,sans-Serif" font-size="10.00">bench/main.cc</text>
</a>
</g>
</g>
<!-- Node2&#45;&gt;Node3 -->
<g id="edge2" class="edge"><title>Node2&#45;&gt;Node3</title>
<path fill="none" stroke="midnightblue" d="M50,-45.8045C50,-36.9102 50,-26.7798 50,-19.7511"/>
<polygon fill="midnightblue" stroke="midnightblue" points="46.5001,-46.083 50,-56.083 53.5001,-46.083 46.5001,-46.083"/>
</g>
</g>
</svg>
