<?xml version="1.0" encoding="UTF-8" standalone="no"?>
<!DOCTYPE svg PUBLIC "-//W3C//DTD SVG 1.1//EN"
 "http://www.w3.org/Graphics/SVG/1.1/DTD/svg11.dtd">
<!-- Generated by graphviz version 2.36.0 (20140111.2315)
 -->
<!-- Title: destory_stmskip_subsystem Pages: 1 -->
<svg width="958pt" height="237pt"
 viewBox="0.00 0.00 958.00 237.00" xmlns="http://www.w3.org/2000/svg" xmlns:xlink="http://www.w3.org/1999/xlink">
<g id="graph0" class="graph" transform="scale(1 1) rotate(0) translate(4 233)">
<title>destory_stmskip_subsystem</title>
<!-- Node1 -->
<g id="node1" class="node"><title>Node1</title>
<polygon fill="#bfbfbf" stroke="black" points="0,-38.5 0,-57.5 142,-57.5 142,-38.5 0,-38.5"/>
<text text-anchor="middle" x="71" y="-45.5" font-family="Helvetica,sans-Serif" font-size="10.00">destory_stmskip_subsystem</text>
</g>
<!-- Node2 -->
<g id="node2" class="node"><title>Node2</title>
<g id="a_node2"><a xlink:href="ptst_8c.html#a9f490f3eb71074b856eb2206f97c6cb1" target="_top" xlink:title="fr_critical_enter">
<polygon fill="none" stroke="black" points="178.5,-76.5 178.5,-95.5 261.5,-95.5 261.5,-76.5 178.5,-76.5"/>
<text text-anchor="middle" x="220" y="-83.5" font-family="Helvetica,sans-Serif" font-size="10.00">fr_critical_enter</text>
</a>
</g>
</g>
<!-- Node1&#45;&gt;Node2 -->
<g id="edge1" class="edge"><title>Node1&#45;&gt;Node2</title>
<path fill="none" stroke="midnightblue" d="M109.094,-57.589C128.318,-62.5583 151.986,-68.6767 172.429,-73.9613"/>
<polygon fill="midnightblue" stroke="midnightblue" points="171.615,-77.3657 182.172,-76.4799 173.367,-70.5885 171.615,-77.3657"/>
</g>
<!-- Node12 -->
<g id="node12" class="node"><title>Node12</title>
<g id="a_node12"><a xlink:href="stm_8h.html#a11462d544b66c8e0e0324e88dd32650d" target="_top" xlink:title="free_stm">
<polygon fill="none" stroke="black" points="192.5,-38.5 192.5,-57.5 247.5,-57.5 247.5,-38.5 192.5,-38.5"/>
<text text-anchor="middle" x="220" y="-45.5" font-family="Helvetica,sans-Serif" font-size="10.00">free_stm</text>
</a>
</g>
</g>
<!-- Node1&#45;&gt;Node12 -->
<g id="edge15" class="edge"><title>Node1&#45;&gt;Node12</title>
<path fill="none" stroke="midnightblue" d="M142.056,-48C155.897,-48 169.901,-48 182.099,-48"/>
<polygon fill="midnightblue" stroke="midnightblue" points="182.305,-51.5001 192.305,-48 182.305,-44.5001 182.305,-51.5001"/>
</g>
<!-- Node14 -->
<g id="node14" class="node"><title>Node14</title>
<g id="a_node14"><a xlink:href="stmskip_8cc.html#a5db6833ad98c08797c5dffd75d264833" target="_top" xlink:title="fr_critical_exit">
<polygon fill="none" stroke="black" points="181.5,-0.5 181.5,-19.5 258.5,-19.5 258.5,-0.5 181.5,-0.5"/>
<text text-anchor="middle" x="220" y="-7.5" font-family="Helvetica,sans-Serif" font-size="10.00">fr_critical_exit</text>
</a>
</g>
</g>
<!-- Node1&#45;&gt;Node14 -->
<g id="edge17" class="edge"><title>Node1&#45;&gt;Node14</title>
<path fill="none" stroke="midnightblue" d="M109.094,-38.411C128.318,-33.4417 151.986,-27.3233 172.429,-22.0387"/>
<polygon fill="midnightblue" stroke="midnightblue" points="173.367,-25.4115 182.172,-19.5201 171.615,-18.6343 173.367,-25.4115"/>
</g>
<!-- Node3 -->
<g id="node3" class="node"><title>Node3</title>
<g id="a_node3"><a xlink:href="gc_8c.html#aa06f5acb271ed4c9afcc728f3ceae52f" target="_top" xlink:title="fr_gc_init">
<polygon fill="none" stroke="black" points="329,-152.5 329,-171.5 385,-171.5 385,-152.5 329,-152.5"/>
<text text-anchor="middle" x="357" y="-159.5" font-family="Helvetica,sans-Serif" font-size="10.00">fr_gc_init</text>
</a>
</g>
</g>
<!-- Node2&#45;&gt;Node3 -->
<g id="edge2" class="edge"><title>Node2&#45;&gt;Node3</title>
<path fill="none" stroke="midnightblue" d="M238.098,-95.6255C261.327,-108.703 303.058,-132.196 330.131,-147.437"/>
<polygon fill="midnightblue" stroke="midnightblue" points="328.61,-150.597 339.041,-152.453 332.044,-144.497 328.61,-150.597"/>
</g>
<!-- Node10 -->
<g id="node10" class="node"><title>Node10</title>
<g id="a_node10"><a xlink:href="gc_8c.html#a1b011e952f943e62b80e39768305d3fb" target="_top" xlink:title="fr_gc_enter">
<polygon fill="none" stroke="black" points="463.5,-66.5 463.5,-85.5 528.5,-85.5 528.5,-66.5 463.5,-66.5"/>
<text text-anchor="middle" x="496" y="-73.5" font-family="Helvetica,sans-Serif" font-size="10.00">fr_gc_enter</text>
</a>
</g>
</g>
<!-- Node2&#45;&gt;Node10 -->
<g id="edge12" class="edge"><title>Node2&#45;&gt;Node10</title>
<path fill="none" stroke="midnightblue" d="M261.725,-84.5137C313.189,-82.6354 401.304,-79.4196 453.25,-77.5237"/>
<polygon fill="midnightblue" stroke="midnightblue" points="453.581,-81.0141 463.447,-77.1516 453.326,-74.0187 453.581,-81.0141"/>
</g>
<!-- Node4 -->
<g id="node4" class="node"><title>Node4</title>
<g id="a_node4"><a xlink:href="gc_8c.html#a2a6f41199ed37925df4cc7b9909dc0ed" target="_top" xlink:title="get_empty_chunks">
<polygon fill="none" stroke="black" points="712.5,-152.5 712.5,-171.5 811.5,-171.5 811.5,-152.5 712.5,-152.5"/>
<text text-anchor="middle" x="762" y="-159.5" font-family="Helvetica,sans-Serif" font-size="10.00">get_empty_chunks</text>
</a>
</g>
</g>
<!-- Node3&#45;&gt;Node4 -->
<g id="edge3" class="edge"><title>Node3&#45;&gt;Node4</title>
<path fill="none" stroke="midnightblue" d="M385.068,-162C449.576,-162 613.583,-162 702.141,-162"/>
<polygon fill="midnightblue" stroke="midnightblue" points="702.295,-165.5 712.295,-162 702.295,-158.5 702.295,-165.5"/>
</g>
<!-- Node7 -->
<g id="node7" class="node"><title>Node7</title>
<g id="a_node7"><a xlink:href="gc_8c.html#a6dffa65320ddab40d01f198433b3aeb6" target="_top" xlink:title="get_alloc_chunk">
<polygon fill="none" stroke="black" points="452.5,-133.5 452.5,-152.5 539.5,-152.5 539.5,-133.5 452.5,-133.5"/>
<text text-anchor="middle" x="496" y="-140.5" font-family="Helvetica,sans-Serif" font-size="10.00">get_alloc_chunk</text>
</a>
</g>
</g>
<!-- Node3&#45;&gt;Node7 -->
<g id="edge6" class="edge"><title>Node3&#45;&gt;Node7</title>
<path fill="none" stroke="midnightblue" d="M385.067,-158.246C401.402,-155.981 422.774,-153.017 442.326,-150.305"/>
<polygon fill="midnightblue" stroke="midnightblue" points="442.923,-153.756 452.348,-148.915 441.962,-146.822 442.923,-153.756"/>
</g>
<!-- Node9 -->
<g id="node9" class="node"><title>Node9</title>
<g id="a_node9"><a xlink:href="gc_8c.html#afb494e950c8c6b5661974748ae89b61e" target="_top" xlink:title="chunk_from_cache">
<polygon fill="none" stroke="black" points="576.5,-209.5 576.5,-228.5 675.5,-228.5 675.5,-209.5 576.5,-209.5"/>
<text text-anchor="middle" x="626" y="-216.5" font-family="Helvetica,sans-Serif" font-size="10.00">chunk_from_cache</text>
</a>
</g>
</g>
<!-- Node3&#45;&gt;Node9 -->
<g id="edge10" class="edge"><title>Node3&#45;&gt;Node9</title>
<path fill="none" stroke="midnightblue" d="M381.173,-171.597C399.964,-179.02 427.29,-189.012 452,-195 489.523,-204.092 532.517,-210.077 566.257,-213.797"/>
<polygon fill="midnightblue" stroke="midnightblue" points="566.101,-217.3 576.415,-214.879 566.842,-210.339 566.101,-217.3"/>
</g>
<!-- Node5 -->
<g id="node5" class="node"><title>Node5</title>
<g id="a_node5"><a xlink:href="gc_8c.html#ac360b80b93ad00f0fba18a1993e1d6a0" target="_top" xlink:title="add_chunks_to_list">
<polygon fill="none" stroke="black" points="848.5,-95.5 848.5,-114.5 949.5,-114.5 949.5,-95.5 848.5,-95.5"/>
<text text-anchor="middle" x="899" y="-102.5" font-family="Helvetica,sans-Serif" font-size="10.00">add_chunks_to_list</text>
</a>
</g>
</g>
<!-- Node4&#45;&gt;Node5 -->
<g id="edge4" class="edge"><title>Node4&#45;&gt;Node5</title>
<path fill="none" stroke="midnightblue" d="M785.596,-152.459C807.596,-143.171 841.243,-128.964 865.993,-118.514"/>
<polygon fill="midnightblue" stroke="midnightblue" points="867.479,-121.686 875.33,-114.572 864.756,-115.237 867.479,-121.686"/>
</g>
<!-- Node6 -->
<g id="node6" class="node"><title>Node6</title>
<g id="a_node6"><a xlink:href="gc_8c.html#ade31863985bdaa481ade142bdfb6d99f" target="_top" xlink:title="alloc_more_chunks">
<polygon fill="none" stroke="black" points="848.5,-152.5 848.5,-171.5 949.5,-171.5 949.5,-152.5 848.5,-152.5"/>
<text text-anchor="middle" x="899" y="-159.5" font-family="Helvetica,sans-Serif" font-size="10.00">alloc_more_chunks</text>
</a>
</g>
</g>
<!-- Node4&#45;&gt;Node6 -->
<g id="edge5" class="edge"><title>Node4&#45;&gt;Node6</title>
<path fill="none" stroke="midnightblue" d="M811.738,-162C820.315,-162 829.331,-162 838.169,-162"/>
<polygon fill="midnightblue" stroke="midnightblue" points="838.426,-165.5 848.426,-162 838.426,-158.5 838.426,-165.5"/>
</g>
<!-- Node7&#45;&gt;Node5 -->
<g id="edge9" class="edge"><title>Node7&#45;&gt;Node5</title>
<path fill="none" stroke="midnightblue" d="M530.96,-133.437C544.819,-129.901 561.07,-126.218 576,-124 666.831,-110.506 773.413,-106.504 838.302,-105.369"/>
<polygon fill="midnightblue" stroke="midnightblue" points="838.405,-108.868 848.349,-105.211 838.295,-101.869 838.405,-108.868"/>
</g>
<!-- Node8 -->
<g id="node8" class="node"><title>Node8</title>
<g id="a_node8"><a xlink:href="gc_8c.html#ae47e099483bed50da4e41b906c300b99" target="_top" xlink:title="get_filled_chunks">
<polygon fill="none" stroke="black" points="580,-133.5 580,-152.5 672,-152.5 672,-133.5 580,-133.5"/>
<text text-anchor="middle" x="626" y="-140.5" font-family="Helvetica,sans-Serif" font-size="10.00">get_filled_chunks</text>
</a>
</g>
</g>
<!-- Node7&#45;&gt;Node8 -->
<g id="edge7" class="edge"><title>Node7&#45;&gt;Node8</title>
<path fill="none" stroke="midnightblue" d="M539.622,-143C549.331,-143 559.781,-143 569.926,-143"/>
<polygon fill="midnightblue" stroke="midnightblue" points="569.931,-146.5 579.931,-143 569.931,-139.5 569.931,-146.5"/>
</g>
<!-- Node8&#45;&gt;Node4 -->
<g id="edge8" class="edge"><title>Node8&#45;&gt;Node4</title>
<path fill="none" stroke="midnightblue" d="M672.366,-149.433C682.047,-150.805 692.403,-152.273 702.497,-153.705"/>
<polygon fill="midnightblue" stroke="midnightblue" points="702.077,-157.18 712.469,-155.119 703.059,-150.249 702.077,-157.18"/>
</g>
<!-- Node9&#45;&gt;Node4 -->
<g id="edge11" class="edge"><title>Node9&#45;&gt;Node4</title>
<path fill="none" stroke="midnightblue" d="M649.429,-209.459C671.266,-200.171 704.663,-185.964 729.23,-175.514"/>
<polygon fill="midnightblue" stroke="midnightblue" points="730.666,-178.707 738.498,-171.572 727.926,-172.265 730.666,-178.707"/>
</g>
<!-- Node11 -->
<g id="node11" class="node"><title>Node11</title>
<g id="a_node11"><a xlink:href="gc_8c.html#a8c8094a35212fa8ed75ed9a4a38c7b9c" target="_top" xlink:title="gc_reclaim">
<polygon fill="none" stroke="black" points="594,-57.5 594,-76.5 658,-76.5 658,-57.5 594,-57.5"/>
<text text-anchor="middle" x="626" y="-64.5" font-family="Helvetica,sans-Serif" font-size="10.00">gc_reclaim</text>
</a>
</g>
</g>
<!-- Node10&#45;&gt;Node11 -->
<g id="edge13" class="edge"><title>Node10&#45;&gt;Node11</title>
<path fill="none" stroke="midnightblue" d="M528.64,-73.7753C545.226,-72.6091 565.746,-71.1663 583.582,-69.9122"/>
<polygon fill="midnightblue" stroke="midnightblue" points="583.994,-73.392 593.724,-69.1991 583.503,-66.4092 583.994,-73.392"/>
</g>
<!-- Node11&#45;&gt;Node5 -->
<g id="edge14" class="edge"><title>Node11&#45;&gt;Node5</title>
<path fill="none" stroke="midnightblue" d="M658.139,-70.7275C694.939,-75.205 758.002,-83.1043 812,-91 820.591,-92.2562 829.653,-93.6529 838.543,-95.064"/>
<polygon fill="midnightblue" stroke="midnightblue" points="838.045,-98.5287 848.473,-96.6564 839.153,-91.617 838.045,-98.5287"/>
</g>
<!-- Node13 -->
<g id="node13" class="node"><title>Node13</title>
<g id="a_node13"><a xlink:href="gc_8c.html#a771b27352be09100c9ba0d70b3ea6be7" target="_top" xlink:title="fr_gc_remove_allocator">
<polygon fill="none" stroke="black" points="298,-38.5 298,-57.5 416,-57.5 416,-38.5 298,-38.5"/>
<text text-anchor="middle" x="357" y="-45.5" font-family="Helvetica,sans-Serif" font-size="10.00">fr_gc_remove_allocator</text>
</a>
</g>
</g>
<!-- Node12&#45;&gt;Node13 -->
<g id="edge16" class="edge"><title>Node12&#45;&gt;Node13</title>
<path fill="none" stroke="midnightblue" d="M247.672,-48C259.235,-48 273.358,-48 287.538,-48"/>
<polygon fill="midnightblue" stroke="midnightblue" points="287.837,-51.5001 297.837,-48 287.837,-44.5001 287.837,-51.5001"/>
</g>
</g>
</svg>
