<?xml version="1.0" encoding="UTF-8" standalone="no"?>
<!DOCTYPE svg PUBLIC "-//W3C//DTD SVG 1.1//EN"
 "http://www.w3.org/Graphics/SVG/1.1/DTD/svg11.dtd">
<!-- Generated by graphviz version 2.36.0 (20140111.2315)
 -->
<!-- Title: stmskip_remove Pages: 1 -->
<svg width="1620pt" height="418pt"
 viewBox="0.00 0.00 1620.00 417.52" xmlns="http://www.w3.org/2000/svg" xmlns:xlink="http://www.w3.org/1999/xlink">
<g id="graph0" class="graph" transform="scale(1 1) rotate(0) translate(4 413.524)">
<title>stmskip_remove</title>
<!-- Node1 -->
<g id="node1" class="node"><title>Node1</title>
<polygon fill="#bfbfbf" stroke="black" points="0.5,-285.5 0.5,-304.5 89.5,-304.5 89.5,-285.5 0.5,-285.5"/>
<text text-anchor="middle" x="45" y="-292.5" font-family="Helvetica,sans-Serif" font-size="10.00">stmskip_remove</text>
</g>
<!-- Node2 -->
<g id="node2" class="node"><title>Node2</title>
<g id="a_node2"><a xlink:href="stmskip_8cc.html#aa82848b11e972b9339ceadb6816cdb6a" target="_top" xlink:title="search_predecessors">
<polygon fill="none" stroke="black" points="126,-314.5 126,-333.5 236,-333.5 236,-314.5 126,-314.5"/>
<text text-anchor="middle" x="181" y="-321.5" font-family="Helvetica,sans-Serif" font-size="10.00">search_predecessors</text>
</a>
</g>
</g>
<!-- Node1&#45;&gt;Node2 -->
<g id="edge1" class="edge"><title>Node1&#45;&gt;Node2</title>
<path fill="none" stroke="midnightblue" d="M89.506,-304.415C101.088,-306.922 113.743,-309.661 125.821,-312.275"/>
<polygon fill="midnightblue" stroke="midnightblue" points="125.28,-315.739 135.794,-314.433 126.761,-308.897 125.28,-315.739"/>
</g>
<!-- Node19 -->
<g id="node19" class="node"><title>Node19</title>
<g id="a_node19"><a xlink:href="stm_8h.html#a00de1ad150378181157510e2e5982f75" target="_top" xlink:title="write_stm_blk">
<polygon fill="none" stroke="black" points="272.5,-248.5 272.5,-267.5 349.5,-267.5 349.5,-248.5 272.5,-248.5"/>
<text text-anchor="middle" x="311" y="-255.5" font-family="Helvetica,sans-Serif" font-size="10.00">write_stm_blk</text>
</a>
</g>
</g>
<!-- Node1&#45;&gt;Node19 -->
<g id="edge23" class="edge"><title>Node1&#45;&gt;Node19</title>
<path fill="none" stroke="midnightblue" d="M89.5942,-288.89C137.175,-282.222 213.119,-271.578 262.271,-264.689"/>
<polygon fill="midnightblue" stroke="midnightblue" points="262.916,-268.133 272.333,-263.279 261.944,-261.201 262.916,-268.133"/>
</g>
<!-- Node3 -->
<g id="node3" class="node"><title>Node3</title>
<g id="a_node3"><a xlink:href="stm_8h.html#a5594d7fca67459d7d9738436af589c5c" target="_top" xlink:title="read_stm_blk">
<polygon fill="none" stroke="black" points="273.5,-329.5 273.5,-348.5 348.5,-348.5 348.5,-329.5 273.5,-329.5"/>
<text text-anchor="middle" x="311" y="-336.5" font-family="Helvetica,sans-Serif" font-size="10.00">read_stm_blk</text>
</a>
</g>
</g>
<!-- Node2&#45;&gt;Node3 -->
<g id="edge2" class="edge"><title>Node2&#45;&gt;Node3</title>
<path fill="none" stroke="midnightblue" d="M236.284,-330.361C245.295,-331.417 254.569,-332.504 263.369,-333.535"/>
<polygon fill="midnightblue" stroke="midnightblue" points="263.099,-337.028 273.438,-334.715 263.913,-330.075 263.099,-337.028"/>
</g>
<!-- Node4 -->
<g id="node4" class="node"><title>Node4</title>
<g id="a_node4"><a xlink:href="stm__fraser_8c.html#aca0d40200c3502bdabeb44b27dfd4105" target="_top" xlink:title="search_stm_tx_entry">
<polygon fill="none" stroke="black" points="702,-272.5 702,-291.5 810,-291.5 810,-272.5 702,-272.5"/>
<text text-anchor="middle" x="756" y="-279.5" font-family="Helvetica,sans-Serif" font-size="10.00">search_stm_tx_entry</text>
</a>
</g>
</g>
<!-- Node3&#45;&gt;Node4 -->
<g id="edge3" class="edge"><title>Node3&#45;&gt;Node4</title>
<path fill="none" stroke="midnightblue" d="M320.312,-348.93C332.84,-363.032 358.084,-388.233 386,-398 437.18,-415.906 455.079,-409.808 508,-398 596.094,-378.344 689.87,-323.696 732.078,-297.027"/>
<polygon fill="midnightblue" stroke="midnightblue" points="733.974,-299.969 740.514,-291.633 730.203,-294.072 733.974,-299.969"/>
</g>
<!-- Node5 -->
<g id="node5" class="node"><title>Node5</title>
<g id="a_node5"><a xlink:href="stm__fraser_8c.html#a75177d9fa0335bd50b6fae9a68341443" target="_top" xlink:title="alloc_stm_tx_entry">
<polygon fill="none" stroke="black" points="397.5,-310.5 397.5,-329.5 496.5,-329.5 496.5,-310.5 397.5,-310.5"/>
<text text-anchor="middle" x="447" y="-317.5" font-family="Helvetica,sans-Serif" font-size="10.00">alloc_stm_tx_entry</text>
</a>
</g>
</g>
<!-- Node3&#45;&gt;Node5 -->
<g id="edge4" class="edge"><title>Node3&#45;&gt;Node5</title>
<path fill="none" stroke="midnightblue" d="M348.616,-333.808C360.596,-332.11 374.219,-330.178 387.402,-328.309"/>
<polygon fill="midnightblue" stroke="midnightblue" points="387.953,-331.766 397.362,-326.896 386.97,-324.835 387.953,-331.766"/>
</g>
<!-- Node6 -->
<g id="node6" class="node"><title>Node6</title>
<g id="a_node6"><a xlink:href="stm__fraser_8c.html#a4e016a575dac2ee3931ef9ec94550d33" target="_top" xlink:title="read_blk_data">
<polygon fill="none" stroke="black" points="408.5,-196.5 408.5,-215.5 485.5,-215.5 485.5,-196.5 408.5,-196.5"/>
<text text-anchor="middle" x="447" y="-203.5" font-family="Helvetica,sans-Serif" font-size="10.00">read_blk_data</text>
</a>
</g>
</g>
<!-- Node3&#45;&gt;Node6 -->
<g id="edge5" class="edge"><title>Node3&#45;&gt;Node6</title>
<path fill="none" stroke="midnightblue" d="M321.637,-329.435C344.127,-307.113 400.323,-251.336 428.833,-223.039"/>
<polygon fill="midnightblue" stroke="midnightblue" points="431.457,-225.366 436.089,-215.837 426.526,-220.398 431.457,-225.366"/>
</g>
<!-- Node17 -->
<g id="node17" class="node"><title>Node17</title>
<g id="a_node17"><a xlink:href="stm__fraser_8c.html#a31ea9d61a84d817aac10ffbc4ba9f296" target="_top" xlink:title="commit_stm_tx">
<polygon fill="none" stroke="black" points="563,-234.5 563,-253.5 647,-253.5 647,-234.5 563,-234.5"/>
<text text-anchor="middle" x="605" y="-241.5" font-family="Helvetica,sans-Serif" font-size="10.00">commit_stm_tx</text>
</a>
</g>
</g>
<!-- Node3&#45;&gt;Node17 -->
<g id="edge22" class="edge"><title>Node3&#45;&gt;Node17</title>
<path fill="none" stroke="midnightblue" d="M325.671,-348.558C339.957,-357.915 363.399,-371.536 386,-377 438.704,-389.741 459.726,-401.691 508,-377 554.946,-352.988 584.204,-294.129 596.801,-263.397"/>
<polygon fill="midnightblue" stroke="midnightblue" points="600.171,-264.39 600.563,-253.802 593.654,-261.834 600.171,-264.39"/>
</g>
<!-- Node18 -->
<g id="node18" class="node"><title>Node18</title>
<g id="a_node18"><a xlink:href="stm__fraser_8c.html#ad6e1404788ef0e710c991c3e00fd5c39" target="_top" xlink:title="abort_stm_tx">
<polygon fill="none" stroke="black" points="410,-348.5 410,-367.5 484,-367.5 484,-348.5 410,-348.5"/>
<text text-anchor="middle" x="447" y="-355.5" font-family="Helvetica,sans-Serif" font-size="10.00">abort_stm_tx</text>
</a>
</g>
</g>
<!-- Node3&#45;&gt;Node18 -->
<g id="edge21" class="edge"><title>Node3&#45;&gt;Node18</title>
<path fill="none" stroke="midnightblue" d="M348.616,-344.192C364.402,-346.43 383.044,-349.073 399.769,-351.445"/>
<polygon fill="midnightblue" stroke="midnightblue" points="399.5,-354.942 409.892,-352.88 400.483,-348.011 399.5,-354.942"/>
</g>
<!-- Node7 -->
<g id="node7" class="node"><title>Node7</title>
<g id="a_node7"><a xlink:href="stm__fraser_8c.html#a3baf54f8c2c6bdb79109865e5500cbd9" target="_top" xlink:title="rc_up_descriptor">
<polygon fill="none" stroke="black" points="711.5,-215.5 711.5,-234.5 800.5,-234.5 800.5,-215.5 711.5,-215.5"/>
<text text-anchor="middle" x="756" y="-222.5" font-family="Helvetica,sans-Serif" font-size="10.00">rc_up_descriptor</text>
</a>
</g>
</g>
<!-- Node6&#45;&gt;Node7 -->
<g id="edge6" class="edge"><title>Node6&#45;&gt;Node7</title>
<path fill="none" stroke="midnightblue" d="M485.644,-208.33C539.603,-211.669 639.225,-217.835 701.022,-221.659"/>
<polygon fill="midnightblue" stroke="midnightblue" points="701.153,-225.174 711.351,-222.299 701.586,-218.187 701.153,-225.174"/>
</g>
<!-- Node9 -->
<g id="node9" class="node"><title>Node9</title>
<g id="a_node9"><a xlink:href="stm__fraser_8c.html#ad41e28910c7dbe8cfd98c9e0c168c9dc" target="_top" xlink:title="rc_down_descriptor">
<polygon fill="none" stroke="black" points="705.5,-158.5 705.5,-177.5 806.5,-177.5 806.5,-158.5 705.5,-158.5"/>
<text text-anchor="middle" x="756" y="-165.5" font-family="Helvetica,sans-Serif" font-size="10.00">rc_down_descriptor</text>
</a>
</g>
</g>
<!-- Node6&#45;&gt;Node9 -->
<g id="edge8" class="edge"><title>Node6&#45;&gt;Node9</title>
<path fill="none" stroke="midnightblue" d="M485.644,-201.34C537.97,-194.864 633.238,-183.071 695.31,-175.388"/>
<polygon fill="midnightblue" stroke="midnightblue" points="695.861,-178.847 705.355,-174.145 695.001,-171.9 695.861,-178.847"/>
</g>
<!-- Node6&#45;&gt;Node17 -->
<g id="edge17" class="edge"><title>Node6&#45;&gt;Node17</title>
<path fill="none" stroke="midnightblue" d="M485.763,-215.199C506.564,-220.266 532.621,-226.613 554.977,-232.058"/>
<polygon fill="midnightblue" stroke="midnightblue" points="554.411,-235.523 564.955,-234.489 556.068,-228.722 554.411,-235.523"/>
</g>
<!-- Node8 -->
<g id="node8" class="node"><title>Node8</title>
<g id="a_node8"><a xlink:href="stm__fraser_8c.html#a1a59f05201730ec9ba9a348070073e57" target="_top" xlink:title="rc_delta_descriptor">
<polygon fill="none" stroke="black" points="846.5,-215.5 846.5,-234.5 945.5,-234.5 945.5,-215.5 846.5,-215.5"/>
<text text-anchor="middle" x="896" y="-222.5" font-family="Helvetica,sans-Serif" font-size="10.00">rc_delta_descriptor</text>
</a>
</g>
</g>
<!-- Node7&#45;&gt;Node8 -->
<g id="edge7" class="edge"><title>Node7&#45;&gt;Node8</title>
<path fill="none" stroke="midnightblue" d="M800.664,-225C811.902,-225 824.18,-225 836.053,-225"/>
<polygon fill="midnightblue" stroke="midnightblue" points="836.346,-228.5 846.346,-225 836.346,-221.5 836.346,-228.5"/>
</g>
<!-- Node10 -->
<g id="node10" class="node"><title>Node10</title>
<g id="a_node10"><a xlink:href="stm__fraser_8c.html#afd1a951db8c0f79e6bf20624e7dca338" target="_top" xlink:title="release_descriptor">
<polygon fill="none" stroke="black" points="848,-156.5 848,-175.5 944,-175.5 944,-156.5 848,-156.5"/>
<text text-anchor="middle" x="896" y="-163.5" font-family="Helvetica,sans-Serif" font-size="10.00">release_descriptor</text>
</a>
</g>
</g>
<!-- Node9&#45;&gt;Node10 -->
<g id="edge9" class="edge"><title>Node9&#45;&gt;Node10</title>
<path fill="none" stroke="midnightblue" d="M806.821,-167.278C816.78,-167.134 827.319,-166.981 837.512,-166.833"/>
<polygon fill="midnightblue" stroke="midnightblue" points="837.608,-170.332 847.557,-166.688 837.507,-163.333 837.608,-170.332"/>
</g>
<!-- Node11 -->
<g id="node11" class="node"><title>Node11</title>
<g id="a_node11"><a xlink:href="gc_8c.html#a80f4a5c119aa70ab0452a73dfac21bbd" target="_top" xlink:title="fr_gc_free">
<polygon fill="none" stroke="black" points="1128,-118.5 1128,-137.5 1188,-137.5 1188,-118.5 1128,-118.5"/>
<text text-anchor="middle" x="1158" y="-125.5" font-family="Helvetica,sans-Serif" font-size="10.00">fr_gc_free</text>
</a>
</g>
</g>
<!-- Node10&#45;&gt;Node11 -->
<g id="edge10" class="edge"><title>Node10&#45;&gt;Node11</title>
<path fill="none" stroke="midnightblue" d="M944.111,-162.761C980.777,-159.829 1032.85,-154.765 1078,-147 1091.16,-144.736 1105.4,-141.548 1118.11,-138.428"/>
<polygon fill="midnightblue" stroke="midnightblue" points="1119.08,-141.793 1127.93,-135.96 1117.38,-135.004 1119.08,-141.793"/>
</g>
<!-- Node16 -->
<g id="node16" class="node"><title>Node16</title>
<g id="a_node16"><a xlink:href="gc_8c.html#a1e1a80c2d04496b5b70bd86b59510355" target="_top" xlink:title="fr_gc_unsafe_free">
<polygon fill="none" stroke="black" points="982.5,-118.5 982.5,-137.5 1077.5,-137.5 1077.5,-118.5 982.5,-118.5"/>
<text text-anchor="middle" x="1030" y="-125.5" font-family="Helvetica,sans-Serif" font-size="10.00">fr_gc_unsafe_free</text>
</a>
</g>
</g>
<!-- Node10&#45;&gt;Node16 -->
<g id="edge15" class="edge"><title>Node10&#45;&gt;Node16</title>
<path fill="none" stroke="midnightblue" d="M930.309,-156.411C947.193,-151.551 967.895,-145.591 985.971,-140.387"/>
<polygon fill="midnightblue" stroke="midnightblue" points="987.06,-143.716 995.701,-137.586 985.123,-136.989 987.06,-143.716"/>
</g>
<!-- Node12 -->
<g id="node12" class="node"><title>Node12</title>
<g id="a_node12"><a xlink:href="gc_8c.html#afb494e950c8c6b5661974748ae89b61e" target="_top" xlink:title="chunk_from_cache">
<polygon fill="none" stroke="black" points="1238.5,-117.5 1238.5,-136.5 1337.5,-136.5 1337.5,-117.5 1238.5,-117.5"/>
<text text-anchor="middle" x="1288" y="-124.5" font-family="Helvetica,sans-Serif" font-size="10.00">chunk_from_cache</text>
</a>
</g>
</g>
<!-- Node11&#45;&gt;Node12 -->
<g id="edge11" class="edge"><title>Node11&#45;&gt;Node12</title>
<path fill="none" stroke="midnightblue" d="M1188.05,-127.773C1200.03,-127.679 1214.39,-127.567 1228.39,-127.458"/>
<polygon fill="midnightblue" stroke="midnightblue" points="1228.51,-130.957 1238.49,-127.379 1228.46,-123.957 1228.51,-130.957"/>
</g>
<!-- Node13 -->
<g id="node13" class="node"><title>Node13</title>
<g id="a_node13"><a xlink:href="gc_8c.html#a2a6f41199ed37925df4cc7b9909dc0ed" target="_top" xlink:title="get_empty_chunks">
<polygon fill="none" stroke="black" points="1374.5,-76.5 1374.5,-95.5 1473.5,-95.5 1473.5,-76.5 1374.5,-76.5"/>
<text text-anchor="middle" x="1424" y="-83.5" font-family="Helvetica,sans-Serif" font-size="10.00">get_empty_chunks</text>
</a>
</g>
</g>
<!-- Node12&#45;&gt;Node13 -->
<g id="edge12" class="edge"><title>Node12&#45;&gt;Node13</title>
<path fill="none" stroke="midnightblue" d="M1320.08,-117.491C1338.47,-111.865 1361.98,-104.671 1381.89,-98.5798"/>
<polygon fill="midnightblue" stroke="midnightblue" points="1383.09,-101.872 1391.63,-95.5997 1381.04,-95.1788 1383.09,-101.872"/>
</g>
<!-- Node14 -->
<g id="node14" class="node"><title>Node14</title>
<g id="a_node14"><a xlink:href="gc_8c.html#ac360b80b93ad00f0fba18a1993e1d6a0" target="_top" xlink:title="add_chunks_to_list">
<polygon fill="none" stroke="black" points="1510.5,-38.5 1510.5,-57.5 1611.5,-57.5 1611.5,-38.5 1510.5,-38.5"/>
<text text-anchor="middle" x="1561" y="-45.5" font-family="Helvetica,sans-Serif" font-size="10.00">add_chunks_to_list</text>
</a>
</g>
</g>
<!-- Node13&#45;&gt;Node14 -->
<g id="edge13" class="edge"><title>Node13&#45;&gt;Node14</title>
<path fill="none" stroke="midnightblue" d="M1459.07,-76.411C1476.41,-71.5281 1497.7,-65.5357 1516.25,-60.315"/>
<polygon fill="midnightblue" stroke="midnightblue" points="1517.27,-63.6646 1525.94,-57.5859 1515.37,-56.9265 1517.27,-63.6646"/>
</g>
<!-- Node15 -->
<g id="node15" class="node"><title>Node15</title>
<g id="a_node15"><a xlink:href="gc_8c.html#ade31863985bdaa481ade142bdfb6d99f" target="_top" xlink:title="alloc_more_chunks">
<polygon fill="none" stroke="black" points="1510.5,-76.5 1510.5,-95.5 1611.5,-95.5 1611.5,-76.5 1510.5,-76.5"/>
<text text-anchor="middle" x="1561" y="-83.5" font-family="Helvetica,sans-Serif" font-size="10.00">alloc_more_chunks</text>
</a>
</g>
</g>
<!-- Node13&#45;&gt;Node15 -->
<g id="edge14" class="edge"><title>Node13&#45;&gt;Node15</title>
<path fill="none" stroke="midnightblue" d="M1473.74,-86C1482.31,-86 1491.33,-86 1500.17,-86"/>
<polygon fill="midnightblue" stroke="midnightblue" points="1500.43,-89.5001 1510.43,-86 1500.43,-82.5001 1500.43,-89.5001"/>
</g>
<!-- Node16&#45;&gt;Node11 -->
<g id="edge16" class="edge"><title>Node16&#45;&gt;Node11</title>
<path fill="none" stroke="midnightblue" d="M1077.56,-128C1090.7,-128 1104.87,-128 1117.56,-128"/>
<polygon fill="midnightblue" stroke="midnightblue" points="1117.81,-131.5 1127.81,-128 1117.81,-124.5 1117.81,-131.5"/>
</g>
<!-- Node17&#45;&gt;Node4 -->
<g id="edge20" class="edge"><title>Node17&#45;&gt;Node4</title>
<path fill="none" stroke="midnightblue" d="M643.599,-253.589C663.084,-258.558 687.075,-264.677 707.796,-269.961"/>
<polygon fill="midnightblue" stroke="midnightblue" points="707.117,-273.4 717.671,-272.48 708.846,-266.617 707.117,-273.4"/>
</g>
<!-- Node17&#45;&gt;Node7 -->
<g id="edge18" class="edge"><title>Node17&#45;&gt;Node7</title>
<path fill="none" stroke="midnightblue" d="M647.109,-238.758C663.893,-236.618 683.527,-234.114 701.412,-231.833"/>
<polygon fill="midnightblue" stroke="midnightblue" points="701.944,-235.294 711.421,-230.557 701.059,-228.35 701.944,-235.294"/>
</g>
<!-- Node17&#45;&gt;Node9 -->
<g id="edge19" class="edge"><title>Node17&#45;&gt;Node9</title>
<path fill="none" stroke="midnightblue" d="M624.871,-234.375C650.733,-221.183 697.374,-197.393 727.227,-182.166"/>
<polygon fill="midnightblue" stroke="midnightblue" points="728.964,-185.209 736.282,-177.547 725.784,-178.973 728.964,-185.209"/>
</g>
<!-- Node19&#45;&gt;Node4 -->
<g id="edge24" class="edge"><title>Node19&#45;&gt;Node4</title>
<path fill="none" stroke="midnightblue" d="M349.603,-262.539C361.254,-263.818 374.146,-265.103 386,-266 493.174,-274.108 618.193,-278.458 691.744,-280.495"/>
<polygon fill="midnightblue" stroke="midnightblue" points="691.682,-283.994 701.774,-280.767 691.872,-276.997 691.682,-283.994"/>
</g>
<!-- Node19&#45;&gt;Node5 -->
<g id="edge25" class="edge"><title>Node19&#45;&gt;Node5</title>
<path fill="none" stroke="midnightblue" d="M329.415,-267.531C344.268,-275.517 366.286,-287.019 386,-296 394.072,-299.677 402.881,-303.372 411.202,-306.723"/>
<polygon fill="midnightblue" stroke="midnightblue" points="410.086,-310.046 420.672,-310.477 412.666,-303.539 410.086,-310.046"/>
</g>
<!-- Node19&#45;&gt;Node6 -->
<g id="edge26" class="edge"><title>Node19&#45;&gt;Node6</title>
<path fill="none" stroke="midnightblue" d="M336.578,-248.462C357.601,-240.304 388.091,-228.472 411.549,-219.369"/>
<polygon fill="midnightblue" stroke="midnightblue" points="413.068,-222.534 421.124,-215.653 410.535,-216.008 413.068,-222.534"/>
</g>
<!-- Node19&#45;&gt;Node17 -->
<g id="edge38" class="edge"><title>Node19&#45;&gt;Node17</title>
<path fill="none" stroke="midnightblue" d="M349.576,-256.198C401.306,-253.718 494.638,-249.243 552.739,-246.458"/>
<polygon fill="midnightblue" stroke="midnightblue" points="552.986,-249.95 562.807,-245.975 552.651,-242.958 552.986,-249.95"/>
</g>
<!-- Node19&#45;&gt;Node18 -->
<g id="edge37" class="edge"><title>Node19&#45;&gt;Node18</title>
<path fill="none" stroke="midnightblue" d="M318.319,-267.757C329.787,-284.704 355.665,-319.616 386,-339 390.376,-341.796 395.196,-344.209 400.143,-346.285"/>
<polygon fill="midnightblue" stroke="midnightblue" points="399.14,-349.646 409.732,-349.873 401.593,-343.09 399.14,-349.646"/>
</g>
<!-- Node20 -->
<g id="node20" class="node"><title>Node20</title>
<g id="a_node20"><a xlink:href="gc_8c.html#a5c5981457deeeefd60df569f6265f59c" target="_top" xlink:title="fr_gc_alloc">
<polygon fill="none" stroke="black" points="998,-0.5 998,-19.5 1062,-19.5 1062,-0.5 998,-0.5"/>
<text text-anchor="middle" x="1030" y="-7.5" font-family="Helvetica,sans-Serif" font-size="10.00">fr_gc_alloc</text>
</a>
</g>
</g>
<!-- Node19&#45;&gt;Node20 -->
<g id="edge27" class="edge"><title>Node19&#45;&gt;Node20</title>
<path fill="none" stroke="midnightblue" d="M313.285,-248.437C317.714,-219.165 334.981,-129.814 386,-81 460.246,-9.96368 501.245,-4 604,-4 604,-4 604,-4 757,-4 838.7,-4 934.169,-6.73909 987.504,-8.51589"/>
<polygon fill="midnightblue" stroke="midnightblue" points="987.48,-12.017 997.593,-8.85732 987.717,-5.02099 987.48,-12.017"/>
</g>
<!-- Node23 -->
<g id="node23" class="node"><title>Node23</title>
<g id="a_node23"><a xlink:href="namespaceanonymous__namespace_02libitm-5_813_0014_8cpp_03.html#a8b7be7cf3afef27c0623b844ce9116d8" target="_top" xlink:title="anonymous_namespace\l\{libitm&#45;5::13,14::cpp\}\l::memcpy">
<polygon fill="none" stroke="black" points="386,-90.5 386,-131.5 508,-131.5 508,-90.5 386,-90.5"/>
<text text-anchor="start" x="394" y="-119.5" font-family="Helvetica,sans-Serif" font-size="10.00">anonymous_namespace</text>
<text text-anchor="start" x="394" y="-108.5" font-family="Helvetica,sans-Serif" font-size="10.00">{libitm&#45;5::13,14::cpp}</text>
<text text-anchor="middle" x="447" y="-97.5" font-family="Helvetica,sans-Serif" font-size="10.00">::memcpy</text>
</a>
</g>
</g>
<!-- Node19&#45;&gt;Node23 -->
<g id="edge33" class="edge"><title>Node19&#45;&gt;Node23</title>
<path fill="none" stroke="midnightblue" d="M320.792,-248.355C340.683,-226.535 389.77,-172.685 420.238,-139.261"/>
<polygon fill="midnightblue" stroke="midnightblue" points="423.032,-141.391 427.183,-131.643 417.859,-136.675 423.032,-141.391"/>
</g>
<!-- Node20&#45;&gt;Node14 -->
<g id="edge28" class="edge"><title>Node20&#45;&gt;Node14</title>
<path fill="none" stroke="midnightblue" d="M1062.12,-12.2352C1147.7,-18.3831 1387.72,-35.6244 1500.3,-43.7112"/>
<polygon fill="midnightblue" stroke="midnightblue" points="1500.23,-47.2157 1510.46,-44.4412 1500.73,-40.2336 1500.23,-47.2157"/>
</g>
<!-- Node21 -->
<g id="node21" class="node"><title>Node21</title>
<g id="a_node21"><a xlink:href="gc_8c.html#a6dffa65320ddab40d01f198433b3aeb6" target="_top" xlink:title="get_alloc_chunk">
<polygon fill="none" stroke="black" points="1114.5,-38.5 1114.5,-57.5 1201.5,-57.5 1201.5,-38.5 1114.5,-38.5"/>
<text text-anchor="middle" x="1158" y="-45.5" font-family="Helvetica,sans-Serif" font-size="10.00">get_alloc_chunk</text>
</a>
</g>
</g>
<!-- Node20&#45;&gt;Node21 -->
<g id="edge29" class="edge"><title>Node20&#45;&gt;Node21</title>
<path fill="none" stroke="midnightblue" d="M1062.15,-19.3933C1078.23,-24.2436 1098.07,-30.2274 1115.44,-35.4664"/>
<polygon fill="midnightblue" stroke="midnightblue" points="1114.75,-38.9143 1125.34,-38.4509 1116.77,-32.2124 1114.75,-38.9143"/>
</g>
<!-- Node21&#45;&gt;Node14 -->
<g id="edge32" class="edge"><title>Node21&#45;&gt;Node14</title>
<path fill="none" stroke="midnightblue" d="M1201.53,-48C1273.25,-48 1418.39,-48 1500.28,-48"/>
<polygon fill="midnightblue" stroke="midnightblue" points="1500.43,-51.5001 1510.43,-48 1500.43,-44.5001 1500.43,-51.5001"/>
</g>
<!-- Node22 -->
<g id="node22" class="node"><title>Node22</title>
<g id="a_node22"><a xlink:href="gc_8c.html#ae47e099483bed50da4e41b906c300b99" target="_top" xlink:title="get_filled_chunks">
<polygon fill="none" stroke="black" points="1242,-76.5 1242,-95.5 1334,-95.5 1334,-76.5 1242,-76.5"/>
<text text-anchor="middle" x="1288" y="-83.5" font-family="Helvetica,sans-Serif" font-size="10.00">get_filled_chunks</text>
</a>
</g>
</g>
<!-- Node21&#45;&gt;Node22 -->
<g id="edge30" class="edge"><title>Node21&#45;&gt;Node22</title>
<path fill="none" stroke="midnightblue" d="M1191.3,-57.589C1207.52,-62.4044 1227.38,-68.2988 1244.79,-73.468"/>
<polygon fill="midnightblue" stroke="midnightblue" points="1244.13,-76.9233 1254.71,-76.4141 1246.12,-70.2127 1244.13,-76.9233"/>
</g>
<!-- Node22&#45;&gt;Node13 -->
<g id="edge31" class="edge"><title>Node22&#45;&gt;Node13</title>
<path fill="none" stroke="midnightblue" d="M1334.37,-86C1343.95,-86 1354.19,-86 1364.18,-86"/>
<polygon fill="midnightblue" stroke="midnightblue" points="1364.47,-89.5001 1374.47,-86 1364.47,-82.5001 1364.47,-89.5001"/>
</g>
<!-- Node24 -->
<g id="node24" class="node"><title>Node24</title>
<g id="a_node24"><a xlink:href="namespaceanonymous__namespace_02oreceager_8cpp_03.html#a7a88c7a7453bbfaca53eeac03b80a5d6" target="_top" xlink:title="anonymous_namespace\l\{oreceager::cpp\}::read">
<polygon fill="none" stroke="black" points="544,-33 544,-63 666,-63 666,-33 544,-33"/>
<text text-anchor="start" x="552" y="-51" font-family="Helvetica,sans-Serif" font-size="10.00">anonymous_namespace</text>
<text text-anchor="middle" x="605" y="-40" font-family="Helvetica,sans-Serif" font-size="10.00">{oreceager::cpp}::read</text>
</a>
</g>
</g>
<!-- Node23&#45;&gt;Node24 -->
<g id="edge34" class="edge"><title>Node23&#45;&gt;Node24</title>
<path fill="none" stroke="midnightblue" d="M499.08,-90.3714C517.846,-82.7928 538.982,-74.2573 557.34,-66.8436"/>
<polygon fill="midnightblue" stroke="midnightblue" points="558.697,-70.0701 566.659,-63.0801 556.076,-63.5794 558.697,-70.0701"/>
</g>
<!-- Node25 -->
<g id="node25" class="node"><title>Node25</title>
<g id="a_node25"><a xlink:href="namespaceitm2stm.html#a334b9615cac957b9ce7a4743beaaaf53" target="_top" xlink:title="itm2stm::add_bytes">
<polygon fill="none" stroke="black" points="553.5,-120.5 553.5,-139.5 656.5,-139.5 656.5,-120.5 553.5,-120.5"/>
<text text-anchor="middle" x="605" y="-127.5" font-family="Helvetica,sans-Serif" font-size="10.00">itm2stm::add_bytes</text>
</a>
</g>
</g>
<!-- Node23&#45;&gt;Node25 -->
<g id="edge35" class="edge"><title>Node23&#45;&gt;Node25</title>
<path fill="none" stroke="midnightblue" d="M508.314,-118.346C519.852,-119.751 531.936,-121.223 543.481,-122.629"/>
<polygon fill="midnightblue" stroke="midnightblue" points="543.111,-126.11 553.461,-123.845 543.957,-119.161 543.111,-126.11"/>
</g>
<!-- Node26 -->
<g id="node26" class="node"><title>Node26</title>
<g id="a_node26"><a xlink:href="namespaceitm2stm.html#aa9908b113027ae21130750939980ee0b" target="_top" xlink:title="itm2stm::offset_of">
<polygon fill="none" stroke="black" points="557,-82.5 557,-101.5 653,-101.5 653,-82.5 557,-82.5"/>
<text text-anchor="middle" x="605" y="-89.5" font-family="Helvetica,sans-Serif" font-size="10.00">itm2stm::offset_of</text>
</a>
</g>
</g>
<!-- Node23&#45;&gt;Node26 -->
<g id="edge36" class="edge"><title>Node23&#45;&gt;Node26</title>
<path fill="none" stroke="midnightblue" d="M508.314,-103.654C520.907,-102.12 534.149,-100.508 546.631,-98.9872"/>
<polygon fill="midnightblue" stroke="midnightblue" points="547.404,-102.419 556.907,-97.7357 546.557,-95.4704 547.404,-102.419"/>
</g>
</g>
</svg>
