<?xml version="1.0" encoding="UTF-8" standalone="no"?>
<!DOCTYPE svg PUBLIC "-//W3C//DTD SVG 1.1//EN"
 "http://www.w3.org/Graphics/SVG/1.1/DTD/svg11.dtd">
<!-- Generated by graphviz version 2.36.0 (20140111.2315)
 -->
<!-- Title: search_predecessors Pages: 1 -->
<!--zoomable 484 -->
<svg id="main" version="1.1" xmlns="http://www.w3.org/2000/svg" xmlns:xlink="http://www.w3.org/1999/xlink" xml:space="preserve" onload="init(evt)">
<style type="text/css"><![CDATA[
.edge:hover path { stroke: red; }
.edge:hover polygon { stroke: red; fill: red; }
]]></style>
<script type="text/javascript"><![CDATA[
var edges = document.getElementsByTagName('g');
if (edges && edges.length) {
  for (var i=0;i<edges.length;i++) {
    if (edges[i].id.substr(0,4)=='edge') {
      edges[i].setAttribute('class','edge');
    }
  }
}
]]></script>
        <defs>
                <circle id="rim" cx="0" cy="0" r="7"/>
                <circle id="rim2" cx="0" cy="0" r="3.5"/>
                <g id="zoomPlus">
                        <use xlink:href="#rim" fill="#404040">
                                <set attributeName="fill" to="#808080" begin="zoomplus.mouseover" end="zoomplus.mouseout"/>
                        </use>
                        <path d="M-4,0h8M0,-4v8" fill="none" stroke="white" stroke-width="1.5" pointer-events="none"/>
                </g>
                <g id="zoomMin">
                        <use xlink:href="#rim" fill="#404040">
                                <set attributeName="fill" to="#808080" begin="zoomminus.mouseover" end="zoomminus.mouseout"/>
                        </use>
                        <path d="M-4,0h8" fill="none" stroke="white" stroke-width="1.5" pointer-events="none"/>
                </g>
                <g id="dirArrow">
                        <path fill="none" stroke="white" stroke-width="1.5" d="M0,-3.0v7 M-2.5,-0.5L0,-3.0L2.5,-0.5"/>
                </g>
               <g id="resetDef">
                       <use xlink:href="#rim2" fill="#404040">
                               <set attributeName="fill" to="#808080" begin="reset.mouseover" end="reset.mouseout"/>
                       </use>
               </g>
        </defs>

<script type="text/javascript">
var viewWidth = 1196;
var viewHeight = 484;
var sectionId = 'dynsection-11';
</script>
<script xlink:href="svgpan.js"/>
<svg id="graph" class="graph">
<g id="viewport">
<title>search_predecessors</title>
<!-- Node1 -->
<g id="node1" class="node"><title>Node1</title>
<polygon fill="#bfbfbf" stroke="black" points="0,-76.5 0,-95.5 110,-95.5 110,-76.5 0,-76.5"/>
<text text-anchor="middle" x="55" y="-83.5" font-family="Helvetica,sans-Serif" font-size="10.00">search_predecessors</text>
</g>
<!-- Node2 -->
<g id="node2" class="node"><title>Node2</title>
<g id="a_node2"><a xlink:href="stmskip_8cc.html#ad17c6ea2fd390c2dd637a34fdeb0b3df" target="_top" xlink:title="stmskip_update">
<polygon fill="none" stroke="black" points="148,-114.5 148,-133.5 234,-133.5 234,-114.5 148,-114.5"/>
<text text-anchor="middle" x="191" y="-121.5" font-family="Helvetica,sans-Serif" font-size="10.00">stmskip_update</text>
</a>
</g>
</g>
<!-- Node1&#45;&gt;Node2 -->
<g id="edge1" class="edge"><title>Node1&#45;&gt;Node2</title>
<path fill="none" stroke="midnightblue" d="M99.4383,-98.3183C117.849,-103.539 138.98,-109.532 156.197,-114.414"/>
<polygon fill="midnightblue" stroke="midnightblue" points="100.389,-94.9501 89.8139,-95.589 98.4796,-101.685 100.389,-94.9501"/>
</g>
<!-- Node40 -->
<g id="node40" class="node"><title>Node40</title>
<g id="a_node40"><a xlink:href="stmskip_8cc.html#a3925aa5d2590fc57854aa9d670f58e4d" target="_top" xlink:title="stmskip_remove">
<polygon fill="none" stroke="black" points="146.5,-76.5 146.5,-95.5 235.5,-95.5 235.5,-76.5 146.5,-76.5"/>
<text text-anchor="middle" x="191" y="-83.5" font-family="Helvetica,sans-Serif" font-size="10.00">stmskip_remove</text>
</a>
</g>
</g>
<!-- Node1&#45;&gt;Node40 -->
<g id="edge45" class="edge"><title>Node1&#45;&gt;Node40</title>
<path fill="none" stroke="midnightblue" d="M120.391,-86C129.198,-86 138.065,-86 146.383,-86"/>
<polygon fill="midnightblue" stroke="midnightblue" points="120.117,-82.5001 110.117,-86 120.117,-89.5001 120.117,-82.5001"/>
</g>
<!-- Node41 -->
<g id="node41" class="node"><title>Node41</title>
<g id="a_node41"><a xlink:href="stmskip_8cc.html#a09de30bf6124d9640899b27c93b49471" target="_top" xlink:title="stmskip_lookup">
<polygon fill="none" stroke="black" points="148.5,-38.5 148.5,-57.5 233.5,-57.5 233.5,-38.5 148.5,-38.5"/>
<text text-anchor="middle" x="191" y="-45.5" font-family="Helvetica,sans-Serif" font-size="10.00">stmskip_lookup</text>
</a>
</g>
</g>
<!-- Node1&#45;&gt;Node41 -->
<g id="edge47" class="edge"><title>Node1&#45;&gt;Node41</title>
<path fill="none" stroke="midnightblue" d="M99.4383,-73.6817C117.849,-68.4607 138.98,-62.4684 156.197,-57.5859"/>
<polygon fill="midnightblue" stroke="midnightblue" points="98.4796,-70.3155 89.8139,-76.411 100.389,-77.0499 98.4796,-70.3155"/>
</g>
<!-- Node3 -->
<g id="node3" class="node"><title>Node3</title>
<g id="a_node3"><a xlink:href="stmskip_8cc.html#a9ab04b9e875013b4d2dd249d0c97dce5" target="_top" xlink:title="for">
<polygon fill="none" stroke="black" points="272.5,-76.5 272.5,-95.5 301.5,-95.5 301.5,-76.5 272.5,-76.5"/>
<text text-anchor="middle" x="287" y="-83.5" font-family="Helvetica,sans-Serif" font-size="10.00">for</text>
</a>
</g>
</g>
<!-- Node2&#45;&gt;Node3 -->
<g id="edge2" class="edge"><title>Node2&#45;&gt;Node3</title>
<path fill="none" stroke="midnightblue" d="M225.434,-110.484C241.649,-103.929 260.22,-96.4219 272.476,-91.4672"/>
<polygon fill="midnightblue" stroke="midnightblue" points="223.679,-107.418 215.72,-114.411 226.303,-113.908 223.679,-107.418"/>
</g>
<!-- Node4 -->
<g id="node4" class="node"><title>Node4</title>
<g id="a_node4"><a xlink:href="heap_8h.html#a9c77dbc94ac2daa5b202375477e26188" target="_top" xlink:title="heap_isValid">
<polygon fill="none" stroke="black" points="345,-190.5 345,-209.5 417,-209.5 417,-190.5 345,-190.5"/>
<text text-anchor="middle" x="381" y="-197.5" font-family="Helvetica,sans-Serif" font-size="10.00">heap_isValid</text>
</a>
</g>
</g>
<!-- Node3&#45;&gt;Node4 -->
<g id="edge3" class="edge"><title>Node3&#45;&gt;Node4</title>
<path fill="none" stroke="midnightblue" d="M293.95,-105.407C301.28,-126.461 315.588,-159.887 338,-181 341.961,-184.732 346.781,-187.821 351.725,-190.347"/>
<polygon fill="midnightblue" stroke="midnightblue" points="297.193,-104.063 290.747,-95.6548 290.542,-106.248 297.193,-104.063"/>
</g>
<!-- Node5 -->
<g id="node5" class="node"><title>Node5</title>
<g id="a_node5"><a xlink:href="list_8c.html#a3ed9de59a6e4cd353dee80f797da7a19" target="_top" xlink:title="findPrevious">
<polygon fill="none" stroke="black" points="345.5,-152.5 345.5,-171.5 416.5,-171.5 416.5,-152.5 345.5,-152.5"/>
<text text-anchor="middle" x="381" y="-159.5" font-family="Helvetica,sans-Serif" font-size="10.00">findPrevious</text>
</a>
</g>
</g>
<!-- Node3&#45;&gt;Node5 -->
<g id="edge4" class="edge"><title>Node3&#45;&gt;Node5</title>
<path fill="none" stroke="midnightblue" d="M307.463,-102.078C325.956,-117.355 353.145,-139.816 368.443,-152.453"/>
<polygon fill="midnightblue" stroke="midnightblue" points="309.591,-99.2959 299.652,-95.6255 305.132,-104.693 309.591,-99.2959"/>
</g>
<!-- Node34 -->
<g id="node34" class="node"><title>Node34</title>
<g id="a_node34"><a xlink:href="list_8c.html#abae8c22f79c73d231c8ddd9b795e47d9" target="_top" xlink:title="TMfindPrevious">
<polygon fill="none" stroke="black" points="338.5,-76.5 338.5,-95.5 423.5,-95.5 423.5,-76.5 338.5,-76.5"/>
<text text-anchor="middle" x="381" y="-83.5" font-family="Helvetica,sans-Serif" font-size="10.00">TMfindPrevious</text>
</a>
</g>
</g>
<!-- Node3&#45;&gt;Node34 -->
<g id="edge39" class="edge"><title>Node3&#45;&gt;Node34</title>
<path fill="none" stroke="midnightblue" d="M311.792,-86C319.941,-86 329.313,-86 338.449,-86"/>
<polygon fill="midnightblue" stroke="midnightblue" points="311.575,-82.5001 301.575,-86 311.575,-89.5001 311.575,-82.5001"/>
</g>
<!-- Node38 -->
<g id="node38" class="node"><title>Node38</title>
<g id="a_node38"><a xlink:href="rbtree_8c.html#a14bd83586612336b5eb09f902e95b02f" target="_top" xlink:title="insert">
<polygon fill="none" stroke="black" points="360.5,-38.5 360.5,-57.5 401.5,-57.5 401.5,-38.5 360.5,-38.5"/>
<text text-anchor="middle" x="381" y="-45.5" font-family="Helvetica,sans-Serif" font-size="10.00">insert</text>
</a>
</g>
</g>
<!-- Node3&#45;&gt;Node38 -->
<g id="edge43" class="edge"><title>Node3&#45;&gt;Node38</title>
<path fill="none" stroke="midnightblue" d="M311.227,-76.4063C326.352,-70.1592 345.869,-62.0976 360.246,-56.1592"/>
<polygon fill="midnightblue" stroke="midnightblue" points="309.481,-73.3404 301.575,-80.393 312.154,-79.8102 309.481,-73.3404"/>
</g>
<!-- Node39 -->
<g id="node39" class="node"><title>Node39</title>
<g id="a_node39"><a xlink:href="rbtree_8c.html#a47dc2cb2c9de9c39f968f120e1fe9ed4" target="_top" xlink:title="TMinsert">
<polygon fill="none" stroke="black" points="353.5,-0.5 353.5,-19.5 408.5,-19.5 408.5,-0.5 353.5,-0.5"/>
<text text-anchor="middle" x="381" y="-7.5" font-family="Helvetica,sans-Serif" font-size="10.00">TMinsert</text>
</a>
</g>
</g>
<!-- Node3&#45;&gt;Node39 -->
<g id="edge44" class="edge"><title>Node3&#45;&gt;Node39</title>
<path fill="none" stroke="midnightblue" d="M300.371,-68.2591C309.625,-55.9948 323.192,-39.9741 338,-29 342.887,-25.3785 348.574,-22.2327 354.155,-19.5993"/>
<polygon fill="midnightblue" stroke="midnightblue" points="297.5,-66.2564 294.439,-76.3996 303.157,-70.3789 297.5,-66.2564"/>
</g>
<!-- Node6 -->
<g id="node6" class="node"><title>Node6</title>
<g id="a_node6"><a xlink:href="list_8h.html#a1379a3cf001369bd5979fe53160640f5" target="_top" xlink:title="list_find">
<polygon fill="none" stroke="black" points="476,-152.5 476,-171.5 526,-171.5 526,-152.5 476,-152.5"/>
<text text-anchor="middle" x="501" y="-159.5" font-family="Helvetica,sans-Serif" font-size="10.00">list_find</text>
</a>
</g>
</g>
<!-- Node5&#45;&gt;Node6 -->
<g id="edge5" class="edge"><title>Node5&#45;&gt;Node6</title>
<path fill="none" stroke="midnightblue" d="M426.89,-162C443.565,-162 461.837,-162 475.943,-162"/>
<polygon fill="midnightblue" stroke="midnightblue" points="426.766,-158.5 416.766,-162 426.766,-165.5 426.766,-158.5"/>
</g>
<!-- Node13 -->
<g id="node13" class="node"><title>Node13</title>
<g id="a_node13"><a xlink:href="list_8h.html#a06249cb6bbda6b10f5777b96a6c122f9" target="_top" xlink:title="list_insert">
<polygon fill="none" stroke="black" points="471.5,-342.5 471.5,-361.5 530.5,-361.5 530.5,-342.5 471.5,-342.5"/>
<text text-anchor="middle" x="501" y="-349.5" font-family="Helvetica,sans-Serif" font-size="10.00">list_insert</text>
</a>
</g>
</g>
<!-- Node5&#45;&gt;Node13 -->
<g id="edge13" class="edge"><title>Node5&#45;&gt;Node13</title>
<path fill="none" stroke="midnightblue" d="M419.481,-177.062C421.085,-178.284 422.604,-179.595 424,-181 430.239,-187.281 480.964,-306.867 495.886,-342.23"/>
<polygon fill="midnightblue" stroke="midnightblue" points="421.241,-174.034 410.913,-171.67 417.513,-179.958 421.241,-174.034"/>
</g>
<!-- Node29 -->
<g id="node29" class="node"><title>Node29</title>
<g id="a_node29"><a xlink:href="list_8h.html#a857fdaea81fb44b5918c9d446707f23e" target="_top" xlink:title="Plist_insert">
<polygon fill="none" stroke="black" points="468.5,-228.5 468.5,-247.5 533.5,-247.5 533.5,-228.5 468.5,-228.5"/>
<text text-anchor="middle" x="501" y="-235.5" font-family="Helvetica,sans-Serif" font-size="10.00">Plist_insert</text>
</a>
</g>
</g>
<!-- Node5&#45;&gt;Node29 -->
<g id="edge31" class="edge"><title>Node5&#45;&gt;Node29</title>
<path fill="none" stroke="midnightblue" d="M416.42,-176.208C419.057,-177.703 421.616,-179.303 424,-181 442.953,-194.491 441.173,-205.333 460,-219 464.853,-222.523 470.462,-225.663 475.916,-228.326"/>
<polygon fill="midnightblue" stroke="midnightblue" points="417.798,-172.981 407.303,-171.533 414.604,-179.21 417.798,-172.981"/>
</g>
<!-- Node30 -->
<g id="node30" class="node"><title>Node30</title>
<g id="a_node30"><a xlink:href="list_8h.html#af5a09f2dc4e901d1c8052e282d4d87d3" target="_top" xlink:title="list_remove">
<polygon fill="none" stroke="black" points="467.5,-114.5 467.5,-133.5 534.5,-133.5 534.5,-114.5 467.5,-114.5"/>
<text text-anchor="middle" x="501" y="-121.5" font-family="Helvetica,sans-Serif" font-size="10.00">list_remove</text>
</a>
</g>
</g>
<!-- Node5&#45;&gt;Node30 -->
<g id="edge32" class="edge"><title>Node5&#45;&gt;Node30</title>
<path fill="none" stroke="midnightblue" d="M421.376,-149.32C437.32,-144.185 455.421,-138.356 470.233,-133.586"/>
<polygon fill="midnightblue" stroke="midnightblue" points="420.222,-146.014 411.776,-152.411 422.368,-152.677 420.222,-146.014"/>
</g>
<!-- Node33 -->
<g id="node33" class="node"><title>Node33</title>
<g id="a_node33"><a xlink:href="list_8h.html#a1fa145871fd1d110f892094bbc153cbf" target="_top" xlink:title="Plist_remove">
<polygon fill="none" stroke="black" points="464,-190.5 464,-209.5 538,-209.5 538,-190.5 464,-190.5"/>
<text text-anchor="middle" x="501" y="-197.5" font-family="Helvetica,sans-Serif" font-size="10.00">Plist_remove</text>
</a>
</g>
</g>
<!-- Node5&#45;&gt;Node33 -->
<g id="edge38" class="edge"><title>Node5&#45;&gt;Node33</title>
<path fill="none" stroke="midnightblue" d="M421.376,-174.68C437.32,-179.815 455.421,-185.644 470.233,-190.414"/>
<polygon fill="midnightblue" stroke="midnightblue" points="422.368,-171.323 411.776,-171.589 420.222,-177.986 422.368,-171.323"/>
</g>
<!-- Node7 -->
<g id="node7" class="node"><title>Node7</title>
<g id="a_node7"><a xlink:href="hashtable_8h.html#ac641ace1e3d79ee78d271d999df92db9" target="_top" xlink:title="hashtable_containsKey">
<polygon fill="none" stroke="black" points="578,-228.5 578,-247.5 696,-247.5 696,-228.5 578,-228.5"/>
<text text-anchor="middle" x="637" y="-235.5" font-family="Helvetica,sans-Serif" font-size="10.00">hashtable_containsKey</text>
</a>
</g>
</g>
<!-- Node6&#45;&gt;Node7 -->
<g id="edge6" class="edge"><title>Node6&#45;&gt;Node7</title>
<path fill="none" stroke="midnightblue" d="M535.022,-176.456C537.447,-177.886 539.801,-179.404 542,-181 560.827,-194.667 558.345,-206.554 578,-219 583.998,-222.798 590.829,-225.909 597.647,-228.434"/>
<polygon fill="midnightblue" stroke="midnightblue" points="536.553,-173.305 526.084,-171.674 533.251,-179.477 536.553,-173.305"/>
</g>
<!-- Node8 -->
<g id="node8" class="node"><title>Node8</title>
<g id="a_node8"><a xlink:href="hashtable_8h.html#a686d66befe855b80c215e27cb2e9343e" target="_top" xlink:title="hashtable_find">
<polygon fill="none" stroke="black" points="597,-190.5 597,-209.5 677,-209.5 677,-190.5 597,-190.5"/>
<text text-anchor="middle" x="637" y="-197.5" font-family="Helvetica,sans-Serif" font-size="10.00">hashtable_find</text>
</a>
</g>
</g>
<!-- Node6&#45;&gt;Node8 -->
<g id="edge7" class="edge"><title>Node6&#45;&gt;Node8</title>
<path fill="none" stroke="midnightblue" d="M536.054,-171.657C556.377,-177.42 582.085,-184.711 602.339,-190.454"/>
<polygon fill="midnightblue" stroke="midnightblue" points="536.842,-168.243 526.266,-168.882 534.932,-174.977 536.842,-168.243"/>
</g>
<!-- Node9 -->
<g id="node9" class="node"><title>Node9</title>
<g id="a_node9"><a xlink:href="hashtable_8h.html#a76f7704c9b87a69d6a94a01f06a65185" target="_top" xlink:title="hashtable_insert">
<polygon fill="none" stroke="black" points="593,-266.5 593,-285.5 681,-285.5 681,-266.5 593,-266.5"/>
<text text-anchor="middle" x="637" y="-273.5" font-family="Helvetica,sans-Serif" font-size="10.00">hashtable_insert</text>
</a>
</g>
</g>
<!-- Node6&#45;&gt;Node9 -->
<g id="edge8" class="edge"><title>Node6&#45;&gt;Node9</title>
<path fill="none" stroke="midnightblue" d="M535.04,-175.314C537.548,-177.018 539.912,-178.909 542,-181 568.414,-207.443 549.962,-232.285 578,-257 582.372,-260.854 587.542,-263.928 592.966,-266.381"/>
<polygon fill="midnightblue" stroke="midnightblue" points="536.56,-172.15 526.142,-170.219 533.082,-178.225 536.56,-172.15"/>
</g>
<!-- Node10 -->
<g id="node10" class="node"><title>Node10</title>
<g id="a_node10"><a xlink:href="hashtable_8h.html#a1097b4c3a3d33b866a55e103f49dee7b" target="_top" xlink:title="hashtable_remove">
<polygon fill="none" stroke="black" points="589,-114.5 589,-133.5 685,-133.5 685,-114.5 589,-114.5"/>
<text text-anchor="middle" x="637" y="-121.5" font-family="Helvetica,sans-Serif" font-size="10.00">hashtable_remove</text>
</a>
</g>
</g>
<!-- Node6&#45;&gt;Node10 -->
<g id="edge9" class="edge"><title>Node6&#45;&gt;Node10</title>
<path fill="none" stroke="midnightblue" d="M536.054,-152.343C556.377,-146.58 582.085,-139.289 602.339,-133.546"/>
<polygon fill="midnightblue" stroke="midnightblue" points="534.932,-149.023 526.266,-155.118 536.842,-155.757 534.932,-149.023"/>
</g>
<!-- Node11 -->
<g id="node11" class="node"><title>Node11</title>
<g id="a_node11"><a xlink:href="region_8c.html#afd9637f04d120aec5464b6304cfa0c99" target="_top" xlink:title="TMgrowRegion">
<polygon fill="none" stroke="black" points="595.5,-152.5 595.5,-171.5 678.5,-171.5 678.5,-152.5 595.5,-152.5"/>
<text text-anchor="middle" x="637" y="-159.5" font-family="Helvetica,sans-Serif" font-size="10.00">TMgrowRegion</text>
</a>
</g>
</g>
<!-- Node6&#45;&gt;Node11 -->
<g id="edge10" class="edge"><title>Node6&#45;&gt;Node11</title>
<path fill="none" stroke="midnightblue" d="M536.327,-162C554.327,-162 576.494,-162 595.349,-162"/>
<polygon fill="midnightblue" stroke="midnightblue" points="536.266,-158.5 526.266,-162 536.266,-165.5 536.266,-158.5"/>
</g>
<!-- Node12 -->
<g id="node12" class="node"><title>Node12</title>
<g id="a_node12"><a xlink:href="region_8h.html#a74d9ac41436518894e8e1bd6564ebf42" target="_top" xlink:title="TMregion_refine">
<polygon fill="none" stroke="black" points="758,-152.5 758,-171.5 844,-171.5 844,-152.5 758,-152.5"/>
<text text-anchor="middle" x="801" y="-159.5" font-family="Helvetica,sans-Serif" font-size="10.00">TMregion_refine</text>
</a>
</g>
</g>
<!-- Node11&#45;&gt;Node12 -->
<g id="edge11" class="edge"><title>Node11&#45;&gt;Node12</title>
<path fill="none" stroke="midnightblue" d="M689.083,-162C711.174,-162 736.718,-162 757.721,-162"/>
<polygon fill="midnightblue" stroke="midnightblue" points="688.879,-158.5 678.879,-162 688.879,-165.5 688.879,-158.5"/>
</g>
<!-- Node12&#45;&gt;Node12 -->
<g id="edge12" class="edge"><title>Node12&#45;&gt;Node12</title>
<path fill="none" stroke="midnightblue" d="M771.881,-180.654C773.098,-185.937 782.804,-190 801,-190 828.727,-190 836.741,-180.565 825.044,-171.757"/>
<polygon fill="midnightblue" stroke="midnightblue" points="775.041,-182.177 776.956,-171.757 768.961,-178.709 775.041,-182.177"/>
</g>
<!-- Node13&#45;&gt;Node9 -->
<g id="edge25" class="edge"><title>Node13&#45;&gt;Node9</title>
<path fill="none" stroke="midnightblue" d="M520.373,-335.491C535.088,-322.969 556.722,-306.079 578,-295 585.049,-291.33 592.946,-288.18 600.589,-285.559"/>
<polygon fill="midnightblue" stroke="midnightblue" points="517.813,-333.078 512.563,-342.281 522.406,-338.361 517.813,-333.078"/>
</g>
<!-- Node14 -->
<g id="node14" class="node"><title>Node14</title>
<g id="a_node14"><a xlink:href="net_8c.html#ad4f5f991dfc5667c5d75c5b353dbe974" target="_top" xlink:title="insertEdge">
<polygon fill="none" stroke="black" points="605.5,-380.5 605.5,-399.5 668.5,-399.5 668.5,-380.5 605.5,-380.5"/>
<text text-anchor="middle" x="637" y="-387.5" font-family="Helvetica,sans-Serif" font-size="10.00">insertEdge</text>
</a>
</g>
</g>
<!-- Node13&#45;&gt;Node14 -->
<g id="edge14" class="edge"><title>Node13&#45;&gt;Node14</title>
<path fill="none" stroke="midnightblue" d="M540.471,-362.91C561.097,-368.759 586.159,-375.866 605.437,-381.333"/>
<polygon fill="midnightblue" stroke="midnightblue" points="541.322,-359.513 530.746,-360.152 539.412,-366.247 541.322,-359.513"/>
</g>
<!-- Node20 -->
<g id="node20" class="node"><title>Node20</title>
<g id="a_node20"><a xlink:href="table_8h.html#a0cbbed1b3290a9074b455925972f670d" target="_top" xlink:title="table_insert">
<polygon fill="none" stroke="black" points="603.5,-342.5 603.5,-361.5 670.5,-361.5 670.5,-342.5 603.5,-342.5"/>
<text text-anchor="middle" x="637" y="-349.5" font-family="Helvetica,sans-Serif" font-size="10.00">table_insert</text>
</a>
</g>
</g>
<!-- Node13&#45;&gt;Node20 -->
<g id="edge21" class="edge"><title>Node13&#45;&gt;Node20</title>
<path fill="none" stroke="midnightblue" d="M540.932,-352C560.628,-352 584.274,-352 603.056,-352"/>
<polygon fill="midnightblue" stroke="midnightblue" points="540.746,-348.5 530.746,-352 540.746,-355.5 540.746,-348.5"/>
</g>
<!-- Node21 -->
<g id="node21" class="node"><title>Node21</title>
<g id="a_node21"><a xlink:href="decoder_8h.html#a92136c16eda5a24a0eb6c60b9f96244a" target="_top" xlink:title="decoder_process">
<polygon fill="none" stroke="black" points="591.5,-304.5 591.5,-323.5 682.5,-323.5 682.5,-304.5 591.5,-304.5"/>
<text text-anchor="middle" x="637" y="-311.5" font-family="Helvetica,sans-Serif" font-size="10.00">decoder_process</text>
</a>
</g>
</g>
<!-- Node13&#45;&gt;Node21 -->
<g id="edge22" class="edge"><title>Node13&#45;&gt;Node21</title>
<path fill="none" stroke="midnightblue" d="M540.51,-341.079C559.954,-335.565 583.331,-328.936 602.089,-323.617"/>
<polygon fill="midnightblue" stroke="midnightblue" points="539.412,-337.753 530.746,-343.848 541.322,-344.487 539.412,-337.753"/>
</g>
<!-- Node22 -->
<g id="node22" class="node"><title>Node22</title>
<g id="a_node22"><a xlink:href="maze_8h.html#a2135cee3a633084c9456873cb7746e0e" target="_top" xlink:title="maze_read">
<polygon fill="none" stroke="black" points="604.5,-456.5 604.5,-475.5 669.5,-475.5 669.5,-456.5 604.5,-456.5"/>
<text text-anchor="middle" x="637" y="-463.5" font-family="Helvetica,sans-Serif" font-size="10.00">maze_read</text>
</a>
</g>
</g>
<!-- Node13&#45;&gt;Node22 -->
<g id="edge23" class="edge"><title>Node13&#45;&gt;Node22</title>
<path fill="none" stroke="midnightblue" d="M512.18,-370.372C524.913,-391.731 548.65,-426.647 578,-447 585.837,-452.434 595.332,-456.396 604.35,-459.249"/>
<polygon fill="midnightblue" stroke="midnightblue" points="515.155,-368.524 507.124,-361.613 509.093,-372.024 515.155,-368.524"/>
</g>
<!-- Node24 -->
<g id="node24" class="node"><title>Node24</title>
<g id="a_node24"><a xlink:href="element_8h.html#af31cf5d6a12660d258214d8483df8c1d" target="_top" xlink:title="element_addNeighbor">
<polygon fill="none" stroke="black" points="581.5,-418.5 581.5,-437.5 692.5,-437.5 692.5,-418.5 581.5,-418.5"/>
<text text-anchor="middle" x="637" y="-425.5" font-family="Helvetica,sans-Serif" font-size="10.00">element_addNeighbor</text>
</a>
</g>
</g>
<!-- Node13&#45;&gt;Node24 -->
<g id="edge26" class="edge"><title>Node13&#45;&gt;Node24</title>
<path fill="none" stroke="midnightblue" d="M520.373,-368.509C535.088,-381.031 556.722,-397.921 578,-409 585.049,-412.67 592.946,-415.82 600.589,-418.441"/>
<polygon fill="midnightblue" stroke="midnightblue" points="522.406,-365.639 512.563,-361.719 517.813,-370.922 522.406,-365.639"/>
</g>
<!-- Node15 -->
<g id="node15" class="node"><title>Node15</title>
<g id="a_node15"><a xlink:href="net_8c.html#a456ce4308d1d5e4f0a816165f0d1b9ac" target="_top" xlink:title="reverseEdge">
<polygon fill="none" stroke="black" points="765.5,-232.5 765.5,-251.5 836.5,-251.5 836.5,-232.5 765.5,-232.5"/>
<text text-anchor="middle" x="801" y="-239.5" font-family="Helvetica,sans-Serif" font-size="10.00">reverseEdge</text>
</a>
</g>
</g>
<!-- Node14&#45;&gt;Node15 -->
<g id="edge15" class="edge"><title>Node14&#45;&gt;Node15</title>
<path fill="none" stroke="midnightblue" d="M678.411,-380.803C684.677,-378.271 690.79,-375.061 696,-371 719.633,-352.581 713.627,-337.669 732,-314 750.555,-290.096 775.738,-265.029 789.665,-251.696"/>
<polygon fill="midnightblue" stroke="midnightblue" points="676.831,-377.647 668.545,-384.25 679.14,-384.256 676.831,-377.647"/>
</g>
<!-- Node16 -->
<g id="node16" class="node"><title>Node16</title>
<g id="a_node16"><a xlink:href="net_8h.html#a7a2e0647373945c39b0efcdf78618993" target="_top" xlink:title="net_applyOperation">
<polygon fill="none" stroke="black" points="906.5,-232.5 906.5,-251.5 1007.5,-251.5 1007.5,-232.5 906.5,-232.5"/>
<text text-anchor="middle" x="957" y="-239.5" font-family="Helvetica,sans-Serif" font-size="10.00">net_applyOperation</text>
</a>
</g>
</g>
<!-- Node14&#45;&gt;Node16 -->
<g id="edge17" class="edge"><title>Node14&#45;&gt;Node16</title>
<path fill="none" stroke="midnightblue" d="M678.517,-377.556C684.431,-375.501 690.409,-373.289 696,-371 790.199,-332.437 897.621,-274.413 938.749,-251.65"/>
<polygon fill="midnightblue" stroke="midnightblue" points="677.066,-374.351 668.702,-380.854 679.296,-380.987 677.066,-374.351"/>
</g>
<!-- Node17 -->
<g id="node17" class="node"><title>Node17</title>
<g id="a_node17"><a xlink:href="net_8h.html#a7ac0b179e1d386a853aba9b4fffa369a" target="_top" xlink:title="net_generateRandomEdges">
<polygon fill="none" stroke="black" points="732.5,-380.5 732.5,-399.5 869.5,-399.5 869.5,-380.5 732.5,-380.5"/>
<text text-anchor="middle" x="801" y="-387.5" font-family="Helvetica,sans-Serif" font-size="10.00">net_generateRandomEdges</text>
</a>
</g>
</g>
<!-- Node14&#45;&gt;Node17 -->
<g id="edge18" class="edge"><title>Node14&#45;&gt;Node17</title>
<path fill="none" stroke="midnightblue" d="M679.04,-390C695.224,-390 714.248,-390 732.357,-390"/>
<polygon fill="midnightblue" stroke="midnightblue" points="678.852,-386.5 668.852,-390 678.852,-393.5 678.852,-386.5"/>
</g>
<!-- Node15&#45;&gt;Node16 -->
<g id="edge16" class="edge"><title>Node15&#45;&gt;Node16</title>
<path fill="none" stroke="midnightblue" d="M846.599,-242C865.311,-242 887.146,-242 906.366,-242"/>
<polygon fill="midnightblue" stroke="midnightblue" points="846.561,-238.5 836.561,-242 846.561,-245.5 846.561,-238.5"/>
</g>
<!-- Node18 -->
<g id="node18" class="node"><title>Node18</title>
<g id="a_node18"><a xlink:href="data_8h.html#a0f45b98c6cac17904d9daf25fbdc1dc9" target="_top" xlink:title="data_generate">
<polygon fill="none" stroke="black" points="918,-380.5 918,-399.5 996,-399.5 996,-380.5 918,-380.5"/>
<text text-anchor="middle" x="957" y="-387.5" font-family="Helvetica,sans-Serif" font-size="10.00">data_generate</text>
</a>
</g>
</g>
<!-- Node17&#45;&gt;Node18 -->
<g id="edge19" class="edge"><title>Node17&#45;&gt;Node18</title>
<path fill="none" stroke="midnightblue" d="M879.64,-390C892.866,-390 906.067,-390 917.682,-390"/>
<polygon fill="midnightblue" stroke="midnightblue" points="879.547,-386.5 869.547,-390 879.547,-393.5 879.547,-386.5"/>
</g>
<!-- Node19 -->
<g id="node19" class="node"><title>Node19</title>
<g id="a_node19"><a xlink:href="bayes_8c.html#a40c5c0b0d4eb7b59a91108269f69dc89" target="_top" xlink:title="MAIN">
<polygon fill="none" stroke="black" points="1056,-380.5 1056,-399.5 1098,-399.5 1098,-380.5 1056,-380.5"/>
<text text-anchor="middle" x="1077" y="-387.5" font-family="Helvetica,sans-Serif" font-size="10.00">MAIN</text>
</a>
</g>
</g>
<!-- Node18&#45;&gt;Node19 -->
<g id="edge20" class="edge"><title>Node18&#45;&gt;Node19</title>
<path fill="none" stroke="midnightblue" d="M1006.77,-390C1023.91,-390 1042.23,-390 1055.72,-390"/>
<polygon fill="midnightblue" stroke="midnightblue" points="1006.31,-386.5 996.311,-390 1006.31,-393.5 1006.31,-386.5"/>
</g>
<!-- Node23 -->
<g id="node23" class="node"><title>Node23</title>
<g id="a_node23"><a xlink:href="labyrinth_8c.html#a40c5c0b0d4eb7b59a91108269f69dc89" target="_top" xlink:title="MAIN">
<polygon fill="none" stroke="black" points="780,-456.5 780,-475.5 822,-475.5 822,-456.5 780,-456.5"/>
<text text-anchor="middle" x="801" y="-463.5" font-family="Helvetica,sans-Serif" font-size="10.00">MAIN</text>
</a>
</g>
</g>
<!-- Node22&#45;&gt;Node23 -->
<g id="edge24" class="edge"><title>Node22&#45;&gt;Node23</title>
<path fill="none" stroke="midnightblue" d="M679.626,-466C711.741,-466 754.767,-466 779.727,-466"/>
<polygon fill="midnightblue" stroke="midnightblue" points="679.62,-462.5 669.62,-466 679.62,-469.5 679.62,-462.5"/>
</g>
<!-- Node25 -->
<g id="node25" class="node"><title>Node25</title>
<g id="a_node25"><a xlink:href="mesh_8h.html#aad7f19da2c7732d977e683849a724e5f" target="_top" xlink:title="mesh_insert">
<polygon fill="none" stroke="black" points="766,-418.5 766,-437.5 836,-437.5 836,-418.5 766,-418.5"/>
<text text-anchor="middle" x="801" y="-425.5" font-family="Helvetica,sans-Serif" font-size="10.00">mesh_insert</text>
</a>
</g>
</g>
<!-- Node24&#45;&gt;Node25 -->
<g id="edge27" class="edge"><title>Node24&#45;&gt;Node25</title>
<path fill="none" stroke="midnightblue" d="M702.956,-428C724.539,-428 747.706,-428 765.99,-428"/>
<polygon fill="midnightblue" stroke="midnightblue" points="702.846,-424.5 692.846,-428 702.846,-431.5 702.846,-424.5"/>
</g>
<!-- Node26 -->
<g id="node26" class="node"><title>Node26</title>
<g id="a_node26"><a xlink:href="mesh_8c.html#a0351e3ec738e05a319ead0e2e44353d0" target="_top" xlink:title="createElement">
<polygon fill="none" stroke="black" points="917,-418.5 917,-437.5 997,-437.5 997,-418.5 917,-418.5"/>
<text text-anchor="middle" x="957" y="-425.5" font-family="Helvetica,sans-Serif" font-size="10.00">createElement</text>
</a>
</g>
</g>
<!-- Node25&#45;&gt;Node26 -->
<g id="edge28" class="edge"><title>Node25&#45;&gt;Node26</title>
<path fill="none" stroke="midnightblue" d="M846.366,-428C868.597,-428 895.28,-428 916.756,-428"/>
<polygon fill="midnightblue" stroke="midnightblue" points="846.178,-424.5 836.178,-428 846.178,-431.5 846.178,-424.5"/>
</g>
<!-- Node27 -->
<g id="node27" class="node"><title>Node27</title>
<g id="a_node27"><a xlink:href="mesh_8h.html#a0ee17a9bc1b62a498c98f8e0dc41d902" target="_top" xlink:title="mesh_read">
<polygon fill="none" stroke="black" points="1044.5,-418.5 1044.5,-437.5 1109.5,-437.5 1109.5,-418.5 1044.5,-418.5"/>
<text text-anchor="middle" x="1077" y="-425.5" font-family="Helvetica,sans-Serif" font-size="10.00">mesh_read</text>
</a>
</g>
</g>
<!-- Node26&#45;&gt;Node27 -->
<g id="edge29" class="edge"><title>Node26&#45;&gt;Node27</title>
<path fill="none" stroke="midnightblue" d="M1007.56,-428C1020,-428 1033.02,-428 1044.32,-428"/>
<polygon fill="midnightblue" stroke="midnightblue" points="1007.29,-424.5 997.292,-428 1007.29,-431.5 1007.29,-424.5"/>
</g>
<!-- Node28 -->
<g id="node28" class="node"><title>Node28</title>
<g id="a_node28"><a xlink:href="yada_8c.html#a40c5c0b0d4eb7b59a91108269f69dc89" target="_top" xlink:title="MAIN">
<polygon fill="none" stroke="black" points="1146,-418.5 1146,-437.5 1188,-437.5 1188,-418.5 1146,-418.5"/>
<text text-anchor="middle" x="1167" y="-425.5" font-family="Helvetica,sans-Serif" font-size="10.00">MAIN</text>
</a>
</g>
</g>
<!-- Node27&#45;&gt;Node28 -->
<g id="edge30" class="edge"><title>Node27&#45;&gt;Node28</title>
<path fill="none" stroke="midnightblue" d="M1119.84,-428C1128.87,-428 1138.03,-428 1145.78,-428"/>
<polygon fill="midnightblue" stroke="midnightblue" points="1119.77,-424.5 1109.77,-428 1119.77,-431.5 1119.77,-424.5"/>
</g>
<!-- Node30&#45;&gt;Node10 -->
<g id="edge37" class="edge"><title>Node30&#45;&gt;Node10</title>
<path fill="none" stroke="midnightblue" d="M545.103,-124C559.071,-124 574.634,-124 588.879,-124"/>
<polygon fill="midnightblue" stroke="midnightblue" points="544.78,-120.5 534.78,-124 544.78,-127.5 544.78,-120.5"/>
</g>
<!-- Node31 -->
<g id="node31" class="node"><title>Node31</title>
<g id="a_node31"><a xlink:href="net_8c.html#a2110916d842d0952f1542e4e96ba98bb" target="_top" xlink:title="removeEdge">
<polygon fill="none" stroke="black" points="601.5,-76.5 601.5,-95.5 672.5,-95.5 672.5,-76.5 601.5,-76.5"/>
<text text-anchor="middle" x="637" y="-83.5" font-family="Helvetica,sans-Serif" font-size="10.00">removeEdge</text>
</a>
</g>
</g>
<!-- Node30&#45;&gt;Node31 -->
<g id="edge33" class="edge"><title>Node30&#45;&gt;Node31</title>
<path fill="none" stroke="midnightblue" d="M544.493,-111.95C563.11,-106.67 584.653,-100.561 602.159,-95.5967"/>
<polygon fill="midnightblue" stroke="midnightblue" points="543.446,-108.609 534.78,-114.704 545.356,-115.343 543.446,-108.609"/>
</g>
<!-- Node32 -->
<g id="node32" class="node"><title>Node32</title>
<g id="a_node32"><a xlink:href="table_8h.html#a107c408953d09606276157cef79af7d4" target="_top" xlink:title="table_remove">
<polygon fill="none" stroke="black" points="599.5,-38.5 599.5,-57.5 674.5,-57.5 674.5,-38.5 599.5,-38.5"/>
<text text-anchor="middle" x="637" y="-45.5" font-family="Helvetica,sans-Serif" font-size="10.00">table_remove</text>
</a>
</g>
</g>
<!-- Node30&#45;&gt;Node32 -->
<g id="edge36" class="edge"><title>Node30&#45;&gt;Node32</title>
<path fill="none" stroke="midnightblue" d="M535.022,-109.544C537.447,-108.114 539.801,-106.596 542,-105 560.827,-91.3327 558.345,-79.4462 578,-67 584.535,-62.8618 592.059,-59.5387 599.477,-56.9024"/>
<polygon fill="midnightblue" stroke="midnightblue" points="533.251,-106.523 526.084,-114.326 536.553,-112.695 533.251,-106.523"/>
</g>
<!-- Node31&#45;&gt;Node15 -->
<g id="edge34" class="edge"><title>Node31&#45;&gt;Node15</title>
<path fill="none" stroke="midnightblue" d="M682.045,-95.6592C687.155,-98.1028 691.971,-101.164 696,-105 728.402,-135.846 703.65,-164.393 732,-199 744.127,-213.803 762.749,-225.077 777.441,-232.36"/>
<polygon fill="midnightblue" stroke="midnightblue" points="683.219,-92.3593 672.634,-91.8944 680.618,-98.8585 683.219,-92.3593"/>
</g>
<!-- Node31&#45;&gt;Node16 -->
<g id="edge35" class="edge"><title>Node31&#45;&gt;Node16</title>
<path fill="none" stroke="midnightblue" d="M682.744,-88.944C731.863,-93.9242 811.508,-107.28 870,-143 908.278,-166.375 938.571,-212.4 950.501,-232.373"/>
<polygon fill="midnightblue" stroke="midnightblue" points="683.029,-85.4554 672.745,-88.0034 682.373,-92.4247 683.029,-85.4554"/>
</g>
<!-- Node35 -->
<g id="node35" class="node"><title>Node35</title>
<g id="a_node35"><a xlink:href="list_8h.html#a0df36bca5d3d52f49147ca6fca13a375" target="_top" xlink:title="TMlist_find">
<polygon fill="none" stroke="black" points="468.5,-0.5 468.5,-19.5 533.5,-19.5 533.5,-0.5 468.5,-0.5"/>
<text text-anchor="middle" x="501" y="-7.5" font-family="Helvetica,sans-Serif" font-size="10.00">TMlist_find</text>
</a>
</g>
</g>
<!-- Node34&#45;&gt;Node35 -->
<g id="edge40" class="edge"><title>Node34&#45;&gt;Node35</title>
<path fill="none" stroke="midnightblue" d="M416.42,-71.7924C419.057,-70.2967 421.616,-68.6969 424,-67 442.953,-53.5086 441.173,-42.6673 460,-29 464.853,-25.4771 470.462,-22.3371 475.916,-19.6738"/>
<polygon fill="midnightblue" stroke="midnightblue" points="414.604,-68.79 407.303,-76.4672 417.798,-75.0189 414.604,-68.79"/>
</g>
<!-- Node36 -->
<g id="node36" class="node"><title>Node36</title>
<g id="a_node36"><a xlink:href="list_8h.html#a7679cbef6358f1266bd7aff211c8cf19" target="_top" xlink:title="TMlist_insert">
<polygon fill="none" stroke="black" points="464.5,-76.5 464.5,-95.5 537.5,-95.5 537.5,-76.5 464.5,-76.5"/>
<text text-anchor="middle" x="501" y="-83.5" font-family="Helvetica,sans-Serif" font-size="10.00">TMlist_insert</text>
</a>
</g>
</g>
<!-- Node34&#45;&gt;Node36 -->
<g id="edge41" class="edge"><title>Node34&#45;&gt;Node36</title>
<path fill="none" stroke="midnightblue" d="M433.75,-86C444.044,-86 454.638,-86 464.251,-86"/>
<polygon fill="midnightblue" stroke="midnightblue" points="433.602,-82.5001 423.602,-86 433.602,-89.5001 433.602,-82.5001"/>
</g>
<!-- Node37 -->
<g id="node37" class="node"><title>Node37</title>
<g id="a_node37"><a xlink:href="list_8h.html#ad902641bf9d9dc19901fb99fdc0ac0a6" target="_top" xlink:title="TMlist_remove">
<polygon fill="none" stroke="black" points="460.5,-38.5 460.5,-57.5 541.5,-57.5 541.5,-38.5 460.5,-38.5"/>
<text text-anchor="middle" x="501" y="-45.5" font-family="Helvetica,sans-Serif" font-size="10.00">TMlist_remove</text>
</a>
</g>
</g>
<!-- Node34&#45;&gt;Node37 -->
<g id="edge42" class="edge"><title>Node34&#45;&gt;Node37</title>
<path fill="none" stroke="midnightblue" d="M421.376,-73.3196C437.32,-68.1852 455.421,-62.3559 470.233,-57.5859"/>
<polygon fill="midnightblue" stroke="midnightblue" points="420.222,-70.0141 411.776,-76.411 422.368,-76.6771 420.222,-70.0141"/>
</g>
<!-- Node40&#45;&gt;Node3 -->
<g id="edge46" class="edge"><title>Node40&#45;&gt;Node3</title>
<path fill="none" stroke="midnightblue" d="M245.93,-86C255.677,-86 265.017,-86 272.225,-86"/>
<polygon fill="midnightblue" stroke="midnightblue" points="245.698,-82.5001 235.698,-86 245.698,-89.5001 245.698,-82.5001"/>
</g>
<!-- Node41&#45;&gt;Node3 -->
<g id="edge48" class="edge"><title>Node41&#45;&gt;Node3</title>
<path fill="none" stroke="midnightblue" d="M225.434,-61.5159C241.649,-68.0708 260.22,-75.5781 272.476,-80.5328"/>
<polygon fill="midnightblue" stroke="midnightblue" points="226.303,-58.0921 215.72,-57.589 223.679,-64.5818 226.303,-58.0921"/>
</g>
</g>
</svg>
        <g id="navigator" transform="translate(0 0)" fill="#404254">
                <rect fill="#f2f5e9" fill-opacity="0.5" stroke="#606060" stroke-width=".5" x="0" y="0" width="60" height="60"/>
                <use id="zoomplus" xlink:href="#zoomPlus" x="17" y="9" onmousedown="handleZoom(evt,'in')"/>
                <use id="zoomminus" xlink:href="#zoomMin" x="42" y="9" onmousedown="handleZoom(evt,'out')"/>
                <use id="reset" xlink:href="#resetDef" x="30" y="36" onmousedown="handleReset()"/>
                <g id="arrowUp" xlink:href="#dirArrow" transform="translate(30 24)" onmousedown="handlePan(0,-1)">
                  <use xlink:href="#rim" fill="#404040">
                        <set attributeName="fill" to="#808080" begin="arrowUp.mouseover" end="arrowUp.mouseout"/>
                  </use>
                  <path fill="none" stroke="white" stroke-width="1.5" d="M0,-3.0v7 M-2.5,-0.5L0,-3.0L2.5,-0.5"/>
                </g>
                <g id="arrowRight" xlink:href="#dirArrow" transform="rotate(90) translate(36 -43)" onmousedown="handlePan(1,0)">
                  <use xlink:href="#rim" fill="#404040">
                        <set attributeName="fill" to="#808080" begin="arrowRight.mouseover" end="arrowRight.mouseout"/>
                  </use>
                  <path fill="none" stroke="white" stroke-width="1.5" d="M0,-3.0v7 M-2.5,-0.5L0,-3.0L2.5,-0.5"/>
                </g>
                <g id="arrowDown" xlink:href="#dirArrow" transform="rotate(180) translate(-30 -48)" onmousedown="handlePan(0,1)">
                  <use xlink:href="#rim" fill="#404040">
                        <set attributeName="fill" to="#808080" begin="arrowDown.mouseover" end="arrowDown.mouseout"/>
                  </use>
                  <path fill="none" stroke="white" stroke-width="1.5" d="M0,-3.0v7 M-2.5,-0.5L0,-3.0L2.5,-0.5"/>
                </g>
                <g id="arrowLeft" xlink:href="#dirArrow" transform="rotate(270) translate(-36 17)" onmousedown="handlePan(-1,0)">
                  <use xlink:href="#rim" fill="#404040">
                        <set attributeName="fill" to="#808080" begin="arrowLeft.mouseover" end="arrowLeft.mouseout"/>
                  </use>
                  <path fill="none" stroke="white" stroke-width="1.5" d="M0,-3.0v7 M-2.5,-0.5L0,-3.0L2.5,-0.5"/>
                </g>
        </g>
        <svg viewBox="0 0 15 15" width="100%" height="30px" preserveAspectRatio="xMaxYMin meet">
         <g id="arrow_out" transform="scale(0.3 0.3)">
          <a xlink:href="stmskip_8cc_aa82848b11e972b9339ceadb6816cdb6a_icgraph_org.svg" target="_base">
           <rect id="button" ry="5" rx="5" y="6" x="6" height="38" width="38"
                fill="#f2f5e9" fill-opacity="0.5" stroke="#606060" stroke-width="1.0"/>
           <path id="arrow"
             d="M 11.500037,31.436501 C 11.940474,20.09759 22.043105,11.32322 32.158766,21.979434 L 37.068811,17.246167 C 37.068811,17.246167 37.088388,32 37.088388,32 L 22.160133,31.978069 C 22.160133,31.978069 26.997745,27.140456 26.997745,27.140456 C 18.528582,18.264221 13.291696,25.230495 11.500037,31.436501 z"
             style="fill:#404040;"/>
          </a>
         </g>
        </svg>
</svg>
