<?xml version="1.0" encoding="UTF-8" standalone="no"?>
<!DOCTYPE svg PUBLIC "-//W3C//DTD SVG 1.1//EN"
 "http://www.w3.org/Graphics/SVG/1.1/DTD/svg11.dtd">
<!-- Generated by graphviz version 2.36.0 (20140111.2315)
 -->
<!-- Title: stream_generate Pages: 1 -->
<svg width="680pt" height="571pt"
 viewBox="0.00 0.00 680.00 571.00" xmlns="http://www.w3.org/2000/svg" xmlns:xlink="http://www.w3.org/1999/xlink">
<g id="graph0" class="graph" transform="scale(1 1) rotate(0) translate(4 567)">
<title>stream_generate</title>
<!-- Node1 -->
<g id="node1" class="node"><title>Node1</title>
<polygon fill="#bfbfbf" stroke="black" points="0.5,-285.5 0.5,-304.5 89.5,-304.5 89.5,-285.5 0.5,-285.5"/>
<text text-anchor="middle" x="45" y="-292.5" font-family="Helvetica,sans-Serif" font-size="10.00">stream_generate</text>
</g>
<!-- Node2 -->
<g id="node2" class="node"><title>Node2</title>
<g id="a_node2"><a xlink:href="detector_8c.html#a6b004a6f665b307d4c15f042806e4fc0" target="_top" xlink:title="detector_alloc">
<polygon fill="none" stroke="black" points="144.5,-524.5 144.5,-543.5 221.5,-543.5 221.5,-524.5 144.5,-524.5"/>
<text text-anchor="middle" x="183" y="-531.5" font-family="Helvetica,sans-Serif" font-size="10.00">detector_alloc</text>
</a>
</g>
</g>
<!-- Node1&#45;&gt;Node2 -->
<g id="edge1" class="edge"><title>Node1&#45;&gt;Node2</title>
<path fill="none" stroke="midnightblue" d="M46.9035,-304.544C50.5059,-337.472 66.669,-447.709 126,-510 129.601,-513.781 133.895,-516.995 138.481,-519.722"/>
<polygon fill="midnightblue" stroke="midnightblue" points="137.061,-522.928 147.555,-524.385 140.26,-516.701 137.061,-522.928"/>
</g>
<!-- Node5 -->
<g id="node5" class="node"><title>Node5</title>
<g id="a_node5"><a xlink:href="vector_8c.html#a644473da71660c373cbfb134d83b37bf" target="_top" xlink:title="vector_pushBack">
<polygon fill="none" stroke="black" points="459,-450.5 459,-469.5 551,-469.5 551,-450.5 459,-450.5"/>
<text text-anchor="middle" x="505" y="-457.5" font-family="Helvetica,sans-Serif" font-size="10.00">vector_pushBack</text>
</a>
</g>
</g>
<!-- Node1&#45;&gt;Node5 -->
<g id="edge17" class="edge"><title>Node1&#45;&gt;Node5</title>
<path fill="none" stroke="midnightblue" d="M48.3779,-304.543C55.3924,-330.63 78.5464,-403.607 126,-440 224.94,-515.878 384.854,-490.269 461.015,-471.927"/>
<polygon fill="midnightblue" stroke="midnightblue" points="461.891,-475.316 470.754,-469.51 460.205,-468.522 461.891,-475.316"/>
</g>
<!-- Node6 -->
<g id="node6" class="node"><title>Node6</title>
<g id="a_node6"><a xlink:href="detector_8c.html#a1aa3dd602c84838ef074f8e46aa09989" target="_top" xlink:title="detector_addPreprocessor">
<polygon fill="none" stroke="black" points="276.5,-448.5 276.5,-467.5 407.5,-467.5 407.5,-448.5 276.5,-448.5"/>
<text text-anchor="middle" x="342" y="-455.5" font-family="Helvetica,sans-Serif" font-size="10.00">detector_addPreprocessor</text>
</a>
</g>
</g>
<!-- Node1&#45;&gt;Node6 -->
<g id="edge6" class="edge"><title>Node1&#45;&gt;Node6</title>
<path fill="none" stroke="midnightblue" d="M50.2165,-304.606C60.1262,-326.013 87.0385,-377.808 126,-404 167.484,-431.888 222.217,-445.378 266.076,-451.901"/>
<polygon fill="midnightblue" stroke="midnightblue" points="265.728,-455.386 276.116,-453.302 266.696,-448.453 265.728,-455.386"/>
</g>
<!-- Node7 -->
<g id="node7" class="node"><title>Node7</title>
<g id="a_node7"><a xlink:href="preprocessor_8c.html#af574612ee38405cdc8925c22eedbc331" target="_top" xlink:title="preprocessor_toLower">
<polygon fill="none" stroke="black" points="126.5,-228.5 126.5,-247.5 239.5,-247.5 239.5,-228.5 126.5,-228.5"/>
<text text-anchor="middle" x="183" y="-235.5" font-family="Helvetica,sans-Serif" font-size="10.00">preprocessor_toLower</text>
</a>
</g>
</g>
<!-- Node1&#45;&gt;Node7 -->
<g id="edge8" class="edge"><title>Node1&#45;&gt;Node7</title>
<path fill="none" stroke="midnightblue" d="M68.7633,-285.459C90.9262,-276.171 124.822,-261.964 149.755,-251.514"/>
<polygon fill="midnightblue" stroke="midnightblue" points="151.293,-254.665 159.162,-247.572 148.587,-248.209 151.293,-254.665"/>
</g>
<!-- Node8 -->
<g id="node8" class="node"><title>Node8</title>
<g id="a_node8"><a xlink:href="random_8c.html#a4863f841babe7ce3664a4e4bed6180ab" target="_top" xlink:title="random_seed">
<polygon fill="none" stroke="black" points="304.5,-410.5 304.5,-429.5 379.5,-429.5 379.5,-410.5 304.5,-410.5"/>
<text text-anchor="middle" x="342" y="-417.5" font-family="Helvetica,sans-Serif" font-size="10.00">random_seed</text>
</a>
</g>
</g>
<!-- Node1&#45;&gt;Node8 -->
<g id="edge9" class="edge"><title>Node1&#45;&gt;Node8</title>
<path fill="none" stroke="midnightblue" d="M53.2155,-304.638C65.991,-320.976 94.2551,-353.989 126,-371 179.376,-399.602 248.875,-411.566 294.194,-416.533"/>
<polygon fill="midnightblue" stroke="midnightblue" points="294.021,-420.033 304.325,-417.571 294.734,-413.07 294.021,-420.033"/>
</g>
<!-- Node10 -->
<g id="node10" class="node"><title>Node10</title>
<g id="a_node10"><a xlink:href="queue_8c.html#a93767784c0293bb49b6abb40780cfa57" target="_top" xlink:title="queue_clear">
<polygon fill="none" stroke="black" points="148.5,-190.5 148.5,-209.5 217.5,-209.5 217.5,-190.5 148.5,-190.5"/>
<text text-anchor="middle" x="183" y="-197.5" font-family="Helvetica,sans-Serif" font-size="10.00">queue_clear</text>
</a>
</g>
</g>
<!-- Node1&#45;&gt;Node10 -->
<g id="edge11" class="edge"><title>Node1&#45;&gt;Node10</title>
<path fill="none" stroke="midnightblue" d="M53.6197,-285.45C66.784,-269.538 95.337,-237.524 126,-219 130.07,-216.541 134.5,-214.351 139.026,-212.411"/>
<polygon fill="midnightblue" stroke="midnightblue" points="140.318,-215.664 148.37,-208.778 137.781,-209.14 140.318,-215.664"/>
</g>
<!-- Node11 -->
<g id="node11" class="node"><title>Node11</title>
<g id="a_node11"><a xlink:href="random_8c.html#a733bbcfd7d850fa4596d834489b83178" target="_top" xlink:title="random_generate">
<polygon fill="none" stroke="black" points="296,-236.5 296,-255.5 388,-255.5 388,-236.5 296,-236.5"/>
<text text-anchor="middle" x="342" y="-243.5" font-family="Helvetica,sans-Serif" font-size="10.00">random_generate</text>
</a>
</g>
</g>
<!-- Node1&#45;&gt;Node11 -->
<g id="edge12" class="edge"><title>Node1&#45;&gt;Node11</title>
<path fill="none" stroke="midnightblue" d="M89.5283,-287.77C141.69,-279.106 229.149,-264.579 285.953,-255.143"/>
<polygon fill="midnightblue" stroke="midnightblue" points="286.548,-258.593 295.84,-253.501 285.401,-251.687 286.548,-258.593"/>
</g>
<!-- Node13 -->
<g id="node13" class="node"><title>Node13</title>
<g id="a_node13"><a xlink:href="dictionary_8c.html#ad8caba4178372c57cf9c4f77ee37dc64" target="_top" xlink:title="dictionary_get">
<polygon fill="none" stroke="black" points="144.5,-152.5 144.5,-171.5 221.5,-171.5 221.5,-152.5 144.5,-152.5"/>
<text text-anchor="middle" x="183" y="-159.5" font-family="Helvetica,sans-Serif" font-size="10.00">dictionary_get</text>
</a>
</g>
</g>
<!-- Node1&#45;&gt;Node13 -->
<g id="edge15" class="edge"><title>Node1&#45;&gt;Node13</title>
<path fill="none" stroke="midnightblue" d="M50.2539,-285.184C60.2403,-263.265 87.2994,-209.995 126,-181 128.796,-178.905 131.838,-177.031 135.012,-175.357"/>
<polygon fill="midnightblue" stroke="midnightblue" points="136.572,-178.492 144.209,-171.149 133.659,-172.127 136.572,-178.492"/>
</g>
<!-- Node15 -->
<g id="node15" class="node"><title>Node15</title>
<g id="a_node15"><a xlink:href="detector_8c.html#a0e2d49f3be877ddc0e8e5e10313247b9" target="_top" xlink:title="detector_process">
<polygon fill="none" stroke="black" points="137,-114.5 137,-133.5 229,-133.5 229,-114.5 137,-114.5"/>
<text text-anchor="middle" x="183" y="-121.5" font-family="Helvetica,sans-Serif" font-size="10.00">detector_process</text>
</a>
</g>
</g>
<!-- Node1&#45;&gt;Node15 -->
<g id="edge18" class="edge"><title>Node1&#45;&gt;Node15</title>
<path fill="none" stroke="midnightblue" d="M48.4077,-285.221C55.4981,-258.447 78.8282,-183.276 126,-143 127.981,-141.308 130.12,-139.765 132.365,-138.358"/>
<polygon fill="midnightblue" stroke="midnightblue" points="134.229,-141.332 141.448,-133.577 130.969,-135.138 134.229,-141.332"/>
</g>
<!-- Node18 -->
<g id="node18" class="node"><title>Node18</title>
<g id="a_node18"><a xlink:href="stream_8c.html#a393f7c73a9711227990d5867e9e6edd8" target="_top" xlink:title="splitIntoPackets">
<polygon fill="none" stroke="black" points="139.5,-342.5 139.5,-361.5 226.5,-361.5 226.5,-342.5 139.5,-342.5"/>
<text text-anchor="middle" x="183" y="-349.5" font-family="Helvetica,sans-Serif" font-size="10.00">splitIntoPackets</text>
</a>
</g>
</g>
<!-- Node1&#45;&gt;Node18 -->
<g id="edge24" class="edge"><title>Node1&#45;&gt;Node18</title>
<path fill="none" stroke="midnightblue" d="M64.476,-304.53C80.5169,-312.622 104.484,-324.274 126,-333 131.173,-335.098 136.675,-337.162 142.133,-339.112"/>
<polygon fill="midnightblue" stroke="midnightblue" points="141.234,-342.504 151.829,-342.48 143.531,-335.892 141.234,-342.504"/>
</g>
<!-- Node24 -->
<g id="node24" class="node"><title>Node24</title>
<g id="a_node24"><a xlink:href="queue_8c.html#a87447e981672535f49608de36ac16438" target="_top" xlink:title="queue_shuffle">
<polygon fill="none" stroke="black" points="144.5,-304.5 144.5,-323.5 221.5,-323.5 221.5,-304.5 144.5,-304.5"/>
<text text-anchor="middle" x="183" y="-311.5" font-family="Helvetica,sans-Serif" font-size="10.00">queue_shuffle</text>
</a>
</g>
</g>
<!-- Node1&#45;&gt;Node24 -->
<g id="edge32" class="edge"><title>Node1&#45;&gt;Node24</title>
<path fill="none" stroke="midnightblue" d="M89.7799,-301.116C103.901,-303.089 119.626,-305.286 134.033,-307.299"/>
<polygon fill="midnightblue" stroke="midnightblue" points="133.861,-310.809 144.249,-308.726 134.83,-303.876 133.861,-310.809"/>
</g>
<!-- Node25 -->
<g id="node25" class="node"><title>Node25</title>
<g id="a_node25"><a xlink:href="detector_8c.html#abc14a4e3abf6f6281e30d0459fadcfa2" target="_top" xlink:title="detector_free">
<polygon fill="none" stroke="black" points="146,-38.5 146,-57.5 220,-57.5 220,-38.5 146,-38.5"/>
<text text-anchor="middle" x="183" y="-45.5" font-family="Helvetica,sans-Serif" font-size="10.00">detector_free</text>
</a>
</g>
</g>
<!-- Node1&#45;&gt;Node25 -->
<g id="edge34" class="edge"><title>Node1&#45;&gt;Node25</title>
<path fill="none" stroke="midnightblue" d="M48.6664,-285.278C56.9364,-256.171 84.1391,-167.855 126,-105 136.122,-89.8022 150.639,-75.164 162.356,-64.5277"/>
<polygon fill="midnightblue" stroke="midnightblue" points="164.748,-67.0854 169.933,-57.8458 160.118,-61.8355 164.748,-67.0854"/>
</g>
<!-- Node3 -->
<g id="node3" class="node"><title>Node3</title>
<g id="a_node3"><a xlink:href="dictionary_8c.html#aaa33d443a04012470ce383597e3e45e1" target="_top" xlink:title="dictionary_alloc">
<polygon fill="none" stroke="black" points="300,-524.5 300,-543.5 384,-543.5 384,-524.5 300,-524.5"/>
<text text-anchor="middle" x="342" y="-531.5" font-family="Helvetica,sans-Serif" font-size="10.00">dictionary_alloc</text>
</a>
</g>
</g>
<!-- Node2&#45;&gt;Node3 -->
<g id="edge2" class="edge"><title>Node2&#45;&gt;Node3</title>
<path fill="none" stroke="midnightblue" d="M221.605,-534C241.967,-534 267.422,-534 289.591,-534"/>
<polygon fill="midnightblue" stroke="midnightblue" points="289.843,-537.5 299.843,-534 289.843,-530.5 289.843,-537.5"/>
</g>
<!-- Node4 -->
<g id="node4" class="node"><title>Node4</title>
<g id="a_node4"><a xlink:href="vector_8c.html#ad0293c3f6bcd3112d0294b4bc6f99647" target="_top" xlink:title="vector_alloc">
<polygon fill="none" stroke="black" points="470.5,-543.5 470.5,-562.5 539.5,-562.5 539.5,-543.5 470.5,-543.5"/>
<text text-anchor="middle" x="505" y="-550.5" font-family="Helvetica,sans-Serif" font-size="10.00">vector_alloc</text>
</a>
</g>
</g>
<!-- Node2&#45;&gt;Node4 -->
<g id="edge5" class="edge"><title>Node2&#45;&gt;Node4</title>
<path fill="none" stroke="midnightblue" d="M221.331,-543.509C237.947,-547.274 257.828,-551.143 276,-553 339.749,-559.514 414.05,-557.789 460.062,-555.641"/>
<polygon fill="midnightblue" stroke="midnightblue" points="460.467,-559.125 470.282,-555.135 460.121,-552.134 460.467,-559.125"/>
</g>
<!-- Node3&#45;&gt;Node4 -->
<g id="edge3" class="edge"><title>Node3&#45;&gt;Node4</title>
<path fill="none" stroke="midnightblue" d="M384.044,-538.844C407.335,-541.592 436.481,-545.032 460.212,-547.832"/>
<polygon fill="midnightblue" stroke="midnightblue" points="460.013,-551.333 470.354,-549.029 460.833,-544.381 460.013,-551.333"/>
</g>
<!-- Node3&#45;&gt;Node5 -->
<g id="edge4" class="edge"><title>Node3&#45;&gt;Node5</title>
<path fill="none" stroke="midnightblue" d="M371.145,-524.486C382.697,-520.355 396.121,-515.261 408,-510 432.4,-499.193 459.27,-484.99 478.362,-474.484"/>
<polygon fill="midnightblue" stroke="midnightblue" points="480.278,-477.424 487.323,-469.51 476.881,-471.303 480.278,-477.424"/>
</g>
<!-- Node6&#45;&gt;Node5 -->
<g id="edge7" class="edge"><title>Node6&#45;&gt;Node5</title>
<path fill="none" stroke="midnightblue" d="M407.557,-458.802C421.087,-458.97 435.243,-459.146 448.412,-459.309"/>
<polygon fill="midnightblue" stroke="midnightblue" points="448.688,-462.813 458.731,-459.438 448.775,-455.814 448.688,-462.813"/>
</g>
<!-- Node9 -->
<g id="node9" class="node"><title>Node9</title>
<g id="a_node9"><a xlink:href="mt19937ar_8c.html#aba3fcf9d2e0c0d1db5b8b63af90eb51c" target="_top" xlink:title="init_genrand">
<polygon fill="none" stroke="black" points="602.5,-321.5 602.5,-340.5 671.5,-340.5 671.5,-321.5 602.5,-321.5"/>
<text text-anchor="middle" x="637" y="-328.5" font-family="Helvetica,sans-Serif" font-size="10.00">init_genrand</text>
</a>
</g>
</g>
<!-- Node8&#45;&gt;Node9 -->
<g id="edge10" class="edge"><title>Node8&#45;&gt;Node9</title>
<path fill="none" stroke="midnightblue" d="M379.828,-421.222C425.482,-421.378 504.747,-417.136 566,-390 587.623,-380.421 607.758,-362.045 620.83,-348.334"/>
<polygon fill="midnightblue" stroke="midnightblue" points="623.473,-350.631 627.669,-340.903 618.322,-345.891 623.473,-350.631"/>
</g>
<!-- Node12 -->
<g id="node12" class="node"><title>Node12</title>
<g id="a_node12"><a xlink:href="mt19937ar_8c.html#a8056efdcc7cbf6ff8f46ce36509c506e" target="_top" xlink:title="genrand_int32">
<polygon fill="none" stroke="black" points="466.5,-236.5 466.5,-255.5 543.5,-255.5 543.5,-236.5 466.5,-236.5"/>
<text text-anchor="middle" x="505" y="-243.5" font-family="Helvetica,sans-Serif" font-size="10.00">genrand_int32</text>
</a>
</g>
</g>
<!-- Node11&#45;&gt;Node12 -->
<g id="edge13" class="edge"><title>Node11&#45;&gt;Node12</title>
<path fill="none" stroke="midnightblue" d="M388.276,-246C409.457,-246 434.691,-246 456.181,-246"/>
<polygon fill="midnightblue" stroke="midnightblue" points="456.396,-249.5 466.396,-246 456.396,-242.5 456.396,-249.5"/>
</g>
<!-- Node12&#45;&gt;Node9 -->
<g id="edge14" class="edge"><title>Node12&#45;&gt;Node9</title>
<path fill="none" stroke="midnightblue" d="M543.604,-255.051C551.29,-257.677 559.123,-260.959 566,-265 587.668,-277.734 608.047,-298.3 621.167,-313.092"/>
<polygon fill="midnightblue" stroke="midnightblue" points="618.829,-315.74 628.008,-321.031 624.132,-311.171 618.829,-315.74"/>
</g>
<!-- Node14 -->
<g id="node14" class="node"><title>Node14</title>
<g id="a_node14"><a xlink:href="vector_8c.html#a043c4e94efce1c5a44095eb9388ba5e7" target="_top" xlink:title="vector_at">
<polygon fill="none" stroke="black" points="476.5,-152.5 476.5,-171.5 533.5,-171.5 533.5,-152.5 476.5,-152.5"/>
<text text-anchor="middle" x="505" y="-159.5" font-family="Helvetica,sans-Serif" font-size="10.00">vector_at</text>
</a>
</g>
</g>
<!-- Node13&#45;&gt;Node14 -->
<g id="edge16" class="edge"><title>Node13&#45;&gt;Node14</title>
<path fill="none" stroke="midnightblue" d="M221.9,-169.084C238.447,-171.835 258.118,-174.647 276,-176 334.5,-180.426 349.487,-180.244 408,-176 427.379,-174.594 448.787,-171.613 466.459,-168.761"/>
<polygon fill="midnightblue" stroke="midnightblue" points="467.099,-172.203 476.39,-167.11 465.951,-165.297 467.099,-172.203"/>
</g>
<!-- Node15&#45;&gt;Node14 -->
<g id="edge20" class="edge"><title>Node15&#45;&gt;Node14</title>
<path fill="none" stroke="midnightblue" d="M225.031,-133.577C240.881,-136.986 259.212,-140.576 276,-143 342.421,-152.591 420.48,-157.798 465.884,-160.23"/>
<polygon fill="midnightblue" stroke="midnightblue" points="465.983,-163.74 476.151,-160.763 466.346,-156.749 465.983,-163.74"/>
</g>
<!-- Node16 -->
<g id="node16" class="node"><title>Node16</title>
<g id="a_node16"><a xlink:href="vector_8c.html#a158656a347e208114bcd945b91cfd87a" target="_top" xlink:title="vector_getSize">
<polygon fill="none" stroke="black" points="464,-95.5 464,-114.5 546,-114.5 546,-95.5 464,-95.5"/>
<text text-anchor="middle" x="505" y="-102.5" font-family="Helvetica,sans-Serif" font-size="10.00">vector_getSize</text>
</a>
</g>
</g>
<!-- Node15&#45;&gt;Node16 -->
<g id="edge19" class="edge"><title>Node15&#45;&gt;Node16</title>
<path fill="none" stroke="midnightblue" d="M221.331,-114.491C237.947,-110.726 257.828,-106.857 276,-105 336.955,-98.7715 407.556,-100.075 453.852,-102.08"/>
<polygon fill="midnightblue" stroke="midnightblue" points="453.773,-105.58 463.924,-102.543 454.095,-98.587 453.773,-105.58"/>
</g>
<!-- Node17 -->
<g id="node17" class="node"><title>Node17</title>
<g id="a_node17"><a xlink:href="dictionary_8c.html#a0c07d212f7aec2b95dd3e173f2e50849" target="_top" xlink:title="dictionary_match">
<polygon fill="none" stroke="black" points="296.5,-114.5 296.5,-133.5 387.5,-133.5 387.5,-114.5 296.5,-114.5"/>
<text text-anchor="middle" x="342" y="-121.5" font-family="Helvetica,sans-Serif" font-size="10.00">dictionary_match</text>
</a>
</g>
</g>
<!-- Node15&#45;&gt;Node17 -->
<g id="edge21" class="edge"><title>Node15&#45;&gt;Node17</title>
<path fill="none" stroke="midnightblue" d="M229.411,-124C247.139,-124 267.622,-124 286.163,-124"/>
<polygon fill="midnightblue" stroke="midnightblue" points="286.233,-127.5 296.233,-124 286.233,-120.5 286.233,-127.5"/>
</g>
<!-- Node17&#45;&gt;Node14 -->
<g id="edge23" class="edge"><title>Node17&#45;&gt;Node14</title>
<path fill="none" stroke="midnightblue" d="M383.627,-133.589C409.008,-139.58 441.464,-147.24 466.277,-153.096"/>
<polygon fill="midnightblue" stroke="midnightblue" points="465.523,-156.515 476.059,-155.405 467.131,-149.702 465.523,-156.515"/>
</g>
<!-- Node17&#45;&gt;Node16 -->
<g id="edge22" class="edge"><title>Node17&#45;&gt;Node16</title>
<path fill="none" stroke="midnightblue" d="M387.847,-118.707C408.317,-116.292 432.641,-113.421 453.728,-110.933"/>
<polygon fill="midnightblue" stroke="midnightblue" points="454.267,-114.393 463.788,-109.745 453.447,-107.442 454.267,-114.393"/>
</g>
<!-- Node18&#45;&gt;Node5 -->
<g id="edge26" class="edge"><title>Node18&#45;&gt;Node5</title>
<path fill="none" stroke="midnightblue" d="M226.535,-356.979C272.55,-363.345 347.449,-376.589 408,-401 435.724,-412.177 464.553,-431.031 483.292,-444.415"/>
<polygon fill="midnightblue" stroke="midnightblue" points="481.246,-447.255 491.391,-450.311 485.366,-441.596 481.246,-447.255"/>
</g>
<!-- Node18&#45;&gt;Node11 -->
<g id="edge25" class="edge"><title>Node18&#45;&gt;Node11</title>
<path fill="none" stroke="midnightblue" d="M224.544,-342.413C230.113,-339.948 235.467,-336.861 240,-333 266.033,-310.827 249.499,-286.612 276,-265 279.28,-262.325 282.923,-260.027 286.762,-258.052"/>
<polygon fill="midnightblue" stroke="midnightblue" points="288.241,-261.225 295.996,-254.006 285.432,-254.813 288.241,-261.225"/>
</g>
<!-- Node19 -->
<g id="node19" class="node"><title>Node19</title>
<g id="a_node19"><a xlink:href="namespaceanonymous__namespace_02libitm-5_813_0014_8cpp_03.html#a8b7be7cf3afef27c0623b844ce9116d8" target="_top" xlink:title="anonymous_namespace\l\{libitm&#45;5::13,14::cpp\}\l::memcpy">
<polygon fill="none" stroke="black" points="281,-274.5 281,-315.5 403,-315.5 403,-274.5 281,-274.5"/>
<text text-anchor="start" x="289" y="-303.5" font-family="Helvetica,sans-Serif" font-size="10.00">anonymous_namespace</text>
<text text-anchor="start" x="289" y="-292.5" font-family="Helvetica,sans-Serif" font-size="10.00">{libitm&#45;5::13,14::cpp}</text>
<text text-anchor="middle" x="342" y="-281.5" font-family="Helvetica,sans-Serif" font-size="10.00">::memcpy</text>
</a>
</g>
</g>
<!-- Node18&#45;&gt;Node19 -->
<g id="edge27" class="edge"><title>Node18&#45;&gt;Node19</title>
<path fill="none" stroke="midnightblue" d="M212.839,-342.417C221.584,-339.456 231.203,-336.146 240,-333 252.3,-328.601 265.392,-323.779 277.933,-319.091"/>
<polygon fill="midnightblue" stroke="midnightblue" points="279.26,-322.332 287.393,-315.542 276.801,-315.778 279.26,-322.332"/>
</g>
<!-- Node23 -->
<g id="node23" class="node"><title>Node23</title>
<g id="a_node23"><a xlink:href="queue_8c.html#a98d6f21bc723987400a7ea6f24cf3e52" target="_top" xlink:title="queue_push">
<polygon fill="none" stroke="black" points="307.5,-334.5 307.5,-353.5 376.5,-353.5 376.5,-334.5 307.5,-334.5"/>
<text text-anchor="middle" x="342" y="-341.5" font-family="Helvetica,sans-Serif" font-size="10.00">queue_push</text>
</a>
</g>
</g>
<!-- Node18&#45;&gt;Node23 -->
<g id="edge31" class="edge"><title>Node18&#45;&gt;Node23</title>
<path fill="none" stroke="midnightblue" d="M226.901,-349.814C248.768,-348.7 275.312,-347.347 297.292,-346.227"/>
<polygon fill="midnightblue" stroke="midnightblue" points="297.547,-349.719 307.356,-345.714 297.191,-342.728 297.547,-349.719"/>
</g>
<!-- Node20 -->
<g id="node20" class="node"><title>Node20</title>
<g id="a_node20"><a xlink:href="namespaceanonymous__namespace_02oreceager_8cpp_03.html#a7a88c7a7453bbfaca53eeac03b80a5d6" target="_top" xlink:title="anonymous_namespace\l\{oreceager::cpp\}::read">
<polygon fill="none" stroke="black" points="444,-351 444,-381 566,-381 566,-351 444,-351"/>
<text text-anchor="start" x="452" y="-369" font-family="Helvetica,sans-Serif" font-size="10.00">anonymous_namespace</text>
<text text-anchor="middle" x="505" y="-358" font-family="Helvetica,sans-Serif" font-size="10.00">{oreceager::cpp}::read</text>
</a>
</g>
</g>
<!-- Node19&#45;&gt;Node20 -->
<g id="edge28" class="edge"><title>Node19&#45;&gt;Node20</title>
<path fill="none" stroke="midnightblue" d="M387.608,-315.694C405.131,-323.724 425.454,-332.916 444,-341 448.484,-342.955 453.169,-344.964 457.859,-346.953"/>
<polygon fill="midnightblue" stroke="midnightblue" points="456.856,-350.329 467.431,-350.986 459.574,-343.878 456.856,-350.329"/>
</g>
<!-- Node21 -->
<g id="node21" class="node"><title>Node21</title>
<g id="a_node21"><a xlink:href="namespaceitm2stm.html#a334b9615cac957b9ce7a4743beaaaf53" target="_top" xlink:title="itm2stm::add_bytes">
<polygon fill="none" stroke="black" points="453.5,-312.5 453.5,-331.5 556.5,-331.5 556.5,-312.5 453.5,-312.5"/>
<text text-anchor="middle" x="505" y="-319.5" font-family="Helvetica,sans-Serif" font-size="10.00">itm2stm::add_bytes</text>
</a>
</g>
</g>
<!-- Node19&#45;&gt;Node21 -->
<g id="edge29" class="edge"><title>Node19&#45;&gt;Node21</title>
<path fill="none" stroke="midnightblue" d="M403.409,-305.131C416.363,-307.303 430.06,-309.6 443.035,-311.776"/>
<polygon fill="midnightblue" stroke="midnightblue" points="442.818,-315.288 453.259,-313.491 443.975,-308.385 442.818,-315.288"/>
</g>
<!-- Node22 -->
<g id="node22" class="node"><title>Node22</title>
<g id="a_node22"><a xlink:href="namespaceitm2stm.html#aa9908b113027ae21130750939980ee0b" target="_top" xlink:title="itm2stm::offset_of">
<polygon fill="none" stroke="black" points="457,-274.5 457,-293.5 553,-293.5 553,-274.5 457,-274.5"/>
<text text-anchor="middle" x="505" y="-281.5" font-family="Helvetica,sans-Serif" font-size="10.00">itm2stm::offset_of</text>
</a>
</g>
</g>
<!-- Node19&#45;&gt;Node22 -->
<g id="edge30" class="edge"><title>Node19&#45;&gt;Node22</title>
<path fill="none" stroke="midnightblue" d="M403.409,-290.873C417.625,-289.901 432.734,-288.869 446.805,-287.908"/>
<polygon fill="midnightblue" stroke="midnightblue" points="447.1,-291.396 456.838,-287.222 446.623,-284.412 447.1,-291.396"/>
</g>
<!-- Node24&#45;&gt;Node11 -->
<g id="edge33" class="edge"><title>Node24&#45;&gt;Node11</title>
<path fill="none" stroke="midnightblue" d="M209.326,-304.418C219.119,-300.387 230.285,-295.382 240,-290 257.039,-280.56 258.423,-273.397 276,-265 280.719,-262.745 285.761,-260.701 290.871,-258.861"/>
<polygon fill="midnightblue" stroke="midnightblue" points="292.337,-262.061 300.714,-255.574 290.12,-255.422 292.337,-262.061"/>
</g>
<!-- Node26 -->
<g id="node26" class="node"><title>Node26</title>
<g id="a_node26"><a xlink:href="dictionary_8c.html#a92591885f28faf13b0af2e36a8116ca0" target="_top" xlink:title="dictionary_free">
<polygon fill="none" stroke="black" points="302,-0.5 302,-19.5 382,-19.5 382,-0.5 302,-0.5"/>
<text text-anchor="middle" x="342" y="-7.5" font-family="Helvetica,sans-Serif" font-size="10.00">dictionary_free</text>
</a>
</g>
</g>
<!-- Node25&#45;&gt;Node26 -->
<g id="edge35" class="edge"><title>Node25&#45;&gt;Node26</title>
<path fill="none" stroke="midnightblue" d="M220.019,-39.282C241.311,-34.1285 268.571,-27.5306 291.822,-21.9029"/>
<polygon fill="midnightblue" stroke="midnightblue" points="292.953,-25.2304 301.849,-19.4761 291.306,-18.4268 292.953,-25.2304"/>
</g>
<!-- Node27 -->
<g id="node27" class="node"><title>Node27</title>
<g id="a_node27"><a xlink:href="vector_8c.html#aed7f3fe585748794ca18f6c957733e40" target="_top" xlink:title="vector_free">
<polygon fill="none" stroke="black" points="472.5,-19.5 472.5,-38.5 537.5,-38.5 537.5,-19.5 472.5,-19.5"/>
<text text-anchor="middle" x="505" y="-26.5" font-family="Helvetica,sans-Serif" font-size="10.00">vector_free</text>
</a>
</g>
</g>
<!-- Node25&#45;&gt;Node27 -->
<g id="edge37" class="edge"><title>Node25&#45;&gt;Node27</title>
<path fill="none" stroke="midnightblue" d="M220.086,-45.8574C279.852,-42.3088 399.053,-35.2312 462.317,-31.4749"/>
<polygon fill="midnightblue" stroke="midnightblue" points="462.568,-34.9663 472.343,-30.8797 462.153,-27.9786 462.568,-34.9663"/>
</g>
<!-- Node26&#45;&gt;Node27 -->
<g id="edge36" class="edge"><title>Node26&#45;&gt;Node27</title>
<path fill="none" stroke="midnightblue" d="M382.385,-14.6479C406.578,-17.503 437.543,-21.1572 462.172,-24.0638"/>
<polygon fill="midnightblue" stroke="midnightblue" points="461.961,-27.563 472.302,-25.2592 462.781,-20.6113 461.961,-27.563"/>
</g>
</g>
</svg>
