<?xml version="1.0" encoding="UTF-8" standalone="no"?>
<!DOCTYPE svg PUBLIC "-//W3C//DTD SVG 1.1//EN"
 "http://www.w3.org/Graphics/SVG/1.1/DTD/svg11.dtd">
<!-- Generated by graphviz version 2.36.0 (20140111.2315)
 -->
<!-- Title: splitIntoPackets Pages: 1 -->
<svg width="300pt" height="28pt"
 viewBox="0.00 0.00 300.00 28.00" xmlns="http://www.w3.org/2000/svg" xmlns:xlink="http://www.w3.org/1999/xlink">
<g id="graph0" class="graph" transform="scale(1 1) rotate(0) translate(4 24)">
<title>splitIntoPackets</title>
<!-- Node1 -->
<g id="node1" class="node"><title>Node1</title>
<polygon fill="#bfbfbf" stroke="black" points="0.5,-0.5 0.5,-19.5 87.5,-19.5 87.5,-0.5 0.5,-0.5"/>
<text text-anchor="middle" x="44" y="-7.5" font-family="Helvetica,sans-Serif" font-size="10.00">splitIntoPackets</text>
</g>
<!-- Node2 -->
<g id="node2" class="node"><title>Node2</title>
<g id="a_node2"><a xlink:href="stream_8h.html#a1edfb122c99ded84c9f8239b62ed56c8" target="_top" xlink:title="stream_generate">
<polygon fill="none" stroke="black" points="124.5,-0.5 124.5,-19.5 213.5,-19.5 213.5,-0.5 124.5,-0.5"/>
<text text-anchor="middle" x="169" y="-7.5" font-family="Helvetica,sans-Serif" font-size="10.00">stream_generate</text>
</a>
</g>
</g>
<!-- Node1&#45;&gt;Node2 -->
<g id="edge1" class="edge"><title>Node1&#45;&gt;Node2</title>
<path fill="none" stroke="midnightblue" d="M97.8253,-10C106.604,-10 115.624,-10 124.149,-10"/>
<polygon fill="midnightblue" stroke="midnightblue" points="97.6743,-6.5001 87.6742,-10 97.6742,-13.5001 97.6743,-6.5001"/>
</g>
<!-- Node3 -->
<g id="node3" class="node"><title>Node3</title>
<g id="a_node3"><a xlink:href="intruder_8c.html#a40c5c0b0d4eb7b59a91108269f69dc89" target="_top" xlink:title="MAIN">
<polygon fill="none" stroke="black" points="250,-0.5 250,-19.5 292,-19.5 292,-0.5 250,-0.5"/>
<text text-anchor="middle" x="271" y="-7.5" font-family="Helvetica,sans-Serif" font-size="10.00">MAIN</text>
</a>
</g>
</g>
<!-- Node2&#45;&gt;Node3 -->
<g id="edge2" class="edge"><title>Node2&#45;&gt;Node3</title>
<path fill="none" stroke="midnightblue" d="M223.693,-10C233.015,-10 242.166,-10 249.839,-10"/>
<polygon fill="midnightblue" stroke="midnightblue" points="223.571,-6.5001 213.571,-10 223.571,-13.5001 223.571,-6.5001"/>
</g>
</g>
</svg>
