<?xml version="1.0" encoding="UTF-8" standalone="no"?>
<!DOCTYPE svg PUBLIC "-//W3C//DTD SVG 1.1//EN"
 "http://www.w3.org/Graphics/SVG/1.1/DTD/svg11.dtd">
<!-- Generated by graphviz version 2.36.0 (20140111.2315)
 -->
<!-- Title: stream_free Pages: 1 -->
<svg width="194pt" height="180pt"
 viewBox="0.00 0.00 194.00 180.00" xmlns="http://www.w3.org/2000/svg" xmlns:xlink="http://www.w3.org/1999/xlink">
<g id="graph0" class="graph" transform="scale(1 1) rotate(0) translate(4 176)">
<title>stream_free</title>
<!-- Node1 -->
<g id="node1" class="node"><title>Node1</title>
<polygon fill="#bfbfbf" stroke="black" points="0,-76.5 0,-95.5 68,-95.5 68,-76.5 0,-76.5"/>
<text text-anchor="middle" x="34" y="-83.5" font-family="Helvetica,sans-Serif" font-size="10.00">stream_free</text>
</g>
<!-- Node2 -->
<g id="node2" class="node"><title>Node2</title>
<g id="a_node2"><a xlink:href="vector_8c.html#a158656a347e208114bcd945b91cfd87a" target="_top" xlink:title="vector_getSize">
<polygon fill="none" stroke="black" points="104,-152.5 104,-171.5 186,-171.5 186,-152.5 104,-152.5"/>
<text text-anchor="middle" x="145" y="-159.5" font-family="Helvetica,sans-Serif" font-size="10.00">vector_getSize</text>
</a>
</g>
</g>
<!-- Node1&#45;&gt;Node2 -->
<g id="edge1" class="edge"><title>Node1&#45;&gt;Node2</title>
<path fill="none" stroke="midnightblue" d="M45.13,-95.7475C58.0578,-107.85 81.456,-128.647 104,-143 106.639,-144.68 109.449,-146.306 112.31,-147.852"/>
<polygon fill="midnightblue" stroke="midnightblue" points="110.968,-151.096 121.471,-152.491 114.131,-144.851 110.968,-151.096"/>
</g>
<!-- Node3 -->
<g id="node3" class="node"><title>Node3</title>
<g id="a_node3"><a xlink:href="vector_8c.html#a043c4e94efce1c5a44095eb9388ba5e7" target="_top" xlink:title="vector_at">
<polygon fill="none" stroke="black" points="116.5,-114.5 116.5,-133.5 173.5,-133.5 173.5,-114.5 116.5,-114.5"/>
<text text-anchor="middle" x="145" y="-121.5" font-family="Helvetica,sans-Serif" font-size="10.00">vector_at</text>
</a>
</g>
</g>
<!-- Node1&#45;&gt;Node3 -->
<g id="edge2" class="edge"><title>Node1&#45;&gt;Node3</title>
<path fill="none" stroke="midnightblue" d="M62.5053,-95.589C75.9307,-100.269 92.28,-105.969 106.801,-111.032"/>
<polygon fill="midnightblue" stroke="midnightblue" points="105.909,-114.427 116.503,-114.414 108.213,-107.817 105.909,-114.427"/>
</g>
<!-- Node4 -->
<g id="node4" class="node"><title>Node4</title>
<g id="a_node4"><a xlink:href="queue_8c.html#a85520e86d1a218a76796b2ce5243d642" target="_top" xlink:title="queue_free">
<polygon fill="none" stroke="black" points="112.5,-76.5 112.5,-95.5 177.5,-95.5 177.5,-76.5 112.5,-76.5"/>
<text text-anchor="middle" x="145" y="-83.5" font-family="Helvetica,sans-Serif" font-size="10.00">queue_free</text>
</a>
</g>
</g>
<!-- Node1&#45;&gt;Node4 -->
<g id="edge3" class="edge"><title>Node1&#45;&gt;Node4</title>
<path fill="none" stroke="midnightblue" d="M68.2959,-86C79.033,-86 91.071,-86 102.334,-86"/>
<polygon fill="midnightblue" stroke="midnightblue" points="102.4,-89.5001 112.399,-86 102.399,-82.5001 102.4,-89.5001"/>
</g>
<!-- Node5 -->
<g id="node5" class="node"><title>Node5</title>
<g id="a_node5"><a xlink:href="vector_8c.html#aed7f3fe585748794ca18f6c957733e40" target="_top" xlink:title="vector_free">
<polygon fill="none" stroke="black" points="112.5,-38.5 112.5,-57.5 177.5,-57.5 177.5,-38.5 112.5,-38.5"/>
<text text-anchor="middle" x="145" y="-45.5" font-family="Helvetica,sans-Serif" font-size="10.00">vector_free</text>
</a>
</g>
</g>
<!-- Node1&#45;&gt;Node5 -->
<g id="edge4" class="edge"><title>Node1&#45;&gt;Node5</title>
<path fill="none" stroke="midnightblue" d="M62.5053,-76.411C75.9307,-71.7306 92.28,-66.0308 106.801,-60.9685"/>
<polygon fill="midnightblue" stroke="midnightblue" points="108.213,-64.1828 116.503,-57.5859 105.909,-57.573 108.213,-64.1828"/>
</g>
<!-- Node6 -->
<g id="node6" class="node"><title>Node6</title>
<g id="a_node6"><a xlink:href="random_8c.html#a0c229220c85a7223d42ab697628d1f95" target="_top" xlink:title="random_free">
<polygon fill="none" stroke="black" points="109.5,-0.5 109.5,-19.5 180.5,-19.5 180.5,-0.5 109.5,-0.5"/>
<text text-anchor="middle" x="145" y="-7.5" font-family="Helvetica,sans-Serif" font-size="10.00">random_free</text>
</a>
</g>
</g>
<!-- Node1&#45;&gt;Node6 -->
<g id="edge5" class="edge"><title>Node1&#45;&gt;Node6</title>
<path fill="none" stroke="midnightblue" d="M45.13,-76.2525C58.0578,-64.1499 81.456,-43.3531 104,-29 106.639,-27.32 109.449,-25.6941 112.31,-24.1475"/>
<polygon fill="midnightblue" stroke="midnightblue" points="114.131,-27.1486 121.471,-19.5085 110.968,-20.9036 114.131,-27.1486"/>
</g>
</g>
</svg>
