<?xml version="1.0" encoding="UTF-8" standalone="no"?>
<!DOCTYPE svg PUBLIC "-//W3C//DTD SVG 1.1//EN"
 "http://www.w3.org/Graphics/SVG/1.1/DTD/svg11.dtd">
<!-- Generated by graphviz version 2.36.0 (20140111.2315)
 -->
<!-- Title: grid Pages: 1 -->
<svg width="107pt" height="216pt"
 viewBox="0.00 0.00 107.00 216.00" xmlns="http://www.w3.org/2000/svg" xmlns:xlink="http://www.w3.org/1999/xlink">
<g id="graph0" class="graph" transform="scale(1 1) rotate(0) translate(4 212)">
<title>grid</title>
<!-- Node1 -->
<g id="node1" class="node"><title>Node1</title>
<polygon fill="#bfbfbf" stroke="black" points="1,-0.5 1,-57.5 33,-57.5 33,-0.5 1,-0.5"/>
<text text-anchor="middle" x="17" y="-45.5" font-family="Helvetica,sans-Serif" font-size="10.00">grid</text>
<polyline fill="none" stroke="black" points="1,-38.5 33,-38.5 "/>
<text text-anchor="middle" x="17" y="-26.5" font-family="Helvetica,sans-Serif" font-size="10.00"> </text>
<polyline fill="none" stroke="black" points="1,-19.5 33,-19.5 "/>
<text text-anchor="middle" x="17" y="-7.5" font-family="Helvetica,sans-Serif" font-size="10.00"> </text>
</g>
<!-- Node2 -->
<g id="node2" class="node"><title>Node2</title>
<polygon fill="none" stroke="#bfbfbf" points="-0.5,-150.5 -0.5,-207.5 34.5,-207.5 34.5,-150.5 -0.5,-150.5"/>
<text text-anchor="middle" x="17" y="-195.5" font-family="Helvetica,sans-Serif" font-size="10.00">long</text>
<polyline fill="none" stroke="#bfbfbf" points="-0.5,-188.5 34.5,-188.5 "/>
<text text-anchor="middle" x="17" y="-176.5" font-family="Helvetica,sans-Serif" font-size="10.00"> </text>
<polyline fill="none" stroke="#bfbfbf" points="-0.5,-169.5 34.5,-169.5 "/>
<text text-anchor="middle" x="17" y="-157.5" font-family="Helvetica,sans-Serif" font-size="10.00"> </text>
</g>
<!-- Node2&#45;&gt;Node1 -->
<g id="edge1" class="edge"><title>Node2&#45;&gt;Node1</title>
<path fill="none" stroke="#404040" d="M17,-150.162C17,-127.527 17,-95.2961 17,-69.9128"/>
<polygon fill="none" stroke="#404040" points="17.0001,-69.7128 13,-63.7129 17,-57.7128 21,-63.7128 17.0001,-69.7128"/>
<text text-anchor="middle" x="58" y="-123.5" font-family="Helvetica,sans-Serif" font-size="10.00"> +points_unaligned</text>
<text text-anchor="middle" x="58" y="-112.5" font-family="Helvetica,sans-Serif" font-size="10.00">+points</text>
<text text-anchor="middle" x="58" y="-101.5" font-family="Helvetica,sans-Serif" font-size="10.00">+depth</text>
<text text-anchor="middle" x="58" y="-90.5" font-family="Helvetica,sans-Serif" font-size="10.00">+height</text>
<text text-anchor="middle" x="58" y="-79.5" font-family="Helvetica,sans-Serif" font-size="10.00">+width</text>
</g>
</g>
</svg>
