<?xml version="1.0" encoding="UTF-8" standalone="no"?>
<!DOCTYPE svg PUBLIC "-//W3C//DTD SVG 1.1//EN"
 "http://www.w3.org/Graphics/SVG/1.1/DTD/svg11.dtd">
<!-- Generated by graphviz version 2.36.0 (20140111.2315)
 -->
<!-- Title: detector Pages: 1 -->
<svg width="170pt" height="298pt"
 viewBox="0.00 0.00 170.00 298.00" xmlns="http://www.w3.org/2000/svg" xmlns:xlink="http://www.w3.org/1999/xlink">
<g id="graph0" class="graph" transform="scale(1 1) rotate(0) translate(4 294)">
<title>detector</title>
<!-- Node1 -->
<g id="node1" class="node"><title>Node1</title>
<polygon fill="#bfbfbf" stroke="black" points="32,-0.5 32,-57.5 84,-57.5 84,-0.5 32,-0.5"/>
<text text-anchor="middle" x="58" y="-45.5" font-family="Helvetica,sans-Serif" font-size="10.00">detector</text>
<polyline fill="none" stroke="black" points="32,-38.5 84,-38.5 "/>
<text text-anchor="middle" x="58" y="-26.5" font-family="Helvetica,sans-Serif" font-size="10.00"> </text>
<polyline fill="none" stroke="black" points="32,-19.5 84,-19.5 "/>
<text text-anchor="middle" x="58" y="-7.5" font-family="Helvetica,sans-Serif" font-size="10.00"> </text>
</g>
<!-- Node2 -->
<g id="node2" class="node"><title>Node2</title>
<g id="a_node2"><a xlink:href="structvector.html" target="_top" xlink:title="{vector\n||}">
<polygon fill="none" stroke="black" points="36,-116.5 36,-173.5 80,-173.5 80,-116.5 36,-116.5"/>
<text text-anchor="middle" x="58" y="-161.5" font-family="Helvetica,sans-Serif" font-size="10.00">vector</text>
<polyline fill="none" stroke="black" points="36,-154.5 80,-154.5 "/>
<text text-anchor="middle" x="58" y="-142.5" font-family="Helvetica,sans-Serif" font-size="10.00"> </text>
<polyline fill="none" stroke="black" points="36,-135.5 80,-135.5 "/>
<text text-anchor="middle" x="58" y="-123.5" font-family="Helvetica,sans-Serif" font-size="10.00"> </text>
</a>
</g>
</g>
<!-- Node2&#45;&gt;Node1 -->
<g id="edge1" class="edge"><title>Node2&#45;&gt;Node1</title>
<path fill="none" stroke="#404040" d="M58,-116.404C58,-102.504 58,-85.3915 58,-70.073"/>
<polygon fill="none" stroke="#404040" points="58.0001,-69.7372 54,-63.7372 58,-57.7372 62,-63.7372 58.0001,-69.7372"/>
<text text-anchor="middle" x="110" y="-90" font-family="Helvetica,sans-Serif" font-size="10.00"> +dictionaryPtr</text>
<text text-anchor="middle" x="110" y="-79" font-family="Helvetica,sans-Serif" font-size="10.00">+preprocessorVectorPtr</text>
</g>
<!-- Node3 -->
<g id="node3" class="node"><title>Node3</title>
<polygon fill="none" stroke="#bfbfbf" points="-0.5,-232.5 -0.5,-289.5 44.5,-289.5 44.5,-232.5 -0.5,-232.5"/>
<text text-anchor="middle" x="22" y="-277.5" font-family="Helvetica,sans-Serif" font-size="10.00">void **</text>
<polyline fill="none" stroke="#bfbfbf" points="-0.5,-270.5 44.5,-270.5 "/>
<text text-anchor="middle" x="22" y="-258.5" font-family="Helvetica,sans-Serif" font-size="10.00"> </text>
<polyline fill="none" stroke="#bfbfbf" points="-0.5,-251.5 44.5,-251.5 "/>
<text text-anchor="middle" x="22" y="-239.5" font-family="Helvetica,sans-Serif" font-size="10.00"> </text>
</g>
<!-- Node3&#45;&gt;Node2 -->
<g id="edge2" class="edge"><title>Node3&#45;&gt;Node2</title>
<path fill="none" stroke="#404040" d="M18.5257,-232.187C17.9269,-219.598 18.6058,-204.722 23,-192 24.4968,-187.666 26.574,-183.415 28.977,-179.353"/>
<polygon fill="none" stroke="#404040" points="29.1825,-179.051 29.2435,-171.84 35.9231,-169.123 35.8621,-176.333 29.1825,-179.051"/>
<text text-anchor="middle" x="47.5" y="-200.5" font-family="Helvetica,sans-Serif" font-size="10.00"> +elements</text>
</g>
<!-- Node4 -->
<g id="node4" class="node"><title>Node4</title>
<polygon fill="none" stroke="#bfbfbf" points="76.5,-232.5 76.5,-289.5 111.5,-289.5 111.5,-232.5 76.5,-232.5"/>
<text text-anchor="middle" x="94" y="-277.5" font-family="Helvetica,sans-Serif" font-size="10.00">long</text>
<polyline fill="none" stroke="#bfbfbf" points="76.5,-270.5 111.5,-270.5 "/>
<text text-anchor="middle" x="94" y="-258.5" font-family="Helvetica,sans-Serif" font-size="10.00"> </text>
<polyline fill="none" stroke="#bfbfbf" points="76.5,-251.5 111.5,-251.5 "/>
<text text-anchor="middle" x="94" y="-239.5" font-family="Helvetica,sans-Serif" font-size="10.00"> </text>
</g>
<!-- Node4&#45;&gt;Node2 -->
<g id="edge3" class="edge"><title>Node4&#45;&gt;Node2</title>
<path fill="none" stroke="#404040" d="M85.2854,-232.404C80.8521,-218.365 75.3839,-201.049 70.5097,-185.614"/>
<polygon fill="none" stroke="#404040" points="70.3728,-185.18 64.7516,-180.663 66.7591,-173.737 72.3803,-178.254 70.3728,-185.18"/>
<text text-anchor="middle" x="102" y="-206" font-family="Helvetica,sans-Serif" font-size="10.00"> +capacity</text>
<text text-anchor="middle" x="102" y="-195" font-family="Helvetica,sans-Serif" font-size="10.00">+size</text>
</g>
</g>
</svg>
