<?xml version="1.0" encoding="UTF-8" standalone="no"?>
<!DOCTYPE svg PUBLIC "-//W3C//DTD SVG 1.1//EN"
 "http://www.w3.org/Graphics/SVG/1.1/DTD/svg11.dtd">
<!-- Generated by graphviz version 2.36.0 (20140111.2315)
 -->
<!-- Title: queue Pages: 1 -->
<svg width="74pt" height="240pt"
 viewBox="0.00 0.00 74.00 240.00" xmlns="http://www.w3.org/2000/svg" xmlns:xlink="http://www.w3.org/1999/xlink">
<g id="graph0" class="graph" transform="scale(1 1) rotate(0) translate(4 236)">
<title>queue</title>
<!-- Node1 -->
<g id="node1" class="node"><title>Node1</title>
<polygon fill="#bfbfbf" stroke="black" points="0.5,-141 0.5,-231 65.5,-231 65.5,-141 0.5,-141"/>
<text text-anchor="middle" x="33" y="-219" font-family="Helvetica,sans-Serif" font-size="10.00">queue</text>
<polyline fill="none" stroke="black" points="0.5,-212 65.5,-212 "/>
<text text-anchor="start" x="8.5" y="-200" font-family="Helvetica,sans-Serif" font-size="10.00">+ pop</text>
<text text-anchor="start" x="8.5" y="-189" font-family="Helvetica,sans-Serif" font-size="10.00">+ push</text>
<text text-anchor="start" x="8.5" y="-178" font-family="Helvetica,sans-Serif" font-size="10.00">+ capacity</text>
<text text-anchor="start" x="8.5" y="-167" font-family="Helvetica,sans-Serif" font-size="10.00">+ elements</text>
<polyline fill="none" stroke="black" points="0.5,-160 65.5,-160 "/>
<text text-anchor="middle" x="33" y="-148" font-family="Helvetica,sans-Serif" font-size="10.00"> </text>
</g>
<!-- Node2 -->
<g id="node2" class="node"><title>Node2</title>
<g id="a_node2"><a xlink:href="structqueue.html" target="_top" xlink:title="{queue\&lt; T \&gt;\n|+ pop\l+ push\l+ capacity\l+ elements\l|}">
<polygon fill="none" stroke="black" points="-0.5,-1 -0.5,-91 66.5,-91 66.5,-1 -0.5,-1"/>
<text text-anchor="middle" x="33" y="-79" font-family="Helvetica,sans-Serif" font-size="10.00">queue&lt; T &gt;</text>
<polyline fill="none" stroke="black" points="-0.5,-72 66.5,-72 "/>
<text text-anchor="start" x="7.5" y="-60" font-family="Helvetica,sans-Serif" font-size="10.00">+ pop</text>
<text text-anchor="start" x="7.5" y="-49" font-family="Helvetica,sans-Serif" font-size="10.00">+ push</text>
<text text-anchor="start" x="7.5" y="-38" font-family="Helvetica,sans-Serif" font-size="10.00">+ capacity</text>
<text text-anchor="start" x="7.5" y="-27" font-family="Helvetica,sans-Serif" font-size="10.00">+ elements</text>
<polyline fill="none" stroke="black" points="-0.5,-20 66.5,-20 "/>
<text text-anchor="middle" x="33" y="-8" font-family="Helvetica,sans-Serif" font-size="10.00"> </text>
</a>
</g>
</g>
<!-- Node1&#45;&gt;Node2 -->
<g id="edge1" class="edge"><title>Node1&#45;&gt;Node2</title>
<path fill="none" stroke="orange" d="M33,-130.638C33,-117.526 33,-103.675 33,-91.0984"/>
<polygon fill="orange" stroke="orange" points="29.5001,-130.956 33,-140.957 36.5001,-130.957 29.5001,-130.956"/>
<text text-anchor="middle" x="47" y="-113.5" font-family="Helvetica,sans-Serif" font-size="10.00"> &lt; T &gt;</text>
</g>
</g>
</svg>
