<?xml version="1.0" encoding="UTF-8" standalone="no"?>
<!DOCTYPE svg PUBLIC "-//W3C//DTD SVG 1.1//EN"
 "http://www.w3.org/Graphics/SVG/1.1/DTD/svg11.dtd">
<!-- Generated by graphviz version 2.36.0 (20140111.2315)
 -->
<!-- Title: TransList::HelpStack::Pop Pages: 1 -->
<!--zoomable 170 -->
<svg id="main" version="1.1" xmlns="http://www.w3.org/2000/svg" xmlns:xlink="http://www.w3.org/1999/xlink" xml:space="preserve" onload="init(evt)">
<style type="text/css"><![CDATA[
.edge:hover path { stroke: red; }
.edge:hover polygon { stroke: red; fill: red; }
]]></style>
<script type="text/javascript"><![CDATA[
var edges = document.getElementsByTagName('g');
if (edges && edges.length) {
  for (var i=0;i<edges.length;i++) {
    if (edges[i].id.substr(0,4)=='edge') {
      edges[i].setAttribute('class','edge');
    }
  }
}
]]></script>
        <defs>
                <circle id="rim" cx="0" cy="0" r="7"/>
                <circle id="rim2" cx="0" cy="0" r="3.5"/>
                <g id="zoomPlus">
                        <use xlink:href="#rim" fill="#404040">
                                <set attributeName="fill" to="#808080" begin="zoomplus.mouseover" end="zoomplus.mouseout"/>
                        </use>
                        <path d="M-4,0h8M0,-4v8" fill="none" stroke="white" stroke-width="1.5" pointer-events="none"/>
                </g>
                <g id="zoomMin">
                        <use xlink:href="#rim" fill="#404040">
                                <set attributeName="fill" to="#808080" begin="zoomminus.mouseover" end="zoomminus.mouseout"/>
                        </use>
                        <path d="M-4,0h8" fill="none" stroke="white" stroke-width="1.5" pointer-events="none"/>
                </g>
                <g id="dirArrow">
                        <path fill="none" stroke="white" stroke-width="1.5" d="M0,-3.0v7 M-2.5,-0.5L0,-3.0L2.5,-0.5"/>
                </g>
               <g id="resetDef">
                       <use xlink:href="#rim2" fill="#404040">
                               <set attributeName="fill" to="#808080" begin="reset.mouseover" end="reset.mouseout"/>
                       </use>
               </g>
        </defs>

<script type="text/javascript">
var viewWidth = 584;
var viewHeight = 170;
var sectionId = 'dynsection-3';
</script>
<script xlink:href="svgpan.js"/>
<svg id="graph" class="graph">
<g id="viewport">
<title>TransList::HelpStack::Pop</title>
<!-- Node1 -->
<g id="node1" class="node"><title>Node1</title>
<polygon fill="#bfbfbf" stroke="black" points="0,-66.5 0,-85.5 132,-85.5 132,-66.5 0,-66.5"/>
<text text-anchor="middle" x="66" y="-73.5" font-family="Helvetica,sans-Serif" font-size="10.00">TransList::HelpStack::Pop</text>
</g>
<!-- Node2 -->
<g id="node2" class="node"><title>Node2</title>
<g id="a_node2"><a xlink:href="classTransList.html#aa7e67c5ff8aeadc6d1d7791a297a58c4" target="_top" xlink:title="TransList::HelpOps">
<polygon fill="none" stroke="black" points="168.5,-66.5 168.5,-85.5 269.5,-85.5 269.5,-66.5 168.5,-66.5"/>
<text text-anchor="middle" x="219" y="-73.5" font-family="Helvetica,sans-Serif" font-size="10.00">TransList::HelpOps</text>
</a>
</g>
</g>
<!-- Node1&#45;&gt;Node2 -->
<g id="edge1" class="edge"><title>Node1&#45;&gt;Node2</title>
<path fill="none" stroke="midnightblue" d="M142.631,-76C151.409,-76 160.186,-76 168.485,-76"/>
<polygon fill="midnightblue" stroke="midnightblue" points="142.353,-72.5001 132.353,-76 142.353,-79.5001 142.353,-72.5001"/>
</g>
<!-- Node3 -->
<g id="node3" class="node"><title>Node3</title>
<g id="a_node3"><a xlink:href="classTransList.html#abe5853275ff6befa6ccd7ab0e84b4dce" target="_top" xlink:title="TransList::ExecuteOps">
<polygon fill="none" stroke="black" points="318.5,-142.5 318.5,-161.5 435.5,-161.5 435.5,-142.5 318.5,-142.5"/>
<text text-anchor="middle" x="377" y="-149.5" font-family="Helvetica,sans-Serif" font-size="10.00">TransList::ExecuteOps</text>
</a>
</g>
</g>
<!-- Node2&#45;&gt;Node3 -->
<g id="edge2" class="edge"><title>Node2&#45;&gt;Node3</title>
<path fill="none" stroke="midnightblue" d="M242.408,-91.3728C259.347,-102.536 283.459,-117.469 306,-128 317.872,-133.547 331.397,-138.484 343.372,-142.416"/>
<polygon fill="midnightblue" stroke="midnightblue" points="244.049,-88.2597 233.79,-85.6106 240.158,-94.0787 244.049,-88.2597"/>
</g>
<!-- Node4 -->
<g id="node4" class="node"><title>Node4</title>
<g id="a_node4"><a xlink:href="classTransList.html#a7ed667a308f2f7422dde28c7fe40cdc7" target="_top" xlink:title="TransList::FinishPendingTxn">
<polygon fill="none" stroke="black" points="306.5,-28.5 306.5,-47.5 447.5,-47.5 447.5,-28.5 306.5,-28.5"/>
<text text-anchor="middle" x="377" y="-35.5" font-family="Helvetica,sans-Serif" font-size="10.00">TransList::FinishPendingTxn</text>
</a>
</g>
</g>
<!-- Node2&#45;&gt;Node4 -->
<g id="edge3" class="edge"><title>Node2&#45;&gt;Node4</title>
<path fill="none" stroke="midnightblue" d="M269.132,-64.032C290.993,-58.7069 316.376,-52.5238 336.918,-47.5201"/>
<polygon fill="midnightblue" stroke="midnightblue" points="268.253,-60.6437 259.365,-66.411 269.91,-67.4448 268.253,-60.6437"/>
</g>
<!-- Node5 -->
<g id="node5" class="node"><title>Node5</title>
<g id="a_node5"><a xlink:href="classTransList.html#a5ace06b8defeb2501a9607fc8fdec5f0" target="_top" xlink:title="TransList::Insert">
<polygon fill="none" stroke="black" points="486,-94.5 486,-113.5 574,-113.5 574,-94.5 486,-94.5"/>
<text text-anchor="middle" x="530" y="-101.5" font-family="Helvetica,sans-Serif" font-size="10.00">TransList::Insert</text>
</a>
</g>
</g>
<!-- Node4&#45;&gt;Node5 -->
<g id="edge4" class="edge"><title>Node4&#45;&gt;Node5</title>
<path fill="none" stroke="midnightblue" d="M409.29,-51.6764C438.481,-64.4353 481.284,-83.144 507.017,-94.3915"/>
<polygon fill="midnightblue" stroke="midnightblue" points="410.521,-48.395 399.957,-47.597 407.718,-54.8091 410.521,-48.395"/>
</g>
<!-- Node6 -->
<g id="node6" class="node"><title>Node6</title>
<g id="a_node6"><a xlink:href="classTransList.html#ae48aacff3239bd5b85749631c2ac271a" target="_top" xlink:title="TransList::Delete">
<polygon fill="none" stroke="black" points="484,-47.5 484,-66.5 576,-66.5 576,-47.5 484,-47.5"/>
<text text-anchor="middle" x="530" y="-54.5" font-family="Helvetica,sans-Serif" font-size="10.00">TransList::Delete</text>
</a>
</g>
</g>
<!-- Node4&#45;&gt;Node6 -->
<g id="edge6" class="edge"><title>Node4&#45;&gt;Node6</title>
<path fill="none" stroke="midnightblue" d="M457.788,-48.0396C466.669,-49.1571 475.471,-50.2646 483.7,-51.3"/>
<polygon fill="midnightblue" stroke="midnightblue" points="458.113,-44.5529 447.754,-46.777 457.239,-51.4981 458.113,-44.5529"/>
</g>
<!-- Node7 -->
<g id="node7" class="node"><title>Node7</title>
<g id="a_node7"><a xlink:href="classTransList.html#ab75389528ee7e0773ac0fe9c00351670" target="_top" xlink:title="TransList::Find">
<polygon fill="none" stroke="black" points="489,-0.5 489,-19.5 571,-19.5 571,-0.5 489,-0.5"/>
<text text-anchor="middle" x="530" y="-7.5" font-family="Helvetica,sans-Serif" font-size="10.00">TransList::Find</text>
</a>
</g>
</g>
<!-- Node4&#45;&gt;Node7 -->
<g id="edge8" class="edge"><title>Node4&#45;&gt;Node7</title>
<path fill="none" stroke="midnightblue" d="M439.676,-26.5633C456.188,-23.5016 473.613,-20.2705 488.645,-17.4831"/>
<polygon fill="midnightblue" stroke="midnightblue" points="438.738,-23.1777 429.543,-28.4423 440.014,-30.0603 438.738,-23.1777"/>
</g>
<!-- Node5&#45;&gt;Node2 -->
<g id="edge5" class="edge"><title>Node5&#45;&gt;Node2</title>
<path fill="none" stroke="midnightblue" d="M475.913,-99.1896C418.032,-93.9447 326.135,-85.6174 269.646,-80.4987"/>
<polygon fill="midnightblue" stroke="midnightblue" points="475.681,-102.683 485.956,-100.1 476.313,-95.7113 475.681,-102.683"/>
</g>
<!-- Node6&#45;&gt;Node2 -->
<g id="edge7" class="edge"><title>Node6&#45;&gt;Node2</title>
<path fill="none" stroke="midnightblue" d="M473.921,-60.3867C415.942,-63.9518 325.491,-69.5135 269.646,-72.9473"/>
<polygon fill="midnightblue" stroke="midnightblue" points="474.233,-63.8743 483.999,-59.7671 473.803,-56.8875 474.233,-63.8743"/>
</g>
<!-- Node7&#45;&gt;Node2 -->
<g id="edge9" class="edge"><title>Node7&#45;&gt;Node2</title>
<path fill="none" stroke="midnightblue" d="M478.755,-4.45316C432.653,-1.11517 363.066,-0.542079 306,-19 275.493,-28.8673 245.602,-52.8035 230.381,-66.3099"/>
<polygon fill="midnightblue" stroke="midnightblue" points="478.551,-7.94786 488.796,-5.25092 479.105,-0.969848 478.551,-7.94786"/>
</g>
</g>
</svg>
        <g id="navigator" transform="translate(0 0)" fill="#404254">
                <rect fill="#f2f5e9" fill-opacity="0.5" stroke="#606060" stroke-width=".5" x="0" y="0" width="60" height="60"/>
                <use id="zoomplus" xlink:href="#zoomPlus" x="17" y="9" onmousedown="handleZoom(evt,'in')"/>
                <use id="zoomminus" xlink:href="#zoomMin" x="42" y="9" onmousedown="handleZoom(evt,'out')"/>
                <use id="reset" xlink:href="#resetDef" x="30" y="36" onmousedown="handleReset()"/>
                <g id="arrowUp" xlink:href="#dirArrow" transform="translate(30 24)" onmousedown="handlePan(0,-1)">
                  <use xlink:href="#rim" fill="#404040">
                        <set attributeName="fill" to="#808080" begin="arrowUp.mouseover" end="arrowUp.mouseout"/>
                  </use>
                  <path fill="none" stroke="white" stroke-width="1.5" d="M0,-3.0v7 M-2.5,-0.5L0,-3.0L2.5,-0.5"/>
                </g>
                <g id="arrowRight" xlink:href="#dirArrow" transform="rotate(90) translate(36 -43)" onmousedown="handlePan(1,0)">
                  <use xlink:href="#rim" fill="#404040">
                        <set attributeName="fill" to="#808080" begin="arrowRight.mouseover" end="arrowRight.mouseout"/>
                  </use>
                  <path fill="none" stroke="white" stroke-width="1.5" d="M0,-3.0v7 M-2.5,-0.5L0,-3.0L2.5,-0.5"/>
                </g>
                <g id="arrowDown" xlink:href="#dirArrow" transform="rotate(180) translate(-30 -48)" onmousedown="handlePan(0,1)">
                  <use xlink:href="#rim" fill="#404040">
                        <set attributeName="fill" to="#808080" begin="arrowDown.mouseover" end="arrowDown.mouseout"/>
                  </use>
                  <path fill="none" stroke="white" stroke-width="1.5" d="M0,-3.0v7 M-2.5,-0.5L0,-3.0L2.5,-0.5"/>
                </g>
                <g id="arrowLeft" xlink:href="#dirArrow" transform="rotate(270) translate(-36 17)" onmousedown="handlePan(-1,0)">
                  <use xlink:href="#rim" fill="#404040">
                        <set attributeName="fill" to="#808080" begin="arrowLeft.mouseover" end="arrowLeft.mouseout"/>
                  </use>
                  <path fill="none" stroke="white" stroke-width="1.5" d="M0,-3.0v7 M-2.5,-0.5L0,-3.0L2.5,-0.5"/>
                </g>
        </g>
        <svg viewBox="0 0 15 15" width="100%" height="30px" preserveAspectRatio="xMaxYMin meet">
         <g id="arrow_out" transform="scale(0.3 0.3)">
          <a xlink:href="structTransList_1_1HelpStack_a904c73647d6093edd7e4cc3334d1aa0c_icgraph_org.svg" target="_base">
           <rect id="button" ry="5" rx="5" y="6" x="6" height="38" width="38"
                fill="#f2f5e9" fill-opacity="0.5" stroke="#606060" stroke-width="1.0"/>
           <path id="arrow"
             d="M 11.500037,31.436501 C 11.940474,20.09759 22.043105,11.32322 32.158766,21.979434 L 37.068811,17.246167 C 37.068811,17.246167 37.088388,32 37.088388,32 L 22.160133,31.978069 C 22.160133,31.978069 26.997745,27.140456 26.997745,27.140456 C 18.528582,18.264221 13.291696,25.230495 11.500037,31.436501 z"
             style="fill:#404040;"/>
          </a>
         </g>
        </svg>
</svg>
