<?xml version="1.0" encoding="UTF-8" standalone="no"?>
<!DOCTYPE svg PUBLIC "-//W3C//DTD SVG 1.1//EN"
 "http://www.w3.org/Graphics/SVG/1.1/DTD/svg11.dtd">
<!-- Generated by graphviz version 2.36.0 (20140111.2315)
 -->
<!-- Title: jsw_avlnode Pages: 1 -->
<svg width="136pt" height="172pt"
 viewBox="0.00 0.00 136.00 172.00" xmlns="http://www.w3.org/2000/svg" xmlns:xlink="http://www.w3.org/1999/xlink">
<g id="graph0" class="graph" transform="scale(1 1) rotate(0) translate(4 168)">
<title>jsw_avlnode</title>
<!-- Node1 -->
<g id="node1" class="node"><title>Node1</title>
<polygon fill="#bfbfbf" stroke="black" points="14.5,-0.5 14.5,-57.5 85.5,-57.5 85.5,-0.5 14.5,-0.5"/>
<text text-anchor="middle" x="50" y="-45.5" font-family="Helvetica,sans-Serif" font-size="10.00">jsw_avlnode</text>
<polyline fill="none" stroke="black" points="14.5,-38.5 85.5,-38.5 "/>
<text text-anchor="middle" x="50" y="-26.5" font-family="Helvetica,sans-Serif" font-size="10.00"> </text>
<polyline fill="none" stroke="black" points="14.5,-19.5 85.5,-19.5 "/>
<text text-anchor="middle" x="50" y="-7.5" font-family="Helvetica,sans-Serif" font-size="10.00"> </text>
</g>
<!-- Node1&#45;&gt;Node1 -->
<g id="edge1" class="edge"><title>Node1&#45;&gt;Node1</title>
<path fill="none" stroke="#404040" d="M85.6693,-38.6905C95.493,-38.2224 103,-34.9922 103,-29 103,-25.8167 100.881,-23.4128 97.4222,-21.7885"/>
<polygon fill="none" stroke="#404040" points="97.4109,-21.7862 90.7146,-24.4617 85.6693,-19.3095 92.3657,-16.634 97.4109,-21.7862"/>
<text text-anchor="middle" x="115.5" y="-26.5" font-family="Helvetica,sans-Serif" font-size="10.00"> +link</text>
</g>
<!-- Node2 -->
<g id="node2" class="node"><title>Node2</title>
<polygon fill="none" stroke="#bfbfbf" points="-0.5,-106.5 -0.5,-163.5 34.5,-163.5 34.5,-106.5 -0.5,-106.5"/>
<text text-anchor="middle" x="17" y="-151.5" font-family="Helvetica,sans-Serif" font-size="10.00">long</text>
<polyline fill="none" stroke="#bfbfbf" points="-0.5,-144.5 34.5,-144.5 "/>
<text text-anchor="middle" x="17" y="-132.5" font-family="Helvetica,sans-Serif" font-size="10.00"> </text>
<polyline fill="none" stroke="#bfbfbf" points="-0.5,-125.5 34.5,-125.5 "/>
<text text-anchor="middle" x="17" y="-113.5" font-family="Helvetica,sans-Serif" font-size="10.00"> </text>
</g>
<!-- Node2&#45;&gt;Node1 -->
<g id="edge2" class="edge"><title>Node2&#45;&gt;Node1</title>
<path fill="none" stroke="#404040" d="M14.212,-106.312C14.0737,-96.5295 14.9036,-85.5831 18,-76 18.8384,-73.4051 19.8769,-70.8269 21.0616,-68.293"/>
<polygon fill="none" stroke="#404040" points="21.2003,-68.0431 20.6152,-60.8558 27.0247,-57.5514 27.6097,-64.7387 21.2003,-68.0431"/>
<text text-anchor="middle" x="39.5" y="-79.5" font-family="Helvetica,sans-Serif" font-size="10.00"> +balance</text>
</g>
<!-- Node3 -->
<g id="node3" class="node"><title>Node3</title>
<polygon fill="none" stroke="#bfbfbf" points="62.5,-106.5 62.5,-163.5 103.5,-163.5 103.5,-106.5 62.5,-106.5"/>
<text text-anchor="middle" x="83" y="-151.5" font-family="Helvetica,sans-Serif" font-size="10.00">void *</text>
<polyline fill="none" stroke="#bfbfbf" points="62.5,-144.5 103.5,-144.5 "/>
<text text-anchor="middle" x="83" y="-132.5" font-family="Helvetica,sans-Serif" font-size="10.00"> </text>
<polyline fill="none" stroke="#bfbfbf" points="62.5,-125.5 103.5,-125.5 "/>
<text text-anchor="middle" x="83" y="-113.5" font-family="Helvetica,sans-Serif" font-size="10.00"> </text>
</g>
<!-- Node3&#45;&gt;Node1 -->
<g id="edge3" class="edge"><title>Node3&#45;&gt;Node1</title>
<path fill="none" stroke="#404040" d="M74.2432,-106.403C70.6257,-95.0023 66.366,-81.5777 62.4346,-69.1879"/>
<polygon fill="none" stroke="#404040" points="62.4271,-69.164 56.7997,-64.6548 58.7977,-57.726 64.4251,-62.2352 62.4271,-69.164"/>
<text text-anchor="middle" x="81" y="-79.5" font-family="Helvetica,sans-Serif" font-size="10.00"> +data</text>
</g>
</g>
</svg>
