<?xml version="1.0" encoding="UTF-8" standalone="no"?>
<!DOCTYPE svg PUBLIC "-//W3C//DTD SVG 1.1//EN"
 "http://www.w3.org/Graphics/SVG/1.1/DTD/svg11.dtd">
<!-- Generated by graphviz version 2.36.0 (20140111.2315)
 -->
<!-- Title: stm::HourglassBackoffCM::onBegin Pages: 1 -->
<!--zoomable 210 -->
<svg id="main" version="1.1" xmlns="http://www.w3.org/2000/svg" xmlns:xlink="http://www.w3.org/1999/xlink" xml:space="preserve" onload="init(evt)">
<style type="text/css"><![CDATA[
.edge:hover path { stroke: red; }
.edge:hover polygon { stroke: red; fill: red; }
]]></style>
<script type="text/javascript"><![CDATA[
var edges = document.getElementsByTagName('g');
if (edges && edges.length) {
  for (var i=0;i<edges.length;i++) {
    if (edges[i].id.substr(0,4)=='edge') {
      edges[i].setAttribute('class','edge');
    }
  }
}
]]></script>
        <defs>
                <circle id="rim" cx="0" cy="0" r="7"/>
                <circle id="rim2" cx="0" cy="0" r="3.5"/>
                <g id="zoomPlus">
                        <use xlink:href="#rim" fill="#404040">
                                <set attributeName="fill" to="#808080" begin="zoomplus.mouseover" end="zoomplus.mouseout"/>
                        </use>
                        <path d="M-4,0h8M0,-4v8" fill="none" stroke="white" stroke-width="1.5" pointer-events="none"/>
                </g>
                <g id="zoomMin">
                        <use xlink:href="#rim" fill="#404040">
                                <set attributeName="fill" to="#808080" begin="zoomminus.mouseover" end="zoomminus.mouseout"/>
                        </use>
                        <path d="M-4,0h8" fill="none" stroke="white" stroke-width="1.5" pointer-events="none"/>
                </g>
                <g id="dirArrow">
                        <path fill="none" stroke="white" stroke-width="1.5" d="M0,-3.0v7 M-2.5,-0.5L0,-3.0L2.5,-0.5"/>
                </g>
               <g id="resetDef">
                       <use xlink:href="#rim2" fill="#404040">
                               <set attributeName="fill" to="#808080" begin="reset.mouseover" end="reset.mouseout"/>
                       </use>
               </g>
        </defs>

<script type="text/javascript">
var viewWidth = 1480;
var viewHeight = 210;
var sectionId = 'dynsection-2';
</script>
<script xlink:href="svgpan.js"/>
<svg id="graph" class="graph">
<g id="viewport">
<title>stm::HourglassBackoffCM::onBegin</title>
<!-- Node1 -->
<g id="node1" class="node"><title>Node1</title>
<polygon fill="#bfbfbf" stroke="black" points="0.5,-41 0.5,-71 133.5,-71 133.5,-41 0.5,-41"/>
<text text-anchor="start" x="8.5" y="-59" font-family="Helvetica,sans-Serif" font-size="10.00">stm::HourglassBackoffCM</text>
<text text-anchor="middle" x="67" y="-48" font-family="Helvetica,sans-Serif" font-size="10.00">::onBegin</text>
</g>
<!-- Node2 -->
<g id="node2" class="node"><title>Node2</title>
<g id="a_node2"><a xlink:href="namespacestm.html#a347d5009be494e8595a8933c49a342b4" target="_top" xlink:title="stm::begin_blocker">
<polygon fill="none" stroke="black" points="170.5,-46.5 170.5,-65.5 269.5,-65.5 269.5,-46.5 170.5,-46.5"/>
<text text-anchor="middle" x="220" y="-53.5" font-family="Helvetica,sans-Serif" font-size="10.00">stm::begin_blocker</text>
</a>
</g>
</g>
<!-- Node1&#45;&gt;Node2 -->
<g id="edge1" class="edge"><title>Node1&#45;&gt;Node2</title>
<path fill="none" stroke="midnightblue" d="M133.792,-56C142.588,-56 151.564,-56 160.23,-56"/>
<polygon fill="midnightblue" stroke="midnightblue" points="160.232,-59.5001 170.232,-56 160.232,-52.5001 160.232,-59.5001"/>
</g>
<!-- Node3 -->
<g id="node3" class="node"><title>Node3</title>
<g id="a_node3"><a xlink:href="namespaceanonymous__namespace_02irrevocability_8cpp_03.html#a5f2e3da55eda99c9e30b6314c36ed8b2" target="_top" xlink:title="anonymous_namespace\l\{irrevocability::cpp\}\l::set_irrevocable_barriers">
<polygon fill="none" stroke="black" points="306,-60.5 306,-101.5 432,-101.5 432,-60.5 306,-60.5"/>
<text text-anchor="start" x="314" y="-89.5" font-family="Helvetica,sans-Serif" font-size="10.00">anonymous_namespace</text>
<text text-anchor="start" x="314" y="-78.5" font-family="Helvetica,sans-Serif" font-size="10.00">{irrevocability::cpp}</text>
<text text-anchor="middle" x="369" y="-67.5" font-family="Helvetica,sans-Serif" font-size="10.00">::set_irrevocable_barriers</text>
</a>
</g>
</g>
<!-- Node2&#45;&gt;Node3 -->
<g id="edge2" class="edge"><title>Node2&#45;&gt;Node3</title>
<path fill="none" stroke="midnightblue" d="M269.541,-64.2552C277.987,-65.6916 286.931,-67.2128 295.85,-68.7295"/>
<polygon fill="midnightblue" stroke="midnightblue" points="295.434,-72.209 305.879,-70.4353 296.608,-65.3081 295.434,-72.209"/>
</g>
<!-- Node18 -->
<g id="node18" class="node"><title>Node18</title>
<g id="a_node18"><a xlink:href="locks_8hpp.html#a67493dc021b0db009a9603ea55d18c59" target="_top" xlink:title="spin64">
<polygon fill="none" stroke="black" points="346.5,-22.5 346.5,-41.5 391.5,-41.5 391.5,-22.5 346.5,-22.5"/>
<text text-anchor="middle" x="369" y="-29.5" font-family="Helvetica,sans-Serif" font-size="10.00">spin64</text>
</a>
</g>
</g>
<!-- Node2&#45;&gt;Node18 -->
<g id="edge18" class="edge"><title>Node2&#45;&gt;Node18</title>
<path fill="none" stroke="midnightblue" d="M269.541,-48.075C291.516,-44.4872 316.869,-40.3479 336.345,-37.1682"/>
<polygon fill="midnightblue" stroke="midnightblue" points="336.917,-40.6213 346.222,-35.5556 335.789,-33.7127 336.917,-40.6213"/>
</g>
<!-- Node4 -->
<g id="node4" class="node"><title>Node4</title>
<g id="a_node4"><a xlink:href="namespaceanonymous__namespace_02irrevocability_8cpp_03.html#af9e6aae425588bac29be16e10b91cd4c" target="_top" xlink:title="anonymous_namespace\l\{irrevocability::cpp\}\l::commit_irrevocable">
<polygon fill="none" stroke="black" points="468,-120.5 468,-161.5 590,-161.5 590,-120.5 468,-120.5"/>
<text text-anchor="start" x="476" y="-149.5" font-family="Helvetica,sans-Serif" font-size="10.00">anonymous_namespace</text>
<text text-anchor="start" x="476" y="-138.5" font-family="Helvetica,sans-Serif" font-size="10.00">{irrevocability::cpp}</text>
<text text-anchor="middle" x="529" y="-127.5" font-family="Helvetica,sans-Serif" font-size="10.00">::commit_irrevocable</text>
</a>
</g>
</g>
<!-- Node3&#45;&gt;Node4 -->
<g id="edge3" class="edge"><title>Node3&#45;&gt;Node4</title>
<path fill="none" stroke="midnightblue" d="M424.375,-101.649C437.232,-106.531 451.057,-111.781 464.287,-116.805"/>
<polygon fill="midnightblue" stroke="midnightblue" points="463.202,-120.137 473.793,-120.415 465.687,-113.593 463.202,-120.137"/>
</g>
<!-- Node15 -->
<g id="node15" class="node"><title>Node15</title>
<g id="a_node15"><a xlink:href="namespaceanonymous__namespace_02irrevocability_8cpp_03.html#adfdb44f5b204ddd367543d1e3a5465fc" target="_top" xlink:title="anonymous_namespace\l\{irrevocability::cpp\}\l::rollback_irrevocable">
<polygon fill="none" stroke="black" points="468,-60.5 468,-101.5 590,-101.5 590,-60.5 468,-60.5"/>
<text text-anchor="start" x="476" y="-89.5" font-family="Helvetica,sans-Serif" font-size="10.00">anonymous_namespace</text>
<text text-anchor="start" x="476" y="-78.5" font-family="Helvetica,sans-Serif" font-size="10.00">{irrevocability::cpp}</text>
<text text-anchor="middle" x="529" y="-67.5" font-family="Helvetica,sans-Serif" font-size="10.00">::rollback_irrevocable</text>
</a>
</g>
</g>
<!-- Node3&#45;&gt;Node15 -->
<g id="edge14" class="edge"><title>Node3&#45;&gt;Node15</title>
<path fill="none" stroke="midnightblue" d="M432.446,-81C440.724,-81 449.257,-81 457.658,-81"/>
<polygon fill="midnightblue" stroke="midnightblue" points="457.813,-84.5001 467.813,-81 457.813,-77.5001 457.813,-84.5001"/>
</g>
<!-- Node17 -->
<g id="node17" class="node"><title>Node17</title>
<g id="a_node17"><a xlink:href="namespaceanonymous__namespace_02irrevocability_8cpp_03.html#ac71fd4f2ae60b1814ccaedea40d424a2" target="_top" xlink:title="anonymous_namespace\l\{irrevocability::cpp\}\l::abort_irrevocable">
<polygon fill="none" stroke="black" points="468,-0.5 468,-41.5 590,-41.5 590,-0.5 468,-0.5"/>
<text text-anchor="start" x="476" y="-29.5" font-family="Helvetica,sans-Serif" font-size="10.00">anonymous_namespace</text>
<text text-anchor="start" x="476" y="-18.5" font-family="Helvetica,sans-Serif" font-size="10.00">{irrevocability::cpp}</text>
<text text-anchor="middle" x="529" y="-7.5" font-family="Helvetica,sans-Serif" font-size="10.00">::abort_irrevocable</text>
</a>
</g>
</g>
<!-- Node3&#45;&gt;Node17 -->
<g id="edge16" class="edge"><title>Node3&#45;&gt;Node17</title>
<path fill="none" stroke="midnightblue" d="M424.375,-60.3514C437.232,-55.4687 451.057,-50.2189 464.287,-45.1949"/>
<polygon fill="midnightblue" stroke="midnightblue" points="465.687,-48.4072 473.793,-41.585 463.202,-41.8631 465.687,-48.4072"/>
</g>
<!-- Node5 -->
<g id="node5" class="node"><title>Node5</title>
<g id="a_node5"><a xlink:href="namespaceanonymous__namespace_02irrevocability_8cpp_03.html#ab42770392de26e3b0bc1ffbe2f7932b8" target="_top" xlink:title="anonymous_namespace\l\{irrevocability::cpp\}\l::unset_irrevocable_barriers">
<polygon fill="none" stroke="black" points="626.5,-141.5 626.5,-182.5 763.5,-182.5 763.5,-141.5 626.5,-141.5"/>
<text text-anchor="start" x="634.5" y="-170.5" font-family="Helvetica,sans-Serif" font-size="10.00">anonymous_namespace</text>
<text text-anchor="start" x="634.5" y="-159.5" font-family="Helvetica,sans-Serif" font-size="10.00">{irrevocability::cpp}</text>
<text text-anchor="middle" x="695" y="-148.5" font-family="Helvetica,sans-Serif" font-size="10.00">::unset_irrevocable_barriers</text>
</a>
</g>
</g>
<!-- Node4&#45;&gt;Node5 -->
<g id="edge4" class="edge"><title>Node4&#45;&gt;Node5</title>
<path fill="none" stroke="midnightblue" d="M590.136,-148.7C598.705,-149.798 607.616,-150.939 616.459,-152.071"/>
<polygon fill="midnightblue" stroke="midnightblue" points="616.027,-155.544 626.391,-153.343 616.916,-148.601 616.027,-155.544"/>
</g>
<!-- Node6 -->
<g id="node6" class="node"><title>Node6</title>
<g id="a_node6"><a xlink:href="namespacestm.html#a00287c50a719dcda144cc1cbc9e9ae4b" target="_top" xlink:title="stm::OnReadOnlyCommit">
<polygon fill="none" stroke="black" points="630,-103.5 630,-122.5 760,-122.5 760,-103.5 630,-103.5"/>
<text text-anchor="middle" x="695" y="-110.5" font-family="Helvetica,sans-Serif" font-size="10.00">stm::OnReadOnlyCommit</text>
</a>
</g>
</g>
<!-- Node4&#45;&gt;Node6 -->
<g id="edge5" class="edge"><title>Node4&#45;&gt;Node6</title>
<path fill="none" stroke="midnightblue" d="M590.136,-130.733C602.543,-128.615 615.671,-126.373 628.265,-124.223"/>
<polygon fill="midnightblue" stroke="midnightblue" points="628.958,-127.655 638.227,-122.522 627.78,-120.755 628.958,-127.655"/>
</g>
<!-- Node7 -->
<g id="node7" class="node"><title>Node7</title>
<g id="a_node7"><a xlink:href="classstm_1_1WBMMPolicy.html#af174b70b9898c8d900a5a2604cfadc7c" target="_top" xlink:title="stm::WBMMPolicy::onTxCommit">
<polygon fill="none" stroke="black" points="800.5,-122.5 800.5,-141.5 961.5,-141.5 961.5,-122.5 800.5,-122.5"/>
<text text-anchor="middle" x="881" y="-129.5" font-family="Helvetica,sans-Serif" font-size="10.00">stm::WBMMPolicy::onTxCommit</text>
</a>
</g>
</g>
<!-- Node6&#45;&gt;Node7 -->
<g id="edge6" class="edge"><title>Node6&#45;&gt;Node7</title>
<path fill="none" stroke="midnightblue" d="M760.096,-119.619C769.819,-120.623 780.002,-121.674 790.15,-122.722"/>
<polygon fill="midnightblue" stroke="midnightblue" points="789.961,-126.221 800.267,-123.767 790.68,-119.258 789.961,-126.221"/>
</g>
<!-- Node14 -->
<g id="node14" class="node"><title>Node14</title>
<g id="a_node14"><a xlink:href="structstm_1_1toxic__nop__t.html#a1c92cb621137c523ad38b9c252b4da06" target="_top" xlink:title="stm::toxic_nop_t::onCommit">
<polygon fill="none" stroke="black" points="811,-84.5 811,-103.5 951,-103.5 951,-84.5 811,-84.5"/>
<text text-anchor="middle" x="881" y="-91.5" font-family="Helvetica,sans-Serif" font-size="10.00">stm::toxic_nop_t::onCommit</text>
</a>
</g>
</g>
<!-- Node6&#45;&gt;Node14 -->
<g id="edge13" class="edge"><title>Node6&#45;&gt;Node14</title>
<path fill="none" stroke="midnightblue" d="M760.096,-106.381C773.154,-105.033 787.041,-103.599 800.559,-102.203"/>
<polygon fill="midnightblue" stroke="midnightblue" points="801.218,-105.654 810.805,-101.145 800.498,-98.6909 801.218,-105.654"/>
</g>
<!-- Node8 -->
<g id="node8" class="node"><title>Node8</title>
<g id="a_node8"><a xlink:href="classstm_1_1MiniVector.html#a4d707e1115e162943b4709a2af92ed77" target="_top" xlink:title="stm::MiniVector::begin">
<polygon fill="none" stroke="black" points="1013.5,-182.5 1013.5,-201.5 1128.5,-201.5 1128.5,-182.5 1013.5,-182.5"/>
<text text-anchor="middle" x="1071" y="-189.5" font-family="Helvetica,sans-Serif" font-size="10.00">stm::MiniVector::begin</text>
</a>
</g>
</g>
<!-- Node7&#45;&gt;Node8 -->
<g id="edge7" class="edge"><title>Node7&#45;&gt;Node8</title>
<path fill="none" stroke="midnightblue" d="M907.146,-141.558C930.509,-150.278 966.36,-163.252 998,-173 1005.56,-175.329 1013.61,-177.629 1021.5,-179.782"/>
<polygon fill="midnightblue" stroke="midnightblue" points="1020.78,-183.213 1031.35,-182.421 1022.59,-176.452 1020.78,-183.213"/>
</g>
<!-- Node9 -->
<g id="node9" class="node"><title>Node9</title>
<g id="a_node9"><a xlink:href="classstm_1_1MiniVector.html#ae2297c706ac2ebee161ef60ace9ae645" target="_top" xlink:title="stm::MiniVector::end">
<polygon fill="none" stroke="black" points="1017.5,-144.5 1017.5,-163.5 1124.5,-163.5 1124.5,-144.5 1017.5,-144.5"/>
<text text-anchor="middle" x="1071" y="-151.5" font-family="Helvetica,sans-Serif" font-size="10.00">stm::MiniVector::end</text>
</a>
</g>
</g>
<!-- Node7&#45;&gt;Node9 -->
<g id="edge8" class="edge"><title>Node7&#45;&gt;Node9</title>
<path fill="none" stroke="midnightblue" d="M961.729,-141.33C977.016,-143.119 992.818,-144.968 1007.47,-146.682"/>
<polygon fill="midnightblue" stroke="midnightblue" points="1007.07,-150.159 1017.4,-147.845 1007.88,-143.207 1007.07,-150.159"/>
</g>
<!-- Node10 -->
<g id="node10" class="node"><title>Node10</title>
<g id="a_node10"><a xlink:href="classstm_1_1WBMMPolicy.html#aa2aa233946e7b6b1d35b184503b8c9f9" target="_top" xlink:title="stm::WBMMPolicy::schedFor\lReclaim">
<polygon fill="none" stroke="black" points="998,-95 998,-125 1144,-125 1144,-95 998,-95"/>
<text text-anchor="start" x="1006" y="-113" font-family="Helvetica,sans-Serif" font-size="10.00">stm::WBMMPolicy::schedFor</text>
<text text-anchor="middle" x="1071" y="-102" font-family="Helvetica,sans-Serif" font-size="10.00">Reclaim</text>
</a>
</g>
</g>
<!-- Node7&#45;&gt;Node10 -->
<g id="edge9" class="edge"><title>Node7&#45;&gt;Node10</title>
<path fill="none" stroke="midnightblue" d="M961.729,-122.67C970.361,-121.66 979.157,-120.631 987.817,-119.617"/>
<polygon fill="midnightblue" stroke="midnightblue" points="988.377,-123.076 997.902,-118.437 987.563,-116.123 988.377,-123.076"/>
</g>
<!-- Node13 -->
<g id="node13" class="node"><title>Node13</title>
<g id="a_node13"><a xlink:href="classstm_1_1MiniVector.html#ad17f9c76202d399264ba62812f0b5c41" target="_top" xlink:title="stm::MiniVector::reset">
<polygon fill="none" stroke="black" points="1014.5,-56.5 1014.5,-75.5 1127.5,-75.5 1127.5,-56.5 1014.5,-56.5"/>
<text text-anchor="middle" x="1071" y="-63.5" font-family="Helvetica,sans-Serif" font-size="10.00">stm::MiniVector::reset</text>
</a>
</g>
</g>
<!-- Node7&#45;&gt;Node13 -->
<g id="edge12" class="edge"><title>Node7&#45;&gt;Node13</title>
<path fill="none" stroke="midnightblue" d="M935.965,-122.394C944.877,-119.906 953.857,-116.817 962,-113 980.109,-104.511 980.054,-94.8292 998,-86 1003.65,-83.2187 1009.75,-80.773 1015.92,-78.6355"/>
<polygon fill="midnightblue" stroke="midnightblue" points="1017.18,-81.91 1025.63,-75.5265 1015.04,-75.2436 1017.18,-81.91"/>
</g>
<!-- Node11 -->
<g id="node11" class="node"><title>Node11</title>
<g id="a_node11"><a xlink:href="classstm_1_1WBMMPolicy.html#a80a035e5b8f805d49606613b869ddd3c" target="_top" xlink:title="stm::WBMMPolicy::handle\l_full_prelimbo">
<polygon fill="none" stroke="black" points="1180,-95 1180,-125 1314,-125 1314,-95 1180,-95"/>
<text text-anchor="start" x="1188" y="-113" font-family="Helvetica,sans-Serif" font-size="10.00">stm::WBMMPolicy::handle</text>
<text text-anchor="middle" x="1247" y="-102" font-family="Helvetica,sans-Serif" font-size="10.00">_full_prelimbo</text>
</a>
</g>
</g>
<!-- Node10&#45;&gt;Node11 -->
<g id="edge10" class="edge"><title>Node10&#45;&gt;Node11</title>
<path fill="none" stroke="midnightblue" d="M1144.03,-110C1152.47,-110 1161.11,-110 1169.6,-110"/>
<polygon fill="midnightblue" stroke="midnightblue" points="1169.88,-113.5 1179.88,-110 1169.88,-106.5 1169.88,-113.5"/>
</g>
<!-- Node12 -->
<g id="node12" class="node"><title>Node12</title>
<g id="a_node12"><a xlink:href="namespaceanonymous__namespace_02WBMMPolicy_8cpp_03.html#a030c6e9142fd49127ce70ad9b1af5e79" target="_top" xlink:title="anonymous_namespace\l\{WBMMPolicy::cpp\}::is\l_strictly_older">
<polygon fill="none" stroke="black" points="1350,-89.5 1350,-130.5 1472,-130.5 1472,-89.5 1350,-89.5"/>
<text text-anchor="start" x="1358" y="-118.5" font-family="Helvetica,sans-Serif" font-size="10.00">anonymous_namespace</text>
<text text-anchor="start" x="1358" y="-107.5" font-family="Helvetica,sans-Serif" font-size="10.00">{WBMMPolicy::cpp}::is</text>
<text text-anchor="middle" x="1411" y="-96.5" font-family="Helvetica,sans-Serif" font-size="10.00">_strictly_older</text>
</a>
</g>
</g>
<!-- Node11&#45;&gt;Node12 -->
<g id="edge11" class="edge"><title>Node11&#45;&gt;Node12</title>
<path fill="none" stroke="midnightblue" d="M1314.36,-110C1322.75,-110 1331.35,-110 1339.79,-110"/>
<polygon fill="midnightblue" stroke="midnightblue" points="1339.99,-113.5 1349.99,-110 1339.99,-106.5 1339.99,-113.5"/>
</g>
<!-- Node16 -->
<g id="node16" class="node"><title>Node16</title>
<g id="a_node16"><a xlink:href="namespacestm.html#a51b2c0958e7709b39500d037648c461b" target="_top" xlink:title="stm::UNRECOVERABLE">
<polygon fill="none" stroke="black" points="630,-49.5 630,-68.5 760,-68.5 760,-49.5 630,-49.5"/>
<text text-anchor="middle" x="695" y="-56.5" font-family="Helvetica,sans-Serif" font-size="10.00">stm::UNRECOVERABLE</text>
</a>
</g>
</g>
<!-- Node15&#45;&gt;Node16 -->
<g id="edge15" class="edge"><title>Node15&#45;&gt;Node16</title>
<path fill="none" stroke="midnightblue" d="M590.136,-72.9329C599.703,-71.6496 609.698,-70.3088 619.546,-68.9877"/>
<polygon fill="midnightblue" stroke="midnightblue" points="620.287,-72.4198 629.733,-67.6212 619.356,-65.482 620.287,-72.4198"/>
</g>
<!-- Node17&#45;&gt;Node16 -->
<g id="edge17" class="edge"><title>Node17&#45;&gt;Node16</title>
<path fill="none" stroke="midnightblue" d="M590.136,-34.934C607.397,-38.9334 626.052,-43.2559 642.726,-47.1193"/>
<polygon fill="midnightblue" stroke="midnightblue" points="642.289,-50.6108 652.821,-49.4585 643.869,-43.7915 642.289,-50.6108"/>
</g>
</g>
</svg>
        <g id="navigator" transform="translate(0 0)" fill="#404254">
                <rect fill="#f2f5e9" fill-opacity="0.5" stroke="#606060" stroke-width=".5" x="0" y="0" width="60" height="60"/>
                <use id="zoomplus" xlink:href="#zoomPlus" x="17" y="9" onmousedown="handleZoom(evt,'in')"/>
                <use id="zoomminus" xlink:href="#zoomMin" x="42" y="9" onmousedown="handleZoom(evt,'out')"/>
                <use id="reset" xlink:href="#resetDef" x="30" y="36" onmousedown="handleReset()"/>
                <g id="arrowUp" xlink:href="#dirArrow" transform="translate(30 24)" onmousedown="handlePan(0,-1)">
                  <use xlink:href="#rim" fill="#404040">
                        <set attributeName="fill" to="#808080" begin="arrowUp.mouseover" end="arrowUp.mouseout"/>
                  </use>
                  <path fill="none" stroke="white" stroke-width="1.5" d="M0,-3.0v7 M-2.5,-0.5L0,-3.0L2.5,-0.5"/>
                </g>
                <g id="arrowRight" xlink:href="#dirArrow" transform="rotate(90) translate(36 -43)" onmousedown="handlePan(1,0)">
                  <use xlink:href="#rim" fill="#404040">
                        <set attributeName="fill" to="#808080" begin="arrowRight.mouseover" end="arrowRight.mouseout"/>
                  </use>
                  <path fill="none" stroke="white" stroke-width="1.5" d="M0,-3.0v7 M-2.5,-0.5L0,-3.0L2.5,-0.5"/>
                </g>
                <g id="arrowDown" xlink:href="#dirArrow" transform="rotate(180) translate(-30 -48)" onmousedown="handlePan(0,1)">
                  <use xlink:href="#rim" fill="#404040">
                        <set attributeName="fill" to="#808080" begin="arrowDown.mouseover" end="arrowDown.mouseout"/>
                  </use>
                  <path fill="none" stroke="white" stroke-width="1.5" d="M0,-3.0v7 M-2.5,-0.5L0,-3.0L2.5,-0.5"/>
                </g>
                <g id="arrowLeft" xlink:href="#dirArrow" transform="rotate(270) translate(-36 17)" onmousedown="handlePan(-1,0)">
                  <use xlink:href="#rim" fill="#404040">
                        <set attributeName="fill" to="#808080" begin="arrowLeft.mouseover" end="arrowLeft.mouseout"/>
                  </use>
                  <path fill="none" stroke="white" stroke-width="1.5" d="M0,-3.0v7 M-2.5,-0.5L0,-3.0L2.5,-0.5"/>
                </g>
        </g>
        <svg viewBox="0 0 15 15" width="100%" height="30px" preserveAspectRatio="xMaxYMin meet">
         <g id="arrow_out" transform="scale(0.3 0.3)">
          <a xlink:href="structstm_1_1HourglassBackoffCM_a92de4e5a4cb98e10206f885550f72086_cgraph_org.svg" target="_base">
           <rect id="button" ry="5" rx="5" y="6" x="6" height="38" width="38"
                fill="#f2f5e9" fill-opacity="0.5" stroke="#606060" stroke-width="1.0"/>
           <path id="arrow"
             d="M 11.500037,31.436501 C 11.940474,20.09759 22.043105,11.32322 32.158766,21.979434 L 37.068811,17.246167 C 37.068811,17.246167 37.088388,32 37.088388,32 L 22.160133,31.978069 C 22.160133,31.978069 26.997745,27.140456 26.997745,27.140456 C 18.528582,18.264221 13.291696,25.230495 11.500037,31.436501 z"
             style="fill:#404040;"/>
          </a>
         </g>
        </svg>
</svg>
