<?xml version="1.0" encoding="UTF-8" standalone="no"?>
<!DOCTYPE svg PUBLIC "-//W3C//DTD SVG 1.1//EN"
 "http://www.w3.org/Graphics/SVG/1.1/DTD/svg11.dtd">
<!-- Generated by graphviz version 2.36.0 (20140111.2315)
 -->
<!-- Title: qnode_t&lt; T &gt; Pages: 1 -->
<svg width="195pt" height="290pt"
 viewBox="0.00 0.00 195.00 290.00" xmlns="http://www.w3.org/2000/svg" xmlns:xlink="http://www.w3.org/1999/xlink">
<g id="graph0" class="graph" transform="scale(1 1) rotate(0) translate(4 286)">
<title>qnode_t&lt; T &gt;</title>
<!-- Node1 -->
<g id="node1" class="node"><title>Node1</title>
<polygon fill="#bfbfbf" stroke="black" points="108.5,-0.5 108.5,-57.5 183.5,-57.5 183.5,-0.5 108.5,-0.5"/>
<text text-anchor="middle" x="146" y="-45.5" font-family="Helvetica,sans-Serif" font-size="10.00">qnode_t&lt; T &gt;</text>
<polyline fill="none" stroke="black" points="108.5,-38.5 183.5,-38.5 "/>
<text text-anchor="middle" x="146" y="-26.5" font-family="Helvetica,sans-Serif" font-size="10.00"> </text>
<polyline fill="none" stroke="black" points="108.5,-19.5 183.5,-19.5 "/>
<text text-anchor="middle" x="146" y="-7.5" font-family="Helvetica,sans-Serif" font-size="10.00"> </text>
</g>
<!-- Node2 -->
<g id="node2" class="node"><title>Node2</title>
<g id="a_node2"><a xlink:href="unioncounted__ptr.html" target="_top" xlink:title="{counted_ptr\n||}">
<polygon fill="none" stroke="black" points="71,-106.5 71,-163.5 139,-163.5 139,-106.5 71,-106.5"/>
<text text-anchor="middle" x="105" y="-151.5" font-family="Helvetica,sans-Serif" font-size="10.00">counted_ptr</text>
<polyline fill="none" stroke="black" points="71,-144.5 139,-144.5 "/>
<text text-anchor="middle" x="105" y="-132.5" font-family="Helvetica,sans-Serif" font-size="10.00"> </text>
<polyline fill="none" stroke="black" points="71,-125.5 139,-125.5 "/>
<text text-anchor="middle" x="105" y="-113.5" font-family="Helvetica,sans-Serif" font-size="10.00"> </text>
</a>
</g>
</g>
<!-- Node2&#45;&gt;Node1 -->
<g id="edge1" class="edge"><title>Node2&#45;&gt;Node1</title>
<path fill="none" stroke="#404040" d="M115.244,-106.498C118.894,-96.8324 123.074,-85.9126 127,-76 127.92,-73.6779 128.874,-71.2936 129.843,-68.891"/>
<polygon fill="none" stroke="#404040" points="129.885,-68.7893 128.446,-61.7232 134.415,-57.6773 135.854,-64.7434 129.885,-68.7893"/>
<text text-anchor="middle" x="141" y="-79.5" font-family="Helvetica,sans-Serif" font-size="10.00"> +next</text>
</g>
<!-- Node3 -->
<g id="node3" class="node"><title>Node3</title>
<polygon fill="none" stroke="#bfbfbf" points="0,-223.5 0,-280.5 72,-280.5 72,-223.5 0,-223.5"/>
<text text-anchor="middle" x="36" y="-268.5" font-family="Helvetica,sans-Serif" font-size="10.00">void *volatile</text>
<polyline fill="none" stroke="#bfbfbf" points="0,-261.5 72,-261.5 "/>
<text text-anchor="middle" x="36" y="-249.5" font-family="Helvetica,sans-Serif" font-size="10.00"> </text>
<polyline fill="none" stroke="#bfbfbf" points="0,-242.5 72,-242.5 "/>
<text text-anchor="middle" x="36" y="-230.5" font-family="Helvetica,sans-Serif" font-size="10.00"> </text>
</g>
<!-- Node3&#45;&gt;Node2 -->
<g id="edge2" class="edge"><title>Node3&#45;&gt;Node2</title>
<path fill="none" stroke="#404040" d="M52.5272,-223.455C61.3383,-208.769 72.3194,-190.468 81.9554,-174.408"/>
<polygon fill="none" stroke="#404040" points="82.1945,-174.009 81.8515,-166.806 88.3685,-163.719 88.7115,-170.922 82.1945,-174.009"/>
<text text-anchor="middle" x="87.5" y="-190.5" font-family="Helvetica,sans-Serif" font-size="10.00"> +ptr</text>
</g>
<!-- Node4 -->
<g id="node4" class="node"><title>Node4</title>
<polygon fill="none" stroke="#bfbfbf" points="90.5,-223 90.5,-281 119.5,-281 119.5,-223 90.5,-223"/>
<polyline fill="none" stroke="#bfbfbf" points="90.5,-261 119.5,-261 "/>
<text text-anchor="middle" x="105" y="-249" font-family="Helvetica,sans-Serif" font-size="10.00"> </text>
<polyline fill="none" stroke="#bfbfbf" points="90.5,-242 119.5,-242 "/>
<text text-anchor="middle" x="105" y="-230" font-family="Helvetica,sans-Serif" font-size="10.00"> </text>
</g>
<!-- Node4&#45;&gt;Node2 -->
<g id="edge3" class="edge"><title>Node4&#45;&gt;Node2</title>
<path fill="none" stroke="#404040" d="M105,-222.868C105,-208.841 105,-191.628 105,-176.234"/>
<polygon fill="none" stroke="#404040" points="105,-175.842 101,-169.842 105,-163.842 109,-169.842 105,-175.842"/>
<text text-anchor="middle" x="112.5" y="-190.5" font-family="Helvetica,sans-Serif" font-size="10.00"> +p</text>
</g>
<!-- Node5 -->
<g id="node5" class="node"><title>Node5</title>
<polygon fill="none" stroke="#bfbfbf" points="137.5,-223.5 137.5,-280.5 172.5,-280.5 172.5,-223.5 137.5,-223.5"/>
<text text-anchor="middle" x="155" y="-268.5" font-family="Helvetica,sans-Serif" font-size="10.00">long</text>
<polyline fill="none" stroke="#bfbfbf" points="137.5,-261.5 172.5,-261.5 "/>
<text text-anchor="middle" x="155" y="-249.5" font-family="Helvetica,sans-Serif" font-size="10.00"> </text>
<polyline fill="none" stroke="#bfbfbf" points="137.5,-242.5 172.5,-242.5 "/>
<text text-anchor="middle" x="155" y="-230.5" font-family="Helvetica,sans-Serif" font-size="10.00"> </text>
</g>
<!-- Node5&#45;&gt;Node2 -->
<g id="edge4" class="edge"><title>Node5&#45;&gt;Node2</title>
<path fill="none" stroke="#404040" d="M143.024,-223.455C136.7,-208.911 128.835,-190.819 121.901,-174.872"/>
<polygon fill="none" stroke="#404040" points="121.837,-174.724 115.776,-170.817 117.052,-163.719 123.112,-167.627 121.837,-174.724"/>
<text text-anchor="middle" x="144.5" y="-196" font-family="Helvetica,sans-Serif" font-size="10.00"> +all</text>
<text text-anchor="middle" x="144.5" y="-185" font-family="Helvetica,sans-Serif" font-size="10.00">+sn</text>
</g>
<!-- Node6 -->
<g id="node6" class="node"><title>Node6</title>
<polygon fill="none" stroke="#bfbfbf" points="157.5,-106.5 157.5,-163.5 186.5,-163.5 186.5,-106.5 157.5,-106.5"/>
<text text-anchor="middle" x="172" y="-151.5" font-family="Helvetica,sans-Serif" font-size="10.00">T</text>
<polyline fill="none" stroke="#bfbfbf" points="157.5,-144.5 186.5,-144.5 "/>
<text text-anchor="middle" x="172" y="-132.5" font-family="Helvetica,sans-Serif" font-size="10.00"> </text>
<polyline fill="none" stroke="#bfbfbf" points="157.5,-125.5 186.5,-125.5 "/>
<text text-anchor="middle" x="172" y="-113.5" font-family="Helvetica,sans-Serif" font-size="10.00"> </text>
</g>
<!-- Node6&#45;&gt;Node1 -->
<g id="edge5" class="edge"><title>Node6&#45;&gt;Node1</title>
<path fill="none" stroke="#404040" d="M165.101,-106.403C162.28,-95.1198 158.964,-81.8542 155.893,-69.5714"/>
<polygon fill="none" stroke="#404040" points="155.842,-69.3677 150.506,-64.517 152.932,-57.726 158.267,-62.5767 155.842,-69.3677"/>
<text text-anchor="middle" x="166.5" y="-79.5" font-family="Helvetica,sans-Serif" font-size="10.00"> +t</text>
</g>
</g>
</svg>
