<?xml version="1.0" encoding="UTF-8" standalone="no"?>
<!DOCTYPE svg PUBLIC "-//W3C//DTD SVG 1.1//EN"
 "http://www.w3.org/Graphics/SVG/1.1/DTD/svg11.dtd">
<!-- Generated by graphviz version 2.36.0 (20140111.2315)
 -->
<!-- Title: jsw_avltrav Pages: 1 -->
<svg width="251pt" height="384pt"
 viewBox="0.00 0.00 251.00 384.00" xmlns="http://www.w3.org/2000/svg" xmlns:xlink="http://www.w3.org/1999/xlink">
<g id="graph0" class="graph" transform="scale(1 1) rotate(0) translate(4 380)">
<title>jsw_avltrav</title>
<!-- Node1 -->
<g id="node1" class="node"><title>Node1</title>
<polygon fill="#bfbfbf" stroke="black" points="117,-0.5 117,-57.5 183,-57.5 183,-0.5 117,-0.5"/>
<text text-anchor="middle" x="150" y="-45.5" font-family="Helvetica,sans-Serif" font-size="10.00">jsw_avltrav</text>
<polyline fill="none" stroke="black" points="117,-38.5 183,-38.5 "/>
<text text-anchor="middle" x="150" y="-26.5" font-family="Helvetica,sans-Serif" font-size="10.00"> </text>
<polyline fill="none" stroke="black" points="117,-19.5 183,-19.5 "/>
<text text-anchor="middle" x="150" y="-7.5" font-family="Helvetica,sans-Serif" font-size="10.00"> </text>
</g>
<!-- Node2 -->
<g id="node2" class="node"><title>Node2</title>
<g id="a_node2"><a xlink:href="structjsw__avlnode.html" target="_top" xlink:title="{jsw_avlnode\n||}">
<polygon fill="none" stroke="black" points="-0.5,-212.5 -0.5,-269.5 70.5,-269.5 70.5,-212.5 -0.5,-212.5"/>
<text text-anchor="middle" x="35" y="-257.5" font-family="Helvetica,sans-Serif" font-size="10.00">jsw_avlnode</text>
<polyline fill="none" stroke="black" points="-0.5,-250.5 70.5,-250.5 "/>
<text text-anchor="middle" x="35" y="-238.5" font-family="Helvetica,sans-Serif" font-size="10.00"> </text>
<polyline fill="none" stroke="black" points="-0.5,-231.5 70.5,-231.5 "/>
<text text-anchor="middle" x="35" y="-219.5" font-family="Helvetica,sans-Serif" font-size="10.00"> </text>
</a>
</g>
</g>
<!-- Node2&#45;&gt;Node1 -->
<g id="edge1" class="edge"><title>Node2&#45;&gt;Node1</title>
<path fill="none" stroke="#404040" d="M41.569,-212.491C49.0045,-184.428 62.7755,-140.261 83,-106 91.1843,-92.1354 102.081,-78.4695 112.705,-66.6327"/>
<polygon fill="none" stroke="#404040" points="112.953,-66.3651 114.097,-59.2453 121.109,-57.5631 119.965,-64.6829 112.953,-66.3651"/>
<text text-anchor="middle" x="95.5" y="-138" font-family="Helvetica,sans-Serif" font-size="10.00"> +it</text>
<text text-anchor="middle" x="95.5" y="-127" font-family="Helvetica,sans-Serif" font-size="10.00">+path</text>
</g>
<!-- Node2&#45;&gt;Node2 -->
<g id="edge2" class="edge"><title>Node2&#45;&gt;Node2</title>
<path fill="none" stroke="#404040" d="M70.6693,-250.69C80.493,-250.222 88,-246.992 88,-241 88,-237.817 85.8813,-235.413 82.4222,-233.789"/>
<polygon fill="none" stroke="#404040" points="82.4109,-233.786 75.7146,-236.462 70.6693,-231.31 77.3657,-228.634 82.4109,-233.786"/>
<text text-anchor="middle" x="100.5" y="-238.5" font-family="Helvetica,sans-Serif" font-size="10.00"> +link</text>
</g>
<!-- Node6 -->
<g id="node6" class="node"><title>Node6</title>
<g id="a_node6"><a xlink:href="structjsw__avltree.html" target="_top" xlink:title="{jsw_avltree\n||}">
<polygon fill="none" stroke="black" points="117,-106.5 117,-163.5 183,-163.5 183,-106.5 117,-106.5"/>
<text text-anchor="middle" x="150" y="-151.5" font-family="Helvetica,sans-Serif" font-size="10.00">jsw_avltree</text>
<polyline fill="none" stroke="black" points="117,-144.5 183,-144.5 "/>
<text text-anchor="middle" x="150" y="-132.5" font-family="Helvetica,sans-Serif" font-size="10.00"> </text>
<polyline fill="none" stroke="black" points="117,-125.5 183,-125.5 "/>
<text text-anchor="middle" x="150" y="-113.5" font-family="Helvetica,sans-Serif" font-size="10.00"> </text>
</a>
</g>
</g>
<!-- Node2&#45;&gt;Node6 -->
<g id="edge7" class="edge"><title>Node2&#45;&gt;Node6</title>
<path fill="none" stroke="#404040" d="M65.516,-212.403C79.1622,-200.062 95.4308,-185.35 110.032,-172.145"/>
<polygon fill="none" stroke="#404040" points="110.441,-171.775 112.208,-164.784 119.341,-163.726 117.574,-170.717 110.441,-171.775"/>
<text text-anchor="middle" x="109" y="-185.5" font-family="Helvetica,sans-Serif" font-size="10.00"> +root</text>
</g>
<!-- Node3 -->
<g id="node3" class="node"><title>Node3</title>
<polygon fill="none" stroke="#bfbfbf" points="100.5,-318.5 100.5,-375.5 135.5,-375.5 135.5,-318.5 100.5,-318.5"/>
<text text-anchor="middle" x="118" y="-363.5" font-family="Helvetica,sans-Serif" font-size="10.00">long</text>
<polyline fill="none" stroke="#bfbfbf" points="100.5,-356.5 135.5,-356.5 "/>
<text text-anchor="middle" x="118" y="-344.5" font-family="Helvetica,sans-Serif" font-size="10.00"> </text>
<polyline fill="none" stroke="#bfbfbf" points="100.5,-337.5 135.5,-337.5 "/>
<text text-anchor="middle" x="118" y="-325.5" font-family="Helvetica,sans-Serif" font-size="10.00"> </text>
</g>
<!-- Node3&#45;&gt;Node2 -->
<g id="edge3" class="edge"><title>Node3&#45;&gt;Node2</title>
<path fill="none" stroke="#404040" d="M100.398,-323.944C90.0145,-310.934 76.6034,-294.13 64.6312,-279.128"/>
<polygon fill="none" stroke="#404040" points="64.5031,-278.968 57.634,-276.773 57.0178,-269.589 63.8869,-271.783 64.5031,-278.968"/>
<text text-anchor="middle" x="100.5" y="-291.5" font-family="Helvetica,sans-Serif" font-size="10.00"> +balance</text>
</g>
<!-- Node3&#45;&gt;Node6 -->
<g id="edge9" class="edge"><title>Node3&#45;&gt;Node6</title>
<path fill="none" stroke="#404040" d="M122.943,-318.29C123.983,-312.265 125.052,-305.923 126,-300 132.797,-257.547 139.835,-208.784 144.518,-175.538"/>
<polygon fill="none" stroke="#404040" points="144.525,-175.485 141.397,-168.987 146.192,-163.601 149.32,-170.098 144.525,-175.485"/>
<text text-anchor="middle" x="154" y="-238.5" font-family="Helvetica,sans-Serif" font-size="10.00"> +cmp</text>
</g>
<!-- Node4 -->
<g id="node4" class="node"><title>Node4</title>
<polygon fill="none" stroke="#bfbfbf" points="14.5,-318.5 14.5,-375.5 55.5,-375.5 55.5,-318.5 14.5,-318.5"/>
<text text-anchor="middle" x="35" y="-363.5" font-family="Helvetica,sans-Serif" font-size="10.00">void *</text>
<polyline fill="none" stroke="#bfbfbf" points="14.5,-356.5 55.5,-356.5 "/>
<text text-anchor="middle" x="35" y="-344.5" font-family="Helvetica,sans-Serif" font-size="10.00"> </text>
<polyline fill="none" stroke="#bfbfbf" points="14.5,-337.5 55.5,-337.5 "/>
<text text-anchor="middle" x="35" y="-325.5" font-family="Helvetica,sans-Serif" font-size="10.00"> </text>
</g>
<!-- Node4&#45;&gt;Node2 -->
<g id="edge4" class="edge"><title>Node4&#45;&gt;Node2</title>
<path fill="none" stroke="#404040" d="M35,-318.403C35,-307.237 35,-294.13 35,-281.956"/>
<polygon fill="none" stroke="#404040" points="35.0001,-281.726 31,-275.726 35,-269.726 39,-275.726 35.0001,-281.726"/>
<text text-anchor="middle" x="49" y="-291.5" font-family="Helvetica,sans-Serif" font-size="10.00"> +data</text>
</g>
<!-- Node5 -->
<g id="node5" class="node"><title>Node5</title>
<polygon fill="none" stroke="#bfbfbf" points="200.5,-212.5 200.5,-269.5 243.5,-269.5 243.5,-212.5 200.5,-212.5"/>
<text text-anchor="middle" x="222" y="-257.5" font-family="Helvetica,sans-Serif" font-size="10.00">size_t</text>
<polyline fill="none" stroke="#bfbfbf" points="200.5,-250.5 243.5,-250.5 "/>
<text text-anchor="middle" x="222" y="-238.5" font-family="Helvetica,sans-Serif" font-size="10.00"> </text>
<polyline fill="none" stroke="#bfbfbf" points="200.5,-231.5 243.5,-231.5 "/>
<text text-anchor="middle" x="222" y="-219.5" font-family="Helvetica,sans-Serif" font-size="10.00"> </text>
</g>
<!-- Node5&#45;&gt;Node1 -->
<g id="edge5" class="edge"><title>Node5&#45;&gt;Node1</title>
<path fill="none" stroke="#404040" d="M218.806,-212.219C214.064,-178.449 203.105,-120.467 180,-76 178.665,-73.4301 177.224,-70.8225 175.721,-68.2223"/>
<polygon fill="none" stroke="#404040" points="175.55,-67.9403 169.013,-64.8951 169.31,-57.6901 175.847,-60.7353 175.55,-67.9403"/>
<text text-anchor="middle" x="220.5" y="-132.5" font-family="Helvetica,sans-Serif" font-size="10.00"> +top</text>
</g>
<!-- Node5&#45;&gt;Node6 -->
<g id="edge8" class="edge"><title>Node5&#45;&gt;Node6</title>
<path fill="none" stroke="#404040" d="M200.343,-215.264C194.793,-208.534 188.987,-201.13 184,-194 179.61,-187.723 175.236,-180.853 171.159,-174.106"/>
<polygon fill="none" stroke="#404040" points="171.126,-174.049 164.634,-170.908 165.037,-163.709 171.528,-166.849 171.126,-174.049"/>
<text text-anchor="middle" x="198" y="-185.5" font-family="Helvetica,sans-Serif" font-size="10.00"> +size</text>
</g>
<!-- Node6&#45;&gt;Node1 -->
<g id="edge6" class="edge"><title>Node6&#45;&gt;Node1</title>
<path fill="none" stroke="#404040" d="M150,-106.403C150,-95.2373 150,-82.1304 150,-69.9556"/>
<polygon fill="none" stroke="#404040" points="150,-69.726 146,-63.726 150,-57.726 154,-63.726 150,-69.726"/>
<text text-anchor="middle" x="163" y="-79.5" font-family="Helvetica,sans-Serif" font-size="10.00"> +tree</text>
</g>
</g>
</svg>
