<?xml version="1.0" encoding="UTF-8" standalone="no"?>
<!DOCTYPE svg PUBLIC "-//W3C//DTD SVG 1.1//EN"
 "http://www.w3.org/Graphics/SVG/1.1/DTD/svg11.dtd">
<!-- Generated by graphviz version 2.36.0 (20140111.2315)
 -->
<!-- Title: Config Pages: 1 -->
<svg width="293pt" height="292pt"
 viewBox="0.00 0.00 293.00 292.00" xmlns="http://www.w3.org/2000/svg" xmlns:xlink="http://www.w3.org/1999/xlink">
<g id="graph0" class="graph" transform="scale(1 1) rotate(0) translate(4 288)">
<title>Config</title>
<!-- Node1 -->
<g id="node1" class="node"><title>Node1</title>
<polygon fill="#bfbfbf" stroke="black" points="101,-0.5 101,-57.5 161,-57.5 161,-0.5 101,-0.5"/>
<text text-anchor="middle" x="131" y="-45.5" font-family="Helvetica,sans-Serif" font-size="10.00">Config</text>
<polyline fill="none" stroke="black" points="101,-38.5 161,-38.5 "/>
<text text-anchor="middle" x="131" y="-26.5" font-family="Helvetica,sans-Serif" font-size="10.00"> </text>
<polyline fill="none" stroke="black" points="101,-19.5 161,-19.5 "/>
<text text-anchor="start" x="109" y="-7.5" font-family="Helvetica,sans-Serif" font-size="10.00">+ Config()</text>
</g>
<!-- Node2 -->
<g id="node2" class="node"><title>Node2</title>
<polygon fill="none" stroke="#bfbfbf" points="-0.5,-226.5 -0.5,-283.5 50.5,-283.5 50.5,-226.5 -0.5,-226.5"/>
<text text-anchor="middle" x="25" y="-271.5" font-family="Helvetica,sans-Serif" font-size="10.00">uint64_t</text>
<polyline fill="none" stroke="#bfbfbf" points="-0.5,-264.5 50.5,-264.5 "/>
<text text-anchor="middle" x="25" y="-252.5" font-family="Helvetica,sans-Serif" font-size="10.00"> </text>
<polyline fill="none" stroke="#bfbfbf" points="-0.5,-245.5 50.5,-245.5 "/>
<text text-anchor="middle" x="25" y="-233.5" font-family="Helvetica,sans-Serif" font-size="10.00"> </text>
</g>
<!-- Node2&#45;&gt;Node1 -->
<g id="edge1" class="edge"><title>Node2&#45;&gt;Node1</title>
<path fill="none" stroke="#404040" d="M21.9996,-226.352C19.3947,-188.926 20.0122,-121.587 51,-76 60.3098,-62.3039 75.1444,-52.1685 89.5243,-44.9513"/>
<polygon fill="none" stroke="#404040" points="89.9311,-44.7654 93.7251,-38.633 100.845,-39.7766 97.051,-45.9089 89.9311,-44.7654"/>
<text text-anchor="middle" x="65" y="-139.5" font-family="Helvetica,sans-Serif" font-size="10.00"> +time</text>
</g>
<!-- Node3 -->
<g id="node3" class="node"><title>Node3</title>
<polygon fill="none" stroke="#bfbfbf" points="68.5,-226.5 68.5,-283.5 119.5,-283.5 119.5,-226.5 68.5,-226.5"/>
<text text-anchor="middle" x="94" y="-271.5" font-family="Helvetica,sans-Serif" font-size="10.00">uint32_t</text>
<polyline fill="none" stroke="#bfbfbf" points="68.5,-264.5 119.5,-264.5 "/>
<text text-anchor="middle" x="94" y="-252.5" font-family="Helvetica,sans-Serif" font-size="10.00"> </text>
<polyline fill="none" stroke="#bfbfbf" points="68.5,-245.5 119.5,-245.5 "/>
<text text-anchor="middle" x="94" y="-233.5" font-family="Helvetica,sans-Serif" font-size="10.00"> </text>
</g>
<!-- Node3&#45;&gt;Node1 -->
<g id="edge2" class="edge"><title>Node3&#45;&gt;Node1</title>
<path fill="none" stroke="#404040" d="M88.7551,-226.234C83.1846,-190.398 77.3808,-126.64 95,-76 95.9419,-73.2928 97.1147,-70.6226 98.456,-68.0142"/>
<polygon fill="none" stroke="#404040" points="98.4997,-67.9425 98.2158,-60.737 104.758,-57.7035 105.042,-64.9091 98.4997,-67.9425"/>
<text text-anchor="middle" x="121" y="-200" font-family="Helvetica,sans-Serif" font-size="10.00"> +elements</text>
<text text-anchor="middle" x="121" y="-189" font-family="Helvetica,sans-Serif" font-size="10.00">+duration</text>
<text text-anchor="middle" x="121" y="-178" font-family="Helvetica,sans-Serif" font-size="10.00">+lookpct</text>
<text text-anchor="middle" x="121" y="-167" font-family="Helvetica,sans-Serif" font-size="10.00">+ops</text>
<text text-anchor="start" x="95" y="-156" font-family="Helvetica,sans-Serif" font-size="10.00">+nops_after</text>
<text text-anchor="middle" x="121" y="-145" font-family="Helvetica,sans-Serif" font-size="10.00">_tx</text>
<text text-anchor="middle" x="121" y="-134" font-family="Helvetica,sans-Serif" font-size="10.00">+txcount</text>
<text text-anchor="middle" x="121" y="-123" font-family="Helvetica,sans-Serif" font-size="10.00">+threads</text>
<text text-anchor="middle" x="121" y="-112" font-family="Helvetica,sans-Serif" font-size="10.00">+execute</text>
<text text-anchor="middle" x="121" y="-101" font-family="Helvetica,sans-Serif" font-size="10.00">+sets</text>
<text text-anchor="middle" x="121" y="-90" font-family="Helvetica,sans-Serif" font-size="10.00">+inspct</text>
<text text-anchor="middle" x="121" y="-79" font-family="Helvetica,sans-Serif" font-size="10.00">...</text>
</g>
<!-- Node4 -->
<g id="node4" class="node"><title>Node4</title>
<polygon fill="none" stroke="#bfbfbf" points="151.5,-226.5 151.5,-283.5 186.5,-283.5 186.5,-226.5 151.5,-226.5"/>
<text text-anchor="middle" x="169" y="-271.5" font-family="Helvetica,sans-Serif" font-size="10.00">bool</text>
<polyline fill="none" stroke="#bfbfbf" points="151.5,-264.5 186.5,-264.5 "/>
<text text-anchor="middle" x="169" y="-252.5" font-family="Helvetica,sans-Serif" font-size="10.00"> </text>
<polyline fill="none" stroke="#bfbfbf" points="151.5,-245.5 186.5,-245.5 "/>
<text text-anchor="middle" x="169" y="-233.5" font-family="Helvetica,sans-Serif" font-size="10.00"> </text>
</g>
<!-- Node4&#45;&gt;Node1 -->
<g id="edge3" class="edge"><title>Node4&#45;&gt;Node1</title>
<path fill="none" stroke="#404040" d="M167.394,-226.239C164.938,-190.946 159.185,-128.312 147,-76 146.504,-73.8692 145.944,-71.6992 145.339,-69.5197"/>
<polygon fill="none" stroke="#404040" points="145.306,-69.4104 139.717,-64.8531 141.775,-57.9417 147.363,-62.4989 145.306,-69.4104"/>
<text text-anchor="middle" x="185.5" y="-139.5" font-family="Helvetica,sans-Serif" font-size="10.00"> +running</text>
</g>
<!-- Node5 -->
<g id="node5" class="node"><title>Node5</title>
<polygon fill="none" stroke="#bfbfbf" points="212.5,-226.5 212.5,-283.5 253.5,-283.5 253.5,-226.5 212.5,-226.5"/>
<text text-anchor="middle" x="233" y="-271.5" font-family="Helvetica,sans-Serif" font-size="10.00">string</text>
<polyline fill="none" stroke="#bfbfbf" points="212.5,-264.5 253.5,-264.5 "/>
<text text-anchor="middle" x="233" y="-252.5" font-family="Helvetica,sans-Serif" font-size="10.00"> </text>
<polyline fill="none" stroke="#bfbfbf" points="212.5,-245.5 253.5,-245.5 "/>
<text text-anchor="middle" x="233" y="-233.5" font-family="Helvetica,sans-Serif" font-size="10.00"> </text>
</g>
<!-- Node5&#45;&gt;Node1 -->
<g id="edge4" class="edge"><title>Node5&#45;&gt;Node1</title>
<path fill="none" stroke="#404040" d="M236.523,-226.42C239.824,-189.071 240.415,-121.821 210,-76 200.996,-62.4361 186.524,-52.3566 172.412,-45.1469"/>
<polygon fill="none" stroke="#404040" points="172.162,-45.0307 165.034,-46.1262 161.282,-39.9683 168.409,-38.8729 172.162,-45.0307"/>
<text text-anchor="middle" x="261.5" y="-139.5" font-family="Helvetica,sans-Serif" font-size="10.00"> +bmname</text>
</g>
</g>
</svg>
