<?xml version="1.0" encoding="UTF-8" standalone="no"?>
<!DOCTYPE svg PUBLIC "-//W3C//DTD SVG 1.1//EN"
 "http://www.w3.org/Graphics/SVG/1.1/DTD/svg11.dtd">
<!-- Generated by graphviz version 2.36.0 (20140111.2315)
 -->
<!-- Title: anonymous_namespace{swiss::cpp}::Swiss::cm_on_rollback Pages: 1 -->
<svg width="354pt" height="104pt"
 viewBox="0.00 0.00 354.00 104.00" xmlns="http://www.w3.org/2000/svg" xmlns:xlink="http://www.w3.org/1999/xlink">
<g id="graph0" class="graph" transform="scale(1 1) rotate(0) translate(4 100)">
<title>anonymous_namespace{swiss::cpp}::Swiss::cm_on_rollback</title>
<!-- Node1 -->
<g id="node1" class="node"><title>Node1</title>
<polygon fill="#bfbfbf" stroke="black" points="0,-27.5 0,-68.5 122,-68.5 122,-27.5 0,-27.5"/>
<text text-anchor="start" x="8" y="-56.5" font-family="Helvetica,sans-Serif" font-size="10.00">anonymous_namespace</text>
<text text-anchor="start" x="8" y="-45.5" font-family="Helvetica,sans-Serif" font-size="10.00">{swiss::cpp}::Swiss</text>
<text text-anchor="middle" x="61" y="-34.5" font-family="Helvetica,sans-Serif" font-size="10.00">::cm_on_rollback</text>
</g>
<!-- Node2 -->
<g id="node2" class="node"><title>Node2</title>
<g id="a_node2"><a xlink:href="namespacestm.html#af27d33b081d718c75a64717907e3dbd4" target="_top" xlink:title="stm::exp_backoff">
<polygon fill="none" stroke="black" points="158,-38.5 158,-57.5 250,-57.5 250,-38.5 158,-38.5"/>
<text text-anchor="middle" x="204" y="-45.5" font-family="Helvetica,sans-Serif" font-size="10.00">stm::exp_backoff</text>
</a>
</g>
</g>
<!-- Node1&#45;&gt;Node2 -->
<g id="edge1" class="edge"><title>Node1&#45;&gt;Node2</title>
<path fill="none" stroke="midnightblue" d="M122.206,-48C130.72,-48 139.439,-48 147.851,-48"/>
<polygon fill="midnightblue" stroke="midnightblue" points="147.926,-51.5001 157.926,-48 147.926,-44.5001 147.926,-51.5001"/>
</g>
<!-- Node3 -->
<g id="node3" class="node"><title>Node3</title>
<g id="a_node3"><a xlink:href="rand__r__32_8h.html#afaaf1d013ccb194d66735f6e59dcc930" target="_top" xlink:title="rand_r_32">
<polygon fill="none" stroke="black" points="286.5,-76.5 286.5,-95.5 345.5,-95.5 345.5,-76.5 286.5,-76.5"/>
<text text-anchor="middle" x="316" y="-83.5" font-family="Helvetica,sans-Serif" font-size="10.00">rand_r_32</text>
</a>
</g>
</g>
<!-- Node2&#45;&gt;Node3 -->
<g id="edge2" class="edge"><title>Node2&#45;&gt;Node3</title>
<path fill="none" stroke="midnightblue" d="M232.758,-57.589C246.306,-62.2694 262.805,-67.9692 277.46,-73.0315"/>
<polygon fill="midnightblue" stroke="midnightblue" points="276.656,-76.457 287.251,-76.4141 278.942,-69.8406 276.656,-76.457"/>
</g>
<!-- Node4 -->
<g id="node4" class="node"><title>Node4</title>
<g id="a_node4"><a xlink:href="avltree_8c.html#aef0786e63ba14dfdb6d8632333208422" target="_top" xlink:title="start">
<polygon fill="none" stroke="black" points="298,-38.5 298,-57.5 334,-57.5 334,-38.5 298,-38.5"/>
<text text-anchor="middle" x="316" y="-45.5" font-family="Helvetica,sans-Serif" font-size="10.00">start</text>
</a>
</g>
</g>
<!-- Node2&#45;&gt;Node4 -->
<g id="edge3" class="edge"><title>Node2&#45;&gt;Node4</title>
<path fill="none" stroke="midnightblue" d="M250.059,-48C262.828,-48 276.337,-48 287.707,-48"/>
<polygon fill="midnightblue" stroke="midnightblue" points="287.86,-51.5001 297.86,-48 287.86,-44.5001 287.86,-51.5001"/>
</g>
<!-- Node5 -->
<g id="node5" class="node"><title>Node5</title>
<g id="a_node5"><a xlink:href="locks_8hpp.html#a67493dc021b0db009a9603ea55d18c59" target="_top" xlink:title="spin64">
<polygon fill="none" stroke="black" points="293.5,-0.5 293.5,-19.5 338.5,-19.5 338.5,-0.5 293.5,-0.5"/>
<text text-anchor="middle" x="316" y="-7.5" font-family="Helvetica,sans-Serif" font-size="10.00">spin64</text>
</a>
</g>
</g>
<!-- Node2&#45;&gt;Node5 -->
<g id="edge4" class="edge"><title>Node2&#45;&gt;Node5</title>
<path fill="none" stroke="midnightblue" d="M232.758,-38.411C248.359,-33.0215 267.872,-26.2804 283.976,-20.7173"/>
<polygon fill="midnightblue" stroke="midnightblue" points="285.188,-24.0017 293.497,-17.4283 282.902,-17.3854 285.188,-24.0017"/>
</g>
</g>
</svg>
