<?xml version="1.0" encoding="UTF-8" standalone="no"?>
<!DOCTYPE svg PUBLIC "-//W3C//DTD SVG 1.1//EN"
 "http://www.w3.org/Graphics/SVG/1.1/DTD/svg11.dtd">
<!-- Generated by graphviz version 2.36.0 (20140111.2315)
 -->
<!-- Title: TransList::HelpStack::Pop Pages: 1 -->
<svg width="584pt" height="170pt"
 viewBox="0.00 0.00 584.00 170.00" xmlns="http://www.w3.org/2000/svg" xmlns:xlink="http://www.w3.org/1999/xlink">
<g id="graph0" class="graph" transform="scale(1 1) rotate(0) translate(4 166)">
<title>TransList::HelpStack::Pop</title>
<!-- Node1 -->
<g id="node1" class="node"><title>Node1</title>
<polygon fill="#bfbfbf" stroke="black" points="0,-66.5 0,-85.5 132,-85.5 132,-66.5 0,-66.5"/>
<text text-anchor="middle" x="66" y="-73.5" font-family="Helvetica,sans-Serif" font-size="10.00">TransList::HelpStack::Pop</text>
</g>
<!-- Node2 -->
<g id="node2" class="node"><title>Node2</title>
<g id="a_node2"><a xlink:href="classTransList.html#aa7e67c5ff8aeadc6d1d7791a297a58c4" target="_top" xlink:title="TransList::HelpOps">
<polygon fill="none" stroke="black" points="168.5,-66.5 168.5,-85.5 269.5,-85.5 269.5,-66.5 168.5,-66.5"/>
<text text-anchor="middle" x="219" y="-73.5" font-family="Helvetica,sans-Serif" font-size="10.00">TransList::HelpOps</text>
</a>
</g>
</g>
<!-- Node1&#45;&gt;Node2 -->
<g id="edge1" class="edge"><title>Node1&#45;&gt;Node2</title>
<path fill="none" stroke="midnightblue" d="M142.631,-76C151.409,-76 160.186,-76 168.485,-76"/>
<polygon fill="midnightblue" stroke="midnightblue" points="142.353,-72.5001 132.353,-76 142.353,-79.5001 142.353,-72.5001"/>
</g>
<!-- Node3 -->
<g id="node3" class="node"><title>Node3</title>
<g id="a_node3"><a xlink:href="classTransList.html#abe5853275ff6befa6ccd7ab0e84b4dce" target="_top" xlink:title="TransList::ExecuteOps">
<polygon fill="none" stroke="black" points="318.5,-142.5 318.5,-161.5 435.5,-161.5 435.5,-142.5 318.5,-142.5"/>
<text text-anchor="middle" x="377" y="-149.5" font-family="Helvetica,sans-Serif" font-size="10.00">TransList::ExecuteOps</text>
</a>
</g>
</g>
<!-- Node2&#45;&gt;Node3 -->
<g id="edge2" class="edge"><title>Node2&#45;&gt;Node3</title>
<path fill="none" stroke="midnightblue" d="M242.408,-91.3728C259.347,-102.536 283.459,-117.469 306,-128 317.872,-133.547 331.397,-138.484 343.372,-142.416"/>
<polygon fill="midnightblue" stroke="midnightblue" points="244.049,-88.2597 233.79,-85.6106 240.158,-94.0787 244.049,-88.2597"/>
</g>
<!-- Node4 -->
<g id="node4" class="node"><title>Node4</title>
<g id="a_node4"><a xlink:href="classTransList.html#a7ed667a308f2f7422dde28c7fe40cdc7" target="_top" xlink:title="TransList::FinishPendingTxn">
<polygon fill="none" stroke="black" points="306.5,-28.5 306.5,-47.5 447.5,-47.5 447.5,-28.5 306.5,-28.5"/>
<text text-anchor="middle" x="377" y="-35.5" font-family="Helvetica,sans-Serif" font-size="10.00">TransList::FinishPendingTxn</text>
</a>
</g>
</g>
<!-- Node2&#45;&gt;Node4 -->
<g id="edge3" class="edge"><title>Node2&#45;&gt;Node4</title>
<path fill="none" stroke="midnightblue" d="M269.132,-64.032C290.993,-58.7069 316.376,-52.5238 336.918,-47.5201"/>
<polygon fill="midnightblue" stroke="midnightblue" points="268.253,-60.6437 259.365,-66.411 269.91,-67.4448 268.253,-60.6437"/>
</g>
<!-- Node5 -->
<g id="node5" class="node"><title>Node5</title>
<g id="a_node5"><a xlink:href="classTransList.html#a5ace06b8defeb2501a9607fc8fdec5f0" target="_top" xlink:title="TransList::Insert">
<polygon fill="none" stroke="black" points="486,-94.5 486,-113.5 574,-113.5 574,-94.5 486,-94.5"/>
<text text-anchor="middle" x="530" y="-101.5" font-family="Helvetica,sans-Serif" font-size="10.00">TransList::Insert</text>
</a>
</g>
</g>
<!-- Node4&#45;&gt;Node5 -->
<g id="edge4" class="edge"><title>Node4&#45;&gt;Node5</title>
<path fill="none" stroke="midnightblue" d="M409.29,-51.6764C438.481,-64.4353 481.284,-83.144 507.017,-94.3915"/>
<polygon fill="midnightblue" stroke="midnightblue" points="410.521,-48.395 399.957,-47.597 407.718,-54.8091 410.521,-48.395"/>
</g>
<!-- Node6 -->
<g id="node6" class="node"><title>Node6</title>
<g id="a_node6"><a xlink:href="classTransList.html#ae48aacff3239bd5b85749631c2ac271a" target="_top" xlink:title="TransList::Delete">
<polygon fill="none" stroke="black" points="484,-47.5 484,-66.5 576,-66.5 576,-47.5 484,-47.5"/>
<text text-anchor="middle" x="530" y="-54.5" font-family="Helvetica,sans-Serif" font-size="10.00">TransList::Delete</text>
</a>
</g>
</g>
<!-- Node4&#45;&gt;Node6 -->
<g id="edge6" class="edge"><title>Node4&#45;&gt;Node6</title>
<path fill="none" stroke="midnightblue" d="M457.788,-48.0396C466.669,-49.1571 475.471,-50.2646 483.7,-51.3"/>
<polygon fill="midnightblue" stroke="midnightblue" points="458.113,-44.5529 447.754,-46.777 457.239,-51.4981 458.113,-44.5529"/>
</g>
<!-- Node7 -->
<g id="node7" class="node"><title>Node7</title>
<g id="a_node7"><a xlink:href="classTransList.html#ab75389528ee7e0773ac0fe9c00351670" target="_top" xlink:title="TransList::Find">
<polygon fill="none" stroke="black" points="489,-0.5 489,-19.5 571,-19.5 571,-0.5 489,-0.5"/>
<text text-anchor="middle" x="530" y="-7.5" font-family="Helvetica,sans-Serif" font-size="10.00">TransList::Find</text>
</a>
</g>
</g>
<!-- Node4&#45;&gt;Node7 -->
<g id="edge8" class="edge"><title>Node4&#45;&gt;Node7</title>
<path fill="none" stroke="midnightblue" d="M439.676,-26.5633C456.188,-23.5016 473.613,-20.2705 488.645,-17.4831"/>
<polygon fill="midnightblue" stroke="midnightblue" points="438.738,-23.1777 429.543,-28.4423 440.014,-30.0603 438.738,-23.1777"/>
</g>
<!-- Node5&#45;&gt;Node2 -->
<g id="edge5" class="edge"><title>Node5&#45;&gt;Node2</title>
<path fill="none" stroke="midnightblue" d="M475.913,-99.1896C418.032,-93.9447 326.135,-85.6174 269.646,-80.4987"/>
<polygon fill="midnightblue" stroke="midnightblue" points="475.681,-102.683 485.956,-100.1 476.313,-95.7113 475.681,-102.683"/>
</g>
<!-- Node6&#45;&gt;Node2 -->
<g id="edge7" class="edge"><title>Node6&#45;&gt;Node2</title>
<path fill="none" stroke="midnightblue" d="M473.921,-60.3867C415.942,-63.9518 325.491,-69.5135 269.646,-72.9473"/>
<polygon fill="midnightblue" stroke="midnightblue" points="474.233,-63.8743 483.999,-59.7671 473.803,-56.8875 474.233,-63.8743"/>
</g>
<!-- Node7&#45;&gt;Node2 -->
<g id="edge9" class="edge"><title>Node7&#45;&gt;Node2</title>
<path fill="none" stroke="midnightblue" d="M478.755,-4.45316C432.653,-1.11517 363.066,-0.542079 306,-19 275.493,-28.8673 245.602,-52.8035 230.381,-66.3099"/>
<polygon fill="midnightblue" stroke="midnightblue" points="478.551,-7.94786 488.796,-5.25092 479.105,-0.969848 478.551,-7.94786"/>
</g>
</g>
</svg>
