<?xml version="1.0" encoding="UTF-8" standalone="no"?>
<!DOCTYPE svg PUBLIC "-//W3C//DTD SVG 1.1//EN"
 "http://www.w3.org/Graphics/SVG/1.1/DTD/svg11.dtd">
<!-- Generated by graphviz version 2.36.0 (20140111.2315)
 -->
<!-- Title: anonymous_namespace{swiss::cpp}::Swiss::rollback Pages: 1 -->
<svg width="614pt" height="218pt"
 viewBox="0.00 0.00 614.00 218.00" xmlns="http://www.w3.org/2000/svg" xmlns:xlink="http://www.w3.org/1999/xlink">
<g id="graph0" class="graph" transform="scale(1 1) rotate(0) translate(4 214)">
<title>anonymous_namespace{swiss::cpp}::Swiss::rollback</title>
<!-- Node1 -->
<g id="node1" class="node"><title>Node1</title>
<polygon fill="#bfbfbf" stroke="black" points="0,-103.5 0,-144.5 122,-144.5 122,-103.5 0,-103.5"/>
<text text-anchor="start" x="8" y="-132.5" font-family="Helvetica,sans-Serif" font-size="10.00">anonymous_namespace</text>
<text text-anchor="start" x="8" y="-121.5" font-family="Helvetica,sans-Serif" font-size="10.00">{swiss::cpp}::Swiss</text>
<text text-anchor="middle" x="61" y="-110.5" font-family="Helvetica,sans-Serif" font-size="10.00">::rollback</text>
</g>
<!-- Node2 -->
<g id="node2" class="node"><title>Node2</title>
<g id="a_node2"><a xlink:href="namespacestm.html#a3240a1a3d22a030fc4e26fad68ad9ec7" target="_top" xlink:title="stm::PreRollback">
<polygon fill="none" stroke="black" points="167,-190.5 167,-209.5 259,-209.5 259,-190.5 167,-190.5"/>
<text text-anchor="middle" x="213" y="-197.5" font-family="Helvetica,sans-Serif" font-size="10.00">stm::PreRollback</text>
</a>
</g>
</g>
<!-- Node1&#45;&gt;Node2 -->
<g id="edge1" class="edge"><title>Node1&#45;&gt;Node2</title>
<path fill="none" stroke="midnightblue" d="M93.1414,-144.624C111.522,-156.248 135.522,-170.498 158,-181 162.437,-183.073 167.167,-185.052 171.913,-186.897"/>
<polygon fill="midnightblue" stroke="midnightblue" points="170.994,-190.289 181.587,-190.48 173.426,-183.724 170.994,-190.289"/>
</g>
<!-- Node3 -->
<g id="node3" class="node"><title>Node3</title>
<g id="a_node3"><a xlink:href="classstm_1_1MiniVector.html#a2b30e4feb605f230ca17dec2b39fe472" target="_top" xlink:title="stm::MiniVector::size">
<polygon fill="none" stroke="black" points="158,-152.5 158,-171.5 268,-171.5 268,-152.5 158,-152.5"/>
<text text-anchor="middle" x="213" y="-159.5" font-family="Helvetica,sans-Serif" font-size="10.00">stm::MiniVector::size</text>
</a>
</g>
</g>
<!-- Node1&#45;&gt;Node3 -->
<g id="edge2" class="edge"><title>Node1&#45;&gt;Node3</title>
<path fill="none" stroke="midnightblue" d="M122.146,-139.237C136.176,-142.791 150.927,-146.528 164.33,-149.924"/>
<polygon fill="midnightblue" stroke="midnightblue" points="163.728,-153.382 174.282,-152.445 165.448,-146.596 163.728,-153.382"/>
</g>
<!-- Node4 -->
<g id="node4" class="node"><title>Node4</title>
<g id="a_node4"><a xlink:href="classstm_1_1WriteSet.html#a94850cf0782213e633f3946e2a783ef9" target="_top" xlink:title="stm::WriteSet::reset">
<polygon fill="none" stroke="black" points="160.5,-114.5 160.5,-133.5 265.5,-133.5 265.5,-114.5 160.5,-114.5"/>
<text text-anchor="middle" x="213" y="-121.5" font-family="Helvetica,sans-Serif" font-size="10.00">stm::WriteSet::reset</text>
</a>
</g>
</g>
<!-- Node1&#45;&gt;Node4 -->
<g id="edge3" class="edge"><title>Node1&#45;&gt;Node4</title>
<path fill="none" stroke="midnightblue" d="M122.146,-124C131.266,-124 140.691,-124 149.853,-124"/>
<polygon fill="midnightblue" stroke="midnightblue" points="150.054,-127.5 160.054,-124 150.053,-120.5 150.054,-127.5"/>
</g>
<!-- Node6 -->
<g id="node6" class="node"><title>Node6</title>
<g id="a_node6"><a xlink:href="classstm_1_1MiniVector.html#ad17f9c76202d399264ba62812f0b5c41" target="_top" xlink:title="stm::MiniVector::reset">
<polygon fill="none" stroke="black" points="491.5,-76.5 491.5,-95.5 604.5,-95.5 604.5,-76.5 491.5,-76.5"/>
<text text-anchor="middle" x="548" y="-83.5" font-family="Helvetica,sans-Serif" font-size="10.00">stm::MiniVector::reset</text>
</a>
</g>
</g>
<!-- Node1&#45;&gt;Node6 -->
<g id="edge5" class="edge"><title>Node1&#45;&gt;Node6</title>
<path fill="none" stroke="midnightblue" d="M122.211,-110.682C134.027,-108.466 146.364,-106.428 158,-105 271.042,-91.1289 403.732,-87.2857 481.278,-86.2795"/>
<polygon fill="midnightblue" stroke="midnightblue" points="481.424,-89.7781 491.382,-86.1605 481.342,-82.7786 481.424,-89.7781"/>
</g>
<!-- Node7 -->
<g id="node7" class="node"><title>Node7</title>
<g id="a_node7"><a xlink:href="namespacestm.html#ab1ed02e28e6963306b89990522792bb0" target="_top" xlink:title="stm::PostRollback">
<polygon fill="none" stroke="black" points="164,-38.5 164,-57.5 262,-57.5 262,-38.5 164,-38.5"/>
<text text-anchor="middle" x="213" y="-45.5" font-family="Helvetica,sans-Serif" font-size="10.00">stm::PostRollback</text>
</a>
</g>
</g>
<!-- Node1&#45;&gt;Node7 -->
<g id="edge6" class="edge"><title>Node1&#45;&gt;Node7</title>
<path fill="none" stroke="midnightblue" d="M98.5736,-103.317C116.34,-93.4953 138.102,-81.7922 158,-72 165.025,-68.5431 172.66,-65.0145 179.917,-61.7641"/>
<polygon fill="midnightblue" stroke="midnightblue" points="181.753,-64.7793 189.487,-57.5372 178.925,-58.3761 181.753,-64.7793"/>
</g>
<!-- Node5 -->
<g id="node5" class="node"><title>Node5</title>
<g id="a_node5"><a xlink:href="classstm_1_1WriteSet.html#aed2680209e791a7902f11a13fe9478e1" target="_top" xlink:title="stm::WriteSet::reset\l_internal">
<polygon fill="none" stroke="black" points="326.5,-115 326.5,-145 431.5,-145 431.5,-115 326.5,-115"/>
<text text-anchor="start" x="334.5" y="-133" font-family="Helvetica,sans-Serif" font-size="10.00">stm::WriteSet::reset</text>
<text text-anchor="middle" x="379" y="-122" font-family="Helvetica,sans-Serif" font-size="10.00">_internal</text>
</a>
</g>
</g>
<!-- Node4&#45;&gt;Node5 -->
<g id="edge4" class="edge"><title>Node4&#45;&gt;Node5</title>
<path fill="none" stroke="midnightblue" d="M265.891,-125.898C281.899,-126.484 299.686,-127.135 316.289,-127.742"/>
<polygon fill="midnightblue" stroke="midnightblue" points="316.326,-131.246 326.447,-128.114 316.582,-124.251 316.326,-131.246"/>
</g>
<!-- Node8 -->
<g id="node8" class="node"><title>Node8</title>
<g id="a_node8"><a xlink:href="classstm_1_1WBMMPolicy.html#a659b1e52e3946a9a45fc3abf31dc8800" target="_top" xlink:title="stm::WBMMPolicy::onTxAbort">
<polygon fill="none" stroke="black" points="304,-38.5 304,-57.5 454,-57.5 454,-38.5 304,-38.5"/>
<text text-anchor="middle" x="379" y="-45.5" font-family="Helvetica,sans-Serif" font-size="10.00">stm::WBMMPolicy::onTxAbort</text>
</a>
</g>
</g>
<!-- Node7&#45;&gt;Node8 -->
<g id="edge7" class="edge"><title>Node7&#45;&gt;Node8</title>
<path fill="none" stroke="midnightblue" d="M262.318,-48C272.199,-48 282.87,-48 293.596,-48"/>
<polygon fill="midnightblue" stroke="midnightblue" points="293.872,-51.5001 303.872,-48 293.872,-44.5001 293.872,-51.5001"/>
</g>
<!-- Node8&#45;&gt;Node6 -->
<g id="edge10" class="edge"><title>Node8&#45;&gt;Node6</title>
<path fill="none" stroke="midnightblue" d="M422.141,-57.589C444.377,-62.6487 471.848,-68.8996 495.356,-74.2488"/>
<polygon fill="midnightblue" stroke="midnightblue" points="494.635,-77.6739 505.162,-76.4799 496.188,-70.8484 494.635,-77.6739"/>
</g>
<!-- Node9 -->
<g id="node9" class="node"><title>Node9</title>
<g id="a_node9"><a xlink:href="classstm_1_1MiniVector.html#a4d707e1115e162943b4709a2af92ed77" target="_top" xlink:title="stm::MiniVector::begin">
<polygon fill="none" stroke="black" points="490.5,-38.5 490.5,-57.5 605.5,-57.5 605.5,-38.5 490.5,-38.5"/>
<text text-anchor="middle" x="548" y="-45.5" font-family="Helvetica,sans-Serif" font-size="10.00">stm::MiniVector::begin</text>
</a>
</g>
</g>
<!-- Node8&#45;&gt;Node9 -->
<g id="edge8" class="edge"><title>Node8&#45;&gt;Node9</title>
<path fill="none" stroke="midnightblue" d="M454.221,-48C462.83,-48 471.571,-48 480.074,-48"/>
<polygon fill="midnightblue" stroke="midnightblue" points="480.302,-51.5001 490.302,-48 480.302,-44.5001 480.302,-51.5001"/>
</g>
<!-- Node10 -->
<g id="node10" class="node"><title>Node10</title>
<g id="a_node10"><a xlink:href="classstm_1_1MiniVector.html#ae2297c706ac2ebee161ef60ace9ae645" target="_top" xlink:title="stm::MiniVector::end">
<polygon fill="none" stroke="black" points="494.5,-0.5 494.5,-19.5 601.5,-19.5 601.5,-0.5 494.5,-0.5"/>
<text text-anchor="middle" x="548" y="-7.5" font-family="Helvetica,sans-Serif" font-size="10.00">stm::MiniVector::end</text>
</a>
</g>
</g>
<!-- Node8&#45;&gt;Node10 -->
<g id="edge9" class="edge"><title>Node8&#45;&gt;Node10</title>
<path fill="none" stroke="midnightblue" d="M422.141,-38.411C444.377,-33.3513 471.848,-27.1004 495.356,-21.7512"/>
<polygon fill="midnightblue" stroke="midnightblue" points="496.188,-25.1516 505.162,-19.5201 494.635,-18.3261 496.188,-25.1516"/>
</g>
</g>
</svg>
