<?xml version="1.0" encoding="UTF-8" standalone="no"?>
<!DOCTYPE svg PUBLIC "-//W3C//DTD SVG 1.1//EN"
 "http://www.w3.org/Graphics/SVG/1.1/DTD/svg11.dtd">
<!-- Generated by graphviz version 2.36.0 (20140111.2315)
 -->
<!-- Title: gene Pages: 1 -->
<svg width="230pt" height="288pt"
 viewBox="0.00 0.00 230.00 288.00" xmlns="http://www.w3.org/2000/svg" xmlns:xlink="http://www.w3.org/1999/xlink">
<g id="graph0" class="graph" transform="scale(1 1) rotate(0) translate(4 284)">
<title>gene</title>
<!-- Node1 -->
<g id="node1" class="node"><title>Node1</title>
<polygon fill="#bfbfbf" stroke="black" points="60,-0.5 60,-57.5 98,-57.5 98,-0.5 60,-0.5"/>
<text text-anchor="middle" x="79" y="-45.5" font-family="Helvetica,sans-Serif" font-size="10.00">gene</text>
<polyline fill="none" stroke="black" points="60,-38.5 98,-38.5 "/>
<text text-anchor="middle" x="79" y="-26.5" font-family="Helvetica,sans-Serif" font-size="10.00"> </text>
<polyline fill="none" stroke="black" points="60,-19.5 98,-19.5 "/>
<text text-anchor="middle" x="79" y="-7.5" font-family="Helvetica,sans-Serif" font-size="10.00"> </text>
</g>
<!-- Node2 -->
<g id="node2" class="node"><title>Node2</title>
<polygon fill="none" stroke="#bfbfbf" points="-0.5,-106.5 -0.5,-163.5 34.5,-163.5 34.5,-106.5 -0.5,-106.5"/>
<text text-anchor="middle" x="17" y="-151.5" font-family="Helvetica,sans-Serif" font-size="10.00">char</text>
<polyline fill="none" stroke="#bfbfbf" points="-0.5,-144.5 34.5,-144.5 "/>
<text text-anchor="middle" x="17" y="-132.5" font-family="Helvetica,sans-Serif" font-size="10.00"> </text>
<polyline fill="none" stroke="#bfbfbf" points="-0.5,-125.5 34.5,-125.5 "/>
<text text-anchor="middle" x="17" y="-113.5" font-family="Helvetica,sans-Serif" font-size="10.00"> </text>
</g>
<!-- Node2&#45;&gt;Node1 -->
<g id="edge1" class="edge"><title>Node2&#45;&gt;Node1</title>
<path fill="none" stroke="#404040" d="M12.5901,-106.224C12.2335,-96.2211 13.339,-85.154 18,-76 24.7274,-62.7875 37.2101,-52.3431 49.1393,-44.7684"/>
<polygon fill="none" stroke="#404040" points="49.3725,-44.6334 52.5615,-38.1657 59.7582,-38.6218 56.5692,-45.0895 49.3725,-44.6334"/>
<text text-anchor="middle" x="41.5" y="-79.5" font-family="Helvetica,sans-Serif" font-size="10.00"> +contents</text>
</g>
<!-- Node3 -->
<g id="node3" class="node"><title>Node3</title>
<polygon fill="none" stroke="#bfbfbf" points="76.5,-222.5 76.5,-279.5 111.5,-279.5 111.5,-222.5 76.5,-222.5"/>
<text text-anchor="middle" x="94" y="-267.5" font-family="Helvetica,sans-Serif" font-size="10.00">long</text>
<polyline fill="none" stroke="#bfbfbf" points="76.5,-260.5 111.5,-260.5 "/>
<text text-anchor="middle" x="94" y="-248.5" font-family="Helvetica,sans-Serif" font-size="10.00"> </text>
<polyline fill="none" stroke="#bfbfbf" points="76.5,-241.5 111.5,-241.5 "/>
<text text-anchor="middle" x="94" y="-229.5" font-family="Helvetica,sans-Serif" font-size="10.00"> </text>
</g>
<!-- Node3&#45;&gt;Node1 -->
<g id="edge2" class="edge"><title>Node3&#45;&gt;Node1</title>
<path fill="none" stroke="#404040" d="M92.0362,-222.115C90.8555,-205.285 89.329,-183.411 88,-164 85.8375,-132.415 83.4371,-96.6381 81.6595,-70.0017"/>
<polygon fill="none" stroke="#404040" points="81.6389,-69.6918 77.2486,-63.9711 80.8406,-57.7183 85.2309,-63.439 81.6389,-69.6918"/>
<text text-anchor="middle" x="106" y="-132.5" font-family="Helvetica,sans-Serif" font-size="10.00"> +length</text>
</g>
<!-- Node4 -->
<g id="node4" class="node"><title>Node4</title>
<g id="a_node4"><a xlink:href="structbitmap.html" target="_top" xlink:title="{bitmap\n||}">
<polygon fill="none" stroke="black" points="133,-106.5 133,-163.5 179,-163.5 179,-106.5 133,-106.5"/>
<text text-anchor="middle" x="156" y="-151.5" font-family="Helvetica,sans-Serif" font-size="10.00">bitmap</text>
<polyline fill="none" stroke="black" points="133,-144.5 179,-144.5 "/>
<text text-anchor="middle" x="156" y="-132.5" font-family="Helvetica,sans-Serif" font-size="10.00"> </text>
<polyline fill="none" stroke="black" points="133,-125.5 179,-125.5 "/>
<text text-anchor="middle" x="156" y="-113.5" font-family="Helvetica,sans-Serif" font-size="10.00"> </text>
</a>
</g>
</g>
<!-- Node3&#45;&gt;Node4 -->
<g id="edge5" class="edge"><title>Node3&#45;&gt;Node4</title>
<path fill="none" stroke="#404040" d="M99.6524,-222.432C102.984,-209.614 107.956,-194.482 115,-182 117.736,-177.152 121.053,-172.375 124.602,-167.84"/>
<polygon fill="none" stroke="#404040" points="124.863,-167.531 125.68,-160.366 132.608,-158.364 131.791,-165.529 124.863,-167.531"/>
<text text-anchor="middle" x="139.5" y="-196" font-family="Helvetica,sans-Serif" font-size="10.00"> +numBit</text>
<text text-anchor="middle" x="139.5" y="-185" font-family="Helvetica,sans-Serif" font-size="10.00">+numWord</text>
</g>
<!-- Node4&#45;&gt;Node1 -->
<g id="edge3" class="edge"><title>Node4&#45;&gt;Node1</title>
<path fill="none" stroke="#404040" d="M135.568,-106.403C126.337,-93.9351 115.313,-79.0466 105.46,-65.7383"/>
<polygon fill="none" stroke="#404040" points="105.343,-65.5799 98.5578,-63.1379 98.2023,-55.9356 104.987,-58.3776 105.343,-65.5799"/>
<text text-anchor="middle" x="156.5" y="-79.5" font-family="Helvetica,sans-Serif" font-size="10.00"> +startBitmapPtr</text>
</g>
<!-- Node5 -->
<g id="node5" class="node"><title>Node5</title>
<g id="a_node5"><a xlink:href="classunsigned_01long.html" target="_top" xlink:title="{unsigned long\n||}">
<polygon fill="none" stroke="black" points="145.5,-222.5 145.5,-279.5 222.5,-279.5 222.5,-222.5 145.5,-222.5"/>
<text text-anchor="middle" x="184" y="-267.5" font-family="Helvetica,sans-Serif" font-size="10.00">unsigned long</text>
<polyline fill="none" stroke="black" points="145.5,-260.5 222.5,-260.5 "/>
<text text-anchor="middle" x="184" y="-248.5" font-family="Helvetica,sans-Serif" font-size="10.00"> </text>
<polyline fill="none" stroke="black" points="145.5,-241.5 222.5,-241.5 "/>
<text text-anchor="middle" x="184" y="-229.5" font-family="Helvetica,sans-Serif" font-size="10.00"> </text>
</a>
</g>
</g>
<!-- Node5&#45;&gt;Node4 -->
<g id="edge4" class="edge"><title>Node5&#45;&gt;Node4</title>
<path fill="none" stroke="#404040" d="M177.222,-222.404C173.774,-208.365 169.521,-191.049 165.73,-175.614"/>
<polygon fill="none" stroke="#404040" points="165.675,-175.391 160.359,-170.518 162.813,-163.737 168.128,-168.61 165.675,-175.391"/>
<text text-anchor="middle" x="185.5" y="-190.5" font-family="Helvetica,sans-Serif" font-size="10.00"> +bits</text>
</g>
</g>
</svg>
