<?xml version="1.0" encoding="UTF-8" standalone="no"?>
<!DOCTYPE svg PUBLIC "-//W3C//DTD SVG 1.1//EN"
 "http://www.w3.org/Graphics/SVG/1.1/DTD/svg11.dtd">
<!-- Generated by graphviz version 2.36.0 (20140111.2315)
 -->
<!-- Title: LockfreeList::Node Pages: 1 -->
<svg width="152pt" height="172pt"
 viewBox="0.00 0.00 152.00 172.00" xmlns="http://www.w3.org/2000/svg" xmlns:xlink="http://www.w3.org/1999/xlink">
<g id="graph0" class="graph" transform="scale(1 1) rotate(0) translate(4 168)">
<title>LockfreeList::Node</title>
<!-- Node1 -->
<g id="node1" class="node"><title>Node1</title>
<polygon fill="#bfbfbf" stroke="black" points="-0.5,-0.5 -0.5,-57.5 98.5,-57.5 98.5,-0.5 -0.5,-0.5"/>
<text text-anchor="middle" x="49" y="-45.5" font-family="Helvetica,sans-Serif" font-size="10.00">LockfreeList::Node</text>
<polyline fill="none" stroke="black" points="-0.5,-38.5 98.5,-38.5 "/>
<text text-anchor="middle" x="49" y="-26.5" font-family="Helvetica,sans-Serif" font-size="10.00"> </text>
<polyline fill="none" stroke="black" points="-0.5,-19.5 98.5,-19.5 "/>
<text text-anchor="middle" x="49" y="-7.5" font-family="Helvetica,sans-Serif" font-size="10.00"> </text>
</g>
<!-- Node1&#45;&gt;Node1 -->
<g id="edge1" class="edge"><title>Node1&#45;&gt;Node1</title>
<path fill="none" stroke="#404040" d="M98.6718,-38.3781C108.769,-37.3565 116,-34.2305 116,-29 116,-26.2213 113.959,-24.0366 110.532,-22.4457"/>
<polygon fill="none" stroke="#404040" points="110.346,-22.4014 103.582,-24.9029 98.6718,-19.6219 105.435,-17.1204 110.346,-22.4014"/>
<text text-anchor="middle" x="130" y="-26.5" font-family="Helvetica,sans-Serif" font-size="10.00"> +next</text>
</g>
<!-- Node2 -->
<g id="node2" class="node"><title>Node2</title>
<polygon fill="none" stroke="#bfbfbf" points="23.5,-106.5 23.5,-163.5 74.5,-163.5 74.5,-106.5 23.5,-106.5"/>
<text text-anchor="middle" x="49" y="-151.5" font-family="Helvetica,sans-Serif" font-size="10.00">uint32_t</text>
<polyline fill="none" stroke="#bfbfbf" points="23.5,-144.5 74.5,-144.5 "/>
<text text-anchor="middle" x="49" y="-132.5" font-family="Helvetica,sans-Serif" font-size="10.00"> </text>
<polyline fill="none" stroke="#bfbfbf" points="23.5,-125.5 74.5,-125.5 "/>
<text text-anchor="middle" x="49" y="-113.5" font-family="Helvetica,sans-Serif" font-size="10.00"> </text>
</g>
<!-- Node2&#45;&gt;Node1 -->
<g id="edge2" class="edge"><title>Node2&#45;&gt;Node1</title>
<path fill="none" stroke="#404040" d="M49,-106.403C49,-95.2373 49,-82.1304 49,-69.9556"/>
<polygon fill="none" stroke="#404040" points="49.0001,-69.726 45,-63.726 49,-57.726 53,-63.726 49.0001,-69.726"/>
<text text-anchor="middle" x="61.5" y="-79.5" font-family="Helvetica,sans-Serif" font-size="10.00"> +key</text>
</g>
</g>
</svg>
