<?xml version="1.0" encoding="UTF-8" standalone="no"?>
<!DOCTYPE svg PUBLIC "-//W3C//DTD SVG 1.1//EN"
 "http://www.w3.org/Graphics/SVG/1.1/DTD/svg11.dtd">
<!-- Generated by graphviz version 2.36.0 (20140111.2315)
 -->
<!-- Title: stm::TxThread::thread_init Pages: 1 -->
<svg width="1652pt" height="237pt"
 viewBox="0.00 0.00 1652.00 237.00" xmlns="http://www.w3.org/2000/svg" xmlns:xlink="http://www.w3.org/1999/xlink">
<g id="graph0" class="graph" transform="scale(1 1) rotate(0) translate(4 233)">
<title>stm::TxThread::thread_init</title>
<!-- Node1 -->
<g id="node1" class="node"><title>Node1</title>
<polygon fill="#bfbfbf" stroke="black" points="0.5,-68.5 0.5,-87.5 131.5,-87.5 131.5,-68.5 0.5,-68.5"/>
<text text-anchor="middle" x="66" y="-75.5" font-family="Helvetica,sans-Serif" font-size="10.00">stm::TxThread::thread_init</text>
</g>
<!-- Node2 -->
<g id="node2" class="node"><title>Node2</title>
<g id="a_node2"><a xlink:href="structstm_1_1TxThread.html#a27aa264d621bb5d008571c6aab47a9ba" target="_top" xlink:title="stm::TxThread::TxThread">
<polygon fill="none" stroke="black" points="168,-68.5 168,-87.5 296,-87.5 296,-68.5 168,-68.5"/>
<text text-anchor="middle" x="232" y="-75.5" font-family="Helvetica,sans-Serif" font-size="10.00">stm::TxThread::TxThread</text>
</a>
</g>
</g>
<!-- Node1&#45;&gt;Node2 -->
<g id="edge1" class="edge"><title>Node1&#45;&gt;Node2</title>
<path fill="none" stroke="midnightblue" d="M131.817,-78C140.376,-78 149.196,-78 157.882,-78"/>
<polygon fill="midnightblue" stroke="midnightblue" points="157.993,-81.5001 167.993,-78 157.993,-74.5001 157.993,-81.5001"/>
</g>
<!-- Node3 -->
<g id="node3" class="node"><title>Node3</title>
<g id="a_node3"><a xlink:href="namespacestm.html#a5dc0e1df0fe411722145e01e8b09b4b8" target="_top" xlink:title="stm::begin">
<polygon fill="none" stroke="black" points="356,-125.5 356,-144.5 418,-144.5 418,-125.5 356,-125.5"/>
<text text-anchor="middle" x="387" y="-132.5" font-family="Helvetica,sans-Serif" font-size="10.00">stm::begin</text>
</a>
</g>
</g>
<!-- Node2&#45;&gt;Node3 -->
<g id="edge2" class="edge"><title>Node2&#45;&gt;Node3</title>
<path fill="none" stroke="midnightblue" d="M257.339,-87.5617C277.335,-95.3642 306.427,-106.595 332,-116 337.497,-118.022 343.326,-120.12 349.041,-122.151"/>
<polygon fill="midnightblue" stroke="midnightblue" points="347.88,-125.453 358.475,-125.483 350.212,-118.853 347.88,-125.453"/>
</g>
<!-- Node4 -->
<g id="node4" class="node"><title>Node4</title>
<g id="a_node4"><a xlink:href="namespacestm.html#a347d5009be494e8595a8933c49a342b4" target="_top" xlink:title="stm::begin_blocker">
<polygon fill="none" stroke="black" points="337.5,-87.5 337.5,-106.5 436.5,-106.5 436.5,-87.5 337.5,-87.5"/>
<text text-anchor="middle" x="387" y="-94.5" font-family="Helvetica,sans-Serif" font-size="10.00">stm::begin_blocker</text>
</a>
</g>
</g>
<!-- Node2&#45;&gt;Node4 -->
<g id="edge3" class="edge"><title>Node2&#45;&gt;Node4</title>
<path fill="none" stroke="midnightblue" d="M296.114,-85.8377C306.363,-87.1104 316.942,-88.4241 327.085,-89.6837"/>
<polygon fill="midnightblue" stroke="midnightblue" points="326.699,-93.1626 337.054,-90.9217 327.562,-86.216 326.699,-93.1626"/>
</g>
<!-- Node20 -->
<g id="node20" class="node"><title>Node20</title>
<g id="a_node20"><a xlink:href="locks_8hpp.html#a67493dc021b0db009a9603ea55d18c59" target="_top" xlink:title="spin64">
<polygon fill="none" stroke="black" points="518.5,-49.5 518.5,-68.5 563.5,-68.5 563.5,-49.5 518.5,-49.5"/>
<text text-anchor="middle" x="541" y="-56.5" font-family="Helvetica,sans-Serif" font-size="10.00">spin64</text>
</a>
</g>
</g>
<!-- Node2&#45;&gt;Node20 -->
<g id="edge21" class="edge"><title>Node2&#45;&gt;Node20</title>
<path fill="none" stroke="midnightblue" d="M296.238,-74.0862C360.832,-70.0886 458.499,-64.044 508.328,-60.9602"/>
<polygon fill="midnightblue" stroke="midnightblue" points="508.727,-64.4422 518.492,-60.3311 508.295,-57.4556 508.727,-64.4422"/>
</g>
<!-- Node21 -->
<g id="node21" class="node"><title>Node21</title>
<g id="a_node21"><a xlink:href="namespacestm.html#a103d1928b37a80dd6c538aeab4b1624d" target="_top" xlink:title="stm::install_algorithm\l_local">
<polygon fill="none" stroke="black" points="332,-0 332,-30 442,-30 442,-0 332,-0"/>
<text text-anchor="start" x="340" y="-18" font-family="Helvetica,sans-Serif" font-size="10.00">stm::install_algorithm</text>
<text text-anchor="middle" x="387" y="-7" font-family="Helvetica,sans-Serif" font-size="10.00">_local</text>
</a>
</g>
</g>
<!-- Node2&#45;&gt;Node21 -->
<g id="edge22" class="edge"><title>Node2&#45;&gt;Node21</title>
<path fill="none" stroke="midnightblue" d="M256.237,-68.4317C278.372,-59.3174 312.317,-45.34 339.937,-33.967"/>
<polygon fill="midnightblue" stroke="midnightblue" points="341.499,-37.109 349.413,-30.065 338.834,-30.6362 341.499,-37.109"/>
</g>
<!-- Node5 -->
<g id="node5" class="node"><title>Node5</title>
<g id="a_node5"><a xlink:href="namespaceanonymous__namespace_02irrevocability_8cpp_03.html#a5f2e3da55eda99c9e30b6314c36ed8b2" target="_top" xlink:title="anonymous_namespace\l\{irrevocability::cpp\}\l::set_irrevocable_barriers">
<polygon fill="none" stroke="black" points="478,-87.5 478,-128.5 604,-128.5 604,-87.5 478,-87.5"/>
<text text-anchor="start" x="486" y="-116.5" font-family="Helvetica,sans-Serif" font-size="10.00">anonymous_namespace</text>
<text text-anchor="start" x="486" y="-105.5" font-family="Helvetica,sans-Serif" font-size="10.00">{irrevocability::cpp}</text>
<text text-anchor="middle" x="541" y="-94.5" font-family="Helvetica,sans-Serif" font-size="10.00">::set_irrevocable_barriers</text>
</a>
</g>
</g>
<!-- Node4&#45;&gt;Node5 -->
<g id="edge4" class="edge"><title>Node4&#45;&gt;Node5</title>
<path fill="none" stroke="midnightblue" d="M436.512,-100.511C446.454,-101.23 457.121,-102.002 467.693,-102.767"/>
<polygon fill="midnightblue" stroke="midnightblue" points="467.546,-106.266 477.772,-103.497 468.051,-99.2839 467.546,-106.266"/>
</g>
<!-- Node4&#45;&gt;Node20 -->
<g id="edge20" class="edge"><title>Node4&#45;&gt;Node20</title>
<path fill="none" stroke="midnightblue" d="M426.356,-87.411C451.637,-81.0907 484.354,-72.9116 508.187,-66.9533"/>
<polygon fill="midnightblue" stroke="midnightblue" points="509.279,-70.2882 518.131,-64.4672 507.581,-63.4972 509.279,-70.2882"/>
</g>
<!-- Node6 -->
<g id="node6" class="node"><title>Node6</title>
<g id="a_node6"><a xlink:href="namespaceanonymous__namespace_02irrevocability_8cpp_03.html#af9e6aae425588bac29be16e10b91cd4c" target="_top" xlink:title="anonymous_namespace\l\{irrevocability::cpp\}\l::commit_irrevocable">
<polygon fill="none" stroke="black" points="640,-147.5 640,-188.5 762,-188.5 762,-147.5 640,-147.5"/>
<text text-anchor="start" x="648" y="-176.5" font-family="Helvetica,sans-Serif" font-size="10.00">anonymous_namespace</text>
<text text-anchor="start" x="648" y="-165.5" font-family="Helvetica,sans-Serif" font-size="10.00">{irrevocability::cpp}</text>
<text text-anchor="middle" x="701" y="-154.5" font-family="Helvetica,sans-Serif" font-size="10.00">::commit_irrevocable</text>
</a>
</g>
</g>
<!-- Node5&#45;&gt;Node6 -->
<g id="edge5" class="edge"><title>Node5&#45;&gt;Node6</title>
<path fill="none" stroke="midnightblue" d="M596.375,-128.649C609.232,-133.531 623.057,-138.781 636.287,-143.805"/>
<polygon fill="midnightblue" stroke="midnightblue" points="635.202,-147.137 645.793,-147.415 637.687,-140.593 635.202,-147.137"/>
</g>
<!-- Node17 -->
<g id="node17" class="node"><title>Node17</title>
<g id="a_node17"><a xlink:href="namespaceanonymous__namespace_02irrevocability_8cpp_03.html#adfdb44f5b204ddd367543d1e3a5465fc" target="_top" xlink:title="anonymous_namespace\l\{irrevocability::cpp\}\l::rollback_irrevocable">
<polygon fill="none" stroke="black" points="640,-87.5 640,-128.5 762,-128.5 762,-87.5 640,-87.5"/>
<text text-anchor="start" x="648" y="-116.5" font-family="Helvetica,sans-Serif" font-size="10.00">anonymous_namespace</text>
<text text-anchor="start" x="648" y="-105.5" font-family="Helvetica,sans-Serif" font-size="10.00">{irrevocability::cpp}</text>
<text text-anchor="middle" x="701" y="-94.5" font-family="Helvetica,sans-Serif" font-size="10.00">::rollback_irrevocable</text>
</a>
</g>
</g>
<!-- Node5&#45;&gt;Node17 -->
<g id="edge16" class="edge"><title>Node5&#45;&gt;Node17</title>
<path fill="none" stroke="midnightblue" d="M604.446,-108C612.724,-108 621.257,-108 629.658,-108"/>
<polygon fill="midnightblue" stroke="midnightblue" points="629.813,-111.5 639.813,-108 629.813,-104.5 629.813,-111.5"/>
</g>
<!-- Node19 -->
<g id="node19" class="node"><title>Node19</title>
<g id="a_node19"><a xlink:href="namespaceanonymous__namespace_02irrevocability_8cpp_03.html#ac71fd4f2ae60b1814ccaedea40d424a2" target="_top" xlink:title="anonymous_namespace\l\{irrevocability::cpp\}\l::abort_irrevocable">
<polygon fill="none" stroke="black" points="640,-27.5 640,-68.5 762,-68.5 762,-27.5 640,-27.5"/>
<text text-anchor="start" x="648" y="-56.5" font-family="Helvetica,sans-Serif" font-size="10.00">anonymous_namespace</text>
<text text-anchor="start" x="648" y="-45.5" font-family="Helvetica,sans-Serif" font-size="10.00">{irrevocability::cpp}</text>
<text text-anchor="middle" x="701" y="-34.5" font-family="Helvetica,sans-Serif" font-size="10.00">::abort_irrevocable</text>
</a>
</g>
</g>
<!-- Node5&#45;&gt;Node19 -->
<g id="edge18" class="edge"><title>Node5&#45;&gt;Node19</title>
<path fill="none" stroke="midnightblue" d="M596.375,-87.3514C609.232,-82.4687 623.057,-77.2189 636.287,-72.1949"/>
<polygon fill="midnightblue" stroke="midnightblue" points="637.687,-75.4072 645.793,-68.585 635.202,-68.8631 637.687,-75.4072"/>
</g>
<!-- Node7 -->
<g id="node7" class="node"><title>Node7</title>
<g id="a_node7"><a xlink:href="namespaceanonymous__namespace_02irrevocability_8cpp_03.html#ab42770392de26e3b0bc1ffbe2f7932b8" target="_top" xlink:title="anonymous_namespace\l\{irrevocability::cpp\}\l::unset_irrevocable_barriers">
<polygon fill="none" stroke="black" points="798.5,-168.5 798.5,-209.5 935.5,-209.5 935.5,-168.5 798.5,-168.5"/>
<text text-anchor="start" x="806.5" y="-197.5" font-family="Helvetica,sans-Serif" font-size="10.00">anonymous_namespace</text>
<text text-anchor="start" x="806.5" y="-186.5" font-family="Helvetica,sans-Serif" font-size="10.00">{irrevocability::cpp}</text>
<text text-anchor="middle" x="867" y="-175.5" font-family="Helvetica,sans-Serif" font-size="10.00">::unset_irrevocable_barriers</text>
</a>
</g>
</g>
<!-- Node6&#45;&gt;Node7 -->
<g id="edge6" class="edge"><title>Node6&#45;&gt;Node7</title>
<path fill="none" stroke="midnightblue" d="M762.136,-175.7C770.705,-176.798 779.616,-177.939 788.459,-179.071"/>
<polygon fill="midnightblue" stroke="midnightblue" points="788.027,-182.544 798.391,-180.343 788.916,-175.601 788.027,-182.544"/>
</g>
<!-- Node8 -->
<g id="node8" class="node"><title>Node8</title>
<g id="a_node8"><a xlink:href="namespacestm.html#a00287c50a719dcda144cc1cbc9e9ae4b" target="_top" xlink:title="stm::OnReadOnlyCommit">
<polygon fill="none" stroke="black" points="802,-130.5 802,-149.5 932,-149.5 932,-130.5 802,-130.5"/>
<text text-anchor="middle" x="867" y="-137.5" font-family="Helvetica,sans-Serif" font-size="10.00">stm::OnReadOnlyCommit</text>
</a>
</g>
</g>
<!-- Node6&#45;&gt;Node8 -->
<g id="edge7" class="edge"><title>Node6&#45;&gt;Node8</title>
<path fill="none" stroke="midnightblue" d="M762.136,-157.733C774.543,-155.615 787.671,-153.373 800.265,-151.223"/>
<polygon fill="midnightblue" stroke="midnightblue" points="800.958,-154.655 810.227,-149.522 799.78,-147.755 800.958,-154.655"/>
</g>
<!-- Node9 -->
<g id="node9" class="node"><title>Node9</title>
<g id="a_node9"><a xlink:href="classstm_1_1WBMMPolicy.html#af174b70b9898c8d900a5a2604cfadc7c" target="_top" xlink:title="stm::WBMMPolicy::onTxCommit">
<polygon fill="none" stroke="black" points="972.5,-149.5 972.5,-168.5 1133.5,-168.5 1133.5,-149.5 972.5,-149.5"/>
<text text-anchor="middle" x="1053" y="-156.5" font-family="Helvetica,sans-Serif" font-size="10.00">stm::WBMMPolicy::onTxCommit</text>
</a>
</g>
</g>
<!-- Node8&#45;&gt;Node9 -->
<g id="edge8" class="edge"><title>Node8&#45;&gt;Node9</title>
<path fill="none" stroke="midnightblue" d="M932.096,-146.619C941.819,-147.623 952.002,-148.674 962.15,-149.722"/>
<polygon fill="midnightblue" stroke="midnightblue" points="961.961,-153.221 972.267,-150.767 962.68,-146.258 961.961,-153.221"/>
</g>
<!-- Node16 -->
<g id="node16" class="node"><title>Node16</title>
<g id="a_node16"><a xlink:href="structstm_1_1toxic__nop__t.html#a1c92cb621137c523ad38b9c252b4da06" target="_top" xlink:title="stm::toxic_nop_t::onCommit">
<polygon fill="none" stroke="black" points="983,-111.5 983,-130.5 1123,-130.5 1123,-111.5 983,-111.5"/>
<text text-anchor="middle" x="1053" y="-118.5" font-family="Helvetica,sans-Serif" font-size="10.00">stm::toxic_nop_t::onCommit</text>
</a>
</g>
</g>
<!-- Node8&#45;&gt;Node16 -->
<g id="edge15" class="edge"><title>Node8&#45;&gt;Node16</title>
<path fill="none" stroke="midnightblue" d="M932.096,-133.381C945.154,-132.033 959.041,-130.599 972.559,-129.203"/>
<polygon fill="midnightblue" stroke="midnightblue" points="973.218,-132.654 982.805,-128.145 972.498,-125.691 973.218,-132.654"/>
</g>
<!-- Node10 -->
<g id="node10" class="node"><title>Node10</title>
<g id="a_node10"><a xlink:href="classstm_1_1MiniVector.html#a4d707e1115e162943b4709a2af92ed77" target="_top" xlink:title="stm::MiniVector::begin">
<polygon fill="none" stroke="black" points="1185.5,-209.5 1185.5,-228.5 1300.5,-228.5 1300.5,-209.5 1185.5,-209.5"/>
<text text-anchor="middle" x="1243" y="-216.5" font-family="Helvetica,sans-Serif" font-size="10.00">stm::MiniVector::begin</text>
</a>
</g>
</g>
<!-- Node9&#45;&gt;Node10 -->
<g id="edge9" class="edge"><title>Node9&#45;&gt;Node10</title>
<path fill="none" stroke="midnightblue" d="M1079.15,-168.558C1102.51,-177.278 1138.36,-190.252 1170,-200 1177.56,-202.329 1185.61,-204.629 1193.5,-206.782"/>
<polygon fill="midnightblue" stroke="midnightblue" points="1192.78,-210.213 1203.35,-209.421 1194.59,-203.452 1192.78,-210.213"/>
</g>
<!-- Node11 -->
<g id="node11" class="node"><title>Node11</title>
<g id="a_node11"><a xlink:href="classstm_1_1MiniVector.html#ae2297c706ac2ebee161ef60ace9ae645" target="_top" xlink:title="stm::MiniVector::end">
<polygon fill="none" stroke="black" points="1189.5,-171.5 1189.5,-190.5 1296.5,-190.5 1296.5,-171.5 1189.5,-171.5"/>
<text text-anchor="middle" x="1243" y="-178.5" font-family="Helvetica,sans-Serif" font-size="10.00">stm::MiniVector::end</text>
</a>
</g>
</g>
<!-- Node9&#45;&gt;Node11 -->
<g id="edge10" class="edge"><title>Node9&#45;&gt;Node11</title>
<path fill="none" stroke="midnightblue" d="M1133.73,-168.33C1149.02,-170.119 1164.82,-171.968 1179.47,-173.682"/>
<polygon fill="midnightblue" stroke="midnightblue" points="1179.07,-177.159 1189.4,-174.845 1179.88,-170.207 1179.07,-177.159"/>
</g>
<!-- Node12 -->
<g id="node12" class="node"><title>Node12</title>
<g id="a_node12"><a xlink:href="classstm_1_1WBMMPolicy.html#aa2aa233946e7b6b1d35b184503b8c9f9" target="_top" xlink:title="stm::WBMMPolicy::schedFor\lReclaim">
<polygon fill="none" stroke="black" points="1170,-122 1170,-152 1316,-152 1316,-122 1170,-122"/>
<text text-anchor="start" x="1178" y="-140" font-family="Helvetica,sans-Serif" font-size="10.00">stm::WBMMPolicy::schedFor</text>
<text text-anchor="middle" x="1243" y="-129" font-family="Helvetica,sans-Serif" font-size="10.00">Reclaim</text>
</a>
</g>
</g>
<!-- Node9&#45;&gt;Node12 -->
<g id="edge11" class="edge"><title>Node9&#45;&gt;Node12</title>
<path fill="none" stroke="midnightblue" d="M1133.73,-149.67C1142.36,-148.66 1151.16,-147.631 1159.82,-146.617"/>
<polygon fill="midnightblue" stroke="midnightblue" points="1160.38,-150.076 1169.9,-145.437 1159.56,-143.123 1160.38,-150.076"/>
</g>
<!-- Node15 -->
<g id="node15" class="node"><title>Node15</title>
<g id="a_node15"><a xlink:href="classstm_1_1MiniVector.html#ad17f9c76202d399264ba62812f0b5c41" target="_top" xlink:title="stm::MiniVector::reset">
<polygon fill="none" stroke="black" points="1186.5,-83.5 1186.5,-102.5 1299.5,-102.5 1299.5,-83.5 1186.5,-83.5"/>
<text text-anchor="middle" x="1243" y="-90.5" font-family="Helvetica,sans-Serif" font-size="10.00">stm::MiniVector::reset</text>
</a>
</g>
</g>
<!-- Node9&#45;&gt;Node15 -->
<g id="edge14" class="edge"><title>Node9&#45;&gt;Node15</title>
<path fill="none" stroke="midnightblue" d="M1108.45,-149.396C1117.21,-146.914 1126.02,-143.827 1134,-140 1152.28,-131.236 1151.83,-120.99 1170,-112 1174.66,-109.694 1179.63,-107.643 1184.71,-105.825"/>
<polygon fill="midnightblue" stroke="midnightblue" points="1186.11,-109.047 1194.53,-102.609 1183.93,-102.395 1186.11,-109.047"/>
</g>
<!-- Node13 -->
<g id="node13" class="node"><title>Node13</title>
<g id="a_node13"><a xlink:href="classstm_1_1WBMMPolicy.html#a80a035e5b8f805d49606613b869ddd3c" target="_top" xlink:title="stm::WBMMPolicy::handle\l_full_prelimbo">
<polygon fill="none" stroke="black" points="1352,-122 1352,-152 1486,-152 1486,-122 1352,-122"/>
<text text-anchor="start" x="1360" y="-140" font-family="Helvetica,sans-Serif" font-size="10.00">stm::WBMMPolicy::handle</text>
<text text-anchor="middle" x="1419" y="-129" font-family="Helvetica,sans-Serif" font-size="10.00">_full_prelimbo</text>
</a>
</g>
</g>
<!-- Node12&#45;&gt;Node13 -->
<g id="edge12" class="edge"><title>Node12&#45;&gt;Node13</title>
<path fill="none" stroke="midnightblue" d="M1316.03,-137C1324.47,-137 1333.11,-137 1341.6,-137"/>
<polygon fill="midnightblue" stroke="midnightblue" points="1341.88,-140.5 1351.88,-137 1341.88,-133.5 1341.88,-140.5"/>
</g>
<!-- Node14 -->
<g id="node14" class="node"><title>Node14</title>
<g id="a_node14"><a xlink:href="namespaceanonymous__namespace_02WBMMPolicy_8cpp_03.html#a030c6e9142fd49127ce70ad9b1af5e79" target="_top" xlink:title="anonymous_namespace\l\{WBMMPolicy::cpp\}::is\l_strictly_older">
<polygon fill="none" stroke="black" points="1522,-116.5 1522,-157.5 1644,-157.5 1644,-116.5 1522,-116.5"/>
<text text-anchor="start" x="1530" y="-145.5" font-family="Helvetica,sans-Serif" font-size="10.00">anonymous_namespace</text>
<text text-anchor="start" x="1530" y="-134.5" font-family="Helvetica,sans-Serif" font-size="10.00">{WBMMPolicy::cpp}::is</text>
<text text-anchor="middle" x="1583" y="-123.5" font-family="Helvetica,sans-Serif" font-size="10.00">_strictly_older</text>
</a>
</g>
</g>
<!-- Node13&#45;&gt;Node14 -->
<g id="edge13" class="edge"><title>Node13&#45;&gt;Node14</title>
<path fill="none" stroke="midnightblue" d="M1486.36,-137C1494.75,-137 1503.35,-137 1511.79,-137"/>
<polygon fill="midnightblue" stroke="midnightblue" points="1511.99,-140.5 1521.99,-137 1511.99,-133.5 1511.99,-140.5"/>
</g>
<!-- Node18 -->
<g id="node18" class="node"><title>Node18</title>
<g id="a_node18"><a xlink:href="namespacestm.html#a51b2c0958e7709b39500d037648c461b" target="_top" xlink:title="stm::UNRECOVERABLE">
<polygon fill="none" stroke="black" points="802,-76.5 802,-95.5 932,-95.5 932,-76.5 802,-76.5"/>
<text text-anchor="middle" x="867" y="-83.5" font-family="Helvetica,sans-Serif" font-size="10.00">stm::UNRECOVERABLE</text>
</a>
</g>
</g>
<!-- Node17&#45;&gt;Node18 -->
<g id="edge17" class="edge"><title>Node17&#45;&gt;Node18</title>
<path fill="none" stroke="midnightblue" d="M762.136,-99.9329C771.703,-98.6496 781.698,-97.3088 791.546,-95.9877"/>
<polygon fill="midnightblue" stroke="midnightblue" points="792.287,-99.4198 801.733,-94.6212 791.356,-92.482 792.287,-99.4198"/>
</g>
<!-- Node19&#45;&gt;Node18 -->
<g id="edge19" class="edge"><title>Node19&#45;&gt;Node18</title>
<path fill="none" stroke="midnightblue" d="M762.136,-61.934C779.397,-65.9334 798.052,-70.2559 814.726,-74.1193"/>
<polygon fill="midnightblue" stroke="midnightblue" points="814.289,-77.6108 824.821,-76.4585 815.869,-70.7915 814.289,-77.6108"/>
</g>
</g>
</svg>
