<?xml version="1.0" encoding="UTF-8" standalone="no"?>
<!DOCTYPE svg PUBLIC "-//W3C//DTD SVG 1.1//EN"
 "http://www.w3.org/Graphics/SVG/1.1/DTD/svg11.dtd">
<!-- Generated by graphviz version 2.36.0 (20140111.2315)
 -->
<!-- Title: computeGragh_arg Pages: 1 -->
<!--zoomable 332 -->
<svg id="main" version="1.1" xmlns="http://www.w3.org/2000/svg" xmlns:xlink="http://www.w3.org/1999/xlink" xml:space="preserve" onload="init(evt)">
<style type="text/css"><![CDATA[
.edge:hover path { stroke: red; }
.edge:hover polygon { stroke: red; fill: red; }
]]></style>
<script type="text/javascript"><![CDATA[
var edges = document.getElementsByTagName('g');
if (edges && edges.length) {
  for (var i=0;i<edges.length;i++) {
    if (edges[i].id.substr(0,4)=='edge') {
      edges[i].setAttribute('class','edge');
    }
  }
}
]]></script>
        <defs>
                <circle id="rim" cx="0" cy="0" r="7"/>
                <circle id="rim2" cx="0" cy="0" r="3.5"/>
                <g id="zoomPlus">
                        <use xlink:href="#rim" fill="#404040">
                                <set attributeName="fill" to="#808080" begin="zoomplus.mouseover" end="zoomplus.mouseout"/>
                        </use>
                        <path d="M-4,0h8M0,-4v8" fill="none" stroke="white" stroke-width="1.5" pointer-events="none"/>
                </g>
                <g id="zoomMin">
                        <use xlink:href="#rim" fill="#404040">
                                <set attributeName="fill" to="#808080" begin="zoomminus.mouseover" end="zoomminus.mouseout"/>
                        </use>
                        <path d="M-4,0h8" fill="none" stroke="white" stroke-width="1.5" pointer-events="none"/>
                </g>
                <g id="dirArrow">
                        <path fill="none" stroke="white" stroke-width="1.5" d="M0,-3.0v7 M-2.5,-0.5L0,-3.0L2.5,-0.5"/>
                </g>
               <g id="resetDef">
                       <use xlink:href="#rim2" fill="#404040">
                               <set attributeName="fill" to="#808080" begin="reset.mouseover" end="reset.mouseout"/>
                       </use>
               </g>
        </defs>

<script type="text/javascript">
var viewWidth = 687;
var viewHeight = 332;
var sectionId = 'dynsection-0';
</script>
<script xlink:href="svgpan.js"/>
<svg id="graph" class="graph">
<g id="viewport">
<title>computeGragh_arg</title>
<!-- Node1 -->
<g id="node1" class="node"><title>Node1</title>
<polygon fill="#bfbfbf" stroke="black" points="262.032,-0.5 262.032,-57.5 361.032,-57.5 361.032,-0.5 262.032,-0.5"/>
<text text-anchor="middle" x="311.532" y="-45.5" font-family="Helvetica,sans-Serif" font-size="10.00">computeGragh_arg</text>
<polyline fill="none" stroke="black" points="262.032,-38.5 361.032,-38.5 "/>
<text text-anchor="middle" x="311.532" y="-26.5" font-family="Helvetica,sans-Serif" font-size="10.00"> </text>
<polyline fill="none" stroke="black" points="262.032,-19.5 361.032,-19.5 "/>
<text text-anchor="middle" x="311.532" y="-7.5" font-family="Helvetica,sans-Serif" font-size="10.00"> </text>
</g>
<!-- Node2 -->
<g id="node2" class="node"><title>Node2</title>
<g id="a_node2"><a xlink:href="structgraph.html" target="_top" xlink:title="{graph\n||}">
<polygon fill="none" stroke="black" points="183.032,-106.5 183.032,-163.5 224.032,-163.5 224.032,-106.5 183.032,-106.5"/>
<text text-anchor="middle" x="203.532" y="-151.5" font-family="Helvetica,sans-Serif" font-size="10.00">graph</text>
<polyline fill="none" stroke="black" points="183.032,-144.5 224.032,-144.5 "/>
<text text-anchor="middle" x="203.532" y="-132.5" font-family="Helvetica,sans-Serif" font-size="10.00"> </text>
<polyline fill="none" stroke="black" points="183.032,-125.5 224.032,-125.5 "/>
<text text-anchor="middle" x="203.532" y="-113.5" font-family="Helvetica,sans-Serif" font-size="10.00"> </text>
</a>
</g>
</g>
<!-- Node2&#45;&gt;Node1 -->
<g id="edge1" class="edge"><title>Node2&#45;&gt;Node1</title>
<path fill="none" stroke="#404040" d="M224.1,-114.194C238.146,-100.668 257.167,-82.3517 273.88,-66.2569"/>
<polygon fill="none" stroke="#404040" points="274.238,-65.9123 275.786,-58.8691 282.882,-57.5885 281.335,-64.6317 274.238,-65.9123"/>
<text text-anchor="middle" x="276.532" y="-79.5" font-family="Helvetica,sans-Serif" font-size="10.00"> +GPtr</text>
</g>
<!-- Node3 -->
<g id="node3" class="node"><title>Node3</title>
<polygon fill="none" stroke="#bfbfbf" points="315.032,-266.5 315.032,-323.5 350.032,-323.5 350.032,-266.5 315.032,-266.5"/>
<text text-anchor="middle" x="332.532" y="-311.5" font-family="Helvetica,sans-Serif" font-size="10.00">char</text>
<polyline fill="none" stroke="#bfbfbf" points="315.032,-304.5 350.032,-304.5 "/>
<text text-anchor="middle" x="332.532" y="-292.5" font-family="Helvetica,sans-Serif" font-size="10.00"> </text>
<polyline fill="none" stroke="#bfbfbf" points="315.032,-285.5 350.032,-285.5 "/>
<text text-anchor="middle" x="332.532" y="-273.5" font-family="Helvetica,sans-Serif" font-size="10.00"> </text>
</g>
<!-- Node3&#45;&gt;Node2 -->
<g id="edge2" class="edge"><title>Node3&#45;&gt;Node2</title>
<path fill="none" stroke="#404040" d="M314.812,-288.856C281.251,-278.94 211.162,-257.339 204.532,-248 189.838,-227.302 189.869,-198.591 193.429,-175.42"/>
<polygon fill="none" stroke="#404040" points="193.443,-175.343 190.601,-168.716 195.626,-163.543 198.468,-170.17 193.443,-175.343"/>
<text text-anchor="middle" x="230.532" y="-212.5" font-family="Helvetica,sans-Serif" font-size="10.00"> +strWeight</text>
</g>
<!-- Node7 -->
<g id="node7" class="node"><title>Node7</title>
<g id="a_node7"><a xlink:href="structgraphSDG.html" target="_top" xlink:title="{graphSDG\n||}">
<polygon fill="none" stroke="black" points="356.532,-106.5 356.532,-163.5 418.532,-163.5 418.532,-106.5 356.532,-106.5"/>
<text text-anchor="middle" x="387.532" y="-151.5" font-family="Helvetica,sans-Serif" font-size="10.00">graphSDG</text>
<polyline fill="none" stroke="black" points="356.532,-144.5 418.532,-144.5 "/>
<text text-anchor="middle" x="387.532" y="-132.5" font-family="Helvetica,sans-Serif" font-size="10.00"> </text>
<polyline fill="none" stroke="black" points="356.532,-125.5 418.532,-125.5 "/>
<text text-anchor="middle" x="387.532" y="-113.5" font-family="Helvetica,sans-Serif" font-size="10.00"> </text>
</a>
</g>
</g>
<!-- Node3&#45;&gt;Node7 -->
<g id="edge7" class="edge"><title>Node3&#45;&gt;Node7</title>
<path fill="none" stroke="#404040" d="M350.346,-292.223C375.243,-288.674 419.624,-278.228 439.532,-248 455.666,-223.502 451.58,-208.745 439.532,-182 436.614,-175.523 432.283,-169.59 427.345,-164.294"/>
<polygon fill="none" stroke="#404040" points="427.308,-164.259 420.203,-163.031 418.603,-155.999 425.709,-157.228 427.308,-164.259"/>
<text text-anchor="middle" x="475.532" y="-212.5" font-family="Helvetica,sans-Serif" font-size="10.00"> +strWeight</text>
</g>
<!-- Node4 -->
<g id="node4" class="node"><title>Node4</title>
<polygon fill="none" stroke="#bfbfbf" points="152.032,-266.5 152.032,-323.5 231.032,-323.5 231.032,-266.5 152.032,-266.5"/>
<text text-anchor="middle" x="191.532" y="-311.5" font-family="Helvetica,sans-Serif" font-size="10.00">LONGINT_T *</text>
<polyline fill="none" stroke="#bfbfbf" points="152.032,-304.5 231.032,-304.5 "/>
<text text-anchor="middle" x="191.532" y="-292.5" font-family="Helvetica,sans-Serif" font-size="10.00"> </text>
<polyline fill="none" stroke="#bfbfbf" points="152.032,-285.5 231.032,-285.5 "/>
<text text-anchor="middle" x="191.532" y="-273.5" font-family="Helvetica,sans-Serif" font-size="10.00"> </text>
</g>
<!-- Node4&#45;&gt;Node2 -->
<g id="edge3" class="edge"><title>Node4&#45;&gt;Node2</title>
<path fill="none" stroke="#404040" d="M151.856,-274.765C141.765,-267.817 132.186,-258.928 126.532,-248 113.052,-221.947 112.055,-207.512 126.532,-182 136.179,-164.999 154.88,-153.61 171.435,-146.418"/>
<polygon fill="none" stroke="#404040" points="171.779,-146.283 175.905,-140.369 182.951,-141.902 178.826,-147.816 171.779,-146.283"/>
<text text-anchor="middle" x="154.032" y="-223.5" font-family="Helvetica,sans-Serif" font-size="10.00"> +outDegree</text>
<text text-anchor="middle" x="154.032" y="-212.5" font-family="Helvetica,sans-Serif" font-size="10.00">+inDegree</text>
<text text-anchor="middle" x="154.032" y="-201.5" font-family="Helvetica,sans-Serif" font-size="10.00">+intWeight</text>
</g>
<!-- Node4&#45;&gt;Node7 -->
<g id="edge8" class="edge"><title>Node4&#45;&gt;Node7</title>
<path fill="none" stroke="#404040" d="M231.2,-284.066C281.82,-271.309 363.181,-250.507 365.532,-248 375.257,-237.626 380.993,-203.682 384.155,-175.857"/>
<polygon fill="none" stroke="#404040" points="384.188,-175.545 380.831,-169.162 385.432,-163.61 388.788,-169.992 384.188,-175.545"/>
<text text-anchor="middle" x="409.032" y="-212.5" font-family="Helvetica,sans-Serif" font-size="10.00"> +intWeight</text>
</g>
<!-- Node5 -->
<g id="node5" class="node"><title>Node5</title>
<polygon fill="none" stroke="#bfbfbf" points="75.0318,-266.5 75.0318,-323.5 110.032,-323.5 110.032,-266.5 75.0318,-266.5"/>
<text text-anchor="middle" x="92.5318" y="-311.5" font-family="Helvetica,sans-Serif" font-size="10.00">long</text>
<polyline fill="none" stroke="#bfbfbf" points="75.0318,-304.5 110.032,-304.5 "/>
<text text-anchor="middle" x="92.5318" y="-292.5" font-family="Helvetica,sans-Serif" font-size="10.00"> </text>
<polyline fill="none" stroke="#bfbfbf" points="75.0318,-285.5 110.032,-285.5 "/>
<text text-anchor="middle" x="92.5318" y="-273.5" font-family="Helvetica,sans-Serif" font-size="10.00"> </text>
</g>
<!-- Node5&#45;&gt;Node2 -->
<g id="edge4" class="edge"><title>Node5&#45;&gt;Node2</title>
<path fill="none" stroke="#404040" d="M74.7591,-289.477C55.5336,-283.528 25.8497,-271.02 12.5318,-248 -2.15731,-222.61 -5.62007,-205.042 12.5318,-182 31.8583,-157.466 121.279,-144.493 170.616,-139.096"/>
<polygon fill="none" stroke="#404040" points="170.869,-139.07 176.422,-134.47 182.804,-137.827 177.251,-142.427 170.869,-139.07"/>
<text text-anchor="middle" x="62.5318" y="-240" font-family="Helvetica,sans-Serif" font-size="10.00"> +numEdges</text>
<text text-anchor="middle" x="62.5318" y="-229" font-family="Helvetica,sans-Serif" font-size="10.00">+numStrEdges</text>
<text text-anchor="middle" x="62.5318" y="-218" font-family="Helvetica,sans-Serif" font-size="10.00">+numIntEdges</text>
<text text-anchor="middle" x="62.5318" y="-207" font-family="Helvetica,sans-Serif" font-size="10.00">+numDirectedEdges</text>
<text text-anchor="middle" x="62.5318" y="-196" font-family="Helvetica,sans-Serif" font-size="10.00">+numVertices</text>
<text text-anchor="middle" x="62.5318" y="-185" font-family="Helvetica,sans-Serif" font-size="10.00">+numUndirectedEdges</text>
</g>
<!-- Node5&#45;&gt;Node7 -->
<g id="edge9" class="edge"><title>Node5&#45;&gt;Node7</title>
<path fill="none" stroke="#404040" d="M110.321,-281.999C119.56,-276.305 131.251,-269.909 142.532,-266 190.999,-249.206 218.089,-281.959 256.532,-248 279.409,-227.791 255.16,-204.732 275.532,-182 293.392,-162.071 321.186,-150.587 344.618,-144.078"/>
<polygon fill="none" stroke="#404040" points="344.762,-144.041 349.602,-138.696 356.398,-141.109 351.557,-146.454 344.762,-144.041"/>
<text text-anchor="middle" x="318.532" y="-212.5" font-family="Helvetica,sans-Serif" font-size="10.00"> +numEdgesPlaced</text>
</g>
<!-- Node6 -->
<g id="node6" class="node"><title>Node6</title>
<polygon fill="none" stroke="#bfbfbf" points="541.532,-266.5 541.532,-323.5 627.532,-323.5 627.532,-266.5 541.532,-266.5"/>
<text text-anchor="middle" x="584.532" y="-311.5" font-family="Helvetica,sans-Serif" font-size="10.00">ULONGINT_T *</text>
<polyline fill="none" stroke="#bfbfbf" points="541.532,-304.5 627.532,-304.5 "/>
<text text-anchor="middle" x="584.532" y="-292.5" font-family="Helvetica,sans-Serif" font-size="10.00"> </text>
<polyline fill="none" stroke="#bfbfbf" points="541.532,-285.5 627.532,-285.5 "/>
<text text-anchor="middle" x="584.532" y="-273.5" font-family="Helvetica,sans-Serif" font-size="10.00"> </text>
</g>
<!-- Node6&#45;&gt;Node2 -->
<g id="edge5" class="edge"><title>Node6&#45;&gt;Node2</title>
<path fill="none" stroke="#404040" d="M549.763,-266.442C543.87,-260.758 538.167,-254.506 533.532,-248 515.042,-222.049 531.061,-201.067 505.532,-182 477.219,-160.854 382.459,-169.377 347.532,-164 309.16,-158.093 265.426,-149.292 236.322,-143.139"/>
<polygon fill="none" stroke="#404040" points="236.163,-143.105 229.46,-145.764 224.428,-140.599 231.131,-137.94 236.163,-143.105"/>
<text text-anchor="middle" x="570.532" y="-234.5" font-family="Helvetica,sans-Serif" font-size="10.00"> +outVertexList</text>
<text text-anchor="middle" x="570.532" y="-223.5" font-family="Helvetica,sans-Serif" font-size="10.00">+inVertexList</text>
<text text-anchor="middle" x="570.532" y="-212.5" font-family="Helvetica,sans-Serif" font-size="10.00">+inVertexIndex</text>
<text text-anchor="middle" x="570.532" y="-201.5" font-family="Helvetica,sans-Serif" font-size="10.00">+outVertexIndex</text>
<text text-anchor="middle" x="570.532" y="-190.5" font-family="Helvetica,sans-Serif" font-size="10.00">+paralEdgeIndex</text>
</g>
<!-- Node6&#45;&gt;Node7 -->
<g id="edge10" class="edge"><title>Node6&#45;&gt;Node7</title>
<path fill="none" stroke="#404040" d="M603.246,-266.197C617.274,-241.552 630.999,-205.871 611.532,-182 589.208,-154.626 489.692,-143.082 431.081,-138.587"/>
<polygon fill="none" stroke="#404040" points="430.856,-138.571 424.584,-142.129 418.887,-137.708 425.159,-134.15 430.856,-138.571"/>
<text text-anchor="middle" x="649.532" y="-218" font-family="Helvetica,sans-Serif" font-size="10.00"> +startVertex</text>
<text text-anchor="middle" x="649.532" y="-207" font-family="Helvetica,sans-Serif" font-size="10.00">+endVertex</text>
</g>
<!-- Node7&#45;&gt;Node1 -->
<g id="edge6" class="edge"><title>Node7&#45;&gt;Node1</title>
<path fill="none" stroke="#404040" d="M367.365,-106.403C358.69,-94.5321 348.412,-80.467 339.053,-67.6607"/>
<polygon fill="none" stroke="#404040" points="338.873,-67.4147 332.104,-64.9304 331.793,-57.726 338.563,-60.2103 338.873,-67.4147"/>
<text text-anchor="middle" x="384.032" y="-79.5" font-family="Helvetica,sans-Serif" font-size="10.00"> +SDGdataPtr</text>
</g>
</g>
</svg>
        <g id="navigator" transform="translate(0 0)" fill="#404254">
                <rect fill="#f2f5e9" fill-opacity="0.5" stroke="#606060" stroke-width=".5" x="0" y="0" width="60" height="60"/>
                <use id="zoomplus" xlink:href="#zoomPlus" x="17" y="9" onmousedown="handleZoom(evt,'in')"/>
                <use id="zoomminus" xlink:href="#zoomMin" x="42" y="9" onmousedown="handleZoom(evt,'out')"/>
                <use id="reset" xlink:href="#resetDef" x="30" y="36" onmousedown="handleReset()"/>
                <g id="arrowUp" xlink:href="#dirArrow" transform="translate(30 24)" onmousedown="handlePan(0,-1)">
                  <use xlink:href="#rim" fill="#404040">
                        <set attributeName="fill" to="#808080" begin="arrowUp.mouseover" end="arrowUp.mouseout"/>
                  </use>
                  <path fill="none" stroke="white" stroke-width="1.5" d="M0,-3.0v7 M-2.5,-0.5L0,-3.0L2.5,-0.5"/>
                </g>
                <g id="arrowRight" xlink:href="#dirArrow" transform="rotate(90) translate(36 -43)" onmousedown="handlePan(1,0)">
                  <use xlink:href="#rim" fill="#404040">
                        <set attributeName="fill" to="#808080" begin="arrowRight.mouseover" end="arrowRight.mouseout"/>
                  </use>
                  <path fill="none" stroke="white" stroke-width="1.5" d="M0,-3.0v7 M-2.5,-0.5L0,-3.0L2.5,-0.5"/>
                </g>
                <g id="arrowDown" xlink:href="#dirArrow" transform="rotate(180) translate(-30 -48)" onmousedown="handlePan(0,1)">
                  <use xlink:href="#rim" fill="#404040">
                        <set attributeName="fill" to="#808080" begin="arrowDown.mouseover" end="arrowDown.mouseout"/>
                  </use>
                  <path fill="none" stroke="white" stroke-width="1.5" d="M0,-3.0v7 M-2.5,-0.5L0,-3.0L2.5,-0.5"/>
                </g>
                <g id="arrowLeft" xlink:href="#dirArrow" transform="rotate(270) translate(-36 17)" onmousedown="handlePan(-1,0)">
                  <use xlink:href="#rim" fill="#404040">
                        <set attributeName="fill" to="#808080" begin="arrowLeft.mouseover" end="arrowLeft.mouseout"/>
                  </use>
                  <path fill="none" stroke="white" stroke-width="1.5" d="M0,-3.0v7 M-2.5,-0.5L0,-3.0L2.5,-0.5"/>
                </g>
        </g>
        <svg viewBox="0 0 15 15" width="100%" height="30px" preserveAspectRatio="xMaxYMin meet">
         <g id="arrow_out" transform="scale(0.3 0.3)">
          <a xlink:href="structcomputeGragh__arg__coll__graph_org.svg" target="_base">
           <rect id="button" ry="5" rx="5" y="6" x="6" height="38" width="38"
                fill="#f2f5e9" fill-opacity="0.5" stroke="#606060" stroke-width="1.0"/>
           <path id="arrow"
             d="M 11.500037,31.436501 C 11.940474,20.09759 22.043105,11.32322 32.158766,21.979434 L 37.068811,17.246167 C 37.068811,17.246167 37.088388,32 37.088388,32 L 22.160133,31.978069 C 22.160133,31.978069 26.997745,27.140456 26.997745,27.140456 C 18.528582,18.264221 13.291696,25.230495 11.500037,31.436501 z"
             style="fill:#404040;"/>
          </a>
         </g>
        </svg>
</svg>
