<?xml version="1.0" encoding="UTF-8" standalone="no"?>
<!DOCTYPE svg PUBLIC "-//W3C//DTD SVG 1.1//EN"
 "http://www.w3.org/Graphics/SVG/1.1/DTD/svg11.dtd">
<!-- Generated by graphviz version 2.36.0 (20140111.2315)
 -->
<!-- Title: stm::CommitTrigger::onCommitLock Pages: 1 -->
<!--zoomable 265 -->
<svg id="main" version="1.1" xmlns="http://www.w3.org/2000/svg" xmlns:xlink="http://www.w3.org/1999/xlink" xml:space="preserve" onload="init(evt)">
<style type="text/css"><![CDATA[
.edge:hover path { stroke: red; }
.edge:hover polygon { stroke: red; fill: red; }
]]></style>
<script type="text/javascript"><![CDATA[
var edges = document.getElementsByTagName('g');
if (edges && edges.length) {
  for (var i=0;i<edges.length;i++) {
    if (edges[i].id.substr(0,4)=='edge') {
      edges[i].setAttribute('class','edge');
    }
  }
}
]]></script>
        <defs>
                <circle id="rim" cx="0" cy="0" r="7"/>
                <circle id="rim2" cx="0" cy="0" r="3.5"/>
                <g id="zoomPlus">
                        <use xlink:href="#rim" fill="#404040">
                                <set attributeName="fill" to="#808080" begin="zoomplus.mouseover" end="zoomplus.mouseout"/>
                        </use>
                        <path d="M-4,0h8M0,-4v8" fill="none" stroke="white" stroke-width="1.5" pointer-events="none"/>
                </g>
                <g id="zoomMin">
                        <use xlink:href="#rim" fill="#404040">
                                <set attributeName="fill" to="#808080" begin="zoomminus.mouseover" end="zoomminus.mouseout"/>
                        </use>
                        <path d="M-4,0h8" fill="none" stroke="white" stroke-width="1.5" pointer-events="none"/>
                </g>
                <g id="dirArrow">
                        <path fill="none" stroke="white" stroke-width="1.5" d="M0,-3.0v7 M-2.5,-0.5L0,-3.0L2.5,-0.5"/>
                </g>
               <g id="resetDef">
                       <use xlink:href="#rim2" fill="#404040">
                               <set attributeName="fill" to="#808080" begin="reset.mouseover" end="reset.mouseout"/>
                       </use>
               </g>
        </defs>

<script type="text/javascript">
var viewWidth = 1916;
var viewHeight = 265;
var sectionId = 'dynsection-2';
</script>
<script xlink:href="svgpan.js"/>
<svg id="graph" class="graph">
<g id="viewport">
<title>stm::CommitTrigger::onCommitLock</title>
<!-- Node1 -->
<g id="node1" class="node"><title>Node1</title>
<polygon fill="#bfbfbf" stroke="black" points="0,-101 0,-131 104,-131 104,-101 0,-101"/>
<text text-anchor="start" x="8" y="-119" font-family="Helvetica,sans-Serif" font-size="10.00">stm::CommitTrigger</text>
<text text-anchor="middle" x="52" y="-108" font-family="Helvetica,sans-Serif" font-size="10.00">::onCommitLock</text>
</g>
<!-- Node2 -->
<g id="node2" class="node"><title>Node2</title>
<g id="a_node2"><a xlink:href="structstm_1_1CommitTrigger.html#acdf3280966d01d057c2efc8ff1792aab" target="_top" xlink:title="stm::CommitTrigger\l::onCommitSTM">
<polygon fill="none" stroke="black" points="140,-101 140,-131 244,-131 244,-101 140,-101"/>
<text text-anchor="start" x="148" y="-119" font-family="Helvetica,sans-Serif" font-size="10.00">stm::CommitTrigger</text>
<text text-anchor="middle" x="192" y="-108" font-family="Helvetica,sans-Serif" font-size="10.00">::onCommitSTM</text>
</a>
</g>
</g>
<!-- Node1&#45;&gt;Node2 -->
<g id="edge1" class="edge"><title>Node1&#45;&gt;Node2</title>
<path fill="none" stroke="midnightblue" d="M104.386,-116C112.558,-116 121.083,-116 129.46,-116"/>
<polygon fill="midnightblue" stroke="midnightblue" points="129.571,-119.5 139.571,-116 129.571,-112.5 129.571,-119.5"/>
</g>
<!-- Node3 -->
<g id="node3" class="node"><title>Node3</title>
<g id="a_node3"><a xlink:href="namespacestm.html#a7691058d97dd9bb3444ab2200a90e54b" target="_top" xlink:title="stm::trigger_common">
<polygon fill="none" stroke="black" points="280.5,-106.5 280.5,-125.5 389.5,-125.5 389.5,-106.5 280.5,-106.5"/>
<text text-anchor="middle" x="335" y="-113.5" font-family="Helvetica,sans-Serif" font-size="10.00">stm::trigger_common</text>
</a>
</g>
</g>
<!-- Node2&#45;&gt;Node3 -->
<g id="edge2" class="edge"><title>Node2&#45;&gt;Node3</title>
<path fill="none" stroke="midnightblue" d="M244.303,-116C252.679,-116 261.447,-116 270.081,-116"/>
<polygon fill="midnightblue" stroke="midnightblue" points="270.125,-119.5 280.125,-116 270.125,-112.5 270.125,-119.5"/>
</g>
<!-- Node4 -->
<g id="node4" class="node"><title>Node4</title>
<g id="a_node4"><a xlink:href="namespaceanonymous__namespace_02profiling_8cpp_03.html#ad2de7e300bb6e53bf611aaf35c46d80b" target="_top" xlink:title="anonymous_namespace\l\{profiling::cpp\}::collect\l_profiles">
<polygon fill="none" stroke="black" points="426,-125.5 426,-166.5 548,-166.5 548,-125.5 426,-125.5"/>
<text text-anchor="start" x="434" y="-154.5" font-family="Helvetica,sans-Serif" font-size="10.00">anonymous_namespace</text>
<text text-anchor="start" x="434" y="-143.5" font-family="Helvetica,sans-Serif" font-size="10.00">{profiling::cpp}::collect</text>
<text text-anchor="middle" x="487" y="-132.5" font-family="Helvetica,sans-Serif" font-size="10.00">_profiles</text>
</a>
</g>
</g>
<!-- Node3&#45;&gt;Node4 -->
<g id="edge3" class="edge"><title>Node3&#45;&gt;Node4</title>
<path fill="none" stroke="midnightblue" d="M383.873,-125.575C394.114,-127.623 405.134,-129.827 416.013,-132.003"/>
<polygon fill="midnightblue" stroke="midnightblue" points="415.446,-135.458 425.938,-133.988 416.818,-128.594 415.446,-135.458"/>
</g>
<!-- Node23 -->
<g id="node23" class="node"><title>Node23</title>
<g id="a_node23"><a xlink:href="namespaceanonymous__namespace_02profiling_8cpp_03.html#ac7a6d6bebec6c014c2d09c19efb4390c" target="_top" xlink:title="anonymous_namespace\l\{profiling::cpp\}::change\l_algorithm">
<polygon fill="none" stroke="black" points="426,-65.5 426,-106.5 548,-106.5 548,-65.5 426,-65.5"/>
<text text-anchor="start" x="434" y="-94.5" font-family="Helvetica,sans-Serif" font-size="10.00">anonymous_namespace</text>
<text text-anchor="start" x="434" y="-83.5" font-family="Helvetica,sans-Serif" font-size="10.00">{profiling::cpp}::change</text>
<text text-anchor="middle" x="487" y="-72.5" font-family="Helvetica,sans-Serif" font-size="10.00">_algorithm</text>
</a>
</g>
</g>
<!-- Node3&#45;&gt;Node23 -->
<g id="edge24" class="edge"><title>Node3&#45;&gt;Node23</title>
<path fill="none" stroke="midnightblue" d="M383.873,-106.425C394.114,-104.377 405.134,-102.173 416.013,-99.9974"/>
<polygon fill="midnightblue" stroke="midnightblue" points="416.818,-103.406 425.938,-98.0124 415.446,-96.5416 416.818,-103.406"/>
</g>
<!-- Node5 -->
<g id="node5" class="node"><title>Node5</title>
<g id="a_node5"><a xlink:href="namespacestm.html#a347d5009be494e8595a8933c49a342b4" target="_top" xlink:title="stm::begin_blocker">
<polygon fill="none" stroke="black" points="595.5,-98.5 595.5,-117.5 694.5,-117.5 694.5,-98.5 595.5,-98.5"/>
<text text-anchor="middle" x="645" y="-105.5" font-family="Helvetica,sans-Serif" font-size="10.00">stm::begin_blocker</text>
</a>
</g>
</g>
<!-- Node4&#45;&gt;Node5 -->
<g id="edge4" class="edge"><title>Node4&#45;&gt;Node5</title>
<path fill="none" stroke="midnightblue" d="M548.314,-131.308C563.64,-127.575 579.927,-123.608 594.637,-120.024"/>
<polygon fill="midnightblue" stroke="midnightblue" points="595.649,-123.38 604.537,-117.613 593.993,-116.579 595.649,-123.38"/>
</g>
<!-- Node21 -->
<g id="node21" class="node"><title>Node21</title>
<g id="a_node21"><a xlink:href="locks_8hpp.html#a67493dc021b0db009a9603ea55d18c59" target="_top" xlink:title="spin64">
<polygon fill="none" stroke="black" points="782.5,-123.5 782.5,-142.5 827.5,-142.5 827.5,-123.5 782.5,-123.5"/>
<text text-anchor="middle" x="805" y="-130.5" font-family="Helvetica,sans-Serif" font-size="10.00">spin64</text>
</a>
</g>
</g>
<!-- Node4&#45;&gt;Node21 -->
<g id="edge22" class="edge"><title>Node4&#45;&gt;Node21</title>
<path fill="none" stroke="midnightblue" d="M548.161,-159.773C559.981,-161.949 572.333,-163.857 584,-165 637.964,-170.289 652.452,-173.521 706,-165 729.029,-161.335 754.002,-153.112 772.974,-145.92"/>
<polygon fill="midnightblue" stroke="midnightblue" points="774.26,-149.175 782.306,-142.282 771.718,-142.653 774.26,-149.175"/>
</g>
<!-- Node22 -->
<g id="node22" class="node"><title>Node22</title>
<g id="a_node22"><a xlink:href="namespacestm.html#a0af46d85108438d0b413d5c5d380d03f" target="_top" xlink:title="stm::install_algorithm">
<polygon fill="none" stroke="black" points="590,-136.5 590,-155.5 700,-155.5 700,-136.5 590,-136.5"/>
<text text-anchor="middle" x="645" y="-143.5" font-family="Helvetica,sans-Serif" font-size="10.00">stm::install_algorithm</text>
</a>
</g>
</g>
<!-- Node4&#45;&gt;Node22 -->
<g id="edge23" class="edge"><title>Node4&#45;&gt;Node22</title>
<path fill="none" stroke="midnightblue" d="M548.314,-146C558.602,-146 569.324,-146 579.712,-146"/>
<polygon fill="midnightblue" stroke="midnightblue" points="579.959,-149.5 589.959,-146 579.959,-142.5 579.959,-149.5"/>
</g>
<!-- Node6 -->
<g id="node6" class="node"><title>Node6</title>
<g id="a_node6"><a xlink:href="namespaceanonymous__namespace_02irrevocability_8cpp_03.html#a5f2e3da55eda99c9e30b6314c36ed8b2" target="_top" xlink:title="anonymous_namespace\l\{irrevocability::cpp\}\l::set_irrevocable_barriers">
<polygon fill="none" stroke="black" points="742,-63.5 742,-104.5 868,-104.5 868,-63.5 742,-63.5"/>
<text text-anchor="start" x="750" y="-92.5" font-family="Helvetica,sans-Serif" font-size="10.00">anonymous_namespace</text>
<text text-anchor="start" x="750" y="-81.5" font-family="Helvetica,sans-Serif" font-size="10.00">{irrevocability::cpp}</text>
<text text-anchor="middle" x="805" y="-70.5" font-family="Helvetica,sans-Serif" font-size="10.00">::set_irrevocable_barriers</text>
</a>
</g>
</g>
<!-- Node5&#45;&gt;Node6 -->
<g id="edge5" class="edge"><title>Node5&#45;&gt;Node6</title>
<path fill="none" stroke="midnightblue" d="M694.694,-100.603C706.428,-98.8211 719.213,-96.8791 731.768,-94.9719"/>
<polygon fill="midnightblue" stroke="midnightblue" points="732.402,-98.4158 741.763,-93.4537 731.351,-91.4952 732.402,-98.4158"/>
</g>
<!-- Node5&#45;&gt;Node21 -->
<g id="edge21" class="edge"><title>Node5&#45;&gt;Node21</title>
<path fill="none" stroke="midnightblue" d="M694.694,-115.705C720.056,-119.718 750.329,-124.508 772.578,-128.028"/>
<polygon fill="midnightblue" stroke="midnightblue" points="772.069,-131.491 782.494,-129.597 773.163,-124.577 772.069,-131.491"/>
</g>
<!-- Node7 -->
<g id="node7" class="node"><title>Node7</title>
<g id="a_node7"><a xlink:href="namespaceanonymous__namespace_02irrevocability_8cpp_03.html#af9e6aae425588bac29be16e10b91cd4c" target="_top" xlink:title="anonymous_namespace\l\{irrevocability::cpp\}\l::commit_irrevocable">
<polygon fill="none" stroke="black" points="904,-123.5 904,-164.5 1026,-164.5 1026,-123.5 904,-123.5"/>
<text text-anchor="start" x="912" y="-152.5" font-family="Helvetica,sans-Serif" font-size="10.00">anonymous_namespace</text>
<text text-anchor="start" x="912" y="-141.5" font-family="Helvetica,sans-Serif" font-size="10.00">{irrevocability::cpp}</text>
<text text-anchor="middle" x="965" y="-130.5" font-family="Helvetica,sans-Serif" font-size="10.00">::commit_irrevocable</text>
</a>
</g>
</g>
<!-- Node6&#45;&gt;Node7 -->
<g id="edge6" class="edge"><title>Node6&#45;&gt;Node7</title>
<path fill="none" stroke="midnightblue" d="M860.375,-104.649C873.232,-109.531 887.057,-114.781 900.287,-119.805"/>
<polygon fill="midnightblue" stroke="midnightblue" points="899.202,-123.137 909.793,-123.415 901.687,-116.593 899.202,-123.137"/>
</g>
<!-- Node18 -->
<g id="node18" class="node"><title>Node18</title>
<g id="a_node18"><a xlink:href="namespaceanonymous__namespace_02irrevocability_8cpp_03.html#adfdb44f5b204ddd367543d1e3a5465fc" target="_top" xlink:title="anonymous_namespace\l\{irrevocability::cpp\}\l::rollback_irrevocable">
<polygon fill="none" stroke="black" points="904,-3.5 904,-44.5 1026,-44.5 1026,-3.5 904,-3.5"/>
<text text-anchor="start" x="912" y="-32.5" font-family="Helvetica,sans-Serif" font-size="10.00">anonymous_namespace</text>
<text text-anchor="start" x="912" y="-21.5" font-family="Helvetica,sans-Serif" font-size="10.00">{irrevocability::cpp}</text>
<text text-anchor="middle" x="965" y="-10.5" font-family="Helvetica,sans-Serif" font-size="10.00">::rollback_irrevocable</text>
</a>
</g>
</g>
<!-- Node6&#45;&gt;Node18 -->
<g id="edge17" class="edge"><title>Node6&#45;&gt;Node18</title>
<path fill="none" stroke="midnightblue" d="M860.375,-63.3514C873.232,-58.4687 887.057,-53.2189 900.287,-48.1949"/>
<polygon fill="midnightblue" stroke="midnightblue" points="901.687,-51.4072 909.793,-44.585 899.202,-44.8631 901.687,-51.4072"/>
</g>
<!-- Node20 -->
<g id="node20" class="node"><title>Node20</title>
<g id="a_node20"><a xlink:href="namespaceanonymous__namespace_02irrevocability_8cpp_03.html#ac71fd4f2ae60b1814ccaedea40d424a2" target="_top" xlink:title="anonymous_namespace\l\{irrevocability::cpp\}\l::abort_irrevocable">
<polygon fill="none" stroke="black" points="904,-63.5 904,-104.5 1026,-104.5 1026,-63.5 904,-63.5"/>
<text text-anchor="start" x="912" y="-92.5" font-family="Helvetica,sans-Serif" font-size="10.00">anonymous_namespace</text>
<text text-anchor="start" x="912" y="-81.5" font-family="Helvetica,sans-Serif" font-size="10.00">{irrevocability::cpp}</text>
<text text-anchor="middle" x="965" y="-70.5" font-family="Helvetica,sans-Serif" font-size="10.00">::abort_irrevocable</text>
</a>
</g>
</g>
<!-- Node6&#45;&gt;Node20 -->
<g id="edge19" class="edge"><title>Node6&#45;&gt;Node20</title>
<path fill="none" stroke="midnightblue" d="M868.446,-84C876.724,-84 885.257,-84 893.658,-84"/>
<polygon fill="midnightblue" stroke="midnightblue" points="893.813,-87.5001 903.813,-84 893.813,-80.5001 893.813,-87.5001"/>
</g>
<!-- Node8 -->
<g id="node8" class="node"><title>Node8</title>
<g id="a_node8"><a xlink:href="namespaceanonymous__namespace_02irrevocability_8cpp_03.html#ab42770392de26e3b0bc1ffbe2f7932b8" target="_top" xlink:title="anonymous_namespace\l\{irrevocability::cpp\}\l::unset_irrevocable_barriers">
<polygon fill="none" stroke="black" points="1062.5,-98.5 1062.5,-139.5 1199.5,-139.5 1199.5,-98.5 1062.5,-98.5"/>
<text text-anchor="start" x="1070.5" y="-127.5" font-family="Helvetica,sans-Serif" font-size="10.00">anonymous_namespace</text>
<text text-anchor="start" x="1070.5" y="-116.5" font-family="Helvetica,sans-Serif" font-size="10.00">{irrevocability::cpp}</text>
<text text-anchor="middle" x="1131" y="-105.5" font-family="Helvetica,sans-Serif" font-size="10.00">::unset_irrevocable_barriers</text>
</a>
</g>
</g>
<!-- Node7&#45;&gt;Node8 -->
<g id="edge7" class="edge"><title>Node7&#45;&gt;Node8</title>
<path fill="none" stroke="midnightblue" d="M1026.14,-134.833C1034.7,-133.527 1043.62,-132.168 1052.46,-130.82"/>
<polygon fill="midnightblue" stroke="midnightblue" points="1053.03,-134.273 1062.39,-129.306 1051.98,-127.353 1053.03,-134.273"/>
</g>
<!-- Node9 -->
<g id="node9" class="node"><title>Node9</title>
<g id="a_node9"><a xlink:href="namespacestm.html#a00287c50a719dcda144cc1cbc9e9ae4b" target="_top" xlink:title="stm::OnReadOnlyCommit">
<polygon fill="none" stroke="black" points="1066,-158.5 1066,-177.5 1196,-177.5 1196,-158.5 1066,-158.5"/>
<text text-anchor="middle" x="1131" y="-165.5" font-family="Helvetica,sans-Serif" font-size="10.00">stm::OnReadOnlyCommit</text>
</a>
</g>
</g>
<!-- Node7&#45;&gt;Node9 -->
<g id="edge8" class="edge"><title>Node7&#45;&gt;Node9</title>
<path fill="none" stroke="midnightblue" d="M1026.14,-152.8C1035.7,-154.2 1045.7,-155.663 1055.55,-157.104"/>
<polygon fill="midnightblue" stroke="midnightblue" points="1055.33,-160.61 1065.73,-158.595 1056.34,-153.684 1055.33,-160.61"/>
</g>
<!-- Node10 -->
<g id="node10" class="node"><title>Node10</title>
<g id="a_node10"><a xlink:href="classstm_1_1WBMMPolicy.html#af174b70b9898c8d900a5a2604cfadc7c" target="_top" xlink:title="stm::WBMMPolicy::onTxCommit">
<polygon fill="none" stroke="black" points="1236.5,-177.5 1236.5,-196.5 1397.5,-196.5 1397.5,-177.5 1236.5,-177.5"/>
<text text-anchor="middle" x="1317" y="-184.5" font-family="Helvetica,sans-Serif" font-size="10.00">stm::WBMMPolicy::onTxCommit</text>
</a>
</g>
</g>
<!-- Node9&#45;&gt;Node10 -->
<g id="edge9" class="edge"><title>Node9&#45;&gt;Node10</title>
<path fill="none" stroke="midnightblue" d="M1196.1,-174.619C1205.82,-175.623 1216,-176.674 1226.15,-177.722"/>
<polygon fill="midnightblue" stroke="midnightblue" points="1225.96,-181.221 1236.27,-178.767 1226.68,-174.258 1225.96,-181.221"/>
</g>
<!-- Node17 -->
<g id="node17" class="node"><title>Node17</title>
<g id="a_node17"><a xlink:href="structstm_1_1toxic__nop__t.html#a1c92cb621137c523ad38b9c252b4da06" target="_top" xlink:title="stm::toxic_nop_t::onCommit">
<polygon fill="none" stroke="black" points="1247,-139.5 1247,-158.5 1387,-158.5 1387,-139.5 1247,-139.5"/>
<text text-anchor="middle" x="1317" y="-146.5" font-family="Helvetica,sans-Serif" font-size="10.00">stm::toxic_nop_t::onCommit</text>
</a>
</g>
</g>
<!-- Node9&#45;&gt;Node17 -->
<g id="edge16" class="edge"><title>Node9&#45;&gt;Node17</title>
<path fill="none" stroke="midnightblue" d="M1196.1,-161.381C1209.15,-160.033 1223.04,-158.599 1236.56,-157.203"/>
<polygon fill="midnightblue" stroke="midnightblue" points="1237.22,-160.654 1246.81,-156.145 1236.5,-153.691 1237.22,-160.654"/>
</g>
<!-- Node11 -->
<g id="node11" class="node"><title>Node11</title>
<g id="a_node11"><a xlink:href="classstm_1_1MiniVector.html#a4d707e1115e162943b4709a2af92ed77" target="_top" xlink:title="stm::MiniVector::begin">
<polygon fill="none" stroke="black" points="1449.5,-237.5 1449.5,-256.5 1564.5,-256.5 1564.5,-237.5 1449.5,-237.5"/>
<text text-anchor="middle" x="1507" y="-244.5" font-family="Helvetica,sans-Serif" font-size="10.00">stm::MiniVector::begin</text>
</a>
</g>
</g>
<!-- Node10&#45;&gt;Node11 -->
<g id="edge10" class="edge"><title>Node10&#45;&gt;Node11</title>
<path fill="none" stroke="midnightblue" d="M1343.15,-196.558C1366.51,-205.278 1402.36,-218.252 1434,-228 1441.56,-230.329 1449.61,-232.629 1457.5,-234.782"/>
<polygon fill="midnightblue" stroke="midnightblue" points="1456.78,-238.213 1467.35,-237.421 1458.59,-231.452 1456.78,-238.213"/>
</g>
<!-- Node12 -->
<g id="node12" class="node"><title>Node12</title>
<g id="a_node12"><a xlink:href="classstm_1_1MiniVector.html#ae2297c706ac2ebee161ef60ace9ae645" target="_top" xlink:title="stm::MiniVector::end">
<polygon fill="none" stroke="black" points="1453.5,-199.5 1453.5,-218.5 1560.5,-218.5 1560.5,-199.5 1453.5,-199.5"/>
<text text-anchor="middle" x="1507" y="-206.5" font-family="Helvetica,sans-Serif" font-size="10.00">stm::MiniVector::end</text>
</a>
</g>
</g>
<!-- Node10&#45;&gt;Node12 -->
<g id="edge11" class="edge"><title>Node10&#45;&gt;Node12</title>
<path fill="none" stroke="midnightblue" d="M1397.73,-196.33C1413.02,-198.119 1428.82,-199.968 1443.47,-201.682"/>
<polygon fill="midnightblue" stroke="midnightblue" points="1443.07,-205.159 1453.4,-202.845 1443.88,-198.207 1443.07,-205.159"/>
</g>
<!-- Node13 -->
<g id="node13" class="node"><title>Node13</title>
<g id="a_node13"><a xlink:href="classstm_1_1WBMMPolicy.html#aa2aa233946e7b6b1d35b184503b8c9f9" target="_top" xlink:title="stm::WBMMPolicy::schedFor\lReclaim">
<polygon fill="none" stroke="black" points="1434,-150 1434,-180 1580,-180 1580,-150 1434,-150"/>
<text text-anchor="start" x="1442" y="-168" font-family="Helvetica,sans-Serif" font-size="10.00">stm::WBMMPolicy::schedFor</text>
<text text-anchor="middle" x="1507" y="-157" font-family="Helvetica,sans-Serif" font-size="10.00">Reclaim</text>
</a>
</g>
</g>
<!-- Node10&#45;&gt;Node13 -->
<g id="edge12" class="edge"><title>Node10&#45;&gt;Node13</title>
<path fill="none" stroke="midnightblue" d="M1397.73,-177.67C1406.36,-176.66 1415.16,-175.631 1423.82,-174.617"/>
<polygon fill="midnightblue" stroke="midnightblue" points="1424.38,-178.076 1433.9,-173.437 1423.56,-171.123 1424.38,-178.076"/>
</g>
<!-- Node16 -->
<g id="node16" class="node"><title>Node16</title>
<g id="a_node16"><a xlink:href="classstm_1_1MiniVector.html#ad17f9c76202d399264ba62812f0b5c41" target="_top" xlink:title="stm::MiniVector::reset">
<polygon fill="none" stroke="black" points="1450.5,-111.5 1450.5,-130.5 1563.5,-130.5 1563.5,-111.5 1450.5,-111.5"/>
<text text-anchor="middle" x="1507" y="-118.5" font-family="Helvetica,sans-Serif" font-size="10.00">stm::MiniVector::reset</text>
</a>
</g>
</g>
<!-- Node10&#45;&gt;Node16 -->
<g id="edge15" class="edge"><title>Node10&#45;&gt;Node16</title>
<path fill="none" stroke="midnightblue" d="M1372.45,-177.396C1381.21,-174.914 1390.02,-171.827 1398,-168 1416.28,-159.236 1415.83,-148.99 1434,-140 1438.66,-137.694 1443.63,-135.643 1448.71,-133.825"/>
<polygon fill="midnightblue" stroke="midnightblue" points="1450.11,-137.047 1458.53,-130.609 1447.93,-130.395 1450.11,-137.047"/>
</g>
<!-- Node14 -->
<g id="node14" class="node"><title>Node14</title>
<g id="a_node14"><a xlink:href="classstm_1_1WBMMPolicy.html#a80a035e5b8f805d49606613b869ddd3c" target="_top" xlink:title="stm::WBMMPolicy::handle\l_full_prelimbo">
<polygon fill="none" stroke="black" points="1616,-150 1616,-180 1750,-180 1750,-150 1616,-150"/>
<text text-anchor="start" x="1624" y="-168" font-family="Helvetica,sans-Serif" font-size="10.00">stm::WBMMPolicy::handle</text>
<text text-anchor="middle" x="1683" y="-157" font-family="Helvetica,sans-Serif" font-size="10.00">_full_prelimbo</text>
</a>
</g>
</g>
<!-- Node13&#45;&gt;Node14 -->
<g id="edge13" class="edge"><title>Node13&#45;&gt;Node14</title>
<path fill="none" stroke="midnightblue" d="M1580.03,-165C1588.47,-165 1597.11,-165 1605.6,-165"/>
<polygon fill="midnightblue" stroke="midnightblue" points="1605.88,-168.5 1615.88,-165 1605.88,-161.5 1605.88,-168.5"/>
</g>
<!-- Node15 -->
<g id="node15" class="node"><title>Node15</title>
<g id="a_node15"><a xlink:href="namespaceanonymous__namespace_02WBMMPolicy_8cpp_03.html#a030c6e9142fd49127ce70ad9b1af5e79" target="_top" xlink:title="anonymous_namespace\l\{WBMMPolicy::cpp\}::is\l_strictly_older">
<polygon fill="none" stroke="black" points="1786,-144.5 1786,-185.5 1908,-185.5 1908,-144.5 1786,-144.5"/>
<text text-anchor="start" x="1794" y="-173.5" font-family="Helvetica,sans-Serif" font-size="10.00">anonymous_namespace</text>
<text text-anchor="start" x="1794" y="-162.5" font-family="Helvetica,sans-Serif" font-size="10.00">{WBMMPolicy::cpp}::is</text>
<text text-anchor="middle" x="1847" y="-151.5" font-family="Helvetica,sans-Serif" font-size="10.00">_strictly_older</text>
</a>
</g>
</g>
<!-- Node14&#45;&gt;Node15 -->
<g id="edge14" class="edge"><title>Node14&#45;&gt;Node15</title>
<path fill="none" stroke="midnightblue" d="M1750.36,-165C1758.75,-165 1767.35,-165 1775.79,-165"/>
<polygon fill="midnightblue" stroke="midnightblue" points="1775.99,-168.5 1785.99,-165 1775.99,-161.5 1775.99,-168.5"/>
</g>
<!-- Node19 -->
<g id="node19" class="node"><title>Node19</title>
<g id="a_node19"><a xlink:href="namespacestm.html#a51b2c0958e7709b39500d037648c461b" target="_top" xlink:title="stm::UNRECOVERABLE">
<polygon fill="none" stroke="black" points="1066,-49.5 1066,-68.5 1196,-68.5 1196,-49.5 1066,-49.5"/>
<text text-anchor="middle" x="1131" y="-56.5" font-family="Helvetica,sans-Serif" font-size="10.00">stm::UNRECOVERABLE</text>
</a>
</g>
</g>
<!-- Node18&#45;&gt;Node19 -->
<g id="edge18" class="edge"><title>Node18&#45;&gt;Node19</title>
<path fill="none" stroke="midnightblue" d="M1026.14,-36.834C1042.18,-40.2588 1059.44,-43.9409 1075.18,-47.3012"/>
<polygon fill="midnightblue" stroke="midnightblue" points="1074.77,-50.7927 1085.28,-49.4571 1076.24,-43.9469 1074.77,-50.7927"/>
</g>
<!-- Node20&#45;&gt;Node19 -->
<g id="edge20" class="edge"><title>Node20&#45;&gt;Node19</title>
<path fill="none" stroke="midnightblue" d="M1026.14,-74.8329C1036.39,-73.2699 1047.13,-71.632 1057.66,-70.0269"/>
<polygon fill="midnightblue" stroke="midnightblue" points="1058.31,-73.4687 1067.67,-68.5016 1057.26,-66.5486 1058.31,-73.4687"/>
</g>
<!-- Node23&#45;&gt;Node5 -->
<g id="edge25" class="edge"><title>Node23&#45;&gt;Node5</title>
<path fill="none" stroke="midnightblue" d="M548.314,-94.5058C560.505,-96.225 573.304,-98.0301 585.434,-99.7407"/>
<polygon fill="midnightblue" stroke="midnightblue" points="585.047,-103.221 595.437,-101.151 586.024,-96.2892 585.047,-103.221"/>
</g>
<!-- Node23&#45;&gt;Node21 -->
<g id="edge26" class="edge"><title>Node23&#45;&gt;Node21</title>
<path fill="none" stroke="midnightblue" d="M548.18,-77.8198C592.774,-73.8962 654.486,-73.015 706,-89 724.366,-94.6989 724.685,-104.635 742,-113 751.7,-117.686 762.765,-121.654 772.836,-124.789"/>
<polygon fill="midnightblue" stroke="midnightblue" points="771.907,-128.164 782.489,-127.642 773.892,-121.451 771.907,-128.164"/>
</g>
<!-- Node23&#45;&gt;Node22 -->
<g id="edge28" class="edge"><title>Node23&#45;&gt;Node22</title>
<path fill="none" stroke="midnightblue" d="M533.537,-106.517C549.377,-113.368 567.348,-120.824 584,-127 589.71,-129.118 595.777,-131.214 601.776,-133.197"/>
<polygon fill="midnightblue" stroke="midnightblue" points="601.14,-136.67 611.732,-136.413 603.292,-130.009 601.14,-136.67"/>
</g>
<!-- Node24 -->
<g id="node24" class="node"><title>Node24</title>
<g id="a_node24"><a xlink:href="namespaceanonymous__namespace_02profiling_8cpp_03.html#a00942ad1d38b82f3a2e0f66b704bef44" target="_top" xlink:title="anonymous_namespace\l\{profiling::cpp\}::adjust\l_thresholds">
<polygon fill="none" stroke="black" points="584,-0.5 584,-41.5 706,-41.5 706,-0.5 584,-0.5"/>
<text text-anchor="start" x="592" y="-29.5" font-family="Helvetica,sans-Serif" font-size="10.00">anonymous_namespace</text>
<text text-anchor="start" x="592" y="-18.5" font-family="Helvetica,sans-Serif" font-size="10.00">{profiling::cpp}::adjust</text>
<text text-anchor="middle" x="645" y="-7.5" font-family="Helvetica,sans-Serif" font-size="10.00">_thresholds</text>
</a>
</g>
</g>
<!-- Node23&#45;&gt;Node24 -->
<g id="edge27" class="edge"><title>Node23&#45;&gt;Node24</title>
<path fill="none" stroke="midnightblue" d="M537.359,-65.4336C552.513,-59.1195 569.342,-52.1074 585.069,-45.5545"/>
<polygon fill="midnightblue" stroke="midnightblue" points="586.81,-48.6211 594.694,-41.5441 584.117,-42.1595 586.81,-48.6211"/>
</g>
</g>
</svg>
        <g id="navigator" transform="translate(0 0)" fill="#404254">
                <rect fill="#f2f5e9" fill-opacity="0.5" stroke="#606060" stroke-width=".5" x="0" y="0" width="60" height="60"/>
                <use id="zoomplus" xlink:href="#zoomPlus" x="17" y="9" onmousedown="handleZoom(evt,'in')"/>
                <use id="zoomminus" xlink:href="#zoomMin" x="42" y="9" onmousedown="handleZoom(evt,'out')"/>
                <use id="reset" xlink:href="#resetDef" x="30" y="36" onmousedown="handleReset()"/>
                <g id="arrowUp" xlink:href="#dirArrow" transform="translate(30 24)" onmousedown="handlePan(0,-1)">
                  <use xlink:href="#rim" fill="#404040">
                        <set attributeName="fill" to="#808080" begin="arrowUp.mouseover" end="arrowUp.mouseout"/>
                  </use>
                  <path fill="none" stroke="white" stroke-width="1.5" d="M0,-3.0v7 M-2.5,-0.5L0,-3.0L2.5,-0.5"/>
                </g>
                <g id="arrowRight" xlink:href="#dirArrow" transform="rotate(90) translate(36 -43)" onmousedown="handlePan(1,0)">
                  <use xlink:href="#rim" fill="#404040">
                        <set attributeName="fill" to="#808080" begin="arrowRight.mouseover" end="arrowRight.mouseout"/>
                  </use>
                  <path fill="none" stroke="white" stroke-width="1.5" d="M0,-3.0v7 M-2.5,-0.5L0,-3.0L2.5,-0.5"/>
                </g>
                <g id="arrowDown" xlink:href="#dirArrow" transform="rotate(180) translate(-30 -48)" onmousedown="handlePan(0,1)">
                  <use xlink:href="#rim" fill="#404040">
                        <set attributeName="fill" to="#808080" begin="arrowDown.mouseover" end="arrowDown.mouseout"/>
                  </use>
                  <path fill="none" stroke="white" stroke-width="1.5" d="M0,-3.0v7 M-2.5,-0.5L0,-3.0L2.5,-0.5"/>
                </g>
                <g id="arrowLeft" xlink:href="#dirArrow" transform="rotate(270) translate(-36 17)" onmousedown="handlePan(-1,0)">
                  <use xlink:href="#rim" fill="#404040">
                        <set attributeName="fill" to="#808080" begin="arrowLeft.mouseover" end="arrowLeft.mouseout"/>
                  </use>
                  <path fill="none" stroke="white" stroke-width="1.5" d="M0,-3.0v7 M-2.5,-0.5L0,-3.0L2.5,-0.5"/>
                </g>
        </g>
        <svg viewBox="0 0 15 15" width="100%" height="30px" preserveAspectRatio="xMaxYMin meet">
         <g id="arrow_out" transform="scale(0.3 0.3)">
          <a xlink:href="structstm_1_1CommitTrigger_a4d706454d226b9100a972d36bb3be88e_cgraph_org.svg" target="_base">
           <rect id="button" ry="5" rx="5" y="6" x="6" height="38" width="38"
                fill="#f2f5e9" fill-opacity="0.5" stroke="#606060" stroke-width="1.0"/>
           <path id="arrow"
             d="M 11.500037,31.436501 C 11.940474,20.09759 22.043105,11.32322 32.158766,21.979434 L 37.068811,17.246167 C 37.068811,17.246167 37.088388,32 37.088388,32 L 22.160133,31.978069 C 22.160133,31.978069 26.997745,27.140456 26.997745,27.140456 C 18.528582,18.264221 13.291696,25.230495 11.500037,31.436501 z"
             style="fill:#404040;"/>
          </a>
         </g>
        </svg>
</svg>
