<?xml version="1.0" encoding="UTF-8" standalone="no"?>
<!DOCTYPE svg PUBLIC "-//W3C//DTD SVG 1.1//EN"
 "http://www.w3.org/Graphics/SVG/1.1/DTD/svg11.dtd">
<!-- Generated by graphviz version 2.36.0 (20140111.2315)
 -->
<!-- Title: BoostingList::Operation Pages: 1 -->
<svg width="126pt" height="184pt"
 viewBox="0.00 0.00 126.00 184.00" xmlns="http://www.w3.org/2000/svg" xmlns:xlink="http://www.w3.org/1999/xlink">
<g id="graph0" class="graph" transform="scale(1 1) rotate(0) translate(4 180)">
<title>BoostingList::Operation</title>
<!-- Node1 -->
<g id="node1" class="node"><title>Node1</title>
<polygon fill="#bfbfbf" stroke="black" points="-0.5,-1 -0.5,-69 118.5,-69 118.5,-1 -0.5,-1"/>
<text text-anchor="middle" x="59" y="-57" font-family="Helvetica,sans-Serif" font-size="10.00">BoostingList::Operation</text>
<polyline fill="none" stroke="black" points="-0.5,-50 118.5,-50 "/>
<text text-anchor="middle" x="59" y="-38" font-family="Helvetica,sans-Serif" font-size="10.00"> </text>
<polyline fill="none" stroke="black" points="-0.5,-31 118.5,-31 "/>
<text text-anchor="start" x="7.5" y="-19" font-family="Helvetica,sans-Serif" font-size="10.00">+ Operation()</text>
<text text-anchor="start" x="7.5" y="-8" font-family="Helvetica,sans-Serif" font-size="10.00">+ Operation()</text>
</g>
<!-- Node2 -->
<g id="node2" class="node"><title>Node2</title>
<polygon fill="none" stroke="#bfbfbf" points="0.5,-118.5 0.5,-175.5 51.5,-175.5 51.5,-118.5 0.5,-118.5"/>
<text text-anchor="middle" x="26" y="-163.5" font-family="Helvetica,sans-Serif" font-size="10.00">uint32_t</text>
<polyline fill="none" stroke="#bfbfbf" points="0.5,-156.5 51.5,-156.5 "/>
<text text-anchor="middle" x="26" y="-144.5" font-family="Helvetica,sans-Serif" font-size="10.00"> </text>
<polyline fill="none" stroke="#bfbfbf" points="0.5,-137.5 51.5,-137.5 "/>
<text text-anchor="middle" x="26" y="-125.5" font-family="Helvetica,sans-Serif" font-size="10.00"> </text>
</g>
<!-- Node2&#45;&gt;Node1 -->
<g id="edge1" class="edge"><title>Node2&#45;&gt;Node1</title>
<path fill="none" stroke="#404040" d="M34.3273,-118.242C37.7131,-106.956 41.7133,-93.6225 45.496,-81.0134"/>
<polygon fill="none" stroke="#404040" points="45.5807,-80.7307 43.4735,-73.8343 49.029,-69.2368 51.1361,-76.1332 45.5807,-80.7307"/>
<text text-anchor="middle" x="55.5" y="-91.5" font-family="Helvetica,sans-Serif" font-size="10.00"> +key</text>
</g>
<!-- Node3 -->
<g id="node3" class="node"><title>Node3</title>
<polygon fill="none" stroke="#bfbfbf" points="70,-118.5 70,-175.5 116,-175.5 116,-118.5 70,-118.5"/>
<text text-anchor="middle" x="93" y="-163.5" font-family="Helvetica,sans-Serif" font-size="10.00">uint8_t</text>
<polyline fill="none" stroke="#bfbfbf" points="70,-156.5 116,-156.5 "/>
<text text-anchor="middle" x="93" y="-144.5" font-family="Helvetica,sans-Serif" font-size="10.00"> </text>
<polyline fill="none" stroke="#bfbfbf" points="70,-137.5 116,-137.5 "/>
<text text-anchor="middle" x="93" y="-125.5" font-family="Helvetica,sans-Serif" font-size="10.00"> </text>
</g>
<!-- Node3&#45;&gt;Node1 -->
<g id="edge2" class="edge"><title>Node3&#45;&gt;Node1</title>
<path fill="none" stroke="#404040" d="M84.4204,-118.242C80.9319,-106.956 76.8106,-93.6225 72.9132,-81.0134"/>
<polygon fill="none" stroke="#404040" points="72.8169,-80.7016 67.2234,-76.1504 69.2732,-69.2368 74.8667,-73.788 72.8169,-80.7016"/>
<text text-anchor="middle" x="93" y="-91.5" font-family="Helvetica,sans-Serif" font-size="10.00"> +type</text>
</g>
</g>
</svg>
