<?xml version="1.0" encoding="UTF-8" standalone="no"?>
<!DOCTYPE svg PUBLIC "-//W3C//DTD SVG 1.1//EN"
 "http://www.w3.org/Graphics/SVG/1.1/DTD/svg11.dtd">
<!-- Generated by graphviz version 2.36.0 (20140111.2315)
 -->
<!-- Title: itm2stm::BlockWriter::operator() Pages: 1 -->
<svg width="568pt" height="185pt"
 viewBox="0.00 0.00 568.00 184.60" xmlns="http://www.w3.org/2000/svg" xmlns:xlink="http://www.w3.org/1999/xlink">
<g id="graph0" class="graph" transform="scale(1 1) rotate(0) translate(4 180.603)">
<title>itm2stm::BlockWriter::operator()</title>
<!-- Node1 -->
<g id="node1" class="node"><title>Node1</title>
<polygon fill="#bfbfbf" stroke="black" points="0.5,-82 0.5,-112 109.5,-112 109.5,-82 0.5,-82"/>
<text text-anchor="start" x="8.5" y="-100" font-family="Helvetica,sans-Serif" font-size="10.00">itm2stm::BlockWriter</text>
<text text-anchor="middle" x="55" y="-89" font-family="Helvetica,sans-Serif" font-size="10.00">::operator()</text>
</g>
<!-- Node2 -->
<g id="node2" class="node"><title>Node2</title>
<g id="a_node2"><a xlink:href="namespaceitm2stm.html#a60fadbf1779483f2446ab9e30aa1f713" target="_top" xlink:title="itm2stm::block_write">
<polygon fill="none" stroke="black" points="146.5,-87.5 146.5,-106.5 253.5,-106.5 253.5,-87.5 146.5,-87.5"/>
<text text-anchor="middle" x="200" y="-94.5" font-family="Helvetica,sans-Serif" font-size="10.00">itm2stm::block_write</text>
</a>
</g>
</g>
<!-- Node1&#45;&gt;Node2 -->
<g id="edge1" class="edge"><title>Node1&#45;&gt;Node2</title>
<path fill="none" stroke="midnightblue" d="M109.655,-97C118.313,-97 127.344,-97 136.195,-97"/>
<polygon fill="midnightblue" stroke="midnightblue" points="136.469,-100.5 146.469,-97 136.469,-93.5001 136.469,-100.5"/>
</g>
<!-- Node3 -->
<g id="node3" class="node"><title>Node3</title>
<g id="a_node3"><a xlink:href="namespaceitm2stm.html#aa9908b113027ae21130750939980ee0b" target="_top" xlink:title="itm2stm::offset_of">
<polygon fill="none" stroke="black" points="456,-108.5 456,-127.5 552,-127.5 552,-108.5 456,-108.5"/>
<text text-anchor="middle" x="504" y="-115.5" font-family="Helvetica,sans-Serif" font-size="10.00">itm2stm::offset_of</text>
</a>
</g>
</g>
<!-- Node2&#45;&gt;Node3 -->
<g id="edge2" class="edge"><title>Node2&#45;&gt;Node3</title>
<path fill="none" stroke="midnightblue" d="M209.404,-106.617C223.943,-122.435 255.555,-153.347 290,-165 341.363,-182.376 359.311,-177.803 412,-165 437.308,-158.85 463.445,-144.352 481.178,-133.072"/>
<polygon fill="midnightblue" stroke="midnightblue" points="483.191,-135.937 489.636,-127.528 479.354,-130.083 483.191,-135.937"/>
</g>
<!-- Node4 -->
<g id="node4" class="node"><title>Node4</title>
<g id="a_node4"><a xlink:href="namespaceitm2stm.html#a6c0f462e6a92340d0aaff5050c4a6ed6" target="_top" xlink:title="itm2stm::base_of">
<polygon fill="none" stroke="black" points="305,-136.5 305,-155.5 397,-155.5 397,-136.5 305,-136.5"/>
<text text-anchor="middle" x="351" y="-143.5" font-family="Helvetica,sans-Serif" font-size="10.00">itm2stm::base_of</text>
</a>
</g>
</g>
<!-- Node2&#45;&gt;Node4 -->
<g id="edge3" class="edge"><title>Node2&#45;&gt;Node4</title>
<path fill="none" stroke="midnightblue" d="M230.082,-106.564C253.26,-114.186 285.921,-124.927 311.306,-133.275"/>
<polygon fill="midnightblue" stroke="midnightblue" points="310.398,-136.661 320.991,-136.46 312.585,-130.011 310.398,-136.661"/>
</g>
<!-- Node5 -->
<g id="node5" class="node"><title>Node5</title>
<g id="a_node5"><a xlink:href="namespaceanonymous__namespace_02BlockOperations_8cpp_03.html#a637c079bc9ac3e8e4b5d988b469703ae" target="_top" xlink:title="anonymous_namespace\l\{BlockOperations::cpp\}\l::write_subword">
<polygon fill="none" stroke="black" points="290,-76.5 290,-117.5 412,-117.5 412,-76.5 290,-76.5"/>
<text text-anchor="start" x="298" y="-105.5" font-family="Helvetica,sans-Serif" font-size="10.00">anonymous_namespace</text>
<text text-anchor="start" x="298" y="-94.5" font-family="Helvetica,sans-Serif" font-size="10.00">{BlockOperations::cpp}</text>
<text text-anchor="middle" x="351" y="-83.5" font-family="Helvetica,sans-Serif" font-size="10.00">::write_subword</text>
</a>
</g>
</g>
<!-- Node2&#45;&gt;Node5 -->
<g id="edge4" class="edge"><title>Node2&#45;&gt;Node5</title>
<path fill="none" stroke="midnightblue" d="M253.532,-97C261.963,-97 270.806,-97 279.573,-97"/>
<polygon fill="midnightblue" stroke="midnightblue" points="279.802,-100.5 289.802,-97 279.802,-93.5001 279.802,-100.5"/>
</g>
<!-- Node6 -->
<g id="node6" class="node"><title>Node6</title>
<g id="a_node6"><a xlink:href="namespaceitm2stm.html#a7bfcca557e548ad294de7fe74eb4cdf6" target="_top" xlink:title="itm2stm::make_mask">
<polygon fill="none" stroke="black" points="448.5,-65.5 448.5,-84.5 559.5,-84.5 559.5,-65.5 448.5,-65.5"/>
<text text-anchor="middle" x="504" y="-72.5" font-family="Helvetica,sans-Serif" font-size="10.00">itm2stm::make_mask</text>
</a>
</g>
</g>
<!-- Node2&#45;&gt;Node6 -->
<g id="edge8" class="edge"><title>Node2&#45;&gt;Node6</title>
<path fill="none" stroke="midnightblue" d="M222.8,-87.4251C240.512,-80.1953 266.347,-70.8793 290,-67 339.254,-58.922 395.735,-61.5769 438.154,-65.8973"/>
<polygon fill="midnightblue" stroke="midnightblue" points="438.031,-69.4042 448.348,-66.9949 438.78,-62.4444 438.031,-69.4042"/>
</g>
<!-- Node7 -->
<g id="node7" class="node"><title>Node7</title>
<g id="a_node7"><a xlink:href="namespaceitm2stm.html#a334b9615cac957b9ce7a4743beaaaf53" target="_top" xlink:title="itm2stm::add_bytes">
<polygon fill="none" stroke="black" points="299.5,-0.5 299.5,-19.5 402.5,-19.5 402.5,-0.5 299.5,-0.5"/>
<text text-anchor="middle" x="351" y="-7.5" font-family="Helvetica,sans-Serif" font-size="10.00">itm2stm::add_bytes</text>
</a>
</g>
</g>
<!-- Node2&#45;&gt;Node7 -->
<g id="edge7" class="edge"><title>Node2&#45;&gt;Node7</title>
<path fill="none" stroke="midnightblue" d="M212.787,-87.279C229.288,-73.9995 260.566,-50.0127 290,-34 297.137,-30.1171 305.038,-26.5104 312.699,-23.3344"/>
<polygon fill="midnightblue" stroke="midnightblue" points="314.203,-26.5031 322.2,-19.5534 311.615,-19.9992 314.203,-26.5031"/>
</g>
<!-- Node5&#45;&gt;Node3 -->
<g id="edge5" class="edge"><title>Node5&#45;&gt;Node3</title>
<path fill="none" stroke="midnightblue" d="M412.113,-105.36C423.195,-106.901 434.74,-108.507 445.735,-110.036"/>
<polygon fill="midnightblue" stroke="midnightblue" points="445.263,-113.504 455.65,-111.415 446.227,-106.571 445.263,-113.504"/>
</g>
<!-- Node5&#45;&gt;Node6 -->
<g id="edge6" class="edge"><title>Node5&#45;&gt;Node6</title>
<path fill="none" stroke="midnightblue" d="M412.113,-88.2418C420.744,-86.9844 429.654,-85.6861 438.368,-84.4166"/>
<polygon fill="midnightblue" stroke="midnightblue" points="439.086,-87.849 448.477,-82.9437 438.077,-80.9221 439.086,-87.849"/>
</g>
</g>
</svg>
