<?xml version="1.0" encoding="UTF-8" standalone="no"?>
<!DOCTYPE svg PUBLIC "-//W3C//DTD SVG 1.1//EN"
 "http://www.w3.org/Graphics/SVG/1.1/DTD/svg11.dtd">
<!-- Generated by graphviz version 2.36.0 (20140111.2315)
 -->
<!-- Title: tx_side Pages: 1 -->
<!--zoomable 548 -->
<svg id="main" version="1.1" xmlns="http://www.w3.org/2000/svg" xmlns:xlink="http://www.w3.org/1999/xlink" xml:space="preserve" onload="init(evt)">
<style type="text/css"><![CDATA[
.edge:hover path { stroke: red; }
.edge:hover polygon { stroke: red; fill: red; }
]]></style>
<script type="text/javascript"><![CDATA[
var edges = document.getElementsByTagName('g');
if (edges && edges.length) {
  for (var i=0;i<edges.length;i++) {
    if (edges[i].id.substr(0,4)=='edge') {
      edges[i].setAttribute('class','edge');
    }
  }
}
]]></script>
        <defs>
                <circle id="rim" cx="0" cy="0" r="7"/>
                <circle id="rim2" cx="0" cy="0" r="3.5"/>
                <g id="zoomPlus">
                        <use xlink:href="#rim" fill="#404040">
                                <set attributeName="fill" to="#808080" begin="zoomplus.mouseover" end="zoomplus.mouseout"/>
                        </use>
                        <path d="M-4,0h8M0,-4v8" fill="none" stroke="white" stroke-width="1.5" pointer-events="none"/>
                </g>
                <g id="zoomMin">
                        <use xlink:href="#rim" fill="#404040">
                                <set attributeName="fill" to="#808080" begin="zoomminus.mouseover" end="zoomminus.mouseout"/>
                        </use>
                        <path d="M-4,0h8" fill="none" stroke="white" stroke-width="1.5" pointer-events="none"/>
                </g>
                <g id="dirArrow">
                        <path fill="none" stroke="white" stroke-width="1.5" d="M0,-3.0v7 M-2.5,-0.5L0,-3.0L2.5,-0.5"/>
                </g>
               <g id="resetDef">
                       <use xlink:href="#rim2" fill="#404040">
                               <set attributeName="fill" to="#808080" begin="reset.mouseover" end="reset.mouseout"/>
                       </use>
               </g>
        </defs>

<script type="text/javascript">
var viewWidth = 333;
var viewHeight = 548;
var sectionId = 'dynsection-0';
</script>
<script xlink:href="svgpan.js"/>
<svg id="graph" class="graph">
<g id="viewport">
<title>tx_side</title>
<!-- Node1 -->
<g id="node1" class="node"><title>Node1</title>
<polygon fill="#bfbfbf" stroke="black" points="21.5,-1 21.5,-69 88.5,-69 88.5,-1 21.5,-1"/>
<text text-anchor="middle" x="55" y="-57" font-family="Helvetica,sans-Serif" font-size="10.00">tx_side</text>
<polyline fill="none" stroke="black" points="21.5,-50 88.5,-50 "/>
<text text-anchor="middle" x="55" y="-38" font-family="Helvetica,sans-Serif" font-size="10.00"> </text>
<polyline fill="none" stroke="black" points="21.5,-31 88.5,-31 "/>
<text text-anchor="start" x="29.5" y="-19" font-family="Helvetica,sans-Serif" font-size="10.00">+ initialize()</text>
<text text-anchor="start" x="29.5" y="-8" font-family="Helvetica,sans-Serif" font-size="10.00">+ move()</text>
</g>
<!-- Node2 -->
<g id="node2" class="node"><title>Node2</title>
<polygon fill="none" stroke="#bfbfbf" points="-0.5,-482.5 -0.5,-539.5 28.5,-539.5 28.5,-482.5 -0.5,-482.5"/>
<text text-anchor="middle" x="14" y="-527.5" font-family="Helvetica,sans-Serif" font-size="10.00">int</text>
<polyline fill="none" stroke="#bfbfbf" points="-0.5,-520.5 28.5,-520.5 "/>
<text text-anchor="middle" x="14" y="-508.5" font-family="Helvetica,sans-Serif" font-size="10.00"> </text>
<polyline fill="none" stroke="#bfbfbf" points="-0.5,-501.5 28.5,-501.5 "/>
<text text-anchor="middle" x="14" y="-489.5" font-family="Helvetica,sans-Serif" font-size="10.00"> </text>
</g>
<!-- Node2&#45;&gt;Node1 -->
<g id="edge1" class="edge"><title>Node2&#45;&gt;Node1</title>
<path fill="none" stroke="#404040" d="M16.3816,-482.467C23.1763,-403.913 42.7044,-178.149 51.0936,-81.1615"/>
<polygon fill="none" stroke="#404040" points="51.0964,-81.1286 47.6284,-74.8062 52.1306,-69.1732 55.5986,-75.4957 51.0964,-81.1286"/>
<text text-anchor="middle" x="46" y="-274" font-family="Helvetica,sans-Serif" font-size="10.00"> +dir</text>
<text text-anchor="middle" x="46" y="-263" font-family="Helvetica,sans-Serif" font-size="10.00">+bi</text>
</g>
<!-- Node3 -->
<g id="node3" class="node"><title>Node3</title>
<g id="a_node3"><a xlink:href="classpoint.html" target="_top" xlink:title="{point\n||+ hash()\l+ operator==()\l+ operator!=()\l+ operator\&lt;()\l+ point()\l}">
<polygon fill="none" stroke="black" points="53.5,-300.5 53.5,-401.5 132.5,-401.5 132.5,-300.5 53.5,-300.5"/>
<text text-anchor="middle" x="93" y="-389.5" font-family="Helvetica,sans-Serif" font-size="10.00">point</text>
<polyline fill="none" stroke="black" points="53.5,-382.5 132.5,-382.5 "/>
<text text-anchor="middle" x="93" y="-370.5" font-family="Helvetica,sans-Serif" font-size="10.00"> </text>
<polyline fill="none" stroke="black" points="53.5,-363.5 132.5,-363.5 "/>
<text text-anchor="start" x="61.5" y="-351.5" font-family="Helvetica,sans-Serif" font-size="10.00">+ hash()</text>
<text text-anchor="start" x="61.5" y="-340.5" font-family="Helvetica,sans-Serif" font-size="10.00">+ operator==()</text>
<text text-anchor="start" x="61.5" y="-329.5" font-family="Helvetica,sans-Serif" font-size="10.00">+ operator!=()</text>
<text text-anchor="start" x="61.5" y="-318.5" font-family="Helvetica,sans-Serif" font-size="10.00">+ operator&lt;()</text>
<text text-anchor="start" x="61.5" y="-307.5" font-family="Helvetica,sans-Serif" font-size="10.00">+ point()</text>
</a>
</g>
</g>
<!-- Node2&#45;&gt;Node3 -->
<g id="edge4" class="edge"><title>Node2&#45;&gt;Node3</title>
<path fill="none" stroke="#404040" d="M27.3333,-482.355C35.983,-464.513 47.5485,-440.831 58,-420 59.2095,-417.589 60.4474,-415.133 61.7015,-412.654"/>
<polygon fill="none" stroke="#404040" points="61.8296,-412.402 60.9826,-405.241 67.2672,-401.705 68.1142,-408.866 61.8296,-412.402"/>
<text text-anchor="middle" x="75" y="-439.5" font-family="Helvetica,sans-Serif" font-size="10.00"> +coord</text>
</g>
<!-- Node3&#45;&gt;Node1 -->
<g id="edge2" class="edge"><title>Node3&#45;&gt;Node1</title>
<path fill="none" stroke="#404040" d="M82.9819,-300.32C81.8943,-294.164 80.8689,-287.947 80,-282 69.8085,-212.25 62.4054,-130.767 58.4068,-81.3003"/>
<polygon fill="none" stroke="#404040" points="58.391,-81.1012 53.9283,-75.437 57.4403,-69.1389 61.9031,-74.8032 58.391,-81.1012"/>
<text text-anchor="middle" x="83.5" y="-183" font-family="Helvetica,sans-Serif" font-size="10.00"> +p</text>
<text text-anchor="middle" x="83.5" y="-172" font-family="Helvetica,sans-Serif" font-size="10.00">+bp</text>
</g>
<!-- Node6 -->
<g id="node6" class="node"><title>Node6</title>
<g id="a_node6"><a xlink:href="classedge.html" target="_top" xlink:title="{edge\n||+ print()\l+ index_of()\l+ reconsider()\l+ edge()\l+ destroy()\l+ ~edge()\l&#45; initialize_end()\l}">
<polygon fill="none" stroke="black" points="120.5,-118.5 120.5,-241.5 205.5,-241.5 205.5,-118.5 120.5,-118.5"/>
<text text-anchor="middle" x="163" y="-229.5" font-family="Helvetica,sans-Serif" font-size="10.00">edge</text>
<polyline fill="none" stroke="black" points="120.5,-222.5 205.5,-222.5 "/>
<text text-anchor="middle" x="163" y="-210.5" font-family="Helvetica,sans-Serif" font-size="10.00"> </text>
<polyline fill="none" stroke="black" points="120.5,-203.5 205.5,-203.5 "/>
<text text-anchor="start" x="128.5" y="-191.5" font-family="Helvetica,sans-Serif" font-size="10.00">+ print()</text>
<text text-anchor="start" x="128.5" y="-180.5" font-family="Helvetica,sans-Serif" font-size="10.00">+ index_of()</text>
<text text-anchor="start" x="128.5" y="-169.5" font-family="Helvetica,sans-Serif" font-size="10.00">+ reconsider()</text>
<text text-anchor="start" x="128.5" y="-158.5" font-family="Helvetica,sans-Serif" font-size="10.00">+ edge()</text>
<text text-anchor="start" x="128.5" y="-147.5" font-family="Helvetica,sans-Serif" font-size="10.00">+ destroy()</text>
<text text-anchor="start" x="128.5" y="-136.5" font-family="Helvetica,sans-Serif" font-size="10.00">+ ~edge()</text>
<text text-anchor="start" x="128.5" y="-125.5" font-family="Helvetica,sans-Serif" font-size="10.00">&#45; initialize_end()</text>
</a>
</g>
</g>
<!-- Node3&#45;&gt;Node6 -->
<g id="edge8" class="edge"><title>Node3&#45;&gt;Node6</title>
<path fill="none" stroke="#404040" d="M131.27,-300.465C134.915,-294.442 138.264,-288.216 141,-282 144.957,-273.008 148.228,-263.244 150.925,-253.448"/>
<polygon fill="none" stroke="#404040" points="150.995,-253.168 148.588,-246.37 153.937,-241.534 156.344,-248.331 150.995,-253.168"/>
<text text-anchor="middle" x="167" y="-268.5" font-family="Helvetica,sans-Serif" font-size="10.00"> +points</text>
</g>
<!-- Node4 -->
<g id="node4" class="node"><title>Node4</title>
<polygon fill="none" stroke="#bfbfbf" points="53,-482.5 53,-539.5 145,-539.5 145,-482.5 53,-482.5"/>
<text text-anchor="middle" x="99" y="-527.5" font-family="Helvetica,sans-Serif" font-size="10.00">enum momentum</text>
<polyline fill="none" stroke="#bfbfbf" points="53,-520.5 145,-520.5 "/>
<text text-anchor="middle" x="99" y="-508.5" font-family="Helvetica,sans-Serif" font-size="10.00"> </text>
<polyline fill="none" stroke="#bfbfbf" points="53,-501.5 145,-501.5 "/>
<text text-anchor="middle" x="99" y="-489.5" font-family="Helvetica,sans-Serif" font-size="10.00"> </text>
</g>
<!-- Node4&#45;&gt;Node3 -->
<g id="edge3" class="edge"><title>Node4&#45;&gt;Node3</title>
<path fill="none" stroke="#404040" d="M97.9549,-482.479C97.2344,-463.505 96.2474,-437.516 95.3439,-413.724"/>
<polygon fill="none" stroke="#404040" points="95.3364,-413.523 91.1116,-407.679 94.8809,-401.532 99.1058,-407.375 95.3364,-413.523"/>
<text text-anchor="middle" x="127" y="-439.5" font-family="Helvetica,sans-Serif" font-size="10.00"> +momentum</text>
</g>
<!-- Node5 -->
<g id="node5" class="node"><title>Node5</title>
<polygon fill="none" stroke="#bfbfbf" points="211.5,-482.5 211.5,-539.5 246.5,-539.5 246.5,-482.5 211.5,-482.5"/>
<text text-anchor="middle" x="229" y="-527.5" font-family="Helvetica,sans-Serif" font-size="10.00">long</text>
<polyline fill="none" stroke="#bfbfbf" points="211.5,-520.5 246.5,-520.5 "/>
<text text-anchor="middle" x="229" y="-508.5" font-family="Helvetica,sans-Serif" font-size="10.00"> </text>
<polyline fill="none" stroke="#bfbfbf" points="211.5,-501.5 246.5,-501.5 "/>
<text text-anchor="middle" x="229" y="-489.5" font-family="Helvetica,sans-Serif" font-size="10.00"> </text>
</g>
<!-- Node5&#45;&gt;Node3 -->
<g id="edge5" class="edge"><title>Node5&#45;&gt;Node3</title>
<path fill="none" stroke="#404040" d="M211.339,-485.289C197.845,-466.834 178.481,-441.24 160,-420 154.166,-413.295 147.837,-406.416 141.475,-399.729"/>
<polygon fill="none" stroke="#404040" points="141.157,-399.399 134.112,-397.859 132.824,-390.764 139.868,-392.304 141.157,-399.399"/>
<text text-anchor="middle" x="212.5" y="-456" font-family="Helvetica,sans-Serif" font-size="10.00"> +value</text>
<text text-anchor="middle" x="212.5" y="-445" font-family="Helvetica,sans-Serif" font-size="10.00">+x</text>
<text text-anchor="middle" x="212.5" y="-434" font-family="Helvetica,sans-Serif" font-size="10.00">+y</text>
<text text-anchor="middle" x="212.5" y="-423" font-family="Helvetica,sans-Serif" font-size="10.00">+z</text>
</g>
<!-- Node5&#45;&gt;Node6 -->
<g id="edge9" class="edge"><title>Node5&#45;&gt;Node6</title>
<path fill="none" stroke="#404040" d="M240.117,-482.273C257.443,-434.532 285.594,-334.739 252,-260 244.079,-242.378 230.069,-227.088 215.475,-214.779"/>
<polygon fill="none" stroke="#404040" points="215.248,-214.598 208.063,-213.992 205.859,-207.125 213.044,-207.732 215.248,-214.598"/>
<text text-anchor="middle" x="296" y="-359.5" font-family="Helvetica,sans-Serif" font-size="10.00"> +startVertex</text>
<text text-anchor="middle" x="296" y="-348.5" font-family="Helvetica,sans-Serif" font-size="10.00">+endVertex</text>
<text text-anchor="middle" x="296" y="-337.5" font-family="Helvetica,sans-Serif" font-size="10.00">+edgeNum</text>
</g>
<!-- Node6&#45;&gt;Node1 -->
<g id="edge11" class="edge"><title>Node6&#45;&gt;Node1</title>
<path fill="none" stroke="#404040" d="M120.316,-122.483C109.308,-107.908 97.6444,-92.4643 87.266,-78.7225"/>
<polygon fill="none" stroke="#404040" points="87.196,-78.6299 80.388,-76.2527 79.9639,-69.0541 86.7719,-71.4313 87.196,-78.6299"/>
<text text-anchor="middle" x="110.5" y="-91.5" font-family="Helvetica,sans-Serif" font-size="10.00"> +b</text>
</g>
<!-- Node6&#45;&gt;Node3 -->
<g id="edge6" class="edge"><title>Node6&#45;&gt;Node3</title>
<path fill="none" stroke="#404040" d="M120.185,-215.342C107.695,-227.918 95.6308,-243.222 89,-260 85.5239,-268.796 83.9132,-278.457 83.4805,-288.086"/>
<polygon fill="none" stroke="#404040" points="83.4807,-288.195 87.4957,-294.185 83.5107,-300.195 79.4957,-294.205 83.4807,-288.195"/>
<text text-anchor="middle" x="115" y="-268.5" font-family="Helvetica,sans-Serif" font-size="10.00"> +first_edge</text>
</g>
<!-- Node6&#45;&gt;Node6 -->
<g id="edge10" class="edge"><title>Node6&#45;&gt;Node6</title>
<path fill="none" stroke="#404040" d="M205.604,-195.806C215.615,-194.507 223,-189.238 223,-180 223,-174.948 220.791,-171.083 217.152,-168.405"/>
<polygon fill="none" stroke="#404040" points="216.878,-168.305 209.871,-170.007 205.604,-164.194 212.612,-162.492 216.878,-168.305"/>
<text text-anchor="middle" x="249" y="-177.5" font-family="Helvetica,sans-Serif" font-size="10.00"> +neighbors</text>
</g>
<!-- Node7 -->
<g id="node7" class="node"><title>Node7</title>
<polygon fill="none" stroke="#bfbfbf" points="204.5,-322.5 204.5,-379.5 239.5,-379.5 239.5,-322.5 204.5,-322.5"/>
<text text-anchor="middle" x="222" y="-367.5" font-family="Helvetica,sans-Serif" font-size="10.00">bool</text>
<polyline fill="none" stroke="#bfbfbf" points="204.5,-360.5 239.5,-360.5 "/>
<text text-anchor="middle" x="222" y="-348.5" font-family="Helvetica,sans-Serif" font-size="10.00"> </text>
<polyline fill="none" stroke="#bfbfbf" points="204.5,-341.5 239.5,-341.5 "/>
<text text-anchor="middle" x="222" y="-329.5" font-family="Helvetica,sans-Serif" font-size="10.00"> </text>
</g>
<!-- Node7&#45;&gt;Node6 -->
<g id="edge7" class="edge"><title>Node7&#45;&gt;Node6</title>
<path fill="none" stroke="#404040" d="M216.739,-322.414C212.942,-304.388 207.219,-280.48 200,-260 199.174,-257.657 198.302,-255.289 197.393,-252.91"/>
<polygon fill="none" stroke="#404040" points="197.38,-252.877 191.431,-248.801 192.906,-241.742 198.855,-245.818 197.38,-252.877"/>
<text text-anchor="middle" x="227.5" y="-268.5" font-family="Helvetica,sans-Serif" font-size="10.00"> +deleted</text>
</g>
</g>
</svg>
        <g id="navigator" transform="translate(0 0)" fill="#404254">
                <rect fill="#f2f5e9" fill-opacity="0.5" stroke="#606060" stroke-width=".5" x="0" y="0" width="60" height="60"/>
                <use id="zoomplus" xlink:href="#zoomPlus" x="17" y="9" onmousedown="handleZoom(evt,'in')"/>
                <use id="zoomminus" xlink:href="#zoomMin" x="42" y="9" onmousedown="handleZoom(evt,'out')"/>
                <use id="reset" xlink:href="#resetDef" x="30" y="36" onmousedown="handleReset()"/>
                <g id="arrowUp" xlink:href="#dirArrow" transform="translate(30 24)" onmousedown="handlePan(0,-1)">
                  <use xlink:href="#rim" fill="#404040">
                        <set attributeName="fill" to="#808080" begin="arrowUp.mouseover" end="arrowUp.mouseout"/>
                  </use>
                  <path fill="none" stroke="white" stroke-width="1.5" d="M0,-3.0v7 M-2.5,-0.5L0,-3.0L2.5,-0.5"/>
                </g>
                <g id="arrowRight" xlink:href="#dirArrow" transform="rotate(90) translate(36 -43)" onmousedown="handlePan(1,0)">
                  <use xlink:href="#rim" fill="#404040">
                        <set attributeName="fill" to="#808080" begin="arrowRight.mouseover" end="arrowRight.mouseout"/>
                  </use>
                  <path fill="none" stroke="white" stroke-width="1.5" d="M0,-3.0v7 M-2.5,-0.5L0,-3.0L2.5,-0.5"/>
                </g>
                <g id="arrowDown" xlink:href="#dirArrow" transform="rotate(180) translate(-30 -48)" onmousedown="handlePan(0,1)">
                  <use xlink:href="#rim" fill="#404040">
                        <set attributeName="fill" to="#808080" begin="arrowDown.mouseover" end="arrowDown.mouseout"/>
                  </use>
                  <path fill="none" stroke="white" stroke-width="1.5" d="M0,-3.0v7 M-2.5,-0.5L0,-3.0L2.5,-0.5"/>
                </g>
                <g id="arrowLeft" xlink:href="#dirArrow" transform="rotate(270) translate(-36 17)" onmousedown="handlePan(-1,0)">
                  <use xlink:href="#rim" fill="#404040">
                        <set attributeName="fill" to="#808080" begin="arrowLeft.mouseover" end="arrowLeft.mouseout"/>
                  </use>
                  <path fill="none" stroke="white" stroke-width="1.5" d="M0,-3.0v7 M-2.5,-0.5L0,-3.0L2.5,-0.5"/>
                </g>
        </g>
        <svg viewBox="0 0 15 15" width="100%" height="30px" preserveAspectRatio="xMaxYMin meet">
         <g id="arrow_out" transform="scale(0.3 0.3)">
          <a xlink:href="structtx__side__coll__graph_org.svg" target="_base">
           <rect id="button" ry="5" rx="5" y="6" x="6" height="38" width="38"
                fill="#f2f5e9" fill-opacity="0.5" stroke="#606060" stroke-width="1.0"/>
           <path id="arrow"
             d="M 11.500037,31.436501 C 11.940474,20.09759 22.043105,11.32322 32.158766,21.979434 L 37.068811,17.246167 C 37.068811,17.246167 37.088388,32 37.088388,32 L 22.160133,31.978069 C 22.160133,31.978069 26.997745,27.140456 26.997745,27.140456 C 18.528582,18.264221 13.291696,25.230495 11.500037,31.436501 z"
             style="fill:#404040;"/>
          </a>
         </g>
        </svg>
</svg>
