<?xml version="1.0" encoding="UTF-8" standalone="no"?>
<!DOCTYPE svg PUBLIC "-//W3C//DTD SVG 1.1//EN"
 "http://www.w3.org/Graphics/SVG/1.1/DTD/svg11.dtd">
<!-- Generated by graphviz version 2.36.0 (20140111.2315)
 -->
<!-- Title: itm2stm::BlockReader::operator() Pages: 1 -->
<svg width="570pt" height="251pt"
 viewBox="0.00 0.00 570.00 251.00" xmlns="http://www.w3.org/2000/svg" xmlns:xlink="http://www.w3.org/1999/xlink">
<g id="graph0" class="graph" transform="scale(1 1) rotate(0) translate(4 247)">
<title>itm2stm::BlockReader::operator()</title>
<!-- Node1 -->
<g id="node1" class="node"><title>Node1</title>
<polygon fill="#bfbfbf" stroke="black" points="0,-106 0,-136 114,-136 114,-106 0,-106"/>
<text text-anchor="start" x="8" y="-124" font-family="Helvetica,sans-Serif" font-size="10.00">itm2stm::BlockReader</text>
<text text-anchor="middle" x="57" y="-113" font-family="Helvetica,sans-Serif" font-size="10.00">::operator()</text>
</g>
<!-- Node2 -->
<g id="node2" class="node"><title>Node2</title>
<g id="a_node2"><a xlink:href="namespaceitm2stm.html#ab76a65e75d1318bd4c1e4dab11096446" target="_top" xlink:title="itm2stm::block_read">
<polygon fill="none" stroke="black" points="150.5,-111.5 150.5,-130.5 255.5,-130.5 255.5,-111.5 150.5,-111.5"/>
<text text-anchor="middle" x="203" y="-118.5" font-family="Helvetica,sans-Serif" font-size="10.00">itm2stm::block_read</text>
</a>
</g>
</g>
<!-- Node1&#45;&gt;Node2 -->
<g id="edge1" class="edge"><title>Node1&#45;&gt;Node2</title>
<path fill="none" stroke="midnightblue" d="M114.086,-121C122.6,-121 131.427,-121 140.057,-121"/>
<polygon fill="midnightblue" stroke="midnightblue" points="140.067,-124.5 150.067,-121 140.067,-117.5 140.067,-124.5"/>
</g>
<!-- Node3 -->
<g id="node3" class="node"><title>Node3</title>
<g id="a_node3"><a xlink:href="namespaceanonymous__namespace_02oreceager_8cpp_03.html#a7a88c7a7453bbfaca53eeac03b80a5d6" target="_top" xlink:title="anonymous_namespace\l\{oreceager::cpp\}::read">
<polygon fill="none" stroke="black" points="292,-213 292,-243 414,-243 414,-213 292,-213"/>
<text text-anchor="start" x="300" y="-231" font-family="Helvetica,sans-Serif" font-size="10.00">anonymous_namespace</text>
<text text-anchor="middle" x="353" y="-220" font-family="Helvetica,sans-Serif" font-size="10.00">{oreceager::cpp}::read</text>
</a>
</g>
</g>
<!-- Node2&#45;&gt;Node3 -->
<g id="edge2" class="edge"><title>Node2&#45;&gt;Node3</title>
<path fill="none" stroke="midnightblue" d="M213.608,-130.906C229.095,-146.51 260.988,-177.18 292,-198 297.33,-201.578 303.147,-205.007 308.994,-208.184"/>
<polygon fill="midnightblue" stroke="midnightblue" points="307.655,-211.433 318.14,-212.955 310.892,-205.227 307.655,-211.433"/>
</g>
<!-- Node4 -->
<g id="node4" class="node"><title>Node4</title>
<g id="a_node4"><a xlink:href="namespaceitm2stm.html#aa9908b113027ae21130750939980ee0b" target="_top" xlink:title="itm2stm::offset_of">
<polygon fill="none" stroke="black" points="458,-108.5 458,-127.5 554,-127.5 554,-108.5 458,-108.5"/>
<text text-anchor="middle" x="506" y="-115.5" font-family="Helvetica,sans-Serif" font-size="10.00">itm2stm::offset_of</text>
</a>
</g>
</g>
<!-- Node2&#45;&gt;Node4 -->
<g id="edge3" class="edge"><title>Node2&#45;&gt;Node4</title>
<path fill="none" stroke="midnightblue" d="M218.146,-130.686C234.901,-141.518 264.071,-158.407 292,-165 344.772,-177.458 361.311,-177.803 414,-165 439.308,-158.85 465.445,-144.352 483.178,-133.072"/>
<polygon fill="midnightblue" stroke="midnightblue" points="485.191,-135.937 491.636,-127.528 481.354,-130.083 485.191,-135.937"/>
</g>
<!-- Node5 -->
<g id="node5" class="node"><title>Node5</title>
<g id="a_node5"><a xlink:href="namespaceitm2stm.html#a6c0f462e6a92340d0aaff5050c4a6ed6" target="_top" xlink:title="itm2stm::base_of">
<polygon fill="none" stroke="black" points="307,-136.5 307,-155.5 399,-155.5 399,-136.5 307,-136.5"/>
<text text-anchor="middle" x="353" y="-143.5" font-family="Helvetica,sans-Serif" font-size="10.00">itm2stm::base_of</text>
</a>
</g>
</g>
<!-- Node2&#45;&gt;Node5 -->
<g id="edge4" class="edge"><title>Node2&#45;&gt;Node5</title>
<path fill="none" stroke="midnightblue" d="M255.763,-129.744C269.048,-131.988 283.387,-134.41 296.837,-136.682"/>
<polygon fill="midnightblue" stroke="midnightblue" points="296.474,-140.17 306.917,-138.385 297.639,-133.268 296.474,-140.17"/>
</g>
<!-- Node6 -->
<g id="node6" class="node"><title>Node6</title>
<g id="a_node6"><a xlink:href="namespaceanonymous__namespace_02BlockOperations_8cpp_03.html#a5eb4b8a9624b717c32fe7722f6811dc3" target="_top" xlink:title="anonymous_namespace\l\{BlockOperations::cpp\}\l::read_subword">
<polygon fill="none" stroke="black" points="292,-76.5 292,-117.5 414,-117.5 414,-76.5 292,-76.5"/>
<text text-anchor="start" x="300" y="-105.5" font-family="Helvetica,sans-Serif" font-size="10.00">anonymous_namespace</text>
<text text-anchor="start" x="300" y="-94.5" font-family="Helvetica,sans-Serif" font-size="10.00">{BlockOperations::cpp}</text>
<text text-anchor="middle" x="353" y="-83.5" font-family="Helvetica,sans-Serif" font-size="10.00">::read_subword</text>
</a>
</g>
</g>
<!-- Node2&#45;&gt;Node6 -->
<g id="edge5" class="edge"><title>Node2&#45;&gt;Node6</title>
<path fill="none" stroke="midnightblue" d="M255.763,-112.606C264.242,-111.231 273.151,-109.786 281.983,-108.354"/>
<polygon fill="midnightblue" stroke="midnightblue" points="282.585,-111.802 291.896,-106.747 281.465,-104.893 282.585,-111.802"/>
</g>
<!-- Node7 -->
<g id="node7" class="node"><title>Node7</title>
<g id="a_node7"><a xlink:href="namespaceitm2stm.html#a7bfcca557e548ad294de7fe74eb4cdf6" target="_top" xlink:title="itm2stm::make_mask">
<polygon fill="none" stroke="black" points="450.5,-65.5 450.5,-84.5 561.5,-84.5 561.5,-65.5 450.5,-65.5"/>
<text text-anchor="middle" x="506" y="-72.5" font-family="Helvetica,sans-Serif" font-size="10.00">itm2stm::make_mask</text>
</a>
</g>
</g>
<!-- Node2&#45;&gt;Node7 -->
<g id="edge9" class="edge"><title>Node2&#45;&gt;Node7</title>
<path fill="none" stroke="midnightblue" d="M214.978,-111.43C230.744,-98.3901 261.294,-75.67 292,-67 344.257,-52.2449 406.588,-57.0331 450.275,-63.8083"/>
<polygon fill="midnightblue" stroke="midnightblue" points="449.974,-67.3055 460.408,-65.467 451.105,-60.3974 449.974,-67.3055"/>
</g>
<!-- Node8 -->
<g id="node8" class="node"><title>Node8</title>
<g id="a_node8"><a xlink:href="namespaceitm2stm.html#a334b9615cac957b9ce7a4743beaaaf53" target="_top" xlink:title="itm2stm::add_bytes">
<polygon fill="none" stroke="black" points="301.5,-0.5 301.5,-19.5 404.5,-19.5 404.5,-0.5 301.5,-0.5"/>
<text text-anchor="middle" x="353" y="-7.5" font-family="Helvetica,sans-Serif" font-size="10.00">itm2stm::add_bytes</text>
</a>
</g>
</g>
<!-- Node2&#45;&gt;Node8 -->
<g id="edge8" class="edge"><title>Node2&#45;&gt;Node8</title>
<path fill="none" stroke="midnightblue" d="M211.501,-111.372C225.586,-93.8501 257.679,-56.4907 292,-34 298.129,-29.9838 305.036,-26.4547 311.925,-23.4256"/>
<polygon fill="midnightblue" stroke="midnightblue" points="313.31,-26.6403 321.233,-19.6062 310.653,-20.1643 313.31,-26.6403"/>
</g>
<!-- Node6&#45;&gt;Node4 -->
<g id="edge6" class="edge"><title>Node6&#45;&gt;Node4</title>
<path fill="none" stroke="midnightblue" d="M414.113,-105.36C425.195,-106.901 436.74,-108.507 447.735,-110.036"/>
<polygon fill="midnightblue" stroke="midnightblue" points="447.263,-113.504 457.65,-111.415 448.227,-106.571 447.263,-113.504"/>
</g>
<!-- Node6&#45;&gt;Node7 -->
<g id="edge7" class="edge"><title>Node6&#45;&gt;Node7</title>
<path fill="none" stroke="midnightblue" d="M414.113,-88.2418C422.744,-86.9844 431.654,-85.6861 440.368,-84.4166"/>
<polygon fill="midnightblue" stroke="midnightblue" points="441.086,-87.849 450.477,-82.9437 440.077,-80.9221 441.086,-87.849"/>
</g>
</g>
</svg>
