<?xml version="1.0" encoding="UTF-8" standalone="no"?>
<!DOCTYPE svg PUBLIC "-//W3C//DTD SVG 1.1//EN"
 "http://www.w3.org/Graphics/SVG/1.1/DTD/svg11.dtd">
<!-- Generated by graphviz version 2.36.0 (20140111.2315)
 -->
<!-- Title: stm_tx_st Pages: 1 -->
<svg width="282pt" height="416pt"
 viewBox="0.00 0.00 282.00 416.00" xmlns="http://www.w3.org/2000/svg" xmlns:xlink="http://www.w3.org/1999/xlink">
<g id="graph0" class="graph" transform="scale(1 1) rotate(0) translate(4 412)">
<title>stm_tx_st</title>
<!-- Node1 -->
<g id="node1" class="node"><title>Node1</title>
<polygon fill="#bfbfbf" stroke="black" points="102,-0.5 102,-57.5 162,-57.5 162,-0.5 102,-0.5"/>
<text text-anchor="middle" x="132" y="-45.5" font-family="Helvetica,sans-Serif" font-size="10.00">stm_tx_st</text>
<polyline fill="none" stroke="black" points="102,-38.5 162,-38.5 "/>
<text text-anchor="middle" x="132" y="-26.5" font-family="Helvetica,sans-Serif" font-size="10.00"> </text>
<polyline fill="none" stroke="black" points="102,-19.5 162,-19.5 "/>
<text text-anchor="middle" x="132" y="-7.5" font-family="Helvetica,sans-Serif" font-size="10.00"> </text>
</g>
<!-- Node1&#45;&gt;Node1 -->
<g id="edge8" class="edge"><title>Node1&#45;&gt;Node1</title>
<path fill="none" stroke="#404040" d="M162.287,-41.7375C171.649,-41.4802 179,-37.2344 179,-29 179,-24.7542 177.045,-21.5687 173.869,-19.4437"/>
<polygon fill="none" stroke="#404040" points="173.858,-19.441 167.013,-21.7089 162.287,-16.2625 169.132,-13.9946 173.858,-19.441"/>
<text text-anchor="middle" x="204" y="-26.5" font-family="Helvetica,sans-Serif" font-size="10.00"> +next_free</text>
</g>
<!-- Node2 -->
<g id="node2" class="node"><title>Node2</title>
<polygon fill="none" stroke="#bfbfbf" points="-0.5,-138.5 -0.5,-195.5 70.5,-195.5 70.5,-138.5 -0.5,-138.5"/>
<text text-anchor="middle" x="35" y="-183.5" font-family="Helvetica,sans-Serif" font-size="10.00">sigjmp_buf *</text>
<polyline fill="none" stroke="#bfbfbf" points="-0.5,-176.5 70.5,-176.5 "/>
<text text-anchor="middle" x="35" y="-164.5" font-family="Helvetica,sans-Serif" font-size="10.00"> </text>
<polyline fill="none" stroke="#bfbfbf" points="-0.5,-157.5 70.5,-157.5 "/>
<text text-anchor="middle" x="35" y="-145.5" font-family="Helvetica,sans-Serif" font-size="10.00"> </text>
</g>
<!-- Node2&#45;&gt;Node1 -->
<g id="edge1" class="edge"><title>Node2&#45;&gt;Node1</title>
<path fill="none" stroke="#404040" d="M53.6608,-138.191C65.7983,-120.285 82.0864,-96.5914 97,-76 99.0418,-73.1809 101.173,-70.2811 103.332,-67.3745"/>
<polygon fill="none" stroke="#404040" points="103.485,-67.17 103.887,-59.9701 110.688,-57.572 110.286,-64.7719 103.485,-67.17"/>
<text text-anchor="middle" x="112.5" y="-95.5" font-family="Helvetica,sans-Serif" font-size="10.00"> +penv</text>
</g>
<!-- Node3 -->
<g id="node3" class="node"><title>Node3</title>
<g id="a_node3"><a xlink:href="structstm__tx__entry__st.html" target="_top" xlink:title="{stm_tx_entry_st\n||}">
<polygon fill="none" stroke="black" points="88.5,-138.5 88.5,-195.5 175.5,-195.5 175.5,-138.5 88.5,-138.5"/>
<text text-anchor="middle" x="132" y="-183.5" font-family="Helvetica,sans-Serif" font-size="10.00">stm_tx_entry_st</text>
<polyline fill="none" stroke="black" points="88.5,-176.5 175.5,-176.5 "/>
<text text-anchor="middle" x="132" y="-164.5" font-family="Helvetica,sans-Serif" font-size="10.00"> </text>
<polyline fill="none" stroke="black" points="88.5,-157.5 175.5,-157.5 "/>
<text text-anchor="middle" x="132" y="-145.5" font-family="Helvetica,sans-Serif" font-size="10.00"> </text>
</a>
</g>
</g>
<!-- Node3&#45;&gt;Node1 -->
<g id="edge2" class="edge"><title>Node3&#45;&gt;Node1</title>
<path fill="none" stroke="#404040" d="M132,-138.478C132,-118.792 132,-91.9899 132,-69.9526"/>
<polygon fill="none" stroke="#404040" points="132,-69.9475 128,-63.9475 132,-57.9475 136,-63.9475 132,-69.9475"/>
<text text-anchor="middle" x="153.5" y="-112" font-family="Helvetica,sans-Serif" font-size="10.00"> +check</text>
<text text-anchor="middle" x="153.5" y="-101" font-family="Helvetica,sans-Serif" font-size="10.00">+alloc_ptr</text>
<text text-anchor="middle" x="153.5" y="-90" font-family="Helvetica,sans-Serif" font-size="10.00">+writes</text>
<text text-anchor="middle" x="153.5" y="-79" font-family="Helvetica,sans-Serif" font-size="10.00">+reads</text>
</g>
<!-- Node3&#45;&gt;Node3 -->
<g id="edge3" class="edge"><title>Node3&#45;&gt;Node3</title>
<path fill="none" stroke="#404040" d="M175.591,-176.535C185.628,-175.714 193,-172.535 193,-167 193,-164.059 190.919,-161.784 187.464,-160.174"/>
<polygon fill="none" stroke="#404040" points="187.291,-160.134 180.551,-162.699 175.591,-157.465 182.331,-154.9 187.291,-160.134"/>
<text text-anchor="middle" x="207" y="-164.5" font-family="Helvetica,sans-Serif" font-size="10.00"> +next</text>
</g>
<!-- Node4 -->
<g id="node4" class="node"><title>Node4</title>
<polygon fill="none" stroke="#bfbfbf" points="123.5,-350.5 123.5,-407.5 164.5,-407.5 164.5,-350.5 123.5,-350.5"/>
<text text-anchor="middle" x="144" y="-395.5" font-family="Helvetica,sans-Serif" font-size="10.00">void *</text>
<polyline fill="none" stroke="#bfbfbf" points="123.5,-388.5 164.5,-388.5 "/>
<text text-anchor="middle" x="144" y="-376.5" font-family="Helvetica,sans-Serif" font-size="10.00"> </text>
<polyline fill="none" stroke="#bfbfbf" points="123.5,-369.5 164.5,-369.5 "/>
<text text-anchor="middle" x="144" y="-357.5" font-family="Helvetica,sans-Serif" font-size="10.00"> </text>
</g>
<!-- Node4&#45;&gt;Node3 -->
<g id="edge4" class="edge"><title>Node4&#45;&gt;Node3</title>
<path fill="none" stroke="#404040" d="M135.299,-350.157C131.294,-335.91 126.994,-318.198 125,-302 121.105,-270.363 123.374,-234.264 126.33,-207.511"/>
<polygon fill="none" stroke="#404040" points="126.334,-207.473 123.078,-201.039 127.764,-195.559 131.021,-201.993 126.334,-207.473"/>
<text text-anchor="middle" x="139" y="-276" font-family="Helvetica,sans-Serif" font-size="10.00"> +new</text>
<text text-anchor="middle" x="139" y="-265" font-family="Helvetica,sans-Serif" font-size="10.00">+old</text>
</g>
<!-- Node5 -->
<g id="node5" class="node"><title>Node5</title>
<g id="a_node5"><a xlink:href="structstm__blk__st.html" target="_top" xlink:title="{stm_blk_st\n||}">
<polygon fill="none" stroke="black" points="162.5,-244.5 162.5,-301.5 227.5,-301.5 227.5,-244.5 162.5,-244.5"/>
<text text-anchor="middle" x="195" y="-289.5" font-family="Helvetica,sans-Serif" font-size="10.00">stm_blk_st</text>
<polyline fill="none" stroke="black" points="162.5,-282.5 227.5,-282.5 "/>
<text text-anchor="middle" x="195" y="-270.5" font-family="Helvetica,sans-Serif" font-size="10.00"> </text>
<polyline fill="none" stroke="black" points="162.5,-263.5 227.5,-263.5 "/>
<text text-anchor="middle" x="195" y="-251.5" font-family="Helvetica,sans-Serif" font-size="10.00"> </text>
</a>
</g>
</g>
<!-- Node4&#45;&gt;Node5 -->
<g id="edge6" class="edge"><title>Node4&#45;&gt;Node5</title>
<path fill="none" stroke="#404040" d="M157.533,-350.403C163.182,-338.885 169.843,-325.301 175.971,-312.805"/>
<polygon fill="none" stroke="#404040" points="176.12,-312.5 175.17,-305.352 181.404,-301.726 182.353,-308.874 176.12,-312.5"/>
<text text-anchor="middle" x="186" y="-323.5" font-family="Helvetica,sans-Serif" font-size="10.00"> +data</text>
</g>
<!-- Node5&#45;&gt;Node3 -->
<g id="edge5" class="edge"><title>Node5&#45;&gt;Node3</title>
<path fill="none" stroke="#404040" d="M178.283,-244.403C171.163,-232.65 162.74,-218.745 155.044,-206.041"/>
<polygon fill="none" stroke="#404040" points="155.013,-205.99 148.483,-202.93 148.796,-195.726 155.326,-198.785 155.013,-205.99"/>
<text text-anchor="middle" x="173.5" y="-217.5" font-family="Helvetica,sans-Serif" font-size="10.00"> +b</text>
</g>
<!-- Node6 -->
<g id="node6" class="node"><title>Node6</title>
<polygon fill="none" stroke="#bfbfbf" points="239.5,-138.5 239.5,-195.5 268.5,-195.5 268.5,-138.5 239.5,-138.5"/>
<text text-anchor="middle" x="254" y="-183.5" font-family="Helvetica,sans-Serif" font-size="10.00">int</text>
<polyline fill="none" stroke="#bfbfbf" points="239.5,-176.5 268.5,-176.5 "/>
<text text-anchor="middle" x="254" y="-164.5" font-family="Helvetica,sans-Serif" font-size="10.00"> </text>
<polyline fill="none" stroke="#bfbfbf" points="239.5,-157.5 268.5,-157.5 "/>
<text text-anchor="middle" x="254" y="-145.5" font-family="Helvetica,sans-Serif" font-size="10.00"> </text>
</g>
<!-- Node6&#45;&gt;Node1 -->
<g id="edge7" class="edge"><title>Node6&#45;&gt;Node1</title>
<path fill="none" stroke="#404040" d="M239.305,-147.263C224.555,-128.726 200.936,-99.7625 179,-76 176.125,-72.8854 173.095,-69.7068 170.016,-66.5482"/>
<polygon fill="none" stroke="#404040" points="169.753,-66.2831 162.687,-64.8451 161.296,-57.7693 168.362,-59.2073 169.753,-66.2831"/>
<text text-anchor="middle" x="245.5" y="-112" font-family="Helvetica,sans-Serif" font-size="10.00"> +gc_data_id</text>
<text text-anchor="middle" x="245.5" y="-101" font-family="Helvetica,sans-Serif" font-size="10.00">+status</text>
<text text-anchor="middle" x="245.5" y="-90" font-family="Helvetica,sans-Serif" font-size="10.00">+rc</text>
<text text-anchor="middle" x="245.5" y="-79" font-family="Helvetica,sans-Serif" font-size="10.00">+blk_size</text>
</g>
</g>
</svg>
