<?xml version="1.0" encoding="UTF-8" standalone="no"?>
<!DOCTYPE svg PUBLIC "-//W3C//DTD SVG 1.1//EN"
 "http://www.w3.org/Graphics/SVG/1.1/DTD/svg11.dtd">
<!-- Generated by graphviz version 2.36.0 (20140111.2315)
 -->
<!-- Title: ptst_st Pages: 1 -->
<svg width="422pt" height="428pt"
 viewBox="0.00 0.00 421.83 428.00" xmlns="http://www.w3.org/2000/svg" xmlns:xlink="http://www.w3.org/1999/xlink">
<g id="graph0" class="graph" transform="scale(1 1) rotate(0) translate(4 424)">
<title>ptst_st</title>
<!-- Node1 -->
<g id="node1" class="node"><title>Node1</title>
<polygon fill="#bfbfbf" stroke="black" points="142.334,-0.5 142.334,-57.5 189.334,-57.5 189.334,-0.5 142.334,-0.5"/>
<text text-anchor="middle" x="165.834" y="-45.5" font-family="Helvetica,sans-Serif" font-size="10.00">ptst_st</text>
<polyline fill="none" stroke="black" points="142.334,-38.5 189.334,-38.5 "/>
<text text-anchor="middle" x="165.834" y="-26.5" font-family="Helvetica,sans-Serif" font-size="10.00"> </text>
<polyline fill="none" stroke="black" points="142.334,-19.5 189.334,-19.5 "/>
<text text-anchor="middle" x="165.834" y="-7.5" font-family="Helvetica,sans-Serif" font-size="10.00"> </text>
</g>
<!-- Node1&#45;&gt;Node1 -->
<g id="edge2" class="edge"><title>Node1&#45;&gt;Node1</title>
<path fill="none" stroke="#404040" d="M189.428,-38.6905C198.892,-39.238 206.834,-36.0078 206.834,-29 206.834,-25.3866 204.723,-22.7776 201.38,-21.1729"/>
<polygon fill="none" stroke="#404040" points="201.285,-21.1583 194.741,-24.1861 189.428,-19.3095 195.973,-16.2816 201.285,-21.1583"/>
<text text-anchor="middle" x="220.834" y="-26.5" font-family="Helvetica,sans-Serif" font-size="10.00"> +next</text>
</g>
<!-- Node2 -->
<g id="node2" class="node"><title>Node2</title>
<polygon fill="none" stroke="#bfbfbf" points="16.3343,-362.5 16.3343,-419.5 45.3343,-419.5 45.3343,-362.5 16.3343,-362.5"/>
<text text-anchor="middle" x="30.8343" y="-407.5" font-family="Helvetica,sans-Serif" font-size="10.00">int</text>
<polyline fill="none" stroke="#bfbfbf" points="16.3343,-400.5 45.3343,-400.5 "/>
<text text-anchor="middle" x="30.8343" y="-388.5" font-family="Helvetica,sans-Serif" font-size="10.00"> </text>
<polyline fill="none" stroke="#bfbfbf" points="16.3343,-381.5 45.3343,-381.5 "/>
<text text-anchor="middle" x="30.8343" y="-369.5" font-family="Helvetica,sans-Serif" font-size="10.00"> </text>
</g>
<!-- Node2&#45;&gt;Node1 -->
<g id="edge1" class="edge"><title>Node2&#45;&gt;Node1</title>
<path fill="none" stroke="#404040" d="M20.6145,-362.499C7.06353,-321.468 -12.3712,-242.57 12.8343,-182 36.8597,-124.265 94.6571,-77.168 131.935,-51.4016"/>
<polygon fill="none" stroke="#404040" points="132.37,-51.1089 135.112,-44.4394 142.323,-44.405 139.581,-51.0746 132.37,-51.1089"/>
<text text-anchor="middle" x="29.8343" y="-213" font-family="Helvetica,sans-Serif" font-size="10.00"> +count</text>
<text text-anchor="middle" x="29.8343" y="-202" font-family="Helvetica,sans-Serif" font-size="10.00">+id</text>
</g>
<!-- Node4 -->
<g id="node4" class="node"><title>Node4</title>
<g id="a_node4"><a xlink:href="structgc__st.html" target="_top" xlink:title="{gc_st\n||}">
<polygon fill="none" stroke="black" points="145.334,-106.5 145.334,-163.5 186.334,-163.5 186.334,-106.5 145.334,-106.5"/>
<text text-anchor="middle" x="165.834" y="-151.5" font-family="Helvetica,sans-Serif" font-size="10.00">gc_st</text>
<polyline fill="none" stroke="black" points="145.334,-144.5 186.334,-144.5 "/>
<text text-anchor="middle" x="165.834" y="-132.5" font-family="Helvetica,sans-Serif" font-size="10.00"> </text>
<polyline fill="none" stroke="black" points="145.334,-125.5 186.334,-125.5 "/>
<text text-anchor="middle" x="165.834" y="-113.5" font-family="Helvetica,sans-Serif" font-size="10.00"> </text>
</a>
</g>
</g>
<!-- Node2&#45;&gt;Node4 -->
<g id="edge9" class="edge"><title>Node2&#45;&gt;Node4</title>
<path fill="none" stroke="#404040" d="M27.049,-362.378C24.4471,-334.226 23.8984,-289.989 39.8343,-256 60.4826,-211.96 105.002,-175.848 135.196,-155.112"/>
<polygon fill="none" stroke="#404040" points="135.232,-155.089 138.005,-148.432 145.216,-148.432 142.443,-155.088 135.232,-155.089"/>
<text text-anchor="middle" x="84.3343" y="-282.5" font-family="Helvetica,sans-Serif" font-size="10.00"> +async_page_state</text>
</g>
<!-- Node5 -->
<g id="node5" class="node"><title>Node5</title>
<g id="a_node5"><a xlink:href="structchunk__st.html" target="_top" xlink:title="{chunk_st\n||}">
<polygon fill="none" stroke="black" points="137.834,-256.5 137.834,-313.5 193.834,-313.5 193.834,-256.5 137.834,-256.5"/>
<text text-anchor="middle" x="165.834" y="-301.5" font-family="Helvetica,sans-Serif" font-size="10.00">chunk_st</text>
<polyline fill="none" stroke="black" points="137.834,-294.5 193.834,-294.5 "/>
<text text-anchor="middle" x="165.834" y="-282.5" font-family="Helvetica,sans-Serif" font-size="10.00"> </text>
<polyline fill="none" stroke="black" points="137.834,-275.5 193.834,-275.5 "/>
<text text-anchor="middle" x="165.834" y="-263.5" font-family="Helvetica,sans-Serif" font-size="10.00"> </text>
</a>
</g>
</g>
<!-- Node2&#45;&gt;Node5 -->
<g id="edge7" class="edge"><title>Node2&#45;&gt;Node5</title>
<path fill="none" stroke="#404040" d="M45.5386,-378.672C65.1975,-363.528 100.741,-336.146 128.113,-315.059"/>
<polygon fill="none" stroke="#404040" points="128.277,-314.933 130.589,-308.102 137.783,-307.61 135.471,-314.44 128.277,-314.933"/>
<text text-anchor="middle" x="108.834" y="-335.5" font-family="Helvetica,sans-Serif" font-size="10.00"> +i</text>
</g>
<!-- Node3 -->
<g id="node3" class="node"><title>Node3</title>
<polygon fill="none" stroke="#bfbfbf" points="204.334,-106.5 204.334,-163.5 239.334,-163.5 239.334,-106.5 204.334,-106.5"/>
<text text-anchor="middle" x="221.834" y="-151.5" font-family="Helvetica,sans-Serif" font-size="10.00">long</text>
<polyline fill="none" stroke="#bfbfbf" points="204.334,-144.5 239.334,-144.5 "/>
<text text-anchor="middle" x="221.834" y="-132.5" font-family="Helvetica,sans-Serif" font-size="10.00"> </text>
<polyline fill="none" stroke="#bfbfbf" points="204.334,-125.5 239.334,-125.5 "/>
<text text-anchor="middle" x="221.834" y="-113.5" font-family="Helvetica,sans-Serif" font-size="10.00"> </text>
</g>
<!-- Node3&#45;&gt;Node1 -->
<g id="edge3" class="edge"><title>Node3&#45;&gt;Node1</title>
<path fill="none" stroke="#404040" d="M206.974,-106.403C200.709,-94.7672 193.308,-81.0232 186.524,-68.4229"/>
<polygon fill="none" stroke="#404040" points="186.453,-68.2917 180.086,-64.9053 180.764,-57.726 187.13,-61.1124 186.453,-68.2917"/>
<text text-anchor="middle" x="209.834" y="-79.5" font-family="Helvetica,sans-Serif" font-size="10.00"> +rand</text>
</g>
<!-- Node4&#45;&gt;Node1 -->
<g id="edge4" class="edge"><title>Node4&#45;&gt;Node1</title>
<path fill="none" stroke="#404040" d="M165.834,-106.403C165.834,-95.2373 165.834,-82.1304 165.834,-69.9556"/>
<polygon fill="none" stroke="#404040" points="165.834,-69.726 161.834,-63.726 165.834,-57.726 169.834,-63.726 165.834,-69.726"/>
<text text-anchor="middle" x="175.834" y="-79.5" font-family="Helvetica,sans-Serif" font-size="10.00"> +gc</text>
</g>
<!-- Node5&#45;&gt;Node4 -->
<g id="edge5" class="edge"><title>Node5&#45;&gt;Node4</title>
<path fill="none" stroke="#404040" d="M165.834,-256.162C165.834,-233.527 165.834,-201.296 165.834,-175.913"/>
<polygon fill="none" stroke="#404040" points="165.834,-175.713 161.834,-169.713 165.834,-163.713 169.834,-169.713 165.834,-175.713"/>
<text text-anchor="middle" x="197.834" y="-229.5" font-family="Helvetica,sans-Serif" font-size="10.00"> +garbage</text>
<text text-anchor="middle" x="197.834" y="-218.5" font-family="Helvetica,sans-Serif" font-size="10.00">+alloc</text>
<text text-anchor="middle" x="197.834" y="-207.5" font-family="Helvetica,sans-Serif" font-size="10.00">+chunk_cache</text>
<text text-anchor="middle" x="197.834" y="-196.5" font-family="Helvetica,sans-Serif" font-size="10.00">+hook</text>
<text text-anchor="middle" x="197.834" y="-185.5" font-family="Helvetica,sans-Serif" font-size="10.00">+garbage_tail</text>
</g>
<!-- Node5&#45;&gt;Node5 -->
<g id="edge6" class="edge"><title>Node5&#45;&gt;Node5</title>
<path fill="none" stroke="#404040" d="M193.959,-294.75C203.334,-294.75 210.834,-291.5 210.834,-285 210.834,-281.75 208.959,-279.312 205.912,-277.688"/>
<polygon fill="none" stroke="#404040" points="205.717,-277.648 199.039,-280.368 193.959,-275.25 200.638,-272.53 205.717,-277.648"/>
<text text-anchor="middle" x="224.834" y="-282.5" font-family="Helvetica,sans-Serif" font-size="10.00"> +next</text>
</g>
<!-- Node6 -->
<g id="node6" class="node"><title>Node6</title>
<polygon fill="none" stroke="#bfbfbf" points="217.334,-362.5 217.334,-419.5 258.334,-419.5 258.334,-362.5 217.334,-362.5"/>
<text text-anchor="middle" x="237.834" y="-407.5" font-family="Helvetica,sans-Serif" font-size="10.00">void *</text>
<polyline fill="none" stroke="#bfbfbf" points="217.334,-400.5 258.334,-400.5 "/>
<text text-anchor="middle" x="237.834" y="-388.5" font-family="Helvetica,sans-Serif" font-size="10.00"> </text>
<polyline fill="none" stroke="#bfbfbf" points="217.334,-381.5 258.334,-381.5 "/>
<text text-anchor="middle" x="237.834" y="-369.5" font-family="Helvetica,sans-Serif" font-size="10.00"> </text>
</g>
<!-- Node6&#45;&gt;Node4 -->
<g id="edge11" class="edge"><title>Node6&#45;&gt;Node4</title>
<path fill="none" stroke="#404040" d="M246.846,-362.265C259.091,-318.773 275.061,-234.124 233.834,-182 223.842,-169.366 214.163,-172.913 196.815,-163.873"/>
<polygon fill="none" stroke="#404040" points="196.535,-163.7 189.328,-163.936 186.338,-157.374 193.545,-157.138 196.535,-163.7"/>
<text text-anchor="middle" x="291.834" y="-282.5" font-family="Helvetica,sans-Serif" font-size="10.00"> +async_page</text>
</g>
<!-- Node6&#45;&gt;Node5 -->
<g id="edge8" class="edge"><title>Node6&#45;&gt;Node5</title>
<path fill="none" stroke="#404040" d="M218.729,-362.403C210.51,-350.532 200.773,-336.467 191.907,-323.661"/>
<polygon fill="none" stroke="#404040" points="191.86,-323.592 185.156,-320.936 185.029,-313.726 191.733,-316.382 191.86,-323.592"/>
<text text-anchor="middle" x="215.834" y="-335.5" font-family="Helvetica,sans-Serif" font-size="10.00"> +blk</text>
</g>
<!-- Node7 -->
<g id="node7" class="node"><title>Node7</title>
<polygon fill="none" stroke="#bfbfbf" points="355.834,-256.5 355.834,-313.5 411.834,-313.5 411.834,-256.5 355.834,-256.5"/>
<text text-anchor="middle" x="383.834" y="-301.5" font-family="Helvetica,sans-Serif" font-size="10.00">unsigned</text>
<polyline fill="none" stroke="#bfbfbf" points="355.834,-294.5 411.834,-294.5 "/>
<text text-anchor="middle" x="383.834" y="-282.5" font-family="Helvetica,sans-Serif" font-size="10.00"> </text>
<polyline fill="none" stroke="#bfbfbf" points="355.834,-275.5 411.834,-275.5 "/>
<text text-anchor="middle" x="383.834" y="-263.5" font-family="Helvetica,sans-Serif" font-size="10.00"> </text>
</g>
<!-- Node7&#45;&gt;Node4 -->
<g id="edge10" class="edge"><title>Node7&#45;&gt;Node4</title>
<path fill="none" stroke="#404040" d="M366.073,-256.435C349.333,-232.822 322.049,-199.881 289.834,-182 255.343,-162.855 236.283,-180.335 197.488,-163.896"/>
<polygon fill="none" stroke="#404040" points="197.393,-163.85 190.25,-164.839 186.59,-158.626 193.733,-157.637 197.393,-163.85"/>
<text text-anchor="middle" x="381.834" y="-224" font-family="Helvetica,sans-Serif" font-size="10.00"> +epoch</text>
<text text-anchor="start" x="349.834" y="-213" font-family="Helvetica,sans-Serif" font-size="10.00">+entries_since</text>
<text text-anchor="middle" x="381.834" y="-202" font-family="Helvetica,sans-Serif" font-size="10.00">_reclaim</text>
<text text-anchor="middle" x="381.834" y="-191" font-family="Helvetica,sans-Serif" font-size="10.00">+alloc_chunks</text>
</g>
</g>
</svg>
