<?xml version="1.0" encoding="UTF-8" standalone="no"?>
<!DOCTYPE svg PUBLIC "-//W3C//DTD SVG 1.1//EN"
 "http://www.w3.org/Graphics/SVG/1.1/DTD/svg11.dtd">
<!-- Generated by graphviz version 2.36.0 (20140111.2315)
 -->
<!-- Title: pv_side::move Pages: 1 -->
<svg width="494pt" height="66pt"
 viewBox="0.00 0.00 494.00 66.00" xmlns="http://www.w3.org/2000/svg" xmlns:xlink="http://www.w3.org/1999/xlink">
<g id="graph0" class="graph" transform="scale(1 1) rotate(0) translate(4 62)">
<title>pv_side::move</title>
<!-- Node1 -->
<g id="node1" class="node"><title>Node1</title>
<polygon fill="#bfbfbf" stroke="black" points="0,-19.5 0,-38.5 80,-38.5 80,-19.5 0,-19.5"/>
<text text-anchor="middle" x="40" y="-26.5" font-family="Helvetica,sans-Serif" font-size="10.00">pv_side::move</text>
</g>
<!-- Node2 -->
<g id="node2" class="node"><title>Node2</title>
<g id="a_node2"><a xlink:href="dwyer_8cpp.html#ac5af40cdd517beac7515468404be6c72" target="_top" xlink:title="stitch">
<polygon fill="none" stroke="black" points="116.5,-19.5 116.5,-38.5 157.5,-38.5 157.5,-19.5 116.5,-19.5"/>
<text text-anchor="middle" x="137" y="-26.5" font-family="Helvetica,sans-Serif" font-size="10.00">stitch</text>
</a>
</g>
</g>
<!-- Node1&#45;&gt;Node2 -->
<g id="edge1" class="edge"><title>Node1&#45;&gt;Node2</title>
<path fill="none" stroke="midnightblue" d="M90.2263,-29C99.5068,-29 108.699,-29 116.384,-29"/>
<polygon fill="midnightblue" stroke="midnightblue" points="90.1886,-25.5001 80.1886,-29 90.1886,-32.5001 90.1886,-25.5001"/>
</g>
<!-- Node3 -->
<g id="node3" class="node"><title>Node3</title>
<g id="a_node3"><a xlink:href="dwyer_8hpp.html#af02e2aa3c0f40c330c2d1bc03ad9438a" target="_top" xlink:title="dwyer_solve">
<polygon fill="none" stroke="black" points="194.5,-19.5 194.5,-38.5 265.5,-38.5 265.5,-19.5 194.5,-19.5"/>
<text text-anchor="middle" x="230" y="-26.5" font-family="Helvetica,sans-Serif" font-size="10.00">dwyer_solve</text>
</a>
</g>
</g>
<!-- Node2&#45;&gt;Node3 -->
<g id="edge2" class="edge"><title>Node2&#45;&gt;Node3</title>
<path fill="none" stroke="midnightblue" d="M167.884,-29C176.313,-29 185.556,-29 194.244,-29"/>
<polygon fill="midnightblue" stroke="midnightblue" points="167.746,-25.5001 157.746,-29 167.746,-32.5001 167.746,-25.5001"/>
</g>
<!-- Node3&#45;&gt;Node3 -->
<g id="edge3" class="edge"><title>Node3&#45;&gt;Node3</title>
<path fill="none" stroke="midnightblue" d="M212.964,-48.4C214.102,-53.3146 219.78,-57 230,-57 246.352,-57 251.078,-47.5653 244.18,-38.7571"/>
<polygon fill="midnightblue" stroke="midnightblue" points="216.336,-49.3393 215.82,-38.7571 209.624,-47.3512 216.336,-49.3393"/>
</g>
<!-- Node4 -->
<g id="node4" class="node"><title>Node4</title>
<g id="a_node4"><a xlink:href="mesh_8cpp.html#a0ddf1224851353fc92bfbff6f499fa97" target="_top" xlink:title="main">
<polygon fill="none" stroke="black" points="310,-38.5 310,-57.5 348,-57.5 348,-38.5 310,-38.5"/>
<text text-anchor="middle" x="329" y="-45.5" font-family="Helvetica,sans-Serif" font-size="10.00">main</text>
</a>
</g>
</g>
<!-- Node3&#45;&gt;Node4 -->
<g id="edge4" class="edge"><title>Node3&#45;&gt;Node4</title>
<path fill="none" stroke="midnightblue" d="M275.725,-37.7606C287.772,-40.1203 300.131,-42.5412 309.806,-44.4362"/>
<polygon fill="midnightblue" stroke="midnightblue" points="276.232,-34.2934 265.745,-35.8058 274.886,-41.1628 276.232,-34.2934"/>
</g>
<!-- Node5 -->
<g id="node5" class="node"><title>Node5</title>
<g id="a_node5"><a xlink:href="worker_8cpp.html#a4d3d5d6b1446463eca81bdd1106ef943" target="_top" xlink:title="do_work">
<polygon fill="none" stroke="black" points="302.5,-0.5 302.5,-19.5 355.5,-19.5 355.5,-0.5 302.5,-0.5"/>
<text text-anchor="middle" x="329" y="-7.5" font-family="Helvetica,sans-Serif" font-size="10.00">do_work</text>
</a>
</g>
</g>
<!-- Node3&#45;&gt;Node5 -->
<g id="edge5" class="edge"><title>Node3&#45;&gt;Node5</title>
<path fill="none" stroke="midnightblue" d="M275.562,-20.2714C284.734,-18.4747 294.096,-16.641 302.323,-15.0295"/>
<polygon fill="midnightblue" stroke="midnightblue" points="274.886,-16.8372 265.745,-22.1942 276.232,-23.7066 274.886,-16.8372"/>
</g>
<!-- Node6 -->
<g id="node6" class="node"><title>Node6</title>
<g id="a_node6"><a xlink:href="classworker.html#a7b7d6866de64fc583693899b65cb12bc" target="_top" xlink:title="worker::operator()">
<polygon fill="none" stroke="black" points="392.5,-0.5 392.5,-19.5 485.5,-19.5 485.5,-0.5 392.5,-0.5"/>
<text text-anchor="middle" x="439" y="-7.5" font-family="Helvetica,sans-Serif" font-size="10.00">worker::operator()</text>
</a>
</g>
</g>
<!-- Node5&#45;&gt;Node6 -->
<g id="edge6" class="edge"><title>Node5&#45;&gt;Node6</title>
<path fill="none" stroke="midnightblue" d="M365.596,-10C374.134,-10 383.37,-10 392.296,-10"/>
<polygon fill="midnightblue" stroke="midnightblue" points="365.595,-6.5001 355.594,-10 365.594,-13.5001 365.595,-6.5001"/>
</g>
</g>
</svg>
