<?xml version="1.0" encoding="UTF-8" standalone="no"?>
<!DOCTYPE svg PUBLIC "-//W3C//DTD SVG 1.1//EN"
 "http://www.w3.org/Graphics/SVG/1.1/DTD/svg11.dtd">
<!-- Generated by graphviz version 2.36.0 (20140111.2315)
 -->
<!-- Title: region_info Pages: 1 -->
<svg width="506pt" height="464pt"
 viewBox="0.00 0.00 506.00 464.00" xmlns="http://www.w3.org/2000/svg" xmlns:xlink="http://www.w3.org/1999/xlink">
<g id="graph0" class="graph" transform="scale(1 1) rotate(0) translate(4 460)">
<title>region_info</title>
<!-- Node1 -->
<g id="node1" class="node"><title>Node1</title>
<polygon fill="#bfbfbf" stroke="black" points="115.5,-28 115.5,-96 200.5,-96 200.5,-28 115.5,-28"/>
<text text-anchor="middle" x="158" y="-84" font-family="Helvetica,sans-Serif" font-size="10.00">region_info</text>
<polyline fill="none" stroke="black" points="115.5,-77 200.5,-77 "/>
<text text-anchor="middle" x="158" y="-65" font-family="Helvetica,sans-Serif" font-size="10.00"> </text>
<polyline fill="none" stroke="black" points="115.5,-58 200.5,-58 "/>
<text text-anchor="start" x="123.5" y="-46" font-family="Helvetica,sans-Serif" font-size="10.00">+ region_info()</text>
<text text-anchor="start" x="123.5" y="-35" font-family="Helvetica,sans-Serif" font-size="10.00">+ ~region_info()</text>
</g>
<!-- Node2 -->
<g id="node2" class="node"><title>Node2</title>
<g id="a_node2"><a xlink:href="classsimple__queue.html" target="_top" xlink:title="{simple_queue\&lt; edge * \&gt;\n||+ enqueue()\l+ dequeue()\l+ ~simple_queue()\l}">
<polygon fill="none" stroke="black" points="0,-205.5 0,-284.5 122,-284.5 122,-205.5 0,-205.5"/>
<text text-anchor="middle" x="61" y="-272.5" font-family="Helvetica,sans-Serif" font-size="10.00">simple_queue&lt; edge * &gt;</text>
<polyline fill="none" stroke="black" points="0,-265.5 122,-265.5 "/>
<text text-anchor="middle" x="61" y="-253.5" font-family="Helvetica,sans-Serif" font-size="10.00"> </text>
<polyline fill="none" stroke="black" points="0,-246.5 122,-246.5 "/>
<text text-anchor="start" x="8" y="-234.5" font-family="Helvetica,sans-Serif" font-size="10.00">+ enqueue()</text>
<text text-anchor="start" x="8" y="-223.5" font-family="Helvetica,sans-Serif" font-size="10.00">+ dequeue()</text>
<text text-anchor="start" x="8" y="-212.5" font-family="Helvetica,sans-Serif" font-size="10.00">+ ~simple_queue()</text>
</a>
</g>
</g>
<!-- Node2&#45;&gt;Node1 -->
<g id="edge1" class="edge"><title>Node2&#45;&gt;Node1</title>
<path fill="none" stroke="#404040" d="M55.3641,-205.396C54.1873,-185.518 55.5392,-161.441 65,-142 73.9818,-123.543 89.4867,-107.741 105.29,-95.2279"/>
<polygon fill="none" stroke="#404040" points="105.51,-95.0632 107.913,-88.2643 115.113,-87.8674 112.71,-94.6664 105.51,-95.0632"/>
<text text-anchor="middle" x="104.5" y="-156.5" font-family="Helvetica,sans-Serif" font-size="10.00"> +tentative_edges</text>
</g>
<!-- Node3 -->
<g id="node3" class="node"><title>Node3</title>
<g id="a_node3"><a xlink:href="classsimple__queue.html" target="_top" xlink:title="{simple_queue\&lt; T \&gt;\n||+ enqueue()\l+ dequeue()\l+ ~simple_queue()\l}">
<polygon fill="none" stroke="black" points="10.5,-376.5 10.5,-455.5 111.5,-455.5 111.5,-376.5 10.5,-376.5"/>
<text text-anchor="middle" x="61" y="-443.5" font-family="Helvetica,sans-Serif" font-size="10.00">simple_queue&lt; T &gt;</text>
<polyline fill="none" stroke="black" points="10.5,-436.5 111.5,-436.5 "/>
<text text-anchor="middle" x="61" y="-424.5" font-family="Helvetica,sans-Serif" font-size="10.00"> </text>
<polyline fill="none" stroke="black" points="10.5,-417.5 111.5,-417.5 "/>
<text text-anchor="start" x="18.5" y="-405.5" font-family="Helvetica,sans-Serif" font-size="10.00">+ enqueue()</text>
<text text-anchor="start" x="18.5" y="-394.5" font-family="Helvetica,sans-Serif" font-size="10.00">+ dequeue()</text>
<text text-anchor="start" x="18.5" y="-383.5" font-family="Helvetica,sans-Serif" font-size="10.00">+ ~simple_queue()</text>
</a>
</g>
</g>
<!-- Node3&#45;&gt;Node2 -->
<g id="edge2" class="edge"><title>Node3&#45;&gt;Node2</title>
<path fill="none" stroke="orange" d="M61,-366.216C61,-340.269 61,-308.816 61,-284.592"/>
<polygon fill="orange" stroke="orange" points="57.5001,-366.228 61,-376.228 64.5001,-366.228 57.5001,-366.228"/>
<text text-anchor="middle" x="85.5" y="-333.5" font-family="Helvetica,sans-Serif" font-size="10.00"> &lt; edge * &gt;</text>
</g>
<!-- Node4 -->
<g id="node4" class="node"><title>Node4</title>
<polygon fill="none" stroke="#bfbfbf" points="154.5,-387.5 154.5,-444.5 183.5,-444.5 183.5,-387.5 154.5,-387.5"/>
<text text-anchor="middle" x="169" y="-432.5" font-family="Helvetica,sans-Serif" font-size="10.00">int</text>
<polyline fill="none" stroke="#bfbfbf" points="154.5,-425.5 183.5,-425.5 "/>
<text text-anchor="middle" x="169" y="-413.5" font-family="Helvetica,sans-Serif" font-size="10.00"> </text>
<polyline fill="none" stroke="#bfbfbf" points="154.5,-406.5 183.5,-406.5 "/>
<text text-anchor="middle" x="169" y="-394.5" font-family="Helvetica,sans-Serif" font-size="10.00"> </text>
</g>
<!-- Node4&#45;&gt;Node1 -->
<g id="edge3" class="edge"><title>Node4&#45;&gt;Node1</title>
<path fill="none" stroke="#404040" d="M168.137,-387.379C166.246,-326.862 161.721,-182.087 159.411,-108.139"/>
<polygon fill="none" stroke="#404040" points="159.408,-108.04 155.222,-102.168 159.033,-96.0461 163.218,-101.918 159.408,-108.04"/>
<text text-anchor="middle" x="185.5" y="-248" font-family="Helvetica,sans-Serif" font-size="10.00"> +counts</text>
<text text-anchor="middle" x="185.5" y="-237" font-family="Helvetica,sans-Serif" font-size="10.00">+npts</text>
</g>
<!-- Node5 -->
<g id="node5" class="node"><title>Node5</title>
<g id="a_node5"><a xlink:href="classpoint.html" target="_top" xlink:title="{point\n||+ hash()\l+ operator==()\l+ operator!=()\l+ operator\&lt;()\l+ point()\l}">
<polygon fill="none" stroke="black" points="220.5,-194.5 220.5,-295.5 299.5,-295.5 299.5,-194.5 220.5,-194.5"/>
<text text-anchor="middle" x="260" y="-283.5" font-family="Helvetica,sans-Serif" font-size="10.00">point</text>
<polyline fill="none" stroke="black" points="220.5,-276.5 299.5,-276.5 "/>
<text text-anchor="middle" x="260" y="-264.5" font-family="Helvetica,sans-Serif" font-size="10.00"> </text>
<polyline fill="none" stroke="black" points="220.5,-257.5 299.5,-257.5 "/>
<text text-anchor="start" x="228.5" y="-245.5" font-family="Helvetica,sans-Serif" font-size="10.00">+ hash()</text>
<text text-anchor="start" x="228.5" y="-234.5" font-family="Helvetica,sans-Serif" font-size="10.00">+ operator==()</text>
<text text-anchor="start" x="228.5" y="-223.5" font-family="Helvetica,sans-Serif" font-size="10.00">+ operator!=()</text>
<text text-anchor="start" x="228.5" y="-212.5" font-family="Helvetica,sans-Serif" font-size="10.00">+ operator&lt;()</text>
<text text-anchor="start" x="228.5" y="-201.5" font-family="Helvetica,sans-Serif" font-size="10.00">+ point()</text>
</a>
</g>
</g>
<!-- Node4&#45;&gt;Node5 -->
<g id="edge6" class="edge"><title>Node4&#45;&gt;Node5</title>
<path fill="none" stroke="#404040" d="M182.792,-387.389C193.084,-366.987 207.62,-338.603 221,-314 222.371,-311.478 223.782,-308.91 225.215,-306.321"/>
<polygon fill="none" stroke="#404040" points="225.342,-306.093 224.778,-298.904 231.197,-295.619 231.761,-302.808 225.342,-306.093"/>
<text text-anchor="middle" x="238" y="-333.5" font-family="Helvetica,sans-Serif" font-size="10.00"> +coord</text>
</g>
<!-- Node5&#45;&gt;Node1 -->
<g id="edge4" class="edge"><title>Node5&#45;&gt;Node1</title>
<path fill="none" stroke="#404040" d="M220.281,-203.817C212.914,-195.093 205.742,-185.591 200,-176 187.301,-154.788 177.379,-129.092 170.375,-107.567"/>
<polygon fill="none" stroke="#404040" points="170.368,-107.545 164.759,-103.013 166.785,-96.0922 172.394,-100.624 170.368,-107.545"/>
<text text-anchor="middle" x="223.5" y="-167.5" font-family="Helvetica,sans-Serif" font-size="10.00"> +points</text>
<text text-anchor="middle" x="223.5" y="-156.5" font-family="Helvetica,sans-Serif" font-size="10.00">+rightmost</text>
<text text-anchor="middle" x="223.5" y="-145.5" font-family="Helvetica,sans-Serif" font-size="10.00">+leftmost</text>
</g>
<!-- Node8 -->
<g id="node8" class="node"><title>Node8</title>
<g id="a_node8"><a xlink:href="classedge.html" target="_top" xlink:title="{edge\n||+ print()\l+ index_of()\l+ reconsider()\l+ edge()\l+ destroy()\l+ ~edge()\l&#45; initialize_end()\l}">
<polygon fill="none" stroke="black" points="310.5,-0.5 310.5,-123.5 395.5,-123.5 395.5,-0.5 310.5,-0.5"/>
<text text-anchor="middle" x="353" y="-111.5" font-family="Helvetica,sans-Serif" font-size="10.00">edge</text>
<polyline fill="none" stroke="black" points="310.5,-104.5 395.5,-104.5 "/>
<text text-anchor="middle" x="353" y="-92.5" font-family="Helvetica,sans-Serif" font-size="10.00"> </text>
<polyline fill="none" stroke="black" points="310.5,-85.5 395.5,-85.5 "/>
<text text-anchor="start" x="318.5" y="-73.5" font-family="Helvetica,sans-Serif" font-size="10.00">+ print()</text>
<text text-anchor="start" x="318.5" y="-62.5" font-family="Helvetica,sans-Serif" font-size="10.00">+ index_of()</text>
<text text-anchor="start" x="318.5" y="-51.5" font-family="Helvetica,sans-Serif" font-size="10.00">+ reconsider()</text>
<text text-anchor="start" x="318.5" y="-40.5" font-family="Helvetica,sans-Serif" font-size="10.00">+ edge()</text>
<text text-anchor="start" x="318.5" y="-29.5" font-family="Helvetica,sans-Serif" font-size="10.00">+ destroy()</text>
<text text-anchor="start" x="318.5" y="-18.5" font-family="Helvetica,sans-Serif" font-size="10.00">+ ~edge()</text>
<text text-anchor="start" x="318.5" y="-7.5" font-family="Helvetica,sans-Serif" font-size="10.00">&#45; initialize_end()</text>
</a>
</g>
</g>
<!-- Node5&#45;&gt;Node8 -->
<g id="edge10" class="edge"><title>Node5&#45;&gt;Node8</title>
<path fill="none" stroke="#404040" d="M250.299,-194.396C249.139,-177.107 250.479,-158.036 258,-142 267.137,-122.519 283.7,-106.175 300.466,-93.5007"/>
<polygon fill="none" stroke="#404040" points="300.545,-93.4447 303.1,-86.7015 310.307,-86.4665 307.752,-93.2098 300.545,-93.4447"/>
<text text-anchor="middle" x="276" y="-156.5" font-family="Helvetica,sans-Serif" font-size="10.00"> +points</text>
</g>
<!-- Node6 -->
<g id="node6" class="node"><title>Node6</title>
<polygon fill="none" stroke="#bfbfbf" points="212,-387.5 212,-444.5 304,-444.5 304,-387.5 212,-387.5"/>
<text text-anchor="middle" x="258" y="-432.5" font-family="Helvetica,sans-Serif" font-size="10.00">enum momentum</text>
<polyline fill="none" stroke="#bfbfbf" points="212,-425.5 304,-425.5 "/>
<text text-anchor="middle" x="258" y="-413.5" font-family="Helvetica,sans-Serif" font-size="10.00"> </text>
<polyline fill="none" stroke="#bfbfbf" points="212,-406.5 304,-406.5 "/>
<text text-anchor="middle" x="258" y="-394.5" font-family="Helvetica,sans-Serif" font-size="10.00"> </text>
</g>
<!-- Node6&#45;&gt;Node5 -->
<g id="edge5" class="edge"><title>Node6&#45;&gt;Node5</title>
<path fill="none" stroke="#404040" d="M258.24,-387.134C258.423,-366.852 258.696,-338.723 259,-314 259.025,-311.971 259.051,-309.908 259.078,-307.824"/>
<polygon fill="none" stroke="#404040" points="259.079,-307.763 255.16,-301.71 259.241,-295.764 263.159,-301.818 259.079,-307.763"/>
<text text-anchor="middle" x="288" y="-333.5" font-family="Helvetica,sans-Serif" font-size="10.00"> +momentum</text>
</g>
<!-- Node7 -->
<g id="node7" class="node"><title>Node7</title>
<polygon fill="none" stroke="#bfbfbf" points="345.5,-387.5 345.5,-444.5 380.5,-444.5 380.5,-387.5 345.5,-387.5"/>
<text text-anchor="middle" x="363" y="-432.5" font-family="Helvetica,sans-Serif" font-size="10.00">long</text>
<polyline fill="none" stroke="#bfbfbf" points="345.5,-425.5 380.5,-425.5 "/>
<text text-anchor="middle" x="363" y="-413.5" font-family="Helvetica,sans-Serif" font-size="10.00"> </text>
<polyline fill="none" stroke="#bfbfbf" points="345.5,-406.5 380.5,-406.5 "/>
<text text-anchor="middle" x="363" y="-394.5" font-family="Helvetica,sans-Serif" font-size="10.00"> </text>
</g>
<!-- Node7&#45;&gt;Node5 -->
<g id="edge7" class="edge"><title>Node7&#45;&gt;Node5</title>
<path fill="none" stroke="#404040" d="M351.302,-387.109C340.54,-361.883 325.066,-326.795 317,-314 313.927,-309.126 310.535,-304.224 306.983,-299.407"/>
<polygon fill="none" stroke="#404040" points="306.821,-299.196 299.996,-296.869 299.518,-289.674 306.343,-292 306.821,-299.196"/>
<text text-anchor="middle" x="354.5" y="-350" font-family="Helvetica,sans-Serif" font-size="10.00"> +value</text>
<text text-anchor="middle" x="354.5" y="-339" font-family="Helvetica,sans-Serif" font-size="10.00">+x</text>
<text text-anchor="middle" x="354.5" y="-328" font-family="Helvetica,sans-Serif" font-size="10.00">+y</text>
<text text-anchor="middle" x="354.5" y="-317" font-family="Helvetica,sans-Serif" font-size="10.00">+z</text>
</g>
<!-- Node7&#45;&gt;Node8 -->
<g id="edge11" class="edge"><title>Node7&#45;&gt;Node8</title>
<path fill="none" stroke="#404040" d="M368.856,-387.295C370.548,-378.027 372.164,-367.609 373,-358 376.778,-314.601 385.322,-251.635 372,-142 371.737,-139.836 371.437,-137.645 371.104,-135.439"/>
<polygon fill="none" stroke="#404040" points="371.094,-135.382 366.132,-130.15 369.052,-123.557 374.015,-128.789 371.094,-135.382"/>
<text text-anchor="middle" x="409" y="-253.5" font-family="Helvetica,sans-Serif" font-size="10.00"> +startVertex</text>
<text text-anchor="middle" x="409" y="-242.5" font-family="Helvetica,sans-Serif" font-size="10.00">+endVertex</text>
<text text-anchor="middle" x="409" y="-231.5" font-family="Helvetica,sans-Serif" font-size="10.00">+edgeNum</text>
</g>
<!-- Node8&#45;&gt;Node5 -->
<g id="edge8" class="edge"><title>Node8&#45;&gt;Node5</title>
<path fill="none" stroke="#404040" d="M324.227,-123.72C315.954,-140.734 306.787,-159.174 298,-176 296.679,-178.529 295.319,-181.102 293.933,-183.696"/>
<polygon fill="none" stroke="#404040" points="293.846,-183.857 294.51,-191.038 288.137,-194.412 287.473,-187.232 293.846,-183.857"/>
<text text-anchor="middle" x="342" y="-156.5" font-family="Helvetica,sans-Serif" font-size="10.00"> +first_edge</text>
</g>
<!-- Node8&#45;&gt;Node8 -->
<g id="edge12" class="edge"><title>Node8&#45;&gt;Node8</title>
<path fill="none" stroke="#404040" d="M395.604,-79.644C405.615,-78.1938 413,-72.3125 413,-62 413,-56.1992 410.663,-51.8005 406.837,-48.8038"/>
<polygon fill="none" stroke="#404040" points="406.761,-48.7739 399.71,-50.284 395.604,-44.356 402.656,-42.8459 406.761,-48.7739"/>
<text text-anchor="middle" x="439" y="-59.5" font-family="Helvetica,sans-Serif" font-size="10.00"> +neighbors</text>
</g>
<!-- Node9 -->
<g id="node9" class="node"><title>Node9</title>
<polygon fill="none" stroke="#bfbfbf" points="463.5,-216.5 463.5,-273.5 498.5,-273.5 498.5,-216.5 463.5,-216.5"/>
<text text-anchor="middle" x="481" y="-261.5" font-family="Helvetica,sans-Serif" font-size="10.00">bool</text>
<polyline fill="none" stroke="#bfbfbf" points="463.5,-254.5 498.5,-254.5 "/>
<text text-anchor="middle" x="481" y="-242.5" font-family="Helvetica,sans-Serif" font-size="10.00"> </text>
<polyline fill="none" stroke="#bfbfbf" points="463.5,-235.5 498.5,-235.5 "/>
<text text-anchor="middle" x="481" y="-223.5" font-family="Helvetica,sans-Serif" font-size="10.00"> </text>
</g>
<!-- Node9&#45;&gt;Node8 -->
<g id="edge9" class="edge"><title>Node9&#45;&gt;Node8</title>
<path fill="none" stroke="#404040" d="M463.703,-216.288C459.022,-208.979 453.894,-201.141 449,-194 434.41,-172.714 417.982,-149.904 402.895,-129.381"/>
<polygon fill="none" stroke="#404040" points="402.734,-129.163 395.954,-126.709 395.611,-119.506 402.391,-121.96 402.734,-129.163"/>
<text text-anchor="middle" x="457.5" y="-156.5" font-family="Helvetica,sans-Serif" font-size="10.00"> +deleted</text>
</g>
</g>
</svg>
