<?xml version="1.0" encoding="UTF-8" standalone="no"?>
<!DOCTYPE svg PUBLIC "-//W3C//DTD SVG 1.1//EN"
 "http://www.w3.org/Graphics/SVG/1.1/DTD/svg11.dtd">
<!-- Generated by graphviz version 2.36.0 (20140111.2315)
 -->
<!-- Title: TransList::Desc Pages: 1 -->
<svg width="173pt" height="278pt"
 viewBox="0.00 0.00 173.00 278.00" xmlns="http://www.w3.org/2000/svg" xmlns:xlink="http://www.w3.org/1999/xlink">
<g id="graph0" class="graph" transform="scale(1 1) rotate(0) translate(4 274)">
<title>TransList::Desc</title>
<!-- Node1 -->
<g id="node1" class="node"><title>Node1</title>
<polygon fill="#bfbfbf" stroke="black" points="0,-0.5 0,-57.5 86,-57.5 86,-0.5 0,-0.5"/>
<text text-anchor="middle" x="43" y="-45.5" font-family="Helvetica,sans-Serif" font-size="10.00">TransList::Desc</text>
<polyline fill="none" stroke="black" points="0,-38.5 86,-38.5 "/>
<text text-anchor="middle" x="43" y="-26.5" font-family="Helvetica,sans-Serif" font-size="10.00"> </text>
<polyline fill="none" stroke="black" points="0,-19.5 86,-19.5 "/>
<text text-anchor="start" x="8" y="-7.5" font-family="Helvetica,sans-Serif" font-size="10.00">+ SizeOf()</text>
</g>
<!-- Node2 -->
<g id="node2" class="node"><title>Node2</title>
<polygon fill="none" stroke="#bfbfbf" points="5,-212.5 5,-269.5 51,-269.5 51,-212.5 5,-212.5"/>
<text text-anchor="middle" x="28" y="-257.5" font-family="Helvetica,sans-Serif" font-size="10.00">uint8_t</text>
<polyline fill="none" stroke="#bfbfbf" points="5,-250.5 51,-250.5 "/>
<text text-anchor="middle" x="28" y="-238.5" font-family="Helvetica,sans-Serif" font-size="10.00"> </text>
<polyline fill="none" stroke="#bfbfbf" points="5,-231.5 51,-231.5 "/>
<text text-anchor="middle" x="28" y="-219.5" font-family="Helvetica,sans-Serif" font-size="10.00"> </text>
</g>
<!-- Node2&#45;&gt;Node1 -->
<g id="edge1" class="edge"><title>Node2&#45;&gt;Node1</title>
<path fill="none" stroke="#404040" d="M22.2073,-212.382C17.3767,-185.177 12.1493,-142.51 18,-106 19.9574,-93.7851 23.5788,-80.8707 27.4693,-69.2219"/>
<polygon fill="none" stroke="#404040" points="27.569,-68.9392 25.7939,-61.95 31.5627,-57.6232 33.3378,-64.6124 27.569,-68.9392"/>
<text text-anchor="middle" x="36.5" y="-138" font-family="Helvetica,sans-Serif" font-size="10.00"> +status</text>
<text text-anchor="middle" x="36.5" y="-127" font-family="Helvetica,sans-Serif" font-size="10.00">+size</text>
</g>
<!-- Node3 -->
<g id="node3" class="node"><title>Node3</title>
<g id="a_node3"><a xlink:href="structTransList_1_1Operator.html" target="_top" xlink:title="{TransList::Operator\n||}">
<polygon fill="none" stroke="black" points="64.5,-106.5 64.5,-163.5 165.5,-163.5 165.5,-106.5 64.5,-106.5"/>
<text text-anchor="middle" x="115" y="-151.5" font-family="Helvetica,sans-Serif" font-size="10.00">TransList::Operator</text>
<polyline fill="none" stroke="black" points="64.5,-144.5 165.5,-144.5 "/>
<text text-anchor="middle" x="115" y="-132.5" font-family="Helvetica,sans-Serif" font-size="10.00"> </text>
<polyline fill="none" stroke="black" points="64.5,-125.5 165.5,-125.5 "/>
<text text-anchor="middle" x="115" y="-113.5" font-family="Helvetica,sans-Serif" font-size="10.00"> </text>
</a>
</g>
</g>
<!-- Node2&#45;&gt;Node3 -->
<g id="edge4" class="edge"><title>Node2&#45;&gt;Node3</title>
<path fill="none" stroke="#404040" d="M51.086,-212.403C61.1147,-200.415 73.0155,-186.188 83.8133,-173.281"/>
<polygon fill="none" stroke="#404040" points="84.1065,-172.93 84.8883,-165.762 91.8061,-163.726 91.0244,-170.895 84.1065,-172.93"/>
<text text-anchor="middle" x="89" y="-185.5" font-family="Helvetica,sans-Serif" font-size="10.00"> +type</text>
</g>
<!-- Node3&#45;&gt;Node1 -->
<g id="edge2" class="edge"><title>Node3&#45;&gt;Node1</title>
<path fill="none" stroke="#404040" d="M95.8944,-106.403C87.6761,-94.5321 77.9387,-80.467 69.0728,-67.6607"/>
<polygon fill="none" stroke="#404040" points="69.0255,-67.5923 62.3214,-64.936 62.1949,-57.726 68.899,-60.3823 69.0255,-67.5923"/>
<text text-anchor="middle" x="94.5" y="-79.5" font-family="Helvetica,sans-Serif" font-size="10.00"> +ops</text>
</g>
<!-- Node4 -->
<g id="node4" class="node"><title>Node4</title>
<polygon fill="none" stroke="#bfbfbf" points="89.5,-212.5 89.5,-269.5 140.5,-269.5 140.5,-212.5 89.5,-212.5"/>
<text text-anchor="middle" x="115" y="-257.5" font-family="Helvetica,sans-Serif" font-size="10.00">uint32_t</text>
<polyline fill="none" stroke="#bfbfbf" points="89.5,-250.5 140.5,-250.5 "/>
<text text-anchor="middle" x="115" y="-238.5" font-family="Helvetica,sans-Serif" font-size="10.00"> </text>
<polyline fill="none" stroke="#bfbfbf" points="89.5,-231.5 140.5,-231.5 "/>
<text text-anchor="middle" x="115" y="-219.5" font-family="Helvetica,sans-Serif" font-size="10.00"> </text>
</g>
<!-- Node4&#45;&gt;Node3 -->
<g id="edge3" class="edge"><title>Node4&#45;&gt;Node3</title>
<path fill="none" stroke="#404040" d="M115,-212.403C115,-201.237 115,-188.13 115,-175.956"/>
<polygon fill="none" stroke="#404040" points="115,-175.726 111,-169.726 115,-163.726 119,-169.726 115,-175.726"/>
<text text-anchor="middle" x="127.5" y="-185.5" font-family="Helvetica,sans-Serif" font-size="10.00"> +key</text>
</g>
</g>
</svg>
