<?xml version="1.0" encoding="UTF-8" standalone="no"?>
<!DOCTYPE svg PUBLIC "-//W3C//DTD SVG 1.1//EN"
 "http://www.w3.org/Graphics/SVG/1.1/DTD/svg11.dtd">
<!-- Generated by graphviz version 2.36.0 (20140111.2315)
 -->
<!-- Title: stm::TxThread::thread_init Pages: 1 -->
<svg width="584pt" height="104pt"
 viewBox="0.00 0.00 584.00 104.00" xmlns="http://www.w3.org/2000/svg" xmlns:xlink="http://www.w3.org/1999/xlink">
<g id="graph0" class="graph" transform="scale(1 1) rotate(0) translate(4 100)">
<title>stm::TxThread::thread_init</title>
<!-- Node1 -->
<g id="node1" class="node"><title>Node1</title>
<polygon fill="#bfbfbf" stroke="black" points="0.5,-19.5 0.5,-38.5 131.5,-38.5 131.5,-19.5 0.5,-19.5"/>
<text text-anchor="middle" x="66" y="-26.5" font-family="Helvetica,sans-Serif" font-size="10.00">stm::TxThread::thread_init</text>
</g>
<!-- Node2 -->
<g id="node2" class="node"><title>Node2</title>
<g id="a_node2"><a xlink:href="namespacestm.html#a3de69c665250e84ef5238477ae8524b0" target="_top" xlink:title="stm::thread_init">
<polygon fill="none" stroke="black" points="181,-38.5 181,-57.5 265,-57.5 265,-38.5 181,-38.5"/>
<text text-anchor="middle" x="223" y="-45.5" font-family="Helvetica,sans-Serif" font-size="10.00">stm::thread_init</text>
</a>
</g>
</g>
<!-- Node1&#45;&gt;Node2 -->
<g id="edge1" class="edge"><title>Node1&#45;&gt;Node2</title>
<path fill="none" stroke="midnightblue" d="M142.018,-38.1958C155.394,-39.8353 168.868,-41.487 180.844,-42.9551"/>
<polygon fill="midnightblue" stroke="midnightblue" points="142.187,-34.6904 131.836,-36.9476 141.336,-41.6384 142.187,-34.6904"/>
</g>
<!-- Node5 -->
<g id="node5" class="node"><title>Node5</title>
<g id="a_node5"><a xlink:href="libitm_8h.html#a5edce724a00eff63931f07466901ef7d" target="_top" xlink:title="_ITM_getTransaction">
<polygon fill="none" stroke="black" points="168.5,-0.5 168.5,-19.5 277.5,-19.5 277.5,-0.5 168.5,-0.5"/>
<text text-anchor="middle" x="223" y="-7.5" font-family="Helvetica,sans-Serif" font-size="10.00">_ITM_getTransaction</text>
</a>
</g>
</g>
<!-- Node1&#45;&gt;Node5 -->
<g id="edge4" class="edge"><title>Node1&#45;&gt;Node5</title>
<path fill="none" stroke="midnightblue" d="M141.841,-19.8259C150.743,-18.7347 159.692,-17.6378 168.217,-16.5928"/>
<polygon fill="midnightblue" stroke="midnightblue" points="141.336,-16.3616 131.836,-21.0524 142.187,-23.3096 141.336,-16.3616"/>
</g>
<!-- Node3 -->
<g id="node3" class="node"><title>Node3</title>
<g id="a_node3"><a xlink:href="stamp_8hpp.html#a7672bd41fd85f42a21e565c37108b09a" target="_top" xlink:title="tm_main_startup">
<polygon fill="none" stroke="black" points="324.5,-76.5 324.5,-95.5 413.5,-95.5 413.5,-76.5 324.5,-76.5"/>
<text text-anchor="middle" x="369" y="-83.5" font-family="Helvetica,sans-Serif" font-size="10.00">tm_main_startup</text>
</a>
</g>
</g>
<!-- Node2&#45;&gt;Node3 -->
<g id="edge2" class="edge"><title>Node2&#45;&gt;Node3</title>
<path fill="none" stroke="midnightblue" d="M270.172,-60.1843C290.164,-65.46 313.219,-71.5438 331.924,-76.4799"/>
<polygon fill="midnightblue" stroke="midnightblue" points="270.899,-56.7565 260.337,-57.589 269.113,-63.5248 270.899,-56.7565"/>
</g>
<!-- Node4 -->
<g id="node4" class="node"><title>Node4</title>
<g id="a_node4"><a xlink:href="stamp_8hpp.html#a4f805a0e1a5d6f581e1d4dafbc83fdf0" target="_top" xlink:title="tm_start">
<polygon fill="none" stroke="black" points="342.5,-38.5 342.5,-57.5 395.5,-57.5 395.5,-38.5 342.5,-38.5"/>
<text text-anchor="middle" x="369" y="-45.5" font-family="Helvetica,sans-Serif" font-size="10.00">tm_start</text>
</a>
</g>
</g>
<!-- Node2&#45;&gt;Node4 -->
<g id="edge3" class="edge"><title>Node2&#45;&gt;Node4</title>
<path fill="none" stroke="midnightblue" d="M275.413,-48C298.031,-48 323.609,-48 342.14,-48"/>
<polygon fill="midnightblue" stroke="midnightblue" points="275.265,-44.5001 265.265,-48 275.265,-51.5001 275.265,-44.5001"/>
</g>
<!-- Node6 -->
<g id="node6" class="node"><title>Node6</title>
<g id="a_node6"><a xlink:href="libitm-5_81_005_8cpp.html#a5cde4a3f0f8e98db7d17e4a6ed3859ca" target="_top" xlink:title="_ITM_initializeThread">
<polygon fill="none" stroke="black" points="314,-0.5 314,-19.5 424,-19.5 424,-0.5 314,-0.5"/>
<text text-anchor="middle" x="369" y="-7.5" font-family="Helvetica,sans-Serif" font-size="10.00">_ITM_initializeThread</text>
</a>
</g>
</g>
<!-- Node5&#45;&gt;Node6 -->
<g id="edge5" class="edge"><title>Node5&#45;&gt;Node6</title>
<path fill="none" stroke="midnightblue" d="M287.743,-10C296.457,-10 305.334,-10 313.855,-10"/>
<polygon fill="midnightblue" stroke="midnightblue" points="287.62,-6.5001 277.62,-10 287.62,-13.5001 287.62,-6.5001"/>
</g>
<!-- Node7 -->
<g id="node7" class="node"><title>Node7</title>
<g id="a_node7"><a xlink:href="libitm-5_81_005_8cpp.html#ae97451d0a7481e2ad0e2b0c4196d5117" target="_top" xlink:title="_ITM_initializeProcess">
<polygon fill="none" stroke="black" points="460,-0.5 460,-19.5 576,-19.5 576,-0.5 460,-0.5"/>
<text text-anchor="middle" x="518" y="-7.5" font-family="Helvetica,sans-Serif" font-size="10.00">_ITM_initializeProcess</text>
</a>
</g>
</g>
<!-- Node6&#45;&gt;Node7 -->
<g id="edge6" class="edge"><title>Node6&#45;&gt;Node7</title>
<path fill="none" stroke="midnightblue" d="M434.532,-10C442.996,-10 451.62,-10 459.947,-10"/>
<polygon fill="midnightblue" stroke="midnightblue" points="434.32,-6.5001 424.32,-10 434.32,-13.5001 434.32,-6.5001"/>
</g>
</g>
</svg>
