<?xml version="1.0" encoding="UTF-8" standalone="no"?>
<!DOCTYPE svg PUBLIC "-//W3C//DTD SVG 1.1//EN"
 "http://www.w3.org/Graphics/SVG/1.1/DTD/svg11.dtd">
<!-- Generated by graphviz version 2.36.0 (20140111.2315)
 -->
<!-- Title: learner_task Pages: 1 -->
<svg width="200pt" height="182pt"
 viewBox="0.00 0.00 200.00 182.00" xmlns="http://www.w3.org/2000/svg" xmlns:xlink="http://www.w3.org/1999/xlink">
<g id="graph0" class="graph" transform="scale(1 1) rotate(0) translate(4 178)">
<title>learner_task</title>
<!-- Node1 -->
<g id="node1" class="node"><title>Node1</title>
<polygon fill="#bfbfbf" stroke="black" points="39,-0.5 39,-57.5 109,-57.5 109,-0.5 39,-0.5"/>
<text text-anchor="middle" x="74" y="-45.5" font-family="Helvetica,sans-Serif" font-size="10.00">learner_task</text>
<polyline fill="none" stroke="black" points="39,-38.5 109,-38.5 "/>
<text text-anchor="middle" x="74" y="-26.5" font-family="Helvetica,sans-Serif" font-size="10.00"> </text>
<polyline fill="none" stroke="black" points="39,-19.5 109,-19.5 "/>
<text text-anchor="middle" x="74" y="-7.5" font-family="Helvetica,sans-Serif" font-size="10.00"> </text>
</g>
<!-- Node2 -->
<g id="node2" class="node"><title>Node2</title>
<polygon fill="none" stroke="#bfbfbf" points="-0.5,-116.5 -0.5,-173.5 34.5,-173.5 34.5,-116.5 -0.5,-116.5"/>
<text text-anchor="middle" x="17" y="-161.5" font-family="Helvetica,sans-Serif" font-size="10.00">float</text>
<polyline fill="none" stroke="#bfbfbf" points="-0.5,-154.5 34.5,-154.5 "/>
<text text-anchor="middle" x="17" y="-142.5" font-family="Helvetica,sans-Serif" font-size="10.00"> </text>
<polyline fill="none" stroke="#bfbfbf" points="-0.5,-135.5 34.5,-135.5 "/>
<text text-anchor="middle" x="17" y="-123.5" font-family="Helvetica,sans-Serif" font-size="10.00"> </text>
</g>
<!-- Node2&#45;&gt;Node1 -->
<g id="edge1" class="edge"><title>Node2&#45;&gt;Node1</title>
<path fill="none" stroke="#404040" d="M22.0016,-116.209C24.9753,-103.485 29.4724,-88.4939 36,-76 37.4997,-73.1295 39.2,-70.274 41.0293,-67.4726"/>
<polygon fill="none" stroke="#404040" points="41.0934,-67.3834 41.3432,-60.1766 48.0918,-57.6354 47.8419,-64.8422 41.0934,-67.3834"/>
<text text-anchor="middle" x="53" y="-84.5" font-family="Helvetica,sans-Serif" font-size="10.00"> +score</text>
</g>
<!-- Node3 -->
<g id="node3" class="node"><title>Node3</title>
<polygon fill="none" stroke="#bfbfbf" points="56.5,-116.5 56.5,-173.5 91.5,-173.5 91.5,-116.5 56.5,-116.5"/>
<text text-anchor="middle" x="74" y="-161.5" font-family="Helvetica,sans-Serif" font-size="10.00">long</text>
<polyline fill="none" stroke="#bfbfbf" points="56.5,-154.5 91.5,-154.5 "/>
<text text-anchor="middle" x="74" y="-142.5" font-family="Helvetica,sans-Serif" font-size="10.00"> </text>
<polyline fill="none" stroke="#bfbfbf" points="56.5,-135.5 91.5,-135.5 "/>
<text text-anchor="middle" x="74" y="-123.5" font-family="Helvetica,sans-Serif" font-size="10.00"> </text>
</g>
<!-- Node3&#45;&gt;Node1 -->
<g id="edge2" class="edge"><title>Node3&#45;&gt;Node1</title>
<path fill="none" stroke="#404040" d="M74,-116.404C74,-102.504 74,-85.3915 74,-70.073"/>
<polygon fill="none" stroke="#404040" points="74.0001,-69.7372 70,-63.7372 74,-57.7372 78,-63.7372 74.0001,-69.7372"/>
<text text-anchor="middle" x="92.5" y="-90" font-family="Helvetica,sans-Serif" font-size="10.00"> +fromId</text>
<text text-anchor="middle" x="92.5" y="-79" font-family="Helvetica,sans-Serif" font-size="10.00">+toId</text>
</g>
<!-- Node4 -->
<g id="node4" class="node"><title>Node4</title>
<polygon fill="none" stroke="#bfbfbf" points="109.5,-116.5 109.5,-173.5 192.5,-173.5 192.5,-116.5 109.5,-116.5"/>
<text text-anchor="middle" x="151" y="-161.5" font-family="Helvetica,sans-Serif" font-size="10.00">enum operation</text>
<polyline fill="none" stroke="#bfbfbf" points="109.5,-154.5 192.5,-154.5 "/>
<text text-anchor="middle" x="151" y="-142.5" font-family="Helvetica,sans-Serif" font-size="10.00"> </text>
<polyline fill="none" stroke="#bfbfbf" points="109.5,-135.5 192.5,-135.5 "/>
<text text-anchor="middle" x="151" y="-123.5" font-family="Helvetica,sans-Serif" font-size="10.00"> </text>
</g>
<!-- Node4&#45;&gt;Node1 -->
<g id="edge3" class="edge"><title>Node4&#45;&gt;Node1</title>
<path fill="none" stroke="#404040" d="M138.247,-116.317C131.923,-103.617 123.768,-88.6135 115,-76 112.996,-73.1177 110.833,-70.2186 108.583,-67.3543"/>
<polygon fill="none" stroke="#404040" points="108.354,-67.0764 101.449,-64.9983 100.711,-57.825 107.616,-59.9031 108.354,-67.0764"/>
<text text-anchor="middle" x="138" y="-84.5" font-family="Helvetica,sans-Serif" font-size="10.00"> +op</text>
</g>
</g>
</svg>
