<?xml version="1.0" encoding="UTF-8" standalone="no"?>
<!DOCTYPE svg PUBLIC "-//W3C//DTD SVG 1.1//EN"
 "http://www.w3.org/Graphics/SVG/1.1/DTD/svg11.dtd">
<!-- Generated by graphviz version 2.36.0 (20140111.2315)
 -->
<!-- Title: anonymous_namespace{swiss::cpp}::Swiss::read Pages: 1 -->
<svg width="428pt" height="104pt"
 viewBox="0.00 0.00 428.00 104.00" xmlns="http://www.w3.org/2000/svg" xmlns:xlink="http://www.w3.org/1999/xlink">
<g id="graph0" class="graph" transform="scale(1 1) rotate(0) translate(4 100)">
<title>anonymous_namespace{swiss::cpp}::Swiss::read</title>
<!-- Node1 -->
<g id="node1" class="node"><title>Node1</title>
<polygon fill="#bfbfbf" stroke="black" points="0,-33 0,-63 128,-63 128,-33 0,-33"/>
<text text-anchor="start" x="8" y="-51" font-family="Helvetica,sans-Serif" font-size="10.00">anonymous_namespace</text>
<text text-anchor="middle" x="64" y="-40" font-family="Helvetica,sans-Serif" font-size="10.00">{swiss::cpp}::Swiss::read</text>
</g>
<!-- Node2 -->
<g id="node2" class="node"><title>Node2</title>
<g id="a_node2"><a xlink:href="namespacestm.html#a059f2742566005f0d199d47a4f3131d2" target="_top" xlink:title="stm::get_orec">
<polygon fill="none" stroke="black" points="183.5,-76.5 183.5,-95.5 260.5,-95.5 260.5,-76.5 183.5,-76.5"/>
<text text-anchor="middle" x="222" y="-83.5" font-family="Helvetica,sans-Serif" font-size="10.00">stm::get_orec</text>
</a>
</g>
</g>
<!-- Node1&#45;&gt;Node2 -->
<g id="edge1" class="edge"><title>Node1&#45;&gt;Node2</title>
<path fill="none" stroke="midnightblue" d="M126.655,-63.0186C142.155,-66.7943 158.557,-70.7896 173.261,-74.3712"/>
<polygon fill="midnightblue" stroke="midnightblue" points="172.593,-77.8108 183.137,-76.777 174.25,-71.0097 172.593,-77.8108"/>
</g>
<!-- Node3 -->
<g id="node3" class="node"><title>Node3</title>
<g id="a_node3"><a xlink:href="classstm_1_1WriteSet.html#a72a722df5366f2d1a9d3cafec55c3e3d" target="_top" xlink:title="stm::WriteSet::find">
<polygon fill="none" stroke="black" points="172.5,-38.5 172.5,-57.5 271.5,-57.5 271.5,-38.5 172.5,-38.5"/>
<text text-anchor="middle" x="222" y="-45.5" font-family="Helvetica,sans-Serif" font-size="10.00">stm::WriteSet::find</text>
</a>
</g>
</g>
<!-- Node1&#45;&gt;Node3 -->
<g id="edge2" class="edge"><title>Node1&#45;&gt;Node3</title>
<path fill="none" stroke="midnightblue" d="M128.002,-48C139.267,-48 150.966,-48 162.11,-48"/>
<polygon fill="midnightblue" stroke="midnightblue" points="162.161,-51.5001 172.16,-48 162.16,-44.5001 162.161,-51.5001"/>
</g>
<!-- Node5 -->
<g id="node5" class="node"><title>Node5</title>
<g id="a_node5"><a xlink:href="classstm_1_1MiniVector.html#ac2a0e4cb478962dfc435dcc861793f02" target="_top" xlink:title="stm::MiniVector::insert">
<polygon fill="none" stroke="black" points="164,-0.5 164,-19.5 280,-19.5 280,-0.5 164,-0.5"/>
<text text-anchor="middle" x="222" y="-7.5" font-family="Helvetica,sans-Serif" font-size="10.00">stm::MiniVector::insert</text>
</a>
</g>
</g>
<!-- Node1&#45;&gt;Node5 -->
<g id="edge4" class="edge"><title>Node1&#45;&gt;Node5</title>
<path fill="none" stroke="midnightblue" d="M126.655,-32.9814C141.595,-29.3422 157.373,-25.499 171.66,-22.0187"/>
<polygon fill="midnightblue" stroke="midnightblue" points="172.879,-25.3241 181.767,-19.5568 171.223,-18.523 172.879,-25.3241"/>
</g>
<!-- Node4 -->
<g id="node4" class="node"><title>Node4</title>
<g id="a_node4"><a xlink:href="classstm_1_1WriteSet.html#a07a039f248b6f18a81dae1ef00bb5d1b" target="_top" xlink:title="stm::WriteSet::hash">
<polygon fill="none" stroke="black" points="316,-38.5 316,-57.5 420,-57.5 420,-38.5 316,-38.5"/>
<text text-anchor="middle" x="368" y="-45.5" font-family="Helvetica,sans-Serif" font-size="10.00">stm::WriteSet::hash</text>
</a>
</g>
</g>
<!-- Node3&#45;&gt;Node4 -->
<g id="edge3" class="edge"><title>Node3&#45;&gt;Node4</title>
<path fill="none" stroke="midnightblue" d="M271.752,-48C282.622,-48 294.283,-48 305.589,-48"/>
<polygon fill="midnightblue" stroke="midnightblue" points="305.838,-51.5001 315.838,-48 305.838,-44.5001 305.838,-51.5001"/>
</g>
</g>
</svg>
