<?xml version="1.0" encoding="UTF-8" standalone="no"?>
<!DOCTYPE svg PUBLIC "-//W3C//DTD SVG 1.1//EN"
 "http://www.w3.org/Graphics/SVG/1.1/DTD/svg11.dtd">
<!-- Generated by graphviz version 2.36.0 (20140111.2315)
 -->
<!-- Title: priv_t Pages: 1 -->
<!--zoomable 532 -->
<svg id="main" version="1.1" xmlns="http://www.w3.org/2000/svg" xmlns:xlink="http://www.w3.org/1999/xlink" xml:space="preserve" onload="init(evt)">
<style type="text/css"><![CDATA[
.edge:hover path { stroke: red; }
.edge:hover polygon { stroke: red; fill: red; }
]]></style>
<script type="text/javascript"><![CDATA[
var edges = document.getElementsByTagName('g');
if (edges && edges.length) {
  for (var i=0;i<edges.length;i++) {
    if (edges[i].id.substr(0,4)=='edge') {
      edges[i].setAttribute('class','edge');
    }
  }
}
]]></script>
        <defs>
                <circle id="rim" cx="0" cy="0" r="7"/>
                <circle id="rim2" cx="0" cy="0" r="3.5"/>
                <g id="zoomPlus">
                        <use xlink:href="#rim" fill="#404040">
                                <set attributeName="fill" to="#808080" begin="zoomplus.mouseover" end="zoomplus.mouseout"/>
                        </use>
                        <path d="M-4,0h8M0,-4v8" fill="none" stroke="white" stroke-width="1.5" pointer-events="none"/>
                </g>
                <g id="zoomMin">
                        <use xlink:href="#rim" fill="#404040">
                                <set attributeName="fill" to="#808080" begin="zoomminus.mouseover" end="zoomminus.mouseout"/>
                        </use>
                        <path d="M-4,0h8" fill="none" stroke="white" stroke-width="1.5" pointer-events="none"/>
                </g>
                <g id="dirArrow">
                        <path fill="none" stroke="white" stroke-width="1.5" d="M0,-3.0v7 M-2.5,-0.5L0,-3.0L2.5,-0.5"/>
                </g>
               <g id="resetDef">
                       <use xlink:href="#rim2" fill="#404040">
                               <set attributeName="fill" to="#808080" begin="reset.mouseover" end="reset.mouseout"/>
                       </use>
               </g>
        </defs>

<script type="text/javascript">
var viewWidth = 353;
var viewHeight = 532;
var sectionId = 'dynsection-0';
</script>
<script xlink:href="svgpan.js"/>
<svg id="graph" class="graph">
<g id="viewport">
<title>priv_t</title>
<!-- Node1 -->
<g id="node1" class="node"><title>Node1</title>
<polygon fill="#bfbfbf" stroke="black" points="3,-0.5 3,-57.5 97,-57.5 97,-0.5 3,-0.5"/>
<text text-anchor="middle" x="50" y="-45.5" font-family="Helvetica,sans-Serif" font-size="10.00">priv_t</text>
<polyline fill="none" stroke="black" points="3,-38.5 97,-38.5 "/>
<text text-anchor="middle" x="50" y="-26.5" font-family="Helvetica,sans-Serif" font-size="10.00"> </text>
<polyline fill="none" stroke="black" points="3,-19.5 97,-19.5 "/>
<text text-anchor="start" x="11" y="-7.5" font-family="Helvetica,sans-Serif" font-size="10.00">+ CACHE_PAD()</text>
</g>
<!-- Node2 -->
<g id="node2" class="node"><title>Node2</title>
<g id="a_node2"><a xlink:href="structstm__tx__st.html" target="_top" xlink:title="{stm_tx_st\n||}">
<polygon fill="none" stroke="black" points="164,-116.5 164,-173.5 224,-173.5 224,-116.5 164,-116.5"/>
<text text-anchor="middle" x="194" y="-161.5" font-family="Helvetica,sans-Serif" font-size="10.00">stm_tx_st</text>
<polyline fill="none" stroke="black" points="164,-154.5 224,-154.5 "/>
<text text-anchor="middle" x="194" y="-142.5" font-family="Helvetica,sans-Serif" font-size="10.00"> </text>
<polyline fill="none" stroke="black" points="164,-135.5 224,-135.5 "/>
<text text-anchor="middle" x="194" y="-123.5" font-family="Helvetica,sans-Serif" font-size="10.00"> </text>
</a>
</g>
</g>
<!-- Node2&#45;&gt;Node1 -->
<g id="edge1" class="edge"><title>Node2&#45;&gt;Node1</title>
<path fill="none" stroke="#404040" d="M163.813,-120.102C143.769,-104.234 117.11,-83.1288 94.6319,-65.3336"/>
<polygon fill="none" stroke="#404040" points="94.371,-65.1271 87.1839,-64.5391 84.9625,-57.6786 92.1496,-58.2667 94.371,-65.1271"/>
<text text-anchor="middle" x="171.5" y="-90" font-family="Helvetica,sans-Serif" font-size="10.00"> +cur_tx</text>
<text text-anchor="middle" x="171.5" y="-79" font-family="Helvetica,sans-Serif" font-size="10.00">+next_descriptor</text>
</g>
<!-- Node2&#45;&gt;Node2 -->
<g id="edge9" class="edge"><title>Node2&#45;&gt;Node2</title>
<path fill="none" stroke="#404040" d="M224.287,-155.864C233.649,-155.645 241,-152.023 241,-145 241,-141.488 239.162,-138.827 236.154,-137.016"/>
<polygon fill="none" stroke="#404040" points="235.948,-136.966 229.174,-139.438 224.287,-134.136 231.061,-131.664 235.948,-136.966"/>
<text text-anchor="middle" x="266" y="-142.5" font-family="Helvetica,sans-Serif" font-size="10.00"> +next_free</text>
</g>
<!-- Node3 -->
<g id="node3" class="node"><title>Node3</title>
<polygon fill="none" stroke="#bfbfbf" points="274.5,-254.5 274.5,-311.5 345.5,-311.5 345.5,-254.5 274.5,-254.5"/>
<text text-anchor="middle" x="310" y="-299.5" font-family="Helvetica,sans-Serif" font-size="10.00">sigjmp_buf *</text>
<polyline fill="none" stroke="#bfbfbf" points="274.5,-292.5 345.5,-292.5 "/>
<text text-anchor="middle" x="310" y="-280.5" font-family="Helvetica,sans-Serif" font-size="10.00"> </text>
<polyline fill="none" stroke="#bfbfbf" points="274.5,-273.5 345.5,-273.5 "/>
<text text-anchor="middle" x="310" y="-261.5" font-family="Helvetica,sans-Serif" font-size="10.00"> </text>
</g>
<!-- Node3&#45;&gt;Node2 -->
<g id="edge2" class="edge"><title>Node3&#45;&gt;Node2</title>
<path fill="none" stroke="#404040" d="M307.376,-254.136C304.291,-234.845 297.583,-209.576 283,-192 270.727,-177.209 252.468,-166.616 235.676,-159.353"/>
<polygon fill="none" stroke="#404040" points="235.523,-159.293 228.468,-160.785 224.377,-154.847 231.432,-153.354 235.523,-159.293"/>
<text text-anchor="middle" x="319.5" y="-211.5" font-family="Helvetica,sans-Serif" font-size="10.00"> +penv</text>
</g>
<!-- Node4 -->
<g id="node4" class="node"><title>Node4</title>
<g id="a_node4"><a xlink:href="structstm__tx__entry__st.html" target="_top" xlink:title="{stm_tx_entry_st\n||}">
<polygon fill="none" stroke="black" points="70.5,-254.5 70.5,-311.5 157.5,-311.5 157.5,-254.5 70.5,-254.5"/>
<text text-anchor="middle" x="114" y="-299.5" font-family="Helvetica,sans-Serif" font-size="10.00">stm_tx_entry_st</text>
<polyline fill="none" stroke="black" points="70.5,-292.5 157.5,-292.5 "/>
<text text-anchor="middle" x="114" y="-280.5" font-family="Helvetica,sans-Serif" font-size="10.00"> </text>
<polyline fill="none" stroke="black" points="70.5,-273.5 157.5,-273.5 "/>
<text text-anchor="middle" x="114" y="-261.5" font-family="Helvetica,sans-Serif" font-size="10.00"> </text>
</a>
</g>
</g>
<!-- Node4&#45;&gt;Node2 -->
<g id="edge3" class="edge"><title>Node4&#45;&gt;Node2</title>
<path fill="none" stroke="#404040" d="M127.674,-254.356C136.861,-236.308 149.527,-212.395 162,-192 163.599,-189.386 165.289,-186.718 167.023,-184.05"/>
<polygon fill="none" stroke="#404040" points="167.161,-183.844 167.173,-176.633 173.834,-173.87 173.822,-181.081 167.161,-183.844"/>
<text text-anchor="middle" x="183.5" y="-228" font-family="Helvetica,sans-Serif" font-size="10.00"> +check</text>
<text text-anchor="middle" x="183.5" y="-217" font-family="Helvetica,sans-Serif" font-size="10.00">+alloc_ptr</text>
<text text-anchor="middle" x="183.5" y="-206" font-family="Helvetica,sans-Serif" font-size="10.00">+writes</text>
<text text-anchor="middle" x="183.5" y="-195" font-family="Helvetica,sans-Serif" font-size="10.00">+reads</text>
</g>
<!-- Node4&#45;&gt;Node4 -->
<g id="edge4" class="edge"><title>Node4&#45;&gt;Node4</title>
<path fill="none" stroke="#404040" d="M157.591,-292.535C167.628,-291.714 175,-288.535 175,-283 175,-280.059 172.919,-277.784 169.464,-276.174"/>
<polygon fill="none" stroke="#404040" points="169.291,-276.134 162.551,-278.699 157.591,-273.465 164.331,-270.9 169.291,-276.134"/>
<text text-anchor="middle" x="189" y="-280.5" font-family="Helvetica,sans-Serif" font-size="10.00"> +next</text>
</g>
<!-- Node5 -->
<g id="node5" class="node"><title>Node5</title>
<polygon fill="none" stroke="#bfbfbf" points="40.5,-466.5 40.5,-523.5 81.5,-523.5 81.5,-466.5 40.5,-466.5"/>
<text text-anchor="middle" x="61" y="-511.5" font-family="Helvetica,sans-Serif" font-size="10.00">void *</text>
<polyline fill="none" stroke="#bfbfbf" points="40.5,-504.5 81.5,-504.5 "/>
<text text-anchor="middle" x="61" y="-492.5" font-family="Helvetica,sans-Serif" font-size="10.00"> </text>
<polyline fill="none" stroke="#bfbfbf" points="40.5,-485.5 81.5,-485.5 "/>
<text text-anchor="middle" x="61" y="-473.5" font-family="Helvetica,sans-Serif" font-size="10.00"> </text>
</g>
<!-- Node5&#45;&gt;Node1 -->
<g id="edge10" class="edge"><title>Node5&#45;&gt;Node1</title>
<path fill="none" stroke="#404040" d="M40.3482,-473.738C22.6516,-454.13 0,-422.654 0,-390 0,-390 0,-390 0,-144 0,-117.131 11.7931,-89.4716 23.9246,-68.1273"/>
<polygon fill="none" stroke="#404040" points="24.0754,-67.8752 23.7249,-60.6726 30.2387,-57.5788 30.5892,-64.7814 24.0754,-67.8752"/>
<text text-anchor="middle" x="26" y="-286" font-family="Helvetica,sans-Serif" font-size="10.00"> +arena_lim</text>
<text text-anchor="middle" x="26" y="-275" font-family="Helvetica,sans-Serif" font-size="10.00">+arena</text>
</g>
<!-- Node5&#45;&gt;Node4 -->
<g id="edge5" class="edge"><title>Node5&#45;&gt;Node4</title>
<path fill="none" stroke="#404040" d="M81.7799,-467.14C85.8772,-461.062 89.8711,-454.484 93,-448 111.917,-408.801 115.792,-358.503 115.808,-324.005"/>
<polygon fill="none" stroke="#404040" points="115.803,-323.613 111.726,-317.665 115.648,-311.614 119.725,-317.561 115.803,-323.613"/>
<text text-anchor="middle" x="129" y="-392" font-family="Helvetica,sans-Serif" font-size="10.00"> +new</text>
<text text-anchor="middle" x="129" y="-381" font-family="Helvetica,sans-Serif" font-size="10.00">+old</text>
</g>
<!-- Node6 -->
<g id="node6" class="node"><title>Node6</title>
<g id="a_node6"><a xlink:href="structstm__blk__st.html" target="_top" xlink:title="{stm_blk_st\n||}">
<polygon fill="none" stroke="black" points="28.5,-360.5 28.5,-417.5 93.5,-417.5 93.5,-360.5 28.5,-360.5"/>
<text text-anchor="middle" x="61" y="-405.5" font-family="Helvetica,sans-Serif" font-size="10.00">stm_blk_st</text>
<polyline fill="none" stroke="black" points="28.5,-398.5 93.5,-398.5 "/>
<text text-anchor="middle" x="61" y="-386.5" font-family="Helvetica,sans-Serif" font-size="10.00"> </text>
<polyline fill="none" stroke="black" points="28.5,-379.5 93.5,-379.5 "/>
<text text-anchor="middle" x="61" y="-367.5" font-family="Helvetica,sans-Serif" font-size="10.00"> </text>
</a>
</g>
</g>
<!-- Node5&#45;&gt;Node6 -->
<g id="edge7" class="edge"><title>Node5&#45;&gt;Node6</title>
<path fill="none" stroke="#404040" d="M61,-466.403C61,-455.237 61,-442.13 61,-429.956"/>
<polygon fill="none" stroke="#404040" points="61.0001,-429.726 57,-423.726 61,-417.726 65,-423.726 61.0001,-429.726"/>
<text text-anchor="middle" x="75" y="-439.5" font-family="Helvetica,sans-Serif" font-size="10.00"> +data</text>
</g>
<!-- Node6&#45;&gt;Node4 -->
<g id="edge6" class="edge"><title>Node6&#45;&gt;Node4</title>
<path fill="none" stroke="#404040" d="M75.0639,-360.403C80.9936,-348.767 87.9978,-335.023 94.4191,-322.423"/>
<polygon fill="none" stroke="#404040" points="94.4217,-322.418 93.5821,-315.256 99.8704,-311.726 100.71,-318.888 94.4217,-322.418"/>
<text text-anchor="middle" x="97.5" y="-333.5" font-family="Helvetica,sans-Serif" font-size="10.00"> +b</text>
</g>
<!-- Node7 -->
<g id="node7" class="node"><title>Node7</title>
<polygon fill="none" stroke="#bfbfbf" points="221.5,-254.5 221.5,-311.5 250.5,-311.5 250.5,-254.5 221.5,-254.5"/>
<text text-anchor="middle" x="236" y="-299.5" font-family="Helvetica,sans-Serif" font-size="10.00">int</text>
<polyline fill="none" stroke="#bfbfbf" points="221.5,-292.5 250.5,-292.5 "/>
<text text-anchor="middle" x="236" y="-280.5" font-family="Helvetica,sans-Serif" font-size="10.00"> </text>
<polyline fill="none" stroke="#bfbfbf" points="221.5,-273.5 250.5,-273.5 "/>
<text text-anchor="middle" x="236" y="-261.5" font-family="Helvetica,sans-Serif" font-size="10.00"> </text>
</g>
<!-- Node7&#45;&gt;Node2 -->
<g id="edge8" class="edge"><title>Node7&#45;&gt;Node2</title>
<path fill="none" stroke="#404040" d="M227.501,-254.478C221.393,-234.701 213.067,-207.74 206.243,-185.645"/>
<polygon fill="none" stroke="#404040" points="206.172,-185.413 200.579,-180.861 202.631,-173.947 208.223,-178.5 206.172,-185.413"/>
<text text-anchor="middle" x="250.5" y="-228" font-family="Helvetica,sans-Serif" font-size="10.00"> +gc_data_id</text>
<text text-anchor="middle" x="250.5" y="-217" font-family="Helvetica,sans-Serif" font-size="10.00">+status</text>
<text text-anchor="middle" x="250.5" y="-206" font-family="Helvetica,sans-Serif" font-size="10.00">+rc</text>
<text text-anchor="middle" x="250.5" y="-195" font-family="Helvetica,sans-Serif" font-size="10.00">+blk_size</text>
</g>
</g>
</svg>
        <g id="navigator" transform="translate(0 0)" fill="#404254">
                <rect fill="#f2f5e9" fill-opacity="0.5" stroke="#606060" stroke-width=".5" x="0" y="0" width="60" height="60"/>
                <use id="zoomplus" xlink:href="#zoomPlus" x="17" y="9" onmousedown="handleZoom(evt,'in')"/>
                <use id="zoomminus" xlink:href="#zoomMin" x="42" y="9" onmousedown="handleZoom(evt,'out')"/>
                <use id="reset" xlink:href="#resetDef" x="30" y="36" onmousedown="handleReset()"/>
                <g id="arrowUp" xlink:href="#dirArrow" transform="translate(30 24)" onmousedown="handlePan(0,-1)">
                  <use xlink:href="#rim" fill="#404040">
                        <set attributeName="fill" to="#808080" begin="arrowUp.mouseover" end="arrowUp.mouseout"/>
                  </use>
                  <path fill="none" stroke="white" stroke-width="1.5" d="M0,-3.0v7 M-2.5,-0.5L0,-3.0L2.5,-0.5"/>
                </g>
                <g id="arrowRight" xlink:href="#dirArrow" transform="rotate(90) translate(36 -43)" onmousedown="handlePan(1,0)">
                  <use xlink:href="#rim" fill="#404040">
                        <set attributeName="fill" to="#808080" begin="arrowRight.mouseover" end="arrowRight.mouseout"/>
                  </use>
                  <path fill="none" stroke="white" stroke-width="1.5" d="M0,-3.0v7 M-2.5,-0.5L0,-3.0L2.5,-0.5"/>
                </g>
                <g id="arrowDown" xlink:href="#dirArrow" transform="rotate(180) translate(-30 -48)" onmousedown="handlePan(0,1)">
                  <use xlink:href="#rim" fill="#404040">
                        <set attributeName="fill" to="#808080" begin="arrowDown.mouseover" end="arrowDown.mouseout"/>
                  </use>
                  <path fill="none" stroke="white" stroke-width="1.5" d="M0,-3.0v7 M-2.5,-0.5L0,-3.0L2.5,-0.5"/>
                </g>
                <g id="arrowLeft" xlink:href="#dirArrow" transform="rotate(270) translate(-36 17)" onmousedown="handlePan(-1,0)">
                  <use xlink:href="#rim" fill="#404040">
                        <set attributeName="fill" to="#808080" begin="arrowLeft.mouseover" end="arrowLeft.mouseout"/>
                  </use>
                  <path fill="none" stroke="white" stroke-width="1.5" d="M0,-3.0v7 M-2.5,-0.5L0,-3.0L2.5,-0.5"/>
                </g>
        </g>
        <svg viewBox="0 0 15 15" width="100%" height="30px" preserveAspectRatio="xMaxYMin meet">
         <g id="arrow_out" transform="scale(0.3 0.3)">
          <a xlink:href="structpriv__t__coll__graph_org.svg" target="_base">
           <rect id="button" ry="5" rx="5" y="6" x="6" height="38" width="38"
                fill="#f2f5e9" fill-opacity="0.5" stroke="#606060" stroke-width="1.0"/>
           <path id="arrow"
             d="M 11.500037,31.436501 C 11.940474,20.09759 22.043105,11.32322 32.158766,21.979434 L 37.068811,17.246167 C 37.068811,17.246167 37.088388,32 37.088388,32 L 22.160133,31.978069 C 22.160133,31.978069 26.997745,27.140456 26.997745,27.140456 C 18.528582,18.264221 13.291696,25.230495 11.500037,31.436501 z"
             style="fill:#404040;"/>
          </a>
         </g>
        </svg>
</svg>
