<?xml version="1.0" encoding="UTF-8" standalone="no"?>
<!DOCTYPE svg PUBLIC "-//W3C//DTD SVG 1.1//EN"
 "http://www.w3.org/Graphics/SVG/1.1/DTD/svg11.dtd">
<!-- Generated by graphviz version 2.36.0 (20140111.2315)
 -->
<!-- Title: itm2stm::Scope::LoggedWord Pages: 1 -->
<svg width="179pt" height="216pt"
 viewBox="0.00 0.00 179.00 216.00" xmlns="http://www.w3.org/2000/svg" xmlns:xlink="http://www.w3.org/1999/xlink">
<g id="graph0" class="graph" transform="scale(1 1) rotate(0) translate(4 212)">
<title>itm2stm::Scope::LoggedWord</title>
<!-- Node1 -->
<g id="node1" class="node"><title>Node1</title>
<polygon fill="#bfbfbf" stroke="black" points="18,-0.5 18,-101.5 164,-101.5 164,-0.5 18,-0.5"/>
<text text-anchor="middle" x="91" y="-89.5" font-family="Helvetica,sans-Serif" font-size="10.00">itm2stm::Scope::LoggedWord</text>
<polyline fill="none" stroke="black" points="18,-82.5 164,-82.5 "/>
<text text-anchor="middle" x="91" y="-70.5" font-family="Helvetica,sans-Serif" font-size="10.00"> </text>
<polyline fill="none" stroke="black" points="18,-63.5 164,-63.5 "/>
<text text-anchor="start" x="26" y="-51.5" font-family="Helvetica,sans-Serif" font-size="10.00">+ LoggedWord()</text>
<text text-anchor="start" x="26" y="-40.5" font-family="Helvetica,sans-Serif" font-size="10.00">+ begin()</text>
<text text-anchor="start" x="26" y="-29.5" font-family="Helvetica,sans-Serif" font-size="10.00">+ end()</text>
<text text-anchor="start" x="26" y="-18.5" font-family="Helvetica,sans-Serif" font-size="10.00">+ undo()</text>
<text text-anchor="start" x="26" y="-7.5" font-family="Helvetica,sans-Serif" font-size="10.00">&#45; clip()</text>
</g>
<!-- Node2 -->
<g id="node2" class="node"><title>Node2</title>
<polygon fill="none" stroke="#bfbfbf" points="-0.5,-150.5 -0.5,-207.5 44.5,-207.5 44.5,-150.5 -0.5,-150.5"/>
<text text-anchor="middle" x="22" y="-195.5" font-family="Helvetica,sans-Serif" font-size="10.00">void **</text>
<polyline fill="none" stroke="#bfbfbf" points="-0.5,-188.5 44.5,-188.5 "/>
<text text-anchor="middle" x="22" y="-176.5" font-family="Helvetica,sans-Serif" font-size="10.00"> </text>
<polyline fill="none" stroke="#bfbfbf" points="-0.5,-169.5 44.5,-169.5 "/>
<text text-anchor="middle" x="22" y="-157.5" font-family="Helvetica,sans-Serif" font-size="10.00"> </text>
</g>
<!-- Node2&#45;&gt;Node1 -->
<g id="edge1" class="edge"><title>Node2&#45;&gt;Node1</title>
<path fill="none" stroke="#404040" d="M29.0754,-150.425C32.1123,-140.551 36.1028,-129.516 41,-120 42.3788,-117.321 43.8587,-114.633 45.4145,-111.956"/>
<polygon fill="none" stroke="#404040" points="45.4312,-111.929 45.1822,-104.722 51.7389,-101.721 51.9879,-108.928 45.4312,-111.929"/>
<text text-anchor="middle" x="64" y="-123.5" font-family="Helvetica,sans-Serif" font-size="10.00"> &#45;address_</text>
</g>
<!-- Node3 -->
<g id="node3" class="node"><title>Node3</title>
<polygon fill="none" stroke="#bfbfbf" points="69.5,-150.5 69.5,-207.5 112.5,-207.5 112.5,-150.5 69.5,-150.5"/>
<text text-anchor="middle" x="91" y="-195.5" font-family="Helvetica,sans-Serif" font-size="10.00">size_t</text>
<polyline fill="none" stroke="#bfbfbf" points="69.5,-188.5 112.5,-188.5 "/>
<text text-anchor="middle" x="91" y="-176.5" font-family="Helvetica,sans-Serif" font-size="10.00"> </text>
<polyline fill="none" stroke="#bfbfbf" points="69.5,-169.5 112.5,-169.5 "/>
<text text-anchor="middle" x="91" y="-157.5" font-family="Helvetica,sans-Serif" font-size="10.00"> </text>
</g>
<!-- Node3&#45;&gt;Node1 -->
<g id="edge2" class="edge"><title>Node3&#45;&gt;Node1</title>
<path fill="none" stroke="#404040" d="M91,-150.349C91,-139.534 91,-126.664 91,-113.858"/>
<polygon fill="none" stroke="#404040" points="91.0001,-113.668 87,-107.668 91,-101.668 95,-107.668 91.0001,-113.668"/>
<text text-anchor="middle" x="109" y="-123.5" font-family="Helvetica,sans-Serif" font-size="10.00"> &#45;bytes_</text>
</g>
<!-- Node4 -->
<g id="node4" class="node"><title>Node4</title>
<polygon fill="none" stroke="#bfbfbf" points="130.5,-150.5 130.5,-207.5 171.5,-207.5 171.5,-150.5 130.5,-150.5"/>
<text text-anchor="middle" x="151" y="-195.5" font-family="Helvetica,sans-Serif" font-size="10.00">void *</text>
<polyline fill="none" stroke="#bfbfbf" points="130.5,-188.5 171.5,-188.5 "/>
<text text-anchor="middle" x="151" y="-176.5" font-family="Helvetica,sans-Serif" font-size="10.00"> </text>
<polyline fill="none" stroke="#bfbfbf" points="130.5,-169.5 171.5,-169.5 "/>
<text text-anchor="middle" x="151" y="-157.5" font-family="Helvetica,sans-Serif" font-size="10.00"> </text>
</g>
<!-- Node4&#45;&gt;Node1 -->
<g id="edge3" class="edge"><title>Node4&#45;&gt;Node1</title>
<path fill="none" stroke="#404040" d="M141.407,-150.218C137.814,-140.528 133.503,-129.664 129,-120 127.863,-117.56 126.673,-115.088 125.445,-112.604"/>
<polygon fill="none" stroke="#404040" points="125.331,-112.382 119.038,-108.862 119.866,-101.698 126.16,-105.218 125.331,-112.382"/>
<text text-anchor="middle" x="150.5" y="-123.5" font-family="Helvetica,sans-Serif" font-size="10.00"> &#45;value_</text>
</g>
</g>
</svg>
