<?xml version="1.0" encoding="UTF-8" standalone="no"?>
<!DOCTYPE svg PUBLIC "-//W3C//DTD SVG 1.1//EN"
 "http://www.w3.org/Graphics/SVG/1.1/DTD/svg11.dtd">
<!-- Generated by graphviz version 2.36.0 (20140111.2315)
 -->
<!-- Title: RBTree::RBNode Pages: 1 -->
<svg width="170pt" height="182pt"
 viewBox="0.00 0.00 170.00 182.00" xmlns="http://www.w3.org/2000/svg" xmlns:xlink="http://www.w3.org/1999/xlink">
<g id="graph0" class="graph" transform="scale(1 1) rotate(0) translate(4 178)">
<title>RBTree::RBNode</title>
<!-- Node1 -->
<g id="node1" class="node"><title>Node1</title>
<polygon fill="#bfbfbf" stroke="black" points="0,-0.5 0,-57.5 94,-57.5 94,-0.5 0,-0.5"/>
<text text-anchor="middle" x="47" y="-45.5" font-family="Helvetica,sans-Serif" font-size="10.00">RBTree::RBNode</text>
<polyline fill="none" stroke="black" points="0,-38.5 94,-38.5 "/>
<text text-anchor="middle" x="47" y="-26.5" font-family="Helvetica,sans-Serif" font-size="10.00"> </text>
<polyline fill="none" stroke="black" points="0,-19.5 94,-19.5 "/>
<text text-anchor="start" x="8" y="-7.5" font-family="Helvetica,sans-Serif" font-size="10.00">+ RBNode()</text>
</g>
<!-- Node1&#45;&gt;Node1 -->
<g id="edge1" class="edge"><title>Node1&#45;&gt;Node1</title>
<path fill="none" stroke="#404040" d="M94.0355,-39.5823C104.43,-38.588 112,-35.0605 112,-29 112,-25.6856 109.736,-23.1289 105.984,-21.3297"/>
<polygon fill="none" stroke="#404040" points="105.694,-21.2591 98.9177,-23.7247 94.0355,-18.4177 100.812,-15.9522 105.694,-21.2591"/>
<text text-anchor="middle" x="137" y="-32" font-family="Helvetica,sans-Serif" font-size="10.00"> +m_parent</text>
<text text-anchor="middle" x="137" y="-21" font-family="Helvetica,sans-Serif" font-size="10.00">+m_child</text>
</g>
<!-- Node2 -->
<g id="node2" class="node"><title>Node2</title>
<polygon fill="none" stroke="#bfbfbf" points="4.5,-116.5 4.5,-173.5 33.5,-173.5 33.5,-116.5 4.5,-116.5"/>
<text text-anchor="middle" x="19" y="-161.5" font-family="Helvetica,sans-Serif" font-size="10.00">int</text>
<polyline fill="none" stroke="#bfbfbf" points="4.5,-154.5 33.5,-154.5 "/>
<text text-anchor="middle" x="19" y="-142.5" font-family="Helvetica,sans-Serif" font-size="10.00"> </text>
<polyline fill="none" stroke="#bfbfbf" points="4.5,-135.5 33.5,-135.5 "/>
<text text-anchor="middle" x="19" y="-123.5" font-family="Helvetica,sans-Serif" font-size="10.00"> </text>
</g>
<!-- Node2&#45;&gt;Node1 -->
<g id="edge2" class="edge"><title>Node2&#45;&gt;Node1</title>
<path fill="none" stroke="#404040" d="M16.2351,-116.409C15.7795,-103.865 16.3743,-88.9623 20,-76 20.6821,-73.5615 21.5265,-71.1192 22.4907,-68.7016"/>
<polygon fill="none" stroke="#404040" points="22.5768,-68.5199 21.5327,-61.3848 27.7175,-57.6768 28.7615,-64.8119 22.5768,-68.5199"/>
<text text-anchor="middle" x="37" y="-90" font-family="Helvetica,sans-Serif" font-size="10.00"> +m_ID</text>
<text text-anchor="middle" x="37" y="-79" font-family="Helvetica,sans-Serif" font-size="10.00">+m_val</text>
</g>
<!-- Node3 -->
<g id="node3" class="node"><title>Node3</title>
<polygon fill="none" stroke="#bfbfbf" points="56,-116.5 56,-173.5 96,-173.5 96,-116.5 56,-116.5"/>
<text text-anchor="middle" x="76" y="-161.5" font-family="Helvetica,sans-Serif" font-size="10.00">Color</text>
<polyline fill="none" stroke="#bfbfbf" points="56,-154.5 96,-154.5 "/>
<text text-anchor="middle" x="76" y="-142.5" font-family="Helvetica,sans-Serif" font-size="10.00"> </text>
<polyline fill="none" stroke="#bfbfbf" points="56,-135.5 96,-135.5 "/>
<text text-anchor="middle" x="76" y="-123.5" font-family="Helvetica,sans-Serif" font-size="10.00"> </text>
</g>
<!-- Node3&#45;&gt;Node1 -->
<g id="edge3" class="edge"><title>Node3&#45;&gt;Node1</title>
<path fill="none" stroke="#404040" d="M68.9799,-116.404C65.4086,-102.365 61.0037,-85.049 57.0772,-69.614"/>
<polygon fill="none" stroke="#404040" points="57.0144,-69.3668 51.6587,-64.5382 54.056,-57.7372 59.4117,-62.5659 57.0144,-69.3668"/>
<text text-anchor="middle" x="87" y="-84.5" font-family="Helvetica,sans-Serif" font-size="10.00"> +m_color</text>
</g>
</g>
</svg>
