<?xml version="1.0" encoding="UTF-8" standalone="no"?>
<!DOCTYPE svg PUBLIC "-//W3C//DTD SVG 1.1//EN"
 "http://www.w3.org/Graphics/SVG/1.1/DTD/svg11.dtd">
<!-- Generated by graphviz version 2.36.0 (20140111.2315)
 -->
<!-- Title: sequencer_run_arg Pages: 1 -->
<svg width="1078pt" height="686pt"
 viewBox="0.00 0.00 1077.97 686.00" xmlns="http://www.w3.org/2000/svg" xmlns:xlink="http://www.w3.org/1999/xlink">
<g id="graph0" class="graph" transform="scale(1 1) rotate(0) translate(4 682)">
<title>sequencer_run_arg</title>
<!-- Node1 -->
<g id="node1" class="node"><title>Node1</title>
<polygon fill="#bfbfbf" stroke="black" points="727.471,-0.5 727.471,-57.5 826.471,-57.5 826.471,-0.5 727.471,-0.5"/>
<text text-anchor="middle" x="776.971" y="-45.5" font-family="Helvetica,sans-Serif" font-size="10.00">sequencer_run_arg</text>
<polyline fill="none" stroke="black" points="727.471,-38.5 826.471,-38.5 "/>
<text text-anchor="middle" x="776.971" y="-26.5" font-family="Helvetica,sans-Serif" font-size="10.00"> </text>
<polyline fill="none" stroke="black" points="727.471,-19.5 826.471,-19.5 "/>
<text text-anchor="middle" x="776.971" y="-7.5" font-family="Helvetica,sans-Serif" font-size="10.00"> </text>
</g>
<!-- Node2 -->
<g id="node2" class="node"><title>Node2</title>
<g id="a_node2"><a xlink:href="structsegments.html" target="_top" xlink:title="{segments\n||}">
<polygon fill="none" stroke="black" points="28.4714,-234.5 28.4714,-291.5 87.4714,-291.5 87.4714,-234.5 28.4714,-234.5"/>
<text text-anchor="middle" x="57.9714" y="-279.5" font-family="Helvetica,sans-Serif" font-size="10.00">segments</text>
<polyline fill="none" stroke="black" points="28.4714,-272.5 87.4714,-272.5 "/>
<text text-anchor="middle" x="57.9714" y="-260.5" font-family="Helvetica,sans-Serif" font-size="10.00"> </text>
<polyline fill="none" stroke="black" points="28.4714,-253.5 87.4714,-253.5 "/>
<text text-anchor="middle" x="57.9714" y="-241.5" font-family="Helvetica,sans-Serif" font-size="10.00"> </text>
</a>
</g>
</g>
<!-- Node2&#45;&gt;Node1 -->
<g id="edge1" class="edge"><title>Node2&#45;&gt;Node1</title>
<path fill="none" stroke="#404040" d="M55.9065,-234.414C56.1427,-217.353 59.3887,-196.095 71.9714,-182 157.622,-86.0577 559.815,-46.2146 715.35,-34.2183"/>
<polygon fill="none" stroke="#404040" points="715.467,-34.2096 721.148,-29.7684 727.433,-33.3044 721.752,-37.7456 715.467,-34.2096"/>
<text text-anchor="middle" x="264.471" y="-132.5" font-family="Helvetica,sans-Serif" font-size="10.00"> +segmentsPtr</text>
</g>
<!-- Node7 -->
<g id="node7" class="node"><title>Node7</title>
<g id="a_node7"><a xlink:href="structsequencer.html" target="_top" xlink:title="{sequencer\n||}">
<polygon fill="none" stroke="black" points="403.971,-106.5 403.971,-163.5 465.971,-163.5 465.971,-106.5 403.971,-106.5"/>
<text text-anchor="middle" x="434.971" y="-151.5" font-family="Helvetica,sans-Serif" font-size="10.00">sequencer</text>
<polyline fill="none" stroke="black" points="403.971,-144.5 465.971,-144.5 "/>
<text text-anchor="middle" x="434.971" y="-132.5" font-family="Helvetica,sans-Serif" font-size="10.00"> </text>
<polyline fill="none" stroke="black" points="403.971,-125.5 465.971,-125.5 "/>
<text text-anchor="middle" x="434.971" y="-113.5" font-family="Helvetica,sans-Serif" font-size="10.00"> </text>
</a>
</g>
</g>
<!-- Node2&#45;&gt;Node7 -->
<g id="edge28" class="edge"><title>Node2&#45;&gt;Node7</title>
<path fill="none" stroke="#404040" d="M66.4156,-234.497C73.2476,-214.103 83.1487,-188.723 91.9714,-182 138.175,-146.794 310.271,-138.528 391.718,-136.591"/>
<polygon fill="none" stroke="#404040" points="391.749,-136.59 397.663,-132.464 403.747,-136.336 397.833,-140.462 391.749,-136.59"/>
<text text-anchor="middle" x="124.471" y="-196.5" font-family="Helvetica,sans-Serif" font-size="10.00"> +segmentsPtr</text>
</g>
<!-- Node3 -->
<g id="node3" class="node"><title>Node3</title>
<g id="a_node3"><a xlink:href="structvector.html" target="_top" xlink:title="{vector\n||}">
<polygon fill="none" stroke="black" points="47.9714,-340.5 47.9714,-397.5 91.9714,-397.5 91.9714,-340.5 47.9714,-340.5"/>
<text text-anchor="middle" x="69.9714" y="-385.5" font-family="Helvetica,sans-Serif" font-size="10.00">vector</text>
<polyline fill="none" stroke="black" points="47.9714,-378.5 91.9714,-378.5 "/>
<text text-anchor="middle" x="69.9714" y="-366.5" font-family="Helvetica,sans-Serif" font-size="10.00"> </text>
<polyline fill="none" stroke="black" points="47.9714,-359.5 91.9714,-359.5 "/>
<text text-anchor="middle" x="69.9714" y="-347.5" font-family="Helvetica,sans-Serif" font-size="10.00"> </text>
</a>
</g>
</g>
<!-- Node3&#45;&gt;Node2 -->
<g id="edge2" class="edge"><title>Node3&#45;&gt;Node2</title>
<path fill="none" stroke="#404040" d="M47.815,-344.905C42.5834,-338.052 37.7287,-330.178 34.9714,-322 32.9045,-315.87 33.0535,-309.444 34.4971,-303.193"/>
<polygon fill="none" stroke="#404040" points="34.6265,-302.827 32.8552,-295.837 38.6264,-291.513 40.3977,-298.504 34.6265,-302.827"/>
<text text-anchor="middle" x="64.9714" y="-313.5" font-family="Helvetica,sans-Serif" font-size="10.00"> +contentsPtr</text>
</g>
<!-- Node4 -->
<g id="node4" class="node"><title>Node4</title>
<polygon fill="none" stroke="#bfbfbf" points="47.4714,-474.5 47.4714,-531.5 92.4714,-531.5 92.4714,-474.5 47.4714,-474.5"/>
<text text-anchor="middle" x="69.9714" y="-519.5" font-family="Helvetica,sans-Serif" font-size="10.00">void **</text>
<polyline fill="none" stroke="#bfbfbf" points="47.4714,-512.5 92.4714,-512.5 "/>
<text text-anchor="middle" x="69.9714" y="-500.5" font-family="Helvetica,sans-Serif" font-size="10.00"> </text>
<polyline fill="none" stroke="#bfbfbf" points="47.4714,-493.5 92.4714,-493.5 "/>
<text text-anchor="middle" x="69.9714" y="-481.5" font-family="Helvetica,sans-Serif" font-size="10.00"> </text>
</g>
<!-- Node4&#45;&gt;Node3 -->
<g id="edge3" class="edge"><title>Node4&#45;&gt;Node3</title>
<path fill="none" stroke="#404040" d="M69.9714,-474.328C69.9714,-455.584 69.9714,-430.528 69.9714,-409.668"/>
<polygon fill="none" stroke="#404040" points="69.9715,-409.635 65.9714,-403.635 69.9714,-397.635 73.9714,-403.635 69.9715,-409.635"/>
<text text-anchor="middle" x="94.4714" y="-430.5" font-family="Helvetica,sans-Serif" font-size="10.00"> +elements</text>
</g>
<!-- Node5 -->
<g id="node5" class="node"><title>Node5</title>
<polygon fill="none" stroke="#bfbfbf" points="491.471,-619.5 491.471,-676.5 526.471,-676.5 526.471,-619.5 491.471,-619.5"/>
<text text-anchor="middle" x="508.971" y="-664.5" font-family="Helvetica,sans-Serif" font-size="10.00">long</text>
<polyline fill="none" stroke="#bfbfbf" points="491.471,-657.5 526.471,-657.5 "/>
<text text-anchor="middle" x="508.971" y="-645.5" font-family="Helvetica,sans-Serif" font-size="10.00"> </text>
<polyline fill="none" stroke="#bfbfbf" points="491.471,-638.5 526.471,-638.5 "/>
<text text-anchor="middle" x="508.971" y="-626.5" font-family="Helvetica,sans-Serif" font-size="10.00"> </text>
</g>
<!-- Node5&#45;&gt;Node1 -->
<g id="edge35" class="edge"><title>Node5&#45;&gt;Node1</title>
<path fill="none" stroke="#404040" d="M526.969,-645.376C601.599,-638.57 883.519,-612.144 897.971,-600 932.095,-571.326 926.971,-548.571 926.971,-504 926.971,-504 926.971,-504 926.971,-134 926.971,-88.3795 879.534,-61.1793 838.013,-46.1093"/>
<polygon fill="none" stroke="#404040" points="837.858,-46.0564 830.886,-47.9008 826.503,-42.1752 833.474,-40.3308 837.858,-46.0564"/>
<text text-anchor="middle" x="963.971" y="-313.5" font-family="Helvetica,sans-Serif" font-size="10.00"> +preAllocLength</text>
</g>
<!-- Node5&#45;&gt;Node2 -->
<g id="edge6" class="edge"><title>Node5&#45;&gt;Node2</title>
<path fill="none" stroke="#404040" d="M491.384,-646.936C438.593,-646.274 277.406,-640.805 151.971,-600 97.1253,-582.158 71.5181,-584.915 37.9714,-538 -21.0054,-455.521 -0.609099,-406.674 29.9714,-310 30.7732,-307.465 31.7424,-304.926 32.8319,-302.414"/>
<polygon fill="none" stroke="#404040" points="32.8388,-302.401 31.9627,-295.243 38.2328,-291.681 39.1089,-298.839 32.8388,-302.401"/>
<text text-anchor="middle" x="23.4714" y="-436" font-family="Helvetica,sans-Serif" font-size="10.00"> +length</text>
<text text-anchor="middle" x="23.4714" y="-425" font-family="Helvetica,sans-Serif" font-size="10.00">+minNum</text>
</g>
<!-- Node5&#45;&gt;Node3 -->
<g id="edge4" class="edge"><title>Node5&#45;&gt;Node3</title>
<path fill="none" stroke="#404040" d="M491.355,-646.109C432.963,-642.891 246.614,-630.409 195.971,-600 120.261,-554.539 166.006,-491.964 120.971,-416 115.926,-407.49 108.795,-399.664 101.458,-392.973"/>
<polygon fill="none" stroke="#404040" points="101.36,-392.89 94.1954,-392.068 92.1986,-385.139 99.3627,-385.961 101.36,-392.89"/>
<text text-anchor="middle" x="172.971" y="-506" font-family="Helvetica,sans-Serif" font-size="10.00"> +capacity</text>
<text text-anchor="middle" x="172.971" y="-495" font-family="Helvetica,sans-Serif" font-size="10.00">+size</text>
</g>
<!-- Node5&#45;&gt;Node7 -->
<g id="edge34" class="edge"><title>Node5&#45;&gt;Node7</title>
<path fill="none" stroke="#404040" d="M504.069,-619.192C503.005,-612.888 501.916,-606.219 500.971,-600 483.526,-485.14 470.23,-456.117 473.971,-340 474.416,-326.201 481.527,-229.799 481.971,-216 482.458,-200.897 487.829,-195.93 481.971,-182 479.98,-177.264 477.236,-172.771 474.066,-168.583"/>
<polygon fill="none" stroke="#404040" points="473.937,-168.436 466.979,-166.543 466.05,-159.392 473.008,-161.285 473.937,-168.436"/>
<text text-anchor="middle" x="511.971" y="-366.5" font-family="Helvetica,sans-Serif" font-size="10.00"> +segmentLength</text>
</g>
<!-- Node8 -->
<g id="node8" class="node"><title>Node8</title>
<g id="a_node8"><a xlink:href="structhashtable.html" target="_top" xlink:title="{hashtable\n||}">
<polygon fill="none" stroke="black" points="654.471,-234.5 654.471,-291.5 713.471,-291.5 713.471,-234.5 654.471,-234.5"/>
<text text-anchor="middle" x="683.971" y="-279.5" font-family="Helvetica,sans-Serif" font-size="10.00">hashtable</text>
<polyline fill="none" stroke="black" points="654.471,-272.5 713.471,-272.5 "/>
<text text-anchor="middle" x="683.971" y="-260.5" font-family="Helvetica,sans-Serif" font-size="10.00"> </text>
<polyline fill="none" stroke="black" points="654.471,-253.5 713.471,-253.5 "/>
<text text-anchor="middle" x="683.971" y="-241.5" font-family="Helvetica,sans-Serif" font-size="10.00"> </text>
</a>
</g>
</g>
<!-- Node5&#45;&gt;Node8 -->
<g id="edge14" class="edge"><title>Node5&#45;&gt;Node8</title>
<path fill="none" stroke="#404040" d="M521.446,-619.48C538.484,-581.589 569.687,-511.095 593.971,-450 618.433,-388.461 611.706,-367.261 644.971,-310 646.697,-307.029 648.621,-304.065 650.664,-301.153"/>
<polygon fill="none" stroke="#404040" points="650.71,-301.093 651.144,-293.895 657.955,-291.527 657.521,-298.725 650.71,-301.093"/>
<text text-anchor="middle" x="639.471" y="-441.5" font-family="Helvetica,sans-Serif" font-size="10.00"> +growthFactor</text>
<text text-anchor="middle" x="639.471" y="-430.5" font-family="Helvetica,sans-Serif" font-size="10.00">+resizeRatio</text>
<text text-anchor="middle" x="639.471" y="-419.5" font-family="Helvetica,sans-Serif" font-size="10.00">+numBucket</text>
</g>
<!-- Node10 -->
<g id="node10" class="node"><title>Node10</title>
<g id="a_node10"><a xlink:href="structcomparator.html" target="_top" xlink:title="{comparator\n||+ comparator()\l+ comparator()\l}">
<polygon fill="none" stroke="black" points="786.971,-469 786.971,-537 866.971,-537 866.971,-469 786.971,-469"/>
<text text-anchor="middle" x="826.971" y="-525" font-family="Helvetica,sans-Serif" font-size="10.00">comparator</text>
<polyline fill="none" stroke="black" points="786.971,-518 866.971,-518 "/>
<text text-anchor="middle" x="826.971" y="-506" font-family="Helvetica,sans-Serif" font-size="10.00"> </text>
<polyline fill="none" stroke="black" points="786.971,-499 866.971,-499 "/>
<text text-anchor="start" x="794.971" y="-487" font-family="Helvetica,sans-Serif" font-size="10.00">+ comparator()</text>
<text text-anchor="start" x="794.971" y="-476" font-family="Helvetica,sans-Serif" font-size="10.00">+ comparator()</text>
</a>
</g>
</g>
<!-- Node5&#45;&gt;Node10 -->
<g id="edge12" class="edge"><title>Node5&#45;&gt;Node10</title>
<path fill="none" stroke="#404040" d="M526.694,-646.152C560.963,-643.752 637.544,-634.61 689.971,-600 710.596,-586.384 704.914,-571.735 723.971,-556 739.303,-543.34 758.23,-532.681 775.659,-524.373"/>
<polygon fill="none" stroke="#404040" points="775.932,-524.248 779.724,-518.115 786.844,-519.256 783.052,-525.389 775.932,-524.248"/>
<text text-anchor="middle" x="769.971" y="-592" font-family="Helvetica,sans-Serif" font-size="10.00"> +compare_tm</text>
<text text-anchor="middle" x="769.971" y="-581" font-family="Helvetica,sans-Serif" font-size="10.00">+compare_pair_notm</text>
<text text-anchor="middle" x="769.971" y="-570" font-family="Helvetica,sans-Serif" font-size="10.00">+compare_pair_tm</text>
<text text-anchor="middle" x="769.971" y="-559" font-family="Helvetica,sans-Serif" font-size="10.00">+compare_notm</text>
</g>
<!-- Node12 -->
<g id="node12" class="node"><title>Node12</title>
<g id="a_node12"><a xlink:href="structlist.html" target="_top" xlink:title="{list\n||}">
<polygon fill="none" stroke="black" points="741.471,-340.5 741.471,-397.5 770.471,-397.5 770.471,-340.5 741.471,-340.5"/>
<text text-anchor="middle" x="755.971" y="-385.5" font-family="Helvetica,sans-Serif" font-size="10.00">list</text>
<polyline fill="none" stroke="black" points="741.471,-378.5 770.471,-378.5 "/>
<text text-anchor="middle" x="755.971" y="-366.5" font-family="Helvetica,sans-Serif" font-size="10.00"> </text>
<polyline fill="none" stroke="black" points="741.471,-359.5 770.471,-359.5 "/>
<text text-anchor="middle" x="755.971" y="-347.5" font-family="Helvetica,sans-Serif" font-size="10.00"> </text>
</a>
</g>
</g>
<!-- Node5&#45;&gt;Node12 -->
<g id="edge20" class="edge"><title>Node5&#45;&gt;Node12</title>
<path fill="none" stroke="#404040" d="M526.569,-644.105C552.044,-639.119 599.476,-626.75 629.971,-600 689.702,-547.606 726.549,-459.766 743.955,-409.152"/>
<polygon fill="none" stroke="#404040" points="743.967,-409.117 742.073,-402.158 747.768,-397.735 749.661,-404.693 743.967,-409.117"/>
<text text-anchor="middle" x="734.971" y="-500.5" font-family="Helvetica,sans-Serif" font-size="10.00"> +size</text>
</g>
<!-- Node15 -->
<g id="node15" class="node"><title>Node15</title>
<g id="a_node15"><a xlink:href="structendInfoEntry.html" target="_top" xlink:title="{endInfoEntry\n||}">
<polygon fill="none" stroke="black" points="240.971,-234.5 240.971,-291.5 312.971,-291.5 312.971,-234.5 240.971,-234.5"/>
<text text-anchor="middle" x="276.971" y="-279.5" font-family="Helvetica,sans-Serif" font-size="10.00">endInfoEntry</text>
<polyline fill="none" stroke="black" points="240.971,-272.5 312.971,-272.5 "/>
<text text-anchor="middle" x="276.971" y="-260.5" font-family="Helvetica,sans-Serif" font-size="10.00"> </text>
<polyline fill="none" stroke="black" points="240.971,-253.5 312.971,-253.5 "/>
<text text-anchor="middle" x="276.971" y="-241.5" font-family="Helvetica,sans-Serif" font-size="10.00"> </text>
</a>
</g>
</g>
<!-- Node5&#45;&gt;Node15 -->
<g id="edge24" class="edge"><title>Node5&#45;&gt;Node15</title>
<path fill="none" stroke="#404040" d="M491.385,-635.801C478.154,-626.937 459.97,-613.789 445.971,-600 334.888,-490.58 282.205,-469.61 231.971,-322 229.465,-314.636 230.712,-307.487 234.064,-300.869"/>
<polygon fill="none" stroke="#404040" points="234.067,-300.865 234.143,-293.654 240.829,-290.951 240.752,-298.162 234.067,-300.865"/>
<text text-anchor="middle" x="326.471" y="-430.5" font-family="Helvetica,sans-Serif" font-size="10.00"> +jumpToNext</text>
</g>
<!-- Node17 -->
<g id="node17" class="node"><title>Node17</title>
<g id="a_node17"><a xlink:href="structtable.html" target="_top" xlink:title="{table\n||}">
<polygon fill="none" stroke="black" points="558.971,-234.5 558.971,-291.5 596.971,-291.5 596.971,-234.5 558.971,-234.5"/>
<text text-anchor="middle" x="577.971" y="-279.5" font-family="Helvetica,sans-Serif" font-size="10.00">table</text>
<polyline fill="none" stroke="black" points="558.971,-272.5 596.971,-272.5 "/>
<text text-anchor="middle" x="577.971" y="-260.5" font-family="Helvetica,sans-Serif" font-size="10.00"> </text>
<polyline fill="none" stroke="black" points="558.971,-253.5 596.971,-253.5 "/>
<text text-anchor="middle" x="577.971" y="-241.5" font-family="Helvetica,sans-Serif" font-size="10.00"> </text>
</a>
</g>
</g>
<!-- Node5&#45;&gt;Node17 -->
<g id="edge26" class="edge"><title>Node5&#45;&gt;Node17</title>
<path fill="none" stroke="#404040" d="M506.205,-619.337C502.931,-574.194 501.585,-483.006 534.971,-416 540.159,-405.589 548.448,-408.237 553.971,-398 569.69,-368.87 575.393,-331.508 577.334,-303.639"/>
<polygon fill="none" stroke="#404040" points="577.339,-303.549 573.668,-297.342 577.984,-291.566 581.656,-297.772 577.339,-303.549"/>
<text text-anchor="middle" x="564.471" y="-430.5" font-family="Helvetica,sans-Serif" font-size="10.00"> +numBucket</text>
</g>
<!-- Node18 -->
<g id="node18" class="node"><title>Node18</title>
<g id="a_node18"><a xlink:href="structconstructEntry.html" target="_top" xlink:title="{constructEntry\n||}">
<polygon fill="none" stroke="black" points="330.971,-234.5 330.971,-291.5 410.971,-291.5 410.971,-234.5 330.971,-234.5"/>
<text text-anchor="middle" x="370.971" y="-279.5" font-family="Helvetica,sans-Serif" font-size="10.00">constructEntry</text>
<polyline fill="none" stroke="black" points="330.971,-272.5 410.971,-272.5 "/>
<text text-anchor="middle" x="370.971" y="-260.5" font-family="Helvetica,sans-Serif" font-size="10.00"> </text>
<polyline fill="none" stroke="black" points="330.971,-253.5 410.971,-253.5 "/>
<text text-anchor="middle" x="370.971" y="-241.5" font-family="Helvetica,sans-Serif" font-size="10.00"> </text>
</a>
</g>
</g>
<!-- Node5&#45;&gt;Node18 -->
<g id="edge33" class="edge"><title>Node5&#45;&gt;Node18</title>
<path fill="none" stroke="#404040" d="M491.19,-629.036C483.784,-620.752 475.614,-610.449 469.971,-600 436.841,-538.642 440.353,-517.78 423.971,-450 409.123,-388.562 421.341,-369.116 398.971,-310 398.03,-307.513 396.953,-305.012 395.781,-302.529"/>
<polygon fill="none" stroke="#404040" points="395.759,-302.487 389.424,-299.042 390.168,-291.869 396.503,-295.314 395.759,-302.487"/>
<text text-anchor="middle" x="446.971" y="-441.5" font-family="Helvetica,sans-Serif" font-size="10.00"> +length</text>
<text text-anchor="middle" x="446.971" y="-430.5" font-family="Helvetica,sans-Serif" font-size="10.00">+overlap</text>
<text text-anchor="middle" x="446.971" y="-419.5" font-family="Helvetica,sans-Serif" font-size="10.00">+endHash</text>
</g>
<!-- Node6 -->
<g id="node6" class="node"><title>Node6</title>
<polygon fill="none" stroke="#bfbfbf" points="146.471,-340.5 146.471,-397.5 181.471,-397.5 181.471,-340.5 146.471,-340.5"/>
<text text-anchor="middle" x="163.971" y="-385.5" font-family="Helvetica,sans-Serif" font-size="10.00">char</text>
<polyline fill="none" stroke="#bfbfbf" points="146.471,-378.5 181.471,-378.5 "/>
<text text-anchor="middle" x="163.971" y="-366.5" font-family="Helvetica,sans-Serif" font-size="10.00"> </text>
<polyline fill="none" stroke="#bfbfbf" points="146.471,-359.5 181.471,-359.5 "/>
<text text-anchor="middle" x="163.971" y="-347.5" font-family="Helvetica,sans-Serif" font-size="10.00"> </text>
</g>
<!-- Node6&#45;&gt;Node2 -->
<g id="edge5" class="edge"><title>Node6&#45;&gt;Node2</title>
<path fill="none" stroke="#404040" d="M146.468,-350.827C132.547,-337.169 112.58,-317.578 95.134,-300.461"/>
<polygon fill="none" stroke="#404040" points="94.8518,-300.185 87.7675,-298.838 86.286,-291.78 93.3703,-293.127 94.8518,-300.185"/>
<text text-anchor="middle" x="134.471" y="-313.5" font-family="Helvetica,sans-Serif" font-size="10.00"> +strings</text>
</g>
<!-- Node6&#45;&gt;Node7 -->
<g id="edge21" class="edge"><title>Node6&#45;&gt;Node7</title>
<path fill="none" stroke="#404040" d="M160.073,-340.414C157.475,-311.271 157.873,-265.29 179.971,-234 228.529,-165.245 332.319,-144.72 391.421,-138.598"/>
<polygon fill="none" stroke="#404040" points="391.72,-138.571 397.328,-134.037 403.67,-137.47 398.062,-142.003 391.72,-138.571"/>
<text text-anchor="middle" x="205.971" y="-260.5" font-family="Helvetica,sans-Serif" font-size="10.00"> +sequence</text>
</g>
<!-- Node6&#45;&gt;Node18 -->
<g id="edge30" class="edge"><title>Node6&#45;&gt;Node18</title>
<path fill="none" stroke="#404040" d="M181.637,-354.814C199.737,-341.84 229.097,-322.244 256.971,-310 281.307,-299.31 291.835,-302.487 319.304,-292.54"/>
<polygon fill="none" stroke="#404040" points="319.564,-292.437 323.675,-286.512 330.725,-288.028 326.614,-293.953 319.564,-292.437"/>
<text text-anchor="middle" x="280.471" y="-313.5" font-family="Helvetica,sans-Serif" font-size="10.00"> +segment</text>
</g>
<!-- Node7&#45;&gt;Node1 -->
<g id="edge7" class="edge"><title>Node7&#45;&gt;Node1</title>
<path fill="none" stroke="#404040" d="M466.228,-124.495C522.616,-107.348 642.3,-70.9528 715.575,-48.6702"/>
<polygon fill="none" stroke="#404040" points="715.881,-48.5771 720.458,-43.0045 727.362,-45.0858 722.786,-50.6584 715.881,-48.5771"/>
<text text-anchor="middle" x="650.471" y="-79.5" font-family="Helvetica,sans-Serif" font-size="10.00"> +sequencerPtr</text>
</g>
<!-- Node8&#45;&gt;Node7 -->
<g id="edge8" class="edge"><title>Node8&#45;&gt;Node7</title>
<path fill="none" stroke="#404040" d="M683.398,-234.173C681.525,-216.794 676.184,-195.272 661.971,-182 635.823,-157.583 536.35,-144.885 478.121,-139.412"/>
<polygon fill="none" stroke="#404040" points="477.966,-139.398 471.632,-142.844 466.015,-138.322 472.349,-134.876 477.966,-139.398"/>
<text text-anchor="middle" x="727.471" y="-196.5" font-family="Helvetica,sans-Serif" font-size="10.00"> +uniqueSegmentsPtr</text>
</g>
<!-- Node9 -->
<g id="node9" class="node"><title>Node9</title>
<g id="a_node9"><a xlink:href="classunsigned_01long.html" target="_top" xlink:title="{unsigned long\n||}">
<polygon fill="none" stroke="black" points="644.471,-340.5 644.471,-397.5 721.471,-397.5 721.471,-340.5 644.471,-340.5"/>
<text text-anchor="middle" x="682.971" y="-385.5" font-family="Helvetica,sans-Serif" font-size="10.00">unsigned long</text>
<polyline fill="none" stroke="black" points="644.471,-378.5 721.471,-378.5 "/>
<text text-anchor="middle" x="682.971" y="-366.5" font-family="Helvetica,sans-Serif" font-size="10.00"> </text>
<polyline fill="none" stroke="black" points="644.471,-359.5 721.471,-359.5 "/>
<text text-anchor="middle" x="682.971" y="-347.5" font-family="Helvetica,sans-Serif" font-size="10.00"> </text>
</a>
</g>
</g>
<!-- Node9&#45;&gt;Node8 -->
<g id="edge9" class="edge"><title>Node9&#45;&gt;Node8</title>
<path fill="none" stroke="#404040" d="M656.146,-340.437C650.184,-331.135 646.528,-320.453 649.971,-310 650.863,-307.294 651.981,-304.617 653.265,-301.996"/>
<polygon fill="none" stroke="#404040" points="653.274,-301.981 652.837,-294.783 659.312,-291.61 659.75,-298.808 653.274,-301.981"/>
<text text-anchor="middle" x="665.471" y="-313.5" font-family="Helvetica,sans-Serif" font-size="10.00"> +hash</text>
</g>
<!-- Node10&#45;&gt;Node8 -->
<g id="edge10" class="edge"><title>Node10&#45;&gt;Node8</title>
<path fill="none" stroke="#404040" d="M832.097,-468.979C836.636,-427.373 837.823,-355.788 801.971,-310 783.599,-286.536 751.605,-275.023 725.563,-269.384"/>
<polygon fill="none" stroke="#404040" points="725.503,-269.373 718.859,-272.177 713.715,-267.123 720.359,-264.319 725.503,-269.373"/>
<text text-anchor="middle" x="867.971" y="-366.5" font-family="Helvetica,sans-Serif" font-size="10.00"> +comparePairs</text>
</g>
<!-- Node10&#45;&gt;Node12 -->
<g id="edge19" class="edge"><title>Node10&#45;&gt;Node12</title>
<path fill="none" stroke="#404040" d="M786.866,-481.621C775.078,-473.491 763.582,-462.943 756.971,-450 750.795,-437.907 749.19,-423.384 749.566,-410.051"/>
<polygon fill="none" stroke="#404040" points="749.59,-409.719 746.029,-403.448 750.448,-397.75 754.009,-404.02 749.59,-409.719"/>
<text text-anchor="middle" x="785.971" y="-430.5" font-family="Helvetica,sans-Serif" font-size="10.00"> +comparator</text>
</g>
<!-- Node11 -->
<g id="node11" class="node"><title>Node11</title>
<polygon fill="none" stroke="#bfbfbf" points="839.471,-619 839.471,-677 868.471,-677 868.471,-619 839.471,-619"/>
<polyline fill="none" stroke="#bfbfbf" points="839.471,-657 868.471,-657 "/>
<text text-anchor="middle" x="853.971" y="-645" font-family="Helvetica,sans-Serif" font-size="10.00"> </text>
<polyline fill="none" stroke="#bfbfbf" points="839.471,-638 868.471,-638 "/>
<text text-anchor="middle" x="853.971" y="-626" font-family="Helvetica,sans-Serif" font-size="10.00"> </text>
</g>
<!-- Node11&#45;&gt;Node10 -->
<g id="edge11" class="edge"><title>Node11&#45;&gt;Node10</title>
<path fill="none" stroke="#404040" d="M860.23,-618.597C863.105,-600.377 864.746,-576.401 858.971,-556 858.232,-553.39 857.322,-550.781 856.28,-548.201"/>
<polygon fill="none" stroke="#404040" points="856.174,-547.978 849.981,-544.283 851.01,-537.146 857.203,-540.84 856.174,-547.978"/>
<text text-anchor="middle" x="878.471" y="-575.5" font-family="Helvetica,sans-Serif" font-size="10.00"> +@23</text>
</g>
<!-- Node11&#45;&gt;Node10 -->
<g id="edge13" class="edge"><title>Node11&#45;&gt;Node10</title>
<path fill="none" stroke="#404040" d="M839.375,-629.438C833.351,-621.072 827.064,-610.593 823.971,-600 819.242,-583.801 818.721,-565.406 819.82,-549.084"/>
<polygon fill="none" stroke="#404040" points="819.825,-549.026 816.396,-542.682 820.933,-537.077 824.362,-543.421 819.825,-549.026"/>
<text text-anchor="middle" x="839.471" y="-575.5" font-family="Helvetica,sans-Serif" font-size="10.00"> +@21</text>
</g>
<!-- Node12&#45;&gt;Node8 -->
<g id="edge15" class="edge"><title>Node12&#45;&gt;Node8</title>
<path fill="none" stroke="#404040" d="M756.605,-340.221C755.726,-330.108 753.375,-318.967 747.971,-310 742.059,-300.188 733.169,-291.874 723.881,-285.128"/>
<polygon fill="none" stroke="#404040" points="723.771,-285.055 716.56,-285.075 713.769,-278.426 720.98,-278.407 723.771,-285.055"/>
<text text-anchor="middle" x="775.971" y="-313.5" font-family="Helvetica,sans-Serif" font-size="10.00"> +buckets</text>
</g>
<!-- Node12&#45;&gt;Node17 -->
<g id="edge27" class="edge"><title>Node12&#45;&gt;Node17</title>
<path fill="none" stroke="#404040" d="M741.293,-350.648C737.769,-346.934 733.887,-343.176 729.971,-340 717.895,-330.206 713.212,-330.152 699.971,-322 691.466,-316.764 689.776,-314.715 680.971,-310 657.303,-297.325 629.446,-285.033 608.674,-276.349"/>
<polygon fill="none" stroke="#404040" points="608.441,-276.253 601.369,-277.663 597.348,-271.678 604.419,-270.268 608.441,-276.253"/>
<text text-anchor="middle" x="721.971" y="-313.5" font-family="Helvetica,sans-Serif" font-size="10.00"> +buckets</text>
</g>
<!-- Node13 -->
<g id="node13" class="node"><title>Node13</title>
<g id="a_node13"><a xlink:href="structlist__node.html" target="_top" xlink:title="{list_node\n||}">
<polygon fill="none" stroke="black" points="954.971,-474.5 954.971,-531.5 1010.97,-531.5 1010.97,-474.5 954.971,-474.5"/>
<text text-anchor="middle" x="982.971" y="-519.5" font-family="Helvetica,sans-Serif" font-size="10.00">list_node</text>
<polyline fill="none" stroke="black" points="954.971,-512.5 1010.97,-512.5 "/>
<text text-anchor="middle" x="982.971" y="-500.5" font-family="Helvetica,sans-Serif" font-size="10.00"> </text>
<polyline fill="none" stroke="black" points="954.971,-493.5 1010.97,-493.5 "/>
<text text-anchor="middle" x="982.971" y="-481.5" font-family="Helvetica,sans-Serif" font-size="10.00"> </text>
</a>
</g>
</g>
<!-- Node13&#45;&gt;Node12 -->
<g id="edge16" class="edge"><title>Node13&#45;&gt;Node12</title>
<path fill="none" stroke="#404040" d="M954.681,-485.549C910.044,-459.593 823.974,-409.543 781.273,-384.713"/>
<polygon fill="none" stroke="#404040" points="781.06,-384.589 773.863,-385.031 770.686,-378.557 777.884,-378.115 781.06,-384.589"/>
<text text-anchor="middle" x="905.471" y="-430.5" font-family="Helvetica,sans-Serif" font-size="10.00"> +head</text>
</g>
<!-- Node13&#45;&gt;Node13 -->
<g id="edge17" class="edge"><title>Node13&#45;&gt;Node13</title>
<path fill="none" stroke="#404040" d="M1011.1,-516.125C1020.47,-516.125 1027.97,-511.75 1027.97,-503 1027.97,-498.488 1025.98,-495.14 1022.76,-492.954"/>
<polygon fill="none" stroke="#404040" points="1022.7,-492.938 1015.88,-495.274 1011.1,-489.875 1017.92,-487.539 1022.7,-492.938"/>
<text text-anchor="middle" x="1048.47" y="-500.5" font-family="Helvetica,sans-Serif" font-size="10.00"> +nextPtr</text>
</g>
<!-- Node14 -->
<g id="node14" class="node"><title>Node14</title>
<polygon fill="none" stroke="#bfbfbf" points="962.471,-619.5 962.471,-676.5 1003.47,-676.5 1003.47,-619.5 962.471,-619.5"/>
<text text-anchor="middle" x="982.971" y="-664.5" font-family="Helvetica,sans-Serif" font-size="10.00">void *</text>
<polyline fill="none" stroke="#bfbfbf" points="962.471,-657.5 1003.47,-657.5 "/>
<text text-anchor="middle" x="982.971" y="-645.5" font-family="Helvetica,sans-Serif" font-size="10.00"> </text>
<polyline fill="none" stroke="#bfbfbf" points="962.471,-638.5 1003.47,-638.5 "/>
<text text-anchor="middle" x="982.971" y="-626.5" font-family="Helvetica,sans-Serif" font-size="10.00"> </text>
</g>
<!-- Node14&#45;&gt;Node13 -->
<g id="edge18" class="edge"><title>Node14&#45;&gt;Node13</title>
<path fill="none" stroke="#404040" d="M982.971,-619.428C982.971,-598.101 982.971,-568.261 982.971,-544.264"/>
<polygon fill="none" stroke="#404040" points="982.971,-543.975 978.971,-537.975 982.971,-531.975 986.971,-537.975 982.971,-543.975"/>
<text text-anchor="middle" x="1003.47" y="-575.5" font-family="Helvetica,sans-Serif" font-size="10.00"> +dataPtr</text>
</g>
<!-- Node15&#45;&gt;Node7 -->
<g id="edge22" class="edge"><title>Node15&#45;&gt;Node7</title>
<path fill="none" stroke="#404040" d="M282.427,-234.321C287.102,-217.223 295.463,-195.958 309.971,-182 332.197,-160.616 365.194,-149.028 391.706,-142.833"/>
<polygon fill="none" stroke="#404040" points="392.006,-142.769 397.045,-137.611 403.745,-140.278 398.706,-145.436 392.006,-142.769"/>
<text text-anchor="middle" x="346.471" y="-196.5" font-family="Helvetica,sans-Serif" font-size="10.00"> +endInfoEntries</text>
</g>
<!-- Node16 -->
<g id="node16" class="node"><title>Node16</title>
<polygon fill="none" stroke="#bfbfbf" points="326.471,-340.5 326.471,-397.5 355.471,-397.5 355.471,-340.5 326.471,-340.5"/>
<text text-anchor="middle" x="340.971" y="-385.5" font-family="Helvetica,sans-Serif" font-size="10.00">int</text>
<polyline fill="none" stroke="#bfbfbf" points="326.471,-378.5 355.471,-378.5 "/>
<text text-anchor="middle" x="340.971" y="-366.5" font-family="Helvetica,sans-Serif" font-size="10.00"> </text>
<polyline fill="none" stroke="#bfbfbf" points="326.471,-359.5 355.471,-359.5 "/>
<text text-anchor="middle" x="340.971" y="-347.5" font-family="Helvetica,sans-Serif" font-size="10.00"> </text>
</g>
<!-- Node16&#45;&gt;Node15 -->
<g id="edge23" class="edge"><title>Node16&#45;&gt;Node15</title>
<path fill="none" stroke="#404040" d="M326.449,-344.401C318.749,-331.888 309.101,-316.211 300.375,-302.031"/>
<polygon fill="none" stroke="#404040" points="300.218,-301.776 293.667,-298.763 293.929,-291.557 300.481,-294.57 300.218,-301.776"/>
<text text-anchor="middle" x="327.971" y="-313.5" font-family="Helvetica,sans-Serif" font-size="10.00"> +isEnd</text>
</g>
<!-- Node16&#45;&gt;Node18 -->
<g id="edge32" class="edge"><title>Node16&#45;&gt;Node18</title>
<path fill="none" stroke="#404040" d="M348.932,-340.403C352.187,-329.12 356.013,-315.854 359.557,-303.571"/>
<polygon fill="none" stroke="#404040" points="359.647,-303.256 357.467,-296.382 362.973,-291.726 365.154,-298.6 359.647,-303.256"/>
<text text-anchor="middle" x="375.971" y="-313.5" font-family="Helvetica,sans-Serif" font-size="10.00"> +isStart</text>
</g>
<!-- Node17&#45;&gt;Node7 -->
<g id="edge25" class="edge"><title>Node17&#45;&gt;Node7</title>
<path fill="none" stroke="#404040" d="M558.82,-245.386C549.637,-236.997 538.753,-226.411 529.971,-216 518.208,-202.055 520.04,-194.73 506.971,-182 497.966,-173.228 487.033,-165.223 476.434,-158.438"/>
<polygon fill="none" stroke="#404040" points="476.269,-158.337 469.063,-158.619 466.031,-152.076 473.237,-151.794 476.269,-158.337"/>
<text text-anchor="middle" x="595.971" y="-207.5" font-family="Helvetica,sans-Serif" font-size="10.00"> +hashToConstructEntryTable</text>
<text text-anchor="start" x="529.971" y="-196.5" font-family="Helvetica,sans-Serif" font-size="10.00">+startHashToConstructEntry</text>
<text text-anchor="middle" x="595.971" y="-185.5" font-family="Helvetica,sans-Serif" font-size="10.00">Tables</text>
</g>
<!-- Node18&#45;&gt;Node7 -->
<g id="edge29" class="edge"><title>Node18&#45;&gt;Node7</title>
<path fill="none" stroke="#404040" d="M379.297,-234.141C384.525,-218.372 391.979,-198.553 400.971,-182 402.423,-179.328 404.014,-176.636 405.69,-173.969"/>
<polygon fill="none" stroke="#404040" points="405.77,-173.85 405.796,-166.639 412.463,-163.889 412.437,-171.1 405.77,-173.85"/>
<text text-anchor="middle" x="441.471" y="-196.5" font-family="Helvetica,sans-Serif" font-size="10.00"> +constructEntries</text>
</g>
<!-- Node18&#45;&gt;Node18 -->
<g id="edge31" class="edge"><title>Node18&#45;&gt;Node18</title>
<path fill="none" stroke="#404040" d="M411.09,-272.633C421.304,-272 428.971,-268.789 428.971,-263 428.971,-259.834 426.678,-257.439 422.929,-255.815"/>
<polygon fill="none" stroke="#404040" points="422.841,-255.797 416.155,-258.499 411.09,-253.367 417.776,-250.665 422.841,-255.797"/>
<text text-anchor="middle" x="448.471" y="-271.5" font-family="Helvetica,sans-Serif" font-size="10.00"> +endPtr</text>
<text text-anchor="middle" x="448.471" y="-260.5" font-family="Helvetica,sans-Serif" font-size="10.00">+startPtr</text>
<text text-anchor="middle" x="448.471" y="-249.5" font-family="Helvetica,sans-Serif" font-size="10.00">+nextPtr</text>
</g>
<!-- Node19 -->
<g id="node19" class="node"><title>Node19</title>
<polygon fill="none" stroke="#bfbfbf" points="954.971,-106.5 954.971,-163.5 996.971,-163.5 996.971,-106.5 954.971,-106.5"/>
<text text-anchor="middle" x="975.971" y="-151.5" font-family="Helvetica,sans-Serif" font-size="10.00">char *</text>
<polyline fill="none" stroke="#bfbfbf" points="954.971,-144.5 996.971,-144.5 "/>
<text text-anchor="middle" x="975.971" y="-132.5" font-family="Helvetica,sans-Serif" font-size="10.00"> </text>
<polyline fill="none" stroke="#bfbfbf" points="954.971,-125.5 996.971,-125.5 "/>
<text text-anchor="middle" x="975.971" y="-113.5" font-family="Helvetica,sans-Serif" font-size="10.00"> </text>
</g>
<!-- Node19&#45;&gt;Node1 -->
<g id="edge36" class="edge"><title>Node19&#45;&gt;Node1</title>
<path fill="none" stroke="#404040" d="M964.693,-106.271C959.031,-95.4321 951.172,-83.7647 940.971,-76 911.658,-53.6853 872.034,-42.1954 839.079,-36.2793"/>
<polygon fill="none" stroke="#404040" points="838.653,-36.2097 832.086,-39.1894 826.81,-34.2738 833.377,-31.2942 838.653,-36.2097"/>
<text text-anchor="middle" x="991.971" y="-79.5" font-family="Helvetica,sans-Serif" font-size="10.00"> +returnSequence</text>
</g>
</g>
</svg>
