<?xml version="1.0" encoding="UTF-8" standalone="no"?>
<!DOCTYPE svg PUBLIC "-//W3C//DTD SVG 1.1//EN"
 "http://www.w3.org/Graphics/SVG/1.1/DTD/svg11.dtd">
<!-- Generated by graphviz version 2.36.0 (20140111.2315)
 -->
<!-- Title: stm::HourglassBackoffCM::onAbort Pages: 1 -->
<svg width="418pt" height="104pt"
 viewBox="0.00 0.00 418.00 104.00" xmlns="http://www.w3.org/2000/svg" xmlns:xlink="http://www.w3.org/1999/xlink">
<g id="graph0" class="graph" transform="scale(1 1) rotate(0) translate(4 100)">
<title>stm::HourglassBackoffCM::onAbort</title>
<!-- Node1 -->
<g id="node1" class="node"><title>Node1</title>
<polygon fill="#bfbfbf" stroke="black" points="0.5,-52 0.5,-82 133.5,-82 133.5,-52 0.5,-52"/>
<text text-anchor="start" x="8.5" y="-70" font-family="Helvetica,sans-Serif" font-size="10.00">stm::HourglassBackoffCM</text>
<text text-anchor="middle" x="67" y="-59" font-family="Helvetica,sans-Serif" font-size="10.00">::onAbort</text>
</g>
<!-- Node2 -->
<g id="node2" class="node"><title>Node2</title>
<g id="a_node2"><a xlink:href="structstm_1_1toxic__nop__t.html#a2397c1745f439c2aafb48fada22200fe" target="_top" xlink:title="stm::toxic_nop_t::onHGAbort">
<polygon fill="none" stroke="black" points="170,-76.5 170,-95.5 314,-95.5 314,-76.5 170,-76.5"/>
<text text-anchor="middle" x="242" y="-83.5" font-family="Helvetica,sans-Serif" font-size="10.00">stm::toxic_nop_t::onHGAbort</text>
</a>
</g>
</g>
<!-- Node1&#45;&gt;Node2 -->
<g id="edge1" class="edge"><title>Node1&#45;&gt;Node2</title>
<path fill="none" stroke="midnightblue" d="M133.897,-74.2373C142.339,-75.1644 151.059,-76.1221 159.709,-77.0721"/>
<polygon fill="midnightblue" stroke="midnightblue" points="159.488,-80.5688 169.81,-78.1815 160.252,-73.6106 159.488,-80.5688"/>
</g>
<!-- Node3 -->
<g id="node3" class="node"><title>Node3</title>
<g id="a_node3"><a xlink:href="namespacestm.html#af27d33b081d718c75a64717907e3dbd4" target="_top" xlink:title="stm::exp_backoff">
<polygon fill="none" stroke="black" points="196,-38.5 196,-57.5 288,-57.5 288,-38.5 196,-38.5"/>
<text text-anchor="middle" x="242" y="-45.5" font-family="Helvetica,sans-Serif" font-size="10.00">stm::exp_backoff</text>
</a>
</g>
</g>
<!-- Node1&#45;&gt;Node3 -->
<g id="edge2" class="edge"><title>Node1&#45;&gt;Node3</title>
<path fill="none" stroke="midnightblue" d="M133.897,-59.7627C151.057,-57.8782 169.365,-55.8675 185.901,-54.0513"/>
<polygon fill="midnightblue" stroke="midnightblue" points="186.384,-57.5194 195.942,-52.9485 185.62,-50.5612 186.384,-57.5194"/>
</g>
<!-- Node4 -->
<g id="node4" class="node"><title>Node4</title>
<g id="a_node4"><a xlink:href="rand__r__32_8h.html#afaaf1d013ccb194d66735f6e59dcc930" target="_top" xlink:title="rand_r_32">
<polygon fill="none" stroke="black" points="350.5,-76.5 350.5,-95.5 409.5,-95.5 409.5,-76.5 350.5,-76.5"/>
<text text-anchor="middle" x="380" y="-83.5" font-family="Helvetica,sans-Serif" font-size="10.00">rand_r_32</text>
</a>
</g>
</g>
<!-- Node3&#45;&gt;Node4 -->
<g id="edge3" class="edge"><title>Node3&#45;&gt;Node4</title>
<path fill="none" stroke="midnightblue" d="M279.163,-57.5061C290.346,-60.4918 302.695,-63.8356 314,-67 322.544,-69.3917 331.7,-72.0245 340.364,-74.5484"/>
<polygon fill="midnightblue" stroke="midnightblue" points="339.662,-77.9897 350.242,-77.4402 341.628,-71.2717 339.662,-77.9897"/>
</g>
<!-- Node5 -->
<g id="node5" class="node"><title>Node5</title>
<g id="a_node5"><a xlink:href="avltree_8c.html#aef0786e63ba14dfdb6d8632333208422" target="_top" xlink:title="start">
<polygon fill="none" stroke="black" points="362,-38.5 362,-57.5 398,-57.5 398,-38.5 362,-38.5"/>
<text text-anchor="middle" x="380" y="-45.5" font-family="Helvetica,sans-Serif" font-size="10.00">start</text>
</a>
</g>
</g>
<!-- Node3&#45;&gt;Node5 -->
<g id="edge4" class="edge"><title>Node3&#45;&gt;Node5</title>
<path fill="none" stroke="midnightblue" d="M288.286,-48C309.245,-48 333.457,-48 351.592,-48"/>
<polygon fill="midnightblue" stroke="midnightblue" points="351.756,-51.5001 361.756,-48 351.756,-44.5001 351.756,-51.5001"/>
</g>
<!-- Node6 -->
<g id="node6" class="node"><title>Node6</title>
<g id="a_node6"><a xlink:href="locks_8hpp.html#a67493dc021b0db009a9603ea55d18c59" target="_top" xlink:title="spin64">
<polygon fill="none" stroke="black" points="357.5,-0.5 357.5,-19.5 402.5,-19.5 402.5,-0.5 357.5,-0.5"/>
<text text-anchor="middle" x="380" y="-7.5" font-family="Helvetica,sans-Serif" font-size="10.00">spin64</text>
</a>
</g>
</g>
<!-- Node3&#45;&gt;Node6 -->
<g id="edge5" class="edge"><title>Node3&#45;&gt;Node6</title>
<path fill="none" stroke="midnightblue" d="M277.319,-38.411C298.958,-32.3647 326.686,-24.6172 347.719,-18.7403"/>
<polygon fill="midnightblue" stroke="midnightblue" points="348.761,-22.0832 357.45,-16.0212 346.877,-15.3414 348.761,-22.0832"/>
</g>
</g>
</svg>
