<?xml version="1.0" encoding="UTF-8" standalone="no"?>
<!DOCTYPE svg PUBLIC "-//W3C//DTD SVG 1.1//EN"
 "http://www.w3.org/Graphics/SVG/1.1/DTD/svg11.dtd">
<!-- Generated by graphviz version 2.36.0 (20140111.2315)
 -->
<!-- Title: stm::pad_word_t Pages: 1 -->
<svg width="113pt" height="172pt"
 viewBox="0.00 0.00 113.00 172.00" xmlns="http://www.w3.org/2000/svg" xmlns:xlink="http://www.w3.org/1999/xlink">
<g id="graph0" class="graph" transform="scale(1 1) rotate(0) translate(4 168)">
<title>stm::pad_word_t</title>
<!-- Node1 -->
<g id="node1" class="node"><title>Node1</title>
<polygon fill="#bfbfbf" stroke="black" points="3.5,-0.5 3.5,-57.5 92.5,-57.5 92.5,-0.5 3.5,-0.5"/>
<text text-anchor="middle" x="48" y="-45.5" font-family="Helvetica,sans-Serif" font-size="10.00">stm::pad_word_t</text>
<polyline fill="none" stroke="black" points="3.5,-38.5 92.5,-38.5 "/>
<text text-anchor="middle" x="48" y="-26.5" font-family="Helvetica,sans-Serif" font-size="10.00"> </text>
<polyline fill="none" stroke="black" points="3.5,-19.5 92.5,-19.5 "/>
<text text-anchor="middle" x="48" y="-7.5" font-family="Helvetica,sans-Serif" font-size="10.00"> </text>
</g>
<!-- Node2 -->
<g id="node2" class="node"><title>Node2</title>
<polygon fill="none" stroke="#bfbfbf" points="-0.5,-106.5 -0.5,-163.5 34.5,-163.5 34.5,-106.5 -0.5,-106.5"/>
<text text-anchor="middle" x="17" y="-151.5" font-family="Helvetica,sans-Serif" font-size="10.00">char</text>
<polyline fill="none" stroke="#bfbfbf" points="-0.5,-144.5 34.5,-144.5 "/>
<text text-anchor="middle" x="17" y="-132.5" font-family="Helvetica,sans-Serif" font-size="10.00"> </text>
<polyline fill="none" stroke="#bfbfbf" points="-0.5,-125.5 34.5,-125.5 "/>
<text text-anchor="middle" x="17" y="-113.5" font-family="Helvetica,sans-Serif" font-size="10.00"> </text>
</g>
<!-- Node2&#45;&gt;Node1 -->
<g id="edge1" class="edge"><title>Node2&#45;&gt;Node1</title>
<path fill="none" stroke="#404040" d="M23.6395,-106.433C26.098,-96.762 29.0171,-85.8552 32,-76 32.6797,-73.7542 33.4001,-71.4548 34.1443,-69.1398"/>
<polygon fill="none" stroke="#404040" points="34.1925,-68.9951 32.2945,-62.0382 37.9863,-57.6106 39.8842,-64.5674 34.1925,-68.9951"/>
<text text-anchor="middle" x="44.5" y="-79.5" font-family="Helvetica,sans-Serif" font-size="10.00"> +pad</text>
</g>
<!-- Node3 -->
<g id="node3" class="node"><title>Node3</title>
<polygon fill="none" stroke="#bfbfbf" points="53,-106.5 53,-163.5 105,-163.5 105,-106.5 53,-106.5"/>
<text text-anchor="middle" x="79" y="-151.5" font-family="Helvetica,sans-Serif" font-size="10.00">uintptr_t</text>
<polyline fill="none" stroke="#bfbfbf" points="53,-144.5 105,-144.5 "/>
<text text-anchor="middle" x="79" y="-132.5" font-family="Helvetica,sans-Serif" font-size="10.00"> </text>
<polyline fill="none" stroke="#bfbfbf" points="53,-125.5 105,-125.5 "/>
<text text-anchor="middle" x="79" y="-113.5" font-family="Helvetica,sans-Serif" font-size="10.00"> </text>
</g>
<!-- Node3&#45;&gt;Node1 -->
<g id="edge2" class="edge"><title>Node3&#45;&gt;Node1</title>
<path fill="none" stroke="#404040" d="M70.774,-106.403C67.4107,-95.1198 63.4566,-81.8542 59.7953,-69.5714"/>
<polygon fill="none" stroke="#404040" points="59.6924,-69.226 54.1451,-64.6187 56.2645,-57.726 61.8118,-62.3334 59.6924,-69.226"/>
<text text-anchor="middle" x="76" y="-79.5" font-family="Helvetica,sans-Serif" font-size="10.00"> +val</text>
</g>
</g>
</svg>
