<?xml version="1.0" encoding="UTF-8" standalone="no"?>
<!DOCTYPE svg PUBLIC "-//W3C//DTD SVG 1.1//EN"
 "http://www.w3.org/Graphics/SVG/1.1/DTD/svg11.dtd">
<!-- Generated by graphviz version 2.36.0 (20140111.2315)
 -->
<!-- Title: stm::ValueList Pages: 1 -->
<svg width="156pt" height="366pt"
 viewBox="0.00 0.00 156.00 366.00" xmlns="http://www.w3.org/2000/svg" xmlns:xlink="http://www.w3.org/1999/xlink">
<g id="graph0" class="graph" transform="scale(1 1) rotate(0) translate(4 362)">
<title>stm::ValueList</title>
<!-- Node1 -->
<g id="node1" class="node"><title>Node1</title>
<polygon fill="#bfbfbf" stroke="black" points="27,-0.5 27,-57.5 107,-57.5 107,-0.5 27,-0.5"/>
<text text-anchor="middle" x="67" y="-45.5" font-family="Helvetica,sans-Serif" font-size="10.00">stm::ValueList</text>
<polyline fill="none" stroke="black" points="27,-38.5 107,-38.5 "/>
<text text-anchor="middle" x="67" y="-26.5" font-family="Helvetica,sans-Serif" font-size="10.00"> </text>
<polyline fill="none" stroke="black" points="27,-19.5 107,-19.5 "/>
<text text-anchor="start" x="35" y="-7.5" font-family="Helvetica,sans-Serif" font-size="10.00">+ ValueList()</text>
</g>
<!-- Node2 -->
<g id="node2" class="node"><title>Node2</title>
<g id="a_node2"><a xlink:href="classstm_1_1MiniVector.html" target="_top" xlink:title="{stm::MiniVector\&lt; ValueList\lEntry \&gt;\n||+ MiniVector()\l+ ~MiniVector()\l+ reset()\l+ insert()\l+ size()\l+ begin()\l+ end()\l&#45; expand()\l}">
<polygon fill="none" stroke="black" points="-0.5,-96.5 -0.5,-241.5 134.5,-241.5 134.5,-96.5 -0.5,-96.5"/>
<text text-anchor="start" x="7.5" y="-229.5" font-family="Helvetica,sans-Serif" font-size="10.00">stm::MiniVector&lt; ValueList</text>
<text text-anchor="middle" x="67" y="-218.5" font-family="Helvetica,sans-Serif" font-size="10.00">Entry &gt;</text>
<polyline fill="none" stroke="black" points="-0.5,-211.5 134.5,-211.5 "/>
<text text-anchor="middle" x="67" y="-199.5" font-family="Helvetica,sans-Serif" font-size="10.00"> </text>
<polyline fill="none" stroke="black" points="-0.5,-192.5 134.5,-192.5 "/>
<text text-anchor="start" x="7.5" y="-180.5" font-family="Helvetica,sans-Serif" font-size="10.00">+ MiniVector()</text>
<text text-anchor="start" x="7.5" y="-169.5" font-family="Helvetica,sans-Serif" font-size="10.00">+ ~MiniVector()</text>
<text text-anchor="start" x="7.5" y="-158.5" font-family="Helvetica,sans-Serif" font-size="10.00">+ reset()</text>
<text text-anchor="start" x="7.5" y="-147.5" font-family="Helvetica,sans-Serif" font-size="10.00">+ insert()</text>
<text text-anchor="start" x="7.5" y="-136.5" font-family="Helvetica,sans-Serif" font-size="10.00">+ size()</text>
<text text-anchor="start" x="7.5" y="-125.5" font-family="Helvetica,sans-Serif" font-size="10.00">+ begin()</text>
<text text-anchor="start" x="7.5" y="-114.5" font-family="Helvetica,sans-Serif" font-size="10.00">+ end()</text>
<text text-anchor="start" x="7.5" y="-103.5" font-family="Helvetica,sans-Serif" font-size="10.00">&#45; expand()</text>
</a>
</g>
</g>
<!-- Node2&#45;&gt;Node1 -->
<g id="edge1" class="edge"><title>Node2&#45;&gt;Node1</title>
<path fill="none" stroke="midnightblue" d="M67,-85.9181C67,-75.7622 67,-65.9988 67,-57.552"/>
<polygon fill="none" stroke="midnightblue" points="63.5001,-86.1706 67,-96.1706 70.5001,-86.1707 63.5001,-86.1706"/>
</g>
<!-- Node3 -->
<g id="node3" class="node"><title>Node3</title>
<polygon fill="none" stroke="#bfbfbf" points="19.5,-300.5 19.5,-357.5 54.5,-357.5 54.5,-300.5 19.5,-300.5"/>
<text text-anchor="middle" x="37" y="-345.5" font-family="Helvetica,sans-Serif" font-size="10.00">long</text>
<polyline fill="none" stroke="#bfbfbf" points="19.5,-338.5 54.5,-338.5 "/>
<text text-anchor="middle" x="37" y="-326.5" font-family="Helvetica,sans-Serif" font-size="10.00"> </text>
<polyline fill="none" stroke="#bfbfbf" points="19.5,-319.5 54.5,-319.5 "/>
<text text-anchor="middle" x="37" y="-307.5" font-family="Helvetica,sans-Serif" font-size="10.00"> </text>
</g>
<!-- Node3&#45;&gt;Node2 -->
<g id="edge2" class="edge"><title>Node3&#45;&gt;Node2</title>
<path fill="none" stroke="#404040" d="M35.5582,-300.374C35.3833,-287.956 35.8321,-273.164 38,-260 38.3547,-257.846 38.7508,-255.673 39.183,-253.489"/>
<polygon fill="none" stroke="#404040" points="39.1903,-253.456 36.5961,-246.728 41.8091,-241.745 44.4033,-248.474 39.1903,-253.456"/>
<text text-anchor="middle" x="57" y="-274" font-family="Helvetica,sans-Serif" font-size="10.00"> &#45;m_size</text>
<text text-anchor="middle" x="57" y="-263" font-family="Helvetica,sans-Serif" font-size="10.00">&#45;m_cap</text>
</g>
<!-- Node4 -->
<g id="node4" class="node"><title>Node4</title>
<polygon fill="none" stroke="#bfbfbf" points="83.5,-300.5 83.5,-357.5 112.5,-357.5 112.5,-300.5 83.5,-300.5"/>
<text text-anchor="middle" x="98" y="-345.5" font-family="Helvetica,sans-Serif" font-size="10.00">T</text>
<polyline fill="none" stroke="#bfbfbf" points="83.5,-338.5 112.5,-338.5 "/>
<text text-anchor="middle" x="98" y="-326.5" font-family="Helvetica,sans-Serif" font-size="10.00"> </text>
<polyline fill="none" stroke="#bfbfbf" points="83.5,-319.5 112.5,-319.5 "/>
<text text-anchor="middle" x="98" y="-307.5" font-family="Helvetica,sans-Serif" font-size="10.00"> </text>
</g>
<!-- Node4&#45;&gt;Node2 -->
<g id="edge3" class="edge"><title>Node4&#45;&gt;Node2</title>
<path fill="none" stroke="#404040" d="M92.6002,-300.479C89.9927,-287.189 86.7098,-270.456 83.3728,-253.448"/>
<polygon fill="none" stroke="#404040" points="83.372,-253.444 78.2916,-248.326 81.0615,-241.668 86.1419,-246.786 83.372,-253.444"/>
<text text-anchor="middle" x="118" y="-268.5" font-family="Helvetica,sans-Serif" font-size="10.00"> &#45;m_elements</text>
</g>
</g>
</svg>
