<?xml version="1.0" encoding="UTF-8" standalone="no"?>
<!DOCTYPE svg PUBLIC "-//W3C//DTD SVG 1.1//EN"
 "http://www.w3.org/Graphics/SVG/1.1/DTD/svg11.dtd">
<!-- Generated by graphviz version 2.36.0 (20140111.2315)
 -->
<!-- Title: stm::WordLoggingUndoLogEntry Pages: 1 -->
<svg width="164pt" height="194pt"
 viewBox="0.00 0.00 164.00 194.00" xmlns="http://www.w3.org/2000/svg" xmlns:xlink="http://www.w3.org/1999/xlink">
<g id="graph0" class="graph" transform="scale(1 1) rotate(0) translate(4 190)">
<title>stm::WordLoggingUndoLogEntry</title>
<!-- Node1 -->
<g id="node1" class="node"><title>Node1</title>
<polygon fill="#bfbfbf" stroke="black" points="-1,-0.5 -1,-79.5 157,-79.5 157,-0.5 -1,-0.5"/>
<text text-anchor="middle" x="78" y="-67.5" font-family="Helvetica,sans-Serif" font-size="10.00">stm::WordLoggingUndoLogEntry</text>
<polyline fill="none" stroke="black" points="-1,-60.5 157,-60.5 "/>
<text text-anchor="middle" x="78" y="-48.5" font-family="Helvetica,sans-Serif" font-size="10.00"> </text>
<polyline fill="none" stroke="black" points="-1,-41.5 157,-41.5 "/>
<text text-anchor="start" x="7" y="-29.5" font-family="Helvetica,sans-Serif" font-size="10.00">+ WordLoggingUndoLogEntry()</text>
<text text-anchor="start" x="7" y="-18.5" font-family="Helvetica,sans-Serif" font-size="10.00">+ undo()</text>
<text text-anchor="start" x="7" y="-7.5" font-family="Helvetica,sans-Serif" font-size="10.00">+ filter()</text>
</g>
<!-- Node2 -->
<g id="node2" class="node"><title>Node2</title>
<polygon fill="none" stroke="#bfbfbf" points="25.5,-128.5 25.5,-185.5 70.5,-185.5 70.5,-128.5 25.5,-128.5"/>
<text text-anchor="middle" x="48" y="-173.5" font-family="Helvetica,sans-Serif" font-size="10.00">void **</text>
<polyline fill="none" stroke="#bfbfbf" points="25.5,-166.5 70.5,-166.5 "/>
<text text-anchor="middle" x="48" y="-154.5" font-family="Helvetica,sans-Serif" font-size="10.00"> </text>
<polyline fill="none" stroke="#bfbfbf" points="25.5,-147.5 70.5,-147.5 "/>
<text text-anchor="middle" x="48" y="-135.5" font-family="Helvetica,sans-Serif" font-size="10.00"> </text>
</g>
<!-- Node2&#45;&gt;Node1 -->
<g id="edge1" class="edge"><title>Node2&#45;&gt;Node1</title>
<path fill="none" stroke="#404040" d="M52.4538,-128.393C54.2206,-118.718 56.4446,-107.819 59,-98 59.557,-95.8596 60.1521,-93.6827 60.7751,-91.4901"/>
<polygon fill="none" stroke="#404040" points="60.8558,-91.222 58.7558,-84.3235 64.316,-79.7317 66.416,-86.6303 60.8558,-91.222"/>
<text text-anchor="middle" x="73" y="-101.5" font-family="Helvetica,sans-Serif" font-size="10.00"> +addr</text>
</g>
<!-- Node3 -->
<g id="node3" class="node"><title>Node3</title>
<polygon fill="none" stroke="#bfbfbf" points="88.5,-128.5 88.5,-185.5 129.5,-185.5 129.5,-128.5 88.5,-128.5"/>
<text text-anchor="middle" x="109" y="-173.5" font-family="Helvetica,sans-Serif" font-size="10.00">void *</text>
<polyline fill="none" stroke="#bfbfbf" points="88.5,-166.5 129.5,-166.5 "/>
<text text-anchor="middle" x="109" y="-154.5" font-family="Helvetica,sans-Serif" font-size="10.00"> </text>
<polyline fill="none" stroke="#bfbfbf" points="88.5,-147.5 129.5,-147.5 "/>
<text text-anchor="middle" x="109" y="-135.5" font-family="Helvetica,sans-Serif" font-size="10.00"> </text>
</g>
<!-- Node3&#45;&gt;Node1 -->
<g id="edge2" class="edge"><title>Node3&#45;&gt;Node1</title>
<path fill="none" stroke="#404040" d="M101.575,-128.455C98.5884,-117.376 95.0473,-104.24 91.6293,-91.5604"/>
<polygon fill="none" stroke="#404040" points="91.5355,-91.2122 86.1117,-86.4601 88.4122,-79.6258 93.836,-84.3778 91.5355,-91.2122"/>
<text text-anchor="middle" x="107" y="-101.5" font-family="Helvetica,sans-Serif" font-size="10.00"> +val</text>
</g>
</g>
</svg>
