<?xml version="1.0" encoding="UTF-8" standalone="no"?>
<!DOCTYPE svg PUBLIC "-//W3C//DTD SVG 1.1//EN"
 "http://www.w3.org/Graphics/SVG/1.1/DTD/svg11.dtd">
<!-- Generated by graphviz version 2.36.0 (20140111.2315)
 -->
<!-- Title: sequencer Pages: 1 -->
<svg width="1020pt" height="580pt"
 viewBox="0.00 0.00 1020.01 580.00" xmlns="http://www.w3.org/2000/svg" xmlns:xlink="http://www.w3.org/1999/xlink">
<g id="graph0" class="graph" transform="scale(1 1) rotate(0) translate(4 576)">
<title>sequencer</title>
<!-- Node1 -->
<g id="node1" class="node"><title>Node1</title>
<polygon fill="#bfbfbf" stroke="black" points="600.007,-0.5 600.007,-57.5 662.007,-57.5 662.007,-0.5 600.007,-0.5"/>
<text text-anchor="middle" x="631.007" y="-45.5" font-family="Helvetica,sans-Serif" font-size="10.00">sequencer</text>
<polyline fill="none" stroke="black" points="600.007,-38.5 662.007,-38.5 "/>
<text text-anchor="middle" x="631.007" y="-26.5" font-family="Helvetica,sans-Serif" font-size="10.00"> </text>
<polyline fill="none" stroke="black" points="600.007,-19.5 662.007,-19.5 "/>
<text text-anchor="middle" x="631.007" y="-7.5" font-family="Helvetica,sans-Serif" font-size="10.00"> </text>
</g>
<!-- Node2 -->
<g id="node2" class="node"><title>Node2</title>
<g id="a_node2"><a xlink:href="structhashtable.html" target="_top" xlink:title="{hashtable\n||}">
<polygon fill="none" stroke="black" points="183.507,-128.5 183.507,-185.5 242.507,-185.5 242.507,-128.5 183.507,-128.5"/>
<text text-anchor="middle" x="213.007" y="-173.5" font-family="Helvetica,sans-Serif" font-size="10.00">hashtable</text>
<polyline fill="none" stroke="black" points="183.507,-166.5 242.507,-166.5 "/>
<text text-anchor="middle" x="213.007" y="-154.5" font-family="Helvetica,sans-Serif" font-size="10.00"> </text>
<polyline fill="none" stroke="black" points="183.507,-147.5 242.507,-147.5 "/>
<text text-anchor="middle" x="213.007" y="-135.5" font-family="Helvetica,sans-Serif" font-size="10.00"> </text>
</a>
</g>
</g>
<!-- Node2&#45;&gt;Node1 -->
<g id="edge1" class="edge"><title>Node2&#45;&gt;Node1</title>
<path fill="none" stroke="#404040" d="M224.294,-128.399C233.156,-110.415 247.309,-88.114 267.007,-76 319.841,-43.5071 502.95,-33.8301 587.543,-31.0595"/>
<polygon fill="none" stroke="#404040" points="587.767,-31.0528 593.641,-26.8709 599.761,-30.6853 593.886,-34.8672 587.767,-31.0528"/>
<text text-anchor="middle" x="314.507" y="-90.5" font-family="Helvetica,sans-Serif" font-size="10.00"> +uniqueSegmentsPtr</text>
</g>
<!-- Node3 -->
<g id="node3" class="node"><title>Node3</title>
<g id="a_node3"><a xlink:href="classunsigned_01long.html" target="_top" xlink:title="{unsigned long\n||}">
<polygon fill="none" stroke="black" points="120.507,-234.5 120.507,-291.5 197.507,-291.5 197.507,-234.5 120.507,-234.5"/>
<text text-anchor="middle" x="159.007" y="-279.5" font-family="Helvetica,sans-Serif" font-size="10.00">unsigned long</text>
<polyline fill="none" stroke="black" points="120.507,-272.5 197.507,-272.5 "/>
<text text-anchor="middle" x="159.007" y="-260.5" font-family="Helvetica,sans-Serif" font-size="10.00"> </text>
<polyline fill="none" stroke="black" points="120.507,-253.5 197.507,-253.5 "/>
<text text-anchor="middle" x="159.007" y="-241.5" font-family="Helvetica,sans-Serif" font-size="10.00"> </text>
</a>
</g>
</g>
<!-- Node3&#45;&gt;Node2 -->
<g id="edge2" class="edge"><title>Node3&#45;&gt;Node2</title>
<path fill="none" stroke="#404040" d="M165.997,-234.381C169.025,-224.502 173.032,-213.475 178.007,-204 179.435,-201.279 181.023,-198.551 182.712,-195.856"/>
<polygon fill="none" stroke="#404040" points="182.857,-195.641 182.918,-188.431 189.598,-185.714 189.537,-192.924 182.857,-195.641"/>
<text text-anchor="middle" x="193.507" y="-207.5" font-family="Helvetica,sans-Serif" font-size="10.00"> +hash</text>
</g>
<!-- Node4 -->
<g id="node4" class="node"><title>Node4</title>
<g id="a_node4"><a xlink:href="structcomparator.html" target="_top" xlink:title="{comparator\n||+ comparator()\l+ comparator()\l}">
<polygon fill="none" stroke="black" points="18.0068,-363 18.0068,-431 98.0068,-431 98.0068,-363 18.0068,-363"/>
<text text-anchor="middle" x="58.0068" y="-419" font-family="Helvetica,sans-Serif" font-size="10.00">comparator</text>
<polyline fill="none" stroke="black" points="18.0068,-412 98.0068,-412 "/>
<text text-anchor="middle" x="58.0068" y="-400" font-family="Helvetica,sans-Serif" font-size="10.00"> </text>
<polyline fill="none" stroke="black" points="18.0068,-393 98.0068,-393 "/>
<text text-anchor="start" x="26.0068" y="-381" font-family="Helvetica,sans-Serif" font-size="10.00">+ comparator()</text>
<text text-anchor="start" x="26.0068" y="-370" font-family="Helvetica,sans-Serif" font-size="10.00">+ comparator()</text>
</a>
</g>
</g>
<!-- Node4&#45;&gt;Node2 -->
<g id="edge3" class="edge"><title>Node4&#45;&gt;Node2</title>
<path fill="none" stroke="#404040" d="M42.945,-362.686C29.6187,-327.739 15.847,-272.624 41.0068,-234 69.6703,-189.998 130.223,-171.287 171.272,-163.456"/>
<polygon fill="none" stroke="#404040" points="171.506,-163.416 176.732,-158.447 183.329,-161.359 178.103,-166.328 171.506,-163.416"/>
<text text-anchor="middle" x="76.0068" y="-260.5" font-family="Helvetica,sans-Serif" font-size="10.00"> +comparePairs</text>
</g>
<!-- Node7 -->
<g id="node7" class="node"><title>Node7</title>
<g id="a_node7"><a xlink:href="structlist.html" target="_top" xlink:title="{list\n||}">
<polygon fill="none" stroke="black" points="215.507,-234.5 215.507,-291.5 244.507,-291.5 244.507,-234.5 215.507,-234.5"/>
<text text-anchor="middle" x="230.007" y="-279.5" font-family="Helvetica,sans-Serif" font-size="10.00">list</text>
<polyline fill="none" stroke="black" points="215.507,-272.5 244.507,-272.5 "/>
<text text-anchor="middle" x="230.007" y="-260.5" font-family="Helvetica,sans-Serif" font-size="10.00"> </text>
<polyline fill="none" stroke="black" points="215.507,-253.5 244.507,-253.5 "/>
<text text-anchor="middle" x="230.007" y="-241.5" font-family="Helvetica,sans-Serif" font-size="10.00"> </text>
</a>
</g>
</g>
<!-- Node4&#45;&gt;Node7 -->
<g id="edge12" class="edge"><title>Node4&#45;&gt;Node7</title>
<path fill="none" stroke="#404040" d="M76.1493,-362.71C87.7801,-344.447 104.53,-322.947 125.007,-310 156.177,-290.292 174.384,-310.974 206.007,-292 206.113,-291.936 206.219,-291.872 206.325,-291.807"/>
<polygon fill="none" stroke="#404040" points="206.136,-291.962 208.237,-285.064 215.412,-284.35 213.311,-291.248 206.136,-291.962"/>
<text text-anchor="middle" x="154.007" y="-324.5" font-family="Helvetica,sans-Serif" font-size="10.00"> +comparator</text>
</g>
<!-- Node5 -->
<g id="node5" class="node"><title>Node5</title>
<polygon fill="none" stroke="#bfbfbf" points="16.5068,-513 16.5068,-571 45.5068,-571 45.5068,-513 16.5068,-513"/>
<polyline fill="none" stroke="#bfbfbf" points="16.5068,-551 45.5068,-551 "/>
<text text-anchor="middle" x="31.0068" y="-539" font-family="Helvetica,sans-Serif" font-size="10.00"> </text>
<polyline fill="none" stroke="#bfbfbf" points="16.5068,-532 45.5068,-532 "/>
<text text-anchor="middle" x="31.0068" y="-520" font-family="Helvetica,sans-Serif" font-size="10.00"> </text>
</g>
<!-- Node5&#45;&gt;Node4 -->
<g id="edge4" class="edge"><title>Node5&#45;&gt;Node4</title>
<path fill="none" stroke="#404040" d="M16.4059,-519.97C11.8149,-512.176 7.33776,-503.029 5.00682,-494 0.118599,-475.065 -2.56271,-468.031 5.00682,-450 6.52867,-446.375 8.44019,-442.875 10.6269,-439.523"/>
<polygon fill="none" stroke="#404040" points="10.6498,-439.493 11.0863,-432.295 17.8984,-429.93 17.4619,-437.127 10.6498,-439.493"/>
<text text-anchor="middle" x="20.5068" y="-469.5" font-family="Helvetica,sans-Serif" font-size="10.00"> +@23</text>
</g>
<!-- Node5&#45;&gt;Node4 -->
<g id="edge6" class="edge"><title>Node5&#45;&gt;Node4</title>
<path fill="none" stroke="#404040" d="M36.3412,-512.748C40.093,-492.877 45.1926,-465.868 49.5017,-443.045"/>
<polygon fill="none" stroke="#404040" points="49.5096,-443.003 46.6923,-436.365 51.7361,-431.212 54.5534,-437.85 49.5096,-443.003"/>
<text text-anchor="middle" x="63.5068" y="-469.5" font-family="Helvetica,sans-Serif" font-size="10.00"> +@21</text>
</g>
<!-- Node6 -->
<g id="node6" class="node"><title>Node6</title>
<polygon fill="none" stroke="#bfbfbf" points="481.507,-513.5 481.507,-570.5 516.507,-570.5 516.507,-513.5 481.507,-513.5"/>
<text text-anchor="middle" x="499.007" y="-558.5" font-family="Helvetica,sans-Serif" font-size="10.00">long</text>
<polyline fill="none" stroke="#bfbfbf" points="481.507,-551.5 516.507,-551.5 "/>
<text text-anchor="middle" x="499.007" y="-539.5" font-family="Helvetica,sans-Serif" font-size="10.00"> </text>
<polyline fill="none" stroke="#bfbfbf" points="481.507,-532.5 516.507,-532.5 "/>
<text text-anchor="middle" x="499.007" y="-520.5" font-family="Helvetica,sans-Serif" font-size="10.00"> </text>
</g>
<!-- Node6&#45;&gt;Node1 -->
<g id="edge32" class="edge"><title>Node6&#45;&gt;Node1</title>
<path fill="none" stroke="#404040" d="M516.624,-540.113C591.092,-536.213 877.617,-519.634 908.007,-494 941.98,-465.344 936.007,-442.444 936.007,-398 936.007,-398 936.007,-398 936.007,-156 936.007,-44.1501 758.627,-29.6176 674.41,-29.021"/>
<polygon fill="none" stroke="#404040" points="674.214,-29.021 668.216,-33.0245 662.214,-29.028 668.211,-25.0245 674.214,-29.021"/>
<text text-anchor="middle" x="974.007" y="-260.5" font-family="Helvetica,sans-Serif" font-size="10.00"> +segmentLength</text>
</g>
<!-- Node6&#45;&gt;Node2 -->
<g id="edge7" class="edge"><title>Node6&#45;&gt;Node2</title>
<path fill="none" stroke="#404040" d="M481.305,-522.597C450.629,-489.625 387.74,-417.072 355.007,-344 328.992,-285.926 365.811,-252.83 325.007,-204 307.307,-182.819 278.297,-171.264 254.236,-165.033"/>
<polygon fill="none" stroke="#404040" points="254.23,-165.032 247.48,-167.567 242.543,-162.31 249.294,-159.775 254.23,-165.032"/>
<text text-anchor="middle" x="388.507" y="-335.5" font-family="Helvetica,sans-Serif" font-size="10.00"> +growthFactor</text>
<text text-anchor="middle" x="388.507" y="-324.5" font-family="Helvetica,sans-Serif" font-size="10.00">+resizeRatio</text>
<text text-anchor="middle" x="388.507" y="-313.5" font-family="Helvetica,sans-Serif" font-size="10.00">+numBucket</text>
</g>
<!-- Node6&#45;&gt;Node4 -->
<g id="edge5" class="edge"><title>Node6&#45;&gt;Node4</title>
<path fill="none" stroke="#404040" d="M481.107,-540.488C420.892,-538.45 226.655,-529.223 177.007,-494 159.01,-481.232 169.662,-465.551 154.007,-450 141.597,-437.672 134.426,-440.259 119.007,-432 115.745,-430.253 112.395,-428.44 109.023,-426.6"/>
<polygon fill="none" stroke="#404040" points="108.778,-426.466 101.593,-427.082 98.2613,-420.687 105.446,-420.071 108.778,-426.466"/>
<text text-anchor="middle" x="223.007" y="-486" font-family="Helvetica,sans-Serif" font-size="10.00"> +compare_tm</text>
<text text-anchor="middle" x="223.007" y="-475" font-family="Helvetica,sans-Serif" font-size="10.00">+compare_pair_notm</text>
<text text-anchor="middle" x="223.007" y="-464" font-family="Helvetica,sans-Serif" font-size="10.00">+compare_pair_tm</text>
<text text-anchor="middle" x="223.007" y="-453" font-family="Helvetica,sans-Serif" font-size="10.00">+compare_notm</text>
</g>
<!-- Node6&#45;&gt;Node7 -->
<g id="edge13" class="edge"><title>Node6&#45;&gt;Node7</title>
<path fill="none" stroke="#404040" d="M481.466,-540.989C447.322,-540.05 371.232,-533.348 325.007,-494 294.985,-468.444 259.482,-362.417 241.574,-303.655"/>
<polygon fill="none" stroke="#404040" points="241.488,-303.369 235.928,-298.778 238.028,-291.879 243.589,-296.471 241.488,-303.369"/>
<text text-anchor="middle" x="302.007" y="-394.5" font-family="Helvetica,sans-Serif" font-size="10.00"> +size</text>
</g>
<!-- Node11 -->
<g id="node11" class="node"><title>Node11</title>
<g id="a_node11"><a xlink:href="structendInfoEntry.html" target="_top" xlink:title="{endInfoEntry\n||}">
<polygon fill="none" stroke="black" points="486.007,-234.5 486.007,-291.5 558.007,-291.5 558.007,-234.5 486.007,-234.5"/>
<text text-anchor="middle" x="522.007" y="-279.5" font-family="Helvetica,sans-Serif" font-size="10.00">endInfoEntry</text>
<polyline fill="none" stroke="black" points="486.007,-272.5 558.007,-272.5 "/>
<text text-anchor="middle" x="522.007" y="-260.5" font-family="Helvetica,sans-Serif" font-size="10.00"> </text>
<polyline fill="none" stroke="black" points="486.007,-253.5 558.007,-253.5 "/>
<text text-anchor="middle" x="522.007" y="-241.5" font-family="Helvetica,sans-Serif" font-size="10.00"> </text>
</a>
</g>
</g>
<!-- Node6&#45;&gt;Node11 -->
<g id="edge17" class="edge"><title>Node6&#45;&gt;Node11</title>
<path fill="none" stroke="#404040" d="M499.611,-513.344C500.562,-478.127 502.858,-415.427 508.007,-362 509.86,-342.772 512.784,-321.538 515.482,-303.765"/>
<polygon fill="none" stroke="#404040" points="515.499,-303.656 512.468,-297.112 517.343,-291.798 520.373,-298.342 515.499,-303.656"/>
<text text-anchor="middle" x="539.507" y="-394.5" font-family="Helvetica,sans-Serif" font-size="10.00"> +jumpToNext</text>
</g>
<!-- Node13 -->
<g id="node13" class="node"><title>Node13</title>
<g id="a_node13"><a xlink:href="structtable.html" target="_top" xlink:title="{table\n||}">
<polygon fill="none" stroke="black" points="356.007,-128.5 356.007,-185.5 394.007,-185.5 394.007,-128.5 356.007,-128.5"/>
<text text-anchor="middle" x="375.007" y="-173.5" font-family="Helvetica,sans-Serif" font-size="10.00">table</text>
<polyline fill="none" stroke="black" points="356.007,-166.5 394.007,-166.5 "/>
<text text-anchor="middle" x="375.007" y="-154.5" font-family="Helvetica,sans-Serif" font-size="10.00"> </text>
<polyline fill="none" stroke="black" points="356.007,-147.5 394.007,-147.5 "/>
<text text-anchor="middle" x="375.007" y="-135.5" font-family="Helvetica,sans-Serif" font-size="10.00"> </text>
</a>
</g>
</g>
<!-- Node6&#45;&gt;Node13 -->
<g id="edge19" class="edge"><title>Node6&#45;&gt;Node13</title>
<path fill="none" stroke="#404040" d="M490.089,-513.456C468.398,-446.459 412.824,-274.806 387.69,-197.173"/>
<polygon fill="none" stroke="#404040" points="387.623,-196.968 381.97,-192.492 383.927,-185.552 389.581,-190.028 387.623,-196.968"/>
<text text-anchor="middle" x="464.507" y="-324.5" font-family="Helvetica,sans-Serif" font-size="10.00"> +numBucket</text>
</g>
<!-- Node14 -->
<g id="node14" class="node"><title>Node14</title>
<g id="a_node14"><a xlink:href="structsegments.html" target="_top" xlink:title="{segments\n||}">
<polygon fill="none" stroke="black" points="793.507,-234.5 793.507,-291.5 852.507,-291.5 852.507,-234.5 793.507,-234.5"/>
<text text-anchor="middle" x="823.007" y="-279.5" font-family="Helvetica,sans-Serif" font-size="10.00">segments</text>
<polyline fill="none" stroke="black" points="793.507,-272.5 852.507,-272.5 "/>
<text text-anchor="middle" x="823.007" y="-260.5" font-family="Helvetica,sans-Serif" font-size="10.00"> </text>
<polyline fill="none" stroke="black" points="793.507,-253.5 852.507,-253.5 "/>
<text text-anchor="middle" x="823.007" y="-241.5" font-family="Helvetica,sans-Serif" font-size="10.00"> </text>
</a>
</g>
</g>
<!-- Node6&#45;&gt;Node14 -->
<g id="edge26" class="edge"><title>Node6&#45;&gt;Node14</title>
<path fill="none" stroke="#404040" d="M516.548,-538.137C562.825,-529.77 689.942,-501.422 767.007,-432 799.951,-402.323 800.849,-386.343 814.007,-344 817.998,-331.155 820.261,-316.661 821.53,-303.573"/>
<polygon fill="none" stroke="#404040" points="821.534,-303.52 818.012,-297.227 822.467,-291.556 825.988,-297.849 821.534,-303.52"/>
<text text-anchor="middle" x="830.507" y="-400" font-family="Helvetica,sans-Serif" font-size="10.00"> +length</text>
<text text-anchor="middle" x="830.507" y="-389" font-family="Helvetica,sans-Serif" font-size="10.00">+minNum</text>
</g>
<!-- Node15 -->
<g id="node15" class="node"><title>Node15</title>
<g id="a_node15"><a xlink:href="structvector.html" target="_top" xlink:title="{vector\n||}">
<polygon fill="none" stroke="black" points="864.007,-368.5 864.007,-425.5 908.007,-425.5 908.007,-368.5 864.007,-368.5"/>
<text text-anchor="middle" x="886.007" y="-413.5" font-family="Helvetica,sans-Serif" font-size="10.00">vector</text>
<polyline fill="none" stroke="black" points="864.007,-406.5 908.007,-406.5 "/>
<text text-anchor="middle" x="886.007" y="-394.5" font-family="Helvetica,sans-Serif" font-size="10.00"> </text>
<polyline fill="none" stroke="black" points="864.007,-387.5 908.007,-387.5 "/>
<text text-anchor="middle" x="886.007" y="-375.5" font-family="Helvetica,sans-Serif" font-size="10.00"> </text>
</a>
</g>
</g>
<!-- Node6&#45;&gt;Node15 -->
<g id="edge24" class="edge"><title>Node6&#45;&gt;Node15</title>
<path fill="none" stroke="#404040" d="M516.51,-540.192C575.416,-537.204 765.653,-525.285 817.007,-494 839.294,-480.422 856.463,-456.65 868.101,-436.16"/>
<polygon fill="none" stroke="#404040" points="868.147,-436.074 867.471,-428.894 873.837,-425.508 874.514,-432.687 868.147,-436.074"/>
<text text-anchor="middle" x="881.007" y="-475" font-family="Helvetica,sans-Serif" font-size="10.00"> +capacity</text>
<text text-anchor="middle" x="881.007" y="-464" font-family="Helvetica,sans-Serif" font-size="10.00">+size</text>
</g>
<!-- Node17 -->
<g id="node17" class="node"><title>Node17</title>
<g id="a_node17"><a xlink:href="structconstructEntry.html" target="_top" xlink:title="{constructEntry\n||}">
<polygon fill="none" stroke="black" points="576.007,-234.5 576.007,-291.5 656.007,-291.5 656.007,-234.5 576.007,-234.5"/>
<text text-anchor="middle" x="616.007" y="-279.5" font-family="Helvetica,sans-Serif" font-size="10.00">constructEntry</text>
<polyline fill="none" stroke="black" points="576.007,-272.5 656.007,-272.5 "/>
<text text-anchor="middle" x="616.007" y="-260.5" font-family="Helvetica,sans-Serif" font-size="10.00"> </text>
<polyline fill="none" stroke="black" points="576.007,-253.5 656.007,-253.5 "/>
<text text-anchor="middle" x="616.007" y="-241.5" font-family="Helvetica,sans-Serif" font-size="10.00"> </text>
</a>
</g>
</g>
<!-- Node6&#45;&gt;Node17 -->
<g id="edge31" class="edge"><title>Node6&#45;&gt;Node17</title>
<path fill="none" stroke="#404040" d="M516.593,-530.48C543.346,-513.45 593.72,-477.153 618.007,-432 643.861,-383.934 641.099,-363.815 632.007,-310 631.642,-307.843 631.188,-305.652 630.666,-303.456"/>
<polygon fill="none" stroke="#404040" points="630.641,-303.368 625.149,-298.694 627.35,-291.828 632.842,-296.501 630.641,-303.368"/>
<text text-anchor="middle" x="662.007" y="-405.5" font-family="Helvetica,sans-Serif" font-size="10.00"> +length</text>
<text text-anchor="middle" x="662.007" y="-394.5" font-family="Helvetica,sans-Serif" font-size="10.00">+overlap</text>
<text text-anchor="middle" x="662.007" y="-383.5" font-family="Helvetica,sans-Serif" font-size="10.00">+endHash</text>
</g>
<!-- Node7&#45;&gt;Node2 -->
<g id="edge8" class="edge"><title>Node7&#45;&gt;Node2</title>
<path fill="none" stroke="#404040" d="M218.744,-234.159C216.805,-228.255 215.073,-221.994 214.007,-216 212.97,-210.172 212.357,-203.962 212.027,-197.853"/>
<polygon fill="none" stroke="#404040" points="212.021,-197.607 207.864,-191.714 211.704,-185.611 215.861,-191.503 212.021,-197.607"/>
<text text-anchor="middle" x="236.007" y="-207.5" font-family="Helvetica,sans-Serif" font-size="10.00"> +buckets</text>
</g>
<!-- Node7&#45;&gt;Node13 -->
<g id="edge20" class="edge"><title>Node7&#45;&gt;Node13</title>
<path fill="none" stroke="#404040" d="M244.708,-251.456C268.28,-234.549 314.985,-201.05 345.599,-179.093"/>
<polygon fill="none" stroke="#404040" points="345.941,-178.847 348.485,-172.1 355.692,-171.853 353.148,-178.601 345.941,-178.847"/>
<text text-anchor="middle" x="329.007" y="-207.5" font-family="Helvetica,sans-Serif" font-size="10.00"> +buckets</text>
</g>
<!-- Node8 -->
<g id="node8" class="node"><title>Node8</title>
<g id="a_node8"><a xlink:href="structlist__node.html" target="_top" xlink:title="{list_node\n||}">
<polygon fill="none" stroke="black" points="128.007,-368.5 128.007,-425.5 184.007,-425.5 184.007,-368.5 128.007,-368.5"/>
<text text-anchor="middle" x="156.007" y="-413.5" font-family="Helvetica,sans-Serif" font-size="10.00">list_node</text>
<polyline fill="none" stroke="black" points="128.007,-406.5 184.007,-406.5 "/>
<text text-anchor="middle" x="156.007" y="-394.5" font-family="Helvetica,sans-Serif" font-size="10.00"> </text>
<polyline fill="none" stroke="black" points="128.007,-387.5 184.007,-387.5 "/>
<text text-anchor="middle" x="156.007" y="-375.5" font-family="Helvetica,sans-Serif" font-size="10.00"> </text>
</a>
</g>
</g>
<!-- Node8&#45;&gt;Node7 -->
<g id="edge9" class="edge"><title>Node8&#45;&gt;Node7</title>
<path fill="none" stroke="#404040" d="M171.52,-368.328C182.491,-348.758 197.32,-322.306 209.301,-300.935"/>
<polygon fill="none" stroke="#404040" points="209.403,-300.754 208.847,-293.564 215.271,-290.286 215.826,-297.476 209.403,-300.754"/>
<text text-anchor="middle" x="219.507" y="-324.5" font-family="Helvetica,sans-Serif" font-size="10.00"> +head</text>
</g>
<!-- Node8&#45;&gt;Node8 -->
<g id="edge10" class="edge"><title>Node8&#45;&gt;Node8</title>
<path fill="none" stroke="#404040" d="M184.132,-410.125C193.507,-410.125 201.007,-405.75 201.007,-397 201.007,-392.488 199.013,-389.14 195.796,-386.954"/>
<polygon fill="none" stroke="#404040" points="195.734,-386.938 188.912,-389.274 184.132,-383.875 190.954,-381.539 195.734,-386.938"/>
<text text-anchor="middle" x="221.507" y="-394.5" font-family="Helvetica,sans-Serif" font-size="10.00"> +nextPtr</text>
</g>
<!-- Node9 -->
<g id="node9" class="node"><title>Node9</title>
<polygon fill="none" stroke="#bfbfbf" points="91.5068,-513.5 91.5068,-570.5 132.507,-570.5 132.507,-513.5 91.5068,-513.5"/>
<text text-anchor="middle" x="112.007" y="-558.5" font-family="Helvetica,sans-Serif" font-size="10.00">void *</text>
<polyline fill="none" stroke="#bfbfbf" points="91.5068,-551.5 132.507,-551.5 "/>
<text text-anchor="middle" x="112.007" y="-539.5" font-family="Helvetica,sans-Serif" font-size="10.00"> </text>
<polyline fill="none" stroke="#bfbfbf" points="91.5068,-532.5 132.507,-532.5 "/>
<text text-anchor="middle" x="112.007" y="-520.5" font-family="Helvetica,sans-Serif" font-size="10.00"> </text>
</g>
<!-- Node9&#45;&gt;Node8 -->
<g id="edge11" class="edge"><title>Node9&#45;&gt;Node8</title>
<path fill="none" stroke="#404040" d="M107.63,-513.467C105.802,-494.958 105.565,-470.326 113.007,-450 114.916,-444.785 117.593,-439.718 120.687,-434.924"/>
<polygon fill="none" stroke="#404040" points="120.92,-434.605 121.225,-427.4 127.993,-424.911 127.688,-432.115 120.92,-434.605"/>
<text text-anchor="middle" x="133.507" y="-469.5" font-family="Helvetica,sans-Serif" font-size="10.00"> +dataPtr</text>
</g>
<!-- Node10 -->
<g id="node10" class="node"><title>Node10</title>
<polygon fill="none" stroke="#bfbfbf" points="723.507,-368.5 723.507,-425.5 758.507,-425.5 758.507,-368.5 723.507,-368.5"/>
<text text-anchor="middle" x="741.007" y="-413.5" font-family="Helvetica,sans-Serif" font-size="10.00">char</text>
<polyline fill="none" stroke="#bfbfbf" points="723.507,-406.5 758.507,-406.5 "/>
<text text-anchor="middle" x="741.007" y="-394.5" font-family="Helvetica,sans-Serif" font-size="10.00"> </text>
<polyline fill="none" stroke="#bfbfbf" points="723.507,-387.5 758.507,-387.5 "/>
<text text-anchor="middle" x="741.007" y="-375.5" font-family="Helvetica,sans-Serif" font-size="10.00"> </text>
</g>
<!-- Node10&#45;&gt;Node1 -->
<g id="edge14" class="edge"><title>Node10&#45;&gt;Node1</title>
<path fill="none" stroke="#404040" d="M742.746,-368.112C744.817,-317.947 744.4,-210.077 710.007,-128 700.529,-105.382 684.18,-83.7619 668.805,-66.6114"/>
<polygon fill="none" stroke="#404040" points="668.575,-66.363 661.562,-64.6844 660.414,-57.5652 667.427,-59.2438 668.575,-66.363"/>
<text text-anchor="middle" x="761.007" y="-207.5" font-family="Helvetica,sans-Serif" font-size="10.00"> +sequence</text>
</g>
<!-- Node10&#45;&gt;Node14 -->
<g id="edge25" class="edge"><title>Node10&#45;&gt;Node14</title>
<path fill="none" stroke="#404040" d="M748.638,-368.188C754.256,-350.583 763.009,-327.858 775.007,-310 777.903,-305.689 781.265,-301.472 784.838,-297.449"/>
<polygon fill="none" stroke="#404040" points="785.143,-297.131 786.403,-290.031 793.441,-288.463 792.181,-295.563 785.143,-297.131"/>
<text text-anchor="middle" x="794.507" y="-324.5" font-family="Helvetica,sans-Serif" font-size="10.00"> +strings</text>
</g>
<!-- Node10&#45;&gt;Node17 -->
<g id="edge28" class="edge"><title>Node10&#45;&gt;Node17</title>
<path fill="none" stroke="#404040" d="M723.329,-383.01C710.509,-373.116 693.182,-358.728 680.007,-344 667.843,-330.403 668.212,-324.397 657.007,-310 654.715,-307.056 652.287,-304.06 649.802,-301.081"/>
<polygon fill="none" stroke="#404040" points="649.579,-300.821 642.638,-298.869 641.77,-291.71 648.712,-293.663 649.579,-300.821"/>
<text text-anchor="middle" x="703.507" y="-324.5" font-family="Helvetica,sans-Serif" font-size="10.00"> +segment</text>
</g>
<!-- Node11&#45;&gt;Node1 -->
<g id="edge15" class="edge"><title>Node11&#45;&gt;Node1</title>
<path fill="none" stroke="#404040" d="M522.411,-234.244C523.796,-206.183 528.695,-162.193 545.007,-128 556.129,-104.687 574.422,-82.6861 591.285,-65.4594"/>
<polygon fill="none" stroke="#404040" points="591.398,-65.3468 592.848,-58.283 599.927,-56.9045 598.477,-63.9684 591.398,-65.3468"/>
<text text-anchor="middle" x="581.507" y="-154.5" font-family="Helvetica,sans-Serif" font-size="10.00"> +endInfoEntries</text>
</g>
<!-- Node12 -->
<g id="node12" class="node"><title>Node12</title>
<polygon fill="none" stroke="#bfbfbf" points="580.507,-368.5 580.507,-425.5 609.507,-425.5 609.507,-368.5 580.507,-368.5"/>
<text text-anchor="middle" x="595.007" y="-413.5" font-family="Helvetica,sans-Serif" font-size="10.00">int</text>
<polyline fill="none" stroke="#bfbfbf" points="580.507,-406.5 609.507,-406.5 "/>
<text text-anchor="middle" x="595.007" y="-394.5" font-family="Helvetica,sans-Serif" font-size="10.00"> </text>
<polyline fill="none" stroke="#bfbfbf" points="580.507,-387.5 609.507,-387.5 "/>
<text text-anchor="middle" x="595.007" y="-375.5" font-family="Helvetica,sans-Serif" font-size="10.00"> </text>
</g>
<!-- Node12&#45;&gt;Node11 -->
<g id="edge16" class="edge"><title>Node12&#45;&gt;Node11</title>
<path fill="none" stroke="#404040" d="M580.327,-379.002C569.957,-366.781 557.191,-351.232 553.007,-344 545.622,-331.236 539.312,-316.381 534.351,-302.959"/>
<polygon fill="none" stroke="#404040" points="534.344,-302.938 528.573,-298.613 530.345,-291.623 536.116,-295.948 534.344,-302.938"/>
<text text-anchor="middle" x="570.007" y="-324.5" font-family="Helvetica,sans-Serif" font-size="10.00"> +isEnd</text>
</g>
<!-- Node12&#45;&gt;Node17 -->
<g id="edge30" class="edge"><title>Node12&#45;&gt;Node17</title>
<path fill="none" stroke="#404040" d="M591.43,-368.155C590.043,-351.148 589.68,-329.076 594.007,-310 594.499,-307.828 595.108,-305.639 595.804,-303.457"/>
<polygon fill="none" stroke="#404040" points="595.906,-303.193 594.326,-296.157 600.213,-291.992 601.793,-299.028 595.906,-303.193"/>
<text text-anchor="middle" x="613.007" y="-324.5" font-family="Helvetica,sans-Serif" font-size="10.00"> +isStart</text>
</g>
<!-- Node13&#45;&gt;Node1 -->
<g id="edge18" class="edge"><title>Node13&#45;&gt;Node1</title>
<path fill="none" stroke="#404040" d="M367.279,-128.49C364.272,-111.46 363.982,-90.2067 376.007,-76 402.641,-44.5336 521.844,-34.5451 587.416,-31.4094"/>
<polygon fill="none" stroke="#404040" points="587.784,-31.3935 593.603,-27.1352 599.772,-30.8693 593.953,-35.1276 587.784,-31.3935"/>
<text text-anchor="middle" x="442.007" y="-101.5" font-family="Helvetica,sans-Serif" font-size="10.00"> +hashToConstructEntryTable</text>
<text text-anchor="start" x="376.007" y="-90.5" font-family="Helvetica,sans-Serif" font-size="10.00">+startHashToConstructEntry</text>
<text text-anchor="middle" x="442.007" y="-79.5" font-family="Helvetica,sans-Serif" font-size="10.00">Tables</text>
</g>
<!-- Node14&#45;&gt;Node1 -->
<g id="edge21" class="edge"><title>Node14&#45;&gt;Node1</title>
<path fill="none" stroke="#404040" d="M820.175,-234.486C814.635,-194.412 798.786,-119.986 755.007,-76 733.403,-54.2936 700.651,-42.7189 674.232,-36.6108"/>
<polygon fill="none" stroke="#404040" points="673.972,-36.5565 667.281,-39.2444 662.226,-34.1015 668.917,-31.4136 673.972,-36.5565"/>
<text text-anchor="middle" x="843.507" y="-154.5" font-family="Helvetica,sans-Serif" font-size="10.00"> +segmentsPtr</text>
</g>
<!-- Node15&#45;&gt;Node14 -->
<g id="edge22" class="edge"><title>Node15&#45;&gt;Node14</title>
<path fill="none" stroke="#404040" d="M872.8,-368.328C863.686,-349.232 851.445,-323.584 841.381,-302.498"/>
<polygon fill="none" stroke="#404040" points="841.365,-302.465 835.171,-298.773 836.196,-291.635 842.391,-295.327 841.365,-302.465"/>
<text text-anchor="middle" x="890.007" y="-324.5" font-family="Helvetica,sans-Serif" font-size="10.00"> +contentsPtr</text>
</g>
<!-- Node16 -->
<g id="node16" class="node"><title>Node16</title>
<polygon fill="none" stroke="#bfbfbf" points="946.507,-513.5 946.507,-570.5 991.507,-570.5 991.507,-513.5 946.507,-513.5"/>
<text text-anchor="middle" x="969.007" y="-558.5" font-family="Helvetica,sans-Serif" font-size="10.00">void **</text>
<polyline fill="none" stroke="#bfbfbf" points="946.507,-551.5 991.507,-551.5 "/>
<text text-anchor="middle" x="969.007" y="-539.5" font-family="Helvetica,sans-Serif" font-size="10.00"> </text>
<polyline fill="none" stroke="#bfbfbf" points="946.507,-532.5 991.507,-532.5 "/>
<text text-anchor="middle" x="969.007" y="-520.5" font-family="Helvetica,sans-Serif" font-size="10.00"> </text>
</g>
<!-- Node16&#45;&gt;Node15 -->
<g id="edge23" class="edge"><title>Node16&#45;&gt;Node15</title>
<path fill="none" stroke="#404040" d="M953.004,-513.428C940.34,-491.61 922.505,-460.882 908.42,-436.615"/>
<polygon fill="none" stroke="#404040" points="908.268,-436.354 901.797,-433.172 902.244,-425.975 908.716,-429.156 908.268,-436.354"/>
<text text-anchor="middle" x="963.507" y="-469.5" font-family="Helvetica,sans-Serif" font-size="10.00"> +elements</text>
</g>
<!-- Node17&#45;&gt;Node1 -->
<g id="edge27" class="edge"><title>Node17&#45;&gt;Node1</title>
<path fill="none" stroke="#404040" d="M617.786,-234.476C620.424,-193.685 625.384,-116.959 628.422,-69.9726"/>
<polygon fill="none" stroke="#404040" points="628.432,-69.8245 624.827,-63.5789 629.206,-57.8495 632.811,-64.0951 628.432,-69.8245"/>
<text text-anchor="middle" x="665.507" y="-154.5" font-family="Helvetica,sans-Serif" font-size="10.00"> +constructEntries</text>
</g>
<!-- Node17&#45;&gt;Node17 -->
<g id="edge29" class="edge"><title>Node17&#45;&gt;Node17</title>
<path fill="none" stroke="#404040" d="M656.125,-272.633C666.339,-272 674.007,-268.789 674.007,-263 674.007,-259.834 671.714,-257.439 667.965,-255.815"/>
<polygon fill="none" stroke="#404040" points="667.877,-255.797 661.191,-258.499 656.125,-253.367 662.811,-250.665 667.877,-255.797"/>
<text text-anchor="middle" x="693.507" y="-271.5" font-family="Helvetica,sans-Serif" font-size="10.00"> +endPtr</text>
<text text-anchor="middle" x="693.507" y="-260.5" font-family="Helvetica,sans-Serif" font-size="10.00">+startPtr</text>
<text text-anchor="middle" x="693.507" y="-249.5" font-family="Helvetica,sans-Serif" font-size="10.00">+nextPtr</text>
</g>
</g>
</svg>
