<?xml version="1.0" encoding="UTF-8" standalone="no"?>
<!DOCTYPE svg PUBLIC "-//W3C//DTD SVG 1.1//EN"
 "http://www.w3.org/Graphics/SVG/1.1/DTD/svg11.dtd">
<!-- Generated by graphviz version 2.36.0 (20140111.2315)
 -->
<!-- Title: pv_side::find_candidate Pages: 1 -->
<!--zoomable 161 -->
<svg id="main" version="1.1" xmlns="http://www.w3.org/2000/svg" xmlns:xlink="http://www.w3.org/1999/xlink" xml:space="preserve" onload="init(evt)">
<style type="text/css"><![CDATA[
.edge:hover path { stroke: red; }
.edge:hover polygon { stroke: red; fill: red; }
]]></style>
<script type="text/javascript"><![CDATA[
var edges = document.getElementsByTagName('g');
if (edges && edges.length) {
  for (var i=0;i<edges.length;i++) {
    if (edges[i].id.substr(0,4)=='edge') {
      edges[i].setAttribute('class','edge');
    }
  }
}
]]></script>
        <defs>
                <circle id="rim" cx="0" cy="0" r="7"/>
                <circle id="rim2" cx="0" cy="0" r="3.5"/>
                <g id="zoomPlus">
                        <use xlink:href="#rim" fill="#404040">
                                <set attributeName="fill" to="#808080" begin="zoomplus.mouseover" end="zoomplus.mouseout"/>
                        </use>
                        <path d="M-4,0h8M0,-4v8" fill="none" stroke="white" stroke-width="1.5" pointer-events="none"/>
                </g>
                <g id="zoomMin">
                        <use xlink:href="#rim" fill="#404040">
                                <set attributeName="fill" to="#808080" begin="zoomminus.mouseover" end="zoomminus.mouseout"/>
                        </use>
                        <path d="M-4,0h8" fill="none" stroke="white" stroke-width="1.5" pointer-events="none"/>
                </g>
                <g id="dirArrow">
                        <path fill="none" stroke="white" stroke-width="1.5" d="M0,-3.0v7 M-2.5,-0.5L0,-3.0L2.5,-0.5"/>
                </g>
               <g id="resetDef">
                       <use xlink:href="#rim2" fill="#404040">
                               <set attributeName="fill" to="#808080" begin="reset.mouseover" end="reset.mouseout"/>
                       </use>
               </g>
        </defs>

<script type="text/javascript">
var viewWidth = 542;
var viewHeight = 161;
var sectionId = 'dynsection-3';
</script>
<script xlink:href="svgpan.js"/>
<svg id="graph" class="graph">
<g id="viewport">
<title>pv_side::find_candidate</title>
<!-- Node1 -->
<g id="node1" class="node"><title>Node1</title>
<polygon fill="#bfbfbf" stroke="black" points="0.5,-76.5 0.5,-95.5 119.5,-95.5 119.5,-76.5 0.5,-76.5"/>
<text text-anchor="middle" x="60" y="-83.5" font-family="Helvetica,sans-Serif" font-size="10.00">pv_side::find_candidate</text>
</g>
<!-- Node2 -->
<g id="node2" class="node"><title>Node2</title>
<g id="a_node2"><a xlink:href="point_8cpp.html#ae77890a7cdbacaf1b115d396c571bfda" target="_top" xlink:title="extern_angle">
<polygon fill="none" stroke="black" points="158,-133.5 158,-152.5 230,-152.5 230,-133.5 158,-133.5"/>
<text text-anchor="middle" x="194" y="-140.5" font-family="Helvetica,sans-Serif" font-size="10.00">extern_angle</text>
</a>
</g>
</g>
<!-- Node1&#45;&gt;Node2 -->
<g id="edge1" class="edge"><title>Node1&#45;&gt;Node2</title>
<path fill="none" stroke="midnightblue" d="M83.0938,-95.5405C104.51,-104.788 137.213,-118.91 161.382,-129.347"/>
<polygon fill="midnightblue" stroke="midnightblue" points="160.266,-132.677 170.834,-133.428 163.041,-126.251 160.266,-132.677"/>
</g>
<!-- Node3 -->
<g id="node3" class="node"><title>Node3</title>
<g id="a_node3"><a xlink:href="classedge.html#a528535c93e864fea104ca95de447b198" target="_top" xlink:title="edge::index_of">
<polygon fill="none" stroke="black" points="271,-57.5 271,-76.5 351,-76.5 351,-57.5 271,-57.5"/>
<text text-anchor="middle" x="311" y="-64.5" font-family="Helvetica,sans-Serif" font-size="10.00">edge::index_of</text>
</a>
</g>
</g>
<!-- Node1&#45;&gt;Node3 -->
<g id="edge2" class="edge"><title>Node1&#45;&gt;Node3</title>
<path fill="none" stroke="midnightblue" d="M119.694,-81.5213C162.548,-78.2513 220,-73.8674 260.531,-70.7747"/>
<polygon fill="midnightblue" stroke="midnightblue" points="261.006,-74.2488 270.71,-69.998 260.473,-67.2691 261.006,-74.2488"/>
</g>
<!-- Node4 -->
<g id="node4" class="node"><title>Node4</title>
<g id="a_node4"><a xlink:href="point_8cpp.html#a015cc895b4407d06a8c9b1e9155359ae" target="_top" xlink:title="encircled">
<polygon fill="none" stroke="black" points="166,-95.5 166,-114.5 222,-114.5 222,-95.5 166,-95.5"/>
<text text-anchor="middle" x="194" y="-102.5" font-family="Helvetica,sans-Serif" font-size="10.00">encircled</text>
</a>
</g>
</g>
<!-- Node1&#45;&gt;Node4 -->
<g id="edge3" class="edge"><title>Node1&#45;&gt;Node4</title>
<path fill="none" stroke="midnightblue" d="M119.666,-94.4443C132.002,-96.2199 144.684,-98.0454 155.959,-99.6683"/>
<polygon fill="midnightblue" stroke="midnightblue" points="155.472,-103.134 165.868,-101.095 156.469,-96.2056 155.472,-103.134"/>
</g>
<!-- Node7 -->
<g id="node7" class="node"><title>Node7</title>
<g id="a_node7"><a xlink:href="classedge.html#a17a50641ad92dce62c3c8db8bf528ddc" target="_top" xlink:title="edge::destroy">
<polygon fill="none" stroke="black" points="156,-19.5 156,-38.5 232,-38.5 232,-19.5 156,-19.5"/>
<text text-anchor="middle" x="194" y="-26.5" font-family="Helvetica,sans-Serif" font-size="10.00">edge::destroy</text>
</a>
</g>
</g>
<!-- Node1&#45;&gt;Node7 -->
<g id="edge6" class="edge"><title>Node1&#45;&gt;Node7</title>
<path fill="none" stroke="midnightblue" d="M83.0938,-76.4595C104.51,-67.2117 137.213,-53.0898 161.382,-42.6532"/>
<polygon fill="midnightblue" stroke="midnightblue" points="163.041,-45.7493 170.834,-38.5716 160.266,-39.3228 163.041,-45.7493"/>
</g>
<!-- Node5 -->
<g id="node5" class="node"><title>Node5</title>
<g id="a_node5"><a xlink:href="point_8cpp.html#a0586855a04f97999cb91cca634421222" target="_top" xlink:title="det4">
<polygon fill="none" stroke="black" points="293.5,-95.5 293.5,-114.5 328.5,-114.5 328.5,-95.5 293.5,-95.5"/>
<text text-anchor="middle" x="311" y="-102.5" font-family="Helvetica,sans-Serif" font-size="10.00">det4</text>
</a>
</g>
</g>
<!-- Node4&#45;&gt;Node5 -->
<g id="edge4" class="edge"><title>Node4&#45;&gt;Node5</title>
<path fill="none" stroke="midnightblue" d="M222.253,-105C240.687,-105 264.918,-105 283.246,-105"/>
<polygon fill="midnightblue" stroke="midnightblue" points="283.267,-108.5 293.266,-105 283.266,-101.5 283.267,-108.5"/>
</g>
<!-- Node6 -->
<g id="node6" class="node"><title>Node6</title>
<g id="a_node6"><a xlink:href="point_8cpp.html#a0fdafd56f3e289d97c15611bdbee0fec" target="_top" xlink:title="det3">
<polygon fill="none" stroke="black" points="403.5,-95.5 403.5,-114.5 438.5,-114.5 438.5,-95.5 403.5,-95.5"/>
<text text-anchor="middle" x="421" y="-102.5" font-family="Helvetica,sans-Serif" font-size="10.00">det3</text>
</a>
</g>
</g>
<!-- Node5&#45;&gt;Node6 -->
<g id="edge5" class="edge"><title>Node5&#45;&gt;Node6</title>
<path fill="none" stroke="midnightblue" d="M328.875,-105C346.074,-105 373.01,-105 393.143,-105"/>
<polygon fill="midnightblue" stroke="midnightblue" points="393.244,-108.5 403.243,-105 393.243,-101.5 393.244,-108.5"/>
</g>
<!-- Node7&#45;&gt;Node3 -->
<g id="edge11" class="edge"><title>Node7&#45;&gt;Node3</title>
<path fill="none" stroke="midnightblue" d="M224.019,-38.589C238.32,-43.3144 255.765,-49.0789 271.195,-54.1774"/>
<polygon fill="midnightblue" stroke="midnightblue" points="270.397,-57.5998 280.99,-57.4141 272.593,-50.9532 270.397,-57.5998"/>
</g>
<!-- Node8 -->
<g id="node8" class="node"><title>Node8</title>
<g id="a_node8"><a xlink:href="classedge__set.html#a4cd26bf920c05e300c6856848870aeb9" target="_top" xlink:title="edge_set::erase">
<polygon fill="none" stroke="black" points="268,-19.5 268,-38.5 354,-38.5 354,-19.5 268,-19.5"/>
<text text-anchor="middle" x="311" y="-26.5" font-family="Helvetica,sans-Serif" font-size="10.00">edge_set::erase</text>
</a>
</g>
</g>
<!-- Node7&#45;&gt;Node8 -->
<g id="edge7" class="edge"><title>Node7&#45;&gt;Node8</title>
<path fill="none" stroke="midnightblue" d="M232.02,-29C240.231,-29 249.084,-29 257.775,-29"/>
<polygon fill="midnightblue" stroke="midnightblue" points="257.854,-32.5001 267.854,-29 257.854,-25.5001 257.854,-32.5001"/>
</g>
<!-- Node9 -->
<g id="node9" class="node"><title>Node9</title>
<g id="a_node9"><a xlink:href="edge__set_8cpp.html#a04afedf3efb1930b4069d80cd6122ca9" target="_top" xlink:title="segment">
<polygon fill="none" stroke="black" points="394,-0.5 394,-19.5 448,-19.5 448,-0.5 394,-0.5"/>
<text text-anchor="middle" x="421" y="-7.5" font-family="Helvetica,sans-Serif" font-size="10.00">segment</text>
</a>
</g>
</g>
<!-- Node8&#45;&gt;Node9 -->
<g id="edge8" class="edge"><title>Node8&#45;&gt;Node9</title>
<path fill="none" stroke="midnightblue" d="M354.065,-21.5997C363.895,-19.8704 374.28,-18.0433 383.828,-16.3636"/>
<polygon fill="midnightblue" stroke="midnightblue" points="384.551,-19.7902 393.794,-14.6104 383.339,-12.896 384.551,-19.7902"/>
</g>
<!-- Node11 -->
<g id="node11" class="node"><title>Node11</title>
<g id="a_node11"><a xlink:href="classedge.html#a67b4470d9fae58c63a3a63765880cf58" target="_top" xlink:title="edge::print">
<polygon fill="none" stroke="black" points="390,-38.5 390,-57.5 452,-57.5 452,-38.5 390,-38.5"/>
<text text-anchor="middle" x="421" y="-45.5" font-family="Helvetica,sans-Serif" font-size="10.00">edge::print</text>
</a>
</g>
</g>
<!-- Node8&#45;&gt;Node11 -->
<g id="edge10" class="edge"><title>Node8&#45;&gt;Node11</title>
<path fill="none" stroke="midnightblue" d="M354.065,-36.4003C362.571,-37.8967 371.492,-39.4662 379.927,-40.9501"/>
<polygon fill="midnightblue" stroke="midnightblue" points="379.459,-44.4214 389.914,-42.707 380.671,-37.5273 379.459,-44.4214"/>
</g>
<!-- Node10 -->
<g id="node10" class="node"><title>Node10</title>
<g id="a_node10"><a xlink:href="point_8hpp.html#ac3affcd51103a7fafe2143a933683b30" target="_top" xlink:title="bucket">
<polygon fill="none" stroke="black" points="488,-0.5 488,-19.5 534,-19.5 534,-0.5 488,-0.5"/>
<text text-anchor="middle" x="511" y="-7.5" font-family="Helvetica,sans-Serif" font-size="10.00">bucket</text>
</a>
</g>
</g>
<!-- Node9&#45;&gt;Node10 -->
<g id="edge9" class="edge"><title>Node9&#45;&gt;Node10</title>
<path fill="none" stroke="midnightblue" d="M448.403,-10C457.623,-10 468.078,-10 477.722,-10"/>
<polygon fill="midnightblue" stroke="midnightblue" points="477.773,-13.5001 487.773,-10 477.773,-6.5001 477.773,-13.5001"/>
</g>
</g>
</svg>
        <g id="navigator" transform="translate(0 0)" fill="#404254">
                <rect fill="#f2f5e9" fill-opacity="0.5" stroke="#606060" stroke-width=".5" x="0" y="0" width="60" height="60"/>
                <use id="zoomplus" xlink:href="#zoomPlus" x="17" y="9" onmousedown="handleZoom(evt,'in')"/>
                <use id="zoomminus" xlink:href="#zoomMin" x="42" y="9" onmousedown="handleZoom(evt,'out')"/>
                <use id="reset" xlink:href="#resetDef" x="30" y="36" onmousedown="handleReset()"/>
                <g id="arrowUp" xlink:href="#dirArrow" transform="translate(30 24)" onmousedown="handlePan(0,-1)">
                  <use xlink:href="#rim" fill="#404040">
                        <set attributeName="fill" to="#808080" begin="arrowUp.mouseover" end="arrowUp.mouseout"/>
                  </use>
                  <path fill="none" stroke="white" stroke-width="1.5" d="M0,-3.0v7 M-2.5,-0.5L0,-3.0L2.5,-0.5"/>
                </g>
                <g id="arrowRight" xlink:href="#dirArrow" transform="rotate(90) translate(36 -43)" onmousedown="handlePan(1,0)">
                  <use xlink:href="#rim" fill="#404040">
                        <set attributeName="fill" to="#808080" begin="arrowRight.mouseover" end="arrowRight.mouseout"/>
                  </use>
                  <path fill="none" stroke="white" stroke-width="1.5" d="M0,-3.0v7 M-2.5,-0.5L0,-3.0L2.5,-0.5"/>
                </g>
                <g id="arrowDown" xlink:href="#dirArrow" transform="rotate(180) translate(-30 -48)" onmousedown="handlePan(0,1)">
                  <use xlink:href="#rim" fill="#404040">
                        <set attributeName="fill" to="#808080" begin="arrowDown.mouseover" end="arrowDown.mouseout"/>
                  </use>
                  <path fill="none" stroke="white" stroke-width="1.5" d="M0,-3.0v7 M-2.5,-0.5L0,-3.0L2.5,-0.5"/>
                </g>
                <g id="arrowLeft" xlink:href="#dirArrow" transform="rotate(270) translate(-36 17)" onmousedown="handlePan(-1,0)">
                  <use xlink:href="#rim" fill="#404040">
                        <set attributeName="fill" to="#808080" begin="arrowLeft.mouseover" end="arrowLeft.mouseout"/>
                  </use>
                  <path fill="none" stroke="white" stroke-width="1.5" d="M0,-3.0v7 M-2.5,-0.5L0,-3.0L2.5,-0.5"/>
                </g>
        </g>
        <svg viewBox="0 0 15 15" width="100%" height="30px" preserveAspectRatio="xMaxYMin meet">
         <g id="arrow_out" transform="scale(0.3 0.3)">
          <a xlink:href="structpv__side_ab6c6440d122035bd15a096d96350ce77_cgraph_org.svg" target="_base">
           <rect id="button" ry="5" rx="5" y="6" x="6" height="38" width="38"
                fill="#f2f5e9" fill-opacity="0.5" stroke="#606060" stroke-width="1.0"/>
           <path id="arrow"
             d="M 11.500037,31.436501 C 11.940474,20.09759 22.043105,11.32322 32.158766,21.979434 L 37.068811,17.246167 C 37.068811,17.246167 37.088388,32 37.088388,32 L 22.160133,31.978069 C 22.160133,31.978069 26.997745,27.140456 26.997745,27.140456 C 18.528582,18.264221 13.291696,25.230495 11.500037,31.436501 z"
             style="fill:#404040;"/>
          </a>
         </g>
        </svg>
</svg>
