<?xml version="1.0" encoding="UTF-8" standalone="no"?>
<!DOCTYPE svg PUBLIC "-//W3C//DTD SVG 1.1//EN"
 "http://www.w3.org/Graphics/SVG/1.1/DTD/svg11.dtd">
<!-- Generated by graphviz version 2.36.0 (20140111.2315)
 -->
<!-- Title: stm::HourglassCM::onBegin Pages: 1 -->
<svg width="1486pt" height="210pt"
 viewBox="0.00 0.00 1486.00 210.00" xmlns="http://www.w3.org/2000/svg" xmlns:xlink="http://www.w3.org/1999/xlink">
<g id="graph0" class="graph" transform="scale(1 1) rotate(0) translate(4 206)">
<title>stm::HourglassCM::onBegin</title>
<!-- Node1 -->
<g id="node1" class="node"><title>Node1</title>
<polygon fill="#bfbfbf" stroke="black" points="0,-46.5 0,-65.5 140,-65.5 140,-46.5 0,-46.5"/>
<text text-anchor="middle" x="70" y="-53.5" font-family="Helvetica,sans-Serif" font-size="10.00">stm::HourglassCM::onBegin</text>
</g>
<!-- Node2 -->
<g id="node2" class="node"><title>Node2</title>
<g id="a_node2"><a xlink:href="namespacestm.html#a347d5009be494e8595a8933c49a342b4" target="_top" xlink:title="stm::begin_blocker">
<polygon fill="none" stroke="black" points="176.5,-46.5 176.5,-65.5 275.5,-65.5 275.5,-46.5 176.5,-46.5"/>
<text text-anchor="middle" x="226" y="-53.5" font-family="Helvetica,sans-Serif" font-size="10.00">stm::begin_blocker</text>
</a>
</g>
</g>
<!-- Node1&#45;&gt;Node2 -->
<g id="edge1" class="edge"><title>Node1&#45;&gt;Node2</title>
<path fill="none" stroke="midnightblue" d="M140.341,-56C148.969,-56 157.725,-56 166.172,-56"/>
<polygon fill="midnightblue" stroke="midnightblue" points="166.293,-59.5001 176.293,-56 166.293,-52.5001 166.293,-59.5001"/>
</g>
<!-- Node3 -->
<g id="node3" class="node"><title>Node3</title>
<g id="a_node3"><a xlink:href="namespaceanonymous__namespace_02irrevocability_8cpp_03.html#a5f2e3da55eda99c9e30b6314c36ed8b2" target="_top" xlink:title="anonymous_namespace\l\{irrevocability::cpp\}\l::set_irrevocable_barriers">
<polygon fill="none" stroke="black" points="312,-60.5 312,-101.5 438,-101.5 438,-60.5 312,-60.5"/>
<text text-anchor="start" x="320" y="-89.5" font-family="Helvetica,sans-Serif" font-size="10.00">anonymous_namespace</text>
<text text-anchor="start" x="320" y="-78.5" font-family="Helvetica,sans-Serif" font-size="10.00">{irrevocability::cpp}</text>
<text text-anchor="middle" x="375" y="-67.5" font-family="Helvetica,sans-Serif" font-size="10.00">::set_irrevocable_barriers</text>
</a>
</g>
</g>
<!-- Node2&#45;&gt;Node3 -->
<g id="edge2" class="edge"><title>Node2&#45;&gt;Node3</title>
<path fill="none" stroke="midnightblue" d="M275.541,-64.2552C283.987,-65.6916 292.931,-67.2128 301.85,-68.7295"/>
<polygon fill="midnightblue" stroke="midnightblue" points="301.434,-72.209 311.879,-70.4353 302.608,-65.3081 301.434,-72.209"/>
</g>
<!-- Node18 -->
<g id="node18" class="node"><title>Node18</title>
<g id="a_node18"><a xlink:href="locks_8hpp.html#a67493dc021b0db009a9603ea55d18c59" target="_top" xlink:title="spin64">
<polygon fill="none" stroke="black" points="352.5,-22.5 352.5,-41.5 397.5,-41.5 397.5,-22.5 352.5,-22.5"/>
<text text-anchor="middle" x="375" y="-29.5" font-family="Helvetica,sans-Serif" font-size="10.00">spin64</text>
</a>
</g>
</g>
<!-- Node2&#45;&gt;Node18 -->
<g id="edge18" class="edge"><title>Node2&#45;&gt;Node18</title>
<path fill="none" stroke="midnightblue" d="M275.541,-48.075C297.516,-44.4872 322.869,-40.3479 342.345,-37.1682"/>
<polygon fill="midnightblue" stroke="midnightblue" points="342.917,-40.6213 352.222,-35.5556 341.789,-33.7127 342.917,-40.6213"/>
</g>
<!-- Node4 -->
<g id="node4" class="node"><title>Node4</title>
<g id="a_node4"><a xlink:href="namespaceanonymous__namespace_02irrevocability_8cpp_03.html#af9e6aae425588bac29be16e10b91cd4c" target="_top" xlink:title="anonymous_namespace\l\{irrevocability::cpp\}\l::commit_irrevocable">
<polygon fill="none" stroke="black" points="474,-120.5 474,-161.5 596,-161.5 596,-120.5 474,-120.5"/>
<text text-anchor="start" x="482" y="-149.5" font-family="Helvetica,sans-Serif" font-size="10.00">anonymous_namespace</text>
<text text-anchor="start" x="482" y="-138.5" font-family="Helvetica,sans-Serif" font-size="10.00">{irrevocability::cpp}</text>
<text text-anchor="middle" x="535" y="-127.5" font-family="Helvetica,sans-Serif" font-size="10.00">::commit_irrevocable</text>
</a>
</g>
</g>
<!-- Node3&#45;&gt;Node4 -->
<g id="edge3" class="edge"><title>Node3&#45;&gt;Node4</title>
<path fill="none" stroke="midnightblue" d="M430.375,-101.649C443.232,-106.531 457.057,-111.781 470.287,-116.805"/>
<polygon fill="midnightblue" stroke="midnightblue" points="469.202,-120.137 479.793,-120.415 471.687,-113.593 469.202,-120.137"/>
</g>
<!-- Node15 -->
<g id="node15" class="node"><title>Node15</title>
<g id="a_node15"><a xlink:href="namespaceanonymous__namespace_02irrevocability_8cpp_03.html#adfdb44f5b204ddd367543d1e3a5465fc" target="_top" xlink:title="anonymous_namespace\l\{irrevocability::cpp\}\l::rollback_irrevocable">
<polygon fill="none" stroke="black" points="474,-60.5 474,-101.5 596,-101.5 596,-60.5 474,-60.5"/>
<text text-anchor="start" x="482" y="-89.5" font-family="Helvetica,sans-Serif" font-size="10.00">anonymous_namespace</text>
<text text-anchor="start" x="482" y="-78.5" font-family="Helvetica,sans-Serif" font-size="10.00">{irrevocability::cpp}</text>
<text text-anchor="middle" x="535" y="-67.5" font-family="Helvetica,sans-Serif" font-size="10.00">::rollback_irrevocable</text>
</a>
</g>
</g>
<!-- Node3&#45;&gt;Node15 -->
<g id="edge14" class="edge"><title>Node3&#45;&gt;Node15</title>
<path fill="none" stroke="midnightblue" d="M438.446,-81C446.724,-81 455.257,-81 463.658,-81"/>
<polygon fill="midnightblue" stroke="midnightblue" points="463.813,-84.5001 473.813,-81 463.813,-77.5001 463.813,-84.5001"/>
</g>
<!-- Node17 -->
<g id="node17" class="node"><title>Node17</title>
<g id="a_node17"><a xlink:href="namespaceanonymous__namespace_02irrevocability_8cpp_03.html#ac71fd4f2ae60b1814ccaedea40d424a2" target="_top" xlink:title="anonymous_namespace\l\{irrevocability::cpp\}\l::abort_irrevocable">
<polygon fill="none" stroke="black" points="474,-0.5 474,-41.5 596,-41.5 596,-0.5 474,-0.5"/>
<text text-anchor="start" x="482" y="-29.5" font-family="Helvetica,sans-Serif" font-size="10.00">anonymous_namespace</text>
<text text-anchor="start" x="482" y="-18.5" font-family="Helvetica,sans-Serif" font-size="10.00">{irrevocability::cpp}</text>
<text text-anchor="middle" x="535" y="-7.5" font-family="Helvetica,sans-Serif" font-size="10.00">::abort_irrevocable</text>
</a>
</g>
</g>
<!-- Node3&#45;&gt;Node17 -->
<g id="edge16" class="edge"><title>Node3&#45;&gt;Node17</title>
<path fill="none" stroke="midnightblue" d="M430.375,-60.3514C443.232,-55.4687 457.057,-50.2189 470.287,-45.1949"/>
<polygon fill="midnightblue" stroke="midnightblue" points="471.687,-48.4072 479.793,-41.585 469.202,-41.8631 471.687,-48.4072"/>
</g>
<!-- Node5 -->
<g id="node5" class="node"><title>Node5</title>
<g id="a_node5"><a xlink:href="namespaceanonymous__namespace_02irrevocability_8cpp_03.html#ab42770392de26e3b0bc1ffbe2f7932b8" target="_top" xlink:title="anonymous_namespace\l\{irrevocability::cpp\}\l::unset_irrevocable_barriers">
<polygon fill="none" stroke="black" points="632.5,-141.5 632.5,-182.5 769.5,-182.5 769.5,-141.5 632.5,-141.5"/>
<text text-anchor="start" x="640.5" y="-170.5" font-family="Helvetica,sans-Serif" font-size="10.00">anonymous_namespace</text>
<text text-anchor="start" x="640.5" y="-159.5" font-family="Helvetica,sans-Serif" font-size="10.00">{irrevocability::cpp}</text>
<text text-anchor="middle" x="701" y="-148.5" font-family="Helvetica,sans-Serif" font-size="10.00">::unset_irrevocable_barriers</text>
</a>
</g>
</g>
<!-- Node4&#45;&gt;Node5 -->
<g id="edge4" class="edge"><title>Node4&#45;&gt;Node5</title>
<path fill="none" stroke="midnightblue" d="M596.136,-148.7C604.705,-149.798 613.616,-150.939 622.459,-152.071"/>
<polygon fill="midnightblue" stroke="midnightblue" points="622.027,-155.544 632.391,-153.343 622.916,-148.601 622.027,-155.544"/>
</g>
<!-- Node6 -->
<g id="node6" class="node"><title>Node6</title>
<g id="a_node6"><a xlink:href="namespacestm.html#a00287c50a719dcda144cc1cbc9e9ae4b" target="_top" xlink:title="stm::OnReadOnlyCommit">
<polygon fill="none" stroke="black" points="636,-103.5 636,-122.5 766,-122.5 766,-103.5 636,-103.5"/>
<text text-anchor="middle" x="701" y="-110.5" font-family="Helvetica,sans-Serif" font-size="10.00">stm::OnReadOnlyCommit</text>
</a>
</g>
</g>
<!-- Node4&#45;&gt;Node6 -->
<g id="edge5" class="edge"><title>Node4&#45;&gt;Node6</title>
<path fill="none" stroke="midnightblue" d="M596.136,-130.733C608.543,-128.615 621.671,-126.373 634.265,-124.223"/>
<polygon fill="midnightblue" stroke="midnightblue" points="634.958,-127.655 644.227,-122.522 633.78,-120.755 634.958,-127.655"/>
</g>
<!-- Node7 -->
<g id="node7" class="node"><title>Node7</title>
<g id="a_node7"><a xlink:href="classstm_1_1WBMMPolicy.html#af174b70b9898c8d900a5a2604cfadc7c" target="_top" xlink:title="stm::WBMMPolicy::onTxCommit">
<polygon fill="none" stroke="black" points="806.5,-122.5 806.5,-141.5 967.5,-141.5 967.5,-122.5 806.5,-122.5"/>
<text text-anchor="middle" x="887" y="-129.5" font-family="Helvetica,sans-Serif" font-size="10.00">stm::WBMMPolicy::onTxCommit</text>
</a>
</g>
</g>
<!-- Node6&#45;&gt;Node7 -->
<g id="edge6" class="edge"><title>Node6&#45;&gt;Node7</title>
<path fill="none" stroke="midnightblue" d="M766.096,-119.619C775.819,-120.623 786.002,-121.674 796.15,-122.722"/>
<polygon fill="midnightblue" stroke="midnightblue" points="795.961,-126.221 806.267,-123.767 796.68,-119.258 795.961,-126.221"/>
</g>
<!-- Node14 -->
<g id="node14" class="node"><title>Node14</title>
<g id="a_node14"><a xlink:href="structstm_1_1toxic__nop__t.html#a1c92cb621137c523ad38b9c252b4da06" target="_top" xlink:title="stm::toxic_nop_t::onCommit">
<polygon fill="none" stroke="black" points="817,-84.5 817,-103.5 957,-103.5 957,-84.5 817,-84.5"/>
<text text-anchor="middle" x="887" y="-91.5" font-family="Helvetica,sans-Serif" font-size="10.00">stm::toxic_nop_t::onCommit</text>
</a>
</g>
</g>
<!-- Node6&#45;&gt;Node14 -->
<g id="edge13" class="edge"><title>Node6&#45;&gt;Node14</title>
<path fill="none" stroke="midnightblue" d="M766.096,-106.381C779.154,-105.033 793.041,-103.599 806.559,-102.203"/>
<polygon fill="midnightblue" stroke="midnightblue" points="807.218,-105.654 816.805,-101.145 806.498,-98.6909 807.218,-105.654"/>
</g>
<!-- Node8 -->
<g id="node8" class="node"><title>Node8</title>
<g id="a_node8"><a xlink:href="classstm_1_1MiniVector.html#a4d707e1115e162943b4709a2af92ed77" target="_top" xlink:title="stm::MiniVector::begin">
<polygon fill="none" stroke="black" points="1019.5,-182.5 1019.5,-201.5 1134.5,-201.5 1134.5,-182.5 1019.5,-182.5"/>
<text text-anchor="middle" x="1077" y="-189.5" font-family="Helvetica,sans-Serif" font-size="10.00">stm::MiniVector::begin</text>
</a>
</g>
</g>
<!-- Node7&#45;&gt;Node8 -->
<g id="edge7" class="edge"><title>Node7&#45;&gt;Node8</title>
<path fill="none" stroke="midnightblue" d="M913.146,-141.558C936.509,-150.278 972.36,-163.252 1004,-173 1011.56,-175.329 1019.61,-177.629 1027.5,-179.782"/>
<polygon fill="midnightblue" stroke="midnightblue" points="1026.78,-183.213 1037.35,-182.421 1028.59,-176.452 1026.78,-183.213"/>
</g>
<!-- Node9 -->
<g id="node9" class="node"><title>Node9</title>
<g id="a_node9"><a xlink:href="classstm_1_1MiniVector.html#ae2297c706ac2ebee161ef60ace9ae645" target="_top" xlink:title="stm::MiniVector::end">
<polygon fill="none" stroke="black" points="1023.5,-144.5 1023.5,-163.5 1130.5,-163.5 1130.5,-144.5 1023.5,-144.5"/>
<text text-anchor="middle" x="1077" y="-151.5" font-family="Helvetica,sans-Serif" font-size="10.00">stm::MiniVector::end</text>
</a>
</g>
</g>
<!-- Node7&#45;&gt;Node9 -->
<g id="edge8" class="edge"><title>Node7&#45;&gt;Node9</title>
<path fill="none" stroke="midnightblue" d="M967.729,-141.33C983.016,-143.119 998.818,-144.968 1013.47,-146.682"/>
<polygon fill="midnightblue" stroke="midnightblue" points="1013.07,-150.159 1023.4,-147.845 1013.88,-143.207 1013.07,-150.159"/>
</g>
<!-- Node10 -->
<g id="node10" class="node"><title>Node10</title>
<g id="a_node10"><a xlink:href="classstm_1_1WBMMPolicy.html#aa2aa233946e7b6b1d35b184503b8c9f9" target="_top" xlink:title="stm::WBMMPolicy::schedFor\lReclaim">
<polygon fill="none" stroke="black" points="1004,-95 1004,-125 1150,-125 1150,-95 1004,-95"/>
<text text-anchor="start" x="1012" y="-113" font-family="Helvetica,sans-Serif" font-size="10.00">stm::WBMMPolicy::schedFor</text>
<text text-anchor="middle" x="1077" y="-102" font-family="Helvetica,sans-Serif" font-size="10.00">Reclaim</text>
</a>
</g>
</g>
<!-- Node7&#45;&gt;Node10 -->
<g id="edge9" class="edge"><title>Node7&#45;&gt;Node10</title>
<path fill="none" stroke="midnightblue" d="M967.729,-122.67C976.361,-121.66 985.157,-120.631 993.817,-119.617"/>
<polygon fill="midnightblue" stroke="midnightblue" points="994.377,-123.076 1003.9,-118.437 993.563,-116.123 994.377,-123.076"/>
</g>
<!-- Node13 -->
<g id="node13" class="node"><title>Node13</title>
<g id="a_node13"><a xlink:href="classstm_1_1MiniVector.html#ad17f9c76202d399264ba62812f0b5c41" target="_top" xlink:title="stm::MiniVector::reset">
<polygon fill="none" stroke="black" points="1020.5,-56.5 1020.5,-75.5 1133.5,-75.5 1133.5,-56.5 1020.5,-56.5"/>
<text text-anchor="middle" x="1077" y="-63.5" font-family="Helvetica,sans-Serif" font-size="10.00">stm::MiniVector::reset</text>
</a>
</g>
</g>
<!-- Node7&#45;&gt;Node13 -->
<g id="edge12" class="edge"><title>Node7&#45;&gt;Node13</title>
<path fill="none" stroke="midnightblue" d="M941.965,-122.394C950.877,-119.906 959.857,-116.817 968,-113 986.109,-104.511 986.054,-94.8292 1004,-86 1009.65,-83.2187 1015.75,-80.773 1021.92,-78.6355"/>
<polygon fill="midnightblue" stroke="midnightblue" points="1023.18,-81.91 1031.63,-75.5265 1021.04,-75.2436 1023.18,-81.91"/>
</g>
<!-- Node11 -->
<g id="node11" class="node"><title>Node11</title>
<g id="a_node11"><a xlink:href="classstm_1_1WBMMPolicy.html#a80a035e5b8f805d49606613b869ddd3c" target="_top" xlink:title="stm::WBMMPolicy::handle\l_full_prelimbo">
<polygon fill="none" stroke="black" points="1186,-95 1186,-125 1320,-125 1320,-95 1186,-95"/>
<text text-anchor="start" x="1194" y="-113" font-family="Helvetica,sans-Serif" font-size="10.00">stm::WBMMPolicy::handle</text>
<text text-anchor="middle" x="1253" y="-102" font-family="Helvetica,sans-Serif" font-size="10.00">_full_prelimbo</text>
</a>
</g>
</g>
<!-- Node10&#45;&gt;Node11 -->
<g id="edge10" class="edge"><title>Node10&#45;&gt;Node11</title>
<path fill="none" stroke="midnightblue" d="M1150.03,-110C1158.47,-110 1167.11,-110 1175.6,-110"/>
<polygon fill="midnightblue" stroke="midnightblue" points="1175.88,-113.5 1185.88,-110 1175.88,-106.5 1175.88,-113.5"/>
</g>
<!-- Node12 -->
<g id="node12" class="node"><title>Node12</title>
<g id="a_node12"><a xlink:href="namespaceanonymous__namespace_02WBMMPolicy_8cpp_03.html#a030c6e9142fd49127ce70ad9b1af5e79" target="_top" xlink:title="anonymous_namespace\l\{WBMMPolicy::cpp\}::is\l_strictly_older">
<polygon fill="none" stroke="black" points="1356,-89.5 1356,-130.5 1478,-130.5 1478,-89.5 1356,-89.5"/>
<text text-anchor="start" x="1364" y="-118.5" font-family="Helvetica,sans-Serif" font-size="10.00">anonymous_namespace</text>
<text text-anchor="start" x="1364" y="-107.5" font-family="Helvetica,sans-Serif" font-size="10.00">{WBMMPolicy::cpp}::is</text>
<text text-anchor="middle" x="1417" y="-96.5" font-family="Helvetica,sans-Serif" font-size="10.00">_strictly_older</text>
</a>
</g>
</g>
<!-- Node11&#45;&gt;Node12 -->
<g id="edge11" class="edge"><title>Node11&#45;&gt;Node12</title>
<path fill="none" stroke="midnightblue" d="M1320.36,-110C1328.75,-110 1337.35,-110 1345.79,-110"/>
<polygon fill="midnightblue" stroke="midnightblue" points="1345.99,-113.5 1355.99,-110 1345.99,-106.5 1345.99,-113.5"/>
</g>
<!-- Node16 -->
<g id="node16" class="node"><title>Node16</title>
<g id="a_node16"><a xlink:href="namespacestm.html#a51b2c0958e7709b39500d037648c461b" target="_top" xlink:title="stm::UNRECOVERABLE">
<polygon fill="none" stroke="black" points="636,-49.5 636,-68.5 766,-68.5 766,-49.5 636,-49.5"/>
<text text-anchor="middle" x="701" y="-56.5" font-family="Helvetica,sans-Serif" font-size="10.00">stm::UNRECOVERABLE</text>
</a>
</g>
</g>
<!-- Node15&#45;&gt;Node16 -->
<g id="edge15" class="edge"><title>Node15&#45;&gt;Node16</title>
<path fill="none" stroke="midnightblue" d="M596.136,-72.9329C605.703,-71.6496 615.698,-70.3088 625.546,-68.9877"/>
<polygon fill="midnightblue" stroke="midnightblue" points="626.287,-72.4198 635.733,-67.6212 625.356,-65.482 626.287,-72.4198"/>
</g>
<!-- Node17&#45;&gt;Node16 -->
<g id="edge17" class="edge"><title>Node17&#45;&gt;Node16</title>
<path fill="none" stroke="midnightblue" d="M596.136,-34.934C613.397,-38.9334 632.052,-43.2559 648.726,-47.1193"/>
<polygon fill="midnightblue" stroke="midnightblue" points="648.289,-50.6108 658.821,-49.4585 649.869,-43.7915 648.289,-50.6108"/>
</g>
</g>
</svg>
