<?xml version="1.0" encoding="UTF-8" standalone="no"?>
<!DOCTYPE svg PUBLIC "-//W3C//DTD SVG 1.1//EN"
 "http://www.w3.org/Graphics/SVG/1.1/DTD/svg11.dtd">
<!-- Generated by graphviz version 2.36.0 (20140111.2315)
 -->
<!-- Title: stm::dynprof_t::clear Pages: 1 -->
<svg width="764pt" height="98pt"
 viewBox="0.00 0.00 764.00 98.00" xmlns="http://www.w3.org/2000/svg" xmlns:xlink="http://www.w3.org/1999/xlink">
<g id="graph0" class="graph" transform="scale(1 1) rotate(0) translate(4 94)">
<title>stm::dynprof_t::clear</title>
<!-- Node1 -->
<g id="node1" class="node"><title>Node1</title>
<polygon fill="#bfbfbf" stroke="black" points="0.5,-32.5 0.5,-51.5 107.5,-51.5 107.5,-32.5 0.5,-32.5"/>
<text text-anchor="middle" x="54" y="-39.5" font-family="Helvetica,sans-Serif" font-size="10.00">stm::dynprof_t::clear</text>
</g>
<!-- Node2 -->
<g id="node2" class="node"><title>Node2</title>
<g id="a_node2"><a xlink:href="structstm_1_1dynprof__t.html#a2b3bf61e8cd914963dc3ff653ec2f6bc" target="_top" xlink:title="stm::dynprof_t::doavg">
<polygon fill="none" stroke="black" points="144,-32.5 144,-51.5 256,-51.5 256,-32.5 144,-32.5"/>
<text text-anchor="middle" x="200" y="-39.5" font-family="Helvetica,sans-Serif" font-size="10.00">stm::dynprof_t::doavg</text>
</a>
</g>
</g>
<!-- Node1&#45;&gt;Node2 -->
<g id="edge1" class="edge"><title>Node1&#45;&gt;Node2</title>
<path fill="none" stroke="midnightblue" d="M117.834,-42C126.475,-42 135.295,-42 143.786,-42"/>
<polygon fill="midnightblue" stroke="midnightblue" points="117.803,-38.5001 107.803,-42 117.803,-45.5001 117.803,-38.5001"/>
</g>
<!-- Node3 -->
<g id="node3" class="node"><title>Node3</title>
<g id="a_node3"><a xlink:href="namespaceanonymous__namespace_02cbr_8cpp_03.html#a24ec6eb1e0eca0a6b9866180e5e3ecb0" target="_top" xlink:title="anonymous_namespace\l\{cbr::cpp\}::profile\l_nochange">
<polygon fill="none" stroke="black" points="292,-48.5 292,-89.5 414,-89.5 414,-48.5 292,-48.5"/>
<text text-anchor="start" x="300" y="-77.5" font-family="Helvetica,sans-Serif" font-size="10.00">anonymous_namespace</text>
<text text-anchor="start" x="300" y="-66.5" font-family="Helvetica,sans-Serif" font-size="10.00">{cbr::cpp}::profile</text>
<text text-anchor="middle" x="353" y="-55.5" font-family="Helvetica,sans-Serif" font-size="10.00">_nochange</text>
</a>
</g>
</g>
<!-- Node2&#45;&gt;Node3 -->
<g id="edge2" class="edge"><title>Node2&#45;&gt;Node3</title>
<path fill="none" stroke="midnightblue" d="M264.358,-53.3288C273.438,-54.9524 282.758,-56.6191 291.776,-58.2314"/>
<polygon fill="midnightblue" stroke="midnightblue" points="264.697,-49.8341 254.237,-51.5192 263.465,-56.7248 264.697,-49.8341"/>
</g>
<!-- Node7 -->
<g id="node7" class="node"><title>Node7</title>
<g id="a_node7"><a xlink:href="namespaceanonymous__namespace_02cbr_8cpp_03.html#a4ddd26e7ad4488682da335e5ad1a3351" target="_top" xlink:title="anonymous_namespace\l\{cbr::cpp\}::cbr_nn">
<polygon fill="none" stroke="black" points="292,-0 292,-30 414,-30 414,-0 292,-0"/>
<text text-anchor="start" x="300" y="-18" font-family="Helvetica,sans-Serif" font-size="10.00">anonymous_namespace</text>
<text text-anchor="middle" x="353" y="-7" font-family="Helvetica,sans-Serif" font-size="10.00">{cbr::cpp}::cbr_nn</text>
</a>
</g>
</g>
<!-- Node2&#45;&gt;Node7 -->
<g id="edge6" class="edge"><title>Node2&#45;&gt;Node7</title>
<path fill="none" stroke="midnightblue" d="M264.358,-30.6712C273.438,-29.0476 282.758,-27.3809 291.776,-25.7686"/>
<polygon fill="midnightblue" stroke="midnightblue" points="263.465,-27.2752 254.237,-32.4808 264.697,-34.1659 263.465,-27.2752"/>
</g>
<!-- Node4 -->
<g id="node4" class="node"><title>Node4</title>
<g id="a_node4"><a xlink:href="namespacestm.html#aa0b1d39423394b3e447d37ac36e9fde3" target="_top" xlink:title="stm::init_pol_cbr">
<polygon fill="none" stroke="black" points="450.5,-59.5 450.5,-78.5 539.5,-78.5 539.5,-59.5 450.5,-59.5"/>
<text text-anchor="middle" x="495" y="-66.5" font-family="Helvetica,sans-Serif" font-size="10.00">stm::init_pol_cbr</text>
</a>
</g>
</g>
<!-- Node3&#45;&gt;Node4 -->
<g id="edge3" class="edge"><title>Node3&#45;&gt;Node4</title>
<path fill="none" stroke="midnightblue" d="M424.215,-69C433.124,-69 442.028,-69 450.351,-69"/>
<polygon fill="midnightblue" stroke="midnightblue" points="424.185,-65.5001 414.185,-69 424.185,-72.5001 424.185,-65.5001"/>
</g>
<!-- Node5 -->
<g id="node5" class="node"><title>Node5</title>
<g id="a_node5"><a xlink:href="namespacestm.html#a4d7a6395ef81ca8e19fa2168d69e219b" target="_top" xlink:title="stm::pol_init">
<polygon fill="none" stroke="black" points="576,-59.5 576,-78.5 646,-78.5 646,-59.5 576,-59.5"/>
<text text-anchor="middle" x="611" y="-66.5" font-family="Helvetica,sans-Serif" font-size="10.00">stm::pol_init</text>
</a>
</g>
</g>
<!-- Node4&#45;&gt;Node5 -->
<g id="edge4" class="edge"><title>Node4&#45;&gt;Node5</title>
<path fill="none" stroke="midnightblue" d="M549.96,-69C558.738,-69 567.613,-69 575.748,-69"/>
<polygon fill="midnightblue" stroke="midnightblue" points="549.749,-65.5001 539.749,-69 549.749,-72.5001 549.749,-65.5001"/>
</g>
<!-- Node6 -->
<g id="node6" class="node"><title>Node6</title>
<g id="a_node6"><a xlink:href="namespacestm.html#aac29e08fdc4a251a12088bd799e7a4f4" target="_top" xlink:title="stm::sys_init">
<polygon fill="none" stroke="black" points="682.5,-59.5 682.5,-78.5 755.5,-78.5 755.5,-59.5 682.5,-59.5"/>
<text text-anchor="middle" x="719" y="-66.5" font-family="Helvetica,sans-Serif" font-size="10.00">stm::sys_init</text>
</a>
</g>
</g>
<!-- Node5&#45;&gt;Node6 -->
<g id="edge5" class="edge"><title>Node5&#45;&gt;Node6</title>
<path fill="none" stroke="midnightblue" d="M656.198,-69C664.961,-69 674.054,-69 682.482,-69"/>
<polygon fill="midnightblue" stroke="midnightblue" points="656.123,-65.5001 646.123,-69 656.123,-72.5001 656.123,-65.5001"/>
</g>
</g>
</svg>
