<?xml version="1.0" encoding="UTF-8" standalone="no"?>
<!DOCTYPE svg PUBLIC "-//W3C//DTD SVG 1.1//EN"
 "http://www.w3.org/Graphics/SVG/1.1/DTD/svg11.dtd">
<!-- Generated by graphviz version 2.36.0 (20140111.2315)
 -->
<!-- Title: RSTMList::Node Pages: 1 -->
<svg width="158pt" height="184pt"
 viewBox="0.00 0.00 158.00 184.00" xmlns="http://www.w3.org/2000/svg" xmlns:xlink="http://www.w3.org/1999/xlink">
<g id="graph0" class="graph" transform="scale(1 1) rotate(0) translate(4 180)">
<title>RSTMList::Node</title>
<!-- Node1 -->
<g id="node1" class="node"><title>Node1</title>
<polygon fill="#bfbfbf" stroke="black" points="0,-1 0,-69 90,-69 90,-1 0,-1"/>
<text text-anchor="middle" x="45" y="-57" font-family="Helvetica,sans-Serif" font-size="10.00">RSTMList::Node</text>
<polyline fill="none" stroke="black" points="0,-50 90,-50 "/>
<text text-anchor="middle" x="45" y="-38" font-family="Helvetica,sans-Serif" font-size="10.00"> </text>
<polyline fill="none" stroke="black" points="0,-31 90,-31 "/>
<text text-anchor="start" x="8" y="-19" font-family="Helvetica,sans-Serif" font-size="10.00">+ Node()</text>
<text text-anchor="start" x="8" y="-8" font-family="Helvetica,sans-Serif" font-size="10.00">+ Node()</text>
</g>
<!-- Node1&#45;&gt;Node1 -->
<g id="edge2" class="edge"><title>Node1&#45;&gt;Node1</title>
<path fill="none" stroke="#404040" d="M90.0205,-45.6354C100.386,-44.719 108,-41.1738 108,-35 108,-31.6237 105.723,-29.0335 101.964,-27.2296"/>
<polygon fill="none" stroke="#404040" points="101.689,-27.1638 94.9219,-29.6539 90.0205,-24.3646 96.788,-21.8746 101.689,-27.1638"/>
<text text-anchor="middle" x="129" y="-32.5" font-family="Helvetica,sans-Serif" font-size="10.00"> +m_next</text>
</g>
<!-- Node2 -->
<g id="node2" class="node"><title>Node2</title>
<polygon fill="none" stroke="#bfbfbf" points="30.5,-118.5 30.5,-175.5 59.5,-175.5 59.5,-118.5 30.5,-118.5"/>
<text text-anchor="middle" x="45" y="-163.5" font-family="Helvetica,sans-Serif" font-size="10.00">int</text>
<polyline fill="none" stroke="#bfbfbf" points="30.5,-156.5 59.5,-156.5 "/>
<text text-anchor="middle" x="45" y="-144.5" font-family="Helvetica,sans-Serif" font-size="10.00"> </text>
<polyline fill="none" stroke="#bfbfbf" points="30.5,-137.5 59.5,-137.5 "/>
<text text-anchor="middle" x="45" y="-125.5" font-family="Helvetica,sans-Serif" font-size="10.00"> </text>
</g>
<!-- Node2&#45;&gt;Node1 -->
<g id="edge1" class="edge"><title>Node2&#45;&gt;Node1</title>
<path fill="none" stroke="#404040" d="M45,-118.242C45,-107.073 45,-93.8972 45,-81.4036"/>
<polygon fill="none" stroke="#404040" points="45.0001,-81.2368 41,-75.2368 45,-69.2368 49,-75.2367 45.0001,-81.2368"/>
<text text-anchor="middle" x="63" y="-91.5" font-family="Helvetica,sans-Serif" font-size="10.00"> +m_val</text>
</g>
</g>
</svg>
