<?xml version="1.0" encoding="UTF-8" standalone="no"?>
<!DOCTYPE svg PUBLIC "-//W3C//DTD SVG 1.1//EN"
 "http://www.w3.org/Graphics/SVG/1.1/DTD/svg11.dtd">
<!-- Generated by graphviz version 2.36.0 (20140111.2315)
 -->
<!-- Title: TransList::NodeDesc Pages: 1 -->
<svg width="239pt" height="384pt"
 viewBox="0.00 0.00 239.00 384.00" xmlns="http://www.w3.org/2000/svg" xmlns:xlink="http://www.w3.org/1999/xlink">
<g id="graph0" class="graph" transform="scale(1 1) rotate(0) translate(4 380)">
<title>TransList::NodeDesc</title>
<!-- Node1 -->
<g id="node1" class="node"><title>Node1</title>
<polygon fill="#bfbfbf" stroke="black" points="0,-0.5 0,-57.5 110,-57.5 110,-0.5 0,-0.5"/>
<text text-anchor="middle" x="55" y="-45.5" font-family="Helvetica,sans-Serif" font-size="10.00">TransList::NodeDesc</text>
<polyline fill="none" stroke="black" points="0,-38.5 110,-38.5 "/>
<text text-anchor="middle" x="55" y="-26.5" font-family="Helvetica,sans-Serif" font-size="10.00"> </text>
<polyline fill="none" stroke="black" points="0,-19.5 110,-19.5 "/>
<text text-anchor="start" x="8" y="-7.5" font-family="Helvetica,sans-Serif" font-size="10.00">+ NodeDesc()</text>
</g>
<!-- Node2 -->
<g id="node2" class="node"><title>Node2</title>
<polygon fill="none" stroke="#bfbfbf" points="52,-318.5 52,-375.5 98,-375.5 98,-318.5 52,-318.5"/>
<text text-anchor="middle" x="75" y="-363.5" font-family="Helvetica,sans-Serif" font-size="10.00">uint8_t</text>
<polyline fill="none" stroke="#bfbfbf" points="52,-356.5 98,-356.5 "/>
<text text-anchor="middle" x="75" y="-344.5" font-family="Helvetica,sans-Serif" font-size="10.00"> </text>
<polyline fill="none" stroke="#bfbfbf" points="52,-337.5 98,-337.5 "/>
<text text-anchor="middle" x="75" y="-325.5" font-family="Helvetica,sans-Serif" font-size="10.00"> </text>
</g>
<!-- Node2&#45;&gt;Node1 -->
<g id="edge1" class="edge"><title>Node2&#45;&gt;Node1</title>
<path fill="none" stroke="#404040" d="M69.608,-318.391C62.9667,-282.852 52.0657,-219.112 48,-164 46.1035,-138.292 46.8166,-131.751 48,-106 48.5405,-94.2383 49.5492,-81.485 50.6359,-69.8456"/>
<polygon fill="none" stroke="#404040" points="50.6507,-69.6946 47.2582,-63.3313 51.8272,-57.7524 55.2197,-64.1157 50.6507,-69.6946"/>
<text text-anchor="middle" x="65" y="-185.5" font-family="Helvetica,sans-Serif" font-size="10.00"> +opid</text>
</g>
<!-- Node3 -->
<g id="node3" class="node"><title>Node3</title>
<g id="a_node3"><a xlink:href="structTransList_1_1Desc.html" target="_top" xlink:title="{TransList::Desc\n||+ SizeOf()\l}">
<polygon fill="none" stroke="black" points="57,-106.5 57,-163.5 143,-163.5 143,-106.5 57,-106.5"/>
<text text-anchor="middle" x="100" y="-151.5" font-family="Helvetica,sans-Serif" font-size="10.00">TransList::Desc</text>
<polyline fill="none" stroke="black" points="57,-144.5 143,-144.5 "/>
<text text-anchor="middle" x="100" y="-132.5" font-family="Helvetica,sans-Serif" font-size="10.00"> </text>
<polyline fill="none" stroke="black" points="57,-125.5 143,-125.5 "/>
<text text-anchor="start" x="65" y="-113.5" font-family="Helvetica,sans-Serif" font-size="10.00">+ SizeOf()</text>
</a>
</g>
</g>
<!-- Node2&#45;&gt;Node3 -->
<g id="edge3" class="edge"><title>Node2&#45;&gt;Node3</title>
<path fill="none" stroke="#404040" d="M75.7212,-318.425C76.6976,-291.252 78.9426,-248.609 84,-212 85.6397,-200.131 88.0688,-187.345 90.5417,-175.709"/>
<polygon fill="none" stroke="#404040" points="90.6211,-175.349 88.0081,-168.628 93.2071,-163.631 95.8201,-170.352 90.6211,-175.349"/>
<text text-anchor="middle" x="102.5" y="-244" font-family="Helvetica,sans-Serif" font-size="10.00"> +status</text>
<text text-anchor="middle" x="102.5" y="-233" font-family="Helvetica,sans-Serif" font-size="10.00">+size</text>
</g>
<!-- Node4 -->
<g id="node4" class="node"><title>Node4</title>
<g id="a_node4"><a xlink:href="structTransList_1_1Operator.html" target="_top" xlink:title="{TransList::Operator\n||}">
<polygon fill="none" stroke="black" points="130.5,-212.5 130.5,-269.5 231.5,-269.5 231.5,-212.5 130.5,-212.5"/>
<text text-anchor="middle" x="181" y="-257.5" font-family="Helvetica,sans-Serif" font-size="10.00">TransList::Operator</text>
<polyline fill="none" stroke="black" points="130.5,-250.5 231.5,-250.5 "/>
<text text-anchor="middle" x="181" y="-238.5" font-family="Helvetica,sans-Serif" font-size="10.00"> </text>
<polyline fill="none" stroke="black" points="130.5,-231.5 231.5,-231.5 "/>
<text text-anchor="middle" x="181" y="-219.5" font-family="Helvetica,sans-Serif" font-size="10.00"> </text>
</a>
</g>
</g>
<!-- Node2&#45;&gt;Node4 -->
<g id="edge6" class="edge"><title>Node2&#45;&gt;Node4</title>
<path fill="none" stroke="#404040" d="M98.0004,-323.434C111.438,-310.25 128.712,-293.302 144.018,-278.284"/>
<polygon fill="none" stroke="#404040" points="144.194,-278.112 145.675,-271.055 152.759,-269.708 151.278,-276.765 144.194,-278.112"/>
<text text-anchor="middle" x="146" y="-291.5" font-family="Helvetica,sans-Serif" font-size="10.00"> +type</text>
</g>
<!-- Node3&#45;&gt;Node1 -->
<g id="edge2" class="edge"><title>Node3&#45;&gt;Node1</title>
<path fill="none" stroke="#404040" d="M88.059,-106.403C83.0751,-94.8847 77.1974,-81.3007 71.7907,-68.8051"/>
<polygon fill="none" stroke="#404040" points="71.7622,-68.7393 65.7084,-64.8211 66.9968,-57.726 73.0506,-61.6442 71.7622,-68.7393"/>
<text text-anchor="middle" x="94.5" y="-79.5" font-family="Helvetica,sans-Serif" font-size="10.00"> +desc</text>
</g>
<!-- Node4&#45;&gt;Node3 -->
<g id="edge4" class="edge"><title>Node4&#45;&gt;Node3</title>
<path fill="none" stroke="#404040" d="M159.506,-212.403C150.169,-200.415 139.089,-186.188 129.036,-173.281"/>
<polygon fill="none" stroke="#404040" points="128.968,-173.193 122.125,-170.918 121.594,-163.726 128.437,-166.002 128.968,-173.193"/>
<text text-anchor="middle" x="155.5" y="-185.5" font-family="Helvetica,sans-Serif" font-size="10.00"> +ops</text>
</g>
<!-- Node5 -->
<g id="node5" class="node"><title>Node5</title>
<polygon fill="none" stroke="#bfbfbf" points="155.5,-318.5 155.5,-375.5 206.5,-375.5 206.5,-318.5 155.5,-318.5"/>
<text text-anchor="middle" x="181" y="-363.5" font-family="Helvetica,sans-Serif" font-size="10.00">uint32_t</text>
<polyline fill="none" stroke="#bfbfbf" points="155.5,-356.5 206.5,-356.5 "/>
<text text-anchor="middle" x="181" y="-344.5" font-family="Helvetica,sans-Serif" font-size="10.00"> </text>
<polyline fill="none" stroke="#bfbfbf" points="155.5,-337.5 206.5,-337.5 "/>
<text text-anchor="middle" x="181" y="-325.5" font-family="Helvetica,sans-Serif" font-size="10.00"> </text>
</g>
<!-- Node5&#45;&gt;Node4 -->
<g id="edge5" class="edge"><title>Node5&#45;&gt;Node4</title>
<path fill="none" stroke="#404040" d="M181,-318.403C181,-307.237 181,-294.13 181,-281.956"/>
<polygon fill="none" stroke="#404040" points="181,-281.726 177,-275.726 181,-269.726 185,-275.726 181,-281.726"/>
<text text-anchor="middle" x="193.5" y="-291.5" font-family="Helvetica,sans-Serif" font-size="10.00"> +key</text>
</g>
</g>
</svg>
