<?xml version="1.0" encoding="UTF-8" standalone="no"?>
<!DOCTYPE svg PUBLIC "-//W3C//DTD SVG 1.1//EN"
 "http://www.w3.org/Graphics/SVG/1.1/DTD/svg11.dtd">
<!-- Generated by graphviz version 2.36.0 (20140111.2315)
 -->
<!-- Title: list Pages: 1 -->
<svg width="336pt" height="324pt"
 viewBox="0.00 0.00 336.00 324.00" xmlns="http://www.w3.org/2000/svg" xmlns:xlink="http://www.w3.org/1999/xlink">
<g id="graph0" class="graph" transform="scale(1 1) rotate(0) translate(4 320)">
<title>list</title>
<!-- Node1 -->
<g id="node1" class="node"><title>Node1</title>
<polygon fill="#bfbfbf" stroke="black" points="158.5,-0.5 158.5,-57.5 187.5,-57.5 187.5,-0.5 158.5,-0.5"/>
<text text-anchor="middle" x="173" y="-45.5" font-family="Helvetica,sans-Serif" font-size="10.00">list</text>
<polyline fill="none" stroke="black" points="158.5,-38.5 187.5,-38.5 "/>
<text text-anchor="middle" x="173" y="-26.5" font-family="Helvetica,sans-Serif" font-size="10.00"> </text>
<polyline fill="none" stroke="black" points="158.5,-19.5 187.5,-19.5 "/>
<text text-anchor="middle" x="173" y="-7.5" font-family="Helvetica,sans-Serif" font-size="10.00"> </text>
</g>
<!-- Node2 -->
<g id="node2" class="node"><title>Node2</title>
<g id="a_node2"><a xlink:href="structlist__node.html" target="_top" xlink:title="{list_node\n||}">
<polygon fill="none" stroke="black" points="0,-112.5 0,-169.5 56,-169.5 56,-112.5 0,-112.5"/>
<text text-anchor="middle" x="28" y="-157.5" font-family="Helvetica,sans-Serif" font-size="10.00">list_node</text>
<polyline fill="none" stroke="black" points="0,-150.5 56,-150.5 "/>
<text text-anchor="middle" x="28" y="-138.5" font-family="Helvetica,sans-Serif" font-size="10.00"> </text>
<polyline fill="none" stroke="black" points="0,-131.5 56,-131.5 "/>
<text text-anchor="middle" x="28" y="-119.5" font-family="Helvetica,sans-Serif" font-size="10.00"> </text>
</a>
</g>
</g>
<!-- Node2&#45;&gt;Node1 -->
<g id="edge1" class="edge"><title>Node2&#45;&gt;Node1</title>
<path fill="none" stroke="#404040" d="M56.3017,-118.53C83.2483,-98.0875 123.368,-67.6522 148.847,-48.3226"/>
<polygon fill="none" stroke="#404040" points="148.912,-48.2734 151.275,-41.4603 158.473,-41.0207 156.11,-47.8338 148.912,-48.2734"/>
<text text-anchor="middle" x="125.5" y="-79.5" font-family="Helvetica,sans-Serif" font-size="10.00"> +head</text>
</g>
<!-- Node2&#45;&gt;Node2 -->
<g id="edge2" class="edge"><title>Node2&#45;&gt;Node2</title>
<path fill="none" stroke="#404040" d="M56.125,-151.875C65.5,-151.875 73,-148.25 73,-141 73,-137.375 71.125,-134.656 68.0781,-132.844"/>
<polygon fill="none" stroke="#404040" points="67.8261,-132.787 61.0884,-135.356 56.125,-130.125 62.8627,-127.555 67.8261,-132.787"/>
<text text-anchor="middle" x="93.5" y="-138.5" font-family="Helvetica,sans-Serif" font-size="10.00"> +nextPtr</text>
</g>
<!-- Node3 -->
<g id="node3" class="node"><title>Node3</title>
<polygon fill="none" stroke="#bfbfbf" points="7.5,-257.5 7.5,-314.5 48.5,-314.5 48.5,-257.5 7.5,-257.5"/>
<text text-anchor="middle" x="28" y="-302.5" font-family="Helvetica,sans-Serif" font-size="10.00">void *</text>
<polyline fill="none" stroke="#bfbfbf" points="7.5,-295.5 48.5,-295.5 "/>
<text text-anchor="middle" x="28" y="-283.5" font-family="Helvetica,sans-Serif" font-size="10.00"> </text>
<polyline fill="none" stroke="#bfbfbf" points="7.5,-276.5 48.5,-276.5 "/>
<text text-anchor="middle" x="28" y="-264.5" font-family="Helvetica,sans-Serif" font-size="10.00"> </text>
</g>
<!-- Node3&#45;&gt;Node2 -->
<g id="edge3" class="edge"><title>Node3&#45;&gt;Node2</title>
<path fill="none" stroke="#404040" d="M28,-257.428C28,-236.101 28,-206.261 28,-182.264"/>
<polygon fill="none" stroke="#404040" points="28.0001,-181.975 24,-175.975 28,-169.975 32,-175.975 28.0001,-181.975"/>
<text text-anchor="middle" x="48.5" y="-213.5" font-family="Helvetica,sans-Serif" font-size="10.00"> +dataPtr</text>
</g>
<!-- Node4 -->
<g id="node4" class="node"><title>Node4</title>
<g id="a_node4"><a xlink:href="structcomparator.html" target="_top" xlink:title="{comparator\n||+ comparator()\l+ comparator()\l}">
<polygon fill="none" stroke="black" points="133,-107 133,-175 213,-175 213,-107 133,-107"/>
<text text-anchor="middle" x="173" y="-163" font-family="Helvetica,sans-Serif" font-size="10.00">comparator</text>
<polyline fill="none" stroke="black" points="133,-156 213,-156 "/>
<text text-anchor="middle" x="173" y="-144" font-family="Helvetica,sans-Serif" font-size="10.00"> </text>
<polyline fill="none" stroke="black" points="133,-137 213,-137 "/>
<text text-anchor="start" x="141" y="-125" font-family="Helvetica,sans-Serif" font-size="10.00">+ comparator()</text>
<text text-anchor="start" x="141" y="-114" font-family="Helvetica,sans-Serif" font-size="10.00">+ comparator()</text>
</a>
</g>
</g>
<!-- Node4&#45;&gt;Node1 -->
<g id="edge4" class="edge"><title>Node4&#45;&gt;Node1</title>
<path fill="none" stroke="#404040" d="M173,-106.996C173,-95.3482 173,-82.1242 173,-69.9627"/>
<polygon fill="none" stroke="#404040" points="173,-69.7843 169,-63.7843 173,-57.7843 177,-63.7843 173,-69.7843"/>
<text text-anchor="middle" x="202" y="-79.5" font-family="Helvetica,sans-Serif" font-size="10.00"> +comparator</text>
</g>
<!-- Node5 -->
<g id="node5" class="node"><title>Node5</title>
<polygon fill="none" stroke="#bfbfbf" points="117.5,-257 117.5,-315 146.5,-315 146.5,-257 117.5,-257"/>
<polyline fill="none" stroke="#bfbfbf" points="117.5,-295 146.5,-295 "/>
<text text-anchor="middle" x="132" y="-283" font-family="Helvetica,sans-Serif" font-size="10.00"> </text>
<polyline fill="none" stroke="#bfbfbf" points="117.5,-276 146.5,-276 "/>
<text text-anchor="middle" x="132" y="-264" font-family="Helvetica,sans-Serif" font-size="10.00"> </text>
</g>
<!-- Node5&#45;&gt;Node4 -->
<g id="edge5" class="edge"><title>Node5&#45;&gt;Node4</title>
<path fill="none" stroke="#404040" d="M117.391,-263.625C106.39,-244.672 94.9434,-216.577 106,-194 107.274,-191.399 114.092,-185.486 122.927,-178.542"/>
<polygon fill="none" stroke="#404040" points="123.197,-178.335 125.521,-171.508 132.716,-171.028 130.392,-177.854 123.197,-178.335"/>
<text text-anchor="middle" x="121.5" y="-213.5" font-family="Helvetica,sans-Serif" font-size="10.00"> +@23</text>
</g>
<!-- Node5&#45;&gt;Node4 -->
<g id="edge7" class="edge"><title>Node5&#45;&gt;Node4</title>
<path fill="none" stroke="#404040" d="M140.1,-256.748C145.797,-236.877 153.541,-209.868 160.085,-187.045"/>
<polygon fill="none" stroke="#404040" points="160.17,-186.747 157.979,-179.877 163.478,-175.212 165.669,-182.082 160.17,-186.747"/>
<text text-anchor="middle" x="173.5" y="-213.5" font-family="Helvetica,sans-Serif" font-size="10.00"> +@21</text>
</g>
<!-- Node6 -->
<g id="node6" class="node"><title>Node6</title>
<polygon fill="none" stroke="#bfbfbf" points="248.5,-257.5 248.5,-314.5 283.5,-314.5 283.5,-257.5 248.5,-257.5"/>
<text text-anchor="middle" x="266" y="-302.5" font-family="Helvetica,sans-Serif" font-size="10.00">long</text>
<polyline fill="none" stroke="#bfbfbf" points="248.5,-295.5 283.5,-295.5 "/>
<text text-anchor="middle" x="266" y="-283.5" font-family="Helvetica,sans-Serif" font-size="10.00"> </text>
<polyline fill="none" stroke="#bfbfbf" points="248.5,-276.5 283.5,-276.5 "/>
<text text-anchor="middle" x="266" y="-264.5" font-family="Helvetica,sans-Serif" font-size="10.00"> </text>
</g>
<!-- Node6&#45;&gt;Node1 -->
<g id="edge8" class="edge"><title>Node6&#45;&gt;Node1</title>
<path fill="none" stroke="#404040" d="M283.695,-269.933C292.19,-261.517 301.486,-250.268 306,-238 312.752,-219.647 311.232,-212.843 306,-194 289.625,-135.025 276.138,-121.319 235,-76 224.241,-64.1469 210.025,-53.3411 197.921,-45.1855"/>
<polygon fill="none" stroke="#404040" points="197.635,-45.001 190.425,-45.1031 187.557,-38.4866 194.768,-38.3845 197.635,-45.001"/>
<text text-anchor="middle" x="314" y="-138.5" font-family="Helvetica,sans-Serif" font-size="10.00"> +size</text>
</g>
<!-- Node6&#45;&gt;Node4 -->
<g id="edge6" class="edge"><title>Node6&#45;&gt;Node4</title>
<path fill="none" stroke="#404040" d="M248.28,-272.195C237.275,-263.529 223.471,-251.274 214,-238 207.65,-229.1 198.178,-207.264 189.937,-186.663"/>
<polygon fill="none" stroke="#404040" points="189.912,-186.6 183.992,-182.484 185.514,-175.436 191.435,-179.552 189.912,-186.6"/>
<text text-anchor="middle" x="260" y="-230" font-family="Helvetica,sans-Serif" font-size="10.00"> +compare_tm</text>
<text text-anchor="middle" x="260" y="-219" font-family="Helvetica,sans-Serif" font-size="10.00">+compare_pair_notm</text>
<text text-anchor="middle" x="260" y="-208" font-family="Helvetica,sans-Serif" font-size="10.00">+compare_pair_tm</text>
<text text-anchor="middle" x="260" y="-197" font-family="Helvetica,sans-Serif" font-size="10.00">+compare_notm</text>
</g>
</g>
</svg>
