<?xml version="1.0" encoding="UTF-8" standalone="no"?>
<!DOCTYPE svg PUBLIC "-//W3C//DTD SVG 1.1//EN"
 "http://www.w3.org/Graphics/SVG/1.1/DTD/svg11.dtd">
<!-- Generated by graphviz version 2.36.0 (20140111.2315)
 -->
<!-- Title: Disjoint::PaddedBuffer Pages: 1 -->
<svg width="146pt" height="278pt"
 viewBox="0.00 0.00 146.00 278.00" xmlns="http://www.w3.org/2000/svg" xmlns:xlink="http://www.w3.org/1999/xlink">
<g id="graph0" class="graph" transform="scale(1 1) rotate(0) translate(4 274)">
<title>Disjoint::PaddedBuffer</title>
<!-- Node1 -->
<g id="node1" class="node"><title>Node1</title>
<polygon fill="#bfbfbf" stroke="black" points="11.5,-0.5 11.5,-57.5 126.5,-57.5 126.5,-0.5 11.5,-0.5"/>
<text text-anchor="middle" x="69" y="-45.5" font-family="Helvetica,sans-Serif" font-size="10.00">Disjoint::PaddedBuffer</text>
<polyline fill="none" stroke="black" points="11.5,-38.5 126.5,-38.5 "/>
<text text-anchor="middle" x="69" y="-26.5" font-family="Helvetica,sans-Serif" font-size="10.00"> </text>
<polyline fill="none" stroke="black" points="11.5,-19.5 126.5,-19.5 "/>
<text text-anchor="start" x="19.5" y="-7.5" font-family="Helvetica,sans-Serif" font-size="10.00">+ PaddedBuffer()</text>
</g>
<!-- Node2 -->
<g id="node2" class="node"><title>Node2</title>
<g id="a_node2"><a xlink:href="structDisjoint_1_1PaddedBufferEntry.html" target="_top" xlink:title="{Disjoint::PaddedBufferEntry\n||+ PaddedBufferEntry()\l}">
<polygon fill="none" stroke="black" points="0,-106.5 0,-163.5 138,-163.5 138,-106.5 0,-106.5"/>
<text text-anchor="middle" x="69" y="-151.5" font-family="Helvetica,sans-Serif" font-size="10.00">Disjoint::PaddedBufferEntry</text>
<polyline fill="none" stroke="black" points="0,-144.5 138,-144.5 "/>
<text text-anchor="middle" x="69" y="-132.5" font-family="Helvetica,sans-Serif" font-size="10.00"> </text>
<polyline fill="none" stroke="black" points="0,-125.5 138,-125.5 "/>
<text text-anchor="start" x="8" y="-113.5" font-family="Helvetica,sans-Serif" font-size="10.00">+ PaddedBufferEntry()</text>
</a>
</g>
</g>
<!-- Node2&#45;&gt;Node1 -->
<g id="edge1" class="edge"><title>Node2&#45;&gt;Node1</title>
<path fill="none" stroke="#404040" d="M69,-106.403C69,-95.2373 69,-82.1304 69,-69.9556"/>
<polygon fill="none" stroke="#404040" points="69.0001,-69.726 65,-63.726 69,-57.726 73,-63.726 69.0001,-69.726"/>
<text text-anchor="middle" x="86" y="-79.5" font-family="Helvetica,sans-Serif" font-size="10.00"> +buffer</text>
</g>
<!-- Node3 -->
<g id="node3" class="node"><title>Node3</title>
<polygon fill="none" stroke="#bfbfbf" points="18.5,-212.5 18.5,-269.5 53.5,-269.5 53.5,-212.5 18.5,-212.5"/>
<text text-anchor="middle" x="36" y="-257.5" font-family="Helvetica,sans-Serif" font-size="10.00">char</text>
<polyline fill="none" stroke="#bfbfbf" points="18.5,-250.5 53.5,-250.5 "/>
<text text-anchor="middle" x="36" y="-238.5" font-family="Helvetica,sans-Serif" font-size="10.00"> </text>
<polyline fill="none" stroke="#bfbfbf" points="18.5,-231.5 53.5,-231.5 "/>
<text text-anchor="middle" x="36" y="-219.5" font-family="Helvetica,sans-Serif" font-size="10.00"> </text>
</g>
<!-- Node3&#45;&gt;Node2 -->
<g id="edge2" class="edge"><title>Node3&#45;&gt;Node2</title>
<path fill="none" stroke="#404040" d="M33.212,-212.312C33.0737,-202.53 33.9036,-191.583 37,-182 37.8384,-179.405 38.8769,-176.827 40.0616,-174.293"/>
<polygon fill="none" stroke="#404040" points="40.2003,-174.043 39.6152,-166.856 46.0247,-163.551 46.6097,-170.739 40.2003,-174.043"/>
<text text-anchor="middle" x="58.5" y="-185.5" font-family="Helvetica,sans-Serif" font-size="10.00"> +padding</text>
</g>
<!-- Node4 -->
<g id="node4" class="node"><title>Node4</title>
<polygon fill="none" stroke="#bfbfbf" points="76.5,-212.5 76.5,-269.5 127.5,-269.5 127.5,-212.5 76.5,-212.5"/>
<text text-anchor="middle" x="102" y="-257.5" font-family="Helvetica,sans-Serif" font-size="10.00">uint32_t</text>
<polyline fill="none" stroke="#bfbfbf" points="76.5,-250.5 127.5,-250.5 "/>
<text text-anchor="middle" x="102" y="-238.5" font-family="Helvetica,sans-Serif" font-size="10.00"> </text>
<polyline fill="none" stroke="#bfbfbf" points="76.5,-231.5 127.5,-231.5 "/>
<text text-anchor="middle" x="102" y="-219.5" font-family="Helvetica,sans-Serif" font-size="10.00"> </text>
</g>
<!-- Node4&#45;&gt;Node2 -->
<g id="edge3" class="edge"><title>Node4&#45;&gt;Node2</title>
<path fill="none" stroke="#404040" d="M93.2432,-212.403C89.6257,-201.002 85.366,-187.578 81.4346,-175.188"/>
<polygon fill="none" stroke="#404040" points="81.4271,-175.164 75.7997,-170.655 77.7977,-163.726 83.4251,-168.235 81.4271,-175.164"/>
<text text-anchor="middle" x="102.5" y="-185.5" font-family="Helvetica,sans-Serif" font-size="10.00"> +value</text>
</g>
</g>
</svg>
