<?xml version="1.0" encoding="UTF-8" standalone="no"?>
<!DOCTYPE svg PUBLIC "-//W3C//DTD SVG 1.1//EN"
 "http://www.w3.org/Graphics/SVG/1.1/DTD/svg11.dtd">
<!-- Generated by graphviz version 2.36.0 (20140111.2315)
 -->
<!-- Title: ticket_lock_t Pages: 1 -->
<svg width="108pt" height="182pt"
 viewBox="0.00 0.00 108.00 182.00" xmlns="http://www.w3.org/2000/svg" xmlns:xlink="http://www.w3.org/1999/xlink">
<g id="graph0" class="graph" transform="scale(1 1) rotate(0) translate(4 178)">
<title>ticket_lock_t</title>
<!-- Node1 -->
<g id="node1" class="node"><title>Node1</title>
<polygon fill="#bfbfbf" stroke="black" points="0,-0.5 0,-57.5 72,-57.5 72,-0.5 0,-0.5"/>
<text text-anchor="middle" x="36" y="-45.5" font-family="Helvetica,sans-Serif" font-size="10.00">ticket_lock_t</text>
<polyline fill="none" stroke="black" points="0,-38.5 72,-38.5 "/>
<text text-anchor="middle" x="36" y="-26.5" font-family="Helvetica,sans-Serif" font-size="10.00"> </text>
<polyline fill="none" stroke="black" points="0,-19.5 72,-19.5 "/>
<text text-anchor="middle" x="36" y="-7.5" font-family="Helvetica,sans-Serif" font-size="10.00"> </text>
</g>
<!-- Node2 -->
<g id="node2" class="node"><title>Node2</title>
<polygon fill="none" stroke="#bfbfbf" points="10,-116.5 10,-173.5 62,-173.5 62,-116.5 10,-116.5"/>
<text text-anchor="middle" x="36" y="-161.5" font-family="Helvetica,sans-Serif" font-size="10.00">uintptr_t</text>
<polyline fill="none" stroke="#bfbfbf" points="10,-154.5 62,-154.5 "/>
<text text-anchor="middle" x="36" y="-142.5" font-family="Helvetica,sans-Serif" font-size="10.00"> </text>
<polyline fill="none" stroke="#bfbfbf" points="10,-135.5 62,-135.5 "/>
<text text-anchor="middle" x="36" y="-123.5" font-family="Helvetica,sans-Serif" font-size="10.00"> </text>
</g>
<!-- Node2&#45;&gt;Node1 -->
<g id="edge1" class="edge"><title>Node2&#45;&gt;Node1</title>
<path fill="none" stroke="#404040" d="M36,-116.404C36,-102.504 36,-85.3915 36,-70.073"/>
<polygon fill="none" stroke="#404040" points="36.0001,-69.7372 32,-63.7372 36,-57.7372 40,-63.7372 36.0001,-69.7372"/>
<text text-anchor="middle" x="68" y="-90" font-family="Helvetica,sans-Serif" font-size="10.00"> +now_serving</text>
<text text-anchor="middle" x="68" y="-79" font-family="Helvetica,sans-Serif" font-size="10.00">+next_ticket</text>
</g>
</g>
</svg>
