<?xml version="1.0" encoding="UTF-8" standalone="no"?>
<!DOCTYPE svg PUBLIC "-//W3C//DTD SVG 1.1//EN"
 "http://www.w3.org/Graphics/SVG/1.1/DTD/svg11.dtd">
<!-- Generated by graphviz version 2.36.0 (20140111.2315)
 -->
<!-- Title: arg Pages: 1 -->
<svg width="668pt" height="406pt"
 viewBox="0.00 0.00 668.38 406.00" xmlns="http://www.w3.org/2000/svg" xmlns:xlink="http://www.w3.org/1999/xlink">
<g id="graph0" class="graph" transform="scale(1 1) rotate(0) translate(4 402)">
<title>arg</title>
<!-- Node1 -->
<g id="node1" class="node"><title>Node1</title>
<polygon fill="#bfbfbf" stroke="black" points="174.384,-0.5 174.384,-57.5 204.384,-57.5 204.384,-0.5 174.384,-0.5"/>
<text text-anchor="middle" x="189.384" y="-45.5" font-family="Helvetica,sans-Serif" font-size="10.00">arg</text>
<polyline fill="none" stroke="black" points="174.384,-38.5 204.384,-38.5 "/>
<text text-anchor="middle" x="189.384" y="-26.5" font-family="Helvetica,sans-Serif" font-size="10.00"> </text>
<polyline fill="none" stroke="black" points="174.384,-19.5 204.384,-19.5 "/>
<text text-anchor="middle" x="189.384" y="-7.5" font-family="Helvetica,sans-Serif" font-size="10.00"> </text>
</g>
<!-- Node2 -->
<g id="node2" class="node"><title>Node2</title>
<g id="a_node2"><a xlink:href="structstream.html" target="_top" xlink:title="{stream\n||}">
<polygon fill="none" stroke="black" points="165.884,-106.5 165.884,-163.5 212.884,-163.5 212.884,-106.5 165.884,-106.5"/>
<text text-anchor="middle" x="189.384" y="-151.5" font-family="Helvetica,sans-Serif" font-size="10.00">stream</text>
<polyline fill="none" stroke="black" points="165.884,-144.5 212.884,-144.5 "/>
<text text-anchor="middle" x="189.384" y="-132.5" font-family="Helvetica,sans-Serif" font-size="10.00"> </text>
<polyline fill="none" stroke="black" points="165.884,-125.5 212.884,-125.5 "/>
<text text-anchor="middle" x="189.384" y="-113.5" font-family="Helvetica,sans-Serif" font-size="10.00"> </text>
</a>
</g>
</g>
<!-- Node2&#45;&gt;Node1 -->
<g id="edge1" class="edge"><title>Node2&#45;&gt;Node1</title>
<path fill="none" stroke="#404040" d="M189.384,-106.403C189.384,-95.2373 189.384,-82.1304 189.384,-69.9556"/>
<polygon fill="none" stroke="#404040" points="189.384,-69.726 185.384,-63.726 189.384,-57.726 193.384,-63.726 189.384,-69.726"/>
<text text-anchor="middle" x="215.384" y="-79.5" font-family="Helvetica,sans-Serif" font-size="10.00"> +streamPtr</text>
</g>
<!-- Node3 -->
<g id="node3" class="node"><title>Node3</title>
<g id="a_node3"><a xlink:href="structvector.html" target="_top" xlink:title="{vector\n||}">
<polygon fill="none" stroke="black" points="161.384,-212.5 161.384,-269.5 205.384,-269.5 205.384,-212.5 161.384,-212.5"/>
<text text-anchor="middle" x="183.384" y="-257.5" font-family="Helvetica,sans-Serif" font-size="10.00">vector</text>
<polyline fill="none" stroke="black" points="161.384,-250.5 205.384,-250.5 "/>
<text text-anchor="middle" x="183.384" y="-238.5" font-family="Helvetica,sans-Serif" font-size="10.00"> </text>
<polyline fill="none" stroke="black" points="161.384,-231.5 205.384,-231.5 "/>
<text text-anchor="middle" x="183.384" y="-219.5" font-family="Helvetica,sans-Serif" font-size="10.00"> </text>
</a>
</g>
</g>
<!-- Node3&#45;&gt;Node1 -->
<g id="edge12" class="edge"><title>Node3&#45;&gt;Node1</title>
<path fill="none" stroke="#404040" d="M161.191,-222.152C156.685,-218.696 151.933,-215.167 147.384,-212 121.033,-193.65 104.316,-194.193 93.3844,-164 84.6089,-139.762 82.1585,-129.205 93.3844,-106 107.797,-76.2066 140.188,-54.5415 163.358,-42.1378"/>
<polygon fill="none" stroke="#404040" points="163.478,-42.0769 167.02,-35.7958 174.181,-36.6496 170.639,-42.9308 163.478,-42.0769"/>
<text text-anchor="middle" x="124.884" y="-132.5" font-family="Helvetica,sans-Serif" font-size="10.00"> +errorVectors</text>
</g>
<!-- Node3&#45;&gt;Node2 -->
<g id="edge2" class="edge"><title>Node3&#45;&gt;Node2</title>
<path fill="none" stroke="#404040" d="M184.976,-212.403C185.621,-201.237 186.377,-188.13 187.079,-175.956"/>
<polygon fill="none" stroke="#404040" points="187.094,-175.706 183.446,-169.486 187.785,-163.726 191.433,-169.946 187.094,-175.706"/>
<text text-anchor="middle" x="222.884" y="-185.5" font-family="Helvetica,sans-Serif" font-size="10.00"> +allocVectorPtr</text>
</g>
<!-- Node4 -->
<g id="node4" class="node"><title>Node4</title>
<polygon fill="none" stroke="#bfbfbf" points="231.884,-340.5 231.884,-397.5 276.884,-397.5 276.884,-340.5 231.884,-340.5"/>
<text text-anchor="middle" x="254.384" y="-385.5" font-family="Helvetica,sans-Serif" font-size="10.00">void **</text>
<polyline fill="none" stroke="#bfbfbf" points="231.884,-378.5 276.884,-378.5 "/>
<text text-anchor="middle" x="254.384" y="-366.5" font-family="Helvetica,sans-Serif" font-size="10.00"> </text>
<polyline fill="none" stroke="#bfbfbf" points="231.884,-359.5 276.884,-359.5 "/>
<text text-anchor="middle" x="254.384" y="-347.5" font-family="Helvetica,sans-Serif" font-size="10.00"> </text>
</g>
<!-- Node4&#45;&gt;Node3 -->
<g id="edge3" class="edge"><title>Node4&#45;&gt;Node3</title>
<path fill="none" stroke="#404040" d="M231.784,-359.286C216.055,-351.913 196.207,-339.696 186.384,-322 179.67,-309.905 177.724,-295.122 177.852,-281.57"/>
<polygon fill="none" stroke="#404040" points="177.852,-281.566 174.17,-275.366 178.476,-269.582 182.159,-275.782 177.852,-281.566"/>
<text text-anchor="middle" x="210.884" y="-302.5" font-family="Helvetica,sans-Serif" font-size="10.00"> +elements</text>
</g>
<!-- Node8 -->
<g id="node8" class="node"><title>Node8</title>
<g id="a_node8"><a xlink:href="structqueue.html" target="_top" xlink:title="{queue\n||}">
<polygon fill="none" stroke="black" points="297.884,-212.5 297.884,-269.5 340.884,-269.5 340.884,-212.5 297.884,-212.5"/>
<text text-anchor="middle" x="319.384" y="-257.5" font-family="Helvetica,sans-Serif" font-size="10.00">queue</text>
<polyline fill="none" stroke="black" points="297.884,-250.5 340.884,-250.5 "/>
<text text-anchor="middle" x="319.384" y="-238.5" font-family="Helvetica,sans-Serif" font-size="10.00"> </text>
<polyline fill="none" stroke="black" points="297.884,-231.5 340.884,-231.5 "/>
<text text-anchor="middle" x="319.384" y="-219.5" font-family="Helvetica,sans-Serif" font-size="10.00"> </text>
</a>
</g>
</g>
<!-- Node4&#45;&gt;Node8 -->
<g id="edge9" class="edge"><title>Node4&#45;&gt;Node8</title>
<path fill="none" stroke="#404040" d="M277.325,-350.452C286.075,-342.639 295.378,-332.769 301.384,-322 308.233,-309.72 312.476,-295.008 315.105,-281.568"/>
<polygon fill="none" stroke="#404040" points="315.112,-281.525 312.158,-274.946 317.094,-269.689 320.048,-276.267 315.112,-281.525"/>
<text text-anchor="middle" x="338.884" y="-302.5" font-family="Helvetica,sans-Serif" font-size="10.00"> +elements</text>
</g>
<!-- Node5 -->
<g id="node5" class="node"><title>Node5</title>
<polygon fill="none" stroke="#bfbfbf" points="74.8844,-340.5 74.8844,-397.5 109.884,-397.5 109.884,-340.5 74.8844,-340.5"/>
<text text-anchor="middle" x="92.3844" y="-385.5" font-family="Helvetica,sans-Serif" font-size="10.00">long</text>
<polyline fill="none" stroke="#bfbfbf" points="74.8844,-378.5 109.884,-378.5 "/>
<text text-anchor="middle" x="92.3844" y="-366.5" font-family="Helvetica,sans-Serif" font-size="10.00"> </text>
<polyline fill="none" stroke="#bfbfbf" points="74.8844,-359.5 109.884,-359.5 "/>
<text text-anchor="middle" x="92.3844" y="-347.5" font-family="Helvetica,sans-Serif" font-size="10.00"> </text>
</g>
<!-- Node5&#45;&gt;Node2 -->
<g id="edge11" class="edge"><title>Node5&#45;&gt;Node2</title>
<path fill="none" stroke="#404040" d="M74.6439,-353.858C41.1979,-325.48 -24.7928,-260.191 10.3844,-212 49.3966,-158.555 95.0046,-195.355 155.119,-166.175"/>
<polygon fill="none" stroke="#404040" points="155.159,-166.153 158.517,-159.772 165.699,-160.418 162.341,-166.799 155.159,-166.153"/>
<text text-anchor="middle" x="45.3844" y="-238.5" font-family="Helvetica,sans-Serif" font-size="10.00"> +percentAttack</text>
</g>
<!-- Node5&#45;&gt;Node3 -->
<g id="edge4" class="edge"><title>Node5&#45;&gt;Node3</title>
<path fill="none" stroke="#404040" d="M101.271,-340.405C107.328,-324.163 116.425,-303.779 128.384,-288 132.202,-282.963 141.645,-274.684 151.65,-266.528"/>
<polygon fill="none" stroke="#404040" points="151.875,-266.348 154.065,-259.477 161.249,-258.855 159.06,-265.726 151.875,-266.348"/>
<text text-anchor="middle" x="151.384" y="-308" font-family="Helvetica,sans-Serif" font-size="10.00"> +capacity</text>
<text text-anchor="middle" x="151.384" y="-297" font-family="Helvetica,sans-Serif" font-size="10.00">+size</text>
</g>
<!-- Node6 -->
<g id="node6" class="node"><title>Node6</title>
<g id="a_node6"><a xlink:href="structrandom.html" target="_top" xlink:title="{random\n||}">
<polygon fill="none" stroke="black" points="89.8844,-212.5 89.8844,-269.5 138.884,-269.5 138.884,-212.5 89.8844,-212.5"/>
<text text-anchor="middle" x="114.384" y="-257.5" font-family="Helvetica,sans-Serif" font-size="10.00">random</text>
<polyline fill="none" stroke="black" points="89.8844,-250.5 138.884,-250.5 "/>
<text text-anchor="middle" x="114.384" y="-238.5" font-family="Helvetica,sans-Serif" font-size="10.00"> </text>
<polyline fill="none" stroke="black" points="89.8844,-231.5 138.884,-231.5 "/>
<text text-anchor="middle" x="114.384" y="-219.5" font-family="Helvetica,sans-Serif" font-size="10.00"> </text>
</a>
</g>
</g>
<!-- Node5&#45;&gt;Node6 -->
<g id="edge6" class="edge"><title>Node5&#45;&gt;Node6</title>
<path fill="none" stroke="#404040" d="M75.4704,-340.477C68.0604,-324.816 62.4541,-304.995 69.3844,-288 72.1409,-281.24 76.4221,-274.934 81.27,-269.291"/>
<polygon fill="none" stroke="#404040" points="81.4623,-269.092 82.7499,-261.996 89.7946,-260.456 88.507,-267.551 81.4623,-269.092"/>
<text text-anchor="middle" x="81.8844" y="-313.5" font-family="Helvetica,sans-Serif" font-size="10.00"> +mti</text>
<text text-anchor="middle" x="81.8844" y="-302.5" font-family="Helvetica,sans-Serif" font-size="10.00">+mt</text>
<text text-anchor="middle" x="81.8844" y="-291.5" font-family="Helvetica,sans-Serif" font-size="10.00">+rand</text>
</g>
<!-- Node5&#45;&gt;Node8 -->
<g id="edge10" class="edge"><title>Node5&#45;&gt;Node8</title>
<path fill="none" stroke="#404040" d="M110.195,-366.457C139.373,-363.091 197.857,-352.735 235.384,-322 248.777,-311.032 242.811,-300.873 254.384,-288 263.77,-277.56 275.937,-268.165 287.202,-260.628"/>
<polygon fill="none" stroke="#404040" points="287.486,-260.447 290.397,-253.849 297.606,-253.998 294.696,-260.595 287.486,-260.447"/>
<text text-anchor="middle" x="275.884" y="-313.5" font-family="Helvetica,sans-Serif" font-size="10.00"> +pop</text>
<text text-anchor="middle" x="275.884" y="-302.5" font-family="Helvetica,sans-Serif" font-size="10.00">+push</text>
<text text-anchor="middle" x="275.884" y="-291.5" font-family="Helvetica,sans-Serif" font-size="10.00">+capacity</text>
</g>
<!-- Node6&#45;&gt;Node2 -->
<g id="edge5" class="edge"><title>Node6&#45;&gt;Node2</title>
<path fill="none" stroke="#404040" d="M116.504,-212.455C118.292,-202.257 121.535,-190.998 127.384,-182 131.38,-175.855 143.278,-166.564 155.598,-157.937"/>
<polygon fill="none" stroke="#404040" points="155.964,-157.687 158.67,-151.003 165.881,-150.93 163.175,-157.614 155.964,-157.687"/>
<text text-anchor="middle" x="154.884" y="-185.5" font-family="Helvetica,sans-Serif" font-size="10.00"> +randomPtr</text>
</g>
<!-- Node7 -->
<g id="node7" class="node"><title>Node7</title>
<polygon fill="none" stroke="#bfbfbf" points="361.384,-212.5 361.384,-269.5 417.384,-269.5 417.384,-212.5 361.384,-212.5"/>
<text text-anchor="middle" x="389.384" y="-257.5" font-family="Helvetica,sans-Serif" font-size="10.00">MAP_T *</text>
<polyline fill="none" stroke="#bfbfbf" points="361.384,-250.5 417.384,-250.5 "/>
<text text-anchor="middle" x="389.384" y="-238.5" font-family="Helvetica,sans-Serif" font-size="10.00"> </text>
<polyline fill="none" stroke="#bfbfbf" points="361.384,-231.5 417.384,-231.5 "/>
<text text-anchor="middle" x="389.384" y="-219.5" font-family="Helvetica,sans-Serif" font-size="10.00"> </text>
</g>
<!-- Node7&#45;&gt;Node2 -->
<g id="edge7" class="edge"><title>Node7&#45;&gt;Node2</title>
<path fill="none" stroke="#404040" d="M380.582,-212.265C375.868,-201.426 369.002,-189.759 359.384,-182 320.643,-150.744 262.422,-140.639 225.167,-137.423"/>
<polygon fill="none" stroke="#404040" points="224.899,-137.404 218.63,-140.967 212.93,-136.55 219.199,-132.987 224.899,-137.404"/>
<text text-anchor="middle" x="403.384" y="-185.5" font-family="Helvetica,sans-Serif" font-size="10.00"> +attackMapPtr</text>
</g>
<!-- Node9 -->
<g id="node9" class="node"><title>Node9</title>
<g id="a_node9"><a xlink:href="structdecoder.html" target="_top" xlink:title="{decoder\n||}">
<polygon fill="none" stroke="black" points="451.884,-106.5 451.884,-163.5 502.884,-163.5 502.884,-106.5 451.884,-106.5"/>
<text text-anchor="middle" x="477.384" y="-151.5" font-family="Helvetica,sans-Serif" font-size="10.00">decoder</text>
<polyline fill="none" stroke="black" points="451.884,-144.5 502.884,-144.5 "/>
<text text-anchor="middle" x="477.384" y="-132.5" font-family="Helvetica,sans-Serif" font-size="10.00"> </text>
<polyline fill="none" stroke="black" points="451.884,-125.5 502.884,-125.5 "/>
<text text-anchor="middle" x="477.384" y="-113.5" font-family="Helvetica,sans-Serif" font-size="10.00"> </text>
</a>
</g>
</g>
<!-- Node7&#45;&gt;Node9 -->
<g id="edge14" class="edge"><title>Node7&#45;&gt;Node9</title>
<path fill="none" stroke="#404040" d="M417.433,-236.848C462.61,-231.13 548.272,-217.421 566.384,-194 584.142,-171.038 546.423,-154.387 514.73,-144.966"/>
<polygon fill="none" stroke="#404040" points="514.569,-144.922 507.718,-147.171 503.007,-141.711 509.858,-139.462 514.569,-144.922"/>
<text text-anchor="middle" x="615.384" y="-185.5" font-family="Helvetica,sans-Serif" font-size="10.00"> +fragmentedMapPtr</text>
</g>
<!-- Node8&#45;&gt;Node2 -->
<g id="edge8" class="edge"><title>Node8&#45;&gt;Node2</title>
<path fill="none" stroke="#404040" d="M297.871,-216.218C287.376,-205.227 274.26,-192.348 261.384,-182 249.58,-172.513 235.74,-163.277 223.365,-155.601"/>
<polygon fill="none" stroke="#404040" points="223.216,-155.511 216.012,-155.82 212.955,-149.289 220.159,-148.98 223.216,-155.511"/>
<text text-anchor="middle" x="315.384" y="-185.5" font-family="Helvetica,sans-Serif" font-size="10.00"> +packetQueuePtr</text>
</g>
<!-- Node8&#45;&gt;Node9 -->
<g id="edge15" class="edge"><title>Node8&#45;&gt;Node9</title>
<path fill="none" stroke="#404040" d="M340.989,-218.98C344.587,-216.298 348.438,-213.85 352.384,-212 394.463,-192.277 419.562,-223.603 455.384,-194 461.377,-189.048 465.739,-182.276 468.914,-175.106"/>
<polygon fill="none" stroke="#404040" points="468.948,-175.012 467.203,-168.015 472.99,-163.713 474.735,-170.71 468.948,-175.012"/>
<text text-anchor="middle" x="508.384" y="-185.5" font-family="Helvetica,sans-Serif" font-size="10.00"> +decodedQueuePtr</text>
</g>
<!-- Node9&#45;&gt;Node1 -->
<g id="edge13" class="edge"><title>Node9&#45;&gt;Node1</title>
<path fill="none" stroke="#404040" d="M451.826,-124.771C397.547,-105.17 271.229,-59.5549 216.015,-39.6165"/>
<polygon fill="none" stroke="#404040" points="215.761,-39.5248 208.759,-41.2492 204.474,-35.449 211.476,-33.7247 215.761,-39.5248"/>
<text text-anchor="middle" x="370.884" y="-79.5" font-family="Helvetica,sans-Serif" font-size="10.00"> +decoderPtr</text>
</g>
</g>
</svg>
