<?xml version="1.0" encoding="UTF-8" standalone="no"?>
<!DOCTYPE svg PUBLIC "-//W3C//DTD SVG 1.1//EN"
 "http://www.w3.org/Graphics/SVG/1.1/DTD/svg11.dtd">
<!-- Generated by graphviz version 2.36.0 (20140111.2315)
 -->
<!-- Title: stm::CommitTrigger::onAbort Pages: 1 -->
<!--zoomable 265 -->
<svg id="main" version="1.1" xmlns="http://www.w3.org/2000/svg" xmlns:xlink="http://www.w3.org/1999/xlink" xml:space="preserve" onload="init(evt)">
<style type="text/css"><![CDATA[
.edge:hover path { stroke: red; }
.edge:hover polygon { stroke: red; fill: red; }
]]></style>
<script type="text/javascript"><![CDATA[
var edges = document.getElementsByTagName('g');
if (edges && edges.length) {
  for (var i=0;i<edges.length;i++) {
    if (edges[i].id.substr(0,4)=='edge') {
      edges[i].setAttribute('class','edge');
    }
  }
}
]]></script>
        <defs>
                <circle id="rim" cx="0" cy="0" r="7"/>
                <circle id="rim2" cx="0" cy="0" r="3.5"/>
                <g id="zoomPlus">
                        <use xlink:href="#rim" fill="#404040">
                                <set attributeName="fill" to="#808080" begin="zoomplus.mouseover" end="zoomplus.mouseout"/>
                        </use>
                        <path d="M-4,0h8M0,-4v8" fill="none" stroke="white" stroke-width="1.5" pointer-events="none"/>
                </g>
                <g id="zoomMin">
                        <use xlink:href="#rim" fill="#404040">
                                <set attributeName="fill" to="#808080" begin="zoomminus.mouseover" end="zoomminus.mouseout"/>
                        </use>
                        <path d="M-4,0h8" fill="none" stroke="white" stroke-width="1.5" pointer-events="none"/>
                </g>
                <g id="dirArrow">
                        <path fill="none" stroke="white" stroke-width="1.5" d="M0,-3.0v7 M-2.5,-0.5L0,-3.0L2.5,-0.5"/>
                </g>
               <g id="resetDef">
                       <use xlink:href="#rim2" fill="#404040">
                               <set attributeName="fill" to="#808080" begin="reset.mouseover" end="reset.mouseout"/>
                       </use>
               </g>
        </defs>

<script type="text/javascript">
var viewWidth = 1926;
var viewHeight = 265;
var sectionId = 'dynsection-1';
</script>
<script xlink:href="svgpan.js"/>
<svg id="graph" class="graph">
<g id="viewport">
<title>stm::CommitTrigger::onAbort</title>
<!-- Node1 -->
<g id="node1" class="node"><title>Node1</title>
<polygon fill="#bfbfbf" stroke="black" points="0,-101 0,-131 104,-131 104,-101 0,-101"/>
<text text-anchor="start" x="8" y="-119" font-family="Helvetica,sans-Serif" font-size="10.00">stm::CommitTrigger</text>
<text text-anchor="middle" x="52" y="-108" font-family="Helvetica,sans-Serif" font-size="10.00">::onAbort</text>
</g>
<!-- Node2 -->
<g id="node2" class="node"><title>Node2</title>
<g id="a_node2"><a xlink:href="structstm_1_1AbortWaitTrigger.html#afb8db71071daad0585654b95ff8edd04" target="_top" xlink:title="stm::AbortWaitTrigger\l::onAbort">
<polygon fill="none" stroke="black" points="140.5,-101 140.5,-131 253.5,-131 253.5,-101 140.5,-101"/>
<text text-anchor="start" x="148.5" y="-119" font-family="Helvetica,sans-Serif" font-size="10.00">stm::AbortWaitTrigger</text>
<text text-anchor="middle" x="197" y="-108" font-family="Helvetica,sans-Serif" font-size="10.00">::onAbort</text>
</a>
</g>
</g>
<!-- Node1&#45;&gt;Node2 -->
<g id="edge1" class="edge"><title>Node1&#45;&gt;Node2</title>
<path fill="none" stroke="midnightblue" d="M104.222,-116C112.632,-116 121.45,-116 130.155,-116"/>
<polygon fill="midnightblue" stroke="midnightblue" points="130.292,-119.5 140.292,-116 130.292,-112.5 130.292,-119.5"/>
</g>
<!-- Node3 -->
<g id="node3" class="node"><title>Node3</title>
<g id="a_node3"><a xlink:href="namespacestm.html#a7691058d97dd9bb3444ab2200a90e54b" target="_top" xlink:title="stm::trigger_common">
<polygon fill="none" stroke="black" points="290.5,-106.5 290.5,-125.5 399.5,-125.5 399.5,-106.5 290.5,-106.5"/>
<text text-anchor="middle" x="345" y="-113.5" font-family="Helvetica,sans-Serif" font-size="10.00">stm::trigger_common</text>
</a>
</g>
</g>
<!-- Node2&#45;&gt;Node3 -->
<g id="edge2" class="edge"><title>Node2&#45;&gt;Node3</title>
<path fill="none" stroke="midnightblue" d="M253.613,-116C262.301,-116 271.338,-116 280.192,-116"/>
<polygon fill="midnightblue" stroke="midnightblue" points="280.469,-119.5 290.469,-116 280.469,-112.5 280.469,-119.5"/>
</g>
<!-- Node4 -->
<g id="node4" class="node"><title>Node4</title>
<g id="a_node4"><a xlink:href="namespaceanonymous__namespace_02profiling_8cpp_03.html#ad2de7e300bb6e53bf611aaf35c46d80b" target="_top" xlink:title="anonymous_namespace\l\{profiling::cpp\}::collect\l_profiles">
<polygon fill="none" stroke="black" points="436,-125.5 436,-166.5 558,-166.5 558,-125.5 436,-125.5"/>
<text text-anchor="start" x="444" y="-154.5" font-family="Helvetica,sans-Serif" font-size="10.00">anonymous_namespace</text>
<text text-anchor="start" x="444" y="-143.5" font-family="Helvetica,sans-Serif" font-size="10.00">{profiling::cpp}::collect</text>
<text text-anchor="middle" x="497" y="-132.5" font-family="Helvetica,sans-Serif" font-size="10.00">_profiles</text>
</a>
</g>
</g>
<!-- Node3&#45;&gt;Node4 -->
<g id="edge3" class="edge"><title>Node3&#45;&gt;Node4</title>
<path fill="none" stroke="midnightblue" d="M393.873,-125.575C404.114,-127.623 415.134,-129.827 426.013,-132.003"/>
<polygon fill="midnightblue" stroke="midnightblue" points="425.446,-135.458 435.938,-133.988 426.818,-128.594 425.446,-135.458"/>
</g>
<!-- Node23 -->
<g id="node23" class="node"><title>Node23</title>
<g id="a_node23"><a xlink:href="namespaceanonymous__namespace_02profiling_8cpp_03.html#ac7a6d6bebec6c014c2d09c19efb4390c" target="_top" xlink:title="anonymous_namespace\l\{profiling::cpp\}::change\l_algorithm">
<polygon fill="none" stroke="black" points="436,-65.5 436,-106.5 558,-106.5 558,-65.5 436,-65.5"/>
<text text-anchor="start" x="444" y="-94.5" font-family="Helvetica,sans-Serif" font-size="10.00">anonymous_namespace</text>
<text text-anchor="start" x="444" y="-83.5" font-family="Helvetica,sans-Serif" font-size="10.00">{profiling::cpp}::change</text>
<text text-anchor="middle" x="497" y="-72.5" font-family="Helvetica,sans-Serif" font-size="10.00">_algorithm</text>
</a>
</g>
</g>
<!-- Node3&#45;&gt;Node23 -->
<g id="edge24" class="edge"><title>Node3&#45;&gt;Node23</title>
<path fill="none" stroke="midnightblue" d="M393.873,-106.425C404.114,-104.377 415.134,-102.173 426.013,-99.9974"/>
<polygon fill="midnightblue" stroke="midnightblue" points="426.818,-103.406 435.938,-98.0124 425.446,-96.5416 426.818,-103.406"/>
</g>
<!-- Node5 -->
<g id="node5" class="node"><title>Node5</title>
<g id="a_node5"><a xlink:href="namespacestm.html#a347d5009be494e8595a8933c49a342b4" target="_top" xlink:title="stm::begin_blocker">
<polygon fill="none" stroke="black" points="605.5,-98.5 605.5,-117.5 704.5,-117.5 704.5,-98.5 605.5,-98.5"/>
<text text-anchor="middle" x="655" y="-105.5" font-family="Helvetica,sans-Serif" font-size="10.00">stm::begin_blocker</text>
</a>
</g>
</g>
<!-- Node4&#45;&gt;Node5 -->
<g id="edge4" class="edge"><title>Node4&#45;&gt;Node5</title>
<path fill="none" stroke="midnightblue" d="M558.314,-131.308C573.64,-127.575 589.927,-123.608 604.637,-120.024"/>
<polygon fill="midnightblue" stroke="midnightblue" points="605.649,-123.38 614.537,-117.613 603.993,-116.579 605.649,-123.38"/>
</g>
<!-- Node21 -->
<g id="node21" class="node"><title>Node21</title>
<g id="a_node21"><a xlink:href="locks_8hpp.html#a67493dc021b0db009a9603ea55d18c59" target="_top" xlink:title="spin64">
<polygon fill="none" stroke="black" points="792.5,-123.5 792.5,-142.5 837.5,-142.5 837.5,-123.5 792.5,-123.5"/>
<text text-anchor="middle" x="815" y="-130.5" font-family="Helvetica,sans-Serif" font-size="10.00">spin64</text>
</a>
</g>
</g>
<!-- Node4&#45;&gt;Node21 -->
<g id="edge22" class="edge"><title>Node4&#45;&gt;Node21</title>
<path fill="none" stroke="midnightblue" d="M558.161,-159.773C569.981,-161.949 582.333,-163.857 594,-165 647.964,-170.289 662.452,-173.521 716,-165 739.029,-161.335 764.002,-153.112 782.974,-145.92"/>
<polygon fill="midnightblue" stroke="midnightblue" points="784.26,-149.175 792.306,-142.282 781.718,-142.653 784.26,-149.175"/>
</g>
<!-- Node22 -->
<g id="node22" class="node"><title>Node22</title>
<g id="a_node22"><a xlink:href="namespacestm.html#a0af46d85108438d0b413d5c5d380d03f" target="_top" xlink:title="stm::install_algorithm">
<polygon fill="none" stroke="black" points="600,-136.5 600,-155.5 710,-155.5 710,-136.5 600,-136.5"/>
<text text-anchor="middle" x="655" y="-143.5" font-family="Helvetica,sans-Serif" font-size="10.00">stm::install_algorithm</text>
</a>
</g>
</g>
<!-- Node4&#45;&gt;Node22 -->
<g id="edge23" class="edge"><title>Node4&#45;&gt;Node22</title>
<path fill="none" stroke="midnightblue" d="M558.314,-146C568.602,-146 579.324,-146 589.712,-146"/>
<polygon fill="midnightblue" stroke="midnightblue" points="589.959,-149.5 599.959,-146 589.959,-142.5 589.959,-149.5"/>
</g>
<!-- Node6 -->
<g id="node6" class="node"><title>Node6</title>
<g id="a_node6"><a xlink:href="namespaceanonymous__namespace_02irrevocability_8cpp_03.html#a5f2e3da55eda99c9e30b6314c36ed8b2" target="_top" xlink:title="anonymous_namespace\l\{irrevocability::cpp\}\l::set_irrevocable_barriers">
<polygon fill="none" stroke="black" points="752,-63.5 752,-104.5 878,-104.5 878,-63.5 752,-63.5"/>
<text text-anchor="start" x="760" y="-92.5" font-family="Helvetica,sans-Serif" font-size="10.00">anonymous_namespace</text>
<text text-anchor="start" x="760" y="-81.5" font-family="Helvetica,sans-Serif" font-size="10.00">{irrevocability::cpp}</text>
<text text-anchor="middle" x="815" y="-70.5" font-family="Helvetica,sans-Serif" font-size="10.00">::set_irrevocable_barriers</text>
</a>
</g>
</g>
<!-- Node5&#45;&gt;Node6 -->
<g id="edge5" class="edge"><title>Node5&#45;&gt;Node6</title>
<path fill="none" stroke="midnightblue" d="M704.694,-100.603C716.428,-98.8211 729.213,-96.8791 741.768,-94.9719"/>
<polygon fill="midnightblue" stroke="midnightblue" points="742.402,-98.4158 751.763,-93.4537 741.351,-91.4952 742.402,-98.4158"/>
</g>
<!-- Node5&#45;&gt;Node21 -->
<g id="edge21" class="edge"><title>Node5&#45;&gt;Node21</title>
<path fill="none" stroke="midnightblue" d="M704.694,-115.705C730.056,-119.718 760.329,-124.508 782.578,-128.028"/>
<polygon fill="midnightblue" stroke="midnightblue" points="782.069,-131.491 792.494,-129.597 783.163,-124.577 782.069,-131.491"/>
</g>
<!-- Node7 -->
<g id="node7" class="node"><title>Node7</title>
<g id="a_node7"><a xlink:href="namespaceanonymous__namespace_02irrevocability_8cpp_03.html#af9e6aae425588bac29be16e10b91cd4c" target="_top" xlink:title="anonymous_namespace\l\{irrevocability::cpp\}\l::commit_irrevocable">
<polygon fill="none" stroke="black" points="914,-123.5 914,-164.5 1036,-164.5 1036,-123.5 914,-123.5"/>
<text text-anchor="start" x="922" y="-152.5" font-family="Helvetica,sans-Serif" font-size="10.00">anonymous_namespace</text>
<text text-anchor="start" x="922" y="-141.5" font-family="Helvetica,sans-Serif" font-size="10.00">{irrevocability::cpp}</text>
<text text-anchor="middle" x="975" y="-130.5" font-family="Helvetica,sans-Serif" font-size="10.00">::commit_irrevocable</text>
</a>
</g>
</g>
<!-- Node6&#45;&gt;Node7 -->
<g id="edge6" class="edge"><title>Node6&#45;&gt;Node7</title>
<path fill="none" stroke="midnightblue" d="M870.375,-104.649C883.232,-109.531 897.057,-114.781 910.287,-119.805"/>
<polygon fill="midnightblue" stroke="midnightblue" points="909.202,-123.137 919.793,-123.415 911.687,-116.593 909.202,-123.137"/>
</g>
<!-- Node18 -->
<g id="node18" class="node"><title>Node18</title>
<g id="a_node18"><a xlink:href="namespaceanonymous__namespace_02irrevocability_8cpp_03.html#adfdb44f5b204ddd367543d1e3a5465fc" target="_top" xlink:title="anonymous_namespace\l\{irrevocability::cpp\}\l::rollback_irrevocable">
<polygon fill="none" stroke="black" points="914,-3.5 914,-44.5 1036,-44.5 1036,-3.5 914,-3.5"/>
<text text-anchor="start" x="922" y="-32.5" font-family="Helvetica,sans-Serif" font-size="10.00">anonymous_namespace</text>
<text text-anchor="start" x="922" y="-21.5" font-family="Helvetica,sans-Serif" font-size="10.00">{irrevocability::cpp}</text>
<text text-anchor="middle" x="975" y="-10.5" font-family="Helvetica,sans-Serif" font-size="10.00">::rollback_irrevocable</text>
</a>
</g>
</g>
<!-- Node6&#45;&gt;Node18 -->
<g id="edge17" class="edge"><title>Node6&#45;&gt;Node18</title>
<path fill="none" stroke="midnightblue" d="M870.375,-63.3514C883.232,-58.4687 897.057,-53.2189 910.287,-48.1949"/>
<polygon fill="midnightblue" stroke="midnightblue" points="911.687,-51.4072 919.793,-44.585 909.202,-44.8631 911.687,-51.4072"/>
</g>
<!-- Node20 -->
<g id="node20" class="node"><title>Node20</title>
<g id="a_node20"><a xlink:href="namespaceanonymous__namespace_02irrevocability_8cpp_03.html#ac71fd4f2ae60b1814ccaedea40d424a2" target="_top" xlink:title="anonymous_namespace\l\{irrevocability::cpp\}\l::abort_irrevocable">
<polygon fill="none" stroke="black" points="914,-63.5 914,-104.5 1036,-104.5 1036,-63.5 914,-63.5"/>
<text text-anchor="start" x="922" y="-92.5" font-family="Helvetica,sans-Serif" font-size="10.00">anonymous_namespace</text>
<text text-anchor="start" x="922" y="-81.5" font-family="Helvetica,sans-Serif" font-size="10.00">{irrevocability::cpp}</text>
<text text-anchor="middle" x="975" y="-70.5" font-family="Helvetica,sans-Serif" font-size="10.00">::abort_irrevocable</text>
</a>
</g>
</g>
<!-- Node6&#45;&gt;Node20 -->
<g id="edge19" class="edge"><title>Node6&#45;&gt;Node20</title>
<path fill="none" stroke="midnightblue" d="M878.446,-84C886.724,-84 895.257,-84 903.658,-84"/>
<polygon fill="midnightblue" stroke="midnightblue" points="903.813,-87.5001 913.813,-84 903.813,-80.5001 903.813,-87.5001"/>
</g>
<!-- Node8 -->
<g id="node8" class="node"><title>Node8</title>
<g id="a_node8"><a xlink:href="namespaceanonymous__namespace_02irrevocability_8cpp_03.html#ab42770392de26e3b0bc1ffbe2f7932b8" target="_top" xlink:title="anonymous_namespace\l\{irrevocability::cpp\}\l::unset_irrevocable_barriers">
<polygon fill="none" stroke="black" points="1072.5,-98.5 1072.5,-139.5 1209.5,-139.5 1209.5,-98.5 1072.5,-98.5"/>
<text text-anchor="start" x="1080.5" y="-127.5" font-family="Helvetica,sans-Serif" font-size="10.00">anonymous_namespace</text>
<text text-anchor="start" x="1080.5" y="-116.5" font-family="Helvetica,sans-Serif" font-size="10.00">{irrevocability::cpp}</text>
<text text-anchor="middle" x="1141" y="-105.5" font-family="Helvetica,sans-Serif" font-size="10.00">::unset_irrevocable_barriers</text>
</a>
</g>
</g>
<!-- Node7&#45;&gt;Node8 -->
<g id="edge7" class="edge"><title>Node7&#45;&gt;Node8</title>
<path fill="none" stroke="midnightblue" d="M1036.14,-134.833C1044.7,-133.527 1053.62,-132.168 1062.46,-130.82"/>
<polygon fill="midnightblue" stroke="midnightblue" points="1063.03,-134.273 1072.39,-129.306 1061.98,-127.353 1063.03,-134.273"/>
</g>
<!-- Node9 -->
<g id="node9" class="node"><title>Node9</title>
<g id="a_node9"><a xlink:href="namespacestm.html#a00287c50a719dcda144cc1cbc9e9ae4b" target="_top" xlink:title="stm::OnReadOnlyCommit">
<polygon fill="none" stroke="black" points="1076,-158.5 1076,-177.5 1206,-177.5 1206,-158.5 1076,-158.5"/>
<text text-anchor="middle" x="1141" y="-165.5" font-family="Helvetica,sans-Serif" font-size="10.00">stm::OnReadOnlyCommit</text>
</a>
</g>
</g>
<!-- Node7&#45;&gt;Node9 -->
<g id="edge8" class="edge"><title>Node7&#45;&gt;Node9</title>
<path fill="none" stroke="midnightblue" d="M1036.14,-152.8C1045.7,-154.2 1055.7,-155.663 1065.55,-157.104"/>
<polygon fill="midnightblue" stroke="midnightblue" points="1065.33,-160.61 1075.73,-158.595 1066.34,-153.684 1065.33,-160.61"/>
</g>
<!-- Node10 -->
<g id="node10" class="node"><title>Node10</title>
<g id="a_node10"><a xlink:href="classstm_1_1WBMMPolicy.html#af174b70b9898c8d900a5a2604cfadc7c" target="_top" xlink:title="stm::WBMMPolicy::onTxCommit">
<polygon fill="none" stroke="black" points="1246.5,-177.5 1246.5,-196.5 1407.5,-196.5 1407.5,-177.5 1246.5,-177.5"/>
<text text-anchor="middle" x="1327" y="-184.5" font-family="Helvetica,sans-Serif" font-size="10.00">stm::WBMMPolicy::onTxCommit</text>
</a>
</g>
</g>
<!-- Node9&#45;&gt;Node10 -->
<g id="edge9" class="edge"><title>Node9&#45;&gt;Node10</title>
<path fill="none" stroke="midnightblue" d="M1206.1,-174.619C1215.82,-175.623 1226,-176.674 1236.15,-177.722"/>
<polygon fill="midnightblue" stroke="midnightblue" points="1235.96,-181.221 1246.27,-178.767 1236.68,-174.258 1235.96,-181.221"/>
</g>
<!-- Node17 -->
<g id="node17" class="node"><title>Node17</title>
<g id="a_node17"><a xlink:href="structstm_1_1toxic__nop__t.html#a1c92cb621137c523ad38b9c252b4da06" target="_top" xlink:title="stm::toxic_nop_t::onCommit">
<polygon fill="none" stroke="black" points="1257,-139.5 1257,-158.5 1397,-158.5 1397,-139.5 1257,-139.5"/>
<text text-anchor="middle" x="1327" y="-146.5" font-family="Helvetica,sans-Serif" font-size="10.00">stm::toxic_nop_t::onCommit</text>
</a>
</g>
</g>
<!-- Node9&#45;&gt;Node17 -->
<g id="edge16" class="edge"><title>Node9&#45;&gt;Node17</title>
<path fill="none" stroke="midnightblue" d="M1206.1,-161.381C1219.15,-160.033 1233.04,-158.599 1246.56,-157.203"/>
<polygon fill="midnightblue" stroke="midnightblue" points="1247.22,-160.654 1256.81,-156.145 1246.5,-153.691 1247.22,-160.654"/>
</g>
<!-- Node11 -->
<g id="node11" class="node"><title>Node11</title>
<g id="a_node11"><a xlink:href="classstm_1_1MiniVector.html#a4d707e1115e162943b4709a2af92ed77" target="_top" xlink:title="stm::MiniVector::begin">
<polygon fill="none" stroke="black" points="1459.5,-237.5 1459.5,-256.5 1574.5,-256.5 1574.5,-237.5 1459.5,-237.5"/>
<text text-anchor="middle" x="1517" y="-244.5" font-family="Helvetica,sans-Serif" font-size="10.00">stm::MiniVector::begin</text>
</a>
</g>
</g>
<!-- Node10&#45;&gt;Node11 -->
<g id="edge10" class="edge"><title>Node10&#45;&gt;Node11</title>
<path fill="none" stroke="midnightblue" d="M1353.15,-196.558C1376.51,-205.278 1412.36,-218.252 1444,-228 1451.56,-230.329 1459.61,-232.629 1467.5,-234.782"/>
<polygon fill="midnightblue" stroke="midnightblue" points="1466.78,-238.213 1477.35,-237.421 1468.59,-231.452 1466.78,-238.213"/>
</g>
<!-- Node12 -->
<g id="node12" class="node"><title>Node12</title>
<g id="a_node12"><a xlink:href="classstm_1_1MiniVector.html#ae2297c706ac2ebee161ef60ace9ae645" target="_top" xlink:title="stm::MiniVector::end">
<polygon fill="none" stroke="black" points="1463.5,-199.5 1463.5,-218.5 1570.5,-218.5 1570.5,-199.5 1463.5,-199.5"/>
<text text-anchor="middle" x="1517" y="-206.5" font-family="Helvetica,sans-Serif" font-size="10.00">stm::MiniVector::end</text>
</a>
</g>
</g>
<!-- Node10&#45;&gt;Node12 -->
<g id="edge11" class="edge"><title>Node10&#45;&gt;Node12</title>
<path fill="none" stroke="midnightblue" d="M1407.73,-196.33C1423.02,-198.119 1438.82,-199.968 1453.47,-201.682"/>
<polygon fill="midnightblue" stroke="midnightblue" points="1453.07,-205.159 1463.4,-202.845 1453.88,-198.207 1453.07,-205.159"/>
</g>
<!-- Node13 -->
<g id="node13" class="node"><title>Node13</title>
<g id="a_node13"><a xlink:href="classstm_1_1WBMMPolicy.html#aa2aa233946e7b6b1d35b184503b8c9f9" target="_top" xlink:title="stm::WBMMPolicy::schedFor\lReclaim">
<polygon fill="none" stroke="black" points="1444,-150 1444,-180 1590,-180 1590,-150 1444,-150"/>
<text text-anchor="start" x="1452" y="-168" font-family="Helvetica,sans-Serif" font-size="10.00">stm::WBMMPolicy::schedFor</text>
<text text-anchor="middle" x="1517" y="-157" font-family="Helvetica,sans-Serif" font-size="10.00">Reclaim</text>
</a>
</g>
</g>
<!-- Node10&#45;&gt;Node13 -->
<g id="edge12" class="edge"><title>Node10&#45;&gt;Node13</title>
<path fill="none" stroke="midnightblue" d="M1407.73,-177.67C1416.36,-176.66 1425.16,-175.631 1433.82,-174.617"/>
<polygon fill="midnightblue" stroke="midnightblue" points="1434.38,-178.076 1443.9,-173.437 1433.56,-171.123 1434.38,-178.076"/>
</g>
<!-- Node16 -->
<g id="node16" class="node"><title>Node16</title>
<g id="a_node16"><a xlink:href="classstm_1_1MiniVector.html#ad17f9c76202d399264ba62812f0b5c41" target="_top" xlink:title="stm::MiniVector::reset">
<polygon fill="none" stroke="black" points="1460.5,-111.5 1460.5,-130.5 1573.5,-130.5 1573.5,-111.5 1460.5,-111.5"/>
<text text-anchor="middle" x="1517" y="-118.5" font-family="Helvetica,sans-Serif" font-size="10.00">stm::MiniVector::reset</text>
</a>
</g>
</g>
<!-- Node10&#45;&gt;Node16 -->
<g id="edge15" class="edge"><title>Node10&#45;&gt;Node16</title>
<path fill="none" stroke="midnightblue" d="M1382.45,-177.396C1391.21,-174.914 1400.02,-171.827 1408,-168 1426.28,-159.236 1425.83,-148.99 1444,-140 1448.66,-137.694 1453.63,-135.643 1458.71,-133.825"/>
<polygon fill="midnightblue" stroke="midnightblue" points="1460.11,-137.047 1468.53,-130.609 1457.93,-130.395 1460.11,-137.047"/>
</g>
<!-- Node14 -->
<g id="node14" class="node"><title>Node14</title>
<g id="a_node14"><a xlink:href="classstm_1_1WBMMPolicy.html#a80a035e5b8f805d49606613b869ddd3c" target="_top" xlink:title="stm::WBMMPolicy::handle\l_full_prelimbo">
<polygon fill="none" stroke="black" points="1626,-150 1626,-180 1760,-180 1760,-150 1626,-150"/>
<text text-anchor="start" x="1634" y="-168" font-family="Helvetica,sans-Serif" font-size="10.00">stm::WBMMPolicy::handle</text>
<text text-anchor="middle" x="1693" y="-157" font-family="Helvetica,sans-Serif" font-size="10.00">_full_prelimbo</text>
</a>
</g>
</g>
<!-- Node13&#45;&gt;Node14 -->
<g id="edge13" class="edge"><title>Node13&#45;&gt;Node14</title>
<path fill="none" stroke="midnightblue" d="M1590.03,-165C1598.47,-165 1607.11,-165 1615.6,-165"/>
<polygon fill="midnightblue" stroke="midnightblue" points="1615.88,-168.5 1625.88,-165 1615.88,-161.5 1615.88,-168.5"/>
</g>
<!-- Node15 -->
<g id="node15" class="node"><title>Node15</title>
<g id="a_node15"><a xlink:href="namespaceanonymous__namespace_02WBMMPolicy_8cpp_03.html#a030c6e9142fd49127ce70ad9b1af5e79" target="_top" xlink:title="anonymous_namespace\l\{WBMMPolicy::cpp\}::is\l_strictly_older">
<polygon fill="none" stroke="black" points="1796,-144.5 1796,-185.5 1918,-185.5 1918,-144.5 1796,-144.5"/>
<text text-anchor="start" x="1804" y="-173.5" font-family="Helvetica,sans-Serif" font-size="10.00">anonymous_namespace</text>
<text text-anchor="start" x="1804" y="-162.5" font-family="Helvetica,sans-Serif" font-size="10.00">{WBMMPolicy::cpp}::is</text>
<text text-anchor="middle" x="1857" y="-151.5" font-family="Helvetica,sans-Serif" font-size="10.00">_strictly_older</text>
</a>
</g>
</g>
<!-- Node14&#45;&gt;Node15 -->
<g id="edge14" class="edge"><title>Node14&#45;&gt;Node15</title>
<path fill="none" stroke="midnightblue" d="M1760.36,-165C1768.75,-165 1777.35,-165 1785.79,-165"/>
<polygon fill="midnightblue" stroke="midnightblue" points="1785.99,-168.5 1795.99,-165 1785.99,-161.5 1785.99,-168.5"/>
</g>
<!-- Node19 -->
<g id="node19" class="node"><title>Node19</title>
<g id="a_node19"><a xlink:href="namespacestm.html#a51b2c0958e7709b39500d037648c461b" target="_top" xlink:title="stm::UNRECOVERABLE">
<polygon fill="none" stroke="black" points="1076,-49.5 1076,-68.5 1206,-68.5 1206,-49.5 1076,-49.5"/>
<text text-anchor="middle" x="1141" y="-56.5" font-family="Helvetica,sans-Serif" font-size="10.00">stm::UNRECOVERABLE</text>
</a>
</g>
</g>
<!-- Node18&#45;&gt;Node19 -->
<g id="edge18" class="edge"><title>Node18&#45;&gt;Node19</title>
<path fill="none" stroke="midnightblue" d="M1036.14,-36.834C1052.18,-40.2588 1069.44,-43.9409 1085.18,-47.3012"/>
<polygon fill="midnightblue" stroke="midnightblue" points="1084.77,-50.7927 1095.28,-49.4571 1086.24,-43.9469 1084.77,-50.7927"/>
</g>
<!-- Node20&#45;&gt;Node19 -->
<g id="edge20" class="edge"><title>Node20&#45;&gt;Node19</title>
<path fill="none" stroke="midnightblue" d="M1036.14,-74.8329C1046.39,-73.2699 1057.13,-71.632 1067.66,-70.0269"/>
<polygon fill="midnightblue" stroke="midnightblue" points="1068.31,-73.4687 1077.67,-68.5016 1067.26,-66.5486 1068.31,-73.4687"/>
</g>
<!-- Node23&#45;&gt;Node5 -->
<g id="edge25" class="edge"><title>Node23&#45;&gt;Node5</title>
<path fill="none" stroke="midnightblue" d="M558.314,-94.5058C570.505,-96.225 583.304,-98.0301 595.434,-99.7407"/>
<polygon fill="midnightblue" stroke="midnightblue" points="595.047,-103.221 605.437,-101.151 596.024,-96.2892 595.047,-103.221"/>
</g>
<!-- Node23&#45;&gt;Node21 -->
<g id="edge26" class="edge"><title>Node23&#45;&gt;Node21</title>
<path fill="none" stroke="midnightblue" d="M558.18,-77.8198C602.774,-73.8962 664.486,-73.015 716,-89 734.366,-94.6989 734.685,-104.635 752,-113 761.7,-117.686 772.765,-121.654 782.836,-124.789"/>
<polygon fill="midnightblue" stroke="midnightblue" points="781.907,-128.164 792.489,-127.642 783.892,-121.451 781.907,-128.164"/>
</g>
<!-- Node23&#45;&gt;Node22 -->
<g id="edge28" class="edge"><title>Node23&#45;&gt;Node22</title>
<path fill="none" stroke="midnightblue" d="M543.537,-106.517C559.377,-113.368 577.348,-120.824 594,-127 599.71,-129.118 605.777,-131.214 611.776,-133.197"/>
<polygon fill="midnightblue" stroke="midnightblue" points="611.14,-136.67 621.732,-136.413 613.292,-130.009 611.14,-136.67"/>
</g>
<!-- Node24 -->
<g id="node24" class="node"><title>Node24</title>
<g id="a_node24"><a xlink:href="namespaceanonymous__namespace_02profiling_8cpp_03.html#a00942ad1d38b82f3a2e0f66b704bef44" target="_top" xlink:title="anonymous_namespace\l\{profiling::cpp\}::adjust\l_thresholds">
<polygon fill="none" stroke="black" points="594,-0.5 594,-41.5 716,-41.5 716,-0.5 594,-0.5"/>
<text text-anchor="start" x="602" y="-29.5" font-family="Helvetica,sans-Serif" font-size="10.00">anonymous_namespace</text>
<text text-anchor="start" x="602" y="-18.5" font-family="Helvetica,sans-Serif" font-size="10.00">{profiling::cpp}::adjust</text>
<text text-anchor="middle" x="655" y="-7.5" font-family="Helvetica,sans-Serif" font-size="10.00">_thresholds</text>
</a>
</g>
</g>
<!-- Node23&#45;&gt;Node24 -->
<g id="edge27" class="edge"><title>Node23&#45;&gt;Node24</title>
<path fill="none" stroke="midnightblue" d="M547.359,-65.4336C562.513,-59.1195 579.342,-52.1074 595.069,-45.5545"/>
<polygon fill="midnightblue" stroke="midnightblue" points="596.81,-48.6211 604.694,-41.5441 594.117,-42.1595 596.81,-48.6211"/>
</g>
</g>
</svg>
        <g id="navigator" transform="translate(0 0)" fill="#404254">
                <rect fill="#f2f5e9" fill-opacity="0.5" stroke="#606060" stroke-width=".5" x="0" y="0" width="60" height="60"/>
                <use id="zoomplus" xlink:href="#zoomPlus" x="17" y="9" onmousedown="handleZoom(evt,'in')"/>
                <use id="zoomminus" xlink:href="#zoomMin" x="42" y="9" onmousedown="handleZoom(evt,'out')"/>
                <use id="reset" xlink:href="#resetDef" x="30" y="36" onmousedown="handleReset()"/>
                <g id="arrowUp" xlink:href="#dirArrow" transform="translate(30 24)" onmousedown="handlePan(0,-1)">
                  <use xlink:href="#rim" fill="#404040">
                        <set attributeName="fill" to="#808080" begin="arrowUp.mouseover" end="arrowUp.mouseout"/>
                  </use>
                  <path fill="none" stroke="white" stroke-width="1.5" d="M0,-3.0v7 M-2.5,-0.5L0,-3.0L2.5,-0.5"/>
                </g>
                <g id="arrowRight" xlink:href="#dirArrow" transform="rotate(90) translate(36 -43)" onmousedown="handlePan(1,0)">
                  <use xlink:href="#rim" fill="#404040">
                        <set attributeName="fill" to="#808080" begin="arrowRight.mouseover" end="arrowRight.mouseout"/>
                  </use>
                  <path fill="none" stroke="white" stroke-width="1.5" d="M0,-3.0v7 M-2.5,-0.5L0,-3.0L2.5,-0.5"/>
                </g>
                <g id="arrowDown" xlink:href="#dirArrow" transform="rotate(180) translate(-30 -48)" onmousedown="handlePan(0,1)">
                  <use xlink:href="#rim" fill="#404040">
                        <set attributeName="fill" to="#808080" begin="arrowDown.mouseover" end="arrowDown.mouseout"/>
                  </use>
                  <path fill="none" stroke="white" stroke-width="1.5" d="M0,-3.0v7 M-2.5,-0.5L0,-3.0L2.5,-0.5"/>
                </g>
                <g id="arrowLeft" xlink:href="#dirArrow" transform="rotate(270) translate(-36 17)" onmousedown="handlePan(-1,0)">
                  <use xlink:href="#rim" fill="#404040">
                        <set attributeName="fill" to="#808080" begin="arrowLeft.mouseover" end="arrowLeft.mouseout"/>
                  </use>
                  <path fill="none" stroke="white" stroke-width="1.5" d="M0,-3.0v7 M-2.5,-0.5L0,-3.0L2.5,-0.5"/>
                </g>
        </g>
        <svg viewBox="0 0 15 15" width="100%" height="30px" preserveAspectRatio="xMaxYMin meet">
         <g id="arrow_out" transform="scale(0.3 0.3)">
          <a xlink:href="structstm_1_1CommitTrigger_aee144a92ac151fa1aae6942b04f68685_cgraph_org.svg" target="_base">
           <rect id="button" ry="5" rx="5" y="6" x="6" height="38" width="38"
                fill="#f2f5e9" fill-opacity="0.5" stroke="#606060" stroke-width="1.0"/>
           <path id="arrow"
             d="M 11.500037,31.436501 C 11.940474,20.09759 22.043105,11.32322 32.158766,21.979434 L 37.068811,17.246167 C 37.068811,17.246167 37.088388,32 37.088388,32 L 22.160133,31.978069 C 22.160133,31.978069 26.997745,27.140456 26.997745,27.140456 C 18.528582,18.264221 13.291696,25.230495 11.500037,31.436501 z"
             style="fill:#404040;"/>
          </a>
         </g>
        </svg>
</svg>
