<?xml version="1.0" encoding="UTF-8" standalone="no"?>
<!DOCTYPE svg PUBLIC "-//W3C//DTD SVG 1.1//EN"
 "http://www.w3.org/Graphics/SVG/1.1/DTD/svg11.dtd">
<!-- Generated by graphviz version 2.36.0 (20140111.2315)
 -->
<!-- Title: rstm/rstm&#45;dev/stamp&#45;0.9.10/lib/thread.h Pages: 1 -->
<!--zoomable 108 -->
<svg id="main" version="1.1" xmlns="http://www.w3.org/2000/svg" xmlns:xlink="http://www.w3.org/1999/xlink" xml:space="preserve" onload="init(evt)">
<style type="text/css"><![CDATA[
.edge:hover path { stroke: red; }
.edge:hover polygon { stroke: red; fill: red; }
]]></style>
<script type="text/javascript"><![CDATA[
var edges = document.getElementsByTagName('g');
if (edges && edges.length) {
  for (var i=0;i<edges.length;i++) {
    if (edges[i].id.substr(0,4)=='edge') {
      edges[i].setAttribute('class','edge');
    }
  }
}
]]></script>
        <defs>
                <circle id="rim" cx="0" cy="0" r="7"/>
                <circle id="rim2" cx="0" cy="0" r="3.5"/>
                <g id="zoomPlus">
                        <use xlink:href="#rim" fill="#404040">
                                <set attributeName="fill" to="#808080" begin="zoomplus.mouseover" end="zoomplus.mouseout"/>
                        </use>
                        <path d="M-4,0h8M0,-4v8" fill="none" stroke="white" stroke-width="1.5" pointer-events="none"/>
                </g>
                <g id="zoomMin">
                        <use xlink:href="#rim" fill="#404040">
                                <set attributeName="fill" to="#808080" begin="zoomminus.mouseover" end="zoomminus.mouseout"/>
                        </use>
                        <path d="M-4,0h8" fill="none" stroke="white" stroke-width="1.5" pointer-events="none"/>
                </g>
                <g id="dirArrow">
                        <path fill="none" stroke="white" stroke-width="1.5" d="M0,-3.0v7 M-2.5,-0.5L0,-3.0L2.5,-0.5"/>
                </g>
               <g id="resetDef">
                       <use xlink:href="#rim2" fill="#404040">
                               <set attributeName="fill" to="#808080" begin="reset.mouseover" end="reset.mouseout"/>
                       </use>
               </g>
        </defs>

<script type="text/javascript">
var viewWidth = 2807;
var viewHeight = 108;
var sectionId = 'dynsection-1';
</script>
<script xlink:href="svgpan.js"/>
<svg id="graph" class="graph">
<g id="viewport">
<title>rstm/rstm&#45;dev/stamp&#45;0.9.10/lib/thread.h</title>
<!-- Node1 -->
<g id="node1" class="node"><title>Node1</title>
<polygon fill="#bfbfbf" stroke="black" points="1305.5,-69 1305.5,-99 1412.5,-99 1412.5,-69 1305.5,-69"/>
<text text-anchor="start" x="1313.5" y="-87" font-family="Helvetica,sans-Serif" font-size="10.00">rstm/rstm&#45;dev/stamp</text>
<text text-anchor="middle" x="1359" y="-76" font-family="Helvetica,sans-Serif" font-size="10.00">&#45;0.9.10/lib/thread.h</text>
</g>
<!-- Node2 -->
<g id="node2" class="node"><title>Node2</title>
<g id="a_node2"><a xlink:href="bayes_8c.html" target="_top" xlink:title="rstm/rstm&#45;dev/stamp\l&#45;0.9.10/bayes/bayes.c">
<polygon fill="none" stroke="black" points="-0.5,-1 -0.5,-31 112.5,-31 112.5,-1 -0.5,-1"/>
<text text-anchor="start" x="7.5" y="-19" font-family="Helvetica,sans-Serif" font-size="10.00">rstm/rstm&#45;dev/stamp</text>
<text text-anchor="middle" x="56" y="-8" font-family="Helvetica,sans-Serif" font-size="10.00">&#45;0.9.10/bayes/bayes.c</text>
</a>
</g>
</g>
<!-- Node1&#45;&gt;Node2 -->
<g id="edge1" class="edge"><title>Node1&#45;&gt;Node2</title>
<path fill="none" stroke="midnightblue" d="M1295.28,-81.908C1075.84,-77.9072 352.311,-62.6587 122,-32 118.972,-31.5969 115.878,-31.1209 112.762,-30.591"/>
<polygon fill="midnightblue" stroke="midnightblue" points="1295.28,-85.4085 1305.34,-82.09 1295.41,-78.4097 1295.28,-85.4085"/>
</g>
<!-- Node3 -->
<g id="node3" class="node"><title>Node3</title>
<g id="a_node3"><a xlink:href="learner_8c.html" target="_top" xlink:title="rstm/rstm&#45;dev/stamp\l&#45;0.9.10/bayes/learner.c">
<polygon fill="none" stroke="black" points="131,-1 131,-31 247,-31 247,-1 131,-1"/>
<text text-anchor="start" x="139" y="-19" font-family="Helvetica,sans-Serif" font-size="10.00">rstm/rstm&#45;dev/stamp</text>
<text text-anchor="middle" x="189" y="-8" font-family="Helvetica,sans-Serif" font-size="10.00">&#45;0.9.10/bayes/learner.c</text>
</a>
</g>
</g>
<!-- Node1&#45;&gt;Node3 -->
<g id="edge2" class="edge"><title>Node1&#45;&gt;Node3</title>
<path fill="none" stroke="midnightblue" d="M1295.12,-81.5086C1091.46,-76.5234 458.976,-59.2029 256,-32 253.165,-31.62 250.272,-31.1794 247.358,-30.6929"/>
<polygon fill="midnightblue" stroke="midnightblue" points="1295.27,-85.0132 1305.35,-81.7575 1295.44,-78.0152 1295.27,-85.0132"/>
</g>
<!-- Node4 -->
<g id="node4" class="node"><title>Node4</title>
<g id="a_node4"><a xlink:href="genome_8c.html" target="_top" xlink:title="rstm/rstm&#45;dev/stamp\l&#45;0.9.10/genome/genome.c">
<polygon fill="none" stroke="black" points="265,-1 265,-31 395,-31 395,-1 265,-1"/>
<text text-anchor="start" x="273" y="-19" font-family="Helvetica,sans-Serif" font-size="10.00">rstm/rstm&#45;dev/stamp</text>
<text text-anchor="middle" x="330" y="-8" font-family="Helvetica,sans-Serif" font-size="10.00">&#45;0.9.10/genome/genome.c</text>
</a>
</g>
</g>
<!-- Node1&#45;&gt;Node4 -->
<g id="edge3" class="edge"><title>Node1&#45;&gt;Node4</title>
<path fill="none" stroke="midnightblue" d="M1295.22,-82.8158C1141.33,-81.6714 737.683,-74.4961 404,-32 401.139,-31.6357 398.224,-31.2232 395.284,-30.7735"/>
<polygon fill="midnightblue" stroke="midnightblue" points="1295.41,-86.317 1305.43,-82.8855 1295.45,-79.3172 1295.41,-86.317"/>
</g>
<!-- Node5 -->
<g id="node5" class="node"><title>Node5</title>
<g id="a_node5"><a xlink:href="sequencer_8c.html" target="_top" xlink:title="rstm/rstm&#45;dev/stamp\l&#45;0.9.10/genome/sequencer.c">
<polygon fill="none" stroke="black" points="413,-1 413,-31 553,-31 553,-1 413,-1"/>
<text text-anchor="start" x="421" y="-19" font-family="Helvetica,sans-Serif" font-size="10.00">rstm/rstm&#45;dev/stamp</text>
<text text-anchor="middle" x="483" y="-8" font-family="Helvetica,sans-Serif" font-size="10.00">&#45;0.9.10/genome/sequencer.c</text>
</a>
</g>
</g>
<!-- Node1&#45;&gt;Node5 -->
<g id="edge4" class="edge"><title>Node1&#45;&gt;Node5</title>
<path fill="none" stroke="midnightblue" d="M1294.93,-81.5879C1159.25,-78.0079 833.143,-66.283 562,-32 559.091,-31.6323 556.129,-31.2239 553.14,-30.7841"/>
<polygon fill="midnightblue" stroke="midnightblue" points="1295.06,-85.0922 1305.14,-81.8514 1295.24,-78.0945 1295.06,-85.0922"/>
</g>
<!-- Node6 -->
<g id="node6" class="node"><title>Node6</title>
<g id="a_node6"><a xlink:href="intruder_8c.html" target="_top" xlink:title="rstm/rstm&#45;dev/stamp\l&#45;0.9.10/intruder/intruder.c">
<polygon fill="none" stroke="black" points="571.5,-1 571.5,-31 696.5,-31 696.5,-1 571.5,-1"/>
<text text-anchor="start" x="579.5" y="-19" font-family="Helvetica,sans-Serif" font-size="10.00">rstm/rstm&#45;dev/stamp</text>
<text text-anchor="middle" x="634" y="-8" font-family="Helvetica,sans-Serif" font-size="10.00">&#45;0.9.10/intruder/intruder.c</text>
</a>
</g>
</g>
<!-- Node1&#45;&gt;Node6 -->
<g id="edge5" class="edge"><title>Node1&#45;&gt;Node6</title>
<path fill="none" stroke="midnightblue" d="M1295.2,-80.7177C1177.99,-75.9266 920.727,-62.6254 706,-32 702.966,-31.5673 699.869,-31.0839 696.746,-30.5631"/>
<polygon fill="midnightblue" stroke="midnightblue" points="1295.29,-84.2242 1305.42,-81.1285 1295.57,-77.2298 1295.29,-84.2242"/>
</g>
<!-- Node7 -->
<g id="node7" class="node"><title>Node7</title>
<g id="a_node7"><a xlink:href="kmeans_8c.html" target="_top" xlink:title="rstm/rstm&#45;dev/stamp\l&#45;0.9.10/kmeans/kmeans.c">
<polygon fill="none" stroke="black" points="715,-1 715,-31 845,-31 845,-1 715,-1"/>
<text text-anchor="start" x="723" y="-19" font-family="Helvetica,sans-Serif" font-size="10.00">rstm/rstm&#45;dev/stamp</text>
<text text-anchor="middle" x="780" y="-8" font-family="Helvetica,sans-Serif" font-size="10.00">&#45;0.9.10/kmeans/kmeans.c</text>
</a>
</g>
</g>
<!-- Node1&#45;&gt;Node7 -->
<g id="edge6" class="edge"><title>Node1&#45;&gt;Node7</title>
<path fill="none" stroke="midnightblue" d="M1295.21,-78.6006C1199.16,-71.5157 1011.83,-55.9052 854,-32 851.149,-31.5681 848.241,-31.0997 845.307,-30.6042"/>
<polygon fill="midnightblue" stroke="midnightblue" points="1295.11,-82.1027 1305.34,-79.3411 1295.62,-75.1213 1295.11,-82.1027"/>
</g>
<!-- Node8 -->
<g id="node8" class="node"><title>Node8</title>
<g id="a_node8"><a xlink:href="normal_8c.html" target="_top" xlink:title="rstm/rstm&#45;dev/stamp\l&#45;0.9.10/kmeans/normal.c">
<polygon fill="none" stroke="black" points="863.5,-1 863.5,-31 988.5,-31 988.5,-1 863.5,-1"/>
<text text-anchor="start" x="871.5" y="-19" font-family="Helvetica,sans-Serif" font-size="10.00">rstm/rstm&#45;dev/stamp</text>
<text text-anchor="middle" x="926" y="-8" font-family="Helvetica,sans-Serif" font-size="10.00">&#45;0.9.10/kmeans/normal.c</text>
</a>
</g>
</g>
<!-- Node1&#45;&gt;Node8 -->
<g id="edge7" class="edge"><title>Node1&#45;&gt;Node8</title>
<path fill="none" stroke="midnightblue" d="M1295,-75.2367C1222.69,-66.1678 1101.56,-50.0823 998,-32 994.981,-31.4729 991.896,-30.9128 988.782,-30.3305"/>
<polygon fill="midnightblue" stroke="midnightblue" points="1294.95,-78.7577 1305.31,-76.5232 1295.82,-71.8116 1294.95,-78.7577"/>
</g>
<!-- Node9 -->
<g id="node9" class="node"><title>Node9</title>
<g id="a_node9"><a xlink:href="labyrinth_8c.html" target="_top" xlink:title="rstm/rstm&#45;dev/stamp\l&#45;0.9.10/labyrinth/labyrinth.c">
<polygon fill="none" stroke="black" points="1007,-1 1007,-31 1141,-31 1141,-1 1007,-1"/>
<text text-anchor="start" x="1015" y="-19" font-family="Helvetica,sans-Serif" font-size="10.00">rstm/rstm&#45;dev/stamp</text>
<text text-anchor="middle" x="1074" y="-8" font-family="Helvetica,sans-Serif" font-size="10.00">&#45;0.9.10/labyrinth/labyrinth.c</text>
</a>
</g>
</g>
<!-- Node1&#45;&gt;Node9 -->
<g id="edge8" class="edge"><title>Node1&#45;&gt;Node9</title>
<path fill="none" stroke="midnightblue" d="M1295.42,-68.2756C1247.36,-57.1469 1181.82,-41.9679 1134.52,-31.0161"/>
<polygon fill="midnightblue" stroke="midnightblue" points="1294.86,-71.7395 1305.39,-70.5859 1296.44,-64.92 1294.86,-71.7395"/>
</g>
<!-- Node10 -->
<g id="node10" class="node"><title>Node10</title>
<g id="a_node10"><a xlink:href="thread_8c.html" target="_top" xlink:title="rstm/rstm&#45;dev/stamp\l&#45;0.9.10/lib/thread.c">
<polygon fill="none" stroke="black" points="1159.5,-1 1159.5,-31 1266.5,-31 1266.5,-1 1159.5,-1"/>
<text text-anchor="start" x="1167.5" y="-19" font-family="Helvetica,sans-Serif" font-size="10.00">rstm/rstm&#45;dev/stamp</text>
<text text-anchor="middle" x="1213" y="-8" font-family="Helvetica,sans-Serif" font-size="10.00">&#45;0.9.10/lib/thread.c</text>
</a>
</g>
</g>
<!-- Node1&#45;&gt;Node10 -->
<g id="edge9" class="edge"><title>Node1&#45;&gt;Node10</title>
<path fill="none" stroke="midnightblue" d="M1318.31,-64.6069C1294.8,-53.976 1265.67,-40.8112 1244.02,-31.0218"/>
<polygon fill="midnightblue" stroke="midnightblue" points="1317.13,-67.9113 1327.68,-68.8413 1320.01,-61.5328 1317.13,-67.9113"/>
</g>
<!-- Node11 -->
<g id="node11" class="node"><title>Node11</title>
<g id="a_node11"><a xlink:href="alg__radix__smp_8c.html" target="_top" xlink:title="rstm/rstm&#45;dev/stamp\l&#45;0.9.10/ssca2/alg_radix_smp.c">
<polygon fill="none" stroke="black" points="1284,-1 1284,-31 1434,-31 1434,-1 1284,-1"/>
<text text-anchor="start" x="1292" y="-19" font-family="Helvetica,sans-Serif" font-size="10.00">rstm/rstm&#45;dev/stamp</text>
<text text-anchor="middle" x="1359" y="-8" font-family="Helvetica,sans-Serif" font-size="10.00">&#45;0.9.10/ssca2/alg_radix_smp.c</text>
</a>
</g>
</g>
<!-- Node1&#45;&gt;Node11 -->
<g id="edge10" class="edge"><title>Node1&#45;&gt;Node11</title>
<path fill="none" stroke="midnightblue" d="M1359,-58.5322C1359,-49.3606 1359,-39.2449 1359,-31.2931"/>
<polygon fill="midnightblue" stroke="midnightblue" points="1355.5,-58.6789 1359,-68.679 1362.5,-58.679 1355.5,-58.6789"/>
</g>
<!-- Node12 -->
<g id="node12" class="node"><title>Node12</title>
<g id="a_node12"><a xlink:href="computeGraph_8c.html" target="_top" xlink:title="rstm/rstm&#45;dev/stamp\l&#45;0.9.10/ssca2/computeGraph.c">
<polygon fill="none" stroke="black" points="1452.5,-1 1452.5,-31 1603.5,-31 1603.5,-1 1452.5,-1"/>
<text text-anchor="start" x="1460.5" y="-19" font-family="Helvetica,sans-Serif" font-size="10.00">rstm/rstm&#45;dev/stamp</text>
<text text-anchor="middle" x="1528" y="-8" font-family="Helvetica,sans-Serif" font-size="10.00">&#45;0.9.10/ssca2/computeGraph.c</text>
</a>
</g>
</g>
<!-- Node1&#45;&gt;Node12 -->
<g id="edge11" class="edge"><title>Node1&#45;&gt;Node12</title>
<path fill="none" stroke="midnightblue" d="M1404.65,-65.1715C1432.12,-54.4451 1466.58,-40.9852 1492.1,-31.0218"/>
<polygon fill="midnightblue" stroke="midnightblue" points="1403.3,-61.9433 1395.25,-68.8413 1405.84,-68.4637 1403.3,-61.9433"/>
</g>
<!-- Node13 -->
<g id="node13" class="node"><title>Node13</title>
<g id="a_node13"><a xlink:href="cutClusters_8c.html" target="_top" xlink:title="rstm/rstm&#45;dev/stamp\l&#45;0.9.10/ssca2/cutClusters.c">
<polygon fill="none" stroke="black" points="1621.5,-1 1621.5,-31 1758.5,-31 1758.5,-1 1621.5,-1"/>
<text text-anchor="start" x="1629.5" y="-19" font-family="Helvetica,sans-Serif" font-size="10.00">rstm/rstm&#45;dev/stamp</text>
<text text-anchor="middle" x="1690" y="-8" font-family="Helvetica,sans-Serif" font-size="10.00">&#45;0.9.10/ssca2/cutClusters.c</text>
</a>
</g>
</g>
<!-- Node1&#45;&gt;Node13 -->
<g id="edge12" class="edge"><title>Node1&#45;&gt;Node13</title>
<path fill="none" stroke="midnightblue" d="M1422.51,-70.3363C1479.46,-58.9808 1562.82,-42.3597 1621.3,-30.6979"/>
<polygon fill="midnightblue" stroke="midnightblue" points="1421.67,-66.9346 1412.55,-72.3226 1423.04,-73.7995 1421.67,-66.9346"/>
</g>
<!-- Node14 -->
<g id="node14" class="node"><title>Node14</title>
<g id="a_node14"><a xlink:href="findSubGraphs_8c.html" target="_top" xlink:title="rstm/rstm&#45;dev/stamp\l&#45;0.9.10/ssca2/findSubGraphs.c">
<polygon fill="none" stroke="black" points="1777,-1 1777,-31 1929,-31 1929,-1 1777,-1"/>
<text text-anchor="start" x="1785" y="-19" font-family="Helvetica,sans-Serif" font-size="10.00">rstm/rstm&#45;dev/stamp</text>
<text text-anchor="middle" x="1853" y="-8" font-family="Helvetica,sans-Serif" font-size="10.00">&#45;0.9.10/ssca2/findSubGraphs.c</text>
</a>
</g>
</g>
<!-- Node1&#45;&gt;Node14 -->
<g id="edge13" class="edge"><title>Node1&#45;&gt;Node14</title>
<path fill="none" stroke="midnightblue" d="M1422.54,-76.0206C1502.91,-66.972 1645.47,-50.1829 1767,-32 1770.15,-31.529 1773.36,-31.0344 1776.6,-30.5232"/>
<polygon fill="midnightblue" stroke="midnightblue" points="1422.12,-72.5453 1412.58,-77.1387 1422.91,-79.5016 1422.12,-72.5453"/>
</g>
<!-- Node15 -->
<g id="node15" class="node"><title>Node15</title>
<g id="a_node15"><a xlink:href="genScalData_8c.html" target="_top" xlink:title="rstm/rstm&#45;dev/stamp\l&#45;0.9.10/ssca2/genScalData.c">
<polygon fill="none" stroke="black" points="1947.5,-1 1947.5,-31 2090.5,-31 2090.5,-1 1947.5,-1"/>
<text text-anchor="start" x="1955.5" y="-19" font-family="Helvetica,sans-Serif" font-size="10.00">rstm/rstm&#45;dev/stamp</text>
<text text-anchor="middle" x="2019" y="-8" font-family="Helvetica,sans-Serif" font-size="10.00">&#45;0.9.10/ssca2/genScalData.c</text>
</a>
</g>
</g>
<!-- Node1&#45;&gt;Node15 -->
<g id="edge14" class="edge"><title>Node1&#45;&gt;Node15</title>
<path fill="none" stroke="midnightblue" d="M1422.97,-79.3635C1529.94,-72.8358 1751.73,-57.3919 1938,-32 1940.98,-31.5943 1944.01,-31.1543 1947.07,-30.6882"/>
<polygon fill="midnightblue" stroke="midnightblue" points="1422.44,-75.8889 1412.67,-79.986 1422.87,-82.8762 1422.44,-75.8889"/>
</g>
<!-- Node16 -->
<g id="node16" class="node"><title>Node16</title>
<g id="a_node16"><a xlink:href="getStartLists_8c.html" target="_top" xlink:title="rstm/rstm&#45;dev/stamp\l&#45;0.9.10/ssca2/getStartLists.c">
<polygon fill="none" stroke="black" points="2108.5,-1 2108.5,-31 2251.5,-31 2251.5,-1 2108.5,-1"/>
<text text-anchor="start" x="2116.5" y="-19" font-family="Helvetica,sans-Serif" font-size="10.00">rstm/rstm&#45;dev/stamp</text>
<text text-anchor="middle" x="2180" y="-8" font-family="Helvetica,sans-Serif" font-size="10.00">&#45;0.9.10/ssca2/getStartLists.c</text>
</a>
</g>
</g>
<!-- Node1&#45;&gt;Node16 -->
<g id="edge15" class="edge"><title>Node1&#45;&gt;Node16</title>
<path fill="none" stroke="midnightblue" d="M1422.65,-81.0644C1551.01,-76.6211 1849.91,-63.5421 2099,-32 2101.98,-31.6227 2105.02,-31.2064 2108.08,-30.7599"/>
<polygon fill="midnightblue" stroke="midnightblue" points="1422.47,-77.5682 1412.6,-81.4066 1422.71,-84.5641 1422.47,-77.5682"/>
</g>
<!-- Node17 -->
<g id="node17" class="node"><title>Node17</title>
<g id="a_node17"><a xlink:href="ssca2_8c.html" target="_top" xlink:title="rstm/rstm&#45;dev/stamp\l&#45;0.9.10/ssca2/ssca2.c">
<polygon fill="none" stroke="black" points="2269.5,-1 2269.5,-31 2382.5,-31 2382.5,-1 2269.5,-1"/>
<text text-anchor="start" x="2277.5" y="-19" font-family="Helvetica,sans-Serif" font-size="10.00">rstm/rstm&#45;dev/stamp</text>
<text text-anchor="middle" x="2326" y="-8" font-family="Helvetica,sans-Serif" font-size="10.00">&#45;0.9.10/ssca2/ssca2.c</text>
</a>
</g>
</g>
<!-- Node1&#45;&gt;Node17 -->
<g id="edge16" class="edge"><title>Node1&#45;&gt;Node17</title>
<path fill="none" stroke="midnightblue" d="M1422.87,-83.0341C1570.84,-82.319 1948.28,-75.9315 2260,-32 2263.03,-31.5736 2266.12,-31.0792 2269.23,-30.5348"/>
<polygon fill="midnightblue" stroke="midnightblue" points="1422.61,-79.5351 1412.62,-83.0763 1422.63,-86.535 1422.61,-79.5351"/>
</g>
<!-- Node18 -->
<g id="node18" class="node"><title>Node18</title>
<g id="a_node18"><a xlink:href="client_8c.html" target="_top" xlink:title="rstm/rstm&#45;dev/stamp\l&#45;0.9.10/vacation/client.c">
<polygon fill="none" stroke="black" points="2400.5,-1 2400.5,-31 2521.5,-31 2521.5,-1 2400.5,-1"/>
<text text-anchor="start" x="2408.5" y="-19" font-family="Helvetica,sans-Serif" font-size="10.00">rstm/rstm&#45;dev/stamp</text>
<text text-anchor="middle" x="2461" y="-8" font-family="Helvetica,sans-Serif" font-size="10.00">&#45;0.9.10/vacation/client.c</text>
</a>
</g>
</g>
<!-- Node1&#45;&gt;Node18 -->
<g id="edge17" class="edge"><title>Node1&#45;&gt;Node18</title>
<path fill="none" stroke="midnightblue" d="M1423.02,-83.4221C1585.54,-83.7178 2027.03,-79.6719 2391,-32 2394.08,-31.5965 2397.23,-31.1287 2400.4,-30.6131"/>
<polygon fill="midnightblue" stroke="midnightblue" points="1422.73,-79.9214 1412.72,-83.3967 1422.71,-86.9214 1422.73,-79.9214"/>
</g>
<!-- Node19 -->
<g id="node19" class="node"><title>Node19</title>
<g id="a_node19"><a xlink:href="vacation_8c.html" target="_top" xlink:title="rstm/rstm&#45;dev/stamp\l&#45;0.9.10/vacation/vacation.c">
<polygon fill="none" stroke="black" points="2540,-1 2540,-31 2674,-31 2674,-1 2540,-1"/>
<text text-anchor="start" x="2548" y="-19" font-family="Helvetica,sans-Serif" font-size="10.00">rstm/rstm&#45;dev/stamp</text>
<text text-anchor="middle" x="2607" y="-8" font-family="Helvetica,sans-Serif" font-size="10.00">&#45;0.9.10/vacation/vacation.c</text>
</a>
</g>
</g>
<!-- Node1&#45;&gt;Node19 -->
<g id="edge18" class="edge"><title>Node1&#45;&gt;Node19</title>
<path fill="none" stroke="midnightblue" d="M1422.78,-83.5473C1599.43,-84.3472 2109.72,-81.8081 2530,-32 2533.25,-31.6153 2536.56,-31.1709 2539.9,-30.6814"/>
<polygon fill="midnightblue" stroke="midnightblue" points="1422.64,-80.0467 1412.63,-83.4959 1422.61,-87.0466 1422.64,-80.0467"/>
</g>
<!-- Node20 -->
<g id="node20" class="node"><title>Node20</title>
<g id="a_node20"><a xlink:href="yada_8c.html" target="_top" xlink:title="rstm/rstm&#45;dev/stamp\l&#45;0.9.10/yada/yada.c">
<polygon fill="none" stroke="black" points="2692.5,-1 2692.5,-31 2799.5,-31 2799.5,-1 2692.5,-1"/>
<text text-anchor="start" x="2700.5" y="-19" font-family="Helvetica,sans-Serif" font-size="10.00">rstm/rstm&#45;dev/stamp</text>
<text text-anchor="middle" x="2746" y="-8" font-family="Helvetica,sans-Serif" font-size="10.00">&#45;0.9.10/yada/yada.c</text>
</a>
</g>
</g>
<!-- Node1&#45;&gt;Node20 -->
<g id="edge19" class="edge"><title>Node1&#45;&gt;Node20</title>
<path fill="none" stroke="midnightblue" d="M1422.91,-82.1913C1652.51,-79.0281 2435.12,-65.952 2683,-32 2686.01,-31.5881 2689.08,-31.0961 2692.17,-30.5457"/>
<polygon fill="midnightblue" stroke="midnightblue" points="1422.67,-78.6941 1412.72,-82.3301 1422.77,-85.6934 1422.67,-78.6941"/>
</g>
</g>
</svg>
        <g id="navigator" transform="translate(0 0)" fill="#404254">
                <rect fill="#f2f5e9" fill-opacity="0.5" stroke="#606060" stroke-width=".5" x="0" y="0" width="60" height="60"/>
                <use id="zoomplus" xlink:href="#zoomPlus" x="17" y="9" onmousedown="handleZoom(evt,'in')"/>
                <use id="zoomminus" xlink:href="#zoomMin" x="42" y="9" onmousedown="handleZoom(evt,'out')"/>
                <use id="reset" xlink:href="#resetDef" x="30" y="36" onmousedown="handleReset()"/>
                <g id="arrowUp" xlink:href="#dirArrow" transform="translate(30 24)" onmousedown="handlePan(0,-1)">
                  <use xlink:href="#rim" fill="#404040">
                        <set attributeName="fill" to="#808080" begin="arrowUp.mouseover" end="arrowUp.mouseout"/>
                  </use>
                  <path fill="none" stroke="white" stroke-width="1.5" d="M0,-3.0v7 M-2.5,-0.5L0,-3.0L2.5,-0.5"/>
                </g>
                <g id="arrowRight" xlink:href="#dirArrow" transform="rotate(90) translate(36 -43)" onmousedown="handlePan(1,0)">
                  <use xlink:href="#rim" fill="#404040">
                        <set attributeName="fill" to="#808080" begin="arrowRight.mouseover" end="arrowRight.mouseout"/>
                  </use>
                  <path fill="none" stroke="white" stroke-width="1.5" d="M0,-3.0v7 M-2.5,-0.5L0,-3.0L2.5,-0.5"/>
                </g>
                <g id="arrowDown" xlink:href="#dirArrow" transform="rotate(180) translate(-30 -48)" onmousedown="handlePan(0,1)">
                  <use xlink:href="#rim" fill="#404040">
                        <set attributeName="fill" to="#808080" begin="arrowDown.mouseover" end="arrowDown.mouseout"/>
                  </use>
                  <path fill="none" stroke="white" stroke-width="1.5" d="M0,-3.0v7 M-2.5,-0.5L0,-3.0L2.5,-0.5"/>
                </g>
                <g id="arrowLeft" xlink:href="#dirArrow" transform="rotate(270) translate(-36 17)" onmousedown="handlePan(-1,0)">
                  <use xlink:href="#rim" fill="#404040">
                        <set attributeName="fill" to="#808080" begin="arrowLeft.mouseover" end="arrowLeft.mouseout"/>
                  </use>
                  <path fill="none" stroke="white" stroke-width="1.5" d="M0,-3.0v7 M-2.5,-0.5L0,-3.0L2.5,-0.5"/>
                </g>
        </g>
        <svg viewBox="0 0 15 15" width="100%" height="30px" preserveAspectRatio="xMaxYMin meet">
         <g id="arrow_out" transform="scale(0.3 0.3)">
          <a xlink:href="thread_8h__dep__incl_org.svg" target="_base">
           <rect id="button" ry="5" rx="5" y="6" x="6" height="38" width="38"
                fill="#f2f5e9" fill-opacity="0.5" stroke="#606060" stroke-width="1.0"/>
           <path id="arrow"
             d="M 11.500037,31.436501 C 11.940474,20.09759 22.043105,11.32322 32.158766,21.979434 L 37.068811,17.246167 C 37.068811,17.246167 37.088388,32 37.088388,32 L 22.160133,31.978069 C 22.160133,31.978069 26.997745,27.140456 26.997745,27.140456 C 18.528582,18.264221 13.291696,25.230495 11.500037,31.436501 z"
             style="fill:#404040;"/>
          </a>
         </g>
        </svg>
</svg>
