<?xml version="1.0" encoding="UTF-8" standalone="no"?>
<!DOCTYPE svg PUBLIC "-//W3C//DTD SVG 1.1//EN"
 "http://www.w3.org/Graphics/SVG/1.1/DTD/svg11.dtd">
<!-- Generated by graphviz version 2.36.0 (20140111.2315)
 -->
<!-- Title: thread_start Pages: 1 -->
<svg width="370pt" height="104pt"
 viewBox="0.00 0.00 370.00 104.00" xmlns="http://www.w3.org/2000/svg" xmlns:xlink="http://www.w3.org/1999/xlink">
<g id="graph0" class="graph" transform="scale(1 1) rotate(0) translate(4 100)">
<title>thread_start</title>
<!-- Node1 -->
<g id="node1" class="node"><title>Node1</title>
<polygon fill="#bfbfbf" stroke="black" points="0,-38.5 0,-57.5 68,-57.5 68,-38.5 0,-38.5"/>
<text text-anchor="middle" x="34" y="-45.5" font-family="Helvetica,sans-Serif" font-size="10.00">thread_start</text>
</g>
<!-- Node2 -->
<g id="node2" class="node"><title>Node2</title>
<g id="a_node2"><a xlink:href="learner_8h.html#a23d451d4d355a14fa7c9735304ba4d95" target="_top" xlink:title="learner_run">
<polygon fill="none" stroke="black" points="107.5,-76.5 107.5,-95.5 172.5,-95.5 172.5,-76.5 107.5,-76.5"/>
<text text-anchor="middle" x="140" y="-83.5" font-family="Helvetica,sans-Serif" font-size="10.00">learner_run</text>
</a>
</g>
</g>
<!-- Node1&#45;&gt;Node2 -->
<g id="edge1" class="edge"><title>Node1&#45;&gt;Node2</title>
<path fill="none" stroke="midnightblue" d="M70.9019,-61.118C84.6571,-66.1439 100.08,-71.7791 112.765,-76.4141"/>
<polygon fill="midnightblue" stroke="midnightblue" points="71.8374,-57.7336 61.2436,-57.589 69.435,-64.3084 71.8374,-57.7336"/>
</g>
<!-- Node4 -->
<g id="node4" class="node"><title>Node4</title>
<g id="a_node4"><a xlink:href="genome_8c.html#a40c5c0b0d4eb7b59a91108269f69dc89" target="_top" xlink:title="MAIN">
<polygon fill="none" stroke="black" points="119,-38.5 119,-57.5 161,-57.5 161,-38.5 119,-38.5"/>
<text text-anchor="middle" x="140" y="-45.5" font-family="Helvetica,sans-Serif" font-size="10.00">MAIN</text>
</a>
</g>
</g>
<!-- Node1&#45;&gt;Node4 -->
<g id="edge3" class="edge"><title>Node1&#45;&gt;Node4</title>
<path fill="none" stroke="midnightblue" d="M78.2238,-48C92.2991,-48 107.258,-48 118.813,-48"/>
<polygon fill="midnightblue" stroke="midnightblue" points="78.1922,-44.5001 68.1922,-48 78.1922,-51.5001 78.1922,-44.5001"/>
</g>
<!-- Node5 -->
<g id="node5" class="node"><title>Node5</title>
<g id="a_node5"><a xlink:href="normal_8h.html#ab2f390a6fe4039e040fb13eeeebdbfa9" target="_top" xlink:title="normal_exec">
<polygon fill="none" stroke="black" points="104,-0.5 104,-19.5 176,-19.5 176,-0.5 104,-0.5"/>
<text text-anchor="middle" x="140" y="-7.5" font-family="Helvetica,sans-Serif" font-size="10.00">normal_exec</text>
</a>
</g>
</g>
<!-- Node1&#45;&gt;Node5 -->
<g id="edge4" class="edge"><title>Node1&#45;&gt;Node5</title>
<path fill="none" stroke="midnightblue" d="M70.9019,-34.882C84.6571,-29.8561 100.08,-24.2209 112.765,-19.5859"/>
<polygon fill="midnightblue" stroke="midnightblue" points="69.435,-31.6916 61.2436,-38.411 71.8374,-38.2664 69.435,-31.6916"/>
</g>
<!-- Node3 -->
<g id="node3" class="node"><title>Node3</title>
<g id="a_node3"><a xlink:href="bayes_8c.html#a40c5c0b0d4eb7b59a91108269f69dc89" target="_top" xlink:title="MAIN">
<polygon fill="none" stroke="black" points="227,-76.5 227,-95.5 269,-95.5 269,-76.5 227,-76.5"/>
<text text-anchor="middle" x="248" y="-83.5" font-family="Helvetica,sans-Serif" font-size="10.00">MAIN</text>
</a>
</g>
</g>
<!-- Node2&#45;&gt;Node3 -->
<g id="edge2" class="edge"><title>Node2&#45;&gt;Node3</title>
<path fill="none" stroke="midnightblue" d="M182.738,-86C197.894,-86 214.338,-86 226.797,-86"/>
<polygon fill="midnightblue" stroke="midnightblue" points="182.517,-82.5001 172.517,-86 182.516,-89.5001 182.517,-82.5001"/>
</g>
<!-- Node6 -->
<g id="node6" class="node"><title>Node6</title>
<g id="a_node6"><a xlink:href="cluster_8h.html#aebefc2f2848c7ce2e52803168e10d804" target="_top" xlink:title="cluster_exec">
<polygon fill="none" stroke="black" points="212,-0.5 212,-19.5 284,-19.5 284,-0.5 212,-0.5"/>
<text text-anchor="middle" x="248" y="-7.5" font-family="Helvetica,sans-Serif" font-size="10.00">cluster_exec</text>
</a>
</g>
</g>
<!-- Node5&#45;&gt;Node6 -->
<g id="edge5" class="edge"><title>Node5&#45;&gt;Node6</title>
<path fill="none" stroke="midnightblue" d="M186.196,-10C194.716,-10 203.51,-10 211.672,-10"/>
<polygon fill="midnightblue" stroke="midnightblue" points="186.002,-6.5001 176.002,-10 186.002,-13.5001 186.002,-6.5001"/>
</g>
<!-- Node7 -->
<g id="node7" class="node"><title>Node7</title>
<g id="a_node7"><a xlink:href="kmeans_8c.html#a40c5c0b0d4eb7b59a91108269f69dc89" target="_top" xlink:title="MAIN">
<polygon fill="none" stroke="black" points="320,-0.5 320,-19.5 362,-19.5 362,-0.5 320,-0.5"/>
<text text-anchor="middle" x="341" y="-7.5" font-family="Helvetica,sans-Serif" font-size="10.00">MAIN</text>
</a>
</g>
</g>
<!-- Node6&#45;&gt;Node7 -->
<g id="edge6" class="edge"><title>Node6&#45;&gt;Node7</title>
<path fill="none" stroke="midnightblue" d="M294.267,-10C303.27,-10 312.285,-10 319.902,-10"/>
<polygon fill="midnightblue" stroke="midnightblue" points="294.183,-6.5001 284.183,-10 294.183,-13.5001 294.183,-6.5001"/>
</g>
</g>
</svg>
