<?xml version="1.0" encoding="UTF-8" standalone="no"?>
<!DOCTYPE svg PUBLIC "-//W3C//DTD SVG 1.1//EN"
 "http://www.w3.org/Graphics/SVG/1.1/DTD/svg11.dtd">
<!-- Generated by graphviz version 2.36.0 (20140111.2315)
 -->
<!-- Title: rstm/rstm&#45;dev/libstm/algs/ticket.cpp Pages: 1 -->
<!--zoomable 544 -->
<svg id="main" version="1.1" xmlns="http://www.w3.org/2000/svg" xmlns:xlink="http://www.w3.org/1999/xlink" xml:space="preserve" onload="init(evt)">
<style type="text/css"><![CDATA[
.edge:hover path { stroke: red; }
.edge:hover polygon { stroke: red; fill: red; }
]]></style>
<script type="text/javascript"><![CDATA[
var edges = document.getElementsByTagName('g');
if (edges && edges.length) {
  for (var i=0;i<edges.length;i++) {
    if (edges[i].id.substr(0,4)=='edge') {
      edges[i].setAttribute('class','edge');
    }
  }
}
]]></script>
        <defs>
                <circle id="rim" cx="0" cy="0" r="7"/>
                <circle id="rim2" cx="0" cy="0" r="3.5"/>
                <g id="zoomPlus">
                        <use xlink:href="#rim" fill="#404040">
                                <set attributeName="fill" to="#808080" begin="zoomplus.mouseover" end="zoomplus.mouseout"/>
                        </use>
                        <path d="M-4,0h8M0,-4v8" fill="none" stroke="white" stroke-width="1.5" pointer-events="none"/>
                </g>
                <g id="zoomMin">
                        <use xlink:href="#rim" fill="#404040">
                                <set attributeName="fill" to="#808080" begin="zoomminus.mouseover" end="zoomminus.mouseout"/>
                        </use>
                        <path d="M-4,0h8" fill="none" stroke="white" stroke-width="1.5" pointer-events="none"/>
                </g>
                <g id="dirArrow">
                        <path fill="none" stroke="white" stroke-width="1.5" d="M0,-3.0v7 M-2.5,-0.5L0,-3.0L2.5,-0.5"/>
                </g>
               <g id="resetDef">
                       <use xlink:href="#rim2" fill="#404040">
                               <set attributeName="fill" to="#808080" begin="reset.mouseover" end="reset.mouseout"/>
                       </use>
               </g>
        </defs>

<script type="text/javascript">
var viewWidth = 1045;
var viewHeight = 544;
var sectionId = 'dynsection-0';
</script>
<script xlink:href="svgpan.js"/>
<svg id="graph" class="graph">
<g id="viewport">
<title>rstm/rstm&#45;dev/libstm/algs/ticket.cpp</title>
<!-- Node1 -->
<g id="node1" class="node"><title>Node1</title>
<polygon fill="#bfbfbf" stroke="black" points="470.5,-505 470.5,-535 577.5,-535 577.5,-505 470.5,-505"/>
<text text-anchor="start" x="478.5" y="-523" font-family="Helvetica,sans-Serif" font-size="10.00">rstm/rstm&#45;dev/libstm</text>
<text text-anchor="middle" x="524" y="-512" font-family="Helvetica,sans-Serif" font-size="10.00">/algs/ticket.cpp</text>
</g>
<!-- Node2 -->
<g id="node2" class="node"><title>Node2</title>
<g id="a_node2"><a xlink:href="profiling_8hpp.html" target="_top" xlink:title="../profiling.hpp">
<polygon fill="none" stroke="black" points="540,-392.5 540,-411.5 618,-411.5 618,-392.5 540,-392.5"/>
<text text-anchor="middle" x="579" y="-399.5" font-family="Helvetica,sans-Serif" font-size="10.00">../profiling.hpp</text>
</a>
</g>
</g>
<!-- Node1&#45;&gt;Node2 -->
<g id="edge1" class="edge"><title>Node1&#45;&gt;Node2</title>
<path fill="none" stroke="midnightblue" d="M535.345,-504.988C542.887,-495.122 552.554,-481.344 559,-468 566.222,-453.049 571.544,-434.91 574.875,-421.597"/>
<polygon fill="midnightblue" stroke="midnightblue" points="578.314,-422.261 577.203,-411.725 571.501,-420.655 578.314,-422.261"/>
</g>
<!-- Node21 -->
<g id="node21" class="node"><title>Node21</title>
<g id="a_node21"><a xlink:href="UndoLog_8hpp.html" target="_top" xlink:title="stm/UndoLog.hpp">
<polygon fill="none" stroke="black" points="30,-168.5 30,-187.5 124,-187.5 124,-168.5 30,-168.5"/>
<text text-anchor="middle" x="77" y="-175.5" font-family="Helvetica,sans-Serif" font-size="10.00">stm/UndoLog.hpp</text>
</a>
</g>
</g>
<!-- Node1&#45;&gt;Node21 -->
<g id="edge60" class="edge"><title>Node1&#45;&gt;Node21</title>
<path fill="none" stroke="midnightblue" d="M470.133,-517.464C343.597,-512.397 38,-491.046 38,-403 38,-403 38,-403 38,-289 38,-254.716 55.0373,-217.698 66.5903,-196.537"/>
<polygon fill="midnightblue" stroke="midnightblue" points="69.6852,-198.175 71.5772,-187.75 63.5973,-194.72 69.6852,-198.175"/>
</g>
<!-- Node29 -->
<g id="node29" class="node"><title>Node29</title>
<g id="a_node29"><a xlink:href="algs_8hpp.html" target="_top" xlink:title="algs.hpp">
<polygon fill="none" stroke="black" points="497.5,-448.5 497.5,-467.5 550.5,-467.5 550.5,-448.5 497.5,-448.5"/>
<text text-anchor="middle" x="524" y="-455.5" font-family="Helvetica,sans-Serif" font-size="10.00">algs.hpp</text>
</a>
</g>
</g>
<!-- Node1&#45;&gt;Node29 -->
<g id="edge54" class="edge"><title>Node1&#45;&gt;Node29</title>
<path fill="none" stroke="midnightblue" d="M524,-504.781C524,-496.781 524,-486.689 524,-478.017"/>
<polygon fill="midnightblue" stroke="midnightblue" points="527.5,-477.73 524,-467.731 520.5,-477.731 527.5,-477.73"/>
</g>
<!-- Node3 -->
<g id="node3" class="node"><title>Node3</title>
<polygon fill="none" stroke="#bfbfbf" points="571.5,-56.5 571.5,-75.5 616.5,-75.5 616.5,-56.5 571.5,-56.5"/>
<text text-anchor="middle" x="594" y="-63.5" font-family="Helvetica,sans-Serif" font-size="10.00">cstdlib</text>
</g>
<!-- Node2&#45;&gt;Node3 -->
<g id="edge2" class="edge"><title>Node2&#45;&gt;Node3</title>
<path fill="none" stroke="midnightblue" d="M584.592,-392.179C603.372,-361.468 661.914,-256.295 642,-168 634.948,-136.732 617.026,-103.785 605.189,-84.3306"/>
<polygon fill="midnightblue" stroke="midnightblue" points="608.062,-82.3224 599.792,-75.6989 602.126,-86.0335 608.062,-82.3224"/>
</g>
<!-- Node4 -->
<g id="node4" class="node"><title>Node4</title>
<polygon fill="none" stroke="#bfbfbf" points="411.5,-0.5 411.5,-19.5 482.5,-19.5 482.5,-0.5 411.5,-0.5"/>
<text text-anchor="middle" x="447" y="-7.5" font-family="Helvetica,sans-Serif" font-size="10.00">stm/config.h</text>
</g>
<!-- Node2&#45;&gt;Node4 -->
<g id="edge3" class="edge"><title>Node2&#45;&gt;Node4</title>
<path fill="none" stroke="midnightblue" d="M539.712,-400.996C449.747,-398.594 229.234,-378.586 134,-244 128.866,-236.744 131.896,-232.636 134,-224 143.949,-183.152 187.398,-81.2675 221,-56 248.902,-35.0191 343.794,-21.7309 401.371,-15.3977"/>
<polygon fill="midnightblue" stroke="midnightblue" points="401.746,-18.8776 411.316,-14.3319 401,-11.9175 401.746,-18.8776"/>
</g>
<!-- Node5 -->
<g id="node5" class="node"><title>Node5</title>
<g id="a_node5"><a xlink:href="txthread_8hpp.html" target="_top" xlink:title="stm/txthread.hpp">
<polygon fill="none" stroke="black" points="467,-280.5 467,-299.5 557,-299.5 557,-280.5 467,-280.5"/>
<text text-anchor="middle" x="512" y="-287.5" font-family="Helvetica,sans-Serif" font-size="10.00">stm/txthread.hpp</text>
</a>
</g>
</g>
<!-- Node2&#45;&gt;Node5 -->
<g id="edge4" class="edge"><title>Node2&#45;&gt;Node5</title>
<path fill="none" stroke="midnightblue" d="M573.743,-392.368C562.735,-374.296 537.08,-332.176 522.542,-308.307"/>
<polygon fill="midnightblue" stroke="midnightblue" points="525.424,-306.311 517.233,-299.591 519.446,-309.953 525.424,-306.311"/>
</g>
<!-- Node25 -->
<g id="node25" class="node"><title>Node25</title>
<g id="a_node25"><a xlink:href="policies_8hpp.html" target="_top" xlink:title="./policies/policies.hpp">
<polygon fill="none" stroke="black" points="741,-336.5 741,-355.5 851,-355.5 851,-336.5 741,-336.5"/>
<text text-anchor="middle" x="796" y="-343.5" font-family="Helvetica,sans-Serif" font-size="10.00">./policies/policies.hpp</text>
</a>
</g>
</g>
<!-- Node2&#45;&gt;Node25 -->
<g id="edge44" class="edge"><title>Node2&#45;&gt;Node25</title>
<path fill="none" stroke="midnightblue" d="M613.384,-392.444C650.922,-383.102 711.131,-368.119 752.067,-357.933"/>
<polygon fill="midnightblue" stroke="midnightblue" points="752.918,-361.328 761.777,-355.516 751.227,-354.535 752.918,-361.328"/>
</g>
<!-- Node6 -->
<g id="node6" class="node"><title>Node6</title>
<g id="a_node6"><a xlink:href="rand__r__32_8h.html" target="_top" xlink:title="alt&#45;license/rand_r_32.h">
<polygon fill="none" stroke="black" points="143.5,-224.5 143.5,-243.5 258.5,-243.5 258.5,-224.5 143.5,-224.5"/>
<text text-anchor="middle" x="201" y="-231.5" font-family="Helvetica,sans-Serif" font-size="10.00">alt&#45;license/rand_r_32.h</text>
</a>
</g>
</g>
<!-- Node5&#45;&gt;Node6 -->
<g id="edge5" class="edge"><title>Node5&#45;&gt;Node6</title>
<path fill="none" stroke="midnightblue" d="M466.778,-281.148C412.233,-271.677 320.393,-255.731 260.237,-245.285"/>
<polygon fill="midnightblue" stroke="midnightblue" points="260.579,-241.793 250.128,-243.53 259.382,-248.689 260.579,-241.793"/>
</g>
<!-- Node8 -->
<g id="node8" class="node"><title>Node8</title>
<g id="a_node8"><a xlink:href="locks_8hpp.html" target="_top" xlink:title="common/locks.hpp">
<polygon fill="none" stroke="black" points="909.5,-112.5 909.5,-131.5 1008.5,-131.5 1008.5,-112.5 909.5,-112.5"/>
<text text-anchor="middle" x="959" y="-119.5" font-family="Helvetica,sans-Serif" font-size="10.00">common/locks.hpp</text>
</a>
</g>
</g>
<!-- Node5&#45;&gt;Node8 -->
<g id="edge8" class="edge"><title>Node5&#45;&gt;Node8</title>
<path fill="none" stroke="midnightblue" d="M557.094,-286.264C671.128,-279.131 962.978,-259.444 977,-244 1002.95,-215.417 982.972,-166.418 969.206,-140.408"/>
<polygon fill="midnightblue" stroke="midnightblue" points="972.259,-138.697 964.343,-131.655 966.141,-142.097 972.259,-138.697"/>
</g>
<!-- Node13 -->
<g id="node13" class="node"><title>Node13</title>
<g id="a_node13"><a xlink:href="ThreadLocal_8hpp.html" target="_top" xlink:title="common/ThreadLocal.hpp">
<polygon fill="none" stroke="black" points="315.5,-224.5 315.5,-243.5 444.5,-243.5 444.5,-224.5 315.5,-224.5"/>
<text text-anchor="middle" x="380" y="-231.5" font-family="Helvetica,sans-Serif" font-size="10.00">common/ThreadLocal.hpp</text>
</a>
</g>
</g>
<!-- Node5&#45;&gt;Node13 -->
<g id="edge14" class="edge"><title>Node5&#45;&gt;Node13</title>
<path fill="none" stroke="midnightblue" d="M491.084,-280.444C469.264,-271.517 434.85,-257.439 410.108,-247.317"/>
<polygon fill="midnightblue" stroke="midnightblue" points="411.399,-244.063 400.818,-243.516 408.748,-250.542 411.399,-244.063"/>
</g>
<!-- Node14 -->
<g id="node14" class="node"><title>Node14</title>
<g id="a_node14"><a xlink:href="metadata_8hpp.html" target="_top" xlink:title="stm/metadata.hpp">
<polygon fill="none" stroke="black" points="690.5,-168.5 690.5,-187.5 785.5,-187.5 785.5,-168.5 690.5,-168.5"/>
<text text-anchor="middle" x="738" y="-175.5" font-family="Helvetica,sans-Serif" font-size="10.00">stm/metadata.hpp</text>
</a>
</g>
</g>
<!-- Node5&#45;&gt;Node14 -->
<g id="edge16" class="edge"><title>Node5&#45;&gt;Node14</title>
<path fill="none" stroke="midnightblue" d="M529.734,-280.368C569.176,-261.171 664.361,-214.842 711.139,-192.074"/>
<polygon fill="midnightblue" stroke="midnightblue" points="712.889,-195.115 720.349,-187.591 709.825,-188.821 712.889,-195.115"/>
</g>
<!-- Node19 -->
<g id="node19" class="node"><title>Node19</title>
<g id="a_node19"><a xlink:href="WriteSet_8hpp.html" target="_top" xlink:title="stm/WriteSet.hpp">
<polygon fill="none" stroke="black" points="275.5,-112.5 275.5,-131.5 368.5,-131.5 368.5,-112.5 275.5,-112.5"/>
<text text-anchor="middle" x="322" y="-119.5" font-family="Helvetica,sans-Serif" font-size="10.00">stm/WriteSet.hpp</text>
</a>
</g>
</g>
<!-- Node5&#45;&gt;Node19 -->
<g id="edge26" class="edge"><title>Node5&#45;&gt;Node19</title>
<path fill="none" stroke="midnightblue" d="M466.869,-285.61C412.45,-280.475 325.801,-268.593 306,-244 282.068,-214.275 299.726,-166.49 312.302,-140.766"/>
<polygon fill="midnightblue" stroke="midnightblue" points="315.462,-142.274 316.932,-131.781 309.24,-139.067 315.462,-142.274"/>
</g>
<!-- Node5&#45;&gt;Node21 -->
<g id="edge31" class="edge"><title>Node5&#45;&gt;Node21</title>
<path fill="none" stroke="midnightblue" d="M466.882,-287.641C379.522,-284.364 190.868,-273.946 134,-244 113.324,-233.113 96.715,-211.427 86.8731,-196.104"/>
<polygon fill="midnightblue" stroke="midnightblue" points="89.8421,-194.25 81.6439,-187.539 83.8676,-197.898 89.8421,-194.25"/>
</g>
<!-- Node23 -->
<g id="node23" class="node"><title>Node23</title>
<g id="a_node23"><a xlink:href="ValueList_8hpp.html" target="_top" xlink:title="stm/ValueList.hpp">
<polygon fill="none" stroke="black" points="538.5,-168.5 538.5,-187.5 633.5,-187.5 633.5,-168.5 538.5,-168.5"/>
<text text-anchor="middle" x="586" y="-175.5" font-family="Helvetica,sans-Serif" font-size="10.00">stm/ValueList.hpp</text>
</a>
</g>
</g>
<!-- Node5&#45;&gt;Node23 -->
<g id="edge36" class="edge"><title>Node5&#45;&gt;Node23</title>
<path fill="none" stroke="midnightblue" d="M526.406,-280.399C538.612,-272.41 555.722,-259.441 566,-244 575.302,-230.025 580.441,-211.522 583.172,-197.832"/>
<polygon fill="midnightblue" stroke="midnightblue" points="586.674,-198.121 584.937,-187.67 579.777,-196.923 586.674,-198.121"/>
</g>
<!-- Node24 -->
<g id="node24" class="node"><title>Node24</title>
<g id="a_node24"><a xlink:href="WBMMPolicy_8hpp.html" target="_top" xlink:title="WBMMPolicy.hpp">
<polygon fill="none" stroke="black" points="462.5,-224.5 462.5,-243.5 557.5,-243.5 557.5,-224.5 462.5,-224.5"/>
<text text-anchor="middle" x="510" y="-231.5" font-family="Helvetica,sans-Serif" font-size="10.00">WBMMPolicy.hpp</text>
</a>
</g>
</g>
<!-- Node5&#45;&gt;Node24 -->
<g id="edge39" class="edge"><title>Node5&#45;&gt;Node24</title>
<path fill="none" stroke="midnightblue" d="M511.67,-280.083C511.408,-273.006 511.032,-262.861 510.703,-253.986"/>
<polygon fill="midnightblue" stroke="midnightblue" points="514.192,-253.615 510.324,-243.751 507.197,-253.874 514.192,-253.615"/>
</g>
<!-- Node6&#45;&gt;Node4 -->
<g id="edge7" class="edge"><title>Node6&#45;&gt;Node4</title>
<path fill="none" stroke="midnightblue" d="M199.896,-224.114C196.853,-195.304 191.478,-103.597 239,-56 261.378,-33.5865 347.077,-21.0108 401.244,-15.1488"/>
<polygon fill="midnightblue" stroke="midnightblue" points="401.717,-18.6186 411.299,-14.0983 400.989,-11.6565 401.717,-18.6186"/>
</g>
<!-- Node7 -->
<g id="node7" class="node"><title>Node7</title>
<polygon fill="none" stroke="#bfbfbf" points="396,-168.5 396,-187.5 444,-187.5 444,-168.5 396,-168.5"/>
<text text-anchor="middle" x="420" y="-175.5" font-family="Helvetica,sans-Serif" font-size="10.00">stdlib.h</text>
</g>
<!-- Node6&#45;&gt;Node7 -->
<g id="edge6" class="edge"><title>Node6&#45;&gt;Node7</title>
<path fill="none" stroke="midnightblue" d="M235.701,-224.444C276.952,-214.272 345.33,-197.412 386.186,-187.338"/>
<polygon fill="midnightblue" stroke="midnightblue" points="387.076,-190.723 395.947,-184.931 385.4,-183.927 387.076,-190.723"/>
</g>
<!-- Node9 -->
<g id="node9" class="node"><title>Node9</title>
<g id="a_node9"><a xlink:href="platform_8hpp.html" target="_top" xlink:title="common/platform.hpp">
<polygon fill="none" stroke="black" points="905.5,-56.5 905.5,-75.5 1016.5,-75.5 1016.5,-56.5 905.5,-56.5"/>
<text text-anchor="middle" x="961" y="-63.5" font-family="Helvetica,sans-Serif" font-size="10.00">common/platform.hpp</text>
</a>
</g>
</g>
<!-- Node8&#45;&gt;Node9 -->
<g id="edge9" class="edge"><title>Node8&#45;&gt;Node9</title>
<path fill="none" stroke="midnightblue" d="M959.33,-112.083C959.592,-105.006 959.968,-94.8611 960.297,-85.9865"/>
<polygon fill="midnightblue" stroke="midnightblue" points="963.803,-85.8738 960.676,-75.7511 956.808,-85.6147 963.803,-85.8738"/>
</g>
<!-- Node9&#45;&gt;Node4 -->
<g id="edge10" class="edge"><title>Node9&#45;&gt;Node4</title>
<path fill="none" stroke="midnightblue" d="M905.232,-57.6927C900.42,-57.1038 895.626,-56.5317 891,-56 745.882,-39.3201 573.695,-22.8014 493.02,-15.2533"/>
<polygon fill="midnightblue" stroke="midnightblue" points="492.999,-11.7363 482.717,-14.2917 492.349,-18.706 492.999,-11.7363"/>
</g>
<!-- Node10 -->
<g id="node10" class="node"><title>Node10</title>
<polygon fill="none" stroke="#bfbfbf" points="788.5,-0.5 788.5,-19.5 837.5,-19.5 837.5,-0.5 788.5,-0.5"/>
<text text-anchor="middle" x="813" y="-7.5" font-family="Helvetica,sans-Serif" font-size="10.00">stdint.h</text>
</g>
<!-- Node9&#45;&gt;Node10 -->
<g id="edge11" class="edge"><title>Node9&#45;&gt;Node10</title>
<path fill="none" stroke="midnightblue" d="M937.549,-56.4435C912.867,-47.4381 873.815,-33.1891 846.023,-23.049"/>
<polygon fill="midnightblue" stroke="midnightblue" points="846.935,-19.6561 836.341,-19.5164 844.536,-26.2321 846.935,-19.6561"/>
</g>
<!-- Node11 -->
<g id="node11" class="node"><title>Node11</title>
<polygon fill="none" stroke="#bfbfbf" points="903,-0.5 903,-19.5 951,-19.5 951,-0.5 903,-0.5"/>
<text text-anchor="middle" x="927" y="-7.5" font-family="Helvetica,sans-Serif" font-size="10.00">limits.h</text>
</g>
<!-- Node9&#45;&gt;Node11 -->
<g id="edge12" class="edge"><title>Node9&#45;&gt;Node11</title>
<path fill="none" stroke="midnightblue" d="M955.386,-56.083C950.633,-48.5341 943.682,-37.4948 937.848,-28.2298"/>
<polygon fill="midnightblue" stroke="midnightblue" points="940.8,-26.3486 932.51,-19.7511 934.876,-30.0783 940.8,-26.3486"/>
</g>
<!-- Node12 -->
<g id="node12" class="node"><title>Node12</title>
<polygon fill="none" stroke="#bfbfbf" points="969.5,-0.5 969.5,-19.5 1020.5,-19.5 1020.5,-0.5 969.5,-0.5"/>
<text text-anchor="middle" x="995" y="-7.5" font-family="Helvetica,sans-Serif" font-size="10.00">unistd.h</text>
</g>
<!-- Node9&#45;&gt;Node12 -->
<g id="edge13" class="edge"><title>Node9&#45;&gt;Node12</title>
<path fill="none" stroke="midnightblue" d="M966.614,-56.083C971.367,-48.5341 978.318,-37.4948 984.152,-28.2298"/>
<polygon fill="midnightblue" stroke="midnightblue" points="987.124,-30.0783 989.49,-19.7511 981.2,-26.3486 987.124,-30.0783"/>
</g>
<!-- Node13&#45;&gt;Node4 -->
<g id="edge15" class="edge"><title>Node13&#45;&gt;Node4</title>
<path fill="none" stroke="midnightblue" d="M380.221,-224.467C380.701,-211.929 382.22,-187.863 387,-168 399.586,-115.698 425.162,-57.3033 438.49,-28.7163"/>
<polygon fill="midnightblue" stroke="midnightblue" points="441.691,-30.136 442.8,-19.5994 435.362,-27.1443 441.691,-30.136"/>
</g>
<!-- Node14&#45;&gt;Node4 -->
<g id="edge17" class="edge"><title>Node14&#45;&gt;Node4</title>
<path fill="none" stroke="midnightblue" d="M733.932,-168.326C722.918,-145.855 690.21,-85.4531 644,-56 597.948,-26.6476 535.062,-16.3531 492.841,-12.7924"/>
<polygon fill="midnightblue" stroke="midnightblue" points="493.074,-9.30016 482.84,-12.0421 492.55,-16.2805 493.074,-9.30016"/>
</g>
<!-- Node15 -->
<g id="node15" class="node"><title>Node15</title>
<g id="a_node15"><a xlink:href="MiniVector_8hpp.html" target="_top" xlink:title="stm/MiniVector.hpp">
<polygon fill="none" stroke="black" points="494.5,-112.5 494.5,-131.5 595.5,-131.5 595.5,-112.5 494.5,-112.5"/>
<text text-anchor="middle" x="545" y="-119.5" font-family="Helvetica,sans-Serif" font-size="10.00">stm/MiniVector.hpp</text>
</a>
</g>
</g>
<!-- Node14&#45;&gt;Node15 -->
<g id="edge18" class="edge"><title>Node14&#45;&gt;Node15</title>
<path fill="none" stroke="midnightblue" d="M707.419,-168.444C674.385,-159.201 621.612,-144.436 585.234,-134.257"/>
<polygon fill="midnightblue" stroke="midnightblue" points="586.012,-130.84 575.438,-131.516 584.125,-137.582 586.012,-130.84"/>
</g>
<!-- Node18 -->
<g id="node18" class="node"><title>Node18</title>
<g id="a_node18"><a xlink:href="BitFilter_8hpp.html" target="_top" xlink:title="stm/BitFilter.hpp">
<polygon fill="none" stroke="black" points="721.5,-56.5 721.5,-75.5 810.5,-75.5 810.5,-56.5 721.5,-56.5"/>
<text text-anchor="middle" x="766" y="-63.5" font-family="Helvetica,sans-Serif" font-size="10.00">stm/BitFilter.hpp</text>
</a>
</g>
</g>
<!-- Node14&#45;&gt;Node18 -->
<g id="edge23" class="edge"><title>Node14&#45;&gt;Node18</title>
<path fill="none" stroke="midnightblue" d="M740.197,-168.368C744.716,-150.617 755.139,-109.666 761.266,-85.5974"/>
<polygon fill="midnightblue" stroke="midnightblue" points="764.738,-86.1458 763.813,-75.5914 757.954,-84.419 764.738,-86.1458"/>
</g>
<!-- Node15&#45;&gt;Node3 -->
<g id="edge20" class="edge"><title>Node15&#45;&gt;Node3</title>
<path fill="none" stroke="midnightblue" d="M553.091,-112.083C560.155,-104.298 570.588,-92.8015 579.149,-83.3665"/>
<polygon fill="midnightblue" stroke="midnightblue" points="581.931,-85.5087 586.059,-75.7511 576.747,-80.8047 581.931,-85.5087"/>
</g>
<!-- Node15&#45;&gt;Node9 -->
<g id="edge22" class="edge"><title>Node15&#45;&gt;Node9</title>
<path fill="none" stroke="midnightblue" d="M595.594,-114.433C670.84,-104.665 812.273,-86.3059 895.385,-75.5173"/>
<polygon fill="midnightblue" stroke="midnightblue" points="896.005,-78.9663 905.471,-74.2081 895.104,-72.0246 896.005,-78.9663"/>
</g>
<!-- Node16 -->
<g id="node16" class="node"><title>Node16</title>
<polygon fill="none" stroke="#bfbfbf" points="350.5,-56.5 350.5,-75.5 399.5,-75.5 399.5,-56.5 350.5,-56.5"/>
<text text-anchor="middle" x="375" y="-63.5" font-family="Helvetica,sans-Serif" font-size="10.00">cassert</text>
</g>
<!-- Node15&#45;&gt;Node16 -->
<g id="edge19" class="edge"><title>Node15&#45;&gt;Node16</title>
<path fill="none" stroke="midnightblue" d="M518.063,-112.444C488.664,-103.105 441.513,-88.1276 409.444,-77.9409"/>
<polygon fill="midnightblue" stroke="midnightblue" points="410.193,-74.5068 399.603,-74.8151 408.074,-81.1783 410.193,-74.5068"/>
</g>
<!-- Node17 -->
<g id="node17" class="node"><title>Node17</title>
<polygon fill="none" stroke="#bfbfbf" points="504.5,-56.5 504.5,-75.5 553.5,-75.5 553.5,-56.5 504.5,-56.5"/>
<text text-anchor="middle" x="529" y="-63.5" font-family="Helvetica,sans-Serif" font-size="10.00">string.h</text>
</g>
<!-- Node15&#45;&gt;Node17 -->
<g id="edge21" class="edge"><title>Node15&#45;&gt;Node17</title>
<path fill="none" stroke="midnightblue" d="M542.358,-112.083C540.214,-104.849 537.121,-94.4087 534.451,-85.3968"/>
<polygon fill="midnightblue" stroke="midnightblue" points="537.79,-84.3447 531.593,-75.7511 531.078,-86.3334 537.79,-84.3447"/>
</g>
<!-- Node18&#45;&gt;Node4 -->
<g id="edge24" class="edge"><title>Node18&#45;&gt;Node4</title>
<path fill="none" stroke="midnightblue" d="M721.309,-57.4347C660.847,-47.1999 553.565,-29.0393 492.626,-18.7235"/>
<polygon fill="midnightblue" stroke="midnightblue" points="492.977,-15.2332 482.533,-17.015 491.809,-22.1351 492.977,-15.2332"/>
</g>
<!-- Node18&#45;&gt;Node10 -->
<g id="edge25" class="edge"><title>Node18&#45;&gt;Node10</title>
<path fill="none" stroke="midnightblue" d="M773.761,-56.083C780.537,-48.2982 790.543,-36.8015 798.755,-27.3665"/>
<polygon fill="midnightblue" stroke="midnightblue" points="801.458,-29.592 805.383,-19.7511 796.178,-24.9963 801.458,-29.592"/>
</g>
<!-- Node19&#45;&gt;Node3 -->
<g id="edge28" class="edge"><title>Node19&#45;&gt;Node3</title>
<path fill="none" stroke="midnightblue" d="M368.714,-113.505C415.18,-105.768 488.68,-92.77 561.533,-75.9328"/>
<polygon fill="midnightblue" stroke="midnightblue" points="562.397,-79.3251 571.339,-73.6419 560.805,-72.5087 562.397,-79.3251"/>
</g>
<!-- Node19&#45;&gt;Node4 -->
<g id="edge27" class="edge"><title>Node19&#45;&gt;Node4</title>
<path fill="none" stroke="midnightblue" d="M322.252,-112.303C323.098,-98.6722 326.625,-72.1655 341,-56 356.713,-38.3309 380.531,-27.3831 401.612,-20.7175"/>
<polygon fill="midnightblue" stroke="midnightblue" points="402.763,-24.0278 411.379,-17.8631 400.799,-17.3089 402.763,-24.0278"/>
</g>
<!-- Node19&#45;&gt;Node16 -->
<g id="edge30" class="edge"><title>Node19&#45;&gt;Node16</title>
<path fill="none" stroke="midnightblue" d="M330.752,-112.083C338.47,-104.22 349.905,-92.5688 359.217,-83.0813"/>
<polygon fill="midnightblue" stroke="midnightblue" points="361.904,-85.3396 366.411,-75.7511 356.908,-80.4363 361.904,-85.3396"/>
</g>
<!-- Node20 -->
<g id="node20" class="node"><title>Node20</title>
<polygon fill="none" stroke="#bfbfbf" points="248,-56.5 248,-75.5 294,-75.5 294,-56.5 248,-56.5"/>
<text text-anchor="middle" x="271" y="-63.5" font-family="Helvetica,sans-Serif" font-size="10.00">cstring</text>
</g>
<!-- Node19&#45;&gt;Node20 -->
<g id="edge29" class="edge"><title>Node19&#45;&gt;Node20</title>
<path fill="none" stroke="midnightblue" d="M313.578,-112.083C306.152,-104.22 295.148,-92.5688 286.188,-83.0813"/>
<polygon fill="midnightblue" stroke="midnightblue" points="288.676,-80.618 279.265,-75.7511 283.587,-85.4244 288.676,-80.618"/>
</g>
<!-- Node21&#45;&gt;Node4 -->
<g id="edge32" class="edge"><title>Node21&#45;&gt;Node4</title>
<path fill="none" stroke="midnightblue" d="M70.1208,-168.177C60.9644,-155.277 47.0239,-130.765 57,-112 77.8889,-72.7075 98.5041,-72.0729 140,-56 228.084,-21.8818 339.541,-13.3903 401.021,-11.4261"/>
<polygon fill="midnightblue" stroke="midnightblue" points="401.275,-14.9205 411.175,-11.147 401.083,-7.92317 401.275,-14.9205"/>
</g>
<!-- Node21&#45;&gt;Node15 -->
<g id="edge33" class="edge"><title>Node21&#45;&gt;Node15</title>
<path fill="none" stroke="midnightblue" d="M124.016,-171.575C209.449,-161.717 390.037,-140.88 484.511,-129.979"/>
<polygon fill="midnightblue" stroke="midnightblue" points="484.954,-133.452 494.487,-128.828 484.151,-126.498 484.954,-133.452"/>
</g>
<!-- Node22 -->
<g id="node22" class="node"><title>Node22</title>
<g id="a_node22"><a xlink:href="include_2stm_2macros_8hpp.html" target="_top" xlink:title="stm/macros.hpp">
<polygon fill="none" stroke="black" points="66.5,-112.5 66.5,-131.5 153.5,-131.5 153.5,-112.5 66.5,-112.5"/>
<text text-anchor="middle" x="110" y="-119.5" font-family="Helvetica,sans-Serif" font-size="10.00">stm/macros.hpp</text>
</a>
</g>
</g>
<!-- Node21&#45;&gt;Node22 -->
<g id="edge34" class="edge"><title>Node21&#45;&gt;Node22</title>
<path fill="none" stroke="midnightblue" d="M82.4493,-168.083C87.0145,-160.613 93.6684,-149.724 99.2934,-140.52"/>
<polygon fill="midnightblue" stroke="midnightblue" points="102.424,-142.109 104.652,-131.751 96.4511,-138.459 102.424,-142.109"/>
</g>
<!-- Node22&#45;&gt;Node4 -->
<g id="edge35" class="edge"><title>Node22&#45;&gt;Node4</title>
<path fill="none" stroke="midnightblue" d="M115.104,-112.109C123.889,-97.7031 143.327,-69.5133 168,-56 207.345,-34.4507 332.837,-20.7265 401.33,-14.6435"/>
<polygon fill="midnightblue" stroke="midnightblue" points="401.749,-18.1204 411.408,-13.7671 401.142,-11.1467 401.749,-18.1204"/>
</g>
<!-- Node23&#45;&gt;Node4 -->
<g id="edge37" class="edge"><title>Node23&#45;&gt;Node4</title>
<path fill="none" stroke="midnightblue" d="M593.598,-168.448C611.472,-147.268 652.662,-91.5256 625,-56 608.899,-35.3224 540.043,-22.6421 492.847,-16.2166"/>
<polygon fill="midnightblue" stroke="midnightblue" points="493.207,-12.734 482.837,-14.9025 492.296,-19.6745 493.207,-12.734"/>
</g>
<!-- Node23&#45;&gt;Node15 -->
<g id="edge38" class="edge"><title>Node23&#45;&gt;Node15</title>
<path fill="none" stroke="midnightblue" d="M579.23,-168.083C573.438,-160.455 564.942,-149.264 557.862,-139.941"/>
<polygon fill="midnightblue" stroke="midnightblue" points="560.479,-137.599 551.644,-131.751 554.904,-141.832 560.479,-137.599"/>
</g>
<!-- Node24&#45;&gt;Node4 -->
<g id="edge41" class="edge"><title>Node24&#45;&gt;Node4</title>
<path fill="none" stroke="midnightblue" d="M507.53,-224.297C498.241,-191.563 465.269,-75.3752 452.297,-29.6664"/>
<polygon fill="midnightblue" stroke="midnightblue" points="455.618,-28.5483 449.521,-19.8837 448.884,-30.4594 455.618,-28.5483"/>
</g>
<!-- Node24&#45;&gt;Node7 -->
<g id="edge40" class="edge"><title>Node24&#45;&gt;Node7</title>
<path fill="none" stroke="midnightblue" d="M495.54,-224.324C481.5,-215.9 459.952,-202.971 443.457,-193.074"/>
<polygon fill="midnightblue" stroke="midnightblue" points="444.8,-189.798 434.424,-187.655 441.198,-195.801 444.8,-189.798"/>
</g>
<!-- Node24&#45;&gt;Node14 -->
<g id="edge43" class="edge"><title>Node24&#45;&gt;Node14</title>
<path fill="none" stroke="midnightblue" d="M546.127,-224.444C585.651,-215.083 649.097,-200.056 692.113,-189.868"/>
<polygon fill="midnightblue" stroke="midnightblue" points="693.118,-193.227 702.042,-187.516 691.504,-186.415 693.118,-193.227"/>
</g>
<!-- Node24&#45;&gt;Node15 -->
<g id="edge42" class="edge"><title>Node24&#45;&gt;Node15</title>
<path fill="none" stroke="midnightblue" d="M512.422,-224.12C515.888,-211.558 522.556,-187.911 529,-168 531.876,-159.114 535.319,-149.336 538.273,-141.171"/>
<polygon fill="midnightblue" stroke="midnightblue" points="541.634,-142.171 541.785,-131.577 535.06,-139.764 541.634,-142.171"/>
</g>
<!-- Node25&#45;&gt;Node4 -->
<g id="edge45" class="edge"><title>Node25&#45;&gt;Node4</title>
<path fill="none" stroke="midnightblue" d="M811.734,-336.236C823.889,-328.481 839.812,-315.929 847,-300 850.656,-291.898 847.351,-288.882 847,-280 845.221,-235.006 839,-224.029 839,-179 839,-179 839,-179 839,-121 839,-90.7745 842.189,-75.3871 819,-56 770.501,-15.4522 581.238,-10.5346 492.893,-10.5176"/>
<polygon fill="midnightblue" stroke="midnightblue" points="492.629,-7.01805 482.636,-10.5378 492.643,-14.018 492.629,-7.01805"/>
</g>
<!-- Node25&#45;&gt;Node5 -->
<g id="edge50" class="edge"><title>Node25&#45;&gt;Node5</title>
<path fill="none" stroke="midnightblue" d="M750.999,-336.444C701.041,-326.944 620.399,-311.611 566.801,-301.42"/>
<polygon fill="midnightblue" stroke="midnightblue" points="567.268,-297.946 556.79,-299.516 565.96,-304.823 567.268,-297.946"/>
</g>
<!-- Node25&#45;&gt;Node9 -->
<g id="edge48" class="edge"><title>Node25&#45;&gt;Node9</title>
<path fill="none" stroke="midnightblue" d="M851.29,-343.25C922.442,-337.706 1037,-316.177 1037,-235 1037,-235 1037,-235 1037,-177 1037,-146.775 1033.97,-137.011 1017,-112 1008.66,-99.7032 995.948,-89.105 984.746,-81.288"/>
<polygon fill="midnightblue" stroke="midnightblue" points="986.469,-78.2315 976.197,-75.6358 982.609,-84.0706 986.469,-78.2315"/>
</g>
<!-- Node25&#45;&gt;Node14 -->
<g id="edge49" class="edge"><title>Node25&#45;&gt;Node14</title>
<path fill="none" stroke="midnightblue" d="M790.096,-336.392C784.285,-327.587 775.505,-313.346 770,-300 755.622,-265.145 746.034,-221.949 741.347,-197.733"/>
<polygon fill="midnightblue" stroke="midnightblue" points="744.763,-196.954 739.49,-187.765 737.881,-198.236 744.763,-196.954"/>
</g>
<!-- Node26 -->
<g id="node26" class="node"><title>Node26</title>
<polygon fill="none" stroke="#bfbfbf" points="679.5,-280.5 679.5,-299.5 722.5,-299.5 722.5,-280.5 679.5,-280.5"/>
<text text-anchor="middle" x="701" y="-287.5" font-family="Helvetica,sans-Serif" font-size="10.00">cstdio</text>
</g>
<!-- Node25&#45;&gt;Node26 -->
<g id="edge46" class="edge"><title>Node25&#45;&gt;Node26</title>
<path fill="none" stroke="midnightblue" d="M780.737,-336.324C765.779,-327.822 742.745,-314.729 725.273,-304.797"/>
<polygon fill="midnightblue" stroke="midnightblue" points="726.649,-301.553 716.226,-299.655 723.19,-307.639 726.649,-301.553"/>
</g>
<!-- Node27 -->
<g id="node27" class="node"><title>Node27</title>
<polygon fill="none" stroke="#bfbfbf" points="779.5,-280.5 779.5,-299.5 838.5,-299.5 838.5,-280.5 779.5,-280.5"/>
<text text-anchor="middle" x="809" y="-287.5" font-family="Helvetica,sans-Serif" font-size="10.00">inttypes.h</text>
</g>
<!-- Node25&#45;&gt;Node27 -->
<g id="edge47" class="edge"><title>Node25&#45;&gt;Node27</title>
<path fill="none" stroke="midnightblue" d="M798.147,-336.083C799.869,-328.927 802.347,-318.635 804.5,-309.691"/>
<polygon fill="midnightblue" stroke="midnightblue" points="807.955,-310.293 806.893,-299.751 801.15,-308.654 807.955,-310.293"/>
</g>
<!-- Node28 -->
<g id="node28" class="node"><title>Node28</title>
<g id="a_node28"><a xlink:href="lib__globals_8hpp.html" target="_top" xlink:title="stm/lib_globals.hpp">
<polygon fill="none" stroke="black" points="867.5,-224.5 867.5,-243.5 968.5,-243.5 968.5,-224.5 867.5,-224.5"/>
<text text-anchor="middle" x="918" y="-231.5" font-family="Helvetica,sans-Serif" font-size="10.00">stm/lib_globals.hpp</text>
</a>
</g>
</g>
<!-- Node25&#45;&gt;Node28 -->
<g id="edge51" class="edge"><title>Node25&#45;&gt;Node28</title>
<path fill="none" stroke="midnightblue" d="M820.281,-336.463C838.659,-329.054 863.62,-316.856 881,-300 894.667,-286.745 904.816,-267.35 910.994,-253.198"/>
<polygon fill="midnightblue" stroke="midnightblue" points="914.38,-254.166 914.936,-243.585 907.903,-251.509 914.38,-254.166"/>
</g>
<!-- Node28&#45;&gt;Node4 -->
<g id="edge52" class="edge"><title>Node28&#45;&gt;Node4</title>
<path fill="none" stroke="midnightblue" d="M916.087,-224.362C908.725,-191.924 881.216,-78.1081 853,-56 797.983,-12.8926 586.993,-9.48949 492.834,-10.2049"/>
<polygon fill="midnightblue" stroke="midnightblue" points="492.718,-6.70576 482.752,-10.3009 492.785,-13.7054 492.718,-6.70576"/>
</g>
<!-- Node28&#45;&gt;Node14 -->
<g id="edge53" class="edge"><title>Node28&#45;&gt;Node14</title>
<path fill="none" stroke="midnightblue" d="M889.478,-224.444C858.934,-215.28 810.292,-200.688 776.397,-190.519"/>
<polygon fill="midnightblue" stroke="midnightblue" points="776.972,-187.038 766.388,-187.516 774.961,-193.742 776.972,-187.038"/>
</g>
<!-- Node29&#45;&gt;Node2 -->
<g id="edge59" class="edge"><title>Node29&#45;&gt;Node2</title>
<path fill="none" stroke="midnightblue" d="M533.082,-448.083C541.171,-440.141 553.195,-428.335 562.91,-418.797"/>
<polygon fill="midnightblue" stroke="midnightblue" points="565.403,-421.254 570.087,-411.751 560.499,-416.26 565.403,-421.254"/>
</g>
<!-- Node29&#45;&gt;Node4 -->
<g id="edge55" class="edge"><title>Node29&#45;&gt;Node4</title>
<path fill="none" stroke="midnightblue" d="M497.294,-455.594C390.513,-448.413 0,-406.591 0,-179 0,-179 0,-179 0,-121 0,-39.0438 286.911,-17.8033 401.009,-12.5968"/>
<polygon fill="midnightblue" stroke="midnightblue" points="401.337,-16.0859 411.176,-12.1547 401.033,-9.09251 401.337,-16.0859"/>
</g>
<!-- Node29&#45;&gt;Node5 -->
<g id="edge58" class="edge"><title>Node29&#45;&gt;Node5</title>
<path fill="none" stroke="midnightblue" d="M523.355,-448.075C521.466,-421.945 515.919,-345.211 513.343,-309.577"/>
<polygon fill="midnightblue" stroke="midnightblue" points="516.831,-309.29 512.619,-299.568 509.85,-309.794 516.831,-309.29"/>
</g>
<!-- Node29&#45;&gt;Node14 -->
<g id="edge57" class="edge"><title>Node29&#45;&gt;Node14</title>
<path fill="none" stroke="midnightblue" d="M550.86,-451.746C574.064,-445.866 606.936,-434.11 627,-412 668.463,-366.307 642.955,-335.458 670,-280 685.438,-248.344 709.584,-215.112 724.565,-195.764"/>
<polygon fill="midnightblue" stroke="midnightblue" points="727.493,-197.702 730.921,-187.677 721.99,-193.376 727.493,-197.702"/>
</g>
<!-- Node29&#45;&gt;Node26 -->
<g id="edge56" class="edge"><title>Node29&#45;&gt;Node26</title>
<path fill="none" stroke="midnightblue" d="M550.692,-455.737C582.275,-452.801 634.418,-443.192 665,-412 692.4,-384.053 699.091,-336.219 700.632,-309.84"/>
<polygon fill="midnightblue" stroke="midnightblue" points="704.136,-309.802 701.028,-299.674 697.141,-309.53 704.136,-309.802"/>
</g>
</g>
</svg>
        <g id="navigator" transform="translate(0 0)" fill="#404254">
                <rect fill="#f2f5e9" fill-opacity="0.5" stroke="#606060" stroke-width=".5" x="0" y="0" width="60" height="60"/>
                <use id="zoomplus" xlink:href="#zoomPlus" x="17" y="9" onmousedown="handleZoom(evt,'in')"/>
                <use id="zoomminus" xlink:href="#zoomMin" x="42" y="9" onmousedown="handleZoom(evt,'out')"/>
                <use id="reset" xlink:href="#resetDef" x="30" y="36" onmousedown="handleReset()"/>
                <g id="arrowUp" xlink:href="#dirArrow" transform="translate(30 24)" onmousedown="handlePan(0,-1)">
                  <use xlink:href="#rim" fill="#404040">
                        <set attributeName="fill" to="#808080" begin="arrowUp.mouseover" end="arrowUp.mouseout"/>
                  </use>
                  <path fill="none" stroke="white" stroke-width="1.5" d="M0,-3.0v7 M-2.5,-0.5L0,-3.0L2.5,-0.5"/>
                </g>
                <g id="arrowRight" xlink:href="#dirArrow" transform="rotate(90) translate(36 -43)" onmousedown="handlePan(1,0)">
                  <use xlink:href="#rim" fill="#404040">
                        <set attributeName="fill" to="#808080" begin="arrowRight.mouseover" end="arrowRight.mouseout"/>
                  </use>
                  <path fill="none" stroke="white" stroke-width="1.5" d="M0,-3.0v7 M-2.5,-0.5L0,-3.0L2.5,-0.5"/>
                </g>
                <g id="arrowDown" xlink:href="#dirArrow" transform="rotate(180) translate(-30 -48)" onmousedown="handlePan(0,1)">
                  <use xlink:href="#rim" fill="#404040">
                        <set attributeName="fill" to="#808080" begin="arrowDown.mouseover" end="arrowDown.mouseout"/>
                  </use>
                  <path fill="none" stroke="white" stroke-width="1.5" d="M0,-3.0v7 M-2.5,-0.5L0,-3.0L2.5,-0.5"/>
                </g>
                <g id="arrowLeft" xlink:href="#dirArrow" transform="rotate(270) translate(-36 17)" onmousedown="handlePan(-1,0)">
                  <use xlink:href="#rim" fill="#404040">
                        <set attributeName="fill" to="#808080" begin="arrowLeft.mouseover" end="arrowLeft.mouseout"/>
                  </use>
                  <path fill="none" stroke="white" stroke-width="1.5" d="M0,-3.0v7 M-2.5,-0.5L0,-3.0L2.5,-0.5"/>
                </g>
        </g>
        <svg viewBox="0 0 15 15" width="100%" height="30px" preserveAspectRatio="xMaxYMin meet">
         <g id="arrow_out" transform="scale(0.3 0.3)">
          <a xlink:href="ticket_8cpp__incl_org.svg" target="_base">
           <rect id="button" ry="5" rx="5" y="6" x="6" height="38" width="38"
                fill="#f2f5e9" fill-opacity="0.5" stroke="#606060" stroke-width="1.0"/>
           <path id="arrow"
             d="M 11.500037,31.436501 C 11.940474,20.09759 22.043105,11.32322 32.158766,21.979434 L 37.068811,17.246167 C 37.068811,17.246167 37.088388,32 37.088388,32 L 22.160133,31.978069 C 22.160133,31.978069 26.997745,27.140456 26.997745,27.140456 C 18.528582,18.264221 13.291696,25.230495 11.500037,31.436501 z"
             style="fill:#404040;"/>
          </a>
         </g>
        </svg>
</svg>
