<?xml version="1.0" encoding="UTF-8" standalone="no"?>
<!DOCTYPE svg PUBLIC "-//W3C//DTD SVG 1.1//EN"
 "http://www.w3.org/Graphics/SVG/1.1/DTD/svg11.dtd">
<!-- Generated by graphviz version 2.36.0 (20140111.2315)
 -->
<!-- Title: rstm/rstm&#45;dev/mesh/tm_list_set.hpp Pages: 1 -->
<!--zoomable 264 -->
<svg id="main" version="1.1" xmlns="http://www.w3.org/2000/svg" xmlns:xlink="http://www.w3.org/1999/xlink" xml:space="preserve" onload="init(evt)">
<style type="text/css"><![CDATA[
.edge:hover path { stroke: red; }
.edge:hover polygon { stroke: red; fill: red; }
]]></style>
<script type="text/javascript"><![CDATA[
var edges = document.getElementsByTagName('g');
if (edges && edges.length) {
  for (var i=0;i<edges.length;i++) {
    if (edges[i].id.substr(0,4)=='edge') {
      edges[i].setAttribute('class','edge');
    }
  }
}
]]></script>
        <defs>
                <circle id="rim" cx="0" cy="0" r="7"/>
                <circle id="rim2" cx="0" cy="0" r="3.5"/>
                <g id="zoomPlus">
                        <use xlink:href="#rim" fill="#404040">
                                <set attributeName="fill" to="#808080" begin="zoomplus.mouseover" end="zoomplus.mouseout"/>
                        </use>
                        <path d="M-4,0h8M0,-4v8" fill="none" stroke="white" stroke-width="1.5" pointer-events="none"/>
                </g>
                <g id="zoomMin">
                        <use xlink:href="#rim" fill="#404040">
                                <set attributeName="fill" to="#808080" begin="zoomminus.mouseover" end="zoomminus.mouseout"/>
                        </use>
                        <path d="M-4,0h8" fill="none" stroke="white" stroke-width="1.5" pointer-events="none"/>
                </g>
                <g id="dirArrow">
                        <path fill="none" stroke="white" stroke-width="1.5" d="M0,-3.0v7 M-2.5,-0.5L0,-3.0L2.5,-0.5"/>
                </g>
               <g id="resetDef">
                       <use xlink:href="#rim2" fill="#404040">
                               <set attributeName="fill" to="#808080" begin="reset.mouseover" end="reset.mouseout"/>
                       </use>
               </g>
        </defs>

<script type="text/javascript">
var viewWidth = 663;
var viewHeight = 264;
var sectionId = 'dynsection-0';
</script>
<script xlink:href="svgpan.js"/>
<svg id="graph" class="graph">
<g id="viewport">
<title>rstm/rstm&#45;dev/mesh/tm_list_set.hpp</title>
<!-- Node1 -->
<g id="node1" class="node"><title>Node1</title>
<polygon fill="#bfbfbf" stroke="black" points="509.823,-225 509.823,-255 613.823,-255 613.823,-225 509.823,-225"/>
<text text-anchor="start" x="517.823" y="-243" font-family="Helvetica,sans-Serif" font-size="10.00">rstm/rstm&#45;dev/mesh</text>
<text text-anchor="middle" x="561.823" y="-232" font-family="Helvetica,sans-Serif" font-size="10.00">/tm_list_set.hpp</text>
</g>
<!-- Node2 -->
<g id="node2" class="node"><title>Node2</title>
<polygon fill="none" stroke="#bfbfbf" points="464.323,-0.5 464.323,-19.5 513.323,-19.5 513.323,-0.5 464.323,-0.5"/>
<text text-anchor="middle" x="488.823" y="-7.5" font-family="Helvetica,sans-Serif" font-size="10.00">cassert</text>
</g>
<!-- Node1&#45;&gt;Node2 -->
<g id="edge1" class="edge"><title>Node1&#45;&gt;Node2</title>
<path fill="none" stroke="midnightblue" d="M561.107,-224.931C559.567,-201.125 554.942,-151.624 541.823,-112 531.547,-80.9622 512.481,-47.9485 500.237,-28.4178"/>
<polygon fill="midnightblue" stroke="midnightblue" points="503.028,-26.2856 494.69,-19.7478 497.131,-30.0578 503.028,-26.2856"/>
</g>
<!-- Node3 -->
<g id="node3" class="node"><title>Node3</title>
<g id="a_node3"><a xlink:href="common_8hpp.html" target="_top" xlink:title="common.hpp">
<polygon fill="none" stroke="black" points="337.323,-168.5 337.323,-187.5 410.323,-187.5 410.323,-168.5 337.323,-168.5"/>
<text text-anchor="middle" x="373.823" y="-175.5" font-family="Helvetica,sans-Serif" font-size="10.00">common.hpp</text>
</a>
</g>
</g>
<!-- Node1&#45;&gt;Node3 -->
<g id="edge2" class="edge"><title>Node1&#45;&gt;Node3</title>
<path fill="none" stroke="midnightblue" d="M517.746,-224.933C485.081,-214.508 441.086,-200.467 410.369,-190.663"/>
<polygon fill="midnightblue" stroke="midnightblue" points="411.087,-187.219 400.496,-187.513 408.959,-193.887 411.087,-187.219"/>
</g>
<!-- Node16 -->
<g id="node16" class="node"><title>Node16</title>
<g id="a_node16"><a xlink:href="tm__set_8hpp.html" target="_top" xlink:title="tm_set.hpp">
<polygon fill="none" stroke="black" points="590.323,-168.5 590.323,-187.5 655.323,-187.5 655.323,-168.5 590.323,-168.5"/>
<text text-anchor="middle" x="622.823" y="-175.5" font-family="Helvetica,sans-Serif" font-size="10.00">tm_set.hpp</text>
</a>
</g>
</g>
<!-- Node1&#45;&gt;Node16 -->
<g id="edge19" class="edge"><title>Node1&#45;&gt;Node16</title>
<path fill="none" stroke="midnightblue" d="M576.28,-224.781C585.418,-215.792 597.242,-204.162 606.686,-194.873"/>
<polygon fill="midnightblue" stroke="midnightblue" points="609.272,-197.238 613.947,-187.731 604.364,-192.248 609.272,-197.238"/>
</g>
<!-- Node3&#45;&gt;Node2 -->
<g id="edge4" class="edge"><title>Node3&#45;&gt;Node2</title>
<path fill="none" stroke="midnightblue" d="M384.617,-168.46C404.205,-152.407 445.713,-115.748 468.823,-76 477.169,-61.6464 482.381,-43.4485 485.383,-29.9609"/>
<polygon fill="midnightblue" stroke="midnightblue" points="488.861,-30.4216 487.406,-19.927 481.999,-29.0381 488.861,-30.4216"/>
</g>
<!-- Node4 -->
<g id="node4" class="node"><title>Node4</title>
<polygon fill="none" stroke="#bfbfbf" points="111.823,-0.5 111.823,-19.5 165.823,-19.5 165.823,-0.5 111.823,-0.5"/>
<text text-anchor="middle" x="138.823" y="-7.5" font-family="Helvetica,sans-Serif" font-size="10.00">iostream</text>
</g>
<!-- Node3&#45;&gt;Node4 -->
<g id="edge3" class="edge"><title>Node3&#45;&gt;Node4</title>
<path fill="none" stroke="midnightblue" d="M337.169,-175.096C250.166,-170.203 36.8803,-155.869 15.8234,-132 -6.52212,-106.67 -3.52774,-83.6852 15.8234,-56 35.0246,-28.5293 72.8912,-17.7742 101.564,-13.5929"/>
<polygon fill="midnightblue" stroke="midnightblue" points="102.171,-17.0443 111.66,-12.331 101.303,-10.0984 102.171,-17.0443"/>
</g>
<!-- Node5 -->
<g id="node5" class="node"><title>Node5</title>
<g id="a_node5"><a xlink:href="platform_8hpp.html" target="_top" xlink:title="common/platform.hpp">
<polygon fill="none" stroke="black" points="172.323,-112.5 172.323,-131.5 283.323,-131.5 283.323,-112.5 172.323,-112.5"/>
<text text-anchor="middle" x="227.823" y="-119.5" font-family="Helvetica,sans-Serif" font-size="10.00">common/platform.hpp</text>
</a>
</g>
</g>
<!-- Node3&#45;&gt;Node5 -->
<g id="edge5" class="edge"><title>Node3&#45;&gt;Node5</title>
<path fill="none" stroke="midnightblue" d="M350.689,-168.444C326.341,-159.438 287.816,-145.189 260.4,-135.049"/>
<polygon fill="midnightblue" stroke="midnightblue" points="261.442,-131.703 250.849,-131.516 259.014,-138.268 261.442,-131.703"/>
</g>
<!-- Node10 -->
<g id="node10" class="node"><title>Node10</title>
<g id="a_node10"><a xlink:href="ThreadLocal_8hpp.html" target="_top" xlink:title="common/ThreadLocal.hpp">
<polygon fill="none" stroke="black" points="25.3234,-112.5 25.3234,-131.5 154.323,-131.5 154.323,-112.5 25.3234,-112.5"/>
<text text-anchor="middle" x="89.8234" y="-119.5" font-family="Helvetica,sans-Serif" font-size="10.00">common/ThreadLocal.hpp</text>
</a>
</g>
</g>
<!-- Node3&#45;&gt;Node10 -->
<g id="edge10" class="edge"><title>Node3&#45;&gt;Node10</title>
<path fill="none" stroke="midnightblue" d="M337.277,-170.051C288.378,-160.753 201.257,-144.188 144.521,-133.4"/>
<polygon fill="midnightblue" stroke="midnightblue" points="145.123,-129.952 134.645,-131.522 143.815,-136.829 145.123,-129.952"/>
</g>
<!-- Node11 -->
<g id="node11" class="node"><title>Node11</title>
<g id="a_node11"><a xlink:href="lock_8hpp.html" target="_top" xlink:title="lock.hpp">
<polygon fill="none" stroke="black" points="347.323,-112.5 347.323,-131.5 400.323,-131.5 400.323,-112.5 347.323,-112.5"/>
<text text-anchor="middle" x="373.823" y="-119.5" font-family="Helvetica,sans-Serif" font-size="10.00">lock.hpp</text>
</a>
</g>
</g>
<!-- Node3&#45;&gt;Node11 -->
<g id="edge12" class="edge"><title>Node3&#45;&gt;Node11</title>
<path fill="none" stroke="midnightblue" d="M373.823,-168.083C373.823,-161.006 373.823,-150.861 373.823,-141.986"/>
<polygon fill="midnightblue" stroke="midnightblue" points="377.323,-141.751 373.823,-131.751 370.323,-141.751 377.323,-141.751"/>
</g>
<!-- Node15 -->
<g id="node15" class="node"><title>Node15</title>
<polygon fill="none" stroke="#bfbfbf" points="480.323,-112.5 480.323,-131.5 533.323,-131.5 533.323,-112.5 480.323,-112.5"/>
<text text-anchor="middle" x="506.823" y="-119.5" font-family="Helvetica,sans-Serif" font-size="10.00">malloc.h</text>
</g>
<!-- Node3&#45;&gt;Node15 -->
<g id="edge18" class="edge"><title>Node3&#45;&gt;Node15</title>
<path fill="none" stroke="midnightblue" d="M394.898,-168.444C416.883,-159.517 451.558,-145.439 476.488,-135.317"/>
<polygon fill="midnightblue" stroke="midnightblue" points="477.899,-138.521 485.848,-131.516 475.266,-132.035 477.899,-138.521"/>
</g>
<!-- Node6 -->
<g id="node6" class="node"><title>Node6</title>
<polygon fill="none" stroke="#bfbfbf" points="25.3234,-56.5 25.3234,-75.5 96.3234,-75.5 96.3234,-56.5 25.3234,-56.5"/>
<text text-anchor="middle" x="60.8234" y="-63.5" font-family="Helvetica,sans-Serif" font-size="10.00">stm/config.h</text>
</g>
<!-- Node5&#45;&gt;Node6 -->
<g id="edge6" class="edge"><title>Node5&#45;&gt;Node6</title>
<path fill="none" stroke="midnightblue" d="M201.362,-112.444C173.145,-103.32 128.283,-88.8133 96.8549,-78.6509"/>
<polygon fill="midnightblue" stroke="midnightblue" points="97.753,-75.263 87.1612,-75.5164 95.5993,-81.9234 97.753,-75.263"/>
</g>
<!-- Node7 -->
<g id="node7" class="node"><title>Node7</title>
<polygon fill="none" stroke="#bfbfbf" points="183.323,-56.5 183.323,-75.5 232.323,-75.5 232.323,-56.5 183.323,-56.5"/>
<text text-anchor="middle" x="207.823" y="-63.5" font-family="Helvetica,sans-Serif" font-size="10.00">stdint.h</text>
</g>
<!-- Node5&#45;&gt;Node7 -->
<g id="edge7" class="edge"><title>Node5&#45;&gt;Node7</title>
<path fill="none" stroke="midnightblue" d="M224.521,-112.083C221.841,-104.849 217.975,-94.4087 214.637,-85.3968"/>
<polygon fill="midnightblue" stroke="midnightblue" points="217.82,-83.9129 211.065,-75.7511 211.256,-86.3442 217.82,-83.9129"/>
</g>
<!-- Node8 -->
<g id="node8" class="node"><title>Node8</title>
<polygon fill="none" stroke="#bfbfbf" points="250.823,-56.5 250.823,-75.5 298.823,-75.5 298.823,-56.5 250.823,-56.5"/>
<text text-anchor="middle" x="274.823" y="-63.5" font-family="Helvetica,sans-Serif" font-size="10.00">limits.h</text>
</g>
<!-- Node5&#45;&gt;Node8 -->
<g id="edge8" class="edge"><title>Node5&#45;&gt;Node8</title>
<path fill="none" stroke="midnightblue" d="M235.584,-112.083C242.36,-104.298 252.367,-92.8015 260.578,-83.3665"/>
<polygon fill="midnightblue" stroke="midnightblue" points="263.282,-85.592 267.207,-75.7511 258.001,-80.9963 263.282,-85.592"/>
</g>
<!-- Node9 -->
<g id="node9" class="node"><title>Node9</title>
<polygon fill="none" stroke="#bfbfbf" points="114.323,-56.5 114.323,-75.5 165.323,-75.5 165.323,-56.5 114.323,-56.5"/>
<text text-anchor="middle" x="139.823" y="-63.5" font-family="Helvetica,sans-Serif" font-size="10.00">unistd.h</text>
</g>
<!-- Node5&#45;&gt;Node9 -->
<g id="edge9" class="edge"><title>Node5&#45;&gt;Node9</title>
<path fill="none" stroke="midnightblue" d="M213.685,-112.324C199.957,-103.9 178.887,-90.9709 162.759,-81.0741"/>
<polygon fill="midnightblue" stroke="midnightblue" points="164.281,-77.9016 153.927,-75.6545 160.62,-83.8678 164.281,-77.9016"/>
</g>
<!-- Node10&#45;&gt;Node6 -->
<g id="edge11" class="edge"><title>Node10&#45;&gt;Node6</title>
<path fill="none" stroke="midnightblue" d="M85.0346,-112.083C81.065,-104.691 75.2983,-93.9533 70.3886,-84.8111"/>
<polygon fill="midnightblue" stroke="midnightblue" points="73.3378,-82.9051 65.523,-75.7511 67.1709,-86.217 73.3378,-82.9051"/>
</g>
<!-- Node12 -->
<g id="node12" class="node"><title>Node12</title>
<polygon fill="none" stroke="#bfbfbf" points="403.323,-56.5 403.323,-75.5 460.323,-75.5 460.323,-56.5 403.323,-56.5"/>
<text text-anchor="middle" x="431.823" y="-63.5" font-family="Helvetica,sans-Serif" font-size="10.00">pthread.h</text>
</g>
<!-- Node11&#45;&gt;Node12 -->
<g id="edge13" class="edge"><title>Node11&#45;&gt;Node12</title>
<path fill="none" stroke="midnightblue" d="M383.142,-112.324C391.716,-104.341 404.636,-92.3128 415.011,-82.6529"/>
<polygon fill="midnightblue" stroke="midnightblue" points="417.401,-85.2098 422.335,-75.8339 412.631,-80.0865 417.401,-85.2098"/>
</g>
<!-- Node13 -->
<g id="node13" class="node"><title>Node13</title>
<g id="a_node13"><a xlink:href="mesh_2macros_8hpp.html" target="_top" xlink:title="macros.hpp">
<polygon fill="none" stroke="black" points="316.823,-56.5 316.823,-75.5 384.823,-75.5 384.823,-56.5 316.823,-56.5"/>
<text text-anchor="middle" x="350.823" y="-63.5" font-family="Helvetica,sans-Serif" font-size="10.00">macros.hpp</text>
</a>
</g>
</g>
<!-- Node11&#45;&gt;Node13 -->
<g id="edge14" class="edge"><title>Node11&#45;&gt;Node13</title>
<path fill="none" stroke="midnightblue" d="M370.025,-112.083C366.911,-104.77 362.401,-94.1814 358.534,-85.1034"/>
<polygon fill="midnightblue" stroke="midnightblue" points="361.689,-83.5798 354.551,-75.7511 355.249,-86.3229 361.689,-83.5798"/>
</g>
<!-- Node13&#45;&gt;Node2 -->
<g id="edge17" class="edge"><title>Node13&#45;&gt;Node2</title>
<path fill="none" stroke="midnightblue" d="M372.69,-56.4435C395.603,-47.4776 431.799,-33.314 457.69,-23.1827"/>
<polygon fill="midnightblue" stroke="midnightblue" points="459.022,-26.4198 467.059,-19.5164 456.471,-19.9011 459.022,-26.4198"/>
</g>
<!-- Node13&#45;&gt;Node4 -->
<g id="edge15" class="edge"><title>Node13&#45;&gt;Node4</title>
<path fill="none" stroke="midnightblue" d="M317.231,-56.4435C278.673,-46.6221 215.629,-30.5637 175.73,-20.4007"/>
<polygon fill="midnightblue" stroke="midnightblue" points="176.422,-16.9653 165.868,-17.8886 174.694,-23.7488 176.422,-16.9653"/>
</g>
<!-- Node14 -->
<g id="node14" class="node"><title>Node14</title>
<polygon fill="none" stroke="#bfbfbf" points="326.323,-0.5 326.323,-19.5 375.323,-19.5 375.323,-0.5 326.323,-0.5"/>
<text text-anchor="middle" x="350.823" y="-7.5" font-family="Helvetica,sans-Serif" font-size="10.00">string.h</text>
</g>
<!-- Node13&#45;&gt;Node14 -->
<g id="edge16" class="edge"><title>Node13&#45;&gt;Node14</title>
<path fill="none" stroke="midnightblue" d="M350.823,-56.083C350.823,-49.0059 350.823,-38.8611 350.823,-29.9865"/>
<polygon fill="midnightblue" stroke="midnightblue" points="354.323,-29.751 350.823,-19.7511 347.323,-29.7511 354.323,-29.751"/>
</g>
</g>
</svg>
        <g id="navigator" transform="translate(0 0)" fill="#404254">
                <rect fill="#f2f5e9" fill-opacity="0.5" stroke="#606060" stroke-width=".5" x="0" y="0" width="60" height="60"/>
                <use id="zoomplus" xlink:href="#zoomPlus" x="17" y="9" onmousedown="handleZoom(evt,'in')"/>
                <use id="zoomminus" xlink:href="#zoomMin" x="42" y="9" onmousedown="handleZoom(evt,'out')"/>
                <use id="reset" xlink:href="#resetDef" x="30" y="36" onmousedown="handleReset()"/>
                <g id="arrowUp" xlink:href="#dirArrow" transform="translate(30 24)" onmousedown="handlePan(0,-1)">
                  <use xlink:href="#rim" fill="#404040">
                        <set attributeName="fill" to="#808080" begin="arrowUp.mouseover" end="arrowUp.mouseout"/>
                  </use>
                  <path fill="none" stroke="white" stroke-width="1.5" d="M0,-3.0v7 M-2.5,-0.5L0,-3.0L2.5,-0.5"/>
                </g>
                <g id="arrowRight" xlink:href="#dirArrow" transform="rotate(90) translate(36 -43)" onmousedown="handlePan(1,0)">
                  <use xlink:href="#rim" fill="#404040">
                        <set attributeName="fill" to="#808080" begin="arrowRight.mouseover" end="arrowRight.mouseout"/>
                  </use>
                  <path fill="none" stroke="white" stroke-width="1.5" d="M0,-3.0v7 M-2.5,-0.5L0,-3.0L2.5,-0.5"/>
                </g>
                <g id="arrowDown" xlink:href="#dirArrow" transform="rotate(180) translate(-30 -48)" onmousedown="handlePan(0,1)">
                  <use xlink:href="#rim" fill="#404040">
                        <set attributeName="fill" to="#808080" begin="arrowDown.mouseover" end="arrowDown.mouseout"/>
                  </use>
                  <path fill="none" stroke="white" stroke-width="1.5" d="M0,-3.0v7 M-2.5,-0.5L0,-3.0L2.5,-0.5"/>
                </g>
                <g id="arrowLeft" xlink:href="#dirArrow" transform="rotate(270) translate(-36 17)" onmousedown="handlePan(-1,0)">
                  <use xlink:href="#rim" fill="#404040">
                        <set attributeName="fill" to="#808080" begin="arrowLeft.mouseover" end="arrowLeft.mouseout"/>
                  </use>
                  <path fill="none" stroke="white" stroke-width="1.5" d="M0,-3.0v7 M-2.5,-0.5L0,-3.0L2.5,-0.5"/>
                </g>
        </g>
        <svg viewBox="0 0 15 15" width="100%" height="30px" preserveAspectRatio="xMaxYMin meet">
         <g id="arrow_out" transform="scale(0.3 0.3)">
          <a xlink:href="tm__list__set_8hpp__incl_org.svg" target="_base">
           <rect id="button" ry="5" rx="5" y="6" x="6" height="38" width="38"
                fill="#f2f5e9" fill-opacity="0.5" stroke="#606060" stroke-width="1.0"/>
           <path id="arrow"
             d="M 11.500037,31.436501 C 11.940474,20.09759 22.043105,11.32322 32.158766,21.979434 L 37.068811,17.246167 C 37.068811,17.246167 37.088388,32 37.088388,32 L 22.160133,31.978069 C 22.160133,31.978069 26.997745,27.140456 26.997745,27.140456 C 18.528582,18.264221 13.291696,25.230495 11.500037,31.436501 z"
             style="fill:#404040;"/>
          </a>
         </g>
        </svg>
</svg>
