<?xml version="1.0" encoding="UTF-8" standalone="no"?>
<!DOCTYPE svg PUBLIC "-//W3C//DTD SVG 1.1//EN"
 "http://www.w3.org/Graphics/SVG/1.1/DTD/svg11.dtd">
<!-- Generated by graphviz version 2.36.0 (20140111.2315)
 -->
<!-- Title: rstm/rstm&#45;dev/mesh/tm_hash_set.hpp Pages: 1 -->
<!--zoomable 320 -->
<svg id="main" version="1.1" xmlns="http://www.w3.org/2000/svg" xmlns:xlink="http://www.w3.org/1999/xlink" xml:space="preserve" onload="init(evt)">
<style type="text/css"><![CDATA[
.edge:hover path { stroke: red; }
.edge:hover polygon { stroke: red; fill: red; }
]]></style>
<script type="text/javascript"><![CDATA[
var edges = document.getElementsByTagName('g');
if (edges && edges.length) {
  for (var i=0;i<edges.length;i++) {
    if (edges[i].id.substr(0,4)=='edge') {
      edges[i].setAttribute('class','edge');
    }
  }
}
]]></script>
        <defs>
                <circle id="rim" cx="0" cy="0" r="7"/>
                <circle id="rim2" cx="0" cy="0" r="3.5"/>
                <g id="zoomPlus">
                        <use xlink:href="#rim" fill="#404040">
                                <set attributeName="fill" to="#808080" begin="zoomplus.mouseover" end="zoomplus.mouseout"/>
                        </use>
                        <path d="M-4,0h8M0,-4v8" fill="none" stroke="white" stroke-width="1.5" pointer-events="none"/>
                </g>
                <g id="zoomMin">
                        <use xlink:href="#rim" fill="#404040">
                                <set attributeName="fill" to="#808080" begin="zoomminus.mouseover" end="zoomminus.mouseout"/>
                        </use>
                        <path d="M-4,0h8" fill="none" stroke="white" stroke-width="1.5" pointer-events="none"/>
                </g>
                <g id="dirArrow">
                        <path fill="none" stroke="white" stroke-width="1.5" d="M0,-3.0v7 M-2.5,-0.5L0,-3.0L2.5,-0.5"/>
                </g>
               <g id="resetDef">
                       <use xlink:href="#rim2" fill="#404040">
                               <set attributeName="fill" to="#808080" begin="reset.mouseover" end="reset.mouseout"/>
                       </use>
               </g>
        </defs>

<script type="text/javascript">
var viewWidth = 521;
var viewHeight = 320;
var sectionId = 'dynsection-0';
</script>
<script xlink:href="svgpan.js"/>
<svg id="graph" class="graph">
<g id="viewport">
<title>rstm/rstm&#45;dev/mesh/tm_hash_set.hpp</title>
<!-- Node1 -->
<g id="node1" class="node"><title>Node1</title>
<polygon fill="#bfbfbf" stroke="black" points="256.83,-281 256.83,-311 360.83,-311 360.83,-281 256.83,-281"/>
<text text-anchor="start" x="264.83" y="-299" font-family="Helvetica,sans-Serif" font-size="10.00">rstm/rstm&#45;dev/mesh</text>
<text text-anchor="middle" x="308.83" y="-288" font-family="Helvetica,sans-Serif" font-size="10.00">/tm_hash_set.hpp</text>
</g>
<!-- Node2 -->
<g id="node2" class="node"><title>Node2</title>
<g id="a_node2"><a xlink:href="tm__set_8hpp.html" target="_top" xlink:title="tm_set.hpp">
<polygon fill="none" stroke="black" points="231.33,-168.5 231.33,-187.5 296.33,-187.5 296.33,-168.5 231.33,-168.5"/>
<text text-anchor="middle" x="263.83" y="-175.5" font-family="Helvetica,sans-Serif" font-size="10.00">tm_set.hpp</text>
</a>
</g>
</g>
<!-- Node1&#45;&gt;Node2 -->
<g id="edge1" class="edge"><title>Node1&#45;&gt;Node2</title>
<path fill="none" stroke="midnightblue" d="M303.312,-280.776C295.13,-259.686 279.786,-220.132 270.826,-197.036"/>
<polygon fill="midnightblue" stroke="midnightblue" points="274.087,-195.764 267.207,-187.707 267.561,-198.296 274.087,-195.764"/>
</g>
<!-- Node3 -->
<g id="node3" class="node"><title>Node3</title>
<g id="a_node3"><a xlink:href="tm__list__set_8hpp.html" target="_top" xlink:title="tm_list_set.hpp">
<polygon fill="none" stroke="black" points="304.33,-224.5 304.33,-243.5 387.33,-243.5 387.33,-224.5 304.33,-224.5"/>
<text text-anchor="middle" x="345.83" y="-231.5" font-family="Helvetica,sans-Serif" font-size="10.00">tm_list_set.hpp</text>
</a>
</g>
</g>
<!-- Node1&#45;&gt;Node3 -->
<g id="edge2" class="edge"><title>Node1&#45;&gt;Node3</title>
<path fill="none" stroke="midnightblue" d="M317.598,-280.781C322.864,-272.242 329.6,-261.318 335.171,-252.283"/>
<polygon fill="midnightblue" stroke="midnightblue" points="338.176,-254.079 340.446,-243.731 332.218,-250.405 338.176,-254.079"/>
</g>
<!-- Node3&#45;&gt;Node2 -->
<g id="edge21" class="edge"><title>Node3&#45;&gt;Node2</title>
<path fill="none" stroke="midnightblue" d="M332.655,-224.324C319.983,-215.979 300.596,-203.212 285.624,-193.352"/>
<polygon fill="midnightblue" stroke="midnightblue" points="287.248,-190.231 276.972,-187.655 283.398,-196.078 287.248,-190.231"/>
</g>
<!-- Node4 -->
<g id="node4" class="node"><title>Node4</title>
<polygon fill="none" stroke="#bfbfbf" points="464.33,-0.5 464.33,-19.5 513.33,-19.5 513.33,-0.5 464.33,-0.5"/>
<text text-anchor="middle" x="488.83" y="-7.5" font-family="Helvetica,sans-Serif" font-size="10.00">cassert</text>
</g>
<!-- Node3&#45;&gt;Node4 -->
<g id="edge3" class="edge"><title>Node3&#45;&gt;Node4</title>
<path fill="none" stroke="midnightblue" d="M362.422,-224.388C390.067,-209.254 445.682,-175.338 477.83,-132 498.707,-103.855 502.653,-90.8343 498.83,-56 497.857,-47.1398 495.838,-37.4716 493.867,-29.3755"/>
<polygon fill="midnightblue" stroke="midnightblue" points="497.212,-28.333 491.312,-19.5332 490.437,-30.0919 497.212,-28.333"/>
</g>
<!-- Node5 -->
<g id="node5" class="node"><title>Node5</title>
<g id="a_node5"><a xlink:href="common_8hpp.html" target="_top" xlink:title="common.hpp">
<polygon fill="none" stroke="black" points="314.33,-168.5 314.33,-187.5 387.33,-187.5 387.33,-168.5 314.33,-168.5"/>
<text text-anchor="middle" x="350.83" y="-175.5" font-family="Helvetica,sans-Serif" font-size="10.00">common.hpp</text>
</a>
</g>
</g>
<!-- Node3&#45;&gt;Node5 -->
<g id="edge4" class="edge"><title>Node3&#45;&gt;Node5</title>
<path fill="none" stroke="midnightblue" d="M346.655,-224.083C347.31,-217.006 348.25,-206.861 349.072,-197.986"/>
<polygon fill="midnightblue" stroke="midnightblue" points="352.582,-198.031 350.019,-187.751 345.612,-197.386 352.582,-198.031"/>
</g>
<!-- Node5&#45;&gt;Node4 -->
<g id="edge6" class="edge"><title>Node5&#45;&gt;Node4</title>
<path fill="none" stroke="midnightblue" d="M387.386,-170.084C410.434,-163.882 439.091,-152.474 456.83,-132 482.114,-102.816 487.715,-55.8449 488.776,-29.8426"/>
<polygon fill="midnightblue" stroke="midnightblue" points="492.276,-29.8771 488.998,-19.8022 485.278,-29.7225 492.276,-29.8771"/>
</g>
<!-- Node6 -->
<g id="node6" class="node"><title>Node6</title>
<polygon fill="none" stroke="#bfbfbf" points="111.83,-0.5 111.83,-19.5 165.83,-19.5 165.83,-0.5 111.83,-0.5"/>
<text text-anchor="middle" x="138.83" y="-7.5" font-family="Helvetica,sans-Serif" font-size="10.00">iostream</text>
</g>
<!-- Node5&#45;&gt;Node6 -->
<g id="edge5" class="edge"><title>Node5&#45;&gt;Node6</title>
<path fill="none" stroke="midnightblue" d="M314.212,-169.598C311.044,-169.03 307.883,-168.488 304.83,-168 240.923,-157.781 58.6708,-180.509 15.8296,-132 -6.53005,-106.682 -3.52158,-83.6852 15.8296,-56 35.0308,-28.5293 72.8974,-17.7742 101.57,-13.5929"/>
<polygon fill="midnightblue" stroke="midnightblue" points="102.177,-17.0443 111.666,-12.331 101.309,-10.0984 102.177,-17.0443"/>
</g>
<!-- Node7 -->
<g id="node7" class="node"><title>Node7</title>
<g id="a_node7"><a xlink:href="platform_8hpp.html" target="_top" xlink:title="common/platform.hpp">
<polygon fill="none" stroke="black" points="172.33,-112.5 172.33,-131.5 283.33,-131.5 283.33,-112.5 172.33,-112.5"/>
<text text-anchor="middle" x="227.83" y="-119.5" font-family="Helvetica,sans-Serif" font-size="10.00">common/platform.hpp</text>
</a>
</g>
</g>
<!-- Node5&#45;&gt;Node7 -->
<g id="edge7" class="edge"><title>Node5&#45;&gt;Node7</title>
<path fill="none" stroke="midnightblue" d="M331.34,-168.444C311.187,-159.596 279.507,-145.687 256.499,-135.586"/>
<polygon fill="midnightblue" stroke="midnightblue" points="257.792,-132.332 247.228,-131.516 254.978,-138.741 257.792,-132.332"/>
</g>
<!-- Node12 -->
<g id="node12" class="node"><title>Node12</title>
<g id="a_node12"><a xlink:href="ThreadLocal_8hpp.html" target="_top" xlink:title="common/ThreadLocal.hpp">
<polygon fill="none" stroke="black" points="25.3296,-112.5 25.3296,-131.5 154.33,-131.5 154.33,-112.5 25.3296,-112.5"/>
<text text-anchor="middle" x="89.8296" y="-119.5" font-family="Helvetica,sans-Serif" font-size="10.00">common/ThreadLocal.hpp</text>
</a>
</g>
</g>
<!-- Node5&#45;&gt;Node12 -->
<g id="edge12" class="edge"><title>Node5&#45;&gt;Node12</title>
<path fill="none" stroke="midnightblue" d="M314.264,-169.435C269.15,-160.101 192.176,-144.175 141.157,-133.619"/>
<polygon fill="midnightblue" stroke="midnightblue" points="141.818,-130.182 131.316,-131.583 140.399,-137.037 141.818,-130.182"/>
</g>
<!-- Node13 -->
<g id="node13" class="node"><title>Node13</title>
<g id="a_node13"><a xlink:href="lock_8hpp.html" target="_top" xlink:title="lock.hpp">
<polygon fill="none" stroke="black" points="324.33,-112.5 324.33,-131.5 377.33,-131.5 377.33,-112.5 324.33,-112.5"/>
<text text-anchor="middle" x="350.83" y="-119.5" font-family="Helvetica,sans-Serif" font-size="10.00">lock.hpp</text>
</a>
</g>
</g>
<!-- Node5&#45;&gt;Node13 -->
<g id="edge14" class="edge"><title>Node5&#45;&gt;Node13</title>
<path fill="none" stroke="midnightblue" d="M350.83,-168.083C350.83,-161.006 350.83,-150.861 350.83,-141.986"/>
<polygon fill="midnightblue" stroke="midnightblue" points="354.33,-141.751 350.83,-131.751 347.33,-141.751 354.33,-141.751"/>
</g>
<!-- Node17 -->
<g id="node17" class="node"><title>Node17</title>
<polygon fill="none" stroke="#bfbfbf" points="395.33,-112.5 395.33,-131.5 448.33,-131.5 448.33,-112.5 395.33,-112.5"/>
<text text-anchor="middle" x="421.83" y="-119.5" font-family="Helvetica,sans-Serif" font-size="10.00">malloc.h</text>
</g>
<!-- Node5&#45;&gt;Node17 -->
<g id="edge20" class="edge"><title>Node5&#45;&gt;Node17</title>
<path fill="none" stroke="midnightblue" d="M362.237,-168.324C372.938,-160.185 389.17,-147.839 401.992,-138.087"/>
<polygon fill="midnightblue" stroke="midnightblue" points="404.374,-140.673 410.215,-131.834 400.136,-135.102 404.374,-140.673"/>
</g>
<!-- Node8 -->
<g id="node8" class="node"><title>Node8</title>
<polygon fill="none" stroke="#bfbfbf" points="25.3296,-56.5 25.3296,-75.5 96.3296,-75.5 96.3296,-56.5 25.3296,-56.5"/>
<text text-anchor="middle" x="60.8296" y="-63.5" font-family="Helvetica,sans-Serif" font-size="10.00">stm/config.h</text>
</g>
<!-- Node7&#45;&gt;Node8 -->
<g id="edge8" class="edge"><title>Node7&#45;&gt;Node8</title>
<path fill="none" stroke="midnightblue" d="M201.368,-112.444C173.151,-103.32 128.289,-88.8133 96.8611,-78.6509"/>
<polygon fill="midnightblue" stroke="midnightblue" points="97.7592,-75.263 87.1674,-75.5164 95.6055,-81.9234 97.7592,-75.263"/>
</g>
<!-- Node9 -->
<g id="node9" class="node"><title>Node9</title>
<polygon fill="none" stroke="#bfbfbf" points="183.33,-56.5 183.33,-75.5 232.33,-75.5 232.33,-56.5 183.33,-56.5"/>
<text text-anchor="middle" x="207.83" y="-63.5" font-family="Helvetica,sans-Serif" font-size="10.00">stdint.h</text>
</g>
<!-- Node7&#45;&gt;Node9 -->
<g id="edge9" class="edge"><title>Node7&#45;&gt;Node9</title>
<path fill="none" stroke="midnightblue" d="M224.527,-112.083C221.848,-104.849 217.981,-94.4087 214.643,-85.3968"/>
<polygon fill="midnightblue" stroke="midnightblue" points="217.826,-83.9129 211.071,-75.7511 211.262,-86.3442 217.826,-83.9129"/>
</g>
<!-- Node10 -->
<g id="node10" class="node"><title>Node10</title>
<polygon fill="none" stroke="#bfbfbf" points="250.83,-56.5 250.83,-75.5 298.83,-75.5 298.83,-56.5 250.83,-56.5"/>
<text text-anchor="middle" x="274.83" y="-63.5" font-family="Helvetica,sans-Serif" font-size="10.00">limits.h</text>
</g>
<!-- Node7&#45;&gt;Node10 -->
<g id="edge10" class="edge"><title>Node7&#45;&gt;Node10</title>
<path fill="none" stroke="midnightblue" d="M235.591,-112.083C242.366,-104.298 252.373,-92.8015 260.585,-83.3665"/>
<polygon fill="midnightblue" stroke="midnightblue" points="263.288,-85.592 267.213,-75.7511 258.008,-80.9963 263.288,-85.592"/>
</g>
<!-- Node11 -->
<g id="node11" class="node"><title>Node11</title>
<polygon fill="none" stroke="#bfbfbf" points="114.33,-56.5 114.33,-75.5 165.33,-75.5 165.33,-56.5 114.33,-56.5"/>
<text text-anchor="middle" x="139.83" y="-63.5" font-family="Helvetica,sans-Serif" font-size="10.00">unistd.h</text>
</g>
<!-- Node7&#45;&gt;Node11 -->
<g id="edge11" class="edge"><title>Node7&#45;&gt;Node11</title>
<path fill="none" stroke="midnightblue" d="M213.691,-112.324C199.963,-103.9 178.893,-90.9709 162.765,-81.0741"/>
<polygon fill="midnightblue" stroke="midnightblue" points="164.287,-77.9016 153.933,-75.6545 160.626,-83.8678 164.287,-77.9016"/>
</g>
<!-- Node12&#45;&gt;Node8 -->
<g id="edge13" class="edge"><title>Node12&#45;&gt;Node8</title>
<path fill="none" stroke="midnightblue" d="M85.0408,-112.083C81.0712,-104.691 75.3045,-93.9533 70.3948,-84.8111"/>
<polygon fill="midnightblue" stroke="midnightblue" points="73.344,-82.9051 65.5292,-75.7511 67.177,-86.217 73.344,-82.9051"/>
</g>
<!-- Node14 -->
<g id="node14" class="node"><title>Node14</title>
<polygon fill="none" stroke="#bfbfbf" points="403.33,-56.5 403.33,-75.5 460.33,-75.5 460.33,-56.5 403.33,-56.5"/>
<text text-anchor="middle" x="431.83" y="-63.5" font-family="Helvetica,sans-Serif" font-size="10.00">pthread.h</text>
</g>
<!-- Node13&#45;&gt;Node14 -->
<g id="edge15" class="edge"><title>Node13&#45;&gt;Node14</title>
<path fill="none" stroke="midnightblue" d="M363.844,-112.324C376.361,-103.979 395.511,-91.2122 410.301,-81.3524"/>
<polygon fill="midnightblue" stroke="midnightblue" points="412.469,-84.1137 418.848,-75.6545 408.586,-78.2894 412.469,-84.1137"/>
</g>
<!-- Node15 -->
<g id="node15" class="node"><title>Node15</title>
<g id="a_node15"><a xlink:href="mesh_2macros_8hpp.html" target="_top" xlink:title="macros.hpp">
<polygon fill="none" stroke="black" points="316.83,-56.5 316.83,-75.5 384.83,-75.5 384.83,-56.5 316.83,-56.5"/>
<text text-anchor="middle" x="350.83" y="-63.5" font-family="Helvetica,sans-Serif" font-size="10.00">macros.hpp</text>
</a>
</g>
</g>
<!-- Node13&#45;&gt;Node15 -->
<g id="edge16" class="edge"><title>Node13&#45;&gt;Node15</title>
<path fill="none" stroke="midnightblue" d="M350.83,-112.083C350.83,-105.006 350.83,-94.8611 350.83,-85.9865"/>
<polygon fill="midnightblue" stroke="midnightblue" points="354.33,-85.751 350.83,-75.7511 347.33,-85.7511 354.33,-85.751"/>
</g>
<!-- Node15&#45;&gt;Node4 -->
<g id="edge19" class="edge"><title>Node15&#45;&gt;Node4</title>
<path fill="none" stroke="midnightblue" d="M372.696,-56.4435C395.609,-47.4776 431.805,-33.314 457.696,-23.1827"/>
<polygon fill="midnightblue" stroke="midnightblue" points="459.028,-26.4198 467.065,-19.5164 456.477,-19.9011 459.028,-26.4198"/>
</g>
<!-- Node15&#45;&gt;Node6 -->
<g id="edge17" class="edge"><title>Node15&#45;&gt;Node6</title>
<path fill="none" stroke="midnightblue" d="M317.238,-56.4435C278.679,-46.6221 215.635,-30.5637 175.736,-20.4007"/>
<polygon fill="midnightblue" stroke="midnightblue" points="176.428,-16.9653 165.874,-17.8886 174.7,-23.7488 176.428,-16.9653"/>
</g>
<!-- Node16 -->
<g id="node16" class="node"><title>Node16</title>
<polygon fill="none" stroke="#bfbfbf" points="326.33,-0.5 326.33,-19.5 375.33,-19.5 375.33,-0.5 326.33,-0.5"/>
<text text-anchor="middle" x="350.83" y="-7.5" font-family="Helvetica,sans-Serif" font-size="10.00">string.h</text>
</g>
<!-- Node15&#45;&gt;Node16 -->
<g id="edge18" class="edge"><title>Node15&#45;&gt;Node16</title>
<path fill="none" stroke="midnightblue" d="M350.83,-56.083C350.83,-49.0059 350.83,-38.8611 350.83,-29.9865"/>
<polygon fill="midnightblue" stroke="midnightblue" points="354.33,-29.751 350.83,-19.7511 347.33,-29.7511 354.33,-29.751"/>
</g>
</g>
</svg>
        <g id="navigator" transform="translate(0 0)" fill="#404254">
                <rect fill="#f2f5e9" fill-opacity="0.5" stroke="#606060" stroke-width=".5" x="0" y="0" width="60" height="60"/>
                <use id="zoomplus" xlink:href="#zoomPlus" x="17" y="9" onmousedown="handleZoom(evt,'in')"/>
                <use id="zoomminus" xlink:href="#zoomMin" x="42" y="9" onmousedown="handleZoom(evt,'out')"/>
                <use id="reset" xlink:href="#resetDef" x="30" y="36" onmousedown="handleReset()"/>
                <g id="arrowUp" xlink:href="#dirArrow" transform="translate(30 24)" onmousedown="handlePan(0,-1)">
                  <use xlink:href="#rim" fill="#404040">
                        <set attributeName="fill" to="#808080" begin="arrowUp.mouseover" end="arrowUp.mouseout"/>
                  </use>
                  <path fill="none" stroke="white" stroke-width="1.5" d="M0,-3.0v7 M-2.5,-0.5L0,-3.0L2.5,-0.5"/>
                </g>
                <g id="arrowRight" xlink:href="#dirArrow" transform="rotate(90) translate(36 -43)" onmousedown="handlePan(1,0)">
                  <use xlink:href="#rim" fill="#404040">
                        <set attributeName="fill" to="#808080" begin="arrowRight.mouseover" end="arrowRight.mouseout"/>
                  </use>
                  <path fill="none" stroke="white" stroke-width="1.5" d="M0,-3.0v7 M-2.5,-0.5L0,-3.0L2.5,-0.5"/>
                </g>
                <g id="arrowDown" xlink:href="#dirArrow" transform="rotate(180) translate(-30 -48)" onmousedown="handlePan(0,1)">
                  <use xlink:href="#rim" fill="#404040">
                        <set attributeName="fill" to="#808080" begin="arrowDown.mouseover" end="arrowDown.mouseout"/>
                  </use>
                  <path fill="none" stroke="white" stroke-width="1.5" d="M0,-3.0v7 M-2.5,-0.5L0,-3.0L2.5,-0.5"/>
                </g>
                <g id="arrowLeft" xlink:href="#dirArrow" transform="rotate(270) translate(-36 17)" onmousedown="handlePan(-1,0)">
                  <use xlink:href="#rim" fill="#404040">
                        <set attributeName="fill" to="#808080" begin="arrowLeft.mouseover" end="arrowLeft.mouseout"/>
                  </use>
                  <path fill="none" stroke="white" stroke-width="1.5" d="M0,-3.0v7 M-2.5,-0.5L0,-3.0L2.5,-0.5"/>
                </g>
        </g>
        <svg viewBox="0 0 15 15" width="100%" height="30px" preserveAspectRatio="xMaxYMin meet">
         <g id="arrow_out" transform="scale(0.3 0.3)">
          <a xlink:href="tm__hash__set_8hpp__incl_org.svg" target="_base">
           <rect id="button" ry="5" rx="5" y="6" x="6" height="38" width="38"
                fill="#f2f5e9" fill-opacity="0.5" stroke="#606060" stroke-width="1.0"/>
           <path id="arrow"
             d="M 11.500037,31.436501 C 11.940474,20.09759 22.043105,11.32322 32.158766,21.979434 L 37.068811,17.246167 C 37.068811,17.246167 37.088388,32 37.088388,32 L 22.160133,31.978069 C 22.160133,31.978069 26.997745,27.140456 26.997745,27.140456 C 18.528582,18.264221 13.291696,25.230495 11.500037,31.436501 z"
             style="fill:#404040;"/>
          </a>
         </g>
        </svg>
</svg>
