<?xml version="1.0" encoding="UTF-8" standalone="no"?>
<!DOCTYPE svg PUBLIC "-//W3C//DTD SVG 1.1//EN"
 "http://www.w3.org/Graphics/SVG/1.1/DTD/svg11.dtd">
<!-- Generated by graphviz version 2.36.0 (20140111.2315)
 -->
<!-- Title: rstm/rstm&#45;dev/libstm/algs/tml_inline.hpp Pages: 1 -->
<svg width="364pt" height="108pt"
 viewBox="0.00 0.00 364.00 108.00" xmlns="http://www.w3.org/2000/svg" xmlns:xlink="http://www.w3.org/1999/xlink">
<g id="graph0" class="graph" transform="scale(1 1) rotate(0) translate(4 104)">
<title>rstm/rstm&#45;dev/libstm/algs/tml_inline.hpp</title>
<!-- Node1 -->
<g id="node1" class="node"><title>Node1</title>
<polygon fill="#bfbfbf" stroke="black" points="124.5,-69 124.5,-99 231.5,-99 231.5,-69 124.5,-69"/>
<text text-anchor="start" x="132.5" y="-87" font-family="Helvetica,sans-Serif" font-size="10.00">rstm/rstm&#45;dev/libstm</text>
<text text-anchor="middle" x="178" y="-76" font-family="Helvetica,sans-Serif" font-size="10.00">/algs/tml_inline.hpp</text>
</g>
<!-- Node2 -->
<g id="node2" class="node"><title>Node2</title>
<g id="a_node2"><a xlink:href="tml_8cpp.html" target="_top" xlink:title="rstm/rstm&#45;dev/libstm\l/algs/tml.cpp">
<polygon fill="none" stroke="black" points="-0.5,-1 -0.5,-31 106.5,-31 106.5,-1 -0.5,-1"/>
<text text-anchor="start" x="7.5" y="-19" font-family="Helvetica,sans-Serif" font-size="10.00">rstm/rstm&#45;dev/libstm</text>
<text text-anchor="middle" x="53" y="-8" font-family="Helvetica,sans-Serif" font-size="10.00">/algs/tml.cpp</text>
</a>
</g>
</g>
<!-- Node1&#45;&gt;Node2 -->
<g id="edge1" class="edge"><title>Node1&#45;&gt;Node2</title>
<path fill="none" stroke="midnightblue" d="M142.118,-64.0545C122.25,-53.5641 97.9685,-40.7434 79.7713,-31.1352"/>
<polygon fill="midnightblue" stroke="midnightblue" points="140.707,-67.2672 151.184,-68.8413 143.976,-61.0771 140.707,-67.2672"/>
</g>
<!-- Node3 -->
<g id="node3" class="node"><title>Node3</title>
<g id="a_node3"><a xlink:href="irrevocability_8cpp.html" target="_top" xlink:title="rstm/rstm&#45;dev/libstm\l/irrevocability.cpp">
<polygon fill="none" stroke="black" points="124.5,-1 124.5,-31 231.5,-31 231.5,-1 124.5,-1"/>
<text text-anchor="start" x="132.5" y="-19" font-family="Helvetica,sans-Serif" font-size="10.00">rstm/rstm&#45;dev/libstm</text>
<text text-anchor="middle" x="178" y="-8" font-family="Helvetica,sans-Serif" font-size="10.00">/irrevocability.cpp</text>
</a>
</g>
</g>
<!-- Node1&#45;&gt;Node3 -->
<g id="edge2" class="edge"><title>Node1&#45;&gt;Node3</title>
<path fill="none" stroke="midnightblue" d="M178,-58.5322C178,-49.3606 178,-39.2449 178,-31.2931"/>
<polygon fill="midnightblue" stroke="midnightblue" points="174.5,-58.6789 178,-68.679 181.5,-58.679 174.5,-58.6789"/>
</g>
<!-- Node4 -->
<g id="node4" class="node"><title>Node4</title>
<g id="a_node4"><a xlink:href="txthread_8cpp.html" target="_top" xlink:title="rstm/rstm&#45;dev/libstm\l/txthread.cpp">
<polygon fill="none" stroke="black" points="249.5,-1 249.5,-31 356.5,-31 356.5,-1 249.5,-1"/>
<text text-anchor="start" x="257.5" y="-19" font-family="Helvetica,sans-Serif" font-size="10.00">rstm/rstm&#45;dev/libstm</text>
<text text-anchor="middle" x="303" y="-8" font-family="Helvetica,sans-Serif" font-size="10.00">/txthread.cpp</text>
</a>
</g>
</g>
<!-- Node1&#45;&gt;Node4 -->
<g id="edge3" class="edge"><title>Node1&#45;&gt;Node4</title>
<path fill="none" stroke="midnightblue" d="M213.882,-64.0545C233.75,-53.5641 258.032,-40.7434 276.229,-31.1352"/>
<polygon fill="midnightblue" stroke="midnightblue" points="212.024,-61.0771 204.816,-68.8413 215.293,-67.2672 212.024,-61.0771"/>
</g>
</g>
</svg>
