<?xml version="1.0" encoding="UTF-8" standalone="no"?>
<!DOCTYPE svg PUBLIC "-//W3C//DTD SVG 1.1//EN"
 "http://www.w3.org/Graphics/SVG/1.1/DTD/svg11.dtd">
<!-- Generated by graphviz version 2.36.0 (20140111.2315)
 -->
<!-- Title: do_full_delete Pages: 1 -->
<svg width="610pt" height="166pt"
 viewBox="0.00 0.00 610.00 166.00" xmlns="http://www.w3.org/2000/svg" xmlns:xlink="http://www.w3.org/1999/xlink">
<g id="graph0" class="graph" transform="scale(1 1) rotate(0) translate(4 162)">
<title>do_full_delete</title>
<!-- Node1 -->
<g id="node1" class="node"><title>Node1</title>
<polygon fill="#bfbfbf" stroke="black" points="0.5,-19.5 0.5,-38.5 77.5,-38.5 77.5,-19.5 0.5,-19.5"/>
<text text-anchor="middle" x="39" y="-26.5" font-family="Helvetica,sans-Serif" font-size="10.00">do_full_delete</text>
</g>
<!-- Node2 -->
<g id="node2" class="node"><title>Node2</title>
<g id="a_node2"><a xlink:href="transskip_8cc.html#a977b7a640f81eb02b78ee08376387721" target="_top" xlink:title="transskip_insert">
<polygon fill="none" stroke="black" points="125,-38.5 125,-57.5 211,-57.5 211,-38.5 125,-38.5"/>
<text text-anchor="middle" x="168" y="-45.5" font-family="Helvetica,sans-Serif" font-size="10.00">transskip_insert</text>
</a>
</g>
</g>
<!-- Node1&#45;&gt;Node2 -->
<g id="edge1" class="edge"><title>Node1&#45;&gt;Node2</title>
<path fill="none" stroke="midnightblue" d="M87.7315,-36.1409C99.8828,-37.9588 112.857,-39.8998 124.715,-41.6739"/>
<polygon fill="midnightblue" stroke="midnightblue" points="88.1682,-32.6674 77.7603,-34.6492 87.1324,-39.5903 88.1682,-32.6674"/>
</g>
<!-- Node9 -->
<g id="node9" class="node"><title>Node9</title>
<g id="a_node9"><a xlink:href="transskip_8cc.html#a0476ce376b2b4276828a9b197a43d75a" target="_top" xlink:title="transskip_delete_org">
<polygon fill="none" stroke="black" points="114.5,-0.5 114.5,-19.5 221.5,-19.5 221.5,-0.5 114.5,-0.5"/>
<text text-anchor="middle" x="168" y="-7.5" font-family="Helvetica,sans-Serif" font-size="10.00">transskip_delete_org</text>
</a>
</g>
</g>
<!-- Node1&#45;&gt;Node9 -->
<g id="edge11" class="edge"><title>Node1&#45;&gt;Node9</title>
<path fill="none" stroke="midnightblue" d="M87.6593,-21.8699C96.2904,-20.5786 105.339,-19.2249 114.109,-17.9128"/>
<polygon fill="midnightblue" stroke="midnightblue" points="87.1324,-18.4097 77.7603,-23.3508 88.1682,-25.3326 87.1324,-18.4097"/>
</g>
<!-- Node3 -->
<g id="node3" class="node"><title>Node3</title>
<g id="a_node3"><a xlink:href="transskip_8cc.html#a4ae3b77271a6617ab4b15183a6ca9601" target="_top" xlink:title="help_ops">
<polygon fill="none" stroke="black" points="258,-57.5 258,-76.5 314,-76.5 314,-57.5 258,-57.5"/>
<text text-anchor="middle" x="286" y="-64.5" font-family="Helvetica,sans-Serif" font-size="10.00">help_ops</text>
</a>
</g>
</g>
<!-- Node2&#45;&gt;Node3 -->
<g id="edge2" class="edge"><title>Node2&#45;&gt;Node3</title>
<path fill="none" stroke="midnightblue" d="M221.218,-56.5529C233.857,-58.6231 246.866,-60.7539 257.812,-62.5468"/>
<polygon fill="midnightblue" stroke="midnightblue" points="221.641,-53.0757 211.207,-54.9132 220.51,-59.9836 221.641,-53.0757"/>
</g>
<!-- Node4 -->
<g id="node4" class="node"><title>Node4</title>
<g id="a_node4"><a xlink:href="transskip_8cc.html#a0d6d503fca08ea29d18df6b11d5fbcc0" target="_top" xlink:title="FinishPendingTxn">
<polygon fill="none" stroke="black" points="350.5,-19.5 350.5,-38.5 445.5,-38.5 445.5,-19.5 350.5,-19.5"/>
<text text-anchor="middle" x="398" y="-26.5" font-family="Helvetica,sans-Serif" font-size="10.00">FinishPendingTxn</text>
</a>
</g>
</g>
<!-- Node3&#45;&gt;Node4 -->
<g id="edge3" class="edge"><title>Node3&#45;&gt;Node4</title>
<path fill="none" stroke="midnightblue" d="M323.646,-54.3405C338.562,-49.1878 355.512,-43.3324 369.358,-38.5491"/>
<polygon fill="midnightblue" stroke="midnightblue" points="322.5,-51.0333 314.191,-57.6067 324.786,-57.6496 322.5,-51.0333"/>
</g>
<!-- Node7 -->
<g id="node7" class="node"><title>Node7</title>
<g id="a_node7"><a xlink:href="transskip_8h.html#ab9c29316cb91737b6c383818ff700dd0" target="_top" xlink:title="execute_ops">
<polygon fill="none" stroke="black" points="362,-133.5 362,-152.5 434,-152.5 434,-133.5 362,-133.5"/>
<text text-anchor="middle" x="398" y="-140.5" font-family="Helvetica,sans-Serif" font-size="10.00">execute_ops</text>
</a>
</g>
</g>
<!-- Node3&#45;&gt;Node7 -->
<g id="edge9" class="edge"><title>Node3&#45;&gt;Node7</title>
<path fill="none" stroke="midnightblue" d="M304.789,-83.4675C316.982,-94.2954 333.819,-108.374 350,-119 358.118,-124.331 367.571,-129.362 375.862,-133.427"/>
<polygon fill="midnightblue" stroke="midnightblue" points="306.923,-80.678 297.155,-76.573 302.231,-85.873 306.923,-80.678"/>
</g>
<!-- Node4&#45;&gt;Node2 -->
<g id="edge4" class="edge"><title>Node4&#45;&gt;Node2</title>
<path fill="none" stroke="midnightblue" d="M340.299,-33.7251C300.239,-37.0634 247.423,-41.4647 211.084,-44.493"/>
<polygon fill="midnightblue" stroke="midnightblue" points="340.776,-37.1975 350.451,-32.8791 340.195,-30.2217 340.776,-37.1975"/>
</g>
<!-- Node5 -->
<g id="node5" class="node"><title>Node5</title>
<g id="a_node5"><a xlink:href="transskip_8cc.html#a45102b19cad6e5d69fc6d1b4db42cf44" target="_top" xlink:title="transskip_delete">
<polygon fill="none" stroke="black" points="498,-81.5 498,-100.5 586,-100.5 586,-81.5 498,-81.5"/>
<text text-anchor="middle" x="542" y="-88.5" font-family="Helvetica,sans-Serif" font-size="10.00">transskip_delete</text>
</a>
</g>
</g>
<!-- Node4&#45;&gt;Node5 -->
<g id="edge5" class="edge"><title>Node4&#45;&gt;Node5</title>
<path fill="none" stroke="midnightblue" d="M430.207,-42.6258C457.037,-54.3403 495.065,-70.9437 518.865,-81.3354"/>
<polygon fill="midnightblue" stroke="midnightblue" points="431.441,-39.3455 420.876,-38.5516 428.64,-45.7607 431.441,-39.3455"/>
</g>
<!-- Node6 -->
<g id="node6" class="node"><title>Node6</title>
<g id="a_node6"><a xlink:href="transskip_8cc.html#ae89a19c5e265e1f4988a8df74d9d27f7" target="_top" xlink:title="transskip_find">
<polygon fill="none" stroke="black" points="503.5,-27.5 503.5,-46.5 580.5,-46.5 580.5,-27.5 503.5,-27.5"/>
<text text-anchor="middle" x="542" y="-34.5" font-family="Helvetica,sans-Serif" font-size="10.00">transskip_find</text>
</a>
</g>
</g>
<!-- Node4&#45;&gt;Node6 -->
<g id="edge7" class="edge"><title>Node4&#45;&gt;Node6</title>
<path fill="none" stroke="midnightblue" d="M456.113,-32.2176C471.933,-33.1089 488.71,-34.0541 503.135,-34.8667"/>
<polygon fill="midnightblue" stroke="midnightblue" points="456.071,-28.7098 445.89,-31.6417 455.677,-35.6987 456.071,-28.7098"/>
</g>
<!-- Node5&#45;&gt;Node3 -->
<g id="edge6" class="edge"><title>Node5&#45;&gt;Node3</title>
<path fill="none" stroke="midnightblue" d="M487.516,-90.5747C449.099,-89.6918 396.163,-87.2931 350,-81 338.121,-79.3806 325.166,-76.6692 314.11,-74.0615"/>
<polygon fill="midnightblue" stroke="midnightblue" points="487.881,-94.0827 497.949,-90.7855 488.022,-87.0841 487.881,-94.0827"/>
</g>
<!-- Node6&#45;&gt;Node3 -->
<g id="edge8" class="edge"><title>Node6&#45;&gt;Node3</title>
<path fill="none" stroke="midnightblue" d="M493.199,-42.6458C440.301,-48.8936 356.895,-58.7446 314.182,-63.7895"/>
<polygon fill="midnightblue" stroke="midnightblue" points="493.83,-46.0957 503.351,-41.4468 493.009,-39.144 493.83,-46.0957"/>
</g>
<!-- Node8 -->
<g id="node8" class="node"><title>Node8</title>
<g id="a_node8"><a xlink:href="classSetAdaptor_3_01trans__skip_01_4.html#a7a710fc23fd33466e92b1d06ad2e5869" target="_top" xlink:title="SetAdaptor\&lt; trans_skip\l \&gt;::ExecuteOps">
<polygon fill="none" stroke="black" points="482.5,-128 482.5,-158 601.5,-158 601.5,-128 482.5,-128"/>
<text text-anchor="start" x="490.5" y="-146" font-family="Helvetica,sans-Serif" font-size="10.00">SetAdaptor&lt; trans_skip</text>
<text text-anchor="middle" x="542" y="-135" font-family="Helvetica,sans-Serif" font-size="10.00"> &gt;::ExecuteOps</text>
</a>
</g>
</g>
<!-- Node7&#45;&gt;Node8 -->
<g id="edge10" class="edge"><title>Node7&#45;&gt;Node8</title>
<path fill="none" stroke="midnightblue" d="M444.359,-143C456.414,-143 469.607,-143 482.265,-143"/>
<polygon fill="midnightblue" stroke="midnightblue" points="444.101,-139.5 434.101,-143 444.101,-146.5 444.101,-139.5"/>
</g>
</g>
</svg>
