<?xml version="1.0" encoding="UTF-8" standalone="no"?>
<!DOCTYPE svg PUBLIC "-//W3C//DTD SVG 1.1//EN"
 "http://www.w3.org/Graphics/SVG/1.1/DTD/svg11.dtd">
<!-- Generated by graphviz version 2.36.0 (20140111.2315)
 -->
<!-- Title: transskip_delete_org Pages: 1 -->
<!--zoomable 351 -->
<svg id="main" version="1.1" xmlns="http://www.w3.org/2000/svg" xmlns:xlink="http://www.w3.org/1999/xlink" xml:space="preserve" onload="init(evt)">
<style type="text/css"><![CDATA[
.edge:hover path { stroke: red; }
.edge:hover polygon { stroke: red; fill: red; }
]]></style>
<script type="text/javascript"><![CDATA[
var edges = document.getElementsByTagName('g');
if (edges && edges.length) {
  for (var i=0;i<edges.length;i++) {
    if (edges[i].id.substr(0,4)=='edge') {
      edges[i].setAttribute('class','edge');
    }
  }
}
]]></script>
        <defs>
                <circle id="rim" cx="0" cy="0" r="7"/>
                <circle id="rim2" cx="0" cy="0" r="3.5"/>
                <g id="zoomPlus">
                        <use xlink:href="#rim" fill="#404040">
                                <set attributeName="fill" to="#808080" begin="zoomplus.mouseover" end="zoomplus.mouseout"/>
                        </use>
                        <path d="M-4,0h8M0,-4v8" fill="none" stroke="white" stroke-width="1.5" pointer-events="none"/>
                </g>
                <g id="zoomMin">
                        <use xlink:href="#rim" fill="#404040">
                                <set attributeName="fill" to="#808080" begin="zoomminus.mouseover" end="zoomminus.mouseout"/>
                        </use>
                        <path d="M-4,0h8" fill="none" stroke="white" stroke-width="1.5" pointer-events="none"/>
                </g>
                <g id="dirArrow">
                        <path fill="none" stroke="white" stroke-width="1.5" d="M0,-3.0v7 M-2.5,-0.5L0,-3.0L2.5,-0.5"/>
                </g>
               <g id="resetDef">
                       <use xlink:href="#rim2" fill="#404040">
                               <set attributeName="fill" to="#808080" begin="reset.mouseover" end="reset.mouseout"/>
                       </use>
               </g>
        </defs>

<script type="text/javascript">
var viewWidth = 982;
var viewHeight = 351;
var sectionId = 'dynsection-30';
</script>
<script xlink:href="svgpan.js"/>
<svg id="graph" class="graph">
<g id="viewport">
<title>transskip_delete_org</title>
<!-- Node1 -->
<g id="node1" class="node"><title>Node1</title>
<polygon fill="#bfbfbf" stroke="black" points="0.5,-171.5 0.5,-190.5 107.5,-190.5 107.5,-171.5 0.5,-171.5"/>
<text text-anchor="middle" x="54" y="-178.5" font-family="Helvetica,sans-Serif" font-size="10.00">transskip_delete_org</text>
</g>
<!-- Node2 -->
<g id="node2" class="node"><title>Node2</title>
<g id="a_node2"><a xlink:href="ptst_8c.html#a9f490f3eb71074b856eb2206f97c6cb1" target="_top" xlink:title="fr_critical_enter">
<polygon fill="none" stroke="black" points="157.5,-67.5 157.5,-86.5 240.5,-86.5 240.5,-67.5 157.5,-67.5"/>
<text text-anchor="middle" x="199" y="-74.5" font-family="Helvetica,sans-Serif" font-size="10.00">fr_critical_enter</text>
</a>
</g>
</g>
<!-- Node1&#45;&gt;Node2 -->
<g id="edge1" class="edge"><title>Node1&#45;&gt;Node2</title>
<path fill="none" stroke="midnightblue" d="M64.8008,-171.301C80.5782,-156.006 112.988,-125.88 144,-105 151.43,-99.9979 159.863,-95.2369 167.82,-91.1063"/>
<polygon fill="midnightblue" stroke="midnightblue" points="169.488,-94.1857 176.854,-86.5703 166.346,-87.93 169.488,-94.1857"/>
</g>
<!-- Node12 -->
<g id="node12" class="node"><title>Node12</title>
<g id="a_node12"><a xlink:href="transskip_8cc.html#ad58834877131f5aaab060ce615d060f5" target="_top" xlink:title="weak_search_predecessors">
<polygon fill="none" stroke="black" points="292,-171.5 292,-190.5 430,-190.5 430,-171.5 292,-171.5"/>
<text text-anchor="middle" x="361" y="-178.5" font-family="Helvetica,sans-Serif" font-size="10.00">weak_search_predecessors</text>
</a>
</g>
</g>
<!-- Node1&#45;&gt;Node12 -->
<g id="edge15" class="edge"><title>Node1&#45;&gt;Node12</title>
<path fill="none" stroke="midnightblue" d="M107.779,-181C155.671,-181 226.93,-181 281.501,-181"/>
<polygon fill="midnightblue" stroke="midnightblue" points="281.833,-184.5 291.833,-181 281.833,-177.5 281.833,-184.5"/>
</g>
<!-- Node13 -->
<g id="node13" class="node"><title>Node13</title>
<g id="a_node13"><a xlink:href="lockfreelist_8cc.html#ae7e018e2dc9f9f93414a68f3e0bbd14c" target="_top" xlink:title="get_unmarked_ref">
<polygon fill="none" stroke="black" points="468.5,-228.5 468.5,-247.5 563.5,-247.5 563.5,-228.5 468.5,-228.5"/>
<text text-anchor="middle" x="516" y="-235.5" font-family="Helvetica,sans-Serif" font-size="10.00">get_unmarked_ref</text>
</a>
</g>
</g>
<!-- Node1&#45;&gt;Node13 -->
<g id="edge20" class="edge"><title>Node1&#45;&gt;Node13</title>
<path fill="none" stroke="midnightblue" d="M60.3127,-190.679C72.1556,-211.107 102.943,-258.204 144,-276 260.967,-326.698 417.471,-276.933 483.506,-251.25"/>
<polygon fill="midnightblue" stroke="midnightblue" points="484.941,-254.446 492.943,-247.502 482.357,-247.94 484.941,-254.446"/>
</g>
<!-- Node14 -->
<g id="node14" class="node"><title>Node14</title>
<g id="a_node14"><a xlink:href="transskip_8cc.html#a75266fd2f1b1dcd3213e6450a326421d" target="_top" xlink:title="mark_deleted">
<polygon fill="none" stroke="black" points="161.5,-114.5 161.5,-133.5 236.5,-133.5 236.5,-114.5 161.5,-114.5"/>
<text text-anchor="middle" x="199" y="-121.5" font-family="Helvetica,sans-Serif" font-size="10.00">mark_deleted</text>
</a>
</g>
</g>
<!-- Node1&#45;&gt;Node14 -->
<g id="edge17" class="edge"><title>Node1&#45;&gt;Node14</title>
<path fill="none" stroke="midnightblue" d="M76.4196,-171.39C94.3472,-163.458 120.669,-152.074 144,-143 149.21,-140.974 154.738,-138.92 160.192,-136.95"/>
<polygon fill="midnightblue" stroke="midnightblue" points="161.596,-140.165 169.845,-133.516 159.251,-133.57 161.596,-140.165"/>
</g>
<!-- Node17 -->
<g id="node17" class="node"><title>Node17</title>
<g id="a_node17"><a xlink:href="transskip_8cc.html#a0f45b30b9ae66fe48f2f0ca09a49069e" target="_top" xlink:title="check_for_full_delete">
<polygon fill="none" stroke="black" points="144.5,-152.5 144.5,-171.5 253.5,-171.5 253.5,-152.5 144.5,-152.5"/>
<text text-anchor="middle" x="199" y="-159.5" font-family="Helvetica,sans-Serif" font-size="10.00">check_for_full_delete</text>
</a>
</g>
</g>
<!-- Node1&#45;&gt;Node17 -->
<g id="edge21" class="edge"><title>Node1&#45;&gt;Node17</title>
<path fill="none" stroke="midnightblue" d="M107.842,-173.979C116.513,-172.827 125.577,-171.623 134.475,-170.44"/>
<polygon fill="midnightblue" stroke="midnightblue" points="134.968,-173.906 144.42,-169.119 134.046,-166.967 134.968,-173.906"/>
</g>
<!-- Node18 -->
<g id="node18" class="node"><title>Node18</title>
<g id="a_node18"><a xlink:href="transskip_8cc.html#adef6414bd01ff21125b7e1042f709ac2" target="_top" xlink:title="do_full_delete">
<polygon fill="none" stroke="black" points="160.5,-247.5 160.5,-266.5 237.5,-266.5 237.5,-247.5 160.5,-247.5"/>
<text text-anchor="middle" x="199" y="-254.5" font-family="Helvetica,sans-Serif" font-size="10.00">do_full_delete</text>
</a>
</g>
</g>
<!-- Node1&#45;&gt;Node18 -->
<g id="edge22" class="edge"><title>Node1&#45;&gt;Node18</title>
<path fill="none" stroke="midnightblue" d="M73.111,-190.625C97.8241,-203.76 142.307,-227.401 170.973,-242.636"/>
<polygon fill="midnightblue" stroke="midnightblue" points="169.563,-245.85 180.036,-247.453 172.848,-239.669 169.563,-245.85"/>
</g>
<!-- Node20 -->
<g id="node20" class="node"><title>Node20</title>
<g id="a_node20"><a xlink:href="transskip_8cc.html#a26a2b06dc93215a87d025facf8370427" target="_top" xlink:title="free_node">
<polygon fill="none" stroke="black" points="331.5,-323.5 331.5,-342.5 390.5,-342.5 390.5,-323.5 331.5,-323.5"/>
<text text-anchor="middle" x="361" y="-330.5" font-family="Helvetica,sans-Serif" font-size="10.00">free_node</text>
</a>
</g>
</g>
<!-- Node1&#45;&gt;Node20 -->
<g id="edge30" class="edge"><title>Node1&#45;&gt;Node20</title>
<path fill="none" stroke="midnightblue" d="M58.5127,-190.837C67.9322,-215.612 96.3226,-280.619 144,-309 198.893,-341.677 275.658,-341.628 321.353,-337.849"/>
<polygon fill="midnightblue" stroke="midnightblue" points="321.807,-341.322 331.44,-336.911 321.159,-334.352 321.807,-341.322"/>
</g>
<!-- Node22 -->
<g id="node22" class="node"><title>Node22</title>
<g id="a_node22"><a xlink:href="stmskip_8cc.html#a5db6833ad98c08797c5dffd75d264833" target="_top" xlink:title="fr_critical_exit">
<polygon fill="none" stroke="black" points="160.5,-29.5 160.5,-48.5 237.5,-48.5 237.5,-29.5 160.5,-29.5"/>
<text text-anchor="middle" x="199" y="-36.5" font-family="Helvetica,sans-Serif" font-size="10.00">fr_critical_exit</text>
</a>
</g>
</g>
<!-- Node1&#45;&gt;Node22 -->
<g id="edge31" class="edge"><title>Node1&#45;&gt;Node22</title>
<path fill="none" stroke="midnightblue" d="M59.3517,-171.483C70.2845,-148.598 101.126,-90.0129 144,-58 146.469,-56.1567 149.131,-54.4812 151.905,-52.96"/>
<polygon fill="midnightblue" stroke="midnightblue" points="153.515,-56.0697 161.038,-48.6095 150.505,-49.7501 153.515,-56.0697"/>
</g>
<!-- Node3 -->
<g id="node3" class="node"><title>Node3</title>
<g id="a_node3"><a xlink:href="gc_8c.html#aa06f5acb271ed4c9afcc728f3ceae52f" target="_top" xlink:title="fr_gc_init">
<polygon fill="none" stroke="black" points="333,-57.5 333,-76.5 389,-76.5 389,-57.5 333,-57.5"/>
<text text-anchor="middle" x="361" y="-64.5" font-family="Helvetica,sans-Serif" font-size="10.00">fr_gc_init</text>
</a>
</g>
</g>
<!-- Node2&#45;&gt;Node3 -->
<g id="edge2" class="edge"><title>Node2&#45;&gt;Node3</title>
<path fill="none" stroke="midnightblue" d="M240.789,-74.4507C266.065,-72.871 298.279,-70.8576 322.846,-69.3221"/>
<polygon fill="midnightblue" stroke="midnightblue" points="323.102,-72.8131 332.864,-68.696 322.665,-65.8267 323.102,-72.8131"/>
</g>
<!-- Node10 -->
<g id="node10" class="node"><title>Node10</title>
<g id="a_node10"><a xlink:href="gc_8c.html#a1b011e952f943e62b80e39768305d3fb" target="_top" xlink:title="fr_gc_enter">
<polygon fill="none" stroke="black" points="617.5,-0.5 617.5,-19.5 682.5,-19.5 682.5,-0.5 617.5,-0.5"/>
<text text-anchor="middle" x="650" y="-7.5" font-family="Helvetica,sans-Serif" font-size="10.00">fr_gc_enter</text>
</a>
</g>
</g>
<!-- Node2&#45;&gt;Node10 -->
<g id="edge12" class="edge"><title>Node2&#45;&gt;Node10</title>
<path fill="none" stroke="midnightblue" d="M227.754,-67.3636C249.51,-59.9411 278.035,-50.5326 290,-48 403.204,-24.0387 539.844,-14.8744 607.239,-11.6268"/>
<polygon fill="midnightblue" stroke="midnightblue" points="607.619,-15.113 617.447,-11.155 607.296,-8.12048 607.619,-15.113"/>
</g>
<!-- Node4 -->
<g id="node4" class="node"><title>Node4</title>
<g id="a_node4"><a xlink:href="gc_8c.html#a2a6f41199ed37925df4cc7b9909dc0ed" target="_top" xlink:title="get_empty_chunks">
<polygon fill="none" stroke="black" points="736.5,-95.5 736.5,-114.5 835.5,-114.5 835.5,-95.5 736.5,-95.5"/>
<text text-anchor="middle" x="786" y="-102.5" font-family="Helvetica,sans-Serif" font-size="10.00">get_empty_chunks</text>
</a>
</g>
</g>
<!-- Node3&#45;&gt;Node4 -->
<g id="edge3" class="edge"><title>Node3&#45;&gt;Node4</title>
<path fill="none" stroke="midnightblue" d="M389.409,-72.1802C410.786,-76.1554 441.238,-81.6767 468,-86 526.513,-95.4523 540.88,-100.767 600,-105 641.987,-108.006 689.472,-107.934 725.821,-107.148"/>
<polygon fill="midnightblue" stroke="midnightblue" points="726.331,-110.637 736.243,-106.897 726.162,-103.639 726.331,-110.637"/>
</g>
<!-- Node7 -->
<g id="node7" class="node"><title>Node7</title>
<g id="a_node7"><a xlink:href="gc_8c.html#a6dffa65320ddab40d01f198433b3aeb6" target="_top" xlink:title="get_alloc_chunk">
<polygon fill="none" stroke="black" points="472.5,-57.5 472.5,-76.5 559.5,-76.5 559.5,-57.5 472.5,-57.5"/>
<text text-anchor="middle" x="516" y="-64.5" font-family="Helvetica,sans-Serif" font-size="10.00">get_alloc_chunk</text>
</a>
</g>
</g>
<!-- Node3&#45;&gt;Node7 -->
<g id="edge6" class="edge"><title>Node3&#45;&gt;Node7</title>
<path fill="none" stroke="midnightblue" d="M389.001,-67C409.193,-67 437.449,-67 462.086,-67"/>
<polygon fill="midnightblue" stroke="midnightblue" points="462.39,-70.5001 472.39,-67 462.39,-63.5001 462.39,-70.5001"/>
</g>
<!-- Node9 -->
<g id="node9" class="node"><title>Node9</title>
<g id="a_node9"><a xlink:href="gc_8c.html#afb494e950c8c6b5661974748ae89b61e" target="_top" xlink:title="chunk_from_cache">
<polygon fill="none" stroke="black" points="600.5,-152.5 600.5,-171.5 699.5,-171.5 699.5,-152.5 600.5,-152.5"/>
<text text-anchor="middle" x="650" y="-159.5" font-family="Helvetica,sans-Serif" font-size="10.00">chunk_from_cache</text>
</a>
</g>
</g>
<!-- Node3&#45;&gt;Node9 -->
<g id="edge10" class="edge"><title>Node3&#45;&gt;Node9</title>
<path fill="none" stroke="midnightblue" d="M389.146,-69.8803C402.967,-72.4037 419.453,-77.1344 432,-86 454.956,-102.221 444.015,-123.343 468,-138 504.344,-160.21 552.4,-165.717 589.861,-165.936"/>
<polygon fill="midnightblue" stroke="midnightblue" points="590.151,-169.434 600.127,-165.867 590.104,-162.434 590.151,-169.434"/>
</g>
<!-- Node5 -->
<g id="node5" class="node"><title>Node5</title>
<g id="a_node5"><a xlink:href="gc_8c.html#ac360b80b93ad00f0fba18a1993e1d6a0" target="_top" xlink:title="add_chunks_to_list">
<polygon fill="none" stroke="black" points="872.5,-38.5 872.5,-57.5 973.5,-57.5 973.5,-38.5 872.5,-38.5"/>
<text text-anchor="middle" x="923" y="-45.5" font-family="Helvetica,sans-Serif" font-size="10.00">add_chunks_to_list</text>
</a>
</g>
</g>
<!-- Node4&#45;&gt;Node5 -->
<g id="edge4" class="edge"><title>Node4&#45;&gt;Node5</title>
<path fill="none" stroke="midnightblue" d="M809.596,-95.4595C831.596,-86.1706 865.243,-71.9642 889.993,-61.5143"/>
<polygon fill="midnightblue" stroke="midnightblue" points="891.479,-64.6858 899.33,-57.5716 888.756,-58.237 891.479,-64.6858"/>
</g>
<!-- Node6 -->
<g id="node6" class="node"><title>Node6</title>
<g id="a_node6"><a xlink:href="gc_8c.html#ade31863985bdaa481ade142bdfb6d99f" target="_top" xlink:title="alloc_more_chunks">
<polygon fill="none" stroke="black" points="872.5,-95.5 872.5,-114.5 973.5,-114.5 973.5,-95.5 872.5,-95.5"/>
<text text-anchor="middle" x="923" y="-102.5" font-family="Helvetica,sans-Serif" font-size="10.00">alloc_more_chunks</text>
</a>
</g>
</g>
<!-- Node4&#45;&gt;Node6 -->
<g id="edge5" class="edge"><title>Node4&#45;&gt;Node6</title>
<path fill="none" stroke="midnightblue" d="M835.738,-105C844.315,-105 853.331,-105 862.169,-105"/>
<polygon fill="midnightblue" stroke="midnightblue" points="862.426,-108.5 872.426,-105 862.426,-101.5 862.426,-108.5"/>
</g>
<!-- Node7&#45;&gt;Node5 -->
<g id="edge9" class="edge"><title>Node7&#45;&gt;Node5</title>
<path fill="none" stroke="midnightblue" d="M559.577,-65.0026C632.101,-61.6002 779.765,-54.6728 862.472,-50.7927"/>
<polygon fill="midnightblue" stroke="midnightblue" points="862.647,-54.2884 872.472,-50.3235 862.319,-47.2961 862.647,-54.2884"/>
</g>
<!-- Node8 -->
<g id="node8" class="node"><title>Node8</title>
<g id="a_node8"><a xlink:href="gc_8c.html#ae47e099483bed50da4e41b906c300b99" target="_top" xlink:title="get_filled_chunks">
<polygon fill="none" stroke="black" points="604,-76.5 604,-95.5 696,-95.5 696,-76.5 604,-76.5"/>
<text text-anchor="middle" x="650" y="-83.5" font-family="Helvetica,sans-Serif" font-size="10.00">get_filled_chunks</text>
</a>
</g>
</g>
<!-- Node7&#45;&gt;Node8 -->
<g id="edge7" class="edge"><title>Node7&#45;&gt;Node8</title>
<path fill="none" stroke="midnightblue" d="M559.857,-73.1688C570.577,-74.7118 582.23,-76.3892 593.468,-78.0067"/>
<polygon fill="midnightblue" stroke="midnightblue" points="593.236,-81.5093 603.632,-79.4698 594.233,-74.5807 593.236,-81.5093"/>
</g>
<!-- Node8&#45;&gt;Node4 -->
<g id="edge8" class="edge"><title>Node8&#45;&gt;Node4</title>
<path fill="none" stroke="midnightblue" d="M696.366,-92.4325C706.047,-93.8052 716.403,-95.2735 726.497,-96.7048"/>
<polygon fill="midnightblue" stroke="midnightblue" points="726.077,-100.18 736.469,-98.1187 727.059,-93.2494 726.077,-100.18"/>
</g>
<!-- Node9&#45;&gt;Node4 -->
<g id="edge11" class="edge"><title>Node9&#45;&gt;Node4</title>
<path fill="none" stroke="midnightblue" d="M673.429,-152.459C695.266,-143.171 728.663,-128.964 753.23,-118.514"/>
<polygon fill="midnightblue" stroke="midnightblue" points="754.666,-121.707 762.498,-114.572 751.926,-115.265 754.666,-121.707"/>
</g>
<!-- Node11 -->
<g id="node11" class="node"><title>Node11</title>
<g id="a_node11"><a xlink:href="gc_8c.html#a8c8094a35212fa8ed75ed9a4a38c7b9c" target="_top" xlink:title="gc_reclaim">
<polygon fill="none" stroke="black" points="754,-0.5 754,-19.5 818,-19.5 818,-0.5 754,-0.5"/>
<text text-anchor="middle" x="786" y="-7.5" font-family="Helvetica,sans-Serif" font-size="10.00">gc_reclaim</text>
</a>
</g>
</g>
<!-- Node10&#45;&gt;Node11 -->
<g id="edge13" class="edge"><title>Node10&#45;&gt;Node11</title>
<path fill="none" stroke="midnightblue" d="M682.756,-10C700.994,-10 724.102,-10 743.734,-10"/>
<polygon fill="midnightblue" stroke="midnightblue" points="743.934,-13.5001 753.934,-10 743.934,-6.5001 743.934,-13.5001"/>
</g>
<!-- Node11&#45;&gt;Node5 -->
<g id="edge14" class="edge"><title>Node11&#45;&gt;Node5</title>
<path fill="none" stroke="midnightblue" d="M818.311,-18.8135C836.087,-23.8172 858.618,-30.1591 878.132,-35.652"/>
<polygon fill="midnightblue" stroke="midnightblue" points="877.447,-39.095 888.021,-38.4355 879.343,-32.3569 877.447,-39.095"/>
</g>
<!-- Node12&#45;&gt;Node13 -->
<g id="edge16" class="edge"><title>Node12&#45;&gt;Node13</title>
<path fill="none" stroke="midnightblue" d="M403.211,-190.561C412.794,-193.229 422.862,-196.399 432,-200 448.832,-206.632 451.592,-211.378 468,-219 472.061,-220.886 476.364,-222.774 480.652,-224.586"/>
<polygon fill="midnightblue" stroke="midnightblue" points="479.339,-227.831 489.918,-228.408 482.008,-221.359 479.339,-227.831"/>
</g>
<!-- Node15 -->
<g id="node15" class="node"><title>Node15</title>
<g id="a_node15"><a xlink:href="lockfreelist_8cc.html#af3132c9d8404c5dc002b587f7318bdab" target="_top" xlink:title="is_marked_ref">
<polygon fill="none" stroke="black" points="477,-190.5 477,-209.5 555,-209.5 555,-190.5 477,-190.5"/>
<text text-anchor="middle" x="516" y="-197.5" font-family="Helvetica,sans-Serif" font-size="10.00">is_marked_ref</text>
</a>
</g>
</g>
<!-- Node14&#45;&gt;Node15 -->
<g id="edge18" class="edge"><title>Node14&#45;&gt;Node15</title>
<path fill="none" stroke="midnightblue" d="M236.854,-126.978C283.204,-131.415 364.849,-141.533 432,-162 442.748,-165.276 467.054,-176.581 486.601,-186.016"/>
<polygon fill="midnightblue" stroke="midnightblue" points="485.21,-189.231 495.734,-190.454 488.269,-182.935 485.21,-189.231"/>
</g>
<!-- Node16 -->
<g id="node16" class="node"><title>Node16</title>
<g id="a_node16"><a xlink:href="lockfreelist_8cc.html#ab5987734a79eab6f7785885ac14c1285" target="_top" xlink:title="get_marked_ref">
<polygon fill="none" stroke="black" points="319,-95.5 319,-114.5 403,-114.5 403,-95.5 319,-95.5"/>
<text text-anchor="middle" x="361" y="-102.5" font-family="Helvetica,sans-Serif" font-size="10.00">get_marked_ref</text>
</a>
</g>
</g>
<!-- Node14&#45;&gt;Node16 -->
<g id="edge19" class="edge"><title>Node14&#45;&gt;Node16</title>
<path fill="none" stroke="midnightblue" d="M236.707,-119.641C258.085,-117.102 285.365,-113.863 308.827,-111.077"/>
<polygon fill="midnightblue" stroke="midnightblue" points="309.443,-114.528 318.96,-109.874 308.617,-107.577 309.443,-114.528"/>
</g>
<!-- Node18&#45;&gt;Node13 -->
<g id="edge26" class="edge"><title>Node18&#45;&gt;Node13</title>
<path fill="none" stroke="midnightblue" d="M237.683,-254.727C292.367,-251.429 394.142,-245.29 458.021,-241.437"/>
<polygon fill="midnightblue" stroke="midnightblue" points="458.551,-244.911 468.322,-240.815 458.13,-237.924 458.551,-244.911"/>
</g>
<!-- Node19 -->
<g id="node19" class="node"><title>Node19</title>
<g id="a_node19"><a xlink:href="transskip_8cc.html#a8df32de13951af05c7685b1698ce80dd" target="_top" xlink:title="strong_search_predecessors">
<polygon fill="none" stroke="black" points="290,-209.5 290,-228.5 432,-228.5 432,-209.5 290,-209.5"/>
<text text-anchor="middle" x="361" y="-216.5" font-family="Helvetica,sans-Serif" font-size="10.00">strong_search_predecessors</text>
</a>
</g>
</g>
<!-- Node18&#45;&gt;Node19 -->
<g id="edge23" class="edge"><title>Node18&#45;&gt;Node19</title>
<path fill="none" stroke="midnightblue" d="M237.513,-248.091C259.173,-242.947 286.686,-236.412 310.147,-230.84"/>
<polygon fill="midnightblue" stroke="midnightblue" points="311.005,-234.234 319.925,-228.518 309.387,-227.423 311.005,-234.234"/>
</g>
<!-- Node18&#45;&gt;Node20 -->
<g id="edge27" class="edge"><title>Node18&#45;&gt;Node20</title>
<path fill="none" stroke="midnightblue" d="M220.264,-266.625C248.156,-279.874 298.554,-303.813 330.592,-319.031"/>
<polygon fill="midnightblue" stroke="midnightblue" points="329.366,-322.324 339.9,-323.453 332.369,-316.001 329.366,-322.324"/>
</g>
<!-- Node19&#45;&gt;Node13 -->
<g id="edge25" class="edge"><title>Node19&#45;&gt;Node13</title>
<path fill="none" stroke="midnightblue" d="M432.231,-227.721C440.943,-228.803 449.765,-229.899 458.24,-230.951"/>
<polygon fill="midnightblue" stroke="midnightblue" points="458.019,-234.451 468.374,-232.21 458.882,-227.504 458.019,-234.451"/>
</g>
<!-- Node19&#45;&gt;Node15 -->
<g id="edge24" class="edge"><title>Node19&#45;&gt;Node15</title>
<path fill="none" stroke="midnightblue" d="M432.231,-210.279C443.899,-208.83 455.763,-207.356 466.727,-205.995"/>
<polygon fill="midnightblue" stroke="midnightblue" points="467.435,-209.434 476.928,-204.728 466.573,-202.487 467.435,-209.434"/>
</g>
<!-- Node21 -->
<g id="node21" class="node"><title>Node21</title>
<g id="a_node21"><a xlink:href="gc_8c.html#a80f4a5c119aa70ab0452a73dfac21bbd" target="_top" xlink:title="fr_gc_free">
<polygon fill="none" stroke="black" points="486,-285.5 486,-304.5 546,-304.5 546,-285.5 486,-285.5"/>
<text text-anchor="middle" x="516" y="-292.5" font-family="Helvetica,sans-Serif" font-size="10.00">fr_gc_free</text>
</a>
</g>
</g>
<!-- Node20&#45;&gt;Node21 -->
<g id="edge28" class="edge"><title>Node20&#45;&gt;Node21</title>
<path fill="none" stroke="midnightblue" d="M390.778,-325.852C414.88,-319.866 449.504,-311.267 476.079,-304.667"/>
<polygon fill="midnightblue" stroke="midnightblue" points="476.969,-308.052 485.831,-302.245 475.282,-301.258 476.969,-308.052"/>
</g>
<!-- Node21&#45;&gt;Node9 -->
<g id="edge29" class="edge"><title>Node21&#45;&gt;Node9</title>
<path fill="none" stroke="midnightblue" d="M530.237,-285.214C539.924,-277.838 553.204,-267.269 564,-257 590.679,-231.622 618.583,-199.104 634.851,-179.446"/>
<polygon fill="midnightblue" stroke="midnightblue" points="637.628,-181.579 641.267,-171.629 632.217,-177.138 637.628,-181.579"/>
</g>
</g>
</svg>
        <g id="navigator" transform="translate(0 0)" fill="#404254">
                <rect fill="#f2f5e9" fill-opacity="0.5" stroke="#606060" stroke-width=".5" x="0" y="0" width="60" height="60"/>
                <use id="zoomplus" xlink:href="#zoomPlus" x="17" y="9" onmousedown="handleZoom(evt,'in')"/>
                <use id="zoomminus" xlink:href="#zoomMin" x="42" y="9" onmousedown="handleZoom(evt,'out')"/>
                <use id="reset" xlink:href="#resetDef" x="30" y="36" onmousedown="handleReset()"/>
                <g id="arrowUp" xlink:href="#dirArrow" transform="translate(30 24)" onmousedown="handlePan(0,-1)">
                  <use xlink:href="#rim" fill="#404040">
                        <set attributeName="fill" to="#808080" begin="arrowUp.mouseover" end="arrowUp.mouseout"/>
                  </use>
                  <path fill="none" stroke="white" stroke-width="1.5" d="M0,-3.0v7 M-2.5,-0.5L0,-3.0L2.5,-0.5"/>
                </g>
                <g id="arrowRight" xlink:href="#dirArrow" transform="rotate(90) translate(36 -43)" onmousedown="handlePan(1,0)">
                  <use xlink:href="#rim" fill="#404040">
                        <set attributeName="fill" to="#808080" begin="arrowRight.mouseover" end="arrowRight.mouseout"/>
                  </use>
                  <path fill="none" stroke="white" stroke-width="1.5" d="M0,-3.0v7 M-2.5,-0.5L0,-3.0L2.5,-0.5"/>
                </g>
                <g id="arrowDown" xlink:href="#dirArrow" transform="rotate(180) translate(-30 -48)" onmousedown="handlePan(0,1)">
                  <use xlink:href="#rim" fill="#404040">
                        <set attributeName="fill" to="#808080" begin="arrowDown.mouseover" end="arrowDown.mouseout"/>
                  </use>
                  <path fill="none" stroke="white" stroke-width="1.5" d="M0,-3.0v7 M-2.5,-0.5L0,-3.0L2.5,-0.5"/>
                </g>
                <g id="arrowLeft" xlink:href="#dirArrow" transform="rotate(270) translate(-36 17)" onmousedown="handlePan(-1,0)">
                  <use xlink:href="#rim" fill="#404040">
                        <set attributeName="fill" to="#808080" begin="arrowLeft.mouseover" end="arrowLeft.mouseout"/>
                  </use>
                  <path fill="none" stroke="white" stroke-width="1.5" d="M0,-3.0v7 M-2.5,-0.5L0,-3.0L2.5,-0.5"/>
                </g>
        </g>
        <svg viewBox="0 0 15 15" width="100%" height="30px" preserveAspectRatio="xMaxYMin meet">
         <g id="arrow_out" transform="scale(0.3 0.3)">
          <a xlink:href="transskip_8cc_a0476ce376b2b4276828a9b197a43d75a_cgraph_org.svg" target="_base">
           <rect id="button" ry="5" rx="5" y="6" x="6" height="38" width="38"
                fill="#f2f5e9" fill-opacity="0.5" stroke="#606060" stroke-width="1.0"/>
           <path id="arrow"
             d="M 11.500037,31.436501 C 11.940474,20.09759 22.043105,11.32322 32.158766,21.979434 L 37.068811,17.246167 C 37.068811,17.246167 37.088388,32 37.088388,32 L 22.160133,31.978069 C 22.160133,31.978069 26.997745,27.140456 26.997745,27.140456 C 18.528582,18.264221 13.291696,25.230495 11.500037,31.436501 z"
             style="fill:#404040;"/>
          </a>
         </g>
        </svg>
</svg>
