<?xml version="1.0" encoding="UTF-8" standalone="no"?>
<!DOCTYPE svg PUBLIC "-//W3C//DTD SVG 1.1//EN"
 "http://www.w3.org/Graphics/SVG/1.1/DTD/svg11.dtd">
<!-- Generated by graphviz version 2.36.0 (20140111.2315)
 -->
<!-- Title: IsSameOperation Pages: 1 -->
<svg width="602pt" height="176pt"
 viewBox="0.00 0.00 602.00 176.46" xmlns="http://www.w3.org/2000/svg" xmlns:xlink="http://www.w3.org/1999/xlink">
<g id="graph0" class="graph" transform="scale(1 1) rotate(0) translate(4 172.46)">
<title>IsSameOperation</title>
<!-- Node1 -->
<g id="node1" class="node"><title>Node1</title>
<polygon fill="#bfbfbf" stroke="black" points="0,-114.539 0,-133.539 92,-133.539 92,-114.539 0,-114.539"/>
<text text-anchor="middle" x="46" y="-121.539" font-family="Helvetica,sans-Serif" font-size="10.00">IsSameOperation</text>
</g>
<!-- Node2 -->
<g id="node2" class="node"><title>Node2</title>
<g id="a_node2"><a xlink:href="transskip_8cc.html#a977b7a640f81eb02b78ee08376387721" target="_top" xlink:title="transskip_insert">
<polygon fill="none" stroke="black" points="128,-114.539 128,-133.539 214,-133.539 214,-114.539 128,-114.539"/>
<text text-anchor="middle" x="171" y="-121.539" font-family="Helvetica,sans-Serif" font-size="10.00">transskip_insert</text>
</a>
</g>
</g>
<!-- Node1&#45;&gt;Node2 -->
<g id="edge1" class="edge"><title>Node1&#45;&gt;Node2</title>
<path fill="none" stroke="midnightblue" d="M102.378,-124.039C110.903,-124.039 119.586,-124.039 127.765,-124.039"/>
<polygon fill="midnightblue" stroke="midnightblue" points="102.102,-120.539 92.1022,-124.039 102.102,-127.539 102.102,-120.539"/>
</g>
<!-- Node5 -->
<g id="node5" class="node"><title>Node5</title>
<g id="a_node5"><a xlink:href="transskip_8cc.html#a45102b19cad6e5d69fc6d1b4db42cf44" target="_top" xlink:title="transskip_delete">
<polygon fill="none" stroke="black" points="490,-133.539 490,-152.539 578,-152.539 578,-133.539 490,-133.539"/>
<text text-anchor="middle" x="534" y="-140.539" font-family="Helvetica,sans-Serif" font-size="10.00">transskip_delete</text>
</a>
</g>
</g>
<!-- Node1&#45;&gt;Node5 -->
<g id="edge11" class="edge"><title>Node1&#45;&gt;Node5</title>
<path fill="none" stroke="midnightblue" d="M92.5206,-135.911C104.034,-138.583 116.419,-141.176 128,-143.039 264.285,-164.959 300.635,-175.641 438,-162.039 456.746,-160.183 477.273,-156.314 494.435,-152.549"/>
<polygon fill="midnightblue" stroke="midnightblue" points="93.209,-132.477 82.6695,-133.558 91.583,-139.285 93.209,-132.477"/>
</g>
<!-- Node6 -->
<g id="node6" class="node"><title>Node6</title>
<g id="a_node6"><a xlink:href="transskip_8cc.html#ae89a19c5e265e1f4988a8df74d9d27f7" target="_top" xlink:title="transskip_find">
<polygon fill="none" stroke="black" points="495.5,-60.5388 495.5,-79.5388 572.5,-79.5388 572.5,-60.5388 495.5,-60.5388"/>
<text text-anchor="middle" x="534" y="-67.5388" font-family="Helvetica,sans-Serif" font-size="10.00">transskip_find</text>
</a>
</g>
</g>
<!-- Node1&#45;&gt;Node6 -->
<g id="edge12" class="edge"><title>Node1&#45;&gt;Node6</title>
<path fill="none" stroke="midnightblue" d="M73.941,-109.707C124.664,-83.6283 238.556,-29.331 342,-10.0388 383.943,-2.21639 399.024,7.31961 438,-10.0388 459.849,-19.7694 454.025,-36.8834 474,-50.0388 480.503,-54.3221 488.016,-57.778 495.455,-60.5332"/>
<polygon fill="midnightblue" stroke="midnightblue" points="72.2025,-106.666 64.9408,-114.381 75.4285,-112.878 72.2025,-106.666"/>
</g>
<!-- Node3 -->
<g id="node3" class="node"><title>Node3</title>
<g id="a_node3"><a xlink:href="transskip_8cc.html#a4ae3b77271a6617ab4b15183a6ca9601" target="_top" xlink:title="help_ops">
<polygon fill="none" stroke="black" points="250,-95.5388 250,-114.539 306,-114.539 306,-95.5388 250,-95.5388"/>
<text text-anchor="middle" x="278" y="-102.539" font-family="Helvetica,sans-Serif" font-size="10.00">help_ops</text>
</a>
</g>
</g>
<!-- Node2&#45;&gt;Node3 -->
<g id="edge2" class="edge"><title>Node2&#45;&gt;Node3</title>
<path fill="none" stroke="midnightblue" d="M224.141,-114.604C233.087,-112.985 242.047,-111.364 249.981,-109.928"/>
<polygon fill="midnightblue" stroke="midnightblue" points="223.319,-111.196 214.103,-116.42 224.566,-118.084 223.319,-111.196"/>
</g>
<!-- Node4 -->
<g id="node4" class="node"><title>Node4</title>
<g id="a_node4"><a xlink:href="transskip_8cc.html#a0d6d503fca08ea29d18df6b11d5fbcc0" target="_top" xlink:title="FinishPendingTxn">
<polygon fill="none" stroke="black" points="342.5,-133.539 342.5,-152.539 437.5,-152.539 437.5,-133.539 342.5,-133.539"/>
<text text-anchor="middle" x="390" y="-140.539" font-family="Helvetica,sans-Serif" font-size="10.00">FinishPendingTxn</text>
</a>
</g>
</g>
<!-- Node3&#45;&gt;Node4 -->
<g id="edge3" class="edge"><title>Node3&#45;&gt;Node4</title>
<path fill="none" stroke="midnightblue" d="M315.646,-117.698C330.562,-122.851 347.512,-128.706 361.358,-133.49"/>
<polygon fill="midnightblue" stroke="midnightblue" points="316.786,-114.389 306.191,-114.432 314.5,-121.006 316.786,-114.389"/>
</g>
<!-- Node7 -->
<g id="node7" class="node"><title>Node7</title>
<g id="a_node7"><a xlink:href="transskip_8h.html#ab9c29316cb91737b6c383818ff700dd0" target="_top" xlink:title="execute_ops">
<polygon fill="none" stroke="black" points="354,-19.5388 354,-38.5388 426,-38.5388 426,-19.5388 354,-19.5388"/>
<text text-anchor="middle" x="390" y="-26.5388" font-family="Helvetica,sans-Serif" font-size="10.00">execute_ops</text>
</a>
</g>
</g>
<!-- Node3&#45;&gt;Node7 -->
<g id="edge9" class="edge"><title>Node3&#45;&gt;Node7</title>
<path fill="none" stroke="midnightblue" d="M296.789,-88.5713C308.982,-77.7434 325.819,-63.6652 342,-53.0388 350.118,-47.7078 359.571,-42.6768 367.862,-38.6113"/>
<polygon fill="midnightblue" stroke="midnightblue" points="294.231,-86.1659 289.155,-95.4659 298.923,-91.3609 294.231,-86.1659"/>
</g>
<!-- Node4&#45;&gt;Node2 -->
<g id="edge4" class="edge"><title>Node4&#45;&gt;Node2</title>
<path fill="none" stroke="midnightblue" d="M331.994,-138.048C295.024,-134.811 247.67,-130.664 214.097,-127.725"/>
<polygon fill="midnightblue" stroke="midnightblue" points="331.859,-141.549 342.126,-138.935 332.47,-134.576 331.859,-141.549"/>
</g>
<!-- Node4&#45;&gt;Node5 -->
<g id="edge5" class="edge"><title>Node4&#45;&gt;Node5</title>
<path fill="none" stroke="midnightblue" d="M447.936,-143.039C461.964,-143.039 476.755,-143.039 489.998,-143.039"/>
<polygon fill="midnightblue" stroke="midnightblue" points="447.89,-139.539 437.89,-143.039 447.89,-146.539 447.89,-139.539"/>
</g>
<!-- Node4&#45;&gt;Node6 -->
<g id="edge7" class="edge"><title>Node4&#45;&gt;Node6</title>
<path fill="none" stroke="midnightblue" d="M418.526,-128.888C446.784,-114.361 489.979,-92.1553 514.431,-79.5847"/>
<polygon fill="midnightblue" stroke="midnightblue" points="416.857,-125.81 409.564,-133.495 420.058,-132.036 416.857,-125.81"/>
</g>
<!-- Node5&#45;&gt;Node3 -->
<g id="edge6" class="edge"><title>Node5&#45;&gt;Node3</title>
<path fill="none" stroke="midnightblue" d="M479.515,-131.578C466.005,-128.893 451.501,-126.192 438,-124.039 391.878,-116.683 337.816,-110.799 306.098,-107.623"/>
<polygon fill="midnightblue" stroke="midnightblue" points="479.124,-135.069 489.619,-133.618 480.51,-128.208 479.124,-135.069"/>
</g>
<!-- Node6&#45;&gt;Node3 -->
<g id="edge8" class="edge"><title>Node6&#45;&gt;Node3</title>
<path fill="none" stroke="midnightblue" d="M484.688,-73.8819C445.954,-77.3159 390.283,-83.0442 342,-91.0388 330.172,-92.9972 317.226,-95.7643 306.162,-98.3219"/>
<polygon fill="midnightblue" stroke="midnightblue" points="485.484,-77.3261 495.144,-72.9743 484.878,-70.3523 485.484,-77.3261"/>
</g>
<!-- Node8 -->
<g id="node8" class="node"><title>Node8</title>
<g id="a_node8"><a xlink:href="classSetAdaptor_3_01trans__skip_01_4.html#a7a710fc23fd33466e92b1d06ad2e5869" target="_top" xlink:title="SetAdaptor\&lt; trans_skip\l \&gt;::ExecuteOps">
<polygon fill="none" stroke="black" points="474.5,-11.0388 474.5,-41.0388 593.5,-41.0388 593.5,-11.0388 474.5,-11.0388"/>
<text text-anchor="start" x="482.5" y="-29.0388" font-family="Helvetica,sans-Serif" font-size="10.00">SetAdaptor&lt; trans_skip</text>
<text text-anchor="middle" x="534" y="-18.0388" font-family="Helvetica,sans-Serif" font-size="10.00"> &gt;::ExecuteOps</text>
</a>
</g>
</g>
<!-- Node7&#45;&gt;Node8 -->
<g id="edge10" class="edge"><title>Node7&#45;&gt;Node8</title>
<path fill="none" stroke="midnightblue" d="M436.359,-28.0805C448.414,-27.8259 461.607,-27.5471 474.265,-27.2797"/>
<polygon fill="midnightblue" stroke="midnightblue" points="436.025,-24.5867 426.101,-28.2973 436.173,-31.5852 436.025,-24.5867"/>
</g>
</g>
</svg>
