<?xml version="1.0" encoding="UTF-8" standalone="no"?>
<!DOCTYPE svg PUBLIC "-//W3C//DTD SVG 1.1//EN"
 "http://www.w3.org/Graphics/SVG/1.1/DTD/svg11.dtd">
<!-- Generated by graphviz version 2.36.0 (20140111.2315)
 -->
<!-- Title: transskip_delete Pages: 1 -->
<svg width="476pt" height="147pt"
 viewBox="0.00 0.00 476.00 147.00" xmlns="http://www.w3.org/2000/svg" xmlns:xlink="http://www.w3.org/1999/xlink">
<g id="graph0" class="graph" transform="scale(1 1) rotate(0) translate(4 143)">
<title>transskip_delete</title>
<!-- Node1 -->
<g id="node1" class="node"><title>Node1</title>
<polygon fill="#bfbfbf" stroke="black" points="0,-19.5 0,-38.5 88,-38.5 88,-19.5 0,-19.5"/>
<text text-anchor="middle" x="44" y="-26.5" font-family="Helvetica,sans-Serif" font-size="10.00">transskip_delete</text>
</g>
<!-- Node2 -->
<g id="node2" class="node"><title>Node2</title>
<g id="a_node2"><a xlink:href="transskip_8cc.html#a4ae3b77271a6617ab4b15183a6ca9601" target="_top" xlink:title="help_ops">
<polygon fill="none" stroke="black" points="124,-38.5 124,-57.5 180,-57.5 180,-38.5 124,-38.5"/>
<text text-anchor="middle" x="152" y="-45.5" font-family="Helvetica,sans-Serif" font-size="10.00">help_ops</text>
</a>
</g>
</g>
<!-- Node1&#45;&gt;Node2 -->
<g id="edge1" class="edge"><title>Node1&#45;&gt;Node2</title>
<path fill="none" stroke="midnightblue" d="M98.0931,-38.5167C106.977,-40.1091 115.858,-41.701 123.737,-43.1132"/>
<polygon fill="midnightblue" stroke="midnightblue" points="98.5749,-35.0473 88.1143,-36.728 97.3398,-41.9375 98.5749,-35.0473"/>
</g>
<!-- Node3 -->
<g id="node3" class="node"><title>Node3</title>
<g id="a_node3"><a xlink:href="transskip_8cc.html#a0d6d503fca08ea29d18df6b11d5fbcc0" target="_top" xlink:title="FinishPendingTxn">
<polygon fill="none" stroke="black" points="216.5,-0.5 216.5,-19.5 311.5,-19.5 311.5,-0.5 216.5,-0.5"/>
<text text-anchor="middle" x="264" y="-7.5" font-family="Helvetica,sans-Serif" font-size="10.00">FinishPendingTxn</text>
</a>
</g>
</g>
<!-- Node2&#45;&gt;Node3 -->
<g id="edge2" class="edge"><title>Node2&#45;&gt;Node3</title>
<path fill="none" stroke="midnightblue" d="M189.646,-35.3405C204.562,-30.1878 221.512,-24.3324 235.358,-19.5491"/>
<polygon fill="midnightblue" stroke="midnightblue" points="188.5,-32.0333 180.191,-38.6067 190.786,-38.6496 188.5,-32.0333"/>
</g>
<!-- Node6 -->
<g id="node6" class="node"><title>Node6</title>
<g id="a_node6"><a xlink:href="transskip_8h.html#ab9c29316cb91737b6c383818ff700dd0" target="_top" xlink:title="execute_ops">
<polygon fill="none" stroke="black" points="228,-114.5 228,-133.5 300,-133.5 300,-114.5 228,-114.5"/>
<text text-anchor="middle" x="264" y="-121.5" font-family="Helvetica,sans-Serif" font-size="10.00">execute_ops</text>
</a>
</g>
</g>
<!-- Node2&#45;&gt;Node6 -->
<g id="edge8" class="edge"><title>Node2&#45;&gt;Node6</title>
<path fill="none" stroke="midnightblue" d="M170.789,-64.4675C182.982,-75.2954 199.819,-89.3736 216,-100 224.118,-105.331 233.571,-110.362 241.862,-114.427"/>
<polygon fill="midnightblue" stroke="midnightblue" points="172.923,-61.678 163.155,-57.573 168.231,-66.873 172.923,-61.678"/>
</g>
<!-- Node3&#45;&gt;Node1 -->
<g id="edge5" class="edge"><title>Node3&#45;&gt;Node1</title>
<path fill="none" stroke="midnightblue" d="M206.131,-14.9565C169.217,-18.1737 121.87,-22.3004 88.0698,-25.2462"/>
<polygon fill="midnightblue" stroke="midnightblue" points="206.588,-18.43 216.246,-14.0749 205.98,-11.4565 206.588,-18.43"/>
</g>
<!-- Node4 -->
<g id="node4" class="node"><title>Node4</title>
<g id="a_node4"><a xlink:href="transskip_8cc.html#a977b7a640f81eb02b78ee08376387721" target="_top" xlink:title="transskip_insert">
<polygon fill="none" stroke="black" points="365,-62.5 365,-81.5 451,-81.5 451,-62.5 365,-62.5"/>
<text text-anchor="middle" x="408" y="-69.5" font-family="Helvetica,sans-Serif" font-size="10.00">transskip_insert</text>
</a>
</g>
</g>
<!-- Node3&#45;&gt;Node4 -->
<g id="edge3" class="edge"><title>Node3&#45;&gt;Node4</title>
<path fill="none" stroke="midnightblue" d="M296.207,-23.6258C323.037,-35.3403 361.065,-51.9437 384.865,-62.3354"/>
<polygon fill="midnightblue" stroke="midnightblue" points="297.441,-20.3455 286.876,-19.5516 294.64,-26.7607 297.441,-20.3455"/>
</g>
<!-- Node5 -->
<g id="node5" class="node"><title>Node5</title>
<g id="a_node5"><a xlink:href="transskip_8cc.html#ae89a19c5e265e1f4988a8df74d9d27f7" target="_top" xlink:title="transskip_find">
<polygon fill="none" stroke="black" points="369.5,-8.5 369.5,-27.5 446.5,-27.5 446.5,-8.5 369.5,-8.5"/>
<text text-anchor="middle" x="408" y="-15.5" font-family="Helvetica,sans-Serif" font-size="10.00">transskip_find</text>
</a>
</g>
</g>
<!-- Node3&#45;&gt;Node5 -->
<g id="edge6" class="edge"><title>Node3&#45;&gt;Node5</title>
<path fill="none" stroke="midnightblue" d="M322.113,-13.2176C337.933,-14.1089 354.71,-15.0541 369.135,-15.8667"/>
<polygon fill="midnightblue" stroke="midnightblue" points="322.071,-9.70979 311.89,-12.6417 321.677,-16.6987 322.071,-9.70979"/>
</g>
<!-- Node4&#45;&gt;Node2 -->
<g id="edge4" class="edge"><title>Node4&#45;&gt;Node2</title>
<path fill="none" stroke="midnightblue" d="M354.265,-71.5918C315.789,-70.7229 262.463,-68.3341 216,-62 204.121,-60.3806 191.166,-57.6692 180.11,-55.0615"/>
<polygon fill="midnightblue" stroke="midnightblue" points="354.638,-75.0998 364.706,-71.7985 354.777,-68.1011 354.638,-75.0998"/>
</g>
<!-- Node5&#45;&gt;Node2 -->
<g id="edge7" class="edge"><title>Node5&#45;&gt;Node2</title>
<path fill="none" stroke="midnightblue" d="M359.199,-23.6458C306.301,-29.8936 222.895,-39.7446 180.182,-44.7895"/>
<polygon fill="midnightblue" stroke="midnightblue" points="359.83,-27.0957 369.351,-22.4468 359.009,-20.144 359.83,-27.0957"/>
</g>
<!-- Node7 -->
<g id="node7" class="node"><title>Node7</title>
<g id="a_node7"><a xlink:href="classSetAdaptor_3_01trans__skip_01_4.html#a7a710fc23fd33466e92b1d06ad2e5869" target="_top" xlink:title="SetAdaptor\&lt; trans_skip\l \&gt;::ExecuteOps">
<polygon fill="none" stroke="black" points="348.5,-109 348.5,-139 467.5,-139 467.5,-109 348.5,-109"/>
<text text-anchor="start" x="356.5" y="-127" font-family="Helvetica,sans-Serif" font-size="10.00">SetAdaptor&lt; trans_skip</text>
<text text-anchor="middle" x="408" y="-116" font-family="Helvetica,sans-Serif" font-size="10.00"> &gt;::ExecuteOps</text>
</a>
</g>
</g>
<!-- Node6&#45;&gt;Node7 -->
<g id="edge9" class="edge"><title>Node6&#45;&gt;Node7</title>
<path fill="none" stroke="midnightblue" d="M310.359,-124C322.414,-124 335.607,-124 348.265,-124"/>
<polygon fill="midnightblue" stroke="midnightblue" points="310.101,-120.5 300.101,-124 310.101,-127.5 310.101,-120.5"/>
</g>
</g>
</svg>
