<?xml version="1.0" encoding="UTF-8" standalone="no"?>
<!DOCTYPE svg PUBLIC "-//W3C//DTD SVG 1.1//EN"
 "http://www.w3.org/Graphics/SVG/1.1/DTD/svg11.dtd">
<!-- Generated by graphviz version 2.36.0 (20140111.2315)
 -->
<!-- Title: rstm/rstm&#45;dev/libitm2stm/Transaction.h Pages: 1 -->
<svg width="430pt" height="332pt"
 viewBox="0.00 0.00 430.00 332.00" xmlns="http://www.w3.org/2000/svg" xmlns:xlink="http://www.w3.org/1999/xlink">
<g id="graph0" class="graph" transform="scale(1 1) rotate(0) translate(4 328)">
<title>rstm/rstm&#45;dev/libitm2stm/Transaction.h</title>
<!-- Node1 -->
<g id="node1" class="node"><title>Node1</title>
<polygon fill="#bfbfbf" stroke="black" points="115.5,-293 115.5,-323 240.5,-323 240.5,-293 115.5,-293"/>
<text text-anchor="start" x="123.5" y="-311" font-family="Helvetica,sans-Serif" font-size="10.00">rstm/rstm&#45;dev/libitm2stm</text>
<text text-anchor="middle" x="178" y="-300" font-family="Helvetica,sans-Serif" font-size="10.00">/Transaction.h</text>
</g>
<!-- Node2 -->
<g id="node2" class="node"><title>Node2</title>
<g id="a_node2"><a xlink:href="libitm_8h.html" target="_top" xlink:title="libitm.h">
<polygon fill="none" stroke="black" points="122,-180.5 122,-199.5 170,-199.5 170,-180.5 122,-180.5"/>
<text text-anchor="middle" x="146" y="-187.5" font-family="Helvetica,sans-Serif" font-size="10.00">libitm.h</text>
</a>
</g>
</g>
<!-- Node1&#45;&gt;Node2 -->
<g id="edge1" class="edge"><title>Node1&#45;&gt;Node2</title>
<path fill="none" stroke="midnightblue" d="M174.076,-292.776C168.284,-271.781 157.445,-232.488 151.062,-209.349"/>
<polygon fill="midnightblue" stroke="midnightblue" points="154.435,-208.416 148.402,-199.707 147.687,-210.278 154.435,-208.416"/>
</g>
<!-- Node12 -->
<g id="node12" class="node"><title>Node12</title>
<g id="a_node12"><a xlink:href="Scope_8h.html" target="_top" xlink:title="Scope.h">
<polygon fill="none" stroke="black" points="180.5,-236.5 180.5,-255.5 233.5,-255.5 233.5,-236.5 180.5,-236.5"/>
<text text-anchor="middle" x="207" y="-243.5" font-family="Helvetica,sans-Serif" font-size="10.00">Scope.h</text>
</a>
</g>
</g>
<!-- Node1&#45;&gt;Node12 -->
<g id="edge12" class="edge"><title>Node1&#45;&gt;Node12</title>
<path fill="none" stroke="midnightblue" d="M184.873,-292.781C188.913,-284.422 194.058,-273.777 198.369,-264.856"/>
<polygon fill="midnightblue" stroke="midnightblue" points="201.58,-266.257 202.78,-255.731 195.277,-263.211 201.58,-266.257"/>
</g>
<!-- Node3 -->
<g id="node3" class="node"><title>Node3</title>
<g id="a_node3"><a xlink:href="itm_8h.html" target="_top" xlink:title="itm/itm.h">
<polygon fill="none" stroke="black" points="44.5,-118.5 44.5,-137.5 99.5,-137.5 99.5,-118.5 44.5,-118.5"/>
<text text-anchor="middle" x="72" y="-125.5" font-family="Helvetica,sans-Serif" font-size="10.00">itm/itm.h</text>
</a>
</g>
</g>
<!-- Node2&#45;&gt;Node3 -->
<g id="edge2" class="edge"><title>Node2&#45;&gt;Node3</title>
<path fill="none" stroke="midnightblue" d="M135.398,-180.403C123.748,-170.958 104.814,-155.606 90.6655,-144.134"/>
<polygon fill="midnightblue" stroke="midnightblue" points="92.5546,-141.16 82.5827,-137.581 88.146,-146.597 92.5546,-141.16"/>
</g>
<!-- Node6 -->
<g id="node6" class="node"><title>Node6</title>
<polygon fill="none" stroke="#bfbfbf" points="-0.5,-0.5 -0.5,-19.5 48.5,-19.5 48.5,-0.5 -0.5,-0.5"/>
<text text-anchor="middle" x="24" y="-7.5" font-family="Helvetica,sans-Serif" font-size="10.00">stdint.h</text>
</g>
<!-- Node2&#45;&gt;Node6 -->
<g id="edge8" class="edge"><title>Node2&#45;&gt;Node6</title>
<path fill="none" stroke="midnightblue" d="M121.6,-186.462C95.5627,-182.345 55.3268,-171.641 35,-144 10.0274,-110.041 14.9941,-57.1766 19.9584,-29.4293"/>
<polygon fill="midnightblue" stroke="midnightblue" points="23.414,-29.9966 21.9319,-19.506 16.5485,-28.6312 23.414,-29.9966"/>
</g>
<!-- Node9 -->
<g id="node9" class="node"><title>Node9</title>
<polygon fill="none" stroke="#bfbfbf" points="118,-118.5 118,-137.5 174,-137.5 174,-118.5 118,-118.5"/>
<text text-anchor="middle" x="146" y="-125.5" font-family="Helvetica,sans-Serif" font-size="10.00">stdbool.h</text>
</g>
<!-- Node2&#45;&gt;Node9 -->
<g id="edge9" class="edge"><title>Node2&#45;&gt;Node9</title>
<path fill="none" stroke="midnightblue" d="M146,-180.403C146,-171.938 146,-158.728 146,-147.82"/>
<polygon fill="midnightblue" stroke="midnightblue" points="149.5,-147.581 146,-137.581 142.5,-147.581 149.5,-147.581"/>
</g>
<!-- Node10 -->
<g id="node10" class="node"><title>Node10</title>
<g id="a_node10"><a xlink:href="avxintrin__emu_8h.html" target="_top" xlink:title="alt&#45;license/avxintrin\l_emu.h">
<polygon fill="none" stroke="black" points="192.5,-113 192.5,-143 293.5,-143 293.5,-113 192.5,-113"/>
<text text-anchor="start" x="200.5" y="-131" font-family="Helvetica,sans-Serif" font-size="10.00">alt&#45;license/avxintrin</text>
<text text-anchor="middle" x="243" y="-120" font-family="Helvetica,sans-Serif" font-size="10.00">_emu.h</text>
</a>
</g>
</g>
<!-- Node2&#45;&gt;Node10 -->
<g id="edge10" class="edge"><title>Node2&#45;&gt;Node10</title>
<path fill="none" stroke="midnightblue" d="M159.898,-180.403C173.281,-172.125 193.998,-159.311 211.398,-148.547"/>
<polygon fill="midnightblue" stroke="midnightblue" points="213.476,-151.378 220.139,-143.141 209.793,-145.425 213.476,-151.378"/>
</g>
<!-- Node4 -->
<g id="node4" class="node"><title>Node4</title>
<g id="a_node4"><a xlink:href="platform_8hpp.html" target="_top" xlink:title="common/platform.hpp">
<polygon fill="none" stroke="black" points="44.5,-56.5 44.5,-75.5 155.5,-75.5 155.5,-56.5 44.5,-56.5"/>
<text text-anchor="middle" x="100" y="-63.5" font-family="Helvetica,sans-Serif" font-size="10.00">common/platform.hpp</text>
</a>
</g>
</g>
<!-- Node3&#45;&gt;Node4 -->
<g id="edge3" class="edge"><title>Node3&#45;&gt;Node4</title>
<path fill="none" stroke="midnightblue" d="M76.0117,-118.403C80.087,-109.671 86.5183,-95.8893 91.6963,-84.7936"/>
<polygon fill="midnightblue" stroke="midnightblue" points="94.9385,-86.1225 95.9957,-75.5806 88.5952,-83.1623 94.9385,-86.1225"/>
</g>
<!-- Node5 -->
<g id="node5" class="node"><title>Node5</title>
<polygon fill="none" stroke="#bfbfbf" points="246.5,-0.5 246.5,-19.5 317.5,-19.5 317.5,-0.5 246.5,-0.5"/>
<text text-anchor="middle" x="282" y="-7.5" font-family="Helvetica,sans-Serif" font-size="10.00">stm/config.h</text>
</g>
<!-- Node4&#45;&gt;Node5 -->
<g id="edge4" class="edge"><title>Node4&#45;&gt;Node5</title>
<path fill="none" stroke="midnightblue" d="M128.838,-56.4435C159.856,-47.2406 209.329,-32.5617 243.618,-22.3879"/>
<polygon fill="midnightblue" stroke="midnightblue" points="244.705,-25.7164 253.296,-19.5164 242.714,-19.0055 244.705,-25.7164"/>
</g>
<!-- Node4&#45;&gt;Node6 -->
<g id="edge5" class="edge"><title>Node4&#45;&gt;Node6</title>
<path fill="none" stroke="midnightblue" d="M87.7893,-56.324C76.2241,-48.1066 58.6246,-35.6017 44.8393,-25.8069"/>
<polygon fill="midnightblue" stroke="midnightblue" points="46.612,-22.7729 36.4329,-19.8339 42.5575,-28.4791 46.612,-22.7729"/>
</g>
<!-- Node7 -->
<g id="node7" class="node"><title>Node7</title>
<polygon fill="none" stroke="#bfbfbf" points="71,-0.5 71,-19.5 119,-19.5 119,-0.5 71,-0.5"/>
<text text-anchor="middle" x="95" y="-7.5" font-family="Helvetica,sans-Serif" font-size="10.00">limits.h</text>
</g>
<!-- Node4&#45;&gt;Node7 -->
<g id="edge6" class="edge"><title>Node4&#45;&gt;Node7</title>
<path fill="none" stroke="midnightblue" d="M99.1744,-56.083C98.5191,-49.0059 97.5797,-38.8611 96.758,-29.9865"/>
<polygon fill="midnightblue" stroke="midnightblue" points="100.217,-29.3858 95.8103,-19.7511 93.2473,-30.0312 100.217,-29.3858"/>
</g>
<!-- Node8 -->
<g id="node8" class="node"><title>Node8</title>
<polygon fill="none" stroke="#bfbfbf" points="137.5,-0.5 137.5,-19.5 188.5,-19.5 188.5,-0.5 137.5,-0.5"/>
<text text-anchor="middle" x="163" y="-7.5" font-family="Helvetica,sans-Serif" font-size="10.00">unistd.h</text>
</g>
<!-- Node4&#45;&gt;Node8 -->
<g id="edge7" class="edge"><title>Node4&#45;&gt;Node8</title>
<path fill="none" stroke="midnightblue" d="M110.122,-56.324C119.526,-48.2631 133.744,-36.0765 145.069,-26.3695"/>
<polygon fill="midnightblue" stroke="midnightblue" points="147.379,-28.9993 152.694,-19.8339 142.823,-23.6844 147.379,-28.9993"/>
</g>
<!-- Node11 -->
<g id="node11" class="node"><title>Node11</title>
<polygon fill="none" stroke="#bfbfbf" points="208,-56.5 208,-75.5 278,-75.5 278,-56.5 208,-56.5"/>
<text text-anchor="middle" x="243" y="-63.5" font-family="Helvetica,sans-Serif" font-size="10.00">wmmintrin.h</text>
</g>
<!-- Node10&#45;&gt;Node11 -->
<g id="edge11" class="edge"><title>Node10&#45;&gt;Node11</title>
<path fill="none" stroke="midnightblue" d="M243,-112.781C243,-104.781 243,-94.6887 243,-86.0168"/>
<polygon fill="midnightblue" stroke="midnightblue" points="246.5,-85.7305 243,-75.7305 239.5,-85.7306 246.5,-85.7305"/>
</g>
<!-- Node12&#45;&gt;Node2 -->
<g id="edge14" class="edge"><title>Node12&#45;&gt;Node2</title>
<path fill="none" stroke="midnightblue" d="M197.199,-236.324C188.182,-228.341 174.594,-216.313 163.682,-206.653"/>
<polygon fill="midnightblue" stroke="midnightblue" points="165.787,-203.842 155.979,-199.834 161.147,-209.083 165.787,-203.842"/>
</g>
<!-- Node13 -->
<g id="node13" class="node"><title>Node13</title>
<polygon fill="none" stroke="#bfbfbf" points="188,-180.5 188,-199.5 232,-199.5 232,-180.5 188,-180.5"/>
<text text-anchor="middle" x="210" y="-187.5" font-family="Helvetica,sans-Serif" font-size="10.00">vector</text>
</g>
<!-- Node12&#45;&gt;Node13 -->
<g id="edge13" class="edge"><title>Node12&#45;&gt;Node13</title>
<path fill="none" stroke="midnightblue" d="M207.495,-236.083C207.889,-229.006 208.452,-218.861 208.945,-209.986"/>
<polygon fill="midnightblue" stroke="midnightblue" points="212.454,-209.93 209.514,-199.751 205.464,-209.542 212.454,-209.93"/>
</g>
<!-- Node14 -->
<g id="node14" class="node"><title>Node14</title>
<g id="a_node14"><a xlink:href="Checkpoint_8h.html" target="_top" xlink:title="Checkpoint.h">
<polygon fill="none" stroke="black" points="285,-180.5 285,-199.5 359,-199.5 359,-180.5 285,-180.5"/>
<text text-anchor="middle" x="322" y="-187.5" font-family="Helvetica,sans-Serif" font-size="10.00">Checkpoint.h</text>
</a>
</g>
</g>
<!-- Node12&#45;&gt;Node14 -->
<g id="edge15" class="edge"><title>Node12&#45;&gt;Node14</title>
<path fill="none" stroke="midnightblue" d="M225.222,-236.444C243.896,-227.675 273.156,-213.935 294.617,-203.858"/>
<polygon fill="midnightblue" stroke="midnightblue" points="296.299,-206.935 303.863,-199.516 293.324,-200.599 296.299,-206.935"/>
</g>
<!-- Node14&#45;&gt;Node5 -->
<g id="edge16" class="edge"><title>Node14&#45;&gt;Node5</title>
<path fill="none" stroke="midnightblue" d="M320.071,-180.415C313.935,-153.11 294.771,-67.8317 286.208,-29.7237"/>
<polygon fill="midnightblue" stroke="midnightblue" points="289.612,-28.9077 284.004,-19.9185 282.782,-30.4426 289.612,-28.9077"/>
</g>
<!-- Node15 -->
<g id="node15" class="node"><title>Node15</title>
<polygon fill="none" stroke="#bfbfbf" points="350,-118.5 350,-137.5 422,-137.5 422,-118.5 350,-118.5"/>
<text text-anchor="middle" x="386" y="-125.5" font-family="Helvetica,sans-Serif" font-size="10.00">checkpoint.h</text>
</g>
<!-- Node14&#45;&gt;Node15 -->
<g id="edge17" class="edge"><title>Node14&#45;&gt;Node15</title>
<path fill="none" stroke="midnightblue" d="M331.17,-180.403C341.15,-171.047 357.312,-155.895 369.509,-144.46"/>
<polygon fill="midnightblue" stroke="midnightblue" points="371.946,-146.973 376.847,-137.581 367.158,-141.867 371.946,-146.973"/>
</g>
</g>
</svg>
