<?xml version="1.0" encoding="UTF-8" standalone="no"?>
<!DOCTYPE svg PUBLIC "-//W3C//DTD SVG 1.1//EN"
 "http://www.w3.org/Graphics/SVG/1.1/DTD/svg11.dtd">
<!-- Generated by graphviz version 2.36.0 (20140111.2315)
 -->
<!-- Title: transskip_find_original Pages: 1 -->
<svg width="962pt" height="237pt"
 viewBox="0.00 0.00 962.00 237.00" xmlns="http://www.w3.org/2000/svg" xmlns:xlink="http://www.w3.org/1999/xlink">
<g id="graph0" class="graph" transform="scale(1 1) rotate(0) translate(4 233)">
<title>transskip_find_original</title>
<!-- Node1 -->
<g id="node1" class="node"><title>Node1</title>
<polygon fill="#bfbfbf" stroke="black" points="0.5,-38.5 0.5,-57.5 113.5,-57.5 113.5,-38.5 0.5,-38.5"/>
<text text-anchor="middle" x="57" y="-45.5" font-family="Helvetica,sans-Serif" font-size="10.00">transskip_find_original</text>
</g>
<!-- Node2 -->
<g id="node2" class="node"><title>Node2</title>
<g id="a_node2"><a xlink:href="ptst_8c.html#a9f490f3eb71074b856eb2206f97c6cb1" target="_top" xlink:title="fr_critical_enter">
<polygon fill="none" stroke="black" points="177.5,-76.5 177.5,-95.5 260.5,-95.5 260.5,-76.5 177.5,-76.5"/>
<text text-anchor="middle" x="219" y="-83.5" font-family="Helvetica,sans-Serif" font-size="10.00">fr_critical_enter</text>
</a>
</g>
</g>
<!-- Node1&#45;&gt;Node2 -->
<g id="edge1" class="edge"><title>Node1&#45;&gt;Node2</title>
<path fill="none" stroke="midnightblue" d="M98.3748,-57.589C119.488,-62.6035 145.529,-68.7881 167.917,-74.1053"/>
<polygon fill="midnightblue" stroke="midnightblue" points="167.377,-77.5744 177.916,-76.4799 168.995,-70.7639 167.377,-77.5744"/>
</g>
<!-- Node12 -->
<g id="node12" class="node"><title>Node12</title>
<g id="a_node12"><a xlink:href="transskip_8cc.html#ad58834877131f5aaab060ce615d060f5" target="_top" xlink:title="weak_search_predecessors">
<polygon fill="none" stroke="black" points="150,-38.5 150,-57.5 288,-57.5 288,-38.5 150,-38.5"/>
<text text-anchor="middle" x="219" y="-45.5" font-family="Helvetica,sans-Serif" font-size="10.00">weak_search_predecessors</text>
</a>
</g>
</g>
<!-- Node1&#45;&gt;Node12 -->
<g id="edge15" class="edge"><title>Node1&#45;&gt;Node12</title>
<path fill="none" stroke="midnightblue" d="M113.511,-48C122.036,-48 130.972,-48 139.877,-48"/>
<polygon fill="midnightblue" stroke="midnightblue" points="139.894,-51.5001 149.894,-48 139.894,-44.5001 139.894,-51.5001"/>
</g>
<!-- Node14 -->
<g id="node14" class="node"><title>Node14</title>
<g id="a_node14"><a xlink:href="stmskip_8cc.html#a5db6833ad98c08797c5dffd75d264833" target="_top" xlink:title="fr_critical_exit">
<polygon fill="none" stroke="black" points="180.5,-0.5 180.5,-19.5 257.5,-19.5 257.5,-0.5 180.5,-0.5"/>
<text text-anchor="middle" x="219" y="-7.5" font-family="Helvetica,sans-Serif" font-size="10.00">fr_critical_exit</text>
</a>
</g>
</g>
<!-- Node1&#45;&gt;Node14 -->
<g id="edge17" class="edge"><title>Node1&#45;&gt;Node14</title>
<path fill="none" stroke="midnightblue" d="M98.3748,-38.411C120.309,-33.2015 147.561,-26.7293 170.511,-21.2786"/>
<polygon fill="midnightblue" stroke="midnightblue" points="171.465,-24.6494 180.386,-18.9333 169.848,-17.8388 171.465,-24.6494"/>
</g>
<!-- Node3 -->
<g id="node3" class="node"><title>Node3</title>
<g id="a_node3"><a xlink:href="gc_8c.html#aa06f5acb271ed4c9afcc728f3ceae52f" target="_top" xlink:title="fr_gc_init">
<polygon fill="none" stroke="black" points="344,-152.5 344,-171.5 400,-171.5 400,-152.5 344,-152.5"/>
<text text-anchor="middle" x="372" y="-159.5" font-family="Helvetica,sans-Serif" font-size="10.00">fr_gc_init</text>
</a>
</g>
</g>
<!-- Node2&#45;&gt;Node3 -->
<g id="edge2" class="edge"><title>Node2&#45;&gt;Node3</title>
<path fill="none" stroke="midnightblue" d="M239.124,-95.6255C265.333,-108.817 312.6,-132.607 342.854,-147.834"/>
<polygon fill="midnightblue" stroke="midnightblue" points="341.525,-151.083 352.031,-152.453 344.672,-144.831 341.525,-151.083"/>
</g>
<!-- Node10 -->
<g id="node10" class="node"><title>Node10</title>
<g id="a_node10"><a xlink:href="gc_8c.html#a1b011e952f943e62b80e39768305d3fb" target="_top" xlink:title="fr_gc_enter">
<polygon fill="none" stroke="black" points="467.5,-66.5 467.5,-85.5 532.5,-85.5 532.5,-66.5 467.5,-66.5"/>
<text text-anchor="middle" x="500" y="-73.5" font-family="Helvetica,sans-Serif" font-size="10.00">fr_gc_enter</text>
</a>
</g>
</g>
<!-- Node2&#45;&gt;Node10 -->
<g id="edge12" class="edge"><title>Node2&#45;&gt;Node10</title>
<path fill="none" stroke="midnightblue" d="M260.569,-84.5459C313.135,-82.6618 404.313,-79.3938 457.385,-77.4916"/>
<polygon fill="midnightblue" stroke="midnightblue" points="457.601,-80.9862 467.469,-77.1301 457.35,-73.9907 457.601,-80.9862"/>
</g>
<!-- Node4 -->
<g id="node4" class="node"><title>Node4</title>
<g id="a_node4"><a xlink:href="gc_8c.html#a2a6f41199ed37925df4cc7b9909dc0ed" target="_top" xlink:title="get_empty_chunks">
<polygon fill="none" stroke="black" points="716.5,-152.5 716.5,-171.5 815.5,-171.5 815.5,-152.5 716.5,-152.5"/>
<text text-anchor="middle" x="766" y="-159.5" font-family="Helvetica,sans-Serif" font-size="10.00">get_empty_chunks</text>
</a>
</g>
</g>
<!-- Node3&#45;&gt;Node4 -->
<g id="edge3" class="edge"><title>Node3&#45;&gt;Node4</title>
<path fill="none" stroke="midnightblue" d="M400.253,-162C463.237,-162 620.067,-162 706.146,-162"/>
<polygon fill="midnightblue" stroke="midnightblue" points="706.282,-165.5 716.282,-162 706.282,-158.5 706.282,-165.5"/>
</g>
<!-- Node7 -->
<g id="node7" class="node"><title>Node7</title>
<g id="a_node7"><a xlink:href="gc_8c.html#a6dffa65320ddab40d01f198433b3aeb6" target="_top" xlink:title="get_alloc_chunk">
<polygon fill="none" stroke="black" points="456.5,-133.5 456.5,-152.5 543.5,-152.5 543.5,-133.5 456.5,-133.5"/>
<text text-anchor="middle" x="500" y="-140.5" font-family="Helvetica,sans-Serif" font-size="10.00">get_alloc_chunk</text>
</a>
</g>
</g>
<!-- Node3&#45;&gt;Node7 -->
<g id="edge6" class="edge"><title>Node3&#45;&gt;Node7</title>
<path fill="none" stroke="midnightblue" d="M400.03,-157.924C413.436,-155.903 430.109,-153.388 445.926,-151.003"/>
<polygon fill="midnightblue" stroke="midnightblue" points="446.788,-154.413 456.154,-149.461 445.744,-147.491 446.788,-154.413"/>
</g>
<!-- Node9 -->
<g id="node9" class="node"><title>Node9</title>
<g id="a_node9"><a xlink:href="gc_8c.html#afb494e950c8c6b5661974748ae89b61e" target="_top" xlink:title="chunk_from_cache">
<polygon fill="none" stroke="black" points="580.5,-209.5 580.5,-228.5 679.5,-228.5 679.5,-209.5 580.5,-209.5"/>
<text text-anchor="middle" x="630" y="-216.5" font-family="Helvetica,sans-Serif" font-size="10.00">chunk_from_cache</text>
</a>
</g>
</g>
<!-- Node3&#45;&gt;Node9 -->
<g id="edge10" class="edge"><title>Node3&#45;&gt;Node9</title>
<path fill="none" stroke="midnightblue" d="M393.005,-171.536C409.536,-179.027 433.81,-189.141 456,-195 493.33,-204.856 536.323,-210.845 570.111,-214.375"/>
<polygon fill="midnightblue" stroke="midnightblue" points="569.986,-217.88 580.285,-215.394 570.683,-210.915 569.986,-217.88"/>
</g>
<!-- Node5 -->
<g id="node5" class="node"><title>Node5</title>
<g id="a_node5"><a xlink:href="gc_8c.html#ac360b80b93ad00f0fba18a1993e1d6a0" target="_top" xlink:title="add_chunks_to_list">
<polygon fill="none" stroke="black" points="852.5,-95.5 852.5,-114.5 953.5,-114.5 953.5,-95.5 852.5,-95.5"/>
<text text-anchor="middle" x="903" y="-102.5" font-family="Helvetica,sans-Serif" font-size="10.00">add_chunks_to_list</text>
</a>
</g>
</g>
<!-- Node4&#45;&gt;Node5 -->
<g id="edge4" class="edge"><title>Node4&#45;&gt;Node5</title>
<path fill="none" stroke="midnightblue" d="M789.596,-152.459C811.596,-143.171 845.243,-128.964 869.993,-118.514"/>
<polygon fill="midnightblue" stroke="midnightblue" points="871.479,-121.686 879.33,-114.572 868.756,-115.237 871.479,-121.686"/>
</g>
<!-- Node6 -->
<g id="node6" class="node"><title>Node6</title>
<g id="a_node6"><a xlink:href="gc_8c.html#ade31863985bdaa481ade142bdfb6d99f" target="_top" xlink:title="alloc_more_chunks">
<polygon fill="none" stroke="black" points="852.5,-152.5 852.5,-171.5 953.5,-171.5 953.5,-152.5 852.5,-152.5"/>
<text text-anchor="middle" x="903" y="-159.5" font-family="Helvetica,sans-Serif" font-size="10.00">alloc_more_chunks</text>
</a>
</g>
</g>
<!-- Node4&#45;&gt;Node6 -->
<g id="edge5" class="edge"><title>Node4&#45;&gt;Node6</title>
<path fill="none" stroke="midnightblue" d="M815.738,-162C824.315,-162 833.331,-162 842.169,-162"/>
<polygon fill="midnightblue" stroke="midnightblue" points="842.426,-165.5 852.426,-162 842.426,-158.5 842.426,-165.5"/>
</g>
<!-- Node7&#45;&gt;Node5 -->
<g id="edge9" class="edge"><title>Node7&#45;&gt;Node5</title>
<path fill="none" stroke="midnightblue" d="M534.96,-133.437C548.819,-129.901 565.07,-126.218 580,-124 670.831,-110.506 777.413,-106.504 842.302,-105.369"/>
<polygon fill="midnightblue" stroke="midnightblue" points="842.405,-108.868 852.349,-105.211 842.295,-101.869 842.405,-108.868"/>
</g>
<!-- Node8 -->
<g id="node8" class="node"><title>Node8</title>
<g id="a_node8"><a xlink:href="gc_8c.html#ae47e099483bed50da4e41b906c300b99" target="_top" xlink:title="get_filled_chunks">
<polygon fill="none" stroke="black" points="584,-133.5 584,-152.5 676,-152.5 676,-133.5 584,-133.5"/>
<text text-anchor="middle" x="630" y="-140.5" font-family="Helvetica,sans-Serif" font-size="10.00">get_filled_chunks</text>
</a>
</g>
</g>
<!-- Node7&#45;&gt;Node8 -->
<g id="edge7" class="edge"><title>Node7&#45;&gt;Node8</title>
<path fill="none" stroke="midnightblue" d="M543.622,-143C553.331,-143 563.781,-143 573.926,-143"/>
<polygon fill="midnightblue" stroke="midnightblue" points="573.931,-146.5 583.931,-143 573.931,-139.5 573.931,-146.5"/>
</g>
<!-- Node8&#45;&gt;Node4 -->
<g id="edge8" class="edge"><title>Node8&#45;&gt;Node4</title>
<path fill="none" stroke="midnightblue" d="M676.366,-149.433C686.047,-150.805 696.403,-152.273 706.497,-153.705"/>
<polygon fill="midnightblue" stroke="midnightblue" points="706.077,-157.18 716.469,-155.119 707.059,-150.249 706.077,-157.18"/>
</g>
<!-- Node9&#45;&gt;Node4 -->
<g id="edge11" class="edge"><title>Node9&#45;&gt;Node4</title>
<path fill="none" stroke="midnightblue" d="M653.429,-209.459C675.266,-200.171 708.663,-185.964 733.23,-175.514"/>
<polygon fill="midnightblue" stroke="midnightblue" points="734.666,-178.707 742.498,-171.572 731.926,-172.265 734.666,-178.707"/>
</g>
<!-- Node11 -->
<g id="node11" class="node"><title>Node11</title>
<g id="a_node11"><a xlink:href="gc_8c.html#a8c8094a35212fa8ed75ed9a4a38c7b9c" target="_top" xlink:title="gc_reclaim">
<polygon fill="none" stroke="black" points="598,-57.5 598,-76.5 662,-76.5 662,-57.5 598,-57.5"/>
<text text-anchor="middle" x="630" y="-64.5" font-family="Helvetica,sans-Serif" font-size="10.00">gc_reclaim</text>
</a>
</g>
</g>
<!-- Node10&#45;&gt;Node11 -->
<g id="edge13" class="edge"><title>Node10&#45;&gt;Node11</title>
<path fill="none" stroke="midnightblue" d="M532.64,-73.7753C549.226,-72.6091 569.746,-71.1663 587.582,-69.9122"/>
<polygon fill="midnightblue" stroke="midnightblue" points="587.994,-73.392 597.724,-69.1991 587.503,-66.4092 587.994,-73.392"/>
</g>
<!-- Node11&#45;&gt;Node5 -->
<g id="edge14" class="edge"><title>Node11&#45;&gt;Node5</title>
<path fill="none" stroke="midnightblue" d="M662.139,-70.7275C698.939,-75.205 762.002,-83.1043 816,-91 824.591,-92.2562 833.653,-93.6529 842.543,-95.064"/>
<polygon fill="midnightblue" stroke="midnightblue" points="842.045,-98.5287 852.473,-96.6564 843.153,-91.617 842.045,-98.5287"/>
</g>
<!-- Node13 -->
<g id="node13" class="node"><title>Node13</title>
<g id="a_node13"><a xlink:href="lockfreelist_8cc.html#ae7e018e2dc9f9f93414a68f3e0bbd14c" target="_top" xlink:title="get_unmarked_ref">
<polygon fill="none" stroke="black" points="324.5,-38.5 324.5,-57.5 419.5,-57.5 419.5,-38.5 324.5,-38.5"/>
<text text-anchor="middle" x="372" y="-45.5" font-family="Helvetica,sans-Serif" font-size="10.00">get_unmarked_ref</text>
</a>
</g>
</g>
<!-- Node12&#45;&gt;Node13 -->
<g id="edge16" class="edge"><title>Node12&#45;&gt;Node13</title>
<path fill="none" stroke="midnightblue" d="M288.431,-48C297.085,-48 305.865,-48 314.309,-48"/>
<polygon fill="midnightblue" stroke="midnightblue" points="314.411,-51.5001 324.411,-48 314.411,-44.5001 314.411,-51.5001"/>
</g>
</g>
</svg>
