<?xml version="1.0" encoding="UTF-8" standalone="no"?>
<!DOCTYPE svg PUBLIC "-//W3C//DTD SVG 1.1//EN"
 "http://www.w3.org/Graphics/SVG/1.1/DTD/svg11.dtd">
<!-- Generated by graphviz version 2.36.0 (20140111.2315)
 -->
<!-- Title: free_node Pages: 1 -->
<!--zoomable 175 -->
<svg id="main" version="1.1" xmlns="http://www.w3.org/2000/svg" xmlns:xlink="http://www.w3.org/1999/xlink" xml:space="preserve" onload="init(evt)">
<style type="text/css"><![CDATA[
.edge:hover path { stroke: red; }
.edge:hover polygon { stroke: red; fill: red; }
]]></style>
<script type="text/javascript"><![CDATA[
var edges = document.getElementsByTagName('g');
if (edges && edges.length) {
  for (var i=0;i<edges.length;i++) {
    if (edges[i].id.substr(0,4)=='edge') {
      edges[i].setAttribute('class','edge');
    }
  }
}
]]></script>
        <defs>
                <circle id="rim" cx="0" cy="0" r="7"/>
                <circle id="rim2" cx="0" cy="0" r="3.5"/>
                <g id="zoomPlus">
                        <use xlink:href="#rim" fill="#404040">
                                <set attributeName="fill" to="#808080" begin="zoomplus.mouseover" end="zoomplus.mouseout"/>
                        </use>
                        <path d="M-4,0h8M0,-4v8" fill="none" stroke="white" stroke-width="1.5" pointer-events="none"/>
                </g>
                <g id="zoomMin">
                        <use xlink:href="#rim" fill="#404040">
                                <set attributeName="fill" to="#808080" begin="zoomminus.mouseover" end="zoomminus.mouseout"/>
                        </use>
                        <path d="M-4,0h8" fill="none" stroke="white" stroke-width="1.5" pointer-events="none"/>
                </g>
                <g id="dirArrow">
                        <path fill="none" stroke="white" stroke-width="1.5" d="M0,-3.0v7 M-2.5,-0.5L0,-3.0L2.5,-0.5"/>
                </g>
               <g id="resetDef">
                       <use xlink:href="#rim2" fill="#404040">
                               <set attributeName="fill" to="#808080" begin="reset.mouseover" end="reset.mouseout"/>
                       </use>
               </g>
        </defs>

<script type="text/javascript">
var viewWidth = 706;
var viewHeight = 175;
var sectionId = 'dynsection-13';
</script>
<script xlink:href="svgpan.js"/>
<svg id="graph" class="graph">
<g id="viewport">
<title>free_node</title>
<!-- Node1 -->
<g id="node1" class="node"><title>Node1</title>
<polygon fill="#bfbfbf" stroke="black" points="0.5,-28.5 0.5,-47.5 59.5,-47.5 59.5,-28.5 0.5,-28.5"/>
<text text-anchor="middle" x="30" y="-35.5" font-family="Helvetica,sans-Serif" font-size="10.00">free_node</text>
</g>
<!-- Node2 -->
<g id="node2" class="node"><title>Node2</title>
<g id="a_node2"><a xlink:href="transskip_8cc.html#adef6414bd01ff21125b7e1042f709ac2" target="_top" xlink:title="do_full_delete">
<polygon fill="none" stroke="black" points="96.5,-28.5 96.5,-47.5 173.5,-47.5 173.5,-28.5 96.5,-28.5"/>
<text text-anchor="middle" x="135" y="-35.5" font-family="Helvetica,sans-Serif" font-size="10.00">do_full_delete</text>
</a>
</g>
</g>
<!-- Node1&#45;&gt;Node2 -->
<g id="edge1" class="edge"><title>Node1&#45;&gt;Node2</title>
<path fill="none" stroke="midnightblue" d="M69.8894,-38C78.5122,-38 87.6376,-38 96.2155,-38"/>
<polygon fill="midnightblue" stroke="midnightblue" points="69.6913,-34.5001 59.6912,-38 69.6912,-41.5001 69.6913,-34.5001"/>
</g>
<!-- Node3 -->
<g id="node3" class="node"><title>Node3</title>
<g id="a_node3"><a xlink:href="transskip_8cc.html#a977b7a640f81eb02b78ee08376387721" target="_top" xlink:title="transskip_insert">
<polygon fill="none" stroke="black" points="221,-47.5 221,-66.5 307,-66.5 307,-47.5 221,-47.5"/>
<text text-anchor="middle" x="264" y="-54.5" font-family="Helvetica,sans-Serif" font-size="10.00">transskip_insert</text>
</a>
</g>
</g>
<!-- Node1&#45;&gt;Node3 -->
<g id="edge13" class="edge"><title>Node1&#45;&gt;Node3</title>
<path fill="none" stroke="midnightblue" d="M66.9537,-50.4826C76.2964,-53.1785 86.4275,-55.6296 96,-57 138.19,-63.0398 186.992,-62.1433 220.901,-60.2849"/>
<polygon fill="midnightblue" stroke="midnightblue" points="67.7753,-47.074 57.1891,-47.5007 65.7308,-53.7688 67.7753,-47.074"/>
</g>
<!-- Node10 -->
<g id="node10" class="node"><title>Node10</title>
<g id="a_node10"><a xlink:href="transskip_8cc.html#a0476ce376b2b4276828a9b197a43d75a" target="_top" xlink:title="transskip_delete_org">
<polygon fill="none" stroke="black" points="210.5,-0.5 210.5,-19.5 317.5,-19.5 317.5,-0.5 210.5,-0.5"/>
<text text-anchor="middle" x="264" y="-7.5" font-family="Helvetica,sans-Serif" font-size="10.00">transskip_delete_org</text>
</a>
</g>
</g>
<!-- Node1&#45;&gt;Node10 -->
<g id="edge14" class="edge"><title>Node1&#45;&gt;Node10</title>
<path fill="none" stroke="midnightblue" d="M68.3026,-25.5012C77.2801,-22.9387 86.9061,-20.5527 96,-19 133.923,-12.5249 177.327,-10.3416 210.379,-9.74196"/>
<polygon fill="midnightblue" stroke="midnightblue" points="67.0813,-22.2133 58.5052,-28.4344 69.089,-28.9192 67.0813,-22.2133"/>
</g>
<!-- Node2&#45;&gt;Node3 -->
<g id="edge2" class="edge"><title>Node2&#45;&gt;Node3</title>
<path fill="none" stroke="midnightblue" d="M183.731,-45.1409C195.883,-46.9588 208.857,-48.8998 220.715,-50.6739"/>
<polygon fill="midnightblue" stroke="midnightblue" points="184.168,-41.6674 173.76,-43.6492 183.132,-48.5903 184.168,-41.6674"/>
</g>
<!-- Node2&#45;&gt;Node10 -->
<g id="edge12" class="edge"><title>Node2&#45;&gt;Node10</title>
<path fill="none" stroke="midnightblue" d="M183.529,-27.5211C195.431,-24.8971 208.133,-22.0966 219.811,-19.522"/>
<polygon fill="midnightblue" stroke="midnightblue" points="182.772,-24.1039 173.76,-29.6749 184.279,-30.9397 182.772,-24.1039"/>
</g>
<!-- Node4 -->
<g id="node4" class="node"><title>Node4</title>
<g id="a_node4"><a xlink:href="transskip_8cc.html#a4ae3b77271a6617ab4b15183a6ca9601" target="_top" xlink:title="help_ops">
<polygon fill="none" stroke="black" points="354,-66.5 354,-85.5 410,-85.5 410,-66.5 354,-66.5"/>
<text text-anchor="middle" x="382" y="-73.5" font-family="Helvetica,sans-Serif" font-size="10.00">help_ops</text>
</a>
</g>
</g>
<!-- Node3&#45;&gt;Node4 -->
<g id="edge3" class="edge"><title>Node3&#45;&gt;Node4</title>
<path fill="none" stroke="midnightblue" d="M317.218,-65.5529C329.857,-67.6231 342.866,-69.7539 353.812,-71.5468"/>
<polygon fill="midnightblue" stroke="midnightblue" points="317.641,-62.0757 307.207,-63.9132 316.51,-68.9836 317.641,-62.0757"/>
</g>
<!-- Node5 -->
<g id="node5" class="node"><title>Node5</title>
<g id="a_node5"><a xlink:href="transskip_8cc.html#a0d6d503fca08ea29d18df6b11d5fbcc0" target="_top" xlink:title="FinishPendingTxn">
<polygon fill="none" stroke="black" points="446.5,-28.5 446.5,-47.5 541.5,-47.5 541.5,-28.5 446.5,-28.5"/>
<text text-anchor="middle" x="494" y="-35.5" font-family="Helvetica,sans-Serif" font-size="10.00">FinishPendingTxn</text>
</a>
</g>
</g>
<!-- Node4&#45;&gt;Node5 -->
<g id="edge4" class="edge"><title>Node4&#45;&gt;Node5</title>
<path fill="none" stroke="midnightblue" d="M419.646,-63.3405C434.562,-58.1878 451.512,-52.3324 465.358,-47.5491"/>
<polygon fill="midnightblue" stroke="midnightblue" points="418.5,-60.0333 410.191,-66.6067 420.786,-66.6496 418.5,-60.0333"/>
</g>
<!-- Node8 -->
<g id="node8" class="node"><title>Node8</title>
<g id="a_node8"><a xlink:href="transskip_8h.html#ab9c29316cb91737b6c383818ff700dd0" target="_top" xlink:title="execute_ops">
<polygon fill="none" stroke="black" points="458,-142.5 458,-161.5 530,-161.5 530,-142.5 458,-142.5"/>
<text text-anchor="middle" x="494" y="-149.5" font-family="Helvetica,sans-Serif" font-size="10.00">execute_ops</text>
</a>
</g>
</g>
<!-- Node4&#45;&gt;Node8 -->
<g id="edge10" class="edge"><title>Node4&#45;&gt;Node8</title>
<path fill="none" stroke="midnightblue" d="M400.789,-92.4675C412.982,-103.295 429.819,-117.374 446,-128 454.118,-133.331 463.571,-138.362 471.862,-142.427"/>
<polygon fill="midnightblue" stroke="midnightblue" points="402.923,-89.678 393.155,-85.573 398.231,-94.873 402.923,-89.678"/>
</g>
<!-- Node5&#45;&gt;Node3 -->
<g id="edge5" class="edge"><title>Node5&#45;&gt;Node3</title>
<path fill="none" stroke="midnightblue" d="M436.299,-42.7251C396.239,-46.0634 343.423,-50.4647 307.084,-53.493"/>
<polygon fill="midnightblue" stroke="midnightblue" points="436.776,-46.1975 446.451,-41.8791 436.195,-39.2217 436.776,-46.1975"/>
</g>
<!-- Node6 -->
<g id="node6" class="node"><title>Node6</title>
<g id="a_node6"><a xlink:href="transskip_8cc.html#a45102b19cad6e5d69fc6d1b4db42cf44" target="_top" xlink:title="transskip_delete">
<polygon fill="none" stroke="black" points="594,-90.5 594,-109.5 682,-109.5 682,-90.5 594,-90.5"/>
<text text-anchor="middle" x="638" y="-97.5" font-family="Helvetica,sans-Serif" font-size="10.00">transskip_delete</text>
</a>
</g>
</g>
<!-- Node5&#45;&gt;Node6 -->
<g id="edge6" class="edge"><title>Node5&#45;&gt;Node6</title>
<path fill="none" stroke="midnightblue" d="M526.207,-51.6258C553.037,-63.3403 591.065,-79.9437 614.865,-90.3354"/>
<polygon fill="midnightblue" stroke="midnightblue" points="527.441,-48.3455 516.876,-47.5516 524.64,-54.7607 527.441,-48.3455"/>
</g>
<!-- Node7 -->
<g id="node7" class="node"><title>Node7</title>
<g id="a_node7"><a xlink:href="transskip_8cc.html#ae89a19c5e265e1f4988a8df74d9d27f7" target="_top" xlink:title="transskip_find">
<polygon fill="none" stroke="black" points="599.5,-36.5 599.5,-55.5 676.5,-55.5 676.5,-36.5 599.5,-36.5"/>
<text text-anchor="middle" x="638" y="-43.5" font-family="Helvetica,sans-Serif" font-size="10.00">transskip_find</text>
</a>
</g>
</g>
<!-- Node5&#45;&gt;Node7 -->
<g id="edge8" class="edge"><title>Node5&#45;&gt;Node7</title>
<path fill="none" stroke="midnightblue" d="M552.113,-41.2176C567.933,-42.1089 584.71,-43.0541 599.135,-43.8667"/>
<polygon fill="midnightblue" stroke="midnightblue" points="552.071,-37.7098 541.89,-40.6417 551.677,-44.6987 552.071,-37.7098"/>
</g>
<!-- Node6&#45;&gt;Node4 -->
<g id="edge7" class="edge"><title>Node6&#45;&gt;Node4</title>
<path fill="none" stroke="midnightblue" d="M583.516,-99.5747C545.099,-98.6918 492.163,-96.2931 446,-90 434.121,-88.3806 421.166,-85.6692 410.11,-83.0615"/>
<polygon fill="midnightblue" stroke="midnightblue" points="583.881,-103.083 593.949,-99.7855 584.022,-96.0841 583.881,-103.083"/>
</g>
<!-- Node7&#45;&gt;Node4 -->
<g id="edge9" class="edge"><title>Node7&#45;&gt;Node4</title>
<path fill="none" stroke="midnightblue" d="M589.199,-51.6458C536.301,-57.8936 452.895,-67.7446 410.182,-72.7895"/>
<polygon fill="midnightblue" stroke="midnightblue" points="589.83,-55.0957 599.351,-50.4468 589.009,-48.144 589.83,-55.0957"/>
</g>
<!-- Node9 -->
<g id="node9" class="node"><title>Node9</title>
<g id="a_node9"><a xlink:href="classSetAdaptor_3_01trans__skip_01_4.html#a7a710fc23fd33466e92b1d06ad2e5869" target="_top" xlink:title="SetAdaptor\&lt; trans_skip\l \&gt;::ExecuteOps">
<polygon fill="none" stroke="black" points="578.5,-137 578.5,-167 697.5,-167 697.5,-137 578.5,-137"/>
<text text-anchor="start" x="586.5" y="-155" font-family="Helvetica,sans-Serif" font-size="10.00">SetAdaptor&lt; trans_skip</text>
<text text-anchor="middle" x="638" y="-144" font-family="Helvetica,sans-Serif" font-size="10.00"> &gt;::ExecuteOps</text>
</a>
</g>
</g>
<!-- Node8&#45;&gt;Node9 -->
<g id="edge11" class="edge"><title>Node8&#45;&gt;Node9</title>
<path fill="none" stroke="midnightblue" d="M540.359,-152C552.414,-152 565.607,-152 578.265,-152"/>
<polygon fill="midnightblue" stroke="midnightblue" points="540.101,-148.5 530.101,-152 540.101,-155.5 540.101,-148.5"/>
</g>
</g>
</svg>
        <g id="navigator" transform="translate(0 0)" fill="#404254">
                <rect fill="#f2f5e9" fill-opacity="0.5" stroke="#606060" stroke-width=".5" x="0" y="0" width="60" height="60"/>
                <use id="zoomplus" xlink:href="#zoomPlus" x="17" y="9" onmousedown="handleZoom(evt,'in')"/>
                <use id="zoomminus" xlink:href="#zoomMin" x="42" y="9" onmousedown="handleZoom(evt,'out')"/>
                <use id="reset" xlink:href="#resetDef" x="30" y="36" onmousedown="handleReset()"/>
                <g id="arrowUp" xlink:href="#dirArrow" transform="translate(30 24)" onmousedown="handlePan(0,-1)">
                  <use xlink:href="#rim" fill="#404040">
                        <set attributeName="fill" to="#808080" begin="arrowUp.mouseover" end="arrowUp.mouseout"/>
                  </use>
                  <path fill="none" stroke="white" stroke-width="1.5" d="M0,-3.0v7 M-2.5,-0.5L0,-3.0L2.5,-0.5"/>
                </g>
                <g id="arrowRight" xlink:href="#dirArrow" transform="rotate(90) translate(36 -43)" onmousedown="handlePan(1,0)">
                  <use xlink:href="#rim" fill="#404040">
                        <set attributeName="fill" to="#808080" begin="arrowRight.mouseover" end="arrowRight.mouseout"/>
                  </use>
                  <path fill="none" stroke="white" stroke-width="1.5" d="M0,-3.0v7 M-2.5,-0.5L0,-3.0L2.5,-0.5"/>
                </g>
                <g id="arrowDown" xlink:href="#dirArrow" transform="rotate(180) translate(-30 -48)" onmousedown="handlePan(0,1)">
                  <use xlink:href="#rim" fill="#404040">
                        <set attributeName="fill" to="#808080" begin="arrowDown.mouseover" end="arrowDown.mouseout"/>
                  </use>
                  <path fill="none" stroke="white" stroke-width="1.5" d="M0,-3.0v7 M-2.5,-0.5L0,-3.0L2.5,-0.5"/>
                </g>
                <g id="arrowLeft" xlink:href="#dirArrow" transform="rotate(270) translate(-36 17)" onmousedown="handlePan(-1,0)">
                  <use xlink:href="#rim" fill="#404040">
                        <set attributeName="fill" to="#808080" begin="arrowLeft.mouseover" end="arrowLeft.mouseout"/>
                  </use>
                  <path fill="none" stroke="white" stroke-width="1.5" d="M0,-3.0v7 M-2.5,-0.5L0,-3.0L2.5,-0.5"/>
                </g>
        </g>
        <svg viewBox="0 0 15 15" width="100%" height="30px" preserveAspectRatio="xMaxYMin meet">
         <g id="arrow_out" transform="scale(0.3 0.3)">
          <a xlink:href="transskip_8cc_a26a2b06dc93215a87d025facf8370427_icgraph_org.svg" target="_base">
           <rect id="button" ry="5" rx="5" y="6" x="6" height="38" width="38"
                fill="#f2f5e9" fill-opacity="0.5" stroke="#606060" stroke-width="1.0"/>
           <path id="arrow"
             d="M 11.500037,31.436501 C 11.940474,20.09759 22.043105,11.32322 32.158766,21.979434 L 37.068811,17.246167 C 37.068811,17.246167 37.088388,32 37.088388,32 L 22.160133,31.978069 C 22.160133,31.978069 26.997745,27.140456 26.997745,27.140456 C 18.528582,18.264221 13.291696,25.230495 11.500037,31.436501 z"
             style="fill:#404040;"/>
          </a>
         </g>
        </svg>
</svg>
