<?xml version="1.0" encoding="UTF-8" standalone="no"?>
<!DOCTYPE svg PUBLIC "-//W3C//DTD SVG 1.1//EN"
 "http://www.w3.org/Graphics/SVG/1.1/DTD/svg11.dtd">
<!-- Generated by graphviz version 2.36.0 (20140111.2315)
 -->
<!-- Title: get_level Pages: 1 -->
<!--zoomable 147 -->
<svg id="main" version="1.1" xmlns="http://www.w3.org/2000/svg" xmlns:xlink="http://www.w3.org/1999/xlink" xml:space="preserve" onload="init(evt)">
<style type="text/css"><![CDATA[
.edge:hover path { stroke: red; }
.edge:hover polygon { stroke: red; fill: red; }
]]></style>
<script type="text/javascript"><![CDATA[
var edges = document.getElementsByTagName('g');
if (edges && edges.length) {
  for (var i=0;i<edges.length;i++) {
    if (edges[i].id.substr(0,4)=='edge') {
      edges[i].setAttribute('class','edge');
    }
  }
}
]]></script>
        <defs>
                <circle id="rim" cx="0" cy="0" r="7"/>
                <circle id="rim2" cx="0" cy="0" r="3.5"/>
                <g id="zoomPlus">
                        <use xlink:href="#rim" fill="#404040">
                                <set attributeName="fill" to="#808080" begin="zoomplus.mouseover" end="zoomplus.mouseout"/>
                        </use>
                        <path d="M-4,0h8M0,-4v8" fill="none" stroke="white" stroke-width="1.5" pointer-events="none"/>
                </g>
                <g id="zoomMin">
                        <use xlink:href="#rim" fill="#404040">
                                <set attributeName="fill" to="#808080" begin="zoomminus.mouseover" end="zoomminus.mouseout"/>
                        </use>
                        <path d="M-4,0h8" fill="none" stroke="white" stroke-width="1.5" pointer-events="none"/>
                </g>
                <g id="dirArrow">
                        <path fill="none" stroke="white" stroke-width="1.5" d="M0,-3.0v7 M-2.5,-0.5L0,-3.0L2.5,-0.5"/>
                </g>
               <g id="resetDef">
                       <use xlink:href="#rim2" fill="#404040">
                               <set attributeName="fill" to="#808080" begin="reset.mouseover" end="reset.mouseout"/>
                       </use>
               </g>
        </defs>

<script type="text/javascript">
var viewWidth = 666;
var viewHeight = 147;
var sectionId = 'dynsection-14';
</script>
<script xlink:href="svgpan.js"/>
<svg id="graph" class="graph">
<g id="viewport">
<title>get_level</title>
<!-- Node1 -->
<g id="node1" class="node"><title>Node1</title>
<polygon fill="#bfbfbf" stroke="black" points="0,-19.5 0,-38.5 56,-38.5 56,-19.5 0,-19.5"/>
<text text-anchor="middle" x="28" y="-26.5" font-family="Helvetica,sans-Serif" font-size="10.00">get_level</text>
</g>
<!-- Node2 -->
<g id="node2" class="node"><title>Node2</title>
<g id="a_node2"><a xlink:href="transskip_8cc.html#aaebbe09bfcc49916e869df817e0ef5f2" target="_top" xlink:title="alloc_node">
<polygon fill="none" stroke="black" points="92.5,-19.5 92.5,-38.5 155.5,-38.5 155.5,-19.5 92.5,-19.5"/>
<text text-anchor="middle" x="124" y="-26.5" font-family="Helvetica,sans-Serif" font-size="10.00">alloc_node</text>
</a>
</g>
</g>
<!-- Node1&#45;&gt;Node2 -->
<g id="edge1" class="edge"><title>Node1&#45;&gt;Node2</title>
<path fill="none" stroke="midnightblue" d="M66.3545,-29C74.9378,-29 83.9696,-29 92.2371,-29"/>
<polygon fill="midnightblue" stroke="midnightblue" points="66.1887,-25.5001 56.1887,-29 66.1887,-32.5001 66.1887,-25.5001"/>
</g>
<!-- Node3 -->
<g id="node3" class="node"><title>Node3</title>
<g id="a_node3"><a xlink:href="transskip_8cc.html#a977b7a640f81eb02b78ee08376387721" target="_top" xlink:title="transskip_insert">
<polygon fill="none" stroke="black" points="192,-19.5 192,-38.5 278,-38.5 278,-19.5 192,-19.5"/>
<text text-anchor="middle" x="235" y="-26.5" font-family="Helvetica,sans-Serif" font-size="10.00">transskip_insert</text>
</a>
</g>
</g>
<!-- Node2&#45;&gt;Node3 -->
<g id="edge2" class="edge"><title>Node2&#45;&gt;Node3</title>
<path fill="none" stroke="midnightblue" d="M165.732,-29C174.239,-29 183.226,-29 191.786,-29"/>
<polygon fill="midnightblue" stroke="midnightblue" points="165.653,-25.5001 155.653,-29 165.653,-32.5001 165.653,-25.5001"/>
</g>
<!-- Node4 -->
<g id="node4" class="node"><title>Node4</title>
<g id="a_node4"><a xlink:href="transskip_8cc.html#a4ae3b77271a6617ab4b15183a6ca9601" target="_top" xlink:title="help_ops">
<polygon fill="none" stroke="black" points="314,-38.5 314,-57.5 370,-57.5 370,-38.5 314,-38.5"/>
<text text-anchor="middle" x="342" y="-45.5" font-family="Helvetica,sans-Serif" font-size="10.00">help_ops</text>
</a>
</g>
</g>
<!-- Node3&#45;&gt;Node4 -->
<g id="edge3" class="edge"><title>Node3&#45;&gt;Node4</title>
<path fill="none" stroke="midnightblue" d="M288.141,-38.4351C297.087,-40.0538 306.047,-41.6751 313.981,-43.1109"/>
<polygon fill="midnightblue" stroke="midnightblue" points="288.566,-34.9552 278.103,-36.6185 287.319,-41.8433 288.566,-34.9552"/>
</g>
<!-- Node5 -->
<g id="node5" class="node"><title>Node5</title>
<g id="a_node5"><a xlink:href="transskip_8cc.html#a0d6d503fca08ea29d18df6b11d5fbcc0" target="_top" xlink:title="FinishPendingTxn">
<polygon fill="none" stroke="black" points="406.5,-0.5 406.5,-19.5 501.5,-19.5 501.5,-0.5 406.5,-0.5"/>
<text text-anchor="middle" x="454" y="-7.5" font-family="Helvetica,sans-Serif" font-size="10.00">FinishPendingTxn</text>
</a>
</g>
</g>
<!-- Node4&#45;&gt;Node5 -->
<g id="edge4" class="edge"><title>Node4&#45;&gt;Node5</title>
<path fill="none" stroke="midnightblue" d="M379.646,-35.3405C394.562,-30.1878 411.512,-24.3324 425.358,-19.5491"/>
<polygon fill="midnightblue" stroke="midnightblue" points="378.5,-32.0333 370.191,-38.6067 380.786,-38.6496 378.5,-32.0333"/>
</g>
<!-- Node8 -->
<g id="node8" class="node"><title>Node8</title>
<g id="a_node8"><a xlink:href="transskip_8h.html#ab9c29316cb91737b6c383818ff700dd0" target="_top" xlink:title="execute_ops">
<polygon fill="none" stroke="black" points="418,-114.5 418,-133.5 490,-133.5 490,-114.5 418,-114.5"/>
<text text-anchor="middle" x="454" y="-121.5" font-family="Helvetica,sans-Serif" font-size="10.00">execute_ops</text>
</a>
</g>
</g>
<!-- Node4&#45;&gt;Node8 -->
<g id="edge10" class="edge"><title>Node4&#45;&gt;Node8</title>
<path fill="none" stroke="midnightblue" d="M360.789,-64.4675C372.982,-75.2954 389.819,-89.3736 406,-100 414.118,-105.331 423.571,-110.362 431.862,-114.427"/>
<polygon fill="midnightblue" stroke="midnightblue" points="362.923,-61.678 353.155,-57.573 358.231,-66.873 362.923,-61.678"/>
</g>
<!-- Node5&#45;&gt;Node3 -->
<g id="edge5" class="edge"><title>Node5&#45;&gt;Node3</title>
<path fill="none" stroke="midnightblue" d="M395.994,-14.9913C359.024,-18.2283 311.67,-22.3745 278.097,-25.3141"/>
<polygon fill="midnightblue" stroke="midnightblue" points="396.47,-18.4632 406.126,-14.1042 395.859,-11.4898 396.47,-18.4632"/>
</g>
<!-- Node6 -->
<g id="node6" class="node"><title>Node6</title>
<g id="a_node6"><a xlink:href="transskip_8cc.html#a45102b19cad6e5d69fc6d1b4db42cf44" target="_top" xlink:title="transskip_delete">
<polygon fill="none" stroke="black" points="554,-62.5 554,-81.5 642,-81.5 642,-62.5 554,-62.5"/>
<text text-anchor="middle" x="598" y="-69.5" font-family="Helvetica,sans-Serif" font-size="10.00">transskip_delete</text>
</a>
</g>
</g>
<!-- Node5&#45;&gt;Node6 -->
<g id="edge6" class="edge"><title>Node5&#45;&gt;Node6</title>
<path fill="none" stroke="midnightblue" d="M486.207,-23.6258C513.037,-35.3403 551.065,-51.9437 574.865,-62.3354"/>
<polygon fill="midnightblue" stroke="midnightblue" points="487.441,-20.3455 476.876,-19.5516 484.64,-26.7607 487.441,-20.3455"/>
</g>
<!-- Node7 -->
<g id="node7" class="node"><title>Node7</title>
<g id="a_node7"><a xlink:href="transskip_8cc.html#ae89a19c5e265e1f4988a8df74d9d27f7" target="_top" xlink:title="transskip_find">
<polygon fill="none" stroke="black" points="559.5,-8.5 559.5,-27.5 636.5,-27.5 636.5,-8.5 559.5,-8.5"/>
<text text-anchor="middle" x="598" y="-15.5" font-family="Helvetica,sans-Serif" font-size="10.00">transskip_find</text>
</a>
</g>
</g>
<!-- Node5&#45;&gt;Node7 -->
<g id="edge8" class="edge"><title>Node5&#45;&gt;Node7</title>
<path fill="none" stroke="midnightblue" d="M512.113,-13.2176C527.933,-14.1089 544.71,-15.0541 559.135,-15.8667"/>
<polygon fill="midnightblue" stroke="midnightblue" points="512.071,-9.70979 501.89,-12.6417 511.677,-16.6987 512.071,-9.70979"/>
</g>
<!-- Node6&#45;&gt;Node4 -->
<g id="edge7" class="edge"><title>Node6&#45;&gt;Node4</title>
<path fill="none" stroke="midnightblue" d="M543.516,-71.5747C505.099,-70.6918 452.163,-68.2931 406,-62 394.121,-60.3806 381.166,-57.6692 370.11,-55.0615"/>
<polygon fill="midnightblue" stroke="midnightblue" points="543.881,-75.0827 553.949,-71.7855 544.022,-68.0841 543.881,-75.0827"/>
</g>
<!-- Node7&#45;&gt;Node4 -->
<g id="edge9" class="edge"><title>Node7&#45;&gt;Node4</title>
<path fill="none" stroke="midnightblue" d="M549.199,-23.6458C496.301,-29.8936 412.895,-39.7446 370.182,-44.7895"/>
<polygon fill="midnightblue" stroke="midnightblue" points="549.83,-27.0957 559.351,-22.4468 549.009,-20.144 549.83,-27.0957"/>
</g>
<!-- Node9 -->
<g id="node9" class="node"><title>Node9</title>
<g id="a_node9"><a xlink:href="classSetAdaptor_3_01trans__skip_01_4.html#a7a710fc23fd33466e92b1d06ad2e5869" target="_top" xlink:title="SetAdaptor\&lt; trans_skip\l \&gt;::ExecuteOps">
<polygon fill="none" stroke="black" points="538.5,-109 538.5,-139 657.5,-139 657.5,-109 538.5,-109"/>
<text text-anchor="start" x="546.5" y="-127" font-family="Helvetica,sans-Serif" font-size="10.00">SetAdaptor&lt; trans_skip</text>
<text text-anchor="middle" x="598" y="-116" font-family="Helvetica,sans-Serif" font-size="10.00"> &gt;::ExecuteOps</text>
</a>
</g>
</g>
<!-- Node8&#45;&gt;Node9 -->
<g id="edge11" class="edge"><title>Node8&#45;&gt;Node9</title>
<path fill="none" stroke="midnightblue" d="M500.359,-124C512.414,-124 525.607,-124 538.265,-124"/>
<polygon fill="midnightblue" stroke="midnightblue" points="500.101,-120.5 490.101,-124 500.101,-127.5 500.101,-120.5"/>
</g>
</g>
</svg>
        <g id="navigator" transform="translate(0 0)" fill="#404254">
                <rect fill="#f2f5e9" fill-opacity="0.5" stroke="#606060" stroke-width=".5" x="0" y="0" width="60" height="60"/>
                <use id="zoomplus" xlink:href="#zoomPlus" x="17" y="9" onmousedown="handleZoom(evt,'in')"/>
                <use id="zoomminus" xlink:href="#zoomMin" x="42" y="9" onmousedown="handleZoom(evt,'out')"/>
                <use id="reset" xlink:href="#resetDef" x="30" y="36" onmousedown="handleReset()"/>
                <g id="arrowUp" xlink:href="#dirArrow" transform="translate(30 24)" onmousedown="handlePan(0,-1)">
                  <use xlink:href="#rim" fill="#404040">
                        <set attributeName="fill" to="#808080" begin="arrowUp.mouseover" end="arrowUp.mouseout"/>
                  </use>
                  <path fill="none" stroke="white" stroke-width="1.5" d="M0,-3.0v7 M-2.5,-0.5L0,-3.0L2.5,-0.5"/>
                </g>
                <g id="arrowRight" xlink:href="#dirArrow" transform="rotate(90) translate(36 -43)" onmousedown="handlePan(1,0)">
                  <use xlink:href="#rim" fill="#404040">
                        <set attributeName="fill" to="#808080" begin="arrowRight.mouseover" end="arrowRight.mouseout"/>
                  </use>
                  <path fill="none" stroke="white" stroke-width="1.5" d="M0,-3.0v7 M-2.5,-0.5L0,-3.0L2.5,-0.5"/>
                </g>
                <g id="arrowDown" xlink:href="#dirArrow" transform="rotate(180) translate(-30 -48)" onmousedown="handlePan(0,1)">
                  <use xlink:href="#rim" fill="#404040">
                        <set attributeName="fill" to="#808080" begin="arrowDown.mouseover" end="arrowDown.mouseout"/>
                  </use>
                  <path fill="none" stroke="white" stroke-width="1.5" d="M0,-3.0v7 M-2.5,-0.5L0,-3.0L2.5,-0.5"/>
                </g>
                <g id="arrowLeft" xlink:href="#dirArrow" transform="rotate(270) translate(-36 17)" onmousedown="handlePan(-1,0)">
                  <use xlink:href="#rim" fill="#404040">
                        <set attributeName="fill" to="#808080" begin="arrowLeft.mouseover" end="arrowLeft.mouseout"/>
                  </use>
                  <path fill="none" stroke="white" stroke-width="1.5" d="M0,-3.0v7 M-2.5,-0.5L0,-3.0L2.5,-0.5"/>
                </g>
        </g>
        <svg viewBox="0 0 15 15" width="100%" height="30px" preserveAspectRatio="xMaxYMin meet">
         <g id="arrow_out" transform="scale(0.3 0.3)">
          <a xlink:href="transskip_8cc_ab6919257456cff4d47684cdfd3bc5a3c_icgraph_org.svg" target="_base">
           <rect id="button" ry="5" rx="5" y="6" x="6" height="38" width="38"
                fill="#f2f5e9" fill-opacity="0.5" stroke="#606060" stroke-width="1.0"/>
           <path id="arrow"
             d="M 11.500037,31.436501 C 11.940474,20.09759 22.043105,11.32322 32.158766,21.979434 L 37.068811,17.246167 C 37.068811,17.246167 37.088388,32 37.088388,32 L 22.160133,31.978069 C 22.160133,31.978069 26.997745,27.140456 26.997745,27.140456 C 18.528582,18.264221 13.291696,25.230495 11.500037,31.436501 z"
             style="fill:#404040;"/>
          </a>
         </g>
        </svg>
</svg>
