<?xml version="1.0" encoding="UTF-8" standalone="no"?>
<!DOCTYPE svg PUBLIC "-//W3C//DTD SVG 1.1//EN"
 "http://www.w3.org/Graphics/SVG/1.1/DTD/svg11.dtd">
<!-- Generated by graphviz version 2.36.0 (20140111.2315)
 -->
<!-- Title: check_for_full_delete Pages: 1 -->
<svg width="642pt" height="166pt"
 viewBox="0.00 0.00 642.00 166.00" xmlns="http://www.w3.org/2000/svg" xmlns:xlink="http://www.w3.org/1999/xlink">
<g id="graph0" class="graph" transform="scale(1 1) rotate(0) translate(4 162)">
<title>check_for_full_delete</title>
<!-- Node1 -->
<g id="node1" class="node"><title>Node1</title>
<polygon fill="#bfbfbf" stroke="black" points="0.5,-19.5 0.5,-38.5 109.5,-38.5 109.5,-19.5 0.5,-19.5"/>
<text text-anchor="middle" x="55" y="-26.5" font-family="Helvetica,sans-Serif" font-size="10.00">check_for_full_delete</text>
</g>
<!-- Node2 -->
<g id="node2" class="node"><title>Node2</title>
<g id="a_node2"><a xlink:href="transskip_8cc.html#a977b7a640f81eb02b78ee08376387721" target="_top" xlink:title="transskip_insert">
<polygon fill="none" stroke="black" points="157,-38.5 157,-57.5 243,-57.5 243,-38.5 157,-38.5"/>
<text text-anchor="middle" x="200" y="-45.5" font-family="Helvetica,sans-Serif" font-size="10.00">transskip_insert</text>
</a>
</g>
</g>
<!-- Node1&#45;&gt;Node2 -->
<g id="edge1" class="edge"><title>Node1&#45;&gt;Node2</title>
<path fill="none" stroke="midnightblue" d="M119.615,-37.4523C132.159,-39.119 145.031,-40.8293 156.661,-42.3745"/>
<polygon fill="midnightblue" stroke="midnightblue" points="120.029,-33.9766 109.655,-36.129 119.107,-40.9156 120.029,-33.9766"/>
</g>
<!-- Node9 -->
<g id="node9" class="node"><title>Node9</title>
<g id="a_node9"><a xlink:href="transskip_8cc.html#a0476ce376b2b4276828a9b197a43d75a" target="_top" xlink:title="transskip_delete_org">
<polygon fill="none" stroke="black" points="146.5,-0.5 146.5,-19.5 253.5,-19.5 253.5,-0.5 146.5,-0.5"/>
<text text-anchor="middle" x="200" y="-7.5" font-family="Helvetica,sans-Serif" font-size="10.00">transskip_delete_org</text>
</a>
</g>
</g>
<!-- Node1&#45;&gt;Node9 -->
<g id="edge11" class="edge"><title>Node1&#45;&gt;Node9</title>
<path fill="none" stroke="midnightblue" d="M119.668,-20.5406C128.626,-19.3504 137.75,-18.1381 146.469,-16.9796"/>
<polygon fill="midnightblue" stroke="midnightblue" points="119.107,-17.0844 109.655,-21.871 120.029,-24.0234 119.107,-17.0844"/>
</g>
<!-- Node3 -->
<g id="node3" class="node"><title>Node3</title>
<g id="a_node3"><a xlink:href="transskip_8cc.html#a4ae3b77271a6617ab4b15183a6ca9601" target="_top" xlink:title="help_ops">
<polygon fill="none" stroke="black" points="290,-57.5 290,-76.5 346,-76.5 346,-57.5 290,-57.5"/>
<text text-anchor="middle" x="318" y="-64.5" font-family="Helvetica,sans-Serif" font-size="10.00">help_ops</text>
</a>
</g>
</g>
<!-- Node2&#45;&gt;Node3 -->
<g id="edge2" class="edge"><title>Node2&#45;&gt;Node3</title>
<path fill="none" stroke="midnightblue" d="M253.218,-56.5529C265.857,-58.6231 278.866,-60.7539 289.812,-62.5468"/>
<polygon fill="midnightblue" stroke="midnightblue" points="253.641,-53.0757 243.207,-54.9132 252.51,-59.9836 253.641,-53.0757"/>
</g>
<!-- Node4 -->
<g id="node4" class="node"><title>Node4</title>
<g id="a_node4"><a xlink:href="transskip_8cc.html#a0d6d503fca08ea29d18df6b11d5fbcc0" target="_top" xlink:title="FinishPendingTxn">
<polygon fill="none" stroke="black" points="382.5,-19.5 382.5,-38.5 477.5,-38.5 477.5,-19.5 382.5,-19.5"/>
<text text-anchor="middle" x="430" y="-26.5" font-family="Helvetica,sans-Serif" font-size="10.00">FinishPendingTxn</text>
</a>
</g>
</g>
<!-- Node3&#45;&gt;Node4 -->
<g id="edge3" class="edge"><title>Node3&#45;&gt;Node4</title>
<path fill="none" stroke="midnightblue" d="M355.646,-54.3405C370.562,-49.1878 387.512,-43.3324 401.358,-38.5491"/>
<polygon fill="midnightblue" stroke="midnightblue" points="354.5,-51.0333 346.191,-57.6067 356.786,-57.6496 354.5,-51.0333"/>
</g>
<!-- Node7 -->
<g id="node7" class="node"><title>Node7</title>
<g id="a_node7"><a xlink:href="transskip_8h.html#ab9c29316cb91737b6c383818ff700dd0" target="_top" xlink:title="execute_ops">
<polygon fill="none" stroke="black" points="394,-133.5 394,-152.5 466,-152.5 466,-133.5 394,-133.5"/>
<text text-anchor="middle" x="430" y="-140.5" font-family="Helvetica,sans-Serif" font-size="10.00">execute_ops</text>
</a>
</g>
</g>
<!-- Node3&#45;&gt;Node7 -->
<g id="edge9" class="edge"><title>Node3&#45;&gt;Node7</title>
<path fill="none" stroke="midnightblue" d="M336.789,-83.4675C348.982,-94.2954 365.819,-108.374 382,-119 390.118,-124.331 399.571,-129.362 407.862,-133.427"/>
<polygon fill="midnightblue" stroke="midnightblue" points="338.923,-80.678 329.155,-76.573 334.231,-85.873 338.923,-80.678"/>
</g>
<!-- Node4&#45;&gt;Node2 -->
<g id="edge4" class="edge"><title>Node4&#45;&gt;Node2</title>
<path fill="none" stroke="midnightblue" d="M372.299,-33.7251C332.239,-37.0634 279.423,-41.4647 243.084,-44.493"/>
<polygon fill="midnightblue" stroke="midnightblue" points="372.776,-37.1975 382.451,-32.8791 372.195,-30.2217 372.776,-37.1975"/>
</g>
<!-- Node5 -->
<g id="node5" class="node"><title>Node5</title>
<g id="a_node5"><a xlink:href="transskip_8cc.html#a45102b19cad6e5d69fc6d1b4db42cf44" target="_top" xlink:title="transskip_delete">
<polygon fill="none" stroke="black" points="530,-81.5 530,-100.5 618,-100.5 618,-81.5 530,-81.5"/>
<text text-anchor="middle" x="574" y="-88.5" font-family="Helvetica,sans-Serif" font-size="10.00">transskip_delete</text>
</a>
</g>
</g>
<!-- Node4&#45;&gt;Node5 -->
<g id="edge5" class="edge"><title>Node4&#45;&gt;Node5</title>
<path fill="none" stroke="midnightblue" d="M462.207,-42.6258C489.037,-54.3403 527.065,-70.9437 550.865,-81.3354"/>
<polygon fill="midnightblue" stroke="midnightblue" points="463.441,-39.3455 452.876,-38.5516 460.64,-45.7607 463.441,-39.3455"/>
</g>
<!-- Node6 -->
<g id="node6" class="node"><title>Node6</title>
<g id="a_node6"><a xlink:href="transskip_8cc.html#ae89a19c5e265e1f4988a8df74d9d27f7" target="_top" xlink:title="transskip_find">
<polygon fill="none" stroke="black" points="535.5,-27.5 535.5,-46.5 612.5,-46.5 612.5,-27.5 535.5,-27.5"/>
<text text-anchor="middle" x="574" y="-34.5" font-family="Helvetica,sans-Serif" font-size="10.00">transskip_find</text>
</a>
</g>
</g>
<!-- Node4&#45;&gt;Node6 -->
<g id="edge7" class="edge"><title>Node4&#45;&gt;Node6</title>
<path fill="none" stroke="midnightblue" d="M488.113,-32.2176C503.933,-33.1089 520.71,-34.0541 535.135,-34.8667"/>
<polygon fill="midnightblue" stroke="midnightblue" points="488.071,-28.7098 477.89,-31.6417 487.677,-35.6987 488.071,-28.7098"/>
</g>
<!-- Node5&#45;&gt;Node3 -->
<g id="edge6" class="edge"><title>Node5&#45;&gt;Node3</title>
<path fill="none" stroke="midnightblue" d="M519.516,-90.5747C481.099,-89.6918 428.163,-87.2931 382,-81 370.121,-79.3806 357.166,-76.6692 346.11,-74.0615"/>
<polygon fill="midnightblue" stroke="midnightblue" points="519.881,-94.0827 529.949,-90.7855 520.022,-87.0841 519.881,-94.0827"/>
</g>
<!-- Node6&#45;&gt;Node3 -->
<g id="edge8" class="edge"><title>Node6&#45;&gt;Node3</title>
<path fill="none" stroke="midnightblue" d="M525.199,-42.6458C472.301,-48.8936 388.895,-58.7446 346.182,-63.7895"/>
<polygon fill="midnightblue" stroke="midnightblue" points="525.83,-46.0957 535.351,-41.4468 525.009,-39.144 525.83,-46.0957"/>
</g>
<!-- Node8 -->
<g id="node8" class="node"><title>Node8</title>
<g id="a_node8"><a xlink:href="classSetAdaptor_3_01trans__skip_01_4.html#a7a710fc23fd33466e92b1d06ad2e5869" target="_top" xlink:title="SetAdaptor\&lt; trans_skip\l \&gt;::ExecuteOps">
<polygon fill="none" stroke="black" points="514.5,-128 514.5,-158 633.5,-158 633.5,-128 514.5,-128"/>
<text text-anchor="start" x="522.5" y="-146" font-family="Helvetica,sans-Serif" font-size="10.00">SetAdaptor&lt; trans_skip</text>
<text text-anchor="middle" x="574" y="-135" font-family="Helvetica,sans-Serif" font-size="10.00"> &gt;::ExecuteOps</text>
</a>
</g>
</g>
<!-- Node7&#45;&gt;Node8 -->
<g id="edge10" class="edge"><title>Node7&#45;&gt;Node8</title>
<path fill="none" stroke="midnightblue" d="M476.359,-143C488.414,-143 501.607,-143 514.265,-143"/>
<polygon fill="midnightblue" stroke="midnightblue" points="476.101,-139.5 466.101,-143 476.101,-146.5 476.101,-139.5"/>
</g>
</g>
</svg>
