<?xml version="1.0" encoding="UTF-8" standalone="no"?>
<!DOCTYPE svg PUBLIC "-//W3C//DTD SVG 1.1//EN"
 "http://www.w3.org/Graphics/SVG/1.1/DTD/svg11.dtd">
<!-- Generated by graphviz version 2.36.0 (20140111.2315)
 -->
<!-- Title: transskip_insert Pages: 1 -->
<svg width="474pt" height="147pt"
 viewBox="0.00 0.00 474.00 147.00" xmlns="http://www.w3.org/2000/svg" xmlns:xlink="http://www.w3.org/1999/xlink">
<g id="graph0" class="graph" transform="scale(1 1) rotate(0) translate(4 143)">
<title>transskip_insert</title>
<!-- Node1 -->
<g id="node1" class="node"><title>Node1</title>
<polygon fill="#bfbfbf" stroke="black" points="0,-19.5 0,-38.5 86,-38.5 86,-19.5 0,-19.5"/>
<text text-anchor="middle" x="43" y="-26.5" font-family="Helvetica,sans-Serif" font-size="10.00">transskip_insert</text>
</g>
<!-- Node2 -->
<g id="node2" class="node"><title>Node2</title>
<g id="a_node2"><a xlink:href="transskip_8cc.html#a4ae3b77271a6617ab4b15183a6ca9601" target="_top" xlink:title="help_ops">
<polygon fill="none" stroke="black" points="122,-38.5 122,-57.5 178,-57.5 178,-38.5 122,-38.5"/>
<text text-anchor="middle" x="150" y="-45.5" font-family="Helvetica,sans-Serif" font-size="10.00">help_ops</text>
</a>
</g>
</g>
<!-- Node1&#45;&gt;Node2 -->
<g id="edge1" class="edge"><title>Node1&#45;&gt;Node2</title>
<path fill="none" stroke="midnightblue" d="M96.1413,-38.4351C105.087,-40.0538 114.047,-41.6751 121.981,-43.1109"/>
<polygon fill="midnightblue" stroke="midnightblue" points="96.5659,-34.9552 86.1025,-36.6185 95.3195,-41.8433 96.5659,-34.9552"/>
</g>
<!-- Node3 -->
<g id="node3" class="node"><title>Node3</title>
<g id="a_node3"><a xlink:href="transskip_8cc.html#a0d6d503fca08ea29d18df6b11d5fbcc0" target="_top" xlink:title="FinishPendingTxn">
<polygon fill="none" stroke="black" points="214.5,-0.5 214.5,-19.5 309.5,-19.5 309.5,-0.5 214.5,-0.5"/>
<text text-anchor="middle" x="262" y="-7.5" font-family="Helvetica,sans-Serif" font-size="10.00">FinishPendingTxn</text>
</a>
</g>
</g>
<!-- Node2&#45;&gt;Node3 -->
<g id="edge2" class="edge"><title>Node2&#45;&gt;Node3</title>
<path fill="none" stroke="midnightblue" d="M187.646,-35.3405C202.562,-30.1878 219.512,-24.3324 233.358,-19.5491"/>
<polygon fill="midnightblue" stroke="midnightblue" points="186.5,-32.0333 178.191,-38.6067 188.786,-38.6496 186.5,-32.0333"/>
</g>
<!-- Node6 -->
<g id="node6" class="node"><title>Node6</title>
<g id="a_node6"><a xlink:href="transskip_8h.html#ab9c29316cb91737b6c383818ff700dd0" target="_top" xlink:title="execute_ops">
<polygon fill="none" stroke="black" points="226,-114.5 226,-133.5 298,-133.5 298,-114.5 226,-114.5"/>
<text text-anchor="middle" x="262" y="-121.5" font-family="Helvetica,sans-Serif" font-size="10.00">execute_ops</text>
</a>
</g>
</g>
<!-- Node2&#45;&gt;Node6 -->
<g id="edge8" class="edge"><title>Node2&#45;&gt;Node6</title>
<path fill="none" stroke="midnightblue" d="M168.789,-64.4675C180.982,-75.2954 197.819,-89.3736 214,-100 222.118,-105.331 231.571,-110.362 239.862,-114.427"/>
<polygon fill="midnightblue" stroke="midnightblue" points="170.923,-61.678 161.155,-57.573 166.231,-66.873 170.923,-61.678"/>
</g>
<!-- Node3&#45;&gt;Node1 -->
<g id="edge3" class="edge"><title>Node3&#45;&gt;Node1</title>
<path fill="none" stroke="midnightblue" d="M203.994,-14.9913C167.024,-18.2283 119.67,-22.3745 86.0971,-25.3141"/>
<polygon fill="midnightblue" stroke="midnightblue" points="204.47,-18.4632 214.126,-14.1042 203.859,-11.4898 204.47,-18.4632"/>
</g>
<!-- Node4 -->
<g id="node4" class="node"><title>Node4</title>
<g id="a_node4"><a xlink:href="transskip_8cc.html#a45102b19cad6e5d69fc6d1b4db42cf44" target="_top" xlink:title="transskip_delete">
<polygon fill="none" stroke="black" points="362,-62.5 362,-81.5 450,-81.5 450,-62.5 362,-62.5"/>
<text text-anchor="middle" x="406" y="-69.5" font-family="Helvetica,sans-Serif" font-size="10.00">transskip_delete</text>
</a>
</g>
</g>
<!-- Node3&#45;&gt;Node4 -->
<g id="edge4" class="edge"><title>Node3&#45;&gt;Node4</title>
<path fill="none" stroke="midnightblue" d="M294.207,-23.6258C321.037,-35.3403 359.065,-51.9437 382.865,-62.3354"/>
<polygon fill="midnightblue" stroke="midnightblue" points="295.441,-20.3455 284.876,-19.5516 292.64,-26.7607 295.441,-20.3455"/>
</g>
<!-- Node5 -->
<g id="node5" class="node"><title>Node5</title>
<g id="a_node5"><a xlink:href="transskip_8cc.html#ae89a19c5e265e1f4988a8df74d9d27f7" target="_top" xlink:title="transskip_find">
<polygon fill="none" stroke="black" points="367.5,-8.5 367.5,-27.5 444.5,-27.5 444.5,-8.5 367.5,-8.5"/>
<text text-anchor="middle" x="406" y="-15.5" font-family="Helvetica,sans-Serif" font-size="10.00">transskip_find</text>
</a>
</g>
</g>
<!-- Node3&#45;&gt;Node5 -->
<g id="edge6" class="edge"><title>Node3&#45;&gt;Node5</title>
<path fill="none" stroke="midnightblue" d="M320.113,-13.2176C335.933,-14.1089 352.71,-15.0541 367.135,-15.8667"/>
<polygon fill="midnightblue" stroke="midnightblue" points="320.071,-9.70979 309.89,-12.6417 319.677,-16.6987 320.071,-9.70979"/>
</g>
<!-- Node4&#45;&gt;Node2 -->
<g id="edge5" class="edge"><title>Node4&#45;&gt;Node2</title>
<path fill="none" stroke="midnightblue" d="M351.516,-71.5747C313.099,-70.6918 260.163,-68.2931 214,-62 202.121,-60.3806 189.166,-57.6692 178.11,-55.0615"/>
<polygon fill="midnightblue" stroke="midnightblue" points="351.881,-75.0827 361.949,-71.7855 352.022,-68.0841 351.881,-75.0827"/>
</g>
<!-- Node5&#45;&gt;Node2 -->
<g id="edge7" class="edge"><title>Node5&#45;&gt;Node2</title>
<path fill="none" stroke="midnightblue" d="M357.199,-23.6458C304.301,-29.8936 220.895,-39.7446 178.182,-44.7895"/>
<polygon fill="midnightblue" stroke="midnightblue" points="357.83,-27.0957 367.351,-22.4468 357.009,-20.144 357.83,-27.0957"/>
</g>
<!-- Node7 -->
<g id="node7" class="node"><title>Node7</title>
<g id="a_node7"><a xlink:href="classSetAdaptor_3_01trans__skip_01_4.html#a7a710fc23fd33466e92b1d06ad2e5869" target="_top" xlink:title="SetAdaptor\&lt; trans_skip\l \&gt;::ExecuteOps">
<polygon fill="none" stroke="black" points="346.5,-109 346.5,-139 465.5,-139 465.5,-109 346.5,-109"/>
<text text-anchor="start" x="354.5" y="-127" font-family="Helvetica,sans-Serif" font-size="10.00">SetAdaptor&lt; trans_skip</text>
<text text-anchor="middle" x="406" y="-116" font-family="Helvetica,sans-Serif" font-size="10.00"> &gt;::ExecuteOps</text>
</a>
</g>
</g>
<!-- Node6&#45;&gt;Node7 -->
<g id="edge9" class="edge"><title>Node6&#45;&gt;Node7</title>
<path fill="none" stroke="midnightblue" d="M308.359,-124C320.414,-124 333.607,-124 346.265,-124"/>
<polygon fill="midnightblue" stroke="midnightblue" points="308.101,-120.5 298.101,-124 308.101,-127.5 308.101,-120.5"/>
</g>
</g>
</svg>
