<?xml version="1.0" encoding="UTF-8" standalone="no"?>
<!DOCTYPE svg PUBLIC "-//W3C//DTD SVG 1.1//EN"
 "http://www.w3.org/Graphics/SVG/1.1/DTD/svg11.dtd">
<!-- Generated by graphviz version 2.36.0 (20140111.2315)
 -->
<!-- Title: transskip_insert Pages: 1 -->
<svg width="1400pt" height="686pt"
 viewBox="0.00 0.00 1400.00 686.10" xmlns="http://www.w3.org/2000/svg" xmlns:xlink="http://www.w3.org/1999/xlink">
<g id="graph0" class="graph" transform="scale(1 1) rotate(0) translate(4 682.096)">
<title>transskip_insert</title>
<!-- Node1 -->
<g id="node1" class="node"><title>Node1</title>
<polygon fill="#bfbfbf" stroke="black" points="0,-285.5 0,-304.5 86,-304.5 86,-285.5 0,-285.5"/>
<text text-anchor="middle" x="43" y="-292.5" font-family="Helvetica,sans-Serif" font-size="10.00">transskip_insert</text>
</g>
<!-- Node2 -->
<g id="node2" class="node"><title>Node2</title>
<g id="a_node2"><a xlink:href="classAllocator.html#ab991ae25a95eb984d8ef4e2d12db6178" target="_top" xlink:title="Allocator::Alloc">
<polygon fill="none" stroke="black" points="611.5,-494.5 611.5,-513.5 694.5,-513.5 694.5,-494.5 611.5,-494.5"/>
<text text-anchor="middle" x="653" y="-501.5" font-family="Helvetica,sans-Serif" font-size="10.00">Allocator::Alloc</text>
</a>
</g>
</g>
<!-- Node1&#45;&gt;Node2 -->
<g id="edge1" class="edge"><title>Node1&#45;&gt;Node2</title>
<path fill="none" stroke="midnightblue" d="M44.0802,-304.614C44.9036,-341.7 52.7292,-477.162 122,-553 169.2,-604.675 199.701,-596.721 268,-612 389.52,-639.185 434.512,-673.252 548,-622 593.217,-601.58 626.636,-550.708 642.228,-522.895"/>
<polygon fill="midnightblue" stroke="midnightblue" points="645.474,-524.251 647.154,-513.79 639.317,-520.919 645.474,-524.251"/>
</g>
<!-- Node3 -->
<g id="node3" class="node"><title>Node3</title>
<g id="a_node3"><a xlink:href="avltree_8c.html#a645f38498ce0006cd109919b893e21f4" target="_top" xlink:title="new_node">
<polygon fill="none" stroke="black" points="146.5,-38.5 146.5,-57.5 207.5,-57.5 207.5,-38.5 146.5,-38.5"/>
<text text-anchor="middle" x="177" y="-45.5" font-family="Helvetica,sans-Serif" font-size="10.00">new_node</text>
</a>
</g>
</g>
<!-- Node1&#45;&gt;Node3 -->
<g id="edge2" class="edge"><title>Node1&#45;&gt;Node3</title>
<path fill="none" stroke="midnightblue" d="M44.4292,-285.227C46.4817,-250.467 58.0864,-131.472 122,-67 126.213,-62.7498 131.433,-59.4478 136.951,-56.8831"/>
<polygon fill="midnightblue" stroke="midnightblue" points="138.335,-60.1005 146.397,-53.2257 135.807,-53.5728 138.335,-60.1005"/>
</g>
<!-- Node4 -->
<g id="node4" class="node"><title>Node4</title>
<g id="a_node4"><a xlink:href="ptst_8c.html#a9f490f3eb71074b856eb2206f97c6cb1" target="_top" xlink:title="fr_critical_enter">
<polygon fill="none" stroke="black" points="611.5,-380.5 611.5,-399.5 694.5,-399.5 694.5,-380.5 611.5,-380.5"/>
<text text-anchor="middle" x="653" y="-387.5" font-family="Helvetica,sans-Serif" font-size="10.00">fr_critical_enter</text>
</a>
</g>
</g>
<!-- Node1&#45;&gt;Node4 -->
<g id="edge3" class="edge"><title>Node1&#45;&gt;Node4</title>
<path fill="none" stroke="midnightblue" d="M72.2434,-304.538C86.9356,-309.189 105.276,-314.518 122,-318 308.788,-356.888 359.414,-342.066 548,-371 565.278,-373.651 584.093,-376.959 600.911,-380.068"/>
<polygon fill="midnightblue" stroke="midnightblue" points="600.62,-383.574 611.093,-381.971 601.906,-376.693 600.62,-383.574"/>
</g>
<!-- Node14 -->
<g id="node14" class="node"><title>Node14</title>
<g id="a_node14"><a xlink:href="transskip_8cc.html#ad58834877131f5aaab060ce615d060f5" target="_top" xlink:title="weak_search_predecessors">
<polygon fill="none" stroke="black" points="584,-285.5 584,-304.5 722,-304.5 722,-285.5 584,-285.5"/>
<text text-anchor="middle" x="653" y="-292.5" font-family="Helvetica,sans-Serif" font-size="10.00">weak_search_predecessors</text>
</a>
</g>
</g>
<!-- Node1&#45;&gt;Node14 -->
<g id="edge17" class="edge"><title>Node1&#45;&gt;Node14</title>
<path fill="none" stroke="midnightblue" d="M86.2707,-295C187.217,-295 443.588,-295 573.695,-295"/>
<polygon fill="midnightblue" stroke="midnightblue" points="573.982,-298.5 583.982,-295 573.982,-291.5 573.982,-298.5"/>
</g>
<!-- Node16 -->
<g id="node16" class="node"><title>Node16</title>
<g id="a_node16"><a xlink:href="transskip_8cc.html#a75266fd2f1b1dcd3213e6450a326421d" target="_top" xlink:title="mark_deleted">
<polygon fill="none" stroke="black" points="139.5,-76.5 139.5,-95.5 214.5,-95.5 214.5,-76.5 139.5,-76.5"/>
<text text-anchor="middle" x="177" y="-83.5" font-family="Helvetica,sans-Serif" font-size="10.00">mark_deleted</text>
</a>
</g>
</g>
<!-- Node1&#45;&gt;Node16 -->
<g id="edge19" class="edge"><title>Node1&#45;&gt;Node16</title>
<path fill="none" stroke="midnightblue" d="M45.5345,-285.158C50.7202,-255.005 70.2529,-162.751 122,-110 125.677,-106.251 130.043,-103.042 134.675,-100.306"/>
<polygon fill="midnightblue" stroke="midnightblue" points="136.508,-103.3 143.799,-95.6125 133.306,-97.075 136.508,-103.3"/>
</g>
<!-- Node17 -->
<g id="node17" class="node"><title>Node17</title>
<g id="a_node17"><a xlink:href="lockfreelist_8cc.html#af3132c9d8404c5dc002b587f7318bdab" target="_top" xlink:title="is_marked_ref">
<polygon fill="none" stroke="black" points="458,-114.5 458,-133.5 536,-133.5 536,-114.5 458,-114.5"/>
<text text-anchor="middle" x="497" y="-121.5" font-family="Helvetica,sans-Serif" font-size="10.00">is_marked_ref</text>
</a>
</g>
</g>
<!-- Node1&#45;&gt;Node17 -->
<g id="edge58" class="edge"><title>Node1&#45;&gt;Node17</title>
<path fill="none" stroke="midnightblue" d="M45.82,-285.338C51.4853,-258.277 71.5455,-181.585 122,-149 174.584,-115.04 359.35,-118.003 447.932,-121.573"/>
<polygon fill="midnightblue" stroke="midnightblue" points="447.849,-125.072 457.988,-121.997 448.144,-118.078 447.849,-125.072"/>
</g>
<!-- Node19 -->
<g id="node19" class="node"><title>Node19</title>
<g id="a_node19"><a xlink:href="transskip_8cc.html#a8df32de13951af05c7685b1698ce80dd" target="_top" xlink:title="strong_search_predecessors">
<polygon fill="none" stroke="black" points="268,-152.5 268,-171.5 410,-171.5 410,-152.5 268,-152.5"/>
<text text-anchor="middle" x="339" y="-159.5" font-family="Helvetica,sans-Serif" font-size="10.00">strong_search_predecessors</text>
</a>
</g>
</g>
<!-- Node1&#45;&gt;Node19 -->
<g id="edge22" class="edge"><title>Node1&#45;&gt;Node19</title>
<path fill="none" stroke="midnightblue" d="M47.3661,-285.187C55.7953,-262.296 80.1857,-205.457 122,-181 162.462,-157.334 214.664,-152.195 257.613,-153.159"/>
<polygon fill="midnightblue" stroke="midnightblue" points="257.641,-156.662 267.754,-153.502 257.878,-149.666 257.641,-156.662"/>
</g>
<!-- Node20 -->
<g id="node20" class="node"><title>Node20</title>
<g id="a_node20"><a xlink:href="transskip_8cc.html#a0d6d503fca08ea29d18df6b11d5fbcc0" target="_top" xlink:title="FinishPendingTxn">
<polygon fill="none" stroke="black" points="129.5,-399.5 129.5,-418.5 224.5,-418.5 224.5,-399.5 129.5,-399.5"/>
<text text-anchor="middle" x="177" y="-406.5" font-family="Helvetica,sans-Serif" font-size="10.00">FinishPendingTxn</text>
</a>
</g>
</g>
<!-- Node1&#45;&gt;Node20 -->
<g id="edge25" class="edge"><title>Node1&#45;&gt;Node20</title>
<path fill="none" stroke="midnightblue" d="M54.3998,-304.871C69.1687,-318.796 97.1853,-344.866 122,-366 132.834,-375.227 145.237,-385.147 155.421,-393.13"/>
<polygon fill="midnightblue" stroke="midnightblue" points="153.331,-395.939 163.371,-399.324 157.633,-390.417 153.331,-395.939"/>
</g>
<!-- Node25 -->
<g id="node25" class="node"><title>Node25</title>
<g id="a_node25"><a xlink:href="transskip_8cc.html#a2d52630adc00d6e36da0088ceb90327f" target="_top" xlink:title="IsSameOperation">
<polygon fill="none" stroke="black" points="607,-418.5 607,-437.5 699,-437.5 699,-418.5 607,-418.5"/>
<text text-anchor="middle" x="653" y="-425.5" font-family="Helvetica,sans-Serif" font-size="10.00">IsSameOperation</text>
</a>
</g>
</g>
<!-- Node1&#45;&gt;Node25 -->
<g id="edge51" class="edge"><title>Node1&#45;&gt;Node25</title>
<path fill="none" stroke="midnightblue" d="M46.2854,-304.572C52.9125,-329.964 74.7464,-399.062 122,-428 283.623,-526.977 359.251,-464.1 548,-447 564.954,-445.464 583.275,-442.547 599.746,-439.451"/>
<polygon fill="midnightblue" stroke="midnightblue" points="600.585,-442.854 609.734,-437.511 599.25,-435.982 600.585,-442.854"/>
</g>
<!-- Node26 -->
<g id="node26" class="node"><title>Node26</title>
<g id="a_node26"><a xlink:href="transskip_8cc.html#a0abe05e214e4e5e4b505029db0933f6d" target="_top" xlink:title="IsKeyExist">
<polygon fill="none" stroke="black" points="620.5,-456.5 620.5,-475.5 685.5,-475.5 685.5,-456.5 620.5,-456.5"/>
<text text-anchor="middle" x="653" y="-463.5" font-family="Helvetica,sans-Serif" font-size="10.00">IsKeyExist</text>
</a>
</g>
</g>
<!-- Node1&#45;&gt;Node26 -->
<g id="edge52" class="edge"><title>Node1&#45;&gt;Node26</title>
<path fill="none" stroke="midnightblue" d="M44.502,-304.846C46.7765,-338.759 58.9786,-451.826 122,-510 193.063,-575.597 469.996,-656.169 548,-599 590.856,-567.592 545.807,-521.938 584,-485 591.193,-478.043 600.715,-473.591 610.347,-470.754"/>
<polygon fill="midnightblue" stroke="midnightblue" points="611.433,-474.092 620.333,-468.344 609.791,-467.288 611.433,-474.092"/>
</g>
<!-- Node28 -->
<g id="node28" class="node"><title>Node28</title>
<g id="a_node28"><a xlink:href="stmskip_8cc.html#a5db6833ad98c08797c5dffd75d264833" target="_top" xlink:title="fr_critical_exit">
<polygon fill="none" stroke="black" points="614.5,-342.5 614.5,-361.5 691.5,-361.5 691.5,-342.5 614.5,-342.5"/>
<text text-anchor="middle" x="653" y="-349.5" font-family="Helvetica,sans-Serif" font-size="10.00">fr_critical_exit</text>
</a>
</g>
</g>
<!-- Node1&#45;&gt;Node28 -->
<g id="edge64" class="edge"><title>Node1&#45;&gt;Node28</title>
<path fill="none" stroke="midnightblue" d="M86.2153,-297.904C172.886,-304.019 377.125,-319.221 548,-338 566.317,-340.013 586.396,-342.621 603.984,-345.039"/>
<polygon fill="midnightblue" stroke="midnightblue" points="603.633,-348.524 614.02,-346.435 604.597,-341.591 603.633,-348.524"/>
</g>
<!-- Node31 -->
<g id="node31" class="node"><title>Node31</title>
<g id="a_node31"><a xlink:href="transskip_8cc.html#a26a2b06dc93215a87d025facf8370427" target="_top" xlink:title="free_node">
<polygon fill="none" stroke="black" points="309.5,-228.5 309.5,-247.5 368.5,-247.5 368.5,-228.5 309.5,-228.5"/>
<text text-anchor="middle" x="339" y="-235.5" font-family="Helvetica,sans-Serif" font-size="10.00">free_node</text>
</a>
</g>
</g>
<!-- Node1&#45;&gt;Node31 -->
<g id="edge48" class="edge"><title>Node1&#45;&gt;Node31</title>
<path fill="none" stroke="midnightblue" d="M62.3789,-285.425C77.8568,-277.807 100.802,-267.536 122,-262 182.538,-246.19 255.28,-240.792 299.014,-238.951"/>
<polygon fill="midnightblue" stroke="midnightblue" points="299.357,-242.44 309.217,-238.564 299.092,-235.445 299.357,-242.44"/>
</g>
<!-- Node33 -->
<g id="node33" class="node"><title>Node33</title>
<g id="a_node33"><a xlink:href="transskip_8cc.html#aaebbe09bfcc49916e869df817e0ef5f2" target="_top" xlink:title="alloc_node">
<polygon fill="none" stroke="black" points="621.5,-612.5 621.5,-631.5 684.5,-631.5 684.5,-612.5 621.5,-612.5"/>
<text text-anchor="middle" x="653" y="-619.5" font-family="Helvetica,sans-Serif" font-size="10.00">alloc_node</text>
</a>
</g>
</g>
<!-- Node1&#45;&gt;Node33 -->
<g id="edge53" class="edge"><title>Node1&#45;&gt;Node33</title>
<path fill="none" stroke="midnightblue" d="M43.5125,-304.725C42.0116,-345.56 41.6939,-505.064 122,-592 251.252,-731.922 517.271,-665.463 614.964,-634.666"/>
<polygon fill="midnightblue" stroke="midnightblue" points="616.24,-637.932 624.69,-631.541 614.099,-631.268 616.24,-637.932"/>
</g>
<!-- Node36 -->
<g id="node36" class="node"><title>Node36</title>
<g id="a_node36"><a xlink:href="transskip_8cc.html#a0f45b30b9ae66fe48f2f0ca09a49069e" target="_top" xlink:title="check_for_full_delete">
<polygon fill="none" stroke="black" points="122.5,-0.5 122.5,-19.5 231.5,-19.5 231.5,-0.5 122.5,-0.5"/>
<text text-anchor="middle" x="177" y="-7.5" font-family="Helvetica,sans-Serif" font-size="10.00">check_for_full_delete</text>
</a>
</g>
</g>
<!-- Node1&#45;&gt;Node36 -->
<g id="edge59" class="edge"><title>Node1&#45;&gt;Node36</title>
<path fill="none" stroke="midnightblue" d="M43.8716,-285.256C43.9055,-247.055 49.1483,-105.826 122,-29 123.385,-27.5397 124.888,-26.1915 126.483,-24.9468"/>
<polygon fill="midnightblue" stroke="midnightblue" points="128.481,-27.8255 135.092,-19.5466 124.761,-21.8957 128.481,-27.8255"/>
</g>
<!-- Node37 -->
<g id="node37" class="node"><title>Node37</title>
<g id="a_node37"><a xlink:href="transskip_8cc.html#adef6414bd01ff21125b7e1042f709ac2" target="_top" xlink:title="do_full_delete">
<polygon fill="none" stroke="black" points="138.5,-190.5 138.5,-209.5 215.5,-209.5 215.5,-190.5 138.5,-190.5"/>
<text text-anchor="middle" x="177" y="-197.5" font-family="Helvetica,sans-Serif" font-size="10.00">do_full_delete</text>
</a>
</g>
</g>
<!-- Node1&#45;&gt;Node37 -->
<g id="edge60" class="edge"><title>Node1&#45;&gt;Node37</title>
<path fill="none" stroke="midnightblue" d="M52.7889,-285.199C66.4424,-270.418 94.0927,-242.218 122,-224 127.83,-220.194 134.363,-216.72 140.817,-213.669"/>
<polygon fill="midnightblue" stroke="midnightblue" points="142.423,-216.785 150.126,-209.511 139.568,-210.393 142.423,-216.785"/>
</g>
<!-- Node5 -->
<g id="node5" class="node"><title>Node5</title>
<g id="a_node5"><a xlink:href="gc_8c.html#aa06f5acb271ed4c9afcc728f3ceae52f" target="_top" xlink:title="fr_gc_init">
<polygon fill="none" stroke="black" points="778,-356.5 778,-375.5 834,-375.5 834,-356.5 778,-356.5"/>
<text text-anchor="middle" x="806" y="-363.5" font-family="Helvetica,sans-Serif" font-size="10.00">fr_gc_init</text>
</a>
</g>
</g>
<!-- Node4&#45;&gt;Node5 -->
<g id="edge4" class="edge"><title>Node4&#45;&gt;Node5</title>
<path fill="none" stroke="midnightblue" d="M694.863,-383.505C717.634,-379.886 745.772,-375.414 767.907,-371.896"/>
<polygon fill="midnightblue" stroke="midnightblue" points="768.6,-375.329 777.927,-370.303 767.501,-368.416 768.6,-375.329"/>
</g>
<!-- Node12 -->
<g id="node12" class="node"><title>Node12</title>
<g id="a_node12"><a xlink:href="gc_8c.html#a1b011e952f943e62b80e39768305d3fb" target="_top" xlink:title="fr_gc_enter">
<polygon fill="none" stroke="black" points="907.5,-456.5 907.5,-475.5 972.5,-475.5 972.5,-456.5 907.5,-456.5"/>
<text text-anchor="middle" x="940" y="-463.5" font-family="Helvetica,sans-Serif" font-size="10.00">fr_gc_enter</text>
</a>
</g>
</g>
<!-- Node4&#45;&gt;Node12 -->
<g id="edge14" class="edge"><title>Node4&#45;&gt;Node12</title>
<path fill="none" stroke="midnightblue" d="M689.807,-399.548C742.726,-413.66 841.578,-440.021 897.559,-454.949"/>
<polygon fill="midnightblue" stroke="midnightblue" points="896.928,-458.403 907.492,-457.598 898.732,-451.639 896.928,-458.403"/>
</g>
<!-- Node6 -->
<g id="node6" class="node"><title>Node6</title>
<g id="a_node6"><a xlink:href="gc_8c.html#a2a6f41199ed37925df4cc7b9909dc0ed" target="_top" xlink:title="get_empty_chunks">
<polygon fill="none" stroke="black" points="1154.5,-370.5 1154.5,-389.5 1253.5,-389.5 1253.5,-370.5 1154.5,-370.5"/>
<text text-anchor="middle" x="1204" y="-377.5" font-family="Helvetica,sans-Serif" font-size="10.00">get_empty_chunks</text>
</a>
</g>
</g>
<!-- Node5&#45;&gt;Node6 -->
<g id="edge5" class="edge"><title>Node5&#45;&gt;Node6</title>
<path fill="none" stroke="midnightblue" d="M834.219,-366.962C897.775,-369.209 1057.13,-374.843 1144.11,-377.918"/>
<polygon fill="midnightblue" stroke="midnightblue" points="1144.23,-381.424 1154.35,-378.28 1144.48,-374.429 1144.23,-381.424"/>
</g>
<!-- Node9 -->
<g id="node9" class="node"><title>Node9</title>
<g id="a_node9"><a xlink:href="gc_8c.html#a6dffa65320ddab40d01f198433b3aeb6" target="_top" xlink:title="get_alloc_chunk">
<polygon fill="none" stroke="black" points="896.5,-408.5 896.5,-427.5 983.5,-427.5 983.5,-408.5 896.5,-408.5"/>
<text text-anchor="middle" x="940" y="-415.5" font-family="Helvetica,sans-Serif" font-size="10.00">get_alloc_chunk</text>
</a>
</g>
</g>
<!-- Node5&#45;&gt;Node9 -->
<g id="edge8" class="edge"><title>Node5&#45;&gt;Node9</title>
<path fill="none" stroke="midnightblue" d="M831.211,-375.538C851.921,-383.696 881.956,-395.528 905.064,-404.631"/>
<polygon fill="midnightblue" stroke="midnightblue" points="903.909,-407.938 914.496,-408.347 906.474,-401.425 903.909,-407.938"/>
</g>
<!-- Node11 -->
<g id="node11" class="node"><title>Node11</title>
<g id="a_node11"><a xlink:href="gc_8c.html#afb494e950c8c6b5661974748ae89b61e" target="_top" xlink:title="chunk_from_cache">
<polygon fill="none" stroke="black" points="890.5,-313.5 890.5,-332.5 989.5,-332.5 989.5,-313.5 890.5,-313.5"/>
<text text-anchor="middle" x="940" y="-320.5" font-family="Helvetica,sans-Serif" font-size="10.00">chunk_from_cache</text>
</a>
</g>
</g>
<!-- Node5&#45;&gt;Node11 -->
<g id="edge12" class="edge"><title>Node5&#45;&gt;Node11</title>
<path fill="none" stroke="midnightblue" d="M834.031,-357.195C853.044,-351.001 878.78,-342.617 900.01,-335.701"/>
<polygon fill="midnightblue" stroke="midnightblue" points="901.288,-338.966 909.713,-332.541 899.12,-332.31 901.288,-338.966"/>
</g>
<!-- Node7 -->
<g id="node7" class="node"><title>Node7</title>
<g id="a_node7"><a xlink:href="gc_8c.html#ac360b80b93ad00f0fba18a1993e1d6a0" target="_top" xlink:title="add_chunks_to_list">
<polygon fill="none" stroke="black" points="1290.5,-446.5 1290.5,-465.5 1391.5,-465.5 1391.5,-446.5 1290.5,-446.5"/>
<text text-anchor="middle" x="1341" y="-453.5" font-family="Helvetica,sans-Serif" font-size="10.00">add_chunks_to_list</text>
</a>
</g>
</g>
<!-- Node6&#45;&gt;Node7 -->
<g id="edge6" class="edge"><title>Node6&#45;&gt;Node7</title>
<path fill="none" stroke="midnightblue" d="M1222.1,-389.625C1245.33,-402.703 1287.06,-426.196 1314.13,-441.437"/>
<polygon fill="midnightblue" stroke="midnightblue" points="1312.61,-444.597 1323.04,-446.453 1316.04,-438.497 1312.61,-444.597"/>
</g>
<!-- Node8 -->
<g id="node8" class="node"><title>Node8</title>
<g id="a_node8"><a xlink:href="gc_8c.html#ade31863985bdaa481ade142bdfb6d99f" target="_top" xlink:title="alloc_more_chunks">
<polygon fill="none" stroke="black" points="1290.5,-370.5 1290.5,-389.5 1391.5,-389.5 1391.5,-370.5 1290.5,-370.5"/>
<text text-anchor="middle" x="1341" y="-377.5" font-family="Helvetica,sans-Serif" font-size="10.00">alloc_more_chunks</text>
</a>
</g>
</g>
<!-- Node6&#45;&gt;Node8 -->
<g id="edge7" class="edge"><title>Node6&#45;&gt;Node8</title>
<path fill="none" stroke="midnightblue" d="M1253.74,-380C1262.31,-380 1271.33,-380 1280.17,-380"/>
<polygon fill="midnightblue" stroke="midnightblue" points="1280.43,-383.5 1290.43,-380 1280.43,-376.5 1280.43,-383.5"/>
</g>
<!-- Node9&#45;&gt;Node7 -->
<g id="edge11" class="edge"><title>Node9&#45;&gt;Node7</title>
<path fill="none" stroke="midnightblue" d="M983.7,-422.067C1055.13,-428.869 1199,-442.572 1280.38,-450.322"/>
<polygon fill="midnightblue" stroke="midnightblue" points="1280.18,-453.819 1290.47,-451.283 1280.84,-446.85 1280.18,-453.819"/>
</g>
<!-- Node10 -->
<g id="node10" class="node"><title>Node10</title>
<g id="a_node10"><a xlink:href="gc_8c.html#ae47e099483bed50da4e41b906c300b99" target="_top" xlink:title="get_filled_chunks">
<polygon fill="none" stroke="black" points="1026,-389.5 1026,-408.5 1118,-408.5 1118,-389.5 1026,-389.5"/>
<text text-anchor="middle" x="1072" y="-396.5" font-family="Helvetica,sans-Serif" font-size="10.00">get_filled_chunks</text>
</a>
</g>
</g>
<!-- Node9&#45;&gt;Node10 -->
<g id="edge9" class="edge"><title>Node9&#45;&gt;Node10</title>
<path fill="none" stroke="midnightblue" d="M983.567,-411.779C993.78,-410.286 1004.84,-408.67 1015.54,-407.106"/>
<polygon fill="midnightblue" stroke="midnightblue" points="1016.26,-410.537 1025.65,-405.628 1015.25,-403.611 1016.26,-410.537"/>
</g>
<!-- Node10&#45;&gt;Node6 -->
<g id="edge10" class="edge"><title>Node10&#45;&gt;Node6</title>
<path fill="none" stroke="midnightblue" d="M1118.1,-392.408C1126.63,-391.162 1135.66,-389.842 1144.53,-388.546"/>
<polygon fill="midnightblue" stroke="midnightblue" points="1145.04,-392.008 1154.43,-387.099 1144.03,-385.082 1145.04,-392.008"/>
</g>
<!-- Node11&#45;&gt;Node6 -->
<g id="edge13" class="edge"><title>Node11&#45;&gt;Node6</title>
<path fill="none" stroke="midnightblue" d="M989.673,-326.493C1025.57,-329.816 1075.36,-335.997 1118,-347 1136.79,-351.848 1157.07,-359.618 1173.11,-366.401"/>
<polygon fill="midnightblue" stroke="midnightblue" points="1171.92,-369.703 1182.49,-370.461 1174.7,-363.279 1171.92,-369.703"/>
</g>
<!-- Node13 -->
<g id="node13" class="node"><title>Node13</title>
<g id="a_node13"><a xlink:href="gc_8c.html#a8c8094a35212fa8ed75ed9a4a38c7b9c" target="_top" xlink:title="gc_reclaim">
<polygon fill="none" stroke="black" points="1040,-465.5 1040,-484.5 1104,-484.5 1104,-465.5 1040,-465.5"/>
<text text-anchor="middle" x="1072" y="-472.5" font-family="Helvetica,sans-Serif" font-size="10.00">gc_reclaim</text>
</a>
</g>
</g>
<!-- Node12&#45;&gt;Node13 -->
<g id="edge15" class="edge"><title>Node12&#45;&gt;Node13</title>
<path fill="none" stroke="midnightblue" d="M972.802,-468.202C989.973,-469.39 1011.37,-470.872 1029.8,-472.148"/>
<polygon fill="midnightblue" stroke="midnightblue" points="1029.76,-475.653 1039.98,-472.852 1030.24,-468.67 1029.76,-475.653"/>
</g>
<!-- Node13&#45;&gt;Node7 -->
<g id="edge16" class="edge"><title>Node13&#45;&gt;Node7</title>
<path fill="none" stroke="midnightblue" d="M1104.15,-472.783C1147.19,-469.721 1225.68,-464.135 1280.24,-460.253"/>
<polygon fill="midnightblue" stroke="midnightblue" points="1280.75,-463.726 1290.47,-459.524 1280.25,-456.743 1280.75,-463.726"/>
</g>
<!-- Node15 -->
<g id="node15" class="node"><title>Node15</title>
<g id="a_node15"><a xlink:href="lockfreelist_8cc.html#ae7e018e2dc9f9f93414a68f3e0bbd14c" target="_top" xlink:title="get_unmarked_ref">
<polygon fill="none" stroke="black" points="758.5,-190.5 758.5,-209.5 853.5,-209.5 853.5,-190.5 758.5,-190.5"/>
<text text-anchor="middle" x="806" y="-197.5" font-family="Helvetica,sans-Serif" font-size="10.00">get_unmarked_ref</text>
</a>
</g>
</g>
<!-- Node14&#45;&gt;Node15 -->
<g id="edge18" class="edge"><title>Node14&#45;&gt;Node15</title>
<path fill="none" stroke="midnightblue" d="M669.31,-285.368C695.651,-268.796 749.73,-234.772 781.079,-215.049"/>
<polygon fill="midnightblue" stroke="midnightblue" points="783.049,-217.945 789.65,-209.657 779.322,-212.02 783.049,-217.945"/>
</g>
<!-- Node16&#45;&gt;Node17 -->
<g id="edge20" class="edge"><title>Node16&#45;&gt;Node17</title>
<path fill="none" stroke="midnightblue" d="M214.643,-89.1257C260.435,-93.1846 341.161,-100.844 410,-110 422.301,-111.636 435.548,-113.661 447.874,-115.658"/>
<polygon fill="midnightblue" stroke="midnightblue" points="447.533,-119.149 457.968,-117.319 448.67,-112.242 447.533,-119.149"/>
</g>
<!-- Node18 -->
<g id="node18" class="node"><title>Node18</title>
<g id="a_node18"><a xlink:href="lockfreelist_8cc.html#ab5987734a79eab6f7785885ac14c1285" target="_top" xlink:title="get_marked_ref">
<polygon fill="none" stroke="black" points="297,-38.5 297,-57.5 381,-57.5 381,-38.5 297,-38.5"/>
<text text-anchor="middle" x="339" y="-45.5" font-family="Helvetica,sans-Serif" font-size="10.00">get_marked_ref</text>
</a>
</g>
</g>
<!-- Node16&#45;&gt;Node18 -->
<g id="edge21" class="edge"><title>Node16&#45;&gt;Node18</title>
<path fill="none" stroke="midnightblue" d="M214.707,-77.282C236.423,-72.1245 264.229,-65.5205 287.937,-59.89"/>
<polygon fill="midnightblue" stroke="midnightblue" points="288.896,-63.2597 297.816,-57.5436 287.278,-56.4491 288.896,-63.2597"/>
</g>
<!-- Node19&#45;&gt;Node15 -->
<g id="edge24" class="edge"><title>Node19&#45;&gt;Node15</title>
<path fill="none" stroke="midnightblue" d="M410.25,-164.216C487.03,-167.149 613.575,-173.484 722,-186 730.452,-186.976 739.352,-188.231 748.059,-189.59"/>
<polygon fill="midnightblue" stroke="midnightblue" points="747.724,-193.081 758.154,-191.221 748.841,-186.171 747.724,-193.081"/>
</g>
<!-- Node19&#45;&gt;Node17 -->
<g id="edge23" class="edge"><title>Node19&#45;&gt;Node17</title>
<path fill="none" stroke="midnightblue" d="M379.365,-152.411C400.264,-147.32 426.114,-141.024 448.162,-135.653"/>
<polygon fill="midnightblue" stroke="midnightblue" points="449.106,-139.025 457.994,-133.258 447.45,-132.224 449.106,-139.025"/>
</g>
<!-- Node21 -->
<g id="node21" class="node"><title>Node21</title>
<g id="a_node21"><a xlink:href="transskip_8cc.html#a4ae3b77271a6617ab4b15183a6ca9601" target="_top" xlink:title="help_ops">
<polygon fill="none" stroke="black" points="311,-494.5 311,-513.5 367,-513.5 367,-494.5 311,-494.5"/>
<text text-anchor="middle" x="339" y="-501.5" font-family="Helvetica,sans-Serif" font-size="10.00">help_ops</text>
</a>
</g>
</g>
<!-- Node20&#45;&gt;Node21 -->
<g id="edge26" class="edge"><title>Node20&#45;&gt;Node21</title>
<path fill="none" stroke="midnightblue" d="M194.222,-418.632C222.253,-435.275 279.928,-469.52 313.08,-489.204"/>
<polygon fill="midnightblue" stroke="midnightblue" points="311.349,-492.247 321.735,-494.343 314.923,-486.228 311.349,-492.247"/>
</g>
<!-- Node21&#45;&gt;Node1 -->
<g id="edge29" class="edge"><title>Node21&#45;&gt;Node1</title>
<path fill="none" stroke="midnightblue" d="M310.997,-509.014C266.781,-515.627 178.239,-521.98 122,-480 67.5951,-439.39 50.8247,-353.484 45.9148,-314.716"/>
<polygon fill="midnightblue" stroke="midnightblue" points="49.384,-314.245 44.7827,-304.702 42.4283,-315.032 49.384,-314.245"/>
</g>
<!-- Node22 -->
<g id="node22" class="node"><title>Node22</title>
<g id="a_node22"><a xlink:href="structHelpStack.html#a7fa3dd720f64464467158a74ac7c19c1" target="_top" xlink:title="HelpStack::Contain">
<polygon fill="none" stroke="black" points="446,-494.5 446,-513.5 548,-513.5 548,-494.5 446,-494.5"/>
<text text-anchor="middle" x="497" y="-501.5" font-family="Helvetica,sans-Serif" font-size="10.00">HelpStack::Contain</text>
</a>
</g>
</g>
<!-- Node21&#45;&gt;Node22 -->
<g id="edge27" class="edge"><title>Node21&#45;&gt;Node22</title>
<path fill="none" stroke="midnightblue" d="M367.173,-504C386.032,-504 411.911,-504 435.529,-504"/>
<polygon fill="midnightblue" stroke="midnightblue" points="435.836,-507.5 445.836,-504 435.836,-500.5 435.836,-507.5"/>
</g>
<!-- Node23 -->
<g id="node23" class="node"><title>Node23</title>
<g id="a_node23"><a xlink:href="structHelpStack.html#a184dc0935dc30b94113a938d4ab7fe28" target="_top" xlink:title="HelpStack::Push">
<polygon fill="none" stroke="black" points="451.5,-570.5 451.5,-589.5 542.5,-589.5 542.5,-570.5 451.5,-570.5"/>
<text text-anchor="middle" x="497" y="-577.5" font-family="Helvetica,sans-Serif" font-size="10.00">HelpStack::Push</text>
</a>
</g>
</g>
<!-- Node21&#45;&gt;Node23 -->
<g id="edge28" class="edge"><title>Node21&#45;&gt;Node23</title>
<path fill="none" stroke="midnightblue" d="M356.188,-513.563C376.695,-525.475 413.307,-546.075 446,-561 450.364,-562.992 455.002,-564.954 459.627,-566.816"/>
<polygon fill="midnightblue" stroke="midnightblue" points="458.42,-570.102 469.008,-570.478 460.965,-563.582 458.42,-570.102"/>
</g>
<!-- Node24 -->
<g id="node24" class="node"><title>Node24</title>
<g id="a_node24"><a xlink:href="transskip_8cc.html#a45102b19cad6e5d69fc6d1b4db42cf44" target="_top" xlink:title="transskip_delete">
<polygon fill="none" stroke="black" points="453,-380.5 453,-399.5 541,-399.5 541,-380.5 453,-380.5"/>
<text text-anchor="middle" x="497" y="-387.5" font-family="Helvetica,sans-Serif" font-size="10.00">transskip_delete</text>
</a>
</g>
</g>
<!-- Node21&#45;&gt;Node24 -->
<g id="edge30" class="edge"><title>Node21&#45;&gt;Node24</title>
<path fill="none" stroke="midnightblue" d="M348.435,-494.37C365.292,-475.633 405.052,-433.933 446,-409 449.202,-407.05 452.638,-405.243 456.154,-403.581"/>
<polygon fill="midnightblue" stroke="midnightblue" points="457.751,-406.704 465.544,-399.527 454.976,-400.278 457.751,-406.704"/>
</g>
<!-- Node29 -->
<g id="node29" class="node"><title>Node29</title>
<g id="a_node29"><a xlink:href="transskip_8cc.html#ae89a19c5e265e1f4988a8df74d9d27f7" target="_top" xlink:title="transskip_find">
<polygon fill="none" stroke="black" points="458.5,-418.5 458.5,-437.5 535.5,-437.5 535.5,-418.5 458.5,-418.5"/>
<text text-anchor="middle" x="497" y="-425.5" font-family="Helvetica,sans-Serif" font-size="10.00">transskip_find</text>
</a>
</g>
</g>
<!-- Node21&#45;&gt;Node29 -->
<g id="edge39" class="edge"><title>Node21&#45;&gt;Node29</title>
<path fill="none" stroke="midnightblue" d="M359.758,-494.375C386.952,-481.126 436.09,-457.187 467.327,-441.969"/>
<polygon fill="midnightblue" stroke="midnightblue" points="468.946,-445.074 476.403,-437.547 465.88,-438.781 468.946,-445.074"/>
</g>
<!-- Node30 -->
<g id="node30" class="node"><title>Node30</title>
<g id="a_node30"><a xlink:href="structHelpStack.html#a1e027e2dcf0c4bec15add32c0f04377a" target="_top" xlink:title="HelpStack::Pop">
<polygon fill="none" stroke="black" points="454,-532.5 454,-551.5 540,-551.5 540,-532.5 454,-532.5"/>
<text text-anchor="middle" x="497" y="-539.5" font-family="Helvetica,sans-Serif" font-size="10.00">HelpStack::Pop</text>
</a>
</g>
</g>
<!-- Node21&#45;&gt;Node30 -->
<g id="edge47" class="edge"><title>Node21&#45;&gt;Node30</title>
<path fill="none" stroke="midnightblue" d="M367.173,-510.619C389.156,-515.974 420.68,-523.653 447.041,-530.074"/>
<polygon fill="midnightblue" stroke="midnightblue" points="446.317,-533.5 456.861,-532.466 447.974,-526.699 446.317,-533.5"/>
</g>
<!-- Node24&#45;&gt;Node2 -->
<g id="edge34" class="edge"><title>Node24&#45;&gt;Node2</title>
<path fill="none" stroke="midnightblue" d="M533.594,-399.587C538.822,-402.066 543.839,-405.156 548,-409 575.454,-434.361 555.424,-460.909 584,-485 589.226,-489.406 595.402,-492.794 601.866,-495.398"/>
<polygon fill="midnightblue" stroke="midnightblue" points="600.871,-498.757 611.466,-498.681 603.136,-492.134 600.871,-498.757"/>
</g>
<!-- Node24&#45;&gt;Node4 -->
<g id="edge31" class="edge"><title>Node24&#45;&gt;Node4</title>
<path fill="none" stroke="midnightblue" d="M541.307,-390C559.934,-390 581.837,-390 601.222,-390"/>
<polygon fill="midnightblue" stroke="midnightblue" points="601.396,-393.5 611.396,-390 601.396,-386.5 601.396,-393.5"/>
</g>
<!-- Node24&#45;&gt;Node14 -->
<g id="edge32" class="edge"><title>Node24&#45;&gt;Node14</title>
<path fill="none" stroke="midnightblue" d="M511.793,-380.39C528.607,-368.785 557.999,-348.85 584,-333 597.251,-324.922 612.285,-316.451 624.841,-309.562"/>
<polygon fill="midnightblue" stroke="midnightblue" points="626.781,-312.491 633.89,-304.635 623.434,-306.344 626.781,-312.491"/>
</g>
<!-- Node24&#45;&gt;Node20 -->
<g id="edge33" class="edge"><title>Node24&#45;&gt;Node20</title>
<path fill="none" stroke="midnightblue" d="M452.868,-392.577C396.371,-395.953 297.173,-401.88 234.665,-405.614"/>
<polygon fill="midnightblue" stroke="midnightblue" points="234.354,-402.127 224.58,-406.217 234.771,-409.114 234.354,-402.127"/>
</g>
<!-- Node24&#45;&gt;Node25 -->
<g id="edge35" class="edge"><title>Node24&#45;&gt;Node25</title>
<path fill="none" stroke="midnightblue" d="M536.861,-399.589C557.091,-404.581 582.021,-410.732 603.504,-416.033"/>
<polygon fill="midnightblue" stroke="midnightblue" points="602.871,-419.482 613.419,-418.48 604.548,-412.686 602.871,-419.482"/>
</g>
<!-- Node24&#45;&gt;Node26 -->
<g id="edge36" class="edge"><title>Node24&#45;&gt;Node26</title>
<path fill="none" stroke="midnightblue" d="M529.736,-399.591C536.047,-402.168 542.436,-405.292 548,-409 567.36,-421.901 564.075,-434.99 584,-447 592.095,-451.879 601.483,-455.543 610.65,-458.281"/>
<polygon fill="midnightblue" stroke="midnightblue" points="609.875,-461.696 620.44,-460.902 611.685,-454.935 609.875,-461.696"/>
</g>
<!-- Node24&#45;&gt;Node28 -->
<g id="edge38" class="edge"><title>Node24&#45;&gt;Node28</title>
<path fill="none" stroke="midnightblue" d="M536.861,-380.411C557.399,-375.343 582.78,-369.08 604.481,-363.725"/>
<polygon fill="midnightblue" stroke="midnightblue" points="605.611,-367.052 614.481,-361.258 603.934,-360.256 605.611,-367.052"/>
</g>
<!-- Node27 -->
<g id="node27" class="node"><title>Node27</title>
<g id="a_node27"><a xlink:href="transskip_8cc.html#a04a4108bf9903c66f1dc0480135b8c1d" target="_top" xlink:title="IsNodeActive">
<polygon fill="none" stroke="black" points="768,-456.5 768,-475.5 844,-475.5 844,-456.5 768,-456.5"/>
<text text-anchor="middle" x="806" y="-463.5" font-family="Helvetica,sans-Serif" font-size="10.00">IsNodeActive</text>
</a>
</g>
</g>
<!-- Node26&#45;&gt;Node27 -->
<g id="edge37" class="edge"><title>Node26&#45;&gt;Node27</title>
<path fill="none" stroke="midnightblue" d="M685.655,-466C706.522,-466 734.227,-466 757.691,-466"/>
<polygon fill="midnightblue" stroke="midnightblue" points="757.793,-469.5 767.793,-466 757.793,-462.5 757.793,-469.5"/>
</g>
<!-- Node29&#45;&gt;Node2 -->
<g id="edge43" class="edge"><title>Node29&#45;&gt;Node2</title>
<path fill="none" stroke="midnightblue" d="M509.819,-437.593C525.772,-450.115 555.493,-471.964 584,-485 589.633,-487.576 595.692,-489.875 601.788,-491.907"/>
<polygon fill="midnightblue" stroke="midnightblue" points="600.756,-495.251 611.345,-494.88 602.836,-488.567 600.756,-495.251"/>
</g>
<!-- Node29&#45;&gt;Node4 -->
<g id="edge40" class="edge"><title>Node29&#45;&gt;Node4</title>
<path fill="none" stroke="midnightblue" d="M535.673,-418.704C556.136,-413.655 581.664,-407.356 603.589,-401.946"/>
<polygon fill="midnightblue" stroke="midnightblue" points="604.507,-405.324 613.378,-399.53 602.83,-398.528 604.507,-405.324"/>
</g>
<!-- Node29&#45;&gt;Node14 -->
<g id="edge41" class="edge"><title>Node29&#45;&gt;Node14</title>
<path fill="none" stroke="midnightblue" d="M533.594,-418.413C538.822,-415.934 543.839,-412.844 548,-409 575.454,-383.639 558.474,-360.302 584,-333 593.328,-323.022 605.881,-315.003 617.661,-308.949"/>
<polygon fill="midnightblue" stroke="midnightblue" points="619.375,-312.009 626.867,-304.516 616.338,-305.702 619.375,-312.009"/>
</g>
<!-- Node29&#45;&gt;Node20 -->
<g id="edge42" class="edge"><title>Node29&#45;&gt;Node20</title>
<path fill="none" stroke="midnightblue" d="M458.257,-425.745C402.86,-422.435 299.13,-416.237 234.589,-412.381"/>
<polygon fill="midnightblue" stroke="midnightblue" points="234.771,-408.886 224.58,-411.783 234.354,-415.873 234.771,-408.886"/>
</g>
<!-- Node29&#45;&gt;Node25 -->
<g id="edge44" class="edge"><title>Node29&#45;&gt;Node25</title>
<path fill="none" stroke="midnightblue" d="M535.673,-428C554.031,-428 576.466,-428 596.719,-428"/>
<polygon fill="midnightblue" stroke="midnightblue" points="596.767,-431.5 606.767,-428 596.767,-424.5 596.767,-431.5"/>
</g>
<!-- Node29&#45;&gt;Node26 -->
<g id="edge45" class="edge"><title>Node29&#45;&gt;Node26</title>
<path fill="none" stroke="midnightblue" d="M535.673,-437.296C558.322,-442.885 587.178,-450.005 610.483,-455.756"/>
<polygon fill="midnightblue" stroke="midnightblue" points="609.879,-459.211 620.426,-458.209 611.556,-452.415 609.879,-459.211"/>
</g>
<!-- Node29&#45;&gt;Node28 -->
<g id="edge46" class="edge"><title>Node29&#45;&gt;Node28</title>
<path fill="none" stroke="midnightblue" d="M529.736,-418.409C536.047,-415.832 542.436,-412.708 548,-409 567.36,-396.099 564.075,-383.01 584,-371 590.279,-367.215 597.336,-364.162 604.465,-361.705"/>
<polygon fill="midnightblue" stroke="midnightblue" points="605.641,-365.005 614.164,-358.711 603.576,-358.316 605.641,-365.005"/>
</g>
<!-- Node32 -->
<g id="node32" class="node"><title>Node32</title>
<g id="a_node32"><a xlink:href="gc_8c.html#a80f4a5c119aa70ab0452a73dfac21bbd" target="_top" xlink:title="fr_gc_free">
<polygon fill="none" stroke="black" points="776,-270.5 776,-289.5 836,-289.5 836,-270.5 776,-270.5"/>
<text text-anchor="middle" x="806" y="-277.5" font-family="Helvetica,sans-Serif" font-size="10.00">fr_gc_free</text>
</a>
</g>
</g>
<!-- Node31&#45;&gt;Node32 -->
<g id="edge49" class="edge"><title>Node31&#45;&gt;Node32</title>
<path fill="none" stroke="midnightblue" d="M368.737,-240.596C448.733,-247.821 674.115,-268.178 765.636,-276.445"/>
<polygon fill="midnightblue" stroke="midnightblue" points="765.586,-279.954 775.86,-277.368 766.215,-272.983 765.586,-279.954"/>
</g>
<!-- Node32&#45;&gt;Node11 -->
<g id="edge50" class="edge"><title>Node32&#45;&gt;Node11</title>
<path fill="none" stroke="midnightblue" d="M836.295,-289.543C855.094,-295.667 879.717,-303.688 900.142,-310.342"/>
<polygon fill="midnightblue" stroke="midnightblue" points="899.194,-313.714 909.787,-313.484 901.363,-307.058 899.194,-313.714"/>
</g>
<!-- Node34 -->
<g id="node34" class="node"><title>Node34</title>
<g id="a_node34"><a xlink:href="transskip_8cc.html#ab6919257456cff4d47684cdfd3bc5a3c" target="_top" xlink:title="get_level">
<polygon fill="none" stroke="black" points="778,-612.5 778,-631.5 834,-631.5 834,-612.5 778,-612.5"/>
<text text-anchor="middle" x="806" y="-619.5" font-family="Helvetica,sans-Serif" font-size="10.00">get_level</text>
</a>
</g>
</g>
<!-- Node33&#45;&gt;Node34 -->
<g id="edge54" class="edge"><title>Node33&#45;&gt;Node34</title>
<path fill="none" stroke="midnightblue" d="M684.557,-622C708.491,-622 741.9,-622 767.461,-622"/>
<polygon fill="midnightblue" stroke="midnightblue" points="767.535,-625.5 777.535,-622 767.535,-618.5 767.535,-625.5"/>
</g>
<!-- Node35 -->
<g id="node35" class="node"><title>Node35</title>
<g id="a_node35"><a xlink:href="gc_8c.html#a5c5981457deeeefd60df569f6265f59c" target="_top" xlink:title="fr_gc_alloc">
<polygon fill="none" stroke="black" points="774,-503.5 774,-522.5 838,-522.5 838,-503.5 774,-503.5"/>
<text text-anchor="middle" x="806" y="-510.5" font-family="Helvetica,sans-Serif" font-size="10.00">fr_gc_alloc</text>
</a>
</g>
</g>
<!-- Node33&#45;&gt;Node35 -->
<g id="edge55" class="edge"><title>Node33&#45;&gt;Node35</title>
<path fill="none" stroke="midnightblue" d="M667.4,-612.327C693.527,-593.468 751.485,-551.63 783.209,-528.73"/>
<polygon fill="midnightblue" stroke="midnightblue" points="785.353,-531.499 791.413,-522.808 781.256,-525.823 785.353,-531.499"/>
</g>
<!-- Node35&#45;&gt;Node7 -->
<g id="edge56" class="edge"><title>Node35&#45;&gt;Node7</title>
<path fill="none" stroke="midnightblue" d="M838.195,-512.968C911.439,-512.386 1099.87,-507.938 1254,-479 1268.79,-476.223 1284.77,-472.232 1298.9,-468.351"/>
<polygon fill="midnightblue" stroke="midnightblue" points="1300.13,-471.639 1308.81,-465.564 1298.24,-464.901 1300.13,-471.639"/>
</g>
<!-- Node35&#45;&gt;Node9 -->
<g id="edge57" class="edge"><title>Node35&#45;&gt;Node9</title>
<path fill="none" stroke="midnightblue" d="M825.62,-503.467C834.58,-498.498 845.249,-492.002 854,-485 872.165,-470.465 871.814,-461.509 890,-447 896.52,-441.798 904.065,-436.875 911.251,-432.612"/>
<polygon fill="midnightblue" stroke="midnightblue" points="913.102,-435.586 920.057,-427.594 909.636,-429.504 913.102,-435.586"/>
</g>
<!-- Node37&#45;&gt;Node15 -->
<g id="edge62" class="edge"><title>Node37&#45;&gt;Node15</title>
<path fill="none" stroke="midnightblue" d="M215.81,-200C321.78,-200 622.128,-200 748.191,-200"/>
<polygon fill="midnightblue" stroke="midnightblue" points="748.402,-203.5 758.402,-200 748.402,-196.5 748.402,-203.5"/>
</g>
<!-- Node37&#45;&gt;Node19 -->
<g id="edge61" class="edge"><title>Node37&#45;&gt;Node19</title>
<path fill="none" stroke="midnightblue" d="M215.513,-191.091C237.173,-185.947 264.686,-179.412 288.147,-173.84"/>
<polygon fill="midnightblue" stroke="midnightblue" points="289.005,-177.234 297.925,-171.518 287.387,-170.423 289.005,-177.234"/>
</g>
<!-- Node37&#45;&gt;Node31 -->
<g id="edge63" class="edge"><title>Node37&#45;&gt;Node31</title>
<path fill="none" stroke="midnightblue" d="M215.513,-208.909C240.76,-214.906 273.961,-222.791 299.426,-228.839"/>
<polygon fill="midnightblue" stroke="midnightblue" points="298.933,-232.319 309.471,-231.224 300.55,-225.508 298.933,-232.319"/>
</g>
</g>
</svg>
