<?xml version="1.0" encoding="UTF-8" standalone="no"?>
<!DOCTYPE svg PUBLIC "-//W3C//DTD SVG 1.1//EN"
 "http://www.w3.org/Graphics/SVG/1.1/DTD/svg11.dtd">
<!-- Generated by graphviz version 2.36.0 (20140111.2315)
 -->
<!-- Title: rstm/rstm&#45;dev/bench/TypeTest.cpp Pages: 1 -->
<svg width="1087pt" height="488pt"
 viewBox="0.00 0.00 1087.00 488.00" xmlns="http://www.w3.org/2000/svg" xmlns:xlink="http://www.w3.org/1999/xlink">
<g id="graph0" class="graph" transform="scale(1 1) rotate(0) translate(4 484)">
<title>rstm/rstm&#45;dev/bench/TypeTest.cpp</title>
<!-- Node1 -->
<g id="node1" class="node"><title>Node1</title>
<polygon fill="#bfbfbf" stroke="black" points="36.5,-449 36.5,-479 143.5,-479 143.5,-449 36.5,-449"/>
<text text-anchor="start" x="44.5" y="-467" font-family="Helvetica,sans-Serif" font-size="10.00">rstm/rstm&#45;dev/bench</text>
<text text-anchor="middle" x="90" y="-456" font-family="Helvetica,sans-Serif" font-size="10.00">/TypeTest.cpp</text>
</g>
<!-- Node2 -->
<g id="node2" class="node"><title>Node2</title>
<polygon fill="none" stroke="#bfbfbf" points="0,-336.5 0,-355.5 54,-355.5 54,-336.5 0,-336.5"/>
<text text-anchor="middle" x="27" y="-343.5" font-family="Helvetica,sans-Serif" font-size="10.00">iostream</text>
</g>
<!-- Node1&#45;&gt;Node2 -->
<g id="edge1" class="edge"><title>Node1&#45;&gt;Node2</title>
<path fill="none" stroke="midnightblue" d="M73.3536,-448.976C63.1551,-439.52 50.6357,-426.213 43,-412 35.2657,-397.603 31.2006,-379.41 29.1074,-365.935"/>
<polygon fill="midnightblue" stroke="midnightblue" points="32.5624,-365.364 27.7756,-355.912 25.6234,-366.286 32.5624,-365.364"/>
</g>
<!-- Node3 -->
<g id="node3" class="node"><title>Node3</title>
<g id="a_node3"><a xlink:href="api_8hpp.html" target="_top" xlink:title="api/api.hpp">
<polygon fill="none" stroke="black" points="146,-392.5 146,-411.5 210,-411.5 210,-392.5 146,-392.5"/>
<text text-anchor="middle" x="178" y="-399.5" font-family="Helvetica,sans-Serif" font-size="10.00">api/api.hpp</text>
</a>
</g>
</g>
<!-- Node1&#45;&gt;Node3 -->
<g id="edge2" class="edge"><title>Node1&#45;&gt;Node3</title>
<path fill="none" stroke="midnightblue" d="M110.855,-448.781C124.78,-439.286 143.03,-426.843 156.988,-417.327"/>
<polygon fill="midnightblue" stroke="midnightblue" points="159.161,-420.081 165.452,-411.556 155.218,-414.297 159.161,-420.081"/>
</g>
<!-- Node29 -->
<g id="node29" class="node"><title>Node29</title>
<g id="a_node29"><a xlink:href="bmconfig_8hpp.html" target="_top" xlink:title="bmconfig.hpp">
<polygon fill="none" stroke="black" points="52.5,-392.5 52.5,-411.5 127.5,-411.5 127.5,-392.5 52.5,-392.5"/>
<text text-anchor="middle" x="90" y="-399.5" font-family="Helvetica,sans-Serif" font-size="10.00">bmconfig.hpp</text>
</a>
</g>
</g>
<!-- Node1&#45;&gt;Node29 -->
<g id="edge50" class="edge"><title>Node1&#45;&gt;Node29</title>
<path fill="none" stroke="midnightblue" d="M90,-448.781C90,-440.781 90,-430.689 90,-422.017"/>
<polygon fill="midnightblue" stroke="midnightblue" points="93.5001,-421.73 90,-411.731 86.5001,-421.731 93.5001,-421.73"/>
</g>
<!-- Node4 -->
<g id="node4" class="node"><title>Node4</title>
<polygon fill="none" stroke="#bfbfbf" points="303.5,-0.5 303.5,-19.5 374.5,-19.5 374.5,-0.5 303.5,-0.5"/>
<text text-anchor="middle" x="339" y="-7.5" font-family="Helvetica,sans-Serif" font-size="10.00">stm/config.h</text>
</g>
<!-- Node3&#45;&gt;Node4 -->
<g id="edge3" class="edge"><title>Node3&#45;&gt;Node4</title>
<path fill="none" stroke="midnightblue" d="M170.406,-392.281C155.751,-374.523 125,-332.337 125,-291 125,-291 125,-291 125,-121 125,-46.0136 230.219,-22.1031 293.099,-14.5092"/>
<polygon fill="midnightblue" stroke="midnightblue" points="293.63,-17.9718 303.181,-13.3866 292.855,-11.0148 293.63,-17.9718"/>
</g>
<!-- Node5 -->
<g id="node5" class="node"><title>Node5</title>
<g id="a_node5"><a xlink:href="library_8hpp.html" target="_top" xlink:title="api/library.hpp">
<polygon fill="none" stroke="black" points="392.5,-336.5 392.5,-355.5 469.5,-355.5 469.5,-336.5 392.5,-336.5"/>
<text text-anchor="middle" x="431" y="-343.5" font-family="Helvetica,sans-Serif" font-size="10.00">api/library.hpp</text>
</a>
</g>
</g>
<!-- Node3&#45;&gt;Node5 -->
<g id="edge4" class="edge"><title>Node3&#45;&gt;Node5</title>
<path fill="none" stroke="midnightblue" d="M210.043,-394.161C253.457,-384.895 331.357,-368.268 382.104,-357.436"/>
<polygon fill="midnightblue" stroke="midnightblue" points="383.136,-360.795 392.185,-355.285 381.675,-353.949 383.136,-360.795"/>
</g>
<!-- Node5&#45;&gt;Node4 -->
<g id="edge6" class="edge"><title>Node5&#45;&gt;Node4</title>
<path fill="none" stroke="midnightblue" d="M392.366,-336.706C344.933,-324.525 265.234,-297.23 220,-244 200.51,-221.065 201,-209.098 201,-179 201,-179 201,-179 201,-121 201,-69.6605 260.125,-38.4014 300.974,-22.9312"/>
<polygon fill="midnightblue" stroke="midnightblue" points="302.197,-26.2108 310.406,-19.5128 299.812,-19.6296 302.197,-26.2108"/>
</g>
<!-- Node6 -->
<g id="node6" class="node"><title>Node6</title>
<polygon fill="none" stroke="#bfbfbf" points="621,-280.5 621,-299.5 675,-299.5 675,-280.5 621,-280.5"/>
<text text-anchor="middle" x="648" y="-287.5" font-family="Helvetica,sans-Serif" font-size="10.00">setjmp.h</text>
</g>
<!-- Node5&#45;&gt;Node6 -->
<g id="edge5" class="edge"><title>Node5&#45;&gt;Node6</title>
<path fill="none" stroke="midnightblue" d="M465.365,-336.47C499.785,-327.924 554.541,-314.32 611.052,-300.234"/>
<polygon fill="midnightblue" stroke="midnightblue" points="612.018,-303.601 620.874,-297.785 610.324,-296.808 612.018,-303.601"/>
</g>
<!-- Node7 -->
<g id="node7" class="node"><title>Node7</title>
<g id="a_node7"><a xlink:href="platform_8hpp.html" target="_top" xlink:title="common/platform.hpp">
<polygon fill="none" stroke="black" points="907.5,-56.5 907.5,-75.5 1018.5,-75.5 1018.5,-56.5 907.5,-56.5"/>
<text text-anchor="middle" x="963" y="-63.5" font-family="Helvetica,sans-Serif" font-size="10.00">common/platform.hpp</text>
</a>
</g>
</g>
<!-- Node5&#45;&gt;Node7 -->
<g id="edge7" class="edge"><title>Node5&#45;&gt;Node7</title>
<path fill="none" stroke="midnightblue" d="M469.621,-342.148C603.711,-331.736 1041,-293.312 1041,-235 1041,-235 1041,-235 1041,-177 1041,-146.775 1038.18,-136.865 1021,-112 1012.28,-99.3841 998.945,-88.6861 987.258,-80.8903"/>
<polygon fill="midnightblue" stroke="midnightblue" points="989.069,-77.8947 978.746,-75.5108 985.329,-83.812 989.069,-77.8947"/>
</g>
<!-- Node11 -->
<g id="node11" class="node"><title>Node11</title>
<g id="a_node11"><a xlink:href="txthread_8hpp.html" target="_top" xlink:title="stm/txthread.hpp">
<polygon fill="none" stroke="black" points="513,-280.5 513,-299.5 603,-299.5 603,-280.5 513,-280.5"/>
<text text-anchor="middle" x="558" y="-287.5" font-family="Helvetica,sans-Serif" font-size="10.00">stm/txthread.hpp</text>
</a>
</g>
</g>
<!-- Node5&#45;&gt;Node11 -->
<g id="edge12" class="edge"><title>Node5&#45;&gt;Node11</title>
<path fill="none" stroke="midnightblue" d="M451.124,-336.444C472.024,-327.557 504.935,-313.563 528.716,-303.451"/>
<polygon fill="midnightblue" stroke="midnightblue" points="530.138,-306.65 537.971,-299.516 527.398,-300.208 530.138,-306.65"/>
</g>
<!-- Node28 -->
<g id="node28" class="node"><title>Node28</title>
<g id="a_node28"><a xlink:href="library__inst_8hpp.html" target="_top" xlink:title="library_inst.hpp">
<polygon fill="none" stroke="black" points="153.5,-280.5 153.5,-299.5 236.5,-299.5 236.5,-280.5 153.5,-280.5"/>
<text text-anchor="middle" x="195" y="-287.5" font-family="Helvetica,sans-Serif" font-size="10.00">library_inst.hpp</text>
</a>
</g>
</g>
<!-- Node5&#45;&gt;Node28 -->
<g id="edge48" class="edge"><title>Node5&#45;&gt;Node28</title>
<path fill="none" stroke="midnightblue" d="M393.605,-336.444C352.608,-327.063 286.746,-311.993 242.216,-301.804"/>
<polygon fill="midnightblue" stroke="midnightblue" points="242.749,-298.335 232.22,-299.516 241.187,-305.159 242.749,-298.335"/>
</g>
<!-- Node7&#45;&gt;Node4 -->
<g id="edge8" class="edge"><title>Node7&#45;&gt;Node4</title>
<path fill="none" stroke="midnightblue" d="M907.243,-57.5922C902.429,-57.0251 897.631,-56.4855 893,-56 704.755,-36.2642 479.745,-20.3537 384.819,-13.9928"/>
<polygon fill="midnightblue" stroke="midnightblue" points="384.912,-10.4913 374.701,-13.318 384.446,-17.4758 384.912,-10.4913"/>
</g>
<!-- Node8 -->
<g id="node8" class="node"><title>Node8</title>
<polygon fill="none" stroke="#bfbfbf" points="871.5,-0.5 871.5,-19.5 920.5,-19.5 920.5,-0.5 871.5,-0.5"/>
<text text-anchor="middle" x="896" y="-7.5" font-family="Helvetica,sans-Serif" font-size="10.00">stdint.h</text>
</g>
<!-- Node7&#45;&gt;Node8 -->
<g id="edge9" class="edge"><title>Node7&#45;&gt;Node8</title>
<path fill="none" stroke="midnightblue" d="M952.235,-56.324C942.234,-48.2631 927.113,-36.0765 915.07,-26.3695"/>
<polygon fill="midnightblue" stroke="midnightblue" points="916.943,-23.3841 906.961,-19.8339 912.55,-28.8343 916.943,-23.3841"/>
</g>
<!-- Node9 -->
<g id="node9" class="node"><title>Node9</title>
<polygon fill="none" stroke="#bfbfbf" points="939,-0.5 939,-19.5 987,-19.5 987,-0.5 939,-0.5"/>
<text text-anchor="middle" x="963" y="-7.5" font-family="Helvetica,sans-Serif" font-size="10.00">limits.h</text>
</g>
<!-- Node7&#45;&gt;Node9 -->
<g id="edge10" class="edge"><title>Node7&#45;&gt;Node9</title>
<path fill="none" stroke="midnightblue" d="M963,-56.083C963,-49.0059 963,-38.8611 963,-29.9865"/>
<polygon fill="midnightblue" stroke="midnightblue" points="966.5,-29.751 963,-19.7511 959.5,-29.7511 966.5,-29.751"/>
</g>
<!-- Node10 -->
<g id="node10" class="node"><title>Node10</title>
<polygon fill="none" stroke="#bfbfbf" points="1005.5,-0.5 1005.5,-19.5 1056.5,-19.5 1056.5,-0.5 1005.5,-0.5"/>
<text text-anchor="middle" x="1031" y="-7.5" font-family="Helvetica,sans-Serif" font-size="10.00">unistd.h</text>
</g>
<!-- Node7&#45;&gt;Node10 -->
<g id="edge11" class="edge"><title>Node7&#45;&gt;Node10</title>
<path fill="none" stroke="midnightblue" d="M973.925,-56.324C984.175,-48.1849 999.721,-35.8395 1012,-26.0874"/>
<polygon fill="midnightblue" stroke="midnightblue" points="1014.22,-28.7937 1019.88,-19.8339 1009.87,-23.3119 1014.22,-28.7937"/>
</g>
<!-- Node12 -->
<g id="node12" class="node"><title>Node12</title>
<g id="a_node12"><a xlink:href="rand__r__32_8h.html" target="_top" xlink:title="alt&#45;license/rand_r_32.h">
<polygon fill="none" stroke="black" points="376.5,-224.5 376.5,-243.5 491.5,-243.5 491.5,-224.5 376.5,-224.5"/>
<text text-anchor="middle" x="434" y="-231.5" font-family="Helvetica,sans-Serif" font-size="10.00">alt&#45;license/rand_r_32.h</text>
</a>
</g>
</g>
<!-- Node11&#45;&gt;Node12 -->
<g id="edge13" class="edge"><title>Node11&#45;&gt;Node12</title>
<path fill="none" stroke="midnightblue" d="M538.352,-280.444C518.035,-271.596 486.097,-257.687 462.902,-247.586"/>
<polygon fill="midnightblue" stroke="midnightblue" points="464.122,-244.3 453.556,-243.516 461.327,-250.718 464.122,-244.3"/>
</g>
<!-- Node14 -->
<g id="node14" class="node"><title>Node14</title>
<g id="a_node14"><a xlink:href="locks_8hpp.html" target="_top" xlink:title="common/locks.hpp">
<polygon fill="none" stroke="black" points="913.5,-112.5 913.5,-131.5 1012.5,-131.5 1012.5,-112.5 913.5,-112.5"/>
<text text-anchor="middle" x="963" y="-119.5" font-family="Helvetica,sans-Serif" font-size="10.00">common/locks.hpp</text>
</a>
</g>
</g>
<!-- Node11&#45;&gt;Node14 -->
<g id="edge16" class="edge"><title>Node11&#45;&gt;Node14</title>
<path fill="none" stroke="midnightblue" d="M600.973,-280.423C648.903,-270.593 723.223,-254.491 750,-244 824.835,-214.68 905.259,-162.708 942.237,-137.507"/>
<polygon fill="midnightblue" stroke="midnightblue" points="944.416,-140.256 950.673,-131.707 940.45,-134.488 944.416,-140.256"/>
</g>
<!-- Node15 -->
<g id="node15" class="node"><title>Node15</title>
<g id="a_node15"><a xlink:href="ThreadLocal_8hpp.html" target="_top" xlink:title="common/ThreadLocal.hpp">
<polygon fill="none" stroke="black" points="229.5,-224.5 229.5,-243.5 358.5,-243.5 358.5,-224.5 229.5,-224.5"/>
<text text-anchor="middle" x="294" y="-231.5" font-family="Helvetica,sans-Serif" font-size="10.00">common/ThreadLocal.hpp</text>
</a>
</g>
</g>
<!-- Node11&#45;&gt;Node15 -->
<g id="edge18" class="edge"><title>Node11&#45;&gt;Node15</title>
<path fill="none" stroke="midnightblue" d="M516.168,-280.444C469.921,-270.984 395.388,-255.738 345.564,-245.547"/>
<polygon fill="midnightblue" stroke="midnightblue" points="346.134,-242.091 335.636,-243.516 344.732,-248.949 346.134,-242.091"/>
</g>
<!-- Node16 -->
<g id="node16" class="node"><title>Node16</title>
<g id="a_node16"><a xlink:href="metadata_8hpp.html" target="_top" xlink:title="stm/metadata.hpp">
<polygon fill="none" stroke="black" points="586.5,-168.5 586.5,-187.5 681.5,-187.5 681.5,-168.5 586.5,-168.5"/>
<text text-anchor="middle" x="634" y="-175.5" font-family="Helvetica,sans-Serif" font-size="10.00">stm/metadata.hpp</text>
</a>
</g>
</g>
<!-- Node11&#45;&gt;Node16 -->
<g id="edge20" class="edge"><title>Node11&#45;&gt;Node16</title>
<path fill="none" stroke="midnightblue" d="M598.147,-280.429C617.975,-273.953 640.138,-262.83 652,-244 661.229,-229.349 653.79,-209.936 645.86,-196.151"/>
<polygon fill="midnightblue" stroke="midnightblue" points="648.784,-194.226 640.49,-187.634 642.863,-197.959 648.784,-194.226"/>
</g>
<!-- Node22 -->
<g id="node22" class="node"><title>Node22</title>
<g id="a_node22"><a xlink:href="WriteSet_8hpp.html" target="_top" xlink:title="stm/WriteSet.hpp">
<polygon fill="none" stroke="black" points="472.5,-112.5 472.5,-131.5 565.5,-131.5 565.5,-112.5 472.5,-112.5"/>
<text text-anchor="middle" x="519" y="-119.5" font-family="Helvetica,sans-Serif" font-size="10.00">stm/WriteSet.hpp</text>
</a>
</g>
</g>
<!-- Node11&#45;&gt;Node22 -->
<g id="edge30" class="edge"><title>Node11&#45;&gt;Node22</title>
<path fill="none" stroke="midnightblue" d="M599.629,-280.45C622.385,-273.879 649.601,-262.658 668,-244 692.691,-218.962 711.469,-195.85 690,-168 682.607,-158.41 619.373,-143.548 571.938,-133.555"/>
<polygon fill="midnightblue" stroke="midnightblue" points="572.585,-130.115 562.081,-131.5 571.156,-136.967 572.585,-130.115"/>
</g>
<!-- Node24 -->
<g id="node24" class="node"><title>Node24</title>
<g id="a_node24"><a xlink:href="UndoLog_8hpp.html" target="_top" xlink:title="stm/UndoLog.hpp">
<polygon fill="none" stroke="black" points="738,-168.5 738,-187.5 832,-187.5 832,-168.5 738,-168.5"/>
<text text-anchor="middle" x="785" y="-175.5" font-family="Helvetica,sans-Serif" font-size="10.00">stm/UndoLog.hpp</text>
</a>
</g>
</g>
<!-- Node11&#45;&gt;Node24 -->
<g id="edge35" class="edge"><title>Node11&#45;&gt;Node24</title>
<path fill="none" stroke="midnightblue" d="M599.546,-280.46C641.545,-271.348 703.139,-256.531 724,-244 744.434,-231.725 762.362,-210.69 773.402,-195.88"/>
<polygon fill="midnightblue" stroke="midnightblue" points="776.359,-197.762 779.346,-187.597 770.672,-193.681 776.359,-197.762"/>
</g>
<!-- Node26 -->
<g id="node26" class="node"><title>Node26</title>
<g id="a_node26"><a xlink:href="ValueList_8hpp.html" target="_top" xlink:title="stm/ValueList.hpp">
<polygon fill="none" stroke="black" points="386.5,-168.5 386.5,-187.5 481.5,-187.5 481.5,-168.5 386.5,-168.5"/>
<text text-anchor="middle" x="434" y="-175.5" font-family="Helvetica,sans-Serif" font-size="10.00">stm/ValueList.hpp</text>
</a>
</g>
</g>
<!-- Node11&#45;&gt;Node26 -->
<g id="edge40" class="edge"><title>Node11&#45;&gt;Node26</title>
<path fill="none" stroke="midnightblue" d="M551.449,-280.398C541.275,-267.35 520.688,-242.157 500,-224 486.832,-212.443 470.587,-201.333 457.509,-193.044"/>
<polygon fill="midnightblue" stroke="midnightblue" points="458.978,-189.837 448.635,-187.541 455.289,-195.786 458.978,-189.837"/>
</g>
<!-- Node27 -->
<g id="node27" class="node"><title>Node27</title>
<g id="a_node27"><a xlink:href="WBMMPolicy_8hpp.html" target="_top" xlink:title="WBMMPolicy.hpp">
<polygon fill="none" stroke="black" points="548.5,-224.5 548.5,-243.5 643.5,-243.5 643.5,-224.5 548.5,-224.5"/>
<text text-anchor="middle" x="596" y="-231.5" font-family="Helvetica,sans-Serif" font-size="10.00">WBMMPolicy.hpp</text>
</a>
</g>
</g>
<!-- Node11&#45;&gt;Node27 -->
<g id="edge43" class="edge"><title>Node11&#45;&gt;Node27</title>
<path fill="none" stroke="midnightblue" d="M564.275,-280.083C569.642,-272.455 577.518,-261.264 584.079,-251.941"/>
<polygon fill="midnightblue" stroke="midnightblue" points="586.949,-253.943 589.842,-243.751 581.225,-249.915 586.949,-253.943"/>
</g>
<!-- Node12&#45;&gt;Node4 -->
<g id="edge15" class="edge"><title>Node12&#45;&gt;Node4</title>
<path fill="none" stroke="midnightblue" d="M376.477,-226.512C352.094,-220.592 325.916,-209.339 311,-188 276.447,-138.565 310.284,-62.498 328.745,-28.484"/>
<polygon fill="midnightblue" stroke="midnightblue" points="331.83,-30.1383 333.682,-19.7066 325.729,-26.7065 331.83,-30.1383"/>
</g>
<!-- Node13 -->
<g id="node13" class="node"><title>Node13</title>
<polygon fill="none" stroke="#bfbfbf" points="320,-168.5 320,-187.5 368,-187.5 368,-168.5 320,-168.5"/>
<text text-anchor="middle" x="344" y="-175.5" font-family="Helvetica,sans-Serif" font-size="10.00">stdlib.h</text>
</g>
<!-- Node12&#45;&gt;Node13 -->
<g id="edge14" class="edge"><title>Node12&#45;&gt;Node13</title>
<path fill="none" stroke="midnightblue" d="M419.54,-224.324C405.5,-215.9 383.952,-202.971 367.457,-193.074"/>
<polygon fill="midnightblue" stroke="midnightblue" points="368.8,-189.798 358.424,-187.655 365.198,-195.801 368.8,-189.798"/>
</g>
<!-- Node14&#45;&gt;Node7 -->
<g id="edge17" class="edge"><title>Node14&#45;&gt;Node7</title>
<path fill="none" stroke="midnightblue" d="M963,-112.083C963,-105.006 963,-94.8611 963,-85.9865"/>
<polygon fill="midnightblue" stroke="midnightblue" points="966.5,-85.751 963,-75.7511 959.5,-85.7511 966.5,-85.751"/>
</g>
<!-- Node15&#45;&gt;Node4 -->
<g id="edge19" class="edge"><title>Node15&#45;&gt;Node4</title>
<path fill="none" stroke="midnightblue" d="M287.11,-224.319C280.731,-215.684 271.692,-201.77 268,-188 252.807,-131.335 239.722,-107.402 268,-56 275.887,-41.6632 290.486,-31.2525 304.403,-24.0792"/>
<polygon fill="midnightblue" stroke="midnightblue" points="306.292,-27.0578 313.839,-19.6217 303.302,-20.7285 306.292,-27.0578"/>
</g>
<!-- Node16&#45;&gt;Node4 -->
<g id="edge21" class="edge"><title>Node16&#45;&gt;Node4</title>
<path fill="none" stroke="midnightblue" d="M586.163,-171.143C550.421,-165.217 501.333,-153.706 463,-132 414.769,-104.689 371.724,-54.001 351.389,-27.7415"/>
<polygon fill="midnightblue" stroke="midnightblue" points="354.006,-25.4 345.172,-19.5503 348.43,-29.6319 354.006,-25.4"/>
</g>
<!-- Node17 -->
<g id="node17" class="node"><title>Node17</title>
<g id="a_node17"><a xlink:href="MiniVector_8hpp.html" target="_top" xlink:title="stm/MiniVector.hpp">
<polygon fill="none" stroke="black" points="583.5,-112.5 583.5,-131.5 684.5,-131.5 684.5,-112.5 583.5,-112.5"/>
<text text-anchor="middle" x="634" y="-119.5" font-family="Helvetica,sans-Serif" font-size="10.00">stm/MiniVector.hpp</text>
</a>
</g>
</g>
<!-- Node16&#45;&gt;Node17 -->
<g id="edge22" class="edge"><title>Node16&#45;&gt;Node17</title>
<path fill="none" stroke="midnightblue" d="M634,-168.083C634,-161.006 634,-150.861 634,-141.986"/>
<polygon fill="midnightblue" stroke="midnightblue" points="637.5,-141.751 634,-131.751 630.5,-141.751 637.5,-141.751"/>
</g>
<!-- Node21 -->
<g id="node21" class="node"><title>Node21</title>
<g id="a_node21"><a xlink:href="BitFilter_8hpp.html" target="_top" xlink:title="stm/BitFilter.hpp">
<polygon fill="none" stroke="black" points="723.5,-56.5 723.5,-75.5 812.5,-75.5 812.5,-56.5 723.5,-56.5"/>
<text text-anchor="middle" x="768" y="-63.5" font-family="Helvetica,sans-Serif" font-size="10.00">stm/BitFilter.hpp</text>
</a>
</g>
</g>
<!-- Node16&#45;&gt;Node21 -->
<g id="edge27" class="edge"><title>Node16&#45;&gt;Node21</title>
<path fill="none" stroke="midnightblue" d="M645.922,-168.249C657.96,-159.333 677.01,-145.006 693,-132 713.301,-115.488 735.912,-95.6902 750.946,-82.3172"/>
<polygon fill="midnightblue" stroke="midnightblue" points="753.329,-84.8818 758.456,-75.6104 748.666,-79.6607 753.329,-84.8818"/>
</g>
<!-- Node17&#45;&gt;Node7 -->
<g id="edge26" class="edge"><title>Node17&#45;&gt;Node7</title>
<path fill="none" stroke="midnightblue" d="M684.685,-112.681C742.909,-103.124 838.443,-87.444 901.036,-77.1704"/>
<polygon fill="midnightblue" stroke="midnightblue" points="901.87,-80.5804 911.171,-75.5069 900.736,-73.6729 901.87,-80.5804"/>
</g>
<!-- Node18 -->
<g id="node18" class="node"><title>Node18</title>
<polygon fill="none" stroke="#bfbfbf" points="589.5,-56.5 589.5,-75.5 638.5,-75.5 638.5,-56.5 589.5,-56.5"/>
<text text-anchor="middle" x="614" y="-63.5" font-family="Helvetica,sans-Serif" font-size="10.00">cassert</text>
</g>
<!-- Node17&#45;&gt;Node18 -->
<g id="edge23" class="edge"><title>Node17&#45;&gt;Node18</title>
<path fill="none" stroke="midnightblue" d="M630.697,-112.083C628.018,-104.849 624.151,-94.4087 620.814,-85.3968"/>
<polygon fill="midnightblue" stroke="midnightblue" points="623.996,-83.9129 617.241,-75.7511 617.432,-86.3442 623.996,-83.9129"/>
</g>
<!-- Node19 -->
<g id="node19" class="node"><title>Node19</title>
<polygon fill="none" stroke="#bfbfbf" points="526.5,-56.5 526.5,-75.5 571.5,-75.5 571.5,-56.5 526.5,-56.5"/>
<text text-anchor="middle" x="549" y="-63.5" font-family="Helvetica,sans-Serif" font-size="10.00">cstdlib</text>
</g>
<!-- Node17&#45;&gt;Node19 -->
<g id="edge24" class="edge"><title>Node17&#45;&gt;Node19</title>
<path fill="none" stroke="midnightblue" d="M620.343,-112.324C607.084,-103.9 586.732,-90.9709 571.154,-81.0741"/>
<polygon fill="midnightblue" stroke="midnightblue" points="572.94,-78.0626 562.623,-75.6545 569.187,-83.9711 572.94,-78.0626"/>
</g>
<!-- Node20 -->
<g id="node20" class="node"><title>Node20</title>
<polygon fill="none" stroke="#bfbfbf" points="656.5,-56.5 656.5,-75.5 705.5,-75.5 705.5,-56.5 656.5,-56.5"/>
<text text-anchor="middle" x="681" y="-63.5" font-family="Helvetica,sans-Serif" font-size="10.00">string.h</text>
</g>
<!-- Node17&#45;&gt;Node20 -->
<g id="edge25" class="edge"><title>Node17&#45;&gt;Node20</title>
<path fill="none" stroke="midnightblue" d="M641.761,-112.083C648.537,-104.298 658.543,-92.8015 666.755,-83.3665"/>
<polygon fill="midnightblue" stroke="midnightblue" points="669.458,-85.592 673.383,-75.7511 664.178,-80.9963 669.458,-85.592"/>
</g>
<!-- Node21&#45;&gt;Node4 -->
<g id="edge28" class="edge"><title>Node21&#45;&gt;Node4</title>
<path fill="none" stroke="midnightblue" d="M723.235,-57.3774C720.112,-56.8954 717.011,-56.4313 714,-56 595.769,-39.0627 455.938,-23.4461 385.1,-15.8455"/>
<polygon fill="midnightblue" stroke="midnightblue" points="385.063,-12.3217 374.748,-14.7392 384.319,-19.2821 385.063,-12.3217"/>
</g>
<!-- Node21&#45;&gt;Node8 -->
<g id="edge29" class="edge"><title>Node21&#45;&gt;Node8</title>
<path fill="none" stroke="midnightblue" d="M788.282,-56.4435C809.347,-47.5566 842.517,-33.5632 866.486,-23.4514"/>
<polygon fill="midnightblue" stroke="midnightblue" points="867.96,-26.6283 875.813,-19.5164 865.239,-20.1787 867.96,-26.6283"/>
</g>
<!-- Node22&#45;&gt;Node4 -->
<g id="edge31" class="edge"><title>Node22&#45;&gt;Node4</title>
<path fill="none" stroke="midnightblue" d="M504.876,-112.368C473.856,-93.4121 399.546,-48.0006 361.815,-24.9424"/>
<polygon fill="midnightblue" stroke="midnightblue" points="363.417,-21.8195 353.059,-19.5914 359.766,-27.7925 363.417,-21.8195"/>
</g>
<!-- Node22&#45;&gt;Node18 -->
<g id="edge34" class="edge"><title>Node22&#45;&gt;Node18</title>
<path fill="none" stroke="midnightblue" d="M534.263,-112.324C549.221,-103.822 572.255,-90.7288 589.727,-80.7975"/>
<polygon fill="midnightblue" stroke="midnightblue" points="591.81,-83.639 598.774,-75.6545 588.351,-77.5534 591.81,-83.639"/>
</g>
<!-- Node22&#45;&gt;Node19 -->
<g id="edge32" class="edge"><title>Node22&#45;&gt;Node19</title>
<path fill="none" stroke="midnightblue" d="M523.954,-112.083C528.104,-104.613 534.153,-93.7244 539.267,-84.5199"/>
<polygon fill="midnightblue" stroke="midnightblue" points="542.341,-86.1924 544.138,-75.7511 536.222,-82.7929 542.341,-86.1924"/>
</g>
<!-- Node23 -->
<g id="node23" class="node"><title>Node23</title>
<polygon fill="none" stroke="#bfbfbf" points="462,-56.5 462,-75.5 508,-75.5 508,-56.5 462,-56.5"/>
<text text-anchor="middle" x="485" y="-63.5" font-family="Helvetica,sans-Serif" font-size="10.00">cstring</text>
</g>
<!-- Node22&#45;&gt;Node23 -->
<g id="edge33" class="edge"><title>Node22&#45;&gt;Node23</title>
<path fill="none" stroke="midnightblue" d="M513.386,-112.083C508.633,-104.534 501.682,-93.4948 495.848,-84.2298"/>
<polygon fill="midnightblue" stroke="midnightblue" points="498.8,-82.3486 490.51,-75.7511 492.876,-86.0783 498.8,-82.3486"/>
</g>
<!-- Node24&#45;&gt;Node4 -->
<g id="edge36" class="edge"><title>Node24&#45;&gt;Node4</title>
<path fill="none" stroke="midnightblue" d="M786.15,-168.339C788.023,-155.641 792.317,-131.379 800,-112 809.796,-87.2897 838.901,-75.65 821,-56 791.945,-24.1061 499.393,-14.4249 384.743,-11.8423"/>
<polygon fill="midnightblue" stroke="midnightblue" points="384.613,-8.33872 374.539,-11.6207 384.461,-15.3371 384.613,-8.33872"/>
</g>
<!-- Node24&#45;&gt;Node17 -->
<g id="edge37" class="edge"><title>Node24&#45;&gt;Node17</title>
<path fill="none" stroke="midnightblue" d="M761.074,-168.444C735.781,-159.399 695.698,-145.064 667.32,-134.916"/>
<polygon fill="midnightblue" stroke="midnightblue" points="668.409,-131.588 657.814,-131.516 666.052,-138.179 668.409,-131.588"/>
</g>
<!-- Node25 -->
<g id="node25" class="node"><title>Node25</title>
<g id="a_node25"><a xlink:href="include_2stm_2macros_8hpp.html" target="_top" xlink:title="stm/macros.hpp">
<polygon fill="none" stroke="black" points="808.5,-112.5 808.5,-131.5 895.5,-131.5 895.5,-112.5 808.5,-112.5"/>
<text text-anchor="middle" x="852" y="-119.5" font-family="Helvetica,sans-Serif" font-size="10.00">stm/macros.hpp</text>
</a>
</g>
</g>
<!-- Node24&#45;&gt;Node25 -->
<g id="edge38" class="edge"><title>Node24&#45;&gt;Node25</title>
<path fill="none" stroke="midnightblue" d="M795.765,-168.324C805.766,-160.263 820.887,-148.077 832.93,-138.369"/>
<polygon fill="midnightblue" stroke="midnightblue" points="835.45,-140.834 841.039,-131.834 831.057,-135.384 835.45,-140.834"/>
</g>
<!-- Node25&#45;&gt;Node4 -->
<g id="edge39" class="edge"><title>Node25&#45;&gt;Node4</title>
<path fill="none" stroke="midnightblue" d="M855.911,-112.104C861.35,-98.1983 869.045,-71.3231 855,-56 823.524,-21.66 504.942,-13.4287 384.653,-11.5386"/>
<polygon fill="midnightblue" stroke="midnightblue" points="384.704,-8.03903 374.652,-11.389 384.599,-15.0382 384.704,-8.03903"/>
</g>
<!-- Node26&#45;&gt;Node4 -->
<g id="edge41" class="edge"><title>Node26&#45;&gt;Node4</title>
<path fill="none" stroke="midnightblue" d="M397.653,-168.426C378.295,-161.848 356.051,-150.628 344,-132 323.805,-100.784 329.124,-54.9596 334.345,-29.6025"/>
<polygon fill="midnightblue" stroke="midnightblue" points="337.768,-30.3307 336.573,-19.8035 330.943,-28.7784 337.768,-30.3307"/>
</g>
<!-- Node26&#45;&gt;Node17 -->
<g id="edge42" class="edge"><title>Node26&#45;&gt;Node17</title>
<path fill="none" stroke="midnightblue" d="M465.691,-168.444C500.068,-159.162 555.077,-144.309 592.789,-134.127"/>
<polygon fill="midnightblue" stroke="midnightblue" points="593.716,-137.502 602.458,-131.516 591.891,-130.744 593.716,-137.502"/>
</g>
<!-- Node27&#45;&gt;Node4 -->
<g id="edge45" class="edge"><title>Node27&#45;&gt;Node4</title>
<path fill="none" stroke="midnightblue" d="M582.078,-224.476C543.098,-200.605 435.482,-134.655 432,-132 402.994,-109.882 393.925,-105.153 372,-76 361.076,-61.4746 352.023,-42.7909 346.18,-29.1854"/>
<polygon fill="midnightblue" stroke="midnightblue" points="349.252,-27.4531 342.208,-19.5392 342.779,-30.1187 349.252,-27.4531"/>
</g>
<!-- Node27&#45;&gt;Node13 -->
<g id="edge44" class="edge"><title>Node27&#45;&gt;Node13</title>
<path fill="none" stroke="midnightblue" d="M550.093,-224.448C507.822,-216.377 443.159,-203.533 378.121,-188.153"/>
<polygon fill="midnightblue" stroke="midnightblue" points="378.644,-184.679 368.105,-185.764 377.02,-191.488 378.644,-184.679"/>
</g>
<!-- Node27&#45;&gt;Node16 -->
<g id="edge47" class="edge"><title>Node27&#45;&gt;Node16</title>
<path fill="none" stroke="midnightblue" d="M602.275,-224.083C607.642,-216.455 615.518,-205.264 622.079,-195.941"/>
<polygon fill="midnightblue" stroke="midnightblue" points="624.949,-197.943 627.842,-187.751 619.225,-193.915 624.949,-197.943"/>
</g>
<!-- Node27&#45;&gt;Node17 -->
<g id="edge46" class="edge"><title>Node27&#45;&gt;Node17</title>
<path fill="none" stroke="midnightblue" d="M589.774,-224.241C581.49,-211.42 568.89,-187.007 578,-168 584.253,-154.954 596.336,-144.492 607.682,-136.951"/>
<polygon fill="midnightblue" stroke="midnightblue" points="609.809,-139.752 616.498,-131.535 606.146,-133.787 609.809,-139.752"/>
</g>
<!-- Node28&#45;&gt;Node4 -->
<g id="edge49" class="edge"><title>Node28&#45;&gt;Node4</title>
<path fill="none" stroke="midnightblue" d="M190.684,-280.408C181.95,-262.2 163,-218.181 163,-179 163,-179 163,-179 163,-121 163,-90.2048 164.519,-77.0466 187,-56 215.767,-29.0679 259.906,-18.1854 293.222,-13.8242"/>
<polygon fill="midnightblue" stroke="midnightblue" points="293.654,-17.2976 303.185,-12.6695 292.848,-10.3441 293.654,-17.2976"/>
</g>
<!-- Node29&#45;&gt;Node2 -->
<g id="edge53" class="edge"><title>Node29&#45;&gt;Node2</title>
<path fill="none" stroke="midnightblue" d="M79.878,-392.324C70.4736,-384.263 56.2559,-372.077 44.931,-362.369"/>
<polygon fill="midnightblue" stroke="midnightblue" points="47.1766,-359.684 37.3062,-355.834 42.621,-364.999 47.1766,-359.684"/>
</g>
<!-- Node29&#45;&gt;Node4 -->
<g id="edge51" class="edge"><title>Node29&#45;&gt;Node4</title>
<path fill="none" stroke="midnightblue" d="M89.6078,-392.444C88.7946,-373.943 87,-328.827 87,-291 87,-291 87,-291 87,-121 87,-32.0499 220.51,-14.3107 293.173,-11.243"/>
<polygon fill="midnightblue" stroke="midnightblue" points="293.555,-14.7321 303.429,-10.8902 293.315,-7.73619 293.555,-14.7321"/>
</g>
<!-- Node29&#45;&gt;Node8 -->
<g id="edge52" class="edge"><title>Node29&#45;&gt;Node8</title>
<path fill="none" stroke="midnightblue" d="M127.663,-393.499C130.816,-392.959 133.959,-392.451 137,-392 287.75,-369.649 326.465,-372.193 478,-356 611.574,-341.726 1079,-425.334 1079,-291 1079,-291 1079,-291 1079,-121 1079,-84.0042 1057.25,-77.2988 1027,-56 1011.23,-44.8964 963.79,-30.0401 930.56,-20.4932"/>
<polygon fill="midnightblue" stroke="midnightblue" points="931.33,-17.0735 920.755,-17.7109 929.419,-23.8077 931.33,-17.0735"/>
</g>
</g>
</svg>
