<?xml version="1.0" encoding="UTF-8" standalone="no"?>
<!DOCTYPE svg PUBLIC "-//W3C//DTD SVG 1.1//EN"
 "http://www.w3.org/Graphics/SVG/1.1/DTD/svg11.dtd">
<!-- Generated by graphviz version 2.36.0 (20140111.2315)
 -->
<!-- Title: addCustomer Pages: 1 -->
<svg width="288pt" height="28pt"
 viewBox="0.00 0.00 288.00 28.00" xmlns="http://www.w3.org/2000/svg" xmlns:xlink="http://www.w3.org/1999/xlink">
<g id="graph0" class="graph" transform="scale(1 1) rotate(0) translate(4 24)">
<title>addCustomer</title>
<!-- Node1 -->
<g id="node1" class="node"><title>Node1</title>
<polygon fill="#bfbfbf" stroke="black" points="0.5,-0.5 0.5,-19.5 75.5,-19.5 75.5,-0.5 0.5,-0.5"/>
<text text-anchor="middle" x="38" y="-7.5" font-family="Helvetica,sans-Serif" font-size="10.00">addCustomer</text>
</g>
<!-- Node2 -->
<g id="node2" class="node"><title>Node2</title>
<g id="a_node2"><a xlink:href="vacation_8c.html#a50cbd725eec0f7508965d533f2dadf44" target="_top" xlink:title="initializeManager">
<polygon fill="none" stroke="black" points="112.5,-0.5 112.5,-19.5 201.5,-19.5 201.5,-0.5 112.5,-0.5"/>
<text text-anchor="middle" x="157" y="-7.5" font-family="Helvetica,sans-Serif" font-size="10.00">initializeManager</text>
</a>
</g>
</g>
<!-- Node1&#45;&gt;Node2 -->
<g id="edge1" class="edge"><title>Node1&#45;&gt;Node2</title>
<path fill="none" stroke="midnightblue" d="M85.807,-10C94.6048,-10 103.77,-10 112.463,-10"/>
<polygon fill="midnightblue" stroke="midnightblue" points="85.6986,-6.5001 75.6985,-10 85.6985,-13.5001 85.6986,-6.5001"/>
</g>
<!-- Node3 -->
<g id="node3" class="node"><title>Node3</title>
<g id="a_node3"><a xlink:href="vacation_8c.html#a40c5c0b0d4eb7b59a91108269f69dc89" target="_top" xlink:title="MAIN">
<polygon fill="none" stroke="black" points="238,-0.5 238,-19.5 280,-19.5 280,-0.5 238,-0.5"/>
<text text-anchor="middle" x="259" y="-7.5" font-family="Helvetica,sans-Serif" font-size="10.00">MAIN</text>
</a>
</g>
</g>
<!-- Node2&#45;&gt;Node3 -->
<g id="edge2" class="edge"><title>Node2&#45;&gt;Node3</title>
<path fill="none" stroke="midnightblue" d="M211.693,-10C221.015,-10 230.166,-10 237.839,-10"/>
<polygon fill="midnightblue" stroke="midnightblue" points="211.571,-6.5001 201.571,-10 211.571,-13.5001 211.571,-6.5001"/>
</g>
</g>
</svg>
