<?xml version="1.0" encoding="UTF-8" standalone="no"?>
<!DOCTYPE svg PUBLIC "-//W3C//DTD SVG 1.1//EN"
 "http://www.w3.org/Graphics/SVG/1.1/DTD/svg11.dtd">
<!-- Generated by graphviz version 2.36.0 (20140111.2315)
 -->
<!-- Title: vector_sort Pages: 1 -->
<svg width="712pt" height="69pt"
 viewBox="0.00 0.00 712.00 68.90" xmlns="http://www.w3.org/2000/svg" xmlns:xlink="http://www.w3.org/1999/xlink">
<g id="graph0" class="graph" transform="scale(1 1) rotate(0) translate(4 64.9014)">
<title>vector_sort</title>
<!-- Node1 -->
<g id="node1" class="node"><title>Node1</title>
<polygon fill="#bfbfbf" stroke="black" points="0.5,-22.4151 0.5,-41.4151 65.5,-41.4151 65.5,-22.4151 0.5,-22.4151"/>
<text text-anchor="middle" x="33" y="-29.4151" font-family="Helvetica,sans-Serif" font-size="10.00">vector_sort</text>
</g>
<!-- Node2 -->
<g id="node2" class="node"><title>Node2</title>
<g id="a_node2"><a xlink:href="learner_8c.html#a02c8bbd9e58f6b76caafe97e1265357d" target="_top" xlink:title="populateQueryVectors">
<polygon fill="none" stroke="black" points="102.5,-22.4151 102.5,-41.4151 215.5,-41.4151 215.5,-22.4151 102.5,-22.4151"/>
<text text-anchor="middle" x="159" y="-29.4151" font-family="Helvetica,sans-Serif" font-size="10.00">populateQueryVectors</text>
</a>
</g>
</g>
<!-- Node1&#45;&gt;Node2 -->
<g id="edge1" class="edge"><title>Node1&#45;&gt;Node2</title>
<path fill="none" stroke="midnightblue" d="M75.7074,-31.9151C84.2618,-31.9151 93.3953,-31.9151 102.35,-31.9151"/>
<polygon fill="midnightblue" stroke="midnightblue" points="75.6113,-28.4152 65.6113,-31.9151 75.6112,-35.4152 75.6113,-28.4152"/>
</g>
<!-- Node3 -->
<g id="node3" class="node"><title>Node3</title>
<g id="a_node3"><a xlink:href="learner_8h.html#a643517a90c64064dfb94cb9cb8d6eddf" target="_top" xlink:title="learner_score">
<polygon fill="none" stroke="black" points="252.5,-22.4151 252.5,-41.4151 327.5,-41.4151 327.5,-22.4151 252.5,-22.4151"/>
<text text-anchor="middle" x="290" y="-29.4151" font-family="Helvetica,sans-Serif" font-size="10.00">learner_score</text>
</a>
</g>
</g>
<!-- Node2&#45;&gt;Node3 -->
<g id="edge2" class="edge"><title>Node2&#45;&gt;Node3</title>
<path fill="none" stroke="midnightblue" d="M226.056,-31.9151C235.132,-31.9151 244.166,-31.9151 252.439,-31.9151"/>
<polygon fill="midnightblue" stroke="midnightblue" points="225.831,-28.4152 215.831,-31.9151 225.831,-35.4152 225.831,-28.4152"/>
</g>
<!-- Node4 -->
<g id="node4" class="node"><title>Node4</title>
<g id="a_node4"><a xlink:href="bayes_8c.html#aa39a74293929705f5dfd47a76641d12a" target="_top" xlink:title="score">
<polygon fill="none" stroke="black" points="364.5,-22.4151 364.5,-41.4151 405.5,-41.4151 405.5,-22.4151 364.5,-22.4151"/>
<text text-anchor="middle" x="385" y="-29.4151" font-family="Helvetica,sans-Serif" font-size="10.00">score</text>
</a>
</g>
</g>
<!-- Node3&#45;&gt;Node4 -->
<g id="edge3" class="edge"><title>Node3&#45;&gt;Node4</title>
<path fill="none" stroke="midnightblue" d="M337.845,-25.1652C347.202,-25.1742 356.54,-25.5476 364.345,-26.2855"/>
<polygon fill="midnightblue" stroke="midnightblue" points="337.709,-21.6666 327.756,-25.2986 337.801,-28.666 337.709,-21.6666"/>
</g>
<!-- Node5 -->
<g id="node5" class="node"><title>Node5</title>
<g id="a_node5"><a xlink:href="bayes_8c.html#a40c5c0b0d4eb7b59a91108269f69dc89" target="_top" xlink:title="MAIN">
<polygon fill="none" stroke="black" points="662,-22.4151 662,-41.4151 704,-41.4151 704,-22.4151 662,-22.4151"/>
<text text-anchor="middle" x="683" y="-29.4151" font-family="Helvetica,sans-Serif" font-size="10.00">MAIN</text>
</a>
</g>
</g>
<!-- Node3&#45;&gt;Node5 -->
<g id="edge9" class="edge"><title>Node3&#45;&gt;Node5</title>
<path fill="none" stroke="midnightblue" d="M330.469,-19.6875C341.236,-16.8903 352.975,-14.3263 364,-12.9151 479.502,1.86973 511.109,6.04452 626,-12.9151 638.257,-14.9377 651.438,-19.293 661.931,-23.324"/>
<polygon fill="midnightblue" stroke="midnightblue" points="329.223,-16.3996 320.498,-22.4108 331.067,-23.1523 329.223,-16.3996"/>
</g>
<!-- Node4&#45;&gt;Node3 -->
<g id="edge8" class="edge"><title>Node4&#45;&gt;Node3</title>
<path fill="none" stroke="midnightblue" d="M354.228,-38.2609C345.805,-38.6852 336.538,-38.7754 327.756,-38.5316"/>
<polygon fill="midnightblue" stroke="midnightblue" points="354.617,-41.7422 364.345,-37.5447 354.122,-34.7597 354.617,-41.7422"/>
</g>
<!-- Node4&#45;&gt;Node5 -->
<g id="edge4" class="edge"><title>Node4&#45;&gt;Node5</title>
<path fill="none" stroke="midnightblue" d="M415.063,-43.7823C423.596,-46.7142 433.045,-49.4373 442,-50.9151 522.687,-64.2302 545.313,-64.2302 626,-50.9151 638.257,-48.8924 651.438,-44.5371 661.931,-40.5061"/>
<polygon fill="midnightblue" stroke="midnightblue" points="416.145,-40.4512 405.551,-40.3065 413.742,-47.0261 416.145,-40.4512"/>
</g>
<!-- Node6 -->
<g id="node6" class="node"><title>Node6</title>
<g id="a_node6"><a xlink:href="learner_8c.html#a5a45fbc491ab273140631145a6e82e54" target="_top" xlink:title="createTaskList">
<polygon fill="none" stroke="black" points="442.5,-22.4151 442.5,-41.4151 523.5,-41.4151 523.5,-22.4151 442.5,-22.4151"/>
<text text-anchor="middle" x="483" y="-29.4151" font-family="Helvetica,sans-Serif" font-size="10.00">createTaskList</text>
</a>
</g>
</g>
<!-- Node4&#45;&gt;Node6 -->
<g id="edge5" class="edge"><title>Node4&#45;&gt;Node6</title>
<path fill="none" stroke="midnightblue" d="M415.928,-31.9151C424.287,-31.9151 433.502,-31.9151 442.33,-31.9151"/>
<polygon fill="midnightblue" stroke="midnightblue" points="415.891,-28.4152 405.891,-31.9151 415.891,-35.4152 415.891,-28.4152"/>
</g>
<!-- Node7 -->
<g id="node7" class="node"><title>Node7</title>
<g id="a_node7"><a xlink:href="learner_8h.html#a23d451d4d355a14fa7c9735304ba4d95" target="_top" xlink:title="learner_run">
<polygon fill="none" stroke="black" points="560.5,-22.4151 560.5,-41.4151 625.5,-41.4151 625.5,-22.4151 560.5,-22.4151"/>
<text text-anchor="middle" x="593" y="-29.4151" font-family="Helvetica,sans-Serif" font-size="10.00">learner_run</text>
</a>
</g>
</g>
<!-- Node6&#45;&gt;Node7 -->
<g id="edge6" class="edge"><title>Node6&#45;&gt;Node7</title>
<path fill="none" stroke="midnightblue" d="M533.656,-31.9151C542.67,-31.9151 551.846,-31.9151 560.171,-31.9151"/>
<polygon fill="midnightblue" stroke="midnightblue" points="533.602,-28.4152 523.602,-31.9151 533.602,-35.4152 533.602,-28.4152"/>
</g>
<!-- Node7&#45;&gt;Node5 -->
<g id="edge7" class="edge"><title>Node7&#45;&gt;Node5</title>
<path fill="none" stroke="midnightblue" d="M635.839,-31.9151C644.875,-31.9151 654.033,-31.9151 661.783,-31.9151"/>
<polygon fill="midnightblue" stroke="midnightblue" points="635.77,-28.4152 625.77,-31.9151 635.77,-35.4152 635.77,-28.4152"/>
</g>
</g>
</svg>
