<?xml version="1.0" encoding="UTF-8" standalone="no"?>
<!DOCTYPE svg PUBLIC "-//W3C//DTD SVG 1.1//EN"
 "http://www.w3.org/Graphics/SVG/1.1/DTD/svg11.dtd">
<!-- Generated by graphviz version 2.36.0 (20140111.2315)
 -->
<!-- Title: rstm/rstm&#45;dev/stamp&#45;0.9.10/lib/vector.c Pages: 1 -->
<svg width="320pt" height="264pt"
 viewBox="0.00 0.00 320.00 264.00" xmlns="http://www.w3.org/2000/svg" xmlns:xlink="http://www.w3.org/1999/xlink">
<g id="graph0" class="graph" transform="scale(1 1) rotate(0) translate(4 260)">
<title>rstm/rstm&#45;dev/stamp&#45;0.9.10/lib/vector.c</title>
<!-- Node1 -->
<g id="node1" class="node"><title>Node1</title>
<polygon fill="#bfbfbf" stroke="black" points="117.5,-225 117.5,-255 224.5,-255 224.5,-225 117.5,-225"/>
<text text-anchor="start" x="125.5" y="-243" font-family="Helvetica,sans-Serif" font-size="10.00">rstm/rstm&#45;dev/stamp</text>
<text text-anchor="middle" x="171" y="-232" font-family="Helvetica,sans-Serif" font-size="10.00">&#45;0.9.10/lib/vector.c</text>
</g>
<!-- Node2 -->
<g id="node2" class="node"><title>Node2</title>
<polygon fill="none" stroke="#bfbfbf" points="0,-168.5 0,-187.5 48,-187.5 48,-168.5 0,-168.5"/>
<text text-anchor="middle" x="24" y="-175.5" font-family="Helvetica,sans-Serif" font-size="10.00">stdlib.h</text>
</g>
<!-- Node1&#45;&gt;Node2 -->
<g id="edge1" class="edge"><title>Node1&#45;&gt;Node2</title>
<path fill="none" stroke="midnightblue" d="M136.535,-224.933C111.624,-214.765 78.2846,-201.157 54.3709,-191.396"/>
<polygon fill="midnightblue" stroke="midnightblue" points="55.6512,-188.139 45.0701,-187.6 53.0059,-194.62 55.6512,-188.139"/>
</g>
<!-- Node3 -->
<g id="node3" class="node"><title>Node3</title>
<polygon fill="none" stroke="#bfbfbf" points="66.5,-168.5 66.5,-187.5 115.5,-187.5 115.5,-168.5 66.5,-168.5"/>
<text text-anchor="middle" x="91" y="-175.5" font-family="Helvetica,sans-Serif" font-size="10.00">string.h</text>
</g>
<!-- Node1&#45;&gt;Node3 -->
<g id="edge2" class="edge"><title>Node1&#45;&gt;Node3</title>
<path fill="none" stroke="midnightblue" d="M152.041,-224.781C139.577,-215.433 123.303,-203.227 110.693,-193.77"/>
<polygon fill="midnightblue" stroke="midnightblue" points="112.741,-190.931 102.641,-187.731 108.541,-196.531 112.741,-190.931"/>
</g>
<!-- Node4 -->
<g id="node4" class="node"><title>Node4</title>
<g id="a_node4"><a xlink:href="tm_8h.html" target="_top" xlink:title="tm.h">
<polygon fill="none" stroke="black" points="153,-112.5 153,-131.5 189,-131.5 189,-112.5 153,-112.5"/>
<text text-anchor="middle" x="171" y="-119.5" font-family="Helvetica,sans-Serif" font-size="10.00">tm.h</text>
</a>
</g>
</g>
<!-- Node1&#45;&gt;Node4 -->
<g id="edge3" class="edge"><title>Node1&#45;&gt;Node4</title>
<path fill="none" stroke="midnightblue" d="M167.733,-224.876C164.817,-210.562 161.256,-187.77 163,-168 163.776,-159.197 165.391,-149.536 166.969,-141.43"/>
<polygon fill="midnightblue" stroke="midnightblue" points="170.41,-142.069 169.013,-131.567 163.556,-140.648 170.41,-142.069"/>
</g>
<!-- Node8 -->
<g id="node8" class="node"><title>Node8</title>
<g id="a_node8"><a xlink:href="types_8h.html" target="_top" xlink:title="types.h">
<polygon fill="none" stroke="black" points="263.5,-112.5 263.5,-131.5 312.5,-131.5 312.5,-112.5 263.5,-112.5"/>
<text text-anchor="middle" x="288" y="-119.5" font-family="Helvetica,sans-Serif" font-size="10.00">types.h</text>
</a>
</g>
</g>
<!-- Node1&#45;&gt;Node8 -->
<g id="edge7" class="edge"><title>Node1&#45;&gt;Node8</title>
<path fill="none" stroke="midnightblue" d="M224.722,-231.887C251.802,-225.284 282.354,-212.551 299,-188 308.407,-174.126 303.45,-154.853 297.486,-140.899"/>
<polygon fill="midnightblue" stroke="midnightblue" points="300.624,-139.348 293.156,-131.832 294.307,-142.364 300.624,-139.348"/>
</g>
<!-- Node9 -->
<g id="node9" class="node"><title>Node9</title>
<g id="a_node9"><a xlink:href="utility_8h.html" target="_top" xlink:title="utility.h">
<polygon fill="none" stroke="black" points="242,-168.5 242,-187.5 290,-187.5 290,-168.5 242,-168.5"/>
<text text-anchor="middle" x="266" y="-175.5" font-family="Helvetica,sans-Serif" font-size="10.00">utility.h</text>
</a>
</g>
</g>
<!-- Node1&#45;&gt;Node9 -->
<g id="edge8" class="edge"><title>Node1&#45;&gt;Node9</title>
<path fill="none" stroke="midnightblue" d="M193.514,-224.781C208.69,-215.196 228.624,-202.606 243.745,-193.056"/>
<polygon fill="midnightblue" stroke="midnightblue" points="245.868,-195.855 252.453,-187.556 242.13,-189.936 245.868,-195.855"/>
</g>
<!-- Node10 -->
<g id="node10" class="node"><title>Node10</title>
<g id="a_node10"><a xlink:href="vector_8h.html" target="_top" xlink:title="vector.h">
<polygon fill="none" stroke="black" points="172,-168.5 172,-187.5 224,-187.5 224,-168.5 172,-168.5"/>
<text text-anchor="middle" x="198" y="-175.5" font-family="Helvetica,sans-Serif" font-size="10.00">vector.h</text>
</a>
</g>
</g>
<!-- Node1&#45;&gt;Node10 -->
<g id="edge9" class="edge"><title>Node1&#45;&gt;Node10</title>
<path fill="none" stroke="midnightblue" d="M177.399,-224.781C181.16,-216.422 185.95,-205.777 189.965,-196.856"/>
<polygon fill="midnightblue" stroke="midnightblue" points="193.159,-198.286 194.071,-187.731 186.776,-195.413 193.159,-198.286"/>
</g>
<!-- Node5 -->
<g id="node5" class="node"><title>Node5</title>
<polygon fill="none" stroke="#bfbfbf" points="115,-56.5 115,-75.5 161,-75.5 161,-56.5 115,-56.5"/>
<text text-anchor="middle" x="138" y="-63.5" font-family="Helvetica,sans-Serif" font-size="10.00">stdio.h</text>
</g>
<!-- Node4&#45;&gt;Node5 -->
<g id="edge4" class="edge"><title>Node4&#45;&gt;Node5</title>
<path fill="none" stroke="midnightblue" d="M165.551,-112.083C160.986,-104.613 154.332,-93.7244 148.707,-84.5199"/>
<polygon fill="midnightblue" stroke="midnightblue" points="151.549,-82.4588 143.348,-75.7511 145.576,-86.109 151.549,-82.4588"/>
</g>
<!-- Node6 -->
<g id="node6" class="node"><title>Node6</title>
<g id="a_node6"><a xlink:href="assert_8h.html" target="_top" xlink:title="assert.h">
<polygon fill="none" stroke="black" points="179,-56.5 179,-75.5 231,-75.5 231,-56.5 179,-56.5"/>
<text text-anchor="middle" x="205" y="-63.5" font-family="Helvetica,sans-Serif" font-size="10.00">assert.h</text>
</a>
</g>
</g>
<!-- Node4&#45;&gt;Node6 -->
<g id="edge5" class="edge"><title>Node4&#45;&gt;Node6</title>
<path fill="none" stroke="midnightblue" d="M176.614,-112.083C181.367,-104.534 188.318,-93.4948 194.152,-84.2298"/>
<polygon fill="midnightblue" stroke="midnightblue" points="197.124,-86.0783 199.49,-75.7511 191.2,-82.3486 197.124,-86.0783"/>
</g>
<!-- Node7 -->
<g id="node7" class="node"><title>Node7</title>
<polygon fill="none" stroke="#bfbfbf" points="179.5,-0.5 179.5,-19.5 230.5,-19.5 230.5,-0.5 179.5,-0.5"/>
<text text-anchor="middle" x="205" y="-7.5" font-family="Helvetica,sans-Serif" font-size="10.00">config.h</text>
</g>
<!-- Node6&#45;&gt;Node7 -->
<g id="edge6" class="edge"><title>Node6&#45;&gt;Node7</title>
<path fill="none" stroke="midnightblue" d="M205,-56.083C205,-49.0059 205,-38.8611 205,-29.9865"/>
<polygon fill="midnightblue" stroke="midnightblue" points="208.5,-29.751 205,-19.7511 201.5,-29.7511 208.5,-29.751"/>
</g>
<!-- Node10&#45;&gt;Node4 -->
<g id="edge10" class="edge"><title>Node10&#45;&gt;Node4</title>
<path fill="none" stroke="midnightblue" d="M193.541,-168.083C189.846,-160.691 184.477,-149.953 179.906,-140.811"/>
<polygon fill="midnightblue" stroke="midnightblue" points="182.978,-139.13 175.376,-131.751 176.717,-142.261 182.978,-139.13"/>
</g>
<!-- Node10&#45;&gt;Node8 -->
<g id="edge11" class="edge"><title>Node10&#45;&gt;Node8</title>
<path fill="none" stroke="midnightblue" d="M212.46,-168.324C226.5,-159.9 248.048,-146.971 264.543,-137.074"/>
<polygon fill="midnightblue" stroke="midnightblue" points="266.802,-139.801 273.576,-131.655 263.2,-133.798 266.802,-139.801"/>
</g>
</g>
</svg>
