<?xml version="1.0" encoding="UTF-8" standalone="no"?>
<!DOCTYPE svg PUBLIC "-//W3C//DTD SVG 1.1//EN"
 "http://www.w3.org/Graphics/SVG/1.1/DTD/svg11.dtd">
<!-- Generated by graphviz version 2.36.0 (20140111.2315)
 -->
<!-- Title: rstm/rstm&#45;dev/mesh/worker.cpp Pages: 1 -->
<svg width="1000pt" height="432pt"
 viewBox="0.00 0.00 1000.00 432.00" xmlns="http://www.w3.org/2000/svg" xmlns:xlink="http://www.w3.org/1999/xlink">
<g id="graph0" class="graph" transform="scale(1 1) rotate(0) translate(4 428)">
<title>rstm/rstm&#45;dev/mesh/worker.cpp</title>
<!-- Node1 -->
<g id="node1" class="node"><title>Node1</title>
<polygon fill="#bfbfbf" stroke="black" points="312,-393 312,-423 416,-423 416,-393 312,-393"/>
<text text-anchor="start" x="320" y="-411" font-family="Helvetica,sans-Serif" font-size="10.00">rstm/rstm&#45;dev/mesh</text>
<text text-anchor="middle" x="364" y="-400" font-family="Helvetica,sans-Serif" font-size="10.00">/worker.cpp</text>
</g>
<!-- Node2 -->
<g id="node2" class="node"><title>Node2</title>
<polygon fill="none" stroke="#bfbfbf" points="122,-56.5 122,-75.5 170,-75.5 170,-56.5 122,-56.5"/>
<text text-anchor="middle" x="146" y="-63.5" font-family="Helvetica,sans-Serif" font-size="10.00">limits.h</text>
</g>
<!-- Node1&#45;&gt;Node2 -->
<g id="edge1" class="edge"><title>Node1&#45;&gt;Node2</title>
<path fill="none" stroke="midnightblue" d="M311.848,-401.395C211.198,-389.123 0,-355.668 0,-291 0,-291 0,-291 0,-233 0,-202.902 2.21318,-192.982 19,-168 45.3977,-128.716 91.8462,-97.4934 120.658,-80.6711"/>
<polygon fill="midnightblue" stroke="midnightblue" points="122.738,-83.5147 129.698,-75.5273 119.276,-77.4306 122.738,-83.5147"/>
</g>
<!-- Node3 -->
<g id="node3" class="node"><title>Node3</title>
<g id="a_node3"><a xlink:href="common_8hpp.html" target="_top" xlink:title="common.hpp">
<polygon fill="none" stroke="black" points="114.5,-168.5 114.5,-187.5 187.5,-187.5 187.5,-168.5 114.5,-168.5"/>
<text text-anchor="middle" x="151" y="-175.5" font-family="Helvetica,sans-Serif" font-size="10.00">common.hpp</text>
</a>
</g>
</g>
<!-- Node1&#45;&gt;Node3 -->
<g id="edge2" class="edge"><title>Node1&#45;&gt;Node3</title>
<path fill="none" stroke="midnightblue" d="M311.78,-405.655C263.485,-402.11 191.591,-390.78 140,-356 88.1116,-321.019 63.0141,-279.972 91,-224 97.7284,-210.543 110.606,-200.067 122.712,-192.621"/>
<polygon fill="midnightblue" stroke="midnightblue" points="124.733,-195.498 131.704,-187.52 121.279,-189.41 124.733,-195.498"/>
</g>
<!-- Node11 -->
<g id="node11" class="node"><title>Node11</title>
<g id="a_node11"><a xlink:href="lock_8hpp.html" target="_top" xlink:title="lock.hpp">
<polygon fill="none" stroke="black" points="659.5,-112.5 659.5,-131.5 712.5,-131.5 712.5,-112.5 659.5,-112.5"/>
<text text-anchor="middle" x="686" y="-119.5" font-family="Helvetica,sans-Serif" font-size="10.00">lock.hpp</text>
</a>
</g>
</g>
<!-- Node1&#45;&gt;Node11 -->
<g id="edge48" class="edge"><title>Node1&#45;&gt;Node11</title>
<path fill="none" stroke="midnightblue" d="M416.093,-400.295C510.247,-386.944 702.415,-353.617 739,-300 774.2,-248.412 725.203,-172.915 699.718,-139.714"/>
<polygon fill="midnightblue" stroke="midnightblue" points="702.191,-137.199 693.243,-131.527 696.701,-141.542 702.191,-137.199"/>
</g>
<!-- Node16 -->
<g id="node16" class="node"><title>Node16</title>
<g id="a_node16"><a xlink:href="point_8hpp.html" target="_top" xlink:title="point.hpp">
<polygon fill="none" stroke="black" points="100,-224.5 100,-243.5 156,-243.5 156,-224.5 100,-224.5"/>
<text text-anchor="middle" x="128" y="-231.5" font-family="Helvetica,sans-Serif" font-size="10.00">point.hpp</text>
</a>
</g>
</g>
<!-- Node1&#45;&gt;Node16 -->
<g id="edge19" class="edge"><title>Node1&#45;&gt;Node16</title>
<path fill="none" stroke="midnightblue" d="M311.807,-402.628C250.336,-394.294 151.253,-370.109 109,-300 100.026,-285.11 107.759,-265.733 115.892,-252.022"/>
<polygon fill="midnightblue" stroke="midnightblue" points="118.877,-253.853 121.386,-243.56 113.005,-250.041 118.877,-253.853"/>
</g>
<!-- Node18 -->
<g id="node18" class="node"><title>Node18</title>
<g id="a_node18"><a xlink:href="edge_8hpp.html" target="_top" xlink:title="edge.hpp">
<polygon fill="none" stroke="black" points="395,-280.5 395,-299.5 451,-299.5 451,-280.5 395,-280.5"/>
<text text-anchor="middle" x="423" y="-287.5" font-family="Helvetica,sans-Serif" font-size="10.00">edge.hpp</text>
</a>
</g>
</g>
<!-- Node1&#45;&gt;Node18 -->
<g id="edge22" class="edge"><title>Node1&#45;&gt;Node18</title>
<path fill="none" stroke="midnightblue" d="M377.935,-392.951C386.822,-383.284 397.953,-369.75 405,-356 412.511,-341.346 417.201,-323.178 419.904,-309.778"/>
<polygon fill="midnightblue" stroke="midnightblue" points="423.368,-310.292 421.725,-299.825 416.482,-309.032 423.368,-310.292"/>
</g>
<!-- Node25 -->
<g id="node25" class="node"><title>Node25</title>
<g id="a_node25"><a xlink:href="my__thread_8hpp.html" target="_top" xlink:title="my_thread.hpp">
<polygon fill="none" stroke="black" points="512.5,-224.5 512.5,-243.5 593.5,-243.5 593.5,-224.5 512.5,-224.5"/>
<text text-anchor="middle" x="553" y="-231.5" font-family="Helvetica,sans-Serif" font-size="10.00">my_thread.hpp</text>
</a>
</g>
</g>
<!-- Node1&#45;&gt;Node25 -->
<g id="edge63" class="edge"><title>Node1&#45;&gt;Node25</title>
<path fill="none" stroke="midnightblue" d="M381.385,-392.912C405.908,-372.864 451.814,-334.681 489,-300 506.264,-283.899 525.122,-264.511 537.864,-251.122"/>
<polygon fill="midnightblue" stroke="midnightblue" points="540.609,-253.314 544.939,-243.644 535.524,-248.503 540.609,-253.314"/>
</g>
<!-- Node26 -->
<g id="node26" class="node"><title>Node26</title>
<g id="a_node26"><a xlink:href="side_8hpp.html" target="_top" xlink:title="side.hpp">
<polygon fill="none" stroke="black" points="259.5,-336.5 259.5,-355.5 312.5,-355.5 312.5,-336.5 259.5,-336.5"/>
<text text-anchor="middle" x="286" y="-343.5" font-family="Helvetica,sans-Serif" font-size="10.00">side.hpp</text>
</a>
</g>
</g>
<!-- Node1&#45;&gt;Node26 -->
<g id="edge44" class="edge"><title>Node1&#45;&gt;Node26</title>
<path fill="none" stroke="midnightblue" d="M345.515,-392.781C333.48,-383.523 317.8,-371.462 305.557,-362.044"/>
<polygon fill="midnightblue" stroke="midnightblue" points="307.41,-359.053 297.35,-355.731 303.142,-364.602 307.41,-359.053"/>
</g>
<!-- Node27 -->
<g id="node27" class="node"><title>Node27</title>
<g id="a_node27"><a xlink:href="barrier_8hpp.html" target="_top" xlink:title="barrier.hpp">
<polygon fill="none" stroke="black" points="669,-280.5 669,-299.5 731,-299.5 731,-280.5 669,-280.5"/>
<text text-anchor="middle" x="700" y="-287.5" font-family="Helvetica,sans-Serif" font-size="10.00">barrier.hpp</text>
</a>
</g>
</g>
<!-- Node1&#45;&gt;Node27 -->
<g id="edge49" class="edge"><title>Node1&#45;&gt;Node27</title>
<path fill="none" stroke="midnightblue" d="M416.202,-395.851C455.681,-386.804 510.94,-372.815 558,-356 600.024,-340.984 646.709,-318.408 674.69,-304.2"/>
<polygon fill="midnightblue" stroke="midnightblue" points="676.465,-307.223 683.769,-299.549 673.273,-300.993 676.465,-307.223"/>
</g>
<!-- Node28 -->
<g id="node28" class="node"><title>Node28</title>
<g id="a_node28"><a xlink:href="dwyer_8hpp.html" target="_top" xlink:title="dwyer.hpp">
<polygon fill="none" stroke="black" points="118,-280.5 118,-299.5 180,-299.5 180,-280.5 118,-280.5"/>
<text text-anchor="middle" x="149" y="-287.5" font-family="Helvetica,sans-Serif" font-size="10.00">dwyer.hpp</text>
</a>
</g>
</g>
<!-- Node1&#45;&gt;Node28 -->
<g id="edge53" class="edge"><title>Node1&#45;&gt;Node28</title>
<path fill="none" stroke="midnightblue" d="M328.922,-392.93C306.035,-383.357 275.74,-369.937 250,-356 221.059,-340.33 189.414,-319.276 169.399,-305.432"/>
<polygon fill="midnightblue" stroke="midnightblue" points="171.277,-302.475 161.073,-299.624 167.272,-308.216 171.277,-302.475"/>
</g>
<!-- Node29 -->
<g id="node29" class="node"><title>Node29</title>
<g id="a_node29"><a xlink:href="edge__set_8hpp.html" target="_top" xlink:title="edge_set.hpp">
<polygon fill="none" stroke="black" points="853.5,-336.5 853.5,-355.5 928.5,-355.5 928.5,-336.5 853.5,-336.5"/>
<text text-anchor="middle" x="891" y="-343.5" font-family="Helvetica,sans-Serif" font-size="10.00">edge_set.hpp</text>
</a>
</g>
</g>
<!-- Node1&#45;&gt;Node29 -->
<g id="edge55" class="edge"><title>Node1&#45;&gt;Node29</title>
<path fill="none" stroke="midnightblue" d="M416.148,-402.509C503.726,-394.718 685.814,-377.457 839,-356 840.301,-355.818 841.62,-355.628 842.951,-355.431"/>
<polygon fill="midnightblue" stroke="midnightblue" points="843.929,-358.821 853.271,-353.824 842.852,-351.904 843.929,-358.821"/>
</g>
<!-- Node33 -->
<g id="node33" class="node"><title>Node33</title>
<g id="a_node33"><a xlink:href="worker_8hpp.html" target="_top" xlink:title="worker.hpp">
<polygon fill="none" stroke="black" points="331.5,-336.5 331.5,-355.5 396.5,-355.5 396.5,-336.5 331.5,-336.5"/>
<text text-anchor="middle" x="364" y="-343.5" font-family="Helvetica,sans-Serif" font-size="10.00">worker.hpp</text>
</a>
</g>
</g>
<!-- Node1&#45;&gt;Node33 -->
<g id="edge64" class="edge"><title>Node1&#45;&gt;Node33</title>
<path fill="none" stroke="midnightblue" d="M364,-392.781C364,-384.781 364,-374.689 364,-366.017"/>
<polygon fill="midnightblue" stroke="midnightblue" points="367.5,-365.73 364,-355.731 360.5,-365.731 367.5,-365.73"/>
</g>
<!-- Node4 -->
<g id="node4" class="node"><title>Node4</title>
<polygon fill="none" stroke="#bfbfbf" points="238,-0.5 238,-19.5 292,-19.5 292,-0.5 238,-0.5"/>
<text text-anchor="middle" x="265" y="-7.5" font-family="Helvetica,sans-Serif" font-size="10.00">iostream</text>
</g>
<!-- Node3&#45;&gt;Node4 -->
<g id="edge3" class="edge"><title>Node3&#45;&gt;Node4</title>
<path fill="none" stroke="midnightblue" d="M139.459,-168.49C129.521,-160.379 115.878,-147.178 110,-132 103.812,-116.02 100.124,-72.3114 113,-56 140.16,-21.5935 192.363,-12.5812 227.933,-10.6826"/>
<polygon fill="midnightblue" stroke="midnightblue" points="228.078,-14.1798 237.941,-10.3107 227.818,-7.18459 228.078,-14.1798"/>
</g>
<!-- Node5 -->
<g id="node5" class="node"><title>Node5</title>
<polygon fill="none" stroke="#bfbfbf" points="564.5,-0.5 564.5,-19.5 613.5,-19.5 613.5,-0.5 564.5,-0.5"/>
<text text-anchor="middle" x="589" y="-7.5" font-family="Helvetica,sans-Serif" font-size="10.00">cassert</text>
</g>
<!-- Node3&#45;&gt;Node5 -->
<g id="edge4" class="edge"><title>Node3&#45;&gt;Node5</title>
<path fill="none" stroke="midnightblue" d="M187.625,-169.644C190.792,-169.065 193.95,-168.509 197,-168 312.066,-148.793 351.579,-181.954 457,-132 501.904,-110.722 502.31,-89.5103 539,-56 549.805,-46.1319 562.01,-35.1436 571.657,-26.4957"/>
<polygon fill="midnightblue" stroke="midnightblue" points="574.261,-28.8629 579.377,-19.5853 569.592,-23.6473 574.261,-28.8629"/>
</g>
<!-- Node6 -->
<g id="node6" class="node"><title>Node6</title>
<g id="a_node6"><a xlink:href="platform_8hpp.html" target="_top" xlink:title="common/platform.hpp">
<polygon fill="none" stroke="black" points="337.5,-112.5 337.5,-131.5 448.5,-131.5 448.5,-112.5 337.5,-112.5"/>
<text text-anchor="middle" x="393" y="-119.5" font-family="Helvetica,sans-Serif" font-size="10.00">common/platform.hpp</text>
</a>
</g>
</g>
<!-- Node3&#45;&gt;Node6 -->
<g id="edge5" class="edge"><title>Node3&#45;&gt;Node6</title>
<path fill="none" stroke="midnightblue" d="M187.755,-168.799C229.761,-159.425 298.659,-144.051 344.904,-133.732"/>
<polygon fill="midnightblue" stroke="midnightblue" points="345.701,-137.141 354.698,-131.547 344.176,-130.309 345.701,-137.141"/>
</g>
<!-- Node10 -->
<g id="node10" class="node"><title>Node10</title>
<g id="a_node10"><a xlink:href="ThreadLocal_8hpp.html" target="_top" xlink:title="common/ThreadLocal.hpp">
<polygon fill="none" stroke="black" points="190.5,-112.5 190.5,-131.5 319.5,-131.5 319.5,-112.5 190.5,-112.5"/>
<text text-anchor="middle" x="255" y="-119.5" font-family="Helvetica,sans-Serif" font-size="10.00">common/ThreadLocal.hpp</text>
</a>
</g>
</g>
<!-- Node3&#45;&gt;Node10 -->
<g id="edge10" class="edge"><title>Node3&#45;&gt;Node10</title>
<path fill="none" stroke="midnightblue" d="M167.709,-168.324C184.312,-159.703 210.002,-146.364 229.22,-136.386"/>
<polygon fill="midnightblue" stroke="midnightblue" points="231.07,-139.369 238.332,-131.655 227.844,-133.156 231.07,-139.369"/>
</g>
<!-- Node3&#45;&gt;Node11 -->
<g id="edge12" class="edge"><title>Node3&#45;&gt;Node11</title>
<path fill="none" stroke="midnightblue" d="M187.601,-169.491C190.773,-168.946 193.939,-168.439 197,-168 364.99,-143.9 567.396,-130.071 649.122,-125.111"/>
<polygon fill="midnightblue" stroke="midnightblue" points="649.613,-128.588 659.386,-124.497 649.194,-121.601 649.613,-128.588"/>
</g>
<!-- Node15 -->
<g id="node15" class="node"><title>Node15</title>
<polygon fill="none" stroke="#bfbfbf" points="119.5,-112.5 119.5,-131.5 172.5,-131.5 172.5,-112.5 119.5,-112.5"/>
<text text-anchor="middle" x="146" y="-119.5" font-family="Helvetica,sans-Serif" font-size="10.00">malloc.h</text>
</g>
<!-- Node3&#45;&gt;Node15 -->
<g id="edge18" class="edge"><title>Node3&#45;&gt;Node15</title>
<path fill="none" stroke="midnightblue" d="M150.174,-168.083C149.519,-161.006 148.58,-150.861 147.758,-141.986"/>
<polygon fill="midnightblue" stroke="midnightblue" points="151.217,-141.386 146.81,-131.751 144.247,-142.031 151.217,-141.386"/>
</g>
<!-- Node6&#45;&gt;Node2 -->
<g id="edge8" class="edge"><title>Node6&#45;&gt;Node2</title>
<path fill="none" stroke="midnightblue" d="M353.862,-112.444C305.906,-101.959 225.442,-84.3679 179.973,-74.4274"/>
<polygon fill="midnightblue" stroke="midnightblue" points="180.534,-70.9673 170.017,-72.2506 179.039,-77.8058 180.534,-70.9673"/>
</g>
<!-- Node7 -->
<g id="node7" class="node"><title>Node7</title>
<polygon fill="none" stroke="#bfbfbf" points="224.5,-56.5 224.5,-75.5 295.5,-75.5 295.5,-56.5 224.5,-56.5"/>
<text text-anchor="middle" x="260" y="-63.5" font-family="Helvetica,sans-Serif" font-size="10.00">stm/config.h</text>
</g>
<!-- Node6&#45;&gt;Node7 -->
<g id="edge6" class="edge"><title>Node6&#45;&gt;Node7</title>
<path fill="none" stroke="midnightblue" d="M371.926,-112.444C349.94,-103.517 315.266,-89.4387 290.336,-79.3168"/>
<polygon fill="midnightblue" stroke="midnightblue" points="291.558,-76.0355 280.976,-75.5164 288.924,-82.5213 291.558,-76.0355"/>
</g>
<!-- Node8 -->
<g id="node8" class="node"><title>Node8</title>
<polygon fill="none" stroke="#bfbfbf" points="388.5,-56.5 388.5,-75.5 437.5,-75.5 437.5,-56.5 388.5,-56.5"/>
<text text-anchor="middle" x="413" y="-63.5" font-family="Helvetica,sans-Serif" font-size="10.00">stdint.h</text>
</g>
<!-- Node6&#45;&gt;Node8 -->
<g id="edge7" class="edge"><title>Node6&#45;&gt;Node8</title>
<path fill="none" stroke="midnightblue" d="M396.303,-112.083C398.982,-104.849 402.849,-94.4087 406.186,-85.3968"/>
<polygon fill="midnightblue" stroke="midnightblue" points="409.568,-86.3442 409.759,-75.7511 403.004,-83.9129 409.568,-86.3442"/>
</g>
<!-- Node9 -->
<g id="node9" class="node"><title>Node9</title>
<polygon fill="none" stroke="#bfbfbf" points="319.5,-56.5 319.5,-75.5 370.5,-75.5 370.5,-56.5 319.5,-56.5"/>
<text text-anchor="middle" x="345" y="-63.5" font-family="Helvetica,sans-Serif" font-size="10.00">unistd.h</text>
</g>
<!-- Node6&#45;&gt;Node9 -->
<g id="edge9" class="edge"><title>Node6&#45;&gt;Node9</title>
<path fill="none" stroke="midnightblue" d="M385.074,-112.083C378.154,-104.298 367.935,-92.8015 359.548,-83.3665"/>
<polygon fill="midnightblue" stroke="midnightblue" points="362.038,-80.8999 352.779,-75.7511 356.806,-85.5505 362.038,-80.8999"/>
</g>
<!-- Node10&#45;&gt;Node7 -->
<g id="edge11" class="edge"><title>Node10&#45;&gt;Node7</title>
<path fill="none" stroke="midnightblue" d="M255.826,-112.083C256.481,-105.006 257.42,-94.8611 258.242,-85.9865"/>
<polygon fill="midnightblue" stroke="midnightblue" points="261.753,-86.0312 259.19,-75.7511 254.783,-85.3858 261.753,-86.0312"/>
</g>
<!-- Node12 -->
<g id="node12" class="node"><title>Node12</title>
<polygon fill="none" stroke="#bfbfbf" points="714.5,-56.5 714.5,-75.5 771.5,-75.5 771.5,-56.5 714.5,-56.5"/>
<text text-anchor="middle" x="743" y="-63.5" font-family="Helvetica,sans-Serif" font-size="10.00">pthread.h</text>
</g>
<!-- Node11&#45;&gt;Node12 -->
<g id="edge13" class="edge"><title>Node11&#45;&gt;Node12</title>
<path fill="none" stroke="midnightblue" d="M695.158,-112.324C703.501,-104.42 716.032,-92.5482 726.177,-82.9377"/>
<polygon fill="midnightblue" stroke="midnightblue" points="728.823,-85.2522 733.675,-75.8339 724.009,-80.1705 728.823,-85.2522"/>
</g>
<!-- Node13 -->
<g id="node13" class="node"><title>Node13</title>
<g id="a_node13"><a xlink:href="mesh_2macros_8hpp.html" target="_top" xlink:title="macros.hpp">
<polygon fill="none" stroke="black" points="621,-56.5 621,-75.5 689,-75.5 689,-56.5 621,-56.5"/>
<text text-anchor="middle" x="655" y="-63.5" font-family="Helvetica,sans-Serif" font-size="10.00">macros.hpp</text>
</a>
</g>
</g>
<!-- Node11&#45;&gt;Node13 -->
<g id="edge14" class="edge"><title>Node11&#45;&gt;Node13</title>
<path fill="none" stroke="midnightblue" d="M680.881,-112.083C676.592,-104.613 670.342,-93.7244 665.058,-84.5199"/>
<polygon fill="midnightblue" stroke="midnightblue" points="668.038,-82.6811 660.024,-75.7511 661.967,-86.1662 668.038,-82.6811"/>
</g>
<!-- Node13&#45;&gt;Node4 -->
<g id="edge15" class="edge"><title>Node13&#45;&gt;Node4</title>
<path fill="none" stroke="midnightblue" d="M620.732,-60.2552C547.77,-50.1527 377.589,-26.5892 302.145,-16.1432"/>
<polygon fill="midnightblue" stroke="midnightblue" points="302.534,-12.6638 292.149,-14.7591 301.574,-19.5976 302.534,-12.6638"/>
</g>
<!-- Node13&#45;&gt;Node5 -->
<g id="edge17" class="edge"><title>Node13&#45;&gt;Node5</title>
<path fill="none" stroke="midnightblue" d="M644.396,-56.324C634.544,-48.2631 619.649,-36.0765 607.785,-26.3695"/>
<polygon fill="midnightblue" stroke="midnightblue" points="609.753,-23.4575 599.797,-19.8339 605.32,-28.8752 609.753,-23.4575"/>
</g>
<!-- Node14 -->
<g id="node14" class="node"><title>Node14</title>
<polygon fill="none" stroke="#bfbfbf" points="631.5,-0.5 631.5,-19.5 680.5,-19.5 680.5,-0.5 631.5,-0.5"/>
<text text-anchor="middle" x="656" y="-7.5" font-family="Helvetica,sans-Serif" font-size="10.00">string.h</text>
</g>
<!-- Node13&#45;&gt;Node14 -->
<g id="edge16" class="edge"><title>Node13&#45;&gt;Node14</title>
<path fill="none" stroke="midnightblue" d="M655.165,-56.083C655.296,-49.0059 655.484,-38.8611 655.648,-29.9865"/>
<polygon fill="midnightblue" stroke="midnightblue" points="659.152,-29.8142 655.838,-19.7511 652.153,-29.6845 659.152,-29.8142"/>
</g>
<!-- Node16&#45;&gt;Node3 -->
<g id="edge21" class="edge"><title>Node16&#45;&gt;Node3</title>
<path fill="none" stroke="midnightblue" d="M131.798,-224.083C134.913,-216.77 139.423,-206.181 143.289,-197.103"/>
<polygon fill="midnightblue" stroke="midnightblue" points="146.574,-198.323 147.273,-187.751 140.134,-195.58 146.574,-198.323"/>
</g>
<!-- Node17 -->
<g id="node17" class="node"><title>Node17</title>
<polygon fill="none" stroke="#bfbfbf" points="28,-168.5 28,-187.5 58,-187.5 58,-168.5 28,-168.5"/>
<text text-anchor="middle" x="43" y="-175.5" font-family="Helvetica,sans-Serif" font-size="10.00">set</text>
</g>
<!-- Node16&#45;&gt;Node17 -->
<g id="edge20" class="edge"><title>Node16&#45;&gt;Node17</title>
<path fill="none" stroke="midnightblue" d="M114.343,-224.324C101.084,-215.9 80.732,-202.971 65.1538,-193.074"/>
<polygon fill="midnightblue" stroke="midnightblue" points="66.9404,-190.063 56.6228,-187.655 63.1867,-195.971 66.9404,-190.063"/>
</g>
<!-- Node18&#45;&gt;Node3 -->
<g id="edge33" class="edge"><title>Node18&#45;&gt;Node3</title>
<path fill="none" stroke="midnightblue" d="M414.159,-280.429C399.277,-266.484 367.727,-238.941 336,-224 323.454,-218.092 247.861,-200.593 197.269,-189.238"/>
<polygon fill="midnightblue" stroke="midnightblue" points="198.033,-185.822 187.51,-187.054 196.505,-192.653 198.033,-185.822"/>
</g>
<!-- Node18&#45;&gt;Node4 -->
<g id="edge23" class="edge"><title>Node18&#45;&gt;Node4</title>
<path fill="none" stroke="midnightblue" d="M394.794,-281.99C320.412,-263.237 123.363,-211.74 105,-188 96.2296,-176.662 97.9839,-61.275 102,-56 117.188,-36.0514 184.672,-22.6899 227.905,-16.0061"/>
<polygon fill="midnightblue" stroke="midnightblue" points="228.424,-19.4676 237.796,-14.5274 227.389,-12.5446 228.424,-19.4676"/>
</g>
<!-- Node18&#45;&gt;Node11 -->
<g id="edge43" class="edge"><title>Node18&#45;&gt;Node11</title>
<path fill="none" stroke="midnightblue" d="M451.129,-286.071C487.667,-281.364 552.611,-269.873 602,-244 635.48,-226.461 645.438,-219.713 666,-188 675.133,-173.914 680.291,-155.423 683.071,-141.766"/>
<polygon fill="midnightblue" stroke="midnightblue" points="686.568,-142.094 684.883,-131.634 679.677,-140.862 686.568,-142.094"/>
</g>
<!-- Node18&#45;&gt;Node16 -->
<g id="edge34" class="edge"><title>Node18&#45;&gt;Node16</title>
<path fill="none" stroke="midnightblue" d="M394.861,-284.327C348.089,-276.484 251.431,-259.961 170,-244 168.765,-243.758 167.511,-243.509 166.244,-243.254"/>
<polygon fill="midnightblue" stroke="midnightblue" points="166.939,-239.824 156.439,-241.235 165.527,-246.68 166.939,-239.824"/>
</g>
<!-- Node19 -->
<g id="node19" class="node"><title>Node19</title>
<polygon fill="none" stroke="#bfbfbf" points="473,-168.5 473,-187.5 525,-187.5 525,-168.5 473,-168.5"/>
<text text-anchor="middle" x="499" y="-175.5" font-family="Helvetica,sans-Serif" font-size="10.00">sstream</text>
</g>
<!-- Node18&#45;&gt;Node19 -->
<g id="edge24" class="edge"><title>Node18&#45;&gt;Node19</title>
<path fill="none" stroke="midnightblue" d="M432.181,-280.256C440.991,-271.573 454.346,-257.625 464,-244 474.628,-229 484.334,-210.403 490.815,-196.949"/>
<polygon fill="midnightblue" stroke="midnightblue" points="494.025,-198.347 495.104,-187.808 487.688,-195.374 494.025,-198.347"/>
</g>
<!-- Node20 -->
<g id="node20" class="node"><title>Node20</title>
<polygon fill="none" stroke="#bfbfbf" points="679.5,-224.5 679.5,-243.5 720.5,-243.5 720.5,-224.5 679.5,-224.5"/>
<text text-anchor="middle" x="700" y="-231.5" font-family="Helvetica,sans-Serif" font-size="10.00">string</text>
</g>
<!-- Node18&#45;&gt;Node20 -->
<g id="edge25" class="edge"><title>Node18&#45;&gt;Node20</title>
<path fill="none" stroke="midnightblue" d="M451.073,-284.416C496.3,-276.889 588.018,-261.035 665,-244 666.455,-243.678 667.941,-243.338 669.44,-242.987"/>
<polygon fill="midnightblue" stroke="midnightblue" points="670.449,-246.344 679.328,-240.563 668.782,-239.545 670.449,-246.344"/>
</g>
<!-- Node21 -->
<g id="node21" class="node"><title>Node21</title>
<g id="a_node21"><a xlink:href="queues_8hpp.html" target="_top" xlink:title="queues.hpp">
<polygon fill="none" stroke="black" points="388.5,-224.5 388.5,-243.5 455.5,-243.5 455.5,-224.5 388.5,-224.5"/>
<text text-anchor="middle" x="422" y="-231.5" font-family="Helvetica,sans-Serif" font-size="10.00">queues.hpp</text>
</a>
</g>
</g>
<!-- Node18&#45;&gt;Node21 -->
<g id="edge26" class="edge"><title>Node18&#45;&gt;Node21</title>
<path fill="none" stroke="midnightblue" d="M422.835,-280.083C422.704,-273.006 422.516,-262.861 422.352,-253.986"/>
<polygon fill="midnightblue" stroke="midnightblue" points="425.847,-253.685 422.162,-243.751 418.848,-253.814 425.847,-253.685"/>
</g>
<!-- Node18&#45;&gt;Node25 -->
<g id="edge35" class="edge"><title>Node18&#45;&gt;Node25</title>
<path fill="none" stroke="midnightblue" d="M443.599,-280.444C464.993,-271.557 498.681,-257.563 523.024,-247.451"/>
<polygon fill="midnightblue" stroke="midnightblue" points="524.605,-250.585 532.497,-243.516 521.92,-244.12 524.605,-250.585"/>
</g>
<!-- Node21&#45;&gt;Node3 -->
<g id="edge30" class="edge"><title>Node21&#45;&gt;Node3</title>
<path fill="none" stroke="midnightblue" d="M388.498,-226.324C340.604,-216.781 252.355,-199.196 197.963,-188.358"/>
<polygon fill="midnightblue" stroke="midnightblue" points="198.379,-184.872 187.888,-186.35 197.011,-191.737 198.379,-184.872"/>
</g>
<!-- Node21&#45;&gt;Node5 -->
<g id="edge28" class="edge"><title>Node21&#45;&gt;Node5</title>
<path fill="none" stroke="midnightblue" d="M427.146,-224.386C434.79,-211.748 449.775,-187.558 464,-168 495.029,-125.336 506.248,-117.356 539,-76 551.784,-59.8585 566.081,-41.2096 576.102,-28.0382"/>
<polygon fill="midnightblue" stroke="midnightblue" points="579.027,-29.974 582.285,-19.8927 573.451,-25.7416 579.027,-29.974"/>
</g>
<!-- Node22 -->
<g id="node22" class="node"><title>Node22</title>
<polygon fill="none" stroke="#bfbfbf" points="310.5,-168.5 310.5,-187.5 355.5,-187.5 355.5,-168.5 310.5,-168.5"/>
<text text-anchor="middle" x="333" y="-175.5" font-family="Helvetica,sans-Serif" font-size="10.00">cstdlib</text>
</g>
<!-- Node21&#45;&gt;Node22 -->
<g id="edge27" class="edge"><title>Node21&#45;&gt;Node22</title>
<path fill="none" stroke="midnightblue" d="M407.701,-224.324C393.817,-215.9 372.508,-202.971 356.196,-193.074"/>
<polygon fill="midnightblue" stroke="midnightblue" points="357.629,-189.85 347.264,-187.655 353.998,-195.834 357.629,-189.85"/>
</g>
<!-- Node23 -->
<g id="node23" class="node"><title>Node23</title>
<polygon fill="none" stroke="#bfbfbf" points="373.5,-168.5 373.5,-187.5 416.5,-187.5 416.5,-168.5 373.5,-168.5"/>
<text text-anchor="middle" x="395" y="-175.5" font-family="Helvetica,sans-Serif" font-size="10.00">queue</text>
</g>
<!-- Node21&#45;&gt;Node23 -->
<g id="edge29" class="edge"><title>Node21&#45;&gt;Node23</title>
<path fill="none" stroke="midnightblue" d="M417.541,-224.083C413.846,-216.691 408.477,-205.953 403.906,-196.811"/>
<polygon fill="midnightblue" stroke="midnightblue" points="406.978,-195.13 399.376,-187.751 400.717,-198.261 406.978,-195.13"/>
</g>
<!-- Node24 -->
<g id="node24" class="node"><title>Node24</title>
<g id="a_node24"><a xlink:href="counted__ptr_8hpp.html" target="_top" xlink:title="counted_ptr.hpp">
<polygon fill="none" stroke="black" points="206,-168.5 206,-187.5 292,-187.5 292,-168.5 206,-168.5"/>
<text text-anchor="middle" x="249" y="-175.5" font-family="Helvetica,sans-Serif" font-size="10.00">counted_ptr.hpp</text>
</a>
</g>
</g>
<!-- Node21&#45;&gt;Node24 -->
<g id="edge31" class="edge"><title>Node21&#45;&gt;Node24</title>
<path fill="none" stroke="midnightblue" d="M394.588,-224.444C365.231,-215.28 318.481,-200.688 285.904,-190.519"/>
<polygon fill="midnightblue" stroke="midnightblue" points="286.873,-187.155 276.284,-187.516 284.787,-193.837 286.873,-187.155"/>
</g>
<!-- Node24&#45;&gt;Node6 -->
<g id="edge32" class="edge"><title>Node24&#45;&gt;Node6</title>
<path fill="none" stroke="midnightblue" d="M271.817,-168.444C295.832,-159.438 333.829,-145.189 360.869,-135.049"/>
<polygon fill="midnightblue" stroke="midnightblue" points="362.155,-138.305 370.29,-131.516 359.697,-131.751 362.155,-138.305"/>
</g>
<!-- Node25&#45;&gt;Node3 -->
<g id="edge40" class="edge"><title>Node25&#45;&gt;Node3</title>
<path fill="none" stroke="midnightblue" d="M512.297,-228.759C447.843,-221.846 318.132,-207.135 197.748,-188.018"/>
<polygon fill="midnightblue" stroke="midnightblue" points="198.046,-184.522 187.618,-186.396 196.939,-191.433 198.046,-184.522"/>
</g>
<!-- Node25&#45;&gt;Node4 -->
<g id="edge37" class="edge"><title>Node25&#45;&gt;Node4</title>
<path fill="none" stroke="midnightblue" d="M551.53,-224.191C549.142,-211.308 543.682,-186.818 534,-168 505.038,-111.709 499.151,-90.3877 446,-56 401.891,-27.4622 340.99,-17.0223 302.299,-13.2031"/>
<polygon fill="midnightblue" stroke="midnightblue" points="302.277,-9.6876 292.008,-12.2919 301.66,-16.6603 302.277,-9.6876"/>
</g>
<!-- Node25&#45;&gt;Node5 -->
<g id="edge39" class="edge"><title>Node25&#45;&gt;Node5</title>
<path fill="none" stroke="midnightblue" d="M556.145,-224.494C559.339,-215.535 564.203,-200.956 567,-188 579.281,-131.119 585.387,-62.3695 587.765,-29.8267"/>
<polygon fill="midnightblue" stroke="midnightblue" points="591.277,-29.7829 588.478,-19.5645 584.294,-29.2981 591.277,-29.7829"/>
</g>
<!-- Node25&#45;&gt;Node11 -->
<g id="edge42" class="edge"><title>Node25&#45;&gt;Node11</title>
<path fill="none" stroke="midnightblue" d="M578.394,-224.43C597.685,-217.003 624.04,-204.798 643,-188 657.995,-174.715 670.029,-155.054 677.511,-140.836"/>
<polygon fill="midnightblue" stroke="midnightblue" points="680.781,-142.123 682.131,-131.615 674.522,-138.987 680.781,-142.123"/>
</g>
<!-- Node25&#45;&gt;Node12 -->
<g id="edge36" class="edge"><title>Node25&#45;&gt;Node12</title>
<path fill="none" stroke="midnightblue" d="M584.421,-224.363C608.089,-216.968 640.677,-204.834 666,-188 695.052,-168.687 702.725,-161.716 721,-132 729.874,-117.571 735.677,-99.1182 739.083,-85.5628"/>
<polygon fill="midnightblue" stroke="midnightblue" points="742.562,-86.0544 741.395,-75.524 735.74,-84.4833 742.562,-86.0544"/>
</g>
<!-- Node25&#45;&gt;Node13 -->
<g id="edge41" class="edge"><title>Node25&#45;&gt;Node13</title>
<path fill="none" stroke="midnightblue" d="M566.066,-224.364C577.614,-216.169 594.248,-202.914 605,-188 628.4,-155.542 643.261,-110.507 650.262,-85.5404"/>
<polygon fill="midnightblue" stroke="midnightblue" points="653.718,-86.1639 652.928,-75.5986 646.957,-84.3509 653.718,-86.1639"/>
</g>
<!-- Node25&#45;&gt;Node19 -->
<g id="edge38" class="edge"><title>Node25&#45;&gt;Node19</title>
<path fill="none" stroke="midnightblue" d="M544.083,-224.083C536.22,-216.22 524.569,-204.569 515.081,-195.081"/>
<polygon fill="midnightblue" stroke="midnightblue" points="517.297,-192.347 507.751,-187.751 512.347,-197.297 517.297,-192.347"/>
</g>
<!-- Node26&#45;&gt;Node3 -->
<g id="edge45" class="edge"><title>Node26&#45;&gt;Node3</title>
<path fill="none" stroke="midnightblue" d="M278.742,-336.075C257.124,-309.493 192.913,-230.538 164.633,-195.763"/>
<polygon fill="midnightblue" stroke="midnightblue" points="166.993,-193.118 157.968,-187.568 161.562,-197.535 166.993,-193.118"/>
</g>
<!-- Node26&#45;&gt;Node16 -->
<g id="edge46" class="edge"><title>Node26&#45;&gt;Node16</title>
<path fill="none" stroke="midnightblue" d="M273.602,-336.368C246.605,-317.573 182.249,-272.768 148.875,-249.533"/>
<polygon fill="midnightblue" stroke="midnightblue" points="150.547,-246.433 140.34,-243.591 146.548,-252.178 150.547,-246.433"/>
</g>
<!-- Node26&#45;&gt;Node18 -->
<g id="edge47" class="edge"><title>Node26&#45;&gt;Node18</title>
<path fill="none" stroke="midnightblue" d="M307.708,-336.444C330.355,-327.517 366.072,-313.439 391.752,-303.317"/>
<polygon fill="midnightblue" stroke="midnightblue" points="393.374,-306.44 401.394,-299.516 390.807,-299.927 393.374,-306.44"/>
</g>
<!-- Node27&#45;&gt;Node12 -->
<g id="edge50" class="edge"><title>Node27&#45;&gt;Node12</title>
<path fill="none" stroke="midnightblue" d="M715.693,-280.418C729.402,-272.351 749.212,-259.258 763,-244 782.22,-222.732 787.642,-215.705 795,-188 803.67,-155.354 809.042,-142.721 795,-112 789.223,-99.3602 777.948,-88.911 767.369,-81.2737"/>
<polygon fill="midnightblue" stroke="midnightblue" points="769.042,-78.1817 758.783,-75.5333 765.151,-84.0009 769.042,-78.1817"/>
</g>
<!-- Node27&#45;&gt;Node13 -->
<g id="edge52" class="edge"><title>Node27&#45;&gt;Node13</title>
<path fill="none" stroke="midnightblue" d="M707.673,-280.459C714.779,-271.927 724.854,-258.088 729,-244 739.102,-209.675 766.416,-190.983 721,-112 712.968,-98.0314 698.632,-87.473 685.368,-80.1065"/>
<polygon fill="midnightblue" stroke="midnightblue" points="686.94,-76.9795 676.447,-75.5139 683.736,-83.2031 686.94,-76.9795"/>
</g>
<!-- Node27&#45;&gt;Node20 -->
<g id="edge51" class="edge"><title>Node27&#45;&gt;Node20</title>
<path fill="none" stroke="midnightblue" d="M700,-280.083C700,-273.006 700,-262.861 700,-253.986"/>
<polygon fill="midnightblue" stroke="midnightblue" points="703.5,-253.751 700,-243.751 696.5,-253.751 703.5,-253.751"/>
</g>
<!-- Node28&#45;&gt;Node16 -->
<g id="edge54" class="edge"><title>Node28&#45;&gt;Node16</title>
<path fill="none" stroke="midnightblue" d="M145.532,-280.083C142.688,-272.77 138.571,-262.181 135.04,-253.103"/>
<polygon fill="midnightblue" stroke="midnightblue" points="138.29,-251.803 131.403,-243.751 131.766,-254.34 138.29,-251.803"/>
</g>
<!-- Node29&#45;&gt;Node18 -->
<g id="edge62" class="edge"><title>Node29&#45;&gt;Node18</title>
<path fill="none" stroke="midnightblue" d="M853.493,-340.672C766.056,-330.583 549.445,-305.59 461.266,-295.415"/>
<polygon fill="midnightblue" stroke="midnightblue" points="461.502,-291.919 451.166,-294.25 460.699,-298.873 461.502,-291.919"/>
</g>
<!-- Node30 -->
<g id="node30" class="node"><title>Node30</title>
<g id="a_node30"><a xlink:href="tm__hash__set_8hpp.html" target="_top" xlink:title="tm_hash_set.hpp">
<polygon fill="none" stroke="black" points="853,-280.5 853,-299.5 945,-299.5 945,-280.5 853,-280.5"/>
<text text-anchor="middle" x="899" y="-287.5" font-family="Helvetica,sans-Serif" font-size="10.00">tm_hash_set.hpp</text>
</a>
</g>
</g>
<!-- Node29&#45;&gt;Node30 -->
<g id="edge56" class="edge"><title>Node29&#45;&gt;Node30</title>
<path fill="none" stroke="midnightblue" d="M892.321,-336.083C893.381,-328.927 894.906,-318.635 896.231,-309.691"/>
<polygon fill="midnightblue" stroke="midnightblue" points="899.7,-310.156 897.704,-299.751 892.776,-309.13 899.7,-310.156"/>
</g>
<!-- Node31 -->
<g id="node31" class="node"><title>Node31</title>
<g id="a_node31"><a xlink:href="tm__set_8hpp.html" target="_top" xlink:title="tm_set.hpp">
<polygon fill="none" stroke="black" points="927.5,-168.5 927.5,-187.5 992.5,-187.5 992.5,-168.5 927.5,-168.5"/>
<text text-anchor="middle" x="960" y="-175.5" font-family="Helvetica,sans-Serif" font-size="10.00">tm_set.hpp</text>
</a>
</g>
</g>
<!-- Node30&#45;&gt;Node31 -->
<g id="edge57" class="edge"><title>Node30&#45;&gt;Node31</title>
<path fill="none" stroke="midnightblue" d="M911.077,-280.406C921.642,-272.239 936.577,-259.002 945,-244 953.062,-229.641 956.796,-211.181 958.522,-197.605"/>
<polygon fill="midnightblue" stroke="midnightblue" points="962.015,-197.851 959.551,-187.547 955.051,-197.138 962.015,-197.851"/>
</g>
<!-- Node32 -->
<g id="node32" class="node"><title>Node32</title>
<g id="a_node32"><a xlink:href="tm__list__set_8hpp.html" target="_top" xlink:title="tm_list_set.hpp">
<polygon fill="none" stroke="black" points="853.5,-224.5 853.5,-243.5 936.5,-243.5 936.5,-224.5 853.5,-224.5"/>
<text text-anchor="middle" x="895" y="-231.5" font-family="Helvetica,sans-Serif" font-size="10.00">tm_list_set.hpp</text>
</a>
</g>
</g>
<!-- Node30&#45;&gt;Node32 -->
<g id="edge58" class="edge"><title>Node30&#45;&gt;Node32</title>
<path fill="none" stroke="midnightblue" d="M898.339,-280.083C897.815,-273.006 897.064,-262.861 896.406,-253.986"/>
<polygon fill="midnightblue" stroke="midnightblue" points="899.877,-253.465 895.648,-243.751 892.897,-253.982 899.877,-253.465"/>
</g>
<!-- Node32&#45;&gt;Node3 -->
<g id="edge60" class="edge"><title>Node32&#45;&gt;Node3</title>
<path fill="none" stroke="midnightblue" d="M853.479,-230.636C718.535,-222.913 295.875,-198.381 197.688,-187.79"/>
<polygon fill="midnightblue" stroke="midnightblue" points="197.93,-184.295 187.589,-186.6 197.11,-191.247 197.93,-184.295"/>
</g>
<!-- Node32&#45;&gt;Node5 -->
<g id="edge59" class="edge"><title>Node32&#45;&gt;Node5</title>
<path fill="none" stroke="midnightblue" d="M892.067,-224.304C881.809,-195.288 844.609,-101.091 780,-56 723.477,-16.5522 694.422,-35.6464 623.631,-20.1932"/>
<polygon fill="midnightblue" stroke="midnightblue" points="624.372,-16.7721 613.837,-17.8943 622.772,-23.5869 624.372,-16.7721"/>
</g>
<!-- Node32&#45;&gt;Node31 -->
<g id="edge61" class="edge"><title>Node32&#45;&gt;Node31</title>
<path fill="none" stroke="midnightblue" d="M905.443,-224.324C915.146,-216.263 929.815,-204.077 941.5,-194.369"/>
<polygon fill="midnightblue" stroke="midnightblue" points="943.911,-196.916 949.367,-187.834 939.438,-191.532 943.911,-196.916"/>
</g>
<!-- Node33&#45;&gt;Node3 -->
<g id="edge65" class="edge"><title>Node33&#45;&gt;Node3</title>
<path fill="none" stroke="midnightblue" d="M353.109,-336.48C327.821,-316.701 263.151,-266.143 209,-224 196.016,-213.895 181.378,-202.538 170.056,-193.762"/>
<polygon fill="midnightblue" stroke="midnightblue" points="172.175,-190.976 162.127,-187.617 167.887,-196.509 172.175,-190.976"/>
</g>
<!-- Node33&#45;&gt;Node16 -->
<g id="edge66" class="edge"><title>Node33&#45;&gt;Node16</title>
<path fill="none" stroke="midnightblue" d="M345.481,-336.368C304.208,-317.131 204.481,-270.648 155.744,-247.931"/>
<polygon fill="midnightblue" stroke="midnightblue" points="156.975,-244.644 146.432,-243.591 154.018,-250.988 156.975,-244.644"/>
</g>
<!-- Node33&#45;&gt;Node18 -->
<g id="edge67" class="edge"><title>Node33&#45;&gt;Node18</title>
<path fill="none" stroke="midnightblue" d="M373.479,-336.324C382.201,-328.341 395.343,-316.313 405.898,-306.653"/>
<polygon fill="midnightblue" stroke="midnightblue" points="408.334,-309.167 413.348,-299.834 403.608,-304.004 408.334,-309.167"/>
</g>
<!-- Node33&#45;&gt;Node21 -->
<g id="edge68" class="edge"><title>Node33&#45;&gt;Node21</title>
<path fill="none" stroke="midnightblue" d="M365.945,-336.19C369.013,-323.306 375.709,-298.814 386,-280 391.63,-269.707 399.656,-259.402 406.702,-251.255"/>
<polygon fill="midnightblue" stroke="midnightblue" points="409.466,-253.415 413.547,-243.638 404.26,-248.736 409.466,-253.415"/>
</g>
<!-- Node33&#45;&gt;Node25 -->
<g id="edge69" class="edge"><title>Node33&#45;&gt;Node25</title>
<path fill="none" stroke="midnightblue" d="M384.501,-336.444C404.078,-328.007 434.188,-314.328 459,-300 485.874,-284.481 514.998,-263.662 533.591,-249.813"/>
<polygon fill="midnightblue" stroke="midnightblue" points="535.928,-252.435 541.817,-243.627 531.721,-246.84 535.928,-252.435"/>
</g>
<!-- Node33&#45;&gt;Node27 -->
<g id="edge70" class="edge"><title>Node33&#45;&gt;Node27</title>
<path fill="none" stroke="midnightblue" d="M396.522,-339.773C457.96,-329.899 590.974,-308.522 658.649,-297.646"/>
<polygon fill="midnightblue" stroke="midnightblue" points="659.61,-301.036 668.928,-295.994 658.5,-294.125 659.61,-301.036"/>
</g>
</g>
</svg>
