<?xml version="1.0" encoding="UTF-8" standalone="no"?>
<!DOCTYPE svg PUBLIC "-//W3C//DTD SVG 1.1//EN"
 "http://www.w3.org/Graphics/SVG/1.1/DTD/svg11.dtd">
<!-- Generated by graphviz version 2.36.0 (20140111.2315)
 -->
<!-- Title: reconsider_edge Pages: 1 -->
<svg width="316pt" height="28pt"
 viewBox="0.00 0.00 316.00 28.00" xmlns="http://www.w3.org/2000/svg" xmlns:xlink="http://www.w3.org/1999/xlink">
<g id="graph0" class="graph" transform="scale(1 1) rotate(0) translate(4 24)">
<title>reconsider_edge</title>
<!-- Node1 -->
<g id="node1" class="node"><title>Node1</title>
<polygon fill="#bfbfbf" stroke="black" points="0,-0.5 0,-19.5 88,-19.5 88,-0.5 0,-0.5"/>
<text text-anchor="middle" x="44" y="-7.5" font-family="Helvetica,sans-Serif" font-size="10.00">reconsider_edge</text>
</g>
<!-- Node2 -->
<g id="node2" class="node"><title>Node2</title>
<g id="a_node2"><a xlink:href="worker_8cpp.html#a4d3d5d6b1446463eca81bdd1106ef943" target="_top" xlink:title="do_work">
<polygon fill="none" stroke="black" points="124.5,-0.5 124.5,-19.5 177.5,-19.5 177.5,-0.5 124.5,-0.5"/>
<text text-anchor="middle" x="151" y="-7.5" font-family="Helvetica,sans-Serif" font-size="10.00">do_work</text>
</a>
</g>
</g>
<!-- Node1&#45;&gt;Node2 -->
<g id="edge1" class="edge"><title>Node1&#45;&gt;Node2</title>
<path fill="none" stroke="midnightblue" d="M98.2425,-10C107.346,-10 116.419,-10 124.368,-10"/>
<polygon fill="midnightblue" stroke="midnightblue" points="98.0105,-6.5001 88.0105,-10 98.0104,-13.5001 98.0105,-6.5001"/>
</g>
<!-- Node3 -->
<g id="node3" class="node"><title>Node3</title>
<g id="a_node3"><a xlink:href="classworker.html#a7b7d6866de64fc583693899b65cb12bc" target="_top" xlink:title="worker::operator()">
<polygon fill="none" stroke="black" points="214.5,-0.5 214.5,-19.5 307.5,-19.5 307.5,-0.5 214.5,-0.5"/>
<text text-anchor="middle" x="261" y="-7.5" font-family="Helvetica,sans-Serif" font-size="10.00">worker::operator()</text>
</a>
</g>
</g>
<!-- Node2&#45;&gt;Node3 -->
<g id="edge2" class="edge"><title>Node2&#45;&gt;Node3</title>
<path fill="none" stroke="midnightblue" d="M187.596,-10C196.134,-10 205.37,-10 214.296,-10"/>
<polygon fill="midnightblue" stroke="midnightblue" points="187.595,-6.5001 177.594,-10 187.594,-13.5001 187.595,-6.5001"/>
</g>
</g>
</svg>
