<?xml version="1.0" encoding="UTF-8" standalone="no"?>
<!DOCTYPE svg PUBLIC "-//W3C//DTD SVG 1.1//EN"
 "http://www.w3.org/Graphics/SVG/1.1/DTD/svg11.dtd">
<!-- Generated by graphviz version 2.36.0 (20140111.2315)
 -->
<!-- Title: baste Pages: 1 -->
<svg width="416pt" height="104pt"
 viewBox="0.00 0.00 416.00 104.00" xmlns="http://www.w3.org/2000/svg" xmlns:xlink="http://www.w3.org/1999/xlink">
<g id="graph0" class="graph" transform="scale(1 1) rotate(0) translate(4 100)">
<title>baste</title>
<!-- Node1 -->
<g id="node1" class="node"><title>Node1</title>
<polygon fill="#bfbfbf" stroke="black" points="0.5,-19.5 0.5,-38.5 41.5,-38.5 41.5,-19.5 0.5,-19.5"/>
<text text-anchor="middle" x="21" y="-26.5" font-family="Helvetica,sans-Serif" font-size="10.00">baste</text>
</g>
<!-- Node2 -->
<g id="node2" class="node"><title>Node2</title>
<g id="a_node2"><a xlink:href="structpv__side.html#ab982252ee33bd8b4d6609f35506fe898" target="_top" xlink:title="pv_side::conditional_move">
<polygon fill="none" stroke="black" points="78,-38.5 78,-57.5 210,-57.5 210,-38.5 78,-38.5"/>
<text text-anchor="middle" x="144" y="-45.5" font-family="Helvetica,sans-Serif" font-size="10.00">pv_side::conditional_move</text>
</a>
</g>
</g>
<!-- Node1&#45;&gt;Node2 -->
<g id="edge1" class="edge"><title>Node1&#45;&gt;Node2</title>
<path fill="none" stroke="midnightblue" d="M41.71,-32.095C50.3597,-33.4532 61.0915,-35.1383 72.3044,-36.899"/>
<polygon fill="midnightblue" stroke="midnightblue" points="71.8198,-40.3658 82.2417,-38.4594 72.9058,-33.4505 71.8198,-40.3658"/>
</g>
<!-- Node7 -->
<g id="node7" class="node"><title>Node7</title>
<g id="a_node7"><a xlink:href="classsimple__queue.html#a189cc4bc19b3a8c84fba3bdea89c75c1" target="_top" xlink:title="simple_queue::enqueue">
<polygon fill="none" stroke="black" points="84.5,-0.5 84.5,-19.5 203.5,-19.5 203.5,-0.5 84.5,-0.5"/>
<text text-anchor="middle" x="144" y="-7.5" font-family="Helvetica,sans-Serif" font-size="10.00">simple_queue::enqueue</text>
</a>
</g>
</g>
<!-- Node1&#45;&gt;Node7 -->
<g id="edge6" class="edge"><title>Node1&#45;&gt;Node7</title>
<path fill="none" stroke="midnightblue" d="M41.71,-25.905C50.8656,-24.4674 62.354,-22.6634 74.2765,-20.7913"/>
<polygon fill="midnightblue" stroke="midnightblue" points="75.0158,-24.2182 84.3518,-19.2092 73.9299,-17.3029 75.0158,-24.2182"/>
</g>
<!-- Node3 -->
<g id="node3" class="node"><title>Node3</title>
<g id="a_node3"><a xlink:href="point_8hpp.html#aa9b83c6c0cd506e8f62420ce41d7c5ac" target="_top" xlink:title="closest_seam">
<polygon fill="none" stroke="black" points="247.5,-76.5 247.5,-95.5 324.5,-95.5 324.5,-76.5 247.5,-76.5"/>
<text text-anchor="middle" x="286" y="-83.5" font-family="Helvetica,sans-Serif" font-size="10.00">closest_seam</text>
</a>
</g>
</g>
<!-- Node2&#45;&gt;Node3 -->
<g id="edge2" class="edge"><title>Node2&#45;&gt;Node3</title>
<path fill="none" stroke="midnightblue" d="M180.328,-57.589C198.401,-62.4944 220.598,-68.5196 239.895,-73.7571"/>
<polygon fill="midnightblue" stroke="midnightblue" points="239.116,-77.1723 249.683,-76.4141 240.949,-70.4167 239.116,-77.1723"/>
</g>
<!-- Node5 -->
<g id="node5" class="node"><title>Node5</title>
<g id="a_node5"><a xlink:href="point_8cpp.html#ae77890a7cdbacaf1b115d396c571bfda" target="_top" xlink:title="extern_angle">
<polygon fill="none" stroke="black" points="250,-38.5 250,-57.5 322,-57.5 322,-38.5 250,-38.5"/>
<text text-anchor="middle" x="286" y="-45.5" font-family="Helvetica,sans-Serif" font-size="10.00">extern_angle</text>
</a>
</g>
</g>
<!-- Node2&#45;&gt;Node5 -->
<g id="edge4" class="edge"><title>Node2&#45;&gt;Node5</title>
<path fill="none" stroke="midnightblue" d="M210.082,-48C220.043,-48 230.138,-48 239.554,-48"/>
<polygon fill="midnightblue" stroke="midnightblue" points="239.853,-51.5001 249.853,-48 239.853,-44.5001 239.853,-51.5001"/>
</g>
<!-- Node6 -->
<g id="node6" class="node"><title>Node6</title>
<g id="a_node6"><a xlink:href="classedge.html#a528535c93e864fea104ca95de447b198" target="_top" xlink:title="edge::index_of">
<polygon fill="none" stroke="black" points="246,-0.5 246,-19.5 326,-19.5 326,-0.5 246,-0.5"/>
<text text-anchor="middle" x="286" y="-7.5" font-family="Helvetica,sans-Serif" font-size="10.00">edge::index_of</text>
</a>
</g>
</g>
<!-- Node2&#45;&gt;Node6 -->
<g id="edge5" class="edge"><title>Node2&#45;&gt;Node6</title>
<path fill="none" stroke="midnightblue" d="M180.328,-38.411C198.401,-33.5056 220.598,-27.4804 239.895,-22.2429"/>
<polygon fill="midnightblue" stroke="midnightblue" points="240.949,-25.5833 249.683,-19.5859 239.116,-18.8277 240.949,-25.5833"/>
</g>
<!-- Node4 -->
<g id="node4" class="node"><title>Node4</title>
<g id="a_node4"><a xlink:href="point_8hpp.html#ac3affcd51103a7fafe2143a933683b30" target="_top" xlink:title="bucket">
<polygon fill="none" stroke="black" points="362,-76.5 362,-95.5 408,-95.5 408,-76.5 362,-76.5"/>
<text text-anchor="middle" x="385" y="-83.5" font-family="Helvetica,sans-Serif" font-size="10.00">bucket</text>
</a>
</g>
</g>
<!-- Node3&#45;&gt;Node4 -->
<g id="edge3" class="edge"><title>Node3&#45;&gt;Node4</title>
<path fill="none" stroke="midnightblue" d="M324.503,-86C333.448,-86 342.919,-86 351.612,-86"/>
<polygon fill="midnightblue" stroke="midnightblue" points="351.741,-89.5001 361.741,-86 351.741,-82.5001 351.741,-89.5001"/>
</g>
</g>
</svg>
