<?xml version="1.0" encoding="UTF-8" standalone="no"?>
<!DOCTYPE svg PUBLIC "-//W3C//DTD SVG 1.1//EN"
 "http://www.w3.org/Graphics/SVG/1.1/DTD/svg11.dtd">
<!-- Generated by graphviz version 2.36.0 (20140111.2315)
 -->
<!-- Title: rstm/rstm&#45;dev/include/stm/WriteSet.hpp Pages: 1 -->
<svg width="273pt" height="96pt"
 viewBox="0.00 0.00 273.00 96.00" xmlns="http://www.w3.org/2000/svg" xmlns:xlink="http://www.w3.org/1999/xlink">
<g id="graph0" class="graph" transform="scale(1 1) rotate(0) translate(4 92)">
<title>rstm/rstm&#45;dev/include/stm/WriteSet.hpp</title>
<!-- Node1 -->
<g id="node1" class="node"><title>Node1</title>
<polygon fill="#bfbfbf" stroke="black" points="87.5,-57 87.5,-87 198.5,-87 198.5,-57 87.5,-57"/>
<text text-anchor="start" x="95.5" y="-75" font-family="Helvetica,sans-Serif" font-size="10.00">rstm/rstm&#45;dev/include</text>
<text text-anchor="middle" x="143" y="-64" font-family="Helvetica,sans-Serif" font-size="10.00">/stm/WriteSet.hpp</text>
</g>
<!-- Node2 -->
<g id="node2" class="node"><title>Node2</title>
<polygon fill="none" stroke="#bfbfbf" points="-0.5,-0.5 -0.5,-19.5 70.5,-19.5 70.5,-0.5 -0.5,-0.5"/>
<text text-anchor="middle" x="35" y="-7.5" font-family="Helvetica,sans-Serif" font-size="10.00">stm/config.h</text>
</g>
<!-- Node1&#45;&gt;Node2 -->
<g id="edge1" class="edge"><title>Node1&#45;&gt;Node2</title>
<path fill="none" stroke="midnightblue" d="M117.679,-56.9327C100.109,-47.1715 76.8322,-34.2401 59.454,-24.5856"/>
<polygon fill="midnightblue" stroke="midnightblue" points="60.9214,-21.397 50.48,-19.6 57.5219,-27.5161 60.9214,-21.397"/>
</g>
<!-- Node3 -->
<g id="node3" class="node"><title>Node3</title>
<polygon fill="none" stroke="#bfbfbf" points="88.5,-0.5 88.5,-19.5 133.5,-19.5 133.5,-0.5 88.5,-0.5"/>
<text text-anchor="middle" x="111" y="-7.5" font-family="Helvetica,sans-Serif" font-size="10.00">cstdlib</text>
</g>
<!-- Node1&#45;&gt;Node3 -->
<g id="edge2" class="edge"><title>Node1&#45;&gt;Node3</title>
<path fill="none" stroke="midnightblue" d="M135.416,-56.7808C130.91,-48.3318 125.159,-37.5481 120.37,-28.5693"/>
<polygon fill="midnightblue" stroke="midnightblue" points="123.45,-26.907 115.656,-19.7305 117.274,-30.2012 123.45,-26.907"/>
</g>
<!-- Node4 -->
<g id="node4" class="node"><title>Node4</title>
<polygon fill="none" stroke="#bfbfbf" points="152,-0.5 152,-19.5 198,-19.5 198,-0.5 152,-0.5"/>
<text text-anchor="middle" x="175" y="-7.5" font-family="Helvetica,sans-Serif" font-size="10.00">cstring</text>
</g>
<!-- Node1&#45;&gt;Node4 -->
<g id="edge3" class="edge"><title>Node1&#45;&gt;Node4</title>
<path fill="none" stroke="midnightblue" d="M150.584,-56.7808C155.09,-48.3318 160.841,-37.5481 165.63,-28.5693"/>
<polygon fill="midnightblue" stroke="midnightblue" points="168.726,-30.2012 170.344,-19.7305 162.55,-26.907 168.726,-30.2012"/>
</g>
<!-- Node5 -->
<g id="node5" class="node"><title>Node5</title>
<polygon fill="none" stroke="#bfbfbf" points="216.5,-0.5 216.5,-19.5 265.5,-19.5 265.5,-0.5 216.5,-0.5"/>
<text text-anchor="middle" x="241" y="-7.5" font-family="Helvetica,sans-Serif" font-size="10.00">cassert</text>
</g>
<!-- Node1&#45;&gt;Node5 -->
<g id="edge4" class="edge"><title>Node1&#45;&gt;Node5</title>
<path fill="none" stroke="midnightblue" d="M166.225,-56.7808C182.028,-47.1054 202.832,-34.3684 218.483,-24.7861"/>
<polygon fill="midnightblue" stroke="midnightblue" points="220.325,-27.7623 227.026,-19.5557 216.67,-21.7923 220.325,-27.7623"/>
</g>
</g>
</svg>
