<?xml version="1.0" encoding="UTF-8" standalone="no"?>
<!DOCTYPE svg PUBLIC "-//W3C//DTD SVG 1.1//EN"
 "http://www.w3.org/Graphics/SVG/1.1/DTD/svg11.dtd">
<!-- Generated by graphviz version 2.36.0 (20140111.2315)
 -->
<!-- Title: rstm/rstm&#45;dev/bench/WWPathologyBench.cpp Pages: 1 -->
<svg width="1179pt" height="544pt"
 viewBox="0.00 0.00 1179.00 544.00" xmlns="http://www.w3.org/2000/svg" xmlns:xlink="http://www.w3.org/1999/xlink">
<g id="graph0" class="graph" transform="scale(1 1) rotate(0) translate(4 540)">
<title>rstm/rstm&#45;dev/bench/WWPathologyBench.cpp</title>
<!-- Node1 -->
<g id="node1" class="node"><title>Node1</title>
<polygon fill="#bfbfbf" stroke="black" points="273.5,-505 273.5,-535 402.5,-535 402.5,-505 273.5,-505"/>
<text text-anchor="start" x="281.5" y="-523" font-family="Helvetica,sans-Serif" font-size="10.00">rstm/rstm&#45;dev/bench</text>
<text text-anchor="middle" x="338" y="-512" font-family="Helvetica,sans-Serif" font-size="10.00">/WWPathologyBench.cpp</text>
</g>
<!-- Node2 -->
<g id="node2" class="node"><title>Node2</title>
<polygon fill="none" stroke="#bfbfbf" points="0,-392.5 0,-411.5 54,-411.5 54,-392.5 0,-392.5"/>
<text text-anchor="middle" x="27" y="-399.5" font-family="Helvetica,sans-Serif" font-size="10.00">iostream</text>
</g>
<!-- Node1&#45;&gt;Node2 -->
<g id="edge1" class="edge"><title>Node1&#45;&gt;Node2</title>
<path fill="none" stroke="midnightblue" d="M273.235,-513C203.7,-505.502 98.7835,-490.809 66,-468 49.8313,-456.751 39.2378,-436.437 33.2271,-421.503"/>
<polygon fill="midnightblue" stroke="midnightblue" points="36.3883,-419.959 29.6462,-411.786 29.8201,-422.38 36.3883,-419.959"/>
</g>
<!-- Node3 -->
<g id="node3" class="node"><title>Node3</title>
<g id="a_node3"><a xlink:href="api_8hpp.html" target="_top" xlink:title="api/api.hpp">
<polygon fill="none" stroke="black" points="953,-392.5 953,-411.5 1017,-411.5 1017,-392.5 953,-392.5"/>
<text text-anchor="middle" x="985" y="-399.5" font-family="Helvetica,sans-Serif" font-size="10.00">api/api.hpp</text>
</a>
</g>
</g>
<!-- Node1&#45;&gt;Node3 -->
<g id="edge2" class="edge"><title>Node1&#45;&gt;Node3</title>
<path fill="none" stroke="midnightblue" d="M402.7,-507.4C534.777,-483.72 832.25,-430.386 942.681,-410.587"/>
<polygon fill="midnightblue" stroke="midnightblue" points="943.547,-413.988 952.773,-408.778 942.312,-407.098 943.547,-413.988"/>
</g>
<!-- Node29 -->
<g id="node29" class="node"><title>Node29</title>
<g id="a_node29"><a xlink:href="bmconfig_8hpp.html" target="_top" xlink:title="bmconfig.hpp">
<polygon fill="none" stroke="black" points="75.5,-448.5 75.5,-467.5 150.5,-467.5 150.5,-448.5 75.5,-448.5"/>
<text text-anchor="middle" x="113" y="-455.5" font-family="Helvetica,sans-Serif" font-size="10.00">bmconfig.hpp</text>
</a>
</g>
</g>
<!-- Node1&#45;&gt;Node29 -->
<g id="edge50" class="edge"><title>Node1&#45;&gt;Node29</title>
<path fill="none" stroke="midnightblue" d="M285.247,-504.933C245.474,-494.326 191.665,-479.977 154.835,-470.156"/>
<polygon fill="midnightblue" stroke="midnightblue" points="155.487,-466.708 144.923,-467.513 153.683,-473.471 155.487,-466.708"/>
</g>
<!-- Node30 -->
<g id="node30" class="node"><title>Node30</title>
<g id="a_node30"><a xlink:href="DList_8hpp.html" target="_top" xlink:title="DList.hpp">
<polygon fill="none" stroke="black" points="955.5,-448.5 955.5,-467.5 1014.5,-467.5 1014.5,-448.5 955.5,-448.5"/>
<text text-anchor="middle" x="985" y="-455.5" font-family="Helvetica,sans-Serif" font-size="10.00">DList.hpp</text>
</a>
</g>
</g>
<!-- Node1&#45;&gt;Node30 -->
<g id="edge54" class="edge"><title>Node1&#45;&gt;Node30</title>
<path fill="none" stroke="midnightblue" d="M402.7,-513C535.728,-500.664 836.541,-472.767 945.037,-462.706"/>
<polygon fill="midnightblue" stroke="midnightblue" points="945.589,-466.17 955.223,-461.761 944.942,-459.2 945.589,-466.17"/>
</g>
<!-- Node4 -->
<g id="node4" class="node"><title>Node4</title>
<polygon fill="none" stroke="#bfbfbf" points="664.5,-0.5 664.5,-19.5 735.5,-19.5 735.5,-0.5 664.5,-0.5"/>
<text text-anchor="middle" x="700" y="-7.5" font-family="Helvetica,sans-Serif" font-size="10.00">stm/config.h</text>
</g>
<!-- Node3&#45;&gt;Node4 -->
<g id="edge3" class="edge"><title>Node3&#45;&gt;Node4</title>
<path fill="none" stroke="midnightblue" d="M1017.11,-392.685C1060.64,-379.253 1133,-348.305 1133,-291 1133,-291 1133,-291 1133,-121 1133,-76.2146 1097.01,-73.992 1056,-56 1001.36,-32.0293 829.163,-18.7358 745.932,-13.5621"/>
<polygon fill="midnightblue" stroke="midnightblue" points="745.951,-10.0569 735.757,-12.9426 745.526,-17.0439 745.951,-10.0569"/>
</g>
<!-- Node5 -->
<g id="node5" class="node"><title>Node5</title>
<g id="a_node5"><a xlink:href="library_8hpp.html" target="_top" xlink:title="api/library.hpp">
<polygon fill="none" stroke="black" points="946.5,-336.5 946.5,-355.5 1023.5,-355.5 1023.5,-336.5 946.5,-336.5"/>
<text text-anchor="middle" x="985" y="-343.5" font-family="Helvetica,sans-Serif" font-size="10.00">api/library.hpp</text>
</a>
</g>
</g>
<!-- Node3&#45;&gt;Node5 -->
<g id="edge4" class="edge"><title>Node3&#45;&gt;Node5</title>
<path fill="none" stroke="midnightblue" d="M985,-392.083C985,-385.006 985,-374.861 985,-365.986"/>
<polygon fill="midnightblue" stroke="midnightblue" points="988.5,-365.751 985,-355.751 981.5,-365.751 988.5,-365.751"/>
</g>
<!-- Node5&#45;&gt;Node4 -->
<g id="edge6" class="edge"><title>Node5&#45;&gt;Node4</title>
<path fill="none" stroke="midnightblue" d="M987.368,-336.486C996.873,-302.158 1031.98,-173.761 1037,-132 1041.03,-98.464 1059.25,-81.416 1037,-56 1018.11,-34.4203 833.671,-19.6705 745.933,-13.8178"/>
<polygon fill="midnightblue" stroke="midnightblue" points="745.938,-10.3107 735.73,-13.1483 745.48,-17.2957 745.938,-10.3107"/>
</g>
<!-- Node6 -->
<g id="node6" class="node"><title>Node6</title>
<polygon fill="none" stroke="#bfbfbf" points="1013,-280.5 1013,-299.5 1067,-299.5 1067,-280.5 1013,-280.5"/>
<text text-anchor="middle" x="1040" y="-287.5" font-family="Helvetica,sans-Serif" font-size="10.00">setjmp.h</text>
</g>
<!-- Node5&#45;&gt;Node6 -->
<g id="edge5" class="edge"><title>Node5&#45;&gt;Node6</title>
<path fill="none" stroke="midnightblue" d="M994.082,-336.083C1002.17,-328.141 1014.2,-316.335 1023.91,-306.797"/>
<polygon fill="midnightblue" stroke="midnightblue" points="1026.4,-309.254 1031.09,-299.751 1021.5,-304.26 1026.4,-309.254"/>
</g>
<!-- Node7 -->
<g id="node7" class="node"><title>Node7</title>
<g id="a_node7"><a xlink:href="platform_8hpp.html" target="_top" xlink:title="common/platform.hpp">
<polygon fill="none" stroke="black" points="917.5,-56.5 917.5,-75.5 1028.5,-75.5 1028.5,-56.5 917.5,-56.5"/>
<text text-anchor="middle" x="973" y="-63.5" font-family="Helvetica,sans-Serif" font-size="10.00">common/platform.hpp</text>
</a>
</g>
</g>
<!-- Node5&#45;&gt;Node7 -->
<g id="edge7" class="edge"><title>Node5&#45;&gt;Node7</title>
<path fill="none" stroke="midnightblue" d="M1016.96,-336.409C1036.6,-329.575 1060.82,-318.094 1076,-300 1095.34,-276.941 1095,-265.098 1095,-235 1095,-235 1095,-235 1095,-177 1095,-128.568 1041.31,-95.986 1005.17,-79.5381"/>
<polygon fill="midnightblue" stroke="midnightblue" points="1006.51,-76.3069 995.947,-75.5154 1003.71,-82.7227 1006.51,-76.3069"/>
</g>
<!-- Node11 -->
<g id="node11" class="node"><title>Node11</title>
<g id="a_node11"><a xlink:href="txthread_8hpp.html" target="_top" xlink:title="stm/txthread.hpp">
<polygon fill="none" stroke="black" points="662,-280.5 662,-299.5 752,-299.5 752,-280.5 662,-280.5"/>
<text text-anchor="middle" x="707" y="-287.5" font-family="Helvetica,sans-Serif" font-size="10.00">stm/txthread.hpp</text>
</a>
</g>
</g>
<!-- Node5&#45;&gt;Node11 -->
<g id="edge12" class="edge"><title>Node5&#45;&gt;Node11</title>
<path fill="none" stroke="midnightblue" d="M946.345,-337.492C898.03,-328.107 815.081,-311.994 760.639,-301.419"/>
<polygon fill="midnightblue" stroke="midnightblue" points="761.304,-297.983 750.82,-299.512 759.969,-304.854 761.304,-297.983"/>
</g>
<!-- Node28 -->
<g id="node28" class="node"><title>Node28</title>
<g id="a_node28"><a xlink:href="library__inst_8hpp.html" target="_top" xlink:title="library_inst.hpp">
<polygon fill="none" stroke="black" points="387.5,-280.5 387.5,-299.5 470.5,-299.5 470.5,-280.5 387.5,-280.5"/>
<text text-anchor="middle" x="429" y="-287.5" font-family="Helvetica,sans-Serif" font-size="10.00">library_inst.hpp</text>
</a>
</g>
</g>
<!-- Node5&#45;&gt;Node28 -->
<g id="edge48" class="edge"><title>Node5&#45;&gt;Node28</title>
<path fill="none" stroke="midnightblue" d="M946.345,-341.246C848.65,-331.757 591.767,-306.808 481.026,-296.053"/>
<polygon fill="midnightblue" stroke="midnightblue" points="481.067,-292.541 470.776,-295.057 480.39,-299.508 481.067,-292.541"/>
</g>
<!-- Node7&#45;&gt;Node4 -->
<g id="edge8" class="edge"><title>Node7&#45;&gt;Node4</title>
<path fill="none" stroke="midnightblue" d="M929.742,-56.4435C879.422,-46.4902 796.719,-30.1313 745.472,-19.9944"/>
<polygon fill="midnightblue" stroke="midnightblue" points="746.15,-16.5607 735.66,-18.0537 744.791,-23.4277 746.15,-16.5607"/>
</g>
<!-- Node8 -->
<g id="node8" class="node"><title>Node8</title>
<polygon fill="none" stroke="#bfbfbf" points="168.5,-0.5 168.5,-19.5 217.5,-19.5 217.5,-0.5 168.5,-0.5"/>
<text text-anchor="middle" x="193" y="-7.5" font-family="Helvetica,sans-Serif" font-size="10.00">stdint.h</text>
</g>
<!-- Node7&#45;&gt;Node8 -->
<g id="edge9" class="edge"><title>Node7&#45;&gt;Node8</title>
<path fill="none" stroke="midnightblue" d="M917.217,-61.1381C765.925,-50.664 350.928,-21.9335 227.848,-13.4126"/>
<polygon fill="midnightblue" stroke="midnightblue" points="227.735,-9.89645 217.517,-12.6973 227.252,-16.8797 227.735,-9.89645"/>
</g>
<!-- Node9 -->
<g id="node9" class="node"><title>Node9</title>
<polygon fill="none" stroke="#bfbfbf" points="1082,-0.5 1082,-19.5 1130,-19.5 1130,-0.5 1082,-0.5"/>
<text text-anchor="middle" x="1106" y="-7.5" font-family="Helvetica,sans-Serif" font-size="10.00">limits.h</text>
</g>
<!-- Node7&#45;&gt;Node9 -->
<g id="edge10" class="edge"><title>Node7&#45;&gt;Node9</title>
<path fill="none" stroke="midnightblue" d="M994.074,-56.4435C1016.06,-47.5171 1050.73,-33.4387 1075.66,-23.3168"/>
<polygon fill="midnightblue" stroke="midnightblue" points="1077.08,-26.5213 1085.02,-19.5164 1074.44,-20.0355 1077.08,-26.5213"/>
</g>
<!-- Node10 -->
<g id="node10" class="node"><title>Node10</title>
<polygon fill="none" stroke="#bfbfbf" points="947.5,-0.5 947.5,-19.5 998.5,-19.5 998.5,-0.5 947.5,-0.5"/>
<text text-anchor="middle" x="973" y="-7.5" font-family="Helvetica,sans-Serif" font-size="10.00">unistd.h</text>
</g>
<!-- Node7&#45;&gt;Node10 -->
<g id="edge11" class="edge"><title>Node7&#45;&gt;Node10</title>
<path fill="none" stroke="midnightblue" d="M973,-56.083C973,-49.0059 973,-38.8611 973,-29.9865"/>
<polygon fill="midnightblue" stroke="midnightblue" points="976.5,-29.751 973,-19.7511 969.5,-29.7511 976.5,-29.751"/>
</g>
<!-- Node12 -->
<g id="node12" class="node"><title>Node12</title>
<g id="a_node12"><a xlink:href="rand__r__32_8h.html" target="_top" xlink:title="alt&#45;license/rand_r_32.h">
<polygon fill="none" stroke="black" points="735.5,-224.5 735.5,-243.5 850.5,-243.5 850.5,-224.5 735.5,-224.5"/>
<text text-anchor="middle" x="793" y="-231.5" font-family="Helvetica,sans-Serif" font-size="10.00">alt&#45;license/rand_r_32.h</text>
</a>
</g>
</g>
<!-- Node11&#45;&gt;Node12 -->
<g id="edge13" class="edge"><title>Node11&#45;&gt;Node12</title>
<path fill="none" stroke="midnightblue" d="M720.817,-280.324C734.233,-271.9 754.824,-258.971 770.586,-249.074"/>
<polygon fill="midnightblue" stroke="midnightblue" points="772.609,-251.936 779.217,-243.655 768.887,-246.008 772.609,-251.936"/>
</g>
<!-- Node14 -->
<g id="node14" class="node"><title>Node14</title>
<g id="a_node14"><a xlink:href="locks_8hpp.html" target="_top" xlink:title="common/locks.hpp">
<polygon fill="none" stroke="black" points="929.5,-112.5 929.5,-131.5 1028.5,-131.5 1028.5,-112.5 929.5,-112.5"/>
<text text-anchor="middle" x="979" y="-119.5" font-family="Helvetica,sans-Serif" font-size="10.00">common/locks.hpp</text>
</a>
</g>
</g>
<!-- Node11&#45;&gt;Node14 -->
<g id="edge16" class="edge"><title>Node11&#45;&gt;Node14</title>
<path fill="none" stroke="midnightblue" d="M752.135,-282.298C788.475,-275.764 840.202,-263.849 882,-244 919.9,-226.001 933.481,-222.047 958,-188 967.854,-174.317 973.24,-155.782 976.082,-142.005"/>
<polygon fill="midnightblue" stroke="midnightblue" points="979.598,-142.223 977.912,-131.763 972.707,-140.992 979.598,-142.223"/>
</g>
<!-- Node15 -->
<g id="node15" class="node"><title>Node15</title>
<g id="a_node15"><a xlink:href="ThreadLocal_8hpp.html" target="_top" xlink:title="common/ThreadLocal.hpp">
<polygon fill="none" stroke="black" points="261.5,-224.5 261.5,-243.5 390.5,-243.5 390.5,-224.5 261.5,-224.5"/>
<text text-anchor="middle" x="326" y="-231.5" font-family="Helvetica,sans-Serif" font-size="10.00">common/ThreadLocal.hpp</text>
</a>
</g>
</g>
<!-- Node11&#45;&gt;Node15 -->
<g id="edge18" class="edge"><title>Node11&#45;&gt;Node15</title>
<path fill="none" stroke="midnightblue" d="M661.798,-282.593C596.15,-273.289 473.822,-255.951 396.331,-244.968"/>
<polygon fill="midnightblue" stroke="midnightblue" points="396.566,-241.467 386.173,-243.529 395.583,-248.397 396.566,-241.467"/>
</g>
<!-- Node16 -->
<g id="node16" class="node"><title>Node16</title>
<g id="a_node16"><a xlink:href="metadata_8hpp.html" target="_top" xlink:title="stm/metadata.hpp">
<polygon fill="none" stroke="black" points="447.5,-168.5 447.5,-187.5 542.5,-187.5 542.5,-168.5 447.5,-168.5"/>
<text text-anchor="middle" x="495" y="-175.5" font-family="Helvetica,sans-Serif" font-size="10.00">stm/metadata.hpp</text>
</a>
</g>
</g>
<!-- Node11&#45;&gt;Node16 -->
<g id="edge20" class="edge"><title>Node11&#45;&gt;Node16</title>
<path fill="none" stroke="midnightblue" d="M661.791,-282.821C629.278,-276.79 585.451,-265.286 552,-244 532.68,-231.705 516.141,-210.977 505.932,-196.235"/>
<polygon fill="midnightblue" stroke="midnightblue" points="508.62,-193.954 500.172,-187.56 502.788,-197.827 508.62,-193.954"/>
</g>
<!-- Node22 -->
<g id="node22" class="node"><title>Node22</title>
<g id="a_node22"><a xlink:href="WriteSet_8hpp.html" target="_top" xlink:title="stm/WriteSet.hpp">
<polygon fill="none" stroke="black" points="372.5,-112.5 372.5,-131.5 465.5,-131.5 465.5,-112.5 372.5,-112.5"/>
<text text-anchor="middle" x="419" y="-119.5" font-family="Helvetica,sans-Serif" font-size="10.00">stm/WriteSet.hpp</text>
</a>
</g>
</g>
<!-- Node11&#45;&gt;Node22 -->
<g id="edge30" class="edge"><title>Node11&#45;&gt;Node22</title>
<path fill="none" stroke="midnightblue" d="M661.912,-282.12C624.246,-275.379 569.682,-263.269 525,-244 482.775,-225.79 465.522,-224.839 438,-188 427.995,-174.608 423.243,-156.04 420.994,-142.178"/>
<polygon fill="midnightblue" stroke="midnightblue" points="424.411,-141.314 419.635,-131.857 417.471,-142.228 424.411,-141.314"/>
</g>
<!-- Node24 -->
<g id="node24" class="node"><title>Node24</title>
<g id="a_node24"><a xlink:href="UndoLog_8hpp.html" target="_top" xlink:title="stm/UndoLog.hpp">
<polygon fill="none" stroke="black" points="855,-168.5 855,-187.5 949,-187.5 949,-168.5 855,-168.5"/>
<text text-anchor="middle" x="902" y="-175.5" font-family="Helvetica,sans-Serif" font-size="10.00">stm/UndoLog.hpp</text>
</a>
</g>
</g>
<!-- Node11&#45;&gt;Node24 -->
<g id="edge35" class="edge"><title>Node11&#45;&gt;Node24</title>
<path fill="none" stroke="midnightblue" d="M752.235,-283.949C784.56,-278.47 827.697,-267.165 859,-244 875.279,-231.953 887.221,-211.774 894.333,-197.09"/>
<polygon fill="midnightblue" stroke="midnightblue" points="897.71,-198.117 898.651,-187.564 891.335,-195.227 897.71,-198.117"/>
</g>
<!-- Node26 -->
<g id="node26" class="node"><title>Node26</title>
<g id="a_node26"><a xlink:href="ValueList_8hpp.html" target="_top" xlink:title="stm/ValueList.hpp">
<polygon fill="none" stroke="black" points="703.5,-168.5 703.5,-187.5 798.5,-187.5 798.5,-168.5 703.5,-168.5"/>
<text text-anchor="middle" x="751" y="-175.5" font-family="Helvetica,sans-Serif" font-size="10.00">stm/ValueList.hpp</text>
</a>
</g>
</g>
<!-- Node11&#45;&gt;Node26 -->
<g id="edge40" class="edge"><title>Node11&#45;&gt;Node26</title>
<path fill="none" stroke="midnightblue" d="M709.083,-280.403C712.266,-267.786 718.837,-243.622 727,-224 730.868,-214.701 736.038,-204.781 740.588,-196.628"/>
<polygon fill="midnightblue" stroke="midnightblue" points="743.758,-198.135 745.702,-187.72 737.688,-194.65 743.758,-198.135"/>
</g>
<!-- Node27 -->
<g id="node27" class="node"><title>Node27</title>
<g id="a_node27"><a xlink:href="WBMMPolicy_8hpp.html" target="_top" xlink:title="WBMMPolicy.hpp">
<polygon fill="none" stroke="black" points="561.5,-224.5 561.5,-243.5 656.5,-243.5 656.5,-224.5 561.5,-224.5"/>
<text text-anchor="middle" x="609" y="-231.5" font-family="Helvetica,sans-Serif" font-size="10.00">WBMMPolicy.hpp</text>
</a>
</g>
</g>
<!-- Node11&#45;&gt;Node27 -->
<g id="edge43" class="edge"><title>Node11&#45;&gt;Node27</title>
<path fill="none" stroke="midnightblue" d="M691.255,-280.324C675.681,-271.743 651.623,-258.486 633.541,-248.522"/>
<polygon fill="midnightblue" stroke="midnightblue" points="635.154,-245.415 624.706,-243.655 631.776,-251.546 635.154,-245.415"/>
</g>
<!-- Node12&#45;&gt;Node4 -->
<g id="edge15" class="edge"><title>Node12&#45;&gt;Node4</title>
<path fill="none" stroke="midnightblue" d="M797.839,-224.381C804.278,-211.735 814.073,-187.537 807,-168 799.91,-148.417 789.174,-148.899 777,-132 753.786,-99.7762 751.463,-89.4162 730,-56 724.028,-46.7011 717.205,-36.4403 711.577,-28.0678"/>
<polygon fill="midnightblue" stroke="midnightblue" points="714.336,-25.8986 705.839,-19.5693 708.534,-29.8156 714.336,-25.8986"/>
</g>
<!-- Node13 -->
<g id="node13" class="node"><title>Node13</title>
<polygon fill="none" stroke="#bfbfbf" points="637,-168.5 637,-187.5 685,-187.5 685,-168.5 637,-168.5"/>
<text text-anchor="middle" x="661" y="-175.5" font-family="Helvetica,sans-Serif" font-size="10.00">stdlib.h</text>
</g>
<!-- Node12&#45;&gt;Node13 -->
<g id="edge14" class="edge"><title>Node12&#45;&gt;Node13</title>
<path fill="none" stroke="midnightblue" d="M772.084,-224.444C750.264,-215.517 715.85,-201.439 691.108,-191.317"/>
<polygon fill="midnightblue" stroke="midnightblue" points="692.399,-188.063 681.818,-187.516 689.748,-194.542 692.399,-188.063"/>
</g>
<!-- Node14&#45;&gt;Node7 -->
<g id="edge17" class="edge"><title>Node14&#45;&gt;Node7</title>
<path fill="none" stroke="midnightblue" d="M978.009,-112.083C977.214,-104.927 976.071,-94.6353 975.077,-85.6911"/>
<polygon fill="midnightblue" stroke="midnightblue" points="978.555,-85.3034 973.972,-75.7511 971.598,-86.0765 978.555,-85.3034"/>
</g>
<!-- Node15&#45;&gt;Node4 -->
<g id="edge19" class="edge"><title>Node15&#45;&gt;Node4</title>
<path fill="none" stroke="midnightblue" d="M322.258,-224.242C310.769,-195.825 279.337,-105.185 323,-56 344.67,-31.59 558.5,-18.0139 654.158,-13.1199"/>
<polygon fill="midnightblue" stroke="midnightblue" points="654.589,-16.6028 664.401,-12.606 654.238,-9.61156 654.589,-16.6028"/>
</g>
<!-- Node16&#45;&gt;Node4 -->
<g id="edge21" class="edge"><title>Node16&#45;&gt;Node4</title>
<path fill="none" stroke="midnightblue" d="M499.869,-168.311C512.616,-146.323 549.173,-87.9545 595,-56 615.504,-41.7025 641.27,-30.5755 662.147,-22.9628"/>
<polygon fill="midnightblue" stroke="midnightblue" points="663.389,-26.2362 671.657,-19.6117 661.062,-19.6341 663.389,-26.2362"/>
</g>
<!-- Node17 -->
<g id="node17" class="node"><title>Node17</title>
<g id="a_node17"><a xlink:href="MiniVector_8hpp.html" target="_top" xlink:title="stm/MiniVector.hpp">
<polygon fill="none" stroke="black" points="551.5,-112.5 551.5,-131.5 652.5,-131.5 652.5,-112.5 551.5,-112.5"/>
<text text-anchor="middle" x="602" y="-119.5" font-family="Helvetica,sans-Serif" font-size="10.00">stm/MiniVector.hpp</text>
</a>
</g>
</g>
<!-- Node16&#45;&gt;Node17 -->
<g id="edge22" class="edge"><title>Node16&#45;&gt;Node17</title>
<path fill="none" stroke="midnightblue" d="M512.191,-168.324C529.351,-159.664 555.946,-146.242 575.747,-136.249"/>
<polygon fill="midnightblue" stroke="midnightblue" points="577.501,-139.285 584.851,-131.655 574.347,-133.035 577.501,-139.285"/>
</g>
<!-- Node21 -->
<g id="node21" class="node"><title>Node21</title>
<g id="a_node21"><a xlink:href="BitFilter_8hpp.html" target="_top" xlink:title="stm/BitFilter.hpp">
<polygon fill="none" stroke="black" points="148.5,-56.5 148.5,-75.5 237.5,-75.5 237.5,-56.5 148.5,-56.5"/>
<text text-anchor="middle" x="193" y="-63.5" font-family="Helvetica,sans-Serif" font-size="10.00">stm/BitFilter.hpp</text>
</a>
</g>
</g>
<!-- Node16&#45;&gt;Node21 -->
<g id="edge27" class="edge"><title>Node16&#45;&gt;Node21</title>
<path fill="none" stroke="midnightblue" d="M469.103,-168.483C442.417,-159.634 399.659,-145.252 363,-132 314.182,-114.353 258.011,-92.5868 224.028,-79.2559"/>
<polygon fill="midnightblue" stroke="midnightblue" points="225.229,-75.9672 214.642,-75.5667 222.668,-82.4821 225.229,-75.9672"/>
</g>
<!-- Node17&#45;&gt;Node7 -->
<g id="edge26" class="edge"><title>Node17&#45;&gt;Node7</title>
<path fill="none" stroke="midnightblue" d="M652.808,-113.605C718.957,-103.977 834.683,-87.1324 907.4,-76.5483"/>
<polygon fill="midnightblue" stroke="midnightblue" points="907.973,-80.0017 917.365,-75.0978 906.965,-73.0747 907.973,-80.0017"/>
</g>
<!-- Node18 -->
<g id="node18" class="node"><title>Node18</title>
<polygon fill="none" stroke="#bfbfbf" points="497.5,-56.5 497.5,-75.5 546.5,-75.5 546.5,-56.5 497.5,-56.5"/>
<text text-anchor="middle" x="522" y="-63.5" font-family="Helvetica,sans-Serif" font-size="10.00">cassert</text>
</g>
<!-- Node17&#45;&gt;Node18 -->
<g id="edge23" class="edge"><title>Node17&#45;&gt;Node18</title>
<path fill="none" stroke="midnightblue" d="M589.147,-112.324C576.784,-103.979 557.87,-91.2122 543.263,-81.3524"/>
<polygon fill="midnightblue" stroke="midnightblue" points="545.068,-78.3483 534.821,-75.6545 541.152,-84.1503 545.068,-78.3483"/>
</g>
<!-- Node19 -->
<g id="node19" class="node"><title>Node19</title>
<polygon fill="none" stroke="#bfbfbf" points="434.5,-56.5 434.5,-75.5 479.5,-75.5 479.5,-56.5 434.5,-56.5"/>
<text text-anchor="middle" x="457" y="-63.5" font-family="Helvetica,sans-Serif" font-size="10.00">cstdlib</text>
</g>
<!-- Node17&#45;&gt;Node19 -->
<g id="edge24" class="edge"><title>Node17&#45;&gt;Node19</title>
<path fill="none" stroke="midnightblue" d="M579.024,-112.444C554.843,-103.438 516.582,-89.1891 489.354,-79.049"/>
<polygon fill="midnightblue" stroke="midnightblue" points="490.461,-75.7265 479.868,-75.5164 488.018,-82.2864 490.461,-75.7265"/>
</g>
<!-- Node20 -->
<g id="node20" class="node"><title>Node20</title>
<polygon fill="none" stroke="#bfbfbf" points="603.5,-56.5 603.5,-75.5 652.5,-75.5 652.5,-56.5 603.5,-56.5"/>
<text text-anchor="middle" x="628" y="-63.5" font-family="Helvetica,sans-Serif" font-size="10.00">string.h</text>
</g>
<!-- Node17&#45;&gt;Node20 -->
<g id="edge25" class="edge"><title>Node17&#45;&gt;Node20</title>
<path fill="none" stroke="midnightblue" d="M606.293,-112.083C609.852,-104.691 615.022,-93.9533 619.424,-84.8111"/>
<polygon fill="midnightblue" stroke="midnightblue" points="622.602,-86.2795 623.787,-75.7511 616.295,-83.2427 622.602,-86.2795"/>
</g>
<!-- Node21&#45;&gt;Node4 -->
<g id="edge28" class="edge"><title>Node21&#45;&gt;Node4</title>
<path fill="none" stroke="midnightblue" d="M237.744,-57.9282C242.551,-57.242 247.374,-56.5848 252,-56 398.398,-37.4938 572.492,-21.8114 653.831,-14.8512"/>
<polygon fill="midnightblue" stroke="midnightblue" points="654.548,-18.3029 664.215,-13.9669 653.954,-11.3281 654.548,-18.3029"/>
</g>
<!-- Node21&#45;&gt;Node8 -->
<g id="edge29" class="edge"><title>Node21&#45;&gt;Node8</title>
<path fill="none" stroke="midnightblue" d="M193,-56.083C193,-49.0059 193,-38.8611 193,-29.9865"/>
<polygon fill="midnightblue" stroke="midnightblue" points="196.5,-29.751 193,-19.7511 189.5,-29.7511 196.5,-29.751"/>
</g>
<!-- Node22&#45;&gt;Node4 -->
<g id="edge31" class="edge"><title>Node22&#45;&gt;Node4</title>
<path fill="none" stroke="midnightblue" d="M416.783,-112.087C413.902,-98.1588 410.781,-71.2527 425,-56 455.318,-23.4768 583.876,-14.4584 653.966,-11.9583"/>
<polygon fill="midnightblue" stroke="midnightblue" points="654.397,-15.4463 664.277,-11.6225 654.169,-8.44997 654.397,-15.4463"/>
</g>
<!-- Node22&#45;&gt;Node18 -->
<g id="edge34" class="edge"><title>Node22&#45;&gt;Node18</title>
<path fill="none" stroke="midnightblue" d="M435.549,-112.324C451.992,-103.703 477.435,-90.3643 496.468,-80.3855"/>
<polygon fill="midnightblue" stroke="midnightblue" points="498.261,-83.3977 505.492,-75.6545 495.011,-77.198 498.261,-83.3977"/>
</g>
<!-- Node22&#45;&gt;Node19 -->
<g id="edge32" class="edge"><title>Node22&#45;&gt;Node19</title>
<path fill="none" stroke="midnightblue" d="M425.275,-112.083C430.642,-104.455 438.518,-93.2645 445.079,-83.9408"/>
<polygon fill="midnightblue" stroke="midnightblue" points="447.949,-85.9434 450.842,-75.7511 442.225,-81.9149 447.949,-85.9434"/>
</g>
<!-- Node23 -->
<g id="node23" class="node"><title>Node23</title>
<polygon fill="none" stroke="#bfbfbf" points="332,-56.5 332,-75.5 378,-75.5 378,-56.5 332,-56.5"/>
<text text-anchor="middle" x="355" y="-63.5" font-family="Helvetica,sans-Serif" font-size="10.00">cstring</text>
</g>
<!-- Node22&#45;&gt;Node23 -->
<g id="edge33" class="edge"><title>Node22&#45;&gt;Node23</title>
<path fill="none" stroke="midnightblue" d="M408.717,-112.324C399.164,-104.263 384.72,-92.0765 373.216,-82.3695"/>
<polygon fill="midnightblue" stroke="midnightblue" points="375.37,-79.6076 365.47,-75.8339 370.856,-84.9577 375.37,-79.6076"/>
</g>
<!-- Node24&#45;&gt;Node4 -->
<g id="edge36" class="edge"><title>Node24&#45;&gt;Node4</title>
<path fill="none" stroke="midnightblue" d="M901.038,-168.143C899.196,-154.764 894.114,-129.142 881,-112 845.273,-65.2994 781.414,-37.0673 739.89,-22.7535"/>
<polygon fill="midnightblue" stroke="midnightblue" points="740.954,-19.4188 730.36,-19.5769 738.74,-26.0596 740.954,-19.4188"/>
</g>
<!-- Node24&#45;&gt;Node17 -->
<g id="edge37" class="edge"><title>Node24&#45;&gt;Node17</title>
<path fill="none" stroke="midnightblue" d="M854.795,-168.503C801.87,-158.977 716.048,-143.529 659.316,-133.317"/>
<polygon fill="midnightblue" stroke="midnightblue" points="659.887,-129.863 649.425,-131.536 658.646,-136.753 659.887,-129.863"/>
</g>
<!-- Node25 -->
<g id="node25" class="node"><title>Node25</title>
<g id="a_node25"><a xlink:href="include_2stm_2macros_8hpp.html" target="_top" xlink:title="stm/macros.hpp">
<polygon fill="none" stroke="black" points="785.5,-112.5 785.5,-131.5 872.5,-131.5 872.5,-112.5 785.5,-112.5"/>
<text text-anchor="middle" x="829" y="-119.5" font-family="Helvetica,sans-Serif" font-size="10.00">stm/macros.hpp</text>
</a>
</g>
</g>
<!-- Node24&#45;&gt;Node25 -->
<g id="edge38" class="edge"><title>Node24&#45;&gt;Node25</title>
<path fill="none" stroke="midnightblue" d="M890.271,-168.324C879.163,-160.107 862.258,-147.602 849.017,-137.807"/>
<polygon fill="midnightblue" stroke="midnightblue" points="851.063,-134.967 840.942,-131.834 846.9,-140.595 851.063,-134.967"/>
</g>
<!-- Node25&#45;&gt;Node4 -->
<g id="edge39" class="edge"><title>Node25&#45;&gt;Node4</title>
<path fill="none" stroke="midnightblue" d="M822.524,-112.31C812.45,-99.1482 791.989,-73.8078 771,-56 756.851,-43.9955 739.242,-32.8148 725.101,-24.6009"/>
<polygon fill="midnightblue" stroke="midnightblue" points="726.804,-21.5436 716.38,-19.6528 723.35,-27.6319 726.804,-21.5436"/>
</g>
<!-- Node26&#45;&gt;Node4 -->
<g id="edge41" class="edge"><title>Node26&#45;&gt;Node4</title>
<path fill="none" stroke="midnightblue" d="M748.258,-168.075C740.23,-141.945 716.655,-65.2106 705.707,-29.577"/>
<polygon fill="midnightblue" stroke="midnightblue" points="708.915,-28.0992 702.632,-19.5681 702.224,-30.1551 708.915,-28.0992"/>
</g>
<!-- Node26&#45;&gt;Node17 -->
<g id="edge42" class="edge"><title>Node26&#45;&gt;Node17</title>
<path fill="none" stroke="midnightblue" d="M727.391,-168.444C702.542,-159.438 663.226,-145.189 635.246,-135.049"/>
<polygon fill="midnightblue" stroke="midnightblue" points="636.093,-131.633 625.499,-131.516 633.708,-138.214 636.093,-131.633"/>
</g>
<!-- Node27&#45;&gt;Node4 -->
<g id="edge45" class="edge"><title>Node27&#45;&gt;Node4</title>
<path fill="none" stroke="midnightblue" d="M610.282,-224.09C612.438,-211.082 617.611,-186.437 628,-168 638.656,-149.091 650.086,-150.762 661,-132 680.441,-98.5808 691.537,-54.2423 696.606,-29.5754"/>
<polygon fill="midnightblue" stroke="midnightblue" points="700.046,-30.2203 698.519,-19.7361 693.174,-28.8842 700.046,-30.2203"/>
</g>
<!-- Node27&#45;&gt;Node13 -->
<g id="edge44" class="edge"><title>Node27&#45;&gt;Node13</title>
<path fill="none" stroke="midnightblue" d="M617.587,-224.083C625.159,-216.22 636.378,-204.569 645.514,-195.081"/>
<polygon fill="midnightblue" stroke="midnightblue" points="648.158,-197.382 652.573,-187.751 643.115,-192.527 648.158,-197.382"/>
</g>
<!-- Node27&#45;&gt;Node16 -->
<g id="edge47" class="edge"><title>Node27&#45;&gt;Node16</title>
<path fill="none" stroke="midnightblue" d="M590.936,-224.444C572.425,-215.675 543.419,-201.935 522.145,-191.858"/>
<polygon fill="midnightblue" stroke="midnightblue" points="523.515,-188.634 512.979,-187.516 520.518,-194.96 523.515,-188.634"/>
</g>
<!-- Node27&#45;&gt;Node17 -->
<g id="edge46" class="edge"><title>Node27&#45;&gt;Node17</title>
<path fill="none" stroke="midnightblue" d="M605.4,-224.222C601.944,-215.285 596.967,-200.942 595,-188 592.652,-172.552 594.854,-154.92 597.391,-141.922"/>
<polygon fill="midnightblue" stroke="midnightblue" points="600.874,-142.381 599.601,-131.863 594.037,-140.879 600.874,-142.381"/>
</g>
<!-- Node28&#45;&gt;Node4 -->
<g id="edge49" class="edge"><title>Node28&#45;&gt;Node4</title>
<path fill="none" stroke="midnightblue" d="M387.266,-284.269C340.316,-277.987 268.446,-265.151 252,-244 211.101,-191.402 21.6088,-288.779 307,-56 359.203,-13.4203 562.207,-9.67459 654.216,-10.2486"/>
<polygon fill="midnightblue" stroke="midnightblue" points="654.316,-13.7494 664.344,-10.3322 654.373,-6.74964 654.316,-13.7494"/>
</g>
<!-- Node29&#45;&gt;Node2 -->
<g id="edge53" class="edge"><title>Node29&#45;&gt;Node2</title>
<path fill="none" stroke="midnightblue" d="M99.1826,-448.324C85.767,-439.9 65.1759,-426.971 49.4144,-417.074"/>
<polygon fill="midnightblue" stroke="midnightblue" points="51.1132,-414.008 40.7831,-411.655 47.3908,-419.936 51.1132,-414.008"/>
</g>
<!-- Node29&#45;&gt;Node4 -->
<g id="edge51" class="edge"><title>Node29&#45;&gt;Node4</title>
<path fill="none" stroke="midnightblue" d="M113.915,-448.454C115.813,-429.971 120,-384.889 120,-347 120,-347 120,-347 120,-121 120,-90.9022 115.658,-75.0007 139,-56 178.57,-23.7893 527.048,-14.1836 653.996,-11.7387"/>
<polygon fill="midnightblue" stroke="midnightblue" points="654.233,-15.235 664.166,-11.5491 654.102,-8.23619 654.233,-15.235"/>
</g>
<!-- Node29&#45;&gt;Node8 -->
<g id="edge52" class="edge"><title>Node29&#45;&gt;Node8</title>
<path fill="none" stroke="midnightblue" d="M108.819,-448.393C100.358,-430.156 82,-386.087 82,-347 82,-347 82,-347 82,-121 82,-90.2048 85.6114,-79.0792 106,-56 119.964,-40.1931 140.819,-29.1398 158.61,-21.9444"/>
<polygon fill="midnightblue" stroke="midnightblue" points="160.007,-25.1578 168.115,-18.3381 157.524,-18.613 160.007,-25.1578"/>
</g>
<!-- Node30&#45;&gt;Node3 -->
<g id="edge56" class="edge"><title>Node30&#45;&gt;Node3</title>
<path fill="none" stroke="midnightblue" d="M985,-448.083C985,-441.006 985,-430.861 985,-421.986"/>
<polygon fill="midnightblue" stroke="midnightblue" points="988.5,-421.751 985,-411.751 981.5,-421.751 988.5,-421.751"/>
</g>
<!-- Node30&#45;&gt;Node9 -->
<g id="edge55" class="edge"><title>Node30&#45;&gt;Node9</title>
<path fill="none" stroke="midnightblue" d="M1014.88,-453.185C1067.46,-444.62 1171,-418.656 1171,-347 1171,-347 1171,-347 1171,-121 1171,-83.1777 1142.16,-46.9402 1122.91,-26.9551"/>
<polygon fill="midnightblue" stroke="midnightblue" points="1125.14,-24.2429 1115.59,-19.6585 1120.2,-29.1988 1125.14,-24.2429"/>
</g>
</g>
</svg>
